M48
;Layer_Color=9474304
;FILE_FORMAT=2:4
INCH
;TYPE=PLATED
T1F00S00C0.0079
T2F00S00C0.0197
T3F00S00C0.0217
T4F00S00C0.0276
T5F00S00C0.0315
T6F00S00C0.0354
T7F00S00C0.0551
T8F00S00C0.0591
T9F00S00C0.0669
T10F00S00C0.0984
;TYPE=NON_PLATED
T11F00S00C0.0571
%
T01
X011496Y010295
X011624Y010994
X011634Y011289
X011427Y011437
X011447Y012185
X011476Y012431
X011417Y012697
X011949Y013110
X011713Y013366
X011417Y013848
X011654Y014124
X011447Y014360
X011526Y014818
Y015025
X011535Y015408
Y015615
X011033Y015443
X012264Y014488
X012510Y014488
X012717
X012402Y014134
X013632Y013957
X014478Y014094
X015276Y014134
Y014341
X015512
Y014134
X015213Y013825
X015218Y013299
X015468Y013297
X014961Y012992
X014744
X014350Y013134
X014139
X013927
X013218Y012785
X012648Y012795
X012844Y013051
X013032Y015000
X013947Y015020
X014232Y015408
Y015615
X015276Y014646
X014972Y012301
X014722Y012299
Y012044
X014972Y011801
X015472Y011798
X015474Y010801
X014882Y010354
X014321Y010876
X014055Y011339
X013376Y010906
X015972Y010801
X016220Y010787
X016472Y010801
X016024Y010394
X017126Y010591
X017717Y010827
X018543Y010748
X018878Y010776
X019468Y010787
X019821Y010770
X020138Y010758
X020683Y010785
X020917Y010770
X021112Y011280
X021183Y011785
X021183Y012285
X020675
X020669Y012781
X020679Y013032
X020669Y013282
X020429Y013283
X020179
X019907Y013280
X019902Y013543
Y013806
X020675Y013781
X020718Y014059
Y014273
Y014487
Y014700
X021004Y014931
X021220
X021102Y015433
X020472Y015433
X020157
X019842Y015433
X019527
X019212
X018858Y015394
X018681Y014862
X018494Y014862
X018307
X018120
X017844Y014892
X017589Y014882
X017106Y014557
X016910Y014754
X016555Y015236
X016220Y015276
X015984Y015236
X016063Y014606
Y014341
Y014094
X015748Y014134
Y014341
X015728Y014616
X015718Y013299
X016033Y013297
X016468
X016706Y013268
X016886
X017067
X017247
X017434Y013258
X017539Y013100
X018268Y013150
X018583
X018898
X019213
X019433Y012283
X019683Y012285
Y011785
X019433Y012028
X020183Y011782
Y011285
X020384Y010276
X021713Y010876
X021703Y011240
X022333Y011319
X022372Y011063
X022438Y011773
X022432Y012028
X022175Y011785
X022181Y012285
X022648Y012736
X022953Y012697
X023307Y012874
X023248Y012431
X023219Y012165
X023184Y011407
X023376
X023568
X024626Y011644
X024823
X025020
X025020Y011841
X024823
X024626
X025325Y011732
X025600Y012008
X025748Y012283
X025906Y012638
X025354Y012598
X025157Y012795
X024803Y013110
X024596
X024213Y013100
X024006Y013238
X023435Y013474
Y013691
Y013907
X023435Y014134
X023245
X023054
X022864
X022018Y013957
X022116Y013789
X021919
Y013583
X022116
Y013376
X022313
X021919
X021722
X021526
X021673Y013140
Y012864
X021179Y013282
X021732Y014104
X021732Y015069
Y015276
X022165Y015276
X021949Y015059
X022593Y015020
Y015610
X024350Y015423
X024301Y015089
X024144Y014282
X024695Y014104
X024999Y014617
X024966Y015610
X029292Y015614
Y015407
X029291Y015023
Y014816
X030256Y014624
Y015215
X030689Y015214
Y015017
X024262Y010728
X024222Y010354
X022063Y010591
X017721Y012044
X017715Y012299
X017470Y012301
X017465Y011801
X016472
X016467Y012293
X015974
X015965Y012797
X016654Y012815
X016467Y013770
X018602Y014222
Y014449
Y014656
X017951Y015432
X019734Y015039
X018268Y012756
X016965Y011301
X032520Y011317
Y011052
Y011583
Y011849
Y012115
X031654Y014421
Y014628
X031653Y015407
Y015614
X034764Y015157
X036025Y014491
X036329Y014452
X037087Y014437
X037008Y013699
X037211Y013699
X037414Y013699
X037617Y013699
X036805Y013699
X037819Y015116
X038346Y015235
X039173Y015353
X040305Y015392
X040433Y015609
Y015018
Y014624
X040207Y014841
X041507Y014893
X041713Y015017
Y014623
Y015410
X042569Y014821
X041486Y011859
X040837
X040089
X039498Y012321
X038937Y012518
X038110Y012065
X037795Y011573
Y011367
Y011160
Y010953
X037559
Y011160
Y011367
Y011573
X037520Y010510
X036185Y011596
X034523Y013442
X039508Y015727
X039685Y016002
X040315Y016194
Y016401
X040433Y016593
X040315Y016785
Y016992
X040433Y017183
Y017775
Y018366
Y018760
X040428Y019351
X040433Y019941
Y020532
Y021122
Y021712
X040236Y022479
X040000
X039764
X039528
X038573Y022469
X038020Y022654
X037815Y022065
X036709Y022331
X036299
X036270Y022794
X035779Y022785
X035249Y022786
X035560Y023363
X034516Y023373
X034300
X034083
X033867
X033650
X034384Y024485
X034225Y025458
X034376Y026070
X035146Y025066
X035338
Y024879
X035540
X035530Y025066
X035137Y024879
X036829Y024977
X036862Y024384
X038346Y024004
X038538
X038730
X038701Y025914
X038509
X038317
X041457Y023896
X041693
X041929
X042165
X041713Y021711
Y021120
Y020727
Y020530
Y019939
Y019349
Y018757
Y018363
Y017773
X041718Y017181
X041713Y016591
Y016001
X041279Y016002
X041506Y015756
X042677Y016194
Y016401
Y016785
Y016991
Y017375
Y017582
X039487Y017607
X039404Y017213
X039467Y016830
X038514Y017203
X038819Y018030
X038593Y018483
X039490Y018896
Y019426
Y019806
X039507Y020236
Y020906
X038659Y020526
X038539Y019816
X043583Y019939
X034970Y022065
X033345Y025056
X031653Y020338
Y020131
Y019747
Y019541
Y018954
X030689Y019150
Y019349
X030251Y019351
X030256Y018761
X030374Y018566
Y018360
X030689Y018166
Y018757
Y017576
X030256Y017574
X030374Y017385
Y017179
X030689Y016985
Y016395
X030256Y016396
X030374Y016204
Y015997
X030689Y015809
X029410Y015805
X029292Y016588
Y016795
X029410Y016987
X029291Y017770
Y017977
X029409Y018170
X029291Y018952
Y019158
X029292Y019541
Y019747
Y020131
Y020338
X029203Y020959
X029409Y021319
Y021516
X030483Y021353
Y021013
X030689Y020924
Y020530
X030256Y020533
Y019942
X030689Y019939
Y021514
Y021908
X030483Y022033
X025557Y021618
X025630Y021309
X025827Y020971
Y020765
X026053Y020866
X026067Y020171
X025585Y020121
X025702Y019778
X025945Y019471
Y019265
X026132Y019380
X026328Y019227
X025551Y018976
X025557Y018618
X026240Y018258
X025020Y017972
X025000Y017584
Y017377
X024966Y016594
X025157Y016403
Y016196
X025787Y016142
Y016348
X025807Y015935
X026161Y016240
X025522Y016791
X024311Y016821
X024321Y016378
X024262Y016201
X023425Y016811
X022323Y016772
X022177Y016918
X021797Y016850
X021932Y017187
X021850Y017402
X022244Y017313
X022530Y017707
X022510Y018159
X022545Y018552
X022343Y018425
X022372Y018986
X022549Y019154
X022480Y019360
X022593Y019547
X022559Y019783
X022441Y019961
X022593Y020138
X022283Y020463
X022081Y020315
X021874
X022047Y020640
X022244Y020817
X022232Y021028
X022025
X021797Y020945
X022480Y021010
X022579Y021319
X022598Y021575
X022441Y022047
X022232Y021870
X022025
X021782Y022156
X021732Y022362
X021102
X021142Y022579
X021102Y022047
X020787Y022047
X020787Y021732
Y021417
X020787Y021102
Y020787
X021102
Y021102
Y021417
Y021732
X021417Y021733
X020787Y022362
X020157Y022362
X020086Y022576
X019961Y022795
X019331Y022657
X019144Y022825
X018701
X018354Y023061
X018147
Y024083
X018354
X018583Y024085
X018789Y023927
X018885Y023688
Y023481
X018868Y024331
X018957Y024961
X018622Y025000
X018415Y024911
X018474Y024685
X018474Y025394
X018268
X018691Y025394
X019144Y025551
X019350Y025138
X019842Y025118
X019674Y024838
Y024631
X019764Y024311
X020020Y024135
X020017Y023937
X020246
X020248Y024135
X020610Y024409
X020940
X021270
Y024739
X020940
X020610
Y025069
X020940
X021270
X021693Y025305
X021693Y024163
X021220Y023573
X021216Y023387
X021004Y023386
Y023573
X020753Y023578
X019801Y023481
Y023688
X019527Y022047
X019842Y021732
Y021417
Y021102
X019527Y021102
Y020787
Y020472
X019527Y020157
X019212Y020157
X019212Y020472
X018897
X018582
Y020787
X018897
X019212
X019212Y021102
X018897
X018582
X018582Y021417
X018897
Y021732
X018582
X018583Y022047
X019212Y021732
Y021417
X020158Y021417
X020158Y021732
X020157Y022047
X020157Y021102
Y020787
X020472
Y021102
X020472Y020472
Y020157
X020157Y020157
Y020472
X019842Y020157
X019842Y019842
X019527Y019842
X019527Y019527
X019212Y019527
X019212Y019842
Y019212
X019527
X019842Y019212
Y019527
X020157
X020472
Y019212
X020157
X019842Y018897
X019842Y018582
Y018268
X020157
X020157Y018582
X020472
Y018268
X020787
Y018582
X020787Y018897
X020787Y019212
X021102
X021102Y019527
X021417
X021417Y019842
X021417Y020157
X021102Y020157
X021102Y019842
X020787Y019843
X020787Y020157
X020472Y019842
X020157Y019842
X020787Y019527
X021850Y019370
X022056
X022156Y017943
X021417Y017638
X021102
Y017323
Y017008
Y016693
X021417
Y016378
X021102Y016378
Y016063
X021417
Y015748
X021732Y015748
X022274Y015669
X021102Y015748
X020787
X020472Y015748
Y016063
X020157
X019842
Y016378
X019527
X019212Y016378
Y016063
X018897Y016063
Y016378
X018582Y016693
X019527
X019527Y017008
Y017323
X019842Y017323
X019842Y017638
Y017953
X020157
X020472
X020787
Y017638
X020472Y017323
X020157
Y017008
Y016693
X020472
Y017008
Y016378
X020157
X019842Y016693
Y017008
X019212Y017323
Y017638
X019527Y017637
X018897Y017638
Y017323
X018267
X017952Y017638
X017637
Y017323
X017008
Y017638
X017322
Y017953
X017008
X017008Y018582
X017322
X017637Y018582
X017952Y018582
X017952Y018268
X018267Y018582
X018267Y018897
X018267Y019212
X018582Y019212
X018897
X018897Y018582
X018897Y018268
X018582Y018268
X018582Y017953
X018582Y018582
X019212
X019212Y018268
X019527Y018267
Y018582
X019527Y018897
X018582Y019527
Y019842
X017952Y019842
X017637
Y019527
X017952
X017637Y019212
X017322
X017008
Y019527
X017322
X017322Y019842
X017008
Y020157
Y020472
Y020787
X017008Y021102
X017008Y021417
X017322Y021417
X017637
Y021102
X017322
X017952
Y020787
X017952Y020472
X017637
X017322
Y020157
X017637Y020157
X017952
X018897
X016693Y020157
X016063Y020472
X016063Y019842
X015748
X016063Y019527
X015747Y019212
X016063Y018582
X016063Y018268
X016378Y017638
X016063Y017323
X016693Y017323
X016693Y016693
X016378Y016693
X016063Y016693
X015748Y016378
Y015748
X016063
X016378
X016378Y016063
X017322Y016063
X017322Y016378
X017952Y016378
X017637Y017953
X016693Y018582
X016378Y021102
X016693Y021417
X016386Y022045
X017008Y022362
X017313Y022372
Y022579
X016978Y023062
Y023269
Y023484
X016909Y023829
X017077Y023986
X016732Y024055
X016693Y023622
X016161Y024134
X015866Y024129
X015925Y023337
X016102Y025039
Y025394
X016742Y025384
Y025039
X017319
Y025394
X017283Y026260
X016772Y026299
X016496Y026195
X016339Y026339
X016024Y026195
X015669Y026339
X017795Y026181
X018130Y026280
X018150Y025866
X021467Y026309
X022067Y023258
X022234Y023396
X022372Y023238
X022402Y022441
X023927Y022559
X023646Y022992
X023681Y023386
X024783Y023091
X025079Y022047
X024322Y021556
X024345Y021319
Y020925
X024321Y020679
X024281Y020453
X024345Y020138
Y019744
X024291Y019409
X024345Y019154
X024291Y018898
Y018445
X024345Y018169
X021102Y018268
X021102Y017953
X020787Y016378
X020787Y016063
X019842Y015748
X019527
X017952Y021419
X017637Y021732
X015748Y021417
X025748Y023471
X026161Y024144
X025152Y024589
X015571Y024478
X015374Y024193
X015098Y024163
X015286Y025335
X015451Y025965
X015319Y026307
X014104Y023307
X013839Y022795
X013986Y022106
X014055Y021772
X013986Y021516
Y021319
X014183Y020925
X014262Y020719
X014094Y020551
Y020315
X014075Y019981
Y019745
X014065Y019528
X014422Y019878
X014629
X015118Y019842
X015433Y019842
X015118Y019527
X015433Y019212
X015118Y018582
X014745Y018568
Y018361
X014692Y018061
X014485
X013974Y017977
Y017771
X014042Y017271
Y017064
X014485Y017249
X014692
X014732Y016796
Y016590
X014626Y016398
X014400Y016417
X014764Y016220
X014724Y015630
X015433Y015748
X015118Y016693
X015118Y017638
X015433Y017323
X014630Y018976
X014423
X014012Y018868
X013199Y018533
X013258Y018317
X013218Y017579
X013023Y017676
X012638Y017638
Y017431
X012687Y017884
X012638Y018140
X012215Y017579
X012264Y017224
X012697Y016732
X013002Y016939
X013140Y015984
X013286Y016130
X013996Y016206
Y015999
X012913Y015709
X012480Y015758
X011545Y016329
Y016590
Y016796
X011181Y017116
X010728Y017096
X010472
X010650Y017559
Y017766
X010669Y018287
X010886Y018327
X011005Y017953
X011212
X011417Y018022
X011545Y018199
X010630Y018642
X010433Y019257
Y019464
X010393Y019685
Y019941
X010364Y020157
Y020394
X010344Y020768
X010335Y021093
Y021299
X010827Y021329
X011132Y021516
X011063Y021811
X011093Y022116
X011398Y022148
Y021870
Y022426
Y022704
Y022982
X011014Y022992
X010679Y023219
X010433Y023041
X010423Y022766
X010738Y023750
X010723Y024300
X011026Y024339
X011201Y024921
X011583Y023278
X011805
X012028
X012250
X012472
X012695
X012904Y022516
Y022268
Y022020
Y021772
X013278Y021909
X013287Y022372
X013223Y021142
X012608Y020709
X012269Y020531
Y019941
X012785
X012776Y019350
X012520Y019370
X012285Y019350
X011348Y019557
X011181Y020157
X011476Y020719
X015118Y020787
Y020472
X015433Y020787
X015118Y021732
X015433Y022047
T02
X034569Y015556
X035069
X035569
X036069
X036569
X037069
X037569
Y016056
Y016556
X037069
Y016056
X036569
X036069
X035569
X035069
Y016556
Y017056
X035569
Y016556
X036069
Y017056
X036569
Y016556
Y017556
X036069
X035569
Y018056
Y018556
Y019056
X035069
Y018556
Y018056
Y017556
X034569
X034069
Y018056
X034569
Y018556
Y019056
X034069
Y018556
Y019556
X034569
Y020056
Y020556
Y021056
X034069
Y020556
Y020056
X035069
Y020556
Y021056
X035569
Y020556
Y020056
Y019556
X035069
X036069
Y020056
Y020556
Y021056
X036569
Y020556
Y020056
Y019556
Y019056
X036069
Y018556
Y018056
X036569
Y018556
X037069
X037569
Y018056
Y017556
Y017056
X037069Y017056
Y017556
Y018056
Y019056
X037569Y019056
Y019556
Y020056
Y020556
X037069
Y020056
Y019556
Y021056
X037569
X034569Y017056
X034069
Y016556
Y016056
X034569
Y016556
T03
X012264Y010492
X012756
X030167Y010806
X030659
X020984Y026033
X020492
X020000
X019508
X019016
T04
X025354Y013638
Y014426
Y015213
X026142Y014819
Y014032
Y013244
T05
X024656Y010453
Y011240
X013268Y024970
T06
X023415Y025118
T07
X022415Y024118
Y026118
X024415
Y024118
T08
X025866Y017622
Y022638
T09
X012268Y023970
Y025970
X014268
Y023970
T10
X010787Y010787
X025748
X028504Y010786
X043465
Y025746
X028504
X025748Y025748
X010787
T11
X013307Y013583
X024331
X030866Y013620
X041890
X041890Y022912
X030866
X024331Y022953
X013307
M30
