G04 Layer_Color=8388736*
%FSAX24Y24*%
%MOIN*%
G70*
G01*
G75*
%ADD16C,0.0236*%
%ADD17C,0.0394*%
%ADD18R,0.0236X0.0394*%
%ADD19R,0.0244X0.0228*%
%ADD20R,0.0315X0.0315*%
%ADD21R,0.0394X0.0689*%
%ADD22R,0.0591X0.0118*%
%ADD23R,0.0228X0.0244*%
%ADD24R,0.0354X0.0394*%
%ADD25R,0.0571X0.1181*%
%ADD26R,0.0394X0.0394*%
%ADD27R,0.0394X0.0394*%
%ADD28R,0.0374X0.0394*%
%ADD29R,0.0394X0.0374*%
%ADD30R,0.0244X0.0244*%
%ADD31R,0.0244X0.0244*%
%ADD32R,0.0453X0.0709*%
%ADD33R,0.0709X0.0453*%
%ADD34R,0.0394X0.0354*%
%ADD35R,0.0807X0.0256*%
%ADD36R,0.0807X0.1260*%
%ADD37R,0.0413X0.0256*%
%ADD38R,0.0413X0.0217*%
%ADD39R,0.1181X0.0551*%
%ADD40R,0.1181X0.0512*%
%ADD41R,0.0394X0.0236*%
%ADD42R,0.0315X0.0315*%
%ADD43R,0.0472X0.0551*%
%ADD44R,0.0433X0.0472*%
%ADD45O,0.0335X0.0079*%
%ADD46R,0.1457X0.0650*%
%ADD47O,0.0079X0.0335*%
%ADD48R,0.0315X0.0669*%
%ADD49R,0.0315X0.0433*%
%ADD50R,0.0787X0.0354*%
%ADD51R,0.0079X0.0276*%
%ADD52R,0.0630X0.0394*%
%ADD53R,0.2087X0.2087*%
%ADD54O,0.0335X0.0118*%
%ADD55O,0.0118X0.0335*%
%ADD56C,0.0177*%
%ADD57R,0.0236X0.0433*%
%ADD58R,0.0748X0.0571*%
%ADD59R,0.0394X0.0374*%
%ADD60R,0.0453X0.0571*%
%ADD61R,0.0571X0.0453*%
%ADD62R,0.0354X0.0197*%
%ADD63R,0.0709X0.0945*%
%ADD64R,0.0295X0.0079*%
%ADD65R,0.0571X0.0433*%
%ADD69C,0.0120*%
G04:AMPARAMS|DCode=82|XSize=41.3mil|YSize=49.2mil|CornerRadius=10.3mil|HoleSize=0mil|Usage=FLASHONLY|Rotation=180.000|XOffset=0mil|YOffset=0mil|HoleType=Round|Shape=RoundedRectangle|*
%AMROUNDEDRECTD82*
21,1,0.0413,0.0285,0,0,180.0*
21,1,0.0207,0.0492,0,0,180.0*
1,1,0.0207,-0.0103,0.0143*
1,1,0.0207,0.0103,0.0143*
1,1,0.0207,0.0103,-0.0143*
1,1,0.0207,-0.0103,-0.0143*
%
%ADD82ROUNDEDRECTD82*%
%ADD84C,0.0315*%
%ADD85C,0.1378*%
%ADD86C,0.0591*%
%ADD87C,0.0945*%
%ADD88R,0.1102X0.0866*%
%ADD89C,0.0630*%
%ADD90C,0.0827*%
%ADD91O,0.0827X0.0669*%
%ADD92R,0.0591X0.0512*%
%ADD93C,0.0551*%
%ADD94C,0.0157*%
%ADD180C,0.0020*%
%ADD181P,0.1114X4X360.0*%
%ADD182C,0.0571*%
G36*
X024272Y016250D02*
X024193D01*
Y016358D01*
X024272Y016398D01*
Y016250D01*
D02*
G37*
G36*
X012726Y012687D02*
X012559D01*
Y012785D01*
X012726D01*
Y012687D01*
D02*
G37*
G36*
X013081Y017776D02*
Y017687D01*
X012953D01*
Y017776D01*
X013081Y017776D01*
D02*
G37*
G36*
X010600Y019507D02*
Y019428D01*
X010453Y019405D01*
X010453Y019523D01*
X010600Y019507D01*
D02*
G37*
G36*
Y019300D02*
Y019221D01*
X010453Y019198D01*
X010453Y019316D01*
X010600Y019300D01*
D02*
G37*
D16*
X018573Y024380D02*
D03*
X010758Y021693D02*
D03*
X010325Y021663D02*
D03*
D17*
X043583Y020407D02*
D03*
X039685Y013148D02*
D03*
X043120Y023896D02*
D03*
X029685Y025156D02*
D03*
X030177D02*
D03*
X030669D02*
D03*
X031161D02*
D03*
X012185Y016535D02*
D03*
X016998Y012254D02*
D03*
X015630Y010433D02*
D03*
X014262Y013583D02*
D03*
X022736Y015315D02*
D03*
X020571Y010413D02*
D03*
X020994Y013612D02*
D03*
X019419Y011240D02*
D03*
D18*
X042234Y011429D02*
D03*
X041486D02*
D03*
X041860Y010524D02*
D03*
X040837Y011429D02*
D03*
X040089D02*
D03*
X040463Y010524D02*
D03*
X025277Y023739D02*
D03*
X026025D02*
D03*
X025651Y024645D02*
D03*
D19*
X039498Y011644D02*
D03*
Y012014D02*
D03*
X038986Y011644D02*
D03*
Y012014D02*
D03*
X038455Y011644D02*
D03*
Y012014D02*
D03*
X036458Y010489D02*
D03*
Y010859D02*
D03*
X014035Y016449D02*
D03*
Y016819D02*
D03*
X016441Y023415D02*
D03*
Y023785D02*
D03*
X015005Y025937D02*
D03*
Y026307D02*
D03*
X014130Y018222D02*
D03*
Y018593D02*
D03*
X013729Y018593D02*
D03*
Y018222D02*
D03*
X012648Y012226D02*
D03*
Y012596D02*
D03*
X013002D02*
D03*
X013002Y012226D02*
D03*
X016425Y011468D02*
D03*
Y011098D02*
D03*
X014787Y011248D02*
D03*
Y010878D02*
D03*
X016024Y011468D02*
D03*
Y011098D02*
D03*
X010423Y022488D02*
D03*
X010423Y022118D02*
D03*
X010827Y022488D02*
D03*
Y022118D02*
D03*
D20*
X039508Y011150D02*
D03*
Y010500D02*
D03*
X038986Y011150D02*
D03*
Y010500D02*
D03*
X038455Y011150D02*
D03*
Y010500D02*
D03*
X010467Y024625D02*
D03*
Y023975D02*
D03*
X011018Y024625D02*
D03*
Y023975D02*
D03*
X014350Y011171D02*
D03*
Y010522D02*
D03*
D21*
X031161Y011809D02*
D03*
X029783D02*
D03*
D22*
X042136Y022105D02*
D03*
Y021908D02*
D03*
Y021711D02*
D03*
Y021514D02*
D03*
Y021317D02*
D03*
Y021120D02*
D03*
Y020924D02*
D03*
Y020727D02*
D03*
Y020530D02*
D03*
Y020333D02*
D03*
Y020136D02*
D03*
Y019939D02*
D03*
Y019742D02*
D03*
Y019546D02*
D03*
Y019349D02*
D03*
Y019150D02*
D03*
Y018959D02*
D03*
Y018757D02*
D03*
Y018560D02*
D03*
Y018363D02*
D03*
Y018166D02*
D03*
Y017970D02*
D03*
Y017773D02*
D03*
Y017576D02*
D03*
Y017379D02*
D03*
X042141Y017181D02*
D03*
X042136Y016985D02*
D03*
Y016788D02*
D03*
Y016591D02*
D03*
Y016395D02*
D03*
Y016198D02*
D03*
Y016001D02*
D03*
Y015809D02*
D03*
Y015607D02*
D03*
Y015410D02*
D03*
Y015214D02*
D03*
Y015017D02*
D03*
Y014820D02*
D03*
Y014623D02*
D03*
Y014426D02*
D03*
X040856Y022106D02*
D03*
Y021909D02*
D03*
Y021712D02*
D03*
Y021516D02*
D03*
Y021319D02*
D03*
Y021122D02*
D03*
Y020925D02*
D03*
Y020723D02*
D03*
Y020532D02*
D03*
Y020334D02*
D03*
Y020138D02*
D03*
Y019941D02*
D03*
Y019744D02*
D03*
Y019547D02*
D03*
X040851Y019351D02*
D03*
X040856Y019153D02*
D03*
Y018957D02*
D03*
Y018760D02*
D03*
Y018563D02*
D03*
Y018366D02*
D03*
Y018169D02*
D03*
Y017972D02*
D03*
Y017775D02*
D03*
Y017574D02*
D03*
Y017382D02*
D03*
Y017183D02*
D03*
Y016987D02*
D03*
Y016790D02*
D03*
Y016593D02*
D03*
Y016396D02*
D03*
Y016199D02*
D03*
Y016002D02*
D03*
Y015805D02*
D03*
Y015609D02*
D03*
Y015412D02*
D03*
Y015215D02*
D03*
Y015018D02*
D03*
Y014821D02*
D03*
Y014624D02*
D03*
Y014428D02*
D03*
X031112Y014426D02*
D03*
Y014623D02*
D03*
Y022105D02*
D03*
Y021908D02*
D03*
Y021711D02*
D03*
Y021514D02*
D03*
Y021317D02*
D03*
Y021120D02*
D03*
Y020924D02*
D03*
Y020727D02*
D03*
Y020530D02*
D03*
Y020333D02*
D03*
Y020136D02*
D03*
Y019939D02*
D03*
Y019742D02*
D03*
Y019546D02*
D03*
Y019349D02*
D03*
Y019150D02*
D03*
Y018959D02*
D03*
Y018757D02*
D03*
Y018560D02*
D03*
Y018363D02*
D03*
Y018166D02*
D03*
Y017773D02*
D03*
Y017576D02*
D03*
Y017379D02*
D03*
X031117Y017181D02*
D03*
X031112Y016985D02*
D03*
Y016788D02*
D03*
Y016591D02*
D03*
Y016395D02*
D03*
Y016198D02*
D03*
Y016001D02*
D03*
Y015809D02*
D03*
Y015607D02*
D03*
Y015410D02*
D03*
Y015214D02*
D03*
Y015017D02*
D03*
Y014820D02*
D03*
X029832Y022106D02*
D03*
Y021909D02*
D03*
Y021712D02*
D03*
Y021516D02*
D03*
Y021319D02*
D03*
Y021122D02*
D03*
Y020925D02*
D03*
Y020723D02*
D03*
Y020532D02*
D03*
Y020334D02*
D03*
Y020138D02*
D03*
Y019941D02*
D03*
Y019744D02*
D03*
Y019547D02*
D03*
X029828Y019351D02*
D03*
X029832Y019153D02*
D03*
Y018957D02*
D03*
Y018760D02*
D03*
Y018563D02*
D03*
Y018366D02*
D03*
Y018169D02*
D03*
Y017972D02*
D03*
Y017775D02*
D03*
Y017574D02*
D03*
Y017382D02*
D03*
Y017183D02*
D03*
Y016987D02*
D03*
Y016790D02*
D03*
Y016593D02*
D03*
Y016396D02*
D03*
Y016199D02*
D03*
Y016002D02*
D03*
Y015805D02*
D03*
Y015609D02*
D03*
Y015412D02*
D03*
Y015215D02*
D03*
Y015018D02*
D03*
Y014821D02*
D03*
Y014624D02*
D03*
Y014428D02*
D03*
X031112Y017970D02*
D03*
D23*
X039180Y015658D02*
D03*
X038810D02*
D03*
X039180Y016052D02*
D03*
X038810Y016052D02*
D03*
X035213Y026070D02*
D03*
X034843D02*
D03*
X038331Y018838D02*
D03*
X037961D02*
D03*
X039180Y016445D02*
D03*
X038810D02*
D03*
X013299Y014990D02*
D03*
X013669D02*
D03*
X023020Y013032D02*
D03*
X022650D02*
D03*
X011307Y023494D02*
D03*
X010937D02*
D03*
X010220D02*
D03*
X010591D02*
D03*
X022965Y019531D02*
D03*
X023335D02*
D03*
X022965Y018761D02*
D03*
X023335D02*
D03*
X022965Y019146D02*
D03*
X023335D02*
D03*
X022965Y020684D02*
D03*
X023335D02*
D03*
X022965Y021069D02*
D03*
X023335D02*
D03*
X022965Y019915D02*
D03*
X023335D02*
D03*
X022965Y020300D02*
D03*
X023335D02*
D03*
X024033Y021401D02*
D03*
X023663D02*
D03*
X024033Y021014D02*
D03*
X023663D02*
D03*
X024033Y018406D02*
D03*
X023663D02*
D03*
X024033Y020364D02*
D03*
X023663D02*
D03*
X022965Y017992D02*
D03*
X023335D02*
D03*
X022965Y018377D02*
D03*
X023335D02*
D03*
X022965Y017608D02*
D03*
X023335D02*
D03*
X024033Y019972D02*
D03*
X023663D02*
D03*
X022965Y017205D02*
D03*
X023335D02*
D03*
X024033Y019189D02*
D03*
X023663D02*
D03*
X024033Y019581D02*
D03*
X023663D02*
D03*
X024033Y018797D02*
D03*
X023663D02*
D03*
X022965Y021467D02*
D03*
X023335D02*
D03*
X024033Y022175D02*
D03*
X023663D02*
D03*
X023374Y022992D02*
D03*
X023004D02*
D03*
X022965Y022618D02*
D03*
X023335D02*
D03*
X022965Y022234D02*
D03*
X023335D02*
D03*
X024033Y021788D02*
D03*
X023663D02*
D03*
X022965Y021850D02*
D03*
X023335D02*
D03*
X011823Y012648D02*
D03*
X012193D02*
D03*
X011823Y012234D02*
D03*
X012193D02*
D03*
X012577Y013150D02*
D03*
X012207D02*
D03*
X022923Y016125D02*
D03*
X023293D02*
D03*
X020543Y011043D02*
D03*
X020913D02*
D03*
X020191Y011047D02*
D03*
X019821D02*
D03*
X025933Y011732D02*
D03*
X025563D02*
D03*
X011508Y017697D02*
D03*
X011878D02*
D03*
D24*
X036948Y022654D02*
D03*
X037578D02*
D03*
X036948Y023255D02*
D03*
X037578D02*
D03*
X035489Y013446D02*
D03*
X034859D02*
D03*
X019429Y010433D02*
D03*
X020059D02*
D03*
D25*
X039646Y024713D02*
D03*
X041831D02*
D03*
D26*
X037087Y013266D02*
D03*
Y012676D02*
D03*
X017480Y023533D02*
D03*
Y022943D02*
D03*
X018130Y013642D02*
D03*
Y014232D02*
D03*
X017534Y013642D02*
D03*
Y014232D02*
D03*
X016919Y013642D02*
D03*
Y014232D02*
D03*
X014892Y013642D02*
D03*
Y014232D02*
D03*
X020276Y013642D02*
D03*
Y014232D02*
D03*
D27*
X034753Y023875D02*
D03*
X035343D02*
D03*
X023012Y013691D02*
D03*
X022421D02*
D03*
X020581Y024035D02*
D03*
X021171D02*
D03*
X024341Y017756D02*
D03*
X023750D02*
D03*
D28*
X035343Y024475D02*
D03*
X034713D02*
D03*
X034694Y025460D02*
D03*
X035324D02*
D03*
X037077Y012065D02*
D03*
X037707D02*
D03*
D29*
X037067Y010500D02*
D03*
Y011130D02*
D03*
D30*
X038842Y020236D02*
D03*
X039196D02*
D03*
X038842Y020906D02*
D03*
X039196D02*
D03*
X038061Y020520D02*
D03*
X038415D02*
D03*
X038819Y016829D02*
D03*
X039173D02*
D03*
X038819Y017607D02*
D03*
X039173D02*
D03*
X038819Y017213D02*
D03*
X039173D02*
D03*
X037939Y019826D02*
D03*
X038293D02*
D03*
X038842Y019426D02*
D03*
X039196D02*
D03*
X038842Y018896D02*
D03*
X039196D02*
D03*
X037975Y018438D02*
D03*
X038329D02*
D03*
X037975Y017459D02*
D03*
X038329D02*
D03*
X038336Y015566D02*
D03*
X037982D02*
D03*
X035245Y023363D02*
D03*
X034890D02*
D03*
X039232Y022469D02*
D03*
X038878D02*
D03*
X037975Y018038D02*
D03*
X038329D02*
D03*
X038842Y019806D02*
D03*
X039196D02*
D03*
X017341Y023964D02*
D03*
X017695D02*
D03*
X012953Y017884D02*
D03*
X013307D02*
D03*
X019961Y024626D02*
D03*
X020315D02*
D03*
X024144Y014094D02*
D03*
X024498D02*
D03*
X018465Y011260D02*
D03*
X018110D02*
D03*
X013957Y011594D02*
D03*
X014311D02*
D03*
X019051Y011643D02*
D03*
X019406D02*
D03*
X023366Y023386D02*
D03*
X023012D02*
D03*
X024016Y016033D02*
D03*
X023661D02*
D03*
X019141Y023791D02*
D03*
X019141Y023378D02*
D03*
X019495Y023791D02*
D03*
X019495Y023378D02*
D03*
X023671Y020699D02*
D03*
X024026D02*
D03*
D31*
X037529Y021711D02*
D03*
Y022065D02*
D03*
X037089Y015130D02*
D03*
Y014776D02*
D03*
X037119Y021711D02*
D03*
Y022065D02*
D03*
X037529Y015143D02*
D03*
Y014788D02*
D03*
X036329Y014788D02*
D03*
Y015143D02*
D03*
X036029Y022436D02*
D03*
Y022790D02*
D03*
X036299Y021711D02*
D03*
Y022065D02*
D03*
X036709Y021711D02*
D03*
Y022065D02*
D03*
X035779Y021718D02*
D03*
Y022073D02*
D03*
X033639Y018098D02*
D03*
Y018453D02*
D03*
X033169Y018101D02*
D03*
Y018456D02*
D03*
X035689Y014491D02*
D03*
Y014846D02*
D03*
X035259Y021711D02*
D03*
Y022066D02*
D03*
X035499Y022438D02*
D03*
Y022793D02*
D03*
X035285Y014841D02*
D03*
Y014487D02*
D03*
X012205Y015758D02*
D03*
Y016112D02*
D03*
X021703Y023514D02*
D03*
Y023868D02*
D03*
X023750Y013406D02*
D03*
Y013760D02*
D03*
X015005Y024472D02*
D03*
Y024826D02*
D03*
X015005Y025571D02*
D03*
Y025216D02*
D03*
X024596Y016555D02*
D03*
X024596Y016909D02*
D03*
X010394Y018642D02*
D03*
Y018287D02*
D03*
X013799Y020108D02*
D03*
Y019754D02*
D03*
X013819Y020571D02*
D03*
Y020925D02*
D03*
X021663Y024587D02*
D03*
X021663Y024941D02*
D03*
X022933Y016486D02*
D03*
Y016841D02*
D03*
X018456Y023788D02*
D03*
X018044D02*
D03*
X018456Y023434D02*
D03*
X018044D02*
D03*
D32*
X037756Y013069D02*
D03*
X038937D02*
D03*
X039616Y023109D02*
D03*
X038435D02*
D03*
D33*
X033936Y023865D02*
D03*
Y025046D02*
D03*
D34*
X036467Y012056D02*
D03*
Y012685D02*
D03*
X023632Y010443D02*
D03*
Y011073D02*
D03*
D35*
X036161Y025969D02*
D03*
Y025469D02*
D03*
Y024969D02*
D03*
X036161Y024469D02*
D03*
X036161Y023969D02*
D03*
X035640Y010586D02*
D03*
Y011086D02*
D03*
Y011586D02*
D03*
Y012086D02*
D03*
Y012586D02*
D03*
D36*
X038524Y024969D02*
D03*
X033278Y011586D02*
D03*
D37*
X012657Y017028D02*
D03*
X013563Y016654D02*
D03*
D38*
Y017402D02*
D03*
D39*
X010689Y011909D02*
D03*
Y012697D02*
D03*
Y013484D02*
D03*
Y014272D02*
D03*
Y015846D02*
D03*
X010689Y016634D02*
D03*
D40*
X010689Y015059D02*
D03*
D41*
X012707Y016152D02*
D03*
Y015404D02*
D03*
X013612Y015778D02*
D03*
D42*
X013671Y014592D02*
D03*
X013022D02*
D03*
D43*
X023248Y014685D02*
D03*
Y015551D02*
D03*
X023996Y015551D02*
D03*
Y014685D02*
D03*
X012520Y022008D02*
D03*
Y022874D02*
D03*
X011850Y022008D02*
D03*
Y022874D02*
D03*
D44*
X015305Y023760D02*
D03*
Y022972D02*
D03*
X015935D02*
D03*
X015935Y023760D02*
D03*
D45*
X017894Y025433D02*
D03*
Y025591D02*
D03*
X015571Y024646D02*
D03*
Y024803D02*
D03*
Y024961D02*
D03*
Y025118D02*
D03*
Y025276D02*
D03*
Y025433D02*
D03*
Y025591D02*
D03*
Y025748D02*
D03*
X017894D02*
D03*
Y025276D02*
D03*
Y025118D02*
D03*
Y024961D02*
D03*
Y024803D02*
D03*
Y024646D02*
D03*
D46*
X016732Y025197D02*
D03*
D47*
X017598Y024429D02*
D03*
X017441D02*
D03*
X017283D02*
D03*
X017126D02*
D03*
X016968D02*
D03*
X016811Y024429D02*
D03*
X016654D02*
D03*
X016496Y024429D02*
D03*
X016339D02*
D03*
X016181D02*
D03*
X016024D02*
D03*
X015866D02*
D03*
Y025965D02*
D03*
X016024D02*
D03*
X016181D02*
D03*
X016339D02*
D03*
X016496D02*
D03*
X016654Y025965D02*
D03*
X016811D02*
D03*
X016968Y025965D02*
D03*
X017126D02*
D03*
X017283D02*
D03*
X017441D02*
D03*
X017598D02*
D03*
D48*
X022707Y010581D02*
D03*
X021368D02*
D03*
X018124Y010591D02*
D03*
X016785D02*
D03*
D49*
X022037Y011230D02*
D03*
X017455Y011240D02*
D03*
D50*
X024937Y021130D02*
D03*
Y020130D02*
D03*
Y018630D02*
D03*
Y021630D02*
D03*
Y020630D02*
D03*
Y019630D02*
D03*
Y019130D02*
D03*
D51*
X024183Y017303D02*
D03*
X024026D02*
D03*
X023868D02*
D03*
X023711D02*
D03*
X023553D02*
D03*
Y016476D02*
D03*
X023711D02*
D03*
X023868D02*
D03*
X024026D02*
D03*
X024183D02*
D03*
D52*
X023868Y016890D02*
D03*
D53*
X012047Y019852D02*
D03*
D54*
X013406Y020837D02*
D03*
Y020640D02*
D03*
Y020443D02*
D03*
Y020246D02*
D03*
Y020049D02*
D03*
Y019852D02*
D03*
Y019656D02*
D03*
Y019459D02*
D03*
Y019262D02*
D03*
Y019065D02*
D03*
Y018868D02*
D03*
X010689D02*
D03*
Y019065D02*
D03*
Y019262D02*
D03*
Y019459D02*
D03*
Y019656D02*
D03*
Y019852D02*
D03*
Y020049D02*
D03*
Y020246D02*
D03*
Y020443D02*
D03*
Y020640D02*
D03*
Y020837D02*
D03*
D55*
X013032Y018494D02*
D03*
X012835D02*
D03*
X012638D02*
D03*
X012441D02*
D03*
X012244D02*
D03*
X012047D02*
D03*
X011850D02*
D03*
X011654D02*
D03*
X011457D02*
D03*
X011260D02*
D03*
X011063D02*
D03*
Y021211D02*
D03*
X011260D02*
D03*
X011457D02*
D03*
X011654D02*
D03*
X011850D02*
D03*
X012047D02*
D03*
X012244D02*
D03*
X012441D02*
D03*
X012638D02*
D03*
X012835D02*
D03*
X013032D02*
D03*
D56*
X020000Y017480D02*
D03*
X021260Y015590D02*
D03*
X021574D02*
D03*
X021574Y016220D02*
D03*
Y016535D02*
D03*
X020945Y022205D02*
D03*
Y021890D02*
D03*
X015590Y022205D02*
D03*
X015905D02*
D03*
X016220Y022205D02*
D03*
X015590Y021890D02*
D03*
X015905Y021890D02*
D03*
X016220Y021890D02*
D03*
X016535Y022205D02*
D03*
X016850Y022205D02*
D03*
X017165D02*
D03*
X017480D02*
D03*
X017795D02*
D03*
X018110D02*
D03*
X016535Y021890D02*
D03*
X016850Y021890D02*
D03*
X017165D02*
D03*
X017480D02*
D03*
X017795D02*
D03*
X018110Y021890D02*
D03*
X018425Y022205D02*
D03*
X018740Y022205D02*
D03*
X019055D02*
D03*
X019370D02*
D03*
X020000D02*
D03*
X020315Y022205D02*
D03*
X020630Y022205D02*
D03*
X021260D02*
D03*
X021574D02*
D03*
X018425Y021890D02*
D03*
X018740D02*
D03*
X019055D02*
D03*
X019370D02*
D03*
X020000D02*
D03*
X020315Y021890D02*
D03*
X020630Y021890D02*
D03*
X021260D02*
D03*
X021574D02*
D03*
X014960Y021575D02*
D03*
X015275D02*
D03*
X014960Y021260D02*
D03*
X015275D02*
D03*
X014960Y020945D02*
D03*
X015275Y020945D02*
D03*
X014960Y020630D02*
D03*
X015275D02*
D03*
X014960Y020315D02*
D03*
X015275D02*
D03*
X014960Y020000D02*
D03*
X015275D02*
D03*
X014960Y019685D02*
D03*
X015275D02*
D03*
X014960Y019370D02*
D03*
X015275D02*
D03*
X014960Y019055D02*
D03*
X015275Y019055D02*
D03*
X014960Y018740D02*
D03*
X015275D02*
D03*
X014960Y018425D02*
D03*
X015275D02*
D03*
X014960Y018110D02*
D03*
X015275D02*
D03*
X014960Y017795D02*
D03*
X015275D02*
D03*
X014960Y017480D02*
D03*
X015275D02*
D03*
X014960Y017165D02*
D03*
X015275D02*
D03*
X014960Y016850D02*
D03*
X015275Y016850D02*
D03*
X014960Y016535D02*
D03*
X015275D02*
D03*
X014960Y016220D02*
D03*
X015275D02*
D03*
X014960Y015905D02*
D03*
X015275D02*
D03*
X014960Y015590D02*
D03*
X015275D02*
D03*
X020945D02*
D03*
X020630Y015590D02*
D03*
X020315D02*
D03*
X020000D02*
D03*
X019685D02*
D03*
X019370Y015590D02*
D03*
X019055D02*
D03*
X018740D02*
D03*
X018425Y015590D02*
D03*
X018110Y015590D02*
D03*
X017795D02*
D03*
X017480Y015590D02*
D03*
X017165D02*
D03*
X016850Y015590D02*
D03*
X016535D02*
D03*
X016220Y015590D02*
D03*
X015905Y015590D02*
D03*
X015590D02*
D03*
X021574Y015905D02*
D03*
X021260Y015905D02*
D03*
X020945D02*
D03*
X020630D02*
D03*
X020315D02*
D03*
X020000Y015905D02*
D03*
X019685D02*
D03*
X019370Y015905D02*
D03*
X019055D02*
D03*
X018740D02*
D03*
X018425D02*
D03*
X018110D02*
D03*
X017795Y015905D02*
D03*
X017480Y015905D02*
D03*
X017165D02*
D03*
X016850Y015905D02*
D03*
X016535D02*
D03*
X016220Y015905D02*
D03*
X015905D02*
D03*
X015590D02*
D03*
X021260Y016220D02*
D03*
X020945Y016220D02*
D03*
X020630D02*
D03*
X020315D02*
D03*
X020000D02*
D03*
X019685Y016220D02*
D03*
X019370D02*
D03*
X019055D02*
D03*
X018740Y016220D02*
D03*
X018425D02*
D03*
X018110D02*
D03*
X017795D02*
D03*
X017480Y016220D02*
D03*
X017165D02*
D03*
X016850D02*
D03*
X016535Y016220D02*
D03*
X016220D02*
D03*
X015905Y016220D02*
D03*
X015590D02*
D03*
X021260Y016535D02*
D03*
X020945D02*
D03*
X020630D02*
D03*
X020315D02*
D03*
X020000D02*
D03*
X019685D02*
D03*
X019370D02*
D03*
X019055D02*
D03*
X018740D02*
D03*
X018425D02*
D03*
X018110D02*
D03*
X017795D02*
D03*
X017480D02*
D03*
X017165D02*
D03*
X016850D02*
D03*
X016535D02*
D03*
X016220D02*
D03*
X015905D02*
D03*
X015590D02*
D03*
X021574Y016850D02*
D03*
X021260Y016850D02*
D03*
X020945D02*
D03*
X020630D02*
D03*
X020315D02*
D03*
X020000Y016850D02*
D03*
X019685D02*
D03*
X019370D02*
D03*
X019055Y016850D02*
D03*
X018740D02*
D03*
X018425Y016850D02*
D03*
X018110D02*
D03*
X017795D02*
D03*
X017480Y016850D02*
D03*
X017165Y016850D02*
D03*
X016850D02*
D03*
X016535D02*
D03*
X016220D02*
D03*
X015905Y016850D02*
D03*
X015590D02*
D03*
X021574Y017165D02*
D03*
X021260D02*
D03*
X020945Y017165D02*
D03*
X020630D02*
D03*
X020315D02*
D03*
X020000D02*
D03*
X019685Y017165D02*
D03*
X019370D02*
D03*
X019055D02*
D03*
X018740Y017165D02*
D03*
X018425D02*
D03*
X018110D02*
D03*
X017795D02*
D03*
X017480Y017165D02*
D03*
X017165D02*
D03*
X016850Y017165D02*
D03*
X016535D02*
D03*
X016220D02*
D03*
X015905D02*
D03*
X015590D02*
D03*
X021574Y017480D02*
D03*
X021260D02*
D03*
X020945D02*
D03*
X020630Y017480D02*
D03*
X020315D02*
D03*
X019685Y017480D02*
D03*
X019370D02*
D03*
X019055D02*
D03*
X018740D02*
D03*
X018425Y017480D02*
D03*
X018110D02*
D03*
X017795Y017480D02*
D03*
X017480D02*
D03*
X017165D02*
D03*
X016850Y017480D02*
D03*
X016535D02*
D03*
X016220D02*
D03*
X015905Y017480D02*
D03*
X015590D02*
D03*
X021574Y017795D02*
D03*
X021260D02*
D03*
X020945D02*
D03*
X020630D02*
D03*
X020315D02*
D03*
X020000D02*
D03*
X019685D02*
D03*
X019370D02*
D03*
X019055D02*
D03*
X018740D02*
D03*
X018425Y017795D02*
D03*
X018110Y017795D02*
D03*
X017795D02*
D03*
X017480D02*
D03*
X017165D02*
D03*
X016850D02*
D03*
X016535D02*
D03*
X016220Y017795D02*
D03*
X015905Y017795D02*
D03*
X015590D02*
D03*
X021574Y018110D02*
D03*
X021260D02*
D03*
X020945D02*
D03*
X020630Y018110D02*
D03*
X020315D02*
D03*
X020000Y018110D02*
D03*
X019685D02*
D03*
X019370D02*
D03*
X019055D02*
D03*
X018740D02*
D03*
X018425Y018110D02*
D03*
X018110D02*
D03*
X017795Y018110D02*
D03*
X017480D02*
D03*
X017165D02*
D03*
X016850D02*
D03*
X016535D02*
D03*
X016220Y018110D02*
D03*
X015905Y018110D02*
D03*
X015590D02*
D03*
X021574Y018425D02*
D03*
X021260D02*
D03*
X020945Y018425D02*
D03*
X020630D02*
D03*
X020315D02*
D03*
X020000D02*
D03*
X019685Y018425D02*
D03*
X019370D02*
D03*
X019055D02*
D03*
X018740Y018425D02*
D03*
X018425D02*
D03*
X018110D02*
D03*
X017795D02*
D03*
X017480Y018425D02*
D03*
X017165D02*
D03*
X016850D02*
D03*
X016535Y018425D02*
D03*
X016220D02*
D03*
X015905Y018425D02*
D03*
X015590D02*
D03*
X021574Y018740D02*
D03*
X021260Y018740D02*
D03*
X020945Y018740D02*
D03*
X020630D02*
D03*
X020315D02*
D03*
X020000D02*
D03*
X019685D02*
D03*
X019370Y018740D02*
D03*
X019055Y018740D02*
D03*
X018740D02*
D03*
X018425D02*
D03*
X018110D02*
D03*
X017795D02*
D03*
X017480Y018740D02*
D03*
X017165Y018740D02*
D03*
X016850D02*
D03*
X016535D02*
D03*
X016220D02*
D03*
X015905Y018740D02*
D03*
X015590D02*
D03*
X021574Y019055D02*
D03*
X021260Y019055D02*
D03*
X020945D02*
D03*
X020630D02*
D03*
X020315D02*
D03*
X020000D02*
D03*
X019685D02*
D03*
X019370Y019055D02*
D03*
X019055Y019055D02*
D03*
X018740D02*
D03*
X018425D02*
D03*
X018110D02*
D03*
X017795D02*
D03*
X017480D02*
D03*
X017165Y019055D02*
D03*
X016850Y019055D02*
D03*
X016535D02*
D03*
X016220D02*
D03*
X015905D02*
D03*
X015590D02*
D03*
X021574Y019370D02*
D03*
X021260D02*
D03*
X020945Y019370D02*
D03*
X020630D02*
D03*
X020315D02*
D03*
X020000D02*
D03*
X019685Y019370D02*
D03*
X019370D02*
D03*
X019055D02*
D03*
X018740Y019370D02*
D03*
X018425D02*
D03*
X018110D02*
D03*
X017795D02*
D03*
X017480Y019370D02*
D03*
X017165D02*
D03*
X016850Y019370D02*
D03*
X016535D02*
D03*
X016220D02*
D03*
X015905D02*
D03*
X015590D02*
D03*
X021574Y019685D02*
D03*
X021260D02*
D03*
X020945D02*
D03*
X020630D02*
D03*
X020315Y019685D02*
D03*
X020000Y019685D02*
D03*
X019685D02*
D03*
X019370D02*
D03*
X019055D02*
D03*
X018740D02*
D03*
X018425D02*
D03*
X018110Y019685D02*
D03*
X017795Y019685D02*
D03*
X017480D02*
D03*
X017165D02*
D03*
X016850Y019685D02*
D03*
X016535D02*
D03*
X016220Y019685D02*
D03*
X015905D02*
D03*
X015590D02*
D03*
X021574Y020000D02*
D03*
X021260D02*
D03*
X020945D02*
D03*
X020630D02*
D03*
X020315Y020000D02*
D03*
X020000Y020000D02*
D03*
X019685D02*
D03*
X019370D02*
D03*
X019055D02*
D03*
X018740D02*
D03*
X018425Y020000D02*
D03*
X018110Y020000D02*
D03*
X017795D02*
D03*
X017480D02*
D03*
X017165D02*
D03*
X016850Y020000D02*
D03*
X016535D02*
D03*
X016220D02*
D03*
X015905Y020000D02*
D03*
X015590D02*
D03*
X021574Y020315D02*
D03*
X021260D02*
D03*
X020945D02*
D03*
X020630D02*
D03*
X020315D02*
D03*
X020000D02*
D03*
X019685D02*
D03*
X019370D02*
D03*
X019055D02*
D03*
X018740D02*
D03*
X018425D02*
D03*
X018110D02*
D03*
X017795D02*
D03*
X017480D02*
D03*
X017165D02*
D03*
X016850D02*
D03*
X016535D02*
D03*
X016220D02*
D03*
X015905D02*
D03*
X015590D02*
D03*
X020945Y020630D02*
D03*
X020630D02*
D03*
X020315D02*
D03*
X020000D02*
D03*
X019685D02*
D03*
X019370Y020630D02*
D03*
X019055D02*
D03*
X018740Y020630D02*
D03*
X018425D02*
D03*
X018110D02*
D03*
X017795D02*
D03*
X017480D02*
D03*
X017165D02*
D03*
X016850D02*
D03*
X016535D02*
D03*
X016220D02*
D03*
X015905Y020630D02*
D03*
X015590D02*
D03*
X021574Y020945D02*
D03*
X021260Y020945D02*
D03*
X020945Y020945D02*
D03*
X020630D02*
D03*
X020315D02*
D03*
X020000D02*
D03*
X019685D02*
D03*
X019370Y020945D02*
D03*
X019055Y020945D02*
D03*
X018740D02*
D03*
X018425D02*
D03*
X018110D02*
D03*
X017795D02*
D03*
X017480Y020945D02*
D03*
X017165Y020945D02*
D03*
X016850D02*
D03*
X016535D02*
D03*
X016220D02*
D03*
X015905Y020945D02*
D03*
X015590D02*
D03*
X021574Y021260D02*
D03*
X021260D02*
D03*
X020945D02*
D03*
X020630D02*
D03*
X020315D02*
D03*
X020000D02*
D03*
X019685Y021260D02*
D03*
X019370Y021260D02*
D03*
X019055D02*
D03*
X018740D02*
D03*
X018425D02*
D03*
X018110D02*
D03*
X017795D02*
D03*
X017480D02*
D03*
X017165D02*
D03*
X016850Y021260D02*
D03*
X016535Y021260D02*
D03*
X016220D02*
D03*
X015905D02*
D03*
X015590D02*
D03*
X021574Y021575D02*
D03*
X021260D02*
D03*
X020945D02*
D03*
X020630D02*
D03*
X020315D02*
D03*
X020000D02*
D03*
X019685D02*
D03*
X019370D02*
D03*
X019055D02*
D03*
X018740D02*
D03*
X018425D02*
D03*
X018110D02*
D03*
X017795D02*
D03*
X017480D02*
D03*
X017165D02*
D03*
X016850Y021575D02*
D03*
X016535Y021575D02*
D03*
X016220D02*
D03*
X015905D02*
D03*
X015590D02*
D03*
X015275Y021890D02*
D03*
X014960D02*
D03*
X015275Y022205D02*
D03*
X014960D02*
D03*
X021574Y020630D02*
D03*
X021260D02*
D03*
X019685Y022205D02*
D03*
Y021890D02*
D03*
D57*
X011850Y014843D02*
D03*
X012224Y014843D02*
D03*
X012598Y014843D02*
D03*
Y013780D02*
D03*
X012224Y013780D02*
D03*
X011850Y013780D02*
D03*
D58*
X019222Y013612D02*
D03*
Y014715D02*
D03*
D59*
X018285Y012366D02*
D03*
Y011776D02*
D03*
X015472Y012116D02*
D03*
Y011526D02*
D03*
X019016Y012825D02*
D03*
Y012234D02*
D03*
X022884Y012343D02*
D03*
Y011752D02*
D03*
D60*
X016998Y012835D02*
D03*
X016289D02*
D03*
X022028Y012717D02*
D03*
X021319D02*
D03*
X020266Y012884D02*
D03*
X019557D02*
D03*
D61*
X015591Y013632D02*
D03*
Y012923D02*
D03*
D62*
X012992Y011683D02*
D03*
X011968D02*
D03*
D63*
X024213Y012480D02*
D03*
D64*
X024803Y012953D02*
D03*
Y012795D02*
D03*
Y012638D02*
D03*
Y012480D02*
D03*
Y012323D02*
D03*
Y012165D02*
D03*
Y012008D02*
D03*
X023622D02*
D03*
Y012165D02*
D03*
Y012323D02*
D03*
Y012480D02*
D03*
Y012638D02*
D03*
Y012795D02*
D03*
Y012953D02*
D03*
D65*
X013996Y012825D02*
D03*
Y012116D02*
D03*
D69*
X077339Y022251D02*
X077870Y021721D01*
X077163Y022075D02*
X077516Y022428D01*
X077882Y022441D02*
X077857Y022365D01*
Y022264D01*
X077908Y022163D01*
X077958Y022112D01*
X078059Y022062D01*
X078160D01*
X078236Y022087D01*
X078312Y022163D01*
X078337Y022239D01*
X078337Y022340D01*
X078286Y022441D01*
X078236Y022491D01*
X078135Y022542D01*
X078034Y022542D01*
X077958Y022516D01*
X077882Y022441D01*
X078200Y022759D02*
X078731Y022229D01*
X078276Y022683D02*
Y022784D01*
X078301Y022860D01*
X078377Y022935D01*
X078453Y022961D01*
X078554D01*
X078655Y022910D01*
X078705Y022860D01*
X078756Y022759D01*
Y022658D01*
X078731Y022582D01*
X078655Y022506D01*
X078579Y022481D01*
X078478D01*
X079286Y024046D02*
X079185D01*
X079084Y023996D01*
X078983Y023895D01*
X078933Y023794D01*
X078933Y023693D01*
X078983Y023642D01*
X079059Y023617D01*
X079109D01*
X079185Y023642D01*
X079387Y023743D01*
X079463Y023769D01*
X079513Y023769D01*
X079589Y023743D01*
X079665Y023668D01*
Y023567D01*
X079614Y023466D01*
X079513Y023365D01*
X079412Y023314D01*
X079311D01*
X079632Y024190D02*
X079607Y024115D01*
Y024014D01*
X079657Y023913D01*
X079708Y023862D01*
X079809Y023812D01*
X079910D01*
X079985Y023837D01*
X080061Y023913D01*
X080086Y023988D01*
X080086Y024089D01*
X080036Y024190D01*
X079985Y024241D01*
X079884Y024291D01*
X079783Y024291D01*
X079708Y024266D01*
X079632Y024190D01*
X079773Y024685D02*
X080304Y024155D01*
X080187Y025099D02*
X080718Y024569D01*
X080440Y024847D02*
X080339Y024847D01*
X080263Y024822D01*
X080187Y024746D01*
X080162Y024670D01*
Y024569D01*
X080213Y024468D01*
X080263Y024418D01*
X080364Y024367D01*
X080465D01*
X080541Y024392D01*
X080617Y024468D01*
X080642Y024544D01*
X080642Y024645D01*
X080657Y024912D02*
X080960Y025215D01*
X080910Y025266D01*
X080834Y025291D01*
X080783Y025291D01*
X080708Y025266D01*
X080632Y025190D01*
X080607Y025114D01*
Y025013D01*
X080657Y024912D01*
X080708Y024862D01*
X080809Y024811D01*
X080910D01*
X080985Y024837D01*
X081061Y024912D01*
X081086Y024988D01*
X081086Y025089D01*
X080922Y025481D02*
X081276Y025127D01*
X081074Y025329D02*
X081023Y025430D01*
Y025531D01*
X081048Y025607D01*
X081124Y025682D01*
D82*
X030167Y010806D02*
D03*
X030659D02*
D03*
X019016Y026033D02*
D03*
X019508D02*
D03*
X020000D02*
D03*
X020492D02*
D03*
X020984D02*
D03*
X012264Y010492D02*
D03*
X012756D02*
D03*
D84*
X034069Y020056D02*
D03*
Y020556D02*
D03*
Y019556D02*
D03*
X037569Y021056D02*
D03*
Y015556D02*
D03*
X037069Y021056D02*
D03*
Y020556D02*
D03*
Y020056D02*
D03*
Y019556D02*
D03*
Y019056D02*
D03*
Y018556D02*
D03*
Y018056D02*
D03*
Y017556D02*
D03*
Y017056D02*
D03*
Y016556D02*
D03*
Y016056D02*
D03*
Y015556D02*
D03*
X036569Y021056D02*
D03*
Y020556D02*
D03*
Y020056D02*
D03*
Y019556D02*
D03*
Y019056D02*
D03*
Y018556D02*
D03*
Y018056D02*
D03*
Y017556D02*
D03*
Y017056D02*
D03*
Y016556D02*
D03*
Y016056D02*
D03*
Y015556D02*
D03*
X036069Y021056D02*
D03*
Y020556D02*
D03*
Y020056D02*
D03*
Y019556D02*
D03*
Y019056D02*
D03*
Y018556D02*
D03*
Y018056D02*
D03*
Y017556D02*
D03*
Y017056D02*
D03*
Y016556D02*
D03*
Y016056D02*
D03*
Y015556D02*
D03*
X035569Y021056D02*
D03*
Y020556D02*
D03*
Y020056D02*
D03*
Y019556D02*
D03*
X035069Y021056D02*
D03*
Y020056D02*
D03*
Y019556D02*
D03*
Y019056D02*
D03*
Y018556D02*
D03*
Y018056D02*
D03*
Y015556D02*
D03*
X034569Y020056D02*
D03*
Y019556D02*
D03*
Y018556D02*
D03*
Y017556D02*
D03*
Y017056D02*
D03*
Y016556D02*
D03*
Y016056D02*
D03*
Y015556D02*
D03*
X034069Y021056D02*
D03*
Y019056D02*
D03*
Y018556D02*
D03*
Y018056D02*
D03*
Y016556D02*
D03*
Y016056D02*
D03*
X037569D02*
D03*
Y016556D02*
D03*
Y017056D02*
D03*
Y017556D02*
D03*
Y018056D02*
D03*
Y018556D02*
D03*
Y019056D02*
D03*
Y019556D02*
D03*
Y020056D02*
D03*
Y020556D02*
D03*
X035569Y016056D02*
D03*
Y015556D02*
D03*
Y016556D02*
D03*
X035069D02*
D03*
Y016056D02*
D03*
X034569Y019056D02*
D03*
Y018056D02*
D03*
X034069Y017556D02*
D03*
Y017056D02*
D03*
X035069Y017556D02*
D03*
Y017056D02*
D03*
X035569Y018056D02*
D03*
Y017556D02*
D03*
X035069Y020556D02*
D03*
X034569Y021056D02*
D03*
Y020556D02*
D03*
X035569Y019056D02*
D03*
Y018556D02*
D03*
Y017056D02*
D03*
D85*
X028504Y010786D02*
D03*
X043465D02*
D03*
Y025746D02*
D03*
X028504D02*
D03*
X010787Y025748D02*
D03*
X025748D02*
D03*
Y010787D02*
D03*
X010787D02*
D03*
D86*
X013268Y024970D02*
D03*
X024656Y010453D02*
D03*
D87*
X014268Y023970D02*
D03*
Y025970D02*
D03*
X012268D02*
D03*
Y023970D02*
D03*
D88*
X025866Y017622D02*
D03*
Y022638D02*
D03*
D89*
X023415Y025118D02*
D03*
D90*
X022415Y024118D02*
D03*
X024415D02*
D03*
D91*
X022415Y026118D02*
D03*
X024415D02*
D03*
D92*
X024656Y011240D02*
D03*
D93*
X025354Y013638D02*
D03*
X026142Y014032D02*
D03*
X025354Y014426D02*
D03*
X026142Y014819D02*
D03*
X025354Y015213D02*
D03*
X026142Y013244D02*
D03*
D94*
X021467Y026309D02*
D03*
X034764Y015157D02*
D03*
X016742Y025039D02*
D03*
Y025384D02*
D03*
X035779Y022785D02*
D03*
X011181Y020157D02*
D03*
X012776Y019350D02*
D03*
X012520Y019370D02*
D03*
X012785Y019941D02*
D03*
X012269Y020531D02*
D03*
Y019941D02*
D03*
X012285Y019350D02*
D03*
X011476Y020719D02*
D03*
X012608Y020709D02*
D03*
X020940Y025069D02*
D03*
X020610D02*
D03*
X021270D02*
D03*
Y024739D02*
D03*
X020610D02*
D03*
X020940D02*
D03*
X021270Y024409D02*
D03*
X020610D02*
D03*
X020940D02*
D03*
X016102Y025039D02*
D03*
X017319Y025394D02*
D03*
Y025039D02*
D03*
X016102Y025394D02*
D03*
X011348Y019557D02*
D03*
X014485Y018061D02*
D03*
X014692D02*
D03*
X024321Y020679D02*
D03*
X024281Y020453D02*
D03*
X011201Y024921D02*
D03*
D180*
X024350Y012480D02*
G03*
X024350Y012480I-000138J000000D01*
G01*
X024016D02*
X024409D01*
X024213Y012283D02*
Y012677D01*
D181*
X028504Y012884D02*
D03*
X024764Y025030D02*
D03*
D182*
X041890Y013620D02*
D03*
X041890Y022912D02*
D03*
X030866Y013620D02*
D03*
X030866Y022912D02*
D03*
X013307Y013583D02*
D03*
Y022953D02*
D03*
X024331Y013583D02*
D03*
Y022953D02*
D03*
M02*
