G04 Layer_Physical_Order=5*
G04 Layer_Color=128*
%FSAX24Y24*%
%MOIN*%
G70*
G01*
G75*
%ADD10C,0.0049*%
%ADD65C,0.0079*%
%ADD68C,0.0120*%
%ADD79C,0.0100*%
%ADD91C,0.0315*%
%ADD93C,0.0400*%
%ADD97C,0.0374*%
%ADD98C,0.0413*%
%ADD99C,0.0453*%
%ADD100C,0.0768*%
%ADD101C,0.0669*%
%ADD102C,0.1083*%
%ADD103C,0.0354*%
%ADD104C,0.0295*%
%ADD105C,0.0236*%
%ADD106C,0.0177*%
%ADD109C,0.0650*%
%ADD110C,0.0689*%
G36*
X012963Y021693D02*
X011289D01*
Y023337D01*
X012963D01*
Y021693D01*
D02*
G37*
G36*
X027323Y010000D02*
X026535D01*
Y026535D01*
X027323D01*
Y010000D01*
D02*
G37*
G36*
X021191Y022530D02*
X021191Y022362D01*
X021073Y022362D01*
X021073Y022526D01*
X021142Y022579D01*
X021191Y022530D01*
D02*
G37*
G36*
X024415Y024118D02*
X022240D01*
X021890Y024469D01*
X021447D01*
X021447Y025020D01*
X021878Y025020D01*
X022175Y025295D01*
Y026205D01*
X022387Y026417D01*
X023076D01*
X024415Y026417D01*
X024415Y024118D01*
D02*
G37*
G36*
X017012Y023372D02*
X016935D01*
Y023434D01*
X017012D01*
Y023372D01*
D02*
G37*
D10*
X035118Y021888D02*
X035945Y022715D01*
X037756D01*
X034843Y014487D02*
Y021613D01*
Y014487D02*
X035787Y013542D01*
X038228D01*
X039921Y014644D02*
Y017243D01*
X039370Y014093D02*
X039921Y014644D01*
X038253Y014093D02*
X039370D01*
X038228Y013542D02*
Y014959D01*
X037874Y015313D02*
X038228Y014959D01*
X037087Y015313D02*
X037874D01*
X039921Y020668D02*
Y022597D01*
X039803Y022715D02*
X039921Y022597D01*
X037756Y022715D02*
X039803D01*
X039921Y017243D02*
Y020668D01*
X036929Y020904D02*
Y021455D01*
X036811Y020786D02*
X036929Y020904D01*
X036024Y020786D02*
X036811D01*
X035945Y020707D02*
X036024Y020786D01*
X035945Y018030D02*
Y020707D01*
Y018030D02*
X036929Y017046D01*
Y015471D02*
Y017046D01*
Y015471D02*
X037087Y015313D01*
X034843Y021613D02*
X035118Y021888D01*
X036929D01*
Y021416D02*
Y021888D01*
D65*
X021890Y020900D02*
Y022376D01*
X021580Y020590D02*
X021890Y020900D01*
X021580Y020263D02*
Y020590D01*
X016683Y016998D02*
X016811Y016870D01*
X023268Y021929D02*
Y022037D01*
X021594Y023711D02*
X022293Y023012D01*
X022165Y010108D02*
X022598D01*
Y011752D02*
Y012589D01*
X022165Y011319D02*
X022598Y011752D01*
X020157Y015964D02*
X021580Y017387D01*
X020157Y014960D02*
Y015964D01*
X019418Y014221D02*
X020157Y014960D01*
X017244Y013872D02*
Y014305D01*
X016811Y013872D02*
X017244D01*
X016811Y015400D02*
Y015909D01*
Y015400D02*
X017244Y014967D01*
X022289Y014927D02*
Y015635D01*
X021580Y019213D02*
Y020256D01*
X019232D02*
X019486D01*
X021580D01*
X019273Y022037D02*
X019718Y021593D01*
X021703Y022563D02*
X021890Y022376D01*
X015837Y022037D02*
X019273D01*
X014843Y021043D02*
X015837Y022037D01*
X014843Y015455D02*
Y021043D01*
X015048Y023709D02*
X020925D01*
X019718Y021593D02*
X021840D01*
X021580Y017387D02*
Y020263D01*
X023268Y016615D02*
Y021929D01*
X022289Y015635D02*
X023268Y016615D01*
X020532Y013170D02*
X022289Y014927D01*
X014903Y013170D02*
X020532D01*
X014903D02*
Y013821D01*
X015068Y012589D02*
X022598D01*
X013396Y022057D02*
X015048Y023709D01*
X013396Y018376D02*
Y022057D01*
X022594Y010000D02*
X022598Y010005D01*
X022165Y010108D02*
Y011319D01*
X009931Y012589D02*
X015068D01*
X022293Y023012D02*
X023268Y022037D01*
X019069Y013872D02*
X019418Y014221D01*
X016811Y013872D02*
X019069D01*
X017244Y014305D02*
Y014967D01*
X015896Y013872D02*
Y014401D01*
X015529Y013872D02*
X016894D01*
X020925Y023711D02*
X021594D01*
X014843Y015455D02*
X015896Y014401D01*
X016683Y020256D02*
X019232D01*
X014248Y013872D02*
X015896D01*
X013396Y014724D02*
X014248Y013872D01*
X013396Y014724D02*
Y018376D01*
X016811Y015909D02*
Y016870D01*
X016683Y016998D02*
Y020256D01*
X020925Y022726D02*
Y023711D01*
Y022726D02*
X021089Y022563D01*
X021703D01*
D68*
X087308Y022419D02*
X087839Y021889D01*
X088142Y022192D01*
X087922Y023033D02*
X088023Y022427D01*
X088402Y022805D01*
X087922Y023033D02*
X088452Y022502D01*
X088445Y022949D02*
X088899Y023404D01*
X089030Y023585D02*
X089258Y023813D01*
X089308Y023914D01*
X089308Y023964D01*
X089283Y024040D01*
X089207Y024116D01*
X089131Y024141D01*
X089081D01*
X088980Y024090D01*
X088753Y023863D01*
X089283Y023333D01*
X089225Y024335D02*
X089881Y023931D01*
X089477Y024588D02*
X089881Y023931D01*
X089477Y024588D02*
X090134Y024184D01*
X089730Y024840D02*
X090134Y024184D01*
X089836Y024946D02*
X090366Y024416D01*
X089836Y024946D02*
X090063Y025174D01*
X090164Y025224D01*
X090214Y025224D01*
X090290Y025199D01*
X090341Y025148D01*
X090366Y025073D01*
Y025022D01*
X090315Y024921D01*
X090088Y024694D01*
X090265Y024871D02*
X090719Y024770D01*
D79*
X088014Y020669D02*
X087538D01*
X087491Y020241D01*
X087538Y020288D01*
X087681Y020336D01*
X087824D01*
X087967Y020288D01*
X088062Y020193D01*
X088109Y020050D01*
Y019955D01*
X088062Y019812D01*
X087967Y019717D01*
X087824Y019669D01*
X087681D01*
X087538Y019717D01*
X087491Y019765D01*
X087443Y019860D01*
D91*
X012756Y010492D02*
D03*
X020984Y026033D02*
D03*
X020492D02*
D03*
X020000D02*
D03*
X019508D02*
D03*
X019016D02*
D03*
X029774Y010806D02*
D03*
D93*
X010000Y010787D02*
G03*
X010787Y010000I000787J-000000D01*
G01*
X010797Y026535D02*
G03*
X010000Y025738I-000000J-000797D01*
G01*
X026535Y025748D02*
G03*
X025748Y026535I-000787J000000D01*
G01*
X028110Y026535D02*
G03*
X027323Y025748I-000000J-000787D01*
G01*
X043858Y025748D02*
G03*
X043081Y026535I-000782J000005D01*
G01*
X043071Y010000D02*
G03*
X043858Y010787I000000J000787D01*
G01*
X027323Y010787D02*
G03*
X028110Y010000I000787J-000000D01*
G01*
X025748Y010000D02*
G03*
X026535Y010787I000000J000787D01*
G01*
Y010787D01*
X027323D01*
Y010787D02*
Y010787D01*
X028110Y010000D02*
X043071D01*
X043858Y025748D02*
X043858Y010787D01*
X043071Y026535D02*
X043081Y026535D01*
X028110D02*
X043071Y026535D01*
X026535Y025748D02*
X027323D01*
X010797Y026535D02*
X025748Y026535D01*
X010000Y010787D02*
X010000Y025738D01*
X010787Y010000D02*
X025748D01*
D97*
X026142Y013244D02*
D03*
X025354Y015213D02*
D03*
X026142Y014819D02*
D03*
X025354Y014426D02*
D03*
X026142Y014032D02*
D03*
X025354Y013638D02*
D03*
D98*
X024656Y011240D02*
D03*
Y010453D02*
D03*
X013268Y024970D02*
D03*
D99*
X023415Y025118D02*
D03*
D100*
X012268Y023970D02*
D03*
Y025970D02*
D03*
X014268D02*
D03*
Y023970D02*
D03*
D101*
X024331Y022953D02*
D03*
Y013583D02*
D03*
X013307Y022953D02*
D03*
Y013583D02*
D03*
X030472Y022912D02*
D03*
X030472Y013620D02*
D03*
X041496Y022912D02*
D03*
X041496Y013620D02*
D03*
D102*
X010787Y010787D02*
D03*
X025748D02*
D03*
Y025748D02*
D03*
X010787D02*
D03*
X028110Y025746D02*
D03*
X043071D02*
D03*
Y010786D02*
D03*
X028110D02*
D03*
D103*
X035175Y017056D02*
D03*
Y018556D02*
D03*
Y019056D02*
D03*
X034175Y020556D02*
D03*
Y021056D02*
D03*
X034675Y020556D02*
D03*
X035175Y017556D02*
D03*
Y018056D02*
D03*
X034675Y017056D02*
D03*
Y017556D02*
D03*
X033675Y017056D02*
D03*
Y017556D02*
D03*
X034175Y018056D02*
D03*
Y019056D02*
D03*
X034675Y016056D02*
D03*
Y016556D02*
D03*
X035175D02*
D03*
Y015556D02*
D03*
Y016056D02*
D03*
X033675D02*
D03*
Y016556D02*
D03*
Y019056D02*
D03*
X034175Y015556D02*
D03*
Y016056D02*
D03*
Y016556D02*
D03*
Y017056D02*
D03*
Y017556D02*
D03*
Y018556D02*
D03*
Y019556D02*
D03*
Y020056D02*
D03*
X034675Y019056D02*
D03*
Y019556D02*
D03*
Y020056D02*
D03*
X035175Y019556D02*
D03*
Y020056D02*
D03*
X033675Y019556D02*
D03*
Y020556D02*
D03*
Y020056D02*
D03*
D104*
X037175Y020556D02*
D03*
Y020056D02*
D03*
Y019556D02*
D03*
Y019056D02*
D03*
Y018556D02*
D03*
Y017556D02*
D03*
Y017056D02*
D03*
Y016556D02*
D03*
Y016056D02*
D03*
X033675Y018056D02*
D03*
Y018556D02*
D03*
Y021056D02*
D03*
X034675Y015556D02*
D03*
Y018056D02*
D03*
Y018556D02*
D03*
Y021056D02*
D03*
X035175Y020556D02*
D03*
Y021056D02*
D03*
X035675Y015556D02*
D03*
Y016056D02*
D03*
Y016556D02*
D03*
Y017056D02*
D03*
Y017556D02*
D03*
Y018556D02*
D03*
Y019056D02*
D03*
Y019556D02*
D03*
Y020056D02*
D03*
Y020556D02*
D03*
Y021056D02*
D03*
X036175Y015556D02*
D03*
Y016056D02*
D03*
Y016556D02*
D03*
Y017056D02*
D03*
Y017556D02*
D03*
Y018056D02*
D03*
Y019056D02*
D03*
Y019556D02*
D03*
Y020056D02*
D03*
Y020556D02*
D03*
Y021056D02*
D03*
X036675Y016056D02*
D03*
Y016556D02*
D03*
Y017056D02*
D03*
Y017556D02*
D03*
Y018056D02*
D03*
Y018556D02*
D03*
Y019056D02*
D03*
Y019556D02*
D03*
Y020056D02*
D03*
Y020556D02*
D03*
X037175Y021056D02*
D03*
D105*
X011526Y014818D02*
D03*
Y015025D02*
D03*
X014692Y018061D02*
D03*
X014485D02*
D03*
X014692Y017249D02*
D03*
X014485D02*
D03*
X016978Y023269D02*
D03*
X025945Y019265D02*
D03*
Y019471D02*
D03*
X022025Y021870D02*
D03*
X022232D02*
D03*
X016978Y023062D02*
D03*
X021102Y022047D02*
D03*
Y022362D02*
D03*
X022056Y019370D02*
D03*
X021850D02*
D03*
X019801Y023481D02*
D03*
Y023688D02*
D03*
X018885Y023481D02*
D03*
Y023688D02*
D03*
X018354Y023061D02*
D03*
X018147D02*
D03*
X012717Y014488D02*
D03*
X012510D02*
D03*
X010650Y017559D02*
D03*
Y017766D02*
D03*
X025000Y017377D02*
D03*
Y017584D02*
D03*
X010433Y019257D02*
D03*
Y019464D02*
D03*
X021732Y015748D02*
D03*
X021417Y015748D02*
D03*
X021732Y015069D02*
D03*
Y015276D02*
D03*
X025157Y016196D02*
D03*
Y016403D02*
D03*
X011212Y017953D02*
D03*
X011005D02*
D03*
X013974Y017771D02*
D03*
Y017977D02*
D03*
X012638Y017638D02*
D03*
X013996Y015999D02*
D03*
Y016206D02*
D03*
X011535Y015408D02*
D03*
Y015615D02*
D03*
X020787Y017638D02*
D03*
X021102D02*
D03*
X021417Y016378D02*
D03*
Y016693D02*
D03*
X011545Y016590D02*
D03*
Y016796D02*
D03*
X013140Y015984D02*
D03*
X013286Y016130D02*
D03*
X014232Y015408D02*
D03*
Y015615D02*
D03*
X019527Y016378D02*
D03*
Y016693D02*
D03*
X014732Y016590D02*
D03*
Y016796D02*
D03*
X017313Y022372D02*
D03*
Y022579D02*
D03*
X018354Y024083D02*
D03*
X018147D02*
D03*
X014042Y017064D02*
D03*
Y017271D02*
D03*
X020787Y021417D02*
D03*
Y021732D02*
D03*
X021102Y016063D02*
D03*
Y016378D02*
D03*
X022232Y021028D02*
D03*
X025787Y016142D02*
D03*
Y016348D02*
D03*
X019842Y015433D02*
D03*
X019527D02*
D03*
X014422Y019878D02*
D03*
X020157Y017323D02*
D03*
Y017008D02*
D03*
X019842Y016693D02*
D03*
X019212Y020787D02*
D03*
X019212Y021102D02*
D03*
X020472Y020787D02*
D03*
Y021102D02*
D03*
X022025Y021028D02*
D03*
X025827Y020971D02*
D03*
Y020765D02*
D03*
X022323Y016772D02*
D03*
X022177Y016918D02*
D03*
X020157Y015433D02*
D03*
X020472D02*
D03*
X020472Y016378D02*
D03*
Y016063D02*
D03*
X020157D02*
D03*
X019527Y015748D02*
D03*
X019212Y016063D02*
D03*
Y016378D02*
D03*
X020157Y016378D02*
D03*
X019842D02*
D03*
X020787Y016063D02*
D03*
X020157Y022362D02*
D03*
X020157Y022047D02*
D03*
X019842Y017323D02*
D03*
X019527Y017323D02*
D03*
X019842Y017008D02*
D03*
X012638Y017431D02*
D03*
X014745Y018568D02*
D03*
Y018361D02*
D03*
X021102Y015748D02*
D03*
X020787D02*
D03*
X019842Y015748D02*
D03*
X020472Y017008D02*
D03*
Y016693D02*
D03*
X018474Y025394D02*
D03*
X018268D02*
D03*
X019674Y024631D02*
D03*
Y024838D02*
D03*
X014630Y018976D02*
D03*
X014423D02*
D03*
X014629Y019878D02*
D03*
X010472Y017096D02*
D03*
X010728D02*
D03*
X021874Y020315D02*
D03*
X022081D02*
D03*
X039922Y016194D02*
D03*
Y016401D02*
D03*
X039921Y016785D02*
D03*
Y016992D02*
D03*
X042283Y016785D02*
D03*
Y016991D02*
D03*
Y016194D02*
D03*
Y016401D02*
D03*
X028898Y016588D02*
D03*
Y016795D02*
D03*
X031260Y014628D02*
D03*
Y014421D02*
D03*
X029980Y018360D02*
D03*
X029980Y016204D02*
D03*
Y015997D02*
D03*
X031260Y015614D02*
D03*
Y015407D02*
D03*
X028898Y015023D02*
D03*
Y014816D02*
D03*
Y017977D02*
D03*
Y017770D02*
D03*
X028898Y015614D02*
D03*
Y015407D02*
D03*
X029980Y017385D02*
D03*
Y017179D02*
D03*
Y018566D02*
D03*
X042283Y017582D02*
D03*
Y017375D02*
D03*
D106*
X024281Y020453D02*
D03*
X024321Y020679D02*
D03*
X011348Y019557D02*
D03*
X016102Y025394D02*
D03*
X017319Y025039D02*
D03*
Y025394D02*
D03*
X016711Y025039D02*
D03*
X016102D02*
D03*
X016711Y025382D02*
D03*
X020940Y024409D02*
D03*
X020610D02*
D03*
X021270D02*
D03*
X020940Y024739D02*
D03*
X020610D02*
D03*
X021270D02*
D03*
Y025069D02*
D03*
X020610D02*
D03*
X020940D02*
D03*
X014478Y014094D02*
D03*
X018415Y024911D02*
D03*
X018474Y024685D02*
D03*
X022018Y013957D02*
D03*
X022116Y013583D02*
D03*
Y013789D02*
D03*
X021919D02*
D03*
Y013583D02*
D03*
X016978Y023484D02*
D03*
X021673Y013140D02*
D03*
X013023Y017676D02*
D03*
X014626Y016398D02*
D03*
X010669Y018287D02*
D03*
X013218Y017579D02*
D03*
X021713Y010876D02*
D03*
X011654Y014124D02*
D03*
X011142Y022116D02*
D03*
X022953Y012697D02*
D03*
X023568Y011407D02*
D03*
X023184D02*
D03*
X023376D02*
D03*
X017952Y018268D02*
D03*
X018582Y017953D02*
D03*
X017322Y016378D02*
D03*
X019842Y020157D02*
D03*
X019527Y017008D02*
D03*
X010433Y023041D02*
D03*
X011348Y024951D02*
D03*
X010335Y021299D02*
D03*
X016024Y010394D02*
D03*
X018543Y010748D02*
D03*
X022648Y012736D02*
D03*
X011545Y016329D02*
D03*
X013947Y015020D02*
D03*
X012264Y014488D02*
D03*
X013002Y016939D02*
D03*
X012638Y018140D02*
D03*
X012687Y017884D02*
D03*
X010423Y022766D02*
D03*
X011132Y021516D02*
D03*
X010827Y021329D02*
D03*
X012215Y017579D02*
D03*
X014065Y019528D02*
D03*
X020472Y019842D02*
D03*
X020157Y019842D02*
D03*
X019842Y019842D02*
D03*
X020472Y019527D02*
D03*
X020157D02*
D03*
X021102Y017323D02*
D03*
Y016693D02*
D03*
X024695Y014104D02*
D03*
X024144Y014282D02*
D03*
X024006Y013238D02*
D03*
X025325Y011732D02*
D03*
X024262Y010728D02*
D03*
X021112Y011280D02*
D03*
X020138Y010758D02*
D03*
X020384Y010276D02*
D03*
X021703Y011240D02*
D03*
X019468Y010787D02*
D03*
X022333Y011319D02*
D03*
X022063Y010591D02*
D03*
X024626Y011644D02*
D03*
X024823D02*
D03*
X025020D02*
D03*
X024626Y011841D02*
D03*
X024823D02*
D03*
X025020D02*
D03*
X025600Y012008D02*
D03*
X024213Y013100D02*
D03*
X020472Y017323D02*
D03*
X022175Y011785D02*
D03*
X018858Y015394D02*
D03*
X012608Y020709D02*
D03*
X011476Y020719D02*
D03*
X021220Y014931D02*
D03*
X022313Y013376D02*
D03*
X022559Y019783D02*
D03*
X022593Y019547D02*
D03*
X013839Y022795D02*
D03*
X011545Y018199D02*
D03*
X011417Y018022D02*
D03*
X017008Y022362D02*
D03*
X021949Y015059D02*
D03*
X025807Y015935D02*
D03*
X018701Y022825D02*
D03*
X026132Y019380D02*
D03*
X026053Y020866D02*
D03*
X019961Y022795D02*
D03*
X018789Y023927D02*
D03*
X018583Y024085D02*
D03*
X018691Y025394D02*
D03*
X024350Y015423D02*
D03*
X022116Y013376D02*
D03*
X021919D02*
D03*
X021526D02*
D03*
X021732Y014104D02*
D03*
X021722Y013376D02*
D03*
X021673Y012864D02*
D03*
X020679Y013032D02*
D03*
X019734Y015039D02*
D03*
X015374Y024193D02*
D03*
X015925Y023337D02*
D03*
X015098Y024163D02*
D03*
X015571Y024478D02*
D03*
X016909Y023829D02*
D03*
X021932Y017187D02*
D03*
X019842Y016063D02*
D03*
X016063Y018268D02*
D03*
X014724Y015630D02*
D03*
X019144Y022825D02*
D03*
X021004Y014931D02*
D03*
X020718Y014700D02*
D03*
X019842Y019527D02*
D03*
X022165Y015276D02*
D03*
X019842Y019212D02*
D03*
X024345Y021319D02*
D03*
X022545Y018552D02*
D03*
X022598Y021575D02*
D03*
X022480Y021010D02*
D03*
X023646Y022992D02*
D03*
X020157Y020472D02*
D03*
X015319Y026307D02*
D03*
X017637Y021732D02*
D03*
X020158Y021732D02*
D03*
X017795Y026181D02*
D03*
X018583Y022047D02*
D03*
X025557Y018618D02*
D03*
X021417Y020157D02*
D03*
X019331Y022657D02*
D03*
X020718Y014487D02*
D03*
X014183Y020925D02*
D03*
X013986Y021319D02*
D03*
Y021516D02*
D03*
X013278Y021909D02*
D03*
X013986Y022106D02*
D03*
X021417Y016063D02*
D03*
X020787Y018897D02*
D03*
X025557Y021618D02*
D03*
X019527Y018897D02*
D03*
X016693Y018582D02*
D03*
X017952Y018582D02*
D03*
X017637Y018582D02*
D03*
Y019212D02*
D03*
X018897Y018582D02*
D03*
X017322D02*
D03*
X016063D02*
D03*
X020787Y018582D02*
D03*
X020472D02*
D03*
X020157D02*
D03*
X020157Y018268D02*
D03*
X019842D02*
D03*
X021102Y018268D02*
D03*
X020787D02*
D03*
X020472D02*
D03*
X020787Y020157D02*
D03*
X018897Y017638D02*
D03*
X019527Y019212D02*
D03*
X019527Y019842D02*
D03*
X017637Y021102D02*
D03*
X017008Y021102D02*
D03*
X017322Y021102D02*
D03*
X017008Y021417D02*
D03*
X017637Y021417D02*
D03*
X017952Y021419D02*
D03*
X018582Y020787D02*
D03*
Y021102D02*
D03*
X018582Y021417D02*
D03*
X020472Y020472D02*
D03*
X020787Y021102D02*
D03*
X012285Y019350D02*
D03*
X012269Y019941D02*
D03*
Y020531D02*
D03*
X018897Y021102D02*
D03*
X019212Y020472D02*
D03*
X018897D02*
D03*
X021102Y021417D02*
D03*
X015118Y020787D02*
D03*
Y017638D02*
D03*
X015118Y019527D02*
D03*
X017637Y017323D02*
D03*
X016063Y020472D02*
D03*
X017952Y021102D02*
D03*
X017008Y020787D02*
D03*
X015748Y021417D02*
D03*
X017322D02*
D03*
X016378Y021102D02*
D03*
X015433Y020787D02*
D03*
X015748Y019842D02*
D03*
X015433Y019212D02*
D03*
X015433Y015748D02*
D03*
X015748Y016378D02*
D03*
X015433Y017323D02*
D03*
X016378Y017638D02*
D03*
X016693Y016693D02*
D03*
X016378Y016063D02*
D03*
X017637Y017638D02*
D03*
X017008D02*
D03*
X017322Y017953D02*
D03*
X018897Y017323D02*
D03*
X018582Y016693D02*
D03*
X017008Y019212D02*
D03*
Y019842D02*
D03*
Y020472D02*
D03*
X017322D02*
D03*
Y020157D02*
D03*
Y019842D02*
D03*
X017322Y019527D02*
D03*
X017322Y019212D02*
D03*
X017637Y019527D02*
D03*
Y019842D02*
D03*
Y020157D02*
D03*
X017637Y020472D02*
D03*
X019212Y019212D02*
D03*
X018582Y019527D02*
D03*
X017952Y019527D02*
D03*
X017952Y019842D02*
D03*
Y020157D02*
D03*
X017952Y020472D02*
D03*
X019212Y019842D02*
D03*
X018582Y019842D02*
D03*
X020157Y020157D02*
D03*
X018897Y020787D02*
D03*
X019842Y021102D02*
D03*
X018582Y021732D02*
D03*
X018897Y021417D02*
D03*
Y021732D02*
D03*
X019212D02*
D03*
X019527Y021102D02*
D03*
X019842Y021417D02*
D03*
X020157Y021102D02*
D03*
X020787Y022362D02*
D03*
X021102Y021732D02*
D03*
Y021102D02*
D03*
Y020787D02*
D03*
X020472Y019212D02*
D03*
X021417Y019527D02*
D03*
X020472Y015748D02*
D03*
X020157Y016693D02*
D03*
X021102Y017008D02*
D03*
X020787Y017953D02*
D03*
X016033Y013297D02*
D03*
X016468D02*
D03*
X015965Y012797D02*
D03*
X015213Y013825D02*
D03*
X014972Y011801D02*
D03*
X015474Y010801D02*
D03*
X015972D02*
D03*
X016467Y013770D02*
D03*
X018268Y013150D02*
D03*
Y012756D02*
D03*
X017465Y011801D02*
D03*
X013927Y013134D02*
D03*
X014139D02*
D03*
X014350D02*
D03*
X020675Y013781D02*
D03*
X020683Y010785D02*
D03*
X019683Y011785D02*
D03*
X021183Y012285D02*
D03*
X020675D02*
D03*
X019902Y013806D02*
D03*
X020179Y013283D02*
D03*
X020669Y012781D02*
D03*
X021179Y013282D02*
D03*
X020669D02*
D03*
X019902Y013543D02*
D03*
X020429Y013283D02*
D03*
X019907Y013280D02*
D03*
X018583Y013150D02*
D03*
X018898D02*
D03*
X019213D02*
D03*
X018878Y010776D02*
D03*
X020718Y014273D02*
D03*
Y014059D02*
D03*
X016472Y010801D02*
D03*
X016965Y011301D02*
D03*
X019527Y020157D02*
D03*
X019527Y020472D02*
D03*
X017952Y020787D02*
D03*
X021102Y017953D02*
D03*
X020157D02*
D03*
Y019212D02*
D03*
X020787D02*
D03*
X021102D02*
D03*
X021417Y019842D02*
D03*
X016063Y016693D02*
D03*
X016063Y015748D02*
D03*
X016378Y016693D02*
D03*
X019212Y017638D02*
D03*
Y017323D02*
D03*
X018582Y020472D02*
D03*
X021797Y016850D02*
D03*
X012785Y019941D02*
D03*
X015118Y018582D02*
D03*
X016496Y026195D02*
D03*
X015451Y025965D02*
D03*
X019842Y025118D02*
D03*
X016024Y026195D02*
D03*
X016772Y026299D02*
D03*
X017952Y016378D02*
D03*
X025152Y024589D02*
D03*
X013223Y021142D02*
D03*
X026067Y020171D02*
D03*
X024966Y016594D02*
D03*
X024345Y018169D02*
D03*
X013199Y018533D02*
D03*
X015118Y021732D02*
D03*
X015433Y022047D02*
D03*
X016386Y022045D02*
D03*
X016693Y021417D02*
D03*
X014075Y019981D02*
D03*
X018267Y017323D02*
D03*
Y018897D02*
D03*
X018267Y018582D02*
D03*
X018582Y018582D02*
D03*
Y019212D02*
D03*
X018267Y019212D02*
D03*
X022441Y022047D02*
D03*
X021417Y017638D02*
D03*
X025585Y020121D02*
D03*
X025702Y019778D02*
D03*
X019842Y018582D02*
D03*
X019842Y018897D02*
D03*
X020472Y017953D02*
D03*
X023681Y023386D02*
D03*
X014094Y020551D02*
D03*
Y020315D02*
D03*
X019527Y018582D02*
D03*
Y018267D02*
D03*
X019527Y017637D02*
D03*
X019212Y015433D02*
D03*
X021102D02*
D03*
X018897Y016378D02*
D03*
X015748Y015748D02*
D03*
X016378D02*
D03*
X016063Y017323D02*
D03*
X019212Y020157D02*
D03*
X020787Y019527D02*
D03*
X021102D02*
D03*
X016339Y026339D02*
D03*
X015669Y026339D02*
D03*
X017283Y026260D02*
D03*
X018150Y025866D02*
D03*
X018130Y026280D02*
D03*
X016732Y024055D02*
D03*
X016693Y023622D02*
D03*
X020787Y016378D02*
D03*
X022441Y019961D02*
D03*
X017126Y010591D02*
D03*
X017717Y010827D02*
D03*
X020183Y011285D02*
D03*
X015747Y019212D02*
D03*
X016063Y019527D02*
D03*
X016063Y019842D02*
D03*
X026161Y016240D02*
D03*
X025748Y012283D02*
D03*
X025551Y018976D02*
D03*
X015118Y019842D02*
D03*
X026328Y019227D02*
D03*
X015433Y019842D02*
D03*
X015118Y020472D02*
D03*
X012520Y019370D02*
D03*
X012776Y019350D02*
D03*
X014262Y020719D02*
D03*
X021102Y020157D02*
D03*
X018622Y025000D02*
D03*
X016220Y015276D02*
D03*
X015984Y015236D02*
D03*
X014055Y021772D02*
D03*
X026240Y018258D02*
D03*
X019842Y017638D02*
D03*
X011026Y024339D02*
D03*
X010723Y024300D02*
D03*
X023307Y012874D02*
D03*
X025157Y012795D02*
D03*
X025354Y012598D02*
D03*
X025906Y012638D02*
D03*
X014012Y018868D02*
D03*
X015118Y016693D02*
D03*
X017951Y015432D02*
D03*
X025020Y017972D02*
D03*
X019842Y017953D02*
D03*
X022530Y017707D02*
D03*
X025522Y016791D02*
D03*
X023425Y016811D02*
D03*
X022244Y017313D02*
D03*
X024345Y020138D02*
D03*
Y019154D02*
D03*
X024291Y019409D02*
D03*
X024345Y019744D02*
D03*
X025630Y021309D02*
D03*
X024322Y021556D02*
D03*
X024345Y020925D02*
D03*
X024291Y018898D02*
D03*
X022579Y021319D02*
D03*
X022402Y022441D02*
D03*
X021797Y020945D02*
D03*
X021142Y022579D02*
D03*
X014075Y019745D02*
D03*
X022372Y018986D02*
D03*
X015866Y024129D02*
D03*
X016161Y024134D02*
D03*
X017077Y023986D02*
D03*
X022274Y015669D02*
D03*
X014744Y012992D02*
D03*
X014961D02*
D03*
X015974Y012293D02*
D03*
X016467D02*
D03*
X013287Y022372D02*
D03*
X011398Y021870D02*
D03*
Y022148D02*
D03*
Y022426D02*
D03*
Y022704D02*
D03*
Y022982D02*
D03*
X011583Y023278D02*
D03*
X011805D02*
D03*
X012028D02*
D03*
X012250D02*
D03*
X012472D02*
D03*
X012695D02*
D03*
X012904Y022764D02*
D03*
Y022516D02*
D03*
Y022268D02*
D03*
Y022020D02*
D03*
Y021772D02*
D03*
X015728Y014616D02*
D03*
X017589Y014882D02*
D03*
X017844Y014892D02*
D03*
X016693Y020157D02*
D03*
X016555Y015236D02*
D03*
X016706Y013268D02*
D03*
X016886D02*
D03*
X017067D02*
D03*
X017247D02*
D03*
X016654Y012815D02*
D03*
X017539Y013100D02*
D03*
X017434Y013258D02*
D03*
X021693Y025305D02*
D03*
X024311Y016821D02*
D03*
X010630Y018642D02*
D03*
X022549Y019154D02*
D03*
X026161Y024144D02*
D03*
X020246Y023937D02*
D03*
X020248Y024135D02*
D03*
X020020D02*
D03*
X020017Y023937D02*
D03*
X021693Y024163D02*
D03*
X011447Y014360D02*
D03*
X011417Y012697D02*
D03*
X012697Y016732D02*
D03*
X012480Y015758D02*
D03*
X013032Y015000D02*
D03*
X012264Y017224D02*
D03*
X011949Y013110D02*
D03*
X011496Y010295D02*
D03*
X014055Y011339D02*
D03*
X014321Y010876D02*
D03*
X011427Y011437D02*
D03*
X011634Y011289D02*
D03*
X011476Y012431D02*
D03*
X012844Y013051D02*
D03*
X013218Y012785D02*
D03*
X013376Y010906D02*
D03*
X013632Y013957D02*
D03*
X011417Y013848D02*
D03*
X011624Y010994D02*
D03*
X012402Y014134D02*
D03*
X011713Y013366D02*
D03*
X016693Y017323D02*
D03*
X013258Y018317D02*
D03*
X010393Y019941D02*
D03*
X014764Y016220D02*
D03*
X014400Y016417D02*
D03*
X018957Y024961D02*
D03*
X014104Y023307D02*
D03*
X019350Y025138D02*
D03*
X010738Y023750D02*
D03*
X010364Y020157D02*
D03*
Y020394D02*
D03*
X021850Y017402D02*
D03*
X019212Y019527D02*
D03*
X019527Y019527D02*
D03*
X020787Y019843D02*
D03*
X021102Y019842D02*
D03*
X022593Y020138D02*
D03*
X022480Y019360D02*
D03*
X020472Y020157D02*
D03*
X021782Y022156D02*
D03*
X023927Y022559D02*
D03*
X025079Y022047D02*
D03*
X024783Y023091D02*
D03*
X018868Y024331D02*
D03*
X019144Y025551D02*
D03*
X010679Y023219D02*
D03*
X023219Y012165D02*
D03*
X023248Y012431D02*
D03*
X014882Y010354D02*
D03*
X012648Y012795D02*
D03*
X011447Y012185D02*
D03*
X011033Y015443D02*
D03*
X010335Y021093D02*
D03*
X010344Y020768D02*
D03*
X019764Y024311D02*
D03*
X020753Y023578D02*
D03*
X022234Y023396D02*
D03*
X022067Y023258D02*
D03*
X022372Y023238D02*
D03*
X024291Y018445D02*
D03*
X022510Y018159D02*
D03*
X022156Y017943D02*
D03*
X022244Y020817D02*
D03*
X022283Y020463D02*
D03*
X011181Y017116D02*
D03*
X022047Y020640D02*
D03*
X022343Y018425D02*
D03*
X011181Y020157D02*
D03*
X017322Y016063D02*
D03*
X018897Y016063D02*
D03*
X031260Y018954D02*
D03*
X037953Y015235D02*
D03*
X029862Y017574D02*
D03*
Y016396D02*
D03*
Y015215D02*
D03*
Y014624D02*
D03*
X029862Y018761D02*
D03*
X029857Y019351D02*
D03*
X029862Y019942D02*
D03*
Y020533D02*
D03*
X028898Y020131D02*
D03*
X036469Y024384D02*
D03*
X038145Y019816D02*
D03*
X037717Y012065D02*
D03*
X038543Y012518D02*
D03*
X037953Y024004D02*
D03*
X038145D02*
D03*
X038337D02*
D03*
X037923Y025914D02*
D03*
X038115D02*
D03*
X038307D02*
D03*
X032952Y025056D02*
D03*
X035166Y023363D02*
D03*
X034577Y022065D02*
D03*
X034123Y023373D02*
D03*
X033906D02*
D03*
X033690D02*
D03*
X033473D02*
D03*
X033257D02*
D03*
X037627Y022654D02*
D03*
X037421Y022065D02*
D03*
X033831Y025458D02*
D03*
X032126Y011052D02*
D03*
Y011317D02*
D03*
Y011583D02*
D03*
Y011849D02*
D03*
Y012115D02*
D03*
X040443Y011859D02*
D03*
X041093D02*
D03*
X039695D02*
D03*
X034129Y013442D02*
D03*
X035935Y014452D02*
D03*
X036693Y014437D02*
D03*
X042175Y014821D02*
D03*
X040039Y021712D02*
D03*
X041319Y021711D02*
D03*
X040039Y021122D02*
D03*
X041319Y015410D02*
D03*
Y021120D02*
D03*
Y020727D02*
D03*
X040039Y020532D02*
D03*
X041319Y016001D02*
D03*
Y020530D02*
D03*
X040039Y019941D02*
D03*
X041319Y016591D02*
D03*
Y019939D02*
D03*
X040039Y016593D02*
D03*
X040034Y019351D02*
D03*
X041324Y017181D02*
D03*
X041319Y019349D02*
D03*
X040039Y017183D02*
D03*
Y018760D02*
D03*
X041319Y017773D02*
D03*
Y018757D02*
D03*
X040039Y017775D02*
D03*
Y018366D02*
D03*
X041319Y018363D02*
D03*
X028898Y018952D02*
D03*
Y019158D02*
D03*
X028898Y019541D02*
D03*
Y019747D02*
D03*
Y020338D02*
D03*
X031260Y020131D02*
D03*
Y020338D02*
D03*
Y019541D02*
D03*
Y019747D02*
D03*
X030089Y022033D02*
D03*
X030296Y015017D02*
D03*
Y015214D02*
D03*
X030089Y021353D02*
D03*
X030296Y015809D02*
D03*
Y020530D02*
D03*
Y016395D02*
D03*
Y019939D02*
D03*
Y016985D02*
D03*
Y019349D02*
D03*
Y019150D02*
D03*
Y017576D02*
D03*
Y018757D02*
D03*
Y018166D02*
D03*
X034855Y022786D02*
D03*
X035791Y011596D02*
D03*
X037126Y010510D02*
D03*
X039096Y018896D02*
D03*
Y019426D02*
D03*
Y019806D02*
D03*
X039114Y020906D02*
D03*
Y020236D02*
D03*
X033990Y024485D02*
D03*
X036436Y024977D02*
D03*
X035876Y022794D02*
D03*
X035906Y022331D02*
D03*
X029016Y018170D02*
D03*
X029016Y016987D02*
D03*
Y015805D02*
D03*
X039114Y015727D02*
D03*
X039291Y016002D02*
D03*
X039911Y015392D02*
D03*
X039813Y014841D02*
D03*
X040886Y016002D02*
D03*
X035631Y014491D02*
D03*
X039093Y017607D02*
D03*
X038120Y017203D02*
D03*
X038425Y018030D02*
D03*
X038199Y018483D02*
D03*
X038780Y015353D02*
D03*
X038179Y022469D02*
D03*
X043189Y019939D02*
D03*
X035385Y022785D02*
D03*
D109*
X024415Y026118D02*
D03*
X022415D02*
D03*
X024415Y024118D02*
D03*
X022415D02*
D03*
D110*
X025866Y022638D02*
D03*
Y017622D02*
D03*
M02*
