G04 Layer_Color=32896*
%FSAX24Y24*%
%MOIN*%
G70*
G01*
G75*
%ADD10C,0.0049*%
%ADD14C,0.0118*%
%ADD65C,0.0079*%
%ADD68C,0.0120*%
%ADD69C,0.0098*%
%ADD70C,0.0059*%
%ADD73C,0.0039*%
%ADD74C,0.0394*%
%ADD79C,0.0100*%
G36*
X034129Y013821D02*
X034140Y013814D01*
X034150Y013808D01*
X034159Y013802D01*
X034167Y013796D01*
X034174Y013791D01*
X034181Y013786D01*
X034192Y013778D01*
X034201Y013771D01*
X034207Y013767D01*
X034210Y013763D01*
X034211Y013762D01*
X034220Y013754D01*
X034228Y013745D01*
X034234Y013736D01*
X034241Y013727D01*
X034246Y013720D01*
X034250Y013714D01*
X034253Y013710D01*
X034253Y013709D01*
Y013708D01*
X034256Y013721D01*
X034258Y013732D01*
X034261Y013742D01*
X034265Y013752D01*
X034269Y013761D01*
X034272Y013769D01*
X034276Y013777D01*
X034280Y013784D01*
X034284Y013789D01*
X034288Y013794D01*
X034291Y013799D01*
X034294Y013802D01*
X034296Y013805D01*
X034299Y013807D01*
X034299Y013808D01*
X034300Y013808D01*
X034307Y013814D01*
X034315Y013819D01*
X034331Y013828D01*
X034346Y013834D01*
X034361Y013837D01*
X034374Y013840D01*
X034380Y013841D01*
X034385D01*
X034388Y013842D01*
X034394D01*
X034410Y013841D01*
X034425Y013838D01*
X034439Y013835D01*
X034450Y013831D01*
X034460Y013827D01*
X034467Y013823D01*
X034469Y013821D01*
X034471Y013820D01*
X034472Y013819D01*
X034473D01*
X034485Y013810D01*
X034495Y013801D01*
X034503Y013792D01*
X034511Y013782D01*
X034515Y013773D01*
X034519Y013767D01*
X034521Y013762D01*
X034522Y013762D01*
Y013761D01*
X034524Y013754D01*
X034526Y013746D01*
X034530Y013727D01*
X034532Y013708D01*
X034534Y013689D01*
Y013679D01*
X034535Y013671D01*
Y013663D01*
X034536Y013657D01*
Y013652D01*
Y013647D01*
Y013644D01*
Y013644D01*
Y013429D01*
X034031D01*
Y013531D01*
X034242D01*
Y013552D01*
Y013564D01*
X034241Y013574D01*
X034240Y013583D01*
X034239Y013590D01*
X034238Y013596D01*
X034237Y013600D01*
X034236Y013602D01*
Y013603D01*
X034233Y013609D01*
X034230Y013614D01*
X034226Y013619D01*
X034224Y013625D01*
X034220Y013628D01*
X034217Y013631D01*
X034215Y013633D01*
X034215Y013633D01*
X034211Y013636D01*
X034207Y013640D01*
X034197Y013648D01*
X034185Y013657D01*
X034172Y013666D01*
X034160Y013674D01*
X034154Y013678D01*
X034150Y013681D01*
X034146Y013684D01*
X034143Y013686D01*
X034141Y013687D01*
X034140Y013687D01*
X034031Y013760D01*
Y013883D01*
X034129Y013821D01*
D02*
G37*
G36*
X042633Y018067D02*
X042654Y018064D01*
X042672Y018061D01*
X042688Y018057D01*
X042695Y018055D01*
X042701Y018054D01*
X042706Y018052D01*
X042711Y018050D01*
X042714Y018049D01*
X042717Y018048D01*
X042719Y018047D01*
X042719D01*
X042733Y018041D01*
X042745Y018034D01*
X042756Y018026D01*
X042765Y018019D01*
X042773Y018012D01*
X042780Y018006D01*
X042784Y018003D01*
X042784Y018002D01*
X042785Y018001D01*
X042795Y017989D01*
X042805Y017977D01*
X042813Y017966D01*
X042819Y017955D01*
X042824Y017946D01*
X042829Y017938D01*
X042830Y017935D01*
X042831Y017933D01*
X042832Y017933D01*
Y017932D01*
X042839Y017911D01*
X042845Y017890D01*
X042849Y017868D01*
X042851Y017847D01*
X042852Y017838D01*
X042853Y017829D01*
X042854Y017822D01*
Y017815D01*
X042854Y017809D01*
Y017806D01*
Y017803D01*
Y017802D01*
X042854Y017780D01*
X042851Y017759D01*
X042849Y017739D01*
X042844Y017721D01*
X042839Y017704D01*
X042833Y017689D01*
X042827Y017674D01*
X042821Y017662D01*
X042815Y017650D01*
X042809Y017641D01*
X042803Y017632D01*
X042798Y017625D01*
X042794Y017620D01*
X042791Y017615D01*
X042789Y017613D01*
X042788Y017613D01*
X042775Y017600D01*
X042761Y017590D01*
X042747Y017580D01*
X042732Y017573D01*
X042717Y017567D01*
X042702Y017561D01*
X042688Y017556D01*
X042674Y017553D01*
X042660Y017550D01*
X042648Y017548D01*
X042637Y017546D01*
X042628Y017545D01*
X042620Y017545D01*
X042614Y017544D01*
X042609D01*
X042589Y017545D01*
X042570Y017547D01*
X042552Y017551D01*
X042535Y017555D01*
X042519Y017560D01*
X042504Y017566D01*
X042491Y017572D01*
X042479Y017578D01*
X042469Y017585D01*
X042459Y017591D01*
X042451Y017596D01*
X042445Y017602D01*
X042439Y017606D01*
X042435Y017610D01*
X042433Y017612D01*
X042432Y017613D01*
X042421Y017626D01*
X042410Y017641D01*
X042401Y017656D01*
X042394Y017672D01*
X042387Y017688D01*
X042381Y017704D01*
X042377Y017720D01*
X042373Y017735D01*
X042371Y017749D01*
X042369Y017763D01*
X042367Y017774D01*
X042366Y017785D01*
Y017793D01*
X042365Y017800D01*
Y017804D01*
Y017805D01*
X042366Y017828D01*
X042368Y017849D01*
X042371Y017868D01*
X042375Y017887D01*
X042380Y017904D01*
X042386Y017920D01*
X042392Y017935D01*
X042399Y017947D01*
X042405Y017959D01*
X042411Y017969D01*
X042417Y017978D01*
X042422Y017985D01*
X042426Y017990D01*
X042429Y017995D01*
X042432Y017997D01*
X042432Y017997D01*
X042445Y018010D01*
X042459Y018021D01*
X042474Y018030D01*
X042488Y018038D01*
X042504Y018045D01*
X042518Y018051D01*
X042533Y018055D01*
X042547Y018059D01*
X042560Y018062D01*
X042572Y018064D01*
X042583Y018065D01*
X042593Y018067D01*
X042600D01*
X042606Y018067D01*
X042611D01*
X042633Y018067D01*
D02*
G37*
G36*
X034536Y012492D02*
X034450D01*
Y012642D01*
X034031D01*
Y012744D01*
X034450D01*
Y012893D01*
X034536D01*
Y012492D01*
D02*
G37*
G36*
X034116Y013061D02*
X034253D01*
Y013314D01*
X034339D01*
Y013061D01*
X034450D01*
Y013333D01*
X034536D01*
Y012959D01*
X034031D01*
Y013342D01*
X034116D01*
Y013061D01*
D02*
G37*
G36*
X040168Y017553D02*
X039812D01*
Y017639D01*
X040066D01*
Y018054D01*
X040168D01*
Y017553D01*
D02*
G37*
G36*
X041851Y017973D02*
X041701D01*
Y017553D01*
X041599D01*
Y017973D01*
X041450D01*
Y018058D01*
X041851D01*
Y017973D01*
D02*
G37*
G36*
X042285Y017553D02*
X042183D01*
Y017744D01*
X042093D01*
X042082Y017744D01*
X042071D01*
X042062Y017745D01*
X042053Y017746D01*
X042045Y017747D01*
X042039Y017747D01*
X042032D01*
X042027Y017748D01*
X042022Y017749D01*
X042018Y017750D01*
X042015D01*
X042013Y017750D01*
X042012D01*
X042001Y017753D01*
X041992Y017757D01*
X041983Y017760D01*
X041975Y017765D01*
X041969Y017769D01*
X041963Y017771D01*
X041961Y017774D01*
X041959Y017774D01*
X041950Y017782D01*
X041942Y017790D01*
X041934Y017798D01*
X041928Y017806D01*
X041923Y017813D01*
X041919Y017819D01*
X041917Y017822D01*
X041916Y017824D01*
X041910Y017836D01*
X041906Y017849D01*
X041903Y017863D01*
X041901Y017876D01*
X041899Y017886D01*
Y017891D01*
X041899Y017895D01*
Y017898D01*
Y017900D01*
Y017902D01*
Y017903D01*
X041900Y017924D01*
X041903Y017943D01*
X041908Y017960D01*
X041913Y017974D01*
X041916Y017980D01*
X041919Y017985D01*
X041921Y017989D01*
X041924Y017994D01*
X041926Y017997D01*
X041927Y017999D01*
X041929Y018000D01*
Y018000D01*
X041940Y018013D01*
X041952Y018024D01*
X041964Y018033D01*
X041975Y018040D01*
X041985Y018044D01*
X041993Y018048D01*
X041996Y018048D01*
X041998Y018049D01*
X042000Y018050D01*
X042001D01*
X042007Y018051D01*
X042014Y018053D01*
X042023Y018054D01*
X042031Y018054D01*
X042052Y018056D01*
X042072Y018057D01*
X042091D01*
X042099Y018058D01*
X042285D01*
Y017553D01*
D02*
G37*
G36*
X040731D02*
X040623D01*
X040581Y017668D01*
X040379D01*
X040335Y017553D01*
X040225D01*
X040427Y018058D01*
X040535D01*
X040731Y017553D01*
D02*
G37*
G36*
X041388D02*
X041286D01*
Y018058D01*
X041388D01*
Y017553D01*
D02*
G37*
G36*
X034536Y012326D02*
X034196D01*
X034536Y012118D01*
Y012019D01*
X034031D01*
Y012113D01*
X034363D01*
X034031Y012318D01*
Y012420D01*
X034536D01*
Y012326D01*
D02*
G37*
G36*
X035245Y012026D02*
X035159D01*
Y012175D01*
X034740D01*
Y012277D01*
X035159D01*
Y012426D01*
X035245D01*
Y012026D01*
D02*
G37*
G36*
Y012489D02*
X034740D01*
Y012591D01*
X035245D01*
Y012489D01*
D02*
G37*
G36*
X035014Y011510D02*
X035035Y011508D01*
X035055Y011505D01*
X035074Y011501D01*
X035091Y011496D01*
X035107Y011490D01*
X035121Y011484D01*
X035134Y011478D01*
X035145Y011471D01*
X035156Y011465D01*
X035164Y011459D01*
X035172Y011454D01*
X035177Y011451D01*
X035181Y011447D01*
X035183Y011445D01*
X035184Y011444D01*
X035196Y011431D01*
X035207Y011417D01*
X035217Y011403D01*
X035225Y011388D01*
X035231Y011373D01*
X035237Y011358D01*
X035242Y011344D01*
X035245Y011330D01*
X035248Y011317D01*
X035250Y011304D01*
X035252Y011293D01*
X035253Y011284D01*
Y011276D01*
X035254Y011271D01*
Y011267D01*
Y011266D01*
X035253Y011244D01*
X035251Y011223D01*
X035247Y011204D01*
X035244Y011188D01*
X035242Y011182D01*
X035240Y011175D01*
X035239Y011170D01*
X035237Y011166D01*
X035236Y011162D01*
X035234Y011159D01*
X035234Y011158D01*
Y011157D01*
X035228Y011144D01*
X035220Y011131D01*
X035212Y011120D01*
X035205Y011111D01*
X035199Y011103D01*
X035193Y011096D01*
X035189Y011093D01*
X035188Y011092D01*
X035188Y011091D01*
X035176Y011081D01*
X035164Y011072D01*
X035153Y011064D01*
X035142Y011057D01*
X035132Y011052D01*
X035125Y011048D01*
X035122Y011047D01*
X035120Y011045D01*
X035119Y011045D01*
X035118D01*
X035098Y011037D01*
X035076Y011032D01*
X035054Y011028D01*
X035034Y011025D01*
X035024Y011024D01*
X035016Y011024D01*
X035008Y011023D01*
X035002D01*
X034996Y011022D01*
X034989D01*
X034967Y011023D01*
X034946Y011025D01*
X034926Y011028D01*
X034908Y011032D01*
X034891Y011037D01*
X034876Y011043D01*
X034861Y011049D01*
X034849Y011056D01*
X034837Y011061D01*
X034828Y011067D01*
X034819Y011073D01*
X034812Y011078D01*
X034806Y011083D01*
X034802Y011085D01*
X034800Y011088D01*
X034799Y011088D01*
X034787Y011102D01*
X034777Y011115D01*
X034767Y011129D01*
X034760Y011145D01*
X034753Y011159D01*
X034747Y011174D01*
X034743Y011188D01*
X034739Y011203D01*
X034736Y011216D01*
X034734Y011228D01*
X034733Y011239D01*
X034732Y011249D01*
X034731Y011256D01*
X034731Y011262D01*
Y011266D01*
Y011267D01*
X034731Y011287D01*
X034734Y011306D01*
X034737Y011325D01*
X034742Y011341D01*
X034747Y011357D01*
X034752Y011372D01*
X034758Y011385D01*
X034765Y011397D01*
X034771Y011408D01*
X034777Y011417D01*
X034783Y011425D01*
X034788Y011432D01*
X034793Y011438D01*
X034796Y011441D01*
X034798Y011443D01*
X034799Y011444D01*
X034813Y011456D01*
X034828Y011466D01*
X034843Y011475D01*
X034858Y011483D01*
X034874Y011489D01*
X034890Y011495D01*
X034906Y011500D01*
X034922Y011503D01*
X034935Y011505D01*
X034949Y011508D01*
X034961Y011509D01*
X034971Y011510D01*
X034980D01*
X034986Y011511D01*
X034992D01*
X035014Y011510D01*
D02*
G37*
G36*
X035110Y011976D02*
X035130Y011973D01*
X035146Y011968D01*
X035161Y011963D01*
X035167Y011960D01*
X035172Y011957D01*
X035176Y011955D01*
X035180Y011952D01*
X035183Y011951D01*
X035185Y011949D01*
X035186Y011948D01*
X035187D01*
X035200Y011936D01*
X035211Y011925D01*
X035220Y011912D01*
X035226Y011901D01*
X035231Y011891D01*
X035234Y011883D01*
X035235Y011880D01*
X035236Y011878D01*
X035237Y011876D01*
Y011876D01*
X035238Y011870D01*
X035239Y011863D01*
X035240Y011854D01*
X035241Y011845D01*
X035242Y011825D01*
X035244Y011804D01*
Y011795D01*
Y011785D01*
X035245Y011777D01*
Y011769D01*
Y011763D01*
Y011759D01*
Y011755D01*
Y011755D01*
Y011591D01*
X034740D01*
Y011693D01*
X034930D01*
Y011760D01*
Y011772D01*
Y011784D01*
X034931Y011795D01*
Y011805D01*
X034932Y011814D01*
X034933Y011823D01*
X034933Y011831D01*
X034934Y011838D01*
Y011844D01*
X034935Y011849D01*
X034935Y011855D01*
X034936Y011858D01*
Y011861D01*
X034937Y011863D01*
Y011864D01*
Y011865D01*
X034940Y011875D01*
X034943Y011884D01*
X034947Y011893D01*
X034951Y011901D01*
X034955Y011908D01*
X034958Y011913D01*
X034960Y011916D01*
X034961Y011917D01*
X034968Y011927D01*
X034976Y011935D01*
X034985Y011943D01*
X034992Y011949D01*
X035000Y011954D01*
X035005Y011957D01*
X035009Y011960D01*
X035011Y011960D01*
X035023Y011966D01*
X035036Y011970D01*
X035050Y011973D01*
X035062Y011976D01*
X035073Y011977D01*
X035078D01*
X035081Y011978D01*
X035089D01*
X035110Y011976D01*
D02*
G37*
G36*
X034925Y013010D02*
X034906Y013004D01*
X034889Y012998D01*
X034875Y012991D01*
X034863Y012984D01*
X034855Y012978D01*
X034849Y012973D01*
X034845Y012969D01*
X034844Y012968D01*
X034835Y012956D01*
X034829Y012944D01*
X034825Y012933D01*
X034821Y012923D01*
X034820Y012913D01*
X034819Y012905D01*
X034818Y012902D01*
Y012900D01*
Y012899D01*
Y012898D01*
X034819Y012888D01*
X034820Y012879D01*
X034825Y012861D01*
X034830Y012846D01*
X034838Y012834D01*
X034846Y012823D01*
X034852Y012816D01*
X034855Y012813D01*
X034857Y012811D01*
X034857Y012810D01*
X034858Y012810D01*
X034866Y012804D01*
X034876Y012799D01*
X034886Y012794D01*
X034897Y012790D01*
X034919Y012784D01*
X034942Y012780D01*
X034953Y012778D01*
X034962Y012777D01*
X034972Y012776D01*
X034980D01*
X034986Y012775D01*
X034995D01*
X035012Y012776D01*
X035027Y012777D01*
X035041Y012778D01*
X035054Y012780D01*
X035066Y012783D01*
X035077Y012786D01*
X035086Y012789D01*
X035095Y012793D01*
X035102Y012796D01*
X035109Y012799D01*
X035114Y012802D01*
X035118Y012804D01*
X035122Y012807D01*
X035124Y012808D01*
X035126Y012810D01*
X035126D01*
X035134Y012816D01*
X035140Y012823D01*
X035145Y012831D01*
X035150Y012839D01*
X035157Y012854D01*
X035162Y012869D01*
X035165Y012881D01*
X035166Y012887D01*
X035167Y012891D01*
X035167Y012896D01*
Y012898D01*
Y012900D01*
Y012901D01*
X035167Y012915D01*
X035164Y012928D01*
X035160Y012940D01*
X035156Y012950D01*
X035151Y012958D01*
X035148Y012964D01*
X035145Y012968D01*
X035144Y012969D01*
X035135Y012979D01*
X035125Y012987D01*
X035115Y012994D01*
X035105Y012999D01*
X035096Y013003D01*
X035089Y013005D01*
X035086Y013006D01*
X035084D01*
X035083Y013007D01*
X035083D01*
X035107Y013108D01*
X035128Y013100D01*
X035146Y013092D01*
X035162Y013084D01*
X035175Y013076D01*
X035185Y013068D01*
X035190Y013065D01*
X035194Y013062D01*
X035196Y013060D01*
X035198Y013057D01*
X035199Y013057D01*
Y013056D01*
X035209Y013045D01*
X035218Y013033D01*
X035225Y013021D01*
X035231Y013009D01*
X035237Y012995D01*
X035241Y012983D01*
X035245Y012971D01*
X035247Y012959D01*
X035250Y012948D01*
X035251Y012938D01*
X035253Y012929D01*
X035253Y012921D01*
X035254Y012915D01*
Y012910D01*
Y012907D01*
Y012906D01*
X035253Y012887D01*
X035251Y012868D01*
X035247Y012851D01*
X035243Y012834D01*
X035238Y012820D01*
X035232Y012805D01*
X035226Y012793D01*
X035219Y012781D01*
X035212Y012770D01*
X035206Y012761D01*
X035200Y012753D01*
X035195Y012747D01*
X035191Y012742D01*
X035187Y012738D01*
X035185Y012736D01*
X035184Y012735D01*
X035170Y012724D01*
X035156Y012714D01*
X035140Y012705D01*
X035124Y012698D01*
X035107Y012691D01*
X035091Y012686D01*
X035075Y012682D01*
X035060Y012678D01*
X035045Y012675D01*
X035032Y012674D01*
X035019Y012672D01*
X035009Y012671D01*
X035000D01*
X034994Y012670D01*
X034988D01*
X034966Y012671D01*
X034946Y012673D01*
X034926Y012676D01*
X034908Y012681D01*
X034892Y012685D01*
X034876Y012691D01*
X034862Y012697D01*
X034849Y012702D01*
X034838Y012708D01*
X034828Y012714D01*
X034820Y012720D01*
X034812Y012724D01*
X034807Y012729D01*
X034803Y012732D01*
X034801Y012734D01*
X034800Y012734D01*
X034787Y012747D01*
X034777Y012760D01*
X034768Y012774D01*
X034760Y012788D01*
X034754Y012802D01*
X034748Y012815D01*
X034744Y012829D01*
X034740Y012841D01*
X034737Y012853D01*
X034735Y012864D01*
X034734Y012874D01*
X034733Y012882D01*
X034732Y012890D01*
X034731Y012895D01*
Y012898D01*
Y012899D01*
X034732Y012915D01*
X034733Y012928D01*
X034735Y012942D01*
X034738Y012955D01*
X034741Y012966D01*
X034744Y012977D01*
X034747Y012987D01*
X034752Y012997D01*
X034755Y013005D01*
X034759Y013012D01*
X034762Y013019D01*
X034765Y013024D01*
X034768Y013028D01*
X034770Y013031D01*
X034771Y013033D01*
X034771Y013033D01*
X034779Y013043D01*
X034788Y013052D01*
X034808Y013068D01*
X034828Y013081D01*
X034848Y013091D01*
X034857Y013095D01*
X034866Y013099D01*
X034874Y013102D01*
X034881Y013105D01*
X034887Y013107D01*
X034891Y013108D01*
X034894Y013109D01*
X034895D01*
X034925Y013010D01*
D02*
G37*
G36*
X034216Y011362D02*
X034197Y011356D01*
X034180Y011349D01*
X034166Y011343D01*
X034154Y011336D01*
X034146Y011330D01*
X034140Y011325D01*
X034136Y011321D01*
X034135Y011319D01*
X034126Y011308D01*
X034120Y011296D01*
X034116Y011284D01*
X034112Y011274D01*
X034111Y011265D01*
X034110Y011257D01*
X034109Y011254D01*
Y011252D01*
Y011251D01*
Y011250D01*
X034110Y011240D01*
X034111Y011231D01*
X034116Y011213D01*
X034121Y011198D01*
X034129Y011185D01*
X034137Y011175D01*
X034143Y011168D01*
X034146Y011165D01*
X034148Y011163D01*
X034148Y011162D01*
X034149Y011161D01*
X034157Y011155D01*
X034167Y011150D01*
X034177Y011145D01*
X034188Y011142D01*
X034210Y011136D01*
X034233Y011131D01*
X034244Y011130D01*
X034253Y011129D01*
X034263Y011128D01*
X034271D01*
X034277Y011127D01*
X034286D01*
X034303Y011128D01*
X034318Y011128D01*
X034332Y011130D01*
X034345Y011132D01*
X034357Y011135D01*
X034368Y011138D01*
X034377Y011141D01*
X034386Y011145D01*
X034393Y011147D01*
X034400Y011150D01*
X034405Y011153D01*
X034409Y011156D01*
X034413Y011158D01*
X034415Y011160D01*
X034417Y011161D01*
X034417D01*
X034425Y011168D01*
X034431Y011175D01*
X034436Y011182D01*
X034441Y011190D01*
X034448Y011206D01*
X034453Y011220D01*
X034456Y011233D01*
X034457Y011239D01*
X034458Y011243D01*
X034458Y011247D01*
Y011250D01*
Y011252D01*
Y011252D01*
X034458Y011267D01*
X034455Y011280D01*
X034451Y011292D01*
X034447Y011302D01*
X034442Y011310D01*
X034439Y011316D01*
X034436Y011319D01*
X034435Y011321D01*
X034426Y011330D01*
X034416Y011339D01*
X034406Y011346D01*
X034396Y011351D01*
X034387Y011354D01*
X034380Y011357D01*
X034377Y011358D01*
X034375D01*
X034374Y011359D01*
X034374D01*
X034398Y011459D01*
X034419Y011452D01*
X034437Y011444D01*
X034453Y011435D01*
X034466Y011427D01*
X034476Y011419D01*
X034481Y011416D01*
X034484Y011414D01*
X034487Y011411D01*
X034489Y011409D01*
X034490Y011408D01*
Y011408D01*
X034500Y011397D01*
X034509Y011384D01*
X034516Y011373D01*
X034522Y011360D01*
X034527Y011347D01*
X034532Y011335D01*
X034536Y011322D01*
X034538Y011311D01*
X034541Y011300D01*
X034542Y011290D01*
X034544Y011281D01*
X034544Y011273D01*
X034545Y011266D01*
Y011262D01*
Y011258D01*
Y011258D01*
X034544Y011239D01*
X034542Y011220D01*
X034538Y011203D01*
X034534Y011186D01*
X034529Y011171D01*
X034523Y011157D01*
X034517Y011145D01*
X034510Y011133D01*
X034503Y011122D01*
X034497Y011113D01*
X034491Y011105D01*
X034486Y011099D01*
X034482Y011093D01*
X034478Y011090D01*
X034476Y011088D01*
X034475Y011087D01*
X034461Y011075D01*
X034447Y011066D01*
X034431Y011057D01*
X034415Y011050D01*
X034398Y011043D01*
X034382Y011038D01*
X034366Y011034D01*
X034351Y011030D01*
X034336Y011027D01*
X034323Y011026D01*
X034310Y011024D01*
X034300Y011023D01*
X034291D01*
X034285Y011022D01*
X034279D01*
X034257Y011023D01*
X034237Y011025D01*
X034217Y011028D01*
X034199Y011032D01*
X034183Y011037D01*
X034167Y011042D01*
X034153Y011048D01*
X034140Y011054D01*
X034129Y011060D01*
X034119Y011066D01*
X034111Y011072D01*
X034103Y011076D01*
X034098Y011080D01*
X034094Y011083D01*
X034092Y011085D01*
X034091Y011086D01*
X034078Y011099D01*
X034068Y011112D01*
X034059Y011126D01*
X034051Y011139D01*
X034045Y011153D01*
X034039Y011167D01*
X034035Y011180D01*
X034031Y011193D01*
X034028Y011205D01*
X034026Y011216D01*
X034024Y011226D01*
X034024Y011234D01*
X034023Y011241D01*
X034022Y011247D01*
Y011250D01*
Y011251D01*
X034023Y011266D01*
X034024Y011280D01*
X034026Y011294D01*
X034029Y011306D01*
X034032Y011318D01*
X034035Y011329D01*
X034038Y011339D01*
X034043Y011349D01*
X034046Y011357D01*
X034050Y011364D01*
X034053Y011371D01*
X034056Y011376D01*
X034059Y011380D01*
X034061Y011383D01*
X034062Y011384D01*
X034062Y011385D01*
X034070Y011395D01*
X034079Y011403D01*
X034099Y011419D01*
X034119Y011432D01*
X034139Y011443D01*
X034148Y011447D01*
X034157Y011451D01*
X034165Y011454D01*
X034172Y011457D01*
X034178Y011459D01*
X034182Y011460D01*
X034185Y011461D01*
X034186D01*
X034216Y011362D01*
D02*
G37*
G36*
X034116Y011651D02*
X034253D01*
Y011904D01*
X034339D01*
Y011651D01*
X034450D01*
Y011923D01*
X034536D01*
Y011549D01*
X034031D01*
Y011933D01*
X034116D01*
Y011651D01*
D02*
G37*
G36*
X035245Y013449D02*
Y013341D01*
X034740Y013146D01*
Y013254D01*
X034855Y013295D01*
Y013498D01*
X034740Y013541D01*
Y013652D01*
X035245Y013449D01*
D02*
G37*
G36*
X034825Y013810D02*
X035241D01*
Y013708D01*
X034740D01*
Y014064D01*
X034825D01*
Y013810D01*
D02*
G37*
G36*
X033827Y011844D02*
X033323D01*
Y011946D01*
X033827D01*
Y011844D01*
D02*
G37*
G36*
X041324Y016136D02*
X040940D01*
Y016221D01*
X041222D01*
Y016358D01*
X040969D01*
Y016444D01*
X041222D01*
Y016555D01*
X040950D01*
Y016641D01*
X041324D01*
Y016136D01*
D02*
G37*
G36*
X042638Y017358D02*
X042657Y017355D01*
X042674Y017352D01*
X042690Y017347D01*
X042705Y017342D01*
X042719Y017337D01*
X042732Y017330D01*
X042744Y017323D01*
X042754Y017317D01*
X042763Y017310D01*
X042771Y017304D01*
X042778Y017299D01*
X042783Y017295D01*
X042787Y017291D01*
X042789Y017289D01*
X042789Y017288D01*
X042801Y017275D01*
X042811Y017260D01*
X042819Y017245D01*
X042827Y017229D01*
X042833Y017212D01*
X042838Y017196D01*
X042843Y017180D01*
X042846Y017164D01*
X042849Y017149D01*
X042851Y017136D01*
X042852Y017124D01*
X042854Y017113D01*
Y017105D01*
X042854Y017098D01*
Y017094D01*
Y017093D01*
Y017092D01*
X042854Y017070D01*
X042851Y017050D01*
X042849Y017030D01*
X042844Y017013D01*
X042840Y016996D01*
X042834Y016980D01*
X042828Y016966D01*
X042822Y016954D01*
X042816Y016942D01*
X042811Y016932D01*
X042805Y016924D01*
X042800Y016917D01*
X042796Y016911D01*
X042793Y016907D01*
X042791Y016905D01*
X042790Y016904D01*
X042778Y016892D01*
X042765Y016882D01*
X042751Y016872D01*
X042737Y016865D01*
X042723Y016858D01*
X042709Y016852D01*
X042696Y016848D01*
X042684Y016844D01*
X042671Y016842D01*
X042660Y016839D01*
X042650Y016838D01*
X042642Y016837D01*
X042635Y016836D01*
X042630Y016836D01*
X042625D01*
X042610Y016836D01*
X042596Y016837D01*
X042582Y016839D01*
X042570Y016842D01*
X042558Y016845D01*
X042547Y016848D01*
X042537Y016852D01*
X042528Y016856D01*
X042520Y016860D01*
X042512Y016863D01*
X042506Y016866D01*
X042501Y016869D01*
X042496Y016872D01*
X042493Y016874D01*
X042492Y016875D01*
X042491Y016876D01*
X042482Y016884D01*
X042473Y016893D01*
X042457Y016912D01*
X042444Y016933D01*
X042434Y016952D01*
X042429Y016962D01*
X042426Y016971D01*
X042423Y016979D01*
X042420Y016985D01*
X042418Y016991D01*
X042416Y016995D01*
X042415Y016998D01*
Y016999D01*
X042515Y017030D01*
X042520Y017010D01*
X042527Y016993D01*
X042534Y016979D01*
X042541Y016968D01*
X042547Y016959D01*
X042552Y016953D01*
X042555Y016949D01*
X042557Y016948D01*
X042569Y016939D01*
X042580Y016933D01*
X042592Y016929D01*
X042602Y016925D01*
X042612Y016924D01*
X042620Y016923D01*
X042623Y016922D01*
X042626D01*
X042636Y016923D01*
X042646Y016924D01*
X042663Y016929D01*
X042679Y016935D01*
X042691Y016943D01*
X042701Y016950D01*
X042709Y016956D01*
X042711Y016959D01*
X042714Y016961D01*
X042714Y016962D01*
X042715Y016963D01*
X042721Y016971D01*
X042726Y016980D01*
X042731Y016990D01*
X042735Y017001D01*
X042741Y017024D01*
X042745Y017046D01*
X042746Y017057D01*
X042747Y017067D01*
X042749Y017076D01*
Y017084D01*
X042749Y017090D01*
Y017095D01*
Y017099D01*
Y017100D01*
X042749Y017116D01*
X042748Y017132D01*
X042746Y017146D01*
X042744Y017159D01*
X042741Y017170D01*
X042738Y017181D01*
X042736Y017191D01*
X042732Y017199D01*
X042729Y017207D01*
X042726Y017213D01*
X042723Y017218D01*
X042720Y017223D01*
X042718Y017226D01*
X042717Y017229D01*
X042715Y017230D01*
Y017231D01*
X042709Y017238D01*
X042701Y017245D01*
X042694Y017250D01*
X042686Y017254D01*
X042671Y017261D01*
X042656Y017267D01*
X042644Y017269D01*
X042638Y017270D01*
X042633Y017271D01*
X042629Y017272D01*
X042624D01*
X042609Y017271D01*
X042596Y017268D01*
X042585Y017264D01*
X042574Y017260D01*
X042566Y017256D01*
X042561Y017252D01*
X042557Y017249D01*
X042555Y017248D01*
X042546Y017240D01*
X042537Y017229D01*
X042531Y017219D01*
X042526Y017209D01*
X042522Y017200D01*
X042520Y017194D01*
X042518Y017191D01*
Y017189D01*
X042518Y017188D01*
Y017187D01*
X042417Y017211D01*
X042424Y017232D01*
X042432Y017250D01*
X042441Y017267D01*
X042449Y017280D01*
X042457Y017290D01*
X042460Y017294D01*
X042463Y017298D01*
X042465Y017300D01*
X042467Y017302D01*
X042468Y017304D01*
X042469D01*
X042480Y017313D01*
X042492Y017322D01*
X042504Y017329D01*
X042516Y017335D01*
X042529Y017341D01*
X042542Y017345D01*
X042554Y017349D01*
X042566Y017352D01*
X042577Y017354D01*
X042587Y017355D01*
X042596Y017357D01*
X042604Y017358D01*
X042610Y017358D01*
X042619D01*
X042638Y017358D01*
D02*
G37*
G36*
X041857Y016844D02*
X041763D01*
Y017177D01*
X041558Y016844D01*
X041456D01*
Y017349D01*
X041550D01*
Y017009D01*
X041759Y017349D01*
X041857D01*
Y016844D01*
D02*
G37*
G36*
X042457Y016136D02*
X042102D01*
Y016221D01*
X042355D01*
Y016637D01*
X042457D01*
Y016136D01*
D02*
G37*
G36*
X041833D02*
X041739D01*
Y016469D01*
X041534Y016136D01*
X041432D01*
Y016641D01*
X041526D01*
Y016301D01*
X041734Y016641D01*
X041833D01*
Y016136D01*
D02*
G37*
G36*
X042032D02*
X041930D01*
Y016641D01*
X042032D01*
Y016136D01*
D02*
G37*
G36*
X033408Y011521D02*
X033824D01*
Y011419D01*
X033323D01*
Y011775D01*
X033408D01*
Y011521D01*
D02*
G37*
G36*
X042327Y016844D02*
X041944D01*
Y016930D01*
X042225D01*
Y017067D01*
X041972D01*
Y017152D01*
X042225D01*
Y017264D01*
X041953D01*
Y017349D01*
X042327D01*
Y016844D01*
D02*
G37*
G36*
X033827Y012351D02*
X033488D01*
X033827Y012142D01*
Y012044D01*
X033323D01*
Y012138D01*
X033655D01*
X033323Y012343D01*
Y012445D01*
X033827D01*
Y012351D01*
D02*
G37*
G36*
X040990Y018067D02*
X041009Y018064D01*
X041025Y018061D01*
X041042Y018056D01*
X041057Y018051D01*
X041071Y018046D01*
X041084Y018039D01*
X041095Y018032D01*
X041106Y018026D01*
X041115Y018019D01*
X041123Y018013D01*
X041130Y018008D01*
X041135Y018004D01*
X041138Y018000D01*
X041140Y017998D01*
X041141Y017997D01*
X041153Y017984D01*
X041162Y017969D01*
X041171Y017954D01*
X041178Y017938D01*
X041185Y017921D01*
X041190Y017905D01*
X041194Y017889D01*
X041198Y017873D01*
X041201Y017858D01*
X041202Y017845D01*
X041204Y017833D01*
X041205Y017822D01*
Y017814D01*
X041206Y017807D01*
Y017803D01*
Y017802D01*
Y017801D01*
X041205Y017779D01*
X041203Y017759D01*
X041200Y017739D01*
X041196Y017722D01*
X041191Y017705D01*
X041186Y017689D01*
X041180Y017675D01*
X041174Y017663D01*
X041168Y017651D01*
X041162Y017641D01*
X041156Y017633D01*
X041152Y017626D01*
X041148Y017621D01*
X041145Y017616D01*
X041143Y017614D01*
X041142Y017613D01*
X041130Y017601D01*
X041116Y017591D01*
X041103Y017581D01*
X041089Y017574D01*
X041075Y017567D01*
X041061Y017561D01*
X041048Y017557D01*
X041035Y017553D01*
X041023Y017551D01*
X041012Y017548D01*
X041002Y017547D01*
X040994Y017546D01*
X040987Y017545D01*
X040982Y017545D01*
X040977D01*
X040962Y017545D01*
X040948Y017546D01*
X040934Y017548D01*
X040922Y017551D01*
X040910Y017554D01*
X040899Y017557D01*
X040889Y017561D01*
X040879Y017565D01*
X040871Y017569D01*
X040864Y017572D01*
X040858Y017575D01*
X040852Y017578D01*
X040848Y017581D01*
X040845Y017583D01*
X040844Y017584D01*
X040843Y017585D01*
X040834Y017593D01*
X040825Y017602D01*
X040809Y017621D01*
X040796Y017642D01*
X040785Y017661D01*
X040781Y017671D01*
X040777Y017680D01*
X040774Y017688D01*
X040772Y017694D01*
X040769Y017700D01*
X040768Y017704D01*
X040767Y017707D01*
Y017708D01*
X040866Y017739D01*
X040872Y017719D01*
X040879Y017702D01*
X040885Y017688D01*
X040893Y017677D01*
X040898Y017668D01*
X040904Y017662D01*
X040907Y017658D01*
X040909Y017657D01*
X040920Y017648D01*
X040932Y017642D01*
X040944Y017638D01*
X040954Y017634D01*
X040963Y017633D01*
X040971Y017632D01*
X040974Y017631D01*
X040978D01*
X040988Y017632D01*
X040998Y017633D01*
X041015Y017638D01*
X041030Y017644D01*
X041043Y017652D01*
X041053Y017659D01*
X041060Y017665D01*
X041063Y017668D01*
X041065Y017670D01*
X041066Y017671D01*
X041067Y017672D01*
X041073Y017680D01*
X041078Y017689D01*
X041083Y017699D01*
X041087Y017710D01*
X041092Y017733D01*
X041097Y017755D01*
X041098Y017766D01*
X041099Y017776D01*
X041100Y017785D01*
Y017793D01*
X041101Y017799D01*
Y017804D01*
Y017808D01*
Y017809D01*
X041100Y017825D01*
X041100Y017841D01*
X041098Y017855D01*
X041096Y017868D01*
X041093Y017879D01*
X041090Y017890D01*
X041087Y017900D01*
X041084Y017908D01*
X041081Y017916D01*
X041078Y017922D01*
X041075Y017927D01*
X041072Y017932D01*
X041070Y017935D01*
X041068Y017938D01*
X041067Y017939D01*
Y017940D01*
X041060Y017947D01*
X041053Y017954D01*
X041046Y017959D01*
X041038Y017963D01*
X041022Y017970D01*
X041008Y017976D01*
X040995Y017978D01*
X040990Y017979D01*
X040985Y017980D01*
X040981Y017981D01*
X040976D01*
X040961Y017980D01*
X040948Y017977D01*
X040936Y017973D01*
X040926Y017969D01*
X040918Y017965D01*
X040912Y017961D01*
X040909Y017958D01*
X040907Y017957D01*
X040898Y017949D01*
X040889Y017938D01*
X040882Y017928D01*
X040877Y017918D01*
X040874Y017909D01*
X040871Y017903D01*
X040870Y017900D01*
Y017898D01*
X040869Y017897D01*
Y017896D01*
X040769Y017920D01*
X040776Y017941D01*
X040784Y017960D01*
X040793Y017976D01*
X040801Y017989D01*
X040809Y017999D01*
X040812Y018003D01*
X040815Y018007D01*
X040817Y018009D01*
X040819Y018011D01*
X040820Y018013D01*
X040820D01*
X040831Y018022D01*
X040844Y018031D01*
X040855Y018038D01*
X040868Y018044D01*
X040881Y018050D01*
X040893Y018054D01*
X040906Y018058D01*
X040917Y018061D01*
X040928Y018063D01*
X040939Y018064D01*
X040947Y018066D01*
X040955Y018067D01*
X040962Y018067D01*
X040971D01*
X040990Y018067D01*
D02*
G37*
G36*
X033408Y012655D02*
X033545D01*
Y012908D01*
X033630D01*
Y012655D01*
X033742D01*
Y012927D01*
X033827D01*
Y012553D01*
X033323D01*
Y012936D01*
X033408D01*
Y012655D01*
D02*
G37*
G36*
X040447Y016844D02*
X040345D01*
Y017055D01*
X040312D01*
X040302Y017054D01*
X040293Y017054D01*
X040286Y017052D01*
X040280Y017051D01*
X040277Y017050D01*
X040274Y017049D01*
X040274D01*
X040268Y017046D01*
X040262Y017043D01*
X040257Y017040D01*
X040252Y017037D01*
X040248Y017033D01*
X040245Y017030D01*
X040244Y017029D01*
X040243Y017028D01*
X040240Y017025D01*
X040236Y017021D01*
X040228Y017010D01*
X040220Y016998D01*
X040210Y016985D01*
X040202Y016973D01*
X040199Y016968D01*
X040196Y016963D01*
X040193Y016960D01*
X040191Y016957D01*
X040190Y016955D01*
X040189Y016954D01*
X040116Y016844D01*
X039994D01*
X040056Y016943D01*
X040062Y016953D01*
X040069Y016963D01*
X040075Y016972D01*
X040080Y016980D01*
X040086Y016987D01*
X040090Y016995D01*
X040099Y017006D01*
X040105Y017014D01*
X040110Y017020D01*
X040113Y017024D01*
X040114Y017025D01*
X040122Y017033D01*
X040132Y017041D01*
X040140Y017048D01*
X040149Y017054D01*
X040156Y017059D01*
X040162Y017063D01*
X040167Y017066D01*
X040167Y017067D01*
X040168D01*
X040156Y017069D01*
X040145Y017072D01*
X040134Y017075D01*
X040124Y017078D01*
X040115Y017082D01*
X040107Y017086D01*
X040099Y017089D01*
X040093Y017094D01*
X040087Y017097D01*
X040082Y017101D01*
X040078Y017105D01*
X040075Y017108D01*
X040072Y017110D01*
X040070Y017112D01*
X040069Y017113D01*
X040068Y017113D01*
X040062Y017121D01*
X040057Y017128D01*
X040048Y017144D01*
X040043Y017159D01*
X040039Y017175D01*
X040036Y017188D01*
X040035Y017193D01*
Y017198D01*
X040035Y017202D01*
Y017205D01*
Y017207D01*
Y017207D01*
X040035Y017224D01*
X040038Y017239D01*
X040042Y017252D01*
X040045Y017264D01*
X040050Y017273D01*
X040054Y017280D01*
X040055Y017283D01*
X040056Y017285D01*
X040057Y017285D01*
Y017286D01*
X040066Y017299D01*
X040075Y017309D01*
X040085Y017317D01*
X040094Y017324D01*
X040103Y017328D01*
X040110Y017332D01*
X040114Y017334D01*
X040115Y017335D01*
X040115D01*
X040123Y017337D01*
X040131Y017339D01*
X040149Y017343D01*
X040169Y017345D01*
X040188Y017347D01*
X040197D01*
X040205Y017348D01*
X040213D01*
X040220Y017349D01*
X040447D01*
Y016844D01*
D02*
G37*
G36*
X041384Y017264D02*
X041234D01*
Y016844D01*
X041132D01*
Y017264D01*
X040984D01*
Y017349D01*
X041384D01*
Y017264D01*
D02*
G37*
G36*
X040917Y016844D02*
X040534D01*
Y016930D01*
X040815D01*
Y017067D01*
X040562D01*
Y017152D01*
X040815D01*
Y017264D01*
X040543D01*
Y017349D01*
X040917D01*
Y016844D01*
D02*
G37*
%LPC*%
G36*
X034391Y013737D02*
X034387D01*
X034379Y013736D01*
X034371Y013735D01*
X034365Y013733D01*
X034359Y013732D01*
X034355Y013730D01*
X034352Y013727D01*
X034350Y013727D01*
X034349Y013726D01*
X034344Y013722D01*
X034339Y013717D01*
X034333Y013708D01*
X034331Y013704D01*
X034329Y013700D01*
X034328Y013698D01*
Y013697D01*
X034327Y013694D01*
X034326Y013688D01*
X034325Y013682D01*
X034324Y013676D01*
X034323Y013660D01*
X034323Y013645D01*
X034322Y013630D01*
Y013624D01*
Y013618D01*
Y013613D01*
Y013609D01*
Y013607D01*
Y013606D01*
Y013531D01*
X034450D01*
Y013610D01*
Y013621D01*
Y013631D01*
Y013640D01*
Y013648D01*
X034450Y013654D01*
Y013661D01*
Y013666D01*
Y013671D01*
X034449Y013677D01*
Y013681D01*
X034448Y013684D01*
Y013684D01*
X034446Y013693D01*
X034443Y013701D01*
X034440Y013708D01*
X034436Y013713D01*
X034433Y013717D01*
X034431Y013721D01*
X034428Y013722D01*
X034428Y013723D01*
X034422Y013727D01*
X034415Y013731D01*
X034408Y013733D01*
X034401Y013735D01*
X034396Y013736D01*
X034391Y013737D01*
D02*
G37*
G36*
X042615Y017981D02*
X042609D01*
X042598Y017980D01*
X042587Y017978D01*
X042577Y017977D01*
X042567Y017974D01*
X042550Y017967D01*
X042542Y017963D01*
X042536Y017960D01*
X042529Y017955D01*
X042524Y017952D01*
X042520Y017948D01*
X042515Y017944D01*
X042512Y017941D01*
X042510Y017940D01*
X042510Y017938D01*
X042509Y017938D01*
X042502Y017929D01*
X042496Y017919D01*
X042491Y017910D01*
X042486Y017899D01*
X042480Y017877D01*
X042475Y017856D01*
X042473Y017847D01*
X042472Y017837D01*
X042472Y017829D01*
X042471Y017822D01*
X042470Y017815D01*
Y017811D01*
Y017808D01*
Y017807D01*
X042471Y017791D01*
X042472Y017776D01*
X042474Y017762D01*
X042476Y017750D01*
X042479Y017737D01*
X042483Y017726D01*
X042486Y017717D01*
X042490Y017708D01*
X042493Y017700D01*
X042497Y017693D01*
X042500Y017688D01*
X042504Y017682D01*
X042506Y017679D01*
X042508Y017677D01*
X042509Y017675D01*
X042510Y017674D01*
X042517Y017666D01*
X042525Y017660D01*
X042534Y017654D01*
X042542Y017649D01*
X042550Y017645D01*
X042558Y017642D01*
X042574Y017637D01*
X042588Y017633D01*
X042594Y017632D01*
X042599Y017631D01*
X042604Y017631D01*
X042609D01*
X042620Y017631D01*
X042631Y017633D01*
X042641Y017635D01*
X042651Y017638D01*
X042668Y017645D01*
X042682Y017653D01*
X042689Y017657D01*
X042694Y017661D01*
X042699Y017665D01*
X042703Y017669D01*
X042706Y017671D01*
X042708Y017673D01*
X042709Y017674D01*
X042710Y017675D01*
X042717Y017684D01*
X042723Y017693D01*
X042728Y017704D01*
X042733Y017715D01*
X042740Y017736D01*
X042744Y017757D01*
X042746Y017767D01*
X042747Y017776D01*
X042748Y017785D01*
X042749Y017792D01*
X042749Y017798D01*
Y017802D01*
Y017805D01*
Y017806D01*
X042749Y017822D01*
X042748Y017836D01*
X042746Y017850D01*
X042744Y017863D01*
X042741Y017875D01*
X042738Y017886D01*
X042734Y017895D01*
X042730Y017904D01*
X042727Y017912D01*
X042723Y017919D01*
X042720Y017924D01*
X042717Y017929D01*
X042715Y017933D01*
X042713Y017935D01*
X042712Y017936D01*
X042711Y017937D01*
X042704Y017945D01*
X042696Y017952D01*
X042687Y017957D01*
X042679Y017962D01*
X042671Y017967D01*
X042662Y017970D01*
X042646Y017976D01*
X042631Y017978D01*
X042625Y017979D01*
X042620Y017980D01*
X042615Y017981D01*
D02*
G37*
G36*
X042183Y017973D02*
X042107D01*
X042100Y017972D01*
X042093D01*
X042087Y017971D01*
X042077D01*
X042070Y017970D01*
X042065Y017970D01*
X042062Y017969D01*
X042061D01*
X042052Y017967D01*
X042044Y017964D01*
X042037Y017960D01*
X042031Y017956D01*
X042027Y017952D01*
X042023Y017949D01*
X042021Y017947D01*
X042020Y017946D01*
X042015Y017939D01*
X042011Y017932D01*
X042008Y017924D01*
X042006Y017917D01*
X042004Y017910D01*
X042004Y017905D01*
Y017902D01*
Y017900D01*
X042004Y017892D01*
X042005Y017885D01*
X042007Y017879D01*
X042009Y017873D01*
X042012Y017868D01*
X042013Y017864D01*
X042015Y017862D01*
X042015Y017861D01*
X042020Y017855D01*
X042025Y017850D01*
X042031Y017846D01*
X042036Y017842D01*
X042040Y017840D01*
X042044Y017838D01*
X042047Y017837D01*
X042047Y017836D01*
X042052Y017835D01*
X042057Y017834D01*
X042068Y017832D01*
X042082Y017830D01*
X042095Y017830D01*
X042108D01*
X042113Y017829D01*
X042183D01*
Y017973D01*
D02*
G37*
G36*
X040482Y017941D02*
X040411Y017753D01*
X040551D01*
X040482Y017941D01*
D02*
G37*
G36*
X035002Y011406D02*
X034994D01*
X034978Y011406D01*
X034962Y011405D01*
X034949Y011403D01*
X034936Y011400D01*
X034924Y011397D01*
X034913Y011394D01*
X034903Y011390D01*
X034895Y011387D01*
X034887Y011383D01*
X034880Y011379D01*
X034874Y011376D01*
X034869Y011373D01*
X034865Y011371D01*
X034863Y011368D01*
X034862Y011368D01*
X034861Y011367D01*
X034853Y011360D01*
X034847Y011352D01*
X034841Y011343D01*
X034836Y011335D01*
X034832Y011326D01*
X034828Y011318D01*
X034823Y011302D01*
X034820Y011288D01*
X034819Y011282D01*
X034818Y011277D01*
X034817Y011273D01*
Y011270D01*
Y011268D01*
Y011267D01*
X034818Y011256D01*
X034820Y011245D01*
X034822Y011235D01*
X034825Y011225D01*
X034831Y011208D01*
X034840Y011194D01*
X034844Y011188D01*
X034848Y011182D01*
X034852Y011177D01*
X034855Y011174D01*
X034857Y011171D01*
X034860Y011169D01*
X034861Y011167D01*
X034862Y011166D01*
X034871Y011160D01*
X034880Y011153D01*
X034890Y011148D01*
X034901Y011144D01*
X034922Y011136D01*
X034943Y011132D01*
X034954Y011131D01*
X034962Y011129D01*
X034971Y011128D01*
X034978Y011128D01*
X034984Y011127D01*
X034992D01*
X035008Y011128D01*
X035023Y011128D01*
X035037Y011131D01*
X035050Y011133D01*
X035062Y011136D01*
X035073Y011139D01*
X035082Y011142D01*
X035091Y011146D01*
X035099Y011150D01*
X035105Y011153D01*
X035110Y011156D01*
X035116Y011159D01*
X035119Y011161D01*
X035121Y011163D01*
X035123Y011164D01*
X035124Y011165D01*
X035132Y011172D01*
X035138Y011180D01*
X035144Y011189D01*
X035149Y011197D01*
X035153Y011206D01*
X035156Y011214D01*
X035162Y011231D01*
X035165Y011245D01*
X035166Y011251D01*
X035167Y011257D01*
X035167Y011261D01*
Y011264D01*
Y011266D01*
Y011267D01*
X035167Y011279D01*
X035165Y011290D01*
X035164Y011300D01*
X035161Y011309D01*
X035153Y011326D01*
X035150Y011334D01*
X035146Y011341D01*
X035142Y011347D01*
X035138Y011352D01*
X035134Y011357D01*
X035131Y011361D01*
X035128Y011364D01*
X035126Y011366D01*
X035125Y011367D01*
X035124Y011368D01*
X035116Y011374D01*
X035106Y011381D01*
X035097Y011386D01*
X035086Y011390D01*
X035064Y011397D01*
X035043Y011401D01*
X035033Y011403D01*
X035024Y011404D01*
X035016Y011405D01*
X035008Y011406D01*
X035002Y011406D01*
D02*
G37*
G36*
X035091Y011873D02*
X035087D01*
X035079Y011872D01*
X035072Y011871D01*
X035065Y011869D01*
X035059Y011867D01*
X035054Y011865D01*
X035051Y011863D01*
X035048Y011862D01*
X035048Y011861D01*
X035042Y011857D01*
X035037Y011851D01*
X035032Y011846D01*
X035029Y011841D01*
X035027Y011836D01*
X035024Y011833D01*
X035024Y011830D01*
X035023Y011829D01*
X035021Y011825D01*
X035021Y011820D01*
X035019Y011808D01*
X035017Y011795D01*
X035016Y011782D01*
Y011769D01*
X035016Y011763D01*
Y011758D01*
Y011755D01*
Y011752D01*
Y011750D01*
Y011749D01*
Y011693D01*
X035159D01*
Y011742D01*
Y011753D01*
Y011761D01*
Y011769D01*
X035159Y011777D01*
Y011783D01*
X035158Y011790D01*
Y011799D01*
X035157Y011806D01*
X035156Y011812D01*
X035156Y011814D01*
Y011815D01*
X035153Y011824D01*
X035150Y011832D01*
X035147Y011839D01*
X035142Y011845D01*
X035139Y011849D01*
X035136Y011853D01*
X035134Y011855D01*
X035133Y011856D01*
X035126Y011862D01*
X035118Y011866D01*
X035110Y011868D01*
X035103Y011871D01*
X035097Y011872D01*
X035091Y011873D01*
D02*
G37*
G36*
X034940Y013465D02*
Y013326D01*
X035127Y013394D01*
X034940Y013465D01*
D02*
G37*
G36*
X040345Y017264D02*
X040228D01*
X040222Y017263D01*
X040206D01*
X040199Y017262D01*
X040195D01*
X040193Y017261D01*
X040192D01*
X040183Y017259D01*
X040175Y017256D01*
X040169Y017253D01*
X040164Y017250D01*
X040159Y017246D01*
X040156Y017244D01*
X040154Y017242D01*
X040153Y017241D01*
X040149Y017235D01*
X040145Y017228D01*
X040143Y017221D01*
X040141Y017215D01*
X040140Y017209D01*
X040140Y017205D01*
Y017202D01*
Y017200D01*
X040140Y017192D01*
X040141Y017185D01*
X040143Y017178D01*
X040145Y017172D01*
X040147Y017168D01*
X040149Y017165D01*
X040150Y017163D01*
X040150Y017162D01*
X040155Y017157D01*
X040159Y017153D01*
X040169Y017146D01*
X040172Y017144D01*
X040176Y017143D01*
X040178Y017141D01*
X040179D01*
X040183Y017140D01*
X040188Y017139D01*
X040194Y017138D01*
X040201Y017137D01*
X040216Y017137D01*
X040231Y017136D01*
X040246Y017135D01*
X040345D01*
Y017264D01*
D02*
G37*
%LPD*%
D10*
X027480Y018266D02*
X031575D01*
X035591Y022203D02*
Y026298D01*
X039449Y018266D02*
X043543D01*
X035591Y010156D02*
Y014250D01*
D14*
X026929Y011161D02*
Y025354D01*
D65*
X032738Y021170D02*
G03*
X032541Y020973I000000J-000197D01*
G01*
X032541Y015638D02*
G03*
X032738Y015441I000197J000000D01*
G01*
X032246Y015343D02*
G03*
X032443Y015146I000197J000000D01*
G01*
Y021465D02*
G03*
X032246Y021268I000000J-000197D01*
G01*
X038604D02*
G03*
X038407Y021465I-000197J000000D01*
G01*
X038309Y020973D02*
G03*
X038112Y021170I-000197J000000D01*
G01*
Y015441D02*
G03*
X038309Y015638I000000J000197D01*
G01*
X038407Y015146D02*
G03*
X038601Y015377I000000J000197D01*
G01*
X018927Y015217D02*
X020384D01*
X018927Y014035D02*
X020384D01*
X025217Y016181D02*
X026358D01*
Y016417D01*
X025217D02*
X026358D01*
X025217Y016181D02*
Y016417D01*
X025906Y011713D02*
Y012854D01*
X025669D02*
X025906D01*
X025669Y011713D02*
Y012854D01*
Y011713D02*
X025906D01*
X010236Y022805D02*
Y023061D01*
Y022805D02*
X011378D01*
Y023061D01*
X022169Y010791D02*
Y013272D01*
X019689Y010791D02*
X022169D01*
X019689Y013272D02*
X022169D01*
X017459Y010807D02*
Y013287D01*
X014978D02*
X017459D01*
X018671Y012372D02*
X019124D01*
X015276Y014813D02*
Y015266D01*
X014616Y022539D02*
X015069D01*
X015364Y018110D02*
X015817D01*
X020758Y022756D02*
Y023209D01*
X016939Y023455D02*
X017175D01*
X016939Y022707D02*
X017175D01*
X016919Y013996D02*
X017156D01*
X016919Y014744D02*
X017156D01*
X014231Y020802D02*
Y021038D01*
X014979Y020802D02*
Y021038D01*
X021585Y014843D02*
X021821Y014843D01*
X021585Y014094D02*
X021821D01*
X012313Y012831D02*
X013848Y012831D01*
X020177Y024104D02*
Y024144D01*
Y024104D02*
X020335Y023947D01*
X020374Y023947D01*
X021752D02*
Y024144D01*
X021555Y023947D02*
X021752Y023947D01*
X020177Y025325D02*
Y025522D01*
X020374D01*
X021752Y025325D02*
Y025522D01*
X021555D02*
X021752D01*
X025749Y024162D02*
Y024221D01*
X026064Y024162D02*
Y024221D01*
X010876Y023642D02*
Y024783D01*
X010620D02*
X010876D01*
X010620Y023642D02*
Y024783D01*
Y023642D02*
X010876D01*
X021575Y018533D02*
Y018986D01*
X023061Y011309D02*
X023652D01*
X023061Y010128D02*
X023652D01*
X037591Y020520D02*
X037844D01*
X037591Y016087D02*
X037844D01*
Y020520D01*
X032344Y015443D02*
X032423D01*
X032344D02*
Y015561D01*
X032423D01*
Y015443D02*
Y015561D01*
X032738Y015441D02*
X033278D01*
X037572Y021170D02*
X038112D01*
X032443Y015146D02*
X038407D01*
X032246Y015343D02*
Y021268D01*
X032443Y021465D02*
X038407D01*
X038601Y015377D02*
X038604Y021268D01*
X038309Y015638D02*
Y020973D01*
X032738Y021170D02*
X033278D01*
X032541Y015638D02*
Y020973D01*
X037572Y015441D02*
X038112D01*
X038921Y014634D02*
X039096Y014809D01*
X031929Y014634D02*
X038921D01*
X031754Y014809D02*
X031929Y014634D01*
X031754Y014809D02*
Y021802D01*
X031929Y021977D01*
X038921D01*
X039096Y021802D01*
Y014809D02*
Y021802D01*
X022387Y022035D02*
X022406D01*
X022444Y022053D01*
X022462Y022072D01*
X022481Y022109D01*
Y022184D01*
X022462Y022222D01*
X022444Y022241D01*
X022406Y022259D01*
X022369D01*
X022331Y022241D01*
X022275Y022203D01*
X022087Y022016D01*
Y022278D01*
X026148Y021857D02*
X026166Y021894D01*
X026223Y021950D01*
X025829D01*
X014045Y022878D02*
X014008Y022896D01*
X013952Y022953D01*
Y022559D01*
D68*
X101004Y027963D02*
X101534Y027433D01*
X101004Y027963D02*
X100777Y027736D01*
X100726Y027635D01*
Y027585D01*
X100751Y027509D01*
X100802Y027458D01*
X100878Y027433D01*
X100928D01*
X101029Y027484D01*
X101256Y027711D02*
X101029Y027484D01*
X100978Y027383D01*
Y027332D01*
X101004Y027256D01*
X101079Y027181D01*
X101155Y027155D01*
X101206D01*
X101307Y027206D01*
X101534Y027433D01*
X100582Y027188D02*
X100658Y027213D01*
X100759D01*
X100860Y027163D01*
X100910Y027112D01*
X100961Y027011D01*
Y026910D01*
X100936Y026835D01*
X100860Y026759D01*
X100784Y026734D01*
X100683Y026734D01*
X100582Y026784D01*
X100532Y026835D01*
X100481Y026936D01*
X100481Y027037D01*
X100506Y027112D01*
X100582Y027188D01*
X100011Y026971D02*
X100441Y026542D01*
X100491Y026441D01*
X100466Y026365D01*
X100415Y026315D01*
X100264Y026870D02*
X100087Y026693D01*
X099734Y026693D02*
X100163Y026264D01*
X100213Y026163D01*
X100188Y026087D01*
X100138Y026037D01*
X099986Y026592D02*
X099809Y026416D01*
X099582Y026188D02*
X099658Y026214D01*
X099759D01*
X099860Y026163D01*
X099910Y026113D01*
X099961Y026012D01*
Y025911D01*
X099936Y025835D01*
X099860Y025759D01*
X099784Y025734D01*
X099683Y025734D01*
X099582Y025784D01*
X099532Y025835D01*
X099481Y025936D01*
X099481Y026037D01*
X099507Y026113D01*
X099582Y026188D01*
X099264Y025870D02*
X099618Y025517D01*
X099365Y025769D02*
X099214D01*
X099138Y025744D01*
X099062Y025668D01*
X099037Y025592D01*
X099087Y025491D01*
X099340Y025239D01*
X099087Y025491D02*
X098936D01*
X098860Y025466D01*
X098784Y025390D01*
X098759Y025315D01*
X098810Y025214D01*
X099062Y024961D01*
X097797Y024757D02*
X097873Y024782D01*
X097974D01*
X098050Y024757D01*
X098151Y024706D01*
X098277Y024580D01*
X098327Y024479D01*
X098353Y024403D01*
X098353Y024302D01*
X098327Y024227D01*
X098226Y024126D01*
X098151Y024100D01*
X098050D01*
X097974Y024126D01*
X097873Y024176D01*
X097747Y024302D01*
X097696Y024403D01*
X097671Y024479D01*
Y024580D01*
X097696Y024656D01*
X097797Y024757D01*
X097598Y024204D02*
X097800Y023699D01*
X097295Y023901D02*
X097800Y023699D01*
X097360Y023663D02*
X097057Y023361D01*
X097007Y023411D01*
X096982Y023487D01*
X096982Y023537D01*
X097007Y023613D01*
X097083Y023689D01*
X097158Y023714D01*
X097259D01*
X097360Y023663D01*
X097411Y023613D01*
X097461Y023512D01*
Y023411D01*
X097436Y023335D01*
X097360Y023260D01*
X097285Y023234D01*
X097184Y023234D01*
X096792Y023398D02*
X097146Y023045D01*
X096944Y023247D02*
X096843Y023297D01*
X096742D01*
X096666Y023272D01*
X096590Y023196D01*
X096366Y023325D02*
X096896Y022795D01*
X096128Y022734D02*
X096482Y022381D01*
X096204Y022659D02*
Y022760D01*
X096229Y022835D01*
X096305Y022911D01*
X096381Y022936D01*
X096482D01*
X096583Y022886D01*
X096633Y022835D01*
X096684Y022734D01*
Y022633D01*
X096658Y022558D01*
X096583Y022482D01*
X096507Y022457D01*
X096406Y022457D01*
X095962Y022568D02*
X096164Y022063D01*
X095659Y022265D02*
X096164Y022063D01*
X096315Y022012D01*
X096416D01*
X096492Y022037D01*
X096517Y022063D01*
D69*
X018760Y013996D02*
G03*
X018760Y013996I-000049J000000D01*
G01*
X026378Y012913D02*
G03*
X026383Y012935I-000044J000022D01*
G01*
X015208Y013500D02*
G03*
X015209Y013506I-000049J000006D01*
G01*
X011614Y011096D02*
G03*
X011614Y011096I-000049J000000D01*
G01*
X019852Y024350D02*
G03*
X019852Y024350I-000049J000000D01*
G01*
X025956Y023523D02*
G03*
X025956Y023523I-000049J000000D01*
G01*
X011348Y024902D02*
G03*
X011348Y024902I-000049J000000D01*
G01*
X022717Y010157D02*
G03*
X022717Y010157I-000010J000000D01*
G01*
D70*
X039793Y014949D02*
Y015054D01*
Y015002D01*
X039478D01*
Y014949D01*
Y015054D01*
X039741Y015422D02*
X039793Y015369D01*
Y015264D01*
X039741Y015212D01*
X039531D01*
X039478Y015264D01*
Y015369D01*
X039531Y015422D01*
X039478Y015526D02*
Y015631D01*
Y015579D01*
X039793D01*
X039741Y015526D01*
D73*
X026535Y011161D02*
Y025354D01*
X027323Y011161D02*
Y025354D01*
X022805Y012992D02*
Y014232D01*
X024754Y013543D02*
Y014232D01*
Y022303D02*
Y023051D01*
X022805Y022303D02*
Y023543D01*
X024333Y014016D02*
Y014248D01*
X023701Y013323D02*
Y013480D01*
X023858D01*
Y013323D02*
Y013480D01*
X023226Y013323D02*
X023898D01*
X023423Y023213D02*
X023898D01*
X024333Y022287D02*
Y022520D01*
X023226Y022287D02*
X024333D01*
X023226D02*
Y023016D01*
X023407Y014793D02*
Y014852D01*
X024152Y014793D02*
Y014852D01*
X023407Y014990D02*
Y015049D01*
X024152Y014990D02*
Y015049D01*
X023407Y015187D02*
Y015246D01*
X024152Y015187D02*
Y015246D01*
X023407Y015384D02*
Y015443D01*
X024152Y015384D02*
Y015443D01*
X023407Y015581D02*
Y015640D01*
X024152Y015581D02*
Y015640D01*
X023407Y015778D02*
Y015837D01*
X024152Y015778D02*
Y015837D01*
X023407Y015974D02*
Y016033D01*
X024152Y015974D02*
Y016033D01*
X023407Y016171D02*
Y016230D01*
X024152Y016171D02*
Y016230D01*
X023407Y016368D02*
Y016427D01*
X024152Y016368D02*
Y016427D01*
X023407Y016565D02*
Y016624D01*
X024152Y016565D02*
Y016624D01*
X023407Y016762D02*
Y016821D01*
X024152Y016762D02*
Y016821D01*
X023407Y016959D02*
Y017018D01*
X024152Y016959D02*
Y017018D01*
X023407Y017156D02*
Y017215D01*
X024152Y017156D02*
Y017215D01*
X023407Y017352D02*
Y017411D01*
X024152Y017352D02*
Y017411D01*
X023407Y017549D02*
Y017608D01*
X024152Y017549D02*
Y017608D01*
X023407Y017746D02*
Y017805D01*
X024152Y017746D02*
Y017805D01*
X023407Y017943D02*
Y018002D01*
X024152Y017943D02*
Y018002D01*
X023407Y018140D02*
Y018199D01*
X024152Y018140D02*
Y018199D01*
X023407Y018337D02*
Y018396D01*
X024152Y018337D02*
Y018396D01*
X023407Y018533D02*
Y018593D01*
X024152Y018533D02*
Y018593D01*
X023407Y018730D02*
Y018789D01*
X024152Y018730D02*
Y018789D01*
X023407Y018927D02*
Y018986D01*
X024152Y018927D02*
Y018986D01*
X023407Y019124D02*
Y019183D01*
X024152Y019124D02*
Y019183D01*
X023407Y019321D02*
Y019380D01*
X024152Y019321D02*
Y019380D01*
X023407Y019518D02*
Y019577D01*
X024152Y019518D02*
Y019577D01*
X023407Y019715D02*
Y019774D01*
X024152Y019715D02*
Y019774D01*
X023407Y019911D02*
Y019970D01*
X024152Y019911D02*
Y019970D01*
X023407Y020108D02*
Y020167D01*
X024152Y020108D02*
Y020167D01*
X023407Y020305D02*
Y020364D01*
X024152Y020305D02*
Y020364D01*
X023407Y020502D02*
Y020561D01*
X024152Y020502D02*
Y020561D01*
X023407Y020699D02*
Y020758D01*
X024152Y020699D02*
Y020758D01*
X023407Y020896D02*
Y020955D01*
X024152Y020896D02*
Y020955D01*
X023407Y021093D02*
Y021152D01*
X024152Y021093D02*
Y021152D01*
X023407Y021289D02*
Y021348D01*
X024152Y021289D02*
Y021348D01*
X023407Y021486D02*
Y021545D01*
X024152Y021486D02*
Y021545D01*
X023407Y021683D02*
Y021742D01*
X024152Y021683D02*
Y021742D01*
X023226Y014248D02*
X024333D01*
X024715Y023091D02*
X024754Y023051D01*
X023226Y013323D02*
Y014248D01*
Y023016D02*
X023423Y023213D01*
X022805Y023543D02*
X024262D01*
X024715Y023091D01*
X024152Y022077D02*
Y022136D01*
X023407Y021880D02*
Y021939D01*
Y022077D02*
Y022136D01*
X024152Y021880D02*
Y021939D01*
Y014400D02*
Y014459D01*
Y014596D02*
Y014656D01*
X023407Y014596D02*
Y014656D01*
Y014400D02*
Y014459D01*
X011782Y012992D02*
Y014232D01*
X013730Y012992D02*
Y014232D01*
Y022303D02*
Y023051D01*
X011782Y022303D02*
Y023543D01*
X013309Y014016D02*
Y014248D01*
X012677Y013323D02*
Y013480D01*
X012835D01*
Y013323D02*
Y013480D01*
X012203Y013323D02*
X012874D01*
X012400Y023213D02*
X012874D01*
X013309Y022287D02*
Y022520D01*
X012203Y022287D02*
X013309D01*
X012203D02*
Y023016D01*
X012384Y014793D02*
Y014852D01*
X013128Y014793D02*
Y014852D01*
X012384Y014990D02*
Y015049D01*
X013128Y014990D02*
Y015049D01*
X012384Y015187D02*
Y015246D01*
X013128Y015187D02*
Y015246D01*
X012384Y015384D02*
Y015443D01*
X013128Y015384D02*
Y015443D01*
X012384Y015581D02*
Y015640D01*
X013128Y015581D02*
Y015640D01*
X012384Y015778D02*
Y015837D01*
X013128Y015778D02*
Y015837D01*
X012384Y015974D02*
Y016033D01*
X013128Y015974D02*
Y016033D01*
X012384Y016171D02*
Y016230D01*
X013128Y016171D02*
Y016230D01*
X012384Y016368D02*
Y016427D01*
X013128Y016368D02*
Y016427D01*
X012384Y016565D02*
Y016624D01*
X013128Y016565D02*
Y016624D01*
X012384Y016762D02*
Y016821D01*
X013128Y016762D02*
Y016821D01*
X012384Y016959D02*
Y017018D01*
X013128Y016959D02*
Y017018D01*
X012384Y017156D02*
Y017215D01*
X013128Y017156D02*
Y017215D01*
X012384Y017352D02*
Y017411D01*
X013128Y017352D02*
Y017411D01*
X012384Y017549D02*
Y017608D01*
X013128Y017549D02*
Y017608D01*
X012384Y017746D02*
Y017805D01*
X013128Y017746D02*
Y017805D01*
X012384Y017943D02*
Y018002D01*
X013128Y017943D02*
Y018002D01*
X012384Y018140D02*
Y018199D01*
X013128Y018140D02*
Y018199D01*
X012384Y018337D02*
Y018396D01*
X013128Y018337D02*
Y018396D01*
X012384Y018533D02*
Y018593D01*
X013128Y018533D02*
Y018593D01*
X012384Y018730D02*
Y018789D01*
X013128Y018730D02*
Y018789D01*
X012384Y018927D02*
Y018986D01*
X013128Y018927D02*
Y018986D01*
X012384Y019124D02*
Y019183D01*
X013128Y019124D02*
Y019183D01*
X012384Y019321D02*
Y019380D01*
X013128Y019321D02*
Y019380D01*
X012384Y019518D02*
Y019577D01*
X013128Y019518D02*
Y019577D01*
X012384Y019715D02*
Y019774D01*
X013128Y019715D02*
Y019774D01*
X012384Y019911D02*
Y019970D01*
X013128Y019911D02*
Y019970D01*
X012384Y020108D02*
Y020167D01*
X013128Y020108D02*
Y020167D01*
X012384Y020305D02*
Y020364D01*
X013128Y020305D02*
Y020364D01*
X012384Y020502D02*
Y020561D01*
X013128Y020502D02*
Y020561D01*
X012384Y020699D02*
Y020758D01*
X013128Y020699D02*
Y020758D01*
X012384Y020896D02*
Y020955D01*
X013128Y020896D02*
Y020955D01*
X012384Y021093D02*
Y021152D01*
X013128Y021093D02*
Y021152D01*
X012384Y021289D02*
Y021348D01*
X013128Y021289D02*
Y021348D01*
X012384Y021486D02*
Y021545D01*
X013128Y021486D02*
Y021545D01*
X012384Y021683D02*
Y021742D01*
X013128Y021683D02*
Y021742D01*
X012203Y014248D02*
X013309D01*
X013691Y023091D02*
X013730Y023051D01*
X012203Y013323D02*
Y014248D01*
Y023016D02*
X012400Y023213D01*
X013238Y023543D02*
X013691Y023091D01*
X013128Y022077D02*
Y022136D01*
X012384Y021880D02*
Y021939D01*
Y022077D02*
Y022136D01*
X013128Y021880D02*
Y021939D01*
Y014400D02*
Y014459D01*
Y014596D02*
Y014656D01*
X012384Y014596D02*
Y014656D01*
Y014400D02*
Y014459D01*
X022667Y012087D02*
X022864D01*
Y011988D01*
X022831Y011955D01*
X022799D01*
X022766Y011988D01*
Y012087D01*
Y011988D01*
X022733Y011955D01*
X022700D01*
X022667Y011988D01*
Y012087D01*
Y011890D02*
Y011759D01*
Y011824D01*
X022864D01*
Y011693D02*
X022667D01*
X022733Y011627D01*
X022667Y011562D01*
X022864D01*
X032925Y022848D02*
X032957Y022815D01*
Y022749D01*
X032925Y022717D01*
X032892D01*
X032859Y022749D01*
Y022815D01*
X032826Y022848D01*
X032793D01*
X032761Y022815D01*
Y022749D01*
X032793Y022717D01*
X032761Y022913D02*
X032957D01*
Y023012D01*
X032925Y023045D01*
X032859D01*
X032826Y023012D01*
Y022913D01*
X032957Y023241D02*
Y023110D01*
X032761D01*
Y023241D01*
X032859Y023110D02*
Y023176D01*
X032957Y023307D02*
X032761D01*
X032826D01*
X032957Y023438D01*
X032859Y023340D01*
X032761Y023438D01*
X032957Y023504D02*
Y023635D01*
Y023569D01*
X032761D01*
Y023700D02*
X032957D01*
Y023799D01*
X032925Y023832D01*
X032859D01*
X032826Y023799D01*
Y023700D01*
Y023766D02*
X032761Y023832D01*
X032957Y023996D02*
Y023930D01*
X032925Y023897D01*
X032793D01*
X032761Y023930D01*
Y023996D01*
X032793Y024028D01*
X032925D01*
X032957Y023996D01*
X032761Y024094D02*
X032957D01*
Y024192D01*
X032925Y024225D01*
X032859D01*
X032826Y024192D01*
Y024094D01*
X032761Y024422D02*
Y024291D01*
X032892Y024422D01*
X032925D01*
X032957Y024389D01*
Y024324D01*
X032925Y024291D01*
X032628Y022848D02*
X032661Y022815D01*
Y022749D01*
X032628Y022717D01*
X032595D01*
X032562Y022749D01*
Y022815D01*
X032529Y022848D01*
X032497D01*
X032464Y022815D01*
Y022749D01*
X032497Y022717D01*
X032661Y023045D02*
Y022913D01*
X032464D01*
Y023045D01*
X032562Y022913D02*
Y022979D01*
X032464Y023110D02*
X032661D01*
X032464Y023241D01*
X032661D01*
X032628Y023438D02*
X032661Y023405D01*
Y023340D01*
X032628Y023307D01*
X032595D01*
X032562Y023340D01*
Y023405D01*
X032529Y023438D01*
X032497D01*
X032464Y023405D01*
Y023340D01*
X032497Y023307D01*
X032661Y023602D02*
Y023537D01*
X032628Y023504D01*
X032497D01*
X032464Y023537D01*
Y023602D01*
X032497Y023635D01*
X032628D01*
X032661Y023602D01*
X032464Y023700D02*
X032661D01*
Y023799D01*
X032628Y023832D01*
X032562D01*
X032529Y023799D01*
Y023700D01*
Y023766D02*
X032464Y023832D01*
X032431Y023897D02*
Y024028D01*
X032661Y024094D02*
X032464D01*
Y024192D01*
X032497Y024225D01*
X032529D01*
X032562Y024192D01*
Y024094D01*
Y024192D01*
X032595Y024225D01*
X032628D01*
X032661Y024192D01*
Y024094D01*
X032464Y024291D02*
X032661D01*
Y024389D01*
X032628Y024422D01*
X032562D01*
X032529Y024389D01*
Y024291D01*
Y024356D02*
X032464Y024422D01*
X032661Y024488D02*
X032464D01*
Y024586D01*
X032497Y024619D01*
X032628D01*
X032661Y024586D01*
Y024488D01*
X032431Y024684D02*
Y024816D01*
X032661Y024881D02*
X032529D01*
X032464Y024947D01*
X032529Y025012D01*
X032661D01*
X032464Y025078D02*
Y025144D01*
Y025111D01*
X032661D01*
X032628Y025078D01*
X031772Y022848D02*
Y022717D01*
X031903Y022848D01*
X031936D01*
X031968Y022815D01*
Y022749D01*
X031936Y022717D01*
X031772Y022913D02*
Y022979D01*
Y022946D01*
X031968D01*
X031936Y022913D01*
X031772Y023077D02*
X031903Y023209D01*
X031936Y023274D02*
X031968Y023307D01*
Y023373D01*
X031936Y023405D01*
X031804D01*
X031772Y023373D01*
Y023307D01*
X031804Y023274D01*
X031936D01*
X031772Y023471D02*
Y023537D01*
Y023504D01*
X031968D01*
X031936Y023471D01*
X031772Y023635D02*
X031903Y023766D01*
X031772Y023963D02*
Y023832D01*
X031903Y023963D01*
X031936D01*
X031968Y023930D01*
Y023864D01*
X031936Y023832D01*
Y024028D02*
X031968Y024061D01*
Y024127D01*
X031936Y024160D01*
X031804D01*
X031772Y024127D01*
Y024061D01*
X031804Y024028D01*
X031936D01*
X031772Y024225D02*
Y024291D01*
Y024258D01*
X031968D01*
X031936Y024225D01*
Y024389D02*
X031968Y024422D01*
Y024488D01*
X031936Y024520D01*
X031903D01*
X031870Y024488D01*
X031837Y024520D01*
X031804D01*
X031772Y024488D01*
Y024422D01*
X031804Y024389D01*
X031837D01*
X031870Y024422D01*
X031903Y024389D01*
X031936D01*
X031870Y024422D02*
Y024488D01*
X032265Y022848D02*
X032298Y022815D01*
Y022749D01*
X032265Y022717D01*
X032134D01*
X032101Y022749D01*
Y022815D01*
X032134Y022848D01*
X032101Y022913D02*
X032298D01*
X032232Y022979D01*
X032298Y023045D01*
X032101D01*
X032298Y023110D02*
X032167D01*
X032101Y023176D01*
X032167Y023241D01*
X032298D01*
X032101Y023405D02*
X032298D01*
X032200Y023307D01*
Y023438D01*
X032265Y023504D02*
X032298Y023537D01*
Y023602D01*
X032265Y023635D01*
X032134D01*
X032101Y023602D01*
Y023537D01*
X032134Y023504D01*
X032265D01*
Y023700D02*
X032298Y023733D01*
Y023799D01*
X032265Y023832D01*
X032134D01*
X032101Y023799D01*
Y023733D01*
X032134Y023700D01*
X032265D01*
Y023897D02*
X032298Y023930D01*
Y023996D01*
X032265Y024028D01*
X032134D01*
X032101Y023996D01*
Y023930D01*
X032134Y023897D01*
X032265D01*
X028366Y011996D02*
Y011800D01*
X028268D01*
X028235Y011832D01*
Y011865D01*
X028268Y011898D01*
X028366D01*
X028268D01*
X028235Y011931D01*
Y011964D01*
X028268Y011996D01*
X028366D01*
X028169D02*
X028038D01*
X028104D01*
Y011800D01*
X027973D02*
Y011996D01*
X027907Y011931D01*
X027841Y011996D01*
Y011800D01*
D74*
X031388Y014924D02*
X031440D01*
D79*
X026339Y015492D02*
Y015512D01*
M02*
