G04 Layer_Physical_Order=8*
G04 Layer_Color=16711680*
%FSAX44Y44*%
%MOMM*%
G71*
G01*
G75*
%ADD10C,0.1400*%
%ADD11C,0.1250*%
%ADD12C,0.6500*%
%ADD13C,0.3000*%
%ADD18R,0.6000X1.0000*%
%ADD27R,0.9000X1.0000*%
%ADD28R,0.6200X0.5800*%
%ADD38R,3.0000X1.4000*%
%ADD39R,3.0000X1.3000*%
%ADD40R,0.8000X0.8000*%
%ADD41R,1.0000X1.0000*%
%ADD44R,1.9000X1.4500*%
%ADD46R,1.1500X1.4500*%
%ADD49R,0.6200X0.6200*%
%ADD50C,1.0000*%
%ADD54R,1.0000X0.9000*%
%ADD55R,0.6200X0.6200*%
%ADD56R,1.0000X1.0000*%
%ADD57R,0.5800X0.6200*%
%ADD58R,1.0000X0.6000*%
%ADD60R,1.4500X1.1000*%
%ADD61R,1.4500X1.1500*%
%ADD64C,0.6000*%
%ADD65C,0.1000*%
%ADD66C,0.2000*%
%ADD67C,0.3048*%
%ADD68C,0.2500*%
%ADD69C,0.1500*%
%ADD70C,0.1800*%
%ADD72C,0.3500*%
%ADD73C,0.4000*%
%ADD74C,0.5000*%
%ADD76C,0.2540*%
%ADD80C,0.5000*%
G04:AMPARAMS|DCode=81|XSize=1.05mm|YSize=1.25mm|CornerRadius=0.2625mm|HoleSize=0mm|Usage=FLASHONLY|Rotation=180.000|XOffset=0mm|YOffset=0mm|HoleType=Round|Shape=RoundedRectangle|*
%AMROUNDEDRECTD81*
21,1,1.0500,0.7250,0,0,180.0*
21,1,0.5250,1.2500,0,0,180.0*
1,1,0.5250,-0.2625,0.3625*
1,1,0.5250,0.2625,0.3625*
1,1,0.5250,0.2625,-0.3625*
1,1,0.5250,-0.2625,-0.3625*
%
%ADD81ROUNDEDRECTD81*%
%ADD82C,1.4000*%
%ADD83C,1.5000*%
%ADD84R,1.5000X1.3000*%
%ADD85C,0.8000*%
%ADD86C,2.4000*%
%ADD87C,1.6000*%
%ADD88C,2.1000*%
%ADD89O,2.1000X1.7000*%
%ADD90R,2.8000X2.2000*%
%ADD91C,3.5000*%
%ADD92C,0.4000*%
%ADD106P,0.7071X4X90.0*%
%ADD114R,0.6000X1.0500*%
%ADD115R,1.7000X2.2000*%
%ADD116R,0.8000X0.4000*%
%ADD117R,1.0500X0.4500*%
%ADD118R,3.5000X4.1000*%
%ADD119R,1.0000X0.3000*%
%ADD120O,1.0000X0.3500*%
%ADD121R,2.1500X2.1500*%
%ADD122O,0.3500X1.0000*%
%ADD123P,1.4142X4X270.0*%
%ADD124R,1.8000X2.2500*%
%ADD125R,0.9500X1.0500*%
%ADD126R,0.7200X0.7100*%
G04:AMPARAMS|DCode=127|XSize=0.62mm|YSize=0.58mm|CornerRadius=0mm|HoleSize=0mm|Usage=FLASHONLY|Rotation=135.000|XOffset=0mm|YOffset=0mm|HoleType=Round|Shape=Rectangle|*
%AMROTATEDRECTD127*
4,1,4,0.4243,-0.0141,0.0141,-0.4243,-0.4243,0.0141,-0.0141,0.4243,0.4243,-0.0141,0.0*
%
%ADD127ROTATEDRECTD127*%

%ADD128P,0.8768X4X270.0*%
%ADD129R,1.4500X1.9000*%
%ADD130R,1.0500X0.6000*%
G36*
X00419701Y00351853D02*
X00419852Y00351489D01*
X00419929Y00351102D01*
X00420000Y00350995D01*
Y00348505D01*
X00419674Y00348016D01*
X00419597Y00347629D01*
X00419446Y00347265D01*
Y00340290D01*
X00419499Y00340162D01*
X00419472Y00340025D01*
X00419652Y00339756D01*
X00419698Y00339522D01*
X00420000Y00339070D01*
Y00336430D01*
X00419698Y00335978D01*
X00419652Y00335744D01*
X00419472Y00335475D01*
X00419499Y00335338D01*
X00419446Y00335210D01*
Y00325572D01*
X00419431Y00325500D01*
X00419446Y00325428D01*
Y00325000D01*
X00419609Y00324605D01*
X00419703Y00324134D01*
X00420000Y00323690D01*
Y00318015D01*
X00417692Y00315708D01*
X00416884Y00315547D01*
X00415727Y00314773D01*
X00414953Y00313616D01*
X00414681Y00312250D01*
X00414735Y00311982D01*
X00413929Y00311000D01*
X00410071D01*
X00409265Y00311982D01*
X00409319Y00312250D01*
X00409047Y00313616D01*
X00408273Y00314773D01*
X00407116Y00315547D01*
X00406183Y00315732D01*
X00403522Y00318393D01*
X00403583Y00318700D01*
X00403253Y00320358D01*
X00403207Y00320427D01*
Y00324890D01*
X00403253Y00325000D01*
Y00329741D01*
X00403253Y00329742D01*
X00403583Y00331400D01*
X00403253Y00333058D01*
X00403253Y00333059D01*
Y00339091D01*
X00404250Y00339750D01*
X00404523Y00339750D01*
X00408250D01*
Y00346250D01*
X00410250D01*
Y00348250D01*
X00416250D01*
Y00352730D01*
X00416250Y00352750D01*
X00416298Y00354000D01*
X00419701D01*
Y00351853D01*
D02*
G37*
G36*
X00556750Y00361250D02*
Y00356750D01*
X00572500D01*
X00572500Y00325684D01*
X00571953Y00324866D01*
X00571900Y00324600D01*
X00542160Y00324600D01*
Y00328577D01*
X00542010Y00328942D01*
X00541932Y00329329D01*
X00541802Y00329524D01*
Y00332476D01*
X00541932Y00332671D01*
X00542009Y00333058D01*
X00542160Y00333423D01*
Y00353600D01*
X00541802Y00354466D01*
Y00356750D01*
X00545750D01*
Y00361250D01*
X00556750Y00361250D01*
D02*
G37*
G36*
X00395157Y00319906D02*
X00394917Y00318700D01*
X00395247Y00317042D01*
X00396186Y00315636D01*
X00397592Y00314697D01*
X00399250Y00314367D01*
X00399557Y00314428D01*
X00402292Y00311692D01*
X00402453Y00310884D01*
X00403227Y00309727D01*
X00404384Y00308953D01*
X00405750Y00308681D01*
X00406276Y00308786D01*
X00407857Y00307206D01*
X00407617Y00306000D01*
X00407947Y00304342D01*
X00408886Y00302936D01*
X00410292Y00301997D01*
X00411950Y00301667D01*
X00413608Y00301997D01*
X00415014Y00302936D01*
X00415953Y00304342D01*
X00416283Y00306000D01*
X00416043Y00307206D01*
X00417640Y00308803D01*
X00418250Y00308681D01*
X00419616Y00308953D01*
X00420773Y00309727D01*
X00421547Y00310884D01*
X00421732Y00311817D01*
X00424343Y00314428D01*
X00424650Y00314367D01*
X00426308Y00314697D01*
X00427714Y00315636D01*
X00428653Y00317042D01*
X00428983Y00318700D01*
X00428743Y00319906D01*
X00431000Y00322162D01*
X00443700D01*
X00456400Y00322087D01*
X00456455Y00299750D01*
X00445660Y00288955D01*
X00441622Y00292993D01*
X00441683Y00293300D01*
X00441353Y00294958D01*
X00440784Y00295811D01*
X00440682Y00295963D01*
X00441598Y00296878D01*
X00441731Y00296789D01*
X00442234Y00296453D01*
X00443600Y00296181D01*
X00444966Y00296453D01*
X00446123Y00297227D01*
X00446897Y00298384D01*
X00447169Y00299750D01*
X00446897Y00301116D01*
X00446123Y00302273D01*
X00444966Y00303047D01*
X00444095Y00303220D01*
X00441622Y00305693D01*
X00441683Y00306000D01*
X00441353Y00307658D01*
X00440414Y00309064D01*
X00439008Y00310003D01*
X00437350Y00310333D01*
X00435692Y00310003D01*
X00434286Y00309064D01*
X00433347Y00307658D01*
X00433017Y00306000D01*
X00433347Y00304342D01*
X00434286Y00302936D01*
X00435692Y00301997D01*
X00437350Y00301667D01*
X00437657Y00301728D01*
X00440130Y00299255D01*
X00440303Y00298384D01*
X00440707Y00297780D01*
X00440808Y00297628D01*
X00439893Y00296712D01*
X00439760Y00296801D01*
X00439008Y00297303D01*
X00437350Y00297633D01*
X00435692Y00297303D01*
X00434286Y00296364D01*
X00433347Y00294958D01*
X00433017Y00293300D01*
X00433347Y00291642D01*
X00433938Y00290757D01*
X00433022Y00289841D01*
X00432266Y00290347D01*
X00431395Y00290520D01*
X00428922Y00292993D01*
X00428983Y00293300D01*
X00428653Y00294958D01*
X00427714Y00296364D01*
X00426308Y00297303D01*
X00424650Y00297633D01*
X00422992Y00297303D01*
X00421586Y00296364D01*
X00420647Y00294958D01*
X00420317Y00293300D01*
X00420647Y00291642D01*
X00421586Y00290236D01*
X00422992Y00289297D01*
X00424650Y00288967D01*
X00424957Y00289028D01*
X00426211Y00287773D01*
X00425725Y00286600D01*
X00385475D01*
X00384989Y00287773D01*
X00386243Y00289028D01*
X00386550Y00288967D01*
X00388208Y00289297D01*
X00389614Y00290236D01*
X00390553Y00291642D01*
X00390883Y00293300D01*
X00390553Y00294958D01*
X00389614Y00296364D01*
X00388208Y00297303D01*
X00386550Y00297633D01*
X00384892Y00297303D01*
X00384140Y00296801D01*
X00384007Y00296712D01*
X00383092Y00297628D01*
X00383193Y00297780D01*
X00383597Y00298384D01*
X00383770Y00299255D01*
X00386243Y00301728D01*
X00386550Y00301667D01*
X00388208Y00301997D01*
X00389614Y00302936D01*
X00390553Y00304342D01*
X00390883Y00306000D01*
X00390553Y00307658D01*
X00389614Y00309064D01*
X00388208Y00310003D01*
X00386550Y00310333D01*
X00384892Y00310003D01*
X00383486Y00309064D01*
X00382547Y00307658D01*
X00382217Y00306000D01*
X00382278Y00305693D01*
X00379805Y00303220D01*
X00378934Y00303047D01*
X00377777Y00302273D01*
X00377003Y00301116D01*
X00376731Y00299750D01*
X00377003Y00298384D01*
X00377777Y00297227D01*
X00378934Y00296453D01*
X00380300Y00296181D01*
X00381666Y00296453D01*
X00382169Y00296789D01*
X00382302Y00296878D01*
X00383218Y00295963D01*
X00383117Y00295811D01*
X00382547Y00294958D01*
X00382217Y00293300D01*
X00382278Y00292993D01*
X00378240Y00288955D01*
X00371212Y00295982D01*
X00371148D01*
X00370250Y00296880D01*
Y00302494D01*
X00370266Y00302518D01*
X00370412Y00303250D01*
X00370266Y00303982D01*
X00370250Y00304006D01*
Y00322104D01*
X00380200Y00322162D01*
X00392900D01*
X00395157Y00319906D01*
D02*
G37*
G36*
X00540807Y00333423D02*
X00540297Y00332658D01*
X00539967Y00331000D01*
X00540297Y00329342D01*
X00540807Y00328577D01*
Y00320723D01*
X00540297Y00319958D01*
X00539967Y00318300D01*
X00540028Y00317993D01*
X00537555Y00315520D01*
X00536684Y00315347D01*
X00535527Y00314573D01*
X00534753Y00313416D01*
X00534481Y00312050D01*
X00534517Y00311870D01*
X00533475Y00310600D01*
X00529725D01*
X00528683Y00311870D01*
X00528719Y00312050D01*
X00528447Y00313416D01*
X00527673Y00314573D01*
X00526516Y00315347D01*
X00525645Y00315520D01*
X00523172Y00317993D01*
X00523233Y00318300D01*
X00522903Y00319958D01*
X00522858Y00320027D01*
Y00329273D01*
X00522903Y00329342D01*
X00523233Y00331000D01*
X00522903Y00332658D01*
X00522858Y00332727D01*
Y00353600D01*
X00525904D01*
X00526248Y00353531D01*
X00527250Y00352628D01*
Y00350500D01*
X00533250D01*
X00539250D01*
Y00353600D01*
X00540807D01*
Y00333423D01*
D02*
G37*
G36*
X00514807Y00319506D02*
X00514567Y00318300D01*
X00514897Y00316642D01*
X00515836Y00315236D01*
X00517242Y00314297D01*
X00518900Y00313967D01*
X00519207Y00314028D01*
X00521680Y00311555D01*
X00521853Y00310684D01*
X00522627Y00309527D01*
X00523784Y00308753D01*
X00525150Y00308481D01*
X00525718Y00308594D01*
X00527507Y00306806D01*
X00527267Y00305600D01*
X00527597Y00303942D01*
X00528536Y00302536D01*
X00529942Y00301597D01*
X00531600Y00301267D01*
X00533258Y00301597D01*
X00534664Y00302536D01*
X00535603Y00303942D01*
X00535933Y00305600D01*
X00535693Y00306806D01*
X00537482Y00308594D01*
X00538050Y00308481D01*
X00539416Y00308753D01*
X00540573Y00309527D01*
X00541347Y00310684D01*
X00541520Y00311555D01*
X00543993Y00314028D01*
X00544300Y00313967D01*
X00545958Y00314297D01*
X00547364Y00315236D01*
X00548303Y00316642D01*
X00548633Y00318300D01*
X00548393Y00319506D01*
X00550650Y00321762D01*
X00563350D01*
X00572237Y00321710D01*
X00572727Y00320977D01*
X00572742Y00320966D01*
X00572804Y00296048D01*
X00569656Y00292900D01*
X00561333D01*
X00561003Y00294558D01*
X00560434Y00295411D01*
X00560332Y00295563D01*
X00561248Y00296478D01*
X00561381Y00296389D01*
X00561884Y00296053D01*
X00563250Y00295781D01*
X00564616Y00296053D01*
X00565773Y00296827D01*
X00566547Y00297984D01*
X00566819Y00299350D01*
X00566547Y00300716D01*
X00565773Y00301873D01*
X00564616Y00302647D01*
X00563745Y00302820D01*
X00561272Y00305293D01*
X00561333Y00305600D01*
X00561003Y00307258D01*
X00560064Y00308664D01*
X00558658Y00309603D01*
X00557000Y00309933D01*
X00555342Y00309603D01*
X00553936Y00308664D01*
X00552997Y00307258D01*
X00552667Y00305600D01*
X00552997Y00303942D01*
X00553936Y00302536D01*
X00555342Y00301597D01*
X00557000Y00301267D01*
X00557307Y00301328D01*
X00559780Y00298855D01*
X00559953Y00297984D01*
X00560357Y00297379D01*
X00560458Y00297228D01*
X00559543Y00296312D01*
X00559410Y00296401D01*
X00558658Y00296903D01*
X00557000Y00297233D01*
X00555342Y00296903D01*
X00553936Y00295964D01*
X00552997Y00294558D01*
X00552667Y00292900D01*
X00548633D01*
X00548303Y00294558D01*
X00547364Y00295964D01*
X00545958Y00296903D01*
X00544300Y00297233D01*
X00542642Y00296903D01*
X00541236Y00295964D01*
X00540297Y00294558D01*
X00539967Y00292900D01*
X00535933D01*
X00535933Y00292900D01*
X00535603Y00294558D01*
X00534664Y00295964D01*
X00533258Y00296903D01*
X00531600Y00297233D01*
X00529942Y00296903D01*
X00528536Y00295964D01*
X00527597Y00294558D01*
X00527267Y00292900D01*
X00527267Y00292900D01*
X00523233D01*
X00522903Y00294558D01*
X00521964Y00295964D01*
X00520558Y00296903D01*
X00518900Y00297233D01*
X00517242Y00296903D01*
X00515836Y00295964D01*
X00514897Y00294558D01*
X00514567Y00292900D01*
X00510533D01*
X00510203Y00294558D01*
X00509264Y00295964D01*
X00507858Y00296903D01*
X00506200Y00297233D01*
X00504542Y00296903D01*
X00503790Y00296401D01*
X00503657Y00296312D01*
X00502742Y00297228D01*
X00502843Y00297379D01*
X00503247Y00297984D01*
X00503420Y00298855D01*
X00505893Y00301328D01*
X00506200Y00301267D01*
X00507858Y00301597D01*
X00509264Y00302536D01*
X00510203Y00303942D01*
X00510533Y00305600D01*
X00510203Y00307258D01*
X00509264Y00308664D01*
X00507858Y00309603D01*
X00506200Y00309933D01*
X00504542Y00309603D01*
X00503136Y00308664D01*
X00502197Y00307258D01*
X00501867Y00305600D01*
X00501928Y00305293D01*
X00499455Y00302820D01*
X00498584Y00302647D01*
X00497427Y00301873D01*
X00496653Y00300716D01*
X00496381Y00299350D01*
X00496653Y00297984D01*
X00497427Y00296827D01*
X00498584Y00296053D01*
X00499950Y00295781D01*
X00501316Y00296053D01*
X00501819Y00296389D01*
X00501952Y00296478D01*
X00502868Y00295563D01*
X00502767Y00295411D01*
X00502197Y00294558D01*
X00501867Y00292900D01*
X00493545D01*
X00490862Y00295582D01*
X00472400D01*
Y00298500D01*
X00478000D01*
Y00305250D01*
X00480000D01*
Y00307250D01*
X00488500D01*
Y00312000D01*
X00484715D01*
X00484229Y00313173D01*
X00487555Y00316500D01*
X00488500D01*
Y00317445D01*
X00490000Y00318945D01*
Y00321686D01*
X00499850Y00321762D01*
X00512550D01*
X00514807Y00319506D01*
D02*
G37*
G36*
X00469450Y00353600D02*
X00491059D01*
X00491470Y00352500D01*
X00491470D01*
Y00348000D01*
X00497470D01*
Y00346000D01*
X00499470D01*
Y00339500D01*
X00499850D01*
Y00325444D01*
X00488500D01*
Y00330000D01*
X00482000D01*
Y00323250D01*
X00478000D01*
Y00330000D01*
X00471500D01*
Y00325444D01*
X00469450D01*
Y00322023D01*
Y00307951D01*
X00457788D01*
X00457753Y00322091D01*
X00457556Y00322563D01*
X00457362Y00323038D01*
X00457357Y00323041D01*
X00457354Y00323046D01*
X00457188Y00323115D01*
X00456631Y00324368D01*
X00456686Y00324596D01*
X00456853Y00325000D01*
Y00337000D01*
X00456457Y00337957D01*
X00455500Y00338353D01*
X00447369Y00338353D01*
X00447348Y00338388D01*
X00448067Y00339658D01*
X00452000D01*
Y00344158D01*
X00446000D01*
Y00346158D01*
X00444000D01*
Y00352658D01*
X00441303D01*
Y00354000D01*
X00469450D01*
Y00353600D01*
D02*
G37*
G36*
X00597750Y00335500D02*
X00597646Y00335250D01*
X00578000D01*
Y00361500D01*
X00597750D01*
Y00335500D01*
D02*
G37*
G36*
X00401900Y00325000D02*
X00371500D01*
Y00333250D01*
Y00354000D01*
X00401900D01*
Y00325000D01*
D02*
G37*
G36*
X00521504Y00337717D02*
X00521431Y00337350D01*
X00521504Y00336983D01*
Y00332727D01*
X00521550Y00332617D01*
Y00329383D01*
X00521504Y00329273D01*
Y00325017D01*
X00521431Y00324650D01*
X00521441Y00324600D01*
X00502019D01*
Y00339500D01*
X00503470D01*
Y00352500D01*
X00502289D01*
Y00352823D01*
X00503065Y00353600D01*
X00521504D01*
Y00337717D01*
D02*
G37*
G36*
X00439950Y00337000D02*
X00455500Y00337000D01*
Y00325000D01*
X00452250Y00325000D01*
X00420799D01*
Y00335210D01*
X00420823Y00335227D01*
X00421597Y00336384D01*
X00421869Y00337750D01*
X00421597Y00339116D01*
X00420823Y00340273D01*
X00420799Y00340290D01*
Y00347265D01*
X00421547Y00348384D01*
X00421819Y00349750D01*
X00421547Y00351116D01*
X00421054Y00351853D01*
Y00354000D01*
X00439950D01*
Y00337000D01*
D02*
G37*
G36*
X00601750Y00273250D02*
X00585000Y00272250D01*
Y00292750D01*
X00601750D01*
Y00273250D01*
D02*
G37*
G36*
X00612000Y00314750D02*
Y00277250D01*
X00603500Y00277250D01*
Y00295000D01*
X00594250D01*
Y00314750D01*
X00612000Y00314750D01*
D02*
G37*
G36*
X00582750Y00285000D02*
X00580250D01*
Y00281750D01*
Y00278500D01*
X00582750D01*
Y00275500D01*
X00573000D01*
Y00269000D01*
X00582750D01*
Y00266000D01*
X00580250D01*
Y00262750D01*
X00578250D01*
Y00260750D01*
X00573000D01*
Y00260500D01*
X00571350D01*
Y00264100D01*
X00571350D01*
Y00264400D01*
X00571350D01*
Y00266750D01*
X00567000D01*
Y00268750D01*
X00565000D01*
Y00273100D01*
X00562650D01*
Y00273100D01*
X00562520Y00273026D01*
X00561250Y00273762D01*
Y00276750D01*
X00568879Y00284379D01*
X00569773Y00284977D01*
X00570371Y00285871D01*
X00575000Y00290500D01*
X00582750D01*
Y00285000D01*
D02*
G37*
G36*
X00498000Y00383436D02*
X00497953Y00383366D01*
X00497681Y00382000D01*
X00497953Y00380634D01*
X00498000Y00380564D01*
Y00356500D01*
X00455250D01*
Y00363000D01*
X00446750D01*
Y00367000D01*
X00455250D01*
Y00375377D01*
X00455773Y00375727D01*
X00456547Y00376884D01*
X00456711Y00377711D01*
X00466709Y00387709D01*
X00477626Y00387709D01*
X00477634Y00387703D01*
X00479000Y00387431D01*
X00480366Y00387703D01*
X00480374Y00387709D01*
X00498000Y00387709D01*
Y00383436D01*
D02*
G37*
G36*
X00548017Y00388480D02*
X00547922Y00388000D01*
X00548232Y00386439D01*
X00548943Y00385375D01*
X00548232Y00384311D01*
X00547922Y00382750D01*
X00548232Y00381189D01*
X00549116Y00379866D01*
X00549750Y00379443D01*
X00549750Y00364000D01*
X00545750D01*
Y00365500D01*
X00539250D01*
Y00356750D01*
X00540449D01*
Y00355172D01*
X00539250Y00355000D01*
X00539250Y00355000D01*
X00539250Y00355000D01*
X00527250D01*
X00527250Y00355000D01*
X00526168Y00354927D01*
X00526032Y00354900D01*
X00525904Y00354953D01*
X00524000D01*
Y00359000D01*
Y00379535D01*
X00526115Y00381650D01*
X00531350D01*
Y00381650D01*
X00531650D01*
Y00381650D01*
X00540350D01*
Y00389750D01*
X00546975D01*
X00548017Y00388480D01*
D02*
G37*
G36*
X00639250Y00286765D02*
X00638417Y00285750D01*
X00635750D01*
Y00294000D01*
X00616750D01*
Y00285750D01*
X00614250D01*
Y00294651D01*
X00614300Y00295900D01*
X00615520Y00295900D01*
X00616450D01*
Y00300250D01*
Y00304600D01*
X00615391D01*
X00614762Y00305870D01*
X00615242Y00306500D01*
X00639250D01*
Y00286765D01*
D02*
G37*
%LPC*%
G36*
X00416250Y00344250D02*
X00412250D01*
Y00339750D01*
X00416250D01*
Y00344250D01*
D02*
G37*
G36*
X00547250Y00355000D02*
X00543250D01*
Y00350500D01*
X00547250D01*
Y00355000D01*
D02*
G37*
G36*
X00555250D02*
X00551250D01*
Y00350500D01*
X00555250D01*
Y00355000D01*
D02*
G37*
G36*
X00547250Y00346500D02*
X00543250D01*
Y00342000D01*
X00547250D01*
Y00346500D01*
D02*
G37*
G36*
X00555250D02*
X00551250D01*
Y00342000D01*
X00555250D01*
Y00346500D01*
D02*
G37*
G36*
X00399250Y00297633D02*
X00397592Y00297303D01*
X00396186Y00296364D01*
X00395247Y00294958D01*
X00394917Y00293300D01*
X00395247Y00291642D01*
X00396186Y00290236D01*
X00397592Y00289297D01*
X00399250Y00288967D01*
X00400908Y00289297D01*
X00402314Y00290236D01*
X00403253Y00291642D01*
X00403583Y00293300D01*
X00403253Y00294958D01*
X00402314Y00296364D01*
X00400908Y00297303D01*
X00399250Y00297633D01*
D02*
G37*
G36*
X00411950Y00297633D02*
X00410292Y00297303D01*
X00408886Y00296364D01*
X00407947Y00294958D01*
X00407617Y00293300D01*
X00407947Y00291642D01*
X00408886Y00290236D01*
X00410292Y00289297D01*
X00411950Y00288967D01*
X00413608Y00289297D01*
X00415014Y00290236D01*
X00415953Y00291642D01*
X00416283Y00293300D01*
X00415953Y00294958D01*
X00415014Y00296364D01*
X00413608Y00297303D01*
X00411950Y00297633D01*
D02*
G37*
G36*
X00531250Y00346500D02*
X00527250D01*
Y00342000D01*
X00531250D01*
Y00346500D01*
D02*
G37*
G36*
X00539250D02*
X00535250D01*
Y00342000D01*
X00539250D01*
Y00346500D01*
D02*
G37*
G36*
X00488500Y00303250D02*
X00482000D01*
Y00298500D01*
X00488500D01*
Y00303250D01*
D02*
G37*
G36*
X00495470Y00344000D02*
X00491470D01*
Y00339500D01*
X00495470D01*
Y00344000D01*
D02*
G37*
G36*
X00452000Y00352658D02*
X00448000D01*
Y00348158D01*
X00452000D01*
Y00352658D01*
D02*
G37*
G36*
X00392250Y00352750D02*
X00388250D01*
Y00348250D01*
X00392250D01*
Y00352750D01*
D02*
G37*
G36*
X00400250D02*
X00396250D01*
Y00348250D01*
X00400250D01*
Y00352750D01*
D02*
G37*
G36*
Y00344250D02*
X00396250D01*
Y00339750D01*
X00400250D01*
Y00344250D01*
D02*
G37*
G36*
X00392250D02*
X00388250D01*
Y00339750D01*
X00392250D01*
Y00344250D01*
D02*
G37*
G36*
X00519470Y00344000D02*
X00515470D01*
Y00339500D01*
X00519470D01*
Y00344000D01*
D02*
G37*
G36*
X00511470D02*
X00507470D01*
Y00339500D01*
X00511470D01*
Y00344000D01*
D02*
G37*
G36*
Y00352500D02*
X00507470D01*
Y00348000D01*
X00511470D01*
Y00352500D01*
D02*
G37*
G36*
X00519470D02*
X00515470D01*
Y00348000D01*
X00519470D01*
Y00352500D01*
D02*
G37*
G36*
X00436000Y00352658D02*
X00432000D01*
Y00348158D01*
X00436000D01*
Y00352658D01*
D02*
G37*
G36*
X00428000D02*
X00424000D01*
Y00348158D01*
X00428000D01*
Y00352658D01*
D02*
G37*
G36*
Y00344158D02*
X00424000D01*
Y00339658D01*
X00428000D01*
Y00344158D01*
D02*
G37*
G36*
X00436000D02*
X00432000D01*
Y00339658D01*
X00436000D01*
Y00344158D01*
D02*
G37*
G36*
X00576250Y00266000D02*
X00573000D01*
Y00264750D01*
X00576250D01*
Y00266000D01*
D02*
G37*
G36*
Y00279750D02*
X00573000D01*
Y00278500D01*
X00576250D01*
Y00279750D01*
D02*
G37*
G36*
X00571350Y00273100D02*
X00569000D01*
Y00270750D01*
X00571350D01*
Y00273100D01*
D02*
G37*
G36*
X00576250Y00285000D02*
X00573000D01*
Y00283750D01*
X00576250D01*
Y00285000D01*
D02*
G37*
G36*
X00482750Y00384000D02*
X00474500D01*
Y00373500D01*
X00482750D01*
Y00384000D01*
D02*
G37*
G36*
X00495000D02*
X00486750D01*
Y00373500D01*
X00495000D01*
Y00384000D01*
D02*
G37*
G36*
X00482750Y00369500D02*
X00474500D01*
Y00359000D01*
X00482750D01*
Y00369500D01*
D02*
G37*
G36*
X00495000D02*
X00486750D01*
Y00359000D01*
X00495000D01*
Y00369500D01*
D02*
G37*
G36*
X00535250Y00365500D02*
X00528750D01*
Y00356750D01*
X00535250D01*
Y00365500D01*
D02*
G37*
G36*
X00545750Y00378250D02*
X00539250D01*
Y00369500D01*
X00545750D01*
Y00378250D01*
D02*
G37*
G36*
X00535250D02*
X00528750D01*
Y00369500D01*
X00535250D01*
Y00378250D01*
D02*
G37*
G36*
X00620450Y00304600D02*
Y00302250D01*
X00622600D01*
Y00304600D01*
X00620450D01*
D02*
G37*
G36*
X00622600Y00298250D02*
X00620450D01*
Y00295900D01*
X00622600D01*
Y00298250D01*
D02*
G37*
%LPD*%
D10*
X00567610Y00412300D02*
G03*
X00567050Y00411740I00000000J-00000560D01*
G01*
X00566490Y00408300D02*
G03*
X00567050Y00408860I00000000J00000560D01*
G01*
X00564250Y00411740D02*
G03*
X00563690Y00412300I-00000560J00000000D01*
G01*
X00564250Y00408860D02*
G03*
X00564810Y00408300I00000560J00000000D01*
G01*
X00567610Y00412300D02*
X00575250D01*
X00567050Y00408860D02*
Y00411740D01*
X00564250Y00408860D02*
Y00411740D01*
X00564810Y00408300D02*
X00566490D01*
X00560050Y00412300D02*
X00563690D01*
X00367931Y00443755D02*
Y00443871D01*
Y00438121D02*
Y00443755D01*
X00555094Y00496594D02*
X00555094Y00496594D01*
X00554983Y00496483D02*
X00555094Y00496594D01*
X00328783Y00359475D02*
X00336308Y00367000D01*
X00322542Y00359475D02*
X00328783D01*
X00327375Y00362875D02*
X00334900Y00370400D01*
X00323950Y00362875D02*
X00327375D01*
X00318675Y00363342D02*
X00322542Y00359475D01*
X00318675Y00363342D02*
Y00367075D01*
X00322075Y00364750D02*
Y00367075D01*
Y00364750D02*
X00323950Y00362875D01*
X00559924Y00515075D02*
X00560849Y00516000D01*
X00555599D02*
X00556524Y00515075D01*
X00293125Y00396500D02*
X00301750D01*
X00293125Y00391500D02*
X00301750D01*
X00293375Y00421500D02*
X00301750D01*
X00293375Y00426500D02*
X00301750D01*
X00292875Y00376500D02*
X00301750D01*
X00292875Y00381500D02*
X00301750D01*
X00556983Y00536762D02*
Y00540562D01*
Y00536762D02*
X00559436Y00534310D01*
Y00534115D02*
Y00534310D01*
X00567138Y00536762D02*
Y00540562D01*
X00564686Y00534310D02*
X00567138Y00536762D01*
X00564686Y00534115D02*
Y00534310D01*
X00576050Y00416500D02*
X00581750D01*
X00575250Y00415700D02*
X00576050Y00416500D01*
X00558642Y00415700D02*
X00575250D01*
X00555346Y00412404D02*
X00558642Y00415700D01*
X00555346Y00412404D02*
Y00412404D01*
X00548591Y00405650D02*
X00555346Y00412404D01*
X00548591Y00404595D02*
Y00405650D01*
X00543991Y00399995D02*
X00548591Y00404595D01*
X00576050Y00426500D02*
X00581750D01*
X00575250Y00427300D02*
X00576050Y00426500D01*
Y00431500D02*
X00581750D01*
X00575250Y00430700D02*
X00576050Y00431500D01*
X00564275Y00430700D02*
X00575250D01*
X00568300Y00427300D02*
X00575250D01*
X00563288Y00429712D02*
X00564275Y00430700D01*
X00567000Y00426000D02*
X00568300Y00427300D01*
X00626250Y00426500D02*
X00631950D01*
X00632750Y00427300D01*
X00636450D01*
X00626250Y00431500D02*
X00631950D01*
X00632750Y00430700D01*
X00637858D01*
X00636450Y00427300D02*
X00653750Y00410000D01*
X00655000D01*
X00637858Y00430700D02*
X00653308Y00415250D01*
X00655000D01*
X00626250Y00411500D02*
X00631950D01*
X00632750Y00412300D01*
X00626250Y00416500D02*
X00631950D01*
X00632750Y00415700D01*
Y00412300D02*
X00638075D01*
X00575250D02*
X00576050Y00411500D01*
X00581750D01*
X00632750Y00415700D02*
X00638075D01*
X00638875Y00416500D01*
X00638075Y00412300D02*
X00638875Y00411500D01*
X00553448Y00507241D02*
X00556524Y00510317D01*
X00559924Y00510326D02*
X00563000Y00507250D01*
X00556524Y00510317D02*
Y00515075D01*
X00559924Y00510326D02*
Y00515075D01*
X00559924Y00495174D02*
X00563000Y00498250D01*
X00559924Y00492309D02*
Y00495174D01*
Y00492309D02*
X00560233Y00492000D01*
X00554983D02*
Y00496483D01*
X00553448Y00498241D02*
X00555094Y00496594D01*
X00508300Y00625000D02*
X00514000D01*
X00506750Y00626550D02*
X00508300Y00625000D01*
X00500635Y00626550D02*
X00506750D01*
X00508300Y00631500D02*
X00514000D01*
X00506750Y00629950D02*
X00508300Y00631500D01*
X00500635Y00629950D02*
X00506750D01*
X00499710Y00630875D02*
X00500635Y00629950D01*
X00499710Y00625625D02*
X00500635Y00626550D01*
X00363954Y00488357D02*
X00367274Y00485036D01*
X00370674Y00485036D02*
X00373995Y00488357D01*
X00367274Y00482925D02*
Y00485036D01*
X00366349Y00482000D02*
X00367274Y00482925D01*
X00370674Y00482925D02*
Y00485036D01*
Y00482925D02*
X00371599Y00482000D01*
X00363954Y00497357D02*
X00367274Y00500677D01*
X00370674Y00500678D02*
X00373995Y00497357D01*
X00367274Y00500677D02*
Y00503944D01*
X00366327Y00504891D02*
X00367274Y00503944D01*
X00370674Y00500678D02*
Y00503989D01*
X00371577Y00504891D01*
X00346250Y00466500D02*
X00351950D01*
X00352750Y00467300D01*
X00346250Y00471500D02*
X00351950D01*
X00352750Y00470700D01*
X00373595D01*
X00374520Y00471625D01*
X00352750Y00467300D02*
X00373595D01*
X00374520Y00466375D01*
X00346250Y00436500D02*
X00353261D01*
X00356334Y00433427D02*
X00356671D01*
X00353261Y00436500D02*
X00356334Y00433427D01*
X00346250Y00441500D02*
X00353847D01*
X00356671Y00438677D01*
X00346250Y00451500D02*
X00354816D01*
X00346250Y00456500D02*
X00354816D01*
X00346250Y00421500D02*
X00351950D01*
X00352750Y00422300D01*
X00346250Y00426500D02*
X00351950D01*
X00352750Y00425700D01*
X00373274D01*
X00374199Y00426625D01*
X00352750Y00422300D02*
X00373274D01*
X00374199Y00421375D01*
X00301750Y00406500D02*
X00307450D01*
X00308250Y00407300D01*
X00301750Y00411500D02*
X00307450D01*
X00308250Y00410700D01*
X00336475D01*
X00308250Y00407300D02*
X00332450D01*
X00333750Y00406000D01*
X00336475Y00410700D02*
X00337462Y00409712D01*
X00346250Y00391500D02*
X00351950D01*
X00352750Y00392300D01*
X00346250Y00396500D02*
X00351950D01*
X00352750Y00395700D01*
X00355750D01*
X00355800Y00395750D01*
X00352750Y00392300D02*
X00357158D01*
X00357208Y00392350D01*
X00360525D01*
X00360625Y00395750D02*
X00361500Y00396625D01*
X00355800Y00395750D02*
X00360625D01*
X00360525Y00392350D02*
X00361500Y00391375D01*
X00346250Y00406500D02*
X00355375D01*
X00346250Y00411500D02*
X00355375D01*
X00301750Y00466500D02*
X00307450D01*
X00308250Y00467300D01*
X00310450D01*
X00301750Y00471500D02*
X00307450D01*
X00308250Y00470700D01*
X00311858D01*
X00310450Y00467300D02*
X00313250Y00464500D01*
Y00449442D02*
Y00464500D01*
X00311858Y00470700D02*
X00316650Y00465908D01*
Y00450850D02*
Y00465908D01*
Y00450850D02*
X00319500Y00448000D01*
X00313250Y00449442D02*
X00319942Y00442750D01*
X00319500Y00448000D02*
X00321000D01*
X00319942Y00442750D02*
X00321000D01*
X00270500Y00446000D02*
X00271425Y00446925D01*
X00270500Y00451250D02*
X00271425Y00450325D01*
X00289075D01*
X00271425Y00446925D02*
X00290483D01*
X00295058Y00451500D01*
X00301750D01*
X00289075Y00450325D02*
X00294550Y00455800D01*
X00301050D01*
X00301750Y00456500D01*
X00317750Y00368000D02*
X00318675Y00367075D01*
X00322075Y00367075D02*
X00323000Y00368000D01*
X00336308Y00367000D02*
X00340050D01*
X00340550Y00366500D01*
X00346250D01*
X00334900Y00370400D02*
X00339450D01*
X00340550Y00371500D01*
X00346250D01*
X00551991Y00399995D02*
Y00404241D01*
X00560050Y00412300D01*
X00564686Y00552015D02*
X00567138Y00549562D01*
X00564686Y00552015D02*
Y00555500D01*
X00556983Y00549562D02*
X00559436Y00552015D01*
Y00555500D01*
X00373181Y00438121D02*
Y00442245D01*
D11*
X00528250Y00575000D02*
G03*
X00528426Y00574574I00000604J00000000D01*
G01*
D02*
G03*
X00528427Y00574573I00000428J00000426D01*
G01*
X00454500Y00641125D02*
X00466875D01*
X00454500Y00642000D02*
X00455000Y00641500D01*
X00379846Y00499777D02*
X00384028Y00503959D01*
X00270250Y00604250D02*
X00272000Y00602500D01*
X00263000Y00518000D02*
X00278500Y00502500D01*
X00616750Y00468500D02*
X00617000Y00468250D01*
X00528250Y00575000D02*
Y00597750D01*
X00528427Y00574573D02*
X00532000Y00571000D01*
X00528426Y00574574D02*
X00528427Y00574573D01*
X00428880Y00555620D02*
X00473493D01*
X00419000Y00565500D02*
X00428880Y00555620D01*
X00396500Y00565500D02*
X00419000D01*
X00394000Y00568000D02*
X00396500Y00565500D01*
X00390500Y00588500D02*
Y00614500D01*
Y00571500D02*
Y00588500D01*
X00346322Y00354500D02*
X00350750Y00350072D01*
X00346250Y00354500D02*
X00346322D01*
X00350750Y00339000D02*
Y00350072D01*
X00347500Y00335750D02*
X00350750Y00339000D01*
X00347500Y00331000D02*
Y00335750D01*
Y00331000D02*
X00350500Y00328000D01*
X00330125Y00329895D02*
Y00333632D01*
X00324500Y00339257D02*
X00330125Y00333632D01*
X00324500Y00339257D02*
Y00348500D01*
X00333820Y00358605D02*
X00341339D01*
X00326188Y00354437D02*
X00329652D01*
X00333820Y00358605D01*
X00334855Y00356105D02*
X00342375D01*
X00330687Y00351937D02*
X00334855Y00356105D01*
X00327938Y00351937D02*
X00330687D01*
X00341339Y00358605D02*
X00344984Y00362250D01*
X00322000Y00350250D02*
X00326188Y00354437D01*
X00324500Y00348500D02*
X00327938Y00351937D01*
X00322000Y00335750D02*
Y00350250D01*
Y00335750D02*
X00326250Y00331500D01*
X00352800Y00571550D02*
X00362500D01*
X00349500Y00568250D02*
X00352800Y00571550D01*
X00337500Y00568250D02*
X00349500D01*
X00574750Y00526500D02*
X00581750D01*
X00572500Y00524250D02*
X00574750Y00526500D01*
X00560000Y00524250D02*
X00572500D01*
X00407991Y00503308D02*
X00414300Y00497000D01*
X00407991Y00503308D02*
Y00503995D01*
X00292500Y00516500D02*
X00301750D01*
X00264125Y00544875D02*
X00292500Y00516500D01*
X00261125Y00544875D02*
X00264125D01*
X00292230Y00511500D02*
X00301750D01*
X00262730Y00541000D02*
X00292230Y00511500D01*
X00283500Y00506500D02*
X00291000D01*
X00268250Y00521750D02*
X00283500Y00506500D01*
X00268250Y00521750D02*
Y00528500D01*
X00387882Y00651869D02*
X00389000Y00650750D01*
X00427000D01*
X00432000Y00645750D01*
Y00634000D02*
Y00645750D01*
Y00634000D02*
X00439000Y00627000D01*
Y00615598D02*
Y00627000D01*
X00266000Y00434250D02*
X00269550Y00437800D01*
Y00438722D01*
X00273828Y00443000D01*
X00289725D01*
X00272500Y00434250D02*
Y00437500D01*
X00275050Y00440050D01*
X00288503D01*
X00291028Y00437525D01*
X00295100D01*
X00289725Y00443000D02*
X00292250Y00440475D01*
X00295100D01*
X00296125Y00441500D01*
X00301750D01*
X00295100Y00437525D02*
X00296125Y00436500D01*
X00301750D01*
X00549625Y00464125D02*
X00558875Y00454875D01*
Y00438341D02*
Y00454875D01*
X00549625Y00464125D02*
Y00485625D01*
X00651500Y00402500D02*
X00664000Y00390000D01*
X00645500Y00402500D02*
X00651500D01*
X00664000Y00376408D02*
Y00390000D01*
X00365750Y00404020D02*
Y00417000D01*
Y00404020D02*
X00365875Y00404145D01*
X00545000Y00588500D02*
X00546625Y00586875D01*
X00564875D01*
X00568250Y00590250D01*
X00527125Y00598875D02*
X00528250Y00597750D01*
X00262750Y00524750D02*
Y00527500D01*
X00257500Y00519500D02*
X00262750Y00524750D01*
X00262500Y00541000D02*
X00262730D01*
X00323395Y00328875D02*
X00324645Y00327625D01*
X00311750Y00322250D02*
X00318375Y00328875D01*
X00323395D01*
X00324645Y00327625D02*
X00327855D01*
X00330125Y00329895D01*
X00473493Y00555620D02*
X00475616Y00553497D01*
X00483616Y00545497D02*
X00484366Y00544747D01*
X00483616Y00545497D02*
Y00553497D01*
X00483000Y00554113D02*
X00483616Y00553497D01*
X00483000Y00554113D02*
Y00559250D01*
X00475616Y00535244D02*
Y00553497D01*
X00478000Y00564250D02*
X00483000Y00559250D01*
X00469250Y00564250D02*
X00478000D01*
X00507750Y00508237D02*
Y00566000D01*
X00502250Y00571500D02*
X00507750Y00566000D01*
X00486500Y00571500D02*
X00502250D01*
X00481250Y00576750D02*
X00486500Y00571500D01*
X00486490Y00540370D02*
X00491130D01*
X00484366Y00542494D02*
Y00544747D01*
Y00542494D02*
X00486490Y00540370D01*
X00428367Y00564883D02*
Y00575786D01*
X00637000Y00560000D02*
Y00566750D01*
Y00558967D02*
Y00560000D01*
X00607750Y00573000D02*
X00609250Y00571500D01*
X00632250D01*
X00637000Y00566750D01*
X00507750Y00508237D02*
X00511992Y00503995D01*
X00495992D02*
Y00506869D01*
X00492366Y00510494D02*
X00495992Y00506869D01*
X00492366Y00502494D02*
Y00505363D01*
X00489730Y00508000D02*
X00492366Y00505363D01*
Y00502494D02*
X00494860Y00500000D01*
X00529730D02*
X00531617Y00498113D01*
X00494860Y00500000D02*
X00529730D01*
X00530870Y00531870D02*
X00532000Y00533000D01*
X00517870Y00531870D02*
X00530870D01*
X00551978Y00488000D02*
X00564500D01*
X00551978Y00487978D02*
Y00488000D01*
X00564500D02*
X00566750Y00490250D01*
X00547616Y00486798D02*
Y00497497D01*
X00566750Y00490250D02*
Y00492980D01*
X00569125Y00495355D01*
Y00506125D01*
X00570000Y00507000D01*
X00546375Y00461612D02*
Y00484423D01*
Y00461612D02*
X00555000Y00452987D01*
Y00442000D02*
Y00452987D01*
X00547375Y00486557D02*
X00547616Y00486798D01*
X00547375Y00485423D02*
Y00486557D01*
X00546375Y00484423D02*
X00547375Y00485423D01*
X00549625Y00485625D02*
X00551978Y00487978D01*
X00547397Y00497717D02*
X00547616Y00497497D01*
X00557080Y00436547D02*
X00558875Y00438341D01*
X00547397Y00497717D02*
Y00500590D01*
X00543991Y00503995D02*
X00547397Y00500590D01*
X00262715Y00480250D02*
X00267148D01*
X00265355Y00484000D02*
X00272855Y00491500D01*
X00262500Y00484000D02*
X00265355D01*
X00260000Y00486500D02*
X00262500Y00484000D01*
X00257500Y00485465D02*
X00262715Y00480250D01*
X00257500Y00485465D02*
Y00519500D01*
X00260000Y00509750D02*
X00262250Y00512000D01*
X00260000Y00486500D02*
Y00509750D01*
X00262250Y00512000D02*
X00263250D01*
X00276625Y00614783D02*
X00280055Y00618212D01*
X00276625Y00601645D02*
Y00614783D01*
X00272000Y00602500D02*
X00272750Y00603250D01*
X00264750Y00604250D02*
X00270250D01*
X00261375Y00600875D02*
X00264750Y00604250D01*
X00261223Y00600875D02*
X00261375D01*
X00258000Y00597652D02*
X00261223Y00600875D01*
X00275125Y00571625D02*
Y00591355D01*
X00274500Y00571000D02*
X00275125Y00571625D01*
X00481500Y00634000D02*
X00495500Y00648000D01*
Y00661250D01*
X00360750Y00294550D02*
X00360750Y00294550D01*
Y00297750D01*
X00364075Y00301075D01*
X00366325D01*
X00368500Y00303250D01*
X00368250Y00303500D02*
X00368500Y00303250D01*
X00295250Y00275700D02*
Y00279250D01*
Y00275700D02*
X00300000Y00270950D01*
X00350500Y00328000D02*
X00358000D01*
X00360750Y00325250D01*
Y00319950D02*
Y00325250D01*
X00363500Y00369893D02*
Y00387035D01*
X00337500Y00277000D02*
X00339750D01*
X00336150Y00275650D02*
X00337500Y00277000D01*
X00336150Y00271200D02*
Y00275650D01*
X00335750Y00324750D02*
X00336000Y00324500D01*
X00349750D01*
X00352500Y00321750D01*
Y00316500D02*
Y00321750D01*
Y00316500D02*
X00354750Y00314250D01*
X00365000D01*
X00368250Y00311000D01*
Y00303500D02*
Y00311000D01*
X00303750Y00307250D02*
Y00312250D01*
X00300250Y00315750D02*
X00303750Y00312250D01*
X00291500Y00315750D02*
X00300250D01*
X00294300Y00294550D02*
X00303750D01*
X00290250Y00290500D02*
X00294300Y00294550D01*
X00355000Y00307250D02*
X00360750D01*
X00354750Y00307500D02*
X00355000Y00307250D01*
X00352500Y00305250D02*
X00354750Y00307500D01*
X00336600Y00271200D02*
X00346000Y00261800D01*
X00336150Y00271200D02*
X00336600D01*
X00303750Y00307250D02*
X00310250D01*
X00311750Y00308750D01*
Y00322250D01*
X00658034Y00606783D02*
X00664500Y00613250D01*
X00658034Y00606223D02*
Y00606783D01*
Y00617184D02*
Y00622723D01*
X00646422Y00605573D02*
X00658034Y00617184D01*
X00439705Y00378705D02*
X00443250Y00382250D01*
X00409667Y00378705D02*
X00439705D01*
X00402211Y00371250D02*
X00409667Y00378705D01*
X00399500Y00371250D02*
X00402211D01*
X00617000Y00468250D02*
Y00468500D01*
X00357493Y00501500D02*
X00357505Y00501512D01*
X00346250Y00501500D02*
X00357493D01*
X00492366Y00510494D02*
Y00539134D01*
X00491130Y00540370D02*
X00492366Y00539134D01*
X00626250Y00556500D02*
X00634533D01*
X00637000Y00558967D01*
X00619750Y00471500D02*
X00626250D01*
X00575500Y00441500D02*
X00581750D01*
X00569000Y00435000D02*
X00575500Y00441500D01*
X00565000Y00439750D02*
X00568750D01*
X00575500Y00446500D01*
X00581750D01*
X00562461Y00435000D02*
X00569000D01*
X00581750Y00446092D02*
Y00446500D01*
X00506300Y00444000D02*
X00511300Y00449000D01*
X00501000Y00444000D02*
X00506300D01*
X00497009Y00447991D02*
X00501000Y00444000D01*
X00644000Y00320000D02*
X00647000Y00317000D01*
X00658000Y00321000D02*
X00666000D01*
X00270142Y00615000D02*
X00272356Y00617215D01*
X00261500Y00615000D02*
X00270142D01*
X00600599Y00570657D02*
Y00584000D01*
X00609755Y00561500D02*
X00626250D01*
X00666500Y00463750D02*
Y00470201D01*
X00666705Y00470406D01*
X00414300Y00497000D02*
X00415300D01*
X00499920Y00491924D02*
X00503991Y00495995D01*
X00499920Y00470016D02*
Y00491924D01*
X00638875Y00411500D02*
X00639000Y00411375D01*
X00466875Y00641125D02*
X00473000Y00635000D01*
X00499920Y00470016D02*
X00501899Y00468037D01*
X00383991Y00519995D02*
X00384624Y00520628D01*
X00391004D01*
X00379846Y00481277D02*
Y00499777D01*
X00666705Y00470406D02*
X00666705Y00470406D01*
X00656309Y00470406D02*
X00666705D01*
X00644000Y00366000D02*
Y00366408D01*
X00632000Y00354000D02*
X00644000Y00366000D01*
X00664000Y00352000D02*
Y00356408D01*
X00651700Y00339700D02*
X00664000Y00352000D01*
X00651700Y00332000D02*
Y00339700D01*
X00664500Y00402500D02*
Y00412500D01*
Y00402500D02*
X00665000Y00403000D01*
X00664500Y00398500D02*
Y00402500D01*
X00487991Y00447995D02*
X00488005D01*
X00293000Y00396625D02*
X00293125Y00396500D01*
X00293000Y00391375D02*
X00293125Y00391500D01*
X00414300Y00425687D02*
Y00433000D01*
X00401300Y00408000D02*
X00410000Y00416700D01*
X00400700Y00408000D02*
X00401300D01*
X00407991Y00423995D02*
X00410000Y00421987D01*
Y00416700D02*
Y00421987D01*
X00414300Y00425687D02*
X00415991Y00423995D01*
X00403996Y00396000D02*
X00407991Y00399995D01*
X00301750Y00486500D02*
X00302144D01*
X00296112D02*
X00301750D01*
X00484000Y00510000D02*
Y00529113D01*
X00267148Y00480250D02*
X00274898Y00488000D01*
X00295500Y00481500D02*
X00301750D01*
X00495983Y00447991D02*
X00497009D01*
X00475616Y00535244D02*
X00479240Y00531620D01*
X00481493D01*
X00484000Y00529113D01*
Y00510000D02*
X00486000Y00508000D01*
X00489730D01*
X00531617Y00492370D02*
Y00498113D01*
Y00492370D02*
X00535991Y00487995D01*
X00516000Y00518860D02*
X00518490Y00516370D01*
X00522618D01*
X00526993Y00511995D01*
X00527991D01*
X00634875Y00446500D02*
X00635000Y00446625D01*
X00634875Y00441500D02*
X00635000Y00441375D01*
X00638875Y00416500D02*
X00639000Y00416625D01*
X00353500Y00511500D02*
X00358000Y00516000D01*
X00346250Y00511500D02*
X00353500D01*
X00352500Y00516500D02*
X00358000Y00522000D01*
X00346250Y00516500D02*
X00352500D01*
X00600599Y00570657D02*
X00609755Y00561500D01*
X00423904Y00543907D02*
X00423992Y00543995D01*
X00354816Y00451500D02*
X00354941Y00451375D01*
X00354816Y00456500D02*
X00354941Y00456625D01*
X00639920Y00615173D02*
X00646422D01*
X00426000Y00667500D02*
Y00667999D01*
X00516000Y00518860D02*
Y00530000D01*
X00375000Y00396000D02*
X00403996D01*
X00374000Y00397000D02*
X00375000Y00396000D01*
X00559810Y00432349D02*
X00562461Y00435000D01*
X00394000Y00568000D02*
X00394000Y00568000D01*
X00390500Y00571500D02*
X00394000Y00568000D01*
X00387882Y00661500D02*
X00395382Y00669000D01*
X00398000D01*
X00516000Y00530000D02*
X00517870Y00531870D01*
X00475000Y00579750D02*
Y00583500D01*
X00481250Y00576750D02*
Y00582250D01*
X00366296Y00475500D02*
X00374069D01*
X00379846Y00481277D01*
X00353625Y00488171D02*
X00366296Y00475500D01*
X00428367Y00575786D02*
X00436000Y00583419D01*
Y00598500D01*
X00433000Y00601500D02*
X00436000Y00598500D01*
X00425375Y00601375D02*
X00431105D01*
X00431230Y00601500D01*
X00433000D01*
X00424000Y00600000D02*
X00425375Y00601375D01*
X00529511Y00468037D02*
X00532365Y00465182D01*
X00639000Y00325000D02*
X00642300Y00328300D01*
Y00332000D01*
X00552522Y00432349D02*
X00559810D01*
X00532365Y00454135D02*
Y00465182D01*
Y00454135D02*
X00534500Y00452000D01*
X00547000D01*
X00550500Y00448500D01*
Y00434370D02*
Y00448500D01*
Y00434370D02*
X00552522Y00432349D01*
X00454500Y00641125D02*
Y00642000D01*
X00557000Y00292900D02*
X00562400Y00287500D01*
X00567250D01*
X00494500Y00274000D02*
X00494500Y00274000D01*
X00516881Y00285075D02*
X00523775D01*
X00531600Y00292900D01*
X00494500Y00264250D02*
Y00274000D01*
X00293250Y00421375D02*
X00293375Y00421500D01*
X00293250Y00426625D02*
X00293375Y00426500D01*
X00292750Y00376375D02*
X00292875Y00376500D01*
X00292750Y00381625D02*
X00292875Y00381500D01*
X00301750Y00496500D02*
X00301750Y00496500D01*
X00296000Y00501500D02*
X00301750D01*
X00296000Y00501500D02*
X00296000Y00501500D01*
X00291000Y00506500D02*
X00296000Y00501500D01*
X00355375Y00406500D02*
X00355500Y00406375D01*
X00355375Y00411500D02*
X00355500Y00411625D01*
X00363500Y00387035D02*
X00365875Y00389411D01*
Y00404145D01*
X00464250Y00270700D02*
X00468700D01*
X00471000Y00273000D01*
X00278500Y00502500D02*
X00288000D01*
X00263000Y00518000D02*
X00263250D01*
X00258000Y00548000D02*
X00261125Y00544875D01*
X00258000Y00548000D02*
Y00597652D01*
X00284500Y00624500D02*
Y00630000D01*
X00265000Y00585250D02*
Y00594000D01*
X00501899Y00468037D02*
X00529511D01*
X00511500Y00279694D02*
X00516881Y00285075D01*
X00511500Y00272750D02*
Y00273250D01*
Y00279694D01*
X00535750Y00606500D02*
Y00609750D01*
X00428367Y00564883D02*
X00432250Y00561000D01*
X00466000D01*
X00469250Y00564250D01*
X00535750Y00606500D02*
X00539331Y00602919D01*
X00540542D01*
X00544962Y00598500D01*
X00545000D01*
Y00588500D02*
Y00598500D01*
X00644000Y00320000D02*
X00651700Y00327700D01*
Y00332000D01*
X00295250Y00279250D02*
X00297850Y00281850D01*
X00303750D01*
X00355857Y00362250D02*
X00363500Y00369893D01*
X00359000Y00358500D02*
X00370000Y00369500D01*
Y00415000D01*
X00342375Y00356105D02*
X00344770Y00358500D01*
X00359000D01*
X00344984Y00362250D02*
X00355857D01*
X00262500Y00534250D02*
Y00535750D01*
Y00534250D02*
X00268250Y00528500D01*
X00370000Y00415000D02*
X00371500Y00416500D01*
X00532000Y00533000D02*
Y00571000D01*
X00353625Y00488171D02*
Y00494145D01*
X00353375Y00494395D02*
X00353625Y00494145D01*
X00353375Y00494395D02*
Y00495375D01*
X00352250Y00496500D02*
X00353375Y00495375D01*
X00346250Y00496500D02*
X00352250D01*
X00408677Y00448677D02*
X00414300Y00443053D01*
Y00433000D02*
Y00443053D01*
X00387882Y00651869D02*
Y00661500D01*
X00433750Y00609250D02*
X00442000Y00601000D01*
X00457500D01*
X00475000Y00583500D01*
X00439000Y00615598D02*
X00449598Y00605000D01*
X00458500D01*
X00481250Y00582250D01*
X00491500Y00638500D02*
X00495500D01*
X00508000Y00651000D01*
Y00661250D01*
X00457525Y00263975D02*
X00464250Y00270700D01*
X00456275Y00263975D02*
X00457525D01*
X00453950Y00261650D02*
X00456275Y00263975D01*
X00346250Y00481500D02*
X00353648D01*
X00355905Y00479243D01*
X00346000Y00271200D02*
X00352500Y00277700D01*
Y00305250D01*
X00632000Y00342300D02*
Y00354000D01*
Y00342300D02*
X00642300Y00332000D01*
X00647000Y00317000D02*
X00659750D01*
X00666500Y00310250D01*
Y00305500D02*
Y00310250D01*
X00480250Y00433200D02*
X00481196D01*
X00484275Y00436279D01*
Y00436623D01*
X00487303Y00439651D01*
X00288000Y00502500D02*
X00294000Y00496500D01*
X00301750D01*
X00274898Y00488000D02*
X00289000D01*
X00295500Y00481500D01*
X00272855Y00491500D02*
X00291112D01*
X00296112Y00486500D01*
X00629500Y00586500D02*
Y00594250D01*
X00636250Y00601000D01*
Y00611503D01*
X00639920Y00615173D01*
X00275125Y00591355D02*
X00276750Y00592980D01*
Y00601520D01*
X00276625Y00601645D02*
X00276750Y00601520D01*
D12*
X00577750Y00629750D02*
X00586500D01*
X00610250Y00653500D02*
X00620150Y00663400D01*
X00599450Y00653500D02*
X00610250D01*
X00584300Y00647750D02*
X00590050Y00653500D01*
X00580000Y00647750D02*
X00584300D01*
X00586500Y00629750D02*
X00594750Y00638000D01*
D13*
X00535991Y00385038D02*
Y00391995D01*
X00521996Y00442000D02*
X00528250D01*
X00532750Y00582250D02*
X00537000Y00578000D01*
X00522750Y00638000D02*
X00532500Y00628250D01*
X00522750Y00618500D02*
X00532500Y00628250D01*
X00642783Y00466500D02*
X00649167Y00472883D01*
X00536492Y00528495D02*
X00545991D01*
X00572500Y00449500D02*
X00574500Y00451500D01*
X00528250Y00433000D02*
X00534987D01*
X00589750Y00289750D02*
Y00300250D01*
X00564000Y00366649D02*
X00573851Y00376500D01*
X00518509Y00551991D02*
X00520000Y00550500D01*
X00487750Y00552237D02*
Y00557750D01*
X00439644Y00645000D02*
Y00654356D01*
X00409353Y00644897D02*
Y00645500D01*
X00404339Y00640487D02*
X00409353Y00645500D01*
X00402967Y00640487D02*
X00404339D01*
X00364000Y00607250D02*
Y00612750D01*
X00415241Y00535245D02*
X00415241Y00528995D01*
X00415192Y00528946D02*
X00415241Y00528995D01*
X00415143Y00528897D02*
X00415192Y00528946D01*
X00415143Y00505000D02*
X00415143Y00518495D01*
X00387000Y00482000D02*
X00391300D01*
X00454492Y00417495D02*
Y00430991D01*
X00512500Y00372000D02*
X00526500Y00386000D01*
X00512500Y00367000D02*
Y00372000D01*
X00367500Y00358250D02*
X00379000Y00369750D01*
X00393043Y00274350D02*
X00399293Y00280600D01*
X00543926Y00441088D02*
Y00447930D01*
X00427961Y00387164D02*
X00431000Y00390204D01*
X00372164Y00516168D02*
X00383991Y00527995D01*
X00401790Y00431924D02*
Y00433789D01*
X00384241Y00423745D02*
Y00423995D01*
X00400118Y00382000D02*
Y00387000D01*
X00269500Y00302500D02*
X00289250D01*
X00265625Y00499125D02*
X00272750D01*
X00581750Y00360750D02*
X00583500Y00359000D01*
X00472014Y00479971D02*
X00472490Y00472025D01*
X00471983Y00471995D02*
Y00480491D01*
X00472014Y00479971D01*
X00503225Y00519995D02*
X00503991Y00520762D01*
X00495991Y00519995D02*
X00503225D01*
X00447743Y00417879D02*
X00461623Y00404000D01*
X00462500D01*
X00445491Y00421995D02*
X00447991Y00424495D01*
X00445491Y00421995D02*
X00447743Y00419743D01*
X00443500Y00390677D02*
X00446671Y00393848D01*
X00514496Y00541500D02*
X00520000D01*
X00479969Y00454469D02*
Y00464017D01*
X00424748Y00504752D02*
X00431992Y00511995D01*
X00431991Y00463995D02*
X00432505D01*
X00424891Y00479095D02*
X00431992Y00471995D01*
X00431991Y00463995D02*
Y00464000D01*
X00425243Y00446743D02*
X00431991Y00439995D01*
X00551991Y00575741D02*
X00556750Y00580500D01*
X00521000Y00559995D02*
X00527991Y00559995D01*
X00520339Y00559995D02*
X00521000D01*
X00455491Y00471741D02*
Y00472495D01*
X00377000Y00563820D02*
X00388167D01*
X00346250Y00486500D02*
Y00491500D01*
X00400118Y00387000D02*
X00406000D01*
X00409353Y00644897D02*
X00417000Y00637250D01*
X00290750Y00304000D02*
Y00309500D01*
X00289250Y00302500D02*
X00290750Y00304000D01*
X00496250Y00288750D02*
X00502050D01*
X00393043Y00269293D02*
Y00274350D01*
X00391750Y00268000D02*
X00393043Y00269293D01*
X00385750Y00268000D02*
X00391750D01*
X00446671Y00393848D02*
X00451464D01*
X00454107Y00396484D02*
X00461623Y00404000D01*
X00454100Y00396484D02*
X00454107D01*
X00451464Y00393848D02*
X00454100Y00396484D01*
X00447743Y00417879D02*
Y00419743D01*
X00324750Y00521500D02*
X00346250D01*
X00320250Y00526000D02*
X00324750Y00521500D01*
X00437226Y00656774D02*
X00439644Y00654356D01*
X00428390Y00656774D02*
X00437226D01*
X00569033Y00466467D02*
X00574618D01*
X00567500Y00468000D02*
X00569033Y00466467D01*
X00565500Y00468000D02*
X00567500D01*
X00285139Y00434750D02*
X00288389Y00431500D01*
X00283500Y00434750D02*
X00284000D01*
X00285139D01*
X00558000Y00601000D02*
X00564750Y00594250D01*
X00551000Y00601000D02*
X00558000D01*
X00551000Y00592000D02*
X00559250D01*
X00551000Y00601000D02*
Y00605500D01*
Y00600000D02*
Y00601000D01*
X00559250Y00592000D02*
X00560500Y00590750D01*
X00546750Y00609750D02*
X00551000Y00605500D01*
X00542250Y00609750D02*
X00546750D01*
X00502000Y00617500D02*
X00503000Y00618500D01*
X00514000D01*
X00470246Y00550250D02*
X00471991Y00551995D01*
X00487750Y00566750D02*
X00488000D01*
X00487750Y00552237D02*
X00487991Y00551995D01*
X00447991Y00519995D02*
X00448500Y00520504D01*
Y00528000D01*
X00439500Y00528000D02*
X00439991Y00527509D01*
Y00519995D02*
Y00527509D01*
X00455992Y00535995D02*
X00461246Y00541250D01*
X00462000D01*
X00558015Y00561015D02*
X00563000Y00566000D01*
X00558015Y00560798D02*
Y00561015D01*
X00563000Y00566000D02*
Y00571750D01*
X00526996Y00479000D02*
X00527991Y00479995D01*
X00521250Y00479000D02*
X00526996D01*
X00511996Y00480000D02*
X00519991Y00487995D01*
X00511500Y00480000D02*
X00511996D01*
X00571000Y00491750D02*
X00571250Y00491500D01*
X00581750D01*
X00471991Y00503995D02*
X00479495D01*
X00480000Y00504500D01*
X00479991Y00487995D02*
X00480000Y00488004D01*
Y00495500D01*
X00264750Y00500000D02*
X00265625Y00499125D01*
X00272750Y00497500D02*
Y00499125D01*
X00339717Y00461500D02*
X00346250D01*
X00338717Y00460500D02*
X00339717Y00461500D01*
X00338500Y00460500D02*
X00338717D01*
X00391241Y00439245D02*
X00391991Y00439995D01*
X00391241Y00431995D02*
Y00439245D01*
X00288389Y00431500D02*
X00301750D01*
X00371500Y00270250D02*
Y00278250D01*
X00386550Y00293300D01*
X00328700Y00261800D02*
X00336150D01*
X00324000Y00266500D02*
X00328700Y00261800D01*
X00361500Y00274000D02*
X00363250Y00275750D01*
X00361500Y00266250D02*
Y00274000D01*
X00357250Y00262000D02*
X00361500Y00266250D01*
X00355500Y00262000D02*
X00357250D01*
X00384000Y00268000D02*
X00385750D01*
X00292000Y00261500D02*
X00292050Y00261550D01*
X00298750D01*
X00303500Y00333000D02*
X00303750Y00332750D01*
Y00319950D02*
Y00332750D01*
X00315750Y00401500D02*
X00317000Y00400250D01*
X00301750Y00401500D02*
X00315750D01*
X00334000Y00398000D02*
X00337500Y00401500D01*
X00334000Y00384000D02*
Y00398000D01*
X00331000Y00381000D02*
X00334000Y00384000D01*
X00325500Y00386500D02*
X00331000Y00381000D01*
X00311250Y00386500D02*
X00325500D01*
X00563000Y00571750D02*
X00568500Y00577250D01*
X00503991Y00530162D02*
Y00535995D01*
X00551000Y00613750D02*
Y00618500D01*
X00551000Y00613750D02*
X00551000Y00613750D01*
X00551000Y00642750D02*
X00551000Y00642750D01*
X00551000Y00638000D02*
Y00642750D01*
X00503975Y00638000D02*
X00514000Y00638000D01*
Y00618500D02*
X00522750D01*
X00418750Y00365000D02*
X00419000Y00365250D01*
X00418250Y00364500D02*
X00418750Y00365000D01*
X00427961Y00387164D02*
Y00389243D01*
Y00383711D02*
Y00387164D01*
X00427705Y00386908D02*
X00427961Y00387164D01*
X00426500Y00382250D02*
X00427961Y00383711D01*
X00301750Y00531500D02*
X00346250D01*
X00301750Y00541500D02*
Y00546500D01*
X00565750Y00398000D02*
X00566500D01*
X00460144Y00623722D02*
X00465001D01*
X00403000Y00605694D02*
Y00612875D01*
X00446750Y00620500D02*
Y00628000D01*
X00526487Y00569500D02*
X00527991Y00567995D01*
X00521000Y00569500D02*
X00526487D01*
X00535991Y00543995D02*
X00536496Y00544500D01*
X00545750D01*
X00650592Y00540842D02*
X00651000Y00541250D01*
X00635981Y00540842D02*
X00650592D01*
X00574500Y00451500D02*
X00581750D01*
X00593500Y00436500D02*
X00595750Y00434250D01*
X00572250Y00449750D02*
Y00449750D01*
Y00449750D02*
X00572500Y00449500D01*
X00432991Y00415995D02*
Y00417095D01*
X00377600Y00415500D02*
X00382000D01*
X00644000Y00436500D02*
X00651500Y00444000D01*
X00639000Y00436500D02*
X00644000D01*
X00447991Y00424495D02*
Y00439995D01*
X00446650Y00284000D02*
X00464900D01*
X00407000Y00665350D02*
X00408360D01*
X00409556Y00664154D01*
X00418727Y00405260D02*
X00423991D01*
X00415991Y00407995D02*
X00418727Y00405260D01*
X00382000Y00402000D02*
Y00404500D01*
Y00402000D02*
X00384005Y00399995D01*
X00384991Y00422995D02*
X00391241D01*
X00384241Y00423745D02*
X00384991Y00422995D01*
X00472490Y00472025D02*
Y00472025D01*
Y00472025D02*
X00472491Y00471995D01*
X00402875Y00605569D02*
X00403000Y00605693D01*
X00503991Y00447995D02*
Y00448509D01*
X00646750Y00551500D02*
X00649150Y00549100D01*
X00383991Y00423995D02*
X00384241Y00423745D01*
X00453950Y00271050D02*
X00453950D01*
X00450000Y00275000D02*
X00453950Y00271050D01*
X00450000Y00275000D02*
Y00275000D01*
X00463992Y00471995D02*
X00471983D01*
X00525350Y00273950D02*
X00525750Y00274350D01*
X00527300Y00280200D02*
X00531600D01*
X00355500Y00551500D02*
X00357000Y00553000D01*
X00346250Y00551500D02*
X00355500D01*
X00415500Y00464504D02*
Y00478000D01*
X00626250Y00551500D02*
X00646750D01*
X00423992Y00416495D02*
Y00423995D01*
X00456996Y00513000D02*
X00462500D01*
X00455992Y00511995D02*
X00456996Y00513000D01*
X00478987Y00513000D02*
X00479991Y00511995D01*
X00471500Y00513000D02*
X00478987D01*
X00496500Y00456000D02*
X00503991Y00448509D01*
X00487500Y00456000D02*
Y00463504D01*
X00487991Y00463995D01*
X00407991Y00471995D02*
X00408000Y00472004D01*
Y00480500D01*
X00407991Y00495995D02*
X00408000Y00495987D01*
Y00489500D02*
Y00495987D01*
X00414991Y00463995D02*
X00415500Y00464504D01*
X00462500Y00441487D02*
X00463991Y00439995D01*
X00462500Y00441487D02*
Y00446000D01*
X00424491Y00479095D02*
X00424891D01*
X00644683Y00506500D02*
X00649267Y00511084D01*
X00626250Y00506500D02*
X00644683D01*
X00649267Y00511084D02*
X00649859D01*
X00440491Y00479495D02*
X00447991Y00471995D01*
X00440491Y00479495D02*
Y00479995D01*
X00581750Y00521500D02*
X00589500D01*
X00455491Y00472495D02*
Y00479995D01*
X00346250Y00381500D02*
Y00386500D01*
Y00376500D02*
Y00381500D01*
X00454492Y00417495D02*
X00455992Y00415995D01*
X00324500Y00491500D02*
X00346250D01*
X00318000Y00485000D02*
Y00492000D01*
Y00485000D02*
X00326500Y00476500D01*
X00346250D01*
X00391004Y00504982D02*
X00391991Y00503995D01*
X00391004Y00504982D02*
Y00511228D01*
X00545991Y00528495D02*
Y00534645D01*
Y00527495D02*
Y00528495D01*
X00557000Y00476500D02*
Y00480000D01*
X00666705Y00486343D02*
X00668727Y00488364D01*
X00666705Y00479806D02*
Y00486343D01*
X00383991Y00485009D02*
Y00495995D01*
X00649000Y00482000D02*
X00651194Y00479806D01*
X00656309D01*
X00581750Y00436500D02*
X00593500D01*
X00454492Y00430991D02*
X00455000Y00431500D01*
X00402991Y00468995D02*
X00404991D01*
X00395991D02*
X00402991D01*
X00414991Y00463995D02*
Y00470009D01*
X00414000Y00471000D02*
X00414991Y00470009D01*
X00408987Y00471000D02*
X00414000D01*
X00407991Y00471995D02*
X00408987Y00471000D01*
X00404991Y00468995D02*
X00407991Y00471995D01*
X00384005Y00399995D02*
X00391991D01*
X00423992Y00423995D02*
Y00432709D01*
X00423700Y00433000D02*
X00423992Y00432709D01*
X00382000Y00415500D02*
X00386123D01*
X00391300Y00410323D01*
Y00408000D02*
Y00410323D01*
X00410000Y00407300D02*
X00415296D01*
X00414991Y00463995D02*
X00415315Y00463672D01*
X00432491Y00415995D02*
X00432991D01*
X00399991Y00415995D02*
Y00422126D01*
X00400790Y00422924D01*
X00391241Y00422995D02*
X00392242D01*
X00645550Y00476500D02*
X00649150Y00472900D01*
X00649167Y00472883D01*
X00415143Y00518495D02*
Y00518995D01*
X00431992Y00495491D02*
Y00495995D01*
X00383991Y00485009D02*
X00387000Y00482000D01*
X00399983Y00487990D02*
X00400700Y00487273D01*
Y00482000D02*
Y00487273D01*
X00450000Y00275000D02*
X00453950Y00271050D01*
X00581750Y00506500D02*
X00626250D01*
X00292339Y00476500D02*
X00301750D01*
X00288089Y00480750D02*
X00292339Y00476500D01*
X00287000Y00480750D02*
X00288089D01*
X00287000Y00480750D02*
X00287000Y00480750D01*
X00276500Y00480750D02*
X00287000D01*
X00539000Y00573500D02*
X00544000Y00568500D01*
X00446000Y00585364D02*
X00446378Y00585742D01*
X00447233D01*
X00397368Y00659500D02*
X00400056Y00656812D01*
X00392444Y00659500D02*
X00397368D01*
X00543995Y00552009D02*
X00544000Y00552013D01*
Y00559500D01*
X00487991Y00481495D02*
Y00487995D01*
X00439991Y00455995D02*
X00441500Y00457504D01*
Y00464000D01*
X00431991Y00455995D02*
Y00463995D01*
X00423991D02*
X00431991D01*
X00463991Y00487995D02*
X00471991D01*
X00401790Y00433789D02*
X00408000Y00440000D01*
X00626250Y00436500D02*
X00639000Y00436500D01*
X00626250Y00451500D02*
X00652367D01*
X00573351Y00421000D02*
X00573851Y00421500D01*
X00560490Y00421000D02*
X00573351D01*
X00551490D02*
Y00425837D01*
X00553648Y00427995D01*
X00391992Y00487995D02*
Y00492491D01*
X00652944Y00521500D02*
X00662108Y00512336D01*
X00626250Y00521500D02*
X00652944D01*
X00641967Y00491500D02*
X00652834Y00502367D01*
X00626250Y00491500D02*
X00641967D01*
X00543926Y00447930D02*
X00543991Y00447995D01*
X00535991Y00431995D02*
X00543834D01*
X00543926Y00432088D01*
X00574651Y00466500D02*
X00581750D01*
X00471991Y00480495D02*
Y00487995D01*
X00324750Y00506500D02*
X00346250D01*
X00412521Y00535995D02*
X00415992Y00535995D01*
X00408862Y00539655D02*
X00412521Y00535995D01*
X00408862Y00539655D02*
Y00543907D01*
X00417862D02*
X00423904D01*
X00302144Y00446500D02*
X00310250D01*
X00487991Y00551995D02*
X00488311Y00551675D01*
X00497492D01*
X00535991Y00551995D02*
X00536340Y00552344D01*
X00626250Y00466500D02*
X00642783D01*
X00626250Y00421500D02*
X00634149D01*
X00573851D02*
X00581750D01*
X00573851Y00376500D02*
X00581750D01*
X00626250Y00536500D02*
X00631639D01*
X00635981Y00540842D01*
X00626250Y00396500D02*
X00634149D01*
X00573851Y00381500D02*
X00581750D01*
X00626250D02*
Y00386500D01*
X00573851Y00396500D02*
X00581750D01*
Y00401500D01*
Y00381500D02*
Y00386500D01*
X00626250Y00396500D02*
Y00401500D01*
X00335877Y00536998D02*
X00336375Y00536500D01*
X00284000Y00594000D02*
Y00605000D01*
X00308250Y00605500D02*
X00311600Y00608850D01*
X00284500Y00605500D02*
X00308250D01*
X00646422Y00596173D02*
X00653992D01*
X00638852Y00624573D02*
X00646422D01*
X00456491Y00415495D02*
X00463991D01*
X00409556Y00656812D02*
Y00664154D01*
X00419000Y00657164D02*
X00419390Y00656774D01*
X00419000Y00657164D02*
Y00665350D01*
X00401790Y00431924D02*
X00401861Y00431995D01*
X00383991Y00423995D02*
X00384116Y00423870D01*
X00395991Y00468995D02*
X00402991Y00468995D01*
X00527991Y00455995D02*
X00528491Y00455495D01*
X00439991Y00440495D02*
Y00447995D01*
X00415143Y00518995D02*
X00415143Y00518995D01*
X00463991Y00424495D02*
X00464492Y00423995D01*
X00471991D01*
X00487991Y00487995D02*
X00488491Y00488495D01*
X00535991Y00543995D02*
X00536491Y00543495D01*
X00535991Y00527995D02*
X00536491Y00527495D01*
Y00519995D02*
Y00527495D01*
X00527491Y00519995D02*
Y00527495D01*
X00495991Y00519995D02*
X00496391Y00520395D01*
X00418400Y00274350D02*
X00424650Y00280600D01*
X00464000Y00324000D02*
X00464900Y00323100D01*
Y00300000D02*
Y00323100D01*
X00479500Y00273700D02*
Y00285400D01*
X00518900Y00318300D02*
X00525150Y00312050D01*
X00538050D02*
X00544300Y00318300D01*
X00499950Y00299350D02*
X00506200Y00305600D01*
X00499950Y00312050D02*
X00506200Y00318300D01*
X00512650Y00299270D02*
X00518900Y00305520D01*
X00538050Y00299350D02*
X00544300Y00305600D01*
X00557150Y00318300D02*
X00563400Y00312050D01*
X00437350Y00306000D02*
X00443600Y00299750D01*
X00437500Y00318700D02*
X00443750Y00312450D01*
X00418400Y00299750D02*
X00424650Y00306000D01*
X00393000Y00299670D02*
X00399250Y00305920D01*
X00380300Y00312450D02*
X00386550Y00318700D01*
X00437350Y00293300D02*
X00446650Y00284000D01*
X00424650Y00293300D02*
X00430900Y00287050D01*
X00380300Y00299750D02*
X00386550Y00306000D01*
X00418400Y00312450D02*
X00424650Y00318700D01*
X00399250D02*
X00405500Y00312450D01*
X00301750Y00521500D02*
X00311644D01*
X00392693Y00528697D02*
Y00535495D01*
X00391992Y00527995D02*
X00392693Y00528697D01*
X00415241Y00535245D02*
X00415992Y00535995D01*
X00392693Y00544495D02*
X00399492D01*
X00399991Y00543995D01*
X00302144Y00506500D02*
X00311644D01*
X00495991Y00535995D02*
X00495991Y00535995D01*
X00503991Y00535995D02*
X00504358Y00535628D01*
X00424143Y00518995D02*
X00430992D01*
X00431992Y00519995D01*
X00415143Y00518995D02*
Y00528897D01*
X00399993Y00520495D02*
X00407491Y00520495D01*
X00407991Y00519995D01*
X00399993Y00503997D02*
Y00511495D01*
X00399991Y00503995D02*
X00399993Y00503997D01*
X00415296Y00407300D02*
X00415991Y00407995D01*
X00399991Y00415995D02*
X00399993Y00415994D01*
X00391991Y00439995D02*
X00392242Y00439745D01*
X00455491Y00472495D02*
X00455992Y00471995D01*
X00415092Y00479095D02*
X00415491Y00479095D01*
X00439991Y00480495D02*
Y00487995D01*
Y00480495D02*
X00440491Y00479995D01*
X00398750Y00380632D02*
Y00381750D01*
X00346250Y00561500D02*
X00355250D01*
X00337250Y00556500D02*
X00346250D01*
Y00546500D02*
X00355250D01*
X00346250Y00541500D02*
X00355250D01*
X00346250Y00526500D02*
Y00531500D01*
X00360250D01*
X00301750Y00476500D02*
X00308500D01*
X00312039Y00480039D01*
Y00491500D01*
X00301750D02*
X00312039D01*
X00336375Y00536500D02*
X00346250D01*
X00346644D01*
X00301750Y00526500D02*
Y00531500D01*
X00557000Y00476500D02*
X00565500Y00468000D01*
X00531487Y00476500D02*
X00539000D01*
X00527991Y00479995D02*
X00531487Y00476500D01*
X00536491Y00519995D02*
X00537000Y00519487D01*
X00388167Y00563820D02*
X00391991Y00559995D01*
X00551991Y00567995D02*
Y00575741D01*
X00545991Y00528495D02*
X00546000Y00528504D01*
X00535991Y00527995D02*
X00536492Y00528495D01*
X00626250Y00476500D02*
X00645550D01*
X00512005Y00551991D02*
X00518509D01*
X00512005Y00543991D02*
X00514496Y00541500D01*
X00404339Y00630103D02*
Y00640487D01*
X00581750Y00551500D02*
X00591500D01*
X00581750Y00536500D02*
X00591500D01*
X00595000Y00540000D01*
Y00548000D01*
X00591500Y00551500D02*
X00595000Y00548000D01*
X00573851Y00536500D02*
X00581750D01*
X00571000Y00533649D02*
X00573851Y00536500D01*
X00545991Y00513995D02*
Y00518495D01*
X00543992Y00511995D02*
X00545991Y00513995D01*
X00581750Y00476500D02*
X00590500D01*
X00593000Y00474000D01*
Y00469000D02*
Y00474000D01*
X00590500Y00466500D02*
X00593000Y00469000D01*
X00581750Y00466500D02*
X00590500D01*
X00626250Y00376500D02*
X00648500D01*
X00644000Y00349000D02*
X00654250Y00359250D01*
X00644000Y00346408D02*
Y00349000D01*
X00654250Y00359250D02*
Y00370750D01*
X00648500Y00376500D02*
X00654250Y00370750D01*
X00563000Y00388000D02*
X00566500Y00391500D01*
X00581750D01*
X00424241Y00528995D02*
X00430992D01*
X00431992Y00527995D01*
X00535987Y00385034D02*
X00535991Y00385038D01*
X00386991Y00450995D02*
X00395991D01*
X00383991Y00447995D02*
X00386991Y00450995D01*
X00383441Y00604921D02*
Y00613691D01*
X00395500Y00605000D02*
Y00621750D01*
X00395500Y00621750D01*
X00418250Y00349750D02*
Y00364500D01*
X00618750Y00391500D02*
X00626250D01*
X00620000Y00406500D02*
X00626250D01*
X00617750Y00404250D02*
X00620000Y00406500D01*
X00617750Y00392500D02*
Y00404250D01*
Y00392500D02*
X00618500Y00391750D01*
X00618750Y00391500D01*
X00617250Y00383250D02*
X00619000Y00381500D01*
X00626250D01*
X00431992Y00567995D02*
X00432125Y00568129D01*
Y00575125D01*
X00626250Y00366500D02*
Y00371500D01*
Y00371500D01*
Y00371500D02*
X00634750D01*
X00634978Y00371272D01*
X00364000Y00601500D02*
X00377000Y00588500D01*
Y00581500D02*
Y00588500D01*
X00364000Y00601500D02*
Y00607250D01*
X00353450Y00580950D02*
X00362500D01*
X00351500Y00579000D02*
X00353450Y00580950D01*
X00563000Y00372000D02*
X00564000Y00371000D01*
X00563000Y00372000D02*
Y00388000D01*
X00595750Y00427750D02*
Y00434250D01*
X00406000Y00387000D02*
X00410750Y00382250D01*
X00426500D01*
X00397000Y00382000D02*
X00400118D01*
X00398750Y00380632D02*
X00400118Y00382000D01*
X00400368Y00382250D01*
X00557000Y00305600D02*
X00563250Y00299350D01*
X00519991Y00439995D02*
X00521996Y00442000D01*
X00534987Y00433000D02*
X00535991Y00431995D01*
X00497274Y00407995D02*
X00503991D01*
X00489500Y00400221D02*
X00497274Y00407995D01*
X00489500Y00399250D02*
Y00400221D01*
X00480500Y00397500D02*
Y00399250D01*
Y00397500D02*
X00486005Y00391995D01*
X00487991D01*
X00578250Y00272250D02*
X00593250D01*
X00603750Y00319600D02*
Y00321500D01*
X00615000Y00332750D01*
X00606600Y00313250D02*
X00619750D01*
X00603750Y00310400D02*
X00606600Y00313250D01*
X00544300Y00280200D02*
X00545950D01*
X00551250Y00285500D01*
X00525500Y00267500D02*
X00532839Y00260161D01*
X00525500Y00267500D02*
Y00273800D01*
X00525350Y00273950D02*
X00525500Y00273800D01*
X00525750Y00274350D02*
Y00278650D01*
X00527300Y00280200D01*
X00518900D02*
X00527300D01*
X00531600D02*
X00536250Y00284850D01*
Y00286500D01*
X00522200Y00273950D02*
X00525350D01*
X00512500Y00264250D02*
X00522200Y00273950D01*
X00503500Y00264250D02*
X00512500D01*
X00635000Y00312000D02*
X00643500D01*
X00631000Y00316000D02*
X00635000Y00312000D01*
X00356493Y00506500D02*
X00357505Y00507512D01*
X00346250Y00506500D02*
X00356493D01*
X00301750Y00386500D02*
X00302000Y00386750D01*
X00310250Y00446500D02*
X00310250Y00446500D01*
X00275000Y00541750D02*
X00280250Y00536500D01*
X00301750D01*
X00282750Y00546500D02*
X00282750Y00546500D01*
X00282750Y00546500D02*
X00301750D01*
X00274250Y00551000D02*
Y00561250D01*
X00330250Y00423250D02*
Y00430250D01*
Y00423250D02*
X00337000Y00416500D01*
X00346250D01*
X00337500Y00401500D02*
X00346250D01*
X00301750Y00386500D02*
X00311250D01*
Y00386500D02*
Y00386500D01*
X00330250Y00430250D02*
X00331500Y00431500D01*
X00346250D01*
Y00381500D02*
X00354250D01*
X00295000Y00416500D02*
X00301750D01*
X00293250Y00414750D02*
X00295000Y00416500D01*
X00464250Y00261700D02*
X00473700D01*
X00479500Y00267500D01*
Y00273700D01*
X00455991Y00519995D02*
X00459496Y00523500D01*
X00464000D01*
X00468487D01*
X00471991Y00519995D01*
X00432991Y00415995D02*
X00439991D01*
X00439991Y00415995D01*
X00450000Y00461250D02*
X00455750Y00455500D01*
X00450000Y00461250D02*
Y00466250D01*
X00455491Y00471741D01*
X00464750Y00455500D02*
Y00471237D01*
X00463992Y00471995D02*
X00464750Y00471237D01*
X00455500Y00488500D02*
X00462000Y00495000D01*
X00455500Y00480000D02*
Y00488500D01*
X00537000Y00573500D02*
Y00578000D01*
X00405700Y00274350D02*
Y00278950D01*
X00407000Y00280250D01*
X00411600D01*
X00411950Y00280600D01*
X00486250Y00579750D02*
X00490250Y00583750D01*
X00518250D01*
X00488000Y00566750D02*
X00493000D01*
X00495992Y00563759D01*
Y00559995D02*
Y00563759D01*
X00462000Y00550250D02*
X00463000D01*
X00470246D01*
X00455000Y00440500D02*
Y00447004D01*
X00455991Y00447995D01*
X00544800Y00268750D02*
Y00272800D01*
X00532839Y00260161D02*
X00545150D01*
X00546145D01*
X00589750Y00289750D02*
X00589750D01*
X00544800Y00272800D02*
X00546450Y00274450D01*
X00546682D01*
X00548482Y00276250D01*
X00551500D01*
X00346250Y00446500D02*
X00346250Y00446500D01*
X00335750Y00446500D02*
X00346250D01*
X00335750Y00457750D02*
X00338500Y00460500D01*
X00357000Y00288000D02*
X00359250D01*
X00360750Y00286500D01*
Y00281850D02*
Y00286500D01*
X00375000Y00412900D02*
X00377600Y00415500D01*
X00375000Y00412000D02*
Y00412900D01*
X00335750Y00446500D02*
Y00457750D01*
X00581750Y00366500D02*
Y00371500D01*
Y00360750D02*
Y00366500D01*
X00465001Y00623722D02*
X00468279Y00627000D01*
X00469250D01*
X00460144Y00632722D02*
X00460172Y00632750D01*
X00467750D01*
X00407991Y00460009D02*
Y00463995D01*
X00581750Y00421500D02*
X00589500D01*
X00595000Y00427000D01*
X00566500Y00398000D02*
X00575000Y00406500D01*
X00581750D01*
X00545750Y00544500D02*
X00549182Y00547932D01*
Y00552182D01*
X00471500Y00446000D02*
X00479969Y00454469D01*
X00407991Y00460009D02*
X00412677Y00455323D01*
X00415323D01*
X00379000Y00369750D02*
Y00382000D01*
X00367500Y00358250D02*
X00367750Y00358000D01*
Y00358000D02*
Y00358000D01*
X00432125Y00575125D02*
X00436500Y00579500D01*
X00443250D01*
X00446000Y00582250D01*
Y00582000D02*
Y00582250D01*
Y00585364D01*
X00404500Y00588000D02*
Y00592750D01*
Y00588000D02*
X00406250Y00586250D01*
X00419250D01*
X00514000Y00638000D02*
X00522750Y00638000D01*
X00439644Y00635106D02*
Y00635710D01*
Y00635106D02*
X00446750Y00628000D01*
X00549182Y00552182D02*
X00553284Y00556283D01*
Y00557033D01*
X00555232Y00558015D02*
X00558015Y00560798D01*
X00553284Y00557033D02*
X00554266Y00558015D01*
X00555232D01*
X00355500Y00271000D02*
X00357250Y00272750D01*
Y00275760D01*
X00359000Y00277510D01*
X00274250Y00551000D02*
X00280250D01*
X00281000Y00551750D01*
Y00554000D01*
X00359000Y00277510D02*
Y00280100D01*
X00360750Y00281850D01*
X00502050Y00288750D02*
X00506200Y00292900D01*
X00288750Y00466750D02*
X00293250Y00462250D01*
X00288750Y00466750D02*
Y00470000D01*
X00287000Y00471750D02*
X00288750Y00470000D01*
X00371892Y00545354D02*
X00378533Y00551995D01*
X00383992D01*
X00439894Y00645000D02*
X00442500D01*
X00445500Y00642000D01*
X00423992Y00423995D02*
X00427495D01*
X00434995Y00431495D01*
X00439991D01*
X00499485Y00353985D02*
X00512500Y00367000D01*
X00499485Y00348015D02*
Y00353985D01*
X00497470Y00346000D02*
X00499485Y00348015D01*
X00619000Y00526500D02*
X00626250D01*
X00617750Y00525250D02*
X00619000Y00526500D01*
X00593250Y00525250D02*
X00617750D01*
X00589500Y00521500D02*
X00593250Y00525250D01*
D18*
X00265000Y00594000D02*
D03*
X00284000D02*
D03*
X00274500Y00571000D02*
D03*
D27*
X00385750Y00268000D02*
D03*
X00369750D02*
D03*
X00479500Y00285400D02*
D03*
X00495500D02*
D03*
D28*
X00362500Y00571550D02*
D03*
Y00580950D02*
D03*
X00666705Y00470406D02*
D03*
Y00479806D02*
D03*
X00656309Y00479806D02*
D03*
Y00470406D02*
D03*
X00346000Y00261800D02*
D03*
X00346000Y00271200D02*
D03*
X00410000Y00407300D02*
D03*
Y00416700D02*
D03*
X00336150Y00271200D02*
D03*
Y00261800D02*
D03*
X00300000Y00270950D02*
D03*
Y00261550D02*
D03*
X00503000Y00529950D02*
D03*
Y00520550D02*
D03*
X00646422Y00615173D02*
D03*
Y00624573D02*
D03*
X00453950Y00261650D02*
D03*
Y00271050D02*
D03*
X00646422Y00605573D02*
D03*
X00646422Y00596173D02*
D03*
X00391004Y00511228D02*
D03*
X00391004Y00520628D02*
D03*
X00480250Y00423800D02*
D03*
Y00433200D02*
D03*
D38*
X00271500Y00302500D02*
D03*
Y00322500D02*
D03*
Y00342500D02*
D03*
Y00362500D02*
D03*
Y00402500D02*
D03*
X00271500Y00422500D02*
D03*
D39*
X00271500Y00382500D02*
D03*
D40*
X00658034Y00606223D02*
D03*
Y00622723D02*
D03*
D41*
X00417000Y00622250D02*
D03*
Y00637250D02*
D03*
D44*
X00370964Y00545369D02*
D03*
Y00517369D02*
D03*
D46*
X00539000Y00476500D02*
D03*
X00557000D02*
D03*
X00518250Y00583750D02*
D03*
X00536250D02*
D03*
X00397000Y00382000D02*
D03*
X00379000D02*
D03*
D49*
X00598750Y00300250D02*
D03*
X00589750D02*
D03*
X00545150Y00260161D02*
D03*
X00554150D02*
D03*
X00395339Y00630103D02*
D03*
X00404339D02*
D03*
X00394500Y00640500D02*
D03*
X00403500D02*
D03*
X00400500Y00656750D02*
D03*
X00409500D02*
D03*
X00404500Y00605000D02*
D03*
X00395500D02*
D03*
X00419390Y00656774D02*
D03*
X00428390D02*
D03*
X00455500Y00642000D02*
D03*
X00446500D02*
D03*
X00274250Y00551000D02*
D03*
X00265250D02*
D03*
X00274250Y00561250D02*
D03*
X00265250D02*
D03*
X00568750Y00629750D02*
D03*
X00577750D02*
D03*
X00455250Y00422250D02*
D03*
X00446250D02*
D03*
X00433500Y00406000D02*
D03*
X00424500D02*
D03*
X00415143Y00518495D02*
D03*
X00424143D02*
D03*
X00400650Y00495000D02*
D03*
X00391650D02*
D03*
X00560490Y00421000D02*
D03*
X00551490D02*
D03*
X00527000Y00386000D02*
D03*
X00536000D02*
D03*
X00462500Y00513000D02*
D03*
X00471500Y00513000D02*
D03*
X00423991Y00415995D02*
D03*
X00432991Y00415995D02*
D03*
X00480500Y00399250D02*
D03*
X00489500D02*
D03*
X00536491Y00519995D02*
D03*
X00527491Y00519995D02*
D03*
X00448500Y00528000D02*
D03*
X00439500Y00528000D02*
D03*
X00512250Y00479000D02*
D03*
X00521250D02*
D03*
X00416500Y00488000D02*
D03*
X00425500Y00488000D02*
D03*
X00441500Y00464000D02*
D03*
X00432500D02*
D03*
X00414991Y00463995D02*
D03*
X00423991D02*
D03*
X00462500Y00446000D02*
D03*
X00471500D02*
D03*
X00416500Y00479000D02*
D03*
X00425500Y00479000D02*
D03*
X00408862Y00543907D02*
D03*
X00417862D02*
D03*
X00415143Y00528995D02*
D03*
X00424143D02*
D03*
X00496500Y00456000D02*
D03*
X00487500Y00456000D02*
D03*
X00415500Y00505000D02*
D03*
X00424500D02*
D03*
X00281750Y00497500D02*
D03*
X00272750D02*
D03*
X00503500Y00264250D02*
D03*
X00494500D02*
D03*
X00455750Y00455500D02*
D03*
X00464750D02*
D03*
D50*
X00619750Y00313250D02*
D03*
D54*
X00464900Y00300000D02*
D03*
Y00284000D02*
D03*
D55*
X00567000Y00268750D02*
D03*
Y00259750D02*
D03*
X00459500Y00633000D02*
D03*
Y00624000D02*
D03*
X00383441Y00604921D02*
D03*
Y00595921D02*
D03*
X00287000Y00471750D02*
D03*
Y00480750D02*
D03*
X00551000Y00592000D02*
D03*
Y00601000D02*
D03*
X00355500Y00262000D02*
D03*
Y00271000D02*
D03*
X00400790Y00422924D02*
D03*
Y00431924D02*
D03*
X00464000Y00532500D02*
D03*
X00464000Y00523500D02*
D03*
X00382000Y00415500D02*
D03*
Y00406500D02*
D03*
X00391241Y00431995D02*
D03*
Y00422995D02*
D03*
X00528250Y00432250D02*
D03*
X00528250Y00441250D02*
D03*
X00545750Y00535500D02*
D03*
Y00544500D02*
D03*
X00480000Y00504500D02*
D03*
Y00495500D02*
D03*
X00463991Y00415495D02*
D03*
Y00424495D02*
D03*
X00489000Y00423850D02*
D03*
Y00432850D02*
D03*
X00497492Y00551675D02*
D03*
Y00542675D02*
D03*
X00520000Y00551500D02*
D03*
Y00542500D02*
D03*
X00399993Y00511495D02*
D03*
Y00520495D02*
D03*
X00463000Y00550250D02*
D03*
Y00541250D02*
D03*
X00392693Y00535495D02*
D03*
Y00544495D02*
D03*
X00408000Y00480500D02*
D03*
Y00489500D02*
D03*
X00425000Y00455500D02*
D03*
Y00446500D02*
D03*
X00439991Y00431495D02*
D03*
Y00440495D02*
D03*
X00545991Y00527495D02*
D03*
Y00518495D02*
D03*
X00543926Y00432812D02*
D03*
X00543926Y00441812D02*
D03*
X00455000Y00431500D02*
D03*
Y00440500D02*
D03*
X00544000Y00568500D02*
D03*
Y00559500D02*
D03*
X00521000Y00569500D02*
D03*
Y00560500D02*
D03*
X00488000Y00557750D02*
D03*
Y00566750D02*
D03*
X00563000Y00507250D02*
D03*
X00563000Y00498250D02*
D03*
X00553448Y00507241D02*
D03*
X00553448Y00498241D02*
D03*
X00375577Y00452756D02*
D03*
Y00443755D02*
D03*
X00365535Y00452756D02*
D03*
X00365535Y00443755D02*
D03*
X00373995Y00488357D02*
D03*
Y00497357D02*
D03*
X00363954Y00488357D02*
D03*
Y00497357D02*
D03*
X00464250Y00261700D02*
D03*
Y00270700D02*
D03*
X00631000Y00325000D02*
D03*
Y00316000D02*
D03*
X00276500Y00480750D02*
D03*
Y00471750D02*
D03*
X00556983Y00549562D02*
D03*
Y00540562D02*
D03*
X00567138Y00549562D02*
D03*
Y00540562D02*
D03*
X00462250Y00495000D02*
D03*
Y00504000D02*
D03*
D56*
X00447000Y00405000D02*
D03*
X00462000Y00405000D02*
D03*
X00431750Y00620500D02*
D03*
X00446750D02*
D03*
X00443750Y00390500D02*
D03*
X00428750D02*
D03*
X00571750Y00580000D02*
D03*
X00556750D02*
D03*
X00487500Y00480000D02*
D03*
X00472500D02*
D03*
X00440500D02*
D03*
X00455500D02*
D03*
D57*
X00609050Y00300250D02*
D03*
X00618450D02*
D03*
X00599450Y00653500D02*
D03*
X00590050D02*
D03*
X00414300Y00433000D02*
D03*
X00423700D02*
D03*
X00400700Y00408000D02*
D03*
X00391300D02*
D03*
X00554200Y00268750D02*
D03*
X00544800Y00268750D02*
D03*
X00423700Y00497000D02*
D03*
X00414300Y00497000D02*
D03*
X00642300Y00332000D02*
D03*
X00651700D02*
D03*
X00520700Y00449000D02*
D03*
X00511300D02*
D03*
X00400700Y00481000D02*
D03*
X00391300D02*
D03*
D58*
X00284500Y00624500D02*
D03*
Y00605500D02*
D03*
X00261500Y00615000D02*
D03*
D60*
X00480000Y00323250D02*
D03*
Y00305250D02*
D03*
D61*
X00395991Y00450995D02*
D03*
Y00468995D02*
D03*
X00377000Y00563500D02*
D03*
Y00581500D02*
D03*
D64*
X00546500Y00662250D02*
D03*
X00506200Y00331000D02*
D03*
Y00318300D02*
D03*
Y00305600D02*
D03*
Y00292900D02*
D03*
Y00280200D02*
D03*
X00518900Y00331000D02*
D03*
Y00318300D02*
D03*
X00518900Y00305600D02*
D03*
X00518900Y00292900D02*
D03*
Y00280200D02*
D03*
X00531600Y00331000D02*
D03*
Y00318300D02*
D03*
Y00305600D02*
D03*
Y00292900D02*
D03*
Y00280200D02*
D03*
X00544300Y00331000D02*
D03*
Y00318300D02*
D03*
X00544300Y00305600D02*
D03*
X00544300Y00292900D02*
D03*
Y00280200D02*
D03*
X00557000Y00331000D02*
D03*
Y00318300D02*
D03*
Y00305600D02*
D03*
Y00292900D02*
D03*
Y00280200D02*
D03*
X00386550Y00331400D02*
D03*
Y00318700D02*
D03*
Y00306000D02*
D03*
Y00293300D02*
D03*
Y00280600D02*
D03*
X00399250Y00331400D02*
D03*
Y00318700D02*
D03*
X00399250Y00306000D02*
D03*
X00399250Y00293300D02*
D03*
Y00280600D02*
D03*
X00411950Y00331400D02*
D03*
Y00318700D02*
D03*
Y00306000D02*
D03*
Y00293300D02*
D03*
Y00280600D02*
D03*
X00424650Y00331400D02*
D03*
Y00318700D02*
D03*
X00424650Y00306000D02*
D03*
X00424650Y00293300D02*
D03*
Y00280600D02*
D03*
X00437350Y00331400D02*
D03*
Y00318700D02*
D03*
Y00306000D02*
D03*
Y00293300D02*
D03*
Y00280600D02*
D03*
X00469750Y00656500D02*
D03*
X00390500Y00588500D02*
D03*
X00407991Y00551995D02*
D03*
X00399991D02*
D03*
D65*
X01015200Y00412609D02*
G03*
X01014500Y00411909I00000000J-00000700D01*
G01*
X01013800Y00407609D02*
G03*
X01014500Y00408309I00000000J00000700D01*
G01*
X01012500D02*
G03*
X01013200Y00407609I00000700J00000000D01*
G01*
X01012500Y00411909D02*
G03*
X01011800Y00412609I-00000700J00000000D01*
G01*
X00758250Y00396009D02*
G03*
X00758950Y00395309I00000700J00000000D01*
G01*
X00758250Y00398609D02*
G03*
X00757550Y00399309I-00000700J00000000D01*
G01*
X00756950D02*
G03*
X00756250Y00398609I00000000J-00000700D01*
G01*
X00755550Y00395309D02*
G03*
X00756250Y00396009I00000000J00000700D01*
G01*
X00754250D02*
G03*
X00754950Y00395309I00000700J00000000D01*
G01*
X00754250Y00398609D02*
G03*
X00753550Y00399309I-00000700J00000000D01*
G01*
X00752950D02*
G03*
X00752250Y00398609I00000000J-00000700D01*
G01*
X00751550Y00395309D02*
G03*
X00752250Y00396009I00000000J00000700D01*
G01*
X00789700Y00467611D02*
G03*
X00789000Y00466911I00000000J-00000700D01*
G01*
X00788300Y00463611D02*
G03*
X00789000Y00464311I00000000J00000700D01*
G01*
X00787000D02*
G03*
X00787700Y00463611I00000700J00000000D01*
G01*
X00787000Y00466911D02*
G03*
X00786300Y00467611I-00000700J00000000D01*
G01*
X01072450Y00395110D02*
G03*
X01071750Y00394410I00000000J-00000700D01*
G01*
X01076050Y00395110D02*
G03*
X01076750Y00395810I00000000J00000700D01*
G01*
Y00396410D02*
G03*
X01076050Y00397110I-00000700J00000000D01*
G01*
X01071750Y00397810D02*
G03*
X01072450Y00397110I00000700J00000000D01*
G01*
Y00399110D02*
G03*
X01071750Y00398410I00000000J-00000700D01*
G01*
X01076050Y00399110D02*
G03*
X01076750Y00399810I00000000J00000700D01*
G01*
Y00400410D02*
G03*
X01076050Y00401110I-00000700J00000000D01*
G01*
X01071750Y00401810D02*
G03*
X01072450Y00401110I00000700J00000000D01*
G01*
X01072250Y00446009D02*
G03*
X01072950Y00445309I00000700J00000000D01*
G01*
X01072250Y00449609D02*
G03*
X01071550Y00450309I-00000700J00000000D01*
G01*
X01070950D02*
G03*
X01070250Y00449609I00000000J-00000700D01*
G01*
X01069550Y00445309D02*
G03*
X01070250Y00446009I00000000J00000700D01*
G01*
X01072950Y00427960D02*
G03*
X01072250Y00427260I00000000J-00000700D01*
G01*
X01071550Y00422960D02*
G03*
X01072250Y00423660I00000000J00000700D01*
G01*
X01070250D02*
G03*
X01070950Y00422960I00000700J00000000D01*
G01*
X01070250Y00427260D02*
G03*
X01069550Y00427960I-00000700J00000000D01*
G01*
X01068950D02*
G03*
X01068250Y00427260I00000000J-00000700D01*
G01*
X01067550Y00422960D02*
G03*
X01068250Y00423660I00000000J00000700D01*
G01*
X01066250D02*
G03*
X01066950Y00422960I00000700J00000000D01*
G01*
X01066250Y00427260D02*
G03*
X01065550Y00427960I-00000700J00000000D01*
G01*
X00365535Y00456356D02*
X00365536D01*
X00375575D02*
X00375577D01*
X00269500Y00322500D02*
X00290000D01*
X00269500Y00362500D02*
X00288500D01*
X00469250Y00657000D02*
X00469750Y00656500D01*
X00461000Y00657000D02*
X00469250D01*
X00546500Y00662250D02*
Y00667000D01*
X00545250Y00668250D02*
X00546500Y00667000D01*
X01018250Y00412609D02*
X01022731D01*
X01002283D02*
X01009500D01*
X01016500D02*
X01018250D01*
X01015200D02*
X01016500D01*
X01014500Y00408309D02*
Y00411909D01*
X01013200Y00407609D02*
X01013800D01*
X01012500Y00408309D02*
Y00411909D01*
X01010500Y00412609D02*
X01011800D01*
X01009500D02*
X01010500D01*
X00760750Y00395309D02*
X00783349D01*
X00745281D02*
X00751250D01*
X00760250D02*
X00760750D01*
X00758950D02*
X00760250D01*
X00758250Y00396009D02*
Y00398609D01*
X00756950Y00399309D02*
X00757550D01*
X00756250Y00396009D02*
Y00398609D01*
X00754950Y00395309D02*
X00755550D01*
X00754250Y00396009D02*
Y00398609D01*
X00752950Y00399309D02*
X00753550D01*
X00752250Y00396009D02*
Y00398609D01*
X00751250Y00395309D02*
X00751550D01*
X00772769Y00467611D02*
X00784000D01*
X00791000D02*
X00792500D01*
X00789700D02*
X00791000D01*
X00789000Y00464311D02*
Y00466911D01*
X00787700Y00463611D02*
X00788300D01*
X00787000Y00464311D02*
Y00466911D01*
X00785000Y00467611D02*
X00786300D01*
X00784000D02*
X00785000D01*
X01012500Y00434060D02*
Y00456778D01*
X01071750Y00406110D02*
Y00407359D01*
Y00366392D02*
Y00392460D01*
Y00393110D01*
Y00394410D01*
X01072450Y00395110D02*
X01076050D01*
X01076750Y00395810D02*
Y00396410D01*
X01072450Y00397110D02*
X01076050D01*
X01071750Y00397810D02*
Y00398410D01*
X01072450Y00399110D02*
X01076050D01*
X01076750Y00399810D02*
Y00400410D01*
X01072450Y00401110D02*
X01076050D01*
X01071750Y00401810D02*
Y00403110D01*
Y00405110D01*
Y00406110D01*
X01073500Y00445309D02*
X01082719D01*
X01072950D02*
X01073500D01*
X01072250Y00446009D02*
Y00449609D01*
X01070950Y00450309D02*
X01071550D01*
X01070250Y00446009D02*
Y00449609D01*
X01068250Y00445309D02*
X01069550D01*
X01066250D02*
X01068250D01*
X01065250D02*
X01066250D01*
X01075000Y00427960D02*
X01079750D01*
X01053068D02*
X01063250D01*
X01074250D02*
X01075000D01*
X01072950D02*
X01074250D01*
X01072250Y00423660D02*
Y00427260D01*
X01070950Y00422960D02*
X01071550D01*
X01070250Y00423660D02*
Y00427260D01*
X01068950Y00427960D02*
X01069550D01*
X01068250Y00423660D02*
Y00427260D01*
X01066950Y00422960D02*
X01067550D01*
X01066250Y00423660D02*
Y00427260D01*
X01064250Y00427960D02*
X01065550D01*
X01063250D02*
X01064250D01*
X00884999Y00503661D02*
X00890749Y00509411D01*
X00862968Y00503661D02*
X00884999D01*
X00858919Y00507710D02*
X00862968Y00503661D01*
X00846568Y00507710D02*
X00858919D01*
X00806470Y00467611D02*
X00846568Y00507710D01*
X00792500Y00467611D02*
X00806470D01*
X00884999Y00478261D02*
X00890749Y00484011D01*
X00862968Y00478261D02*
X00884999D01*
X00859519Y00481710D02*
X00862968Y00478261D01*
X00845318Y00481710D02*
X00859519D01*
X00801220Y00437611D02*
X00845318Y00481710D01*
X00772769Y00437611D02*
X00801220D01*
X00886181Y00445911D02*
X00890749D01*
X00880431Y00451661D02*
X00886181Y00445911D01*
X00862968Y00451661D02*
X00880431D01*
X00858466Y00447160D02*
X00862968Y00451661D01*
X00835200Y00447160D02*
X00858466D01*
X00783349Y00395309D02*
X00835200Y00447160D01*
X00988050Y00426842D02*
X01002283Y00412609D01*
X00988050Y00426842D02*
Y00438760D01*
X00983100Y00443710D02*
X00988050Y00438760D01*
X00960180Y00443710D02*
X00983100D01*
X00956631Y00440161D02*
X00960180Y00443710D01*
X00909199Y00440161D02*
X00956631D01*
X00903449Y00445911D02*
X00909199Y00440161D01*
X01012500Y00434060D02*
X01016250Y00430310D01*
X01022725D01*
X01055750Y00445309D02*
X01065250D01*
X01045116Y00455943D02*
X01055750Y00445309D01*
X01045116Y00455943D02*
Y00534662D01*
X01034118Y00545660D02*
X01045116Y00534662D01*
X00910132Y00545660D02*
X01034118D01*
X00907091Y00542619D02*
X00910132Y00545660D01*
X00902909Y00542619D02*
X00907091D01*
X00897163Y00536873D02*
X00902909Y00542619D01*
X00897163Y00515697D02*
Y00536873D01*
Y00515697D02*
X00903449Y00509411D01*
X00997868Y00372760D02*
X01053068Y00427960D01*
X00922632Y00372760D02*
X00997868D01*
X00915750Y00379642D02*
X00922632Y00372760D01*
X00915750Y00379642D02*
Y00387379D01*
X00910399Y00392729D02*
X00915750Y00387379D01*
X00910399Y00392729D02*
Y00413561D01*
X00903449Y00420511D02*
X00910399Y00413561D01*
X01077000Y00412609D02*
X01082719D01*
X01071750Y00407359D02*
X01077000Y00412609D01*
X01062118Y00356760D02*
X01071750Y00366392D01*
X00901382Y00356760D02*
X01062118D01*
X00890050Y00368092D02*
X00901382Y00356760D01*
X00890050Y00368092D02*
Y00387678D01*
X00884999Y00392729D02*
X00890050Y00387678D01*
X00884999Y00392729D02*
Y00397493D01*
X00890749Y00403243D01*
Y00407811D01*
X00896499Y00392729D02*
Y00414761D01*
X00890749Y00420511D02*
X00896499Y00414761D01*
X00892750Y00388980D02*
X00896499Y00392729D01*
X00892750Y00369210D02*
Y00388980D01*
Y00369210D02*
X00902500Y00359460D01*
X01061000D01*
X01069050Y00367510D01*
Y00408477D01*
X01075882Y00415309D01*
X01082719D01*
X01083994Y00416584D01*
X01082719Y00412609D02*
X01083994Y00411334D01*
X01083070Y00430660D02*
X01083994Y00431584D01*
X01079876Y00427834D02*
X01082494D01*
X01079750Y00427960D02*
X01079876Y00427834D01*
X01082494D02*
X01083994Y00426334D01*
X01051950Y00430660D02*
X01083070D01*
X00996750Y00375460D02*
X01051950Y00430660D01*
X00923750Y00375460D02*
X00996750D01*
X00918450Y00380760D02*
X00923750Y00375460D01*
X00918450Y00389280D02*
X00921899Y00392729D01*
X00917331Y00414761D02*
X00921899Y00410193D01*
X00910399Y00418129D02*
Y00426261D01*
X00903449Y00433211D02*
X00910399Y00426261D01*
X00913768Y00414761D02*
X00917331D01*
X00918450Y00380760D02*
Y00389280D01*
X00921899Y00392729D02*
Y00410193D01*
X00910399Y00418129D02*
X00913768Y00414761D01*
X00910399Y00451661D02*
X00956631D01*
X00961882Y00446410D01*
X00984218D01*
X00903449Y00458611D02*
X00910399Y00451661D01*
X00984218Y00446410D02*
X00990750Y00439878D01*
Y00427960D02*
Y00439878D01*
Y00427960D02*
X01003401Y00415309D01*
X01022731D01*
X01024006Y00416584D01*
X01022731Y00412609D02*
X01024006Y00411334D01*
X01022725Y00430310D02*
X01024000Y00431585D01*
X01012450Y00456828D02*
Y00456828D01*
Y00456828D02*
X01012500Y00456778D01*
X00982200Y00483260D02*
X01009800Y00455660D01*
Y00432942D02*
Y00455660D01*
Y00432942D02*
X01015132Y00427610D01*
X01022725D01*
X01024000Y00426335D01*
X00983318Y00485960D02*
X01012450Y00456828D01*
X00961000Y00483260D02*
X00982200D01*
X00910399Y00478261D02*
X00956631D01*
X00903449Y00471311D02*
X00910399Y00478261D01*
X00959999Y00482259D02*
X00961000Y00483260D01*
X00959999Y00481629D02*
Y00482259D01*
X00956631Y00478261D02*
X00959999Y00481629D01*
X00909199Y00489761D02*
X00956631D01*
X00903449Y00484011D02*
X00909199Y00489761D01*
X00956631D02*
X00960432Y00485960D01*
X00983318D01*
X00912977Y00542960D02*
X01033000D01*
X00909863Y00539847D02*
X00912977Y00542960D01*
X00909863Y00503125D02*
Y00539847D01*
X00903449Y00496711D02*
X00909863Y00503125D01*
X01033000Y00542960D02*
X01042416Y00533544D01*
Y00454824D02*
Y00533544D01*
Y00454824D02*
X01054632Y00442609D01*
X01082719Y00445309D02*
X01083994Y00446584D01*
X01054632Y00442609D02*
X01082719D01*
X01083994Y00441334D01*
X00858216Y00510410D02*
X00862968Y00515161D01*
X00883799D01*
X00890749Y00522111D01*
X00845450Y00510410D02*
X00858216D01*
X00805351Y00470311D02*
X00845450Y00510410D01*
X00772769Y00470311D02*
X00805351D01*
X00771494Y00471586D02*
X00772769Y00470311D01*
X00771494Y00466336D02*
X00772769Y00467611D01*
X00862968Y00489761D02*
X00883799D01*
X00857617Y00484410D02*
X00862968Y00489761D01*
X00883799D02*
X00890749Y00496711D01*
X00844200Y00484410D02*
X00857617D01*
X00800101Y00440311D02*
X00844200Y00484410D01*
X00772769Y00440311D02*
X00800101D01*
X00771494Y00441586D02*
X00772769Y00440311D01*
X00771494Y00436336D02*
X00772769Y00437611D01*
X00862968Y00440161D02*
X00883799D01*
X00858669Y00444460D02*
X00862968Y00440161D01*
X00883799D02*
X00890749Y00433211D01*
X00836318Y00444460D02*
X00858669D01*
X00784467Y00392609D02*
X00836318Y00444460D01*
X00745281Y00392609D02*
X00784467D01*
X00744006Y00396584D02*
X00745281Y00395309D01*
X00744006Y00391334D02*
X00745281Y00392609D01*
X00468737Y00393737D02*
X00472487D01*
X00453250Y00378250D02*
X00468737Y00393737D01*
X00475900Y00397150D02*
Y00402971D01*
X00472487Y00393737D02*
X00475900Y00397150D01*
Y00402971D02*
X00476491Y00403563D01*
X00471000Y00416250D02*
X00475491Y00420741D01*
X00471000Y00399904D02*
Y00416250D01*
X00453346Y00382250D02*
X00471000Y00399904D01*
X00443250Y00382250D02*
X00453346D01*
X00280250Y00386750D02*
Y00392250D01*
X00276000Y00382500D02*
X00280250Y00386750D01*
X00271500Y00382500D02*
X00276000D01*
X00274000Y00345000D02*
X00291750D01*
X00290000Y00322500D02*
X00290000Y00322500D01*
X00288500Y00362500D02*
X00290750Y00364750D01*
X00475000Y00441000D02*
X00479991Y00445991D01*
X00488005Y00447995D02*
X00492000Y00444000D01*
X00479991Y00445991D02*
Y00447995D01*
X00501250Y00382000D02*
Y00385000D01*
X00475000Y00425936D02*
X00475491Y00425445D01*
X00475000Y00425936D02*
Y00441000D01*
X00555495Y00268750D02*
X00560150D01*
X00560400Y00269000D01*
X00555145Y00268400D02*
X00555495Y00268750D01*
X00507741Y00388491D02*
Y00430259D01*
X00505250Y00386000D02*
X00507741Y00388491D01*
X00502250Y00386000D02*
X00505250D01*
X00501250Y00385000D02*
X00502250Y00386000D01*
X00492000Y00438500D02*
Y00444000D01*
Y00438500D02*
X00494500Y00436000D01*
X00505290D01*
X00507750Y00430250D02*
Y00433540D01*
X00505290Y00436000D02*
X00507750Y00433540D01*
X00554200Y00260211D02*
Y00268750D01*
X00554150Y00260161D02*
X00554200Y00260211D01*
X00291750Y00345000D02*
X00296000Y00349250D01*
Y00358750D01*
X00354816Y00451500D02*
X00354816Y00451500D01*
X00475491Y00420741D02*
Y00425445D01*
X00476491Y00403563D02*
Y00418791D01*
X00477750Y00420050D01*
X00479991Y00415995D02*
X00481145D01*
X00477750Y00420050D02*
Y00422500D01*
X00365535Y00452756D02*
Y00456356D01*
X00365536D02*
X00367931Y00458750D01*
X00375577Y00452756D02*
Y00456356D01*
X00373181Y00458750D02*
X00375575Y00456356D01*
X00284500Y00630000D02*
Y00633000D01*
D66*
X00566750Y00260500D02*
X00569750Y00257500D01*
X00464000Y00531995D02*
X00473648D01*
X00364000Y00612750D02*
X00378569Y00598181D01*
X00424472Y00496972D02*
Y00497000D01*
X00420600Y00493100D02*
X00424472Y00496972D01*
X00415500Y00488372D02*
X00420228Y00493100D01*
X00399991Y00496508D02*
X00401500Y00495000D01*
X00415500Y00488000D02*
Y00488372D01*
X00443505Y00407995D02*
X00447500Y00404000D01*
X00423505Y00415995D02*
X00428400Y00411100D01*
X00429000Y00392204D02*
X00431000Y00390204D01*
X00424500Y00488000D02*
X00431992Y00495491D01*
X00916250Y00470500D02*
Y00471250D01*
X00910750Y00465000D02*
X00916250Y00470500D01*
X00897060Y00465000D02*
X00910750D01*
X00890749Y00471311D02*
X00897060Y00465000D01*
X00884250D02*
X00890500Y00471250D01*
X00880699Y00465000D02*
X00884250D01*
X00880638Y00465061D02*
X00880699Y00465000D01*
X00890500Y00471250D02*
Y00471250D01*
X00871599Y00465061D02*
X00880638D01*
X00865349Y00471311D02*
X00871599Y00465061D01*
X00381181Y00598181D02*
X00383441Y00595921D01*
X00378569Y00598181D02*
X00381181D01*
X00466178Y00500100D02*
X00467991Y00498287D01*
X00466150Y00500100D02*
X00466178D01*
X00462250Y00504000D02*
X00466150Y00500100D01*
X00424472Y00497000D02*
X00426736Y00499264D01*
X00427793D01*
X00431992Y00503463D01*
X00276500Y00465500D02*
Y00471750D01*
X00403000Y00605694D02*
X00403000Y00605693D01*
X00410500Y00613000D02*
Y00615750D01*
X00417000Y00622250D01*
X00630000Y00333000D02*
X00632500Y00330500D01*
Y00325560D02*
Y00330500D01*
X00362400Y00608850D02*
X00364000Y00607250D01*
X00439991Y00407995D02*
X00443505D01*
X00301750Y00461500D02*
X00306500D01*
X00362250Y00526083D02*
Y00526250D01*
X00430900Y00275798D02*
Y00287050D01*
X00425000Y00455000D02*
Y00455500D01*
X00429000Y00392204D02*
Y00401000D01*
X00487491Y00464495D02*
X00487991Y00463995D01*
X00626250Y00521500D02*
Y00526500D01*
X00423505Y00415995D02*
X00423991D01*
X00428400Y00411100D02*
X00428858D01*
X00433500Y00406458D01*
Y00406000D02*
Y00406458D01*
X00564000Y00366000D02*
Y00366649D01*
X00643500Y00312000D02*
X00654000D01*
X00655000Y00425500D02*
Y00443700D01*
X00424500Y00405500D02*
Y00406000D01*
Y00405500D02*
X00429000Y00401000D01*
X00415500Y00488000D02*
X00415700D01*
X00399991Y00496508D02*
Y00503995D01*
X00477648Y00527995D02*
X00479991D01*
X00473648Y00531995D02*
X00477648Y00527995D01*
X00464000Y00531995D02*
Y00532500D01*
X00487991Y00543995D02*
X00496172D01*
X00497492Y00542675D01*
X00455992Y00415995D02*
X00456491Y00415495D01*
X00403000Y00605693D02*
X00403093Y00605600D01*
X00527491Y00527495D02*
X00527991Y00527995D01*
X00479969Y00464017D02*
X00479991Y00463995D01*
X00420228Y00493100D02*
X00420600D01*
X00431992Y00503463D02*
Y00503995D01*
X00519991Y00487995D02*
X00520500Y00488504D01*
X00425000Y00611000D02*
Y00613750D01*
X00431750Y00620500D01*
X00383441Y00613691D02*
X00383500Y00613750D01*
X00307000Y00461000D02*
X00309000Y00459000D01*
X00608250Y00262750D02*
X00615000D01*
X00615250Y00263000D01*
X00569750Y00257500D02*
X00591250D01*
X00593000Y00259250D01*
Y00272000D01*
X00593250Y00272250D01*
X00309000Y00459000D02*
X00309000D01*
X00309000Y00447750D02*
Y00459000D01*
Y00447750D02*
X00310250Y00446500D01*
X00301750Y00366500D02*
Y00371500D01*
X00308500D01*
X00311500Y00368500D01*
Y00368000D02*
Y00368500D01*
X00407000Y00264000D02*
X00419102D01*
X00430900Y00275798D01*
X00511991Y00463995D02*
X00515991Y00459995D01*
Y00453137D02*
Y00459995D01*
Y00453137D02*
X00516200Y00452928D01*
Y00452750D02*
Y00452928D01*
Y00452750D02*
X00519950Y00449000D01*
X00520700D01*
X00489000Y00432850D02*
X00495137D01*
X00495991Y00431995D01*
X00462000Y00504000D02*
X00462250D01*
X00362250Y00526083D02*
X00370964Y00517369D01*
X00372164Y00516168D01*
X00415991Y00447995D02*
X00419996Y00452000D01*
X00422000D01*
X00425000Y00455000D01*
X00471991Y00487995D02*
X00471991Y00487995D01*
X00471991Y00487995D02*
Y00490339D01*
X00467991Y00494338D02*
X00471991Y00490339D01*
X00487303Y00439651D02*
X00487991Y00439995D01*
X00281750Y00497500D02*
X00287500D01*
X00288250Y00496750D01*
X00467991Y00494338D02*
Y00498287D01*
D67*
X02405533Y00604468D02*
X02419000Y00591000D01*
X02405533Y00604468D02*
X02399761Y00598696D01*
X02398478Y00596130D01*
Y00594848D01*
X02399119Y00592924D01*
X02400402Y00591641D01*
X02402326Y00591000D01*
X02403609D01*
X02406174Y00592283D01*
X02411946Y00598054D02*
X02406174Y00592283D01*
X02404891Y00589717D01*
Y00588435D01*
X02405533Y00586511D01*
X02407456Y00584587D01*
X02409380Y00583946D01*
X02410663D01*
X02413228Y00585228D01*
X02419000Y00591000D01*
X02389051Y00587986D02*
X02402518Y00574518D01*
X02393540Y00592475D02*
X02384562Y00583497D01*
X02382958Y00581893D02*
X02396426Y00568426D01*
X02382958Y00581893D02*
X02391295Y00563295D01*
X02372697Y00571632D02*
X02391295Y00563295D01*
X02372697Y00571632D02*
X02386165Y00558165D01*
D68*
X00265250Y00551000D02*
Y00561250D01*
Y00551000D02*
X00268650Y00547600D01*
Y00546865D02*
Y00547600D01*
Y00546865D02*
X00273764Y00541750D01*
X00275000D01*
D69*
X00481145Y00415995D02*
X00489000Y00423850D01*
D70*
X00581250Y00486500D02*
X00581500Y00486750D01*
X00577750Y00561250D02*
Y00561500D01*
X00616750Y00468500D02*
X00619750Y00471500D01*
X00566000Y00519750D02*
X00566250D01*
X00569500Y00516500D01*
X00565000Y00528750D02*
X00571970D01*
X00574720Y00531500D02*
X00581750D01*
X00571970Y00528750D02*
X00574720Y00531500D01*
X00562750Y00455750D02*
X00563500Y00456500D01*
X00572000Y00461500D02*
X00581750D01*
X00571750Y00461250D02*
X00572817D01*
X00571750D02*
X00572000Y00461500D01*
X00572817Y00461250D02*
X00572883Y00461183D01*
X00574000Y00501500D02*
X00581750D01*
X00573000Y00502500D02*
X00574000Y00501500D01*
X00573467Y00511500D02*
X00573851D01*
X00581750D01*
X00563500Y00456500D02*
X00581750D01*
X00572750Y00486500D02*
X00581250D01*
X00568250Y00482250D02*
X00581000D01*
X00581500Y00486750D02*
X00581750Y00486500D01*
X00581000Y00482250D02*
X00581750Y00481500D01*
X00569000Y00570000D02*
X00577750Y00561250D01*
Y00561500D02*
X00581750D01*
X00573500Y00541500D02*
X00581750D01*
X00618500Y00481500D02*
X00626250D01*
X00617000Y00480000D02*
X00618500Y00481500D01*
X00617967Y00531500D02*
X00618351D01*
X00626250D01*
X00617768Y00547084D02*
Y00547514D01*
Y00547084D02*
X00618351Y00546500D01*
Y00501500D02*
X00626250D01*
X00619500Y00496500D02*
X00626250D01*
X00617000Y00494000D02*
X00619500Y00496500D01*
X00617000Y00493000D02*
Y00494000D01*
X00618351Y00486500D02*
X00626250D01*
X00618351Y00511500D02*
X00626250D01*
X00617967D02*
X00618351D01*
X00581245Y00455995D02*
X00581750Y00456500D01*
X00626250D02*
X00635500D01*
X00619750Y00516500D02*
X00626250D01*
X00581250Y00501000D02*
X00581750Y00501500D01*
X00573500Y00556500D02*
X00581750D01*
X00570000Y00560000D02*
X00573500Y00556500D01*
X00570000Y00559967D02*
Y00560000D01*
Y00559967D02*
X00571967Y00558000D01*
X00618351Y00461500D02*
X00626250D01*
X00618351Y00546500D02*
X00626250D01*
X00574000Y00548000D02*
X00575500Y00546500D01*
X00581750D01*
X00569500Y00516500D02*
X00581750D01*
X00573183Y00471217D02*
X00581467D01*
X00572650D02*
X00573183D01*
X00573467Y00471500D01*
X00581467Y00471217D02*
X00581750Y00471500D01*
X00618351Y00541500D02*
X00626250D01*
X00573851Y00496500D02*
X00581750D01*
X00573467D02*
X00573851D01*
X00572650Y00460950D02*
X00572883Y00461183D01*
X00626250Y00441500D02*
X00634875D01*
X00626250Y00446500D02*
X00634875D01*
X00616750Y00519500D02*
X00619750Y00516500D01*
D72*
X00393967Y00640487D02*
X00395339D01*
X00393967Y00640166D02*
X00395019D01*
X00393967D02*
Y00640487D01*
X00390934Y00643519D02*
X00393967Y00640487D01*
X00388257Y00643519D02*
X00390934D01*
X00395339Y00630103D02*
Y00640166D01*
X00395019D02*
X00395339Y00640487D01*
D73*
X00565250Y00640750D02*
X00572500D01*
X00556000Y00631500D02*
X00565250Y00640750D01*
X00551000Y00631500D02*
X00556000D01*
D74*
X00563500Y00629750D02*
X00568750D01*
X00558750Y00625000D02*
X00563500Y00629750D01*
X00551000Y00625000D02*
X00558750D01*
D76*
X02347796Y00524395D02*
X02344169Y00523185D01*
X02342959Y00520767D01*
Y00518348D01*
X02344169Y00515930D01*
X02346587Y00514720D01*
X02351424Y00513511D01*
X02355052Y00512302D01*
X02357470Y00509883D01*
X02358680Y00507465D01*
Y00503837D01*
X02357470Y00501419D01*
X02356261Y00500209D01*
X02352633Y00499000D01*
X02347796D01*
X02344169Y00500209D01*
X02342959Y00501419D01*
X02341750Y00503837D01*
Y00507465D01*
X02342959Y00509883D01*
X02345378Y00512302D01*
X02349006Y00513511D01*
X02353843Y00514720D01*
X02356261Y00515930D01*
X02357470Y00518348D01*
Y00520767D01*
X02356261Y00523185D01*
X02352633Y00524395D01*
X02347796D01*
D80*
X01064000Y00345960D02*
D03*
X01064000Y00581960D02*
D03*
X00618000Y00345000D02*
D03*
Y00583000D02*
D03*
X00338000Y00345000D02*
D03*
Y00583000D02*
D03*
X00784000Y00345960D02*
D03*
X00784000Y00581960D02*
D03*
D81*
X00483000Y00661250D02*
D03*
X00495500D02*
D03*
X00508000D02*
D03*
X00520500D02*
D03*
X00533000D02*
D03*
X00766250Y00274460D02*
D03*
X00778750D02*
D03*
X00311500Y00266500D02*
D03*
X00324000D02*
D03*
D82*
X00644000Y00346408D02*
D03*
X00664000Y00356408D02*
D03*
X00644000Y00366408D02*
D03*
X00664000Y00376408D02*
D03*
X00644000Y00386408D02*
D03*
X00664000Y00336408D02*
D03*
D83*
X00626250Y00265500D02*
D03*
X00337000Y00634250D02*
D03*
D84*
X00626250Y00285500D02*
D03*
D85*
X00865349Y00509411D02*
D03*
Y00522111D02*
D03*
Y00496711D02*
D03*
X00954249Y00534811D02*
D03*
Y00395111D02*
D03*
X00941549Y00534811D02*
D03*
Y00522111D02*
D03*
Y00509411D02*
D03*
Y00496711D02*
D03*
Y00484011D02*
D03*
Y00471311D02*
D03*
Y00458611D02*
D03*
Y00445911D02*
D03*
Y00433211D02*
D03*
Y00420511D02*
D03*
Y00407811D02*
D03*
Y00395111D02*
D03*
X00928849Y00534811D02*
D03*
Y00522111D02*
D03*
Y00509411D02*
D03*
Y00496711D02*
D03*
Y00484011D02*
D03*
Y00471311D02*
D03*
Y00458611D02*
D03*
Y00445911D02*
D03*
Y00433211D02*
D03*
Y00420511D02*
D03*
Y00407811D02*
D03*
Y00395111D02*
D03*
X00916149Y00534811D02*
D03*
Y00522111D02*
D03*
Y00509411D02*
D03*
Y00496711D02*
D03*
Y00484011D02*
D03*
Y00471311D02*
D03*
Y00458611D02*
D03*
Y00445911D02*
D03*
Y00433211D02*
D03*
Y00420511D02*
D03*
Y00407811D02*
D03*
Y00395111D02*
D03*
X00903449Y00534811D02*
D03*
Y00522111D02*
D03*
Y00509411D02*
D03*
Y00496711D02*
D03*
X00890749Y00534811D02*
D03*
Y00509411D02*
D03*
Y00496711D02*
D03*
Y00484011D02*
D03*
Y00471311D02*
D03*
Y00458611D02*
D03*
Y00395111D02*
D03*
X00878049Y00509411D02*
D03*
Y00496711D02*
D03*
Y00471311D02*
D03*
Y00445911D02*
D03*
Y00433211D02*
D03*
Y00420511D02*
D03*
Y00407811D02*
D03*
Y00395111D02*
D03*
X00865349Y00534811D02*
D03*
Y00484011D02*
D03*
Y00471311D02*
D03*
Y00458611D02*
D03*
Y00420511D02*
D03*
Y00407811D02*
D03*
X00954249D02*
D03*
Y00420511D02*
D03*
Y00433211D02*
D03*
Y00445911D02*
D03*
Y00458611D02*
D03*
Y00471311D02*
D03*
Y00484011D02*
D03*
Y00496711D02*
D03*
Y00509411D02*
D03*
Y00522111D02*
D03*
X00903449Y00407811D02*
D03*
Y00395111D02*
D03*
Y00420511D02*
D03*
X00890749D02*
D03*
Y00407811D02*
D03*
X00878049Y00484011D02*
D03*
Y00458611D02*
D03*
X00865349Y00445911D02*
D03*
Y00433211D02*
D03*
X00890749Y00445911D02*
D03*
Y00433211D02*
D03*
X00903449Y00458611D02*
D03*
Y00445911D02*
D03*
X00890749Y00522111D02*
D03*
X00878049Y00534811D02*
D03*
Y00522111D02*
D03*
X00903449Y00484011D02*
D03*
Y00471311D02*
D03*
Y00433211D02*
D03*
D86*
X00362400Y00608850D02*
D03*
Y00659650D02*
D03*
X00311600D02*
D03*
Y00608850D02*
D03*
D87*
X00594750Y00638000D02*
D03*
D88*
X00569350Y00612600D02*
D03*
X00620150D02*
D03*
D89*
X00569350Y00663400D02*
D03*
X00620150D02*
D03*
D90*
X00657000Y00447600D02*
D03*
Y00575000D02*
D03*
D91*
X00724000Y00273960D02*
D03*
X01104000D02*
D03*
Y00653960D02*
D03*
X00724000D02*
D03*
X00274000Y00654000D02*
D03*
X00654000D02*
D03*
Y00274000D02*
D03*
X00274000D02*
D03*
D92*
X00535991Y00503995D02*
D03*
X00545250Y00668250D02*
D03*
X00883000Y00385000D02*
D03*
X00346250Y00354500D02*
D03*
X00425250Y00636000D02*
D03*
Y00644750D02*
D03*
X00908783Y00578750D02*
D03*
X01083994Y00441334D02*
D03*
Y00446584D02*
D03*
X00771494Y00471586D02*
D03*
Y00436336D02*
D03*
Y00441586D02*
D03*
X00744006Y00391334D02*
D03*
Y00396584D02*
D03*
X00744000Y00451370D02*
D03*
Y00456620D02*
D03*
Y00376335D02*
D03*
Y00381585D02*
D03*
X00803994Y00391334D02*
D03*
Y00396584D02*
D03*
X00771500Y00406333D02*
D03*
Y00411582D02*
D03*
X01107000Y00506460D02*
D03*
X00979750Y00570710D02*
D03*
X01022000Y00570960D02*
D03*
X00995000Y00389960D02*
D03*
X00980250Y00469460D02*
D03*
X00986000Y00457960D02*
D03*
X00978250Y00436960D02*
D03*
X01002470Y00427473D02*
D03*
X01002970Y00447223D02*
D03*
X01000859Y00437210D02*
D03*
X00771494Y00466336D02*
D03*
X00915029Y00368077D02*
D03*
X01054250Y00400210D02*
D03*
X01048494Y00406459D02*
D03*
X01021250Y00376960D02*
D03*
X01023750Y00390960D02*
D03*
X01008000Y00406460D02*
D03*
X01003500Y00399460D02*
D03*
X00747006Y00401459D02*
D03*
Y00431461D02*
D03*
X00747000Y00461527D02*
D03*
X00922000Y00567210D02*
D03*
X00921250Y00578960D02*
D03*
X00935469Y00634423D02*
D03*
X00873347Y00621923D02*
D03*
X01003485Y00513996D02*
D03*
Y00531014D02*
D03*
X01003049Y00503074D02*
D03*
Y00493422D02*
D03*
Y00479960D02*
D03*
X00953000Y00266960D02*
D03*
X00960000Y00293960D02*
D03*
Y00288710D02*
D03*
Y00283460D02*
D03*
Y00278210D02*
D03*
X00954000D02*
D03*
Y00283460D02*
D03*
Y00288710D02*
D03*
Y00293960D02*
D03*
X00919095Y00294543D02*
D03*
X00895321Y00578753D02*
D03*
X00960599Y00383935D02*
D03*
X00981935Y00521349D02*
D03*
X00779506Y00461426D02*
D03*
Y00476424D02*
D03*
Y00446424D02*
D03*
Y00486422D02*
D03*
Y00491461D02*
D03*
Y00431424D02*
D03*
Y00506458D02*
D03*
Y00416424D02*
D03*
Y00521461D02*
D03*
Y00401544D02*
D03*
X00741758Y00532359D02*
D03*
X00774270Y00533737D02*
D03*
X00779506Y00531459D02*
D03*
X00774270Y00542374D02*
D03*
X00779506Y00386424D02*
D03*
X00746994Y00541496D02*
D03*
X00779506Y00546459D02*
D03*
Y00381424D02*
D03*
X00746994Y00546496D02*
D03*
X00774270Y00559646D02*
D03*
X00779506Y00556459D02*
D03*
X00804000Y00366300D02*
D03*
Y00371550D02*
D03*
X00803994Y00501584D02*
D03*
Y00496334D02*
D03*
Y00516584D02*
D03*
Y00511334D02*
D03*
X00744006Y00516584D02*
D03*
Y00501584D02*
D03*
Y00496334D02*
D03*
X00744000Y00486620D02*
D03*
Y00481370D02*
D03*
X00744006Y00426584D02*
D03*
Y00421334D02*
D03*
X01059506Y00466427D02*
D03*
X01026994Y00466493D02*
D03*
Y00451496D02*
D03*
X01059506Y00476424D02*
D03*
Y00451426D02*
D03*
X01026994Y00476493D02*
D03*
Y00436459D02*
D03*
X01059506Y00491461D02*
D03*
X01059630Y00436399D02*
D03*
X01026870Y00491521D02*
D03*
X01026994Y00421462D02*
D03*
X01059506Y00506458D02*
D03*
Y00421424D02*
D03*
X01026994Y00506496D02*
D03*
X01059506Y00521461D02*
D03*
Y00406419D02*
D03*
X01026994Y00521501D02*
D03*
X01059506Y00526461D02*
D03*
X01026994Y00396461D02*
D03*
X01059506Y00536459D02*
D03*
Y00391424D02*
D03*
X01026994Y00536496D02*
D03*
X01054270Y00378289D02*
D03*
X01026994Y00381461D02*
D03*
X01059506Y00381424D02*
D03*
Y00551459D02*
D03*
X01026994Y00551496D02*
D03*
Y00371461D02*
D03*
X01059506Y00371426D02*
D03*
X01081250Y00376460D02*
D03*
X01083994Y00416584D02*
D03*
Y00411334D02*
D03*
Y00431584D02*
D03*
Y00426334D02*
D03*
X01024000Y00431585D02*
D03*
Y00426335D02*
D03*
X01024006Y00416584D02*
D03*
Y00411334D02*
D03*
X00942000Y00366710D02*
D03*
X00922753Y00367093D02*
D03*
X00876886Y00341417D02*
D03*
X01003250Y00312960D02*
D03*
X01018250Y00301210D02*
D03*
X01053750D02*
D03*
X01037250D02*
D03*
X00826000Y00307710D02*
D03*
Y00300960D02*
D03*
Y00294210D02*
D03*
Y00287460D02*
D03*
Y00280710D02*
D03*
X00869320Y00646633D02*
D03*
X00873162Y00662187D02*
D03*
X00892719Y00636673D02*
D03*
X00897594D02*
D03*
X00902469D02*
D03*
X00892469Y00631923D02*
D03*
X00897594D02*
D03*
X00902719D02*
D03*
X00960500Y00560460D02*
D03*
X00965719Y00575423D02*
D03*
X00854719Y00593673D02*
D03*
X00860219D02*
D03*
X00865719D02*
D03*
X00871219D02*
D03*
X00876719D02*
D03*
X00888250Y00560460D02*
D03*
X00903219Y00593423D02*
D03*
X00846969Y00636423D02*
D03*
X00983000Y00658210D02*
D03*
X00978125D02*
D03*
X00973250D02*
D03*
X00983750Y00609710D02*
D03*
X00978875D02*
D03*
X00974000D02*
D03*
X01053000Y00606960D02*
D03*
X01059000D02*
D03*
X01065000D02*
D03*
X01071000D02*
D03*
X01016000Y00570960D02*
D03*
X01010000D02*
D03*
X01004000D02*
D03*
X00950309Y00347958D02*
D03*
X00955464Y00347957D02*
D03*
X00945155Y00347959D02*
D03*
X00934845Y00347961D02*
D03*
X00940000Y00347960D02*
D03*
X00989000Y00317960D02*
D03*
X00968000Y00306460D02*
D03*
X00978887Y00503315D02*
D03*
X00932414Y00567210D02*
D03*
X00936300Y00619342D02*
D03*
X00744006Y00511334D02*
D03*
X00768500Y00521542D02*
D03*
Y00506532D02*
D03*
X00768370Y00491521D02*
D03*
X00768500Y00476527D02*
D03*
X00768494Y00371461D02*
D03*
Y00386461D02*
D03*
Y00416459D02*
D03*
Y00446368D02*
D03*
X00974000Y00386960D02*
D03*
X00803994Y00481429D02*
D03*
X00479991Y00407995D02*
D03*
X00439991Y00407995D02*
D03*
X00284000Y00512000D02*
D03*
X00567500Y00468000D02*
D03*
X00560000Y00524250D02*
D03*
X00560849Y00516000D02*
D03*
X00555599D02*
D03*
X00272500Y00434250D02*
D03*
X00266000D02*
D03*
X00284000Y00434750D02*
D03*
X00566000Y00519750D02*
D03*
X00565000Y00528750D02*
D03*
X00562750Y00455750D02*
D03*
X00571750Y00461250D02*
D03*
X00617000Y00468500D02*
D03*
X00568250Y00590250D02*
D03*
X00560500Y00590750D02*
D03*
X00564750Y00594250D02*
D03*
X00527125Y00598875D02*
D03*
X00502000Y00617500D02*
D03*
X00262750Y00527500D02*
D03*
X00262500Y00535750D02*
D03*
X00280250Y00392250D02*
D03*
X00290750Y00309500D02*
D03*
X00321250Y00325000D02*
D03*
X00378000Y00263000D02*
D03*
X00590500Y00315750D02*
D03*
X00589750Y00309000D02*
D03*
X00271250Y00589750D02*
D03*
X00486250Y00649000D02*
D03*
X00479250Y00618000D02*
D03*
X00629500Y00586500D02*
D03*
X00637000Y00560000D02*
D03*
X00607750Y00573000D02*
D03*
X00553265Y00562765D02*
D03*
X00519991Y00511995D02*
D03*
X00571000Y00491750D02*
D03*
X00573851Y00511500D02*
D03*
X00528000Y00504004D02*
D03*
X00479991Y00487995D02*
D03*
X00495991Y00495995D02*
D03*
X00487991Y00495995D02*
D03*
X00555000Y00442000D02*
D03*
X00263250Y00518000D02*
D03*
Y00512000D02*
D03*
X00272750Y00603250D02*
D03*
X00491500Y00638500D02*
D03*
X00358250Y00592000D02*
D03*
X00481500Y00634000D02*
D03*
X00365750Y00417000D02*
D03*
X00375000Y00412000D02*
D03*
X00263990Y00506490D02*
D03*
Y00500000D02*
D03*
X00371577Y00504891D02*
D03*
X00336750Y00465250D02*
D03*
X00423991Y00439995D02*
D03*
X00328000Y00399000D02*
D03*
X00297500Y00339500D02*
D03*
X00315000Y00359000D02*
D03*
X00295250Y00279250D02*
D03*
X00290000Y00351750D02*
D03*
X00339750Y00277000D02*
D03*
X00335750Y00324750D02*
D03*
X00412000Y00274000D02*
D03*
X00326250Y00331500D02*
D03*
X00291500Y00315750D02*
D03*
X00295500Y00286750D02*
D03*
X00290250Y00290500D02*
D03*
X00363750Y00276250D02*
D03*
X00357000Y00288000D02*
D03*
X00292000Y00261500D02*
D03*
X00303500Y00333000D02*
D03*
X00311500Y00437500D02*
D03*
X00331000Y00381000D02*
D03*
X00317000Y00400250D02*
D03*
X00322500Y00425000D02*
D03*
X00290000Y00322500D02*
D03*
X00290750Y00364750D02*
D03*
X00551000Y00613750D02*
D03*
X00538875Y00594022D02*
D03*
X00539000Y00598750D02*
D03*
X00533500D02*
D03*
Y00594000D02*
D03*
X00508437Y00608000D02*
D03*
X00508498Y00613022D02*
D03*
X00514312D02*
D03*
X00514250Y00608000D02*
D03*
X00664500Y00613250D02*
D03*
X00276500Y00465500D02*
D03*
X00366349Y00482000D02*
D03*
X00371599D02*
D03*
X00572750Y00486500D02*
D03*
X00270001Y00473511D02*
D03*
X00388257Y00643519D02*
D03*
X00617750Y00416000D02*
D03*
X00617500Y00427250D02*
D03*
X00616250Y00411500D02*
D03*
X00551000Y00642750D02*
D03*
X00442833Y00336750D02*
D03*
X00445500Y00332750D02*
D03*
X00423000Y00325500D02*
D03*
X00438083Y00337000D02*
D03*
X00433500D02*
D03*
X00428917D02*
D03*
X00424333D02*
D03*
X00420500Y00387000D02*
D03*
X00423992Y00511995D02*
D03*
X00472500Y00372250D02*
D03*
X00474500Y00377500D02*
D03*
X00453250Y00378250D02*
D03*
X00446750Y00378000D02*
D03*
X00469750Y00377500D02*
D03*
X00399500Y00371250D02*
D03*
X00460250Y00377500D02*
D03*
X00465000D02*
D03*
X00472500Y00367000D02*
D03*
X00327750Y00553000D02*
D03*
Y00559300D02*
D03*
Y00565600D02*
D03*
Y00571900D02*
D03*
X00322450Y00591250D02*
D03*
X00316800D02*
D03*
X00311150D02*
D03*
X00305500D02*
D03*
X00299850D02*
D03*
X00294200D02*
D03*
X00289500Y00583750D02*
D03*
Y00576688D02*
D03*
Y00569625D02*
D03*
Y00562562D02*
D03*
Y00555500D02*
D03*
X00337500Y00568250D02*
D03*
X00569913Y00299040D02*
D03*
X00569763Y00305520D02*
D03*
X00400000Y00359000D02*
D03*
Y00364250D02*
D03*
X00418250Y00312250D02*
D03*
X00405750D02*
D03*
X00392900Y00337750D02*
D03*
X00380000Y00330000D02*
D03*
X00374500D02*
D03*
X00565750Y00398000D02*
D03*
X00510184Y00573434D02*
D03*
X00499710Y00630875D02*
D03*
Y00625625D02*
D03*
X00464000Y00645000D02*
D03*
X00469250D02*
D03*
X00519991Y00423995D02*
D03*
Y00431995D02*
D03*
X00503991Y00399995D02*
D03*
X00527991Y00399995D02*
D03*
X00535991D02*
D03*
X00374520Y00466375D02*
D03*
Y00471625D02*
D03*
X00433750Y00609250D02*
D03*
X00410500Y00613000D02*
D03*
X00403000Y00612875D02*
D03*
X00568250Y00482250D02*
D03*
X00357505Y00501512D02*
D03*
X00537000Y00573500D02*
D03*
X00553648Y00531995D02*
D03*
X00569000Y00570000D02*
D03*
X00573500Y00541500D02*
D03*
X00617000Y00480000D02*
D03*
X00618351Y00531500D02*
D03*
X00617768Y00547514D02*
D03*
X00651000Y00541250D02*
D03*
X00618351Y00501500D02*
D03*
X00617000Y00493000D02*
D03*
X00618351Y00486500D02*
D03*
Y00511500D02*
D03*
X00565000Y00439750D02*
D03*
X00595000Y00427000D02*
D03*
X00648250Y00426500D02*
D03*
X00572250Y00449750D02*
D03*
X00503991Y00455995D02*
D03*
X00635500Y00456500D02*
D03*
X00321000Y00442750D02*
D03*
X00471991Y00463995D02*
D03*
X00503991Y00431995D02*
D03*
X00495991Y00439995D02*
D03*
X00503991Y00439995D02*
D03*
X00455964Y00391984D02*
D03*
X00383991Y00423995D02*
D03*
X00355905Y00479243D02*
D03*
X00658000Y00321000D02*
D03*
X00644000Y00320000D02*
D03*
X00639000Y00325000D02*
D03*
X00592000Y00327000D02*
D03*
X00630000Y00333000D02*
D03*
X00272356Y00617215D02*
D03*
X00280055Y00618212D02*
D03*
X00503991Y00447995D02*
D03*
X00666500Y00463750D02*
D03*
X00357000Y00553000D02*
D03*
X00406000Y00387000D02*
D03*
X00412000Y00388000D02*
D03*
X00487991Y00463995D02*
D03*
X00473000Y00635000D02*
D03*
X00511992Y00559995D02*
D03*
X00511992Y00567995D02*
D03*
X00535992Y00511995D02*
D03*
X00362250Y00526250D02*
D03*
X00324500Y00491500D02*
D03*
X00318000Y00492000D02*
D03*
X00383991Y00519995D02*
D03*
X00391991Y00503995D02*
D03*
X00668727Y00488364D02*
D03*
X00383991Y00503995D02*
D03*
X00649000Y00482000D02*
D03*
X00654000Y00312000D02*
D03*
X00664500Y00412500D02*
D03*
X00388000Y00372000D02*
D03*
X00394000Y00364250D02*
D03*
Y00359000D02*
D03*
X00407991Y00503995D02*
D03*
X00407991Y00495995D02*
D03*
X00399983Y00487990D02*
D03*
X00512650Y00286650D02*
D03*
X00450000Y00275000D02*
D03*
X00435000Y00269000D02*
D03*
X00570000Y00507000D02*
D03*
X00527995Y00416009D02*
D03*
X00527991Y00407995D02*
D03*
X00424000Y00600000D02*
D03*
X00425000Y00611000D02*
D03*
X00460500Y00667500D02*
D03*
X00461000Y00657000D02*
D03*
X00439000Y00667000D02*
D03*
X00398000Y00669000D02*
D03*
X00415000Y00669000D02*
D03*
X00535992Y00495995D02*
D03*
X00527991D02*
D03*
X00487991Y00511995D02*
D03*
X00479991Y00511995D02*
D03*
X00408000Y00440000D02*
D03*
X00415995Y00399995D02*
D03*
X00399991D02*
D03*
X00503991Y00415995D02*
D03*
X00511991D02*
D03*
X00487991Y00415995D02*
D03*
Y00407995D02*
D03*
X00495991Y00399995D02*
D03*
X00479991Y00415995D02*
D03*
X00511991Y00407995D02*
D03*
X00519991D02*
D03*
Y00415995D02*
D03*
X00535991Y00391995D02*
D03*
X00519991Y00391995D02*
D03*
X00487991Y00391995D02*
D03*
X00511992Y00391995D02*
D03*
X00495983Y00447991D02*
D03*
X00495996Y00463987D02*
D03*
Y00471987D02*
D03*
X00563288Y00429712D02*
D03*
X00567000Y00426000D02*
D03*
X00358000Y00516000D02*
D03*
Y00522000D02*
D03*
X00601488Y00594000D02*
D03*
X00519991Y00455995D02*
D03*
X00503991Y00479995D02*
D03*
X00503991Y00471995D02*
D03*
X00652834Y00502367D02*
D03*
X00649859Y00511084D02*
D03*
X00543991Y00447995D02*
D03*
X00656000Y00527425D02*
D03*
Y00532675D02*
D03*
X00570000Y00560000D02*
D03*
X00559436Y00534115D02*
D03*
X00463991Y00487995D02*
D03*
X00471991Y00487995D02*
D03*
Y00471995D02*
D03*
X00463992Y00471995D02*
D03*
X00463991Y00479995D02*
D03*
Y00439995D02*
D03*
X00357505Y00507512D02*
D03*
X00423992Y00543995D02*
D03*
X00416195Y00559949D02*
D03*
X00391991Y00559995D02*
D03*
X00383992Y00551995D02*
D03*
X00335267Y00470750D02*
D03*
X00618351Y00461500D02*
D03*
X00634149Y00396500D02*
D03*
Y00421500D02*
D03*
X00573851Y00396500D02*
D03*
Y00381500D02*
D03*
X00662108Y00512336D02*
D03*
X00519991Y00535995D02*
D03*
Y00527995D02*
D03*
X00335877Y00536998D02*
D03*
X00653992Y00596173D02*
D03*
X00638852Y00624573D02*
D03*
X00455992Y00415995D02*
D03*
X00426000Y00667999D02*
D03*
X00407000Y00665350D02*
D03*
X00503975Y00638000D02*
D03*
X00392444Y00659500D02*
D03*
X00419000Y00665350D02*
D03*
X00383991Y00471995D02*
D03*
X00324750Y00506500D02*
D03*
X00553648Y00427995D02*
D03*
X00455991Y00447995D02*
D03*
X00471991Y00519995D02*
D03*
X00487991Y00439995D02*
D03*
Y00447995D02*
D03*
X00415991Y00423995D02*
D03*
X00407991Y00399995D02*
D03*
X00407991Y00423995D02*
D03*
X00543991Y00503995D02*
D03*
X00535991Y00487995D02*
D03*
X00527991D02*
D03*
X00511991D02*
D03*
Y00455995D02*
D03*
X00535991D02*
D03*
X00455992Y00527995D02*
D03*
X00495991Y00519995D02*
D03*
X00495991Y00511995D02*
D03*
X00430900Y00287050D02*
D03*
X00418400Y00274350D02*
D03*
X00526248Y00357100D02*
D03*
Y00362529D02*
D03*
X00531300Y00273549D02*
D03*
X00503451D02*
D03*
X00479500Y00273700D02*
D03*
X00488000Y00334000D02*
D03*
X00480000D02*
D03*
X00472000D02*
D03*
X00505648Y00337321D02*
D03*
X00518900Y00337400D02*
D03*
X00505500Y00344000D02*
D03*
X00525000Y00337350D02*
D03*
X00537950D02*
D03*
X00525000Y00324650D02*
D03*
X00512550Y00337400D02*
D03*
X00505500Y00350679D02*
D03*
X00525150Y00312050D02*
D03*
X00538050D02*
D03*
X00499950Y00299350D02*
D03*
X00525350Y00273950D02*
D03*
X00525150Y00350050D02*
D03*
X00499950Y00312050D02*
D03*
X00512650Y00299270D02*
D03*
X00538050Y00299350D02*
D03*
X00563400Y00312050D02*
D03*
X00493587Y00305520D02*
D03*
Y00312000D02*
D03*
X00449963Y00312400D02*
D03*
X00364500Y00333609D02*
D03*
X00359125D02*
D03*
X00353750D02*
D03*
X00373937Y00312400D02*
D03*
X00443600Y00299750D02*
D03*
X00464000Y00324000D02*
D03*
Y00334000D02*
D03*
X00450113Y00305920D02*
D03*
X00373937D02*
D03*
X00443750Y00312450D02*
D03*
X00418400Y00299750D02*
D03*
X00393000Y00299670D02*
D03*
X00380300Y00312450D02*
D03*
X00418250Y00349750D02*
D03*
X00405700Y00274350D02*
D03*
X00393043D02*
D03*
X00380300Y00299750D02*
D03*
X00386402Y00351158D02*
D03*
X00405500Y00325050D02*
D03*
X00418300Y00337750D02*
D03*
X00407250D02*
D03*
X00399250Y00337800D02*
D03*
X00386550D02*
D03*
X00527991Y00455995D02*
D03*
X00535991Y00431995D02*
D03*
X00511991Y00423995D02*
D03*
X00519991Y00399995D02*
D03*
X00543991Y00495995D02*
D03*
X00519991Y00487995D02*
D03*
X00535991Y00527995D02*
D03*
Y00535995D02*
D03*
Y00551995D02*
D03*
X00527991Y00567995D02*
D03*
X00511991Y00535995D02*
D03*
X00503991Y00543995D02*
D03*
X00495991Y00535995D02*
D03*
X00495992Y00559995D02*
D03*
X00503991Y00551995D02*
D03*
X00487991Y00543995D02*
D03*
Y00551995D02*
D03*
X00479991D02*
D03*
Y00543995D02*
D03*
X00471991Y00551995D02*
D03*
X00503991Y00535995D02*
D03*
X00527991Y00527995D02*
D03*
X00495991D02*
D03*
X00479991D02*
D03*
X00527991Y00559995D02*
D03*
X00511991Y00511995D02*
D03*
X00471991Y00503995D02*
D03*
X00487991Y00503995D02*
D03*
X00455991Y00519995D02*
D03*
X00455992Y00511995D02*
D03*
Y00503995D02*
D03*
X00455991Y00495995D02*
D03*
X00471991Y00495995D02*
D03*
X00487991Y00487995D02*
D03*
X00447991Y00519995D02*
D03*
X00447991Y00511995D02*
D03*
Y00503995D02*
D03*
Y00495995D02*
D03*
X00439991Y00487995D02*
D03*
X00439991Y00495995D02*
D03*
X00439991Y00503995D02*
D03*
Y00511995D02*
D03*
Y00519995D02*
D03*
X00431992D02*
D03*
Y00511995D02*
D03*
Y00503995D02*
D03*
Y00495995D02*
D03*
Y00487995D02*
D03*
X00471991Y00423995D02*
D03*
X00479991Y00439995D02*
D03*
X00431991Y00455995D02*
D03*
X00439991D02*
D03*
X00447991D02*
D03*
X00431991Y00447995D02*
D03*
X00439991D02*
D03*
X00447991D02*
D03*
X00431991Y00439995D02*
D03*
X00415991Y00407995D02*
D03*
X00423992Y00423995D02*
D03*
X00415991Y00447995D02*
D03*
X00391991Y00439995D02*
D03*
X00399991Y00415995D02*
D03*
X00391991Y00399995D02*
D03*
X00391992Y00487995D02*
D03*
X00399991Y00503995D02*
D03*
X00391992Y00527995D02*
D03*
X00415992Y00535995D02*
D03*
X00439991Y00543995D02*
D03*
X00399991D02*
D03*
X00431992Y00527995D02*
D03*
X00455992Y00535995D02*
D03*
X00407991Y00519995D02*
D03*
X00447991Y00439995D02*
D03*
X00383991Y00495995D02*
D03*
X00383991Y00447995D02*
D03*
Y00527995D02*
D03*
X00535991Y00543995D02*
D03*
X00479991Y00519995D02*
D03*
X00487991D02*
D03*
X00479991Y00535995D02*
D03*
X00311644Y00521500D02*
D03*
Y00506500D02*
D03*
X00408000Y00358000D02*
D03*
Y00364250D02*
D03*
Y00371000D02*
D03*
X00312039Y00491500D02*
D03*
X00527991Y00535995D02*
D03*
X00519991Y00519995D02*
D03*
X00511991Y00527995D02*
D03*
X00487991Y00535995D02*
D03*
X00487991Y00527995D02*
D03*
X00471991Y00543995D02*
D03*
X00471991Y00535995D02*
D03*
Y00527995D02*
D03*
X00455991Y00544035D02*
D03*
X00447991Y00543995D02*
D03*
X00431992Y00543995D02*
D03*
X00439991Y00535995D02*
D03*
X00431991Y00535995D02*
D03*
X00447991Y00535995D02*
D03*
X00495992Y00503995D02*
D03*
X00495991Y00487995D02*
D03*
X00503991Y00423995D02*
D03*
X00479991Y00447995D02*
D03*
X00511991Y00431995D02*
D03*
Y00439995D02*
D03*
X00527991Y00511995D02*
D03*
X00519991Y00463995D02*
D03*
X00527991D02*
D03*
X00535991D02*
D03*
X00503991Y00463995D02*
D03*
X00479991Y00463995D02*
D03*
X00511991Y00463995D02*
D03*
X00511992Y00471995D02*
D03*
X00519991D02*
D03*
X00527991D02*
D03*
X00407991Y00471995D02*
D03*
X00431992D02*
D03*
X00439991D02*
D03*
X00479991D02*
D03*
X00487991D02*
D03*
X00447991Y00487995D02*
D03*
Y00471995D02*
D03*
X00455992Y00471995D02*
D03*
X00423992Y00471995D02*
D03*
X00495992Y00479995D02*
D03*
X00649150Y00549100D02*
D03*
X00527991Y00479995D02*
D03*
X00543991Y00407995D02*
D03*
X00355250Y00561500D02*
D03*
X00337250Y00556500D02*
D03*
X00355250Y00546500D02*
D03*
Y00541500D02*
D03*
X00360250Y00531500D02*
D03*
X00526248Y00367958D02*
D03*
X00491000Y00575500D02*
D03*
X00543992Y00511995D02*
D03*
X00551991Y00567995D02*
D03*
X00543995Y00552009D02*
D03*
X00649150Y00472900D02*
D03*
X00472005Y00559991D02*
D03*
X00452000Y00665000D02*
D03*
X00512005Y00551991D02*
D03*
X00512005Y00543991D02*
D03*
X00447991Y00551995D02*
D03*
X00366327Y00504891D02*
D03*
X00389103Y00668201D02*
D03*
X00511991Y00519995D02*
D03*
X00600599Y00584000D02*
D03*
X00571000Y00533649D02*
D03*
X00574000Y00548000D02*
D03*
X00572650Y00471217D02*
D03*
X00618351Y00541500D02*
D03*
X00503991Y00487995D02*
D03*
X00563000Y00388000D02*
D03*
X00503991Y00495995D02*
D03*
X00388000Y00359000D02*
D03*
Y00364250D02*
D03*
X00526248Y00373388D02*
D03*
X00533500Y00379250D02*
D03*
X00486250Y00579750D02*
D03*
X00374000Y00397000D02*
D03*
X00407991Y00463995D02*
D03*
X00503991Y00407995D02*
D03*
X00557080Y00436547D02*
D03*
X00429500Y00605250D02*
D03*
X00395500Y00621750D02*
D03*
X00383500Y00613750D02*
D03*
X00404500Y00592750D02*
D03*
X00390500Y00614500D02*
D03*
X00495992Y00391995D02*
D03*
X00503992D02*
D03*
X00501250Y00382000D02*
D03*
X00429509Y00374741D02*
D03*
X00434500Y00369750D02*
D03*
X00472500Y00361250D02*
D03*
X00525250Y00331000D02*
D03*
X00550500Y00326750D02*
D03*
X00551750Y00339750D02*
D03*
X00552000Y00358250D02*
D03*
X00546750Y00339750D02*
D03*
X00556750D02*
D03*
X00624750Y00333000D02*
D03*
X00561750Y00339750D02*
D03*
X00618500Y00391750D02*
D03*
X00617250Y00383250D02*
D03*
X00474750Y00645000D02*
D03*
X00472000Y00611750D02*
D03*
X00477250Y00607750D02*
D03*
X00507000Y00579000D02*
D03*
X00661750Y00530000D02*
D03*
X00663750Y00492250D02*
D03*
X00475000Y00579750D02*
D03*
X00655500Y00404750D02*
D03*
X00557500Y00382500D02*
D03*
X00431992Y00567995D02*
D03*
X00290000Y00457750D02*
D03*
X00293250Y00462250D02*
D03*
X00634978Y00371272D02*
D03*
X00351500Y00579000D02*
D03*
X00573851Y00496500D02*
D03*
X00573000Y00502500D02*
D03*
X00595250Y00359000D02*
D03*
X00566750Y00339750D02*
D03*
X00539000Y00379250D02*
D03*
X00291500Y00526250D02*
D03*
X00320250Y00526000D02*
D03*
X00479000Y00391000D02*
D03*
X00563250Y00299350D02*
D03*
X00519991Y00439995D02*
D03*
X00615250Y00263000D02*
D03*
X00615000Y00332750D02*
D03*
X00650250Y00305000D02*
D03*
X00635500Y00300750D02*
D03*
X00630500D02*
D03*
X00625500D02*
D03*
X00635500Y00295750D02*
D03*
X00630500D02*
D03*
X00625500D02*
D03*
X00560400Y00269000D02*
D03*
X00567250Y00287500D02*
D03*
X00494500Y00274000D02*
D03*
X00551250Y00285500D02*
D03*
X00517750Y00261000D02*
D03*
X00511500Y00273250D02*
D03*
X00536250Y00286500D02*
D03*
X00616250Y00272500D02*
D03*
X00643250Y00298000D02*
D03*
X00609750Y00336250D02*
D03*
X00613250Y00362750D02*
D03*
X00627250Y00358250D02*
D03*
X00535991Y00423995D02*
D03*
Y00439995D02*
D03*
X00511991Y00495995D02*
D03*
X00519991D02*
D03*
X00503991Y00503995D02*
D03*
X00511992Y00503995D02*
D03*
X00519991Y00503995D02*
D03*
X00357250Y00496000D02*
D03*
X00310250Y00446500D02*
D03*
X00275000Y00541750D02*
D03*
X00282750Y00546500D02*
D03*
X00281000Y00554000D02*
D03*
X00264750Y00578250D02*
D03*
X00322250Y00454250D02*
D03*
X00321000Y00460750D02*
D03*
X00330250Y00430250D02*
D03*
X00311500Y00368000D02*
D03*
X00354250Y00381500D02*
D03*
X00293250Y00414750D02*
D03*
X00575250Y00323500D02*
D03*
X00471000Y00273000D02*
D03*
X00407000Y00264000D02*
D03*
X00262500Y00541000D02*
D03*
X00265000Y00585250D02*
D03*
X00279750Y00584000D02*
D03*
X00495991Y00431995D02*
D03*
X00503991Y00511995D02*
D03*
X00439991Y00415995D02*
D03*
X00471992Y00455995D02*
D03*
X00455991Y00463995D02*
D03*
X00568250Y00281000D02*
D03*
X00593750Y00289750D02*
D03*
X00588875D02*
D03*
X00598625D02*
D03*
X00583000Y00322500D02*
D03*
X00296000Y00358750D02*
D03*
X00551500Y00276250D02*
D03*
X00335750Y00446500D02*
D03*
X00271000Y00464500D02*
D03*
X00371500Y00416500D02*
D03*
X00330788Y00448962D02*
D03*
X00590417Y00359000D02*
D03*
X00550500Y00333750D02*
D03*
X00431250Y00596500D02*
D03*
X00595250Y00353250D02*
D03*
Y00347750D02*
D03*
Y00342250D02*
D03*
X00556750Y00345000D02*
D03*
Y00350250D02*
D03*
X00561750D02*
D03*
Y00345000D02*
D03*
X00585583Y00359000D02*
D03*
X00580750D02*
D03*
X00559250Y00354500D02*
D03*
X00655000Y00415250D02*
D03*
Y00410000D02*
D03*
X00564686Y00534115D02*
D03*
X00535991Y00415995D02*
D03*
Y00407995D02*
D03*
X00527991Y00551995D02*
D03*
Y00543995D02*
D03*
X00356671Y00438677D02*
D03*
Y00433427D02*
D03*
X00469250Y00627000D02*
D03*
X00467750Y00632750D02*
D03*
X00460934Y00611705D02*
D03*
X00466184D02*
D03*
X00439750Y00573500D02*
D03*
Y00568250D02*
D03*
X00374199Y00426625D02*
D03*
Y00421375D02*
D03*
X00495991Y00423995D02*
D03*
Y00415995D02*
D03*
X00361500Y00396625D02*
D03*
Y00391375D02*
D03*
X00337462Y00409712D02*
D03*
X00333750Y00406000D02*
D03*
X00293250Y00426625D02*
D03*
Y00421375D02*
D03*
X00543991Y00423995D02*
D03*
Y00415995D02*
D03*
X00535991Y00447995D02*
D03*
X00527991D02*
D03*
X00293000Y00396625D02*
D03*
Y00391375D02*
D03*
X00355500Y00411625D02*
D03*
Y00406375D02*
D03*
X00321000Y00448000D02*
D03*
X00354941Y00456625D02*
D03*
Y00451375D02*
D03*
X00279524Y00456000D02*
D03*
X00284774D02*
D03*
X00639000Y00416625D02*
D03*
Y00411375D02*
D03*
X00552000Y00388000D02*
D03*
Y00382750D02*
D03*
X00543991Y00399995D02*
D03*
X00551991Y00399995D02*
D03*
X00265000Y00494375D02*
D03*
Y00489125D02*
D03*
X00635000Y00446625D02*
D03*
Y00441375D02*
D03*
X00270500Y00451250D02*
D03*
Y00446000D02*
D03*
X00317750Y00368000D02*
D03*
X00323000D02*
D03*
X00460934Y00585750D02*
D03*
X00466184D02*
D03*
X00479676Y00601669D02*
D03*
Y00596419D02*
D03*
X00502934Y00601669D02*
D03*
Y00596419D02*
D03*
X00554983Y00492000D02*
D03*
X00560233D02*
D03*
X00535991Y00567995D02*
D03*
Y00559995D02*
D03*
X00431250Y00585781D02*
D03*
X00564686Y00555500D02*
D03*
X00559436D02*
D03*
X00659000Y00494575D02*
D03*
Y00489325D02*
D03*
X00431250Y00591031D02*
D03*
X00367750Y00358000D02*
D03*
X00531875Y00636750D02*
D03*
X00523500D02*
D03*
X00540250D02*
D03*
Y00628375D02*
D03*
X00523500D02*
D03*
X00531875D02*
D03*
X00540250Y00620000D02*
D03*
X00523500D02*
D03*
X00531875D02*
D03*
X00409000Y00636000D02*
D03*
X00439894Y00645000D02*
D03*
Y00636000D02*
D03*
X00409000Y00645000D02*
D03*
X00288250Y00496750D02*
D03*
X00367931Y00438121D02*
D03*
X00373181D02*
D03*
X00367931Y00458750D02*
D03*
X00373181D02*
D03*
X00617750Y00525250D02*
D03*
X00616750Y00519500D02*
D03*
X00292750Y00381625D02*
D03*
Y00376375D02*
D03*
X00281750Y00561750D02*
D03*
X00284500Y00633000D02*
D03*
D106*
X01090001Y00620000D02*
D03*
Y00600000D02*
D03*
Y00580000D02*
D03*
Y00560000D02*
D03*
Y00540000D02*
D03*
Y00520000D02*
D03*
Y00500000D02*
D03*
Y00480000D02*
D03*
Y00460000D02*
D03*
Y00400000D02*
D03*
Y00380000D02*
D03*
Y00360000D02*
D03*
Y00340000D02*
D03*
Y00320000D02*
D03*
Y00300000D02*
D03*
X01070001Y00640000D02*
D03*
Y00620000D02*
D03*
Y00600000D02*
D03*
Y00560000D02*
D03*
Y00540000D02*
D03*
Y00520000D02*
D03*
Y00500000D02*
D03*
Y00480000D02*
D03*
Y00460000D02*
D03*
Y00320000D02*
D03*
Y00300000D02*
D03*
Y00280000D02*
D03*
X01050001Y00640000D02*
D03*
Y00620000D02*
D03*
Y00600000D02*
D03*
Y00580000D02*
D03*
Y00560000D02*
D03*
Y00340000D02*
D03*
Y00320000D02*
D03*
Y00280000D02*
D03*
X01030001Y00640000D02*
D03*
Y00620000D02*
D03*
Y00600000D02*
D03*
Y00580000D02*
D03*
Y00560000D02*
D03*
Y00500000D02*
D03*
Y00460000D02*
D03*
Y00340000D02*
D03*
Y00320000D02*
D03*
Y00300000D02*
D03*
Y00280000D02*
D03*
X01010001Y00640000D02*
D03*
Y00620000D02*
D03*
Y00600000D02*
D03*
Y00580000D02*
D03*
Y00560000D02*
D03*
Y00520000D02*
D03*
Y00500000D02*
D03*
Y00480000D02*
D03*
Y00340000D02*
D03*
Y00320000D02*
D03*
Y00300000D02*
D03*
Y00280000D02*
D03*
X00990001Y00640000D02*
D03*
Y00620000D02*
D03*
Y00600000D02*
D03*
Y00580000D02*
D03*
Y00560000D02*
D03*
Y00520000D02*
D03*
Y00500000D02*
D03*
Y00400000D02*
D03*
Y00340000D02*
D03*
Y00300000D02*
D03*
Y00280000D02*
D03*
X00970001Y00640000D02*
D03*
Y00620000D02*
D03*
Y00600000D02*
D03*
Y00560000D02*
D03*
Y00520000D02*
D03*
Y00500000D02*
D03*
Y00460000D02*
D03*
Y00420000D02*
D03*
Y00400000D02*
D03*
Y00340000D02*
D03*
Y00320000D02*
D03*
Y00300000D02*
D03*
Y00280000D02*
D03*
X00950001Y00640000D02*
D03*
Y00620000D02*
D03*
Y00600000D02*
D03*
Y00580000D02*
D03*
Y00560000D02*
D03*
Y00340000D02*
D03*
Y00320000D02*
D03*
Y00300000D02*
D03*
X00930001Y00640000D02*
D03*
Y00600000D02*
D03*
Y00580000D02*
D03*
Y00560000D02*
D03*
Y00340000D02*
D03*
Y00320000D02*
D03*
Y00300000D02*
D03*
Y00280000D02*
D03*
X00910001Y00640000D02*
D03*
Y00620000D02*
D03*
Y00600000D02*
D03*
Y00560000D02*
D03*
Y00340000D02*
D03*
Y00320000D02*
D03*
Y00300000D02*
D03*
Y00280000D02*
D03*
X00890001Y00620000D02*
D03*
Y00600000D02*
D03*
Y00340000D02*
D03*
Y00320000D02*
D03*
Y00300000D02*
D03*
Y00280000D02*
D03*
X00870001Y00580000D02*
D03*
Y00560000D02*
D03*
Y00400000D02*
D03*
Y00380000D02*
D03*
Y00360000D02*
D03*
Y00340000D02*
D03*
Y00320000D02*
D03*
Y00300000D02*
D03*
Y00280000D02*
D03*
X00850001Y00620000D02*
D03*
Y00600000D02*
D03*
Y00580000D02*
D03*
Y00560000D02*
D03*
Y00540000D02*
D03*
Y00520000D02*
D03*
Y00460000D02*
D03*
Y00420000D02*
D03*
Y00400000D02*
D03*
Y00380000D02*
D03*
Y00360000D02*
D03*
Y00340000D02*
D03*
Y00320000D02*
D03*
Y00300000D02*
D03*
Y00280000D02*
D03*
X00830001Y00640000D02*
D03*
Y00620000D02*
D03*
Y00600000D02*
D03*
Y00580000D02*
D03*
Y00560000D02*
D03*
Y00540000D02*
D03*
Y00520000D02*
D03*
Y00420000D02*
D03*
Y00400000D02*
D03*
Y00380000D02*
D03*
Y00360000D02*
D03*
Y00340000D02*
D03*
Y00320000D02*
D03*
X00810001Y00640000D02*
D03*
Y00620000D02*
D03*
Y00600000D02*
D03*
Y00580000D02*
D03*
Y00560000D02*
D03*
Y00540000D02*
D03*
Y00520000D02*
D03*
Y00380000D02*
D03*
Y00360000D02*
D03*
Y00340000D02*
D03*
Y00320000D02*
D03*
Y00300000D02*
D03*
Y00280000D02*
D03*
X00790001Y00640000D02*
D03*
Y00620000D02*
D03*
Y00600000D02*
D03*
Y00560000D02*
D03*
Y00540000D02*
D03*
Y00520000D02*
D03*
Y00500000D02*
D03*
Y00480000D02*
D03*
Y00420000D02*
D03*
Y00380000D02*
D03*
Y00360000D02*
D03*
Y00320000D02*
D03*
Y00300000D02*
D03*
X00770001Y00640000D02*
D03*
Y00620000D02*
D03*
Y00600000D02*
D03*
Y00580000D02*
D03*
Y00500000D02*
D03*
Y00380000D02*
D03*
Y00360000D02*
D03*
Y00340000D02*
D03*
Y00320000D02*
D03*
Y00300000D02*
D03*
X00750001Y00640000D02*
D03*
Y00620000D02*
D03*
Y00600000D02*
D03*
Y00580000D02*
D03*
Y00560000D02*
D03*
Y00520000D02*
D03*
Y00440000D02*
D03*
Y00360000D02*
D03*
Y00340000D02*
D03*
Y00320000D02*
D03*
Y00300000D02*
D03*
Y00280000D02*
D03*
X00730001Y00600000D02*
D03*
Y00580000D02*
D03*
Y00560000D02*
D03*
Y00540000D02*
D03*
Y00520000D02*
D03*
Y00500000D02*
D03*
Y00480000D02*
D03*
Y00460000D02*
D03*
Y00440000D02*
D03*
Y00420000D02*
D03*
Y00400000D02*
D03*
Y00380000D02*
D03*
Y00360000D02*
D03*
Y00340000D02*
D03*
Y00320000D02*
D03*
Y00300000D02*
D03*
D114*
X00664500Y00402500D02*
D03*
X00645500D02*
D03*
X00655000Y00425500D02*
D03*
D115*
X00593250Y00272250D02*
D03*
D116*
X00608250Y00262750D02*
D03*
Y00272250D02*
D03*
Y00281750D02*
D03*
X00578250D02*
D03*
X00578250Y00272250D02*
D03*
X00578250Y00262750D02*
D03*
D117*
X00303750Y00281850D02*
D03*
X00303750Y00294550D02*
D03*
X00303750Y00307250D02*
D03*
Y00319950D02*
D03*
X00360750D02*
D03*
Y00307250D02*
D03*
X00360750Y00294550D02*
D03*
X00360750Y00281850D02*
D03*
D118*
X00332250Y00300900D02*
D03*
D119*
X00626250Y00456500D02*
D03*
Y00441500D02*
D03*
Y00446500D02*
D03*
Y00366500D02*
D03*
Y00371500D02*
D03*
Y00376500D02*
D03*
Y00381500D02*
D03*
Y00386500D02*
D03*
Y00391500D02*
D03*
Y00396500D02*
D03*
Y00401500D02*
D03*
Y00406500D02*
D03*
X00581750Y00366500D02*
D03*
Y00371500D02*
D03*
Y00376500D02*
D03*
Y00381500D02*
D03*
Y00386500D02*
D03*
Y00391500D02*
D03*
Y00396500D02*
D03*
Y00401500D02*
D03*
Y00406500D02*
D03*
X00626250Y00561500D02*
D03*
Y00556500D02*
D03*
Y00551500D02*
D03*
Y00546500D02*
D03*
Y00541500D02*
D03*
Y00536500D02*
D03*
Y00531500D02*
D03*
Y00526500D02*
D03*
Y00521500D02*
D03*
Y00516500D02*
D03*
Y00511500D02*
D03*
Y00506500D02*
D03*
Y00501500D02*
D03*
Y00496500D02*
D03*
Y00491500D02*
D03*
Y00486500D02*
D03*
Y00481500D02*
D03*
Y00476500D02*
D03*
Y00471500D02*
D03*
Y00466500D02*
D03*
Y00461500D02*
D03*
Y00451500D02*
D03*
Y00436500D02*
D03*
Y00421500D02*
D03*
X00581750Y00561500D02*
D03*
Y00556500D02*
D03*
Y00551500D02*
D03*
Y00546500D02*
D03*
Y00541500D02*
D03*
Y00536500D02*
D03*
Y00531500D02*
D03*
Y00526500D02*
D03*
Y00521500D02*
D03*
Y00516500D02*
D03*
Y00511500D02*
D03*
Y00506500D02*
D03*
Y00501500D02*
D03*
Y00496500D02*
D03*
Y00491500D02*
D03*
Y00486500D02*
D03*
Y00481500D02*
D03*
Y00476500D02*
D03*
Y00471500D02*
D03*
Y00466500D02*
D03*
Y00461500D02*
D03*
Y00456500D02*
D03*
Y00451500D02*
D03*
Y00446500D02*
D03*
Y00441500D02*
D03*
Y00436500D02*
D03*
Y00421500D02*
D03*
Y00416500D02*
D03*
Y00411500D02*
D03*
Y00431500D02*
D03*
Y00426500D02*
D03*
X00626250Y00431500D02*
D03*
Y00426500D02*
D03*
Y00416500D02*
D03*
Y00411500D02*
D03*
X00346250Y00466500D02*
D03*
Y00471500D02*
D03*
X00301750Y00391500D02*
D03*
Y00396500D02*
D03*
X00346250Y00556500D02*
D03*
Y00561500D02*
D03*
Y00526500D02*
D03*
Y00531500D02*
D03*
X00301750Y00481500D02*
D03*
Y00486500D02*
D03*
Y00511500D02*
D03*
Y00516500D02*
D03*
Y00526500D02*
D03*
Y00531500D02*
D03*
X00346250Y00511500D02*
D03*
Y00516500D02*
D03*
X00301750Y00556500D02*
D03*
Y00561500D02*
D03*
X00346250Y00376500D02*
D03*
Y00381500D02*
D03*
Y00386500D02*
D03*
Y00401500D02*
D03*
Y00406500D02*
D03*
Y00411500D02*
D03*
X00301750Y00366500D02*
D03*
Y00371500D02*
D03*
Y00376500D02*
D03*
Y00381500D02*
D03*
Y00386500D02*
D03*
Y00401500D02*
D03*
Y00416500D02*
D03*
X00346250Y00551500D02*
D03*
Y00546500D02*
D03*
Y00541500D02*
D03*
Y00536500D02*
D03*
Y00521500D02*
D03*
Y00506500D02*
D03*
Y00501500D02*
D03*
Y00496500D02*
D03*
Y00491500D02*
D03*
Y00486500D02*
D03*
Y00481500D02*
D03*
Y00476500D02*
D03*
Y00461500D02*
D03*
Y00446500D02*
D03*
Y00431500D02*
D03*
Y00416500D02*
D03*
X00301750Y00551500D02*
D03*
Y00546500D02*
D03*
Y00541500D02*
D03*
Y00536500D02*
D03*
Y00521500D02*
D03*
Y00506500D02*
D03*
Y00501500D02*
D03*
Y00496500D02*
D03*
Y00491500D02*
D03*
Y00476500D02*
D03*
Y00461500D02*
D03*
Y00446500D02*
D03*
Y00431500D02*
D03*
Y00426500D02*
D03*
Y00421500D02*
D03*
X00346250Y00441500D02*
D03*
Y00436500D02*
D03*
Y00456500D02*
D03*
Y00451500D02*
D03*
Y00426500D02*
D03*
Y00421500D02*
D03*
X00301750Y00411500D02*
D03*
Y00406500D02*
D03*
X00346250Y00396500D02*
D03*
Y00391500D02*
D03*
X00301750Y00471500D02*
D03*
Y00466500D02*
D03*
Y00456500D02*
D03*
Y00451500D02*
D03*
Y00441500D02*
D03*
Y00436500D02*
D03*
X00346250Y00371500D02*
D03*
Y00366500D02*
D03*
D120*
X00514000Y00631500D02*
D03*
Y00625000D02*
D03*
X00551000Y00618500D02*
D03*
X00551000Y00625000D02*
D03*
X00551000Y00631500D02*
D03*
X00551000Y00638000D02*
D03*
X00514000Y00638000D02*
D03*
Y00618500D02*
D03*
D121*
X00532500Y00628250D02*
D03*
D122*
X00522750Y00609750D02*
D03*
X00529250Y00609750D02*
D03*
X00535750Y00609750D02*
D03*
X00542250Y00609750D02*
D03*
X00535750Y00646750D02*
D03*
X00529250D02*
D03*
X00522750D02*
D03*
D123*
X00724250Y00616500D02*
D03*
X00302500Y00633750D02*
D03*
D124*
X00484750Y00371500D02*
D03*
X00513750D02*
D03*
D125*
X00513470Y00346000D02*
D03*
X00497470D02*
D03*
X00430000Y00346158D02*
D03*
X00446000D02*
D03*
X00394250Y00346250D02*
D03*
X00410250D02*
D03*
X00549250Y00348500D02*
D03*
X00533250D02*
D03*
D126*
X00603750Y00310400D02*
D03*
Y00319600D02*
D03*
D127*
X00415323Y00455323D02*
D03*
X00408677Y00448677D02*
D03*
D128*
X00572818Y00640818D02*
D03*
X00579182Y00647182D02*
D03*
D129*
X00565250Y00367500D02*
D03*
X00537250D02*
D03*
X00418750Y00365000D02*
D03*
X00446750Y00365000D02*
D03*
X00447250Y00586250D02*
D03*
X00419250Y00586250D02*
D03*
D130*
X00666500Y00321500D02*
D03*
Y00302500D02*
D03*
X00643500Y00312000D02*
D03*
M02*
