G04 Layer_Physical_Order=3*
G04 Layer_Color=36540*
%FSAX44Y44*%
%MOMM*%
G71*
G01*
G75*
%ADD11C,0.1250*%
%ADD13C,0.3000*%
%ADD65C,0.1000*%
%ADD66C,0.2000*%
%ADD67C,0.3048*%
%ADD76C,0.2540*%
%ADD84R,1.5000X1.3000*%
%ADD85C,0.8000*%
%ADD86C,2.4000*%
%ADD92C,0.4000*%
%ADD106P,0.7071X4X90.0*%
%ADD107C,0.1200*%
G36*
X00354182Y00671961D02*
X00354613Y00670691D01*
X00352772Y00669278D01*
X00350608Y00666458D01*
X00349248Y00663174D01*
X00348981Y00661150D01*
X00362400D01*
Y00659650D01*
X00363900D01*
Y00646231D01*
X00365924Y00646497D01*
X00369208Y00647858D01*
X00372028Y00650022D01*
X00374192Y00652842D01*
X00375230Y00655347D01*
X00376500Y00655095D01*
Y00613405D01*
X00375230Y00613153D01*
X00374192Y00615658D01*
X00372028Y00618478D01*
X00369208Y00620642D01*
X00365924Y00622002D01*
X00363900Y00622269D01*
Y00608850D01*
X00362400D01*
Y00607350D01*
X00348981D01*
X00349248Y00605326D01*
X00350608Y00602042D01*
X00352772Y00599222D01*
X00354664Y00597770D01*
X00354232Y00596500D01*
X00319768D01*
X00319336Y00597770D01*
X00321228Y00599222D01*
X00323392Y00602042D01*
X00324753Y00605326D01*
X00325019Y00607350D01*
X00311600D01*
Y00608850D01*
X00310100D01*
Y00622269D01*
X00308076Y00622002D01*
X00304792Y00620642D01*
X00301972Y00618478D01*
X00300270Y00616261D01*
X00299000Y00616692D01*
Y00651808D01*
X00300270Y00652239D01*
X00301972Y00650022D01*
X00304792Y00647858D01*
X00308076Y00646497D01*
X00310100Y00646231D01*
Y00659650D01*
X00311600D01*
Y00661150D01*
X00325019D01*
X00324753Y00663174D01*
X00323392Y00666458D01*
X00321228Y00669278D01*
X00319387Y00670691D01*
X00319819Y00671961D01*
X00354182D01*
D02*
G37*
%LPC*%
G36*
X00313100Y00622269D02*
Y00610350D01*
X00325019D01*
X00324753Y00612374D01*
X00323392Y00615658D01*
X00321228Y00618478D01*
X00318408Y00620642D01*
X00315124Y00622002D01*
X00313100Y00622269D01*
D02*
G37*
G36*
X00360900D02*
X00358876Y00622002D01*
X00355592Y00620642D01*
X00352772Y00618478D01*
X00350608Y00615658D01*
X00349248Y00612374D01*
X00348981Y00610350D01*
X00360900D01*
Y00622269D01*
D02*
G37*
G36*
X00337000Y00644841D02*
X00334259Y00644480D01*
X00331705Y00643422D01*
X00329511Y00641739D01*
X00327828Y00639545D01*
X00326770Y00636991D01*
X00326409Y00634250D01*
X00326770Y00631509D01*
X00327828Y00628955D01*
X00329511Y00626761D01*
X00331705Y00625078D01*
X00334259Y00624020D01*
X00337000Y00623659D01*
X00339741Y00624020D01*
X00342295Y00625078D01*
X00344489Y00626761D01*
X00346172Y00628955D01*
X00347230Y00631509D01*
X00347591Y00634250D01*
X00347230Y00636991D01*
X00346172Y00639545D01*
X00344489Y00641739D01*
X00342295Y00643422D01*
X00339741Y00644480D01*
X00337000Y00644841D01*
D02*
G37*
G36*
X00360900Y00658150D02*
X00348981D01*
X00349248Y00656126D01*
X00350608Y00652842D01*
X00352772Y00650022D01*
X00355592Y00647858D01*
X00358876Y00646497D01*
X00360900Y00646231D01*
Y00658150D01*
D02*
G37*
G36*
X00325019D02*
X00313100D01*
Y00646231D01*
X00315124Y00646497D01*
X00318408Y00647858D01*
X00321228Y00650022D01*
X00323392Y00652842D01*
X00324753Y00656126D01*
X00325019Y00658150D01*
D02*
G37*
%LPD*%
D11*
X00989000Y00383960D02*
X00995000Y00389960D01*
X00357505Y00501512D02*
X00357644D01*
D13*
X01060344Y00565000D02*
X01107000Y00518344D01*
X01045460Y00565000D02*
X01060344D01*
X00991118Y00619342D02*
X01045460Y00565000D01*
X01107000Y00506460D02*
Y00518344D01*
Y00342960D02*
Y00506460D01*
X01038000Y00305960D02*
X01056000Y00323960D01*
X01038000Y00301960D02*
Y00305960D01*
X00936300Y00619342D02*
X00991118D01*
X01088000Y00323960D02*
X01107000Y00342960D01*
X01056000Y00323960D02*
X01088000D01*
X01037250Y00301210D02*
X01038000Y00301960D01*
D65*
X00498685Y00629850D02*
G03*
X00499710Y00630875I00000000J00001025D01*
G01*
X00494130Y00629850D02*
G03*
X00488050Y00623770I00000000J-00006080D01*
G01*
X00487250Y00600750D02*
G03*
X00488050Y00601550I00000000J00000800D01*
G01*
X00499710Y00625625D02*
G03*
X00498685Y00626650I-00001025J00000000D01*
G01*
X00494130D02*
G03*
X00491250Y00623770I00000000J-00002880D01*
G01*
X00487250Y00597550D02*
G03*
X00491250Y00601550I00000000J00004000D01*
G01*
X00560263Y00447013D02*
G03*
X00555465Y00449000I-00004798J-00004798D01*
G01*
X00560263Y00447013D02*
G03*
X00560897Y00446750I00000634J00000634D01*
G01*
X00549811Y00452964D02*
G03*
X00545500Y00454750I-00004311J-00004311D01*
G01*
X00552910Y00449866D02*
G03*
X00555000Y00449000I00002090J00002090D01*
G01*
X00577950Y00442400D02*
G03*
X00577250Y00441700I00000000J-00000700D01*
G01*
X00575250Y00442400D02*
G03*
X00574550Y00443100I-00000700J00000000D01*
G01*
X00573950D02*
G03*
X00573250Y00442400I00000000J-00000700D01*
G01*
X00576550Y00439650D02*
G03*
X00577250Y00440350I00000000J00000700D01*
G01*
X00575250D02*
G03*
X00575950Y00439650I00000700J00000000D01*
G01*
X00572550D02*
G03*
X00573250Y00440350I00000000J00000700D01*
G01*
X00547207Y00451043D02*
G03*
X00545500Y00451750I-00001707J-00001707D01*
G01*
X00571250Y00440350D02*
G03*
X00571950Y00439650I00000700J00000000D01*
G01*
X00571250Y00441700D02*
G03*
X00570550Y00442400I-00000700J00000000D01*
G01*
X00550647Y00447603D02*
G03*
X00555000Y00445800I00004353J00004353D01*
G01*
X00558000Y00444750D02*
G03*
X00560897Y00443550I00002897J00002897D01*
G01*
X00558000Y00444750D02*
G03*
X00555465Y00445800I-00002535J-00002535D01*
G01*
X00651750Y00414500D02*
G03*
X00647482Y00412732I00000000J-00006036D01*
G01*
X00638250Y00406750D02*
G03*
X00643798Y00409048I00000000J00007846D01*
G01*
X00626250Y00407550D02*
G03*
X00627050Y00406750I00000800J00000000D01*
G01*
X00626250Y00407550D02*
G03*
X00625450Y00408350I-00000800J00000000D01*
G01*
X00551763Y00419729D02*
G03*
X00547500Y00421495I-00004263J-00004263D01*
G01*
X00545778Y00422209D02*
G03*
X00547500Y00421495I00001722J00001722D01*
G01*
X00625050Y00408350D02*
G03*
X00624250Y00407550I00000000J-00000800D01*
G01*
X00623450Y00406750D02*
G03*
X00624250Y00407550I00000000J00000800D01*
G01*
X00556857Y00414636D02*
G03*
X00575895Y00406750I00019038J00019038D01*
G01*
X00651750Y00411500D02*
G03*
X00649604Y00410611I00000000J-00003036D01*
G01*
X00638250Y00403750D02*
G03*
X00645919Y00406927I00000000J00010846D01*
G01*
X00549642Y00417608D02*
G03*
X00547500Y00418495I-00002142J-00002142D01*
G01*
D02*
G03*
X00545778Y00417782I00000000J-00002435D01*
G01*
X00554735Y00412514D02*
G03*
X00575895Y00403750I00021160J00021160D01*
G01*
X00546700Y00315172D02*
G03*
X00543763Y00322263I-00010028J00000000D01*
G01*
X00540000Y00361500D02*
G03*
X00533000Y00344600I00016900J-00016900D01*
G01*
X00535101Y00330925D02*
G03*
X00535103Y00330922I00005080J00005075D01*
G01*
X00534257Y00278800D02*
G03*
X00543763Y00282737I00000000J00013443D01*
G01*
X00533000Y00336000D02*
G03*
X00535101Y00330925I00007181J00000000D01*
G01*
X00422250Y00280500D02*
G03*
X00426354Y00278800I00004104J00004104D01*
G01*
X00422250Y00280500D02*
G03*
X00420922Y00281050I-00001328J-00001328D01*
G01*
X00304000Y00297000D02*
G03*
X00293619Y00301300I-00010381J-00010381D01*
G01*
X00278629Y00305596D02*
G03*
X00289000Y00301300I00010372J00010372D01*
G01*
X00311573Y00289427D02*
G03*
X00331796Y00281050I00020223J00020223D01*
G01*
X00264800Y00383871D02*
G03*
X00267237Y00377987I00008321J00000000D01*
G01*
X00266750Y00403000D02*
G03*
X00264800Y00398292I00004708J-00004708D01*
G01*
X00267237Y00321584D02*
G03*
X00270487Y00313737I00011096J00000000D01*
G01*
X00542542Y00373741D02*
G03*
X00542540Y00373742I-00000495J-00000495D01*
G01*
D02*
G03*
X00541552Y00373741I-00000493J-00000497D01*
G01*
X00541128Y00373316D02*
G03*
X00541126Y00373314I00000495J-00000495D01*
G01*
D02*
G03*
X00541126Y00372328I00000497J-00000493D01*
G01*
D02*
G03*
X00541128Y00372326I00000497J00000493D01*
G01*
X00545622Y00371647D02*
G03*
X00545624Y00371649I-00000493J00000497D01*
G01*
X00544636Y00371647D02*
G03*
X00545622Y00371647I00000493J00000497D01*
G01*
X00544634Y00371649D02*
G03*
X00544636Y00371647I00000495J00000495D01*
G01*
X00543717Y00369738D02*
G03*
X00543714Y00369740I-00000497J-00000493D01*
G01*
X00543716Y00368752D02*
G03*
X00543717Y00369738I-00000497J00000493D01*
G01*
X00543714Y00368750D02*
G03*
X00543716Y00368752I-00000495J00000495D01*
G01*
X00543288Y00368324D02*
G03*
X00543290Y00368326I-00000493J00000497D01*
G01*
X00542300Y00368326D02*
G03*
X00543288Y00368324I00000495J00000495D01*
G01*
X00540393Y00367405D02*
G03*
X00540391Y00367407I-00000497J-00000493D01*
G01*
X00540393Y00366418D02*
G03*
X00540393Y00367405I-00000497J00000493D01*
G01*
X00543500Y00315172D02*
G03*
X00541500Y00320000I-00006828J00000000D01*
G01*
Y00285000D02*
G03*
X00543500Y00289828I-00004828J00004828D01*
G01*
X00540391Y00366417D02*
G03*
X00540393Y00366418I-00000495J00000495D01*
G01*
X00539714Y00370912D02*
G03*
X00538726Y00370914I-00000495J-00000495D01*
G01*
D02*
G03*
X00538724Y00370912I00000493J-00000497D01*
G01*
X00538300Y00370488D02*
G03*
X00538298Y00370486I00000495J-00000495D01*
G01*
D02*
G03*
X00538298Y00369500I00000497J-00000493D01*
G01*
X00269013Y00400737D02*
G03*
X00271200Y00406018I-00005281J00005281D01*
G01*
X00269013Y00400737D02*
G03*
X00268000Y00398292I00002445J-00002445D01*
G01*
X00270437Y00377987D02*
G03*
X00269500Y00380250I-00003200J00000000D01*
G01*
X00268000Y00383871D02*
G03*
X00269500Y00380250I00005121J00000000D01*
G01*
X00538298Y00369500D02*
G03*
X00538300Y00369498I00000497J00000493D01*
G01*
X00534257Y00282000D02*
G03*
X00541500Y00285000I00000000J00010243D01*
G01*
X00537737Y00363763D02*
G03*
X00529800Y00344600I00019162J-00019162D01*
G01*
Y00336000D02*
G03*
X00532840Y00328660I00010381J00000000D01*
G01*
X00280891Y00307859D02*
G03*
X00289000Y00304500I00008109J00008109D01*
G01*
X00306263Y00299263D02*
G03*
X00293619Y00304500I-00012644J-00012644D01*
G01*
X00270437Y00321584D02*
G03*
X00272750Y00316000I00007896J00000000D01*
G01*
X00424513Y00282763D02*
G03*
X00420922Y00284250I-00003591J-00003591D01*
G01*
X00424513Y00282763D02*
G03*
X00426354Y00282000I00001841J00001841D01*
G01*
X00313836Y00291689D02*
G03*
X00331796Y00284250I00017960J00017960D01*
G01*
X00502336Y00359828D02*
G03*
X00498250Y00349964I00009864J-00009864D01*
G01*
X00492500Y00330500D02*
G03*
X00498250Y00344382I-00013882J00013882D01*
G01*
X00446098Y00295250D02*
G03*
X00465136Y00303136I00000000J00026924D01*
G01*
X00321364D02*
G03*
X00340402Y00295250I00019038J00019038D01*
G01*
X00280200Y00443675D02*
G03*
X00273750Y00450125I-00006450J00000000D01*
G01*
X00276871Y00396129D02*
G03*
X00280200Y00404165I-00008036J00008036D01*
G01*
X00276871Y00396129D02*
G03*
X00276000Y00394025I00002104J-00002104D01*
G01*
X00270500Y00451250D02*
G03*
X00271625Y00450125I00001125J00000000D01*
G01*
X00279250Y00381379D02*
G03*
X00277750Y00385000I-00005121J00000000D01*
G01*
X00279250Y00356402D02*
G03*
X00287136Y00337364I00026924J00000000D01*
G01*
X00276000Y00387500D02*
G03*
X00276529Y00386221I00001811J00000000D01*
G01*
D02*
G03*
X00276530Y00386220I00001282J00001279D01*
G01*
X00527687Y00380937D02*
G03*
X00527686Y00380936I00000566J-00000566D01*
G01*
X00527686Y00379807D02*
G03*
X00527687Y00379806I00000567J00000565D01*
G01*
X00527686Y00380936D02*
G03*
X00527686Y00379807I00000567J-00000565D01*
G01*
X00526272Y00378392D02*
G03*
X00525142Y00378392I-00000565J-00000567D01*
G01*
D02*
G03*
X00525141Y00378391I00000565J-00000567D01*
G01*
X00529193Y00377170D02*
G03*
X00529193Y00378300I-00000567J00000565D01*
G01*
D02*
G03*
X00529192Y00378301I-00000567J-00000565D01*
G01*
Y00377169D02*
G03*
X00529193Y00377170I-00000566J00000566D01*
G01*
X00528908Y00376885D02*
G03*
X00528909Y00376886I-00000565J00000567D01*
G01*
X00526273Y00378391D02*
G03*
X00526272Y00378392I-00000566J-00000566D01*
G01*
X00527779Y00376885D02*
G03*
X00528908Y00376885I00000565J00000567D01*
G01*
X00527778Y00376886D02*
G03*
X00527779Y00376885I00000566J00000566D01*
G01*
X00277000Y00443875D02*
G03*
X00273750Y00447125I-00003250J00000000D01*
G01*
X00271625D02*
G03*
X00270500Y00446000I00000000J-00001125D01*
G01*
X00274750Y00398250D02*
G03*
X00273000Y00394025I00004225J-00004225D01*
G01*
X00504457Y00357707D02*
G03*
X00501250Y00349964I00007743J-00007743D01*
G01*
X00446098Y00292250D02*
G03*
X00467257Y00301014I00000000J00029924D01*
G01*
X00276250Y00381379D02*
G03*
X00275629Y00382879I-00002121J00000000D01*
G01*
X00273000Y00387500D02*
G03*
X00274409Y00384098I00004811J00000000D01*
G01*
X00319243Y00301014D02*
G03*
X00340402Y00292250I00021160J00021160D01*
G01*
X00276250Y00356402D02*
G03*
X00285014Y00335243I00029924J00000000D01*
G01*
X00498033Y00372609D02*
G03*
X00496904Y00372609I-00000565J-00000567D01*
G01*
X00498034Y00372608D02*
G03*
X00498033Y00372609I-00000566J-00000566D01*
G01*
X00496904Y00372609D02*
G03*
X00496903Y00372608I00000565J-00000567D01*
G01*
X00496620Y00372325D02*
G03*
X00496619Y00372324I00000566J-00000566D01*
G01*
X00499764Y00372007D02*
G03*
X00499765Y00372008I-00000565J00000567D01*
G01*
X00498635Y00372007D02*
G03*
X00499764Y00372007I00000565J00000567D01*
G01*
X00498634Y00372008D02*
G03*
X00498635Y00372007I00000566J00000566D01*
G01*
X00497787Y00369322D02*
G03*
X00497785Y00370028I-00000356J00000352D01*
G01*
Y00369320D02*
G03*
X00497787Y00369322I-00000354J00000354D01*
G01*
X00496619Y00372324D02*
G03*
X00496619Y00371195I00000567J-00000565D01*
G01*
D02*
G03*
X00496620Y00371194I00000567J00000565D01*
G01*
X00496371Y00368614D02*
G03*
X00497079Y00368614I00000354J00000354D01*
G01*
X00494392Y00366635D02*
G03*
X00494392Y00367764I-00000567J00000565D01*
G01*
D02*
G03*
X00494391Y00367765I-00000567J-00000565D01*
G01*
X00495206Y00369780D02*
G03*
X00494074Y00369780I-00000566J-00000566D01*
G01*
X00493792Y00369497D02*
G03*
X00493791Y00369496I00000566J-00000566D01*
G01*
X00493791Y00368366D02*
G03*
X00493792Y00368365I00000567J00000565D01*
G01*
X00493791Y00369496D02*
G03*
X00493791Y00368366I00000567J-00000565D01*
G01*
X00293250Y00426625D02*
G03*
X00295966Y00425500I00002716J00002716D01*
G01*
X00301932Y00423561D02*
G03*
X00297250Y00425500I-00004682J-00004682D01*
G01*
X00307000Y00412654D02*
G03*
X00302871Y00422621I-00014096J00000000D01*
G01*
X00494391Y00366634D02*
G03*
X00494392Y00366635I-00000566J00000566D01*
G01*
X00468250Y00343250D02*
G03*
X00483187Y00349437I00000000J00021124D01*
G01*
X00468250Y00343250D02*
G03*
X00458434Y00339184I00000000J-00013882D01*
G01*
X00431098Y00320750D02*
G03*
X00446295Y00327045I00000000J00021492D01*
G01*
X00332612Y00335388D02*
G03*
X00338750Y00332845I00006138J00006138D01*
G01*
X00307000Y00372152D02*
G03*
X00314886Y00353114I00026924J00000000D01*
G01*
X00348607Y00328636D02*
G03*
X00367645Y00320750I00019038J00019038D01*
G01*
X00347871Y00329371D02*
G03*
X00339484Y00332845I-00008387J-00008387D01*
G01*
X00468250Y00340250D02*
G03*
X00485308Y00347316I00000000J00024124D01*
G01*
X00468250Y00340250D02*
G03*
X00460555Y00337063I00000000J-00010882D01*
G01*
X00346485Y00326515D02*
G03*
X00367645Y00317750I00021160J00021160D01*
G01*
X00431098D02*
G03*
X00448414Y00324921I00000000J00024492D01*
G01*
X00299811Y00421439D02*
G03*
X00299810Y00421440I-00002561J-00002561D01*
G01*
D02*
G03*
X00297250Y00422500I-00002560J-00002562D01*
G01*
X00295966D02*
G03*
X00293250Y00421375I00000000J-00003841D01*
G01*
X00330491Y00333266D02*
G03*
X00338750Y00329845I00008259J00008259D01*
G01*
X00345750Y00327250D02*
G03*
X00339484Y00329845I-00006266J-00006266D01*
G01*
X00304000Y00412654D02*
G03*
X00300750Y00420500I-00011096J00000000D01*
G01*
X00304000Y00372152D02*
G03*
X00312764Y00350993I00029924J00000000D01*
G01*
X00489105Y00382598D02*
G03*
X00489106Y00382599I-00000565J00000567D01*
G01*
X00487821Y00382753D02*
G03*
X00487820Y00382754I-00000566J-00000566D01*
G01*
D02*
G03*
X00486691Y00382754I-00000565J-00000567D01*
G01*
D02*
G03*
X00486690Y00382753I00000565J-00000567D01*
G01*
X00487975Y00382599D02*
G03*
X00487976Y00382598I00000566J00000566D01*
G01*
D02*
G03*
X00489105Y00382598I00000565J00000567D01*
G01*
X00487128Y00379913D02*
G03*
X00487127Y00380619I-00000356J00000352D01*
G01*
X00486406Y00381340D02*
G03*
X00486407Y00381339I00000567J00000565D01*
G01*
X00487127Y00379911D02*
G03*
X00487128Y00379913I-00000354J00000354D01*
G01*
X00485712Y00379205D02*
G03*
X00486420Y00379205I00000354J00000354D01*
G01*
X00486407Y00382470D02*
G03*
X00486406Y00382469I00000566J-00000566D01*
G01*
D02*
G03*
X00486406Y00381340I00000567J-00000565D01*
G01*
X00484993Y00379924D02*
G03*
X00483861Y00379924I-00000566J-00000566D01*
G01*
X00483733Y00378355D02*
G03*
X00483732Y00378356I-00000567J-00000565D01*
G01*
X00483733Y00377226D02*
G03*
X00483733Y00378355I-00000567J00000565D01*
G01*
X00483579Y00379641D02*
G03*
X00483578Y00379641I00000566J-00000566D01*
G01*
X00343000Y00397516D02*
G03*
X00339417Y00406167I-00012234J00000000D01*
G01*
X00483578Y00379641D02*
G03*
X00483578Y00378511I00000567J-00000565D01*
G01*
D02*
G03*
X00483579Y00378510I00000567J00000565D01*
G01*
X00483732Y00377225D02*
G03*
X00483733Y00377226I-00000566J00000566D01*
G01*
X00483591Y00377084D02*
G03*
X00479000Y00366000I00011084J-00011084D01*
G01*
X00471000Y00355500D02*
G03*
X00475268Y00357268I00000000J00006036D01*
G01*
X00458900Y00355500D02*
G03*
X00442000Y00348500I00000000J-00023900D01*
G01*
X00343000Y00388402D02*
G03*
X00350886Y00369364I00026924J00000000D01*
G01*
X00435965Y00346000D02*
G03*
X00442000Y00348500I00000000J00008535D01*
G01*
X00366364Y00353886D02*
G03*
X00385402Y00346000I00019038J00019038D01*
G01*
X00485712Y00374962D02*
G03*
X00482000Y00366000I00008962J-00008962D01*
G01*
X00479371Y00357129D02*
G03*
X00482000Y00363475I-00006346J00006346D01*
G01*
X00471000Y00352500D02*
G03*
X00477389Y00355146I00000000J00009035D01*
G01*
X00458900Y00352500D02*
G03*
X00444121Y00346379I00000000J-00020900D01*
G01*
X00435965Y00343000D02*
G03*
X00444121Y00346379I00000000J00011536D01*
G01*
X00340000Y00388402D02*
G03*
X00348765Y00367243I00029924J00000000D01*
G01*
X00364243Y00351764D02*
G03*
X00385402Y00343000I00021160J00021160D01*
G01*
X00340000Y00397516D02*
G03*
X00337295Y00404045I-00009234J00000000D01*
G01*
X00475250Y00435000D02*
G03*
X00474250Y00434000I00000000J-00001000D01*
G01*
X00477250D02*
G03*
X00476250Y00435000I-00001000J00000000D01*
G01*
X00356671Y00438677D02*
G03*
X00359387Y00437552I00002716J00002716D01*
G01*
X00362621Y00436673D02*
G03*
X00360500Y00437552I-00002121J-00002121D01*
G01*
X00364795Y00434499D02*
G03*
X00364798Y00434496I00001205J00001205D01*
G01*
D02*
G03*
X00366000Y00434000I00001202J00001207D01*
G01*
X00362674Y00432378D02*
G03*
X00366000Y00431000I00003326J00003326D01*
G01*
X00359387Y00434552D02*
G03*
X00356671Y00433427I00000000J-00003841D01*
G01*
X00436578Y00424000D02*
G03*
X00431750Y00422000I00000000J-00006828D01*
G01*
X00462871Y00421621D02*
G03*
X00457129Y00424000I-00005743J-00005743D01*
G01*
X00480213Y00422745D02*
G03*
X00473879Y00420121I00000000J-00008959D01*
G01*
X00472982Y00419750D02*
G03*
X00473879Y00420121I00000000J00001268D01*
G01*
X00462871Y00421621D02*
G03*
X00467389Y00419750I00004518J00004518D01*
G01*
X00423904Y00418750D02*
G03*
X00431750Y00422000I00000000J00011096D01*
G01*
X00421132Y00418750D02*
G03*
X00407250Y00413000I00000000J-00019632D01*
G01*
X00382497Y00417253D02*
G03*
X00400007Y00410000I00017510J00017510D01*
G01*
D02*
G03*
X00407250Y00413000I00000000J00010243D01*
G01*
X00480213Y00419745D02*
G03*
X00476000Y00418000I00000000J-00005958D01*
G01*
X00472982Y00416750D02*
G03*
X00476000Y00418000I00000000J00004268D01*
G01*
X00436578Y00421000D02*
G03*
X00433871Y00419879I00000000J-00003828D01*
G01*
X00460750Y00419500D02*
G03*
X00457129Y00421000I-00003621J-00003621D01*
G01*
X00460750Y00419500D02*
G03*
X00467389Y00416750I00006639J00006639D01*
G01*
X00423904Y00415750D02*
G03*
X00433871Y00419879I00000000J00014096D01*
G01*
X00421132Y00415750D02*
G03*
X00409371Y00410879I00000000J-00016631D01*
G01*
X00400007Y00407000D02*
G03*
X00409371Y00410879I00000000J00013243D01*
G01*
X00380622Y00414886D02*
G03*
X00399660Y00407000I00019038J00019038D01*
G01*
X00464875Y00403700D02*
G03*
X00464075Y00404500I-00000800J00000000D01*
G01*
X00467675D02*
G03*
X00466875Y00403700I00000000J-00000800D01*
G01*
X00468875D02*
G03*
X00468075Y00404500I-00000800J00000000D01*
G01*
X00482343Y00402500D02*
G03*
X00492000Y00406500I00000000J00013657D01*
G01*
X00470375Y00402000D02*
G03*
X00470875Y00402500I00000000J00000500D01*
G01*
X00468875D02*
G03*
X00469375Y00402000I00000500J00000000D01*
G01*
X00466375D02*
G03*
X00466875Y00402500I00000000J00000500D01*
G01*
X00464875D02*
G03*
X00465375Y00402000I00000500J00000000D01*
G01*
X00463675Y00404500D02*
G03*
X00462875Y00403700I00000000J-00000800D01*
G01*
X00462075Y00402500D02*
G03*
X00462875Y00403300I00000000J00000800D01*
G01*
X00455114Y00402500D02*
G03*
X00444250Y00398000I00000000J-00015364D01*
G01*
X00438818Y00395750D02*
G03*
X00444250Y00398000I00000000J00007682D01*
G01*
X00405725Y00395750D02*
G03*
X00401500Y00394000I00000000J-00005975D01*
G01*
X00399086Y00393000D02*
G03*
X00401500Y00394000I00000000J00003414D01*
G01*
X00482343Y00399500D02*
G03*
X00494121Y00404379I00000000J00016657D01*
G01*
X00455114Y00399500D02*
G03*
X00446371Y00395879I00000000J-00012364D01*
G01*
X00438818Y00392750D02*
G03*
X00446371Y00395879I00000000J00010682D01*
G01*
X00405725Y00392750D02*
G03*
X00403621Y00391879I00000000J-00002975D01*
G01*
X00399086Y00390000D02*
G03*
X00403621Y00391879I00000000J00006414D01*
G01*
X00462250Y00551000D02*
G03*
X00458007Y00561243I-00014485J00000000D01*
G01*
X00457250Y00491000D02*
G03*
X00462250Y00503071I-00012071J00012071D01*
G01*
X00453853Y00565398D02*
G03*
X00444250Y00569375I-00009602J-00009602D01*
G01*
X00452033Y00485783D02*
G03*
X00452035Y00485785I-00008533J00008538D01*
G01*
X00443500Y00482250D02*
G03*
X00452033Y00485783I00000000J00012071D01*
G01*
X00442466Y00569375D02*
G03*
X00439750Y00568250I00000000J-00003841D01*
G01*
X00411500Y00482250D02*
G03*
X00394015Y00475007I00000000J-00024728D01*
G01*
X00465250Y00551000D02*
G03*
X00460129Y00563364I-00017485J00000000D01*
G01*
X00455974Y00567519D02*
G03*
X00444250Y00572375I-00011724J-00011724D01*
G01*
X00439750Y00573500D02*
G03*
X00442466Y00572375I00002716J00002716D01*
G01*
X00443500Y00479250D02*
G03*
X00454157Y00483664I00000000J00015071D01*
G01*
X00411500Y00479250D02*
G03*
X00396136Y00472886I00000000J-00021728D01*
G01*
X00459342Y00581183D02*
G03*
X00438042Y00590006I-00021301J-00021301D01*
G01*
X00461538Y00578987D02*
G03*
X00468750Y00576000I00007212J00007212D01*
G01*
X00478182Y00572093D02*
G03*
X00468750Y00576000I-00009433J-00009433D01*
G01*
X00495700Y00552189D02*
G03*
X00494013Y00556263I-00005761J00000000D01*
G01*
X00483272Y00563468D02*
G03*
X00482286Y00563468I-00000493J-00000497D01*
G01*
X00483274Y00563466D02*
G03*
X00483272Y00563468I-00000495J-00000495D01*
G01*
X00480870Y00564880D02*
G03*
X00480869Y00565870I-00000495J00000495D01*
G01*
X00483698Y00562052D02*
G03*
X00483698Y00563042I-00000495J00000495D01*
G01*
X00485605Y00560145D02*
G03*
X00484619Y00560145I-00000493J-00000497D01*
G01*
X00482286Y00563468D02*
G03*
X00482284Y00563466I00000493J-00000497D01*
G01*
X00480445Y00566295D02*
G03*
X00480443Y00566297I-00000495J-00000495D01*
G01*
D02*
G03*
X00479457Y00566297I-00000493J-00000497D01*
G01*
D02*
G03*
X00479455Y00566295I00000493J-00000497D01*
G01*
X00478043Y00567711D02*
G03*
X00478043Y00568697I-00000497J00000493D01*
G01*
X00478468Y00560640D02*
G03*
X00479458Y00560640I00000495J00000495D01*
G01*
X00478044Y00562054D02*
G03*
X00478042Y00562052I00000495J-00000495D01*
G01*
X00478042Y00561067D02*
G03*
X00478044Y00561064I00000497J00000493D01*
G01*
X00485607Y00560143D02*
G03*
X00485605Y00560145I-00000495J-00000495D01*
G01*
X00492500Y00552189D02*
G03*
X00491750Y00554000I-00002561J00000000D01*
G01*
X00484619Y00560145D02*
G03*
X00484617Y00560143I00000493J-00000497D01*
G01*
X00491616Y00542116D02*
G03*
X00492500Y00544250I-00002134J00002134D01*
G01*
X00481128Y00559482D02*
G03*
X00481126Y00559480I00000495J-00000495D01*
G01*
D02*
G03*
X00481126Y00558494I00000497J-00000493D01*
G01*
D02*
G03*
X00481128Y00558492I00000497J00000493D01*
G01*
X00482540Y00558066D02*
G03*
X00482542Y00558068I-00000493J00000497D01*
G01*
X00481554Y00558066D02*
G03*
X00482540Y00558066I00000493J00000497D01*
G01*
X00481552Y00558068D02*
G03*
X00481554Y00558066I00000495J00000495D01*
G01*
X00459276Y00576725D02*
G03*
X00468750Y00572800I00009474J00009474D01*
G01*
X00475920Y00569830D02*
G03*
X00468750Y00572800I-00007170J-00007170D01*
G01*
X00457080Y00578920D02*
G03*
X00438042Y00586806I-00019038J-00019038D01*
G01*
X00478043Y00568697D02*
G03*
X00478041Y00568699I-00000497J-00000493D01*
G01*
X00477617Y00569123D02*
G03*
X00477615Y00569125I-00000495J-00000495D01*
G01*
D02*
G03*
X00476627Y00569123I-00000493J-00000497D01*
G01*
X00478041Y00567709D02*
G03*
X00478043Y00567711I-00000495J00000495D01*
G01*
X00476429Y00566097D02*
G03*
X00476427Y00566095I00000495J-00000495D01*
G01*
X00476427Y00565109D02*
G03*
X00476429Y00565107I00000497J00000493D01*
G01*
X00477841Y00564681D02*
G03*
X00477843Y00564683I-00000493J00000497D01*
G01*
X00478042Y00562052D02*
G03*
X00478042Y00561067I00000497J-00000493D01*
G01*
X00476853Y00564683D02*
G03*
X00476855Y00564681I00000495J00000495D01*
G01*
D02*
G03*
X00477841Y00564681I00000493J00000497D01*
G01*
X00476427Y00566095D02*
G03*
X00476427Y00565109I00000497J-00000493D01*
G01*
X00551013Y00536987D02*
G03*
X00553200Y00542268I-00005281J00005281D01*
G01*
Y00554250D02*
G03*
X00551732Y00557793I-00005011J00000000D01*
G01*
X00537077Y00566909D02*
G03*
X00540250Y00565595I00003173J00003173D01*
G01*
X00546533Y00562993D02*
G03*
X00540250Y00565595I-00006283J-00006283D01*
G01*
X00551013Y00536987D02*
G03*
X00549000Y00532128I00004859J-00004859D01*
G01*
Y00530871D02*
G03*
X00550500Y00527250I00005121J00000000D01*
G01*
X00550000Y00554250D02*
G03*
X00549471Y00555529I-00001811J00000000D01*
G01*
D02*
G03*
X00549470Y00555530I-00001282J-00001279D01*
G01*
X00548750Y00539250D02*
G03*
X00550000Y00542268I-00003018J00003018D01*
G01*
X00544270Y00560730D02*
G03*
X00540250Y00562395I-00004020J-00004020D01*
G01*
D02*
G03*
X00537077Y00561081I00000000J-00004487D01*
G01*
X00545800Y00530871D02*
G03*
X00548237Y00524987I00008321J00000000D01*
G01*
X00548750Y00539250D02*
G03*
X00545800Y00532128I00007122J-00007122D01*
G01*
X00656888Y00493700D02*
G03*
X00659000Y00494575I00000000J00002987D01*
G01*
X00654293Y00493700D02*
G03*
X00636637Y00486386I00000000J-00024970D01*
G01*
X00622715Y00476000D02*
G03*
X00628750Y00478500I00000000J00008536D01*
G01*
X00611763Y00477013D02*
G03*
X00614208Y00476000I00002445J00002445D01*
G01*
X00611763Y00477013D02*
G03*
X00608172Y00478500I-00003591J-00003591D01*
G01*
X00560233Y00492000D02*
G03*
X00559208Y00489525I00002474J-00002474D01*
G01*
X00564501Y00479249D02*
G03*
X00566311Y00478500I00001809J00001812D01*
G01*
X00559208Y00487250D02*
G03*
X00561122Y00482628I00006537J00000000D01*
G01*
X00564500Y00479250D02*
G03*
X00564501Y00479249I00001811J00001811D01*
G01*
X00659000Y00489325D02*
G03*
X00656163Y00490500I-00002837J-00002837D01*
G01*
X00654293D02*
G03*
X00638899Y00484124I00000000J-00021770D01*
G01*
X00622714Y00472800D02*
G03*
X00631013Y00476237I00000000J00011736D01*
G01*
X00609500Y00474750D02*
G03*
X00614208Y00472800I00004708J00004708D01*
G01*
X00556008Y00489525D02*
G03*
X00554983Y00492000I-00003500J00000000D01*
G01*
X00562237Y00476987D02*
G03*
X00566311Y00475300I00004073J00004073D01*
G01*
X00609500Y00474750D02*
G03*
X00608172Y00475300I-00001328J-00001328D01*
G01*
X00556008Y00487250D02*
G03*
X00558859Y00480365I00009737J00000000D01*
G01*
X00524157Y00560600D02*
G03*
X00523757Y00561000I-00000400J00000000D01*
G01*
Y00559000D02*
G03*
X00524157Y00559400I00000000J00000400D01*
G01*
X00523200Y00561400D02*
G03*
X00523600Y00561000I00000400J00000000D01*
G01*
X00524382Y00550500D02*
G03*
X00527991Y00551995I00000000J00005105D01*
G01*
X00523200Y00553035D02*
G03*
X00524250Y00550500I00003585J00000000D01*
G01*
X00523600Y00559000D02*
G03*
X00523200Y00558600I00000000J-00000400D01*
G01*
Y00583343D02*
G03*
X00518263Y00595263I-00016857J00000000D01*
G01*
X00516156Y00597370D02*
G03*
X00508250Y00600644I-00007906J-00007906D01*
G01*
X00521987Y00548237D02*
G03*
X00524250Y00547300I00002263J00002263D01*
G01*
X00520000Y00553035D02*
G03*
X00521987Y00548237I00006785J00000000D01*
G01*
X00524995Y00546991D02*
G03*
X00524250Y00547300I-00000745J-00000745D01*
G01*
X00520000Y00583343D02*
G03*
X00516000Y00593000I-00013657J00000000D01*
G01*
X00513893Y00595107D02*
G03*
X00508250Y00597444I-00005643J-00005644D01*
G01*
X00467288Y00639737D02*
G03*
X00468225Y00642000I-00002263J00002263D01*
G01*
X00463866Y00636316D02*
G03*
X00462700Y00633500I00002816J-00002816D01*
G01*
X00464750Y00615000D02*
G03*
X00466066Y00611823I00004494J00000000D01*
G01*
X00464750Y00620051D02*
G03*
X00462700Y00625000I-00006999J00000000D01*
G01*
X00461550Y00620051D02*
G03*
X00460437Y00622737I-00003799J00000000D01*
G01*
X00461604Y00638579D02*
G03*
X00459500Y00633500I00005079J-00005079D01*
G01*
Y00625000D02*
G03*
X00460437Y00622737I00003200J00000000D01*
G01*
X00543763Y00282737D02*
G03*
X00546700Y00289828I-00007091J00007091D01*
G01*
X00266750Y00403000D02*
G03*
X00268000Y00406018I-00003018J00003018D01*
G01*
X00274750Y00398250D02*
G03*
X00277000Y00403682I-00005432J00005432D01*
G01*
X00459371Y00488879D02*
G03*
X00465250Y00503071I-00014192J00014192D01*
G01*
X00336466Y00404875D02*
G03*
X00333750Y00406000I-00002716J-00002716D01*
G01*
X00337462Y00409712D02*
G03*
X00338587Y00406996I00003841J00000000D01*
G01*
X00477250Y00359250D02*
G03*
X00479000Y00363475I-00004225J00004225D01*
G01*
X00490280Y00352288D02*
G03*
X00492750Y00358250I-00005962J00005962D01*
G01*
X00494518Y00362518D02*
G03*
X00492750Y00358250I00004268J-00004268D01*
G01*
X00488159Y00354409D02*
G03*
X00489750Y00358250I-00003841J00003841D01*
G01*
X00492396Y00364639D02*
G03*
X00489750Y00358250I00006389J-00006389D01*
G01*
X00494621Y00328379D02*
G03*
X00501250Y00344382I-00016003J00016003D01*
G01*
X00460934Y00611705D02*
G03*
X00461550Y00613192I-00001487J00001487D01*
G01*
X00493879Y00539853D02*
G03*
X00495700Y00544250I-00004397J00004397D01*
G01*
X00494130Y00629850D02*
X00498685D01*
X00488050Y00601550D02*
Y00623770D01*
X00480595Y00600750D02*
X00487250D01*
X00494130Y00626650D02*
X00498685D01*
X00491250Y00601550D02*
Y00623770D01*
X00480807Y00597550D02*
X00487250D01*
X00560897Y00446750D02*
X00568500D01*
X00555000Y00449000D02*
X00555465D01*
X00540049Y00454750D02*
X00545500D01*
X00549811Y00452964D02*
X00552910Y00449866D01*
X00577950Y00442400D02*
X00633975D01*
X00573950Y00443100D02*
X00574550D01*
X00577250Y00440350D02*
Y00441700D01*
X00573250Y00440350D02*
Y00442400D01*
X00575950Y00439650D02*
X00576550D01*
X00575250Y00440350D02*
Y00442400D01*
X00571250Y00440350D02*
Y00441700D01*
X00571950Y00439650D02*
X00572550D01*
X00541292Y00451750D02*
X00545500D01*
X00555000Y00445800D02*
X00555465D01*
X00568325Y00442400D02*
X00570550D01*
X00560897Y00443550D02*
X00567174D01*
X00655000Y00414500D02*
X00655803D01*
X00651750D02*
X00655000D01*
X00643798Y00409048D02*
X00647482Y00412732D01*
X00627050Y00406750D02*
X00638250D01*
X00543991Y00423995D02*
X00545778Y00422209D01*
X00625050Y00408350D02*
X00625450D01*
X00551763Y00419729D02*
X00556857Y00414636D01*
X00575895Y00406750D02*
X00623450D01*
X00651750Y00411500D02*
X00653500D01*
X00645919Y00406927D02*
X00649604Y00410611D01*
X00543991Y00415995D02*
X00545778Y00417782D01*
X00549642Y00417608D02*
X00554735Y00412514D01*
X00575895Y00403750D02*
X00638250D01*
X00540000Y00361500D02*
X00551700Y00373200D01*
X00535103Y00330922D02*
X00543763Y00322263D01*
X00535101Y00330925D02*
X00535103Y00330922D01*
X00546700Y00289828D02*
Y00315172D01*
X00535101Y00330925D02*
X00535103Y00330922D01*
X00533000Y00336000D02*
Y00344600D01*
X00426354Y00278800D02*
X00534257D01*
X00289000Y00301300D02*
X00293619D01*
X00331796Y00281050D02*
X00420922D01*
X00304000Y00297000D02*
X00311573Y00289427D01*
X00264800Y00383871D02*
Y00398292D01*
X00267237Y00321584D02*
Y00377987D01*
X00545624Y00371649D02*
X00547250Y00373275D01*
X00545622Y00371647D02*
X00545624Y00371649D01*
X00542540Y00373742D02*
X00542542Y00373741D01*
X00544634Y00371649D02*
X00544636Y00371647D01*
X00542542Y00373741D02*
X00544634Y00371649D01*
X00542540Y00373742D02*
X00542542Y00373741D01*
X00541128Y00373316D02*
X00541552Y00373741D01*
X00541126Y00373314D02*
X00541128Y00373316D01*
X00541126Y00373314D02*
X00541128Y00373316D01*
X00541126Y00372328D02*
X00541128Y00372326D01*
X00545622Y00371647D02*
X00545624Y00371649D01*
X00544634D02*
X00544636Y00371647D01*
X00543714Y00369740D02*
X00543717Y00369738D01*
X00541128Y00372326D02*
X00543714Y00369740D01*
X00541126Y00372328D02*
X00541128Y00372326D01*
X00543714Y00369740D02*
X00543717Y00369738D01*
X00543714Y00368750D02*
X00543716Y00368752D01*
X00543714Y00368750D02*
X00543716Y00368752D01*
X00543290Y00368326D02*
X00543714Y00368750D01*
X00543288Y00368324D02*
X00543290Y00368326D01*
X00543288Y00368324D02*
X00543290Y00368326D01*
X00542300Y00368326D02*
X00542300D01*
X00543500Y00289828D02*
Y00315172D01*
X00540391Y00366417D02*
X00540393Y00366418D01*
X00538724Y00370912D02*
X00538726Y00370914D01*
X00538724Y00370912D02*
X00538726Y00370914D01*
X00538300Y00370488D02*
X00538724Y00370912D01*
X00538298Y00370486D02*
X00538300Y00370488D01*
X00538298Y00370486D02*
X00538300Y00370488D01*
X00268000Y00383871D02*
Y00398292D01*
X00539714Y00370912D02*
X00542300Y00368326D01*
X00540391Y00367407D02*
X00540393Y00367405D01*
X00538300Y00369498D02*
X00540391Y00367407D01*
X00538298Y00369500D02*
X00538300Y00369498D01*
X00540391Y00367407D02*
X00540393Y00367405D01*
X00538298Y00369500D02*
X00538300Y00369498D01*
X00540391Y00366417D02*
X00540393Y00366418D01*
X00537737Y00363763D02*
X00540391Y00366417D01*
X00532840Y00328660D02*
X00541500Y00320000D01*
X00529800Y00336000D02*
Y00344600D01*
X00426354Y00282000D02*
X00534257D01*
X00289000Y00304500D02*
X00293619D01*
X00270437Y00321584D02*
Y00377987D01*
X00272750Y00316000D02*
X00280891Y00307859D01*
X00331796Y00284250D02*
X00420922D01*
X00306263Y00299263D02*
X00313836Y00291689D01*
X00502336Y00359828D02*
X00529000Y00386493D01*
X00498250Y00344382D02*
Y00349964D01*
X00465136Y00303136D02*
X00492500Y00330500D01*
X00340402Y00295250D02*
X00446098D01*
X00280200Y00404165D02*
Y00443675D01*
X00271625Y00450125D02*
X00273750D01*
X00279250Y00356402D02*
Y00381379D01*
X00276530Y00386220D02*
X00277750Y00385000D01*
X00276529Y00386221D02*
X00276530Y00386220D01*
X00276000Y00387500D02*
Y00394025D01*
X00276529Y00386221D02*
X00276530Y00386220D01*
X00527687Y00380937D02*
X00532000Y00385250D01*
X00527686Y00380936D02*
X00527687Y00380937D01*
X00527686Y00380936D02*
X00527687Y00380937D01*
X00527686Y00379807D02*
X00527687Y00379806D01*
X00525141Y00378391D02*
X00525142Y00378392D01*
X00526272D02*
X00526273Y00378391D01*
X00529192Y00378301D02*
X00529193Y00378300D01*
X00529192Y00378301D02*
X00529193Y00378300D01*
X00527687Y00379806D02*
X00529192Y00378301D01*
X00527686Y00379807D02*
X00527687Y00379806D01*
X00529192Y00377169D02*
X00529193Y00377170D01*
X00529192Y00377169D02*
X00529193Y00377170D01*
X00528909Y00376886D02*
X00529192Y00377169D01*
X00528908Y00376885D02*
X00528909Y00376886D01*
X00528908Y00376885D02*
X00528909Y00376886D01*
X00527778D02*
X00527779Y00376885D01*
X00526273Y00378391D02*
X00527778Y00376886D01*
X00526272Y00378392D02*
X00526273Y00378391D01*
X00527778Y00376886D02*
X00527779Y00376885D01*
X00277000Y00403682D02*
Y00443875D01*
X00271625Y00447125D02*
X00273750D01*
X00273000Y00387500D02*
Y00394025D01*
X00525141Y00378391D02*
X00525142Y00378392D01*
X00504457Y00357707D02*
X00525141Y00378391D01*
X00501250Y00344382D02*
Y00349964D01*
X00340402Y00292250D02*
X00446098D01*
X00276250Y00356402D02*
Y00381379D01*
X00274409Y00384098D02*
X00275629Y00382879D01*
X00499765Y00372008D02*
X00508242Y00380484D01*
X00499764Y00372007D02*
X00499765Y00372008D01*
X00499764Y00372007D02*
X00499765Y00372008D01*
X00498033Y00372609D02*
X00498034Y00372608D01*
X00496903D02*
X00496904Y00372609D01*
X00496903Y00372608D02*
X00496904Y00372609D01*
X00496620Y00372325D02*
X00496903Y00372608D01*
X00496619Y00372324D02*
X00496620Y00372325D01*
X00498634Y00372008D02*
X00498635Y00372007D01*
X00498034Y00372608D02*
X00498634Y00372008D01*
X00498033Y00372609D02*
X00498034Y00372608D01*
X00496619Y00372324D02*
X00496620Y00372325D01*
X00498634Y00372008D02*
X00498635Y00372007D01*
X00496620Y00371194D02*
X00497785Y00370028D01*
X00496619Y00371195D02*
X00496620Y00371194D01*
X00497785Y00369320D02*
X00497787Y00369322D01*
X00497785Y00369320D02*
X00497787Y00369322D01*
X00497079Y00368614D02*
X00497785Y00369320D01*
X00496619Y00371195D02*
X00496620Y00371194D01*
X00495206Y00369780D02*
X00496371Y00368614D01*
X00494391Y00367765D02*
X00494392Y00367764D01*
X00494391Y00366634D02*
X00494392Y00366635D01*
X00493792Y00369497D02*
X00494074Y00369780D01*
X00493791Y00369496D02*
X00493792Y00369497D01*
X00493791Y00369496D02*
X00493792Y00369497D01*
X00494391Y00367765D02*
X00494392Y00367764D01*
X00493792Y00368365D02*
X00494391Y00367765D01*
X00493791Y00368366D02*
X00493792Y00368365D01*
X00493791Y00368366D02*
X00493792Y00368365D01*
X00307000Y00372152D02*
Y00412654D01*
X00295966Y00425500D02*
X00297250D01*
X00301932Y00423561D02*
X00302871Y00422621D01*
X00494391Y00366634D02*
X00494392Y00366635D01*
X00492396Y00364639D02*
X00494391Y00366634D01*
X00446295Y00327045D02*
X00458434Y00339184D01*
X00338750Y00332845D02*
X00339484D01*
X00314886Y00353114D02*
X00332612Y00335388D01*
X00367645Y00320750D02*
X00431098D01*
X00347871Y00329371D02*
X00348607Y00328636D01*
X00448414Y00324921D02*
X00460555Y00337063D01*
X00367645Y00317750D02*
X00431098D01*
X00299810Y00421440D02*
X00299811Y00421439D01*
X00300750Y00420500D01*
X00299810Y00421440D02*
X00299811Y00421439D01*
X00295966Y00422500D02*
X00297250D01*
X00312764Y00350993D02*
X00330491Y00333266D01*
X00338750Y00329845D02*
X00339484D01*
X00304000Y00372152D02*
Y00412654D01*
X00495250Y00399995D02*
Y00400750D01*
Y00396557D02*
Y00399995D01*
X00489106Y00382599D02*
X00492242Y00385734D01*
X00489105Y00382598D02*
X00489106Y00382599D01*
X00489105Y00382598D02*
X00489106Y00382599D01*
X00487820Y00382754D02*
X00487821Y00382753D01*
X00487975Y00382599D02*
X00487976Y00382598D01*
X00486690Y00382753D02*
X00486691Y00382754D01*
X00487975Y00382599D02*
X00487976Y00382598D01*
X00487821Y00382753D02*
X00487975Y00382599D01*
X00487820Y00382754D02*
X00487821Y00382753D01*
X00486690D02*
X00486691Y00382754D01*
X00486407Y00382470D02*
X00486690Y00382753D01*
X00486406Y00382469D02*
X00486407Y00382470D01*
Y00381339D02*
X00487127Y00380619D01*
X00486406Y00381340D02*
X00486407Y00381339D01*
X00487127Y00379911D02*
X00487128Y00379913D01*
X00487127Y00379911D02*
X00487128Y00379913D01*
X00486420Y00379205D02*
X00487127Y00379911D01*
X00486406Y00382469D02*
X00486407Y00382470D01*
X00486406Y00381340D02*
X00486407Y00381339D01*
X00484993Y00379924D02*
X00485712Y00379205D01*
X00483579Y00379641D02*
X00483861Y00379924D01*
X00483578Y00379641D02*
X00483579Y00379641D01*
X00483578Y00379641D02*
X00483579Y00379641D01*
X00343000Y00388402D02*
Y00397516D01*
X00483578Y00378511D02*
X00483579Y00378510D01*
X00483732Y00378356D02*
X00483733Y00378355D01*
X00483579Y00378510D02*
X00483732Y00378356D01*
X00483578Y00378511D02*
X00483579Y00378510D01*
X00338587Y00406996D02*
X00339417Y00406167D01*
X00483732Y00378356D02*
X00483733Y00378355D01*
X00483732Y00377225D02*
X00483733Y00377226D01*
X00483732Y00377225D02*
X00483733Y00377226D01*
X00483591Y00377084D02*
X00483732Y00377225D01*
X00479000Y00363475D02*
Y00366000D01*
X00458900Y00355500D02*
X00471000D01*
X00385402Y00346000D02*
X00435965D01*
X00482000Y00363475D02*
Y00366000D01*
X00477389Y00355146D02*
X00479371Y00357129D01*
X00458900Y00352500D02*
X00471000D01*
X00385402Y00343000D02*
X00435965D01*
X00340000Y00388402D02*
Y00397516D01*
X00477250Y00434000D02*
X00489250D01*
X00475250Y00435000D02*
X00476250D01*
X00366000Y00434000D02*
X00474250D01*
X00359387Y00437552D02*
X00360500D01*
X00364795Y00434499D02*
X00364798Y00434496D01*
X00364795Y00434499D02*
X00364798Y00434496D01*
X00362621Y00436673D02*
X00364795Y00434499D01*
X00366000Y00431000D02*
X00491683D01*
X00359387Y00434552D02*
X00360500D01*
X00480213Y00422745D02*
X00494741D01*
X00436578Y00424000D02*
X00457129D01*
X00467389Y00419750D02*
X00472982D01*
X00421132Y00418750D02*
X00423904D01*
X00378500Y00421250D02*
X00382497Y00417253D01*
X00480213Y00419745D02*
X00492241D01*
X00436578Y00421000D02*
X00457129D01*
X00467389Y00416750D02*
X00472982D01*
X00421132Y00415750D02*
X00423904D01*
X00374166Y00421342D02*
X00380622Y00414886D01*
X00399660Y00407000D02*
X00400007D01*
X00470875Y00402500D02*
X00482343D01*
X00463675Y00404500D02*
X00464075D01*
X00467675D02*
X00468075D01*
X00468875Y00402500D02*
Y00403700D01*
X00469375Y00402000D02*
X00470375D01*
X00466875Y00402500D02*
Y00403700D01*
X00464875Y00402500D02*
Y00403700D01*
X00465375Y00402000D02*
X00466375D01*
X00462875Y00403300D02*
Y00403700D01*
X00455114Y00402500D02*
X00462075D01*
X00405725Y00395750D02*
X00438818D01*
X00365178Y00393000D02*
X00399086D01*
X00455114Y00399500D02*
X00482343D01*
X00405725Y00392750D02*
X00438818D01*
X00362875Y00390000D02*
X00399086D01*
X00453853Y00565398D02*
X00458007Y00561243D01*
X00462250Y00503071D02*
Y00551000D01*
X00452035Y00485785D02*
X00457250Y00491000D01*
X00452033Y00485783D02*
X00452035Y00485785D01*
X00452033Y00485783D02*
X00452035Y00485785D01*
X00442466Y00569375D02*
X00444250D01*
X00411500Y00482250D02*
X00443500D01*
X00381507Y00462500D02*
X00394015Y00475007D01*
X00455974Y00567519D02*
X00460129Y00563364D01*
X00465250Y00503071D02*
Y00551000D01*
X00442466Y00572375D02*
X00444250D01*
X00454157Y00483664D02*
X00459371Y00488879D01*
X00411500Y00479250D02*
X00443500D01*
X00382000Y00458750D02*
X00396136Y00472886D01*
X00432275Y00590006D02*
X00438042D01*
X00459342Y00581183D02*
X00461538Y00578987D01*
X00495700Y00544250D02*
Y00552189D01*
X00478183Y00572093D02*
X00494013Y00556263D01*
X00480870Y00564880D02*
Y00564880D01*
X00483272Y00563468D02*
X00483274Y00563466D01*
X00480445Y00566295D02*
X00480869Y00565870D01*
X00480443Y00566297D02*
X00480445Y00566295D01*
X00478044Y00562054D02*
X00480870Y00564880D01*
X00478042Y00562052D02*
X00478044Y00562054D01*
X00483274Y00563466D02*
X00483698Y00563042D01*
X00483272Y00563468D02*
X00483274Y00563466D01*
X00482284D02*
X00482286Y00563468D01*
X00482284Y00563466D02*
X00482286Y00563468D01*
X00479458Y00560640D02*
X00482284Y00563466D01*
X00480443Y00566297D02*
X00480445Y00566295D01*
X00478041Y00567709D02*
X00478043Y00567711D01*
X00479455Y00566295D02*
X00479457Y00566297D01*
X00478042Y00561067D02*
X00478044Y00561064D01*
X00478468Y00560640D01*
X00478042Y00562052D02*
X00478044Y00562054D01*
X00478042Y00561067D02*
X00478044Y00561064D01*
X00485607Y00560143D02*
X00491750Y00554000D01*
X00485605Y00560145D02*
X00485607Y00560143D01*
X00492500Y00544250D02*
Y00552189D01*
X00484617Y00560143D02*
X00484619Y00560145D01*
X00485605D02*
X00485607Y00560143D01*
X00487991Y00538491D02*
X00491616Y00542116D01*
X00481128Y00559482D02*
X00483698Y00562052D01*
X00481126Y00559480D02*
X00481128Y00559482D01*
X00484617Y00560143D02*
X00484619Y00560145D01*
X00482542Y00558068D02*
X00484617Y00560143D01*
X00482540Y00558066D02*
X00482542Y00558068D01*
X00481126Y00559480D02*
X00481128Y00559482D01*
X00481126Y00558494D02*
X00481128Y00558492D01*
X00482540Y00558066D02*
X00482542Y00558068D01*
X00481552D02*
X00481554Y00558066D01*
X00481128Y00558492D02*
X00481552Y00558068D01*
X00481126Y00558494D02*
X00481128Y00558492D01*
X00481552Y00558068D02*
X00481554Y00558066D01*
X00457080Y00578920D02*
X00459276Y00576725D01*
X00475920Y00569830D02*
X00476627Y00569123D01*
X00432275Y00586806D02*
X00438042D01*
X00478041Y00568699D02*
X00478043Y00568697D01*
X00477617Y00569123D02*
X00478041Y00568699D01*
X00477615Y00569125D02*
X00477617Y00569123D01*
X00478041Y00568699D02*
X00478043Y00568697D01*
X00477615Y00569125D02*
X00477617Y00569123D01*
X00478041Y00567709D02*
X00478043Y00567711D01*
X00476429Y00566097D02*
X00478041Y00567709D01*
X00476427Y00566095D02*
X00476429Y00566097D01*
X00479455Y00566295D02*
X00479457Y00566297D01*
X00477843Y00564683D02*
X00479455Y00566295D01*
X00477841Y00564681D02*
X00477843Y00564683D01*
X00476853D02*
X00476855Y00564681D01*
X00476429Y00565107D02*
X00476853Y00564683D01*
X00476427Y00565109D02*
X00476429Y00565107D01*
X00476427Y00565109D02*
X00476429Y00565107D01*
X00477841Y00564681D02*
X00477843Y00564683D01*
X00476853D02*
X00476855Y00564681D01*
X00476427Y00566095D02*
X00476429Y00566097D01*
X00550500Y00527250D02*
X00560849Y00516901D01*
X00553200Y00542268D02*
Y00554250D01*
X00546533Y00562993D02*
X00551732Y00557793D01*
X00549000Y00530871D02*
Y00532128D01*
X00550000Y00550650D02*
Y00554250D01*
X00549470Y00555530D02*
X00549471Y00555529D01*
X00549470Y00555530D02*
X00549471Y00555529D01*
X00544270Y00560730D02*
X00549470Y00555530D01*
X00535991Y00559995D02*
X00537077Y00561081D01*
X00545800Y00530871D02*
Y00532128D01*
X00654293Y00493700D02*
X00656888D01*
X00614208Y00476000D02*
X00622715D01*
X00559208Y00487250D02*
Y00489525D01*
X00564500Y00479250D02*
X00564501Y00479249D01*
X00566311Y00478500D02*
X00608172D01*
X00564500Y00479250D02*
X00564501Y00479249D01*
X00561122Y00482628D02*
X00564500Y00479250D01*
X00654293Y00490500D02*
X00656163D01*
X00631013Y00476237D02*
X00638899Y00484124D01*
X00614208Y00472800D02*
X00622714D01*
X00566311Y00475300D02*
X00608172D01*
X00556008Y00487250D02*
Y00489525D01*
X00558859Y00480365D02*
X00562237Y00476987D01*
X00523600Y00561000D02*
X00523757D01*
X00524157Y00559400D02*
Y00560600D01*
X00523200Y00561400D02*
Y00583343D01*
X00523600Y00559000D02*
X00523757D01*
X00523200Y00553035D02*
Y00558600D01*
X00524250Y00550500D02*
X00524382D01*
X00503959Y00600644D02*
X00508250D01*
X00516156Y00597370D02*
X00518263Y00595263D01*
X00520000Y00553035D02*
Y00583343D01*
X00524995Y00546991D02*
X00527991Y00543995D01*
X00503959Y00597444D02*
X00508250D01*
X00513893Y00595107D02*
X00516000Y00593000D01*
X00463866Y00636316D02*
X00467288Y00639737D01*
X00464750Y00615000D02*
Y00620051D01*
X00462700Y00625000D02*
Y00633500D01*
X00461550Y00613192D02*
Y00620051D01*
X00459500Y00625000D02*
Y00633500D01*
X00263000Y00518000D02*
X00264000Y00517000D01*
X00481000Y00648750D02*
X00486500D01*
X00440000Y00666520D02*
Y00667000D01*
X00417945Y00556750D02*
X00435237D01*
X00417645Y00556449D02*
X00417945Y00556750D01*
X00414745Y00556449D02*
X00417645D01*
X00414444Y00556750D02*
X00414745Y00556449D01*
X00393696Y00556750D02*
X00414444D01*
X00393441Y00556495D02*
X00393696Y00556750D01*
X00390542Y00556495D02*
X00393441D01*
X00390287Y00556750D02*
X00390542Y00556495D01*
X00355000Y00556750D02*
X00390287D01*
X00435237D02*
X00447991Y00543995D01*
X00342750Y00553500D02*
Y00568053D01*
X00334250Y00545000D02*
X00342750Y00553500D01*
X00334250Y00545000D02*
Y00545000D01*
X00259500Y00553500D02*
Y00619108D01*
X00532000Y00500004D02*
Y00588697D01*
X00545250Y00610000D02*
X00556250Y00599000D01*
X00545250Y00610000D02*
Y00668250D01*
X00543500Y00670000D02*
X00545250Y00668250D01*
X00463000Y00670000D02*
X00543500D01*
X00342750Y00568053D02*
X00349947Y00575250D01*
X00382050D02*
X00423800Y00617000D01*
X00349947Y00575250D02*
X00382050D01*
X00400800Y00571000D02*
X00430800Y00601000D01*
X00351500Y00571000D02*
X00400800D01*
X00346250Y00565750D02*
X00351500Y00571000D01*
X00346250Y00547950D02*
Y00565750D01*
X00908290Y00572960D02*
X00938000D01*
X00898290Y00582960D02*
X00908290Y00572960D01*
X00854250Y00582960D02*
X00898290D01*
X00762000Y00405960D02*
Y00463370D01*
Y00405960D02*
X00775000Y00392960D01*
Y00375626D02*
Y00392960D01*
X00992250Y00399460D02*
X01003500D01*
X00979000Y00386210D02*
X00992250Y00399460D01*
X00979000Y00346318D02*
Y00386210D01*
X00988197Y00406460D02*
X01008000D01*
X00969000Y00387263D02*
X00988197Y00406460D01*
X00989000Y00342176D02*
Y00383960D01*
X00775000Y00375626D02*
X00827309Y00323318D01*
X00994067Y00437277D02*
Y00535893D01*
X00970750Y00413960D02*
X00994067Y00437277D01*
X00948100Y00413960D02*
X00970750D01*
X00916654Y00354364D02*
X00935000Y00372710D01*
X00854346Y00354364D02*
X00916654D01*
X00935000Y00372710D02*
Y00414360D01*
X00827309Y00323318D02*
X00970142D01*
X00834608Y00330389D02*
X00963071D01*
X00784250Y00380747D02*
X00834608Y00330389D01*
X00794250Y00388460D02*
Y00484710D01*
X00782626Y00496334D02*
X00794250Y00484710D01*
X00744006Y00496334D02*
X00782626D01*
X00744000Y00481370D02*
X00762000Y00463370D01*
X00782500Y00481460D02*
X00784250Y00479710D01*
X00800750Y00476460D02*
X00809250D01*
X00798250Y00478960D02*
X00800750Y00476460D01*
X00798250Y00478960D02*
Y00488960D01*
X00785750Y00501460D02*
X00798250Y00488960D01*
X00744130Y00501460D02*
X00785750D01*
X00803994Y00481429D02*
X00811531D01*
X00744006Y00501584D02*
X00744130Y00501460D01*
X00773250Y00481460D02*
X00782500D01*
X00768090Y00486620D02*
X00773250Y00481460D01*
X00744000Y00486620D02*
X00768090D01*
X00809876Y00496334D02*
X00810000Y00496210D01*
X00803994Y00496334D02*
X00809876D01*
X00784250Y00380747D02*
Y00479710D01*
X00794250Y00388460D02*
X00845250Y00337460D01*
X00956000D01*
X00970142Y00323318D02*
X00989000Y00342176D01*
X00963071Y00330389D02*
X00979000Y00346318D01*
X00956000Y00337460D02*
X00969000Y00350460D01*
Y00387263D01*
X00811531Y00481429D02*
X00824000Y00468960D01*
X00809250Y00476460D02*
X00815750Y00469960D01*
Y00392960D02*
Y00469960D01*
X00941549Y00420511D02*
X00948100Y00413960D01*
X00954249Y00420511D02*
X00961449D01*
X00973913Y00432975D01*
Y00537047D01*
X00954249Y00445911D02*
X00956864D01*
X00900748Y00379710D02*
X00916149Y00395111D01*
X00922499Y00401461D02*
X00928849Y00407811D01*
X00922499Y00387960D02*
Y00401461D01*
X00928849Y00420511D02*
X00935000Y00414360D01*
X00896499Y00361960D02*
X00922499Y00387960D01*
X00935000Y00439760D02*
X00941549Y00433211D01*
X00935000Y00439760D02*
Y00543960D01*
X00930000Y00548960D02*
X00935000Y00543960D01*
X00948000Y00452160D02*
X00954249Y00445911D01*
X00948000Y00452160D02*
Y00543960D01*
X00936000Y00555960D02*
X00948000Y00543960D01*
X00954249Y00433211D02*
X00965000Y00443962D01*
Y00537779D01*
X00941137Y00588823D02*
X00994067Y00535893D01*
X00938000Y00572960D02*
X00973913Y00537047D01*
X00894000Y00568960D02*
X00900000Y00562960D01*
X00939819D01*
X00965000Y00537779D01*
X00858370Y00555960D02*
X00936000D01*
X00859000Y00568960D02*
X00894000D01*
X00807000Y00516960D02*
X00859000Y00568960D01*
X00814370Y00511960D02*
X00858370Y00555960D01*
X00812000Y00501960D02*
X00859000Y00548960D01*
X00930000D01*
X00803994Y00516584D02*
X00804370Y00516960D01*
X00803994Y00511334D02*
X00804620Y00511960D01*
X00803994Y00501584D02*
X00804370Y00501960D01*
X00744006Y00511334D02*
X00744132Y00511460D01*
X00782750D01*
X00744006Y00516584D02*
X00754882Y00527460D01*
X00785500D01*
X00782750Y00511460D02*
X00854250Y00582960D01*
X00785500Y00527460D02*
X00846863Y00588823D01*
X00941137D01*
X00804370Y00516960D02*
X00807000D01*
X00804620Y00511960D02*
X00814370D01*
X00804370Y00501960D02*
X00812000D01*
X00869750Y00379710D02*
X00900748D01*
X00837000Y00412460D02*
X00869750Y00379710D01*
X00837000Y00412460D02*
Y00472710D01*
X00813500Y00496210D02*
X00837000Y00472710D01*
X00810000Y00496210D02*
X00813500D01*
X00856250Y00361960D02*
X00896499D01*
X00824000Y00394210D02*
X00856250Y00361960D01*
X00824000Y00394210D02*
Y00468960D01*
X00815750Y00392960D02*
X00854346Y00354364D01*
X00454000Y00612250D02*
Y00650000D01*
X00461000Y00657000D01*
X00298250Y00361000D02*
Y00403500D01*
X00296000Y00358750D02*
X00298250Y00361000D01*
X00289000Y00366500D02*
X00290750Y00364750D01*
X00289000Y00366500D02*
Y00409000D01*
X00286750Y00411250D02*
X00289000Y00409000D01*
X00286750Y00411250D02*
Y00428610D01*
X00289000Y00412750D02*
X00298250Y00403500D01*
X00289000Y00412750D02*
Y00427678D01*
X00560849Y00516000D02*
Y00516901D01*
X00555599Y00516000D02*
Y00517626D01*
X00567174Y00443550D02*
X00568325Y00442400D01*
X00568500Y00446750D02*
X00569650Y00445600D01*
X00633975D01*
X00635000Y00446625D01*
X00633975Y00442400D02*
X00635000Y00441375D01*
X00271200Y00432950D02*
X00272500Y00434250D01*
X00271200Y00406018D02*
Y00432950D01*
X00266000Y00434250D02*
X00268000Y00432250D01*
Y00406018D02*
Y00432250D01*
X00547250Y00383750D02*
X00549250Y00385750D01*
X00547250Y00373275D02*
Y00383750D01*
X00551403Y00382750D02*
X00552000D01*
X00551700Y00373200D02*
Y00382500D01*
X00270487Y00313737D02*
X00278629Y00305596D01*
X00284500Y00429947D02*
X00289803Y00435250D01*
X00286750Y00428610D02*
X00291140Y00433000D01*
X00292072Y00430750D02*
X00304250D01*
X00289000Y00427678D02*
X00292072Y00430750D01*
X00289803Y00435250D02*
X00306114D01*
X00577750Y00525750D02*
Y00566553D01*
X00563000Y00511000D02*
X00577750Y00525750D01*
X00552000Y00511000D02*
X00563000D01*
X00584000Y00528500D02*
Y00580303D01*
X00555500Y00500000D02*
X00584000Y00528500D01*
X00539996Y00500000D02*
X00555500D01*
X00509037Y00460495D02*
X00538255D01*
X00539500Y00459250D01*
X00553250D01*
X00560500Y00452000D01*
X00547207Y00451043D02*
X00550647Y00447603D01*
X00567250Y00453750D02*
X00577000D01*
X00565500Y00452000D02*
X00567250Y00453750D01*
X00560500Y00452000D02*
X00565500D01*
X00577000Y00453750D02*
X00580250Y00450500D01*
X00624000D01*
X00637500Y00464000D01*
X00314000Y00275000D02*
X00327937D01*
X00294500Y00294500D02*
X00314000Y00275000D01*
X00265510Y00506490D02*
X00304750Y00467250D01*
Y00444250D02*
Y00467250D01*
Y00444250D02*
X00311500Y00437500D01*
X00284500Y00363500D02*
Y00429947D01*
Y00363500D02*
X00297500Y00350500D01*
Y00339500D02*
Y00350500D01*
X00295750Y00296750D02*
X00315250Y00277250D01*
X00335187Y00267750D02*
X00410318D01*
X00590500Y00315750D02*
X00631000D01*
X00586750Y00312000D02*
Y00327997D01*
Y00312000D02*
X00589750Y00309000D01*
X00586750Y00327997D02*
X00591253Y00332500D01*
X00430800Y00601000D02*
X00458500D01*
X00475000Y00584500D01*
X00493750D01*
X00476500Y00586500D02*
X00506000D01*
X00477750Y00588500D02*
X00489000D01*
X00496000Y00595500D01*
X00493750Y00584500D02*
X00508242Y00570009D01*
X00466125Y00663625D02*
X00481000Y00648750D01*
X00487987Y00496000D02*
X00487991Y00495995D01*
X00483000Y00496000D02*
X00487987D01*
X00492250Y00492254D02*
X00495991Y00495995D01*
X00492250Y00485500D02*
Y00492254D01*
X00490245Y00483495D02*
X00492250Y00485500D01*
X00478750Y00491750D02*
X00483000Y00496000D01*
X00470235Y00483495D02*
X00490245D01*
X00467491Y00480752D02*
X00470235Y00483495D01*
X00474491Y00451992D02*
X00476000Y00453500D01*
X00428741Y00451992D02*
X00474491D01*
X00421000Y00444250D02*
X00428741Y00451992D01*
X00499803Y00475807D02*
X00503991Y00479995D01*
X00494411Y00475807D02*
X00499803D01*
X00523987Y00492000D02*
X00527991Y00487995D01*
X00518750Y00492000D02*
X00523987D01*
X00516000Y00494750D02*
X00518750Y00492000D01*
X00464946Y00484000D02*
X00468000Y00487054D01*
X00463046Y00484000D02*
X00464946D01*
X00460000Y00480953D02*
X00463046Y00484000D01*
X00468000Y00489500D02*
X00470250Y00491750D01*
X00468000Y00487054D02*
Y00489500D01*
X00470250Y00491750D02*
X00478750D01*
X00540996Y00517000D02*
X00546000D01*
X00527991Y00495995D02*
X00532000Y00500004D01*
X00506000Y00586500D02*
X00516500Y00576000D01*
X00553330Y00440330D02*
X00555000Y00442000D01*
X00632750Y00376250D02*
X00646250D01*
X00604500Y00348000D02*
X00632750Y00376250D01*
X00604500Y00337000D02*
Y00348000D01*
X00591253Y00332500D02*
X00600000D01*
X00604500Y00337000D01*
X00263990Y00506490D02*
X00265510D01*
X00458895Y00663625D02*
X00466125D01*
X00460500Y00667500D02*
X00463000Y00670000D01*
X00368210Y00512078D02*
X00407078D01*
X00357644Y00501512D02*
X00368210Y00512078D01*
X00407078D02*
X00418620Y00523620D01*
X00437620D01*
X00413755Y00439995D02*
X00423991D01*
X00412328Y00444250D02*
X00421000D01*
X00410578Y00446000D02*
X00412328Y00444250D01*
X00315250Y00435250D02*
Y00470750D01*
X00355750Y00398750D02*
X00359750Y00402750D01*
X00355750Y00390250D02*
Y00398750D01*
Y00390250D02*
X00363000Y00383000D01*
X00506374Y00287050D02*
X00525150Y00305826D01*
X00430900Y00287050D02*
X00506374D01*
X00329000Y00277250D02*
X00336000Y00270250D01*
X00315250Y00277250D02*
X00329000D01*
X00327937Y00275000D02*
X00335187Y00267750D01*
X00336000Y00270250D02*
X00411000D01*
X00295500Y00286750D02*
X00300000Y00282250D01*
Y00264750D02*
Y00282250D01*
X00453250Y00378250D02*
Y00379250D01*
X00449500Y00383000D02*
X00453250Y00379250D01*
X00368159Y00491497D02*
X00411309D01*
X00381511Y00531620D02*
X00435616D01*
X00381582Y00540102D02*
X00427885D01*
X00428465Y00547522D02*
X00431992Y00543995D01*
X00355905Y00479243D02*
X00368159Y00491497D01*
X00652254Y00433496D02*
X00669000Y00416750D01*
X00637576Y00433496D02*
X00652254D01*
X00635072Y00436000D02*
X00637576Y00433496D01*
X00637500Y00464000D02*
X00666250D01*
X00455991Y00544035D02*
Y00548945D01*
X00525150Y00305826D02*
Y00312050D01*
X00512650Y00286650D02*
X00521100Y00295100D01*
X00512650Y00286650D02*
Y00286650D01*
X00521100Y00295100D02*
X00538050Y00312050D01*
X00467491Y00464388D02*
Y00480752D01*
X00494411Y00475807D02*
X00494469Y00475750D01*
X00477156Y00475807D02*
X00494411D01*
X00476000Y00474651D02*
X00477156Y00475807D01*
X00414000Y00511000D02*
X00419000Y00516000D01*
X00414000Y00504054D02*
Y00511000D01*
X00409441Y00499495D02*
X00414000Y00504054D01*
X00383991Y00503995D02*
X00388492Y00499495D01*
X00409441D01*
X00427885Y00540102D02*
X00431991Y00535995D01*
X00363480Y00522000D02*
X00381582Y00540102D01*
X00654000Y00325000D02*
X00658000Y00321000D01*
X00639000Y00325000D02*
X00654000D01*
X00666250Y00464000D02*
X00666500Y00463750D01*
X00654000Y00362000D02*
Y00380000D01*
X00417000Y00661000D02*
X00465000D01*
X00424750Y00611000D02*
X00425000D01*
X00535992Y00511995D02*
X00540996Y00517000D01*
X00358000Y00522000D02*
X00363480D01*
X00654000Y00380000D02*
X00669000Y00395000D01*
X00335267Y00470750D02*
X00335517Y00471000D01*
X00415000Y00663000D02*
Y00669000D01*
Y00663000D02*
X00417000Y00661000D01*
X00453520Y00669000D02*
X00458895Y00663625D01*
X00419000Y00516000D02*
X00441123D01*
X00444366Y00519244D01*
X00450865Y00527995D02*
X00455992D01*
X00444366Y00521497D02*
X00450865Y00527995D01*
X00444366Y00519244D02*
Y00521497D01*
X00437620Y00523620D02*
X00447991Y00533992D01*
Y00535995D01*
X00435616Y00531620D02*
X00439991Y00535995D01*
X00439000Y00667000D02*
X00440000D01*
X00503991Y00463995D02*
X00505537D01*
X00509037Y00460495D01*
X00358000Y00516000D02*
X00365891D01*
X00381511Y00531620D01*
X00363000Y00383000D02*
X00449500D01*
X00592000Y00327000D02*
X00632500D01*
X00634000Y00328500D01*
Y00353408D01*
X00637092Y00356500D01*
X00648500D01*
X00654000Y00362000D01*
X00411309Y00491497D02*
X00423992Y00504179D01*
Y00511995D01*
X00616500Y00285500D02*
X00626250D01*
X00517250Y00260500D02*
X00517750Y00261000D01*
X00631000Y00315750D02*
X00643250Y00303500D01*
Y00298000D02*
Y00303500D01*
X00425000Y00567000D02*
X00430000Y00562000D01*
X00326254Y00481754D02*
X00340497Y00495997D01*
X00356503D01*
X00315250Y00470750D02*
X00326254Y00481754D01*
X00460000Y00469500D02*
Y00480953D01*
X00458500Y00468000D02*
X00460000Y00469500D01*
X00463462Y00460358D02*
X00467491Y00464388D01*
X00335517Y00471000D02*
X00353375D01*
X00359250Y00465125D01*
X00353000Y00476500D02*
X00362500Y00467000D01*
X00331500Y00476500D02*
X00353000D01*
X00321000Y00466000D02*
X00331500Y00476500D01*
X00321000Y00460750D02*
Y00466000D01*
X00535991Y00421298D02*
Y00423995D01*
X00539741Y00398009D02*
X00546000Y00391750D01*
X00535991Y00439995D02*
X00540000Y00435987D01*
X00559250Y00396500D02*
Y00399250D01*
Y00396500D02*
X00562250Y00393500D01*
X00567155D01*
X00571230Y00309270D02*
X00571316D01*
X00570500Y00310000D02*
X00571230Y00309270D01*
X00575000Y00269750D02*
Y00305586D01*
X00571316Y00309270D02*
X00575000Y00305586D01*
X00529250Y00264250D02*
X00529250D01*
X00526500Y00267000D02*
X00529250Y00264250D01*
X00494500Y00274000D02*
X00499250Y00269250D01*
X00465197Y00260500D02*
X00517250D01*
X00413318Y00264750D02*
X00519303D01*
X00519553Y00264500D01*
X00525818D01*
X00262500Y00541000D02*
X00263500D01*
X00259500Y00619108D02*
X00265856Y00625465D01*
X00267250Y00585250D02*
X00271750Y00580750D01*
X00265000Y00585250D02*
X00267250D01*
X00476000Y00453500D02*
Y00474651D01*
X00265250Y00296750D02*
X00295750D01*
X00264000Y00294500D02*
X00294500D01*
X00499250Y00269250D02*
X00552250D01*
X00563250Y00280250D01*
Y00299350D01*
X00557080Y00436547D02*
X00557627Y00436000D01*
X00546000Y00391750D02*
X00553947D01*
X00446750Y00378000D02*
Y00378189D01*
X00343500Y00416000D02*
X00349191Y00410309D01*
Y00391750D02*
Y00410309D01*
X00378000Y00263000D02*
X00378500Y00262500D01*
X00381250D01*
X00432750Y00273250D02*
X00437250D01*
X00443500Y00267000D01*
X00526500D01*
X00410318Y00267750D02*
X00413318Y00264750D01*
X00411000Y00270250D02*
X00414250Y00267000D01*
X00426500D01*
X00432750Y00273250D01*
X00342750Y00454250D02*
X00350846Y00446154D01*
X00322250Y00454250D02*
X00342750D01*
X00516500Y00547750D02*
X00524000Y00540250D01*
X00516500Y00547750D02*
Y00576000D01*
X00430000Y00562000D02*
X00442937D01*
X00455991Y00548945D01*
X00508242Y00534795D02*
Y00570009D01*
X00510542Y00532495D02*
X00512441D01*
X00508242Y00534795D02*
X00510542Y00532495D01*
X00496000Y00570000D02*
X00500250Y00565750D01*
Y00533250D02*
Y00565750D01*
X00387774Y00444000D02*
X00409750D01*
X00413755Y00439995D01*
X00385441Y00444495D02*
X00386946Y00446000D01*
X00410578D01*
X00409745Y00451495D02*
X00418608Y00460358D01*
X00463462D01*
X00405245Y00453745D02*
X00419500Y00468000D01*
X00512441Y00532495D02*
X00516000Y00528936D01*
X00500250Y00533250D02*
X00507750Y00525750D01*
X00524000Y00508004D02*
X00528000Y00504004D01*
X00557627Y00436000D02*
X00635072D01*
X00561734Y00433462D02*
X00564841D01*
X00567057Y00431246D01*
X00560746Y00432474D02*
X00561734Y00433462D01*
X00553330Y00434994D02*
Y00440330D01*
Y00434994D02*
X00555850Y00432474D01*
X00560746D01*
X00547005Y00411495D02*
X00559250Y00399250D01*
X00567057Y00431246D02*
X00648807D01*
X00419500Y00468000D02*
X00458500D01*
X00359250Y00453250D02*
Y00465125D01*
X00362500Y00454335D02*
Y00467000D01*
X00568250Y00576053D02*
Y00590250D01*
Y00576053D02*
X00577750Y00566553D01*
X00420500Y00387000D02*
X00456750D01*
X00460750Y00391000D01*
X00479000D01*
X00386373Y00442245D02*
X00387691Y00443563D01*
Y00443917D01*
X00387774Y00444000D01*
X00349191Y00391750D02*
X00349303D01*
X00446259Y00378491D02*
X00446750Y00378000D01*
X00349303Y00391750D02*
X00362562Y00378491D01*
X00446259D01*
X00348153Y00428863D02*
Y00436903D01*
Y00428863D02*
X00354378Y00422638D01*
X00348153Y00436903D02*
X00353677Y00442427D01*
X00358224D01*
X00358405Y00442245D01*
X00357678Y00446154D02*
X00359337Y00444495D01*
X00350846Y00446154D02*
X00357678D01*
X00354378Y00422638D02*
X00357913D01*
X00363551Y00417000D01*
X00365750D01*
X00359750Y00402750D02*
Y00414500D01*
X00355750Y00418500D02*
X00359750Y00414500D01*
X00532241Y00417548D02*
X00535991Y00421298D01*
X00542255Y00411495D02*
X00547005D01*
X00540000Y00413750D02*
X00542255Y00411495D01*
X00540000Y00413750D02*
Y00435987D01*
X00532241Y00414442D02*
Y00417548D01*
Y00414442D02*
X00534938Y00411745D01*
X00537545D01*
X00539741Y00409548D01*
Y00398009D02*
Y00409548D01*
X00546000Y00517000D02*
X00552000Y00511000D01*
X00475000Y00579750D02*
X00478250D01*
X00488000Y00570000D01*
X00496000D01*
X00382522Y00547522D02*
X00428465D01*
X00336053Y00517000D02*
X00354553Y00535500D01*
X00370500D01*
X00382522Y00547522D01*
X00352750Y00567000D02*
X00425000D01*
X00375361Y00451495D02*
X00409745D01*
X00374429Y00453745D02*
X00405245D01*
X00362500Y00454335D02*
X00366585Y00450250D01*
X00370934D01*
X00374429Y00453745D01*
X00359250Y00453250D02*
X00364500Y00448000D01*
X00371866D01*
X00375361Y00451495D01*
X00359337Y00444495D02*
X00385441D01*
X00358405Y00442245D02*
X00386373D01*
X00360500Y00434552D02*
X00362674Y00432378D01*
X00491683Y00431000D02*
X00494438Y00428245D01*
X00515741D01*
X00519991Y00423995D01*
X00374199Y00426625D02*
X00374252D01*
X00492241Y00419745D02*
X00495991Y00415995D01*
X00494741Y00422745D02*
X00495991Y00423995D01*
X00378500Y00421250D02*
Y00422377D01*
X00374377Y00426500D02*
X00378500Y00422377D01*
X00361500Y00391375D02*
X00362875Y00390000D01*
X00361500Y00396625D02*
X00361553D01*
X00365178Y00393000D01*
X00494121Y00404379D02*
X00501988Y00412245D01*
X00505545D01*
X00509295Y00415995D02*
X00511991D01*
X00505545Y00412245D02*
X00509295Y00415995D01*
X00492000Y00406500D02*
X00501495Y00415995D01*
X00503991D01*
X00336466Y00404875D02*
X00337295Y00404045D01*
X00348765Y00367243D02*
X00364243Y00351764D01*
X00350886Y00369364D02*
X00366364Y00353886D01*
X00475268Y00357268D02*
X00477250Y00359250D01*
X00345750Y00327250D02*
X00346485Y00326515D01*
X00485308Y00347316D02*
X00490280Y00352288D01*
X00483187Y00349437D02*
X00488159Y00354409D01*
X00485712Y00374962D02*
X00500242Y00389492D01*
Y00393549D01*
X00503991Y00397299D01*
Y00399995D01*
X00514250Y00395040D02*
X00515742Y00393549D01*
X00494518Y00362518D02*
X00515742Y00383741D01*
Y00393549D01*
X00511250Y00407254D02*
X00511991Y00407995D01*
X00319000Y00416000D02*
X00343500D01*
X00319682Y00418500D02*
X00355750D01*
X00312250Y00432250D02*
X00315250Y00435250D01*
X00309114Y00432250D02*
X00312250D01*
X00304250Y00430750D02*
X00319000Y00416000D01*
X00291140Y00433000D02*
X00305182D01*
X00319682Y00418500D01*
X00306114Y00435250D02*
X00309114Y00432250D01*
X00285014Y00335243D02*
X00319243Y00301014D01*
X00287136Y00337364D02*
X00321364Y00303136D01*
X00467257Y00301014D02*
X00494621Y00328379D01*
X00514250Y00395040D02*
Y00402254D01*
X00519991Y00407995D01*
X00669000Y00395000D02*
Y00416750D01*
X00653500Y00411500D02*
X00655000Y00410000D01*
X00660652Y00390652D02*
Y00419402D01*
X00646250Y00376250D02*
X00660652Y00390652D01*
X00648807Y00431246D02*
X00660652Y00419402D01*
X00570500Y00310000D02*
Y00375197D01*
X00553947Y00391750D02*
X00570500Y00375197D01*
X00567155Y00393500D02*
X00578750Y00381905D01*
Y00367000D02*
Y00381905D01*
X00576750Y00365000D02*
X00578750Y00367000D01*
X00576750Y00355947D02*
Y00365000D01*
X00579000Y00268000D02*
Y00353697D01*
X00576750Y00355947D02*
X00579000Y00353697D01*
X00535991Y00447995D02*
X00537241Y00449245D01*
X00538787D01*
X00541292Y00451750D01*
X00527991Y00447995D02*
X00532241Y00452245D01*
X00537545D01*
X00540049Y00454750D01*
X00508242Y00380484D02*
Y00393549D01*
X00511250Y00396557D01*
Y00407254D01*
X00492242Y00385734D02*
Y00393549D01*
X00495250Y00396557D01*
X00529000Y00386493D02*
Y00393683D01*
X00527991Y00407751D02*
Y00407995D01*
X00523750Y00398933D02*
X00529000Y00393683D01*
X00523750Y00398933D02*
Y00412237D01*
X00519991Y00415995D02*
X00523750Y00412237D01*
X00532000Y00385250D02*
Y00403743D01*
X00527991Y00407751D02*
X00532000Y00403743D01*
X00489250Y00434000D02*
X00490995Y00435745D01*
X00516241D01*
X00519991Y00431995D01*
X00464000Y00645000D02*
X00465025Y00643975D01*
Y00642000D02*
Y00643975D01*
X00468225Y00643975D02*
X00469250Y00645000D01*
X00468225Y00642000D02*
Y00643975D01*
X00461604Y00638579D02*
X00465025Y00642000D01*
X00466066Y00611823D02*
X00466184Y00611705D01*
X00479676Y00601669D02*
X00480595Y00600750D01*
X00479676Y00596419D02*
X00480807Y00597550D01*
X00502934Y00596419D02*
X00503959Y00597444D01*
X00502934Y00601669D02*
X00503959Y00600644D01*
X00628750Y00478500D02*
X00636637Y00486386D01*
X00535991Y00567995D02*
X00537077Y00566909D01*
X00548237Y00524987D02*
X00555599Y00517626D01*
X00535992Y00495995D02*
X00539996Y00500000D01*
X00550000Y00542268D02*
Y00543850D01*
X00549600Y00544250D02*
X00550000Y00543850D01*
X00543822Y00544250D02*
X00549600D01*
X00543422Y00544650D02*
X00543822Y00544250D01*
X00543422Y00544650D02*
Y00545850D01*
X00543822Y00546250D01*
X00549600D01*
X00550000Y00546650D01*
Y00547850D01*
X00549600Y00548250D02*
X00550000Y00547850D01*
X00547883Y00548250D02*
X00549600D01*
X00547483Y00548650D02*
X00547883Y00548250D01*
X00547483Y00548650D02*
Y00549850D01*
X00547883Y00550250D01*
X00549600D01*
X00550000Y00550650D01*
X00524000Y00508004D02*
Y00540250D01*
X00516000Y00494750D02*
Y00528936D01*
X00503991Y00503995D02*
X00507750Y00507754D01*
Y00525750D01*
X00431250Y00585781D02*
X00432275Y00586806D01*
X00431250Y00591031D02*
X00432275Y00590006D01*
X00491741Y00537716D02*
X00493879Y00539853D01*
X00491741Y00534442D02*
Y00537716D01*
X00487991Y00527995D02*
Y00530692D01*
X00491741Y00534442D01*
X00487991Y00535995D02*
Y00538491D01*
X00481000Y00645000D02*
X00530000D01*
X00465000Y00661000D02*
X00481000Y00645000D01*
X00496000Y00606000D02*
X00507750Y00617750D01*
X00496000Y00595500D02*
Y00606000D01*
X00507750Y00617750D02*
X00518250D01*
X00522500Y00598197D02*
X00532000Y00588697D01*
X00522500Y00598197D02*
Y00613500D01*
X00518250Y00617750D02*
X00522500Y00613500D01*
X00440000Y00667000D02*
X00442000Y00669000D01*
X00453520D01*
X00530000Y00645000D02*
X00535625Y00639375D01*
X00527125Y00598875D02*
Y00607375D01*
X00535625Y00615875D01*
Y00639375D01*
X00423800Y00617000D02*
X00434000D01*
X00447000Y00604000D01*
X00459000D01*
X00476500Y00586500D01*
X00454000Y00612250D02*
X00477750Y00588500D01*
X00373181Y00458750D02*
X00382000D01*
X00367931D02*
Y00460681D01*
X00369750Y00462500D01*
X00381507D01*
X00549250Y00385750D02*
X00549750D01*
X00552000Y00388000D01*
X00556250Y00599000D02*
X00565303D01*
X00584000Y00580303D01*
X00262500Y00535750D02*
X00267750Y00530500D01*
X00263500Y00541000D02*
X00269000Y00535500D01*
X00264000Y00517000D02*
X00336053D01*
X00351500Y00553250D02*
X00355000Y00556750D01*
X00267750Y00530500D02*
X00340800D01*
X00351500Y00541200D01*
Y00553250D01*
X00269000Y00535500D02*
X00332071D01*
X00334323Y00533248D01*
X00339748D01*
X00281750Y00541000D02*
X00339300D01*
X00346250Y00547950D01*
X00348500Y00542000D02*
Y00562750D01*
X00352750Y00567000D01*
X00339748Y00533248D02*
X00348500Y00542000D01*
X00285500Y00552000D02*
Y00586500D01*
Y00552000D02*
X00292500Y00545000D01*
X00334250D01*
X00275500Y00547250D02*
X00281750Y00541000D01*
X00275500Y00547250D02*
Y00555750D01*
X00281500Y00561750D01*
X00281750D01*
X00265856Y00625465D02*
X00277215D01*
X00284500Y00632750D01*
X00271750Y00556250D02*
Y00580750D01*
X00464947Y00260250D02*
X00465197Y00260500D01*
X00381250Y00262500D02*
X00383500Y00260250D01*
X00464947D01*
X00567750Y00262500D02*
X00575000Y00269750D01*
X00531000Y00262500D02*
X00567750D01*
X00529250Y00264250D02*
X00531000Y00262500D01*
X00571250Y00260250D02*
X00579000Y00268000D01*
X00530068Y00260250D02*
X00571250D01*
X00525818Y00264500D02*
X00530068Y00260250D01*
X00587750Y00256750D02*
X00616500Y00285500D01*
X00300000Y00264750D02*
X00308000Y00256750D01*
X00587750D01*
X00260500Y00301500D02*
X00265250Y00296750D01*
X00260500Y00301500D02*
Y00485000D01*
X00258750Y00543250D02*
X00271750Y00556250D01*
X00258750Y00529303D02*
Y00543250D01*
Y00529303D02*
X00259000Y00529053D01*
Y00486500D02*
Y00529053D01*
Y00486500D02*
X00260500Y00485000D01*
X00256500Y00550500D02*
X00259500Y00553500D01*
X00256500Y00302000D02*
X00264000Y00294500D01*
X00256500Y00302000D02*
Y00550500D01*
X00271250Y00589750D02*
X00271426Y00589574D01*
X00282426D01*
X00285500Y00586500D01*
D66*
X00916149Y00471311D02*
Y00484011D01*
Y00471149D02*
Y00471311D01*
X00915750Y00470750D02*
X00916149Y00471149D01*
X00357505Y00507512D02*
Y00508238D01*
D67*
X02112333Y00560692D02*
X02125800Y00547225D01*
X02133496Y00554921D01*
X02125351Y00567298D02*
X02124710Y00567939D01*
X02124068Y00569863D01*
Y00571146D01*
X02124710Y00573070D01*
X02127275Y00575635D01*
X02129199Y00576276D01*
X02130482D01*
X02132406Y00575635D01*
X02133688Y00574352D01*
X02134330Y00572429D01*
X02134971Y00569222D01*
Y00556396D01*
X02143949Y00565374D01*
D76*
X02123456Y00524995D02*
X02136758D01*
X02129502Y00515321D01*
X02133130D01*
X02135549Y00514111D01*
X02136758Y00512902D01*
X02137967Y00509274D01*
Y00506856D01*
X02136758Y00503228D01*
X02134339Y00500809D01*
X02130712Y00499600D01*
X02127084D01*
X02123456Y00500809D01*
X02122247Y00502019D01*
X02121038Y00504437D01*
D84*
X00626250Y00285500D02*
D03*
D85*
X00941549Y00433211D02*
D03*
Y00420511D02*
D03*
X00928849D02*
D03*
Y00407811D02*
D03*
X00916149Y00484011D02*
D03*
Y00471311D02*
D03*
Y00395111D02*
D03*
X00954249Y00420511D02*
D03*
Y00433211D02*
D03*
Y00445911D02*
D03*
D86*
X00362400Y00608850D02*
D03*
Y00659650D02*
D03*
X00311600D02*
D03*
Y00608850D02*
D03*
D92*
X00545250Y00668250D02*
D03*
X01107000Y00506460D02*
D03*
X00995000Y00389960D02*
D03*
X01008000Y00406460D02*
D03*
X01003500Y00399460D02*
D03*
X00803994Y00501584D02*
D03*
Y00496334D02*
D03*
Y00516584D02*
D03*
Y00511334D02*
D03*
X00744006Y00516584D02*
D03*
Y00501584D02*
D03*
Y00496334D02*
D03*
X00744000Y00486620D02*
D03*
Y00481370D02*
D03*
X01037250Y00301210D02*
D03*
X00936300Y00619342D02*
D03*
X00744006Y00511334D02*
D03*
X00803994Y00481429D02*
D03*
X00560849Y00516000D02*
D03*
X00555599D02*
D03*
X00272500Y00434250D02*
D03*
X00266000D02*
D03*
X00617000Y00468500D02*
D03*
X00568250Y00590250D02*
D03*
X00527125Y00598875D02*
D03*
X00262500Y00535750D02*
D03*
X00378000Y00263000D02*
D03*
X00590500Y00315750D02*
D03*
X00589750Y00309000D02*
D03*
X00271250Y00589750D02*
D03*
X00486250Y00649000D02*
D03*
X00528000Y00504004D02*
D03*
X00495991Y00495995D02*
D03*
X00487991Y00495995D02*
D03*
X00555000Y00442000D02*
D03*
X00263250Y00518000D02*
D03*
X00365750Y00417000D02*
D03*
X00263990Y00506490D02*
D03*
X00423991Y00439995D02*
D03*
X00297500Y00339500D02*
D03*
X00295500Y00286750D02*
D03*
X00311500Y00437500D02*
D03*
X00290750Y00364750D02*
D03*
X00420500Y00387000D02*
D03*
X00423992Y00511995D02*
D03*
X00453250Y00378250D02*
D03*
X00446750Y00378000D02*
D03*
X00499710Y00630875D02*
D03*
Y00625625D02*
D03*
X00464000Y00645000D02*
D03*
X00469250D02*
D03*
X00519991Y00423995D02*
D03*
Y00431995D02*
D03*
X00503991Y00399995D02*
D03*
X00357505Y00501512D02*
D03*
X00648250Y00426500D02*
D03*
X00355905Y00479243D02*
D03*
X00658000Y00321000D02*
D03*
X00639000Y00325000D02*
D03*
X00592000Y00327000D02*
D03*
X00666500Y00463750D02*
D03*
X00535992Y00511995D02*
D03*
X00383991Y00503995D02*
D03*
X00512650Y00286650D02*
D03*
X00527991Y00407995D02*
D03*
X00425000Y00611000D02*
D03*
X00460500Y00667500D02*
D03*
X00461000Y00657000D02*
D03*
X00439000Y00667000D02*
D03*
X00415000Y00669000D02*
D03*
X00535992Y00495995D02*
D03*
X00527991D02*
D03*
X00503991Y00415995D02*
D03*
X00511991D02*
D03*
X00495991Y00399995D02*
D03*
X00511991Y00407995D02*
D03*
X00519991D02*
D03*
Y00415995D02*
D03*
X00495996Y00471987D02*
D03*
X00358000Y00516000D02*
D03*
Y00522000D02*
D03*
X00519991Y00455995D02*
D03*
X00503991Y00479995D02*
D03*
X00357505Y00507512D02*
D03*
X00335267Y00470750D02*
D03*
X00618351Y00461500D02*
D03*
X00527991Y00487995D02*
D03*
X00455992Y00527995D02*
D03*
X00430900Y00287050D02*
D03*
X00525150Y00312050D02*
D03*
X00538050D02*
D03*
X00487991Y00535995D02*
D03*
X00487991Y00527995D02*
D03*
X00455991Y00544035D02*
D03*
X00447991Y00543995D02*
D03*
X00431992Y00543995D02*
D03*
X00439991Y00535995D02*
D03*
X00431991Y00535995D02*
D03*
X00447991Y00535995D02*
D03*
X00535991Y00463995D02*
D03*
X00503991Y00463995D02*
D03*
X00557080Y00436547D02*
D03*
X00475000Y00579750D02*
D03*
X00479000Y00391000D02*
D03*
X00563250Y00299350D02*
D03*
X00494500Y00274000D02*
D03*
X00517750Y00261000D02*
D03*
X00643250Y00298000D02*
D03*
X00535991Y00423995D02*
D03*
Y00439995D02*
D03*
X00503991Y00503995D02*
D03*
X00357250Y00496000D02*
D03*
X00322250Y00454250D02*
D03*
X00321000Y00460750D02*
D03*
X00262500Y00541000D02*
D03*
X00265000Y00585250D02*
D03*
X00296000Y00358750D02*
D03*
X00655000Y00415250D02*
D03*
Y00410000D02*
D03*
X00527991Y00551995D02*
D03*
Y00543995D02*
D03*
X00356671Y00438677D02*
D03*
Y00433427D02*
D03*
X00460934Y00611705D02*
D03*
X00466184D02*
D03*
X00439750Y00573500D02*
D03*
Y00568250D02*
D03*
X00374199Y00426625D02*
D03*
Y00421375D02*
D03*
X00495991Y00423995D02*
D03*
Y00415995D02*
D03*
X00361500Y00396625D02*
D03*
Y00391375D02*
D03*
X00337462Y00409712D02*
D03*
X00333750Y00406000D02*
D03*
X00293250Y00426625D02*
D03*
Y00421375D02*
D03*
X00543991Y00423995D02*
D03*
Y00415995D02*
D03*
X00535991Y00447995D02*
D03*
X00527991D02*
D03*
X00552000Y00388000D02*
D03*
Y00382750D02*
D03*
X00635000Y00446625D02*
D03*
Y00441375D02*
D03*
X00270500Y00451250D02*
D03*
Y00446000D02*
D03*
X00479676Y00601669D02*
D03*
Y00596419D02*
D03*
X00502934Y00601669D02*
D03*
Y00596419D02*
D03*
X00554983Y00492000D02*
D03*
X00560233D02*
D03*
X00535991Y00567995D02*
D03*
Y00559995D02*
D03*
X00431250Y00585781D02*
D03*
X00659000Y00494575D02*
D03*
Y00489325D02*
D03*
X00431250Y00591031D02*
D03*
X00367931Y00458750D02*
D03*
X00373181D02*
D03*
X00281750Y00561750D02*
D03*
X00284500Y00633000D02*
D03*
D106*
X01090001Y00620000D02*
D03*
Y00600000D02*
D03*
Y00580000D02*
D03*
Y00560000D02*
D03*
Y00520000D02*
D03*
Y00500000D02*
D03*
Y00480000D02*
D03*
Y00460000D02*
D03*
Y00400000D02*
D03*
Y00380000D02*
D03*
Y00360000D02*
D03*
Y00340000D02*
D03*
Y00300000D02*
D03*
X01070001Y00640000D02*
D03*
Y00620000D02*
D03*
Y00600000D02*
D03*
Y00540000D02*
D03*
Y00520000D02*
D03*
Y00500000D02*
D03*
Y00480000D02*
D03*
Y00460000D02*
D03*
Y00440000D02*
D03*
Y00420000D02*
D03*
Y00400000D02*
D03*
Y00380000D02*
D03*
Y00360000D02*
D03*
Y00300000D02*
D03*
Y00280000D02*
D03*
X01050001Y00640000D02*
D03*
Y00620000D02*
D03*
Y00600000D02*
D03*
Y00580000D02*
D03*
Y00540000D02*
D03*
Y00520000D02*
D03*
Y00500000D02*
D03*
Y00480000D02*
D03*
Y00460000D02*
D03*
Y00440000D02*
D03*
Y00420000D02*
D03*
Y00360000D02*
D03*
Y00340000D02*
D03*
Y00280000D02*
D03*
X01030001Y00640000D02*
D03*
Y00620000D02*
D03*
Y00600000D02*
D03*
Y00560000D02*
D03*
Y00500000D02*
D03*
Y00460000D02*
D03*
Y00360000D02*
D03*
Y00340000D02*
D03*
Y00320000D02*
D03*
Y00300000D02*
D03*
Y00280000D02*
D03*
X01010001Y00640000D02*
D03*
Y00620000D02*
D03*
Y00580000D02*
D03*
Y00560000D02*
D03*
Y00540000D02*
D03*
Y00520000D02*
D03*
Y00500000D02*
D03*
Y00460000D02*
D03*
Y00440000D02*
D03*
Y00420000D02*
D03*
Y00380000D02*
D03*
Y00360000D02*
D03*
Y00340000D02*
D03*
Y00320000D02*
D03*
Y00300000D02*
D03*
Y00280000D02*
D03*
X00990001Y00640000D02*
D03*
Y00600000D02*
D03*
Y00580000D02*
D03*
Y00560000D02*
D03*
Y00420000D02*
D03*
Y00300000D02*
D03*
Y00280000D02*
D03*
X00970001Y00640000D02*
D03*
Y00600000D02*
D03*
Y00400000D02*
D03*
Y00280000D02*
D03*
X00950001Y00640000D02*
D03*
Y00600000D02*
D03*
Y00380000D02*
D03*
Y00360000D02*
D03*
X00930001Y00640000D02*
D03*
Y00600000D02*
D03*
Y00580000D02*
D03*
Y00300000D02*
D03*
Y00280000D02*
D03*
X00910001Y00640000D02*
D03*
Y00620000D02*
D03*
Y00600000D02*
D03*
Y00300000D02*
D03*
Y00280000D02*
D03*
X00890001Y00620000D02*
D03*
Y00600000D02*
D03*
Y00300000D02*
D03*
Y00280000D02*
D03*
X00870001Y00400000D02*
D03*
Y00300000D02*
D03*
Y00280000D02*
D03*
X00850001Y00620000D02*
D03*
Y00600000D02*
D03*
Y00520000D02*
D03*
Y00500000D02*
D03*
Y00480000D02*
D03*
Y00460000D02*
D03*
Y00440000D02*
D03*
Y00420000D02*
D03*
Y00380000D02*
D03*
Y00300000D02*
D03*
Y00280000D02*
D03*
X00830001Y00640000D02*
D03*
Y00620000D02*
D03*
Y00600000D02*
D03*
Y00500000D02*
D03*
Y00460000D02*
D03*
Y00440000D02*
D03*
Y00420000D02*
D03*
Y00400000D02*
D03*
X00810001Y00640000D02*
D03*
Y00620000D02*
D03*
Y00600000D02*
D03*
Y00580000D02*
D03*
Y00460000D02*
D03*
Y00440000D02*
D03*
Y00420000D02*
D03*
Y00320000D02*
D03*
Y00300000D02*
D03*
Y00280000D02*
D03*
X00790001Y00640000D02*
D03*
Y00620000D02*
D03*
Y00600000D02*
D03*
Y00560000D02*
D03*
Y00320000D02*
D03*
Y00300000D02*
D03*
X00770001Y00640000D02*
D03*
Y00620000D02*
D03*
Y00600000D02*
D03*
Y00580000D02*
D03*
Y00360000D02*
D03*
Y00340000D02*
D03*
Y00320000D02*
D03*
Y00300000D02*
D03*
X00750001Y00640000D02*
D03*
Y00620000D02*
D03*
Y00600000D02*
D03*
Y00580000D02*
D03*
Y00560000D02*
D03*
Y00440000D02*
D03*
Y00360000D02*
D03*
Y00340000D02*
D03*
Y00320000D02*
D03*
Y00300000D02*
D03*
Y00280000D02*
D03*
X00730001Y00620000D02*
D03*
Y00600000D02*
D03*
Y00580000D02*
D03*
Y00560000D02*
D03*
Y00540000D02*
D03*
Y00520000D02*
D03*
Y00500000D02*
D03*
Y00480000D02*
D03*
Y00460000D02*
D03*
Y00440000D02*
D03*
Y00420000D02*
D03*
Y00400000D02*
D03*
Y00380000D02*
D03*
Y00360000D02*
D03*
Y00340000D02*
D03*
Y00320000D02*
D03*
Y00300000D02*
D03*
D107*
X00570155Y00465100D02*
X00576650D01*
X00569205Y00464150D02*
X00570155Y00465100D01*
X00576650D02*
X00579750Y00462000D01*
X00563587Y00464150D02*
X00569205D01*
X00561500Y00421750D02*
X00624750D01*
X00559750Y00423500D02*
X00561500Y00421750D01*
X00551048Y00423500D02*
X00559750D01*
X00551018Y00423529D02*
X00551048Y00423500D01*
X00550971Y00423529D02*
X00551018D01*
X00546441Y00428059D02*
X00550971Y00423529D01*
X00546441Y00428059D02*
Y00436000D01*
X00629500Y00426500D02*
X00648250D01*
X00624750Y00421750D02*
X00629500Y00426500D01*
X00538441Y00444000D02*
X00546441Y00436000D01*
X00526250Y00444000D02*
X00538441D01*
X00519991Y00450259D02*
X00526250Y00444000D01*
X00519991Y00450259D02*
Y00455995D01*
X00535991Y00463995D02*
X00555505D01*
X00559750Y00459750D01*
X00564803D01*
X00567053Y00457500D01*
X00614351D01*
X00618351Y00461500D01*
X00495996Y00471987D02*
X00499983Y00468000D01*
X00559737D01*
X00563587Y00464150D01*
X00579750Y00462000D02*
X00610500D01*
X00617000Y00468500D01*
M02*
