G04 Layer_Color=8388736*
%FSAX24Y24*%
%MOIN*%
G70*
G01*
G75*
%ADD14C,0.0118*%
%ADD66C,0.0079*%
%ADD69C,0.0059*%
%ADD74C,0.0039*%
%ADD178C,0.0020*%
D14*
X012323Y009774D02*
G03*
X012323Y009774I-000059J000000D01*
G01*
X024882Y015223D02*
G03*
X024882Y015223I-000059J000000D01*
G01*
X025415Y011440D02*
G03*
X025415Y011440I-000059J000000D01*
G01*
X021043Y026752D02*
G03*
X021043Y026752I-000059J000000D01*
G01*
X030719Y011524D02*
G03*
X030719Y011524I-000059J000000D01*
G01*
D66*
X029264Y022221D02*
Y021959D01*
X029002Y022221D01*
X028936D01*
X028871Y022156D01*
Y022024D01*
X028936Y021959D01*
X028906Y014122D02*
X028841Y014188D01*
Y014319D01*
X028906Y014385D01*
X028972D01*
X029037Y014319D01*
X029103Y014385D01*
X029169D01*
X029234Y014319D01*
Y014188D01*
X029169Y014122D01*
X029103D01*
X029037Y014188D01*
X028972Y014122D01*
X028906D01*
X029037Y014188D02*
Y014319D01*
X028906Y014516D02*
X028841Y014581D01*
Y014712D01*
X028906Y014778D01*
X029169D01*
X029234Y014712D01*
Y014581D01*
X029169Y014516D01*
X028906D01*
X032155Y022049D02*
Y022180D01*
Y022114D01*
X031761D01*
X031827Y022049D01*
X031761Y014136D02*
Y014398D01*
X031827D01*
X032089Y014136D01*
X032155D01*
X032089Y014529D02*
X032155Y014595D01*
Y014726D01*
X032089Y014792D01*
X031827D01*
X031761Y014726D01*
Y014595D01*
X031827Y014529D01*
X031892D01*
X031958Y014595D01*
Y014792D01*
X040288Y022221D02*
Y021959D01*
X040025Y022221D01*
X039960D01*
X039894Y022156D01*
Y022024D01*
X039960Y021959D01*
X039930Y014122D02*
X039864Y014188D01*
Y014319D01*
X039930Y014385D01*
X039995D01*
X040061Y014319D01*
X040127Y014385D01*
X040192D01*
X040258Y014319D01*
Y014188D01*
X040192Y014122D01*
X040127D01*
X040061Y014188D01*
X039995Y014122D01*
X039930D01*
X040061Y014188D02*
Y014319D01*
X039930Y014516D02*
X039864Y014581D01*
Y014712D01*
X039930Y014778D01*
X040192D01*
X040258Y014712D01*
Y014581D01*
X040192Y014516D01*
X039930D01*
X043178Y022049D02*
Y022180D01*
Y022114D01*
X042785D01*
X042850Y022049D01*
X042785Y014136D02*
Y014398D01*
X042850D01*
X043113Y014136D01*
X043178D01*
X043113Y014529D02*
X043178Y014595D01*
Y014726D01*
X043113Y014792D01*
X042850D01*
X042785Y014726D01*
Y014595D01*
X042850Y014529D01*
X042916D01*
X042982Y014595D01*
Y014792D01*
D69*
X016608Y014960D02*
X016619Y014938D01*
X016653Y014904D01*
X016417D01*
X016653Y014630D02*
X016417Y014742D01*
X016653Y014787D02*
Y014630D01*
X015022Y014949D02*
X015033D01*
X015056Y014938D01*
X015067Y014927D01*
X015078Y014904D01*
Y014859D01*
X015067Y014837D01*
X015056Y014825D01*
X015033Y014814D01*
X015011D01*
X014988Y014825D01*
X014955Y014848D01*
X014842Y014960D01*
Y014803D01*
X015022Y014739D02*
X015033D01*
X015056Y014728D01*
X015067Y014716D01*
X015078Y014694D01*
Y014649D01*
X015067Y014626D01*
X015056Y014615D01*
X015033Y014604D01*
X015011D01*
X014988Y014615D01*
X014955Y014638D01*
X014842Y014750D01*
Y014593D01*
X015337Y014949D02*
X015348D01*
X015371Y014938D01*
X015382Y014927D01*
X015393Y014904D01*
Y014859D01*
X015382Y014837D01*
X015371Y014825D01*
X015348Y014814D01*
X015326D01*
X015303Y014825D01*
X015270Y014848D01*
X015157Y014960D01*
Y014803D01*
X015348Y014750D02*
X015360Y014728D01*
X015393Y014694D01*
X015157D01*
X015652Y014949D02*
X015663D01*
X015686Y014938D01*
X015697Y014927D01*
X015708Y014904D01*
Y014859D01*
X015697Y014837D01*
X015686Y014825D01*
X015663Y014814D01*
X015641D01*
X015618Y014825D01*
X015585Y014848D01*
X015472Y014960D01*
Y014803D01*
X015708Y014683D02*
X015697Y014716D01*
X015663Y014739D01*
X015607Y014750D01*
X015573D01*
X015517Y014739D01*
X015483Y014716D01*
X015472Y014683D01*
Y014660D01*
X015483Y014626D01*
X015517Y014604D01*
X015573Y014593D01*
X015607D01*
X015663Y014604D01*
X015697Y014626D01*
X015708Y014660D01*
Y014683D01*
X015978Y014960D02*
X015989Y014938D01*
X016023Y014904D01*
X015787D01*
X015945Y014641D02*
X015911Y014652D01*
X015888Y014675D01*
X015877Y014709D01*
Y014720D01*
X015888Y014754D01*
X015911Y014776D01*
X015945Y014787D01*
X015956D01*
X015989Y014776D01*
X016012Y014754D01*
X016023Y014720D01*
Y014709D01*
X016012Y014675D01*
X015989Y014652D01*
X015945Y014641D01*
X015888D01*
X015832Y014652D01*
X015798Y014675D01*
X015787Y014709D01*
Y014731D01*
X015798Y014765D01*
X015821Y014776D01*
X016293Y014960D02*
X016304Y014938D01*
X016338Y014904D01*
X016102D01*
X016338Y014731D02*
X016327Y014765D01*
X016304Y014776D01*
X016282D01*
X016259Y014765D01*
X016248Y014742D01*
X016237Y014697D01*
X016226Y014664D01*
X016203Y014641D01*
X016181Y014630D01*
X016147D01*
X016125Y014641D01*
X016113Y014652D01*
X016102Y014686D01*
Y014731D01*
X016113Y014765D01*
X016125Y014776D01*
X016147Y014787D01*
X016181D01*
X016203Y014776D01*
X016226Y014754D01*
X016237Y014720D01*
X016248Y014675D01*
X016259Y014652D01*
X016282Y014641D01*
X016304D01*
X016327Y014652D01*
X016338Y014686D01*
Y014731D01*
X021648Y014960D02*
X021659Y014938D01*
X021693Y014904D01*
X021456D01*
X020084Y014825D02*
X020106Y014837D01*
X020118Y014870D01*
Y014893D01*
X020106Y014927D01*
X020073Y014949D01*
X020017Y014960D01*
X019960D01*
X019915Y014949D01*
X019893Y014927D01*
X019882Y014893D01*
Y014882D01*
X019893Y014848D01*
X019915Y014825D01*
X019949Y014814D01*
X019960D01*
X019994Y014825D01*
X020017Y014848D01*
X020028Y014882D01*
Y014893D01*
X020017Y014927D01*
X019994Y014949D01*
X019960Y014960D01*
X019803Y014803D02*
X019567Y014915D01*
X019803Y014960D02*
Y014803D01*
X019488Y014904D02*
X019477Y014938D01*
X019454Y014949D01*
X019432D01*
X019409Y014938D01*
X019398Y014915D01*
X019387Y014870D01*
X019375Y014837D01*
X019353Y014814D01*
X019330Y014803D01*
X019297D01*
X019274Y014814D01*
X019263Y014825D01*
X019252Y014859D01*
Y014904D01*
X019263Y014938D01*
X019274Y014949D01*
X019297Y014960D01*
X019330D01*
X019353Y014949D01*
X019375Y014927D01*
X019387Y014893D01*
X019398Y014848D01*
X019409Y014825D01*
X019432Y014814D01*
X019454D01*
X019477Y014825D01*
X019488Y014859D01*
Y014904D01*
X019094Y014814D02*
X019060Y014825D01*
X019038Y014848D01*
X019027Y014882D01*
Y014893D01*
X019038Y014927D01*
X019060Y014949D01*
X019094Y014960D01*
X019105D01*
X019139Y014949D01*
X019162Y014927D01*
X019173Y014893D01*
Y014882D01*
X019162Y014848D01*
X019139Y014825D01*
X019094Y014814D01*
X019038D01*
X018982Y014825D01*
X018948Y014848D01*
X018937Y014882D01*
Y014904D01*
X018948Y014938D01*
X018970Y014949D01*
X018813Y014960D02*
X018824Y014938D01*
X018858Y014904D01*
X018622D01*
X018858Y014720D02*
X018847Y014754D01*
X018813Y014776D01*
X018757Y014787D01*
X018723D01*
X018667Y014776D01*
X018633Y014754D01*
X018622Y014720D01*
Y014697D01*
X018633Y014664D01*
X018667Y014641D01*
X018723Y014630D01*
X018757D01*
X018813Y014641D01*
X018847Y014664D01*
X018858Y014697D01*
Y014720D01*
X018498Y014960D02*
X018509Y014938D01*
X018543Y014904D01*
X018307D01*
X018498Y014787D02*
X018509Y014765D01*
X018543Y014731D01*
X018307D01*
X018183Y014960D02*
X018194Y014938D01*
X018228Y014904D01*
X017992D01*
X018172Y014776D02*
X018183D01*
X018205Y014765D01*
X018217Y014754D01*
X018228Y014731D01*
Y014686D01*
X018217Y014664D01*
X018205Y014652D01*
X018183Y014641D01*
X018160D01*
X018138Y014652D01*
X018104Y014675D01*
X017992Y014787D01*
Y014630D01*
X017868Y014960D02*
X017879Y014938D01*
X017913Y014904D01*
X017677D01*
X017913Y014765D02*
Y014641D01*
X017823Y014709D01*
Y014675D01*
X017812Y014652D01*
X017801Y014641D01*
X017767Y014630D01*
X017744D01*
X017711Y014641D01*
X017688Y014664D01*
X017677Y014697D01*
Y014731D01*
X017688Y014765D01*
X017699Y014776D01*
X017722Y014787D01*
X017553Y014960D02*
X017564Y014938D01*
X017598Y014904D01*
X017362D01*
X017598Y014675D02*
X017441Y014787D01*
Y014619D01*
X017598Y014675D02*
X017362D01*
X017238Y014960D02*
X017249Y014938D01*
X017283Y014904D01*
X017047D01*
X017283Y014652D02*
Y014765D01*
X017182Y014776D01*
X017193Y014765D01*
X017204Y014731D01*
Y014697D01*
X017193Y014664D01*
X017171Y014641D01*
X017137Y014630D01*
X017114D01*
X017081Y014641D01*
X017058Y014664D01*
X017047Y014697D01*
Y014731D01*
X017058Y014765D01*
X017069Y014776D01*
X017092Y014787D01*
X016923Y014960D02*
X016934Y014938D01*
X016968Y014904D01*
X016732D01*
X016934Y014652D02*
X016957Y014664D01*
X016968Y014697D01*
Y014720D01*
X016957Y014754D01*
X016923Y014776D01*
X016867Y014787D01*
X016811D01*
X016766Y014776D01*
X016743Y014754D01*
X016732Y014720D01*
Y014709D01*
X016743Y014675D01*
X016766Y014652D01*
X016799Y014641D01*
X016811D01*
X016844Y014652D01*
X016867Y014675D01*
X016878Y014709D01*
Y014720D01*
X016867Y014754D01*
X016844Y014776D01*
X016811Y014787D01*
X020433Y014825D02*
Y014938D01*
X020331Y014949D01*
X020343Y014938D01*
X020354Y014904D01*
Y014870D01*
X020343Y014837D01*
X020320Y014814D01*
X020286Y014803D01*
X020264D01*
X020230Y014814D01*
X020208Y014837D01*
X020197Y014870D01*
Y014904D01*
X020208Y014938D01*
X020219Y014949D01*
X020241Y014960D01*
X020748Y014848D02*
X020590Y014960D01*
Y014792D01*
X020748Y014848D02*
X020511D01*
X021063Y014938D02*
Y014814D01*
X020973Y014882D01*
Y014848D01*
X020961Y014825D01*
X020950Y014814D01*
X020916Y014803D01*
X020894D01*
X020860Y014814D01*
X020838Y014837D01*
X020826Y014870D01*
Y014904D01*
X020838Y014938D01*
X020849Y014949D01*
X020871Y014960D01*
X021321Y014949D02*
X021333D01*
X021355Y014938D01*
X021366Y014927D01*
X021378Y014904D01*
Y014859D01*
X021366Y014837D01*
X021355Y014825D01*
X021333Y014814D01*
X021310D01*
X021288Y014825D01*
X021254Y014848D01*
X021141Y014960D01*
Y014803D01*
X022182Y015708D02*
X022272Y015472D01*
X022362Y015708D01*
X022328Y015630D02*
X022216D01*
X022362Y015787D02*
Y016023D01*
Y015787D02*
X022261D01*
X022227Y015799D01*
X022216Y015810D01*
X022204Y015832D01*
Y015855D01*
X022216Y015877D01*
X022227Y015888D01*
X022261Y015900D01*
X022362D02*
X022261D01*
X022227Y015911D01*
X022216Y015922D01*
X022204Y015945D01*
Y015978D01*
X022216Y016001D01*
X022227Y016012D01*
X022261Y016023D01*
X022362D01*
X022193Y016158D02*
X022204Y016136D01*
X022227Y016113D01*
X022249Y016102D01*
X022294D01*
X022317Y016113D01*
X022339Y016136D01*
X022351Y016158D01*
X022362Y016192D01*
Y016248D01*
X022351Y016282D01*
X022339Y016305D01*
X022317Y016327D01*
X022294Y016338D01*
X022249D01*
X022227Y016327D01*
X022204Y016305D01*
X022193Y016282D01*
X022362Y016417D02*
Y016653D01*
Y016417D02*
X022283D01*
X022249Y016428D01*
X022227Y016451D01*
X022216Y016473D01*
X022204Y016507D01*
Y016563D01*
X022216Y016597D01*
X022227Y016620D01*
X022249Y016642D01*
X022283Y016653D01*
X022362D01*
X022216Y016732D02*
X022362D01*
Y016968D01*
X022216D01*
X022362Y016845D02*
X022272D01*
X022362Y017047D02*
Y017283D01*
Y017047D02*
X022216D01*
X022362Y017160D02*
X022272D01*
X022193Y017418D02*
X022204Y017396D01*
X022227Y017373D01*
X022249Y017362D01*
X022294D01*
X022317Y017373D01*
X022339Y017396D01*
X022351Y017418D01*
X022362Y017452D01*
Y017508D01*
X022351Y017542D01*
X022339Y017565D01*
X022317Y017587D01*
X022294Y017598D01*
X022249D01*
X022227Y017587D01*
X022204Y017565D01*
X022193Y017542D01*
Y017508D01*
X022249D02*
X022193D01*
X022362Y017677D02*
Y017913D01*
X022204Y017677D02*
Y017913D01*
X022362Y017789D02*
X022204D01*
X022249Y017992D02*
Y018172D01*
X022261Y018206D01*
X022272Y018217D01*
X022294Y018228D01*
X022317D01*
X022339Y018217D01*
X022351Y018206D01*
X022362Y018172D01*
Y018149D01*
Y018307D02*
Y018543D01*
X022204Y018307D02*
X022362Y018464D01*
X022306Y018408D02*
X022204Y018543D01*
X022362Y018622D02*
Y018858D01*
X022227D01*
X022362Y018937D02*
Y019173D01*
Y018937D02*
X022272Y019173D01*
X022182Y018937D02*
X022272Y019173D01*
X022182Y018937D02*
Y019173D01*
X022362Y019252D02*
Y019488D01*
Y019252D02*
X022204Y019488D01*
Y019252D02*
Y019488D01*
X022362Y019691D02*
X022261D01*
X022227Y019679D01*
X022216Y019668D01*
X022204Y019646D01*
Y019612D01*
X022216Y019589D01*
X022227Y019578D01*
X022261Y019567D01*
X022362D01*
Y019803D01*
Y019882D02*
Y020118D01*
Y019882D02*
X022261D01*
X022227Y019893D01*
X022216Y019904D01*
X022204Y019927D01*
Y019949D01*
X022216Y019972D01*
X022227Y019983D01*
X022261Y019994D01*
X022362D01*
X022283D02*
X022204Y020118D01*
X022283Y020197D02*
Y020433D01*
X022362Y020197D02*
X022204D01*
X022362Y020512D02*
Y020680D01*
X022351Y020714D01*
X022328Y020737D01*
X022294Y020748D01*
X022272D01*
X022238Y020737D01*
X022216Y020714D01*
X022204Y020680D01*
Y020512D01*
X022362Y020827D02*
X022272Y021063D01*
X022182Y020827D02*
X022272Y021063D01*
X022362Y021142D02*
X022306Y021378D01*
X022249Y021142D02*
X022306Y021378D01*
X022249Y021142D02*
X022193Y021378D01*
X022137Y021142D02*
X022193Y021378D01*
X022362Y021457D02*
X022272Y021569D01*
Y021693D01*
X022182Y021457D02*
X022272Y021569D01*
X022379Y022008D02*
X022469Y021772D01*
X022559Y022008D01*
X022525Y021929D02*
X022413D01*
X022144Y022008D02*
X022234Y021772D01*
X022324Y022008D01*
X022290Y021929D02*
X022177D01*
X022379Y022323D02*
X022469Y022086D01*
X022559Y022323D01*
X022525Y022244D02*
X022413D01*
X022324Y022086D02*
Y022323D01*
Y022086D02*
X022222D01*
X022189Y022098D01*
X022177Y022109D01*
X022166Y022131D01*
Y022154D01*
X022177Y022176D01*
X022189Y022188D01*
X022222Y022199D01*
X022324D02*
X022222D01*
X022189Y022210D01*
X022177Y022221D01*
X022166Y022244D01*
Y022278D01*
X022177Y022300D01*
X022189Y022311D01*
X022222Y022323D01*
X022324D01*
X021822Y013427D02*
Y013532D01*
X021979D01*
Y013427D01*
X021900Y013532D02*
Y013479D01*
X021322Y013532D02*
X021479D01*
Y013453D01*
X021453Y013427D01*
X021348D01*
X021322Y013453D01*
Y013532D01*
X020848Y013427D02*
X020822Y013453D01*
Y013505D01*
X020848Y013532D01*
X020953D01*
X020979Y013505D01*
Y013453D01*
X020953Y013427D01*
X020322Y013532D02*
X020479D01*
Y013453D01*
X020453Y013427D01*
X020427D01*
X020400Y013453D01*
Y013532D01*
Y013453D01*
X020374Y013427D01*
X020348D01*
X020322Y013453D01*
Y013532D01*
X019979D02*
X019874D01*
X019822Y013479D01*
X019874Y013427D01*
X019979D01*
X019900D01*
Y013532D01*
X019526Y013082D02*
Y013029D01*
Y013055D01*
X019369D01*
X019395Y013082D01*
X019526Y012477D02*
Y012581D01*
X019421Y012477D01*
X019395D01*
X019369Y012503D01*
Y012555D01*
X019395Y012581D01*
Y012082D02*
X019369Y012055D01*
Y012003D01*
X019395Y011977D01*
X019421D01*
X019447Y012003D01*
Y012029D01*
Y012003D01*
X019474Y011977D01*
X019500D01*
X019526Y012003D01*
Y012055D01*
X019500Y012082D01*
X019526Y011503D02*
X019369D01*
X019447Y011581D01*
Y011477D01*
X019369Y010977D02*
Y011082D01*
X019447D01*
X019421Y011029D01*
Y011003D01*
X019447Y010977D01*
X019500D01*
X019526Y011003D01*
Y011055D01*
X019500Y011082D01*
X017111Y013442D02*
Y013547D01*
X017269D01*
Y013442D01*
X017190Y013547D02*
Y013495D01*
X016611Y013547D02*
X016768D01*
Y013469D01*
X016742Y013442D01*
X016637D01*
X016611Y013469D01*
Y013547D01*
X016137Y013442D02*
X016111Y013469D01*
Y013521D01*
X016137Y013547D01*
X016242D01*
X016269Y013521D01*
Y013469D01*
X016242Y013442D01*
X015611Y013547D02*
X015769D01*
Y013469D01*
X015742Y013442D01*
X015716D01*
X015690Y013469D01*
Y013547D01*
Y013469D01*
X015664Y013442D01*
X015637D01*
X015611Y013469D01*
Y013547D01*
X015268D02*
X015164D01*
X015111Y013495D01*
X015164Y013442D01*
X015268D01*
X015190D01*
Y013547D01*
X014815Y013097D02*
Y013045D01*
Y013071D01*
X014658D01*
X014684Y013097D01*
X014815Y012492D02*
Y012597D01*
X014710Y012492D01*
X014684D01*
X014658Y012519D01*
Y012571D01*
X014684Y012597D01*
Y012097D02*
X014658Y012071D01*
Y012019D01*
X014684Y011992D01*
X014710D01*
X014737Y012019D01*
Y012045D01*
Y012019D01*
X014763Y011992D01*
X014789D01*
X014815Y012019D01*
Y012071D01*
X014789Y012097D01*
X014815Y011519D02*
X014658D01*
X014737Y011597D01*
Y011492D01*
X014658Y010992D02*
Y011097D01*
X014737D01*
X014710Y011045D01*
Y011019D01*
X014737Y010992D01*
X014789D01*
X014815Y011019D01*
Y011071D01*
X014789Y011097D01*
X025398Y022062D02*
X025417Y022099D01*
X025473Y022156D01*
X025080D01*
X022387Y022035D02*
X022406D01*
X022444Y022053D01*
X022462Y022072D01*
X022481Y022109D01*
Y022184D01*
X022462Y022222D01*
X022444Y022241D01*
X022406Y022259D01*
X022369D01*
X022331Y022241D01*
X022275Y022203D01*
X022087Y022016D01*
Y022278D01*
X025472Y014258D02*
X025079Y014070D01*
X025472Y013995D02*
Y014258D01*
X025341Y014590D02*
X025285Y014571D01*
X025247Y014533D01*
X025229Y014477D01*
Y014458D01*
X025247Y014402D01*
X025285Y014365D01*
X025341Y014346D01*
X025360D01*
X025416Y014365D01*
X025454Y014402D01*
X025472Y014458D01*
Y014477D01*
X025454Y014533D01*
X025416Y014571D01*
X025341Y014590D01*
X025247D01*
X025154Y014571D01*
X025097Y014533D01*
X025079Y014477D01*
Y014440D01*
X025097Y014383D01*
X025135Y014365D01*
X022480Y014103D02*
X022461Y014047D01*
X022424Y014028D01*
X022387D01*
X022349Y014047D01*
X022330Y014084D01*
X022312Y014159D01*
X022293Y014216D01*
X022255Y014253D01*
X022218Y014272D01*
X022162D01*
X022124Y014253D01*
X022105Y014234D01*
X022087Y014178D01*
Y014103D01*
X022105Y014047D01*
X022124Y014028D01*
X022162Y014009D01*
X022218D01*
X022255Y014028D01*
X022293Y014066D01*
X022312Y014122D01*
X022330Y014197D01*
X022349Y014234D01*
X022387Y014253D01*
X022424D01*
X022461Y014234D01*
X022480Y014178D01*
Y014103D01*
Y014472D02*
X022461Y014416D01*
X022405Y014379D01*
X022312Y014360D01*
X022255D01*
X022162Y014379D01*
X022105Y014416D01*
X022087Y014472D01*
Y014510D01*
X022105Y014566D01*
X022162Y014604D01*
X022255Y014622D01*
X022312D01*
X022405Y014604D01*
X022461Y014566D01*
X022480Y014510D01*
Y014472D01*
X014375Y022062D02*
X014393Y022099D01*
X014450Y022156D01*
X014056D01*
X011364Y022035D02*
X011382D01*
X011420Y022053D01*
X011439Y022072D01*
X011457Y022109D01*
Y022184D01*
X011439Y022222D01*
X011420Y022241D01*
X011382Y022259D01*
X011345D01*
X011307Y022241D01*
X011251Y022203D01*
X011064Y022016D01*
Y022278D01*
X014449Y014258D02*
X014055Y014070D01*
X014449Y013995D02*
Y014258D01*
X014318Y014590D02*
X014261Y014571D01*
X014224Y014533D01*
X014205Y014477D01*
Y014458D01*
X014224Y014402D01*
X014261Y014365D01*
X014318Y014346D01*
X014336D01*
X014393Y014365D01*
X014430Y014402D01*
X014449Y014458D01*
Y014477D01*
X014430Y014533D01*
X014393Y014571D01*
X014318Y014590D01*
X014224D01*
X014130Y014571D01*
X014074Y014533D01*
X014055Y014477D01*
Y014440D01*
X014074Y014383D01*
X014111Y014365D01*
X011457Y014103D02*
X011438Y014047D01*
X011400Y014028D01*
X011363D01*
X011325Y014047D01*
X011307Y014084D01*
X011288Y014159D01*
X011269Y014216D01*
X011232Y014253D01*
X011194Y014272D01*
X011138D01*
X011100Y014253D01*
X011082Y014234D01*
X011063Y014178D01*
Y014103D01*
X011082Y014047D01*
X011100Y014028D01*
X011138Y014009D01*
X011194D01*
X011232Y014028D01*
X011269Y014066D01*
X011288Y014122D01*
X011307Y014197D01*
X011325Y014234D01*
X011363Y014253D01*
X011400D01*
X011438Y014234D01*
X011457Y014178D01*
Y014103D01*
Y014472D02*
X011438Y014416D01*
X011382Y014379D01*
X011288Y014360D01*
X011232D01*
X011138Y014379D01*
X011082Y014416D01*
X011063Y014472D01*
Y014510D01*
X011082Y014566D01*
X011138Y014604D01*
X011232Y014622D01*
X011288D01*
X011382Y014604D01*
X011438Y014566D01*
X011457Y014510D01*
Y014472D01*
D74*
X013228Y020837D02*
G03*
X013228Y020837I-000197J000000D01*
G01*
X024220Y031325D02*
G03*
X024220Y030872I000219J-000227D01*
G01*
X022610D02*
G03*
X022610Y031325I-000219J000227D01*
G01*
X017602Y010335D02*
G03*
X017307Y010335I-000147J000256D01*
G01*
X017770Y010591D02*
G03*
X017770Y010591I-000315J000000D01*
G01*
X022185Y010325D02*
G03*
X021890Y010325I-000147J000256D01*
G01*
X022352Y010581D02*
G03*
X022352Y010581I-000315J000000D01*
G01*
X012677Y021850D02*
G03*
X012638Y021811I000000J-000039D01*
G01*
X011732D02*
G03*
X011693Y021850I-000039J000000D01*
G01*
X012638Y023071D02*
G03*
X012677Y023031I000039J000000D01*
G01*
X011693D02*
G03*
X011732Y023071I000000J000039D01*
G01*
X012195Y022766D02*
G03*
X012195Y022766I-000197J000000D01*
G01*
X014744Y028238D02*
G03*
X014646Y028337I-000098J000000D01*
G01*
X011890D02*
G03*
X011791Y028238I000000J-000098D01*
G01*
X013543Y030521D02*
G03*
X013543Y030521I-000276J000000D01*
G01*
X024026Y014675D02*
G03*
X024026Y014675I-000098J000000D01*
G01*
X012490Y011256D02*
G03*
X012490Y011256I-000197J000000D01*
G01*
X007618Y013799D02*
G03*
X007382Y013563I000000J-000236D01*
G01*
Y014980D02*
G03*
X007618Y014744I000236J000000D01*
G01*
X039734Y024969D02*
G03*
X039734Y024457I000000J-000256D01*
G01*
X041742D02*
G03*
X041742Y024969I000000J000256D01*
G01*
X041407Y024713D02*
G03*
X041407Y024713I-000669J000000D01*
G01*
X041506D02*
G03*
X041506Y024713I-000768J000000D01*
G01*
X033132Y021170D02*
G03*
X032935Y020973I000000J-000197D01*
G01*
X032935Y015638D02*
G03*
X033132Y015441I000197J000000D01*
G01*
X032640Y015343D02*
G03*
X032837Y015146I000197J000000D01*
G01*
Y021465D02*
G03*
X032640Y021268I000000J-000197D01*
G01*
X038998D02*
G03*
X038801Y021465I-000197J000000D01*
G01*
X038703Y020973D02*
G03*
X038506Y021170I-000197J000000D01*
G01*
Y015441D02*
G03*
X038703Y015638I000000J000197D01*
G01*
X038801Y015146D02*
G03*
X038995Y015377I000000J000197D01*
G01*
X029990Y013424D02*
G03*
X030069Y013345I000079J000000D01*
G01*
X030876D02*
G03*
X030955Y013424I000000J000079D01*
G01*
X041014D02*
G03*
X041093Y013345I000079J000000D01*
G01*
X041900D02*
G03*
X041978Y013424I000000J000079D01*
G01*
X024203Y020522D02*
Y020876D01*
X023494Y020522D02*
X024203D01*
X023494D02*
Y020876D01*
X024203D01*
X023376Y010207D02*
X023888D01*
X023376D02*
Y011309D01*
X023888D01*
Y010207D02*
Y011309D01*
X013750Y012864D02*
X014242D01*
Y012077D02*
Y012864D01*
X013750Y012077D02*
X014242D01*
X013750D02*
Y012864D01*
X010266Y021516D02*
X010266Y021870D01*
X010266Y021516D02*
X010974D01*
Y021870D01*
X010266D02*
X010974D01*
X010266Y021919D02*
X010266Y022274D01*
X010266Y021919D02*
X010974D01*
Y022274D01*
X010266D02*
X010974D01*
X010728Y022500D02*
X010925Y022500D01*
Y022106D02*
Y022500D01*
X010728Y022106D02*
X010925D01*
X010728D02*
X010728Y022500D01*
X010325D02*
X010522D01*
Y022106D02*
Y022500D01*
X010325Y022106D02*
X010522D01*
X010325D02*
Y022500D01*
X011496Y017598D02*
Y017795D01*
X011890D01*
Y017598D02*
Y017795D01*
X011496Y017598D02*
X011890D01*
X019291Y010226D02*
X020000D01*
X019291D02*
Y010581D01*
X020000D01*
Y010226D02*
Y010581D01*
X023868Y012205D02*
Y012598D01*
X023671Y012205D02*
X023868D01*
X023671D02*
Y012598D01*
X023868D01*
X023041Y011644D02*
Y011998D01*
Y011644D02*
X023750D01*
Y011998D01*
X023041D02*
X023750D01*
X025945Y011634D02*
Y011831D01*
X025551Y011634D02*
X025945D01*
X025551D02*
Y011831D01*
X025945D01*
X022146Y010049D02*
X022500D01*
Y010758D01*
X022146D02*
X022500D01*
X022146Y010049D02*
Y010758D01*
X023967Y011722D02*
Y011919D01*
Y011722D02*
X024360D01*
Y011919D01*
X023967D02*
X024360D01*
X023484Y015856D02*
Y016211D01*
X024193D01*
Y015856D02*
Y016211D01*
X023484Y015856D02*
X024193D01*
X023622Y013032D02*
X023661Y013071D01*
X023622Y012992D02*
X023701Y013071D01*
X023622Y012953D02*
X023740Y013071D01*
X023622Y012913D02*
X023780Y013071D01*
X023622Y012874D02*
X023819Y013071D01*
X023622Y012835D02*
X023858Y013071D01*
X023622Y012795D02*
X023898Y013071D01*
X023622Y012756D02*
X023937Y013071D01*
X023622Y012717D02*
X023976Y013071D01*
X023622Y012677D02*
X024016Y013071D01*
X023622Y011890D02*
Y013071D01*
X024803D01*
Y011890D02*
Y013071D01*
X023622Y011890D02*
X024803D01*
X016122Y011087D02*
Y011480D01*
X015925D02*
X016122D01*
X015925Y011087D02*
Y011480D01*
Y011087D02*
X016122D01*
X023110Y016309D02*
Y017018D01*
X022756D02*
X023110D01*
X022756Y016309D02*
Y017018D01*
Y016309D02*
X023110D01*
X022835Y023563D02*
X023543D01*
X022835Y023209D02*
Y023563D01*
Y023209D02*
X023543D01*
Y023563D01*
X014886Y010866D02*
Y011260D01*
X014689D02*
X014886D01*
X014689Y010866D02*
Y011260D01*
Y010866D02*
X014886D01*
X019193Y010177D02*
Y010689D01*
X020295D01*
Y010177D02*
Y010689D01*
X019193Y010177D02*
X020295D01*
X019809Y010949D02*
X020203D01*
Y011146D01*
X019809D02*
X020203D01*
X019809Y010949D02*
Y011146D01*
X020531Y011142D02*
X020925D01*
X020531Y010945D02*
Y011142D01*
Y010945D02*
X020925D01*
Y011142D01*
X016523Y011087D02*
Y011480D01*
X016326D02*
X016523D01*
X016326Y011087D02*
Y011480D01*
Y011087D02*
X016523D01*
X014350Y010679D02*
X014508Y011014D01*
X014193D02*
X014350Y010679D01*
X014193Y011014D02*
X014508D01*
Y010532D02*
Y011161D01*
X014193Y010532D02*
X014508D01*
X014193D02*
Y011161D01*
X014508D01*
X020118Y013622D02*
X020433D01*
X020118D02*
Y014252D01*
X020433D01*
Y013622D02*
Y014252D01*
X014734Y013622D02*
X015049D01*
X014734D02*
Y014252D01*
X015049D01*
Y013622D02*
Y014252D01*
X016762Y013622D02*
X017077D01*
X016762D02*
Y014252D01*
X017077D01*
Y013622D02*
Y014252D01*
X017377Y013622D02*
X017692D01*
X017377D02*
Y014252D01*
X017692D01*
Y013622D02*
Y014252D01*
X017972Y013622D02*
X018287D01*
X017972D02*
Y014252D01*
X018287D01*
Y013622D02*
Y014252D01*
X012274Y010404D02*
Y010581D01*
X012327Y010630D01*
X012254Y010581D02*
X012274D01*
X012201Y010630D02*
X012254Y010581D01*
Y010404D02*
Y010581D01*
X012201Y010354D02*
X012254Y010404D01*
X012274D01*
X012327Y010354D01*
Y010630D01*
X012201D02*
X012327D01*
X012201Y010354D02*
Y010630D01*
Y010354D02*
X012327D01*
X012766Y010404D02*
Y010581D01*
X012819Y010630D01*
X012746Y010581D02*
X012766Y010581D01*
X012693Y010630D02*
X012746Y010581D01*
Y010404D02*
Y010581D01*
X012693Y010354D02*
X012746Y010404D01*
X012766Y010404D01*
X012819Y010354D01*
Y010630D01*
X012693D02*
X012819D01*
X012693Y010354D02*
Y010630D01*
Y010354D02*
X012819D01*
X011909Y011270D02*
X013110D01*
X011988Y011309D02*
X011988Y011152D01*
X013032D02*
Y011309D01*
X013110Y010846D02*
X013228D01*
X013110Y011270D02*
X013110Y010846D01*
X011909D02*
Y011270D01*
X011791Y010846D02*
X011909D01*
X011791Y010089D02*
X011791Y011152D01*
X011673D02*
X013346D01*
X013228Y010089D02*
X013228Y011152D01*
X013110Y010512D02*
X013228D01*
X013110Y010207D02*
Y010512D01*
X011909Y010207D02*
X013110D01*
X013228Y010089D01*
X011791D02*
X013228D01*
X011791D02*
X011909Y010207D01*
Y010512D01*
X011791Y010512D02*
X011909Y010512D01*
X011673Y010049D02*
X013346D01*
X011673Y011309D02*
X011673Y010049D01*
X011673Y011309D02*
X013346D01*
X013346Y010049D02*
X013346Y011309D01*
X012106Y011968D02*
X012854D01*
X012106Y011398D02*
Y011968D01*
Y011398D02*
X012854D01*
Y011968D01*
X012146Y011398D02*
Y011968D01*
X012185Y011398D02*
Y011968D01*
X012224Y011398D02*
Y011968D01*
X012264Y011398D02*
Y011968D01*
X012303Y011398D02*
Y011968D01*
X012343Y011398D02*
Y011968D01*
X012382Y011398D02*
Y011969D01*
X012421Y011398D02*
Y011968D01*
X019498Y012618D02*
Y013150D01*
X020325Y013150D01*
Y012618D02*
Y013150D01*
X019498Y012618D02*
X020325D01*
X018874Y011466D02*
X019583D01*
Y011820D01*
X018874D02*
X019583D01*
X018874Y011466D02*
Y011820D01*
X021260Y012451D02*
Y012982D01*
X022087D01*
Y012451D02*
Y012982D01*
X021260Y012451D02*
X022087D01*
X022717Y012372D02*
X023051D01*
Y011722D02*
Y012372D01*
X022717Y011722D02*
X023051D01*
X022717D02*
Y012372D01*
X018848Y012854D02*
X019183D01*
Y012205D02*
Y012854D01*
X018848Y012205D02*
X019183D01*
X018848D02*
Y012854D01*
X015325Y012864D02*
X015856D01*
X015325D02*
X015325Y013691D01*
X015856D01*
Y012864D02*
Y013691D01*
X013780Y011417D02*
X014488D01*
Y011772D01*
X013780D02*
X014488D01*
X013780Y011417D02*
Y011772D01*
X017933Y011437D02*
X018642D01*
X017933Y011083D02*
Y011437D01*
Y011083D02*
X018642D01*
Y011437D01*
X016230Y012569D02*
Y013100D01*
X017057Y013100D01*
Y012569D02*
Y013100D01*
X016230Y012569D02*
X017057D01*
X015305Y012146D02*
X015640D01*
Y011496D02*
Y012146D01*
X015305Y011496D02*
X015640D01*
X015305D02*
Y012146D01*
X018118Y012396D02*
X018453D01*
Y011746D02*
Y012396D01*
X018118Y011746D02*
X018453D01*
X018118D02*
Y012396D01*
X018963Y023555D02*
X019672Y023555D01*
X018963Y023555D02*
X018963Y023201D01*
X019672Y023201D01*
Y023555D01*
X018963Y023968D02*
X019672Y023968D01*
X018963Y023614D02*
Y023968D01*
Y023614D02*
X019672Y023614D01*
Y023968D01*
X018221Y023256D02*
Y023965D01*
X017867D02*
X018221D01*
X017867Y023256D02*
Y023965D01*
Y023256D02*
X018221Y023256D01*
X018634Y023965D02*
X018634Y023256D01*
X018279Y023965D02*
X018634Y023965D01*
X018279Y023256D02*
X018279Y023965D01*
X018279Y023256D02*
X018634Y023256D01*
X018848Y013474D02*
Y014852D01*
Y013474D02*
X019596D01*
X019596Y014852D01*
X018848Y014852D02*
X019596Y014852D01*
X024675Y013917D02*
Y014272D01*
X023967Y013917D02*
X024675D01*
X023967D02*
Y014272D01*
X024675D01*
X020492Y024449D02*
Y024803D01*
X019783Y024449D02*
X020492D01*
X019783Y024803D02*
X019783Y024449D01*
X019783Y024803D02*
X020492Y024803D01*
X021486Y025118D02*
X021841D01*
X021841Y024409D01*
X021486D02*
X021841D01*
X021486D02*
X021486Y025118D01*
X013642Y021102D02*
X013996Y021102D01*
Y020394D02*
Y021102D01*
X013642Y020394D02*
X013996D01*
X013642D02*
Y021102D01*
X013622Y019577D02*
X013976D01*
X013622D02*
X013622Y020285D01*
X013976D01*
Y019577D02*
Y020285D01*
X013484Y017707D02*
Y018061D01*
X012776Y017707D02*
X013484D01*
X012776D02*
Y018061D01*
X013484D01*
X010217Y018110D02*
X010571D01*
X010217D02*
Y018819D01*
X010571D01*
Y018110D02*
Y018819D01*
X024419Y017087D02*
X024774D01*
X024774Y016378D02*
X024774Y017087D01*
X024419Y016378D02*
X024774D01*
X024419D02*
Y017087D01*
X024360Y017598D02*
Y017913D01*
X023730Y017598D02*
X024360D01*
X023730D02*
Y017913D01*
X024360D01*
X011654Y014035D02*
X011693Y013996D01*
X011654Y014075D02*
X011732Y013996D01*
X011654Y014114D02*
X011772Y013996D01*
X011654Y014154D02*
X011811Y013996D01*
X011654Y014193D02*
X011850Y013996D01*
X011654Y014232D02*
X011890Y013996D01*
X011654Y014272D02*
X011929Y013996D01*
X011654Y014311D02*
X011968Y013996D01*
X011654Y014350D02*
X012008Y013996D01*
X011654Y014390D02*
X012047Y013996D01*
X012795D02*
Y014626D01*
X011654D02*
X012795D01*
X011654Y013996D02*
Y014626D01*
Y013996D02*
X012795D01*
X021653Y015157D02*
X022008Y015512D01*
X021732Y015157D02*
X022008Y015433D01*
X021811Y015157D02*
X022008Y015354D01*
X021889Y015157D02*
X022008Y015275D01*
X021968Y015157D02*
X022008Y015197D01*
X021614Y015157D02*
X022008Y015551D01*
X021693Y015157D02*
X022008Y015472D01*
X021771Y015157D02*
X022008Y015394D01*
X021850Y015157D02*
X022008Y015315D01*
X021929Y015157D02*
X022008Y015236D01*
X014527Y015157D02*
X014527Y022638D01*
X014527Y015157D02*
X022008D01*
X014527Y022638D02*
X022008Y022638D01*
Y015157D02*
Y022638D01*
X010669Y021230D02*
X013425D01*
Y018474D02*
Y021230D01*
X010669Y018474D02*
X013425D01*
X010669D02*
Y021230D01*
X023474Y016496D02*
Y017283D01*
Y016496D02*
X024262D01*
Y017283D01*
X023474D02*
X024262D01*
X023868D02*
X024262Y016890D01*
X023907Y017283D02*
X024262Y016929D01*
X023947Y017283D02*
X024262Y016968D01*
X023986Y017283D02*
X024262Y017008D01*
X024026Y017283D02*
X024262Y017047D01*
X024065Y017283D02*
X024262Y017087D01*
X024104Y017283D02*
X024262Y017126D01*
X024144Y017283D02*
X024262Y017165D01*
X024183Y017283D02*
X024262Y017205D01*
X024222Y017283D02*
X024262Y017244D01*
X025256Y016453D02*
X026437D01*
X025059Y016256D02*
X025256Y016453D01*
X025059Y012201D02*
Y016256D01*
Y012201D02*
X025256Y012004D01*
X026437D01*
Y016453D01*
X025669Y012733D02*
X026437D01*
X025669D02*
X025748Y012811D01*
X025669Y012733D02*
Y015725D01*
X025748Y015646D01*
X025669Y015725D02*
X026437D01*
X025748Y015301D02*
X026102D01*
X025748Y015124D02*
X026102D01*
X025748Y014908D02*
X026102D01*
X025748Y014731D02*
X026102D01*
X025748Y014514D02*
X026102D01*
X025748Y014337D02*
X026102D01*
X025748Y014120D02*
X026102D01*
X025748Y013943D02*
X026102D01*
X025748Y013727D02*
X026102D01*
X025748Y013550D02*
X026102D01*
X025748Y013333D02*
X026102D01*
X025748Y013156D02*
X026102D01*
X026240D02*
Y013333D01*
Y013550D02*
Y013727D01*
Y013943D02*
Y014120D01*
Y014337D02*
Y014514D01*
Y014731D02*
Y014908D01*
Y015124D02*
Y015301D01*
X026211Y012821D02*
Y013156D01*
X026299Y012821D02*
Y013156D01*
X026102Y012821D02*
X026299D01*
X026102D02*
Y013156D01*
X026299D01*
X026102Y013333D02*
X026166Y013441D01*
Y013550D01*
Y013441D02*
X026299D01*
Y013333D02*
Y013550D01*
X026102Y013333D02*
X026299D01*
X026102D02*
Y013550D01*
X026299D01*
X026166Y013727D02*
Y013943D01*
X026299Y013727D02*
Y013943D01*
X026102Y013727D02*
X026299D01*
X026102D02*
Y013943D01*
X026299D01*
X026166Y014120D02*
Y014337D01*
X026299Y014120D02*
Y014337D01*
X026102Y014120D02*
X026299D01*
X026102D02*
Y014337D01*
X026299D01*
X026166Y014514D02*
Y014731D01*
X026299Y014514D02*
Y014731D01*
X026102Y014514D02*
X026299D01*
X026102D02*
Y014731D01*
X026299D01*
X026102Y014908D02*
X026299D01*
X026102D02*
Y015124D01*
X026299D01*
Y014908D02*
Y015124D01*
X026166Y015016D02*
X026299D01*
X026166Y014908D02*
Y015016D01*
X026102Y015124D02*
X026166Y015016D01*
X026211Y015301D02*
Y015636D01*
X026102Y015301D02*
Y015636D01*
Y015301D02*
X026299D01*
Y015636D01*
X026102D02*
X026299D01*
X025748Y012811D02*
X026437D01*
X025748D02*
Y015646D01*
X026437D01*
X024360Y011634D02*
X024951D01*
X024262Y011535D02*
X024360Y011634D01*
X024262Y010945D02*
Y011535D01*
Y010945D02*
X024360Y010846D01*
X024262Y010748D02*
X024360Y010846D01*
X024262Y010157D02*
Y010748D01*
Y010157D02*
X024360Y010059D01*
X024951D01*
X025049Y010157D01*
Y010748D01*
X024951Y010846D02*
X025049Y010748D01*
X024951Y010846D02*
X025049Y010945D01*
Y011535D01*
X024951Y011634D02*
X025049Y011535D01*
X024557Y011339D02*
X024754D01*
X024557Y011142D02*
Y011339D01*
Y011142D02*
X024754D01*
Y011339D01*
X024557Y010551D02*
X024754D01*
X024557Y010354D02*
Y010551D01*
Y010354D02*
X024754D01*
Y010551D01*
X024617Y010491D02*
X024694Y010491D01*
X024557Y010551D02*
X024617Y010491D01*
Y010414D02*
Y010491D01*
X024557Y010354D02*
X024617Y010414D01*
X024694D01*
X024754Y010354D01*
X024694Y010414D02*
Y010491D01*
X024754Y010551D01*
X024617Y011279D02*
X024694Y011278D01*
X024557Y011339D02*
X024617Y011279D01*
Y011202D02*
Y011279D01*
X024557Y011142D02*
X024617Y011202D01*
X024694D01*
X024754Y011142D01*
X024694Y011202D02*
Y011279D01*
X024754Y011339D01*
X022136Y023740D02*
Y026496D01*
Y023740D02*
X024695D01*
Y026496D01*
X024821Y027335D02*
X024860Y027295D01*
Y026535D02*
Y027295D01*
X024821Y026496D02*
X024860Y026535D01*
X022010Y026496D02*
X024821D01*
X021970Y026535D02*
X022010Y026496D01*
X021970Y026535D02*
Y027295D01*
X022010Y027335D01*
X024821D01*
X021970Y026535D02*
X024860D01*
X021970Y027295D02*
X024860D01*
X024478Y027335D02*
Y027601D01*
X022352D02*
X024478D01*
X022352Y027335D02*
Y027601D01*
X022352Y028280D02*
X022450Y028184D01*
X022352Y028280D02*
X022450Y028376D01*
X022352Y028472D02*
X022450Y028376D01*
X022352Y028472D02*
X022450Y028568D01*
X022352Y028665D02*
X022450Y028568D01*
X022352Y028665D02*
X022450Y028761D01*
X022352Y028857D02*
X022450Y028761D01*
X022352Y028857D02*
X022451Y028953D01*
X022352Y029029D02*
X022451Y028953D01*
X022352Y029029D02*
X022608Y029287D01*
X022610Y030872D01*
Y031325D02*
Y031787D01*
X022650Y031827D01*
X024181D01*
X024220Y031787D01*
X022610D02*
X024220D01*
Y031325D02*
Y031787D01*
Y029287D02*
Y030872D01*
Y029287D02*
X024478Y029029D01*
X024380Y028953D02*
X024478Y029029D01*
X024380Y028953D02*
X024478Y028857D01*
X024380Y028761D02*
X024478Y028857D01*
X024380Y028761D02*
X024478Y028665D01*
X024379Y028568D02*
X024478Y028665D01*
X024379Y028568D02*
X024478Y028472D01*
X024379Y028376D02*
X024478Y028472D01*
X024379Y028376D02*
X024478Y028280D01*
X024379Y028184D02*
X024478Y028280D01*
X022608Y029287D02*
X024220D01*
X022352Y029029D02*
X024478D01*
X022451Y028953D02*
X024380D01*
X022450Y028761D02*
X024380D01*
X022352Y028857D02*
X024478D01*
X022352Y028665D02*
X024478D01*
X022450Y028568D02*
X024379D01*
X022352Y028472D02*
X024478D01*
X022450Y028376D02*
X024379D01*
X022352Y028280D02*
X024478D01*
X022352Y028088D02*
X022450Y027992D01*
X022352Y028088D02*
X022450Y028184D01*
X024379D02*
X024478Y028088D01*
X024379Y027992D02*
X024478Y028088D01*
X022450Y028184D02*
X024379D01*
X022352Y028088D02*
X024478D01*
X022352Y027896D02*
X022450Y027799D01*
X022352Y027896D02*
X022450Y027992D01*
X024379D02*
X024478Y027896D01*
X024379Y027799D02*
X024478Y027896D01*
X022450Y027992D02*
X024379D01*
X022352Y027896D02*
X024478D01*
X022352Y027703D02*
X022450Y027607D01*
X022352Y027703D02*
X022450Y027799D01*
X024379D02*
X024478Y027703D01*
X024379Y027607D02*
X024478Y027703D01*
X022450Y027799D02*
X024379D01*
X022352Y027703D02*
X024478D01*
X022450Y027607D02*
X024379D01*
X022450Y027601D02*
Y027607D01*
X024379Y027601D02*
Y027607D01*
X021978Y028713D02*
X024852D01*
Y028319D02*
Y028713D01*
X021978Y028319D02*
X024852D01*
X021978D02*
Y028713D01*
X024574Y028949D02*
X024817Y028713D01*
X023730Y028949D02*
X024574D01*
X023730Y028713D02*
Y028949D01*
X023100Y028713D02*
X023730D01*
X023100D02*
Y028949D01*
X022257D02*
X023100D01*
X022013Y028713D02*
X022257Y028949D01*
X025216Y016543D02*
X029153D01*
X024626Y017134D02*
X025216Y016543D01*
X024626Y017134D02*
Y018256D01*
X026063D01*
Y018419D01*
X026141Y018438D01*
Y018821D01*
X026063Y018841D02*
X026141Y018821D01*
X026063Y018841D02*
Y018919D01*
X026141Y018938D01*
Y019321D01*
X026063Y019341D02*
X026141Y019321D01*
X026063Y019341D02*
Y019419D01*
X026141Y019438D01*
X026141Y019821D01*
X026063Y019841D02*
X026141Y019821D01*
X026063Y019841D02*
Y019919D01*
X026141Y019938D01*
Y020321D01*
X026063Y020341D02*
X026141Y020321D01*
X026063Y020341D02*
Y020419D01*
X026141Y020438D01*
Y020821D01*
X026063Y020841D02*
X026141Y020821D01*
X026063Y020841D02*
Y020919D01*
X026141Y020938D01*
Y021321D01*
X026063Y021341D02*
X026141Y021321D01*
X026063Y021341D02*
Y021419D01*
X026141Y021438D01*
Y021821D01*
X026063Y021841D02*
X026141Y021821D01*
X026063Y021841D02*
Y022004D01*
X024626D02*
X026063D01*
X024626D02*
Y023421D01*
X029153D01*
Y022839D02*
Y023421D01*
X028956Y022642D02*
X029153Y022839D01*
X026736Y022643D02*
X028956Y022642D01*
X027027Y021992D02*
X029035D01*
X029153Y021874D01*
Y018012D02*
Y021874D01*
X029035Y017894D02*
X029153Y018012D01*
X027027Y017894D02*
X029035D01*
X024626Y017331D02*
X028956D01*
X029153Y017134D01*
Y016543D02*
Y017134D01*
X027027Y017331D02*
Y022642D01*
X029035Y017894D02*
Y021992D01*
X027027Y019776D02*
X027933D01*
Y020563D01*
X027027D02*
X027933D01*
X027027Y017114D02*
X028937D01*
Y016760D02*
Y017114D01*
X027027Y016760D02*
X028937D01*
X027027D02*
Y017114D01*
X026732Y016760D02*
Y017114D01*
X025306Y016760D02*
X026732D01*
X024951Y017114D02*
X025306Y016760D01*
X024951Y017114D02*
X026732D01*
Y017331D02*
Y023421D01*
Y017724D02*
X027027D01*
X024626Y018039D02*
X026732D01*
X024626Y022220D02*
X026732D01*
X024626Y023067D02*
X026732D01*
X024704Y018551D02*
X026141D01*
X024704D02*
Y018709D01*
X026141Y018709D01*
X024704Y019051D02*
X026141D01*
X024704D02*
Y019209D01*
X026141Y019209D01*
X024704Y019551D02*
X026141D01*
X024704D02*
Y019709D01*
X026141Y019709D01*
X024704Y020051D02*
X026141D01*
X024704D02*
Y020209D01*
X026141Y020209D01*
X024704Y020551D02*
X026141D01*
X024704D02*
Y020709D01*
X026141Y020709D01*
X024704Y021051D02*
X026141D01*
X024704D02*
Y021209D01*
X026141Y021209D01*
X024704Y021551D02*
X026141D01*
X024704D02*
Y021709D01*
X026141Y021709D01*
X026329Y017563D02*
Y017681D01*
X025401D02*
X026329D01*
X025401Y017563D02*
Y017681D01*
Y017563D02*
X026329D01*
Y022579D02*
Y022697D01*
X025401D02*
X026329D01*
X025401Y022579D02*
Y022697D01*
Y022579D02*
X026329D01*
X029035Y018272D02*
X029153Y018154D01*
X028602Y018272D02*
X029035D01*
X027815D02*
X028208D01*
X027027D02*
X027421D01*
X016864Y010098D02*
X018045D01*
X016864D02*
Y011083D01*
X018045D01*
Y010098D02*
Y011083D01*
X016665Y010315D02*
X016862D01*
X016665D02*
Y010866D01*
X016862D01*
X018047Y010315D02*
X018245D01*
Y010866D01*
X018047D02*
X018245D01*
X017307Y010335D02*
X017602D01*
X017554Y011083D02*
Y011362D01*
X017356Y011083D02*
Y011362D01*
X017554D01*
X021447Y010089D02*
X022628D01*
X021447D02*
Y011073D01*
X022628D01*
Y010089D02*
Y011073D01*
X021248Y010305D02*
X021445D01*
X021248D02*
Y010856D01*
X021445D01*
X022630Y010305D02*
X022827D01*
Y010856D01*
X022630D02*
X022827D01*
X021890Y010325D02*
X022185D01*
X022136Y011073D02*
Y011352D01*
X021939Y011073D02*
Y011352D01*
X022136D01*
X011732Y023071D02*
X012638D01*
X011693Y021850D02*
Y023031D01*
X011732Y021811D02*
X012638D01*
X012677Y021850D02*
Y023031D01*
X022911Y016026D02*
Y016223D01*
X023304D01*
Y016026D02*
Y016223D01*
X022911Y016026D02*
X023304D01*
X012589Y013051D02*
Y013248D01*
X012195Y013051D02*
X012589D01*
X012195D02*
Y013248D01*
X012589D01*
X011811Y012136D02*
Y012333D01*
X012205D01*
Y012136D02*
Y012333D01*
X011811Y012136D02*
X012205D01*
X011811Y012549D02*
Y012746D01*
X012205D01*
Y012549D02*
Y012746D01*
X011811Y012549D02*
X012205D01*
X012904Y012608D02*
X013100D01*
Y012215D02*
Y012608D01*
X012904Y012215D02*
X013100D01*
X012904D02*
Y012608D01*
X012549Y012215D02*
X012746D01*
X012549D02*
Y012608D01*
X012746D01*
Y012215D02*
Y012608D01*
X013630Y018604D02*
X013827D01*
Y018211D02*
Y018604D01*
X013630Y018211D02*
X013827D01*
X013630D02*
Y018604D01*
X014032Y018211D02*
X014229D01*
X014032D02*
Y018604D01*
X014229D01*
Y018211D02*
Y018604D01*
X022953Y021752D02*
Y021949D01*
X023346D01*
Y021752D02*
Y021949D01*
X022953Y021752D02*
X023346D01*
X024045Y021690D02*
Y021886D01*
X023652Y021690D02*
X024045D01*
X023652D02*
Y021886D01*
X024045D01*
X022953Y022136D02*
Y022333D01*
X023346D01*
Y022136D02*
Y022333D01*
X022953Y022136D02*
X023346D01*
X022953Y022520D02*
Y022717D01*
X023346D01*
Y022520D02*
Y022717D01*
X022953Y022520D02*
X023346D01*
X023386Y022894D02*
Y023091D01*
X022992Y022894D02*
X023386D01*
X022992D02*
Y023091D01*
X023386D01*
X024045Y022077D02*
Y022274D01*
X023652Y022077D02*
X024045D01*
X023652D02*
Y022274D01*
X024045D01*
X022953Y021368D02*
Y021565D01*
X023346D01*
Y021368D02*
Y021565D01*
X022953Y021368D02*
X023346D01*
X024045Y018699D02*
Y018896D01*
X023652Y018699D02*
X024045D01*
X023652D02*
Y018896D01*
X024045D01*
Y019482D02*
Y019679D01*
X023652Y019482D02*
X024045D01*
X023652D02*
Y019679D01*
X024045D01*
Y019091D02*
Y019287D01*
X023652Y019091D02*
X024045D01*
X023652D02*
Y019287D01*
X024045D01*
X022953Y017106D02*
Y017303D01*
X023346D01*
Y017106D02*
Y017303D01*
X022953Y017106D02*
X023346D01*
X024045Y019874D02*
Y020071D01*
X023652Y019874D02*
X024045D01*
X023652D02*
Y020071D01*
X024045D01*
X022953Y017510D02*
Y017707D01*
X023346D01*
Y017510D02*
Y017707D01*
X022953Y017510D02*
X023346D01*
X022953Y018278D02*
Y018475D01*
X023346D01*
Y018278D02*
Y018475D01*
X022953Y018278D02*
X023346D01*
X022953Y017894D02*
Y018091D01*
X023346D01*
Y017894D02*
Y018091D01*
X022953Y017894D02*
X023346D01*
X024045Y020266D02*
Y020463D01*
X023652Y020266D02*
X024045D01*
X023652D02*
Y020463D01*
X024045D01*
Y018307D02*
Y018504D01*
X023652Y018307D02*
X024045D01*
X023652D02*
Y018504D01*
X024045D01*
Y020915D02*
Y021112D01*
X023652Y020915D02*
X024045D01*
X023652D02*
Y021112D01*
X024045D01*
Y021302D02*
Y021499D01*
X023652Y021302D02*
X024045D01*
X023652D02*
Y021499D01*
X024045D01*
X022953Y020201D02*
Y020398D01*
X023346D01*
Y020201D02*
Y020398D01*
X022953Y020201D02*
X023346D01*
X022953Y019817D02*
Y020014D01*
X023346D01*
Y019817D02*
Y020014D01*
X022953Y019817D02*
X023346D01*
X022953Y020971D02*
Y021167D01*
X023346D01*
Y020971D02*
Y021167D01*
X022953Y020971D02*
X023346D01*
X022953Y020586D02*
Y020783D01*
X023346D01*
Y020586D02*
Y020783D01*
X022953Y020586D02*
X023346D01*
X022953Y019048D02*
Y019244D01*
X023346D01*
Y019048D02*
Y019244D01*
X022953Y019048D02*
X023346D01*
X022953Y018663D02*
Y018860D01*
X023346D01*
Y018663D02*
Y018860D01*
X022953Y018663D02*
X023346D01*
X022953Y019432D02*
Y019629D01*
X023346D01*
Y019432D02*
Y019629D01*
X022953Y019432D02*
X023346D01*
X025080Y023936D02*
X026222D01*
X025080D02*
Y024448D01*
X026222D01*
Y023936D02*
Y024448D01*
X025080Y024330D02*
X025474Y023936D01*
X025080Y024290D02*
X025434Y023936D01*
X025080Y024251D02*
X025395Y023936D01*
X025080Y024212D02*
X025356Y023936D01*
X025080Y024172D02*
X025316Y023936D01*
X025080Y024133D02*
X025277Y023936D01*
X025080Y024093D02*
X025238Y023936D01*
X025080Y024054D02*
X025198Y023936D01*
X025080Y024015D02*
X025159Y023936D01*
X025080Y023975D02*
X025119Y023936D01*
X014827Y025039D02*
X015182D01*
X014827D02*
Y025748D01*
X015182D01*
Y025039D02*
Y025748D01*
X014827Y025003D02*
X015182D01*
Y024295D02*
Y025003D01*
X014827Y024295D02*
X015182D01*
X014827D02*
Y025003D01*
X017873Y023787D02*
Y024141D01*
X017164Y023787D02*
X017873D01*
X017164D02*
Y024141D01*
X017873D01*
X017638Y022923D02*
Y023553D01*
X017323D02*
X017638D01*
X017323Y022923D02*
Y023553D01*
Y022923D02*
X017638D01*
X015551Y025984D02*
X017913D01*
X015551Y024409D02*
Y025984D01*
Y024409D02*
X017913D01*
Y025984D01*
X017874Y024409D02*
X017913Y024449D01*
X017835Y024409D02*
X017913Y024488D01*
X017795Y024409D02*
X017913Y024528D01*
X017756Y024409D02*
X017913Y024567D01*
X017717Y024409D02*
X017913Y024606D01*
X017677Y024409D02*
X017913Y024646D01*
X017638Y024409D02*
X017913Y024685D01*
X017598Y024409D02*
X017913Y024724D01*
X017559Y024409D02*
X017913Y024764D01*
X017520Y024409D02*
X017913Y024803D01*
X012228Y027923D02*
X014323D01*
X011791Y026447D02*
X014744D01*
X011791Y023494D02*
Y026447D01*
Y023494D02*
X014744D01*
Y026447D01*
X011890D02*
Y026762D01*
X014646D01*
Y026447D02*
Y026762D01*
X012244D02*
Y027057D01*
X014291Y026762D02*
Y027057D01*
X014323Y027904D02*
Y027943D01*
Y027904D02*
X014520Y027805D01*
Y027766D02*
Y027805D01*
X014323Y027667D02*
X014520Y027766D01*
X014323Y027628D02*
Y027667D01*
Y027628D02*
X014520Y027530D01*
Y027490D02*
Y027530D01*
X014323Y027392D02*
X014520Y027490D01*
X014323Y027352D02*
Y027392D01*
Y027352D02*
X014520Y027254D01*
Y027215D02*
Y027254D01*
X014323Y027116D02*
X014520Y027215D01*
X014323Y027057D02*
Y027116D01*
X012228Y027234D02*
X014520D01*
X012228Y027510D02*
X014520D01*
X012228Y027372D02*
X014323D01*
X012228Y027648D02*
X014323D01*
X012228Y027785D02*
X014520D01*
X011791Y027746D02*
Y028238D01*
Y027746D02*
X014744D01*
Y028238D01*
X011890Y028337D02*
X014646D01*
X012228Y028730D02*
X014323D01*
X014520Y028632D01*
Y028593D02*
Y028632D01*
X014323Y028494D02*
X014520Y028593D01*
X014323Y028455D02*
Y028494D01*
Y028455D02*
X014520Y028356D01*
Y028317D02*
Y028356D01*
X014323Y028219D02*
X014520Y028317D01*
X014323Y028179D02*
Y028219D01*
Y028179D02*
X014520Y028081D01*
Y028041D02*
Y028081D01*
X014323Y027943D02*
X014520Y028041D01*
X012228Y028612D02*
X014520D01*
X012228Y028474D02*
X014323D01*
X012228Y028337D02*
X014520D01*
X012228Y028199D02*
X014323D01*
X014163Y028730D02*
Y029931D01*
X012372Y028730D02*
Y029931D01*
X014077Y030073D02*
X014163Y029931D01*
X014077Y030073D02*
Y030970D01*
X014163Y031112D01*
Y031486D01*
X012372D02*
X014163D01*
X012372Y031112D02*
Y031486D01*
Y031112D02*
X012459Y030970D01*
Y030073D02*
Y030970D01*
X012372Y029931D02*
X012459Y030073D01*
Y030258D02*
X014077D01*
X012459Y030783D02*
X014077D01*
X012228Y028061D02*
X014520D01*
X012228Y027057D02*
Y028730D01*
Y027057D02*
X014323D01*
X015226Y022874D02*
X016014Y022874D01*
Y023858D01*
X015226Y023858D02*
X016014Y023858D01*
X015226Y022874D02*
Y023858D01*
X015226Y023819D02*
X015266Y023858D01*
X015226Y023780D02*
X015305Y023858D01*
X015226Y023740D02*
X015344Y023858D01*
X015226Y023701D02*
X015384Y023858D01*
X015226Y023661D02*
X015423Y023858D01*
X015226Y023622D02*
X015463Y023858D01*
X015226Y023583D02*
X015502Y023858D01*
X015226Y023543D02*
X015541Y023858D01*
X015226Y023504D02*
X015581Y023858D01*
X015226Y023465D02*
X015620Y023858D01*
X014906Y025925D02*
X015103D01*
X014906D02*
Y026319D01*
X015103D01*
Y025925D02*
Y026319D01*
X016343Y023403D02*
X016540D01*
X016343D02*
Y023797D01*
X016540D01*
Y023403D02*
Y023797D01*
X010860Y023985D02*
X011175D01*
Y024615D01*
X010860D02*
X011175D01*
X010860Y023985D02*
Y024615D01*
Y024132D02*
X011175D01*
X011018Y024467D02*
X011175Y024132D01*
X010860D02*
X011018Y024467D01*
X010309Y023985D02*
X010624D01*
Y024615D01*
X010309D02*
X010624D01*
X010309Y023985D02*
Y024615D01*
Y024132D02*
X010624D01*
X010467Y024467D02*
X010624Y024132D01*
X010309D02*
X010467Y024467D01*
X010209Y023396D02*
Y023593D01*
X010602D01*
Y023396D02*
Y023593D01*
X010209Y023396D02*
X010602D01*
X011319D02*
Y023593D01*
X010925Y023396D02*
X011319D01*
X010925D02*
Y023593D01*
X011319D01*
X020561Y024193D02*
X021191D01*
X020561Y023878D02*
Y024193D01*
Y023878D02*
X021191D01*
Y024193D01*
X022402Y013533D02*
X023031D01*
Y013848D01*
X022402D02*
X023031D01*
X022402Y013533D02*
Y013848D01*
X024124Y014478D02*
Y015758D01*
X023120D02*
X024124D01*
X023120Y014478D02*
Y015758D01*
Y014478D02*
X024124Y014478D01*
X023573Y013937D02*
X023927D01*
Y013228D02*
Y013937D01*
X023573Y013228D02*
X023927D01*
X023573D02*
Y013937D01*
X023031Y012933D02*
Y013130D01*
X022638Y012933D02*
X023031D01*
X022638D02*
Y013130D01*
X023031D01*
X018947Y014035D02*
Y015217D01*
X018976Y014035D02*
Y015217D01*
X019006Y014035D02*
Y015217D01*
X019035Y014035D02*
Y015217D01*
X019065Y014035D02*
Y015217D01*
X019094Y014035D02*
Y015217D01*
X019124Y014035D02*
Y015217D01*
X019154Y014035D02*
Y015217D01*
X019183Y014035D02*
Y015217D01*
X018927Y014035D02*
Y015217D01*
Y014035D02*
X020384D01*
Y015217D01*
X018927D02*
X020384D01*
X025213Y016043D02*
X026362D01*
Y016555D01*
X025213D02*
X026362D01*
X025213Y016043D02*
Y016555D01*
X025968Y016043D02*
X026362Y016437D01*
X026008Y016043D02*
X026362Y016398D01*
X026047Y016043D02*
X026362Y016358D01*
X026087Y016043D02*
X026362Y016319D01*
X026126Y016043D02*
X026362Y016280D01*
X026165Y016043D02*
X026362Y016240D01*
X026205Y016043D02*
X026362Y016201D01*
X026244Y016043D02*
X026362Y016161D01*
X026283Y016043D02*
X026362Y016122D01*
X026323Y016043D02*
X026362Y016083D01*
X026043Y011709D02*
Y012858D01*
X025531D02*
X026043D01*
X025531Y011709D02*
Y012858D01*
Y011709D02*
X026043D01*
X025650Y012858D02*
X026043Y012465D01*
X025689Y012858D02*
X026043Y012504D01*
X025728Y012858D02*
X026043Y012543D01*
X025768Y012858D02*
X026043Y012583D01*
X025807Y012858D02*
X026043Y012622D01*
X025846Y012858D02*
X026043Y012661D01*
X025886Y012858D02*
X026043Y012701D01*
X025925Y012858D02*
X026043Y012740D01*
X025965Y012858D02*
X026043Y012780D01*
X026004Y012858D02*
X026043Y012819D01*
X010236Y023189D02*
X011378D01*
X010236Y022677D02*
Y023189D01*
Y022677D02*
X011378D01*
Y023189D01*
X010236Y022795D02*
X010630Y023189D01*
X010236Y022835D02*
X010591Y023189D01*
X010236Y022874D02*
X010551Y023189D01*
X010236Y022913D02*
X010512Y023189D01*
X010236Y022953D02*
X010472Y023189D01*
X010236Y022992D02*
X010433Y023189D01*
X010236Y023031D02*
X010394Y023189D01*
X010236Y023071D02*
X010354Y023189D01*
X010236Y023110D02*
X010315Y023189D01*
X010236Y023150D02*
X010276Y023189D01*
X018022Y019311D02*
Y020020D01*
X018376D01*
Y019311D02*
Y020020D01*
X018022Y019311D02*
X018376D01*
X017766Y018110D02*
X018474D01*
Y017756D02*
Y018110D01*
X017766Y017756D02*
X018474D01*
X017766D02*
Y018110D01*
X015394Y019035D02*
X015787D01*
Y018839D02*
Y019035D01*
X015394Y018839D02*
X015787D01*
X015394D02*
Y019035D01*
X020118Y017776D02*
X020512D01*
Y017579D02*
Y017776D01*
X020118Y017579D02*
X020512D01*
X020118D02*
Y017776D01*
X022151Y021105D02*
Y021813D01*
X022505D01*
Y021105D02*
Y021813D01*
X022151Y021105D02*
X022505D01*
X021751Y021813D02*
X021751Y021105D01*
X021751Y021813D02*
X022106D01*
Y021105D02*
Y021813D01*
X021751Y021105D02*
X022106D01*
X018642Y010980D02*
Y011492D01*
Y010980D02*
X019744D01*
Y011492D01*
X018642D02*
X019744D01*
X018047Y012047D02*
X018559D01*
X018047D02*
X018047Y010945D01*
X018559D01*
X018559Y012047D01*
X015423Y010295D02*
Y010807D01*
X014321D02*
X015423D01*
X014321Y010295D02*
Y010807D01*
Y010295D02*
X015423D01*
X019689Y012878D02*
X020083Y013272D01*
X019689Y012917D02*
X020043Y013272D01*
X019689Y012957D02*
X020004Y013272D01*
X019689Y012996D02*
X019965Y013272D01*
X019689Y013035D02*
X019925Y013272D01*
X019689Y013075D02*
X019886Y013272D01*
X019689Y013114D02*
X019846Y013272D01*
X019689Y013154D02*
X019807Y013272D01*
X019689Y013193D02*
X019768Y013272D01*
X019689Y013232D02*
X019728Y013272D01*
X022159Y010801D02*
Y013262D01*
X019699Y010801D02*
X022159D01*
X019699D02*
Y013262D01*
X022159D01*
X014978Y012894D02*
X015372Y013287D01*
X014978Y012933D02*
X015333Y013287D01*
X014978Y012972D02*
X015293Y013287D01*
X014978Y013012D02*
X015254Y013287D01*
X014978Y013051D02*
X015215Y013287D01*
X014978Y013091D02*
X015175Y013287D01*
X014978Y013130D02*
X015136Y013287D01*
X014978Y013169D02*
X015096Y013287D01*
X014978Y013209D02*
X015057Y013287D01*
X014978Y013248D02*
X015018Y013287D01*
X017449Y010817D02*
Y013278D01*
X014988Y010817D02*
X017449D01*
X014988D02*
Y013278D01*
X017449D01*
X019576Y013789D02*
X020225D01*
Y013455D02*
Y013789D01*
X019576Y013455D02*
X020225D01*
X019576D02*
Y013789D01*
X020984Y013888D02*
X021634D01*
Y013553D02*
Y013888D01*
X020984Y013553D02*
X021634D01*
X020984D02*
Y013888D01*
X018652Y012766D02*
X019144D01*
X018652Y011978D02*
Y012766D01*
Y011978D02*
X019144D01*
Y012766D01*
X015512Y013465D02*
X016161D01*
X015512D02*
Y013799D01*
X016161D01*
Y013465D02*
Y013799D01*
X016919Y013461D02*
X017569D01*
X016919D02*
Y013796D01*
X017569D01*
Y013461D02*
Y013796D01*
X011063Y018396D02*
Y019104D01*
X010709Y018396D02*
X011063D01*
X010709D02*
Y019104D01*
X011063D01*
X010561Y019409D02*
X011270D01*
X010561D02*
Y019764D01*
X011270D01*
Y019409D02*
Y019764D01*
X024665Y012264D02*
X025020D01*
Y012972D01*
X024665D02*
X025020D01*
X024665Y012264D02*
Y012972D01*
X018100Y010126D02*
Y010835D01*
X018455D01*
Y010126D02*
Y010835D01*
X018100Y010126D02*
X018455D01*
X014152Y019049D02*
X014152Y019758D01*
X014506D01*
X014506Y019049D02*
X014506Y019758D01*
X014152Y019049D02*
X014506D01*
X014547Y019049D02*
X014547Y019758D01*
X014901D01*
Y019049D02*
Y019758D01*
X014547Y019049D02*
X014901Y019049D01*
X014214Y017294D02*
Y018002D01*
X014568Y018002D01*
X014568Y017294D02*
X014568Y018002D01*
X014214Y017294D02*
X014568Y017294D01*
X014609Y017294D02*
Y018002D01*
X014964Y018002D01*
X014964Y017294D02*
X014964Y018002D01*
X014609Y017294D02*
X014964Y017294D01*
X021966Y020147D02*
X021966Y019439D01*
X021612Y019439D02*
X021966Y019439D01*
X021612Y019439D02*
Y020147D01*
X021966D01*
X022343Y020148D02*
X022343Y019439D01*
X021988Y019439D02*
X022343Y019439D01*
X021988Y019439D02*
X021988Y020148D01*
X022343Y020148D01*
X019035Y022490D02*
X019390D01*
X019035Y021781D02*
Y022490D01*
Y021781D02*
X019390Y021781D01*
Y022490D01*
X020335Y021890D02*
X020689D01*
Y022598D01*
X020335D02*
X020689D01*
X020335Y021890D02*
Y022598D01*
X021240Y021850D02*
X021594D01*
Y022559D01*
X021240D02*
X021594D01*
X021240Y021850D02*
Y022559D01*
X016890Y019705D02*
Y020059D01*
X016181D02*
X016890D01*
X016181Y019705D02*
Y020059D01*
Y019705D02*
X016890D01*
X019016Y018130D02*
X019016Y017776D01*
X019724Y017776D01*
Y018130D01*
X019016D02*
X019724D01*
X017736Y017520D02*
X018091D01*
X017736Y016811D02*
Y017520D01*
Y016811D02*
X018091Y016811D01*
X018091Y017520D02*
X018091Y016811D01*
X014862Y014774D02*
X015689Y014774D01*
X014862Y014774D02*
Y015305D01*
X015689Y015305D01*
X015689Y014774D01*
X021237Y017571D02*
X021592D01*
X021237Y016863D02*
Y017571D01*
Y016863D02*
X021592D01*
X021592Y017571D01*
X021319Y020236D02*
X021673D01*
Y020945D01*
X021319Y020945D02*
X021673Y020945D01*
X021319Y020945D02*
X021319Y020236D01*
X014577Y022126D02*
Y022953D01*
X015108Y022953D01*
X015108Y022126D01*
X014577D02*
X015108D01*
X016876Y021004D02*
X016876Y020649D01*
X016167Y021004D02*
X016876D01*
X016167D02*
X016167Y020649D01*
X016876D01*
X016628Y021237D02*
Y021591D01*
X015920D02*
X016628D01*
X015920Y021237D02*
Y021591D01*
Y021237D02*
X016628D01*
X015324Y017697D02*
Y018523D01*
X015856D01*
X015856Y017697D01*
X015324D02*
X015856D01*
X017145Y017520D02*
X017500D01*
X017145Y016811D02*
X017145Y017520D01*
X017145Y016811D02*
X017500D01*
Y017520D01*
X016929Y019035D02*
X016929Y018681D01*
X016220Y019035D02*
X016929D01*
X016220Y018681D02*
Y019035D01*
Y018681D02*
X016929Y018681D01*
X016555Y017402D02*
X016909D01*
Y018110D01*
X016555D02*
X016909D01*
X016555Y017402D02*
Y018110D01*
X018740Y017382D02*
Y017736D01*
X018032D02*
X018740D01*
X018032Y017382D02*
Y017736D01*
Y017382D02*
X018740D01*
X016870Y018090D02*
X016870Y018445D01*
X016161D02*
X016870D01*
X016161Y018090D02*
Y018445D01*
Y018090D02*
X016870D01*
X016850Y018091D02*
Y018445D01*
Y018091D02*
X017559D01*
Y018445D01*
X016850D02*
X017559D01*
X016929Y019035D02*
Y019390D01*
X016220D02*
X016929D01*
X016220Y019035D02*
Y019390D01*
Y019035D02*
X016929Y019035D01*
X020699Y019035D02*
X020699Y018681D01*
X019990Y019035D02*
X020699D01*
X019990Y018681D02*
Y019035D01*
Y018681D02*
X020699Y018681D01*
X017126Y020610D02*
Y020965D01*
Y020610D02*
X017835D01*
Y020965D01*
X017126Y020965D02*
X017835Y020965D01*
X015886Y019449D02*
X016240Y019449D01*
X015886Y018740D02*
Y019449D01*
Y018740D02*
X016240D01*
Y019449D01*
X015283Y021614D02*
X015638D01*
X015283Y020905D02*
Y021614D01*
Y020905D02*
X015638D01*
Y021614D01*
X018051Y021132D02*
X018406D01*
Y021841D01*
X018051D02*
X018406D01*
X018051Y021132D02*
Y021841D01*
X015571Y020669D02*
X015925D01*
X015571Y019960D02*
X015571Y020669D01*
X015571Y019960D02*
X015925Y019960D01*
Y020669D01*
X020295Y021181D02*
X020650Y021181D01*
X020650Y021890D02*
X020650Y021181D01*
X020295Y021890D02*
X020650Y021890D01*
X020295Y021181D02*
Y021890D01*
X019409Y021188D02*
X019763Y021188D01*
Y021897D01*
X019409D02*
X019763D01*
X019409Y021188D02*
Y021897D01*
X020590Y020295D02*
Y020649D01*
Y020295D02*
X021299D01*
Y020649D01*
X020590Y020649D02*
X021299Y020649D01*
X020345Y023248D02*
X021171D01*
X021171Y022717D02*
X021171Y023248D01*
X020345Y022717D02*
X021171D01*
X020345Y023248D02*
X020345Y022717D01*
X019075Y017219D02*
X019429D01*
X019075Y016510D02*
Y017219D01*
Y016510D02*
X019429D01*
Y017219D01*
X019449Y015541D02*
Y015896D01*
X018740Y015896D02*
X019449Y015896D01*
X018740Y015541D02*
Y015896D01*
Y015541D02*
X019449D01*
X016368Y023455D02*
X017746D01*
Y022707D02*
Y023455D01*
X016368Y022707D02*
X017746D01*
X016368D02*
Y023455D01*
X017224Y016201D02*
Y016555D01*
X016515Y016555D02*
X017224Y016555D01*
X016515Y016201D02*
X016515Y016555D01*
X016515Y016201D02*
X017224Y016201D01*
X018090Y016890D02*
X018445D01*
X018090Y016181D02*
X018090Y016890D01*
X018090Y016181D02*
X018445D01*
Y016890D01*
X016348Y013996D02*
X017726D01*
X016348D02*
Y014744D01*
X017726D01*
Y013996D02*
Y014744D01*
X018740Y020020D02*
Y020374D01*
X018032Y020374D02*
X018740Y020374D01*
X018032Y020020D02*
Y020374D01*
Y020020D02*
X018740D01*
X018720Y019331D02*
X019075D01*
X019075Y020039D02*
X019075Y019331D01*
X018720Y020039D02*
X019075Y020039D01*
X018720Y019331D02*
Y020039D01*
X021309Y021614D02*
X021663D01*
X021309Y020906D02*
Y021614D01*
Y020906D02*
X021663D01*
Y021614D01*
X021280Y015020D02*
Y015374D01*
X020571D02*
X021280D01*
X020571Y015020D02*
Y015374D01*
Y015020D02*
X021280D01*
X021535Y016398D02*
Y016752D01*
Y016398D02*
X022244D01*
Y016752D01*
X021535D02*
X022244D01*
X020620Y017549D02*
X020974D01*
X020620Y016841D02*
Y017549D01*
Y016841D02*
X020974Y016841D01*
X020974Y017549D02*
X020974Y016841D01*
X015226Y016476D02*
X015580D01*
Y017185D01*
X015226D02*
X015580D01*
X015226Y016476D02*
Y017185D01*
X015242Y019311D02*
Y019665D01*
Y019311D02*
X015951D01*
Y019665D01*
X015242D02*
X015951D01*
X014862Y015827D02*
X015217Y015827D01*
Y016535D01*
X014862D02*
X015217D01*
X014862Y015827D02*
X014862Y016535D01*
X014231Y020231D02*
Y021609D01*
X014979Y021609D01*
Y020231D02*
Y021609D01*
X014231Y020231D02*
X014979Y020231D01*
X018091Y020433D02*
X018445D01*
X018445Y021142D01*
X018091D02*
X018445D01*
X018091Y020433D02*
Y021142D01*
X016876Y020236D02*
Y020590D01*
X016167D02*
X016876D01*
X016167Y020236D02*
X016167Y020590D01*
X016167Y020236D02*
X016876Y020236D01*
X021014Y014843D02*
X022392Y014843D01*
Y014094D02*
Y014843D01*
X021014Y014094D02*
X022392D01*
X021014Y014843D02*
X021014Y014094D01*
X015602Y017182D02*
X015956D01*
X015602Y016473D02*
X015602Y017182D01*
X015602Y016473D02*
X015956D01*
X015956Y017182D02*
X015956Y016473D01*
X016535Y015807D02*
Y016161D01*
Y015807D02*
X017244D01*
Y016161D01*
X016535D02*
X017244D01*
X017392Y016447D02*
Y016801D01*
Y016447D02*
X018100D01*
Y016801D01*
X017392D02*
X018100D01*
X017579Y015787D02*
X018209Y015787D01*
X017579Y015787D02*
Y016102D01*
X018209D01*
X018209Y015787D02*
X018209Y016102D01*
X022923Y024970D02*
X022923Y024616D01*
X022215Y024970D02*
X022923D01*
X022215Y024616D02*
Y024970D01*
Y024616D02*
X022923Y024616D01*
X023012Y025325D02*
Y025679D01*
X022303Y025679D02*
X023012Y025679D01*
X022303Y025325D02*
Y025679D01*
Y025325D02*
X023012Y025325D01*
X011122Y019104D02*
X011476D01*
X011122Y018396D02*
Y019104D01*
Y018396D02*
X011476D01*
Y019104D01*
X011900Y012831D02*
X011900Y010862D01*
X014262D01*
Y012831D01*
X011900Y012831D02*
X014262Y012831D01*
X020177Y023947D02*
Y025522D01*
Y023947D02*
X021752D01*
Y025522D01*
X020177D02*
X021752D01*
X020177Y023986D02*
X020217Y023947D01*
X020177Y024026D02*
X020256Y023947D01*
X020177Y024065D02*
X020295Y023947D01*
X020177Y024104D02*
X020335Y023947D01*
X020177Y024144D02*
X020374Y023947D01*
X020177Y024183D02*
X020413Y023947D01*
X020177Y024222D02*
X020453Y023947D01*
X020177Y024262D02*
X020492Y023947D01*
X020177Y024301D02*
X020531Y023947D01*
X020177Y024341D02*
X020571Y023947D01*
X023148Y014793D02*
Y014852D01*
X023113Y014793D02*
Y014852D01*
X022926Y014793D02*
X023407D01*
X024411D02*
Y014852D01*
X024446Y014793D02*
Y014852D01*
X023407Y014793D02*
Y014852D01*
X022926D02*
X023407D01*
X024152Y014793D02*
Y014852D01*
X023148Y014990D02*
Y015049D01*
X023113Y014990D02*
Y015049D01*
X022926Y014990D02*
X023407D01*
X024411D02*
Y015049D01*
X024446Y014990D02*
Y015049D01*
X023407Y014990D02*
Y015049D01*
X022926D02*
X023407D01*
X024152Y014990D02*
Y015049D01*
X023148Y015187D02*
Y015246D01*
X023113Y015187D02*
Y015246D01*
X022926Y015187D02*
X023407D01*
X024411D02*
Y015246D01*
X024446Y015187D02*
Y015246D01*
X023407Y015187D02*
Y015246D01*
X022926D02*
X023407D01*
X024152Y015187D02*
Y015246D01*
X023148Y015384D02*
Y015443D01*
X023113Y015384D02*
Y015443D01*
X022926Y015384D02*
X023407D01*
X024411D02*
Y015443D01*
X024446Y015384D02*
Y015443D01*
X023407Y015384D02*
Y015443D01*
X022926D02*
X023407D01*
X024152Y015384D02*
Y015443D01*
X023148Y015581D02*
Y015640D01*
X023113Y015581D02*
Y015640D01*
X022926Y015581D02*
X023407D01*
X024411D02*
Y015640D01*
X024446Y015581D02*
Y015640D01*
X023407Y015581D02*
Y015640D01*
X022926D02*
X023407D01*
X024152Y015581D02*
Y015640D01*
X023148Y015778D02*
Y015837D01*
X023113Y015778D02*
Y015837D01*
X022926Y015778D02*
X023407D01*
X024411D02*
Y015837D01*
X024446Y015778D02*
Y015837D01*
X023407Y015778D02*
Y015837D01*
X022926D02*
X023407D01*
X024152Y015778D02*
Y015837D01*
X023148Y015974D02*
Y016033D01*
X023113Y015974D02*
Y016033D01*
X022926Y015974D02*
X023407D01*
X024411D02*
Y016033D01*
X024446Y015974D02*
Y016033D01*
X023407Y015974D02*
Y016033D01*
X022926D02*
X023407D01*
X024152Y015974D02*
Y016033D01*
X023148Y016171D02*
Y016230D01*
X023113Y016171D02*
Y016230D01*
X022926Y016171D02*
X023407D01*
X024411D02*
Y016230D01*
X024446Y016171D02*
Y016230D01*
X023407Y016171D02*
Y016230D01*
X022926D02*
X023407D01*
X024152Y016171D02*
Y016230D01*
X023148Y016368D02*
Y016427D01*
X023113Y016368D02*
Y016427D01*
X022926Y016368D02*
X023407D01*
X024411D02*
Y016427D01*
X024446Y016368D02*
Y016427D01*
X023407Y016368D02*
Y016427D01*
X022926D02*
X023407D01*
X024152Y016368D02*
Y016427D01*
X023148Y016565D02*
Y016624D01*
X023113Y016565D02*
Y016624D01*
X022926Y016565D02*
X023407D01*
X024411D02*
Y016624D01*
X024446Y016565D02*
Y016624D01*
X023407Y016565D02*
Y016624D01*
X022926D02*
X023407D01*
X024152Y016565D02*
Y016624D01*
X023148Y016762D02*
Y016821D01*
X023113Y016762D02*
Y016821D01*
X022926Y016762D02*
X023407D01*
X024411D02*
Y016821D01*
X024446Y016762D02*
Y016821D01*
X023407Y016762D02*
Y016821D01*
X022926D02*
X023407D01*
X024152Y016762D02*
Y016821D01*
X023148Y016959D02*
Y017018D01*
X023113Y016959D02*
Y017018D01*
X022926Y016959D02*
X023407D01*
X024411D02*
Y017018D01*
X024446Y016959D02*
Y017018D01*
X023407Y016959D02*
Y017018D01*
X022926D02*
X023407D01*
X024152Y016959D02*
Y017018D01*
X023148Y017156D02*
Y017215D01*
X023113Y017156D02*
Y017215D01*
X022926Y017156D02*
X023407D01*
X024411D02*
Y017215D01*
X024446Y017156D02*
Y017215D01*
X023407Y017156D02*
Y017215D01*
X022926D02*
X023407D01*
X024152Y017156D02*
Y017215D01*
X023148Y017352D02*
Y017411D01*
X023113Y017352D02*
Y017411D01*
X022926Y017352D02*
X023407D01*
X024411D02*
Y017411D01*
X024446Y017352D02*
Y017411D01*
X023407Y017352D02*
Y017411D01*
X022926D02*
X023407D01*
X024152Y017352D02*
Y017411D01*
X023148Y017549D02*
Y017608D01*
X023113Y017549D02*
Y017608D01*
X022926Y017549D02*
X023407D01*
X024411D02*
Y017608D01*
X024446Y017549D02*
Y017608D01*
X023407Y017549D02*
Y017608D01*
X022926D02*
X023407D01*
X024152Y017549D02*
Y017608D01*
X023148Y017746D02*
Y017805D01*
X023113Y017746D02*
Y017805D01*
X022926Y017746D02*
X023407D01*
X024411D02*
Y017805D01*
X024446Y017746D02*
Y017805D01*
X023407Y017746D02*
Y017805D01*
X022926D02*
X023407D01*
X024152Y017746D02*
Y017805D01*
X023148Y017943D02*
Y018002D01*
X023113Y017943D02*
Y018002D01*
X022926Y017943D02*
X023407D01*
X024411D02*
Y018002D01*
X024446Y017943D02*
Y018002D01*
X023407Y017943D02*
Y018002D01*
X022926D02*
X023407D01*
X024152Y017943D02*
Y018002D01*
X023148Y018140D02*
Y018199D01*
X023113Y018140D02*
Y018199D01*
X022926Y018140D02*
X023407D01*
X024411D02*
Y018199D01*
X024446Y018140D02*
Y018199D01*
X023407Y018140D02*
Y018199D01*
X022926D02*
X023407D01*
X024152Y018140D02*
Y018199D01*
X023148Y018337D02*
Y018396D01*
X023113Y018337D02*
Y018396D01*
X022926Y018337D02*
X023407D01*
X024411D02*
Y018396D01*
X024446Y018337D02*
Y018396D01*
X023407Y018337D02*
Y018396D01*
X022926D02*
X023407D01*
X024152Y018337D02*
Y018396D01*
X023148Y018533D02*
Y018593D01*
X023113Y018533D02*
Y018593D01*
X022926Y018533D02*
X023407D01*
X024411D02*
Y018593D01*
X024446Y018533D02*
Y018593D01*
X023407Y018533D02*
Y018593D01*
X022926D02*
X023407D01*
X024152Y018533D02*
Y018593D01*
X023148Y018730D02*
Y018789D01*
X023113Y018730D02*
Y018789D01*
X022926Y018730D02*
X023407D01*
X024411D02*
Y018789D01*
X024446Y018730D02*
Y018789D01*
X023407Y018730D02*
Y018789D01*
X022926D02*
X023407D01*
X024152Y018730D02*
Y018789D01*
X023148Y018927D02*
Y018986D01*
X023113Y018927D02*
Y018986D01*
X022926Y018927D02*
X023407D01*
X024411D02*
Y018986D01*
X024446Y018927D02*
Y018986D01*
X023407Y018927D02*
Y018986D01*
X022926D02*
X023407D01*
X024152Y018927D02*
Y018986D01*
X023148Y019124D02*
Y019183D01*
X023113Y019124D02*
Y019183D01*
X022926Y019124D02*
X023407D01*
X024411D02*
Y019183D01*
X024446Y019124D02*
Y019183D01*
X023407Y019124D02*
Y019183D01*
X022926D02*
X023407D01*
X024152Y019124D02*
Y019183D01*
X023148Y019321D02*
Y019380D01*
X023113Y019321D02*
Y019380D01*
X022926Y019321D02*
X023407D01*
X024411D02*
Y019380D01*
X024446Y019321D02*
Y019380D01*
X023407Y019321D02*
Y019380D01*
X022926D02*
X023407D01*
X024152Y019321D02*
Y019380D01*
X023148Y019518D02*
Y019577D01*
X023113Y019518D02*
Y019577D01*
X022926Y019518D02*
X023407D01*
X024411D02*
Y019577D01*
X024446Y019518D02*
Y019577D01*
X023407Y019518D02*
Y019577D01*
X022926D02*
X023407D01*
X024152Y019518D02*
Y019577D01*
X023148Y019715D02*
Y019774D01*
X023113Y019715D02*
Y019774D01*
X022926Y019715D02*
X023407D01*
X024411D02*
Y019774D01*
X024446Y019715D02*
Y019774D01*
X023407Y019715D02*
Y019774D01*
X022926D02*
X023407D01*
X024152Y019715D02*
Y019774D01*
X023148Y019911D02*
Y019970D01*
X023113Y019911D02*
Y019970D01*
X022926Y019911D02*
X023407D01*
X024411D02*
Y019970D01*
X024446Y019911D02*
Y019970D01*
X023407Y019911D02*
Y019970D01*
X022926D02*
X023407D01*
X024152Y019911D02*
Y019970D01*
X023148Y020108D02*
Y020167D01*
X023113Y020108D02*
Y020167D01*
X022926Y020108D02*
X023407D01*
X024411D02*
Y020167D01*
X024446Y020108D02*
Y020167D01*
X023407Y020108D02*
Y020167D01*
X022926D02*
X023407D01*
X024152Y020108D02*
Y020167D01*
X023148Y020305D02*
Y020364D01*
X023113Y020305D02*
Y020364D01*
X022926Y020305D02*
X023407D01*
X024411D02*
Y020364D01*
X024446Y020305D02*
Y020364D01*
X023407Y020305D02*
Y020364D01*
X022926D02*
X023407D01*
X024152Y020305D02*
Y020364D01*
X023148Y020502D02*
Y020561D01*
X023113Y020502D02*
Y020561D01*
X022926Y020502D02*
X023407D01*
X024411D02*
Y020561D01*
X024446Y020502D02*
Y020561D01*
X023407Y020502D02*
Y020561D01*
X022926D02*
X023407D01*
X024152Y020502D02*
Y020561D01*
X023148Y020699D02*
Y020758D01*
X023113Y020699D02*
Y020758D01*
X022926Y020699D02*
X023407D01*
X024411D02*
Y020758D01*
X024446Y020699D02*
Y020758D01*
X023407Y020699D02*
Y020758D01*
X022926D02*
X023407D01*
X024152Y020699D02*
Y020758D01*
X023148Y020896D02*
Y020955D01*
X023113Y020896D02*
Y020955D01*
X022926Y020896D02*
X023407D01*
X024411D02*
Y020955D01*
X024446Y020896D02*
Y020955D01*
X023407Y020896D02*
Y020955D01*
X022926D02*
X023407D01*
X024152Y020896D02*
Y020955D01*
X023148Y021093D02*
Y021152D01*
X023113Y021093D02*
Y021152D01*
X022926Y021093D02*
X023407D01*
X024411D02*
Y021152D01*
X024446Y021093D02*
Y021152D01*
X023407Y021093D02*
Y021152D01*
X022926D02*
X023407D01*
X024152Y021093D02*
Y021152D01*
X023148Y021289D02*
Y021348D01*
X023113Y021289D02*
Y021348D01*
X022926Y021289D02*
X023407D01*
X024411D02*
Y021348D01*
X024446Y021289D02*
Y021348D01*
X023407Y021289D02*
Y021348D01*
X022926D02*
X023407D01*
X024152Y021289D02*
Y021348D01*
X023148Y021486D02*
Y021545D01*
X023113Y021486D02*
Y021545D01*
X022926Y021486D02*
X023407D01*
X024411D02*
Y021545D01*
X024446Y021486D02*
Y021545D01*
X023407Y021486D02*
Y021545D01*
X022926D02*
X023407D01*
X024152Y021486D02*
Y021545D01*
X023148Y021683D02*
Y021742D01*
X023113Y021683D02*
Y021742D01*
X022926Y021683D02*
X023407D01*
X024411D02*
Y021742D01*
X024446Y021683D02*
Y021742D01*
X023407Y021683D02*
Y021742D01*
X022926D02*
X023407D01*
X024152Y021683D02*
Y021742D01*
X023858Y013323D02*
Y013480D01*
X023701D02*
X023858D01*
X023701Y013323D02*
Y013480D01*
X023226Y014248D02*
X024333D01*
X024530Y014400D02*
Y014459D01*
Y014596D02*
Y014656D01*
Y014793D02*
Y014852D01*
Y014990D02*
Y015049D01*
Y015187D02*
Y015246D01*
Y015384D02*
Y015443D01*
Y015581D02*
Y015640D01*
Y015778D02*
Y015837D01*
Y015974D02*
Y016033D01*
Y016171D02*
Y016230D01*
Y016368D02*
Y016427D01*
Y016565D02*
Y016624D01*
Y016762D02*
Y016821D01*
Y016959D02*
Y017018D01*
Y017156D02*
Y017215D01*
Y017352D02*
Y017411D01*
Y017549D02*
Y017608D01*
Y017746D02*
Y017805D01*
Y017943D02*
Y018002D01*
Y018140D02*
Y018199D01*
Y018337D02*
Y018396D01*
Y018533D02*
Y018593D01*
Y018730D02*
Y018789D01*
Y018927D02*
Y018986D01*
Y019124D02*
Y019183D01*
Y019321D02*
Y019380D01*
Y019518D02*
Y019577D01*
Y019715D02*
Y019774D01*
Y019911D02*
Y019970D01*
Y020108D02*
Y020167D01*
Y020305D02*
Y020364D01*
Y020502D02*
Y020561D01*
Y020699D02*
Y020758D01*
Y020896D02*
Y020955D01*
Y021093D02*
Y021152D01*
Y021289D02*
Y021348D01*
Y021486D02*
Y021545D01*
Y021683D02*
Y021742D01*
Y021880D02*
Y021939D01*
Y022077D02*
Y022136D01*
X023226Y022287D02*
X024333D01*
X023030Y022077D02*
Y022136D01*
Y021880D02*
Y021939D01*
Y021683D02*
Y021742D01*
Y021486D02*
Y021545D01*
Y021289D02*
Y021348D01*
Y021093D02*
Y021152D01*
Y020896D02*
Y020955D01*
Y020699D02*
Y020758D01*
Y020502D02*
Y020561D01*
Y020305D02*
Y020364D01*
Y020108D02*
Y020167D01*
Y019911D02*
Y019970D01*
Y019715D02*
Y019774D01*
Y019518D02*
Y019577D01*
Y019321D02*
Y019380D01*
Y019124D02*
Y019183D01*
Y018927D02*
Y018986D01*
Y018730D02*
Y018789D01*
Y018533D02*
Y018593D01*
Y018337D02*
Y018396D01*
Y018140D02*
Y018199D01*
Y017943D02*
Y018002D01*
Y017746D02*
Y017805D01*
Y017549D02*
Y017608D01*
Y017352D02*
Y017411D01*
Y017156D02*
Y017215D01*
Y016959D02*
Y017018D01*
Y016762D02*
Y016821D01*
Y016565D02*
Y016624D01*
Y016368D02*
Y016427D01*
Y016171D02*
Y016230D01*
Y015974D02*
Y016033D01*
Y015778D02*
Y015837D01*
Y015581D02*
Y015640D01*
Y015384D02*
Y015443D01*
Y015187D02*
Y015246D01*
Y014990D02*
Y015049D01*
Y014793D02*
Y014852D01*
Y014596D02*
Y014656D01*
X024667Y022106D02*
X024715D01*
Y023091D02*
X024754Y023051D01*
Y012992D02*
Y023051D01*
X022805Y012992D02*
X024754D01*
X022805D02*
Y023543D01*
X023226Y013323D02*
Y014400D01*
Y014459D02*
Y014596D01*
X022926D02*
Y014656D01*
X023226D02*
Y014793D01*
X022926D02*
Y014852D01*
X023226D02*
Y014990D01*
X022926D02*
Y015049D01*
X023226D02*
Y015187D01*
X022926D02*
Y015246D01*
X023226D02*
Y015384D01*
X022926D02*
Y015443D01*
X023226D02*
Y015581D01*
X022926D02*
Y015640D01*
X023226D02*
Y015778D01*
X022926D02*
Y015837D01*
X023226D02*
Y015974D01*
X022926D02*
Y016033D01*
X023226D02*
Y016171D01*
X022926D02*
Y016230D01*
X023226D02*
Y016368D01*
X022926D02*
Y016427D01*
X023226D02*
Y016565D01*
X022926D02*
Y016624D01*
X023226D02*
Y016762D01*
X022926D02*
Y016821D01*
X023226D02*
Y016959D01*
X022926D02*
Y017018D01*
X023226D02*
Y017156D01*
X022926D02*
Y017215D01*
X023226D02*
Y017352D01*
X022926D02*
Y017411D01*
X023226D02*
Y017549D01*
X022926D02*
Y017608D01*
X023226D02*
Y017746D01*
X022926D02*
Y017805D01*
X023226D02*
Y017943D01*
X022926D02*
Y018002D01*
X023226D02*
Y018140D01*
X022926D02*
Y018199D01*
X023226D02*
Y018337D01*
X022926D02*
Y018396D01*
X023226D02*
Y018533D01*
X022926D02*
Y018593D01*
X023226D02*
Y018730D01*
X022926D02*
Y018789D01*
X023226D02*
Y018927D01*
X022926D02*
Y018986D01*
X023226D02*
Y019124D01*
X022926D02*
Y019183D01*
X023226D02*
Y019321D01*
X022926D02*
Y019380D01*
X023226D02*
Y019518D01*
X022926D02*
Y019577D01*
X023226D02*
Y019715D01*
X022926D02*
Y019774D01*
X023226D02*
Y019911D01*
X022926D02*
Y019970D01*
X023226D02*
Y020108D01*
X022926D02*
Y020167D01*
X023226D02*
Y020305D01*
X022926D02*
Y020364D01*
X023226D02*
Y020502D01*
X022926D02*
Y020561D01*
X023226D02*
Y020699D01*
X022926D02*
Y020758D01*
X023226D02*
Y020896D01*
X022926D02*
Y020955D01*
X023226D02*
Y021093D01*
X022926D02*
Y021152D01*
X023226D02*
Y021289D01*
X022926D02*
Y021348D01*
X023226D02*
Y021486D01*
X022926D02*
Y021545D01*
X023226D02*
Y021683D01*
X022926D02*
Y021742D01*
X023226D02*
Y021880D01*
X022926D02*
Y021939D01*
X023226D02*
Y022077D01*
X022926D02*
Y022136D01*
X023226D02*
Y023016D01*
X023423Y023213D01*
X024333Y022136D02*
Y023016D01*
X024152Y022136D02*
X024633D01*
Y022077D02*
Y022136D01*
X024152Y022077D02*
X024633D01*
X024333Y021939D02*
Y022077D01*
X024152Y021939D02*
X024633D01*
Y021880D02*
Y021939D01*
X024152Y021880D02*
X024633D01*
X024333Y021742D02*
Y021880D01*
X024152Y021742D02*
X024633D01*
Y021683D02*
Y021742D01*
X024152Y021683D02*
X024633D01*
X024333Y021545D02*
Y021683D01*
X024152Y021545D02*
X024633D01*
Y021486D02*
Y021545D01*
X024152Y021486D02*
X024633D01*
X024333Y021348D02*
Y021486D01*
X024152Y021348D02*
X024633D01*
Y021289D02*
Y021348D01*
X024152Y021289D02*
X024633D01*
X024333Y021152D02*
Y021289D01*
X024152Y021152D02*
X024633D01*
Y021093D02*
Y021152D01*
X024152Y021093D02*
X024633D01*
X024333Y020955D02*
Y021093D01*
X024152Y020955D02*
X024633D01*
Y020896D02*
Y020955D01*
X024152Y020896D02*
X024633D01*
X024333Y020758D02*
Y020896D01*
X024152Y020758D02*
X024633D01*
Y020699D02*
Y020758D01*
X024152Y020699D02*
X024633D01*
X024333Y020561D02*
Y020699D01*
X024152Y020561D02*
X024633D01*
Y020502D02*
Y020561D01*
X024152Y020502D02*
X024633D01*
X024333Y020364D02*
Y020502D01*
X024152Y020364D02*
X024633D01*
Y020305D02*
Y020364D01*
X024152Y020305D02*
X024633D01*
X024333Y020167D02*
Y020305D01*
X024152Y020167D02*
X024633D01*
Y020108D02*
Y020167D01*
X024152Y020108D02*
X024633D01*
X024333Y019970D02*
Y020108D01*
X024152Y019970D02*
X024633D01*
Y019911D02*
Y019970D01*
X024152Y019911D02*
X024633D01*
X024333Y019774D02*
Y019911D01*
X024152Y019774D02*
X024633D01*
Y019715D02*
Y019774D01*
X024152Y019715D02*
X024633D01*
X024333Y019577D02*
Y019715D01*
X024152Y019577D02*
X024633D01*
Y019518D02*
Y019577D01*
X024152Y019518D02*
X024633D01*
X024333Y019380D02*
Y019518D01*
X024152Y019380D02*
X024633D01*
Y019321D02*
Y019380D01*
X024152Y019321D02*
X024633D01*
X024333Y019183D02*
Y019321D01*
X024152Y019183D02*
X024633D01*
Y019124D02*
Y019183D01*
X024152Y019124D02*
X024633D01*
X024333Y018986D02*
Y019124D01*
X024152Y018986D02*
X024633D01*
Y018927D02*
Y018986D01*
X024152Y018927D02*
X024633D01*
X024333Y018789D02*
Y018927D01*
X024152Y018789D02*
X024633D01*
Y018730D02*
Y018789D01*
X024152Y018730D02*
X024633D01*
X024333Y018593D02*
Y018730D01*
X024152Y018593D02*
X024633D01*
Y018533D02*
Y018593D01*
X024152Y018533D02*
X024633D01*
X024333Y018396D02*
Y018533D01*
X024152Y018396D02*
X024633D01*
Y018337D02*
Y018396D01*
X024152Y018337D02*
X024633D01*
X024333Y018199D02*
Y018337D01*
X024152Y018199D02*
X024633D01*
Y018140D02*
Y018199D01*
X024152Y018140D02*
X024633D01*
X024333Y018002D02*
Y018140D01*
X024152Y018002D02*
X024633D01*
Y017943D02*
Y018002D01*
X024152Y017943D02*
X024633D01*
X024333Y017805D02*
Y017943D01*
X024152Y017805D02*
X024633D01*
Y017746D02*
Y017805D01*
X024152Y017746D02*
X024633D01*
X024333Y017608D02*
Y017746D01*
X024152Y017608D02*
X024633D01*
Y017549D02*
Y017608D01*
X024152Y017549D02*
X024633D01*
X024333Y017411D02*
Y017549D01*
X024152Y017411D02*
X024633D01*
Y017352D02*
Y017411D01*
X024152Y017352D02*
X024633D01*
X024333Y017215D02*
Y017352D01*
X024152Y017215D02*
X024633D01*
Y017156D02*
Y017215D01*
X024152Y017156D02*
X024633D01*
X024333Y017018D02*
Y017156D01*
X024152Y017018D02*
X024633D01*
Y016959D02*
Y017018D01*
X024152Y016959D02*
X024633D01*
X024333Y016821D02*
Y016959D01*
X024152Y016821D02*
X024633D01*
Y016762D02*
Y016821D01*
X024152Y016762D02*
X024633D01*
X024333Y016624D02*
Y016762D01*
X024152Y016624D02*
X024633D01*
Y016565D02*
Y016624D01*
X024152Y016565D02*
X024633D01*
X024333Y016427D02*
Y016565D01*
X024152Y016427D02*
X024633D01*
Y016368D02*
Y016427D01*
X024152Y016368D02*
X024633D01*
X024333Y016230D02*
Y016368D01*
X024152Y016230D02*
X024633D01*
Y016171D02*
Y016230D01*
X024152Y016171D02*
X024633D01*
X024333Y016033D02*
Y016171D01*
X024152Y016033D02*
X024633D01*
Y015974D02*
Y016033D01*
X024152Y015974D02*
X024633D01*
X024333Y015837D02*
Y015974D01*
X024152Y015837D02*
X024633D01*
Y015778D02*
Y015837D01*
X024152Y015778D02*
X024633D01*
X024333Y015640D02*
Y015778D01*
X024152Y015640D02*
X024633D01*
Y015581D02*
Y015640D01*
X024152Y015581D02*
X024633D01*
X024333Y015443D02*
Y015581D01*
X024152Y015443D02*
X024633D01*
Y015384D02*
Y015443D01*
X024152Y015384D02*
X024633D01*
X024333Y015246D02*
Y015384D01*
X024152Y015246D02*
X024633D01*
Y015187D02*
Y015246D01*
X024152Y015187D02*
X024633D01*
X024333Y015049D02*
Y015187D01*
X024152Y015049D02*
X024633D01*
Y014990D02*
Y015049D01*
X024152Y014990D02*
X024633D01*
X024333Y014852D02*
Y014990D01*
X024152Y014852D02*
X024633D01*
Y014793D02*
Y014852D01*
X024152Y014793D02*
X024633D01*
X024333Y014656D02*
Y014793D01*
X024152Y014656D02*
X024633D01*
Y014596D02*
Y014656D01*
X024152Y014596D02*
X024633D01*
X024333Y014459D02*
Y014596D01*
X024633Y014400D02*
Y014459D01*
X022805Y023543D02*
X024262D01*
X022844Y012992D02*
Y023543D01*
X024667Y021905D02*
X024715D01*
X024667D02*
Y022307D01*
X024715D01*
Y012992D02*
Y023091D01*
X024262Y023543D02*
X024715Y023091D01*
X023423Y023213D02*
X024136D01*
X024333Y023016D01*
Y013323D02*
Y014400D01*
X023226Y013323D02*
X024333D01*
X022926Y014400D02*
Y014459D01*
X023030Y014400D02*
Y014459D01*
X024152D02*
X024633D01*
X024152Y014400D02*
X024633D01*
X023148Y021880D02*
Y021939D01*
X023113Y021880D02*
Y021939D01*
Y022077D02*
Y022136D01*
X023148Y022077D02*
Y022136D01*
X022926Y021880D02*
X023407D01*
X022926Y022077D02*
X023407D01*
X022926Y022136D02*
X023407D01*
X024446Y022077D02*
Y022136D01*
X024411Y022077D02*
Y022136D01*
X024152Y022077D02*
Y022136D01*
X024411Y021880D02*
Y021939D01*
X024446Y021880D02*
Y021939D01*
X023407Y021880D02*
Y021939D01*
Y022077D02*
Y022136D01*
X022926Y021939D02*
X023407D01*
X024152Y021880D02*
Y021939D01*
Y014400D02*
Y014459D01*
Y014596D02*
Y014656D01*
X024411Y014400D02*
Y014459D01*
X024446Y014400D02*
Y014459D01*
Y014596D02*
Y014656D01*
X024411Y014596D02*
Y014656D01*
X022926D02*
X023407D01*
X022926Y014596D02*
X023407D01*
Y014656D01*
X022926Y014400D02*
X023407D01*
Y014459D01*
X022926D02*
X023407D01*
X023148Y014400D02*
Y014459D01*
X023113Y014400D02*
Y014459D01*
Y014596D02*
Y014656D01*
X023148Y014596D02*
Y014656D01*
X012124Y014793D02*
Y014852D01*
X012090Y014793D02*
Y014852D01*
X011903Y014793D02*
X012384D01*
X013388D02*
Y014852D01*
X013422Y014793D02*
Y014852D01*
X012384Y014793D02*
Y014852D01*
X011903D02*
X012384D01*
X013128Y014793D02*
Y014852D01*
X012124Y014990D02*
Y015049D01*
X012090Y014990D02*
Y015049D01*
X011903Y014990D02*
X012384D01*
X013388D02*
Y015049D01*
X013422Y014990D02*
Y015049D01*
X012384Y014990D02*
Y015049D01*
X011903D02*
X012384D01*
X013128Y014990D02*
Y015049D01*
X012124Y015187D02*
Y015246D01*
X012090Y015187D02*
Y015246D01*
X011903Y015187D02*
X012384D01*
X013388D02*
Y015246D01*
X013422Y015187D02*
Y015246D01*
X012384Y015187D02*
Y015246D01*
X011903D02*
X012384D01*
X013128Y015187D02*
Y015246D01*
X012124Y015384D02*
Y015443D01*
X012090Y015384D02*
Y015443D01*
X011903Y015384D02*
X012384D01*
X013388D02*
Y015443D01*
X013422Y015384D02*
Y015443D01*
X012384Y015384D02*
Y015443D01*
X011903D02*
X012384D01*
X013128Y015384D02*
Y015443D01*
X012124Y015581D02*
Y015640D01*
X012090Y015581D02*
Y015640D01*
X011903Y015581D02*
X012384D01*
X013388D02*
Y015640D01*
X013422Y015581D02*
Y015640D01*
X012384Y015581D02*
Y015640D01*
X011903D02*
X012384D01*
X013128Y015581D02*
Y015640D01*
X012124Y015778D02*
Y015837D01*
X012090Y015778D02*
Y015837D01*
X011903Y015778D02*
X012384D01*
X013388D02*
Y015837D01*
X013422Y015778D02*
Y015837D01*
X012384Y015778D02*
Y015837D01*
X011903D02*
X012384D01*
X013128Y015778D02*
Y015837D01*
X012124Y015974D02*
Y016033D01*
X012090Y015974D02*
Y016033D01*
X011903Y015974D02*
X012384D01*
X013388D02*
Y016033D01*
X013422Y015974D02*
Y016033D01*
X012384Y015974D02*
Y016033D01*
X011903D02*
X012384D01*
X013128Y015974D02*
Y016033D01*
X012124Y016171D02*
Y016230D01*
X012090Y016171D02*
Y016230D01*
X011903Y016171D02*
X012384D01*
X013388D02*
Y016230D01*
X013422Y016171D02*
Y016230D01*
X012384Y016171D02*
Y016230D01*
X011903D02*
X012384D01*
X013128Y016171D02*
Y016230D01*
X012124Y016368D02*
Y016427D01*
X012090Y016368D02*
Y016427D01*
X011903Y016368D02*
X012384D01*
X013388D02*
Y016427D01*
X013422Y016368D02*
Y016427D01*
X012384Y016368D02*
Y016427D01*
X011903D02*
X012384D01*
X013128Y016368D02*
Y016427D01*
X012124Y016565D02*
Y016624D01*
X012090Y016565D02*
Y016624D01*
X011903Y016565D02*
X012384D01*
X013388D02*
Y016624D01*
X013422Y016565D02*
Y016624D01*
X012384Y016565D02*
Y016624D01*
X011903D02*
X012384D01*
X013128Y016565D02*
Y016624D01*
X012124Y016762D02*
Y016821D01*
X012090Y016762D02*
Y016821D01*
X011903Y016762D02*
X012384D01*
X013388D02*
Y016821D01*
X013422Y016762D02*
Y016821D01*
X012384Y016762D02*
Y016821D01*
X011903D02*
X012384D01*
X013128Y016762D02*
Y016821D01*
X012124Y016959D02*
Y017018D01*
X012090Y016959D02*
Y017018D01*
X011903Y016959D02*
X012384D01*
X013388D02*
Y017018D01*
X013422Y016959D02*
Y017018D01*
X012384Y016959D02*
Y017018D01*
X011903D02*
X012384D01*
X013128Y016959D02*
Y017018D01*
X012124Y017156D02*
Y017215D01*
X012090Y017156D02*
Y017215D01*
X011903Y017156D02*
X012384D01*
X013388D02*
Y017215D01*
X013422Y017156D02*
Y017215D01*
X012384Y017156D02*
Y017215D01*
X011903D02*
X012384D01*
X013128Y017156D02*
Y017215D01*
X012124Y017352D02*
Y017411D01*
X012090Y017352D02*
Y017411D01*
X011903Y017352D02*
X012384D01*
X013388D02*
Y017411D01*
X013422Y017352D02*
Y017411D01*
X012384Y017352D02*
Y017411D01*
X011903D02*
X012384D01*
X013128Y017352D02*
Y017411D01*
X012124Y017549D02*
Y017608D01*
X012090Y017549D02*
Y017608D01*
X011903Y017549D02*
X012384D01*
X013388D02*
Y017608D01*
X013422Y017549D02*
Y017608D01*
X012384Y017549D02*
Y017608D01*
X011903D02*
X012384D01*
X013128Y017549D02*
Y017608D01*
X012124Y017746D02*
Y017805D01*
X012090Y017746D02*
Y017805D01*
X011903Y017746D02*
X012384D01*
X013388D02*
Y017805D01*
X013422Y017746D02*
Y017805D01*
X012384Y017746D02*
Y017805D01*
X011903D02*
X012384D01*
X013128Y017746D02*
Y017805D01*
X012124Y017943D02*
Y018002D01*
X012090Y017943D02*
Y018002D01*
X011903Y017943D02*
X012384D01*
X013388D02*
Y018002D01*
X013422Y017943D02*
Y018002D01*
X012384Y017943D02*
Y018002D01*
X011903D02*
X012384D01*
X013128Y017943D02*
Y018002D01*
X012124Y018140D02*
Y018199D01*
X012090Y018140D02*
Y018199D01*
X011903Y018140D02*
X012384D01*
X013388D02*
Y018199D01*
X013422Y018140D02*
Y018199D01*
X012384Y018140D02*
Y018199D01*
X011903D02*
X012384D01*
X013128Y018140D02*
Y018199D01*
X012124Y018337D02*
Y018396D01*
X012090Y018337D02*
Y018396D01*
X011903Y018337D02*
X012384D01*
X013388D02*
Y018396D01*
X013422Y018337D02*
Y018396D01*
X012384Y018337D02*
Y018396D01*
X011903D02*
X012384D01*
X013128Y018337D02*
Y018396D01*
X012124Y018533D02*
Y018593D01*
X012090Y018533D02*
Y018593D01*
X011903Y018533D02*
X012384D01*
X013388D02*
Y018593D01*
X013422Y018533D02*
Y018593D01*
X012384Y018533D02*
Y018593D01*
X011903D02*
X012384D01*
X013128Y018533D02*
Y018593D01*
X012124Y018730D02*
Y018789D01*
X012090Y018730D02*
Y018789D01*
X011903Y018730D02*
X012384D01*
X013388D02*
Y018789D01*
X013422Y018730D02*
Y018789D01*
X012384Y018730D02*
Y018789D01*
X011903D02*
X012384D01*
X013128Y018730D02*
Y018789D01*
X012124Y018927D02*
Y018986D01*
X012090Y018927D02*
Y018986D01*
X011903Y018927D02*
X012384D01*
X013388D02*
Y018986D01*
X013422Y018927D02*
Y018986D01*
X012384Y018927D02*
Y018986D01*
X011903D02*
X012384D01*
X013128Y018927D02*
Y018986D01*
X012124Y019124D02*
Y019183D01*
X012090Y019124D02*
Y019183D01*
X011903Y019124D02*
X012384D01*
X013388D02*
Y019183D01*
X013422Y019124D02*
Y019183D01*
X012384Y019124D02*
Y019183D01*
X011903D02*
X012384D01*
X013128Y019124D02*
Y019183D01*
X012124Y019321D02*
Y019380D01*
X012090Y019321D02*
Y019380D01*
X011903Y019321D02*
X012384D01*
X013388D02*
Y019380D01*
X013422Y019321D02*
Y019380D01*
X012384Y019321D02*
Y019380D01*
X011903D02*
X012384D01*
X013128Y019321D02*
Y019380D01*
X012124Y019518D02*
Y019577D01*
X012090Y019518D02*
Y019577D01*
X011903Y019518D02*
X012384D01*
X013388D02*
Y019577D01*
X013422Y019518D02*
Y019577D01*
X012384Y019518D02*
Y019577D01*
X011903D02*
X012384D01*
X013128Y019518D02*
Y019577D01*
X012124Y019715D02*
Y019774D01*
X012090Y019715D02*
Y019774D01*
X011903Y019715D02*
X012384D01*
X013388D02*
Y019774D01*
X013422Y019715D02*
Y019774D01*
X012384Y019715D02*
Y019774D01*
X011903D02*
X012384D01*
X013128Y019715D02*
Y019774D01*
X012124Y019911D02*
Y019970D01*
X012090Y019911D02*
Y019970D01*
X011903Y019911D02*
X012384D01*
X013388D02*
Y019970D01*
X013422Y019911D02*
Y019970D01*
X012384Y019911D02*
Y019970D01*
X011903D02*
X012384D01*
X013128Y019911D02*
Y019970D01*
X012124Y020108D02*
Y020167D01*
X012090Y020108D02*
Y020167D01*
X011903Y020108D02*
X012384D01*
X013388D02*
Y020167D01*
X013422Y020108D02*
Y020167D01*
X012384Y020108D02*
Y020167D01*
X011903D02*
X012384D01*
X013128Y020108D02*
Y020167D01*
X012124Y020305D02*
Y020364D01*
X012090Y020305D02*
Y020364D01*
X011903Y020305D02*
X012384D01*
X013388D02*
Y020364D01*
X013422Y020305D02*
Y020364D01*
X012384Y020305D02*
Y020364D01*
X011903D02*
X012384D01*
X013128Y020305D02*
Y020364D01*
X012124Y020502D02*
Y020561D01*
X012090Y020502D02*
Y020561D01*
X011903Y020502D02*
X012384D01*
X013388D02*
Y020561D01*
X013422Y020502D02*
Y020561D01*
X012384Y020502D02*
Y020561D01*
X011903D02*
X012384D01*
X013128Y020502D02*
Y020561D01*
X012124Y020699D02*
Y020758D01*
X012090Y020699D02*
Y020758D01*
X011903Y020699D02*
X012384D01*
X013388D02*
Y020758D01*
X013422Y020699D02*
Y020758D01*
X012384Y020699D02*
Y020758D01*
X011903D02*
X012384D01*
X013128Y020699D02*
Y020758D01*
X012124Y020896D02*
Y020955D01*
X012090Y020896D02*
Y020955D01*
X011903Y020896D02*
X012384D01*
X013388D02*
Y020955D01*
X013422Y020896D02*
Y020955D01*
X012384Y020896D02*
Y020955D01*
X011903D02*
X012384D01*
X013128Y020896D02*
Y020955D01*
X012124Y021093D02*
Y021152D01*
X012090Y021093D02*
Y021152D01*
X011903Y021093D02*
X012384D01*
X013388D02*
Y021152D01*
X013422Y021093D02*
Y021152D01*
X012384Y021093D02*
Y021152D01*
X011903D02*
X012384D01*
X013128Y021093D02*
Y021152D01*
X012124Y021289D02*
Y021348D01*
X012090Y021289D02*
Y021348D01*
X011903Y021289D02*
X012384D01*
X013388D02*
Y021348D01*
X013422Y021289D02*
Y021348D01*
X012384Y021289D02*
Y021348D01*
X011903D02*
X012384D01*
X013128Y021289D02*
Y021348D01*
X012124Y021486D02*
Y021545D01*
X012090Y021486D02*
Y021545D01*
X011903Y021486D02*
X012384D01*
X013388D02*
Y021545D01*
X013422Y021486D02*
Y021545D01*
X012384Y021486D02*
Y021545D01*
X011903D02*
X012384D01*
X013128Y021486D02*
Y021545D01*
X012124Y021683D02*
Y021742D01*
X012090Y021683D02*
Y021742D01*
X011903Y021683D02*
X012384D01*
X013388D02*
Y021742D01*
X013422Y021683D02*
Y021742D01*
X012384Y021683D02*
Y021742D01*
X011903D02*
X012384D01*
X013128Y021683D02*
Y021742D01*
X012835Y013323D02*
Y013480D01*
X012677D02*
X012835D01*
X012677Y013323D02*
Y013480D01*
X012203Y014248D02*
X013309D01*
X013506Y014400D02*
Y014459D01*
Y014596D02*
Y014656D01*
Y014793D02*
Y014852D01*
Y014990D02*
Y015049D01*
Y015187D02*
Y015246D01*
Y015384D02*
Y015443D01*
Y015581D02*
Y015640D01*
Y015778D02*
Y015837D01*
Y015974D02*
Y016033D01*
Y016171D02*
Y016230D01*
Y016368D02*
Y016427D01*
Y016565D02*
Y016624D01*
Y016762D02*
Y016821D01*
Y016959D02*
Y017018D01*
Y017156D02*
Y017215D01*
Y017352D02*
Y017411D01*
Y017549D02*
Y017608D01*
Y017746D02*
Y017805D01*
Y017943D02*
Y018002D01*
Y018140D02*
Y018199D01*
Y018337D02*
Y018396D01*
Y018533D02*
Y018593D01*
Y018730D02*
Y018789D01*
Y018927D02*
Y018986D01*
Y019124D02*
Y019183D01*
Y019321D02*
Y019380D01*
Y019518D02*
Y019577D01*
Y019715D02*
Y019774D01*
Y019911D02*
Y019970D01*
Y020108D02*
Y020167D01*
Y020305D02*
Y020364D01*
Y020502D02*
Y020561D01*
Y020699D02*
Y020758D01*
Y020896D02*
Y020955D01*
Y021093D02*
Y021152D01*
Y021289D02*
Y021348D01*
Y021486D02*
Y021545D01*
Y021683D02*
Y021742D01*
Y021880D02*
Y021939D01*
Y022077D02*
Y022136D01*
X012203Y022287D02*
X013309D01*
X012006Y022077D02*
Y022136D01*
Y021880D02*
Y021939D01*
Y021683D02*
Y021742D01*
Y021486D02*
Y021545D01*
Y021289D02*
Y021348D01*
Y021093D02*
Y021152D01*
Y020896D02*
Y020955D01*
Y020699D02*
Y020758D01*
Y020502D02*
Y020561D01*
Y020305D02*
Y020364D01*
Y020108D02*
Y020167D01*
Y019911D02*
Y019970D01*
Y019715D02*
Y019774D01*
Y019518D02*
Y019577D01*
Y019321D02*
Y019380D01*
Y019124D02*
Y019183D01*
Y018927D02*
Y018986D01*
Y018730D02*
Y018789D01*
Y018533D02*
Y018593D01*
Y018337D02*
Y018396D01*
Y018140D02*
Y018199D01*
Y017943D02*
Y018002D01*
Y017746D02*
Y017805D01*
Y017549D02*
Y017608D01*
Y017352D02*
Y017411D01*
Y017156D02*
Y017215D01*
Y016959D02*
Y017018D01*
Y016762D02*
Y016821D01*
Y016565D02*
Y016624D01*
Y016368D02*
Y016427D01*
Y016171D02*
Y016230D01*
Y015974D02*
Y016033D01*
Y015778D02*
Y015837D01*
Y015581D02*
Y015640D01*
Y015384D02*
Y015443D01*
Y015187D02*
Y015246D01*
Y014990D02*
Y015049D01*
Y014793D02*
Y014852D01*
Y014596D02*
Y014656D01*
X013644Y022106D02*
X013691D01*
Y023091D02*
X013730Y023051D01*
Y012992D02*
Y023051D01*
X011782Y012992D02*
X013730D01*
X011782D02*
Y023543D01*
X012203Y013323D02*
Y014400D01*
Y014459D02*
Y014596D01*
X011903D02*
Y014656D01*
X012203D02*
Y014793D01*
X011903D02*
Y014852D01*
X012203D02*
Y014990D01*
X011903D02*
Y015049D01*
X012203D02*
Y015187D01*
X011903D02*
Y015246D01*
X012203D02*
Y015384D01*
X011903D02*
Y015443D01*
X012203D02*
Y015581D01*
X011903D02*
Y015640D01*
X012203D02*
Y015778D01*
X011903D02*
Y015837D01*
X012203D02*
Y015974D01*
X011903D02*
Y016033D01*
X012203D02*
Y016171D01*
X011903D02*
Y016230D01*
X012203D02*
Y016368D01*
X011903D02*
Y016427D01*
X012203D02*
Y016565D01*
X011903D02*
Y016624D01*
X012203D02*
Y016762D01*
X011903D02*
Y016821D01*
X012203D02*
Y016959D01*
X011903D02*
Y017018D01*
X012203D02*
Y017156D01*
X011903D02*
Y017215D01*
X012203D02*
Y017352D01*
X011903D02*
Y017411D01*
X012203D02*
Y017549D01*
X011903D02*
Y017608D01*
X012203D02*
Y017746D01*
X011903D02*
Y017805D01*
X012203D02*
Y017943D01*
X011903D02*
Y018002D01*
X012203D02*
Y018140D01*
X011903D02*
Y018199D01*
X012203D02*
Y018337D01*
X011903D02*
Y018396D01*
X012203D02*
Y018533D01*
X011903D02*
Y018593D01*
X012203D02*
Y018730D01*
X011903D02*
Y018789D01*
X012203D02*
Y018927D01*
X011903D02*
Y018986D01*
X012203D02*
Y019124D01*
X011903D02*
Y019183D01*
X012203D02*
Y019321D01*
X011903D02*
Y019380D01*
X012203D02*
Y019518D01*
X011903D02*
Y019577D01*
X012203D02*
Y019715D01*
X011903D02*
Y019774D01*
X012203D02*
Y019911D01*
X011903D02*
Y019970D01*
X012203D02*
Y020108D01*
X011903D02*
Y020167D01*
X012203D02*
Y020305D01*
X011903D02*
Y020364D01*
X012203D02*
Y020502D01*
X011903D02*
Y020561D01*
X012203D02*
Y020699D01*
X011903D02*
Y020758D01*
X012203D02*
Y020896D01*
X011903D02*
Y020955D01*
X012203D02*
Y021093D01*
X011903D02*
Y021152D01*
X012203D02*
Y021289D01*
X011903D02*
Y021348D01*
X012203D02*
Y021486D01*
X011903D02*
Y021545D01*
X012203D02*
Y021683D01*
X011903D02*
Y021742D01*
X012203D02*
Y021880D01*
X011903D02*
Y021939D01*
X012203D02*
Y022077D01*
X011903D02*
Y022136D01*
X012203D02*
Y023016D01*
X012400Y023213D01*
X013309Y022136D02*
Y023016D01*
X013128Y022136D02*
X013609D01*
Y022077D02*
Y022136D01*
X013128Y022077D02*
X013609D01*
X013309Y021939D02*
Y022077D01*
X013128Y021939D02*
X013609D01*
Y021880D02*
Y021939D01*
X013128Y021880D02*
X013609D01*
X013309Y021742D02*
Y021880D01*
X013128Y021742D02*
X013609D01*
Y021683D02*
Y021742D01*
X013128Y021683D02*
X013609D01*
X013309Y021545D02*
Y021683D01*
X013128Y021545D02*
X013609D01*
Y021486D02*
Y021545D01*
X013128Y021486D02*
X013609D01*
X013309Y021348D02*
Y021486D01*
X013128Y021348D02*
X013609D01*
Y021289D02*
Y021348D01*
X013128Y021289D02*
X013609D01*
X013309Y021152D02*
Y021289D01*
X013128Y021152D02*
X013609D01*
Y021093D02*
Y021152D01*
X013128Y021093D02*
X013609D01*
X013309Y020955D02*
Y021093D01*
X013128Y020955D02*
X013609D01*
Y020896D02*
Y020955D01*
X013128Y020896D02*
X013609D01*
X013309Y020758D02*
Y020896D01*
X013128Y020758D02*
X013609D01*
Y020699D02*
Y020758D01*
X013128Y020699D02*
X013609D01*
X013309Y020561D02*
Y020699D01*
X013128Y020561D02*
X013609D01*
Y020502D02*
Y020561D01*
X013128Y020502D02*
X013609D01*
X013309Y020364D02*
Y020502D01*
X013128Y020364D02*
X013609D01*
Y020305D02*
Y020364D01*
X013128Y020305D02*
X013609D01*
X013309Y020167D02*
Y020305D01*
X013128Y020167D02*
X013609D01*
Y020108D02*
Y020167D01*
X013128Y020108D02*
X013609D01*
X013309Y019970D02*
Y020108D01*
X013128Y019970D02*
X013609D01*
Y019911D02*
Y019970D01*
X013128Y019911D02*
X013609D01*
X013309Y019774D02*
Y019911D01*
X013128Y019774D02*
X013609D01*
Y019715D02*
Y019774D01*
X013128Y019715D02*
X013609D01*
X013309Y019577D02*
Y019715D01*
X013128Y019577D02*
X013609D01*
Y019518D02*
Y019577D01*
X013128Y019518D02*
X013609D01*
X013309Y019380D02*
Y019518D01*
X013128Y019380D02*
X013609D01*
Y019321D02*
Y019380D01*
X013128Y019321D02*
X013609D01*
X013309Y019183D02*
Y019321D01*
X013128Y019183D02*
X013609D01*
Y019124D02*
Y019183D01*
X013128Y019124D02*
X013609D01*
X013309Y018986D02*
Y019124D01*
X013128Y018986D02*
X013609D01*
Y018927D02*
Y018986D01*
X013128Y018927D02*
X013609D01*
X013309Y018789D02*
Y018927D01*
X013128Y018789D02*
X013609D01*
Y018730D02*
Y018789D01*
X013128Y018730D02*
X013609D01*
X013309Y018593D02*
Y018730D01*
X013128Y018593D02*
X013609D01*
Y018533D02*
Y018593D01*
X013128Y018533D02*
X013609D01*
X013309Y018396D02*
Y018533D01*
X013128Y018396D02*
X013609D01*
Y018337D02*
Y018396D01*
X013128Y018337D02*
X013609D01*
X013309Y018199D02*
Y018337D01*
X013128Y018199D02*
X013609D01*
Y018140D02*
Y018199D01*
X013128Y018140D02*
X013609D01*
X013309Y018002D02*
Y018140D01*
X013128Y018002D02*
X013609D01*
Y017943D02*
Y018002D01*
X013128Y017943D02*
X013609D01*
X013309Y017805D02*
Y017943D01*
X013128Y017805D02*
X013609D01*
Y017746D02*
Y017805D01*
X013128Y017746D02*
X013609D01*
X013309Y017608D02*
Y017746D01*
X013128Y017608D02*
X013609D01*
Y017549D02*
Y017608D01*
X013128Y017549D02*
X013609D01*
X013309Y017411D02*
Y017549D01*
X013128Y017411D02*
X013609D01*
Y017352D02*
Y017411D01*
X013128Y017352D02*
X013609D01*
X013309Y017215D02*
Y017352D01*
X013128Y017215D02*
X013609D01*
Y017156D02*
Y017215D01*
X013128Y017156D02*
X013609D01*
X013309Y017018D02*
Y017156D01*
X013128Y017018D02*
X013609D01*
Y016959D02*
Y017018D01*
X013128Y016959D02*
X013609D01*
X013309Y016821D02*
Y016959D01*
X013128Y016821D02*
X013609D01*
Y016762D02*
Y016821D01*
X013128Y016762D02*
X013609D01*
X013309Y016624D02*
Y016762D01*
X013128Y016624D02*
X013609D01*
Y016565D02*
Y016624D01*
X013128Y016565D02*
X013609D01*
X013309Y016427D02*
Y016565D01*
X013128Y016427D02*
X013609D01*
Y016368D02*
Y016427D01*
X013128Y016368D02*
X013609D01*
X013309Y016230D02*
Y016368D01*
X013128Y016230D02*
X013609D01*
Y016171D02*
Y016230D01*
X013128Y016171D02*
X013609D01*
X013309Y016033D02*
Y016171D01*
X013128Y016033D02*
X013609D01*
Y015974D02*
Y016033D01*
X013128Y015974D02*
X013609D01*
X013309Y015837D02*
Y015974D01*
X013128Y015837D02*
X013609D01*
Y015778D02*
Y015837D01*
X013128Y015778D02*
X013609D01*
X013309Y015640D02*
Y015778D01*
X013128Y015640D02*
X013609D01*
Y015581D02*
Y015640D01*
X013128Y015581D02*
X013609D01*
X013309Y015443D02*
Y015581D01*
X013128Y015443D02*
X013609D01*
Y015384D02*
Y015443D01*
X013128Y015384D02*
X013609D01*
X013309Y015246D02*
Y015384D01*
X013128Y015246D02*
X013609D01*
Y015187D02*
Y015246D01*
X013128Y015187D02*
X013609D01*
X013309Y015049D02*
Y015187D01*
X013128Y015049D02*
X013609D01*
Y014990D02*
Y015049D01*
X013128Y014990D02*
X013609D01*
X013309Y014852D02*
Y014990D01*
X013128Y014852D02*
X013609D01*
Y014793D02*
Y014852D01*
X013128Y014793D02*
X013609D01*
X013309Y014656D02*
Y014793D01*
X013128Y014656D02*
X013609D01*
Y014596D02*
Y014656D01*
X013128Y014596D02*
X013609D01*
X013309Y014459D02*
Y014596D01*
X013609Y014400D02*
Y014459D01*
X011782Y023543D02*
X013238D01*
X011821Y012992D02*
Y023543D01*
X013644Y021905D02*
X013691D01*
X013644D02*
Y022307D01*
X013691D01*
Y012992D02*
Y023091D01*
X013238Y023543D02*
X013691Y023091D01*
X012400Y023213D02*
X013112D01*
X013309Y023016D01*
Y013323D02*
Y014400D01*
X012203Y013323D02*
X013309D01*
X011903Y014400D02*
Y014459D01*
X012006Y014400D02*
Y014459D01*
X013128D02*
X013609D01*
X013128Y014400D02*
X013609D01*
X012124Y021880D02*
Y021939D01*
X012090Y021880D02*
Y021939D01*
Y022077D02*
Y022136D01*
X012124Y022077D02*
Y022136D01*
X011903Y021880D02*
X012384D01*
X011903Y022077D02*
X012384D01*
X011903Y022136D02*
X012384D01*
X013422Y022077D02*
Y022136D01*
X013388Y022077D02*
Y022136D01*
X013128Y022077D02*
Y022136D01*
X013388Y021880D02*
Y021939D01*
X013422Y021880D02*
Y021939D01*
X012384Y021880D02*
Y021939D01*
Y022077D02*
Y022136D01*
X011903Y021939D02*
X012384D01*
X013128Y021880D02*
Y021939D01*
Y014400D02*
Y014459D01*
Y014596D02*
Y014656D01*
X013388Y014400D02*
Y014459D01*
X013422Y014400D02*
Y014459D01*
Y014596D02*
Y014656D01*
X013388Y014596D02*
Y014656D01*
X011903D02*
X012384D01*
X011903Y014596D02*
X012384D01*
Y014656D01*
X011903Y014400D02*
X012384D01*
Y014459D01*
X011903D02*
X012384D01*
X012124Y014400D02*
Y014459D01*
X012090Y014400D02*
Y014459D01*
Y014596D02*
Y014656D01*
X012124Y014596D02*
Y014656D01*
X017323Y018740D02*
X017953D01*
X017323D02*
Y019055D01*
X017953D01*
X017953Y018740D02*
X017953Y019055D01*
X018583Y019055D02*
X019213D01*
X019213Y018740D02*
X019213Y019055D01*
X018583Y018740D02*
X019213D01*
X018583Y019055D02*
X018583Y018740D01*
X021900Y022992D02*
X022530D01*
X022530Y022677D02*
X022530Y022992D01*
X021900Y022677D02*
X022530D01*
X021900D02*
Y022992D01*
X016860Y015532D02*
X017490Y015531D01*
X017490Y015217D01*
X016860D02*
X017490D01*
X016860Y015532D02*
X016860Y015217D01*
X025749Y024507D02*
X026064D01*
Y023877D02*
Y024507D01*
X025749Y023877D02*
X026064D01*
X025749D02*
Y024507D01*
Y024359D02*
X026064D01*
X025907Y024025D02*
X026064Y024359D01*
X025749D02*
X025907Y024025D01*
X025276Y012972D02*
Y013169D01*
Y012972D02*
X025669D01*
Y013169D01*
X025276D02*
X025669D01*
X018809Y016673D02*
X019006Y016673D01*
Y017067D01*
X018809D02*
X019006D01*
X018809D02*
X018809Y016673D01*
X015295Y020115D02*
X015492D01*
X015492Y020509D02*
X015492Y020115D01*
X015295Y020509D02*
X015492D01*
X015295D02*
X015295Y020115D01*
X016693Y019468D02*
Y019665D01*
X016299D02*
X016693D01*
X016299Y019468D02*
Y019665D01*
Y019468D02*
X016693D01*
X025351Y023853D02*
X025548D01*
X025351Y023460D02*
Y023853D01*
Y023460D02*
X025548D01*
Y023853D01*
X017774Y010289D02*
X017970D01*
Y010683D01*
X017774D02*
X017970D01*
X017774D02*
X017774Y010289D01*
X025351Y024208D02*
X025548D01*
Y024601D01*
X025351D02*
X025548D01*
X025351Y024208D02*
Y024601D01*
X019705Y020876D02*
X019902D01*
X019705Y020482D02*
Y020876D01*
Y020482D02*
X019902D01*
Y020876D01*
X011713Y010679D02*
X011909D01*
X011713Y010285D02*
Y010679D01*
Y010285D02*
X011909D01*
Y010679D01*
X016290Y018004D02*
X016429Y017865D01*
X016012Y017726D02*
X016290Y018004D01*
X016012Y017726D02*
X016151Y017586D01*
X016429Y017865D01*
X016043Y016024D02*
X016240D01*
Y016417D01*
X016043D02*
X016240D01*
X016043Y016024D02*
Y016417D01*
X015787Y015965D02*
Y016161D01*
X015394D02*
X015787D01*
X015394Y015965D02*
Y016161D01*
Y015965D02*
X015787D01*
X016299Y016949D02*
Y017146D01*
Y016949D02*
X016693D01*
Y017146D01*
X016299D02*
X016693D01*
X023612Y025630D02*
Y025827D01*
X023219Y025827D02*
X023612Y025827D01*
X023219Y025630D02*
Y025827D01*
Y025630D02*
X023612D01*
X025741Y018902D02*
X025937D01*
X025741Y018508D02*
Y018902D01*
Y018508D02*
X025937D01*
Y018902D01*
X026150Y018508D02*
X026347D01*
Y018902D01*
X026150D02*
X026347D01*
X026150Y018508D02*
Y018902D01*
X014173Y022490D02*
X014370D01*
Y022884D01*
X014173D02*
X014370D01*
X014173Y022490D02*
Y022884D01*
X014919Y023284D02*
X015273D01*
Y023993D01*
X014919D02*
X015273D01*
X014919Y023284D02*
Y023993D01*
X017402Y025098D02*
Y025453D01*
Y025098D02*
X018110D01*
Y025453D01*
X017402D02*
X018110D01*
X017913Y024390D02*
X018268D01*
Y025098D01*
X017913D02*
X018268D01*
X017913Y024390D02*
Y025098D01*
X017043Y025680D02*
Y026034D01*
X016334D02*
X017043D01*
X016334Y025680D02*
Y026034D01*
Y025680D02*
X017043D01*
X015394Y023642D02*
Y023996D01*
Y023642D02*
X016102D01*
Y023996D01*
X015394D02*
X016102D01*
X016299Y025679D02*
Y026033D01*
X015591D02*
X016299D01*
X015591Y025679D02*
Y026033D01*
Y025679D02*
X016299D01*
X016575Y024478D02*
Y025108D01*
X016260Y024478D02*
X016575D01*
X016260D02*
Y025108D01*
X016575D01*
X016978Y024272D02*
X017608D01*
X016978D02*
Y024587D01*
X017608D01*
Y024272D02*
Y024587D01*
X016063Y025039D02*
Y025394D01*
X015354D02*
X016063D01*
X015354Y025039D02*
Y025394D01*
Y025039D02*
X016063D01*
X016096Y024630D02*
Y024984D01*
X015387D02*
X016096D01*
X015387Y024630D02*
Y024984D01*
Y024630D02*
X016096D01*
X011004Y023642D02*
Y024783D01*
X010492D02*
X011004D01*
X010492Y023642D02*
Y024783D01*
Y023642D02*
X011004D01*
X010610Y024783D02*
X011004Y024390D01*
X010650Y024783D02*
X011004Y024429D01*
X010689Y024783D02*
X011004Y024469D01*
X010728Y024783D02*
X011004Y024508D01*
X010768Y024783D02*
X011004Y024547D01*
X010807Y024783D02*
X011004Y024587D01*
X010846Y024783D02*
X011004Y024626D01*
X010886Y024783D02*
X011004Y024665D01*
X010925Y024783D02*
X011004Y024705D01*
X010965Y024783D02*
X011004Y024744D01*
X021161Y019026D02*
X021988Y019026D01*
Y018494D02*
Y019026D01*
X021161Y018494D02*
X021988D01*
X021161D02*
Y019026D01*
X021831Y010482D02*
Y010679D01*
X021437D02*
X021831D01*
X021437Y010482D02*
Y010679D01*
Y010482D02*
X021831Y010482D01*
X021994Y010065D02*
Y010420D01*
X021285Y010420D02*
X021994Y010420D01*
X021285Y010065D02*
X021285Y010420D01*
X021285Y010065D02*
X021994D01*
X022766Y010167D02*
X022805Y010128D01*
X022766Y010207D02*
X022844Y010128D01*
X022766Y010246D02*
X022884Y010128D01*
X022766Y010285D02*
X022923Y010128D01*
X022766Y010325D02*
X022963Y010128D01*
X022766Y010364D02*
X023002Y010128D01*
X022766Y010404D02*
X023041Y010128D01*
X022766Y010443D02*
X023081Y010128D01*
X022766Y010482D02*
X023120Y010128D01*
X022766Y010522D02*
X023159Y010128D01*
X022766Y010128D02*
Y011309D01*
Y010128D02*
X023947D01*
Y011309D01*
X022766D02*
X023947D01*
X021516Y023839D02*
X021870D01*
X021516Y023130D02*
Y023839D01*
Y023130D02*
X021870D01*
Y023839D01*
X021526Y024045D02*
X021880D01*
Y023337D02*
Y024045D01*
X021526Y023337D02*
X021880D01*
X021526D02*
Y024045D01*
X018425Y025217D02*
X021575D01*
X018425D02*
Y026476D01*
X021575D01*
X021575Y025217D01*
X018425Y025374D02*
X021575D01*
X018543Y026437D02*
X018543Y025374D01*
X018543Y026437D02*
X021457D01*
X021457Y025374D02*
X021457Y026437D01*
X021339Y026319D02*
X021457Y026437D01*
X018543D02*
X018661Y026319D01*
Y026014D02*
Y026319D01*
X018543Y026014D02*
X018661D01*
X018543Y025679D02*
X018661D01*
Y025256D02*
Y025679D01*
Y025256D02*
X021339D01*
Y025679D01*
X021457D01*
X021339Y026014D02*
X021457D01*
X021339D02*
Y026319D01*
X021260Y025217D02*
Y025374D01*
X018740Y025217D02*
Y025374D01*
X018661Y026319D02*
X021339D01*
X020921Y025896D02*
X021047D01*
X020921D02*
Y026171D01*
X021047D01*
Y025896D02*
Y026171D01*
X020994Y025945D02*
X021047Y025896D01*
X020974Y025945D02*
X020994Y025945D01*
X020921Y025896D02*
X020974Y025945D01*
Y026122D01*
X020921Y026171D02*
X020974Y026122D01*
X020994Y026122D01*
X021047Y026171D01*
X020994Y025945D02*
Y026122D01*
X020429Y025896D02*
X020555D01*
X020429D02*
Y026171D01*
X020555D01*
Y025896D02*
Y026171D01*
X020502Y025945D02*
X020555Y025896D01*
X020482Y025945D02*
X020502Y025945D01*
X020429Y025896D02*
X020482Y025945D01*
Y026122D01*
X020429Y026171D02*
X020482Y026122D01*
X020502Y026122D01*
X020555Y026171D01*
X020502Y025945D02*
Y026122D01*
X019937Y025896D02*
X020063D01*
X019937D02*
Y026171D01*
X020063D01*
Y025896D02*
Y026171D01*
X020010Y025945D02*
X020063Y025896D01*
X019990Y025945D02*
X020010D01*
X019937Y025896D02*
X019990Y025945D01*
Y026122D01*
X019937Y026171D02*
X019990Y026122D01*
X020010D01*
X020063Y026171D01*
X020010Y025945D02*
Y026122D01*
X019445Y025896D02*
X019571D01*
X019445D02*
Y026171D01*
X019571D01*
Y025896D02*
Y026171D01*
X019518Y025945D02*
X019571Y025896D01*
X019498Y025945D02*
X019518Y025945D01*
X019445Y025896D02*
X019498Y025945D01*
Y026122D01*
X019445Y026171D02*
X019498Y026122D01*
X019518Y026122D01*
X019571Y026171D01*
X019518Y025945D02*
Y026122D01*
X018953Y025896D02*
X019079D01*
X018953D02*
Y026171D01*
X019079D01*
Y025896D02*
Y026171D01*
X019026Y025945D02*
X019079Y025896D01*
X019006Y025945D02*
X019026D01*
X018953Y025896D02*
X019006Y025945D01*
Y026122D01*
X018953Y026171D02*
X019006Y026122D01*
X019026D01*
X019079Y026171D01*
X019026Y025945D02*
Y026122D01*
X013524Y010295D02*
X013720D01*
Y010689D01*
X013524D02*
X013720D01*
X013524Y010295D02*
Y010689D01*
X013136D02*
X013333D01*
X013136Y010295D02*
Y010689D01*
Y010295D02*
X013333D01*
Y010689D01*
X013819Y010846D02*
X014173D01*
X013819Y010138D02*
Y010846D01*
Y010138D02*
X014173D01*
Y010846D01*
X013031Y014749D02*
X013032Y014434D01*
X013661Y014434D01*
X013661Y014749D02*
X013661Y014434D01*
X013031Y014749D02*
X013661D01*
X013179Y014434D02*
Y014749D01*
Y014434D02*
X013514Y014592D01*
X013179Y014749D02*
X013514Y014592D01*
X013287Y014892D02*
Y015089D01*
X013681D01*
Y014892D02*
Y015089D01*
X013287Y014892D02*
X013681D01*
X012904Y015207D02*
Y016348D01*
X013415D01*
Y015207D02*
Y016348D01*
X012904Y015207D02*
X013415D01*
X012904Y015955D02*
X013297Y016348D01*
X012904Y015994D02*
X013258Y016348D01*
X012904Y016033D02*
X013218Y016348D01*
X012904Y016073D02*
X013179Y016348D01*
X012904Y016112D02*
X013140Y016348D01*
X012904Y016152D02*
X013100Y016348D01*
X012904Y016191D02*
X013061Y016348D01*
X012904Y016230D02*
X013022Y016348D01*
X012904Y016270D02*
X012982Y016348D01*
X012904Y016309D02*
X012943Y016348D01*
X013937Y016437D02*
X014134D01*
X013937D02*
Y016831D01*
X014134D01*
Y016437D02*
Y016831D01*
X012028Y016289D02*
X012382Y016289D01*
Y015581D02*
Y016289D01*
X012028Y015581D02*
X012382Y015581D01*
X012028Y015581D02*
X012028Y016289D01*
X007382Y010994D02*
Y017549D01*
X009232D01*
Y010994D02*
Y017549D01*
X007382Y010994D02*
X009232D01*
X009232Y011319D02*
X009902D01*
X009902Y011654D02*
X009902Y011319D01*
X009644Y011654D02*
X009902D01*
X009644D02*
X009644Y012165D01*
X009902Y012165D01*
Y012441D01*
X009644D02*
X009902D01*
X009644D02*
Y012953D01*
X009902D01*
X009902Y013228D01*
X009644D02*
X009902D01*
X009644Y013740D02*
X009644Y013228D01*
X009644Y013740D02*
X009902D01*
Y014016D01*
X009644D02*
X009902D01*
X009644D02*
X009644Y014528D01*
X009902D01*
X009902Y014803D02*
X009902Y014528D01*
X009644Y014803D02*
X009902D01*
X009644D02*
Y015315D01*
X009902D01*
Y015591D01*
X009644Y015591D02*
X009902Y015591D01*
X009644Y016102D02*
X009644Y015591D01*
X009644Y016102D02*
X009902D01*
Y016378D01*
X009644Y016378D02*
X009902Y016378D01*
X009644Y016378D02*
Y016890D01*
X009902Y016890D01*
Y017224D01*
X009232Y017224D02*
X009902Y017224D01*
X009803Y016378D02*
Y016890D01*
Y015591D02*
Y016102D01*
Y014803D02*
Y015315D01*
Y014016D02*
X009803Y014528D01*
X009803Y013740D02*
X009803Y013228D01*
X009803Y012441D02*
Y012953D01*
Y011654D02*
Y012165D01*
Y011811D02*
X010689Y011811D01*
X010886Y011870D01*
X010886Y011949D02*
X010886Y011870D01*
X010689Y012008D02*
X010886Y011949D01*
X009803Y012008D02*
X010689Y012008D01*
Y011811D02*
Y012008D01*
X008209Y012185D02*
X009232Y012106D01*
X008209Y012185D02*
Y012323D01*
X008445D01*
Y013071D01*
X008209Y013071D02*
X008445Y013071D01*
X008209Y013071D02*
Y013209D01*
X009232Y013287D01*
X008917Y012131D02*
Y012933D01*
X008445Y012933D02*
X008917Y012933D01*
X008445Y012598D02*
Y012933D01*
Y012598D02*
X008917D01*
X008445Y012795D02*
X008917Y012795D01*
Y014744D02*
X008917Y013799D01*
X007618Y014744D02*
X008917Y014744D01*
X007520Y014766D02*
X007520Y014429D01*
X008917D01*
Y014744D02*
X008917Y013799D01*
X007618Y013799D02*
X008917Y013799D01*
X007520Y013778D02*
X007520Y014114D01*
X008917D01*
X007697Y014173D02*
X008917D01*
X007697Y014370D02*
X008917D01*
X007697Y014173D02*
Y014370D01*
X007500Y014232D02*
X007697Y014173D01*
X007500Y014311D02*
X007500Y014232D01*
X007500Y014311D02*
X007697Y014370D01*
X007618Y014197D02*
X007618Y014114D01*
X007618Y014346D02*
X007618Y014429D01*
X007382Y011781D02*
X007723Y011978D01*
X007382Y012175D02*
X007723Y011978D01*
X008209Y016358D02*
X009232Y016437D01*
X008209Y016358D02*
X008209Y016220D01*
X008445D01*
X008445Y015472D02*
X008445Y016220D01*
X008209Y015472D02*
X008445Y015472D01*
X008209Y015335D02*
Y015472D01*
Y015335D02*
X009232Y015256D01*
X008917Y015610D02*
Y016413D01*
X008445Y015610D02*
X008917D01*
X008445D02*
Y015945D01*
X008917Y015945D01*
X008445Y015748D02*
X008917Y015748D01*
X009803Y012598D02*
X010689D01*
X010886Y012657D01*
X010886Y012736D02*
X010886Y012657D01*
X010689Y012795D02*
X010886Y012736D01*
X009803Y012795D02*
X010689D01*
Y012598D02*
Y012795D01*
X009803Y013386D02*
X010689D01*
X010886Y013445D01*
X010886Y013524D01*
X010689Y013583D02*
X010886Y013524D01*
X009803Y013583D02*
X010689D01*
Y013386D02*
Y013583D01*
X009803Y014173D02*
X010689D01*
X010886Y014232D01*
Y014311D01*
X010689Y014370D02*
X010886Y014311D01*
X009803Y014370D02*
X010689D01*
Y014173D02*
Y014370D01*
X009803Y014961D02*
X010689Y014961D01*
X010886Y015020D01*
Y015098D01*
X010689Y015157D02*
X010886Y015098D01*
X009803Y015157D02*
X010689Y015157D01*
Y014961D02*
Y015157D01*
X009803Y015748D02*
X010689D01*
X010886Y015807D01*
X010886Y015886D01*
X010689Y015945D02*
X010886Y015886D01*
X009803Y015945D02*
X010689D01*
Y015748D02*
Y015945D01*
X009803Y016535D02*
X010689D01*
X010886Y016594D01*
Y016673D01*
X010689Y016732D02*
X010886Y016673D01*
X009803Y016732D02*
X010689D01*
Y016535D02*
Y016732D01*
X013366Y017598D02*
X013366Y016457D01*
X012854D02*
X013366D01*
X012854D02*
X012854Y017598D01*
X013366D01*
X012972Y016457D02*
X013366Y016850D01*
X013012Y016457D02*
X013366Y016811D01*
X013051Y016457D02*
X013366Y016772D01*
X013091Y016457D02*
X013366Y016732D01*
X013130Y016457D02*
X013366Y016693D01*
X013169Y016457D02*
X013366Y016654D01*
X013209Y016457D02*
X013366Y016614D01*
X013248Y016457D02*
X013366Y016575D01*
X013287Y016457D02*
X013366Y016535D01*
X013327Y016457D02*
X013366Y016496D01*
X036360Y010477D02*
Y010870D01*
Y010477D02*
X036557D01*
Y010870D01*
X036360D02*
X036557D01*
X039192Y016347D02*
Y016544D01*
X038799Y016347D02*
X039192D01*
X038799D02*
Y016544D01*
X039192D01*
X033760Y012875D02*
X035158D01*
X033760Y010296D02*
X035158D01*
X033760D02*
Y012875D01*
X035158Y010296D02*
Y012875D01*
X035118Y010296D02*
X035158Y010336D01*
X035079Y010296D02*
X035158Y010375D01*
X035040Y010296D02*
X035158Y010414D01*
X035000Y010296D02*
X035158Y010454D01*
X034961Y010296D02*
X035158Y010493D01*
X034921Y010296D02*
X035158Y010532D01*
X039373Y019628D02*
Y019983D01*
X038665Y019628D02*
X039373D01*
X038665D02*
Y019983D01*
X039373D01*
X038506Y017861D02*
Y018215D01*
X037798Y017861D02*
X038506D01*
X037798D02*
Y018215D01*
X038506D01*
X038701Y022292D02*
Y022646D01*
X039409D01*
Y022292D02*
Y022646D01*
X038701Y022292D02*
X039409D01*
X038396Y022794D02*
X039656D01*
Y023424D01*
X038396D02*
X039656D01*
X038396Y022794D02*
Y023424D01*
X035108Y014309D02*
X035463D01*
X035108D02*
X035108Y015018D01*
X035463D01*
Y014309D02*
Y015018D01*
X035322Y022970D02*
X035676D01*
Y022261D02*
Y022970D01*
X035322Y022261D02*
X035676D01*
X035322D02*
Y022970D01*
X035082Y022243D02*
X035436D01*
Y021534D02*
Y022243D01*
X035082Y021534D02*
X035436D01*
X035082D02*
Y022243D01*
X035512Y015023D02*
X035866D01*
Y014314D02*
Y015023D01*
X035512Y014314D02*
X035866D01*
X035512D02*
Y015023D01*
X034713Y023186D02*
Y023540D01*
X035422D01*
Y023186D02*
Y023540D01*
X034713Y023186D02*
X035422D01*
X032992Y018633D02*
X033346D01*
Y017924D02*
Y018633D01*
X032992Y017924D02*
X033346D01*
X032992D02*
Y018633D01*
X036644Y023680D02*
X038041D01*
X036644Y026258D02*
X038041D01*
Y023680D02*
Y026258D01*
X036644Y023680D02*
Y026258D01*
Y026219D02*
X036683Y026258D01*
X036644Y026180D02*
X036722Y026258D01*
X036644Y026140D02*
X036762Y026258D01*
X036644Y026101D02*
X036801Y026258D01*
X036644Y026061D02*
X036841Y026258D01*
X036644Y026022D02*
X036880Y026258D01*
X033462Y018630D02*
X033816D01*
Y017921D02*
Y018630D01*
X033462Y017921D02*
X033816D01*
X033462D02*
Y018630D01*
X036211Y011819D02*
Y012922D01*
Y011819D02*
X036722D01*
Y012922D01*
X036211Y012922D02*
X036722Y012922D01*
X038343Y018740D02*
Y018937D01*
X037949Y018740D02*
X038343D01*
X037949D02*
Y018937D01*
X038343D01*
X033621Y023826D02*
Y025086D01*
Y023826D02*
X034251D01*
Y025086D01*
X033621D02*
X034251D01*
X035602Y022250D02*
X035956D01*
Y021541D02*
Y022250D01*
X035602Y021541D02*
X035956D01*
X035602D02*
Y022250D01*
X036532Y022243D02*
X036886D01*
Y021534D02*
Y022243D01*
X036532Y021534D02*
X036886D01*
X036532D02*
Y022243D01*
X036122D02*
X036476D01*
Y021534D02*
Y022243D01*
X036122Y021534D02*
X036476D01*
X036122D02*
Y022243D01*
X035852Y022967D02*
X036206D01*
Y022258D02*
Y022967D01*
X035852Y022258D02*
X036206D01*
X035852D02*
Y022967D01*
X037805Y015388D02*
Y015743D01*
X038513D01*
Y015388D02*
Y015743D01*
X037805Y015388D02*
X038513D01*
X036152Y015320D02*
X036506D01*
Y014611D02*
Y015320D01*
X036152Y014611D02*
X036506D01*
X036152D02*
Y015320D01*
X038506Y017282D02*
Y017636D01*
X037798Y017282D02*
X038506D01*
X037798D02*
Y017636D01*
X038506D01*
Y018261D02*
Y018615D01*
X037798Y018261D02*
X038506D01*
X037798D02*
Y018615D01*
X038506D01*
X039373Y018718D02*
Y019073D01*
X038665Y018718D02*
X039373D01*
X038665D02*
Y019073D01*
X039373D01*
Y019248D02*
Y019603D01*
X038665Y019248D02*
X039373D01*
X038665D02*
Y019603D01*
X039373D01*
X038470Y019648D02*
Y020003D01*
X037762Y019648D02*
X038470D01*
X037762D02*
Y020003D01*
X038470D01*
X039350Y017036D02*
Y017390D01*
X038642Y017036D02*
X039350D01*
X038642D02*
Y017390D01*
X039350D01*
Y017430D02*
Y017784D01*
X038642Y017430D02*
X039350D01*
X038642D02*
Y017784D01*
X039350D01*
X037717Y013384D02*
X038976D01*
X037717Y012754D02*
Y013384D01*
Y012754D02*
X038976D01*
Y013384D01*
X037352Y014611D02*
X037706D01*
X037352D02*
Y015320D01*
X037706D01*
Y014611D02*
Y015320D01*
X036942Y022243D02*
X037296D01*
Y021534D02*
Y022243D01*
X036942Y021534D02*
X037296D01*
X036942D02*
Y022243D01*
X036912Y014598D02*
X037266D01*
X036912D02*
Y015307D01*
X037266D01*
Y014598D02*
Y015307D01*
X039350Y016652D02*
Y017006D01*
X038642Y016652D02*
X039350D01*
X038642D02*
Y017006D01*
X039350D01*
X037352Y022243D02*
X037706D01*
Y021534D02*
Y022243D01*
X037352Y021534D02*
X037706D01*
X037352D02*
Y022243D01*
X038592Y020343D02*
Y020697D01*
X037884Y020343D02*
X038592D01*
X037884D02*
Y020697D01*
X038592D01*
X039373Y020728D02*
Y021083D01*
X038665Y020728D02*
X039373D01*
X038665D02*
Y021083D01*
X039373D01*
Y020058D02*
Y020413D01*
X038665Y020058D02*
X039373D01*
X038665D02*
Y020413D01*
X039373D01*
X036880Y010471D02*
Y011160D01*
X037254D01*
X037254Y010471D01*
X036880D02*
X037254D01*
X037047Y012252D02*
X037736Y012252D01*
Y011878D02*
Y012252D01*
X037047Y011878D02*
X037736D01*
X037047D02*
Y012252D01*
X034664Y025647D02*
X035353D01*
Y025273D02*
Y025647D01*
X034664Y025273D02*
X035353D01*
X034664D02*
Y025647D01*
X034684Y024288D02*
X035373D01*
X034684Y024662D02*
X034684Y024288D01*
X034684Y024662D02*
X035373D01*
Y024288D02*
Y024662D01*
X034733Y024032D02*
X035363D01*
X034733Y023717D02*
Y024032D01*
Y023717D02*
X035363D01*
Y024032D01*
X037244Y012656D02*
Y013286D01*
X036929D02*
X037244D01*
X036929Y012656D02*
Y013286D01*
Y012656D02*
X037244D01*
X039734Y024457D02*
X040014D01*
X041462Y024969D02*
X041742D01*
X039734D02*
X040014D01*
X041462Y024457D02*
X041742D01*
X042037Y024463D02*
Y024963D01*
X040988Y025589D02*
X042037Y024963D01*
X040488Y025589D02*
X040988D01*
X039439Y024963D02*
X040488Y025589D01*
X039439Y024963D02*
X039439Y024463D01*
X040488Y023837D01*
X040988D01*
X042037Y024463D01*
X034623Y013190D02*
X035725Y013190D01*
Y013701D01*
X034623Y013701D02*
X035725Y013701D01*
X034623Y013190D02*
Y013701D01*
X034831Y025971D02*
X035225D01*
Y026168D01*
X034831D02*
X035225D01*
X034831Y025971D02*
Y026168D01*
X036711Y023511D02*
X037814D01*
X036711Y022999D02*
Y023511D01*
Y022999D02*
X037814D01*
Y023511D01*
X036711Y022910D02*
X037814Y022910D01*
X036711Y022399D02*
Y022910D01*
Y022399D02*
X037814D01*
Y022910D01*
X032738Y015443D02*
X032817D01*
X032738D02*
Y015561D01*
X032817D01*
Y015443D02*
Y015561D01*
X039315Y014634D02*
X039490Y014809D01*
X032323Y014634D02*
X039315D01*
X032148Y014809D02*
X032323Y014634D01*
X032148Y014809D02*
Y021802D01*
X032323Y021977D01*
X039315D01*
X039490Y021802D01*
Y014809D02*
Y021802D01*
X032837Y015146D02*
X038801D01*
X032640Y015343D02*
Y021268D01*
X032837Y021465D02*
X038801D01*
X038995Y015377D02*
X038998Y021268D01*
X038703Y015638D02*
Y020973D01*
X033132Y021170D02*
X038506D01*
X032935Y015638D02*
Y020973D01*
X033132Y015441D02*
X038506D01*
X033805Y020520D02*
X038238D01*
Y016087D02*
Y020520D01*
X033805Y016087D02*
X038238D01*
X033805D02*
Y020520D01*
X039192Y015953D02*
Y016150D01*
X038799Y015953D02*
X039192D01*
X038799D02*
Y016150D01*
X039192D01*
X039192Y015559D02*
Y015756D01*
X038799Y015559D02*
X039192D01*
X038799D02*
Y015756D01*
X039192D01*
X029498Y012991D02*
Y023542D01*
X030856D01*
X031447Y012991D02*
Y022951D01*
X030856Y023542D02*
X031447Y022951D01*
X029498Y012991D02*
X031447D01*
Y022243D02*
Y022951D01*
X030856Y023542D02*
X031447Y022951D01*
X029498Y023542D02*
X030856D01*
X029498Y022243D02*
Y023542D01*
Y012991D02*
Y014290D01*
Y012991D02*
X031447D01*
Y014290D01*
X030551Y014388D02*
Y014467D01*
X030394Y014388D02*
Y014467D01*
X030551Y014585D02*
Y014664D01*
X030394Y014585D02*
Y014664D01*
X030551Y021869D02*
Y021947D01*
X030394Y021869D02*
Y021947D01*
X030551Y022065D02*
Y022144D01*
X030394Y022065D02*
Y022144D01*
X030591Y013710D02*
Y013804D01*
Y013710D02*
X030953Y013408D01*
X030955Y013424D02*
Y014388D01*
X030591Y013804D02*
X030955Y014054D01*
X029990Y013424D02*
Y014388D01*
X029992Y013408D02*
X030354Y013710D01*
Y013804D01*
X029990Y014054D02*
X030354Y013804D01*
Y013710D02*
X030591D01*
X030069Y013345D02*
X030354D01*
Y013542D01*
X030591D01*
Y013345D02*
Y013542D01*
Y013345D02*
X030876D01*
X029990Y022912D02*
X030266Y023187D01*
X030107Y023028D02*
X030354Y022822D01*
X030591D01*
X030838Y023028D01*
X030266Y023187D02*
X030679D01*
X030354Y013804D02*
X030591D01*
X029990Y014054D02*
X030955D01*
X030354Y022729D02*
X030591D01*
X029990Y022479D02*
X030354Y022729D01*
X029990Y022479D02*
X030955D01*
X030591Y022729D02*
X030955Y022479D01*
X030354Y022729D02*
Y022822D01*
X030591Y022729D02*
Y022822D01*
X030679Y023187D02*
X030955Y022912D01*
X029990Y014664D02*
Y014782D01*
Y014467D02*
Y014585D01*
X030955Y014467D02*
Y014585D01*
Y014664D02*
Y014782D01*
Y014861D02*
Y014979D01*
X029990Y014861D02*
Y014979D01*
X030955Y015057D02*
Y015176D01*
X029990Y015057D02*
Y015176D01*
X030955Y015254D02*
Y015372D01*
X029990Y015254D02*
Y015372D01*
X030955Y015451D02*
Y015569D01*
X029990Y015451D02*
Y015569D01*
X030955Y015648D02*
Y015766D01*
X029990Y015648D02*
Y015766D01*
X030955Y015845D02*
Y015963D01*
X029990Y015845D02*
Y015963D01*
X030955Y016042D02*
Y016160D01*
X029990Y016042D02*
Y016160D01*
X030955Y016239D02*
Y016357D01*
X029990Y016239D02*
Y016357D01*
X030955Y016435D02*
Y016554D01*
X029990Y016435D02*
Y016554D01*
X030955Y016632D02*
Y016750D01*
X029990Y016632D02*
Y016750D01*
X030955Y016829D02*
Y016947D01*
X029990Y016829D02*
Y016947D01*
X030955Y017026D02*
Y017144D01*
X029990Y017026D02*
Y017144D01*
X030955Y017223D02*
Y017341D01*
X029990Y017223D02*
Y017341D01*
X030955Y017420D02*
Y017538D01*
X029990Y017420D02*
Y017538D01*
X030955Y017617D02*
Y017735D01*
X029990Y017617D02*
Y017735D01*
X030955Y017813D02*
Y017931D01*
X029990Y017813D02*
Y017931D01*
X030955Y018010D02*
Y018128D01*
X029990Y018010D02*
Y018128D01*
X030955Y018207D02*
Y018325D01*
X029990Y018207D02*
Y018325D01*
X030955Y018404D02*
Y018522D01*
X029990Y018404D02*
Y018522D01*
X030955Y018601D02*
Y018719D01*
X029990Y018601D02*
Y018719D01*
X030955Y018798D02*
Y018916D01*
X029990Y018798D02*
Y018916D01*
X030955Y018994D02*
Y019113D01*
X029990Y018994D02*
Y019113D01*
X030955Y019191D02*
Y019309D01*
X029990Y019191D02*
Y019309D01*
X030955Y019388D02*
Y019506D01*
X029990Y019388D02*
Y019506D01*
X030955Y019585D02*
Y019703D01*
X029990Y019585D02*
Y019703D01*
X030955Y019782D02*
Y019900D01*
X029990Y019782D02*
Y019900D01*
X030955Y019979D02*
Y020097D01*
X029990Y019979D02*
Y020097D01*
X030955Y020176D02*
Y020294D01*
X029990Y020176D02*
Y020294D01*
X030955Y020372D02*
Y020491D01*
X029990Y020372D02*
Y020491D01*
X030955Y020569D02*
Y020687D01*
X029990Y020569D02*
Y020687D01*
X030955Y020766D02*
Y020884D01*
X029990Y020766D02*
Y020884D01*
X030955Y020963D02*
Y021081D01*
X029990Y020963D02*
Y021081D01*
X030955Y021160D02*
Y021278D01*
X029990Y021160D02*
Y021278D01*
X030955Y021357D02*
Y021475D01*
X029990Y021357D02*
Y021475D01*
X030955Y021554D02*
Y021672D01*
X029990Y021554D02*
Y021672D01*
X030955Y021750D02*
Y021869D01*
X029990Y021750D02*
Y021869D01*
X030955Y021947D02*
Y022065D01*
X029990Y021947D02*
Y022065D01*
X030955Y022144D02*
Y022912D01*
X029990Y022144D02*
Y022912D01*
X030856Y022065D02*
Y022144D01*
X029970Y022065D02*
X030974D01*
Y022144D01*
X029970D02*
X030974D01*
X030856Y021869D02*
Y021947D01*
X029970Y021869D02*
X030974D01*
Y021947D01*
X029970D02*
X030974D01*
X030822Y021869D02*
Y021947D01*
Y022065D02*
Y022144D01*
X030123Y022065D02*
Y022144D01*
X030089Y022065D02*
Y022144D01*
X029970Y022065D02*
Y022144D01*
X030089Y021869D02*
Y021947D01*
X029970Y021869D02*
Y021947D01*
X030123Y021869D02*
Y021947D01*
X030974Y014585D02*
Y014664D01*
X030822Y014585D02*
Y014664D01*
X030856Y014585D02*
Y014664D01*
X030974Y014388D02*
Y014467D01*
X029970D02*
X030974D01*
X030856Y014388D02*
Y014467D01*
X029970Y014388D02*
X030974D01*
X030123D02*
Y014467D01*
Y014585D02*
Y014664D01*
X029970Y014388D02*
Y014467D01*
Y014585D02*
Y014664D01*
X030089Y014388D02*
Y014467D01*
Y014585D02*
Y014664D01*
X029970D02*
X030974D01*
X029970Y014585D02*
X030974D01*
X030822Y014388D02*
Y014467D01*
X030551Y014782D02*
Y014861D01*
X030394Y014782D02*
Y014861D01*
X030822Y014782D02*
Y014861D01*
X030856Y014782D02*
Y014861D01*
X030123Y014782D02*
Y014861D01*
X030089Y014782D02*
Y014861D01*
X029970D02*
X030974D01*
X029970Y014782D02*
X030974D01*
X030551Y014979D02*
Y015057D01*
X030394Y014979D02*
Y015057D01*
X030822Y014979D02*
Y015057D01*
X030856Y014979D02*
Y015057D01*
X030123Y014979D02*
Y015057D01*
X030089Y014979D02*
Y015057D01*
X029970D02*
X030974D01*
X029970Y014979D02*
X030974D01*
X030551Y015176D02*
Y015254D01*
X030394Y015176D02*
Y015254D01*
X030822Y015176D02*
Y015254D01*
X030856Y015176D02*
Y015254D01*
X030123Y015176D02*
Y015254D01*
X030089Y015176D02*
Y015254D01*
X029970D02*
X030974D01*
X029970Y015176D02*
X030974D01*
X030551Y015372D02*
Y015451D01*
X030394Y015372D02*
Y015451D01*
X030822Y015372D02*
Y015451D01*
X030856Y015372D02*
Y015451D01*
X030123Y015372D02*
Y015451D01*
X030089Y015372D02*
Y015451D01*
X029970D02*
X030974D01*
X029970Y015372D02*
X030974D01*
X030551Y015569D02*
Y015648D01*
X030394Y015569D02*
Y015648D01*
X030822Y015569D02*
Y015648D01*
X030856Y015569D02*
Y015648D01*
X030123Y015569D02*
Y015648D01*
X030089Y015569D02*
Y015648D01*
X029970D02*
X030974D01*
X029970Y015569D02*
X030974D01*
X030551Y015766D02*
Y015845D01*
X030394Y015766D02*
Y015845D01*
X030822Y015766D02*
Y015845D01*
X030856Y015766D02*
Y015845D01*
X030123Y015766D02*
Y015845D01*
X030089Y015766D02*
Y015845D01*
X029970D02*
X030974D01*
X029970Y015766D02*
X030974D01*
X030551Y015963D02*
Y016042D01*
X030394Y015963D02*
Y016042D01*
X030822Y015963D02*
Y016042D01*
X030856Y015963D02*
Y016042D01*
X030123Y015963D02*
Y016042D01*
X030089Y015963D02*
Y016042D01*
X029970D02*
X030974D01*
X029970Y015963D02*
X030974D01*
X030551Y016160D02*
Y016239D01*
X030394Y016160D02*
Y016239D01*
X030822Y016160D02*
Y016239D01*
X030856Y016160D02*
Y016239D01*
X030123Y016160D02*
Y016239D01*
X030089Y016160D02*
Y016239D01*
X029970D02*
X030974D01*
X029970Y016160D02*
X030974D01*
X030551Y016357D02*
Y016435D01*
X030394Y016357D02*
Y016435D01*
X030822Y016357D02*
Y016435D01*
X030856Y016357D02*
Y016435D01*
X030123Y016357D02*
Y016435D01*
X030089Y016357D02*
Y016435D01*
X029970D02*
X030974D01*
X029970Y016357D02*
X030974D01*
X030551Y016554D02*
Y016632D01*
X030394Y016554D02*
Y016632D01*
X030822Y016554D02*
Y016632D01*
X030856Y016554D02*
Y016632D01*
X030123Y016554D02*
Y016632D01*
X030089Y016554D02*
Y016632D01*
X029970D02*
X030974D01*
X029970Y016554D02*
X030974D01*
X030551Y016750D02*
Y016829D01*
X030394Y016750D02*
Y016829D01*
X030822Y016750D02*
Y016829D01*
X030856Y016750D02*
Y016829D01*
X030123Y016750D02*
Y016829D01*
X030089Y016750D02*
Y016829D01*
X029970D02*
X030974D01*
X029970Y016750D02*
X030974D01*
X030551Y016947D02*
Y017026D01*
X030394Y016947D02*
Y017026D01*
X030822Y016947D02*
Y017026D01*
X030856Y016947D02*
Y017026D01*
X030123Y016947D02*
Y017026D01*
X030089Y016947D02*
Y017026D01*
X029970D02*
X030974D01*
X029970Y016947D02*
X030974D01*
X030551Y017144D02*
Y017223D01*
X030394Y017144D02*
Y017223D01*
X030822Y017144D02*
Y017223D01*
X030856Y017144D02*
Y017223D01*
X030123Y017144D02*
Y017223D01*
X030089Y017144D02*
Y017223D01*
X029970D02*
X030974D01*
X029970Y017144D02*
X030974D01*
X030551Y017341D02*
Y017420D01*
X030394Y017341D02*
Y017420D01*
X030822Y017341D02*
Y017420D01*
X030856Y017341D02*
Y017420D01*
X030123Y017341D02*
Y017420D01*
X030089Y017341D02*
Y017420D01*
X029970D02*
X030974D01*
X029970Y017341D02*
X030974D01*
X030551Y017538D02*
Y017617D01*
X030394Y017538D02*
Y017617D01*
X030822Y017538D02*
Y017617D01*
X030856Y017538D02*
Y017617D01*
X030123Y017538D02*
Y017617D01*
X030089Y017538D02*
Y017617D01*
X029970D02*
X030974D01*
X029970Y017538D02*
X030974D01*
X030551Y017735D02*
Y017813D01*
X030394Y017735D02*
Y017813D01*
X030822Y017735D02*
Y017813D01*
X030856Y017735D02*
Y017813D01*
X030123Y017735D02*
Y017813D01*
X030089Y017735D02*
Y017813D01*
X029970D02*
X030974D01*
X029970Y017735D02*
X030974D01*
X030551Y017931D02*
Y018010D01*
X030394Y017931D02*
Y018010D01*
X030822Y017931D02*
Y018010D01*
X030856Y017931D02*
Y018010D01*
X030123Y017931D02*
Y018010D01*
X030089Y017931D02*
Y018010D01*
X029970D02*
X030974D01*
X029970Y017931D02*
X030974D01*
X030551Y018128D02*
Y018207D01*
X030394Y018128D02*
Y018207D01*
X030822Y018128D02*
Y018207D01*
X030856Y018128D02*
Y018207D01*
X030123Y018128D02*
Y018207D01*
X030089Y018128D02*
Y018207D01*
X029970D02*
X030974D01*
X029970Y018128D02*
X030974D01*
X030551Y018325D02*
Y018404D01*
X030394Y018325D02*
Y018404D01*
X030822Y018325D02*
Y018404D01*
X030856Y018325D02*
Y018404D01*
X030123Y018325D02*
Y018404D01*
X030089Y018325D02*
Y018404D01*
X029970D02*
X030974D01*
X029970Y018325D02*
X030974D01*
X030551Y018522D02*
Y018601D01*
X030394Y018522D02*
Y018601D01*
X030822Y018522D02*
Y018601D01*
X030856Y018522D02*
Y018601D01*
X030123Y018522D02*
Y018601D01*
X030089Y018522D02*
Y018601D01*
X029970D02*
X030974D01*
X029970Y018522D02*
X030974D01*
X030551Y018719D02*
Y018798D01*
X030394Y018719D02*
Y018798D01*
X030822Y018719D02*
Y018798D01*
X030856Y018719D02*
Y018798D01*
X030123Y018719D02*
Y018798D01*
X030089Y018719D02*
Y018798D01*
X029970D02*
X030974D01*
X029970Y018719D02*
X030974D01*
X030551Y018916D02*
Y018994D01*
X030394Y018916D02*
Y018994D01*
X030822Y018916D02*
Y018994D01*
X030856Y018916D02*
Y018994D01*
X030123Y018916D02*
Y018994D01*
X030089Y018916D02*
Y018994D01*
X029970D02*
X030974D01*
X029970Y018916D02*
X030974D01*
X030551Y019113D02*
Y019191D01*
X030394Y019113D02*
Y019191D01*
X030822Y019113D02*
Y019191D01*
X030856Y019113D02*
Y019191D01*
X030123Y019113D02*
Y019191D01*
X030089Y019113D02*
Y019191D01*
X029970D02*
X030974D01*
X029970Y019113D02*
X030974D01*
X030551Y019309D02*
Y019388D01*
X030394Y019309D02*
Y019388D01*
X030822Y019309D02*
Y019388D01*
X030856Y019309D02*
Y019388D01*
X030123Y019309D02*
Y019388D01*
X030089Y019309D02*
Y019388D01*
X029970D02*
X030974D01*
X029970Y019309D02*
X030974D01*
X030551Y019506D02*
Y019585D01*
X030394Y019506D02*
Y019585D01*
X030822Y019506D02*
Y019585D01*
X030856Y019506D02*
Y019585D01*
X030123Y019506D02*
Y019585D01*
X030089Y019506D02*
Y019585D01*
X029970D02*
X030974D01*
X029970Y019506D02*
X030974D01*
X030551Y019703D02*
Y019782D01*
X030394Y019703D02*
Y019782D01*
X030822Y019703D02*
Y019782D01*
X030856Y019703D02*
Y019782D01*
X030123Y019703D02*
Y019782D01*
X030089Y019703D02*
Y019782D01*
X029970D02*
X030974D01*
X029970Y019703D02*
X030974D01*
X030551Y019900D02*
Y019979D01*
X030394Y019900D02*
Y019979D01*
X030822Y019900D02*
Y019979D01*
X030856Y019900D02*
Y019979D01*
X030123Y019900D02*
Y019979D01*
X030089Y019900D02*
Y019979D01*
X029970D02*
X030974D01*
X029970Y019900D02*
X030974D01*
X030551Y020097D02*
Y020176D01*
X030394Y020097D02*
Y020176D01*
X030822Y020097D02*
Y020176D01*
X030856Y020097D02*
Y020176D01*
X030123Y020097D02*
Y020176D01*
X030089Y020097D02*
Y020176D01*
X029970D02*
X030974D01*
X029970Y020097D02*
X030974D01*
X030551Y020294D02*
Y020372D01*
X030394Y020294D02*
Y020372D01*
X030822Y020294D02*
Y020372D01*
X030856Y020294D02*
Y020372D01*
X030123Y020294D02*
Y020372D01*
X030089Y020294D02*
Y020372D01*
X029970D02*
X030974D01*
X029970Y020294D02*
X030974D01*
X030551Y020491D02*
Y020569D01*
X030394Y020491D02*
Y020569D01*
X030822Y020491D02*
Y020569D01*
X030856Y020491D02*
Y020569D01*
X030123Y020491D02*
Y020569D01*
X030089Y020491D02*
Y020569D01*
X029970D02*
X030974D01*
X029970Y020491D02*
X030974D01*
X030551Y020687D02*
Y020766D01*
X030394Y020687D02*
Y020766D01*
X030822Y020687D02*
Y020766D01*
X030856Y020687D02*
Y020766D01*
X030123Y020687D02*
Y020766D01*
X030089Y020687D02*
Y020766D01*
X029970D02*
X030974D01*
X029970Y020687D02*
X030974D01*
X030551Y020884D02*
Y020963D01*
X030394Y020884D02*
Y020963D01*
X030822Y020884D02*
Y020963D01*
X030856Y020884D02*
Y020963D01*
X030123Y020884D02*
Y020963D01*
X030089Y020884D02*
Y020963D01*
X029970D02*
X030974D01*
X029970Y020884D02*
X030974D01*
X030551Y021081D02*
Y021160D01*
X030394Y021081D02*
Y021160D01*
X030822Y021081D02*
Y021160D01*
X030856Y021081D02*
Y021160D01*
X030123Y021081D02*
Y021160D01*
X030089Y021081D02*
Y021160D01*
X029970D02*
X030974D01*
X029970Y021081D02*
X030974D01*
X030551Y021278D02*
Y021357D01*
X030394Y021278D02*
Y021357D01*
X030822Y021278D02*
Y021357D01*
X030856Y021278D02*
Y021357D01*
X030123Y021278D02*
Y021357D01*
X030089Y021278D02*
Y021357D01*
X029970D02*
X030974D01*
X029970Y021278D02*
X030974D01*
X030551Y021475D02*
Y021554D01*
X030394Y021475D02*
Y021554D01*
X030822Y021475D02*
Y021554D01*
X030856Y021475D02*
Y021554D01*
X030123Y021475D02*
Y021554D01*
X030089Y021475D02*
Y021554D01*
X029970D02*
X030974D01*
X029970Y021475D02*
X030974D01*
X030551Y021672D02*
Y021750D01*
X030394Y021672D02*
Y021750D01*
X030822Y021672D02*
Y021750D01*
X030856Y021672D02*
Y021750D01*
X030123Y021672D02*
Y021750D01*
X030089Y021672D02*
Y021750D01*
X029970D02*
X030974D01*
X029970Y021672D02*
X030974D01*
Y014782D02*
Y014861D01*
X029970Y014782D02*
Y014861D01*
X030974Y014979D02*
Y015057D01*
X029970Y014979D02*
Y015057D01*
X030974Y015176D02*
Y015254D01*
X029970Y015176D02*
Y015254D01*
X030974Y015372D02*
Y015451D01*
X029970Y015372D02*
Y015451D01*
X030974Y015569D02*
Y015648D01*
X029970Y015569D02*
Y015648D01*
X030974Y015766D02*
Y015845D01*
X029970Y015766D02*
Y015845D01*
X030974Y015963D02*
Y016042D01*
X029970Y015963D02*
Y016042D01*
X030974Y016160D02*
Y016239D01*
X029970Y016160D02*
Y016239D01*
X030974Y016357D02*
Y016435D01*
X029970Y016357D02*
Y016435D01*
X030974Y016554D02*
Y016632D01*
X029970Y016554D02*
Y016632D01*
X030974Y016750D02*
Y016829D01*
X029970Y016750D02*
Y016829D01*
X030974Y016947D02*
Y017026D01*
X029970Y016947D02*
Y017026D01*
X030974Y017144D02*
Y017223D01*
X029970Y017144D02*
Y017223D01*
X030974Y017341D02*
Y017420D01*
X029970Y017341D02*
Y017420D01*
X030974Y017538D02*
Y017617D01*
X029970Y017538D02*
Y017617D01*
X030974Y017735D02*
Y017813D01*
X029970Y017735D02*
Y017813D01*
X030974Y017931D02*
Y018010D01*
X029970Y017931D02*
Y018010D01*
X030974Y018128D02*
Y018207D01*
X029970Y018128D02*
Y018207D01*
X030974Y018325D02*
Y018404D01*
X029970Y018325D02*
Y018404D01*
X030974Y018522D02*
Y018601D01*
X029970Y018522D02*
Y018601D01*
X030974Y018719D02*
Y018798D01*
X029970Y018719D02*
Y018798D01*
X030974Y018916D02*
Y018994D01*
X029970Y018916D02*
Y018994D01*
X030974Y019113D02*
Y019191D01*
X029970Y019113D02*
Y019191D01*
X030974Y019309D02*
Y019388D01*
X029970Y019309D02*
Y019388D01*
X030974Y019506D02*
Y019585D01*
X029970Y019506D02*
Y019585D01*
X030974Y019703D02*
Y019782D01*
X029970Y019703D02*
Y019782D01*
X030974Y019900D02*
Y019979D01*
X029970Y019900D02*
Y019979D01*
X030974Y020097D02*
Y020176D01*
X029970Y020097D02*
Y020176D01*
X030974Y020294D02*
Y020372D01*
X029970Y020294D02*
Y020372D01*
X030974Y020491D02*
Y020569D01*
X029970Y020491D02*
Y020569D01*
X030974Y020687D02*
Y020766D01*
X029970Y020687D02*
Y020766D01*
X030974Y020884D02*
Y020963D01*
X029970Y020884D02*
Y020963D01*
X030974Y021081D02*
Y021160D01*
X029970Y021081D02*
Y021160D01*
X030974Y021278D02*
Y021357D01*
X029970Y021278D02*
Y021357D01*
X030974Y021475D02*
Y021554D01*
X029970Y021475D02*
Y021554D01*
X030974Y021672D02*
Y021750D01*
X029970Y021672D02*
Y021750D01*
X040522Y012991D02*
Y023542D01*
X041880D01*
X042470Y012991D02*
Y022951D01*
X041880Y023542D02*
X042470Y022951D01*
X040522Y012991D02*
X042470D01*
Y022243D02*
Y022951D01*
X041880Y023542D02*
X042470Y022951D01*
X040522Y023542D02*
X041880D01*
X040522Y022243D02*
Y023542D01*
Y012991D02*
Y014290D01*
Y012991D02*
X042470D01*
Y014290D01*
X041575Y014388D02*
Y014467D01*
X041417Y014388D02*
Y014467D01*
X041575Y014585D02*
Y014664D01*
X041417Y014585D02*
Y014664D01*
X041575Y021869D02*
Y021947D01*
X041417Y021869D02*
Y021947D01*
X041575Y022065D02*
Y022144D01*
X041417Y022065D02*
Y022144D01*
X041615Y013710D02*
Y013804D01*
Y013710D02*
X041977Y013408D01*
X041978Y013424D02*
Y014388D01*
X041615Y013804D02*
X041978Y014054D01*
X041014Y013424D02*
Y014388D01*
X041015Y013408D02*
X041377Y013710D01*
Y013804D01*
X041014Y014054D02*
X041377Y013804D01*
Y013710D02*
X041615D01*
X041093Y013345D02*
X041378D01*
Y013542D01*
X041614D01*
Y013345D02*
Y013542D01*
Y013345D02*
X041900D01*
X041014Y022912D02*
X041289Y023187D01*
X041130Y023028D02*
X041377Y022822D01*
X041615D01*
X041862Y023028D01*
X041289Y023187D02*
X041703D01*
X041377Y013804D02*
X041615D01*
X041014Y014054D02*
X041978D01*
X041377Y022729D02*
X041615D01*
X041014Y022479D02*
X041377Y022729D01*
X041014Y022479D02*
X041978D01*
X041615Y022729D02*
X041978Y022479D01*
X041377Y022729D02*
Y022822D01*
X041615Y022729D02*
Y022822D01*
X041703Y023187D02*
X041978Y022912D01*
X041014Y014664D02*
Y014782D01*
Y014467D02*
Y014585D01*
X041978Y014467D02*
Y014585D01*
Y014664D02*
Y014782D01*
Y014861D02*
Y014979D01*
X041014Y014861D02*
Y014979D01*
X041978Y015057D02*
Y015176D01*
X041014Y015057D02*
Y015176D01*
X041978Y015254D02*
Y015372D01*
X041014Y015254D02*
Y015372D01*
X041978Y015451D02*
Y015569D01*
X041014Y015451D02*
Y015569D01*
X041978Y015648D02*
Y015766D01*
X041014Y015648D02*
Y015766D01*
X041978Y015845D02*
Y015963D01*
X041014Y015845D02*
Y015963D01*
X041978Y016042D02*
Y016160D01*
X041014Y016042D02*
Y016160D01*
X041978Y016239D02*
Y016357D01*
X041014Y016239D02*
Y016357D01*
X041978Y016435D02*
Y016554D01*
X041014Y016435D02*
Y016554D01*
X041978Y016632D02*
Y016750D01*
X041014Y016632D02*
Y016750D01*
X041978Y016829D02*
Y016947D01*
X041014Y016829D02*
Y016947D01*
X041978Y017026D02*
Y017144D01*
X041014Y017026D02*
Y017144D01*
X041978Y017223D02*
Y017341D01*
X041014Y017223D02*
Y017341D01*
X041978Y017420D02*
Y017538D01*
X041014Y017420D02*
Y017538D01*
X041978Y017617D02*
Y017735D01*
X041014Y017617D02*
Y017735D01*
X041978Y017813D02*
Y017931D01*
X041014Y017813D02*
Y017931D01*
X041978Y018010D02*
Y018128D01*
X041014Y018010D02*
Y018128D01*
X041978Y018207D02*
Y018325D01*
X041014Y018207D02*
Y018325D01*
X041978Y018404D02*
Y018522D01*
X041014Y018404D02*
Y018522D01*
X041978Y018601D02*
Y018719D01*
X041014Y018601D02*
Y018719D01*
X041978Y018798D02*
Y018916D01*
X041014Y018798D02*
Y018916D01*
X041978Y018994D02*
Y019113D01*
X041014Y018994D02*
Y019113D01*
X041978Y019191D02*
Y019309D01*
X041014Y019191D02*
Y019309D01*
X041978Y019388D02*
Y019506D01*
X041014Y019388D02*
Y019506D01*
X041978Y019585D02*
Y019703D01*
X041014Y019585D02*
Y019703D01*
X041978Y019782D02*
Y019900D01*
X041014Y019782D02*
Y019900D01*
X041978Y019979D02*
Y020097D01*
X041014Y019979D02*
Y020097D01*
X041978Y020176D02*
Y020294D01*
X041014Y020176D02*
Y020294D01*
X041978Y020372D02*
Y020491D01*
X041014Y020372D02*
Y020491D01*
X041978Y020569D02*
Y020687D01*
X041014Y020569D02*
Y020687D01*
X041978Y020766D02*
Y020884D01*
X041014Y020766D02*
Y020884D01*
X041978Y020963D02*
Y021081D01*
X041014Y020963D02*
Y021081D01*
X041978Y021160D02*
Y021278D01*
X041014Y021160D02*
Y021278D01*
X041978Y021357D02*
Y021475D01*
X041014Y021357D02*
Y021475D01*
X041978Y021554D02*
Y021672D01*
X041014Y021554D02*
Y021672D01*
X041978Y021750D02*
Y021869D01*
X041014Y021750D02*
Y021869D01*
X041978Y021947D02*
Y022065D01*
X041014Y021947D02*
Y022065D01*
X041978Y022144D02*
Y022912D01*
X041014Y022144D02*
Y022912D01*
X041880Y022065D02*
Y022144D01*
X040994Y022065D02*
X041998D01*
Y022144D01*
X040994D02*
X041998D01*
X041880Y021869D02*
Y021947D01*
X040994Y021869D02*
X041998D01*
Y021947D01*
X040994D02*
X041998D01*
X041846Y021869D02*
Y021947D01*
Y022065D02*
Y022144D01*
X041146Y022065D02*
Y022144D01*
X041112Y022065D02*
Y022144D01*
X040994Y022065D02*
Y022144D01*
X041112Y021869D02*
Y021947D01*
X040994Y021869D02*
Y021947D01*
X041146Y021869D02*
Y021947D01*
X041998Y014585D02*
Y014664D01*
X041846Y014585D02*
Y014664D01*
X041880Y014585D02*
Y014664D01*
X041998Y014388D02*
Y014467D01*
X040994D02*
X041998D01*
X041880Y014388D02*
Y014467D01*
X040994Y014388D02*
X041998D01*
X041146D02*
Y014467D01*
Y014585D02*
Y014664D01*
X040994Y014388D02*
Y014467D01*
Y014585D02*
Y014664D01*
X041112Y014388D02*
Y014467D01*
Y014585D02*
Y014664D01*
X040994D02*
X041998D01*
X040994Y014585D02*
X041998D01*
X041846Y014388D02*
Y014467D01*
X041575Y014782D02*
Y014861D01*
X041417Y014782D02*
Y014861D01*
X041846Y014782D02*
Y014861D01*
X041880Y014782D02*
Y014861D01*
X041146Y014782D02*
Y014861D01*
X041112Y014782D02*
Y014861D01*
X040994D02*
X041998D01*
X040994Y014782D02*
X041998D01*
X041575Y014979D02*
Y015057D01*
X041417Y014979D02*
Y015057D01*
X041846Y014979D02*
Y015057D01*
X041880Y014979D02*
Y015057D01*
X041146Y014979D02*
Y015057D01*
X041112Y014979D02*
Y015057D01*
X040994D02*
X041998D01*
X040994Y014979D02*
X041998D01*
X041575Y015176D02*
Y015254D01*
X041417Y015176D02*
Y015254D01*
X041846Y015176D02*
Y015254D01*
X041880Y015176D02*
Y015254D01*
X041146Y015176D02*
Y015254D01*
X041112Y015176D02*
Y015254D01*
X040994D02*
X041998D01*
X040994Y015176D02*
X041998D01*
X041575Y015372D02*
Y015451D01*
X041417Y015372D02*
Y015451D01*
X041846Y015372D02*
Y015451D01*
X041880Y015372D02*
Y015451D01*
X041146Y015372D02*
Y015451D01*
X041112Y015372D02*
Y015451D01*
X040994D02*
X041998D01*
X040994Y015372D02*
X041998D01*
X041575Y015569D02*
Y015648D01*
X041417Y015569D02*
Y015648D01*
X041846Y015569D02*
Y015648D01*
X041880Y015569D02*
Y015648D01*
X041146Y015569D02*
Y015648D01*
X041112Y015569D02*
Y015648D01*
X040994D02*
X041998D01*
X040994Y015569D02*
X041998D01*
X041575Y015766D02*
Y015845D01*
X041417Y015766D02*
Y015845D01*
X041846Y015766D02*
Y015845D01*
X041880Y015766D02*
Y015845D01*
X041146Y015766D02*
Y015845D01*
X041112Y015766D02*
Y015845D01*
X040994D02*
X041998D01*
X040994Y015766D02*
X041998D01*
X041575Y015963D02*
Y016042D01*
X041417Y015963D02*
Y016042D01*
X041846Y015963D02*
Y016042D01*
X041880Y015963D02*
Y016042D01*
X041146Y015963D02*
Y016042D01*
X041112Y015963D02*
Y016042D01*
X040994D02*
X041998D01*
X040994Y015963D02*
X041998D01*
X041575Y016160D02*
Y016239D01*
X041417Y016160D02*
Y016239D01*
X041846Y016160D02*
Y016239D01*
X041880Y016160D02*
Y016239D01*
X041146Y016160D02*
Y016239D01*
X041112Y016160D02*
Y016239D01*
X040994D02*
X041998D01*
X040994Y016160D02*
X041998D01*
X041575Y016357D02*
Y016435D01*
X041417Y016357D02*
Y016435D01*
X041846Y016357D02*
Y016435D01*
X041880Y016357D02*
Y016435D01*
X041146Y016357D02*
Y016435D01*
X041112Y016357D02*
Y016435D01*
X040994D02*
X041998D01*
X040994Y016357D02*
X041998D01*
X041575Y016554D02*
Y016632D01*
X041417Y016554D02*
Y016632D01*
X041846Y016554D02*
Y016632D01*
X041880Y016554D02*
Y016632D01*
X041146Y016554D02*
Y016632D01*
X041112Y016554D02*
Y016632D01*
X040994D02*
X041998D01*
X040994Y016554D02*
X041998D01*
X041575Y016750D02*
Y016829D01*
X041417Y016750D02*
Y016829D01*
X041846Y016750D02*
Y016829D01*
X041880Y016750D02*
Y016829D01*
X041146Y016750D02*
Y016829D01*
X041112Y016750D02*
Y016829D01*
X040994D02*
X041998D01*
X040994Y016750D02*
X041998D01*
X041575Y016947D02*
Y017026D01*
X041417Y016947D02*
Y017026D01*
X041846Y016947D02*
Y017026D01*
X041880Y016947D02*
Y017026D01*
X041146Y016947D02*
Y017026D01*
X041112Y016947D02*
Y017026D01*
X040994D02*
X041998D01*
X040994Y016947D02*
X041998D01*
X041575Y017144D02*
Y017223D01*
X041417Y017144D02*
Y017223D01*
X041846Y017144D02*
Y017223D01*
X041880Y017144D02*
Y017223D01*
X041146Y017144D02*
Y017223D01*
X041112Y017144D02*
Y017223D01*
X040994D02*
X041998D01*
X040994Y017144D02*
X041998D01*
X041575Y017341D02*
Y017420D01*
X041417Y017341D02*
Y017420D01*
X041846Y017341D02*
Y017420D01*
X041880Y017341D02*
Y017420D01*
X041146Y017341D02*
Y017420D01*
X041112Y017341D02*
Y017420D01*
X040994D02*
X041998D01*
X040994Y017341D02*
X041998D01*
X041575Y017538D02*
Y017617D01*
X041417Y017538D02*
Y017617D01*
X041846Y017538D02*
Y017617D01*
X041880Y017538D02*
Y017617D01*
X041146Y017538D02*
Y017617D01*
X041112Y017538D02*
Y017617D01*
X040994D02*
X041998D01*
X040994Y017538D02*
X041998D01*
X041575Y017735D02*
Y017813D01*
X041417Y017735D02*
Y017813D01*
X041846Y017735D02*
Y017813D01*
X041880Y017735D02*
Y017813D01*
X041146Y017735D02*
Y017813D01*
X041112Y017735D02*
Y017813D01*
X040994D02*
X041998D01*
X040994Y017735D02*
X041998D01*
X041575Y017931D02*
Y018010D01*
X041417Y017931D02*
Y018010D01*
X041846Y017931D02*
Y018010D01*
X041880Y017931D02*
Y018010D01*
X041146Y017931D02*
Y018010D01*
X041112Y017931D02*
Y018010D01*
X040994D02*
X041998D01*
X040994Y017931D02*
X041998D01*
X041575Y018128D02*
Y018207D01*
X041417Y018128D02*
Y018207D01*
X041846Y018128D02*
Y018207D01*
X041880Y018128D02*
Y018207D01*
X041146Y018128D02*
Y018207D01*
X041112Y018128D02*
Y018207D01*
X040994D02*
X041998D01*
X040994Y018128D02*
X041998D01*
X041575Y018325D02*
Y018404D01*
X041417Y018325D02*
Y018404D01*
X041846Y018325D02*
Y018404D01*
X041880Y018325D02*
Y018404D01*
X041146Y018325D02*
Y018404D01*
X041112Y018325D02*
Y018404D01*
X040994D02*
X041998D01*
X040994Y018325D02*
X041998D01*
X041575Y018522D02*
Y018601D01*
X041417Y018522D02*
Y018601D01*
X041846Y018522D02*
Y018601D01*
X041880Y018522D02*
Y018601D01*
X041146Y018522D02*
Y018601D01*
X041112Y018522D02*
Y018601D01*
X040994D02*
X041998D01*
X040994Y018522D02*
X041998D01*
X041575Y018719D02*
Y018798D01*
X041417Y018719D02*
Y018798D01*
X041846Y018719D02*
Y018798D01*
X041880Y018719D02*
Y018798D01*
X041146Y018719D02*
Y018798D01*
X041112Y018719D02*
Y018798D01*
X040994D02*
X041998D01*
X040994Y018719D02*
X041998D01*
X041575Y018916D02*
Y018994D01*
X041417Y018916D02*
Y018994D01*
X041846Y018916D02*
Y018994D01*
X041880Y018916D02*
Y018994D01*
X041146Y018916D02*
Y018994D01*
X041112Y018916D02*
Y018994D01*
X040994D02*
X041998D01*
X040994Y018916D02*
X041998D01*
X041575Y019113D02*
Y019191D01*
X041417Y019113D02*
Y019191D01*
X041846Y019113D02*
Y019191D01*
X041880Y019113D02*
Y019191D01*
X041146Y019113D02*
Y019191D01*
X041112Y019113D02*
Y019191D01*
X040994D02*
X041998D01*
X040994Y019113D02*
X041998D01*
X041575Y019309D02*
Y019388D01*
X041417Y019309D02*
Y019388D01*
X041846Y019309D02*
Y019388D01*
X041880Y019309D02*
Y019388D01*
X041146Y019309D02*
Y019388D01*
X041112Y019309D02*
Y019388D01*
X040994D02*
X041998D01*
X040994Y019309D02*
X041998D01*
X041575Y019506D02*
Y019585D01*
X041417Y019506D02*
Y019585D01*
X041846Y019506D02*
Y019585D01*
X041880Y019506D02*
Y019585D01*
X041146Y019506D02*
Y019585D01*
X041112Y019506D02*
Y019585D01*
X040994D02*
X041998D01*
X040994Y019506D02*
X041998D01*
X041575Y019703D02*
Y019782D01*
X041417Y019703D02*
Y019782D01*
X041846Y019703D02*
Y019782D01*
X041880Y019703D02*
Y019782D01*
X041146Y019703D02*
Y019782D01*
X041112Y019703D02*
Y019782D01*
X040994D02*
X041998D01*
X040994Y019703D02*
X041998D01*
X041575Y019900D02*
Y019979D01*
X041417Y019900D02*
Y019979D01*
X041846Y019900D02*
Y019979D01*
X041880Y019900D02*
Y019979D01*
X041146Y019900D02*
Y019979D01*
X041112Y019900D02*
Y019979D01*
X040994D02*
X041998D01*
X040994Y019900D02*
X041998D01*
X041575Y020097D02*
Y020176D01*
X041417Y020097D02*
Y020176D01*
X041846Y020097D02*
Y020176D01*
X041880Y020097D02*
Y020176D01*
X041146Y020097D02*
Y020176D01*
X041112Y020097D02*
Y020176D01*
X040994D02*
X041998D01*
X040994Y020097D02*
X041998D01*
X041575Y020294D02*
Y020372D01*
X041417Y020294D02*
Y020372D01*
X041846Y020294D02*
Y020372D01*
X041880Y020294D02*
Y020372D01*
X041146Y020294D02*
Y020372D01*
X041112Y020294D02*
Y020372D01*
X040994D02*
X041998D01*
X040994Y020294D02*
X041998D01*
X041575Y020491D02*
Y020569D01*
X041417Y020491D02*
Y020569D01*
X041846Y020491D02*
Y020569D01*
X041880Y020491D02*
Y020569D01*
X041146Y020491D02*
Y020569D01*
X041112Y020491D02*
Y020569D01*
X040994D02*
X041998D01*
X040994Y020491D02*
X041998D01*
X041575Y020687D02*
Y020766D01*
X041417Y020687D02*
Y020766D01*
X041846Y020687D02*
Y020766D01*
X041880Y020687D02*
Y020766D01*
X041146Y020687D02*
Y020766D01*
X041112Y020687D02*
Y020766D01*
X040994D02*
X041998D01*
X040994Y020687D02*
X041998D01*
X041575Y020884D02*
Y020963D01*
X041417Y020884D02*
Y020963D01*
X041846Y020884D02*
Y020963D01*
X041880Y020884D02*
Y020963D01*
X041146Y020884D02*
Y020963D01*
X041112Y020884D02*
Y020963D01*
X040994D02*
X041998D01*
X040994Y020884D02*
X041998D01*
X041575Y021081D02*
Y021160D01*
X041417Y021081D02*
Y021160D01*
X041846Y021081D02*
Y021160D01*
X041880Y021081D02*
Y021160D01*
X041146Y021081D02*
Y021160D01*
X041112Y021081D02*
Y021160D01*
X040994D02*
X041998D01*
X040994Y021081D02*
X041998D01*
X041575Y021278D02*
Y021357D01*
X041417Y021278D02*
Y021357D01*
X041846Y021278D02*
Y021357D01*
X041880Y021278D02*
Y021357D01*
X041146Y021278D02*
Y021357D01*
X041112Y021278D02*
Y021357D01*
X040994D02*
X041998D01*
X040994Y021278D02*
X041998D01*
X041575Y021475D02*
Y021554D01*
X041417Y021475D02*
Y021554D01*
X041846Y021475D02*
Y021554D01*
X041880Y021475D02*
Y021554D01*
X041146Y021475D02*
Y021554D01*
X041112Y021475D02*
Y021554D01*
X040994D02*
X041998D01*
X040994Y021475D02*
X041998D01*
X041575Y021672D02*
Y021750D01*
X041417Y021672D02*
Y021750D01*
X041846Y021672D02*
Y021750D01*
X041880Y021672D02*
Y021750D01*
X041146Y021672D02*
Y021750D01*
X041112Y021672D02*
Y021750D01*
X040994D02*
X041998D01*
X040994Y021672D02*
X041998D01*
Y014782D02*
Y014861D01*
X040994Y014782D02*
Y014861D01*
X041998Y014979D02*
Y015057D01*
X040994Y014979D02*
Y015057D01*
X041998Y015176D02*
Y015254D01*
X040994Y015176D02*
Y015254D01*
X041998Y015372D02*
Y015451D01*
X040994Y015372D02*
Y015451D01*
X041998Y015569D02*
Y015648D01*
X040994Y015569D02*
Y015648D01*
X041998Y015766D02*
Y015845D01*
X040994Y015766D02*
Y015845D01*
X041998Y015963D02*
Y016042D01*
X040994Y015963D02*
Y016042D01*
X041998Y016160D02*
Y016239D01*
X040994Y016160D02*
Y016239D01*
X041998Y016357D02*
Y016435D01*
X040994Y016357D02*
Y016435D01*
X041998Y016554D02*
Y016632D01*
X040994Y016554D02*
Y016632D01*
X041998Y016750D02*
Y016829D01*
X040994Y016750D02*
Y016829D01*
X041998Y016947D02*
Y017026D01*
X040994Y016947D02*
Y017026D01*
X041998Y017144D02*
Y017223D01*
X040994Y017144D02*
Y017223D01*
X041998Y017341D02*
Y017420D01*
X040994Y017341D02*
Y017420D01*
X041998Y017538D02*
Y017617D01*
X040994Y017538D02*
Y017617D01*
X041998Y017735D02*
Y017813D01*
X040994Y017735D02*
Y017813D01*
X041998Y017931D02*
Y018010D01*
X040994Y017931D02*
Y018010D01*
X041998Y018128D02*
Y018207D01*
X040994Y018128D02*
Y018207D01*
X041998Y018325D02*
Y018404D01*
X040994Y018325D02*
Y018404D01*
X041998Y018522D02*
Y018601D01*
X040994Y018522D02*
Y018601D01*
X041998Y018719D02*
Y018798D01*
X040994Y018719D02*
Y018798D01*
X041998Y018916D02*
Y018994D01*
X040994Y018916D02*
Y018994D01*
X041998Y019113D02*
Y019191D01*
X040994Y019113D02*
Y019191D01*
X041998Y019309D02*
Y019388D01*
X040994Y019309D02*
Y019388D01*
X041998Y019506D02*
Y019585D01*
X040994Y019506D02*
Y019585D01*
X041998Y019703D02*
Y019782D01*
X040994Y019703D02*
Y019782D01*
X041998Y019900D02*
Y019979D01*
X040994Y019900D02*
Y019979D01*
X041998Y020097D02*
Y020176D01*
X040994Y020097D02*
Y020176D01*
X041998Y020294D02*
Y020372D01*
X040994Y020294D02*
Y020372D01*
X041998Y020491D02*
Y020569D01*
X040994Y020491D02*
Y020569D01*
X041998Y020687D02*
Y020766D01*
X040994Y020687D02*
Y020766D01*
X041998Y020884D02*
Y020963D01*
X040994Y020884D02*
Y020963D01*
X041998Y021081D02*
Y021160D01*
X040994Y021081D02*
Y021160D01*
X041998Y021278D02*
Y021357D01*
X040994Y021278D02*
Y021357D01*
X041998Y021475D02*
Y021554D01*
X040994Y021475D02*
Y021554D01*
X041998Y021672D02*
Y021750D01*
X040994Y021672D02*
Y021750D01*
X031182Y011494D02*
Y012124D01*
X031153Y011494D02*
X031153Y012124D01*
X031123Y011494D02*
Y012124D01*
X031093D02*
X031093Y011494D01*
X031064D02*
Y012124D01*
X031034Y011494D02*
Y012124D01*
X031005Y011494D02*
Y012124D01*
X029744Y012124D02*
X031201D01*
X029744Y011494D02*
X031201D01*
X029744D02*
Y012124D01*
X031201D02*
X031201Y011494D01*
X029577Y011248D02*
X029577Y009989D01*
X031250D01*
X031250Y011248D01*
X029577D02*
X031250D01*
X031014Y010786D02*
X031132Y010786D01*
X031014Y010786D02*
Y011091D01*
X031132Y011209D01*
X029695D02*
X031132D01*
X029695D02*
X029813Y011091D01*
X031014D01*
X029813Y010786D02*
Y011091D01*
X029695Y010786D02*
X029813Y010786D01*
X029695Y010146D02*
Y011209D01*
X029577Y010146D02*
X031250D01*
X031132D02*
Y011209D01*
X031014Y010451D02*
X031132D01*
X031014Y010028D02*
Y010451D01*
X029813Y010028D02*
Y010451D01*
X029695D02*
X029813D01*
X029892Y009989D02*
Y010146D01*
X030935Y009989D02*
Y010146D01*
X029813Y010028D02*
X031014D01*
X030104Y010943D02*
X030230D01*
Y010668D02*
Y010943D01*
X030104Y010668D02*
X030230D01*
X030104D02*
Y010943D01*
X030157Y010894D01*
X030177Y010894D01*
X030230Y010943D01*
X030177Y010717D02*
Y010894D01*
Y010717D02*
X030230Y010668D01*
X030157Y010717D02*
X030177Y010717D01*
X030104Y010668D02*
X030157Y010717D01*
Y010894D01*
X030596Y010943D02*
X030722D01*
Y010668D02*
Y010943D01*
X030596Y010668D02*
X030722D01*
X030596D02*
Y010943D01*
X030650Y010894D01*
X030669Y010894D01*
X030722Y010943D01*
X030669Y010717D02*
Y010894D01*
Y010717D02*
X030722Y010668D01*
X030650Y010717D02*
X030669Y010717D01*
X030596Y010668D02*
X030650Y010717D01*
Y010894D01*
X038455Y010658D02*
X038612Y010993D01*
X038297D02*
X038455Y010658D01*
X038297Y010993D02*
X038612D01*
Y010510D02*
Y011140D01*
X038297Y010510D02*
X038612D01*
X038297D02*
Y011140D01*
X038612D01*
X038986Y010658D02*
X039144Y010993D01*
X038829D02*
X038986Y010658D01*
X038829Y010993D02*
X039144D01*
Y010510D02*
Y011140D01*
X038829Y010510D02*
X039144D01*
X038829D02*
Y011140D01*
X039144D01*
X039508Y010658D02*
X039665Y010993D01*
X039350D02*
X039508Y010658D01*
X039350Y010993D02*
X039665D01*
Y010510D02*
Y011140D01*
X039350Y010510D02*
X039665D01*
X039350D02*
Y011140D01*
X039665D01*
X038356Y011632D02*
X038553D01*
X038356D02*
Y012026D01*
X038553D01*
Y011632D02*
Y012026D01*
X038887Y011632D02*
X039084D01*
X038887D02*
Y012026D01*
X039084D01*
Y011632D02*
Y012026D01*
X039400Y011632D02*
X039596D01*
X039400D02*
Y012026D01*
X039596D01*
Y011632D02*
Y012026D01*
X039892Y011232D02*
X041033D01*
Y010720D02*
Y011232D01*
X039892Y010720D02*
X041033D01*
X039892D02*
Y011232D01*
X040640Y011232D02*
X041033Y010839D01*
X040679Y011232D02*
X041033Y010878D01*
X040718Y011232D02*
X041033Y010917D01*
X040758Y011232D02*
X041033Y010957D01*
X040797Y011232D02*
X041033Y010996D01*
X040837Y011232D02*
X041033Y011035D01*
X040876Y011232D02*
X041033Y011075D01*
X040915Y011232D02*
X041033Y011114D01*
X040955Y011232D02*
X041033Y011153D01*
X040994Y011232D02*
X041033Y011193D01*
X041289Y011232D02*
X042431D01*
Y010720D02*
Y011232D01*
X041289Y010720D02*
X042431D01*
X041289D02*
Y011232D01*
X042037Y011232D02*
X042431Y010839D01*
X042077Y011232D02*
X042431Y010878D01*
X042116Y011232D02*
X042431Y010917D01*
X042155Y011232D02*
X042431Y010957D01*
X042195Y011232D02*
X042431Y010996D01*
X042234Y011232D02*
X042431Y011035D01*
X042274Y011232D02*
X042431Y011075D01*
X042313Y011232D02*
X042431Y011114D01*
X042352Y011232D02*
X042431Y011153D01*
X042392Y011232D02*
X042431Y011193D01*
D178*
X012362Y014311D02*
G03*
X012362Y014311I-000138J000000D01*
G01*
X012028D02*
X012421D01*
X012224Y014114D02*
Y014508D01*
M02*
