G04 Layer_Color=16711935*
%FSAX44Y44*%
%MOMM*%
G71*
G01*
G75*
%ADD68C,0.2500*%
%ADD76C,0.2540*%
%ADD201C,0.3810*%
%ADD202C,0.0254*%
%ADD203C,0.1524*%
D68*
X00914000Y00248960D02*
Y00673960D01*
D76*
X00254000Y00657165D02*
Y00837001D01*
X01124000Y00656540D02*
Y00837001D01*
X00254000Y00834461D02*
X00646593D01*
X00723279D02*
X01124000D01*
X00254000D02*
X00269240Y00829381D01*
X00254000Y00834461D02*
X00269240Y00839541D01*
X01108760D02*
X01124000Y00834461D01*
X01108760Y00829381D02*
X01124000Y00834461D01*
X01104000Y00176710D02*
Y00274000D01*
X00724000Y00176710D02*
Y00274000D01*
X00948279Y00179250D02*
X01104000D01*
X00724000D02*
X00871593D01*
X01088760Y00184330D02*
X01104000Y00179250D01*
X01088760Y00174170D02*
X01104000Y00179250D01*
X00724000D02*
X00739240Y00174170D01*
X00724000Y00179250D02*
X00739240Y00184330D01*
X00704750Y00139960D02*
Y00254000D01*
X01124750Y00139960D02*
Y00273500D01*
X00704750Y00142500D02*
X00872343D01*
X00949029D02*
X01124750D01*
X00704750D02*
X00719990Y00137420D01*
X00704750Y00142500D02*
X00719990Y00147580D01*
X01109510D02*
X01124750Y00142500D01*
X01109510Y00137420D02*
X01124750Y00142500D01*
X00654000Y00176710D02*
Y00253960D01*
X00274000Y00176710D02*
Y00253960D01*
X00498279Y00179250D02*
X00654000D01*
X00274000D02*
X00421593D01*
X00638760Y00184330D02*
X00654000Y00179250D01*
X00638760Y00174170D02*
X00654000Y00179250D01*
X00274000D02*
X00289240Y00174170D01*
X00274000Y00179250D02*
X00289240Y00184330D01*
X00189710Y00654000D02*
X00253960D01*
X00189710Y00274000D02*
X00253960D01*
X00192250Y00498279D02*
Y00654000D01*
Y00274000D02*
Y00421593D01*
X00187170Y00638760D02*
X00192250Y00654000D01*
X00197330Y00638760D01*
X00192250Y00274000D02*
X00197330Y00289240D01*
X00187170D02*
X00192250Y00274000D01*
X00140710Y00254000D02*
X00254750D01*
X00140710Y00674000D02*
X00270835D01*
X00143250Y00254000D02*
Y00421593D01*
Y00498279D02*
Y00674000D01*
Y00254000D02*
X00148330Y00269240D01*
X00138170D02*
X00143250Y00254000D01*
X00138170Y00658760D02*
X00143250Y00674000D01*
X00148330Y00658760D01*
X00254000Y00139960D02*
Y00254000D01*
X00674000Y00139960D02*
Y00270846D01*
X00254000Y00142500D02*
X00421593D01*
X00498279D02*
X00674000D01*
X00254000D02*
X00269240Y00137420D01*
X00254000Y00142500D02*
X00269240Y00147580D01*
X00658760D02*
X00674000Y00142500D01*
X00658760Y00137420D02*
X00674000Y00142500D01*
X00706250Y00463955D02*
X01123250D01*
X02007977Y01590515D02*
Y01575280D01*
X02018134D01*
X02025751Y01585437D02*
X02030830D01*
X02033369Y01582897D01*
Y01575280D01*
X02025751D01*
X02023212Y01577819D01*
X02025751Y01580358D01*
X02033369D01*
X02038447Y01585437D02*
Y01577819D01*
X02040986Y01575280D01*
X02048604D01*
Y01572741D01*
X02046065Y01570202D01*
X02043526D01*
X02048604Y01575280D02*
Y01585437D01*
X02061300Y01575280D02*
X02056221D01*
X02053682Y01577819D01*
Y01582897D01*
X02056221Y01585437D01*
X02061300D01*
X02063839Y01582897D01*
Y01580358D01*
X02053682D01*
X02068917Y01585437D02*
Y01575280D01*
Y01580358D01*
X02071456Y01582897D01*
X02073996Y01585437D01*
X02076535D01*
X02007977Y00996160D02*
X02013055D01*
X02010516D01*
Y01011395D01*
X02007977Y01008856D01*
X02020673Y00998699D02*
X02023212Y00996160D01*
X02028291D01*
X02030830Y00998699D01*
Y01008856D01*
X02028291Y01011395D01*
X02023212D01*
X02020673Y01008856D01*
Y01006317D01*
X02023212Y01003777D01*
X02030830D01*
X02007977Y01026640D02*
X02013055D01*
X02010516D01*
Y01041875D01*
X02007977Y01039336D01*
X02020673D02*
X02023212Y01041875D01*
X02028291D01*
X02030830Y01039336D01*
Y01036797D01*
X02028291Y01034258D01*
X02030830Y01031718D01*
Y01029179D01*
X02028291Y01026640D01*
X02023212D01*
X02020673Y01029179D01*
Y01031718D01*
X02023212Y01034258D01*
X02020673Y01036797D01*
Y01039336D01*
X02023212Y01034258D02*
X02028291D01*
X02007977Y01057120D02*
X02013055D01*
X02010516D01*
Y01072355D01*
X02007977Y01069816D01*
X02020673Y01072355D02*
X02030830D01*
Y01069816D01*
X02020673Y01059659D01*
Y01057120D01*
X02007977Y01087600D02*
X02013055D01*
X02010516D01*
Y01102835D01*
X02007977Y01100296D01*
X02030830Y01102835D02*
X02025751Y01100296D01*
X02020673Y01095218D01*
Y01090139D01*
X02023212Y01087600D01*
X02028291D01*
X02030830Y01090139D01*
Y01092678D01*
X02028291Y01095218D01*
X02020673D01*
X02007977Y01118080D02*
X02013055D01*
X02010516D01*
Y01133315D01*
X02007977Y01130776D01*
X02030830Y01133315D02*
X02020673D01*
Y01125697D01*
X02025751Y01128237D01*
X02028291D01*
X02030830Y01125697D01*
Y01120619D01*
X02028291Y01118080D01*
X02023212D01*
X02020673Y01120619D01*
X02007977Y01148560D02*
X02013055D01*
X02010516D01*
Y01163795D01*
X02007977Y01161256D01*
X02028291Y01148560D02*
Y01163795D01*
X02020673Y01156178D01*
X02030830D01*
X02007977Y01179040D02*
X02013055D01*
X02010516D01*
Y01194275D01*
X02007977Y01191736D01*
X02020673D02*
X02023212Y01194275D01*
X02028291D01*
X02030830Y01191736D01*
Y01189197D01*
X02028291Y01186657D01*
X02025751D01*
X02028291D01*
X02030830Y01184118D01*
Y01181579D01*
X02028291Y01179040D01*
X02023212D01*
X02020673Y01181579D01*
X02007977Y01209520D02*
X02013055D01*
X02010516D01*
Y01224755D01*
X02007977Y01222216D01*
X02030830Y01209520D02*
X02020673D01*
X02030830Y01219677D01*
Y01222216D01*
X02028291Y01224755D01*
X02023212D01*
X02020673Y01222216D01*
X02007977Y01240000D02*
X02013055D01*
X02010516D01*
Y01255235D01*
X02007977Y01252696D01*
X02020673Y01240000D02*
X02025751D01*
X02023212D01*
Y01255235D01*
X02020673Y01252696D01*
X02007977Y01270480D02*
X02013055D01*
X02010516D01*
Y01285715D01*
X02007977Y01283176D01*
X02020673D02*
X02023212Y01285715D01*
X02028291D01*
X02030830Y01283176D01*
Y01273019D01*
X02028291Y01270480D01*
X02023212D01*
X02020673Y01273019D01*
Y01283176D01*
X02007977Y01303499D02*
X02010516Y01300960D01*
X02015595D01*
X02018134Y01303499D01*
Y01313656D01*
X02015595Y01316195D01*
X02010516D01*
X02007977Y01313656D01*
Y01311117D01*
X02010516Y01308578D01*
X02018134D01*
X02007977Y01344136D02*
X02010516Y01346675D01*
X02015595D01*
X02018134Y01344136D01*
Y01341597D01*
X02015595Y01339057D01*
X02018134Y01336518D01*
Y01333979D01*
X02015595Y01331440D01*
X02010516D01*
X02007977Y01333979D01*
Y01336518D01*
X02010516Y01339057D01*
X02007977Y01341597D01*
Y01344136D01*
X02010516Y01339057D02*
X02015595D01*
X02007977Y01377155D02*
X02018134D01*
Y01374616D01*
X02007977Y01364459D01*
Y01361920D01*
X02018134Y01407635D02*
X02013055Y01405096D01*
X02007977Y01400018D01*
Y01394939D01*
X02010516Y01392400D01*
X02015595D01*
X02018134Y01394939D01*
Y01397478D01*
X02015595Y01400018D01*
X02007977D01*
X02018134Y01438115D02*
X02007977D01*
Y01430497D01*
X02013055Y01433037D01*
X02015595D01*
X02018134Y01430497D01*
Y01425419D01*
X02015595Y01422880D01*
X02010516D01*
X02007977Y01425419D01*
X02015595Y01453360D02*
Y01468595D01*
X02007977Y01460977D01*
X02018134D01*
X02007977Y01496536D02*
X02010516Y01499075D01*
X02015595D01*
X02018134Y01496536D01*
Y01493997D01*
X02015595Y01491458D01*
X02013055D01*
X02015595D01*
X02018134Y01488918D01*
Y01486379D01*
X02015595Y01483840D01*
X02010516D01*
X02007977Y01486379D01*
X02018134Y01514320D02*
X02007977D01*
X02018134Y01524477D01*
Y01527016D01*
X02015595Y01529555D01*
X02010516D01*
X02007977Y01527016D01*
Y01544800D02*
X02013055D01*
X02010516D01*
Y01560035D01*
X02007977Y01557496D01*
X02112095Y01575280D02*
Y01590515D01*
X02122252Y01575280D01*
Y01590515D01*
X02129869Y01585437D02*
X02134948D01*
X02137487Y01582897D01*
Y01575280D01*
X02129869D01*
X02127330Y01577819D01*
X02129869Y01580358D01*
X02137487D01*
X02142565Y01575280D02*
Y01585437D01*
X02145104D01*
X02147643Y01582897D01*
Y01575280D01*
Y01582897D01*
X02150183Y01585437D01*
X02152722Y01582897D01*
Y01575280D01*
X02165418D02*
X02160339D01*
X02157800Y01577819D01*
Y01582897D01*
X02160339Y01585437D01*
X02165418D01*
X02167957Y01582897D01*
Y01580358D01*
X02157800D01*
X02112095Y01011395D02*
Y00996160D01*
X02119712D01*
X02122252Y00998699D01*
Y01001238D01*
X02119712Y01003777D01*
X02112095D01*
X02119712D01*
X02122252Y01006317D01*
Y01008856D01*
X02119712Y01011395D01*
X02112095D01*
X02129869Y00996160D02*
X02134948D01*
X02137487Y00998699D01*
Y01003777D01*
X02134948Y01006317D01*
X02129869D01*
X02127330Y01003777D01*
Y00998699D01*
X02129869Y00996160D01*
X02145104Y01008856D02*
Y01006317D01*
X02142565D01*
X02147643D01*
X02145104D01*
Y00998699D01*
X02147643Y00996160D01*
X02157800Y01008856D02*
Y01006317D01*
X02155261D01*
X02160339D01*
X02157800D01*
Y00998699D01*
X02160339Y00996160D01*
X02170496D02*
X02175574D01*
X02178114Y00998699D01*
Y01003777D01*
X02175574Y01006317D01*
X02170496D01*
X02167957Y01003777D01*
Y00998699D01*
X02170496Y00996160D01*
X02183192D02*
Y01006317D01*
X02185731D01*
X02188270Y01003777D01*
Y00996160D01*
Y01003777D01*
X02190809Y01006317D01*
X02193349Y01003777D01*
Y00996160D01*
X02221280Y01011395D02*
X02216201D01*
X02213662Y01008856D01*
Y00998699D01*
X02216201Y00996160D01*
X02221280D01*
X02223819Y00998699D01*
Y01008856D01*
X02221280Y01011395D01*
X02228897Y01006317D02*
X02233975Y00996160D01*
X02239054Y01006317D01*
X02251750Y00996160D02*
X02246671D01*
X02244132Y00998699D01*
Y01003777D01*
X02246671Y01006317D01*
X02251750D01*
X02254289Y01003777D01*
Y01001238D01*
X02244132D01*
X02259367Y01006317D02*
Y00996160D01*
Y01001238D01*
X02261906Y01003777D01*
X02264446Y01006317D01*
X02266985D01*
X02274602Y00996160D02*
X02279681D01*
X02277142D01*
Y01011395D01*
X02274602D01*
X02289837Y01006317D02*
X02294916D01*
X02297455Y01003777D01*
Y00996160D01*
X02289837D01*
X02287298Y00998699D01*
X02289837Y01001238D01*
X02297455D01*
X02302533Y01006317D02*
Y00998699D01*
X02305072Y00996160D01*
X02312690D01*
Y00993621D01*
X02310151Y00991082D01*
X02307612D01*
X02312690Y00996160D02*
Y01006317D01*
X02112095Y01041875D02*
Y01026640D01*
X02119712D01*
X02122252Y01029179D01*
Y01031718D01*
X02119712Y01034258D01*
X02112095D01*
X02119712D01*
X02122252Y01036797D01*
Y01039336D01*
X02119712Y01041875D01*
X02112095D01*
X02129869Y01026640D02*
X02134948D01*
X02137487Y01029179D01*
Y01034258D01*
X02134948Y01036797D01*
X02129869D01*
X02127330Y01034258D01*
Y01029179D01*
X02129869Y01026640D01*
X02145104Y01039336D02*
Y01036797D01*
X02142565D01*
X02147643D01*
X02145104D01*
Y01029179D01*
X02147643Y01026640D01*
X02157800Y01039336D02*
Y01036797D01*
X02155261D01*
X02160339D01*
X02157800D01*
Y01029179D01*
X02160339Y01026640D01*
X02170496D02*
X02175574D01*
X02178114Y01029179D01*
Y01034258D01*
X02175574Y01036797D01*
X02170496D01*
X02167957Y01034258D01*
Y01029179D01*
X02170496Y01026640D01*
X02183192D02*
Y01036797D01*
X02185731D01*
X02188270Y01034258D01*
Y01026640D01*
Y01034258D01*
X02190809Y01036797D01*
X02193349Y01034258D01*
Y01026640D01*
X02223819Y01039336D02*
X02221280Y01041875D01*
X02216201D01*
X02213662Y01039336D01*
Y01036797D01*
X02216201Y01034258D01*
X02221280D01*
X02223819Y01031718D01*
Y01029179D01*
X02221280Y01026640D01*
X02216201D01*
X02213662Y01029179D01*
X02231436Y01026640D02*
X02236515D01*
X02239054Y01029179D01*
Y01034258D01*
X02236515Y01036797D01*
X02231436D01*
X02228897Y01034258D01*
Y01029179D01*
X02231436Y01026640D01*
X02244132D02*
X02249211D01*
X02246671D01*
Y01041875D01*
X02244132D01*
X02266985D02*
Y01026640D01*
X02259367D01*
X02256828Y01029179D01*
Y01034258D01*
X02259367Y01036797D01*
X02266985D01*
X02279681Y01026640D02*
X02274602D01*
X02272063Y01029179D01*
Y01034258D01*
X02274602Y01036797D01*
X02279681D01*
X02282220Y01034258D01*
Y01031718D01*
X02272063D01*
X02287298Y01036797D02*
Y01026640D01*
Y01031718D01*
X02289837Y01034258D01*
X02292377Y01036797D01*
X02294916D01*
X02112095Y01072355D02*
Y01057120D01*
X02119712D01*
X02122252Y01059659D01*
Y01062198D01*
X02119712Y01064737D01*
X02112095D01*
X02119712D01*
X02122252Y01067277D01*
Y01069816D01*
X02119712Y01072355D01*
X02112095D01*
X02127330D02*
X02137487D01*
X02132408D01*
Y01057120D01*
X02142565D02*
Y01072355D01*
X02147643Y01067277D01*
X02152722Y01072355D01*
Y01057120D01*
X02112095Y01102835D02*
Y01087600D01*
X02119712D01*
X02122252Y01090139D01*
Y01100296D01*
X02119712Y01102835D01*
X02112095D01*
X02127330Y01087600D02*
X02132408D01*
X02129869D01*
Y01097757D01*
X02127330D01*
X02147643Y01087600D02*
X02142565D01*
X02140026Y01090139D01*
Y01095218D01*
X02142565Y01097757D01*
X02147643D01*
X02150183Y01095218D01*
Y01092678D01*
X02140026D01*
X02155261Y01087600D02*
X02160339D01*
X02157800D01*
Y01102835D01*
X02155261D01*
X02175574Y01087600D02*
X02170496D01*
X02167957Y01090139D01*
Y01095218D01*
X02170496Y01097757D01*
X02175574D01*
X02178114Y01095218D01*
Y01092678D01*
X02167957D01*
X02193349Y01097757D02*
X02185731D01*
X02183192Y01095218D01*
Y01090139D01*
X02185731Y01087600D01*
X02193349D01*
X02200966Y01100296D02*
Y01097757D01*
X02198427D01*
X02203505D01*
X02200966D01*
Y01090139D01*
X02203505Y01087600D01*
X02211123Y01097757D02*
Y01087600D01*
Y01092678D01*
X02213662Y01095218D01*
X02216201Y01097757D01*
X02218740D01*
X02226358Y01087600D02*
X02231436D01*
X02228897D01*
Y01097757D01*
X02226358D01*
X02249211D02*
X02241593D01*
X02239054Y01095218D01*
Y01090139D01*
X02241593Y01087600D01*
X02249211D01*
X02269524Y01100296D02*
X02272063Y01102835D01*
X02277142D01*
X02279681Y01100296D01*
Y01097757D01*
X02277142Y01095218D01*
X02279681Y01092678D01*
Y01090139D01*
X02277142Y01087600D01*
X02272063D01*
X02269524Y01090139D01*
Y01092678D01*
X02272063Y01095218D01*
X02269524Y01097757D01*
Y01100296D01*
X02272063Y01095218D02*
X02277142D01*
X02112095Y01133315D02*
Y01118080D01*
X02122252D01*
X02137487Y01133315D02*
X02132408Y01130776D01*
X02127330Y01125697D01*
Y01120619D01*
X02129869Y01118080D01*
X02134948D01*
X02137487Y01120619D01*
Y01123158D01*
X02134948Y01125697D01*
X02127330D01*
X02142565D02*
X02152722D01*
X02157800Y01118080D02*
Y01133315D01*
X02165418D01*
X02167957Y01130776D01*
Y01125697D01*
X02165418Y01123158D01*
X02157800D01*
X02183192Y01118080D02*
X02173035D01*
X02183192Y01128237D01*
Y01130776D01*
X02180653Y01133315D01*
X02175574D01*
X02173035Y01130776D01*
X02188270Y01133315D02*
Y01123158D01*
X02193349Y01118080D01*
X02198427Y01123158D01*
Y01133315D01*
X02213662D02*
X02203505D01*
Y01125697D01*
X02208584Y01128237D01*
X02211123D01*
X02213662Y01125697D01*
Y01120619D01*
X02211123Y01118080D01*
X02206044D01*
X02203505Y01120619D01*
X02112095Y01163795D02*
Y01148560D01*
X02119712D01*
X02122252Y01151099D01*
Y01161256D01*
X02119712Y01163795D01*
X02112095D01*
X02127330Y01148560D02*
X02132408D01*
X02129869D01*
Y01158717D01*
X02127330D01*
X02147643Y01148560D02*
X02142565D01*
X02140026Y01151099D01*
Y01156178D01*
X02142565Y01158717D01*
X02147643D01*
X02150183Y01156178D01*
Y01153638D01*
X02140026D01*
X02155261Y01148560D02*
X02160339D01*
X02157800D01*
Y01163795D01*
X02155261D01*
X02175574Y01148560D02*
X02170496D01*
X02167957Y01151099D01*
Y01156178D01*
X02170496Y01158717D01*
X02175574D01*
X02178114Y01156178D01*
Y01153638D01*
X02167957D01*
X02193349Y01158717D02*
X02185731D01*
X02183192Y01156178D01*
Y01151099D01*
X02185731Y01148560D01*
X02193349D01*
X02200966Y01161256D02*
Y01158717D01*
X02198427D01*
X02203505D01*
X02200966D01*
Y01151099D01*
X02203505Y01148560D01*
X02211123Y01158717D02*
Y01148560D01*
Y01153638D01*
X02213662Y01156178D01*
X02216201Y01158717D01*
X02218740D01*
X02226358Y01148560D02*
X02231436D01*
X02228897D01*
Y01158717D01*
X02226358D01*
X02249211D02*
X02241593D01*
X02239054Y01156178D01*
Y01151099D01*
X02241593Y01148560D01*
X02249211D01*
X02269524Y01163795D02*
X02279681D01*
Y01161256D01*
X02269524Y01151099D01*
Y01148560D01*
X02112095Y01194275D02*
Y01179040D01*
X02122252D01*
X02137487Y01194275D02*
X02127330D01*
Y01186657D01*
X02132408Y01189197D01*
X02134948D01*
X02137487Y01186657D01*
Y01181579D01*
X02134948Y01179040D01*
X02129869D01*
X02127330Y01181579D01*
X02112095Y01224755D02*
Y01209520D01*
X02119712D01*
X02122252Y01212059D01*
Y01222216D01*
X02119712Y01224755D01*
X02112095D01*
X02127330Y01209520D02*
X02132408D01*
X02129869D01*
Y01219677D01*
X02127330D01*
X02147643Y01209520D02*
X02142565D01*
X02140026Y01212059D01*
Y01217138D01*
X02142565Y01219677D01*
X02147643D01*
X02150183Y01217138D01*
Y01214598D01*
X02140026D01*
X02155261Y01209520D02*
X02160339D01*
X02157800D01*
Y01224755D01*
X02155261D01*
X02175574Y01209520D02*
X02170496D01*
X02167957Y01212059D01*
Y01217138D01*
X02170496Y01219677D01*
X02175574D01*
X02178114Y01217138D01*
Y01214598D01*
X02167957D01*
X02193349Y01219677D02*
X02185731D01*
X02183192Y01217138D01*
Y01212059D01*
X02185731Y01209520D01*
X02193349D01*
X02200966Y01222216D02*
Y01219677D01*
X02198427D01*
X02203505D01*
X02200966D01*
Y01212059D01*
X02203505Y01209520D01*
X02211123Y01219677D02*
Y01209520D01*
Y01214598D01*
X02213662Y01217138D01*
X02216201Y01219677D01*
X02218740D01*
X02226358Y01209520D02*
X02231436D01*
X02228897D01*
Y01219677D01*
X02226358D01*
X02249211D02*
X02241593D01*
X02239054Y01217138D01*
Y01212059D01*
X02241593Y01209520D01*
X02249211D01*
X02277142D02*
Y01224755D01*
X02269524Y01217138D01*
X02279681D01*
X02112095Y01255235D02*
Y01240000D01*
X02122252D01*
X02134948D02*
Y01255235D01*
X02127330Y01247617D01*
X02137487D01*
X02142565D02*
X02152722D01*
X02157800Y01240000D02*
Y01255235D01*
X02165418D01*
X02167957Y01252696D01*
Y01247617D01*
X02165418Y01245078D01*
X02157800D01*
X02173035Y01255235D02*
Y01240000D01*
X02178114Y01245078D01*
X02183192Y01240000D01*
Y01255235D01*
X02188270Y01240000D02*
Y01255235D01*
X02195888D01*
X02198427Y01252696D01*
Y01247617D01*
X02195888Y01245078D01*
X02188270D01*
X02193349D02*
X02198427Y01240000D01*
X02112095Y01285715D02*
Y01270480D01*
X02119712D01*
X02122252Y01273019D01*
Y01283176D01*
X02119712Y01285715D01*
X02112095D01*
X02127330Y01270480D02*
X02132408D01*
X02129869D01*
Y01280637D01*
X02127330D01*
X02147643Y01270480D02*
X02142565D01*
X02140026Y01273019D01*
Y01278098D01*
X02142565Y01280637D01*
X02147643D01*
X02150183Y01278098D01*
Y01275558D01*
X02140026D01*
X02155261Y01270480D02*
X02160339D01*
X02157800D01*
Y01285715D01*
X02155261D01*
X02175574Y01270480D02*
X02170496D01*
X02167957Y01273019D01*
Y01278098D01*
X02170496Y01280637D01*
X02175574D01*
X02178114Y01278098D01*
Y01275558D01*
X02167957D01*
X02193349Y01280637D02*
X02185731D01*
X02183192Y01278098D01*
Y01273019D01*
X02185731Y01270480D01*
X02193349D01*
X02200966Y01283176D02*
Y01280637D01*
X02198427D01*
X02203505D01*
X02200966D01*
Y01273019D01*
X02203505Y01270480D01*
X02211123Y01280637D02*
Y01270480D01*
Y01275558D01*
X02213662Y01278098D01*
X02216201Y01280637D01*
X02218740D01*
X02226358Y01270480D02*
X02231436D01*
X02228897D01*
Y01280637D01*
X02226358D01*
X02249211D02*
X02241593D01*
X02239054Y01278098D01*
Y01273019D01*
X02241593Y01270480D01*
X02249211D01*
X02279681Y01285715D02*
X02269524D01*
Y01278098D01*
X02274602Y01280637D01*
X02277142D01*
X02279681Y01278098D01*
Y01273019D01*
X02277142Y01270480D01*
X02272063D01*
X02269524Y01273019D01*
X02112095Y01316195D02*
Y01300960D01*
X02122252D01*
X02127330Y01313656D02*
X02129869Y01316195D01*
X02134948D01*
X02137487Y01313656D01*
Y01311117D01*
X02134948Y01308578D01*
X02132408D01*
X02134948D01*
X02137487Y01306038D01*
Y01303499D01*
X02134948Y01300960D01*
X02129869D01*
X02127330Y01303499D01*
X02142565Y01308578D02*
X02152722D01*
X02157800Y01300960D02*
X02162879D01*
X02160339D01*
Y01316195D01*
X02157800Y01313656D01*
X02170496Y01316195D02*
Y01306038D01*
X02175574Y01300960D01*
X02180653Y01306038D01*
Y01316195D01*
X02185731Y01313656D02*
X02188270Y01316195D01*
X02193349D01*
X02195888Y01313656D01*
Y01311117D01*
X02193349Y01308578D01*
X02195888Y01306038D01*
Y01303499D01*
X02193349Y01300960D01*
X02188270D01*
X02185731Y01303499D01*
Y01306038D01*
X02188270Y01308578D01*
X02185731Y01311117D01*
Y01313656D01*
X02188270Y01308578D02*
X02193349D01*
X02112095Y01346675D02*
Y01331440D01*
X02119712D01*
X02122252Y01333979D01*
Y01344136D01*
X02119712Y01346675D01*
X02112095D01*
X02127330Y01331440D02*
X02132408D01*
X02129869D01*
Y01341597D01*
X02127330D01*
X02147643Y01331440D02*
X02142565D01*
X02140026Y01333979D01*
Y01339057D01*
X02142565Y01341597D01*
X02147643D01*
X02150183Y01339057D01*
Y01336518D01*
X02140026D01*
X02155261Y01331440D02*
X02160339D01*
X02157800D01*
Y01346675D01*
X02155261D01*
X02175574Y01331440D02*
X02170496D01*
X02167957Y01333979D01*
Y01339057D01*
X02170496Y01341597D01*
X02175574D01*
X02178114Y01339057D01*
Y01336518D01*
X02167957D01*
X02193349Y01341597D02*
X02185731D01*
X02183192Y01339057D01*
Y01333979D01*
X02185731Y01331440D01*
X02193349D01*
X02200966Y01344136D02*
Y01341597D01*
X02198427D01*
X02203505D01*
X02200966D01*
Y01333979D01*
X02203505Y01331440D01*
X02211123Y01341597D02*
Y01331440D01*
Y01336518D01*
X02213662Y01339057D01*
X02216201Y01341597D01*
X02218740D01*
X02226358Y01331440D02*
X02231436D01*
X02228897D01*
Y01341597D01*
X02226358D01*
X02249211D02*
X02241593D01*
X02239054Y01339057D01*
Y01333979D01*
X02241593Y01331440D01*
X02249211D01*
X02279681Y01346675D02*
X02274602Y01344136D01*
X02269524Y01339057D01*
Y01333979D01*
X02272063Y01331440D01*
X02277142D01*
X02279681Y01333979D01*
Y01336518D01*
X02277142Y01339057D01*
X02269524D01*
X02112095Y01377155D02*
Y01361920D01*
X02122252D01*
X02137487D02*
X02127330D01*
X02137487Y01372077D01*
Y01374616D01*
X02134948Y01377155D01*
X02129869D01*
X02127330Y01374616D01*
X02112095Y01407635D02*
Y01392400D01*
X02119712D01*
X02122252Y01394939D01*
Y01405096D01*
X02119712Y01407635D01*
X02112095D01*
X02127330Y01392400D02*
X02132408D01*
X02129869D01*
Y01402557D01*
X02127330D01*
X02147643Y01392400D02*
X02142565D01*
X02140026Y01394939D01*
Y01400018D01*
X02142565Y01402557D01*
X02147643D01*
X02150183Y01400018D01*
Y01397478D01*
X02140026D01*
X02155261Y01392400D02*
X02160339D01*
X02157800D01*
Y01407635D01*
X02155261D01*
X02175574Y01392400D02*
X02170496D01*
X02167957Y01394939D01*
Y01400018D01*
X02170496Y01402557D01*
X02175574D01*
X02178114Y01400018D01*
Y01397478D01*
X02167957D01*
X02193349Y01402557D02*
X02185731D01*
X02183192Y01400018D01*
Y01394939D01*
X02185731Y01392400D01*
X02193349D01*
X02200966Y01405096D02*
Y01402557D01*
X02198427D01*
X02203505D01*
X02200966D01*
Y01394939D01*
X02203505Y01392400D01*
X02211123Y01402557D02*
Y01392400D01*
Y01397478D01*
X02213662Y01400018D01*
X02216201Y01402557D01*
X02218740D01*
X02226358Y01392400D02*
X02231436D01*
X02228897D01*
Y01402557D01*
X02226358D01*
X02249211D02*
X02241593D01*
X02239054Y01400018D01*
Y01394939D01*
X02241593Y01392400D01*
X02249211D01*
X02269524Y01405096D02*
X02272063Y01407635D01*
X02277142D01*
X02279681Y01405096D01*
Y01402557D01*
X02277142Y01400018D01*
X02274602D01*
X02277142D01*
X02279681Y01397478D01*
Y01394939D01*
X02277142Y01392400D01*
X02272063D01*
X02269524Y01394939D01*
X02112095Y01438115D02*
Y01422880D01*
X02122252D01*
X02127330D02*
X02132408D01*
X02129869D01*
Y01438115D01*
X02127330Y01435576D01*
X02140026Y01430497D02*
X02150183D01*
X02165418Y01435576D02*
X02162879Y01438115D01*
X02157800D01*
X02155261Y01435576D01*
Y01425419D01*
X02157800Y01422880D01*
X02162879D01*
X02165418Y01425419D01*
Y01430497D01*
X02160339D01*
X02170496Y01422880D02*
Y01438115D01*
X02180653Y01422880D01*
Y01438115D01*
X02185731D02*
Y01422880D01*
X02193349D01*
X02195888Y01425419D01*
Y01435576D01*
X02193349Y01438115D01*
X02185731D01*
X02112095Y01468595D02*
Y01453360D01*
X02119712D01*
X02122252Y01455899D01*
Y01466056D01*
X02119712Y01468595D01*
X02112095D01*
X02127330Y01453360D02*
X02132408D01*
X02129869D01*
Y01463517D01*
X02127330D01*
X02147643Y01453360D02*
X02142565D01*
X02140026Y01455899D01*
Y01460977D01*
X02142565Y01463517D01*
X02147643D01*
X02150183Y01460977D01*
Y01458438D01*
X02140026D01*
X02155261Y01453360D02*
X02160339D01*
X02157800D01*
Y01468595D01*
X02155261D01*
X02175574Y01453360D02*
X02170496D01*
X02167957Y01455899D01*
Y01460977D01*
X02170496Y01463517D01*
X02175574D01*
X02178114Y01460977D01*
Y01458438D01*
X02167957D01*
X02193349Y01463517D02*
X02185731D01*
X02183192Y01460977D01*
Y01455899D01*
X02185731Y01453360D01*
X02193349D01*
X02200966Y01466056D02*
Y01463517D01*
X02198427D01*
X02203505D01*
X02200966D01*
Y01455899D01*
X02203505Y01453360D01*
X02211123Y01463517D02*
Y01453360D01*
Y01458438D01*
X02213662Y01460977D01*
X02216201Y01463517D01*
X02218740D01*
X02226358Y01453360D02*
X02231436D01*
X02228897D01*
Y01463517D01*
X02226358D01*
X02249211D02*
X02241593D01*
X02239054Y01460977D01*
Y01455899D01*
X02241593Y01453360D01*
X02249211D01*
X02269524D02*
X02274602D01*
X02272063D01*
Y01468595D01*
X02269524Y01466056D01*
X02112095Y01499075D02*
X02122252D01*
X02117173D01*
Y01483840D01*
X02134948Y01499075D02*
X02129869D01*
X02127330Y01496536D01*
Y01486379D01*
X02129869Y01483840D01*
X02134948D01*
X02137487Y01486379D01*
Y01496536D01*
X02134948Y01499075D01*
X02142565Y01483840D02*
Y01499075D01*
X02150183D01*
X02152722Y01496536D01*
Y01491458D01*
X02150183Y01488918D01*
X02142565D01*
X02112095Y01529555D02*
X02122252D01*
X02117173D01*
Y01514320D01*
X02129869D02*
X02134948D01*
X02137487Y01516859D01*
Y01521938D01*
X02134948Y01524477D01*
X02129869D01*
X02127330Y01521938D01*
Y01516859D01*
X02129869Y01514320D01*
X02142565Y01509242D02*
Y01524477D01*
X02150183D01*
X02152722Y01521938D01*
Y01516859D01*
X02150183Y01514320D01*
X02142565D01*
X02183192Y01527016D02*
X02180653Y01529555D01*
X02175574D01*
X02173035Y01527016D01*
Y01524477D01*
X02175574Y01521938D01*
X02180653D01*
X02183192Y01519398D01*
Y01516859D01*
X02180653Y01514320D01*
X02175574D01*
X02173035Y01516859D01*
X02190809Y01514320D02*
X02195888D01*
X02198427Y01516859D01*
Y01521938D01*
X02195888Y01524477D01*
X02190809D01*
X02188270Y01521938D01*
Y01516859D01*
X02190809Y01514320D01*
X02203505D02*
X02208584D01*
X02206044D01*
Y01529555D01*
X02203505D01*
X02226358D02*
Y01514320D01*
X02218740D01*
X02216201Y01516859D01*
Y01521938D01*
X02218740Y01524477D01*
X02226358D01*
X02239054Y01514320D02*
X02233976D01*
X02231436Y01516859D01*
Y01521938D01*
X02233976Y01524477D01*
X02239054D01*
X02241593Y01521938D01*
Y01519398D01*
X02231436D01*
X02246671Y01524477D02*
Y01514320D01*
Y01519398D01*
X02249211Y01521938D01*
X02251750Y01524477D01*
X02254289D01*
X02112095Y01560035D02*
X02122252D01*
X02117173D01*
Y01544800D01*
X02129869D02*
X02134948D01*
X02137487Y01547339D01*
Y01552417D01*
X02134948Y01554957D01*
X02129869D01*
X02127330Y01552417D01*
Y01547339D01*
X02129869Y01544800D01*
X02142565Y01539722D02*
Y01554957D01*
X02150183D01*
X02152722Y01552417D01*
Y01547339D01*
X02150183Y01544800D01*
X02142565D01*
X02180653Y01560035D02*
X02175574D01*
X02173035Y01557496D01*
Y01547339D01*
X02175574Y01544800D01*
X02180653D01*
X02183192Y01547339D01*
Y01557496D01*
X02180653Y01560035D01*
X02188270Y01554957D02*
X02193349Y01544800D01*
X02198427Y01554957D01*
X02211123Y01544800D02*
X02206044D01*
X02203505Y01547339D01*
Y01552417D01*
X02206044Y01554957D01*
X02211123D01*
X02213662Y01552417D01*
Y01549878D01*
X02203505D01*
X02218740Y01554957D02*
Y01544800D01*
Y01549878D01*
X02221280Y01552417D01*
X02223819Y01554957D01*
X02226358D01*
X02233976Y01544800D02*
X02239054D01*
X02236515D01*
Y01560035D01*
X02233976D01*
X02249211Y01554957D02*
X02254289D01*
X02256828Y01552417D01*
Y01544800D01*
X02249211D01*
X02246671Y01547339D01*
X02249211Y01549878D01*
X02256828D01*
X02261906Y01554957D02*
Y01547339D01*
X02264446Y01544800D01*
X02272063D01*
Y01542261D01*
X02269524Y01539722D01*
X02266985D01*
X02272063Y01544800D02*
Y01554957D01*
X02348250Y01575280D02*
Y01590515D01*
X02353328Y01585437D01*
X02358407Y01590515D01*
Y01575280D01*
X02366024Y01585437D02*
X02371103D01*
X02373642Y01582897D01*
Y01575280D01*
X02366024D01*
X02363485Y01577819D01*
X02366024Y01580358D01*
X02373642D01*
X02381259Y01587976D02*
Y01585437D01*
X02378720D01*
X02383799D01*
X02381259D01*
Y01577819D01*
X02383799Y01575280D01*
X02399034D02*
X02393955D01*
X02391416Y01577819D01*
Y01582897D01*
X02393955Y01585437D01*
X02399034D01*
X02401573Y01582897D01*
Y01580358D01*
X02391416D01*
X02406651Y01585437D02*
Y01575280D01*
Y01580358D01*
X02409190Y01582897D01*
X02411729Y01585437D01*
X02414269D01*
X02421886Y01575280D02*
X02426965D01*
X02424425D01*
Y01585437D01*
X02421886D01*
X02437121D02*
X02442200D01*
X02444739Y01582897D01*
Y01575280D01*
X02437121D01*
X02434582Y01577819D01*
X02437121Y01580358D01*
X02444739D01*
X02449817Y01575280D02*
X02454895D01*
X02452356D01*
Y01590515D01*
X02449817D01*
X02358407Y01039336D02*
X02355867Y01041875D01*
X02350789D01*
X02348250Y01039336D01*
Y01036797D01*
X02350789Y01034258D01*
X02355867D01*
X02358407Y01031718D01*
Y01029179D01*
X02355867Y01026640D01*
X02350789D01*
X02348250Y01029179D01*
X02366024Y01026640D02*
X02371103D01*
X02373642Y01029179D01*
Y01034258D01*
X02371103Y01036797D01*
X02366024D01*
X02363485Y01034258D01*
Y01029179D01*
X02366024Y01026640D01*
X02378720D02*
X02383799D01*
X02381259D01*
Y01041875D01*
X02378720D01*
X02401573D02*
Y01026640D01*
X02393955D01*
X02391416Y01029179D01*
Y01034258D01*
X02393955Y01036797D01*
X02401573D01*
X02414269Y01026640D02*
X02409190D01*
X02406651Y01029179D01*
Y01034258D01*
X02409190Y01036797D01*
X02414269D01*
X02416808Y01034258D01*
Y01031718D01*
X02406651D01*
X02421886Y01036797D02*
Y01026640D01*
Y01031718D01*
X02424425Y01034258D01*
X02426965Y01036797D01*
X02429504D01*
X02452356Y01026640D02*
Y01041875D01*
X02459974D01*
X02462513Y01039336D01*
Y01034258D01*
X02459974Y01031718D01*
X02452356D01*
X02457435D02*
X02462513Y01026640D01*
X02475209D02*
X02470131D01*
X02467591Y01029179D01*
Y01034258D01*
X02470131Y01036797D01*
X02475209D01*
X02477748Y01034258D01*
Y01031718D01*
X02467591D01*
X02482827Y01026640D02*
X02490444D01*
X02492983Y01029179D01*
X02490444Y01031718D01*
X02485366D01*
X02482827Y01034258D01*
X02485366Y01036797D01*
X02492983D01*
X02498062Y01026640D02*
X02503140D01*
X02500601D01*
Y01036797D01*
X02498062D01*
X02510757Y01026640D02*
X02518375D01*
X02520914Y01029179D01*
X02518375Y01031718D01*
X02513297D01*
X02510757Y01034258D01*
X02513297Y01036797D01*
X02520914D01*
X02528532Y01039336D02*
Y01036797D01*
X02525992D01*
X02531071D01*
X02528532D01*
Y01029179D01*
X02531071Y01026640D01*
X02358407Y01069816D02*
X02355867Y01072355D01*
X02350789D01*
X02348250Y01069816D01*
Y01059659D01*
X02350789Y01057120D01*
X02355867D01*
X02358407Y01059659D01*
X02366024Y01057120D02*
X02371103D01*
X02373642Y01059659D01*
Y01064737D01*
X02371103Y01067277D01*
X02366024D01*
X02363485Y01064737D01*
Y01059659D01*
X02366024Y01057120D01*
X02378720Y01052042D02*
Y01067277D01*
X02386338D01*
X02388877Y01064737D01*
Y01059659D01*
X02386338Y01057120D01*
X02378720D01*
X02393955Y01052042D02*
Y01067277D01*
X02401573D01*
X02404112Y01064737D01*
Y01059659D01*
X02401573Y01057120D01*
X02393955D01*
X02416808D02*
X02411729D01*
X02409190Y01059659D01*
Y01064737D01*
X02411729Y01067277D01*
X02416808D01*
X02419347Y01064737D01*
Y01062198D01*
X02409190D01*
X02424425Y01067277D02*
Y01057120D01*
Y01062198D01*
X02426965Y01064737D01*
X02429504Y01067277D01*
X02432043D01*
X02358407Y01130776D02*
X02355867Y01133315D01*
X02350789D01*
X02348250Y01130776D01*
Y01120619D01*
X02350789Y01118080D01*
X02355867D01*
X02358407Y01120619D01*
X02366024Y01118080D02*
X02371103D01*
X02373642Y01120619D01*
Y01125697D01*
X02371103Y01128237D01*
X02366024D01*
X02363485Y01125697D01*
Y01120619D01*
X02366024Y01118080D01*
X02378720Y01113002D02*
Y01128237D01*
X02386338D01*
X02388877Y01125697D01*
Y01120619D01*
X02386338Y01118080D01*
X02378720D01*
X02393955Y01113002D02*
Y01128237D01*
X02401573D01*
X02404112Y01125697D01*
Y01120619D01*
X02401573Y01118080D01*
X02393955D01*
X02416808D02*
X02411729D01*
X02409190Y01120619D01*
Y01125697D01*
X02411729Y01128237D01*
X02416808D01*
X02419347Y01125697D01*
Y01123158D01*
X02409190D01*
X02424425Y01128237D02*
Y01118080D01*
Y01123158D01*
X02426965Y01125697D01*
X02429504Y01128237D01*
X02432043D01*
X02358407Y01191736D02*
X02355867Y01194275D01*
X02350789D01*
X02348250Y01191736D01*
Y01181579D01*
X02350789Y01179040D01*
X02355867D01*
X02358407Y01181579D01*
X02366024Y01179040D02*
X02371103D01*
X02373642Y01181579D01*
Y01186657D01*
X02371103Y01189197D01*
X02366024D01*
X02363485Y01186657D01*
Y01181579D01*
X02366024Y01179040D01*
X02378720Y01173962D02*
Y01189197D01*
X02386338D01*
X02388877Y01186657D01*
Y01181579D01*
X02386338Y01179040D01*
X02378720D01*
X02393955Y01173962D02*
Y01189197D01*
X02401573D01*
X02404112Y01186657D01*
Y01181579D01*
X02401573Y01179040D01*
X02393955D01*
X02416808D02*
X02411729D01*
X02409190Y01181579D01*
Y01186657D01*
X02411729Y01189197D01*
X02416808D01*
X02419347Y01186657D01*
Y01184118D01*
X02409190D01*
X02424425Y01189197D02*
Y01179040D01*
Y01184118D01*
X02426965Y01186657D01*
X02429504Y01189197D01*
X02432043D01*
X02358407Y01252696D02*
X02355867Y01255235D01*
X02350789D01*
X02348250Y01252696D01*
Y01242539D01*
X02350789Y01240000D01*
X02355867D01*
X02358407Y01242539D01*
X02366024Y01240000D02*
X02371103D01*
X02373642Y01242539D01*
Y01247617D01*
X02371103Y01250157D01*
X02366024D01*
X02363485Y01247617D01*
Y01242539D01*
X02366024Y01240000D01*
X02378720Y01234922D02*
Y01250157D01*
X02386338D01*
X02388877Y01247617D01*
Y01242539D01*
X02386338Y01240000D01*
X02378720D01*
X02393955Y01234922D02*
Y01250157D01*
X02401573D01*
X02404112Y01247617D01*
Y01242539D01*
X02401573Y01240000D01*
X02393955D01*
X02416808D02*
X02411729D01*
X02409190Y01242539D01*
Y01247617D01*
X02411729Y01250157D01*
X02416808D01*
X02419347Y01247617D01*
Y01245078D01*
X02409190D01*
X02424425Y01250157D02*
Y01240000D01*
Y01245078D01*
X02426965Y01247617D01*
X02429504Y01250157D01*
X02432043D01*
X02358407Y01313656D02*
X02355867Y01316195D01*
X02350789D01*
X02348250Y01313656D01*
Y01303499D01*
X02350789Y01300960D01*
X02355867D01*
X02358407Y01303499D01*
X02366024Y01300960D02*
X02371103D01*
X02373642Y01303499D01*
Y01308578D01*
X02371103Y01311117D01*
X02366024D01*
X02363485Y01308578D01*
Y01303499D01*
X02366024Y01300960D01*
X02378720Y01295882D02*
Y01311117D01*
X02386338D01*
X02388877Y01308578D01*
Y01303499D01*
X02386338Y01300960D01*
X02378720D01*
X02393955Y01295882D02*
Y01311117D01*
X02401573D01*
X02404112Y01308578D01*
Y01303499D01*
X02401573Y01300960D01*
X02393955D01*
X02416808D02*
X02411729D01*
X02409190Y01303499D01*
Y01308578D01*
X02411729Y01311117D01*
X02416808D01*
X02419347Y01308578D01*
Y01306038D01*
X02409190D01*
X02424425Y01311117D02*
Y01300960D01*
Y01306038D01*
X02426965Y01308578D01*
X02429504Y01311117D01*
X02432043D01*
X02358407Y01374616D02*
X02355867Y01377155D01*
X02350789D01*
X02348250Y01374616D01*
Y01364459D01*
X02350789Y01361920D01*
X02355867D01*
X02358407Y01364459D01*
X02366024Y01361920D02*
X02371103D01*
X02373642Y01364459D01*
Y01369538D01*
X02371103Y01372077D01*
X02366024D01*
X02363485Y01369538D01*
Y01364459D01*
X02366024Y01361920D01*
X02378720Y01356842D02*
Y01372077D01*
X02386338D01*
X02388877Y01369538D01*
Y01364459D01*
X02386338Y01361920D01*
X02378720D01*
X02393955Y01356842D02*
Y01372077D01*
X02401573D01*
X02404112Y01369538D01*
Y01364459D01*
X02401573Y01361920D01*
X02393955D01*
X02416808D02*
X02411729D01*
X02409190Y01364459D01*
Y01369538D01*
X02411729Y01372077D01*
X02416808D01*
X02419347Y01369538D01*
Y01366998D01*
X02409190D01*
X02424425Y01372077D02*
Y01361920D01*
Y01366998D01*
X02426965Y01369538D01*
X02429504Y01372077D01*
X02432043D01*
X02358407Y01435576D02*
X02355867Y01438115D01*
X02350789D01*
X02348250Y01435576D01*
Y01425419D01*
X02350789Y01422880D01*
X02355867D01*
X02358407Y01425419D01*
X02366024Y01422880D02*
X02371103D01*
X02373642Y01425419D01*
Y01430497D01*
X02371103Y01433037D01*
X02366024D01*
X02363485Y01430497D01*
Y01425419D01*
X02366024Y01422880D01*
X02378720Y01417802D02*
Y01433037D01*
X02386338D01*
X02388877Y01430497D01*
Y01425419D01*
X02386338Y01422880D01*
X02378720D01*
X02393955Y01417802D02*
Y01433037D01*
X02401573D01*
X02404112Y01430497D01*
Y01425419D01*
X02401573Y01422880D01*
X02393955D01*
X02416808D02*
X02411729D01*
X02409190Y01425419D01*
Y01430497D01*
X02411729Y01433037D01*
X02416808D01*
X02419347Y01430497D01*
Y01427958D01*
X02409190D01*
X02424425Y01433037D02*
Y01422880D01*
Y01427958D01*
X02426965Y01430497D01*
X02429504Y01433037D01*
X02432043D01*
X02358407Y01468595D02*
X02348250D01*
Y01460977D01*
X02353328D01*
X02348250D01*
Y01453360D01*
X02363485D02*
Y01468595D01*
X02371103D01*
X02373642Y01466056D01*
Y01460977D01*
X02371103Y01458438D01*
X02363485D01*
X02368563D02*
X02373642Y01453360D01*
X02378720Y01460977D02*
X02388877D01*
X02401573Y01453360D02*
Y01468595D01*
X02393955Y01460977D01*
X02404112D01*
X02358407Y01496536D02*
X02355867Y01499075D01*
X02350789D01*
X02348250Y01496536D01*
Y01486379D01*
X02350789Y01483840D01*
X02355867D01*
X02358407Y01486379D01*
X02366024Y01483840D02*
X02371103D01*
X02373642Y01486379D01*
Y01491458D01*
X02371103Y01493997D01*
X02366024D01*
X02363485Y01491458D01*
Y01486379D01*
X02366024Y01483840D01*
X02378720Y01478762D02*
Y01493997D01*
X02386338D01*
X02388877Y01491458D01*
Y01486379D01*
X02386338Y01483840D01*
X02378720D01*
X02393955Y01478762D02*
Y01493997D01*
X02401573D01*
X02404112Y01491458D01*
Y01486379D01*
X02401573Y01483840D01*
X02393955D01*
X02416808D02*
X02411729D01*
X02409190Y01486379D01*
Y01491458D01*
X02411729Y01493997D01*
X02416808D01*
X02419347Y01491458D01*
Y01488918D01*
X02409190D01*
X02424425Y01493997D02*
Y01483840D01*
Y01488918D01*
X02426965Y01491458D01*
X02429504Y01493997D01*
X02432043D01*
X02358407Y01527016D02*
X02355867Y01529555D01*
X02350789D01*
X02348250Y01527016D01*
Y01524477D01*
X02350789Y01521938D01*
X02355867D01*
X02358407Y01519398D01*
Y01516859D01*
X02355867Y01514320D01*
X02350789D01*
X02348250Y01516859D01*
X02366024Y01514320D02*
X02371103D01*
X02373642Y01516859D01*
Y01521938D01*
X02371103Y01524477D01*
X02366024D01*
X02363485Y01521938D01*
Y01516859D01*
X02366024Y01514320D01*
X02378720D02*
X02383799D01*
X02381259D01*
Y01529555D01*
X02378720D01*
X02401573D02*
Y01514320D01*
X02393955D01*
X02391416Y01516859D01*
Y01521938D01*
X02393955Y01524477D01*
X02401573D01*
X02414269Y01514320D02*
X02409190D01*
X02406651Y01516859D01*
Y01521938D01*
X02409190Y01524477D01*
X02414269D01*
X02416808Y01521938D01*
Y01519398D01*
X02406651D01*
X02421886Y01524477D02*
Y01514320D01*
Y01519398D01*
X02424425Y01521938D01*
X02426965Y01524477D01*
X02429504D01*
X02452356Y01514320D02*
Y01529555D01*
X02459974D01*
X02462513Y01527016D01*
Y01521938D01*
X02459974Y01519398D01*
X02452356D01*
X02457435D02*
X02462513Y01514320D01*
X02475209D02*
X02470131D01*
X02467591Y01516859D01*
Y01521938D01*
X02470131Y01524477D01*
X02475209D01*
X02477748Y01521938D01*
Y01519398D01*
X02467591D01*
X02482827Y01514320D02*
X02490444D01*
X02492983Y01516859D01*
X02490444Y01519398D01*
X02485366D01*
X02482827Y01521938D01*
X02485366Y01524477D01*
X02492983D01*
X02498062Y01514320D02*
X02503140D01*
X02500601D01*
Y01524477D01*
X02498062D01*
X02510757Y01514320D02*
X02518375D01*
X02520914Y01516859D01*
X02518375Y01519398D01*
X02513297D01*
X02510757Y01521938D01*
X02513297Y01524477D01*
X02520914D01*
X02528532Y01527016D02*
Y01524477D01*
X02525992D01*
X02531071D01*
X02528532D01*
Y01516859D01*
X02531071Y01514320D01*
X02566631Y01590515D02*
X02576788D01*
X02571709D01*
Y01575280D01*
X02581866Y01590515D02*
Y01575280D01*
Y01582897D01*
X02584405Y01585437D01*
X02589483D01*
X02592023Y01582897D01*
Y01575280D01*
X02597101D02*
X02602179D01*
X02599640D01*
Y01585437D01*
X02597101D01*
X02619954D02*
X02612336D01*
X02609797Y01582897D01*
Y01577819D01*
X02612336Y01575280D01*
X02619954D01*
X02625032D02*
Y01590515D01*
Y01580358D02*
X02632650Y01585437D01*
X02625032Y01580358D02*
X02632650Y01575280D01*
X02640267D02*
Y01585437D01*
X02647885D01*
X02650424Y01582897D01*
Y01575280D01*
X02663120D02*
X02658041D01*
X02655502Y01577819D01*
Y01582897D01*
X02658041Y01585437D01*
X02663120D01*
X02665659Y01582897D01*
Y01580358D01*
X02655502D01*
X02670737Y01575280D02*
X02678355D01*
X02680894Y01577819D01*
X02678355Y01580358D01*
X02673276D01*
X02670737Y01582897D01*
X02673276Y01585437D01*
X02680894D01*
X02685972Y01575280D02*
X02693590D01*
X02696129Y01577819D01*
X02693590Y01580358D01*
X02688511D01*
X02685972Y01582897D01*
X02688511Y01585437D01*
X02696129D01*
X02566631Y01039336D02*
X02569170Y01041875D01*
X02574248D01*
X02576788Y01039336D01*
Y01029179D01*
X02574248Y01026640D01*
X02569170D01*
X02566631Y01029179D01*
Y01039336D01*
X02581866Y01026640D02*
Y01029179D01*
X02584405D01*
Y01026640D01*
X02581866D01*
X02594562Y01039336D02*
X02597101Y01041875D01*
X02602179D01*
X02604719Y01039336D01*
Y01029179D01*
X02602179Y01026640D01*
X02597101D01*
X02594562Y01029179D01*
Y01039336D01*
X02609797Y01026640D02*
X02614875D01*
X02612336D01*
Y01041875D01*
X02609797Y01039336D01*
X02622493D02*
X02625032Y01041875D01*
X02630110D01*
X02632650Y01039336D01*
Y01029179D01*
X02630110Y01026640D01*
X02625032D01*
X02622493Y01029179D01*
Y01039336D01*
X02637728Y01026640D02*
Y01036797D01*
X02640267D01*
X02642806Y01034258D01*
Y01026640D01*
Y01034258D01*
X02645345Y01036797D01*
X02647885Y01034258D01*
Y01026640D01*
X02652963D02*
Y01036797D01*
X02655502D01*
X02658041Y01034258D01*
Y01026640D01*
Y01034258D01*
X02660580Y01036797D01*
X02663120Y01034258D01*
Y01026640D01*
X02566631Y01069816D02*
X02569170Y01072355D01*
X02574248D01*
X02576788Y01069816D01*
Y01059659D01*
X02574248Y01057120D01*
X02569170D01*
X02566631Y01059659D01*
Y01069816D01*
X02581866Y01057120D02*
Y01059659D01*
X02584405D01*
Y01057120D01*
X02581866D01*
X02594562Y01069816D02*
X02597101Y01072355D01*
X02602179D01*
X02604719Y01069816D01*
Y01059659D01*
X02602179Y01057120D01*
X02597101D01*
X02594562Y01059659D01*
Y01069816D01*
X02619954Y01072355D02*
X02609797D01*
Y01064737D01*
X02614875Y01067277D01*
X02617415D01*
X02619954Y01064737D01*
Y01059659D01*
X02617415Y01057120D01*
X02612336D01*
X02609797Y01059659D01*
X02625032Y01069816D02*
X02627571Y01072355D01*
X02632650D01*
X02635189Y01069816D01*
Y01067277D01*
X02632650Y01064737D01*
X02630110D01*
X02632650D01*
X02635189Y01062198D01*
Y01059659D01*
X02632650Y01057120D01*
X02627571D01*
X02625032Y01059659D01*
X02640267Y01057120D02*
Y01067277D01*
X02642806D01*
X02645345Y01064737D01*
Y01057120D01*
Y01064737D01*
X02647885Y01067277D01*
X02650424Y01064737D01*
Y01057120D01*
X02655502D02*
Y01067277D01*
X02658041D01*
X02660580Y01064737D01*
Y01057120D01*
Y01064737D01*
X02663120Y01067277D01*
X02665659Y01064737D01*
Y01057120D01*
X02566631Y01100296D02*
X02569170Y01102835D01*
X02574248D01*
X02576788Y01100296D01*
Y01090139D01*
X02574248Y01087600D01*
X02569170D01*
X02566631Y01090139D01*
Y01100296D01*
X02581866Y01087600D02*
Y01090139D01*
X02584405D01*
Y01087600D01*
X02581866D01*
X02594562D02*
X02599640D01*
X02597101D01*
Y01102835D01*
X02594562Y01100296D01*
X02607258Y01087600D02*
X02612336D01*
X02609797D01*
Y01102835D01*
X02607258Y01100296D01*
X02619954D02*
X02622493Y01102835D01*
X02627571D01*
X02630110Y01100296D01*
Y01090139D01*
X02627571Y01087600D01*
X02622493D01*
X02619954Y01090139D01*
Y01100296D01*
X02635189Y01087600D02*
Y01097757D01*
X02637728D01*
X02640267Y01095218D01*
Y01087600D01*
Y01095218D01*
X02642806Y01097757D01*
X02645345Y01095218D01*
Y01087600D01*
X02650424D02*
Y01097757D01*
X02652963D01*
X02655502Y01095218D01*
Y01087600D01*
Y01095218D01*
X02658041Y01097757D01*
X02660580Y01095218D01*
Y01087600D01*
X02566631Y01130776D02*
X02569170Y01133315D01*
X02574248D01*
X02576788Y01130776D01*
Y01120619D01*
X02574248Y01118080D01*
X02569170D01*
X02566631Y01120619D01*
Y01130776D01*
X02581866Y01118080D02*
Y01120619D01*
X02584405D01*
Y01118080D01*
X02581866D01*
X02594562Y01130776D02*
X02597101Y01133315D01*
X02602179D01*
X02604719Y01130776D01*
Y01120619D01*
X02602179Y01118080D01*
X02597101D01*
X02594562Y01120619D01*
Y01130776D01*
X02609797Y01118080D02*
X02614875D01*
X02612336D01*
Y01133315D01*
X02609797Y01130776D01*
X02622493D02*
X02625032Y01133315D01*
X02630110D01*
X02632650Y01130776D01*
Y01128237D01*
X02630110Y01125697D01*
X02632650Y01123158D01*
Y01120619D01*
X02630110Y01118080D01*
X02625032D01*
X02622493Y01120619D01*
Y01123158D01*
X02625032Y01125697D01*
X02622493Y01128237D01*
Y01130776D01*
X02625032Y01125697D02*
X02630110D01*
X02637728Y01118080D02*
Y01128237D01*
X02640267D01*
X02642806Y01125697D01*
Y01118080D01*
Y01125697D01*
X02645345Y01128237D01*
X02647885Y01125697D01*
Y01118080D01*
X02652963D02*
Y01128237D01*
X02655502D01*
X02658041Y01125697D01*
Y01118080D01*
Y01125697D01*
X02660580Y01128237D01*
X02663120Y01125697D01*
Y01118080D01*
X02566631Y01161256D02*
X02569170Y01163795D01*
X02574248D01*
X02576788Y01161256D01*
Y01151099D01*
X02574248Y01148560D01*
X02569170D01*
X02566631Y01151099D01*
Y01161256D01*
X02581866Y01148560D02*
Y01151099D01*
X02584405D01*
Y01148560D01*
X02581866D01*
X02594562Y01161256D02*
X02597101Y01163795D01*
X02602179D01*
X02604719Y01161256D01*
Y01158717D01*
X02602179Y01156178D01*
X02599640D01*
X02602179D01*
X02604719Y01153638D01*
Y01151099D01*
X02602179Y01148560D01*
X02597101D01*
X02594562Y01151099D01*
X02609797Y01161256D02*
X02612336Y01163795D01*
X02617415D01*
X02619954Y01161256D01*
Y01151099D01*
X02617415Y01148560D01*
X02612336D01*
X02609797Y01151099D01*
Y01161256D01*
X02625032D02*
X02627571Y01163795D01*
X02632650D01*
X02635189Y01161256D01*
Y01151099D01*
X02632650Y01148560D01*
X02627571D01*
X02625032Y01151099D01*
Y01161256D01*
X02640267Y01148560D02*
Y01158717D01*
X02642806D01*
X02645345Y01156178D01*
Y01148560D01*
Y01156178D01*
X02647885Y01158717D01*
X02650424Y01156178D01*
Y01148560D01*
X02655502D02*
Y01158717D01*
X02658041D01*
X02660580Y01156178D01*
Y01148560D01*
Y01156178D01*
X02663120Y01158717D01*
X02665659Y01156178D01*
Y01148560D01*
X02566631Y01191736D02*
X02569170Y01194275D01*
X02574248D01*
X02576788Y01191736D01*
Y01181579D01*
X02574248Y01179040D01*
X02569170D01*
X02566631Y01181579D01*
Y01191736D01*
X02581866Y01179040D02*
Y01181579D01*
X02584405D01*
Y01179040D01*
X02581866D01*
X02594562Y01191736D02*
X02597101Y01194275D01*
X02602179D01*
X02604719Y01191736D01*
Y01181579D01*
X02602179Y01179040D01*
X02597101D01*
X02594562Y01181579D01*
Y01191736D01*
X02609797Y01179040D02*
X02614875D01*
X02612336D01*
Y01194275D01*
X02609797Y01191736D01*
X02622493D02*
X02625032Y01194275D01*
X02630110D01*
X02632650Y01191736D01*
Y01189197D01*
X02630110Y01186657D01*
X02632650Y01184118D01*
Y01181579D01*
X02630110Y01179040D01*
X02625032D01*
X02622493Y01181579D01*
Y01184118D01*
X02625032Y01186657D01*
X02622493Y01189197D01*
Y01191736D01*
X02625032Y01186657D02*
X02630110D01*
X02637728Y01179040D02*
Y01189197D01*
X02640267D01*
X02642806Y01186657D01*
Y01179040D01*
Y01186657D01*
X02645345Y01189197D01*
X02647885Y01186657D01*
Y01179040D01*
X02652963D02*
Y01189197D01*
X02655502D01*
X02658041Y01186657D01*
Y01179040D01*
Y01186657D01*
X02660580Y01189197D01*
X02663120Y01186657D01*
Y01179040D01*
X02566631Y01222216D02*
X02569170Y01224755D01*
X02574248D01*
X02576788Y01222216D01*
Y01212059D01*
X02574248Y01209520D01*
X02569170D01*
X02566631Y01212059D01*
Y01222216D01*
X02581866Y01209520D02*
Y01212059D01*
X02584405D01*
Y01209520D01*
X02581866D01*
X02594562D02*
X02599640D01*
X02597101D01*
Y01224755D01*
X02594562Y01222216D01*
X02607258Y01209520D02*
X02612336D01*
X02609797D01*
Y01224755D01*
X02607258Y01222216D01*
X02619954D02*
X02622493Y01224755D01*
X02627571D01*
X02630110Y01222216D01*
Y01212059D01*
X02627571Y01209520D01*
X02622493D01*
X02619954Y01212059D01*
Y01222216D01*
X02635189Y01209520D02*
Y01219677D01*
X02637728D01*
X02640267Y01217138D01*
Y01209520D01*
Y01217138D01*
X02642806Y01219677D01*
X02645345Y01217138D01*
Y01209520D01*
X02650424D02*
Y01219677D01*
X02652963D01*
X02655502Y01217138D01*
Y01209520D01*
Y01217138D01*
X02658041Y01219677D01*
X02660580Y01217138D01*
Y01209520D01*
X02566631Y01252696D02*
X02569170Y01255235D01*
X02574248D01*
X02576788Y01252696D01*
Y01242539D01*
X02574248Y01240000D01*
X02569170D01*
X02566631Y01242539D01*
Y01252696D01*
X02581866Y01240000D02*
Y01242539D01*
X02584405D01*
Y01240000D01*
X02581866D01*
X02594562Y01252696D02*
X02597101Y01255235D01*
X02602179D01*
X02604719Y01252696D01*
Y01242539D01*
X02602179Y01240000D01*
X02597101D01*
X02594562Y01242539D01*
Y01252696D01*
X02609797D02*
X02612336Y01255235D01*
X02617415D01*
X02619954Y01252696D01*
Y01250157D01*
X02617415Y01247617D01*
X02614875D01*
X02617415D01*
X02619954Y01245078D01*
Y01242539D01*
X02617415Y01240000D01*
X02612336D01*
X02609797Y01242539D01*
X02635189Y01255235D02*
X02625032D01*
Y01247617D01*
X02630110Y01250157D01*
X02632650D01*
X02635189Y01247617D01*
Y01242539D01*
X02632650Y01240000D01*
X02627571D01*
X02625032Y01242539D01*
X02640267Y01240000D02*
Y01250157D01*
X02642806D01*
X02645345Y01247617D01*
Y01240000D01*
Y01247617D01*
X02647885Y01250157D01*
X02650424Y01247617D01*
Y01240000D01*
X02655502D02*
Y01250157D01*
X02658041D01*
X02660580Y01247617D01*
Y01240000D01*
Y01247617D01*
X02663120Y01250157D01*
X02665659Y01247617D01*
Y01240000D01*
X02566631Y01283176D02*
X02569170Y01285715D01*
X02574248D01*
X02576788Y01283176D01*
Y01273019D01*
X02574248Y01270480D01*
X02569170D01*
X02566631Y01273019D01*
Y01283176D01*
X02581866Y01270480D02*
Y01273019D01*
X02584405D01*
Y01270480D01*
X02581866D01*
X02594562Y01283176D02*
X02597101Y01285715D01*
X02602179D01*
X02604719Y01283176D01*
Y01280637D01*
X02602179Y01278098D01*
X02599640D01*
X02602179D01*
X02604719Y01275558D01*
Y01273019D01*
X02602179Y01270480D01*
X02597101D01*
X02594562Y01273019D01*
X02609797Y01283176D02*
X02612336Y01285715D01*
X02617415D01*
X02619954Y01283176D01*
Y01273019D01*
X02617415Y01270480D01*
X02612336D01*
X02609797Y01273019D01*
Y01283176D01*
X02625032D02*
X02627571Y01285715D01*
X02632650D01*
X02635189Y01283176D01*
Y01273019D01*
X02632650Y01270480D01*
X02627571D01*
X02625032Y01273019D01*
Y01283176D01*
X02640267Y01270480D02*
Y01280637D01*
X02642806D01*
X02645345Y01278098D01*
Y01270480D01*
Y01278098D01*
X02647885Y01280637D01*
X02650424Y01278098D01*
Y01270480D01*
X02655502D02*
Y01280637D01*
X02658041D01*
X02660580Y01278098D01*
Y01270480D01*
Y01278098D01*
X02663120Y01280637D01*
X02665659Y01278098D01*
Y01270480D01*
X02566631Y01313656D02*
X02569170Y01316195D01*
X02574248D01*
X02576788Y01313656D01*
Y01303499D01*
X02574248Y01300960D01*
X02569170D01*
X02566631Y01303499D01*
Y01313656D01*
X02581866Y01300960D02*
Y01303499D01*
X02584405D01*
Y01300960D01*
X02581866D01*
X02594562Y01313656D02*
X02597101Y01316195D01*
X02602179D01*
X02604719Y01313656D01*
Y01303499D01*
X02602179Y01300960D01*
X02597101D01*
X02594562Y01303499D01*
Y01313656D01*
X02609797D02*
X02612336Y01316195D01*
X02617415D01*
X02619954Y01313656D01*
Y01311117D01*
X02617415Y01308578D01*
X02614875D01*
X02617415D01*
X02619954Y01306038D01*
Y01303499D01*
X02617415Y01300960D01*
X02612336D01*
X02609797Y01303499D01*
X02635189Y01316195D02*
X02625032D01*
Y01308578D01*
X02630110Y01311117D01*
X02632650D01*
X02635189Y01308578D01*
Y01303499D01*
X02632650Y01300960D01*
X02627571D01*
X02625032Y01303499D01*
X02640267Y01300960D02*
Y01311117D01*
X02642806D01*
X02645345Y01308578D01*
Y01300960D01*
Y01308578D01*
X02647885Y01311117D01*
X02650424Y01308578D01*
Y01300960D01*
X02655502D02*
Y01311117D01*
X02658041D01*
X02660580Y01308578D01*
Y01300960D01*
Y01308578D01*
X02663120Y01311117D01*
X02665659Y01308578D01*
Y01300960D01*
X02566631Y01344136D02*
X02569170Y01346675D01*
X02574248D01*
X02576788Y01344136D01*
Y01333979D01*
X02574248Y01331440D01*
X02569170D01*
X02566631Y01333979D01*
Y01344136D01*
X02581866Y01331440D02*
Y01333979D01*
X02584405D01*
Y01331440D01*
X02581866D01*
X02594562D02*
X02599640D01*
X02597101D01*
Y01346675D01*
X02594562Y01344136D01*
X02607258Y01331440D02*
X02612336D01*
X02609797D01*
Y01346675D01*
X02607258Y01344136D01*
X02619954D02*
X02622493Y01346675D01*
X02627571D01*
X02630110Y01344136D01*
Y01333979D01*
X02627571Y01331440D01*
X02622493D01*
X02619954Y01333979D01*
Y01344136D01*
X02635189Y01331440D02*
Y01341597D01*
X02637728D01*
X02640267Y01339057D01*
Y01331440D01*
Y01339057D01*
X02642806Y01341597D01*
X02645345Y01339057D01*
Y01331440D01*
X02650424D02*
Y01341597D01*
X02652963D01*
X02655502Y01339057D01*
Y01331440D01*
Y01339057D01*
X02658041Y01341597D01*
X02660580Y01339057D01*
Y01331440D01*
X02566631Y01374616D02*
X02569170Y01377155D01*
X02574248D01*
X02576788Y01374616D01*
Y01364459D01*
X02574248Y01361920D01*
X02569170D01*
X02566631Y01364459D01*
Y01374616D01*
X02581866Y01361920D02*
Y01364459D01*
X02584405D01*
Y01361920D01*
X02581866D01*
X02594562Y01374616D02*
X02597101Y01377155D01*
X02602179D01*
X02604719Y01374616D01*
Y01364459D01*
X02602179Y01361920D01*
X02597101D01*
X02594562Y01364459D01*
Y01374616D01*
X02609797Y01361920D02*
X02614875D01*
X02612336D01*
Y01377155D01*
X02609797Y01374616D01*
X02622493D02*
X02625032Y01377155D01*
X02630110D01*
X02632650Y01374616D01*
Y01372077D01*
X02630110Y01369538D01*
X02632650Y01366998D01*
Y01364459D01*
X02630110Y01361920D01*
X02625032D01*
X02622493Y01364459D01*
Y01366998D01*
X02625032Y01369538D01*
X02622493Y01372077D01*
Y01374616D01*
X02625032Y01369538D02*
X02630110D01*
X02637728Y01361920D02*
Y01372077D01*
X02640267D01*
X02642806Y01369538D01*
Y01361920D01*
Y01369538D01*
X02645345Y01372077D01*
X02647885Y01369538D01*
Y01361920D01*
X02652963D02*
Y01372077D01*
X02655502D01*
X02658041Y01369538D01*
Y01361920D01*
Y01369538D01*
X02660580Y01372077D01*
X02663120Y01369538D01*
Y01361920D01*
X02566631Y01405096D02*
X02569170Y01407635D01*
X02574248D01*
X02576788Y01405096D01*
Y01394939D01*
X02574248Y01392400D01*
X02569170D01*
X02566631Y01394939D01*
Y01405096D01*
X02581866Y01392400D02*
Y01394939D01*
X02584405D01*
Y01392400D01*
X02581866D01*
X02594562Y01405096D02*
X02597101Y01407635D01*
X02602179D01*
X02604719Y01405096D01*
Y01402557D01*
X02602179Y01400018D01*
X02599640D01*
X02602179D01*
X02604719Y01397478D01*
Y01394939D01*
X02602179Y01392400D01*
X02597101D01*
X02594562Y01394939D01*
X02609797Y01405096D02*
X02612336Y01407635D01*
X02617415D01*
X02619954Y01405096D01*
Y01394939D01*
X02617415Y01392400D01*
X02612336D01*
X02609797Y01394939D01*
Y01405096D01*
X02625032D02*
X02627571Y01407635D01*
X02632650D01*
X02635189Y01405096D01*
Y01394939D01*
X02632650Y01392400D01*
X02627571D01*
X02625032Y01394939D01*
Y01405096D01*
X02640267Y01392400D02*
Y01402557D01*
X02642806D01*
X02645345Y01400018D01*
Y01392400D01*
Y01400018D01*
X02647885Y01402557D01*
X02650424Y01400018D01*
Y01392400D01*
X02655502D02*
Y01402557D01*
X02658041D01*
X02660580Y01400018D01*
Y01392400D01*
Y01400018D01*
X02663120Y01402557D01*
X02665659Y01400018D01*
Y01392400D01*
X02566631Y01435576D02*
X02569170Y01438115D01*
X02574248D01*
X02576788Y01435576D01*
Y01425419D01*
X02574248Y01422880D01*
X02569170D01*
X02566631Y01425419D01*
Y01435576D01*
X02581866Y01422880D02*
Y01425419D01*
X02584405D01*
Y01422880D01*
X02581866D01*
X02594562Y01435576D02*
X02597101Y01438115D01*
X02602179D01*
X02604719Y01435576D01*
Y01425419D01*
X02602179Y01422880D01*
X02597101D01*
X02594562Y01425419D01*
Y01435576D01*
X02609797Y01422880D02*
X02614875D01*
X02612336D01*
Y01438115D01*
X02609797Y01435576D01*
X02622493D02*
X02625032Y01438115D01*
X02630110D01*
X02632650Y01435576D01*
Y01433037D01*
X02630110Y01430497D01*
X02632650Y01427958D01*
Y01425419D01*
X02630110Y01422880D01*
X02625032D01*
X02622493Y01425419D01*
Y01427958D01*
X02625032Y01430497D01*
X02622493Y01433037D01*
Y01435576D01*
X02625032Y01430497D02*
X02630110D01*
X02637728Y01422880D02*
Y01433037D01*
X02640267D01*
X02642806Y01430497D01*
Y01422880D01*
Y01430497D01*
X02645345Y01433037D01*
X02647885Y01430497D01*
Y01422880D01*
X02652963D02*
Y01433037D01*
X02655502D01*
X02658041Y01430497D01*
Y01422880D01*
Y01430497D01*
X02660580Y01433037D01*
X02663120Y01430497D01*
Y01422880D01*
X02566631Y01466056D02*
X02569170Y01468595D01*
X02574248D01*
X02576788Y01466056D01*
Y01455899D01*
X02574248Y01453360D01*
X02569170D01*
X02566631Y01455899D01*
Y01466056D01*
X02581866Y01453360D02*
Y01455899D01*
X02584405D01*
Y01453360D01*
X02581866D01*
X02594562D02*
X02599640D01*
X02597101D01*
Y01468595D01*
X02594562Y01466056D01*
X02607258Y01453360D02*
X02612336D01*
X02609797D01*
Y01468595D01*
X02607258Y01466056D01*
X02619954D02*
X02622493Y01468595D01*
X02627571D01*
X02630110Y01466056D01*
Y01455899D01*
X02627571Y01453360D01*
X02622493D01*
X02619954Y01455899D01*
Y01466056D01*
X02635189Y01453360D02*
Y01463517D01*
X02637728D01*
X02640267Y01460977D01*
Y01453360D01*
Y01460977D01*
X02642806Y01463517D01*
X02645345Y01460977D01*
Y01453360D01*
X02650424D02*
Y01463517D01*
X02652963D01*
X02655502Y01460977D01*
Y01453360D01*
Y01460977D01*
X02658041Y01463517D01*
X02660580Y01460977D01*
Y01453360D01*
X02566631Y01496536D02*
X02569170Y01499075D01*
X02574248D01*
X02576788Y01496536D01*
Y01486379D01*
X02574248Y01483840D01*
X02569170D01*
X02566631Y01486379D01*
Y01496536D01*
X02581866Y01483840D02*
Y01486379D01*
X02584405D01*
Y01483840D01*
X02581866D01*
X02594562Y01496536D02*
X02597101Y01499075D01*
X02602179D01*
X02604719Y01496536D01*
Y01486379D01*
X02602179Y01483840D01*
X02597101D01*
X02594562Y01486379D01*
Y01496536D01*
X02619954Y01499075D02*
X02609797D01*
Y01491458D01*
X02614875Y01493997D01*
X02617415D01*
X02619954Y01491458D01*
Y01486379D01*
X02617415Y01483840D01*
X02612336D01*
X02609797Y01486379D01*
X02625032Y01496536D02*
X02627571Y01499075D01*
X02632650D01*
X02635189Y01496536D01*
Y01493997D01*
X02632650Y01491458D01*
X02630110D01*
X02632650D01*
X02635189Y01488918D01*
Y01486379D01*
X02632650Y01483840D01*
X02627571D01*
X02625032Y01486379D01*
X02640267Y01483840D02*
Y01493997D01*
X02642806D01*
X02645345Y01491458D01*
Y01483840D01*
Y01491458D01*
X02647885Y01493997D01*
X02650424Y01491458D01*
Y01483840D01*
X02655502D02*
Y01493997D01*
X02658041D01*
X02660580Y01491458D01*
Y01483840D01*
Y01491458D01*
X02663120Y01493997D01*
X02665659Y01491458D01*
Y01483840D01*
X02566631Y01527016D02*
X02569170Y01529555D01*
X02574248D01*
X02576788Y01527016D01*
Y01516859D01*
X02574248Y01514320D01*
X02569170D01*
X02566631Y01516859D01*
Y01527016D01*
X02581866Y01514320D02*
Y01516859D01*
X02584405D01*
Y01514320D01*
X02581866D01*
X02594562Y01527016D02*
X02597101Y01529555D01*
X02602179D01*
X02604719Y01527016D01*
Y01516859D01*
X02602179Y01514320D01*
X02597101D01*
X02594562Y01516859D01*
Y01527016D01*
X02609797Y01514320D02*
X02614875D01*
X02612336D01*
Y01529555D01*
X02609797Y01527016D01*
X02622493D02*
X02625032Y01529555D01*
X02630110D01*
X02632650Y01527016D01*
Y01516859D01*
X02630110Y01514320D01*
X02625032D01*
X02622493Y01516859D01*
Y01527016D01*
X02637728Y01514320D02*
Y01524477D01*
X02640267D01*
X02642806Y01521938D01*
Y01514320D01*
Y01521938D01*
X02645345Y01524477D01*
X02647885Y01521938D01*
Y01514320D01*
X02652963D02*
Y01524477D01*
X02655502D01*
X02658041Y01521938D01*
Y01514320D01*
Y01521938D01*
X02660580Y01524477D01*
X02663120Y01521938D01*
Y01514320D01*
X02741846Y01587976D02*
X02739307Y01590515D01*
X02734228D01*
X02731689Y01587976D01*
Y01577819D01*
X02734228Y01575280D01*
X02739307D01*
X02741846Y01577819D01*
X02749463Y01575280D02*
X02754542D01*
X02757081Y01577819D01*
Y01582897D01*
X02754542Y01585437D01*
X02749463D01*
X02746924Y01582897D01*
Y01577819D01*
X02749463Y01575280D01*
X02762159D02*
Y01585437D01*
X02769777D01*
X02772316Y01582897D01*
Y01575280D01*
X02777394D02*
X02785012D01*
X02787551Y01577819D01*
X02785012Y01580358D01*
X02779933D01*
X02777394Y01582897D01*
X02779933Y01585437D01*
X02787551D01*
X02795168Y01587976D02*
Y01585437D01*
X02792629D01*
X02797708D01*
X02795168D01*
Y01577819D01*
X02797708Y01575280D01*
X02807864Y01585437D02*
X02812943D01*
X02815482Y01582897D01*
Y01575280D01*
X02807864D01*
X02805325Y01577819D01*
X02807864Y01580358D01*
X02815482D01*
X02820560Y01575280D02*
Y01585437D01*
X02828178D01*
X02830717Y01582897D01*
Y01575280D01*
X02838334Y01587976D02*
Y01585437D01*
X02835795D01*
X02840874D01*
X02838334D01*
Y01577819D01*
X02840874Y01575280D01*
X02731689Y01039336D02*
X02734228Y01041875D01*
X02739307D01*
X02741846Y01039336D01*
Y01036797D01*
X02739307Y01034258D01*
X02736767D01*
X02739307D01*
X02741846Y01031718D01*
Y01029179D01*
X02739307Y01026640D01*
X02734228D01*
X02731689Y01029179D01*
X02746924Y01026640D02*
Y01029179D01*
X02749463D01*
Y01026640D01*
X02746924D01*
X02769777Y01041875D02*
X02759620D01*
Y01034258D01*
X02764698Y01036797D01*
X02767238D01*
X02769777Y01034258D01*
Y01029179D01*
X02767238Y01026640D01*
X02762159D01*
X02759620Y01029179D01*
X02739307Y01087600D02*
Y01102835D01*
X02731689Y01095218D01*
X02741846D01*
X02746924Y01087600D02*
Y01090139D01*
X02749463D01*
Y01087600D01*
X02746924D01*
X02769777D02*
X02759620D01*
X02769777Y01097757D01*
Y01100296D01*
X02767238Y01102835D01*
X02762159D01*
X02759620Y01100296D01*
X02739307Y01148560D02*
Y01163795D01*
X02731689Y01156178D01*
X02741846D01*
X02746924Y01148560D02*
Y01151099D01*
X02749463D01*
Y01148560D01*
X02746924D01*
X02769777D02*
X02759620D01*
X02769777Y01158717D01*
Y01161256D01*
X02767238Y01163795D01*
X02762159D01*
X02759620Y01161256D01*
X02739307Y01209520D02*
Y01224755D01*
X02731689Y01217138D01*
X02741846D01*
X02746924Y01209520D02*
Y01212059D01*
X02749463D01*
Y01209520D01*
X02746924D01*
X02769777D02*
X02759620D01*
X02769777Y01219677D01*
Y01222216D01*
X02767238Y01224755D01*
X02762159D01*
X02759620Y01222216D01*
X02739307Y01270480D02*
Y01285715D01*
X02731689Y01278098D01*
X02741846D01*
X02746924Y01270480D02*
Y01273019D01*
X02749463D01*
Y01270480D01*
X02746924D01*
X02769777D02*
X02759620D01*
X02769777Y01280637D01*
Y01283176D01*
X02767238Y01285715D01*
X02762159D01*
X02759620Y01283176D01*
X02739307Y01331440D02*
Y01346675D01*
X02731689Y01339057D01*
X02741846D01*
X02746924Y01331440D02*
Y01333979D01*
X02749463D01*
Y01331440D01*
X02746924D01*
X02769777D02*
X02759620D01*
X02769777Y01341597D01*
Y01344136D01*
X02767238Y01346675D01*
X02762159D01*
X02759620Y01344136D01*
X02739307Y01392400D02*
Y01407635D01*
X02731689Y01400018D01*
X02741846D01*
X02746924Y01392400D02*
Y01394939D01*
X02749463D01*
Y01392400D01*
X02746924D01*
X02769777D02*
X02759620D01*
X02769777Y01402557D01*
Y01405096D01*
X02767238Y01407635D01*
X02762159D01*
X02759620Y01405096D01*
X02739307Y01453360D02*
Y01468595D01*
X02731689Y01460977D01*
X02741846D01*
X02746924Y01453360D02*
Y01455899D01*
X02749463D01*
Y01453360D01*
X02746924D01*
X02769777D02*
X02759620D01*
X02769777Y01463517D01*
Y01466056D01*
X02767238Y01468595D01*
X02762159D01*
X02759620Y01466056D01*
X02731689Y01527016D02*
X02734228Y01529555D01*
X02739307D01*
X02741846Y01527016D01*
Y01524477D01*
X02739307Y01521938D01*
X02736767D01*
X02739307D01*
X02741846Y01519398D01*
Y01516859D01*
X02739307Y01514320D01*
X02734228D01*
X02731689Y01516859D01*
X02746924Y01514320D02*
Y01516859D01*
X02749463D01*
Y01514320D01*
X02746924D01*
X02769777Y01529555D02*
X02759620D01*
Y01521938D01*
X02764698Y01524477D01*
X02767238D01*
X02769777Y01521938D01*
Y01516859D01*
X02767238Y01514320D01*
X02762159D01*
X02759620Y01516859D01*
X02876434Y01590515D02*
Y01575280D01*
X02884051D01*
X02886590Y01577819D01*
Y01580358D01*
X02884051Y01582897D01*
X02876434D01*
X02884051D01*
X02886590Y01585437D01*
Y01587976D01*
X02884051Y01590515D01*
X02876434D01*
X02894208Y01575280D02*
X02899286D01*
X02901825Y01577819D01*
Y01582897D01*
X02899286Y01585437D01*
X02894208D01*
X02891669Y01582897D01*
Y01577819D01*
X02894208Y01575280D01*
X02909443Y01585437D02*
X02914521D01*
X02917061Y01582897D01*
Y01575280D01*
X02909443D01*
X02906904Y01577819D01*
X02909443Y01580358D01*
X02917061D01*
X02922139Y01585437D02*
Y01575280D01*
Y01580358D01*
X02924678Y01582897D01*
X02927217Y01585437D01*
X02929756D01*
X02947531Y01590515D02*
Y01575280D01*
X02939913D01*
X02937374Y01577819D01*
Y01582897D01*
X02939913Y01585437D01*
X02947531D01*
X02967844Y01590515D02*
Y01575280D01*
X02978001D01*
X02985618Y01585437D02*
X02990697D01*
X02993236Y01582897D01*
Y01575280D01*
X02985618D01*
X02983079Y01577819D01*
X02985618Y01580358D01*
X02993236D01*
X02998314Y01585437D02*
Y01577819D01*
X03000853Y01575280D01*
X03008471D01*
Y01572741D01*
X03005932Y01570202D01*
X03003393D01*
X03008471Y01575280D02*
Y01585437D01*
X03021167Y01575280D02*
X03016089D01*
X03013549Y01577819D01*
Y01582897D01*
X03016089Y01585437D01*
X03021167D01*
X03023706Y01582897D01*
Y01580358D01*
X03013549D01*
X03028784Y01585437D02*
Y01575280D01*
Y01580358D01*
X03031324Y01582897D01*
X03033863Y01585437D01*
X03036402D01*
X03069411Y01587976D02*
X03066872Y01590515D01*
X03061794D01*
X03059254Y01587976D01*
Y01585437D01*
X03061794Y01582897D01*
X03066872D01*
X03069411Y01580358D01*
Y01577819D01*
X03066872Y01575280D01*
X03061794D01*
X03059254Y01577819D01*
X03077029Y01587976D02*
Y01585437D01*
X03074490D01*
X03079568D01*
X03077029D01*
Y01577819D01*
X03079568Y01575280D01*
X03089725Y01585437D02*
X03094803D01*
X03097342Y01582897D01*
Y01575280D01*
X03089725D01*
X03087185Y01577819D01*
X03089725Y01580358D01*
X03097342D01*
X03112577Y01585437D02*
X03104960D01*
X03102420Y01582897D01*
Y01577819D01*
X03104960Y01575280D01*
X03112577D01*
X03117656D02*
Y01590515D01*
Y01580358D02*
X03125273Y01585437D01*
X03117656Y01580358D02*
X03125273Y01575280D01*
X03160833Y01590515D02*
Y01575280D01*
X03168451D01*
X03170990Y01577819D01*
Y01580358D01*
X03168451Y01582897D01*
X03160833D01*
X03168451D01*
X03170990Y01585437D01*
Y01587976D01*
X03168451Y01590515D01*
X03160833D01*
X03178607Y01575280D02*
X03183686D01*
X03186225Y01577819D01*
Y01582897D01*
X03183686Y01585437D01*
X03178607D01*
X03176068Y01582897D01*
Y01577819D01*
X03178607Y01575280D01*
X03193842Y01585437D02*
X03198921D01*
X03201460Y01582897D01*
Y01575280D01*
X03193842D01*
X03191303Y01577819D01*
X03193842Y01580358D01*
X03201460D01*
X03206538Y01585437D02*
Y01575280D01*
Y01580358D01*
X03209077Y01582897D01*
X03211617Y01585437D01*
X03214156D01*
X03231930Y01590515D02*
Y01575280D01*
X03224313D01*
X03221773Y01577819D01*
Y01582897D01*
X03224313Y01585437D01*
X03231930D01*
X03252244Y01590515D02*
Y01575280D01*
X03262400D01*
X03270018Y01585437D02*
X03275096D01*
X03277635Y01582897D01*
Y01575280D01*
X03270018D01*
X03267479Y01577819D01*
X03270018Y01580358D01*
X03277635D01*
X03282714Y01585437D02*
Y01577819D01*
X03285253Y01575280D01*
X03292870D01*
Y01572741D01*
X03290331Y01570202D01*
X03287792D01*
X03292870Y01575280D02*
Y01585437D01*
X03305566Y01575280D02*
X03300488D01*
X03297949Y01577819D01*
Y01582897D01*
X03300488Y01585437D01*
X03305566D01*
X03308105Y01582897D01*
Y01580358D01*
X03297949D01*
X03313184Y01585437D02*
Y01575280D01*
Y01580358D01*
X03315723Y01582897D01*
X03318262Y01585437D01*
X03320801D01*
X03353811Y01587976D02*
X03351271Y01590515D01*
X03346193D01*
X03343654Y01587976D01*
Y01585437D01*
X03346193Y01582897D01*
X03351271D01*
X03353811Y01580358D01*
Y01577819D01*
X03351271Y01575280D01*
X03346193D01*
X03343654Y01577819D01*
X03361428Y01587976D02*
Y01585437D01*
X03358889D01*
X03363967D01*
X03361428D01*
Y01577819D01*
X03363967Y01575280D01*
X03374124Y01585437D02*
X03379203D01*
X03381742Y01582897D01*
Y01575280D01*
X03374124D01*
X03371585Y01577819D01*
X03374124Y01580358D01*
X03381742D01*
X03396977Y01585437D02*
X03389359D01*
X03386820Y01582897D01*
Y01577819D01*
X03389359Y01575280D01*
X03396977D01*
X03402055D02*
Y01590515D01*
Y01580358D02*
X03409673Y01585437D01*
X03402055Y01580358D02*
X03409673Y01575280D01*
D201*
X01992737Y01567660D02*
X03429993D01*
X01992737Y01598140D02*
X03429993D01*
X01992737Y00988540D02*
Y01598140D01*
Y00988540D02*
X02096855D01*
X01992737Y01019020D02*
X02096855D01*
X01992737Y01049500D02*
X02096855D01*
X01992737Y01079980D02*
X02096855D01*
X01992737Y01110460D02*
X02096855D01*
X01992737Y01140940D02*
X02096855D01*
X01992737Y01171420D02*
X02096855D01*
X01992737Y01201900D02*
X02096855D01*
X01992737Y01232380D02*
X02096855D01*
X01992737Y01262860D02*
X02096855D01*
X01992737Y01293340D02*
X02096855D01*
X01992737Y01323820D02*
X02096855D01*
X01992737Y01354300D02*
X02096855D01*
X01992737Y01384780D02*
X02096855D01*
X01992737Y01415260D02*
X02096855D01*
X01992737Y01445740D02*
X02096855D01*
X01992737Y01476220D02*
X02096855D01*
X01992737Y01506700D02*
X02096855D01*
X01992737Y01537180D02*
X02096855D01*
Y00988540D02*
Y01598140D01*
Y00988540D02*
X02333010D01*
X02096855Y01019020D02*
X02333010D01*
X02096855Y01049500D02*
X02333010D01*
X02096855Y01079980D02*
X02333010D01*
X02096855Y01110460D02*
X02333010D01*
X02096855Y01140940D02*
X02333010D01*
X02096855Y01171420D02*
X02333010D01*
X02096855Y01201900D02*
X02333010D01*
X02096855Y01232380D02*
X02333010D01*
X02096855Y01262860D02*
X02333010D01*
X02096855Y01293340D02*
X02333010D01*
X02096855Y01323820D02*
X02333010D01*
X02096855Y01354300D02*
X02333010D01*
X02096855Y01384780D02*
X02333010D01*
X02096855Y01415260D02*
X02333010D01*
X02096855Y01445740D02*
X02333010D01*
X02096855Y01476220D02*
X02333010D01*
X02096855Y01506700D02*
X02333010D01*
X02096855Y01537180D02*
X02333010D01*
Y00988540D02*
Y01598140D01*
Y00988540D02*
X02551391D01*
X02333010Y01019020D02*
X02551391D01*
X02333010Y01049500D02*
X02551391D01*
X02333010Y01079980D02*
X02551391D01*
X02333010Y01110460D02*
X02551391D01*
X02333010Y01140940D02*
X02551391D01*
X02333010Y01171420D02*
X02551391D01*
X02333010Y01201900D02*
X02551391D01*
X02333010Y01232380D02*
X02551391D01*
X02333010Y01262860D02*
X02551391D01*
X02333010Y01293340D02*
X02551391D01*
X02333010Y01323820D02*
X02551391D01*
X02333010Y01354300D02*
X02551391D01*
X02333010Y01384780D02*
X02551391D01*
X02333010Y01415260D02*
X02551391D01*
X02333010Y01445740D02*
X02551391D01*
X02333010Y01476220D02*
X02551391D01*
X02333010Y01506700D02*
X02551391D01*
X02333010Y01537180D02*
X02551391D01*
Y00988540D02*
Y01598140D01*
Y00988540D02*
X02716449D01*
X02551391Y01019020D02*
X02716449D01*
X02551391Y01049500D02*
X02716449D01*
X02551391Y01079980D02*
X02716449D01*
X02551391Y01110460D02*
X02716449D01*
X02551391Y01140940D02*
X02716449D01*
X02551391Y01171420D02*
X02716449D01*
X02551391Y01201900D02*
X02716449D01*
X02551391Y01232380D02*
X02716449D01*
X02551391Y01262860D02*
X02716449D01*
X02551391Y01293340D02*
X02716449D01*
X02551391Y01323820D02*
X02716449D01*
X02551391Y01354300D02*
X02716449D01*
X02551391Y01384780D02*
X02716449D01*
X02551391Y01415260D02*
X02716449D01*
X02551391Y01445740D02*
X02716449D01*
X02551391Y01476220D02*
X02716449D01*
X02551391Y01506700D02*
X02716449D01*
X02551391Y01537180D02*
X02716449D01*
Y00988540D02*
Y01598140D01*
Y00988540D02*
X02861194D01*
X02716449Y01019020D02*
X02861194D01*
X02716449Y01049500D02*
X02861194D01*
X02716449Y01079980D02*
X02861194D01*
X02716449Y01110460D02*
X02861194D01*
X02716449Y01140940D02*
X02861194D01*
X02716449Y01171420D02*
X02861194D01*
X02716449Y01201900D02*
X02861194D01*
X02716449Y01232380D02*
X02861194D01*
X02716449Y01262860D02*
X02861194D01*
X02716449Y01293340D02*
X02861194D01*
X02716449Y01323820D02*
X02861194D01*
X02716449Y01354300D02*
X02861194D01*
X02716449Y01384780D02*
X02861194D01*
X02716449Y01415260D02*
X02861194D01*
X02716449Y01445740D02*
X02861194D01*
X02716449Y01476220D02*
X02861194D01*
X02716449Y01506700D02*
X02861194D01*
X02716449Y01537180D02*
X02861194D01*
Y00988540D02*
Y01598140D01*
Y00988540D02*
X03145593D01*
X02861194Y01019020D02*
X03145593D01*
X02861194Y01049500D02*
X03145593D01*
X02861194Y01079980D02*
X03145593D01*
X02861194Y01110460D02*
X03145593D01*
X02861194Y01140940D02*
X03145593D01*
X02861194Y01171420D02*
X03145593D01*
X02861194Y01201900D02*
X03145593D01*
X02861194Y01232380D02*
X03145593D01*
X02861194Y01262860D02*
X03145593D01*
X02861194Y01293340D02*
X03145593D01*
X02861194Y01323820D02*
X03145593D01*
X02861194Y01354300D02*
X03145593D01*
X02861194Y01384780D02*
X03145593D01*
X02861194Y01415260D02*
X03145593D01*
X02861194Y01445740D02*
X03145593D01*
X02861194Y01476220D02*
X03145593D01*
X02861194Y01506700D02*
X03145593D01*
X02861194Y01537180D02*
X03145593D01*
Y00988540D02*
Y01598140D01*
Y00988540D02*
X03429993D01*
X03145593Y01019020D02*
X03429993D01*
X03145593Y01049500D02*
X03429993D01*
X03145593Y01079980D02*
X03429993D01*
X03145593Y01110460D02*
X03429993D01*
X03145593Y01140940D02*
X03429993D01*
X03145593Y01171420D02*
X03429993D01*
X03145593Y01201900D02*
X03429993D01*
X03145593Y01232380D02*
X03429993D01*
X03145593Y01262860D02*
X03429993D01*
X03145593Y01293340D02*
X03429993D01*
X03145593Y01323820D02*
X03429993D01*
X03145593Y01354300D02*
X03429993D01*
X03145593Y01384780D02*
X03429993D01*
X03145593Y01415260D02*
X03429993D01*
X03145593Y01445740D02*
X03429993D01*
X03145593Y01476220D02*
X03429993D01*
X03145593Y01506700D02*
X03429993D01*
X03145593Y01537180D02*
X03429993D01*
Y00988540D02*
Y01598140D01*
D202*
X03130353Y00988540D02*
X03145593Y01003780D01*
X03115113Y00988540D02*
X03145593Y01019020D01*
X03099873Y00988540D02*
X03130353Y01019020D01*
X03084633Y00988540D02*
X03115113Y01019020D01*
X03069393Y00988540D02*
X03099873Y01019020D01*
X03054153Y00988540D02*
X03084633Y01019020D01*
X03038913Y00988540D02*
X03069393Y01019020D01*
X03023673Y00988540D02*
X03054153Y01019020D01*
X03008433Y00988540D02*
X03038913Y01019020D01*
X02993193Y00988540D02*
X03023673Y01019020D01*
X02977953Y00988540D02*
X03008433Y01019020D01*
X02962713Y00988540D02*
X02993193Y01019020D01*
X02947473Y00988540D02*
X02977953Y01019020D01*
X02932233Y00988540D02*
X02962713Y01019020D01*
X02916993Y00988540D02*
X02947473Y01019020D01*
X02901753Y00988540D02*
X02932233Y01019020D01*
X02886513Y00988540D02*
X02916993Y01019020D01*
X02871273Y00988540D02*
X02901753Y01019020D01*
X02861194Y00993700D02*
X02886513Y01019020D01*
X02861194Y01008941D02*
X02871273Y01019020D01*
X03130353D02*
X03145593Y01034260D01*
X03115113Y01019020D02*
X03145593Y01049500D01*
X03099873Y01019020D02*
X03130353Y01049500D01*
X03084633Y01019020D02*
X03115113Y01049500D01*
X03069393Y01019020D02*
X03099873Y01049500D01*
X03054153Y01019020D02*
X03084633Y01049500D01*
X03038913Y01019020D02*
X03069393Y01049500D01*
X03023673Y01019020D02*
X03054153Y01049500D01*
X03008433Y01019020D02*
X03038913Y01049500D01*
X02993193Y01019020D02*
X03023673Y01049500D01*
X02977953Y01019020D02*
X03008433Y01049500D01*
X02962713Y01019020D02*
X02993193Y01049500D01*
X02947473Y01019020D02*
X02977953Y01049500D01*
X02932233Y01019020D02*
X02962713Y01049500D01*
X02916993Y01019020D02*
X02947473Y01049500D01*
X02901753Y01019020D02*
X02932233Y01049500D01*
X02886513Y01019020D02*
X02916993Y01049500D01*
X02871273Y01019020D02*
X02901753Y01049500D01*
X02861194Y01024181D02*
X02886513Y01049500D01*
X02861194Y01039420D02*
X02871273Y01049500D01*
X03130353D02*
X03145593Y01064740D01*
X03115113Y01049500D02*
X03145593Y01079980D01*
X03099873Y01049500D02*
X03130353Y01079980D01*
X03084633Y01049500D02*
X03115113Y01079980D01*
X03069393Y01049500D02*
X03099873Y01079980D01*
X03054153Y01049500D02*
X03084633Y01079980D01*
X03038913Y01049500D02*
X03069393Y01079980D01*
X03023673Y01049500D02*
X03054153Y01079980D01*
X03008433Y01049500D02*
X03038913Y01079980D01*
X02993193Y01049500D02*
X03023673Y01079980D01*
X02977953Y01049500D02*
X03008433Y01079980D01*
X02962713Y01049500D02*
X02993193Y01079980D01*
X02947473Y01049500D02*
X02977953Y01079980D01*
X02932233Y01049500D02*
X02962713Y01079980D01*
X02916993Y01049500D02*
X02947473Y01079980D01*
X02901753Y01049500D02*
X02932233Y01079980D01*
X02886513Y01049500D02*
X02916993Y01079980D01*
X02871273Y01049500D02*
X02901753Y01079980D01*
X02861194Y01054660D02*
X02886513Y01079980D01*
X02861194Y01069901D02*
X02871273Y01079980D01*
X03130353D02*
X03145593Y01095220D01*
X03115113Y01079980D02*
X03145593Y01110460D01*
X03099873Y01079980D02*
X03130353Y01110460D01*
X03084633Y01079980D02*
X03115113Y01110460D01*
X03069393Y01079980D02*
X03099873Y01110460D01*
X03054153Y01079980D02*
X03084633Y01110460D01*
X03038913Y01079980D02*
X03069393Y01110460D01*
X03023673Y01079980D02*
X03054153Y01110460D01*
X03008433Y01079980D02*
X03038913Y01110460D01*
X02993193Y01079980D02*
X03023673Y01110460D01*
X02977953Y01079980D02*
X03008433Y01110460D01*
X02962713Y01079980D02*
X02993193Y01110460D01*
X02947473Y01079980D02*
X02977953Y01110460D01*
X02932233Y01079980D02*
X02962713Y01110460D01*
X02916993Y01079980D02*
X02947473Y01110460D01*
X02901753Y01079980D02*
X02932233Y01110460D01*
X02886513Y01079980D02*
X02916993Y01110460D01*
X02871273Y01079980D02*
X02901753Y01110460D01*
X02861194Y01085141D02*
X02886513Y01110460D01*
X02861194Y01100380D02*
X02871273Y01110460D01*
X03130353D02*
X03145593Y01125700D01*
X03115113Y01110460D02*
X03145593Y01140940D01*
X03099873Y01110460D02*
X03130353Y01140940D01*
X03084633Y01110460D02*
X03115113Y01140940D01*
X03069393Y01110460D02*
X03099873Y01140940D01*
X03054153Y01110460D02*
X03084633Y01140940D01*
X03038913Y01110460D02*
X03069393Y01140940D01*
X03023673Y01110460D02*
X03054153Y01140940D01*
X03008433Y01110460D02*
X03038913Y01140940D01*
X02993193Y01110460D02*
X03023673Y01140940D01*
X02977953Y01110460D02*
X03008433Y01140940D01*
X02962713Y01110460D02*
X02993193Y01140940D01*
X02947473Y01110460D02*
X02977953Y01140940D01*
X02932233Y01110460D02*
X02962713Y01140940D01*
X02916993Y01110460D02*
X02947473Y01140940D01*
X02901753Y01110460D02*
X02932233Y01140940D01*
X02886513Y01110460D02*
X02916993Y01140940D01*
X02871273Y01110460D02*
X02901753Y01140940D01*
X02861194Y01115620D02*
X02886513Y01140940D01*
X02861194Y01130861D02*
X02871273Y01140940D01*
X03130353D02*
X03145593Y01156180D01*
X03115113Y01140940D02*
X03145593Y01171420D01*
X03099873Y01140940D02*
X03130353Y01171420D01*
X03084633Y01140940D02*
X03115113Y01171420D01*
X03069393Y01140940D02*
X03099873Y01171420D01*
X03054153Y01140940D02*
X03084633Y01171420D01*
X03038913Y01140940D02*
X03069393Y01171420D01*
X03023673Y01140940D02*
X03054153Y01171420D01*
X03008433Y01140940D02*
X03038913Y01171420D01*
X02993193Y01140940D02*
X03023673Y01171420D01*
X02977953Y01140940D02*
X03008433Y01171420D01*
X02962713Y01140940D02*
X02993193Y01171420D01*
X02947473Y01140940D02*
X02977953Y01171420D01*
X02932233Y01140940D02*
X02962713Y01171420D01*
X02916993Y01140940D02*
X02947473Y01171420D01*
X02901753Y01140940D02*
X02932233Y01171420D01*
X02886513Y01140940D02*
X02916993Y01171420D01*
X02871273Y01140940D02*
X02901753Y01171420D01*
X02861194Y01146100D02*
X02886513Y01171420D01*
X02861194Y01161340D02*
X02871273Y01171420D01*
X03130353D02*
X03145593Y01186660D01*
X03115113Y01171420D02*
X03145593Y01201900D01*
X03099873Y01171420D02*
X03130353Y01201900D01*
X03084633Y01171420D02*
X03115113Y01201900D01*
X03069393Y01171420D02*
X03099873Y01201900D01*
X03054153Y01171420D02*
X03084633Y01201900D01*
X03038913Y01171420D02*
X03069393Y01201900D01*
X03023673Y01171420D02*
X03054153Y01201900D01*
X03008433Y01171420D02*
X03038913Y01201900D01*
X02993193Y01171420D02*
X03023673Y01201900D01*
X02977953Y01171420D02*
X03008433Y01201900D01*
X02962713Y01171420D02*
X02993193Y01201900D01*
X02947473Y01171420D02*
X02977953Y01201900D01*
X02932233Y01171420D02*
X02962713Y01201900D01*
X02916993Y01171420D02*
X02947473Y01201900D01*
X02901753Y01171420D02*
X02932233Y01201900D01*
X02886513Y01171420D02*
X02916993Y01201900D01*
X02871273Y01171420D02*
X02901753Y01201900D01*
X02861194Y01176581D02*
X02886513Y01201900D01*
X02861194Y01191821D02*
X02871273Y01201900D01*
X03130353D02*
X03145593Y01217140D01*
X03115113Y01201900D02*
X03145593Y01232380D01*
X03099873Y01201900D02*
X03130353Y01232380D01*
X03084633Y01201900D02*
X03115113Y01232380D01*
X03069393Y01201900D02*
X03099873Y01232380D01*
X03054153Y01201900D02*
X03084633Y01232380D01*
X03038913Y01201900D02*
X03069393Y01232380D01*
X03023673Y01201900D02*
X03054153Y01232380D01*
X03008433Y01201900D02*
X03038913Y01232380D01*
X02993193Y01201900D02*
X03023673Y01232380D01*
X02977953Y01201900D02*
X03008433Y01232380D01*
X02962713Y01201900D02*
X02993193Y01232380D01*
X02947473Y01201900D02*
X02977953Y01232380D01*
X02932233Y01201900D02*
X02962713Y01232380D01*
X02916993Y01201900D02*
X02947473Y01232380D01*
X02901753Y01201900D02*
X02932233Y01232380D01*
X02886513Y01201900D02*
X02916993Y01232380D01*
X02871273Y01201900D02*
X02901753Y01232380D01*
X02861194Y01207060D02*
X02886513Y01232380D01*
X02861194Y01222300D02*
X02871273Y01232380D01*
X03130353D02*
X03145593Y01247620D01*
X03115113Y01232380D02*
X03145593Y01262860D01*
X03099873Y01232380D02*
X03130353Y01262860D01*
X03084633Y01232380D02*
X03115113Y01262860D01*
X03069393Y01232380D02*
X03099873Y01262860D01*
X03054153Y01232380D02*
X03084633Y01262860D01*
X03038913Y01232380D02*
X03069393Y01262860D01*
X03023673Y01232380D02*
X03054153Y01262860D01*
X03008433Y01232380D02*
X03038913Y01262860D01*
X02993193Y01232380D02*
X03023673Y01262860D01*
X02977953Y01232380D02*
X03008433Y01262860D01*
X02962713Y01232380D02*
X02993193Y01262860D01*
X02947473Y01232380D02*
X02977953Y01262860D01*
X02932233Y01232380D02*
X02962713Y01262860D01*
X02916993Y01232380D02*
X02947473Y01262860D01*
X02901753Y01232380D02*
X02932233Y01262860D01*
X02886513Y01232380D02*
X02916993Y01262860D01*
X02871273Y01232380D02*
X02901753Y01262860D01*
X02861194Y01237541D02*
X02886513Y01262860D01*
X02861194Y01252781D02*
X02871273Y01262860D01*
X03130353D02*
X03145593Y01278100D01*
X03115113Y01262860D02*
X03145593Y01293340D01*
X03099873Y01262860D02*
X03130353Y01293340D01*
X03084633Y01262860D02*
X03115113Y01293340D01*
X03069393Y01262860D02*
X03099873Y01293340D01*
X03054153Y01262860D02*
X03084633Y01293340D01*
X03038913Y01262860D02*
X03069393Y01293340D01*
X03023673Y01262860D02*
X03054153Y01293340D01*
X03008433Y01262860D02*
X03038913Y01293340D01*
X02993193Y01262860D02*
X03023673Y01293340D01*
X02977953Y01262860D02*
X03008433Y01293340D01*
X02962713Y01262860D02*
X02993193Y01293340D01*
X02947473Y01262860D02*
X02977953Y01293340D01*
X02932233Y01262860D02*
X02962713Y01293340D01*
X02916993Y01262860D02*
X02947473Y01293340D01*
X02901753Y01262860D02*
X02932233Y01293340D01*
X02886513Y01262860D02*
X02916993Y01293340D01*
X02871273Y01262860D02*
X02901753Y01293340D01*
X02861194Y01268020D02*
X02886513Y01293340D01*
X02861194Y01283260D02*
X02871273Y01293340D01*
X03130353D02*
X03145593Y01308580D01*
X03115113Y01293340D02*
X03145593Y01323820D01*
X03099873Y01293340D02*
X03130353Y01323820D01*
X03084633Y01293340D02*
X03115113Y01323820D01*
X03069393Y01293340D02*
X03099873Y01323820D01*
X03054153Y01293340D02*
X03084633Y01323820D01*
X03038913Y01293340D02*
X03069393Y01323820D01*
X03023673Y01293340D02*
X03054153Y01323820D01*
X03008433Y01293340D02*
X03038913Y01323820D01*
X02993193Y01293340D02*
X03023673Y01323820D01*
X02977953Y01293340D02*
X03008433Y01323820D01*
X02962713Y01293340D02*
X02993193Y01323820D01*
X02947473Y01293340D02*
X02977953Y01323820D01*
X02932233Y01293340D02*
X02962713Y01323820D01*
X02916993Y01293340D02*
X02947473Y01323820D01*
X02901753Y01293340D02*
X02932233Y01323820D01*
X02886513Y01293340D02*
X02916993Y01323820D01*
X02871273Y01293340D02*
X02901753Y01323820D01*
X02861194Y01298501D02*
X02886513Y01323820D01*
X02861194Y01313741D02*
X02871273Y01323820D01*
X03130353D02*
X03145593Y01339060D01*
X03115113Y01323820D02*
X03145593Y01354300D01*
X03099873Y01323820D02*
X03130353Y01354300D01*
X03084633Y01323820D02*
X03115113Y01354300D01*
X03069393Y01323820D02*
X03099873Y01354300D01*
X03054153Y01323820D02*
X03084633Y01354300D01*
X03038913Y01323820D02*
X03069393Y01354300D01*
X03023673Y01323820D02*
X03054153Y01354300D01*
X03008433Y01323820D02*
X03038913Y01354300D01*
X02993193Y01323820D02*
X03023673Y01354300D01*
X02977953Y01323820D02*
X03008433Y01354300D01*
X02962713Y01323820D02*
X02993193Y01354300D01*
X02947473Y01323820D02*
X02977953Y01354300D01*
X02932233Y01323820D02*
X02962713Y01354300D01*
X02916993Y01323820D02*
X02947473Y01354300D01*
X02901753Y01323820D02*
X02932233Y01354300D01*
X02886513Y01323820D02*
X02916993Y01354300D01*
X02871273Y01323820D02*
X02901753Y01354300D01*
X02861194Y01328981D02*
X02886513Y01354300D01*
X02861194Y01344220D02*
X02871273Y01354300D01*
X03130353D02*
X03145593Y01369540D01*
X03115113Y01354300D02*
X03145593Y01384780D01*
X03099873Y01354300D02*
X03130353Y01384780D01*
X03084633Y01354300D02*
X03115113Y01384780D01*
X03069393Y01354300D02*
X03099873Y01384780D01*
X03054153Y01354300D02*
X03084633Y01384780D01*
X03038913Y01354300D02*
X03069393Y01384780D01*
X03023673Y01354300D02*
X03054153Y01384780D01*
X03008433Y01354300D02*
X03038913Y01384780D01*
X02993193Y01354300D02*
X03023673Y01384780D01*
X02977953Y01354300D02*
X03008433Y01384780D01*
X02962713Y01354300D02*
X02993193Y01384780D01*
X02947473Y01354300D02*
X02977953Y01384780D01*
X02932233Y01354300D02*
X02962713Y01384780D01*
X02916993Y01354300D02*
X02947473Y01384780D01*
X02901753Y01354300D02*
X02932233Y01384780D01*
X02886513Y01354300D02*
X02916993Y01384780D01*
X02871273Y01354300D02*
X02901753Y01384780D01*
X02861194Y01359460D02*
X02886513Y01384780D01*
X02861194Y01374700D02*
X02871273Y01384780D01*
X03130353D02*
X03145593Y01400020D01*
X03115113Y01384780D02*
X03145593Y01415260D01*
X03099873Y01384780D02*
X03130353Y01415260D01*
X03084633Y01384780D02*
X03115113Y01415260D01*
X03069393Y01384780D02*
X03099873Y01415260D01*
X03054153Y01384780D02*
X03084633Y01415260D01*
X03038913Y01384780D02*
X03069393Y01415260D01*
X03023673Y01384780D02*
X03054153Y01415260D01*
X03008433Y01384780D02*
X03038913Y01415260D01*
X02993193Y01384780D02*
X03023673Y01415260D01*
X02977953Y01384780D02*
X03008433Y01415260D01*
X02962713Y01384780D02*
X02993193Y01415260D01*
X02947473Y01384780D02*
X02977953Y01415260D01*
X02932233Y01384780D02*
X02962713Y01415260D01*
X02916993Y01384780D02*
X02947473Y01415260D01*
X02901753Y01384780D02*
X02932233Y01415260D01*
X02886513Y01384780D02*
X02916993Y01415260D01*
X02871273Y01384780D02*
X02901753Y01415260D01*
X02861194Y01389940D02*
X02886513Y01415260D01*
X02861194Y01405181D02*
X02871273Y01415260D01*
X03130353D02*
X03145593Y01430500D01*
X03115113Y01415260D02*
X03145593Y01445740D01*
X03099873Y01415260D02*
X03130353Y01445740D01*
X03084633Y01415260D02*
X03115113Y01445740D01*
X03069393Y01415260D02*
X03099873Y01445740D01*
X03054153Y01415260D02*
X03084633Y01445740D01*
X03038913Y01415260D02*
X03069393Y01445740D01*
X03023673Y01415260D02*
X03054153Y01445740D01*
X03008433Y01415260D02*
X03038913Y01445740D01*
X02993193Y01415260D02*
X03023673Y01445740D01*
X02977953Y01415260D02*
X03008433Y01445740D01*
X02962713Y01415260D02*
X02993193Y01445740D01*
X02947473Y01415260D02*
X02977953Y01445740D01*
X02932233Y01415260D02*
X02962713Y01445740D01*
X02916993Y01415260D02*
X02947473Y01445740D01*
X02901753Y01415260D02*
X02932233Y01445740D01*
X02886513Y01415260D02*
X02916993Y01445740D01*
X02871273Y01415260D02*
X02901753Y01445740D01*
X02861194Y01420421D02*
X02886513Y01445740D01*
X02861194Y01435661D02*
X02871273Y01445740D01*
X03130353D02*
X03145593Y01460980D01*
X03115113Y01445740D02*
X03145593Y01476220D01*
X03099873Y01445740D02*
X03130353Y01476220D01*
X03084633Y01445740D02*
X03115113Y01476220D01*
X03069393Y01445740D02*
X03099873Y01476220D01*
X03054153Y01445740D02*
X03084633Y01476220D01*
X03038913Y01445740D02*
X03069393Y01476220D01*
X03023673Y01445740D02*
X03054153Y01476220D01*
X03008433Y01445740D02*
X03038913Y01476220D01*
X02993193Y01445740D02*
X03023673Y01476220D01*
X02977953Y01445740D02*
X03008433Y01476220D01*
X02962713Y01445740D02*
X02993193Y01476220D01*
X02947473Y01445740D02*
X02977953Y01476220D01*
X02932233Y01445740D02*
X02962713Y01476220D01*
X02916993Y01445740D02*
X02947473Y01476220D01*
X02901753Y01445740D02*
X02932233Y01476220D01*
X02886513Y01445740D02*
X02916993Y01476220D01*
X02871273Y01445740D02*
X02901753Y01476220D01*
X02861194Y01450901D02*
X02886513Y01476220D01*
X02861194Y01466140D02*
X02871273Y01476220D01*
X03130353D02*
X03145593Y01491460D01*
X03115113Y01476220D02*
X03145593Y01506700D01*
X03099873Y01476220D02*
X03130353Y01506700D01*
X03084633Y01476220D02*
X03115113Y01506700D01*
X03069393Y01476220D02*
X03099873Y01506700D01*
X03054153Y01476220D02*
X03084633Y01506700D01*
X03038913Y01476220D02*
X03069393Y01506700D01*
X03023673Y01476220D02*
X03054153Y01506700D01*
X03008433Y01476220D02*
X03038913Y01506700D01*
X02993193Y01476220D02*
X03023673Y01506700D01*
X02977953Y01476220D02*
X03008433Y01506700D01*
X02962713Y01476220D02*
X02993193Y01506700D01*
X02947473Y01476220D02*
X02977953Y01506700D01*
X02932233Y01476220D02*
X02962713Y01506700D01*
X02916993Y01476220D02*
X02947473Y01506700D01*
X02901753Y01476220D02*
X02932233Y01506700D01*
X02886513Y01476220D02*
X02916993Y01506700D01*
X02871273Y01476220D02*
X02901753Y01506700D01*
X02861194Y01481380D02*
X02886513Y01506700D01*
X02861194Y01496620D02*
X02871273Y01506700D01*
X03130353D02*
X03145593Y01521940D01*
X03115113Y01506700D02*
X03145593Y01537180D01*
X03099873Y01506700D02*
X03130353Y01537180D01*
X03084633Y01506700D02*
X03115113Y01537180D01*
X03069393Y01506700D02*
X03099873Y01537180D01*
X03054153Y01506700D02*
X03084633Y01537180D01*
X03038913Y01506700D02*
X03069393Y01537180D01*
X03023673Y01506700D02*
X03054153Y01537180D01*
X03008433Y01506700D02*
X03038913Y01537180D01*
X02993193Y01506700D02*
X03023673Y01537180D01*
X02977953Y01506700D02*
X03008433Y01537180D01*
X02962713Y01506700D02*
X02993193Y01537180D01*
X02947473Y01506700D02*
X02977953Y01537180D01*
X02932233Y01506700D02*
X02962713Y01537180D01*
X02916993Y01506700D02*
X02947473Y01537180D01*
X02901753Y01506700D02*
X02932233Y01537180D01*
X02886513Y01506700D02*
X02916993Y01537180D01*
X02871273Y01506700D02*
X02901753Y01537180D01*
X02861194Y01511861D02*
X02886513Y01537180D01*
X02861194Y01527101D02*
X02871273Y01537180D01*
X03130353D02*
X03145593Y01552420D01*
X03115113Y01537180D02*
X03145593Y01567660D01*
X03099873Y01537180D02*
X03130353Y01567660D01*
X03084633Y01537180D02*
X03115113Y01567660D01*
X03069393Y01537180D02*
X03099873Y01567660D01*
X03054153Y01537180D02*
X03084633Y01567660D01*
X03038913Y01537180D02*
X03069393Y01567660D01*
X03023673Y01537180D02*
X03054153Y01567660D01*
X03008433Y01537180D02*
X03038913Y01567660D01*
X02993193Y01537180D02*
X03023673Y01567660D01*
X02977953Y01537180D02*
X03008433Y01567660D01*
X02962713Y01537180D02*
X02993193Y01567660D01*
X02947473Y01537180D02*
X02977953Y01567660D01*
X02932233Y01537180D02*
X02962713Y01567660D01*
X02916993Y01537180D02*
X02947473Y01567660D01*
X02901753Y01537180D02*
X02932233Y01567660D01*
X02886513Y01537180D02*
X02916993Y01567660D01*
X02871273Y01537180D02*
X02901753Y01567660D01*
X02861194Y01542341D02*
X02886513Y01567660D01*
X02861194Y01557581D02*
X02871273Y01567660D01*
X03145593Y01003780D02*
X03160833Y00988540D01*
X03145593Y01019020D02*
X03176073Y00988540D01*
X03160833Y01019020D02*
X03191313Y00988540D01*
X03176073Y01019020D02*
X03206553Y00988540D01*
X03191313Y01019020D02*
X03221793Y00988540D01*
X03206553Y01019020D02*
X03237033Y00988540D01*
X03221793Y01019020D02*
X03252273Y00988540D01*
X03237033Y01019020D02*
X03267513Y00988540D01*
X03252273Y01019020D02*
X03282753Y00988540D01*
X03267513Y01019020D02*
X03297993Y00988540D01*
X03282753Y01019020D02*
X03313233Y00988540D01*
X03297993Y01019020D02*
X03328473Y00988540D01*
X03313233Y01019020D02*
X03343713Y00988540D01*
X03328473Y01019020D02*
X03358953Y00988540D01*
X03343713Y01019020D02*
X03374193Y00988540D01*
X03358953Y01019020D02*
X03389433Y00988540D01*
X03374193Y01019020D02*
X03404673Y00988540D01*
X03389433Y01019020D02*
X03419913Y00988540D01*
X03404673Y01019020D02*
X03429993Y00993700D01*
X03419913Y01019020D02*
X03429993Y01008941D01*
X03145593Y01034260D02*
X03160833Y01019020D01*
X03145593Y01049500D02*
X03176073Y01019020D01*
X03160833Y01049500D02*
X03191313Y01019020D01*
X03176073Y01049500D02*
X03206553Y01019020D01*
X03191313Y01049500D02*
X03221793Y01019020D01*
X03206553Y01049500D02*
X03237033Y01019020D01*
X03221793Y01049500D02*
X03252273Y01019020D01*
X03237033Y01049500D02*
X03267513Y01019020D01*
X03252273Y01049500D02*
X03282753Y01019020D01*
X03267513Y01049500D02*
X03297993Y01019020D01*
X03282753Y01049500D02*
X03313233Y01019020D01*
X03297993Y01049500D02*
X03328473Y01019020D01*
X03313233Y01049500D02*
X03343713Y01019020D01*
X03328473Y01049500D02*
X03358953Y01019020D01*
X03343713Y01049500D02*
X03374193Y01019020D01*
X03358953Y01049500D02*
X03389433Y01019020D01*
X03374193Y01049500D02*
X03404673Y01019020D01*
X03389433Y01049500D02*
X03419913Y01019020D01*
X03404673Y01049500D02*
X03429993Y01024181D01*
X03419913Y01049500D02*
X03429993Y01039420D01*
X03145593Y01064740D02*
X03160833Y01049500D01*
X03145593Y01079980D02*
X03176073Y01049500D01*
X03160833Y01079980D02*
X03191313Y01049500D01*
X03176073Y01079980D02*
X03206553Y01049500D01*
X03191313Y01079980D02*
X03221793Y01049500D01*
X03206553Y01079980D02*
X03237033Y01049500D01*
X03221793Y01079980D02*
X03252273Y01049500D01*
X03237033Y01079980D02*
X03267513Y01049500D01*
X03252273Y01079980D02*
X03282753Y01049500D01*
X03267513Y01079980D02*
X03297993Y01049500D01*
X03282753Y01079980D02*
X03313233Y01049500D01*
X03297993Y01079980D02*
X03328473Y01049500D01*
X03313233Y01079980D02*
X03343713Y01049500D01*
X03328473Y01079980D02*
X03358953Y01049500D01*
X03343713Y01079980D02*
X03374193Y01049500D01*
X03358953Y01079980D02*
X03389433Y01049500D01*
X03374193Y01079980D02*
X03404673Y01049500D01*
X03389433Y01079980D02*
X03419913Y01049500D01*
X03404673Y01079980D02*
X03429993Y01054660D01*
X03419913Y01079980D02*
X03429993Y01069901D01*
X03145593Y01095220D02*
X03160833Y01079980D01*
X03145593Y01110460D02*
X03176073Y01079980D01*
X03160833Y01110460D02*
X03191313Y01079980D01*
X03176073Y01110460D02*
X03206553Y01079980D01*
X03191313Y01110460D02*
X03221793Y01079980D01*
X03206553Y01110460D02*
X03237033Y01079980D01*
X03221793Y01110460D02*
X03252273Y01079980D01*
X03237033Y01110460D02*
X03267513Y01079980D01*
X03252273Y01110460D02*
X03282753Y01079980D01*
X03267513Y01110460D02*
X03297993Y01079980D01*
X03282753Y01110460D02*
X03313233Y01079980D01*
X03297993Y01110460D02*
X03328473Y01079980D01*
X03313233Y01110460D02*
X03343713Y01079980D01*
X03328473Y01110460D02*
X03358953Y01079980D01*
X03343713Y01110460D02*
X03374193Y01079980D01*
X03358953Y01110460D02*
X03389433Y01079980D01*
X03374193Y01110460D02*
X03404673Y01079980D01*
X03389433Y01110460D02*
X03419913Y01079980D01*
X03404673Y01110460D02*
X03429993Y01085141D01*
X03419913Y01110460D02*
X03429993Y01100380D01*
X03145593Y01125700D02*
X03160833Y01110460D01*
X03145593Y01140940D02*
X03176073Y01110460D01*
X03160833Y01140940D02*
X03191313Y01110460D01*
X03176073Y01140940D02*
X03206553Y01110460D01*
X03191313Y01140940D02*
X03221793Y01110460D01*
X03206553Y01140940D02*
X03237033Y01110460D01*
X03221793Y01140940D02*
X03252273Y01110460D01*
X03237033Y01140940D02*
X03267513Y01110460D01*
X03252273Y01140940D02*
X03282753Y01110460D01*
X03267513Y01140940D02*
X03297993Y01110460D01*
X03282753Y01140940D02*
X03313233Y01110460D01*
X03297993Y01140940D02*
X03328473Y01110460D01*
X03313233Y01140940D02*
X03343713Y01110460D01*
X03328473Y01140940D02*
X03358953Y01110460D01*
X03343713Y01140940D02*
X03374193Y01110460D01*
X03358953Y01140940D02*
X03389433Y01110460D01*
X03374193Y01140940D02*
X03404673Y01110460D01*
X03389433Y01140940D02*
X03419913Y01110460D01*
X03404673Y01140940D02*
X03429993Y01115620D01*
X03419913Y01140940D02*
X03429993Y01130861D01*
X03145593Y01156180D02*
X03160833Y01140940D01*
X03145593Y01171420D02*
X03176073Y01140940D01*
X03160833Y01171420D02*
X03191313Y01140940D01*
X03176073Y01171420D02*
X03206553Y01140940D01*
X03191313Y01171420D02*
X03221793Y01140940D01*
X03206553Y01171420D02*
X03237033Y01140940D01*
X03221793Y01171420D02*
X03252273Y01140940D01*
X03237033Y01171420D02*
X03267513Y01140940D01*
X03252273Y01171420D02*
X03282753Y01140940D01*
X03267513Y01171420D02*
X03297993Y01140940D01*
X03282753Y01171420D02*
X03313233Y01140940D01*
X03297993Y01171420D02*
X03328473Y01140940D01*
X03313233Y01171420D02*
X03343713Y01140940D01*
X03328473Y01171420D02*
X03358953Y01140940D01*
X03343713Y01171420D02*
X03374193Y01140940D01*
X03358953Y01171420D02*
X03389433Y01140940D01*
X03374193Y01171420D02*
X03404673Y01140940D01*
X03389433Y01171420D02*
X03419913Y01140940D01*
X03404673Y01171420D02*
X03429993Y01146100D01*
X03419913Y01171420D02*
X03429993Y01161340D01*
X03145593Y01186660D02*
X03160833Y01171420D01*
X03145593Y01201900D02*
X03176073Y01171420D01*
X03160833Y01201900D02*
X03191313Y01171420D01*
X03176073Y01201900D02*
X03206553Y01171420D01*
X03191313Y01201900D02*
X03221793Y01171420D01*
X03206553Y01201900D02*
X03237033Y01171420D01*
X03221793Y01201900D02*
X03252273Y01171420D01*
X03237033Y01201900D02*
X03267513Y01171420D01*
X03252273Y01201900D02*
X03282753Y01171420D01*
X03267513Y01201900D02*
X03297993Y01171420D01*
X03282753Y01201900D02*
X03313233Y01171420D01*
X03297993Y01201900D02*
X03328473Y01171420D01*
X03313233Y01201900D02*
X03343713Y01171420D01*
X03328473Y01201900D02*
X03358953Y01171420D01*
X03343713Y01201900D02*
X03374193Y01171420D01*
X03358953Y01201900D02*
X03389433Y01171420D01*
X03374193Y01201900D02*
X03404673Y01171420D01*
X03389433Y01201900D02*
X03419913Y01171420D01*
X03404673Y01201900D02*
X03429993Y01176581D01*
X03419913Y01201900D02*
X03429993Y01191821D01*
X03145593Y01217140D02*
X03160833Y01201900D01*
X03145593Y01232380D02*
X03176073Y01201900D01*
X03160833Y01232380D02*
X03191313Y01201900D01*
X03176073Y01232380D02*
X03206553Y01201900D01*
X03191313Y01232380D02*
X03221793Y01201900D01*
X03206553Y01232380D02*
X03237033Y01201900D01*
X03221793Y01232380D02*
X03252273Y01201900D01*
X03237033Y01232380D02*
X03267513Y01201900D01*
X03252273Y01232380D02*
X03282753Y01201900D01*
X03267513Y01232380D02*
X03297993Y01201900D01*
X03282753Y01232380D02*
X03313233Y01201900D01*
X03297993Y01232380D02*
X03328473Y01201900D01*
X03313233Y01232380D02*
X03343713Y01201900D01*
X03328473Y01232380D02*
X03358953Y01201900D01*
X03343713Y01232380D02*
X03374193Y01201900D01*
X03358953Y01232380D02*
X03389433Y01201900D01*
X03374193Y01232380D02*
X03404673Y01201900D01*
X03389433Y01232380D02*
X03419913Y01201900D01*
X03404673Y01232380D02*
X03429993Y01207060D01*
X03419913Y01232380D02*
X03429993Y01222300D01*
X03145593Y01247620D02*
X03160833Y01232380D01*
X03145593Y01262860D02*
X03176073Y01232380D01*
X03160833Y01262860D02*
X03191313Y01232380D01*
X03176073Y01262860D02*
X03206553Y01232380D01*
X03191313Y01262860D02*
X03221793Y01232380D01*
X03206553Y01262860D02*
X03237033Y01232380D01*
X03221793Y01262860D02*
X03252273Y01232380D01*
X03237033Y01262860D02*
X03267513Y01232380D01*
X03252273Y01262860D02*
X03282753Y01232380D01*
X03267513Y01262860D02*
X03297993Y01232380D01*
X03282753Y01262860D02*
X03313233Y01232380D01*
X03297993Y01262860D02*
X03328473Y01232380D01*
X03313233Y01262860D02*
X03343713Y01232380D01*
X03328473Y01262860D02*
X03358953Y01232380D01*
X03343713Y01262860D02*
X03374193Y01232380D01*
X03358953Y01262860D02*
X03389433Y01232380D01*
X03374193Y01262860D02*
X03404673Y01232380D01*
X03389433Y01262860D02*
X03419913Y01232380D01*
X03404673Y01262860D02*
X03429993Y01237541D01*
X03419913Y01262860D02*
X03429993Y01252781D01*
X03145593Y01278100D02*
X03160833Y01262860D01*
X03145593Y01293340D02*
X03176073Y01262860D01*
X03160833Y01293340D02*
X03191313Y01262860D01*
X03176073Y01293340D02*
X03206553Y01262860D01*
X03191313Y01293340D02*
X03221793Y01262860D01*
X03206553Y01293340D02*
X03237033Y01262860D01*
X03221793Y01293340D02*
X03252273Y01262860D01*
X03237033Y01293340D02*
X03267513Y01262860D01*
X03252273Y01293340D02*
X03282753Y01262860D01*
X03267513Y01293340D02*
X03297993Y01262860D01*
X03282753Y01293340D02*
X03313233Y01262860D01*
X03297993Y01293340D02*
X03328473Y01262860D01*
X03313233Y01293340D02*
X03343713Y01262860D01*
X03328473Y01293340D02*
X03358953Y01262860D01*
X03343713Y01293340D02*
X03374193Y01262860D01*
X03358953Y01293340D02*
X03389433Y01262860D01*
X03374193Y01293340D02*
X03404673Y01262860D01*
X03389433Y01293340D02*
X03419913Y01262860D01*
X03404673Y01293340D02*
X03429993Y01268020D01*
X03419913Y01293340D02*
X03429993Y01283260D01*
X03145593Y01308580D02*
X03160833Y01293340D01*
X03145593Y01323820D02*
X03176073Y01293340D01*
X03160833Y01323820D02*
X03191313Y01293340D01*
X03176073Y01323820D02*
X03206553Y01293340D01*
X03191313Y01323820D02*
X03221793Y01293340D01*
X03206553Y01323820D02*
X03237033Y01293340D01*
X03221793Y01323820D02*
X03252273Y01293340D01*
X03237033Y01323820D02*
X03267513Y01293340D01*
X03252273Y01323820D02*
X03282753Y01293340D01*
X03267513Y01323820D02*
X03297993Y01293340D01*
X03282753Y01323820D02*
X03313233Y01293340D01*
X03297993Y01323820D02*
X03328473Y01293340D01*
X03313233Y01323820D02*
X03343713Y01293340D01*
X03328473Y01323820D02*
X03358953Y01293340D01*
X03343713Y01323820D02*
X03374193Y01293340D01*
X03358953Y01323820D02*
X03389433Y01293340D01*
X03374193Y01323820D02*
X03404673Y01293340D01*
X03389433Y01323820D02*
X03419913Y01293340D01*
X03404673Y01323820D02*
X03429993Y01298501D01*
X03419913Y01323820D02*
X03429993Y01313741D01*
X03145593Y01339060D02*
X03160833Y01323820D01*
X03145593Y01354300D02*
X03176073Y01323820D01*
X03160833Y01354300D02*
X03191313Y01323820D01*
X03176073Y01354300D02*
X03206553Y01323820D01*
X03191313Y01354300D02*
X03221793Y01323820D01*
X03206553Y01354300D02*
X03237033Y01323820D01*
X03221793Y01354300D02*
X03252273Y01323820D01*
X03237033Y01354300D02*
X03267513Y01323820D01*
X03252273Y01354300D02*
X03282753Y01323820D01*
X03267513Y01354300D02*
X03297993Y01323820D01*
X03282753Y01354300D02*
X03313233Y01323820D01*
X03297993Y01354300D02*
X03328473Y01323820D01*
X03313233Y01354300D02*
X03343713Y01323820D01*
X03328473Y01354300D02*
X03358953Y01323820D01*
X03343713Y01354300D02*
X03374193Y01323820D01*
X03358953Y01354300D02*
X03389433Y01323820D01*
X03374193Y01354300D02*
X03404673Y01323820D01*
X03389433Y01354300D02*
X03419913Y01323820D01*
X03404673Y01354300D02*
X03429993Y01328981D01*
X03419913Y01354300D02*
X03429993Y01344220D01*
X03145593Y01369540D02*
X03160833Y01354300D01*
X03145593Y01384780D02*
X03176073Y01354300D01*
X03160833Y01384780D02*
X03191313Y01354300D01*
X03176073Y01384780D02*
X03206553Y01354300D01*
X03191313Y01384780D02*
X03221793Y01354300D01*
X03206553Y01384780D02*
X03237033Y01354300D01*
X03221793Y01384780D02*
X03252273Y01354300D01*
X03237033Y01384780D02*
X03267513Y01354300D01*
X03252273Y01384780D02*
X03282753Y01354300D01*
X03267513Y01384780D02*
X03297993Y01354300D01*
X03282753Y01384780D02*
X03313233Y01354300D01*
X03297993Y01384780D02*
X03328473Y01354300D01*
X03313233Y01384780D02*
X03343713Y01354300D01*
X03328473Y01384780D02*
X03358953Y01354300D01*
X03343713Y01384780D02*
X03374193Y01354300D01*
X03358953Y01384780D02*
X03389433Y01354300D01*
X03374193Y01384780D02*
X03404673Y01354300D01*
X03389433Y01384780D02*
X03419913Y01354300D01*
X03404673Y01384780D02*
X03429993Y01359460D01*
X03419913Y01384780D02*
X03429993Y01374700D01*
X03145593Y01400020D02*
X03160833Y01384780D01*
X03145593Y01415260D02*
X03176073Y01384780D01*
X03160833Y01415260D02*
X03191313Y01384780D01*
X03176073Y01415260D02*
X03206553Y01384780D01*
X03191313Y01415260D02*
X03221793Y01384780D01*
X03206553Y01415260D02*
X03237033Y01384780D01*
X03221793Y01415260D02*
X03252273Y01384780D01*
X03237033Y01415260D02*
X03267513Y01384780D01*
X03252273Y01415260D02*
X03282753Y01384780D01*
X03267513Y01415260D02*
X03297993Y01384780D01*
X03282753Y01415260D02*
X03313233Y01384780D01*
X03297993Y01415260D02*
X03328473Y01384780D01*
X03313233Y01415260D02*
X03343713Y01384780D01*
X03328473Y01415260D02*
X03358953Y01384780D01*
X03343713Y01415260D02*
X03374193Y01384780D01*
X03358953Y01415260D02*
X03389433Y01384780D01*
X03374193Y01415260D02*
X03404673Y01384780D01*
X03389433Y01415260D02*
X03419913Y01384780D01*
X03404673Y01415260D02*
X03429993Y01389940D01*
X03419913Y01415260D02*
X03429993Y01405181D01*
X03145593Y01430500D02*
X03160833Y01415260D01*
X03145593Y01445740D02*
X03176073Y01415260D01*
X03160833Y01445740D02*
X03191313Y01415260D01*
X03176073Y01445740D02*
X03206553Y01415260D01*
X03191313Y01445740D02*
X03221793Y01415260D01*
X03206553Y01445740D02*
X03237033Y01415260D01*
X03221793Y01445740D02*
X03252273Y01415260D01*
X03237033Y01445740D02*
X03267513Y01415260D01*
X03252273Y01445740D02*
X03282753Y01415260D01*
X03267513Y01445740D02*
X03297993Y01415260D01*
X03282753Y01445740D02*
X03313233Y01415260D01*
X03297993Y01445740D02*
X03328473Y01415260D01*
X03313233Y01445740D02*
X03343713Y01415260D01*
X03328473Y01445740D02*
X03358953Y01415260D01*
X03343713Y01445740D02*
X03374193Y01415260D01*
X03358953Y01445740D02*
X03389433Y01415260D01*
X03374193Y01445740D02*
X03404673Y01415260D01*
X03389433Y01445740D02*
X03419913Y01415260D01*
X03404673Y01445740D02*
X03429993Y01420421D01*
X03419913Y01445740D02*
X03429993Y01435661D01*
X03145593Y01460980D02*
X03160833Y01445740D01*
X03145593Y01476220D02*
X03176073Y01445740D01*
X03160833Y01476220D02*
X03191313Y01445740D01*
X03176073Y01476220D02*
X03206553Y01445740D01*
X03191313Y01476220D02*
X03221793Y01445740D01*
X03206553Y01476220D02*
X03237033Y01445740D01*
X03221793Y01476220D02*
X03252273Y01445740D01*
X03237033Y01476220D02*
X03267513Y01445740D01*
X03252273Y01476220D02*
X03282753Y01445740D01*
X03267513Y01476220D02*
X03297993Y01445740D01*
X03282753Y01476220D02*
X03313233Y01445740D01*
X03297993Y01476220D02*
X03328473Y01445740D01*
X03313233Y01476220D02*
X03343713Y01445740D01*
X03328473Y01476220D02*
X03358953Y01445740D01*
X03343713Y01476220D02*
X03374193Y01445740D01*
X03358953Y01476220D02*
X03389433Y01445740D01*
X03374193Y01476220D02*
X03404673Y01445740D01*
X03389433Y01476220D02*
X03419913Y01445740D01*
X03404673Y01476220D02*
X03429993Y01450901D01*
X03419913Y01476220D02*
X03429993Y01466140D01*
X03145593Y01491460D02*
X03160833Y01476220D01*
X03145593Y01506700D02*
X03176073Y01476220D01*
X03160833Y01506700D02*
X03191313Y01476220D01*
X03176073Y01506700D02*
X03206553Y01476220D01*
X03191313Y01506700D02*
X03221793Y01476220D01*
X03206553Y01506700D02*
X03237033Y01476220D01*
X03221793Y01506700D02*
X03252273Y01476220D01*
X03237033Y01506700D02*
X03267513Y01476220D01*
X03252273Y01506700D02*
X03282753Y01476220D01*
X03267513Y01506700D02*
X03297993Y01476220D01*
X03282753Y01506700D02*
X03313233Y01476220D01*
X03297993Y01506700D02*
X03328473Y01476220D01*
X03313233Y01506700D02*
X03343713Y01476220D01*
X03328473Y01506700D02*
X03358953Y01476220D01*
X03343713Y01506700D02*
X03374193Y01476220D01*
X03358953Y01506700D02*
X03389433Y01476220D01*
X03374193Y01506700D02*
X03404673Y01476220D01*
X03389433Y01506700D02*
X03419913Y01476220D01*
X03404673Y01506700D02*
X03429993Y01481380D01*
X03419913Y01506700D02*
X03429993Y01496620D01*
X03145593Y01521940D02*
X03160833Y01506700D01*
X03145593Y01537180D02*
X03176073Y01506700D01*
X03160833Y01537180D02*
X03191313Y01506700D01*
X03176073Y01537180D02*
X03206553Y01506700D01*
X03191313Y01537180D02*
X03221793Y01506700D01*
X03206553Y01537180D02*
X03237033Y01506700D01*
X03221793Y01537180D02*
X03252273Y01506700D01*
X03237033Y01537180D02*
X03267513Y01506700D01*
X03252273Y01537180D02*
X03282753Y01506700D01*
X03267513Y01537180D02*
X03297993Y01506700D01*
X03282753Y01537180D02*
X03313233Y01506700D01*
X03297993Y01537180D02*
X03328473Y01506700D01*
X03313233Y01537180D02*
X03343713Y01506700D01*
X03328473Y01537180D02*
X03358953Y01506700D01*
X03343713Y01537180D02*
X03374193Y01506700D01*
X03358953Y01537180D02*
X03389433Y01506700D01*
X03374193Y01537180D02*
X03404673Y01506700D01*
X03389433Y01537180D02*
X03419913Y01506700D01*
X03404673Y01537180D02*
X03429993Y01511861D01*
X03419913Y01537180D02*
X03429993Y01527101D01*
X03145593Y01552420D02*
X03160833Y01537180D01*
X03145593Y01567660D02*
X03176073Y01537180D01*
X03160833Y01567660D02*
X03191313Y01537180D01*
X03176073Y01567660D02*
X03206553Y01537180D01*
X03191313Y01567660D02*
X03221793Y01537180D01*
X03206553Y01567660D02*
X03237033Y01537180D01*
X03221793Y01567660D02*
X03252273Y01537180D01*
X03237033Y01567660D02*
X03267513Y01537180D01*
X03252273Y01567660D02*
X03282753Y01537180D01*
X03267513Y01567660D02*
X03297993Y01537180D01*
X03282753Y01567660D02*
X03313233Y01537180D01*
X03297993Y01567660D02*
X03328473Y01537180D01*
X03313233Y01567660D02*
X03343713Y01537180D01*
X03328473Y01567660D02*
X03358953Y01537180D01*
X03343713Y01567660D02*
X03374193Y01537180D01*
X03358953Y01567660D02*
X03389433Y01537180D01*
X03374193Y01567660D02*
X03404673Y01537180D01*
X03389433Y01567660D02*
X03419913Y01537180D01*
X03404673Y01567660D02*
X03429993Y01542341D01*
X03419913Y01567660D02*
X03429993Y01557581D01*
D203*
X00650657Y00838015D02*
X00653196Y00840555D01*
X00658275D01*
X00660814Y00838015D01*
Y00835476D01*
X00658275Y00832937D01*
X00660814Y00830398D01*
Y00827859D01*
X00658275Y00825319D01*
X00653196D01*
X00650657Y00827859D01*
Y00830398D01*
X00653196Y00832937D01*
X00650657Y00835476D01*
Y00838015D01*
X00653196Y00832937D02*
X00658275D01*
X00665892Y00840555D02*
X00676049D01*
Y00838015D01*
X00665892Y00827859D01*
Y00825319D01*
X00681127D02*
Y00827859D01*
X00683667D01*
Y00825319D01*
X00681127D01*
X00693823Y00838015D02*
X00696362Y00840555D01*
X00701441D01*
X00703980Y00838015D01*
Y00827859D01*
X00701441Y00825319D01*
X00696362D01*
X00693823Y00827859D01*
Y00838015D01*
X00709058D02*
X00711597Y00840555D01*
X00716676D01*
X00719215Y00838015D01*
Y00827859D01*
X00716676Y00825319D01*
X00711597D01*
X00709058Y00827859D01*
Y00838015D01*
X00875657Y00182804D02*
X00878196Y00185343D01*
X00883275D01*
X00885814Y00182804D01*
Y00180265D01*
X00883275Y00177726D01*
X00880735D01*
X00883275D01*
X00885814Y00175187D01*
Y00172648D01*
X00883275Y00170108D01*
X00878196D01*
X00875657Y00172648D01*
X00890892Y00182804D02*
X00893431Y00185343D01*
X00898510D01*
X00901049Y00182804D01*
Y00180265D01*
X00898510Y00177726D01*
X00901049Y00175187D01*
Y00172648D01*
X00898510Y00170108D01*
X00893431D01*
X00890892Y00172648D01*
Y00175187D01*
X00893431Y00177726D01*
X00890892Y00180265D01*
Y00182804D01*
X00893431Y00177726D02*
X00898510D01*
X00906127Y00170108D02*
Y00172648D01*
X00908666D01*
Y00170108D01*
X00906127D01*
X00918823Y00182804D02*
X00921362Y00185343D01*
X00926441D01*
X00928980Y00182804D01*
Y00172648D01*
X00926441Y00170108D01*
X00921362D01*
X00918823Y00172648D01*
Y00182804D01*
X00934058D02*
X00936597Y00185343D01*
X00941676D01*
X00944215Y00182804D01*
Y00172648D01*
X00941676Y00170108D01*
X00936597D01*
X00934058Y00172648D01*
Y00182804D01*
X00884025Y00133358D02*
Y00148594D01*
X00876407Y00140976D01*
X00886564D01*
X00901799Y00133358D02*
X00891642D01*
X00901799Y00143515D01*
Y00146054D01*
X00899260Y00148594D01*
X00894181D01*
X00891642Y00146054D01*
X00906877Y00133358D02*
Y00135898D01*
X00909416D01*
Y00133358D01*
X00906877D01*
X00919573Y00146054D02*
X00922112Y00148594D01*
X00927191D01*
X00929730Y00146054D01*
Y00135898D01*
X00927191Y00133358D01*
X00922112D01*
X00919573Y00135898D01*
Y00146054D01*
X00934808D02*
X00937347Y00148594D01*
X00942426D01*
X00944965Y00146054D01*
Y00135898D01*
X00942426Y00133358D01*
X00937347D01*
X00934808Y00135898D01*
Y00146054D01*
X00425657Y00182804D02*
X00428196Y00185343D01*
X00433275D01*
X00435814Y00182804D01*
Y00180265D01*
X00433275Y00177726D01*
X00430735D01*
X00433275D01*
X00435814Y00175187D01*
Y00172648D01*
X00433275Y00170109D01*
X00428196D01*
X00425657Y00172648D01*
X00440892Y00182804D02*
X00443431Y00185343D01*
X00448510D01*
X00451049Y00182804D01*
Y00180265D01*
X00448510Y00177726D01*
X00451049Y00175187D01*
Y00172648D01*
X00448510Y00170109D01*
X00443431D01*
X00440892Y00172648D01*
Y00175187D01*
X00443431Y00177726D01*
X00440892Y00180265D01*
Y00182804D01*
X00443431Y00177726D02*
X00448510D01*
X00456127Y00170109D02*
Y00172648D01*
X00458666D01*
Y00170109D01*
X00456127D01*
X00468823Y00182804D02*
X00471362Y00185343D01*
X00476441D01*
X00478980Y00182804D01*
Y00172648D01*
X00476441Y00170109D01*
X00471362D01*
X00468823Y00172648D01*
Y00182804D01*
X00484058D02*
X00486597Y00185343D01*
X00491676D01*
X00494215Y00182804D01*
Y00172648D01*
X00491676Y00170109D01*
X00486597D01*
X00484058Y00172648D01*
Y00182804D01*
X00188696Y00425657D02*
X00186157Y00428196D01*
Y00433275D01*
X00188696Y00435814D01*
X00191235D01*
X00193774Y00433275D01*
Y00430735D01*
Y00433275D01*
X00196313Y00435814D01*
X00198852D01*
X00201392Y00433275D01*
Y00428196D01*
X00198852Y00425657D01*
X00188696Y00440892D02*
X00186157Y00443431D01*
Y00448510D01*
X00188696Y00451049D01*
X00191235D01*
X00193774Y00448510D01*
X00196313Y00451049D01*
X00198852D01*
X00201392Y00448510D01*
Y00443431D01*
X00198852Y00440892D01*
X00196313D01*
X00193774Y00443431D01*
X00191235Y00440892D01*
X00188696D01*
X00193774Y00443431D02*
Y00448510D01*
X00201392Y00456127D02*
X00198852D01*
Y00458666D01*
X00201392D01*
Y00456127D01*
X00188696Y00468823D02*
X00186157Y00471362D01*
Y00476441D01*
X00188696Y00478980D01*
X00198852D01*
X00201392Y00476441D01*
Y00471362D01*
X00198852Y00468823D01*
X00188696D01*
Y00484058D02*
X00186157Y00486597D01*
Y00491676D01*
X00188696Y00494215D01*
X00198852D01*
X00201392Y00491676D01*
Y00486597D01*
X00198852Y00484058D01*
X00188696D01*
X00152392Y00433275D02*
X00137156D01*
X00144774Y00425657D01*
Y00435814D01*
X00152392Y00451049D02*
Y00440892D01*
X00142235Y00451049D01*
X00139696D01*
X00137156Y00448510D01*
Y00443431D01*
X00139696Y00440892D01*
X00152392Y00456127D02*
X00149852D01*
Y00458666D01*
X00152392D01*
Y00456127D01*
X00139696Y00468823D02*
X00137156Y00471362D01*
Y00476441D01*
X00139696Y00478980D01*
X00149852D01*
X00152392Y00476441D01*
Y00471362D01*
X00149852Y00468823D01*
X00139696D01*
Y00484058D02*
X00137156Y00486597D01*
Y00491676D01*
X00139696Y00494215D01*
X00149852D01*
X00152392Y00491676D01*
Y00486597D01*
X00149852Y00484058D01*
X00139696D01*
X00433275Y00133358D02*
Y00148594D01*
X00425657Y00140976D01*
X00435814D01*
X00451049Y00133358D02*
X00440892D01*
X00451049Y00143515D01*
Y00146054D01*
X00448510Y00148594D01*
X00443431D01*
X00440892Y00146054D01*
X00456127Y00133358D02*
Y00135898D01*
X00458666D01*
Y00133358D01*
X00456127D01*
X00468823Y00146054D02*
X00471362Y00148594D01*
X00476441D01*
X00478980Y00146054D01*
Y00135898D01*
X00476441Y00133358D01*
X00471362D01*
X00468823Y00135898D01*
Y00146054D01*
X00484058D02*
X00486597Y00148594D01*
X00491676D01*
X00494215Y00146054D01*
Y00135898D01*
X00491676Y00133358D01*
X00486597D01*
X00484058Y00135898D01*
Y00146054D01*
M02*
