G04 Layer_Color=8421504*
%FSAX24Y24*%
%MOIN*%
G70*
G01*
G75*
%ADD67C,0.0120*%
%ADD132R,0.0303X0.0303*%
%ADD133R,0.0846X0.0413*%
%ADD134C,0.0236*%
%ADD135R,0.0303X0.0303*%
%ADD136R,0.0453X0.0413*%
%ADD137R,0.0630X0.0492*%
%ADD138R,0.0303X0.0287*%
%ADD139R,0.0287X0.0303*%
%ADD140R,0.0354X0.0138*%
%ADD141R,0.0768X0.1004*%
%ADD142R,0.0413X0.0453*%
%ADD143R,0.0374X0.0374*%
%ADD144R,0.0453X0.0453*%
%ADD145R,0.0413X0.0256*%
%ADD146R,0.0512X0.0630*%
%ADD147R,0.0453X0.0433*%
%ADD148R,0.0630X0.0512*%
%ADD149R,0.0807X0.0630*%
%ADD150R,0.0453X0.0453*%
%ADD151R,0.0295X0.0492*%
%ADD152O,0.0177X0.0394*%
%ADD153O,0.0394X0.0177*%
%ADD154R,0.2146X0.2146*%
%ADD155R,0.0453X0.0217*%
%ADD156R,0.0138X0.0335*%
%ADD157R,0.0374X0.0492*%
%ADD158R,0.0374X0.0728*%
%ADD159R,0.0531X0.0610*%
%ADD160R,0.0295X0.0453*%
%ADD161O,0.0394X0.0138*%
%ADD162O,0.0138X0.0394*%
%ADD163R,0.1138X0.0331*%
%ADD164R,0.0492X0.0531*%
%ADD165R,0.0374X0.0374*%
%ADD166R,0.0453X0.0295*%
%ADD167R,0.0472X0.0315*%
%ADD168R,0.0472X0.0276*%
%ADD169R,0.0866X0.1319*%
%ADD170R,0.0866X0.0315*%
%ADD171R,0.0512X0.0768*%
%ADD172R,0.0768X0.0512*%
%ADD173R,0.0453X0.0433*%
%ADD174R,0.0433X0.0453*%
%ADD175R,0.0630X0.1240*%
%ADD176R,0.0650X0.0177*%
%ADD177R,0.0453X0.0748*%
G36*
X012819Y019081D02*
X012173D01*
Y019726D01*
X012819D01*
Y019081D01*
D02*
G37*
G36*
X011921D02*
X011276D01*
Y019726D01*
X011921D01*
Y019081D01*
D02*
G37*
G36*
X012819Y019978D02*
X012173D01*
Y020624D01*
X012819D01*
Y019978D01*
D02*
G37*
G36*
X011921D02*
X011276D01*
Y020624D01*
X011921D01*
Y019978D01*
D02*
G37*
D67*
X077339Y022251D02*
X077870Y021721D01*
X077163Y022075D02*
X077516Y022428D01*
X077882Y022441D02*
X077857Y022365D01*
Y022264D01*
X077908Y022163D01*
X077958Y022112D01*
X078059Y022062D01*
X078160D01*
X078236Y022087D01*
X078312Y022163D01*
X078337Y022239D01*
X078337Y022340D01*
X078286Y022441D01*
X078236Y022491D01*
X078135Y022542D01*
X078034Y022542D01*
X077958Y022516D01*
X077882Y022441D01*
X078200Y022759D02*
X078731Y022229D01*
X078276Y022683D02*
Y022784D01*
X078301Y022860D01*
X078377Y022935D01*
X078453Y022961D01*
X078554D01*
X078655Y022910D01*
X078705Y022860D01*
X078756Y022759D01*
Y022658D01*
X078731Y022582D01*
X078655Y022506D01*
X078579Y022481D01*
X078478D01*
X079135Y023491D02*
X079362Y023718D01*
X079412Y023819D01*
X079412Y023870D01*
X079387Y023945D01*
X079311Y024021D01*
X079236Y024046D01*
X079185D01*
X079084Y023996D01*
X078857Y023769D01*
X079387Y023238D01*
X079809Y024367D02*
X080162Y024014D01*
X079884Y024291D02*
X079783Y024291D01*
X079708Y024266D01*
X079632Y024190D01*
X079607Y024115D01*
Y024014D01*
X079657Y023913D01*
X079708Y023862D01*
X079809Y023812D01*
X079910D01*
X079985Y023837D01*
X080061Y023913D01*
X080086Y023988D01*
X080086Y024089D01*
X080304Y024710D02*
X080228Y024736D01*
X080127Y024685D01*
X080051Y024609D01*
X080001Y024508D01*
X080026Y024433D01*
X080102Y024407D01*
X080177Y024433D01*
X080329Y024534D01*
X080405Y024559D01*
X080480Y024534D01*
X080506Y024508D01*
X080531Y024433D01*
X080480Y024332D01*
X080405Y024256D01*
X080304Y024205D01*
X080228Y024231D01*
X080238Y025150D02*
X080667Y024721D01*
X080768Y024670D01*
X080844Y024695D01*
X080894Y024746D01*
X080339Y024897D02*
X080516Y025074D01*
X080768Y025024D02*
X081071Y025326D01*
X081021Y025377D01*
X080945Y025402D01*
X080894Y025402D01*
X080819Y025377D01*
X080743Y025301D01*
X080718Y025226D01*
Y025125D01*
X080768Y025024D01*
X080819Y024973D01*
X080920Y024923D01*
X081021D01*
X081096Y024948D01*
X081172Y025024D01*
X081197Y025099D01*
X081197Y025200D01*
D132*
X024026Y020699D02*
D03*
X023671D02*
D03*
X019495Y023378D02*
D03*
X019495Y023791D02*
D03*
X019141Y023378D02*
D03*
X019141Y023791D02*
D03*
X023661Y016033D02*
D03*
X024016D02*
D03*
X023012Y023386D02*
D03*
X023366D02*
D03*
X019406Y011643D02*
D03*
X019051D02*
D03*
X014311Y011594D02*
D03*
X013957D02*
D03*
X018110Y011260D02*
D03*
X018465D02*
D03*
X024498Y014094D02*
D03*
X024144D02*
D03*
X020315Y024626D02*
D03*
X019961D02*
D03*
X013307Y017884D02*
D03*
X012953D02*
D03*
X017695Y023964D02*
D03*
X017341D02*
D03*
X039196Y019806D02*
D03*
X038842D02*
D03*
X038329Y018038D02*
D03*
X037975D02*
D03*
X038878Y022469D02*
D03*
X039232D02*
D03*
X034890Y023363D02*
D03*
X035245D02*
D03*
X037982Y015566D02*
D03*
X038336D02*
D03*
X038329Y017459D02*
D03*
X037975D02*
D03*
X038329Y018438D02*
D03*
X037975D02*
D03*
X039196Y018896D02*
D03*
X038842D02*
D03*
X039196Y019426D02*
D03*
X038842D02*
D03*
X038293Y019826D02*
D03*
X037939D02*
D03*
X039173Y017213D02*
D03*
X038819D02*
D03*
X039173Y017607D02*
D03*
X038819D02*
D03*
X039173Y016829D02*
D03*
X038819D02*
D03*
X038415Y020520D02*
D03*
X038061D02*
D03*
X039196Y020906D02*
D03*
X038842D02*
D03*
X039196Y020236D02*
D03*
X038842D02*
D03*
D133*
X024937Y019130D02*
D03*
Y019630D02*
D03*
Y020630D02*
D03*
Y021630D02*
D03*
Y018630D02*
D03*
Y020130D02*
D03*
Y021130D02*
D03*
D134*
X019685Y021890D02*
D03*
Y022205D02*
D03*
X021260Y020630D02*
D03*
X021574D02*
D03*
X014960Y022205D02*
D03*
X015275D02*
D03*
X014960Y021890D02*
D03*
X015275D02*
D03*
X015590Y021575D02*
D03*
X015905D02*
D03*
X016220D02*
D03*
X016535D02*
D03*
X016850Y021575D02*
D03*
X017165Y021575D02*
D03*
X017480D02*
D03*
X017795D02*
D03*
X018110D02*
D03*
X018425D02*
D03*
X018740D02*
D03*
X019055D02*
D03*
X019370D02*
D03*
X019685D02*
D03*
X020000D02*
D03*
X020315D02*
D03*
X020630D02*
D03*
X020945D02*
D03*
X021260D02*
D03*
X021574D02*
D03*
X015590Y021260D02*
D03*
X015905D02*
D03*
X016220D02*
D03*
X016535D02*
D03*
X016850Y021260D02*
D03*
X017165Y021260D02*
D03*
X017480D02*
D03*
X017795D02*
D03*
X018110D02*
D03*
X018425D02*
D03*
X018740D02*
D03*
X019055D02*
D03*
X019370D02*
D03*
X019685Y021260D02*
D03*
X020000Y021260D02*
D03*
X020315D02*
D03*
X020630D02*
D03*
X020945D02*
D03*
X021260D02*
D03*
X021574D02*
D03*
X015590Y020945D02*
D03*
X015905D02*
D03*
X016220Y020945D02*
D03*
X016535D02*
D03*
X016850D02*
D03*
X017165D02*
D03*
X017480Y020945D02*
D03*
X017795Y020945D02*
D03*
X018110D02*
D03*
X018425D02*
D03*
X018740D02*
D03*
X019055D02*
D03*
X019370Y020945D02*
D03*
X019685Y020945D02*
D03*
X020000D02*
D03*
X020315D02*
D03*
X020630D02*
D03*
X020945D02*
D03*
X021260Y020945D02*
D03*
X021574Y020945D02*
D03*
X015590Y020630D02*
D03*
X015905D02*
D03*
X016220Y020630D02*
D03*
X016535D02*
D03*
X016850D02*
D03*
X017165D02*
D03*
X017480D02*
D03*
X017795D02*
D03*
X018110D02*
D03*
X018425D02*
D03*
X018740D02*
D03*
X019055Y020630D02*
D03*
X019370D02*
D03*
X019685Y020630D02*
D03*
X020000D02*
D03*
X020315D02*
D03*
X020630D02*
D03*
X020945D02*
D03*
X015590Y020315D02*
D03*
X015905D02*
D03*
X016220D02*
D03*
X016535D02*
D03*
X016850D02*
D03*
X017165D02*
D03*
X017480D02*
D03*
X017795D02*
D03*
X018110D02*
D03*
X018425D02*
D03*
X018740D02*
D03*
X019055D02*
D03*
X019370D02*
D03*
X019685D02*
D03*
X020000D02*
D03*
X020315D02*
D03*
X020630D02*
D03*
X020945D02*
D03*
X021260D02*
D03*
X021574D02*
D03*
X015590Y020000D02*
D03*
X015905D02*
D03*
X016220Y020000D02*
D03*
X016535D02*
D03*
X016850D02*
D03*
X017165Y020000D02*
D03*
X017480D02*
D03*
X017795D02*
D03*
X018110D02*
D03*
X018425Y020000D02*
D03*
X018740Y020000D02*
D03*
X019055D02*
D03*
X019370D02*
D03*
X019685D02*
D03*
X020000D02*
D03*
X020315Y020000D02*
D03*
X020630Y020000D02*
D03*
X020945D02*
D03*
X021260D02*
D03*
X021574D02*
D03*
X015590Y019685D02*
D03*
X015905D02*
D03*
X016220D02*
D03*
X016535Y019685D02*
D03*
X016850D02*
D03*
X017165Y019685D02*
D03*
X017480D02*
D03*
X017795D02*
D03*
X018110Y019685D02*
D03*
X018425Y019685D02*
D03*
X018740D02*
D03*
X019055D02*
D03*
X019370D02*
D03*
X019685D02*
D03*
X020000D02*
D03*
X020315Y019685D02*
D03*
X020630Y019685D02*
D03*
X020945D02*
D03*
X021260D02*
D03*
X021574D02*
D03*
X015590Y019370D02*
D03*
X015905D02*
D03*
X016220D02*
D03*
X016535D02*
D03*
X016850D02*
D03*
X017165Y019370D02*
D03*
X017480D02*
D03*
X017795Y019370D02*
D03*
X018110D02*
D03*
X018425D02*
D03*
X018740D02*
D03*
X019055Y019370D02*
D03*
X019370D02*
D03*
X019685D02*
D03*
X020000Y019370D02*
D03*
X020315D02*
D03*
X020630D02*
D03*
X020945D02*
D03*
X021260Y019370D02*
D03*
X021574D02*
D03*
X015590Y019055D02*
D03*
X015905D02*
D03*
X016220D02*
D03*
X016535D02*
D03*
X016850D02*
D03*
X017165Y019055D02*
D03*
X017480Y019055D02*
D03*
X017795D02*
D03*
X018110D02*
D03*
X018425D02*
D03*
X018740D02*
D03*
X019055D02*
D03*
X019370Y019055D02*
D03*
X019685Y019055D02*
D03*
X020000D02*
D03*
X020315D02*
D03*
X020630D02*
D03*
X020945D02*
D03*
X021260D02*
D03*
X021574Y019055D02*
D03*
X015590Y018740D02*
D03*
X015905D02*
D03*
X016220Y018740D02*
D03*
X016535D02*
D03*
X016850D02*
D03*
X017165D02*
D03*
X017480Y018740D02*
D03*
X017795Y018740D02*
D03*
X018110D02*
D03*
X018425D02*
D03*
X018740D02*
D03*
X019055D02*
D03*
X019370Y018740D02*
D03*
X019685Y018740D02*
D03*
X020000D02*
D03*
X020315D02*
D03*
X020630D02*
D03*
X020945D02*
D03*
X021260Y018740D02*
D03*
X021574Y018740D02*
D03*
X015590Y018425D02*
D03*
X015905D02*
D03*
X016220Y018425D02*
D03*
X016535D02*
D03*
X016850Y018425D02*
D03*
X017165D02*
D03*
X017480D02*
D03*
X017795Y018425D02*
D03*
X018110D02*
D03*
X018425D02*
D03*
X018740D02*
D03*
X019055Y018425D02*
D03*
X019370D02*
D03*
X019685D02*
D03*
X020000Y018425D02*
D03*
X020315D02*
D03*
X020630D02*
D03*
X020945D02*
D03*
X021260Y018425D02*
D03*
X021574D02*
D03*
X015590Y018110D02*
D03*
X015905D02*
D03*
X016220Y018110D02*
D03*
X016535Y018110D02*
D03*
X016850D02*
D03*
X017165D02*
D03*
X017480D02*
D03*
X017795D02*
D03*
X018110Y018110D02*
D03*
X018425D02*
D03*
X018740Y018110D02*
D03*
X019055D02*
D03*
X019370D02*
D03*
X019685D02*
D03*
X020000D02*
D03*
X020315Y018110D02*
D03*
X020630D02*
D03*
X020945Y018110D02*
D03*
X021260D02*
D03*
X021574D02*
D03*
X015590Y017795D02*
D03*
X015905D02*
D03*
X016220Y017795D02*
D03*
X016535Y017795D02*
D03*
X016850D02*
D03*
X017165D02*
D03*
X017480D02*
D03*
X017795D02*
D03*
X018110D02*
D03*
X018425Y017795D02*
D03*
X018740Y017795D02*
D03*
X019055D02*
D03*
X019370D02*
D03*
X019685D02*
D03*
X020000D02*
D03*
X020315D02*
D03*
X020630D02*
D03*
X020945D02*
D03*
X021260D02*
D03*
X021574D02*
D03*
X015590Y017480D02*
D03*
X015905D02*
D03*
X016220Y017480D02*
D03*
X016535D02*
D03*
X016850D02*
D03*
X017165Y017480D02*
D03*
X017480D02*
D03*
X017795D02*
D03*
X018110Y017480D02*
D03*
X018425D02*
D03*
X018740Y017480D02*
D03*
X019055D02*
D03*
X019370D02*
D03*
X019685D02*
D03*
X020315Y017480D02*
D03*
X020630D02*
D03*
X020945Y017480D02*
D03*
X021260D02*
D03*
X021574D02*
D03*
X015590Y017165D02*
D03*
X015905D02*
D03*
X016220D02*
D03*
X016535D02*
D03*
X016850D02*
D03*
X017165Y017165D02*
D03*
X017480D02*
D03*
X017795Y017165D02*
D03*
X018110D02*
D03*
X018425D02*
D03*
X018740D02*
D03*
X019055Y017165D02*
D03*
X019370D02*
D03*
X019685D02*
D03*
X020000Y017165D02*
D03*
X020315D02*
D03*
X020630D02*
D03*
X020945D02*
D03*
X021260Y017165D02*
D03*
X021574D02*
D03*
X015590Y016850D02*
D03*
X015905D02*
D03*
X016220Y016850D02*
D03*
X016535D02*
D03*
X016850D02*
D03*
X017165D02*
D03*
X017480Y016850D02*
D03*
X017795Y016850D02*
D03*
X018110D02*
D03*
X018425D02*
D03*
X018740Y016850D02*
D03*
X019055D02*
D03*
X019370Y016850D02*
D03*
X019685D02*
D03*
X020000D02*
D03*
X020315Y016850D02*
D03*
X020630D02*
D03*
X020945D02*
D03*
X021260D02*
D03*
X021574Y016850D02*
D03*
X015590Y016535D02*
D03*
X015905D02*
D03*
X016220D02*
D03*
X016535D02*
D03*
X016850D02*
D03*
X017165D02*
D03*
X017480D02*
D03*
X017795D02*
D03*
X018110D02*
D03*
X018425D02*
D03*
X018740D02*
D03*
X019055D02*
D03*
X019370D02*
D03*
X019685D02*
D03*
X020000D02*
D03*
X020315D02*
D03*
X020630D02*
D03*
X020945D02*
D03*
X021260D02*
D03*
X015590Y016220D02*
D03*
X015905D02*
D03*
X016220Y016220D02*
D03*
X016535D02*
D03*
X016850Y016220D02*
D03*
X017165D02*
D03*
X017480D02*
D03*
X017795Y016220D02*
D03*
X018110D02*
D03*
X018425D02*
D03*
X018740D02*
D03*
X019055Y016220D02*
D03*
X019370D02*
D03*
X019685D02*
D03*
X020000Y016220D02*
D03*
X020315D02*
D03*
X020630D02*
D03*
X020945D02*
D03*
X021260Y016220D02*
D03*
X015590Y015905D02*
D03*
X015905D02*
D03*
X016220D02*
D03*
X016535Y015905D02*
D03*
X016850D02*
D03*
X017165Y015905D02*
D03*
X017480D02*
D03*
X017795Y015905D02*
D03*
X018110Y015905D02*
D03*
X018425D02*
D03*
X018740D02*
D03*
X019055D02*
D03*
X019370D02*
D03*
X019685Y015905D02*
D03*
X020000D02*
D03*
X020315Y015905D02*
D03*
X020630D02*
D03*
X020945D02*
D03*
X021260D02*
D03*
X021574Y015905D02*
D03*
X015590Y015590D02*
D03*
X015905D02*
D03*
X016220Y015590D02*
D03*
X016535Y015590D02*
D03*
X016850D02*
D03*
X017165Y015590D02*
D03*
X017480D02*
D03*
X017795Y015590D02*
D03*
X018110D02*
D03*
X018425Y015590D02*
D03*
X018740Y015590D02*
D03*
X019055D02*
D03*
X019370D02*
D03*
X019685Y015590D02*
D03*
X020000D02*
D03*
X020315D02*
D03*
X020630D02*
D03*
X020945Y015590D02*
D03*
X015275D02*
D03*
X014960D02*
D03*
X015275Y015905D02*
D03*
X014960D02*
D03*
X015275Y016220D02*
D03*
X014960D02*
D03*
X015275Y016535D02*
D03*
X014960D02*
D03*
X015275Y016850D02*
D03*
X014960Y016850D02*
D03*
X015275Y017165D02*
D03*
X014960D02*
D03*
X015275Y017480D02*
D03*
X014960D02*
D03*
X015275Y017795D02*
D03*
X014960D02*
D03*
X015275Y018110D02*
D03*
X014960D02*
D03*
X015275Y018425D02*
D03*
X014960D02*
D03*
X015275Y018740D02*
D03*
X014960D02*
D03*
X015275Y019055D02*
D03*
X014960Y019055D02*
D03*
X015275Y019370D02*
D03*
X014960D02*
D03*
X015275Y019685D02*
D03*
X014960D02*
D03*
X015275Y020000D02*
D03*
X014960D02*
D03*
X015275Y020315D02*
D03*
X014960D02*
D03*
X015275Y020630D02*
D03*
X014960D02*
D03*
X015275Y020945D02*
D03*
X014960Y020945D02*
D03*
X015275Y021260D02*
D03*
X014960D02*
D03*
X015275Y021575D02*
D03*
X014960D02*
D03*
X021574Y021890D02*
D03*
X021260D02*
D03*
X020630D02*
D03*
X020315Y021890D02*
D03*
X020000Y021890D02*
D03*
X019370D02*
D03*
X019055D02*
D03*
X018740D02*
D03*
X018425D02*
D03*
X021574Y022205D02*
D03*
X021260D02*
D03*
X020630D02*
D03*
X020315Y022205D02*
D03*
X020000Y022205D02*
D03*
X019370D02*
D03*
X019055D02*
D03*
X018740D02*
D03*
X018425Y022205D02*
D03*
X018110Y021890D02*
D03*
X017795Y021890D02*
D03*
X017480D02*
D03*
X017165D02*
D03*
X016850D02*
D03*
X016535Y021890D02*
D03*
X018110Y022205D02*
D03*
X017795D02*
D03*
X017480D02*
D03*
X017165D02*
D03*
X016850D02*
D03*
X016535Y022205D02*
D03*
X016220Y021890D02*
D03*
X015905Y021890D02*
D03*
X015590Y021890D02*
D03*
X016220Y022205D02*
D03*
X015905Y022205D02*
D03*
X015590D02*
D03*
X020945Y021890D02*
D03*
Y022205D02*
D03*
X021574Y016535D02*
D03*
Y016220D02*
D03*
X021574Y015590D02*
D03*
X021260D02*
D03*
X020000Y017480D02*
D03*
D135*
X018044Y023434D02*
D03*
X018456D02*
D03*
X018044Y023788D02*
D03*
X018456D02*
D03*
X022933Y016841D02*
D03*
Y016486D02*
D03*
X021663Y024941D02*
D03*
X021663Y024587D02*
D03*
X013819Y020925D02*
D03*
Y020571D02*
D03*
X013799Y019754D02*
D03*
Y020108D02*
D03*
X010394Y018287D02*
D03*
Y018642D02*
D03*
X024596Y016909D02*
D03*
X024596Y016555D02*
D03*
X015005Y025216D02*
D03*
Y025571D02*
D03*
X015005Y024826D02*
D03*
Y024472D02*
D03*
X023750Y013760D02*
D03*
Y013406D02*
D03*
X021703Y023868D02*
D03*
Y023514D02*
D03*
X012205Y016112D02*
D03*
Y015758D02*
D03*
X035285Y014487D02*
D03*
Y014841D02*
D03*
X035499Y022793D02*
D03*
Y022438D02*
D03*
X035259Y022066D02*
D03*
Y021711D02*
D03*
X035689Y014846D02*
D03*
Y014491D02*
D03*
X033169Y018456D02*
D03*
Y018101D02*
D03*
X033639Y018453D02*
D03*
Y018098D02*
D03*
X035779Y022073D02*
D03*
Y021718D02*
D03*
X036709Y022065D02*
D03*
Y021711D02*
D03*
X036299Y022065D02*
D03*
Y021711D02*
D03*
X036029Y022790D02*
D03*
Y022436D02*
D03*
X036329Y015143D02*
D03*
Y014788D02*
D03*
X037529Y014788D02*
D03*
Y015143D02*
D03*
X037119Y022065D02*
D03*
Y021711D02*
D03*
X037089Y014776D02*
D03*
Y015130D02*
D03*
X037529Y022065D02*
D03*
Y021711D02*
D03*
D136*
X023632Y011073D02*
D03*
Y010443D02*
D03*
X036467Y012685D02*
D03*
Y012056D02*
D03*
D137*
X013996Y012116D02*
D03*
Y012825D02*
D03*
D138*
X010827Y022118D02*
D03*
Y022488D02*
D03*
X010423Y022118D02*
D03*
X010423Y022488D02*
D03*
X016024Y011098D02*
D03*
Y011468D02*
D03*
X014787Y010878D02*
D03*
Y011248D02*
D03*
X016425Y011098D02*
D03*
Y011468D02*
D03*
X013002Y012226D02*
D03*
X013002Y012596D02*
D03*
X012648D02*
D03*
Y012226D02*
D03*
X013729Y018222D02*
D03*
Y018593D02*
D03*
X014130Y018593D02*
D03*
Y018222D02*
D03*
X015005Y026307D02*
D03*
Y025937D02*
D03*
X016441Y023785D02*
D03*
Y023415D02*
D03*
X014035Y016819D02*
D03*
Y016449D02*
D03*
X036458Y010859D02*
D03*
Y010489D02*
D03*
X038455Y012014D02*
D03*
Y011644D02*
D03*
X038986Y012014D02*
D03*
Y011644D02*
D03*
X039498Y012014D02*
D03*
Y011644D02*
D03*
D139*
X011878Y017697D02*
D03*
X011508D02*
D03*
X025563Y011732D02*
D03*
X025933D02*
D03*
X019821Y011047D02*
D03*
X020191D02*
D03*
X020913Y011043D02*
D03*
X020543D02*
D03*
X023293Y016125D02*
D03*
X022923D02*
D03*
X012207Y013150D02*
D03*
X012577D02*
D03*
X012193Y012234D02*
D03*
X011823D02*
D03*
X012193Y012648D02*
D03*
X011823D02*
D03*
X023335Y021850D02*
D03*
X022965D02*
D03*
X023663Y021788D02*
D03*
X024033D02*
D03*
X023335Y022234D02*
D03*
X022965D02*
D03*
X023335Y022618D02*
D03*
X022965D02*
D03*
X023004Y022992D02*
D03*
X023374D02*
D03*
X023663Y022175D02*
D03*
X024033D02*
D03*
X023335Y021467D02*
D03*
X022965D02*
D03*
X023663Y018797D02*
D03*
X024033D02*
D03*
X023663Y019581D02*
D03*
X024033D02*
D03*
X023663Y019189D02*
D03*
X024033D02*
D03*
X023335Y017205D02*
D03*
X022965D02*
D03*
X023663Y019972D02*
D03*
X024033D02*
D03*
X023335Y017608D02*
D03*
X022965D02*
D03*
X023335Y018377D02*
D03*
X022965D02*
D03*
X023335Y017992D02*
D03*
X022965D02*
D03*
X023663Y020364D02*
D03*
X024033D02*
D03*
X023663Y018406D02*
D03*
X024033D02*
D03*
X023663Y021014D02*
D03*
X024033D02*
D03*
X023663Y021401D02*
D03*
X024033D02*
D03*
X023335Y020300D02*
D03*
X022965D02*
D03*
X023335Y019915D02*
D03*
X022965D02*
D03*
X023335Y021069D02*
D03*
X022965D02*
D03*
X023335Y020684D02*
D03*
X022965D02*
D03*
X023335Y019146D02*
D03*
X022965D02*
D03*
X023335Y018761D02*
D03*
X022965D02*
D03*
X023335Y019531D02*
D03*
X022965D02*
D03*
X010591Y023494D02*
D03*
X010220D02*
D03*
X010937D02*
D03*
X011307D02*
D03*
X022650Y013032D02*
D03*
X023020D02*
D03*
X013669Y014990D02*
D03*
X013299D02*
D03*
X038810Y016445D02*
D03*
X039180D02*
D03*
X037961Y018838D02*
D03*
X038331D02*
D03*
X034843Y026070D02*
D03*
X035213D02*
D03*
X038810Y016052D02*
D03*
X039180Y016052D02*
D03*
X038810Y015658D02*
D03*
X039180D02*
D03*
D140*
X023622Y012953D02*
D03*
Y012795D02*
D03*
Y012638D02*
D03*
Y012480D02*
D03*
Y012323D02*
D03*
Y012165D02*
D03*
Y012008D02*
D03*
X024803D02*
D03*
Y012165D02*
D03*
Y012323D02*
D03*
Y012480D02*
D03*
Y012638D02*
D03*
Y012795D02*
D03*
Y012953D02*
D03*
D141*
X024213Y012480D02*
D03*
D142*
X020059Y010433D02*
D03*
X019429D02*
D03*
X034859Y013446D02*
D03*
X035489D02*
D03*
X037578Y023255D02*
D03*
X036948D02*
D03*
X037578Y022654D02*
D03*
X036948D02*
D03*
D143*
X014350Y010522D02*
D03*
Y011171D02*
D03*
X011018Y023975D02*
D03*
Y024625D02*
D03*
X010467Y023975D02*
D03*
Y024625D02*
D03*
X038455Y010500D02*
D03*
Y011150D02*
D03*
X038986Y010500D02*
D03*
Y011150D02*
D03*
X039508Y010500D02*
D03*
Y011150D02*
D03*
D144*
X020276Y014232D02*
D03*
Y013642D02*
D03*
X014892Y014232D02*
D03*
Y013642D02*
D03*
X016919Y014232D02*
D03*
Y013642D02*
D03*
X017534Y014232D02*
D03*
Y013642D02*
D03*
X018130Y014232D02*
D03*
Y013642D02*
D03*
X017480Y022943D02*
D03*
Y023533D02*
D03*
X037087Y012676D02*
D03*
Y013266D02*
D03*
D145*
X011968Y011683D02*
D03*
X012992D02*
D03*
D146*
X019557Y012884D02*
D03*
X020266D02*
D03*
X021319Y012717D02*
D03*
X022028D02*
D03*
X016289Y012835D02*
D03*
X016998D02*
D03*
D147*
X022884Y011752D02*
D03*
Y012343D02*
D03*
X019016Y012234D02*
D03*
Y012825D02*
D03*
X015472Y011526D02*
D03*
Y012116D02*
D03*
X018285Y011776D02*
D03*
Y012366D02*
D03*
D148*
X015591Y012923D02*
D03*
Y013632D02*
D03*
D149*
X019222Y014715D02*
D03*
Y013612D02*
D03*
D150*
X023750Y017756D02*
D03*
X024341D02*
D03*
X021171Y024035D02*
D03*
X020581D02*
D03*
X022421Y013691D02*
D03*
X023012D02*
D03*
X035343Y023875D02*
D03*
X034753D02*
D03*
D151*
X011850Y013780D02*
D03*
X012224Y013780D02*
D03*
X012598Y013780D02*
D03*
Y014843D02*
D03*
X012224Y014843D02*
D03*
X011850Y014843D02*
D03*
D152*
X013032Y021211D02*
D03*
X012835D02*
D03*
X012638D02*
D03*
X012441D02*
D03*
X012244D02*
D03*
X012047D02*
D03*
X011850D02*
D03*
X011654D02*
D03*
X011457D02*
D03*
X011260D02*
D03*
X011063D02*
D03*
Y018494D02*
D03*
X011260D02*
D03*
X011457D02*
D03*
X011654D02*
D03*
X011850D02*
D03*
X012047D02*
D03*
X012244D02*
D03*
X012441D02*
D03*
X012638D02*
D03*
X012835D02*
D03*
X013032D02*
D03*
D153*
X010689Y020837D02*
D03*
Y020640D02*
D03*
Y020443D02*
D03*
Y020246D02*
D03*
Y020049D02*
D03*
Y019852D02*
D03*
Y019656D02*
D03*
Y019459D02*
D03*
Y019262D02*
D03*
Y019065D02*
D03*
Y018868D02*
D03*
X013406D02*
D03*
Y019065D02*
D03*
Y019262D02*
D03*
Y019459D02*
D03*
Y019656D02*
D03*
Y019852D02*
D03*
Y020049D02*
D03*
Y020246D02*
D03*
Y020443D02*
D03*
Y020640D02*
D03*
Y020837D02*
D03*
D154*
X012047Y019852D02*
D03*
D155*
X023868Y016890D02*
D03*
D156*
X024183Y016476D02*
D03*
X024026D02*
D03*
X023868D02*
D03*
X023711D02*
D03*
X023553D02*
D03*
Y017303D02*
D03*
X023711D02*
D03*
X023868D02*
D03*
X024026D02*
D03*
X024183D02*
D03*
D157*
X017455Y011240D02*
D03*
X022037Y011230D02*
D03*
D158*
X016785Y010591D02*
D03*
X018124D02*
D03*
X021368Y010581D02*
D03*
X022707D02*
D03*
D159*
X011850Y022874D02*
D03*
Y022008D02*
D03*
X012520Y022874D02*
D03*
Y022008D02*
D03*
X023996Y014685D02*
D03*
Y015551D02*
D03*
X023248Y015551D02*
D03*
Y014685D02*
D03*
D160*
X025651Y024645D02*
D03*
X026025Y023739D02*
D03*
X025277D02*
D03*
X040463Y010524D02*
D03*
X040089Y011429D02*
D03*
X040837D02*
D03*
X041860Y010524D02*
D03*
X041486Y011429D02*
D03*
X042234D02*
D03*
D161*
X017894Y024646D02*
D03*
Y024803D02*
D03*
Y024961D02*
D03*
Y025118D02*
D03*
Y025276D02*
D03*
Y025748D02*
D03*
X015571D02*
D03*
Y025591D02*
D03*
Y025433D02*
D03*
Y025276D02*
D03*
Y025118D02*
D03*
Y024961D02*
D03*
Y024803D02*
D03*
Y024646D02*
D03*
X017894Y025591D02*
D03*
Y025433D02*
D03*
D162*
X017598Y025965D02*
D03*
X017441D02*
D03*
X017283D02*
D03*
X017126D02*
D03*
X016968D02*
D03*
X016811Y025965D02*
D03*
X016654D02*
D03*
X016496Y025965D02*
D03*
X016339D02*
D03*
X016181D02*
D03*
X016024D02*
D03*
X015866D02*
D03*
Y024429D02*
D03*
X016024D02*
D03*
X016181D02*
D03*
X016339D02*
D03*
X016496D02*
D03*
X016654Y024429D02*
D03*
X016811D02*
D03*
X016968Y024429D02*
D03*
X017126D02*
D03*
X017283D02*
D03*
X017441D02*
D03*
X017598D02*
D03*
D163*
X016732Y025197D02*
D03*
D164*
X015935Y023760D02*
D03*
X015935Y022972D02*
D03*
X015305D02*
D03*
Y023760D02*
D03*
D165*
X013022Y014592D02*
D03*
X013671D02*
D03*
D166*
X013612Y015778D02*
D03*
X012707Y015404D02*
D03*
Y016152D02*
D03*
D167*
X013563Y016654D02*
D03*
X012657Y017028D02*
D03*
D168*
X013563Y017402D02*
D03*
D169*
X033278Y011586D02*
D03*
X038524Y024969D02*
D03*
D170*
X035640Y012586D02*
D03*
Y012086D02*
D03*
Y011586D02*
D03*
Y011086D02*
D03*
Y010586D02*
D03*
X036161Y023969D02*
D03*
X036161Y024469D02*
D03*
X036161Y024969D02*
D03*
Y025469D02*
D03*
Y025969D02*
D03*
D171*
X038435Y023109D02*
D03*
X039616D02*
D03*
X038937Y013069D02*
D03*
X037756D02*
D03*
D172*
X033936Y025046D02*
D03*
Y023865D02*
D03*
D173*
X037067Y011130D02*
D03*
Y010500D02*
D03*
D174*
X037707Y012065D02*
D03*
X037077D02*
D03*
X035324Y025460D02*
D03*
X034694D02*
D03*
X034713Y024475D02*
D03*
X035343D02*
D03*
D175*
X041831Y024713D02*
D03*
X039646D02*
D03*
D176*
X031112Y017970D02*
D03*
X029832Y014428D02*
D03*
Y014624D02*
D03*
Y014821D02*
D03*
Y015018D02*
D03*
Y015215D02*
D03*
Y015412D02*
D03*
Y015609D02*
D03*
Y015805D02*
D03*
Y016002D02*
D03*
Y016199D02*
D03*
Y016396D02*
D03*
Y016593D02*
D03*
Y016790D02*
D03*
Y016987D02*
D03*
Y017183D02*
D03*
Y017382D02*
D03*
Y017574D02*
D03*
Y017775D02*
D03*
Y017972D02*
D03*
Y018169D02*
D03*
Y018366D02*
D03*
Y018563D02*
D03*
Y018760D02*
D03*
Y018957D02*
D03*
Y019153D02*
D03*
X029828Y019351D02*
D03*
X029832Y019547D02*
D03*
Y019744D02*
D03*
Y019941D02*
D03*
Y020138D02*
D03*
Y020334D02*
D03*
Y020532D02*
D03*
Y020723D02*
D03*
Y020925D02*
D03*
Y021122D02*
D03*
Y021319D02*
D03*
Y021516D02*
D03*
Y021712D02*
D03*
Y021909D02*
D03*
Y022106D02*
D03*
X031112Y014820D02*
D03*
Y015017D02*
D03*
Y015214D02*
D03*
Y015410D02*
D03*
Y015607D02*
D03*
Y015809D02*
D03*
Y016001D02*
D03*
Y016198D02*
D03*
Y016395D02*
D03*
Y016591D02*
D03*
Y016788D02*
D03*
Y016985D02*
D03*
X031117Y017181D02*
D03*
X031112Y017379D02*
D03*
Y017576D02*
D03*
Y017773D02*
D03*
Y018166D02*
D03*
Y018363D02*
D03*
Y018560D02*
D03*
Y018757D02*
D03*
Y018959D02*
D03*
Y019150D02*
D03*
Y019349D02*
D03*
Y019546D02*
D03*
Y019742D02*
D03*
Y019939D02*
D03*
Y020136D02*
D03*
Y020333D02*
D03*
Y020530D02*
D03*
Y020727D02*
D03*
Y020924D02*
D03*
Y021120D02*
D03*
Y021317D02*
D03*
Y021514D02*
D03*
Y021711D02*
D03*
Y021908D02*
D03*
Y022105D02*
D03*
Y014623D02*
D03*
Y014426D02*
D03*
X040856Y014428D02*
D03*
Y014624D02*
D03*
Y014821D02*
D03*
Y015018D02*
D03*
Y015215D02*
D03*
Y015412D02*
D03*
Y015609D02*
D03*
Y015805D02*
D03*
Y016002D02*
D03*
Y016199D02*
D03*
Y016396D02*
D03*
Y016593D02*
D03*
Y016790D02*
D03*
Y016987D02*
D03*
Y017183D02*
D03*
Y017382D02*
D03*
Y017574D02*
D03*
Y017775D02*
D03*
Y017972D02*
D03*
Y018169D02*
D03*
Y018366D02*
D03*
Y018563D02*
D03*
Y018760D02*
D03*
Y018957D02*
D03*
Y019153D02*
D03*
X040851Y019351D02*
D03*
X040856Y019547D02*
D03*
Y019744D02*
D03*
Y019941D02*
D03*
Y020138D02*
D03*
Y020334D02*
D03*
Y020532D02*
D03*
Y020723D02*
D03*
Y020925D02*
D03*
Y021122D02*
D03*
Y021319D02*
D03*
Y021516D02*
D03*
Y021712D02*
D03*
Y021909D02*
D03*
Y022106D02*
D03*
X042136Y014426D02*
D03*
Y014623D02*
D03*
Y014820D02*
D03*
Y015017D02*
D03*
Y015214D02*
D03*
Y015410D02*
D03*
Y015607D02*
D03*
Y015809D02*
D03*
Y016001D02*
D03*
Y016198D02*
D03*
Y016395D02*
D03*
Y016591D02*
D03*
Y016788D02*
D03*
Y016985D02*
D03*
X042141Y017181D02*
D03*
X042136Y017379D02*
D03*
Y017576D02*
D03*
Y017773D02*
D03*
Y017970D02*
D03*
Y018166D02*
D03*
Y018363D02*
D03*
Y018560D02*
D03*
Y018757D02*
D03*
Y018959D02*
D03*
Y019150D02*
D03*
Y019349D02*
D03*
Y019546D02*
D03*
Y019742D02*
D03*
Y019939D02*
D03*
Y020136D02*
D03*
Y020333D02*
D03*
Y020530D02*
D03*
Y020727D02*
D03*
Y020924D02*
D03*
Y021120D02*
D03*
Y021317D02*
D03*
Y021514D02*
D03*
Y021711D02*
D03*
Y021908D02*
D03*
Y022105D02*
D03*
D177*
X029783Y011809D02*
D03*
X031161D02*
D03*
M02*
