G04 Layer_Color=65535*
%FSAX24Y24*%
%MOIN*%
G70*
G01*
G75*
%ADD10C,0.0049*%
%ADD11C,0.0049*%
%ADD14C,0.0118*%
%ADD65C,0.0079*%
%ADD68C,0.0120*%
%ADD69C,0.0098*%
%ADD70C,0.0059*%
%ADD73C,0.0039*%
%ADD79C,0.0100*%
%ADD128R,0.0217X0.0630*%
G36*
X039340Y012469D02*
X039342Y012468D01*
X039346Y012468D01*
X039350Y012467D01*
X039354Y012466D01*
X039362Y012463D01*
X039367Y012461D01*
X039372Y012459D01*
X039377Y012456D01*
X039382Y012453D01*
X039387Y012449D01*
X039391Y012445D01*
X039391Y012444D01*
X039392Y012444D01*
X039393Y012442D01*
X039395Y012440D01*
X039396Y012438D01*
X039398Y012435D01*
X039400Y012432D01*
X039403Y012428D01*
X039405Y012424D01*
X039407Y012419D01*
X039409Y012414D01*
X039411Y012409D01*
X039412Y012403D01*
X039413Y012397D01*
X039414Y012391D01*
X039414Y012384D01*
Y012384D01*
Y012383D01*
Y012381D01*
X039414Y012378D01*
X039413Y012375D01*
X039413Y012372D01*
X039412Y012369D01*
X039412Y012364D01*
X039409Y012355D01*
X039406Y012346D01*
X039404Y012341D01*
X039401Y012337D01*
X039398Y012332D01*
X039395Y012327D01*
X039394Y012327D01*
X039393Y012326D01*
X039392Y012325D01*
X039391Y012324D01*
X039389Y012322D01*
X039387Y012320D01*
X039384Y012318D01*
X039381Y012316D01*
X039377Y012314D01*
X039373Y012311D01*
X039365Y012307D01*
X039354Y012304D01*
X039349Y012302D01*
X039343Y012302D01*
X039337Y012348D01*
X039338D01*
X039340Y012349D01*
X039344Y012349D01*
X039348Y012350D01*
X039352Y012352D01*
X039357Y012354D01*
X039361Y012357D01*
X039365Y012360D01*
X039365Y012361D01*
X039367Y012362D01*
X039368Y012364D01*
X039369Y012367D01*
X039371Y012370D01*
X039373Y012374D01*
X039374Y012379D01*
X039374Y012384D01*
Y012385D01*
X039374Y012386D01*
X039373Y012389D01*
X039373Y012393D01*
X039371Y012397D01*
X039369Y012401D01*
X039367Y012405D01*
X039363Y012409D01*
X039362Y012409D01*
X039361Y012411D01*
X039358Y012412D01*
X039355Y012414D01*
X039350Y012416D01*
X039345Y012418D01*
X039339Y012419D01*
X039332Y012420D01*
X039329D01*
X039326Y012419D01*
X039321Y012418D01*
X039317Y012417D01*
X039312Y012415D01*
X039307Y012413D01*
X039303Y012409D01*
X039302Y012409D01*
X039301Y012407D01*
X039299Y012405D01*
X039297Y012403D01*
X039295Y012399D01*
X039294Y012395D01*
X039292Y012391D01*
X039292Y012386D01*
Y012385D01*
Y012384D01*
Y012382D01*
X039292Y012379D01*
X039293Y012376D01*
X039293Y012372D01*
X039294Y012368D01*
X039296Y012363D01*
X039257Y012369D01*
Y012369D01*
Y012369D01*
Y012370D01*
Y012372D01*
X039256Y012375D01*
X039256Y012380D01*
X039255Y012385D01*
X039253Y012390D01*
X039251Y012394D01*
X039248Y012399D01*
X039248Y012399D01*
X039246Y012401D01*
X039245Y012402D01*
X039242Y012404D01*
X039238Y012406D01*
X039234Y012408D01*
X039230Y012409D01*
X039224Y012409D01*
X039222D01*
X039220Y012409D01*
X039217Y012408D01*
X039214Y012407D01*
X039210Y012406D01*
X039207Y012404D01*
X039204Y012402D01*
X039203Y012401D01*
X039203Y012400D01*
X039201Y012399D01*
X039200Y012396D01*
X039199Y012393D01*
X039197Y012390D01*
X039197Y012386D01*
X039196Y012381D01*
Y012381D01*
Y012379D01*
X039197Y012377D01*
X039197Y012374D01*
X039198Y012371D01*
X039200Y012367D01*
X039202Y012363D01*
X039205Y012360D01*
X039205Y012360D01*
X039206Y012359D01*
X039209Y012357D01*
X039211Y012355D01*
X039215Y012354D01*
X039219Y012352D01*
X039224Y012351D01*
X039230Y012350D01*
X039223Y012305D01*
X039222D01*
X039222Y012306D01*
X039221D01*
X039219Y012306D01*
X039215Y012307D01*
X039209Y012308D01*
X039203Y012311D01*
X039197Y012313D01*
X039191Y012316D01*
X039186Y012319D01*
X039185Y012319D01*
X039184Y012321D01*
X039181Y012323D01*
X039178Y012326D01*
X039175Y012330D01*
X039171Y012334D01*
X039167Y012339D01*
X039164Y012345D01*
Y012346D01*
X039164Y012346D01*
X039163Y012348D01*
X039162Y012352D01*
X039160Y012356D01*
X039159Y012362D01*
X039157Y012368D01*
X039156Y012375D01*
X039156Y012383D01*
Y012383D01*
Y012384D01*
Y012386D01*
X039156Y012389D01*
X039157Y012392D01*
X039157Y012395D01*
X039158Y012399D01*
X039159Y012403D01*
X039162Y012412D01*
X039163Y012417D01*
X039166Y012422D01*
X039168Y012427D01*
X039171Y012431D01*
X039175Y012436D01*
X039179Y012440D01*
X039179Y012440D01*
X039180Y012441D01*
X039181Y012442D01*
X039182Y012443D01*
X039186Y012446D01*
X039191Y012449D01*
X039197Y012452D01*
X039205Y012455D01*
X039213Y012457D01*
X039217Y012457D01*
X039221Y012458D01*
X039222D01*
X039224Y012457D01*
X039226Y012457D01*
X039229Y012457D01*
X039233Y012456D01*
X039236Y012455D01*
X039240Y012453D01*
X039244Y012451D01*
X039249Y012449D01*
X039253Y012446D01*
X039257Y012442D01*
X039262Y012438D01*
X039266Y012433D01*
X039270Y012428D01*
X039274Y012421D01*
Y012422D01*
X039274Y012422D01*
Y012424D01*
X039275Y012425D01*
X039276Y012429D01*
X039278Y012434D01*
X039281Y012439D01*
X039285Y012445D01*
X039290Y012451D01*
X039295Y012456D01*
X039296Y012457D01*
X039298Y012458D01*
X039301Y012460D01*
X039306Y012462D01*
X039312Y012465D01*
X039318Y012467D01*
X039326Y012468D01*
X039334Y012469D01*
X039337D01*
X039340Y012469D01*
D02*
G37*
G36*
X039986Y012901D02*
X039992Y012901D01*
X039999Y012900D01*
X040006Y012900D01*
X040014Y012899D01*
X040022Y012897D01*
X040031Y012896D01*
X040039Y012894D01*
X040048Y012891D01*
X040056Y012889D01*
X040064Y012885D01*
X040071Y012881D01*
X040077Y012877D01*
X040078Y012877D01*
X040078Y012876D01*
X040080Y012875D01*
X040081Y012873D01*
X040083Y012871D01*
X040085Y012869D01*
X040088Y012865D01*
X040090Y012862D01*
X040093Y012858D01*
X040095Y012854D01*
X040097Y012849D01*
X040099Y012844D01*
X040101Y012839D01*
X040102Y012833D01*
X040103Y012826D01*
X040103Y012820D01*
Y012820D01*
Y012818D01*
X040103Y012816D01*
Y012814D01*
X040102Y012811D01*
X040102Y012807D01*
X040101Y012803D01*
X040100Y012799D01*
X040098Y012794D01*
X040096Y012789D01*
X040094Y012784D01*
X040091Y012780D01*
X040088Y012774D01*
X040084Y012770D01*
X040080Y012765D01*
X040075Y012761D01*
X040075Y012760D01*
X040074Y012759D01*
X040072Y012758D01*
X040070Y012757D01*
X040066Y012755D01*
X040062Y012754D01*
X040057Y012751D01*
X040052Y012750D01*
X040045Y012747D01*
X040038Y012745D01*
X040030Y012743D01*
X040021Y012742D01*
X040010Y012741D01*
X039999Y012739D01*
X039987Y012739D01*
X039974Y012738D01*
X039967D01*
X039962Y012739D01*
X039956Y012739D01*
X039950Y012740D01*
X039942Y012741D01*
X039934Y012741D01*
X039926Y012743D01*
X039918Y012744D01*
X039909Y012746D01*
X039900Y012749D01*
X039892Y012751D01*
X039885Y012755D01*
X039877Y012758D01*
X039871Y012763D01*
X039871Y012763D01*
X039870Y012764D01*
X039869Y012765D01*
X039867Y012767D01*
X039865Y012769D01*
X039863Y012771D01*
X039861Y012774D01*
X039858Y012778D01*
X039856Y012782D01*
X039853Y012786D01*
X039851Y012790D01*
X039849Y012796D01*
X039848Y012801D01*
X039846Y012807D01*
X039845Y012813D01*
X039845Y012820D01*
Y012820D01*
Y012821D01*
Y012824D01*
X039845Y012826D01*
X039846Y012829D01*
X039847Y012833D01*
X039847Y012836D01*
X039848Y012841D01*
X039850Y012845D01*
X039852Y012850D01*
X039853Y012854D01*
X039856Y012859D01*
X039859Y012864D01*
X039863Y012869D01*
X039867Y012873D01*
X039871Y012877D01*
X039872Y012877D01*
X039873Y012878D01*
X039875Y012879D01*
X039877Y012881D01*
X039881Y012883D01*
X039885Y012885D01*
X039890Y012887D01*
X039896Y012889D01*
X039903Y012892D01*
X039910Y012894D01*
X039919Y012896D01*
X039928Y012898D01*
X039938Y012900D01*
X039949Y012901D01*
X039961Y012901D01*
X039974Y012902D01*
X039981D01*
X039986Y012901D01*
D02*
G37*
G36*
X039409Y012630D02*
Y012575D01*
X039158Y012484D01*
Y012539D01*
X039344Y012603D01*
X039158Y012665D01*
Y012719D01*
X039409Y012630D01*
D02*
G37*
G36*
X042073Y024338D02*
X042072D01*
X042068Y024337D01*
X042061Y024336D01*
X042053Y024334D01*
X042044Y024330D01*
X042035Y024326D01*
X042026Y024320D01*
X042018Y024314D01*
X042017Y024313D01*
X042015Y024310D01*
X042012Y024306D01*
X042009Y024301D01*
X042006Y024294D01*
X042003Y024285D01*
X042001Y024277D01*
X042000Y024267D01*
Y024265D01*
X042001Y024261D01*
X042001Y024256D01*
X042003Y024249D01*
X042006Y024241D01*
X042009Y024233D01*
X042015Y024224D01*
X042022Y024216D01*
X042023Y024216D01*
X042027Y024213D01*
X042032Y024210D01*
X042038Y024205D01*
X042047Y024202D01*
X042058Y024198D01*
X042071Y024196D01*
X042084Y024195D01*
X042090D01*
X042097Y024196D01*
X042106Y024197D01*
X042115Y024200D01*
X042125Y024204D01*
X042134Y024209D01*
X042143Y024216D01*
X042143Y024216D01*
X042146Y024219D01*
X042150Y024224D01*
X042154Y024229D01*
X042158Y024236D01*
X042161Y024244D01*
X042164Y024253D01*
X042165Y024263D01*
Y024264D01*
Y024267D01*
Y024270D01*
X042164Y024275D01*
X042163Y024282D01*
X042162Y024290D01*
X042160Y024298D01*
X042157Y024307D01*
X042235Y024297D01*
Y024296D01*
Y024296D01*
Y024294D01*
Y024291D01*
X042236Y024283D01*
X042237Y024275D01*
X042239Y024265D01*
X042242Y024255D01*
X042246Y024245D01*
X042252Y024237D01*
X042253Y024236D01*
X042256Y024233D01*
X042259Y024230D01*
X042265Y024226D01*
X042272Y024222D01*
X042280Y024218D01*
X042289Y024216D01*
X042300Y024216D01*
X042305D01*
X042309Y024216D01*
X042315Y024218D01*
X042321Y024219D01*
X042328Y024222D01*
X042335Y024226D01*
X042341Y024231D01*
X042342Y024232D01*
X042343Y024234D01*
X042346Y024237D01*
X042349Y024242D01*
X042351Y024248D01*
X042354Y024254D01*
X042356Y024263D01*
X042356Y024272D01*
Y024272D01*
Y024276D01*
X042356Y024280D01*
X042354Y024286D01*
X042352Y024293D01*
X042349Y024300D01*
X042345Y024307D01*
X042339Y024314D01*
X042338Y024315D01*
X042336Y024317D01*
X042332Y024320D01*
X042326Y024323D01*
X042319Y024327D01*
X042310Y024330D01*
X042300Y024333D01*
X042289Y024335D01*
X042303Y024424D01*
X042304D01*
X042305Y024423D01*
X042307D01*
X042311Y024423D01*
X042319Y024420D01*
X042330Y024417D01*
X042342Y024413D01*
X042354Y024409D01*
X042366Y024403D01*
X042377Y024396D01*
X042378Y024396D01*
X042381Y024393D01*
X042386Y024388D01*
X042393Y024382D01*
X042399Y024375D01*
X042407Y024366D01*
X042414Y024355D01*
X042420Y024344D01*
Y024343D01*
X042421Y024342D01*
X042423Y024338D01*
X042426Y024331D01*
X042428Y024322D01*
X042431Y024311D01*
X042434Y024298D01*
X042436Y024284D01*
X042437Y024269D01*
Y024268D01*
Y024266D01*
Y024262D01*
X042436Y024257D01*
X042435Y024251D01*
X042434Y024244D01*
X042433Y024236D01*
X042431Y024228D01*
X042426Y024210D01*
X042422Y024200D01*
X042417Y024190D01*
X042412Y024181D01*
X042406Y024172D01*
X042399Y024162D01*
X042391Y024154D01*
X042390Y024154D01*
X042389Y024153D01*
X042387Y024151D01*
X042384Y024148D01*
X042377Y024143D01*
X042367Y024136D01*
X042354Y024129D01*
X042340Y024124D01*
X042324Y024120D01*
X042316Y024119D01*
X042307Y024119D01*
X042304D01*
X042300Y024119D01*
X042296Y024120D01*
X042290Y024121D01*
X042283Y024122D01*
X042276Y024124D01*
X042268Y024127D01*
X042260Y024132D01*
X042251Y024136D01*
X042243Y024142D01*
X042234Y024149D01*
X042225Y024158D01*
X042216Y024167D01*
X042208Y024178D01*
X042200Y024191D01*
Y024191D01*
X042200Y024189D01*
Y024187D01*
X042198Y024184D01*
X042196Y024176D01*
X042192Y024167D01*
X042186Y024156D01*
X042178Y024144D01*
X042169Y024132D01*
X042158Y024122D01*
X042157Y024121D01*
X042152Y024118D01*
X042146Y024114D01*
X042136Y024109D01*
X042125Y024104D01*
X042111Y024100D01*
X042097Y024097D01*
X042080Y024096D01*
X042073D01*
X042069Y024097D01*
X042063Y024097D01*
X042057Y024099D01*
X042049Y024100D01*
X042041Y024102D01*
X042023Y024108D01*
X042014Y024112D01*
X042003Y024116D01*
X041994Y024122D01*
X041985Y024129D01*
X041975Y024136D01*
X041966Y024145D01*
X041966Y024146D01*
X041964Y024147D01*
X041962Y024150D01*
X041959Y024154D01*
X041955Y024159D01*
X041952Y024164D01*
X041947Y024171D01*
X041943Y024178D01*
X041939Y024186D01*
X041934Y024196D01*
X041931Y024206D01*
X041927Y024216D01*
X041924Y024228D01*
X041922Y024240D01*
X041920Y024253D01*
X041920Y024266D01*
Y024267D01*
Y024269D01*
Y024272D01*
X041920Y024277D01*
X041921Y024283D01*
X041922Y024290D01*
X041923Y024297D01*
X041925Y024306D01*
X041929Y024323D01*
X041936Y024342D01*
X041941Y024353D01*
X041946Y024361D01*
X041952Y024371D01*
X041959Y024380D01*
X041960Y024380D01*
X041961Y024382D01*
X041963Y024384D01*
X041966Y024387D01*
X041970Y024390D01*
X041975Y024394D01*
X041980Y024398D01*
X041987Y024403D01*
X041994Y024407D01*
X042001Y024412D01*
X042019Y024420D01*
X042039Y024427D01*
X042050Y024430D01*
X042062Y024431D01*
X042073Y024338D01*
D02*
G37*
G36*
X039340Y012899D02*
X039342Y012899D01*
X039346Y012898D01*
X039350Y012897D01*
X039354Y012897D01*
X039362Y012894D01*
X039367Y012892D01*
X039372Y012889D01*
X039377Y012887D01*
X039382Y012883D01*
X039387Y012880D01*
X039391Y012875D01*
X039391Y012875D01*
X039392Y012874D01*
X039393Y012873D01*
X039395Y012871D01*
X039396Y012868D01*
X039398Y012866D01*
X039400Y012862D01*
X039403Y012858D01*
X039405Y012854D01*
X039407Y012850D01*
X039409Y012845D01*
X039411Y012840D01*
X039412Y012834D01*
X039413Y012828D01*
X039414Y012821D01*
X039414Y012815D01*
Y012814D01*
Y012813D01*
Y012812D01*
X039414Y012809D01*
X039413Y012806D01*
X039413Y012803D01*
X039412Y012799D01*
X039412Y012795D01*
X039409Y012786D01*
X039406Y012777D01*
X039404Y012772D01*
X039401Y012767D01*
X039398Y012762D01*
X039395Y012758D01*
X039394Y012758D01*
X039393Y012757D01*
X039392Y012756D01*
X039391Y012754D01*
X039389Y012753D01*
X039387Y012751D01*
X039384Y012749D01*
X039381Y012746D01*
X039377Y012744D01*
X039373Y012742D01*
X039365Y012738D01*
X039354Y012734D01*
X039349Y012733D01*
X039343Y012732D01*
X039337Y012779D01*
X039338D01*
X039340Y012779D01*
X039344Y012780D01*
X039348Y012781D01*
X039352Y012783D01*
X039357Y012785D01*
X039361Y012788D01*
X039365Y012791D01*
X039365Y012791D01*
X039367Y012793D01*
X039368Y012795D01*
X039369Y012797D01*
X039371Y012801D01*
X039373Y012805D01*
X039374Y012809D01*
X039374Y012814D01*
Y012815D01*
X039374Y012817D01*
X039373Y012820D01*
X039373Y012823D01*
X039371Y012827D01*
X039369Y012831D01*
X039367Y012836D01*
X039363Y012840D01*
X039362Y012840D01*
X039361Y012841D01*
X039358Y012843D01*
X039355Y012845D01*
X039350Y012847D01*
X039345Y012849D01*
X039339Y012850D01*
X039332Y012850D01*
X039329D01*
X039326Y012850D01*
X039321Y012849D01*
X039317Y012848D01*
X039312Y012846D01*
X039307Y012843D01*
X039303Y012840D01*
X039302Y012840D01*
X039301Y012838D01*
X039299Y012836D01*
X039297Y012833D01*
X039295Y012830D01*
X039294Y012826D01*
X039292Y012821D01*
X039292Y012816D01*
Y012816D01*
Y012814D01*
Y012813D01*
X039292Y012810D01*
X039293Y012807D01*
X039293Y012803D01*
X039294Y012799D01*
X039296Y012794D01*
X039257Y012799D01*
Y012800D01*
Y012800D01*
Y012801D01*
Y012802D01*
X039256Y012806D01*
X039256Y012810D01*
X039255Y012815D01*
X039253Y012820D01*
X039251Y012825D01*
X039248Y012829D01*
X039248Y012830D01*
X039246Y012831D01*
X039245Y012833D01*
X039242Y012835D01*
X039238Y012837D01*
X039234Y012838D01*
X039230Y012840D01*
X039224Y012840D01*
X039222D01*
X039220Y012840D01*
X039217Y012839D01*
X039214Y012838D01*
X039210Y012837D01*
X039207Y012835D01*
X039204Y012832D01*
X039203Y012832D01*
X039203Y012831D01*
X039201Y012829D01*
X039200Y012827D01*
X039199Y012824D01*
X039197Y012821D01*
X039197Y012816D01*
X039196Y012812D01*
Y012812D01*
Y012810D01*
X039197Y012808D01*
X039197Y012805D01*
X039198Y012801D01*
X039200Y012798D01*
X039202Y012794D01*
X039205Y012791D01*
X039205Y012790D01*
X039206Y012789D01*
X039209Y012788D01*
X039211Y012786D01*
X039215Y012784D01*
X039219Y012783D01*
X039224Y012781D01*
X039230Y012780D01*
X039223Y012736D01*
X039222D01*
X039222Y012736D01*
X039221D01*
X039219Y012737D01*
X039215Y012738D01*
X039209Y012739D01*
X039203Y012741D01*
X039197Y012743D01*
X039191Y012746D01*
X039186Y012750D01*
X039185Y012750D01*
X039184Y012751D01*
X039181Y012754D01*
X039178Y012757D01*
X039175Y012760D01*
X039171Y012765D01*
X039167Y012770D01*
X039164Y012776D01*
Y012776D01*
X039164Y012777D01*
X039163Y012779D01*
X039162Y012782D01*
X039160Y012787D01*
X039159Y012792D01*
X039157Y012799D01*
X039156Y012806D01*
X039156Y012813D01*
Y012814D01*
Y012815D01*
Y012817D01*
X039156Y012819D01*
X039157Y012822D01*
X039157Y012826D01*
X039158Y012830D01*
X039159Y012834D01*
X039162Y012843D01*
X039163Y012848D01*
X039166Y012853D01*
X039168Y012857D01*
X039171Y012862D01*
X039175Y012866D01*
X039179Y012871D01*
X039179Y012871D01*
X039180Y012871D01*
X039181Y012872D01*
X039182Y012873D01*
X039186Y012876D01*
X039191Y012880D01*
X039197Y012883D01*
X039205Y012885D01*
X039213Y012888D01*
X039217Y012888D01*
X039221Y012888D01*
X039222D01*
X039224Y012888D01*
X039226Y012888D01*
X039229Y012887D01*
X039233Y012887D01*
X039236Y012885D01*
X039240Y012884D01*
X039244Y012882D01*
X039249Y012880D01*
X039253Y012877D01*
X039257Y012873D01*
X039262Y012869D01*
X039266Y012864D01*
X039270Y012858D01*
X039274Y012852D01*
Y012852D01*
X039274Y012853D01*
Y012854D01*
X039275Y012856D01*
X039276Y012860D01*
X039278Y012864D01*
X039281Y012870D01*
X039285Y012876D01*
X039290Y012881D01*
X039295Y012887D01*
X039296Y012887D01*
X039298Y012889D01*
X039301Y012891D01*
X039306Y012893D01*
X039312Y012896D01*
X039318Y012897D01*
X039326Y012899D01*
X039334Y012900D01*
X039337D01*
X039340Y012899D01*
D02*
G37*
G36*
X031867Y013950D02*
X031874Y013949D01*
X031880Y013949D01*
X031888Y013947D01*
X031896Y013945D01*
X031915Y013940D01*
X031924Y013936D01*
X031934Y013931D01*
X031944Y013926D01*
X031952Y013920D01*
X031962Y013913D01*
X031970Y013905D01*
X031971Y013904D01*
X031971Y013903D01*
X031974Y013901D01*
X031976Y013898D01*
X031982Y013891D01*
X031988Y013881D01*
X031995Y013868D01*
X032000Y013854D01*
X032004Y013838D01*
X032005Y013830D01*
X032006Y013821D01*
Y013820D01*
Y013818D01*
X032005Y013814D01*
X032004Y013810D01*
X032003Y013804D01*
X032002Y013798D01*
X032000Y013790D01*
X031997Y013782D01*
X031993Y013774D01*
X031988Y013766D01*
X031982Y013757D01*
X031975Y013748D01*
X031966Y013739D01*
X031957Y013731D01*
X031946Y013723D01*
X031933Y013714D01*
X031933D01*
X031935Y013714D01*
X031937D01*
X031940Y013712D01*
X031948Y013710D01*
X031958Y013706D01*
X031968Y013700D01*
X031980Y013693D01*
X031992Y013683D01*
X032002Y013672D01*
X032003Y013671D01*
X032006Y013666D01*
X032010Y013660D01*
X032015Y013650D01*
X032020Y013639D01*
X032024Y013626D01*
X032027Y013611D01*
X032028Y013594D01*
Y013593D01*
Y013591D01*
Y013588D01*
X032028Y013583D01*
X032027Y013577D01*
X032025Y013571D01*
X032024Y013563D01*
X032022Y013555D01*
X032017Y013537D01*
X032012Y013528D01*
X032008Y013518D01*
X032002Y013508D01*
X031995Y013499D01*
X031988Y013489D01*
X031979Y013480D01*
X031979Y013480D01*
X031977Y013478D01*
X031974Y013476D01*
X031971Y013473D01*
X031966Y013470D01*
X031960Y013466D01*
X031953Y013462D01*
X031946Y013457D01*
X031938Y013453D01*
X031928Y013448D01*
X031918Y013445D01*
X031908Y013441D01*
X031896Y013438D01*
X031885Y013436D01*
X031872Y013435D01*
X031858Y013434D01*
X031852D01*
X031847Y013435D01*
X031841Y013435D01*
X031834Y013436D01*
X031827Y013437D01*
X031818Y013439D01*
X031801Y013443D01*
X031782Y013451D01*
X031772Y013455D01*
X031763Y013460D01*
X031753Y013467D01*
X031745Y013473D01*
X031744Y013474D01*
X031742Y013475D01*
X031740Y013478D01*
X031737Y013480D01*
X031734Y013484D01*
X031730Y013489D01*
X031726Y013494D01*
X031721Y013501D01*
X031717Y013508D01*
X031712Y013515D01*
X031704Y013533D01*
X031697Y013553D01*
X031694Y013564D01*
X031693Y013576D01*
X031786Y013588D01*
Y013587D01*
Y013586D01*
X031787Y013582D01*
X031788Y013575D01*
X031791Y013567D01*
X031794Y013558D01*
X031798Y013549D01*
X031804Y013540D01*
X031810Y013532D01*
X031811Y013532D01*
X031814Y013529D01*
X031818Y013526D01*
X031823Y013523D01*
X031831Y013520D01*
X031839Y013517D01*
X031847Y013515D01*
X031858Y013514D01*
X031859D01*
X031863Y013515D01*
X031868Y013515D01*
X031875Y013517D01*
X031883Y013520D01*
X031891Y013523D01*
X031900Y013529D01*
X031908Y013537D01*
X031909Y013537D01*
X031912Y013541D01*
X031915Y013546D01*
X031919Y013553D01*
X031923Y013561D01*
X031926Y013572D01*
X031928Y013585D01*
X031929Y013599D01*
Y013599D01*
Y013600D01*
Y013604D01*
X031928Y013611D01*
X031927Y013620D01*
X031924Y013629D01*
X031920Y013639D01*
X031915Y013648D01*
X031909Y013657D01*
X031908Y013658D01*
X031905Y013661D01*
X031901Y013664D01*
X031896Y013668D01*
X031888Y013672D01*
X031880Y013675D01*
X031872Y013678D01*
X031861Y013679D01*
X031854D01*
X031849Y013678D01*
X031842Y013677D01*
X031834Y013676D01*
X031826Y013674D01*
X031817Y013671D01*
X031827Y013749D01*
X031834D01*
X031841Y013750D01*
X031850Y013751D01*
X031859Y013753D01*
X031869Y013756D01*
X031879Y013760D01*
X031888Y013766D01*
X031888Y013767D01*
X031891Y013770D01*
X031894Y013774D01*
X031898Y013779D01*
X031902Y013786D01*
X031906Y013794D01*
X031908Y013803D01*
X031909Y013814D01*
Y013816D01*
Y013819D01*
X031908Y013823D01*
X031907Y013829D01*
X031905Y013836D01*
X031902Y013842D01*
X031898Y013849D01*
X031893Y013855D01*
X031893Y013856D01*
X031890Y013857D01*
X031888Y013860D01*
X031882Y013863D01*
X031877Y013865D01*
X031870Y013868D01*
X031861Y013870D01*
X031853Y013871D01*
X031848D01*
X031844Y013870D01*
X031838Y013868D01*
X031831Y013866D01*
X031824Y013863D01*
X031817Y013859D01*
X031810Y013853D01*
X031810Y013852D01*
X031807Y013850D01*
X031804Y013846D01*
X031801Y013840D01*
X031797Y013833D01*
X031794Y013825D01*
X031791Y013814D01*
X031789Y013803D01*
X031700Y013817D01*
Y013818D01*
X031701Y013819D01*
Y013822D01*
X031702Y013825D01*
X031704Y013833D01*
X031707Y013844D01*
X031711Y013856D01*
X031716Y013868D01*
X031721Y013880D01*
X031728Y013891D01*
X031729Y013892D01*
X031732Y013895D01*
X031736Y013900D01*
X031742Y013907D01*
X031749Y013914D01*
X031758Y013921D01*
X031769Y013928D01*
X031780Y013935D01*
X031781D01*
X031782Y013935D01*
X031786Y013937D01*
X031794Y013940D01*
X031802Y013943D01*
X031813Y013946D01*
X031826Y013949D01*
X031840Y013950D01*
X031855Y013951D01*
X031862D01*
X031867Y013950D01*
D02*
G37*
G36*
X032735D02*
X032740Y013949D01*
X032748Y013948D01*
X032755Y013946D01*
X032764Y013944D01*
X032773Y013941D01*
X032782Y013938D01*
X032792Y013934D01*
X032801Y013929D01*
X032810Y013922D01*
X032820Y013916D01*
X032829Y013908D01*
X032837Y013898D01*
X032837Y013897D01*
X032839Y013895D01*
X032841Y013892D01*
X032845Y013887D01*
X032848Y013879D01*
X032853Y013871D01*
X032857Y013861D01*
X032861Y013849D01*
X032866Y013836D01*
X032871Y013820D01*
X032875Y013803D01*
X032878Y013784D01*
X032882Y013764D01*
X032884Y013742D01*
X032886Y013718D01*
X032886Y013692D01*
Y013691D01*
Y013690D01*
Y013688D01*
Y013685D01*
Y013678D01*
X032886Y013669D01*
X032885Y013657D01*
X032883Y013643D01*
X032882Y013628D01*
X032880Y013612D01*
X032878Y013596D01*
X032874Y013578D01*
X032870Y013561D01*
X032865Y013545D01*
X032860Y013528D01*
X032853Y013513D01*
X032845Y013498D01*
X032837Y013486D01*
X032836Y013485D01*
X032835Y013483D01*
X032832Y013480D01*
X032829Y013478D01*
X032825Y013474D01*
X032820Y013470D01*
X032813Y013464D01*
X032807Y013460D01*
X032799Y013455D01*
X032791Y013450D01*
X032781Y013445D01*
X032771Y013442D01*
X032760Y013439D01*
X032748Y013436D01*
X032735Y013435D01*
X032722Y013434D01*
X032719D01*
X032715Y013435D01*
X032710D01*
X032704Y013435D01*
X032697Y013437D01*
X032689Y013438D01*
X032680Y013441D01*
X032671Y013444D01*
X032661Y013448D01*
X032651Y013452D01*
X032641Y013458D01*
X032631Y013464D01*
X032622Y013472D01*
X032612Y013480D01*
X032603Y013490D01*
X032603Y013491D01*
X032601Y013493D01*
X032599Y013497D01*
X032597Y013501D01*
X032593Y013507D01*
X032590Y013515D01*
X032585Y013526D01*
X032582Y013537D01*
X032577Y013550D01*
X032573Y013564D01*
X032569Y013581D01*
X032566Y013599D01*
X032563Y013620D01*
X032561Y013642D01*
X032560Y013666D01*
X032559Y013693D01*
Y013693D01*
Y013694D01*
Y013696D01*
Y013699D01*
Y013706D01*
X032560Y013716D01*
X032560Y013728D01*
X032562Y013741D01*
X032563Y013756D01*
X032565Y013772D01*
X032568Y013789D01*
X032571Y013806D01*
X032575Y013823D01*
X032579Y013840D01*
X032585Y013856D01*
X032592Y013871D01*
X032599Y013886D01*
X032608Y013898D01*
X032609Y013899D01*
X032610Y013900D01*
X032612Y013903D01*
X032616Y013906D01*
X032619Y013911D01*
X032625Y013915D01*
X032631Y013919D01*
X032638Y013924D01*
X032646Y013930D01*
X032654Y013934D01*
X032663Y013938D01*
X032673Y013943D01*
X032684Y013946D01*
X032697Y013949D01*
X032709Y013950D01*
X032722Y013951D01*
X032730D01*
X032735Y013950D01*
D02*
G37*
G36*
X032350Y013443D02*
X032240D01*
X032059Y013948D01*
X032169D01*
X032297Y013575D01*
X032420Y013948D01*
X032529D01*
X032350Y013443D01*
D02*
G37*
G36*
X040098Y012634D02*
Y012579D01*
X039847Y012489D01*
Y012544D01*
X040033Y012608D01*
X039847Y012669D01*
Y012723D01*
X040098Y012634D01*
D02*
G37*
G36*
Y012302D02*
X040097D01*
X040096Y012302D01*
X040094Y012302D01*
X040092Y012303D01*
X040089Y012303D01*
X040083Y012304D01*
X040075Y012307D01*
X040067Y012310D01*
X040059Y012313D01*
X040050Y012318D01*
X040050D01*
X040049Y012319D01*
X040048Y012319D01*
X040046Y012321D01*
X040044Y012322D01*
X040041Y012325D01*
X040038Y012327D01*
X040034Y012330D01*
X040030Y012333D01*
X040026Y012337D01*
X040021Y012342D01*
X040015Y012347D01*
X040010Y012352D01*
X040003Y012358D01*
X039997Y012365D01*
X039990Y012372D01*
X039990Y012373D01*
X039989Y012374D01*
X039987Y012375D01*
X039985Y012377D01*
X039983Y012380D01*
X039980Y012383D01*
X039973Y012390D01*
X039966Y012396D01*
X039959Y012403D01*
X039956Y012406D01*
X039953Y012409D01*
X039951Y012411D01*
X039948Y012412D01*
X039948Y012413D01*
X039946Y012414D01*
X039943Y012416D01*
X039939Y012417D01*
X039935Y012419D01*
X039930Y012421D01*
X039924Y012422D01*
X039919Y012422D01*
X039916D01*
X039913Y012422D01*
X039910Y012421D01*
X039906Y012420D01*
X039901Y012419D01*
X039897Y012417D01*
X039894Y012414D01*
X039893Y012413D01*
X039892Y012412D01*
X039891Y012410D01*
X039889Y012407D01*
X039888Y012404D01*
X039887Y012400D01*
X039885Y012395D01*
X039885Y012390D01*
Y012389D01*
Y012387D01*
X039885Y012384D01*
X039886Y012381D01*
X039887Y012377D01*
X039889Y012373D01*
X039891Y012369D01*
X039894Y012365D01*
X039895Y012365D01*
X039896Y012364D01*
X039898Y012362D01*
X039901Y012361D01*
X039906Y012359D01*
X039911Y012358D01*
X039917Y012356D01*
X039924Y012355D01*
X039920Y012307D01*
X039919D01*
X039918Y012308D01*
X039916D01*
X039913Y012308D01*
X039910Y012309D01*
X039906Y012310D01*
X039902Y012311D01*
X039897Y012312D01*
X039888Y012316D01*
X039879Y012320D01*
X039874Y012323D01*
X039870Y012326D01*
X039866Y012330D01*
X039863Y012334D01*
X039862Y012334D01*
X039862Y012335D01*
X039861Y012336D01*
X039860Y012338D01*
X039859Y012340D01*
X039857Y012343D01*
X039855Y012346D01*
X039854Y012350D01*
X039852Y012354D01*
X039851Y012358D01*
X039848Y012367D01*
X039846Y012379D01*
X039845Y012385D01*
X039845Y012391D01*
Y012391D01*
Y012393D01*
Y012394D01*
X039845Y012397D01*
X039846Y012400D01*
X039846Y012404D01*
X039847Y012408D01*
X039848Y012412D01*
X039850Y012422D01*
X039854Y012431D01*
X039856Y012436D01*
X039859Y012441D01*
X039862Y012445D01*
X039865Y012449D01*
X039866Y012450D01*
X039866Y012450D01*
X039868Y012451D01*
X039869Y012453D01*
X039871Y012454D01*
X039873Y012456D01*
X039876Y012458D01*
X039879Y012460D01*
X039887Y012464D01*
X039895Y012468D01*
X039900Y012469D01*
X039905Y012470D01*
X039910Y012470D01*
X039916Y012471D01*
X039919D01*
X039922Y012470D01*
X039926Y012470D01*
X039931Y012469D01*
X039936Y012468D01*
X039942Y012467D01*
X039948Y012465D01*
X039949Y012464D01*
X039951Y012464D01*
X039954Y012462D01*
X039958Y012460D01*
X039963Y012457D01*
X039968Y012454D01*
X039974Y012450D01*
X039980Y012445D01*
X039980Y012445D01*
X039982Y012444D01*
X039985Y012441D01*
X039989Y012438D01*
X039993Y012434D01*
X039999Y012428D01*
X040005Y012422D01*
X040013Y012414D01*
X040013Y012413D01*
X040013Y012413D01*
X040014Y012412D01*
X040016Y012410D01*
X040019Y012406D01*
X040024Y012401D01*
X040029Y012397D01*
X040033Y012392D01*
X040037Y012387D01*
X040039Y012386D01*
X040041Y012385D01*
X040041Y012384D01*
X040042Y012383D01*
X040043Y012382D01*
X040045Y012381D01*
X040049Y012378D01*
X040054Y012375D01*
Y012471D01*
X040098D01*
Y012302D01*
D02*
G37*
G36*
X039641Y012897D02*
X039647Y012897D01*
X039654Y012896D01*
X039661Y012895D01*
X039669Y012895D01*
X039678Y012893D01*
X039687Y012891D01*
X039695Y012889D01*
X039703Y012887D01*
X039712Y012884D01*
X039719Y012881D01*
X039727Y012877D01*
X039733Y012873D01*
X039733Y012872D01*
X039734Y012872D01*
X039735Y012871D01*
X039737Y012869D01*
X039739Y012867D01*
X039741Y012864D01*
X039743Y012861D01*
X039746Y012858D01*
X039748Y012854D01*
X039751Y012850D01*
X039753Y012845D01*
X039755Y012840D01*
X039756Y012834D01*
X039758Y012828D01*
X039758Y012822D01*
X039759Y012816D01*
Y012815D01*
Y012814D01*
X039758Y012812D01*
Y012809D01*
X039758Y012806D01*
X039757Y012803D01*
X039756Y012799D01*
X039755Y012794D01*
X039754Y012790D01*
X039752Y012785D01*
X039750Y012780D01*
X039747Y012775D01*
X039744Y012770D01*
X039740Y012765D01*
X039736Y012761D01*
X039731Y012756D01*
X039730Y012756D01*
X039729Y012755D01*
X039727Y012754D01*
X039725Y012753D01*
X039722Y012751D01*
X039718Y012749D01*
X039713Y012747D01*
X039707Y012745D01*
X039701Y012743D01*
X039694Y012741D01*
X039685Y012739D01*
X039676Y012738D01*
X039666Y012736D01*
X039655Y012735D01*
X039643Y012734D01*
X039629Y012734D01*
X039623D01*
X039618Y012734D01*
X039612Y012735D01*
X039605Y012735D01*
X039598Y012736D01*
X039590Y012737D01*
X039581Y012738D01*
X039573Y012740D01*
X039564Y012742D01*
X039556Y012744D01*
X039548Y012747D01*
X039540Y012750D01*
X039533Y012754D01*
X039527Y012758D01*
X039526Y012759D01*
X039526Y012759D01*
X039524Y012761D01*
X039523Y012762D01*
X039521Y012764D01*
X039518Y012767D01*
X039516Y012770D01*
X039514Y012773D01*
X039511Y012777D01*
X039509Y012781D01*
X039507Y012786D01*
X039505Y012791D01*
X039503Y012797D01*
X039502Y012803D01*
X039501Y012809D01*
X039501Y012816D01*
Y012816D01*
Y012817D01*
Y012819D01*
X039501Y012822D01*
X039501Y012825D01*
X039502Y012828D01*
X039503Y012832D01*
X039504Y012836D01*
X039505Y012841D01*
X039507Y012845D01*
X039509Y012850D01*
X039512Y012855D01*
X039515Y012860D01*
X039518Y012864D01*
X039522Y012869D01*
X039527Y012873D01*
X039527Y012873D01*
X039528Y012874D01*
X039530Y012875D01*
X039533Y012877D01*
X039536Y012879D01*
X039541Y012881D01*
X039545Y012883D01*
X039552Y012885D01*
X039558Y012887D01*
X039566Y012890D01*
X039574Y012892D01*
X039584Y012893D01*
X039594Y012895D01*
X039605Y012896D01*
X039617Y012897D01*
X039630Y012897D01*
X039637D01*
X039641Y012897D01*
D02*
G37*
G36*
X039754Y012630D02*
Y012575D01*
X039502Y012484D01*
Y012539D01*
X039688Y012603D01*
X039502Y012665D01*
Y012719D01*
X039754Y012630D01*
D02*
G37*
G36*
X039684Y012469D02*
X039687Y012468D01*
X039690Y012468D01*
X039694Y012467D01*
X039698Y012466D01*
X039707Y012463D01*
X039712Y012461D01*
X039717Y012459D01*
X039722Y012456D01*
X039726Y012453D01*
X039731Y012449D01*
X039735Y012445D01*
X039736Y012444D01*
X039736Y012444D01*
X039738Y012442D01*
X039739Y012440D01*
X039741Y012438D01*
X039743Y012435D01*
X039745Y012432D01*
X039747Y012428D01*
X039749Y012424D01*
X039751Y012419D01*
X039753Y012414D01*
X039755Y012409D01*
X039756Y012403D01*
X039758Y012397D01*
X039758Y012391D01*
X039759Y012384D01*
Y012384D01*
Y012383D01*
Y012381D01*
X039758Y012378D01*
X039758Y012375D01*
X039758Y012372D01*
X039757Y012369D01*
X039756Y012364D01*
X039754Y012355D01*
X039750Y012346D01*
X039748Y012341D01*
X039746Y012337D01*
X039742Y012332D01*
X039739Y012327D01*
X039739Y012327D01*
X039738Y012326D01*
X039737Y012325D01*
X039735Y012324D01*
X039734Y012322D01*
X039731Y012320D01*
X039728Y012318D01*
X039725Y012316D01*
X039722Y012314D01*
X039718Y012311D01*
X039709Y012307D01*
X039699Y012304D01*
X039694Y012302D01*
X039688Y012302D01*
X039682Y012348D01*
X039683D01*
X039685Y012349D01*
X039688Y012349D01*
X039692Y012350D01*
X039696Y012352D01*
X039701Y012354D01*
X039706Y012357D01*
X039710Y012360D01*
X039710Y012361D01*
X039711Y012362D01*
X039712Y012364D01*
X039714Y012367D01*
X039716Y012370D01*
X039717Y012374D01*
X039718Y012379D01*
X039719Y012384D01*
Y012385D01*
X039718Y012386D01*
X039718Y012389D01*
X039717Y012393D01*
X039716Y012397D01*
X039714Y012401D01*
X039711Y012405D01*
X039707Y012409D01*
X039707Y012409D01*
X039705Y012411D01*
X039703Y012412D01*
X039699Y012414D01*
X039695Y012416D01*
X039690Y012418D01*
X039683Y012419D01*
X039676Y012420D01*
X039673D01*
X039670Y012419D01*
X039666Y012418D01*
X039661Y012417D01*
X039656Y012415D01*
X039652Y012413D01*
X039647Y012409D01*
X039647Y012409D01*
X039645Y012407D01*
X039644Y012405D01*
X039642Y012403D01*
X039640Y012399D01*
X039638Y012395D01*
X039637Y012391D01*
X039636Y012386D01*
Y012385D01*
Y012384D01*
Y012382D01*
X039637Y012379D01*
X039637Y012376D01*
X039638Y012372D01*
X039639Y012368D01*
X039640Y012363D01*
X039601Y012369D01*
Y012369D01*
Y012369D01*
Y012370D01*
Y012372D01*
X039601Y012375D01*
X039600Y012380D01*
X039599Y012385D01*
X039598Y012390D01*
X039596Y012394D01*
X039593Y012399D01*
X039592Y012399D01*
X039591Y012401D01*
X039589Y012402D01*
X039586Y012404D01*
X039583Y012406D01*
X039579Y012408D01*
X039574Y012409D01*
X039569Y012409D01*
X039566D01*
X039564Y012409D01*
X039561Y012408D01*
X039558Y012407D01*
X039555Y012406D01*
X039551Y012404D01*
X039548Y012402D01*
X039548Y012401D01*
X039547Y012400D01*
X039546Y012399D01*
X039544Y012396D01*
X039543Y012393D01*
X039542Y012390D01*
X039541Y012386D01*
X039541Y012381D01*
Y012381D01*
Y012379D01*
X039541Y012377D01*
X039542Y012374D01*
X039543Y012371D01*
X039544Y012367D01*
X039546Y012363D01*
X039549Y012360D01*
X039550Y012360D01*
X039551Y012359D01*
X039553Y012357D01*
X039556Y012355D01*
X039559Y012354D01*
X039564Y012352D01*
X039569Y012351D01*
X039574Y012350D01*
X039567Y012305D01*
X039567D01*
X039566Y012306D01*
X039565D01*
X039563Y012306D01*
X039559Y012307D01*
X039554Y012308D01*
X039548Y012311D01*
X039542Y012313D01*
X039536Y012316D01*
X039530Y012319D01*
X039530Y012319D01*
X039528Y012321D01*
X039526Y012323D01*
X039522Y012326D01*
X039519Y012330D01*
X039516Y012334D01*
X039512Y012339D01*
X039509Y012345D01*
Y012346D01*
X039508Y012346D01*
X039508Y012348D01*
X039506Y012352D01*
X039505Y012356D01*
X039503Y012362D01*
X039502Y012368D01*
X039501Y012375D01*
X039501Y012383D01*
Y012383D01*
Y012384D01*
Y012386D01*
X039501Y012389D01*
X039501Y012392D01*
X039502Y012395D01*
X039502Y012399D01*
X039504Y012403D01*
X039506Y012412D01*
X039508Y012417D01*
X039510Y012422D01*
X039513Y012427D01*
X039516Y012431D01*
X039520Y012436D01*
X039524Y012440D01*
X039524Y012440D01*
X039524Y012441D01*
X039525Y012442D01*
X039527Y012443D01*
X039530Y012446D01*
X039536Y012449D01*
X039542Y012452D01*
X039549Y012455D01*
X039557Y012457D01*
X039561Y012457D01*
X039565Y012458D01*
X039567D01*
X039569Y012457D01*
X039571Y012457D01*
X039574Y012457D01*
X039577Y012456D01*
X039581Y012455D01*
X039585Y012453D01*
X039589Y012451D01*
X039593Y012449D01*
X039597Y012446D01*
X039602Y012442D01*
X039606Y012438D01*
X039611Y012433D01*
X039615Y012428D01*
X039619Y012421D01*
Y012422D01*
X039619Y012422D01*
Y012424D01*
X039620Y012425D01*
X039621Y012429D01*
X039623Y012434D01*
X039626Y012439D01*
X039629Y012445D01*
X039634Y012451D01*
X039640Y012456D01*
X039640Y012457D01*
X039643Y012458D01*
X039646Y012460D01*
X039651Y012462D01*
X039656Y012465D01*
X039663Y012467D01*
X039670Y012468D01*
X039679Y012469D01*
X039682D01*
X039684Y012469D01*
D02*
G37*
G36*
X031866Y024998D02*
X031756D01*
X031575Y025503D01*
X031686D01*
X031814Y025130D01*
X031937Y025503D01*
X032046D01*
X031866Y024998D01*
D02*
G37*
G36*
X042073Y025200D02*
X042072D01*
X042068Y025200D01*
X042061Y025198D01*
X042053Y025196D01*
X042044Y025192D01*
X042035Y025189D01*
X042026Y025183D01*
X042018Y025176D01*
X042017Y025176D01*
X042015Y025173D01*
X042012Y025168D01*
X042009Y025163D01*
X042006Y025156D01*
X042003Y025148D01*
X042001Y025139D01*
X042000Y025129D01*
Y025127D01*
X042001Y025124D01*
X042001Y025119D01*
X042003Y025111D01*
X042006Y025103D01*
X042009Y025095D01*
X042015Y025087D01*
X042022Y025079D01*
X042023Y025078D01*
X042027Y025075D01*
X042032Y025072D01*
X042038Y025068D01*
X042047Y025064D01*
X042058Y025060D01*
X042071Y025058D01*
X042084Y025057D01*
X042090D01*
X042097Y025058D01*
X042106Y025060D01*
X042115Y025063D01*
X042125Y025066D01*
X042134Y025071D01*
X042143Y025078D01*
X042143Y025079D01*
X042146Y025082D01*
X042150Y025086D01*
X042154Y025091D01*
X042158Y025098D01*
X042161Y025106D01*
X042164Y025115D01*
X042165Y025125D01*
Y025126D01*
Y025129D01*
Y025133D01*
X042164Y025138D01*
X042163Y025144D01*
X042162Y025152D01*
X042160Y025160D01*
X042157Y025170D01*
X042235Y025160D01*
Y025159D01*
Y025158D01*
Y025156D01*
Y025153D01*
X042236Y025146D01*
X042237Y025137D01*
X042239Y025127D01*
X042242Y025117D01*
X042246Y025108D01*
X042252Y025099D01*
X042253Y025098D01*
X042256Y025095D01*
X042259Y025092D01*
X042265Y025088D01*
X042272Y025084D01*
X042280Y025081D01*
X042289Y025079D01*
X042300Y025078D01*
X042305D01*
X042309Y025079D01*
X042315Y025080D01*
X042321Y025082D01*
X042328Y025084D01*
X042335Y025088D01*
X042341Y025093D01*
X042342Y025094D01*
X042343Y025096D01*
X042346Y025099D01*
X042349Y025104D01*
X042351Y025110D01*
X042354Y025117D01*
X042356Y025125D01*
X042356Y025134D01*
Y025135D01*
Y025138D01*
X042356Y025143D01*
X042354Y025149D01*
X042352Y025155D01*
X042349Y025162D01*
X042345Y025170D01*
X042339Y025176D01*
X042338Y025177D01*
X042336Y025179D01*
X042332Y025182D01*
X042326Y025186D01*
X042319Y025189D01*
X042310Y025192D01*
X042300Y025195D01*
X042289Y025197D01*
X042303Y025286D01*
X042304D01*
X042305Y025286D01*
X042307D01*
X042311Y025285D01*
X042319Y025283D01*
X042330Y025280D01*
X042342Y025275D01*
X042354Y025271D01*
X042366Y025265D01*
X042377Y025259D01*
X042378Y025258D01*
X042381Y025255D01*
X042386Y025251D01*
X042393Y025245D01*
X042399Y025238D01*
X042407Y025229D01*
X042414Y025218D01*
X042420Y025206D01*
Y025205D01*
X042421Y025205D01*
X042423Y025200D01*
X042426Y025193D01*
X042428Y025184D01*
X042431Y025173D01*
X042434Y025160D01*
X042436Y025146D01*
X042437Y025131D01*
Y025130D01*
Y025128D01*
Y025125D01*
X042436Y025119D01*
X042435Y025113D01*
X042434Y025106D01*
X042433Y025098D01*
X042431Y025090D01*
X042426Y025072D01*
X042422Y025063D01*
X042417Y025052D01*
X042412Y025043D01*
X042406Y025034D01*
X042399Y025025D01*
X042391Y025017D01*
X042390Y025016D01*
X042389Y025015D01*
X042387Y025013D01*
X042384Y025011D01*
X042377Y025005D01*
X042367Y024998D01*
X042354Y024992D01*
X042340Y024987D01*
X042324Y024982D01*
X042316Y024982D01*
X042307Y024981D01*
X042304D01*
X042300Y024982D01*
X042296Y024982D01*
X042290Y024983D01*
X042283Y024985D01*
X042276Y024987D01*
X042268Y024990D01*
X042260Y024994D01*
X042251Y024998D01*
X042243Y025004D01*
X042234Y025012D01*
X042225Y025020D01*
X042216Y025030D01*
X042208Y025041D01*
X042200Y025054D01*
Y025053D01*
X042200Y025052D01*
Y025049D01*
X042198Y025047D01*
X042196Y025039D01*
X042192Y025029D01*
X042186Y025018D01*
X042178Y025006D01*
X042169Y024995D01*
X042158Y024985D01*
X042157Y024983D01*
X042152Y024980D01*
X042146Y024977D01*
X042136Y024971D01*
X042125Y024966D01*
X042111Y024963D01*
X042097Y024960D01*
X042080Y024958D01*
X042073D01*
X042069Y024959D01*
X042063Y024960D01*
X042057Y024961D01*
X042049Y024963D01*
X042041Y024964D01*
X042023Y024970D01*
X042014Y024974D01*
X042003Y024979D01*
X041994Y024985D01*
X041985Y024991D01*
X041975Y024998D01*
X041966Y025007D01*
X041966Y025008D01*
X041964Y025009D01*
X041962Y025012D01*
X041959Y025016D01*
X041955Y025021D01*
X041952Y025026D01*
X041947Y025033D01*
X041943Y025041D01*
X041939Y025049D01*
X041934Y025058D01*
X041931Y025068D01*
X041927Y025079D01*
X041924Y025090D01*
X041922Y025102D01*
X041920Y025115D01*
X041920Y025128D01*
Y025129D01*
Y025131D01*
Y025135D01*
X041920Y025140D01*
X041921Y025146D01*
X041922Y025152D01*
X041923Y025160D01*
X041925Y025168D01*
X041929Y025186D01*
X041936Y025205D01*
X041941Y025215D01*
X041946Y025224D01*
X041952Y025233D01*
X041959Y025242D01*
X041960Y025243D01*
X041961Y025244D01*
X041963Y025246D01*
X041966Y025249D01*
X041970Y025253D01*
X041975Y025257D01*
X041980Y025261D01*
X041987Y025265D01*
X041994Y025270D01*
X042001Y025275D01*
X042019Y025283D01*
X042039Y025289D01*
X042050Y025292D01*
X042062Y025294D01*
X042073Y025200D01*
D02*
G37*
G36*
X042434Y024818D02*
X042060Y024689D01*
X042434Y024566D01*
Y024458D01*
X041929Y024637D01*
Y024747D01*
X042434Y024928D01*
Y024818D01*
D02*
G37*
G36*
X031392Y025505D02*
X031398Y025504D01*
X031406Y025504D01*
X031414Y025502D01*
X031422Y025501D01*
X031441Y025496D01*
X031460Y025488D01*
X031471Y025484D01*
X031479Y025479D01*
X031489Y025472D01*
X031497Y025465D01*
X031497Y025464D01*
X031499Y025464D01*
X031500Y025461D01*
X031503Y025458D01*
X031507Y025454D01*
X031511Y025449D01*
X031514Y025444D01*
X031519Y025437D01*
X031526Y025423D01*
X031533Y025406D01*
X031536Y025396D01*
X031538Y025386D01*
X031539Y025375D01*
X031540Y025364D01*
Y025363D01*
Y025359D01*
X031539Y025352D01*
X031538Y025344D01*
X031537Y025334D01*
X031535Y025323D01*
X031532Y025311D01*
X031527Y025299D01*
X031527Y025298D01*
X031525Y025294D01*
X031522Y025288D01*
X031518Y025280D01*
X031513Y025270D01*
X031506Y025259D01*
X031498Y025248D01*
X031489Y025235D01*
X031488Y025235D01*
X031485Y025231D01*
X031481Y025226D01*
X031474Y025219D01*
X031465Y025210D01*
X031454Y025198D01*
X031441Y025186D01*
X031425Y025170D01*
X031425Y025170D01*
X031423Y025169D01*
X031421Y025167D01*
X031418Y025164D01*
X031410Y025157D01*
X031401Y025148D01*
X031391Y025138D01*
X031382Y025129D01*
X031373Y025121D01*
X031370Y025117D01*
X031367Y025114D01*
X031366Y025114D01*
X031365Y025112D01*
X031363Y025109D01*
X031360Y025106D01*
X031353Y025098D01*
X031347Y025088D01*
X031540D01*
Y024998D01*
X031201D01*
Y024999D01*
Y025001D01*
X031202Y025004D01*
X031202Y025007D01*
X031203Y025012D01*
X031204Y025017D01*
X031207Y025030D01*
X031211Y025044D01*
X031217Y025060D01*
X031224Y025078D01*
X031234Y025095D01*
Y025095D01*
X031235Y025097D01*
X031237Y025100D01*
X031239Y025103D01*
X031242Y025108D01*
X031247Y025113D01*
X031252Y025119D01*
X031258Y025127D01*
X031264Y025135D01*
X031272Y025144D01*
X031281Y025154D01*
X031291Y025165D01*
X031302Y025176D01*
X031315Y025189D01*
X031328Y025202D01*
X031342Y025216D01*
X031343Y025216D01*
X031345Y025219D01*
X031348Y025222D01*
X031352Y025226D01*
X031358Y025230D01*
X031364Y025236D01*
X031377Y025249D01*
X031390Y025263D01*
X031403Y025277D01*
X031409Y025283D01*
X031415Y025289D01*
X031419Y025294D01*
X031422Y025299D01*
X031423Y025300D01*
X031425Y025304D01*
X031429Y025310D01*
X031433Y025318D01*
X031436Y025326D01*
X031440Y025337D01*
X031442Y025347D01*
X031443Y025358D01*
Y025359D01*
Y025359D01*
Y025363D01*
X031442Y025369D01*
X031441Y025377D01*
X031438Y025385D01*
X031436Y025393D01*
X031431Y025401D01*
X031425Y025408D01*
X031425Y025409D01*
X031422Y025411D01*
X031418Y025414D01*
X031413Y025417D01*
X031406Y025420D01*
X031398Y025423D01*
X031388Y025425D01*
X031377Y025426D01*
X031372D01*
X031366Y025425D01*
X031360Y025423D01*
X031352Y025421D01*
X031344Y025418D01*
X031336Y025413D01*
X031328Y025407D01*
X031328Y025407D01*
X031325Y025404D01*
X031323Y025399D01*
X031320Y025393D01*
X031316Y025385D01*
X031313Y025374D01*
X031310Y025361D01*
X031309Y025347D01*
X031212Y025356D01*
Y025357D01*
X031213Y025360D01*
Y025364D01*
X031215Y025369D01*
X031215Y025376D01*
X031218Y025383D01*
X031220Y025391D01*
X031222Y025401D01*
X031229Y025419D01*
X031238Y025438D01*
X031244Y025447D01*
X031250Y025456D01*
X031258Y025464D01*
X031266Y025471D01*
X031266Y025472D01*
X031268Y025472D01*
X031270Y025474D01*
X031274Y025477D01*
X031278Y025479D01*
X031284Y025482D01*
X031290Y025485D01*
X031297Y025488D01*
X031305Y025492D01*
X031314Y025495D01*
X031333Y025501D01*
X031355Y025504D01*
X031367Y025505D01*
X031379Y025506D01*
X031387D01*
X031392Y025505D01*
D02*
G37*
G36*
X032251D02*
X032257Y025504D01*
X032264Y025503D01*
X032272Y025501D01*
X032280Y025499D01*
X032290Y025496D01*
X032299Y025493D01*
X032308Y025489D01*
X032318Y025484D01*
X032327Y025477D01*
X032337Y025471D01*
X032345Y025463D01*
X032353Y025453D01*
X032354Y025453D01*
X032356Y025450D01*
X032358Y025447D01*
X032361Y025442D01*
X032365Y025434D01*
X032369Y025426D01*
X032374Y025416D01*
X032378Y025404D01*
X032383Y025391D01*
X032388Y025375D01*
X032391Y025359D01*
X032395Y025340D01*
X032399Y025319D01*
X032401Y025297D01*
X032402Y025273D01*
X032403Y025247D01*
Y025246D01*
Y025246D01*
Y025243D01*
Y025240D01*
Y025233D01*
X032402Y025224D01*
X032401Y025212D01*
X032400Y025198D01*
X032399Y025184D01*
X032397Y025168D01*
X032394Y025151D01*
X032391Y025133D01*
X032387Y025117D01*
X032382Y025100D01*
X032377Y025083D01*
X032369Y025068D01*
X032362Y025053D01*
X032353Y025041D01*
X032353Y025040D01*
X032351Y025039D01*
X032349Y025036D01*
X032346Y025033D01*
X032342Y025029D01*
X032337Y025025D01*
X032330Y025020D01*
X032323Y025015D01*
X032315Y025010D01*
X032307Y025005D01*
X032298Y025001D01*
X032288Y024997D01*
X032277Y024994D01*
X032264Y024991D01*
X032252Y024990D01*
X032239Y024989D01*
X032236D01*
X032232Y024990D01*
X032226D01*
X032221Y024990D01*
X032213Y024992D01*
X032205Y024993D01*
X032197Y024996D01*
X032187Y024999D01*
X032178Y025003D01*
X032167Y025007D01*
X032158Y025013D01*
X032148Y025019D01*
X032138Y025027D01*
X032129Y025035D01*
X032120Y025045D01*
X032119Y025046D01*
X032118Y025048D01*
X032116Y025052D01*
X032113Y025056D01*
X032110Y025063D01*
X032106Y025071D01*
X032102Y025081D01*
X032098Y025092D01*
X032094Y025105D01*
X032089Y025119D01*
X032086Y025136D01*
X032083Y025154D01*
X032080Y025175D01*
X032078Y025197D01*
X032076Y025222D01*
X032076Y025248D01*
Y025248D01*
Y025249D01*
Y025251D01*
Y025254D01*
Y025262D01*
X032076Y025271D01*
X032077Y025283D01*
X032078Y025297D01*
X032080Y025311D01*
X032081Y025327D01*
X032084Y025344D01*
X032087Y025361D01*
X032092Y025378D01*
X032096Y025395D01*
X032102Y025411D01*
X032108Y025426D01*
X032116Y025441D01*
X032124Y025453D01*
X032125Y025454D01*
X032127Y025456D01*
X032129Y025458D01*
X032132Y025461D01*
X032136Y025466D01*
X032141Y025470D01*
X032148Y025474D01*
X032154Y025480D01*
X032162Y025485D01*
X032170Y025489D01*
X032180Y025493D01*
X032190Y025498D01*
X032201Y025501D01*
X032213Y025504D01*
X032226Y025505D01*
X032239Y025506D01*
X032246D01*
X032251Y025505D01*
D02*
G37*
%LPC*%
G36*
X039982Y012851D02*
X039963D01*
X039959Y012850D01*
X039955D01*
X039950Y012850D01*
X039940Y012850D01*
X039930Y012849D01*
X039925Y012848D01*
X039920Y012848D01*
X039916Y012847D01*
X039913Y012846D01*
X039913D01*
X039912Y012846D01*
X039911Y012845D01*
X039908Y012844D01*
X039904Y012843D01*
X039900Y012841D01*
X039897Y012840D01*
X039893Y012837D01*
X039891Y012835D01*
X039891Y012835D01*
X039890Y012834D01*
X039889Y012833D01*
X039888Y012831D01*
X039887Y012829D01*
X039886Y012826D01*
X039885Y012823D01*
X039885Y012820D01*
Y012820D01*
Y012818D01*
X039885Y012817D01*
X039886Y012815D01*
X039887Y012812D01*
X039888Y012810D01*
X039889Y012807D01*
X039891Y012804D01*
X039891Y012804D01*
X039892Y012803D01*
X039893Y012802D01*
X039895Y012801D01*
X039898Y012799D01*
X039901Y012797D01*
X039906Y012796D01*
X039911Y012794D01*
X039911D01*
X039912Y012794D01*
X039913D01*
X039915Y012793D01*
X039917Y012793D01*
X039919Y012793D01*
X039922Y012792D01*
X039926Y012792D01*
X039930Y012791D01*
X039935Y012791D01*
X039940Y012790D01*
X039946Y012790D01*
X039952Y012790D01*
X039959D01*
X039966Y012789D01*
X039985D01*
X039989Y012790D01*
X039994D01*
X039999Y012790D01*
X040009Y012790D01*
X040019Y012791D01*
X040024Y012792D01*
X040028Y012792D01*
X040032Y012793D01*
X040036Y012794D01*
X040037Y012794D01*
X040038Y012794D01*
X040041Y012796D01*
X040045Y012797D01*
X040048Y012798D01*
X040052Y012800D01*
X040055Y012802D01*
X040058Y012805D01*
X040058Y012805D01*
X040058Y012806D01*
X040059Y012807D01*
X040060Y012809D01*
X040061Y012811D01*
X040062Y012814D01*
X040063Y012817D01*
X040063Y012820D01*
Y012820D01*
Y012821D01*
X040063Y012823D01*
X040062Y012825D01*
X040062Y012828D01*
X040061Y012830D01*
X040059Y012833D01*
X040058Y012835D01*
X040057Y012836D01*
X040057Y012836D01*
X040055Y012838D01*
X040053Y012839D01*
X040050Y012841D01*
X040047Y012842D01*
X040043Y012844D01*
X040038Y012846D01*
X040037D01*
X040037Y012846D01*
X040035D01*
X040034Y012846D01*
X040032Y012847D01*
X040029Y012847D01*
X040026Y012848D01*
X040023Y012848D01*
X040019Y012849D01*
X040014Y012849D01*
X040009Y012850D01*
X040003Y012850D01*
X039997Y012850D01*
X039990D01*
X039982Y012851D01*
D02*
G37*
G36*
X032722Y013871D02*
X032719D01*
X032716Y013870D01*
X032712Y013869D01*
X032707Y013868D01*
X032702Y013865D01*
X032696Y013862D01*
X032691Y013859D01*
X032690Y013858D01*
X032689Y013857D01*
X032687Y013854D01*
X032684Y013850D01*
X032680Y013844D01*
X032677Y013838D01*
X032673Y013829D01*
X032671Y013819D01*
Y013818D01*
X032670Y013817D01*
Y013814D01*
X032669Y013811D01*
X032668Y013807D01*
X032668Y013802D01*
X032667Y013796D01*
X032666Y013789D01*
X032665Y013780D01*
X032664Y013771D01*
X032663Y013760D01*
X032662Y013749D01*
X032662Y013736D01*
Y013723D01*
X032661Y013708D01*
Y013692D01*
Y013691D01*
Y013688D01*
Y013683D01*
Y013677D01*
Y013670D01*
X032662Y013662D01*
Y013653D01*
X032662Y013643D01*
X032663Y013623D01*
X032665Y013602D01*
X032665Y013593D01*
X032667Y013584D01*
X032668Y013576D01*
X032670Y013569D01*
X032671Y013567D01*
X032671Y013564D01*
X032673Y013558D01*
X032676Y013551D01*
X032679Y013544D01*
X032683Y013537D01*
X032687Y013530D01*
X032692Y013525D01*
X032692Y013524D01*
X032694Y013523D01*
X032697Y013521D01*
X032700Y013520D01*
X032705Y013518D01*
X032710Y013515D01*
X032716Y013515D01*
X032722Y013514D01*
X032725D01*
X032729Y013515D01*
X032732Y013515D01*
X032738Y013517D01*
X032743Y013518D01*
X032748Y013521D01*
X032753Y013525D01*
X032754Y013526D01*
X032755Y013527D01*
X032758Y013530D01*
X032761Y013534D01*
X032764Y013540D01*
X032767Y013547D01*
X032771Y013555D01*
X032774Y013565D01*
Y013566D01*
X032775Y013567D01*
Y013569D01*
X032775Y013572D01*
X032776Y013577D01*
X032777Y013582D01*
X032778Y013588D01*
X032779Y013595D01*
X032780Y013603D01*
X032781Y013612D01*
X032782Y013623D01*
X032783Y013634D01*
X032784Y013647D01*
Y013661D01*
X032784Y013676D01*
Y013692D01*
Y013693D01*
Y013696D01*
Y013701D01*
Y013706D01*
Y013714D01*
X032784Y013722D01*
Y013731D01*
X032783Y013741D01*
X032782Y013761D01*
X032781Y013781D01*
X032779Y013790D01*
X032778Y013800D01*
X032776Y013808D01*
X032775Y013814D01*
Y013815D01*
X032774Y013816D01*
X032773Y013819D01*
X032771Y013825D01*
X032769Y013833D01*
X032765Y013840D01*
X032762Y013847D01*
X032757Y013854D01*
X032753Y013859D01*
X032752Y013860D01*
X032751Y013861D01*
X032748Y013862D01*
X032744Y013865D01*
X032740Y013867D01*
X032735Y013869D01*
X032729Y013870D01*
X032722Y013871D01*
D02*
G37*
G36*
X039638Y012846D02*
X039619D01*
X039615Y012846D01*
X039610D01*
X039605Y012846D01*
X039595Y012845D01*
X039585Y012845D01*
X039581Y012844D01*
X039576Y012843D01*
X039572Y012842D01*
X039569Y012842D01*
X039568D01*
X039568Y012841D01*
X039566Y012841D01*
X039563Y012840D01*
X039560Y012839D01*
X039556Y012837D01*
X039552Y012835D01*
X039549Y012833D01*
X039546Y012831D01*
X039546Y012830D01*
X039545Y012830D01*
X039545Y012828D01*
X039544Y012826D01*
X039542Y012824D01*
X039541Y012822D01*
X039541Y012819D01*
X039541Y012816D01*
Y012815D01*
Y012814D01*
X039541Y012812D01*
X039541Y012810D01*
X039542Y012808D01*
X039543Y012805D01*
X039545Y012802D01*
X039546Y012800D01*
X039547Y012800D01*
X039548Y012799D01*
X039549Y012798D01*
X039551Y012796D01*
X039554Y012794D01*
X039557Y012793D01*
X039561Y012791D01*
X039566Y012790D01*
X039567D01*
X039567Y012789D01*
X039569D01*
X039570Y012789D01*
X039572Y012789D01*
X039575Y012788D01*
X039578Y012788D01*
X039581Y012788D01*
X039586Y012787D01*
X039590Y012786D01*
X039596Y012786D01*
X039601Y012786D01*
X039608Y012785D01*
X039614D01*
X039622Y012785D01*
X039641D01*
X039645Y012785D01*
X039649D01*
X039654Y012786D01*
X039664Y012786D01*
X039675Y012787D01*
X039679Y012787D01*
X039684Y012788D01*
X039688Y012789D01*
X039691Y012789D01*
X039692Y012790D01*
X039694Y012790D01*
X039697Y012791D01*
X039700Y012792D01*
X039704Y012794D01*
X039707Y012796D01*
X039711Y012798D01*
X039713Y012800D01*
X039714Y012801D01*
X039714Y012801D01*
X039715Y012803D01*
X039716Y012805D01*
X039717Y012807D01*
X039718Y012809D01*
X039718Y012812D01*
X039719Y012816D01*
Y012816D01*
Y012817D01*
X039718Y012819D01*
X039718Y012821D01*
X039717Y012823D01*
X039716Y012826D01*
X039715Y012828D01*
X039713Y012831D01*
X039713Y012831D01*
X039712Y012832D01*
X039711Y012833D01*
X039708Y012835D01*
X039706Y012836D01*
X039702Y012838D01*
X039698Y012840D01*
X039693Y012841D01*
X039693D01*
X039692Y012842D01*
X039691D01*
X039690Y012842D01*
X039687Y012842D01*
X039685Y012843D01*
X039682Y012844D01*
X039678Y012844D01*
X039674Y012844D01*
X039669Y012845D01*
X039664Y012845D01*
X039659Y012846D01*
X039652Y012846D01*
X039645D01*
X039638Y012846D01*
D02*
G37*
G36*
X032239Y025426D02*
X032236D01*
X032232Y025425D01*
X032229Y025424D01*
X032224Y025423D01*
X032218Y025421D01*
X032213Y025418D01*
X032208Y025414D01*
X032207Y025413D01*
X032205Y025412D01*
X032203Y025409D01*
X032200Y025405D01*
X032197Y025399D01*
X032194Y025393D01*
X032190Y025384D01*
X032187Y025374D01*
Y025373D01*
X032186Y025372D01*
Y025369D01*
X032186Y025367D01*
X032185Y025362D01*
X032184Y025357D01*
X032183Y025351D01*
X032183Y025344D01*
X032181Y025335D01*
X032181Y025326D01*
X032180Y025316D01*
X032179Y025305D01*
X032178Y025291D01*
Y025278D01*
X032178Y025263D01*
Y025247D01*
Y025246D01*
Y025243D01*
Y025238D01*
Y025232D01*
Y025225D01*
X032178Y025217D01*
Y025208D01*
X032179Y025198D01*
X032180Y025178D01*
X032181Y025157D01*
X032182Y025148D01*
X032183Y025139D01*
X032185Y025131D01*
X032186Y025124D01*
X032187Y025122D01*
X032188Y025119D01*
X032190Y025113D01*
X032192Y025106D01*
X032196Y025099D01*
X032200Y025092D01*
X032204Y025085D01*
X032208Y025080D01*
X032209Y025079D01*
X032210Y025079D01*
X032213Y025076D01*
X032217Y025075D01*
X032221Y025073D01*
X032226Y025071D01*
X032232Y025070D01*
X032239Y025069D01*
X032242D01*
X032245Y025070D01*
X032249Y025071D01*
X032254Y025072D01*
X032259Y025074D01*
X032264Y025076D01*
X032269Y025080D01*
X032270Y025081D01*
X032272Y025082D01*
X032275Y025085D01*
X032278Y025090D01*
X032280Y025095D01*
X032284Y025102D01*
X032288Y025110D01*
X032291Y025120D01*
Y025121D01*
X032291Y025122D01*
Y025125D01*
X032292Y025127D01*
X032293Y025132D01*
X032294Y025137D01*
X032295Y025143D01*
X032296Y025150D01*
X032296Y025158D01*
X032298Y025168D01*
X032299Y025178D01*
X032299Y025189D01*
X032300Y025202D01*
Y025216D01*
X032301Y025231D01*
Y025247D01*
Y025248D01*
Y025251D01*
Y025256D01*
Y025262D01*
Y025269D01*
X032300Y025277D01*
Y025286D01*
X032299Y025296D01*
X032299Y025316D01*
X032297Y025336D01*
X032296Y025345D01*
X032294Y025355D01*
X032293Y025363D01*
X032291Y025369D01*
Y025370D01*
X032291Y025371D01*
X032290Y025375D01*
X032288Y025380D01*
X032286Y025388D01*
X032282Y025395D01*
X032278Y025402D01*
X032274Y025409D01*
X032269Y025414D01*
X032269Y025415D01*
X032267Y025416D01*
X032264Y025418D01*
X032261Y025420D01*
X032256Y025422D01*
X032251Y025424D01*
X032245Y025425D01*
X032239Y025426D01*
D02*
G37*
%LPD*%
D10*
X012717Y014124D02*
Y014498D01*
D11*
Y014498D02*
D03*
D14*
X024882Y015223D02*
G03*
X024882Y015223I-000059J000000D01*
G01*
X025183Y011498D02*
G03*
X025183Y011498I-000059J000000D01*
G01*
X021043Y026752D02*
G03*
X021043Y026752I-000059J000000D01*
G01*
X030325Y011524D02*
G03*
X030325Y011524I-000059J000000D01*
G01*
X026929Y011161D02*
Y025354D01*
D65*
X011988Y011968D02*
G03*
X011988Y011968I-000039J000000D01*
G01*
X022283Y015551D02*
G03*
X022283Y015551I-000039J000000D01*
G01*
X024220Y031325D02*
G03*
X024220Y030872I000219J-000227D01*
G01*
X022610D02*
G03*
X022610Y031325I-000219J000227D01*
G01*
X017602Y010335D02*
G03*
X017307Y010335I-000147J000256D01*
G01*
X022185Y010325D02*
G03*
X021890Y010325I-000147J000256D01*
G01*
X013543Y030521D02*
G03*
X013543Y030521I-000276J000000D01*
G01*
X014744Y028238D02*
G03*
X014646Y028337I-000098J000000D01*
G01*
X011890D02*
G03*
X011791Y028238I000000J-000098D01*
G01*
X007618Y013799D02*
G03*
X007382Y013563I000000J-000236D01*
G01*
Y014980D02*
G03*
X007618Y014744I000236J000000D01*
G01*
X041014Y025089D02*
G03*
X039675Y025089I-000669J-000376D01*
G01*
X041014Y024713D02*
G03*
X041014Y024713I-000669J000000D01*
G01*
X039675Y024337D02*
G03*
X041014Y024337I000669J000376D01*
G01*
X029596Y013424D02*
G03*
X029675Y013345I000079J000000D01*
G01*
X040620Y013424D02*
G03*
X040699Y013345I000079J000000D01*
G01*
X013770Y012470D02*
X014222D01*
X014193Y010817D02*
Y010876D01*
X014508Y010817D02*
Y010876D01*
X011909Y011270D02*
X013110D01*
X011988Y011309D02*
X011988Y011152D01*
X013032D02*
Y011309D01*
X013110Y010846D02*
X013228D01*
X013110Y011270D02*
X013110Y010846D01*
X011909D02*
Y011270D01*
X011791Y010846D02*
X011909D01*
X011791Y010089D02*
X011791Y011152D01*
X011673D02*
X013346D01*
X013228Y010089D02*
X013228Y011152D01*
X013110Y010512D02*
X013228D01*
X013110Y010207D02*
Y010512D01*
Y010207D02*
X013228Y010089D01*
X011791D02*
X013228D01*
X011791D02*
X011909Y010207D01*
Y010512D01*
X011791Y010512D02*
X011909Y010512D01*
X011673Y010049D02*
X013346D01*
X011673Y011309D02*
X013346D01*
X013346Y010049D02*
X013346Y011309D01*
X011909Y010207D02*
X011988Y010207D01*
X013032Y010207D02*
X013110D01*
X012106Y011968D02*
X012854D01*
X012106Y011398D02*
X012854D01*
X012343D02*
Y011968D01*
X012421Y011398D02*
Y011968D01*
X019911Y012657D02*
Y013110D01*
X021673Y012490D02*
Y012943D01*
X015364Y013278D02*
X015817D01*
X016644Y012608D02*
Y013061D01*
X018848Y014045D02*
Y014282D01*
X019596D02*
X019596Y014045D01*
X011654Y014498D02*
X012717D01*
X011654Y014124D02*
Y014498D01*
Y014124D02*
X012717D01*
X021614Y015157D02*
X022008Y015551D01*
X021693Y015157D02*
X022008Y015472D01*
X021771Y015157D02*
X022008Y015394D01*
X021850Y015157D02*
X022008Y015315D01*
X021929Y015157D02*
X022008Y015236D01*
X014527Y015157D02*
X014527Y022638D01*
X014527Y015157D02*
X022008D01*
X014527Y022638D02*
X022008Y022638D01*
Y015157D02*
Y022638D01*
X013228Y021230D02*
X013268D01*
X013425Y021073D01*
Y021033D02*
Y021073D01*
X013228Y018474D02*
X013425D01*
Y018671D01*
X010669Y021230D02*
X010866D01*
X010669Y021033D02*
Y021230D01*
Y018474D02*
X010866D01*
X010669D02*
Y018671D01*
X025059Y015530D02*
Y016256D01*
Y014742D02*
Y014896D01*
Y013955D02*
Y014109D01*
X026437Y012004D02*
Y012928D01*
Y013561D02*
Y013715D01*
X025669Y012733D02*
Y013341D01*
Y013935D02*
Y014128D01*
Y014723D02*
Y014916D01*
X025748Y012811D02*
Y013064D01*
X026437Y014349D02*
Y014502D01*
X025669Y012733D02*
X026437D01*
X025669D02*
X025748Y012811D01*
X025669Y015510D02*
Y015725D01*
X025748Y015646D01*
X025669Y015725D02*
X026437D01*
X025778Y015302D02*
X026102D01*
X026240Y015241D02*
Y015302D01*
X026299Y012821D02*
Y012841D01*
X026234Y012821D02*
X026299D01*
X026211Y015302D02*
Y015636D01*
X026102Y015302D02*
Y015636D01*
Y015302D02*
X026299D01*
Y015636D01*
X026102D02*
X026299D01*
X025748Y012811D02*
X026437D01*
X025748Y015393D02*
Y015646D01*
X026437D01*
X025256Y016453D02*
X026437D01*
X025059Y016256D02*
X025256Y016453D01*
X025059Y012201D02*
Y013321D01*
Y012201D02*
X025256Y012004D01*
X026437D01*
Y015136D02*
Y016453D01*
X024262Y010633D02*
Y010748D01*
X024360Y010059D02*
X024475D01*
X025049Y010157D02*
Y010272D01*
X024262Y010748D02*
X024321Y010807D01*
X024262Y010157D02*
Y010272D01*
Y010157D02*
X024360Y010059D01*
X024836D02*
X024951D01*
X025049Y010157D01*
X022136Y024593D02*
Y025643D01*
X022817Y023740D02*
X024014D01*
X024695Y024593D02*
Y025643D01*
X024821Y027335D02*
X024860Y027295D01*
Y026535D02*
Y027295D01*
X024821Y026496D02*
X024860Y026535D01*
X024817Y026496D02*
X024821D01*
X021970Y026535D02*
X022010Y026496D01*
X021970Y026535D02*
Y027295D01*
X022010Y027335D01*
X024821D01*
X024775Y026535D02*
X024860D01*
X021970Y027295D02*
X024860D01*
X024478Y027335D02*
Y027601D01*
X022352D02*
X024478D01*
X022352Y027335D02*
Y027601D01*
X022352Y028280D02*
X022450Y028184D01*
X022352Y028280D02*
X022450Y028376D01*
X022352Y028472D02*
X022450Y028376D01*
X022352Y028472D02*
X022450Y028568D01*
X022352Y028665D02*
X022450Y028568D01*
X022352Y028665D02*
X022450Y028761D01*
X022352Y028857D02*
X022450Y028761D01*
X022352Y028857D02*
X022451Y028953D01*
X022352Y029029D02*
X022451Y028953D01*
X022352Y029029D02*
X022608Y029287D01*
X022610Y030872D01*
Y031325D02*
Y031787D01*
X022650Y031827D01*
X024181D01*
X024220Y031787D01*
X022610D02*
X024220D01*
Y031325D02*
Y031787D01*
Y029287D02*
Y030872D01*
Y029287D02*
X024478Y029029D01*
X024380Y028953D02*
X024478Y029029D01*
X024380Y028953D02*
X024478Y028857D01*
X024380Y028761D02*
X024478Y028857D01*
X024380Y028761D02*
X024478Y028665D01*
X024379Y028568D02*
X024478Y028665D01*
X024379Y028568D02*
X024478Y028472D01*
X024379Y028376D02*
X024478Y028472D01*
X024379Y028376D02*
X024478Y028280D01*
X024379Y028184D02*
X024478Y028280D01*
X022608Y029287D02*
X024220D01*
X022352Y029029D02*
X024478D01*
X022451Y028953D02*
X024380D01*
X022450Y028761D02*
X024380D01*
X022352Y028857D02*
X024478D01*
X022352Y028665D02*
X024478D01*
X022450Y028568D02*
X024379D01*
X022352Y028472D02*
X024478D01*
X022450Y028376D02*
X024379D01*
X022352Y028280D02*
X024478D01*
X022352Y028088D02*
X022450Y027992D01*
X022352Y028088D02*
X022450Y028184D01*
X024379D02*
X024478Y028088D01*
X024379Y027992D02*
X024478Y028088D01*
X022450Y028184D02*
X024379D01*
X022352Y028088D02*
X024478D01*
X022352Y027896D02*
X022450Y027799D01*
X022352Y027896D02*
X022450Y027992D01*
X024379D02*
X024478Y027896D01*
X024379Y027799D02*
X024478Y027896D01*
X022450Y027992D02*
X024379D01*
X022352Y027896D02*
X024478D01*
X022352Y027703D02*
X022450Y027607D01*
X022352Y027703D02*
X022450Y027799D01*
X024379D02*
X024478Y027703D01*
X024379Y027607D02*
X024478Y027703D01*
X022450Y027799D02*
X024379D01*
X022352Y027703D02*
X024478D01*
X022450Y027607D02*
X024379D01*
X022450Y027601D02*
Y027607D01*
X024379Y027601D02*
Y027607D01*
X022775Y026535D02*
X024055D01*
X022817Y026496D02*
X024014D01*
X022010D02*
X022014D01*
X021970Y026535D02*
X022055D01*
X021978Y028713D02*
X024852D01*
Y028319D02*
Y028713D01*
X021978Y028319D02*
X024852D01*
X021978D02*
Y028713D01*
X024574Y028949D02*
X024817Y028713D01*
X023730Y028949D02*
X024574D01*
X023730Y028713D02*
Y028949D01*
X023100Y028713D02*
X023730D01*
X023100D02*
Y028949D01*
X022257D02*
X023100D01*
X022013Y028713D02*
X022257Y028949D01*
X025356Y016543D02*
X026732D01*
X024665Y017234D02*
X025356Y016543D01*
X024665Y017234D02*
Y018256D01*
X026063D01*
Y018419D01*
X026141Y018438D01*
Y018821D01*
X026063Y018841D02*
X026141Y018821D01*
X026063Y018841D02*
Y018919D01*
X026141Y018938D01*
Y019321D01*
X026063Y019341D02*
X026141Y019321D01*
X026063Y019341D02*
Y019419D01*
X026141Y019438D01*
X026141Y019821D01*
X026063Y019841D02*
X026141Y019821D01*
X026063Y019841D02*
Y019919D01*
X026141Y019938D01*
Y020321D01*
X026063Y020341D02*
X026141Y020321D01*
X026063Y020341D02*
Y020419D01*
X026141Y020438D01*
Y020821D01*
X026063Y020841D02*
X026141Y020821D01*
X026063Y020841D02*
Y020919D01*
X026141Y020938D01*
Y021321D01*
X026063Y021341D02*
X026141Y021321D01*
X026063Y021341D02*
Y021419D01*
X026141Y021438D01*
Y021821D01*
X026063Y021841D02*
X026141Y021821D01*
X026063Y021841D02*
Y022004D01*
X024626D02*
X026063D01*
X024626D02*
Y023421D01*
X024665Y017331D02*
X025118D01*
X025306Y016760D02*
X026732D01*
Y017331D02*
Y023421D01*
X024665Y018039D02*
X025118D01*
X024626Y022220D02*
X025118D01*
X024626Y023067D02*
X025118D01*
X025488Y018551D02*
X026141D01*
X025488Y018709D02*
X026141Y018709D01*
X025488Y019051D02*
X026141D01*
X025488Y019209D02*
X026141Y019209D01*
X025488Y019551D02*
X026141D01*
X025488Y019709D02*
X026141Y019709D01*
X025488Y020051D02*
X026141D01*
X025488Y020209D02*
X026141Y020209D01*
X025488Y020551D02*
X026141D01*
X025488Y020709D02*
X026141Y020709D01*
X025488Y021051D02*
X026141D01*
X025488Y021209D02*
X026141Y021209D01*
X025488Y021551D02*
X026141D01*
X025488Y021709D02*
X026141Y021709D01*
X026614Y022220D02*
X026732Y022220D01*
X026614Y023067D02*
X026732D01*
X026614Y018039D02*
X026732D01*
Y016760D02*
Y017114D01*
X026610D02*
X026732D01*
X024951D02*
X025306Y016760D01*
X024951Y017114D02*
X025073D01*
X016864Y010098D02*
X018045D01*
X016864D02*
Y010138D01*
Y011043D02*
Y011083D01*
X017179D01*
X018045Y010138D02*
X018045Y010098D01*
X017307Y010335D02*
X017602D01*
X021447Y010089D02*
X022628D01*
X021447D02*
Y010128D01*
Y011033D02*
Y011073D01*
X021762D01*
X022313D02*
X022628D01*
Y011033D02*
Y011073D01*
X022628Y010128D02*
X022628Y010089D01*
X021890Y010325D02*
X022185D01*
X025080Y024064D02*
X026222D01*
X025080D02*
Y024320D01*
X026222D01*
Y024064D02*
Y024320D01*
X017913Y024457D02*
Y024469D01*
X017866Y024409D02*
X017913Y024457D01*
X017776Y024409D02*
X017866D01*
X015551D02*
Y024469D01*
Y024409D02*
X015689D01*
X017913Y025925D02*
Y025984D01*
X017776D02*
X017913D01*
X015551Y025925D02*
Y025984D01*
X015689D01*
X011791Y024352D02*
Y025589D01*
Y023494D02*
X011886D01*
X012649D02*
X013886D01*
X014744D02*
Y023589D01*
Y024352D02*
Y025589D01*
X014649Y026447D02*
X014744D01*
X011791Y026352D02*
Y026447D01*
X012228Y027923D02*
X014323D01*
X012459Y030258D02*
X014077D01*
X012459Y030783D02*
X014077D01*
Y030073D02*
X014163Y029931D01*
X014077Y030073D02*
Y030970D01*
X014163Y031112D01*
Y031486D01*
X012372D02*
X014163D01*
X012372Y031112D02*
Y031486D01*
Y031112D02*
X012459Y030970D01*
Y030073D02*
Y030970D01*
X012372Y029931D02*
X012459Y030073D01*
X012372Y028730D02*
Y029931D01*
X014163Y028730D02*
Y029931D01*
X012228Y028061D02*
X014520D01*
X012228Y028199D02*
X014323D01*
X012228Y028337D02*
X014520D01*
X012228Y028474D02*
X014323D01*
X012228Y028612D02*
X014520D01*
X012228Y028730D02*
X014323D01*
X014520Y028632D01*
Y028593D02*
Y028632D01*
X014323Y028494D02*
X014520Y028593D01*
X014323Y028455D02*
Y028494D01*
Y028455D02*
X014520Y028356D01*
Y028317D02*
Y028356D01*
X014323Y028219D02*
X014520Y028317D01*
X014323Y028179D02*
Y028219D01*
Y028179D02*
X014520Y028081D01*
Y028041D02*
Y028081D01*
X014323Y027943D02*
X014520Y028041D01*
X012228Y027057D02*
Y028730D01*
Y027057D02*
X014323D01*
X011791Y027746D02*
Y028238D01*
Y027746D02*
X014744D01*
Y028238D01*
X011890Y028337D02*
X014646D01*
X012228Y027785D02*
X014520D01*
X012228Y027648D02*
X014323D01*
X012228Y027372D02*
X014323D01*
X012228Y027510D02*
X014520D01*
X012228Y027234D02*
X014520D01*
X014323Y027904D02*
Y027943D01*
Y027904D02*
X014520Y027805D01*
Y027766D02*
Y027805D01*
X014323Y027667D02*
X014520Y027766D01*
X014323Y027628D02*
Y027667D01*
Y027628D02*
X014520Y027530D01*
Y027490D02*
Y027530D01*
X014323Y027392D02*
X014520Y027490D01*
X014323Y027352D02*
Y027392D01*
Y027352D02*
X014520Y027254D01*
Y027215D02*
Y027254D01*
X014323Y027116D02*
X014520Y027215D01*
X014323Y027057D02*
Y027116D01*
X014291Y026762D02*
Y027057D01*
X012244Y026762D02*
Y027057D01*
X011890Y026447D02*
Y026762D01*
X014646D01*
Y026447D02*
Y026762D01*
X011791Y026447D02*
X011886D01*
X011791Y023494D02*
Y023589D01*
X014649Y023494D02*
X014744D01*
Y026352D02*
Y026447D01*
X010860Y024270D02*
Y024329D01*
X011175Y024270D02*
Y024329D01*
X010309Y024270D02*
Y024329D01*
X010624Y024270D02*
Y024329D01*
X023622Y014478D02*
X023622Y015758D01*
X010197Y023740D02*
Y023780D01*
X011339Y023740D02*
Y023780D01*
Y023228D02*
Y023268D01*
X018425Y025217D02*
X021575D01*
X018425D02*
Y026476D01*
X021575D01*
X021575Y025217D01*
X018425Y025374D02*
X021575D01*
X018543Y026437D02*
X018543Y025374D01*
X018543Y026437D02*
X021457D01*
X021339Y026319D02*
X021457Y026437D01*
X018543D02*
X018661Y026319D01*
Y026014D02*
Y026319D01*
X018543Y026014D02*
X018661D01*
X018543Y025679D02*
X018661D01*
Y025256D02*
Y025679D01*
Y025256D02*
X021339D01*
Y025679D02*
X021457D01*
X021339Y026014D02*
X021457D01*
X021339D02*
Y026319D01*
X021260Y025217D02*
Y025374D01*
X018740Y025217D02*
Y025374D01*
X021260Y026319D02*
X021339D01*
X018661D02*
X018740D01*
X013317Y014749D02*
X013376D01*
X013317Y014434D02*
X013376D01*
X013032Y015344D02*
Y016348D01*
X013287D01*
Y015335D02*
Y016348D01*
X007382Y010994D02*
Y017549D01*
X009232D01*
Y010994D02*
Y017549D01*
X007382Y010994D02*
X009232D01*
X009232Y011319D02*
X009902D01*
X009902Y011654D02*
X009902Y011319D01*
X009644Y011654D02*
X009902D01*
X009644D02*
X009644Y012165D01*
X009902Y012165D01*
Y012441D01*
X009644D02*
X009902D01*
X009644D02*
Y012953D01*
X009902D01*
X009902Y013228D01*
X009644D02*
X009902D01*
X009644Y013740D02*
X009644Y013228D01*
X009644Y013740D02*
X009902D01*
Y014016D01*
X009644D02*
X009902D01*
X009644D02*
X009644Y014528D01*
X009902D01*
X009902Y014803D02*
X009902Y014528D01*
X009644Y014803D02*
X009902D01*
X009644D02*
Y015315D01*
X009902D01*
Y015591D01*
X009644Y015591D02*
X009902Y015591D01*
X009644Y016102D02*
X009644Y015591D01*
X009644Y016102D02*
X009902D01*
Y016378D01*
X009644Y016378D02*
X009902Y016378D01*
X009644Y016378D02*
Y016890D01*
X009902Y016890D01*
Y017224D01*
X009232D02*
X009902D01*
X009803Y016378D02*
Y016890D01*
Y015591D02*
Y016102D01*
Y014803D02*
Y015315D01*
Y014016D02*
X009803Y014528D01*
X009803Y013740D02*
X009803Y013228D01*
X009803Y012441D02*
Y012953D01*
Y011654D02*
Y012165D01*
X008209Y012185D02*
X009232Y012106D01*
X008209Y012185D02*
Y012323D01*
X008445D01*
Y013071D01*
X008209Y013071D02*
X008445Y013071D01*
X008209Y013071D02*
Y013209D01*
X009232Y013287D01*
X008917Y012131D02*
Y012933D01*
X008445Y012933D02*
X008917Y012933D01*
X008445Y012598D02*
Y012933D01*
Y012598D02*
X008917D01*
X008445Y012795D02*
X008917Y012795D01*
Y014744D02*
X008917Y013799D01*
X007618Y014744D02*
X008917Y014744D01*
X007520Y014766D02*
X007520Y014429D01*
X008917D01*
Y014744D02*
X008917Y013799D01*
X007618Y013799D02*
X008917Y013799D01*
X007520Y013778D02*
X007520Y014114D01*
X008917D01*
X007697Y014173D02*
X008917D01*
X007697Y014370D02*
X008917D01*
X007697Y014173D02*
Y014370D01*
X007500Y014232D02*
X007697Y014173D01*
X007500Y014311D02*
X007500Y014232D01*
X007500Y014311D02*
X007697Y014370D01*
X007618Y014197D02*
X007618Y014114D01*
X007618Y014346D02*
X007618Y014429D01*
X007382Y011781D02*
X007723Y011978D01*
X007382Y012175D02*
X007723Y011978D01*
X008209Y016358D02*
X009232Y016437D01*
X008209Y016358D02*
X008209Y016220D01*
X008445D01*
X008445Y015472D02*
X008445Y016220D01*
X008209Y015472D02*
X008445Y015472D01*
X008209Y015335D02*
Y015472D01*
Y015335D02*
X009232Y015256D01*
X008917Y015610D02*
Y016413D01*
X008445Y015610D02*
X008917D01*
X008445D02*
Y015945D01*
X008917Y015945D01*
X008445Y015748D02*
X008917Y015748D01*
X012992Y016457D02*
Y017549D01*
Y016457D02*
X013228Y016457D01*
X013228Y017549D01*
X033435Y012885D02*
X034695D01*
X033435Y010286D02*
X034695D01*
X033435D02*
Y012885D01*
X034695Y010286D02*
X034695Y012885D01*
X038415Y022794D02*
X038848D01*
X038415Y023424D02*
X038848D01*
X036319Y023670D02*
X037579Y023670D01*
X036319Y026268D02*
X037579Y026268D01*
X037579Y023670D02*
X037579Y026268D01*
X036319Y026268D02*
X036319Y023670D01*
X033227Y024239D02*
Y024672D01*
X033857Y024239D02*
Y024672D01*
X037736Y013384D02*
X038169D01*
X037736Y012754D02*
X038169D01*
X040594Y025589D02*
X041014Y025339D01*
X040094Y025589D02*
X040594D01*
X039675Y025339D02*
X040094Y025589D01*
X039675Y024087D02*
X040094Y023837D01*
X040594D01*
X041014Y024087D01*
X029104Y023542D02*
X030463D01*
X031053Y022951D01*
X029104Y012991D02*
X031053D01*
Y022302D02*
Y022951D01*
X029104Y022302D02*
Y023542D01*
Y012991D02*
Y014231D01*
X031053Y012991D02*
Y014231D01*
X029596Y013407D02*
X029960Y013710D01*
Y013804D01*
X029596Y014054D02*
X029960Y013804D01*
Y013710D02*
X030020D01*
X029675Y013345D02*
X029961D01*
Y013542D01*
X030020D01*
X029596Y022912D02*
X029872Y023187D01*
X029713Y023028D02*
X029960Y022822D01*
X030019D01*
X029872Y023187D02*
X030019D01*
X029960Y013804D02*
X030020D01*
X029596Y014054D02*
X030561D01*
X029960Y022729D02*
X030019D01*
X029596Y022479D02*
X029960Y022729D01*
X029596Y022479D02*
X030561D01*
X029960Y022729D02*
Y022822D01*
X029596Y013407D02*
Y014054D01*
Y022479D02*
Y022912D01*
X029713Y023028D01*
X040128Y023542D02*
X041486D01*
X042077Y022951D01*
X040128Y012991D02*
X042077D01*
Y022302D02*
Y022951D01*
X040128Y022302D02*
Y023542D01*
Y012991D02*
Y014231D01*
X042077Y012991D02*
Y014231D01*
X040620Y013407D02*
X040983Y013710D01*
Y013804D01*
X040620Y014054D02*
X040983Y013804D01*
Y013710D02*
X041043D01*
X040699Y013345D02*
X040984D01*
Y013542D01*
X041043D01*
X040620Y022912D02*
X040896Y023187D01*
X040736Y023028D02*
X040983Y022822D01*
X041043D01*
X040896Y023187D02*
X041043D01*
X040983Y013804D02*
X041043D01*
X040620Y014054D02*
X041585D01*
X040983Y022729D02*
X041043D01*
X040620Y022479D02*
X040983Y022729D01*
X040620Y022479D02*
X041585D01*
X040983Y022729D02*
Y022822D01*
X040620Y013407D02*
Y014054D01*
Y022479D02*
Y022912D01*
X040736Y023028D01*
X030413Y011494D02*
Y012124D01*
X029744Y012124D02*
X030413Y012124D01*
X029744Y011494D02*
X030413D01*
X029419Y011091D02*
X029498D01*
X030541Y011091D02*
X030620Y011091D01*
X029183Y011248D02*
X029183Y009989D01*
X030856D01*
X030856Y011248D01*
X029183D02*
X030856D01*
X030620Y010786D02*
X030738Y010786D01*
X030620Y010786D02*
Y011091D01*
X030738Y011209D01*
X029301D02*
X030738D01*
X029301D02*
X029419Y011091D01*
Y010786D02*
Y011091D01*
X029301Y010786D02*
X029419Y010786D01*
X029301Y010146D02*
Y011209D01*
X029183Y010146D02*
X030856D01*
X030738D02*
Y011209D01*
X030620Y010451D02*
X030738D01*
X030620Y010028D02*
Y010451D01*
X029419Y010028D02*
Y010451D01*
X029301D02*
X029419D01*
X029498Y009989D02*
Y010146D01*
X030541Y009989D02*
Y010146D01*
X029419Y010028D02*
X030620D01*
X037904Y010796D02*
Y010855D01*
X038219Y010796D02*
Y010855D01*
X038435Y010796D02*
Y010855D01*
X038750Y010796D02*
Y010855D01*
X038957Y010796D02*
Y010855D01*
X039272Y010796D02*
Y010855D01*
X039498Y011104D02*
X040640D01*
Y010848D02*
Y011104D01*
X039498Y010848D02*
X040640D01*
X039498D02*
Y011104D01*
X040896D02*
X042037D01*
Y010848D02*
Y011104D01*
X040896Y010848D02*
X042037D01*
X040896D02*
Y011104D01*
X024626Y023421D02*
X026732D01*
X028870Y022221D02*
Y021959D01*
X028608Y022221D01*
X028542D01*
X028477Y022156D01*
Y022024D01*
X028542Y021959D01*
X028512Y014122D02*
X028447Y014188D01*
Y014319D01*
X028512Y014385D01*
X028578D01*
X028644Y014319D01*
X028709Y014385D01*
X028775D01*
X028840Y014319D01*
Y014188D01*
X028775Y014122D01*
X028709D01*
X028644Y014188D01*
X028578Y014122D01*
X028512D01*
X028644Y014188D02*
Y014319D01*
X028512Y014516D02*
X028447Y014581D01*
Y014712D01*
X028512Y014778D01*
X028775D01*
X028840Y014712D01*
Y014581D01*
X028775Y014516D01*
X028512D01*
X031761Y022049D02*
Y022180D01*
Y022114D01*
X031367D01*
X031433Y022049D01*
X031367Y014136D02*
Y014398D01*
X031433D01*
X031695Y014136D01*
X031761D01*
X031695Y014529D02*
X031761Y014595D01*
Y014726D01*
X031695Y014792D01*
X031433D01*
X031367Y014726D01*
Y014595D01*
X031433Y014529D01*
X031499D01*
X031564Y014595D01*
Y014792D01*
X039536Y014122D02*
X039471Y014188D01*
Y014319D01*
X039536Y014385D01*
X039602D01*
X039667Y014319D01*
X039733Y014385D01*
X039799D01*
X039864Y014319D01*
Y014188D01*
X039799Y014122D01*
X039733D01*
X039667Y014188D01*
X039602Y014122D01*
X039536D01*
X039667Y014188D02*
Y014319D01*
X039536Y014516D02*
X039471Y014581D01*
Y014712D01*
X039536Y014778D01*
X039799D01*
X039864Y014712D01*
Y014581D01*
X039799Y014516D01*
X039536D01*
X042785Y022049D02*
Y022180D01*
Y022114D01*
X042391D01*
X042457Y022049D01*
X042391Y014136D02*
Y014398D01*
X042457D01*
X042719Y014136D01*
X042785D01*
X042719Y014529D02*
X042785Y014595D01*
Y014726D01*
X042719Y014792D01*
X042457D01*
X042391Y014726D01*
Y014595D01*
X042457Y014529D01*
X042522D01*
X042588Y014595D01*
Y014792D01*
D68*
X077339Y022251D02*
X077870Y021721D01*
X077163Y022075D02*
X077516Y022428D01*
X077882Y022441D02*
X077857Y022365D01*
Y022264D01*
X077908Y022163D01*
X077958Y022112D01*
X078059Y022062D01*
X078160D01*
X078236Y022087D01*
X078312Y022163D01*
X078337Y022239D01*
X078337Y022340D01*
X078286Y022441D01*
X078236Y022491D01*
X078135Y022542D01*
X078034Y022542D01*
X077958Y022516D01*
X077882Y022441D01*
X078200Y022759D02*
X078731Y022229D01*
X078276Y022683D02*
Y022784D01*
X078301Y022860D01*
X078377Y022935D01*
X078453Y022961D01*
X078554D01*
X078655Y022910D01*
X078705Y022860D01*
X078756Y022759D01*
Y022658D01*
X078731Y022582D01*
X078655Y022506D01*
X078579Y022481D01*
X078478D01*
X079008Y023920D02*
X078983Y023844D01*
Y023743D01*
X079008Y023668D01*
X079059Y023567D01*
X079185Y023440D01*
X079286Y023390D01*
X079362Y023365D01*
X079463Y023365D01*
X079539Y023390D01*
X079640Y023491D01*
X079665Y023567D01*
Y023668D01*
X079640Y023743D01*
X079589Y023844D01*
X079463Y023971D01*
X079362Y024021D01*
X079286Y024046D01*
X079185D01*
X079109Y024021D01*
X079008Y023920D01*
X079561Y024120D02*
X080066Y023918D01*
X079864Y024423D02*
X080066Y023918D01*
X080102Y024357D02*
X080405Y024660D01*
X080354Y024710D01*
X080278Y024736D01*
X080228Y024736D01*
X080152Y024710D01*
X080076Y024635D01*
X080051Y024559D01*
Y024458D01*
X080102Y024357D01*
X080152Y024306D01*
X080253Y024256D01*
X080354D01*
X080430Y024281D01*
X080506Y024357D01*
X080531Y024433D01*
X080531Y024534D01*
X080367Y024925D02*
X080720Y024572D01*
X080518Y024774D02*
X080468Y024875D01*
Y024976D01*
X080493Y025051D01*
X080569Y025127D01*
X080440Y025352D02*
X080970Y024822D01*
X081031Y025589D02*
X081384Y025236D01*
X081107Y025513D02*
X081006D01*
X080930Y025488D01*
X080854Y025412D01*
X080829Y025337D01*
Y025236D01*
X080879Y025135D01*
X080930Y025084D01*
X081031Y025034D01*
X081132D01*
X081207Y025059D01*
X081283Y025135D01*
X081308Y025210D01*
X081308Y025311D01*
X081197Y025756D02*
X081702Y025554D01*
X081500Y026059D02*
X081702Y025554D01*
X081753Y025402D01*
Y025301D01*
X081728Y025226D01*
X081702Y025200D01*
D69*
X023307Y012953D02*
G03*
X023307Y012953I-000020J000000D01*
G01*
X014400Y010177D02*
G03*
X014400Y010177I-000049J000000D01*
G01*
X011585Y013661D02*
G03*
X011585Y013661I-000049J000000D01*
G01*
X013081Y021604D02*
G03*
X013081Y021604I-000049J000000D01*
G01*
X024389Y021630D02*
G03*
X024389Y021630I-000049J000000D01*
G01*
X025011Y023641D02*
G03*
X025011Y023641I-000049J000000D01*
G01*
X018337Y024646D02*
G03*
X018337Y024646I-000049J000000D01*
G01*
X014941Y023760D02*
G03*
X014941Y023760I-000049J000000D01*
G01*
X024478Y014656D02*
G03*
X024478Y014656I-000049J000000D01*
G01*
X014016Y014706D02*
G03*
X014019Y014722I-000046J000016D01*
G01*
X012657Y016467D02*
G03*
X012657Y016467I-000049J000000D01*
G01*
X013711Y016319D02*
G03*
X013711Y016319I-000049J000000D01*
G01*
X035610Y010247D02*
G03*
X035610Y010247I-000049J000000D01*
G01*
X035502Y026307D02*
G03*
X035502Y026307I-000049J000000D01*
G01*
X038110Y010156D02*
G03*
X038110Y010156I-000049J000000D01*
G01*
X038642Y010156D02*
G03*
X038642Y010156I-000049J000000D01*
G01*
X039163D02*
G03*
X039163Y010156I-000049J000000D01*
G01*
X040807Y011528D02*
G03*
X040807Y011528I-000049J000000D01*
G01*
X042205D02*
G03*
X042205Y011528I-000049J000000D01*
G01*
D70*
X037014Y010320D02*
X037329D01*
X037014D02*
Y010455D01*
X037029Y010500D01*
X037044Y010515D01*
X037074Y010530D01*
X037104D01*
X037134Y010515D01*
X037149Y010500D01*
X037164Y010455D01*
Y010320D01*
Y010425D02*
X037329Y010530D01*
X037089Y010615D02*
X037074D01*
X037044Y010630D01*
X037029Y010645D01*
X037014Y010675D01*
Y010735D01*
X037029Y010765D01*
X037044Y010780D01*
X037074Y010795D01*
X037104D01*
X037134Y010780D01*
X037179Y010750D01*
X037329Y010600D01*
Y010810D01*
X037089Y010896D02*
X037074D01*
X037044Y010911D01*
X037029Y010926D01*
X037014Y010956D01*
Y011016D01*
X037029Y011046D01*
X037044Y011061D01*
X037074Y011076D01*
X037104D01*
X037134Y011061D01*
X037179Y011031D01*
X037329Y010881D01*
Y011091D01*
X039075Y016115D02*
Y015800D01*
Y016115D02*
X039210D01*
X039255Y016100D01*
X039270Y016085D01*
X039285Y016055D01*
Y016025D01*
X039270Y015995D01*
X039255Y015980D01*
X039210Y015965D01*
X039075D01*
X039180D02*
X039285Y015800D01*
X039356Y016055D02*
X039386Y016070D01*
X039431Y016115D01*
Y015800D01*
X031496Y012882D02*
Y012567D01*
X031787Y012807D02*
X031772Y012837D01*
X031742Y012867D01*
X031712Y012882D01*
X031652D01*
X031622Y012867D01*
X031592Y012837D01*
X031577Y012807D01*
X031562Y012762D01*
Y012687D01*
X031577Y012642D01*
X031592Y012612D01*
X031622Y012582D01*
X031652Y012567D01*
X031712D01*
X031742Y012582D01*
X031772Y012612D01*
X031787Y012642D01*
X032055Y012837D02*
X032040Y012867D01*
X031995Y012882D01*
X031965D01*
X031920Y012867D01*
X031890Y012822D01*
X031875Y012747D01*
Y012672D01*
X031890Y012612D01*
X031920Y012582D01*
X031965Y012567D01*
X031980D01*
X032025Y012582D01*
X032055Y012612D01*
X032070Y012657D01*
Y012672D01*
X032055Y012717D01*
X032025Y012747D01*
X031980Y012762D01*
X031965D01*
X031920Y012747D01*
X031890Y012717D01*
X031875Y012672D01*
X039300Y019884D02*
X039285Y019914D01*
X039255Y019944D01*
X039225Y019959D01*
X039165D01*
X039135Y019944D01*
X039105Y019914D01*
X039090Y019884D01*
X039075Y019839D01*
Y019764D01*
X039090Y019719D01*
X039105Y019689D01*
X039135Y019659D01*
X039165Y019644D01*
X039225D01*
X039255Y019659D01*
X039285Y019689D01*
X039300Y019719D01*
X039583Y019854D02*
X039568Y019809D01*
X039538Y019779D01*
X039493Y019764D01*
X039478D01*
X039433Y019779D01*
X039403Y019809D01*
X039388Y019854D01*
Y019869D01*
X039403Y019914D01*
X039433Y019944D01*
X039478Y019959D01*
X039493D01*
X039538Y019944D01*
X039568Y019914D01*
X039583Y019854D01*
Y019779D01*
X039568Y019704D01*
X039538Y019659D01*
X039493Y019644D01*
X039463D01*
X039418Y019659D01*
X039403Y019689D01*
X039300Y018191D02*
X039285Y018221D01*
X039255Y018251D01*
X039225Y018266D01*
X039165D01*
X039135Y018251D01*
X039105Y018221D01*
X039090Y018191D01*
X039075Y018146D01*
Y018071D01*
X039090Y018026D01*
X039105Y017996D01*
X039135Y017966D01*
X039165Y017951D01*
X039225D01*
X039255Y017966D01*
X039285Y017996D01*
X039300Y018026D01*
X039419Y018266D02*
X039584D01*
X039494Y018146D01*
X039539D01*
X039569Y018131D01*
X039584Y018116D01*
X039599Y018071D01*
Y018041D01*
X039584Y017996D01*
X039554Y017966D01*
X039509Y017951D01*
X039464D01*
X039419Y017966D01*
X039404Y017981D01*
X039389Y018011D01*
X039759Y018266D02*
X039714Y018251D01*
X039684Y018206D01*
X039669Y018131D01*
Y018086D01*
X039684Y018011D01*
X039714Y017966D01*
X039759Y017951D01*
X039789D01*
X039834Y017966D01*
X039864Y018011D01*
X039879Y018086D01*
Y018131D01*
X039864Y018206D01*
X039834Y018251D01*
X039789Y018266D01*
X039759D01*
X039438Y022404D02*
X039423Y022434D01*
X039393Y022464D01*
X039363Y022479D01*
X039303D01*
X039273Y022464D01*
X039243Y022434D01*
X039228Y022404D01*
X039213Y022359D01*
Y022284D01*
X039228Y022239D01*
X039243Y022209D01*
X039273Y022179D01*
X039303Y022164D01*
X039363D01*
X039393Y022179D01*
X039423Y022209D01*
X039438Y022239D01*
X039541Y022404D02*
Y022419D01*
X039556Y022449D01*
X039571Y022464D01*
X039601Y022479D01*
X039661D01*
X039691Y022464D01*
X039706Y022449D01*
X039721Y022419D01*
Y022389D01*
X039706Y022359D01*
X039676Y022314D01*
X039526Y022164D01*
X039736D01*
X040001Y022374D02*
X039986Y022329D01*
X039956Y022299D01*
X039911Y022284D01*
X039896D01*
X039851Y022299D01*
X039821Y022329D01*
X039806Y022374D01*
Y022389D01*
X039821Y022434D01*
X039851Y022464D01*
X039896Y022479D01*
X039911D01*
X039956Y022464D01*
X039986Y022434D01*
X040001Y022374D01*
Y022299D01*
X039986Y022224D01*
X039956Y022179D01*
X039911Y022164D01*
X039881D01*
X039836Y022179D01*
X039821Y022209D01*
X039866Y023268D02*
X039896Y023283D01*
X039926Y023313D01*
X039941Y023343D01*
Y023403D01*
X039926Y023433D01*
X039896Y023463D01*
X039866Y023478D01*
X039821Y023493D01*
X039746D01*
X039701Y023478D01*
X039671Y023463D01*
X039641Y023433D01*
X039626Y023403D01*
Y023343D01*
X039641Y023313D01*
X039671Y023283D01*
X039701Y023268D01*
X039866Y023164D02*
X039881D01*
X039911Y023149D01*
X039926Y023134D01*
X039941Y023104D01*
Y023044D01*
X039926Y023014D01*
X039911Y022999D01*
X039881Y022984D01*
X039851D01*
X039821Y022999D01*
X039776Y023029D01*
X039626Y023179D01*
Y022969D01*
X039941Y022824D02*
X039926Y022869D01*
X039896Y022884D01*
X039866D01*
X039836Y022869D01*
X039821Y022839D01*
X039806Y022779D01*
X039791Y022734D01*
X039761Y022704D01*
X039731Y022689D01*
X039686D01*
X039656Y022704D01*
X039641Y022719D01*
X039626Y022764D01*
Y022824D01*
X039641Y022869D01*
X039656Y022884D01*
X039686Y022899D01*
X039731D01*
X039761Y022884D01*
X039791Y022854D01*
X039806Y022809D01*
X039821Y022749D01*
X039836Y022719D01*
X039866Y022704D01*
X039896D01*
X039926Y022719D01*
X039941Y022764D01*
Y022824D01*
X033429Y014773D02*
X033459Y014789D01*
X033489Y014818D01*
X033504Y014848D01*
Y014908D01*
X033489Y014938D01*
X033459Y014968D01*
X033429Y014983D01*
X033384Y014998D01*
X033309D01*
X033264Y014983D01*
X033234Y014968D01*
X033204Y014938D01*
X033189Y014908D01*
Y014848D01*
X033204Y014818D01*
X033234Y014789D01*
X033264Y014773D01*
X033429Y014670D02*
X033444D01*
X033474Y014655D01*
X033489Y014640D01*
X033504Y014610D01*
Y014550D01*
X033489Y014520D01*
X033474Y014505D01*
X033444Y014490D01*
X033414D01*
X033384Y014505D01*
X033339Y014535D01*
X033189Y014685D01*
Y014475D01*
X033504Y014225D02*
Y014375D01*
X033369Y014390D01*
X033384Y014375D01*
X033399Y014330D01*
Y014285D01*
X033384Y014240D01*
X033354Y014210D01*
X033309Y014195D01*
X033279D01*
X033234Y014210D01*
X033204Y014240D01*
X033189Y014285D01*
Y014330D01*
X033204Y014375D01*
X033219Y014390D01*
X033249Y014405D01*
X034325Y022864D02*
X034355Y022879D01*
X034385Y022909D01*
X034400Y022939D01*
Y022999D01*
X034385Y023029D01*
X034355Y023059D01*
X034325Y023074D01*
X034280Y023089D01*
X034205D01*
X034160Y023074D01*
X034130Y023059D01*
X034100Y023029D01*
X034085Y022999D01*
Y022939D01*
X034100Y022909D01*
X034130Y022879D01*
X034160Y022864D01*
X034325Y022761D02*
X034340D01*
X034370Y022746D01*
X034385Y022731D01*
X034400Y022701D01*
Y022641D01*
X034385Y022611D01*
X034370Y022596D01*
X034340Y022581D01*
X034310D01*
X034280Y022596D01*
X034235Y022626D01*
X034085Y022776D01*
Y022566D01*
X034000Y021840D02*
X034030Y021855D01*
X034060Y021885D01*
X034075Y021915D01*
Y021975D01*
X034060Y022005D01*
X034030Y022035D01*
X034000Y022050D01*
X033955Y022065D01*
X033880D01*
X033835Y022050D01*
X033805Y022035D01*
X033775Y022005D01*
X033760Y021975D01*
Y021915D01*
X033775Y021885D01*
X033805Y021855D01*
X033835Y021840D01*
X034015Y021752D02*
X034030Y021722D01*
X034075Y021677D01*
X033760D01*
X033941Y014783D02*
X033971Y014798D01*
X034001Y014828D01*
X034016Y014858D01*
Y014918D01*
X034001Y014948D01*
X033971Y014978D01*
X033941Y014993D01*
X033896Y015008D01*
X033821D01*
X033776Y014993D01*
X033746Y014978D01*
X033716Y014948D01*
X033701Y014918D01*
Y014858D01*
X033716Y014828D01*
X033746Y014798D01*
X033776Y014783D01*
X033941Y014680D02*
X033956D01*
X033986Y014665D01*
X034001Y014650D01*
X034016Y014620D01*
Y014560D01*
X034001Y014530D01*
X033986Y014515D01*
X033956Y014500D01*
X033926D01*
X033896Y014515D01*
X033851Y014545D01*
X033701Y014695D01*
Y014485D01*
X033941Y014399D02*
X033956D01*
X033986Y014384D01*
X034001Y014369D01*
X034016Y014339D01*
Y014280D01*
X034001Y014250D01*
X033986Y014235D01*
X033956Y014220D01*
X033926D01*
X033896Y014235D01*
X033851Y014265D01*
X033701Y014414D01*
Y014205D01*
X033424Y023368D02*
X033409Y023398D01*
X033379Y023428D01*
X033349Y023443D01*
X033289D01*
X033259Y023428D01*
X033229Y023398D01*
X033214Y023368D01*
X033199Y023323D01*
Y023248D01*
X033214Y023203D01*
X033229Y023173D01*
X033259Y023143D01*
X033289Y023128D01*
X033349D01*
X033379Y023143D01*
X033409Y023173D01*
X033424Y023203D01*
X033527Y023368D02*
Y023383D01*
X033542Y023413D01*
X033557Y023428D01*
X033587Y023443D01*
X033647D01*
X033677Y023428D01*
X033692Y023413D01*
X033707Y023383D01*
Y023353D01*
X033692Y023323D01*
X033662Y023278D01*
X033512Y023128D01*
X033722D01*
X033793Y023383D02*
X033823Y023398D01*
X033868Y023443D01*
Y023128D01*
X032445Y018277D02*
X032475Y018292D01*
X032505Y018322D01*
X032520Y018352D01*
Y018412D01*
X032505Y018442D01*
X032475Y018472D01*
X032445Y018487D01*
X032400Y018502D01*
X032325D01*
X032280Y018487D01*
X032250Y018472D01*
X032220Y018442D01*
X032205Y018412D01*
Y018352D01*
X032220Y018322D01*
X032250Y018292D01*
X032280Y018277D01*
X032445Y018174D02*
X032460D01*
X032490Y018159D01*
X032505Y018144D01*
X032520Y018114D01*
Y018054D01*
X032505Y018024D01*
X032490Y018009D01*
X032460Y017994D01*
X032430D01*
X032400Y018009D01*
X032355Y018039D01*
X032205Y018189D01*
Y017979D01*
X032520Y017819D02*
X032505Y017864D01*
X032460Y017894D01*
X032385Y017909D01*
X032340D01*
X032265Y017894D01*
X032220Y017864D01*
X032205Y017819D01*
Y017789D01*
X032220Y017744D01*
X032265Y017714D01*
X032340Y017699D01*
X032385D01*
X032460Y017714D01*
X032505Y017744D01*
X032520Y017789D01*
Y017819D01*
X038809Y026199D02*
Y025884D01*
X039100Y026124D02*
X039085Y026154D01*
X039055Y026184D01*
X039025Y026199D01*
X038965D01*
X038935Y026184D01*
X038905Y026154D01*
X038890Y026124D01*
X038875Y026079D01*
Y026004D01*
X038890Y025959D01*
X038905Y025929D01*
X038935Y025899D01*
X038965Y025884D01*
X039025D01*
X039055Y025899D01*
X039085Y025929D01*
X039100Y025959D01*
X039398Y026199D02*
X039248Y025884D01*
X039188Y026199D02*
X039398D01*
X031943Y018307D02*
X031973Y018322D01*
X032003Y018352D01*
X032018Y018382D01*
Y018442D01*
X032003Y018472D01*
X031973Y018502D01*
X031943Y018517D01*
X031898Y018532D01*
X031823D01*
X031778Y018517D01*
X031748Y018502D01*
X031718Y018472D01*
X031703Y018442D01*
Y018382D01*
X031718Y018352D01*
X031748Y018322D01*
X031778Y018307D01*
X031943Y018204D02*
X031958D01*
X031988Y018189D01*
X032003Y018174D01*
X032018Y018144D01*
Y018084D01*
X032003Y018054D01*
X031988Y018039D01*
X031958Y018024D01*
X031928D01*
X031898Y018039D01*
X031853Y018069D01*
X031703Y018218D01*
Y018009D01*
X032018Y017908D02*
Y017743D01*
X031898Y017833D01*
Y017788D01*
X031883Y017758D01*
X031868Y017743D01*
X031823Y017728D01*
X031793D01*
X031748Y017743D01*
X031718Y017773D01*
X031703Y017818D01*
Y017863D01*
X031718Y017908D01*
X031733Y017923D01*
X031763Y017938D01*
X035945Y013059D02*
X036260D01*
X035945D02*
Y013194D01*
X035960Y013239D01*
X035975Y013254D01*
X036005Y013269D01*
X036035D01*
X036065Y013254D01*
X036080Y013239D01*
X036095Y013194D01*
Y013059D01*
Y013164D02*
X036260Y013269D01*
X036020Y013355D02*
X036005D01*
X035975Y013370D01*
X035960Y013385D01*
X035945Y013415D01*
Y013475D01*
X035960Y013505D01*
X035975Y013520D01*
X036005Y013535D01*
X036035D01*
X036065Y013520D01*
X036110Y013490D01*
X036260Y013340D01*
Y013550D01*
X035945Y013650D02*
Y013815D01*
X036065Y013725D01*
Y013770D01*
X036080Y013800D01*
X036095Y013815D01*
X036140Y013830D01*
X036170D01*
X036215Y013815D01*
X036245Y013785D01*
X036260Y013740D01*
Y013695D01*
X036245Y013650D01*
X036230Y013635D01*
X036200Y013620D01*
X038169Y018650D02*
Y018335D01*
Y018650D02*
X038304D01*
X038349Y018635D01*
X038364Y018620D01*
X038379Y018590D01*
Y018560D01*
X038364Y018530D01*
X038349Y018515D01*
X038304Y018500D01*
X038169D01*
X038274D02*
X038379Y018335D01*
X038600Y018650D02*
X038450Y018440D01*
X038675D01*
X038600Y018650D02*
Y018335D01*
X031827Y024542D02*
X031880Y024595D01*
Y024700D01*
X031827Y024752D01*
X031617D01*
X031565Y024700D01*
Y024595D01*
X031617Y024542D01*
X031565Y024228D02*
Y024437D01*
X031775Y024228D01*
X031827D01*
X031880Y024280D01*
Y024385D01*
X031827Y024437D01*
X031565Y023965D02*
X031880D01*
X031722Y024123D01*
Y023913D01*
X034485Y021865D02*
X034537Y021918D01*
Y022023D01*
X034485Y022075D01*
X034275D01*
X034222Y022023D01*
Y021918D01*
X034275Y021865D01*
X034485Y021760D02*
X034537Y021708D01*
Y021603D01*
X034485Y021550D01*
X034432D01*
X034380Y021603D01*
Y021655D01*
Y021603D01*
X034327Y021550D01*
X034275D01*
X034222Y021603D01*
Y021708D01*
X034275Y021760D01*
X038136Y022003D02*
X038189Y022056D01*
Y022161D01*
X038136Y022213D01*
X037926D01*
X037874Y022161D01*
Y022056D01*
X037926Y022003D01*
X037874Y021741D02*
X038189D01*
X038031Y021898D01*
Y021688D01*
X037674Y022003D02*
X037726Y022056D01*
Y022161D01*
X037674Y022213D01*
X037464D01*
X037411Y022161D01*
Y022056D01*
X037464Y022003D01*
X037726Y021688D02*
Y021898D01*
X037569D01*
X037621Y021793D01*
Y021741D01*
X037569Y021688D01*
X037464D01*
X037411Y021741D01*
Y021846D01*
X037464Y021898D01*
X034800Y022879D02*
X034852Y022932D01*
Y023036D01*
X034800Y023089D01*
X034590D01*
X034537Y023036D01*
Y022932D01*
X034590Y022879D01*
X034852Y022564D02*
X034800Y022669D01*
X034695Y022774D01*
X034590D01*
X034537Y022722D01*
Y022617D01*
X034590Y022564D01*
X034642D01*
X034695Y022617D01*
Y022774D01*
X037651Y015261D02*
X037598Y015313D01*
X037493D01*
X037441Y015261D01*
Y015051D01*
X037493Y014998D01*
X037598D01*
X037651Y015051D01*
X037966Y014998D02*
X037756D01*
X037966Y015208D01*
Y015261D01*
X037913Y015313D01*
X037808D01*
X037756Y015261D01*
X038281Y015313D02*
X038176Y015261D01*
X038071Y015156D01*
Y015051D01*
X038123Y014998D01*
X038228D01*
X038281Y015051D01*
Y015103D01*
X038228Y015156D01*
X038071D01*
X034491Y014792D02*
X034543Y014845D01*
Y014950D01*
X034491Y015002D01*
X034281D01*
X034228Y014950D01*
Y014845D01*
X034281Y014792D01*
X034228Y014478D02*
Y014688D01*
X034438Y014478D01*
X034491D01*
X034543Y014530D01*
Y014635D01*
X034491Y014688D01*
X034543Y014373D02*
Y014163D01*
X034491D01*
X034281Y014373D01*
X034228D01*
X039285Y017783D02*
X039233Y017836D01*
X039128D01*
X039075Y017783D01*
Y017573D01*
X039128Y017521D01*
X039233D01*
X039285Y017573D01*
X039390Y017836D02*
X039600D01*
Y017783D01*
X039390Y017573D01*
Y017521D01*
X038350Y018145D02*
X038297Y018197D01*
X038192D01*
X038140Y018145D01*
Y017935D01*
X038192Y017882D01*
X038297D01*
X038350Y017935D01*
X038455Y018145D02*
X038507Y018197D01*
X038612D01*
X038665Y018145D01*
Y018092D01*
X038612Y018040D01*
X038665Y017987D01*
Y017935D01*
X038612Y017882D01*
X038507D01*
X038455Y017935D01*
Y017987D01*
X038507Y018040D01*
X038455Y018092D01*
Y018145D01*
X038507Y018040D02*
X038612D01*
X039285Y018962D02*
X039232Y019014D01*
X039127D01*
X039075Y018962D01*
Y018752D01*
X039127Y018699D01*
X039232D01*
X039285Y018752D01*
X039390Y018699D02*
X039495D01*
X039442D01*
Y019014D01*
X039390Y018962D01*
X039652D02*
X039705Y019014D01*
X039809D01*
X039862Y018962D01*
Y018752D01*
X039809Y018699D01*
X039705D01*
X039652Y018752D01*
Y018962D01*
X039285Y019464D02*
X039232Y019516D01*
X039127D01*
X039075Y019464D01*
Y019254D01*
X039127Y019201D01*
X039232D01*
X039285Y019254D01*
X039390Y019201D02*
X039495D01*
X039442D01*
Y019516D01*
X039390Y019464D01*
X039652Y019201D02*
X039757D01*
X039705D01*
Y019516D01*
X039652Y019464D01*
X037616Y019414D02*
X037563Y019467D01*
X037458D01*
X037406Y019414D01*
Y019204D01*
X037458Y019152D01*
X037563D01*
X037616Y019204D01*
X037721Y019152D02*
X037826D01*
X037773D01*
Y019467D01*
X037721Y019414D01*
X038193Y019152D02*
X037983D01*
X038193Y019362D01*
Y019414D01*
X038141Y019467D01*
X038036D01*
X037983Y019414D01*
X039285Y016923D02*
X039233Y016975D01*
X039128D01*
X039075Y016923D01*
Y016713D01*
X039128Y016660D01*
X039233D01*
X039285Y016713D01*
X039390Y016660D02*
X039495D01*
X039443D01*
Y016975D01*
X039390Y016923D01*
X039652D02*
X039705Y016975D01*
X039810D01*
X039862Y016923D01*
Y016870D01*
X039810Y016818D01*
X039757D01*
X039810D01*
X039862Y016765D01*
Y016713D01*
X039810Y016660D01*
X039705D01*
X039652Y016713D01*
X039285Y017353D02*
X039233Y017406D01*
X039128D01*
X039075Y017353D01*
Y017143D01*
X039128Y017091D01*
X039233D01*
X039285Y017143D01*
X039390Y017091D02*
X039495D01*
X039443D01*
Y017406D01*
X039390Y017353D01*
X039810Y017091D02*
Y017406D01*
X039652Y017248D01*
X039862D01*
X038161Y013786D02*
X038109Y013839D01*
X038004D01*
X037951Y013786D01*
Y013576D01*
X038004Y013524D01*
X038109D01*
X038161Y013576D01*
X038266Y013786D02*
X038318Y013839D01*
X038423D01*
X038476Y013786D01*
Y013734D01*
X038423Y013681D01*
X038371D01*
X038423D01*
X038476Y013629D01*
Y013576D01*
X038423Y013524D01*
X038318D01*
X038266Y013576D01*
X038581Y013524D02*
X038686D01*
X038633D01*
Y013839D01*
X038581Y013786D01*
X037946Y014185D02*
X037894Y014132D01*
Y014027D01*
X037946Y013975D01*
X038156D01*
X038209Y014027D01*
Y014132D01*
X038156Y014185D01*
X037946Y014290D02*
X037894Y014342D01*
Y014447D01*
X037946Y014500D01*
X037999D01*
X038051Y014447D01*
Y014395D01*
Y014447D01*
X038104Y014500D01*
X038156D01*
X038209Y014447D01*
Y014342D01*
X038156Y014290D01*
X038209Y014814D02*
Y014605D01*
X037999Y014814D01*
X037946D01*
X037894Y014762D01*
Y014657D01*
X037946Y014605D01*
X038599Y022003D02*
X038651Y022056D01*
Y022161D01*
X038599Y022213D01*
X038389D01*
X038337Y022161D01*
Y022056D01*
X038389Y022003D01*
X038599Y021898D02*
X038651Y021846D01*
Y021741D01*
X038599Y021688D01*
X038547D01*
X038494Y021741D01*
Y021793D01*
Y021741D01*
X038442Y021688D01*
X038389D01*
X038337Y021741D01*
Y021846D01*
X038389Y021898D01*
X038599Y021583D02*
X038651Y021531D01*
Y021426D01*
X038599Y021373D01*
X038547D01*
X038494Y021426D01*
Y021478D01*
Y021426D01*
X038442Y021373D01*
X038389D01*
X038337Y021426D01*
Y021531D01*
X038389Y021583D01*
X037494Y014185D02*
X037442Y014132D01*
Y014027D01*
X037494Y013975D01*
X037704D01*
X037756Y014027D01*
Y014132D01*
X037704Y014185D01*
X037494Y014290D02*
X037442Y014342D01*
Y014447D01*
X037494Y014500D01*
X037547D01*
X037599Y014447D01*
Y014395D01*
Y014447D01*
X037651Y014500D01*
X037704D01*
X037756Y014447D01*
Y014342D01*
X037704Y014290D01*
X037756Y014762D02*
X037442D01*
X037599Y014605D01*
Y014814D01*
X039285Y016493D02*
X039233Y016545D01*
X039128D01*
X039075Y016493D01*
Y016283D01*
X039128Y016230D01*
X039233D01*
X039285Y016283D01*
X039390Y016230D02*
X039495D01*
X039443D01*
Y016545D01*
X039390Y016493D01*
X039862Y016545D02*
X039652D01*
Y016388D01*
X039757Y016440D01*
X039810D01*
X039862Y016388D01*
Y016283D01*
X039810Y016230D01*
X039705D01*
X039652Y016283D01*
X039062Y022003D02*
X039114Y022056D01*
Y022161D01*
X039062Y022213D01*
X038852D01*
X038799Y022161D01*
Y022056D01*
X038852Y022003D01*
X038799Y021898D02*
Y021793D01*
Y021846D01*
X039114D01*
X039062Y021898D01*
X039114Y021426D02*
X039062Y021531D01*
X038957Y021636D01*
X038852D01*
X038799Y021583D01*
Y021478D01*
X038852Y021426D01*
X038904D01*
X038957Y021478D01*
Y021636D01*
X039285Y020802D02*
X039232Y020855D01*
X039127D01*
X039075Y020802D01*
Y020592D01*
X039127Y020540D01*
X039232D01*
X039285Y020592D01*
X039390Y020540D02*
X039495D01*
X039442D01*
Y020855D01*
X039390Y020802D01*
X039652Y020855D02*
X039862D01*
Y020802D01*
X039652Y020592D01*
Y020540D01*
X039314Y021255D02*
X039262Y021307D01*
X039157D01*
X039104Y021255D01*
Y021045D01*
X039157Y020993D01*
X039262D01*
X039314Y021045D01*
X039419Y020993D02*
X039524D01*
X039472D01*
Y021307D01*
X039419Y021255D01*
X039682D02*
X039734Y021307D01*
X039839D01*
X039891Y021255D01*
Y021202D01*
X039839Y021150D01*
X039891Y021097D01*
Y021045D01*
X039839Y020993D01*
X039734D01*
X039682Y021045D01*
Y021097D01*
X039734Y021150D01*
X039682Y021202D01*
Y021255D01*
X039734Y021150D02*
X039839D01*
X039285Y020359D02*
X039232Y020412D01*
X039127D01*
X039075Y020359D01*
Y020149D01*
X039127Y020097D01*
X039232D01*
X039285Y020149D01*
X039390Y020097D02*
X039495D01*
X039442D01*
Y020412D01*
X039390Y020359D01*
X039652Y020149D02*
X039705Y020097D01*
X039809D01*
X039862Y020149D01*
Y020359D01*
X039809Y020412D01*
X039705D01*
X039652Y020359D01*
Y020307D01*
X039705Y020254D01*
X039862D01*
X037503Y010513D02*
X037451Y010461D01*
Y010356D01*
X037503Y010304D01*
X037713D01*
X037766Y010356D01*
Y010461D01*
X037713Y010513D01*
X037451Y010828D02*
X037503Y010723D01*
X037608Y010618D01*
X037713D01*
X037766Y010671D01*
Y010776D01*
X037713Y010828D01*
X037661D01*
X037608Y010776D01*
Y010618D01*
X037503Y010933D02*
X037451Y010986D01*
Y011091D01*
X037503Y011143D01*
X037556D01*
X037608Y011091D01*
X037661Y011143D01*
X037713D01*
X037766Y011091D01*
Y010986D01*
X037713Y010933D01*
X037661D01*
X037608Y010986D01*
X037556Y010933D01*
X037503D01*
X037608Y010986D02*
Y011091D01*
X036671Y013841D02*
X036618Y013894D01*
X036513D01*
X036461Y013841D01*
Y013631D01*
X036513Y013579D01*
X036618D01*
X036671Y013631D01*
X036986Y013894D02*
X036881Y013841D01*
X036776Y013736D01*
Y013631D01*
X036828Y013579D01*
X036933D01*
X036986Y013631D01*
Y013684D01*
X036933Y013736D01*
X036776D01*
X037091Y013631D02*
X037143Y013579D01*
X037248D01*
X037301Y013631D01*
Y013841D01*
X037248Y013894D01*
X037143D01*
X037091Y013841D01*
Y013789D01*
X037143Y013736D01*
X037301D01*
X033025Y025635D02*
X032972Y025687D01*
X032867D01*
X032815Y025635D01*
Y025425D01*
X032867Y025372D01*
X032972D01*
X033025Y025425D01*
X033130Y025687D02*
X033340D01*
Y025635D01*
X033130Y025425D01*
Y025372D01*
X033445Y025635D02*
X033497Y025687D01*
X033602D01*
X033655Y025635D01*
Y025425D01*
X033602Y025372D01*
X033497D01*
X033445Y025425D01*
Y025635D01*
X032713Y024382D02*
X032766Y024329D01*
X032871D01*
X032923Y024382D01*
Y024592D01*
X032871Y024644D01*
X032766D01*
X032713Y024592D01*
X032608Y024329D02*
X032398D01*
Y024382D01*
X032608Y024592D01*
Y024644D01*
X032294D02*
X032189D01*
X032241D01*
Y024329D01*
X032294Y024382D01*
X032654Y023739D02*
X032864D01*
Y023896D01*
X032759D01*
X032864D01*
Y024054D01*
X032549Y023739D02*
Y024054D01*
X032392D01*
X032339Y024001D01*
Y023949D01*
X032392Y023896D01*
X032549D01*
X032392D01*
X032339Y023844D01*
Y023791D01*
X032392Y023739D01*
X032549D01*
X032234Y024054D02*
X032129D01*
X032182D01*
Y023739D01*
X032234Y023791D01*
X036657Y014359D02*
X036447D01*
Y014201D01*
X036552D01*
X036447D01*
Y014044D01*
X036762Y014359D02*
Y014044D01*
X036919D01*
X036972Y014096D01*
Y014149D01*
X036919Y014201D01*
X036762D01*
X036919D01*
X036972Y014254D01*
Y014306D01*
X036919Y014359D01*
X036762D01*
X037286Y014044D02*
X037077D01*
X037286Y014254D01*
Y014306D01*
X037234Y014359D01*
X037129D01*
X037077Y014306D01*
X040118Y026101D02*
Y025786D01*
X040328D01*
X040433D02*
X040538D01*
X040485D01*
Y026101D01*
X040433Y026048D01*
X033209Y013286D02*
Y013601D01*
X033366D01*
X033419Y013548D01*
Y013443D01*
X033366Y013391D01*
X033209D01*
X033314D02*
X033419Y013286D01*
X033733D02*
X033524D01*
X033733Y013496D01*
Y013548D01*
X033681Y013601D01*
X033576D01*
X033524Y013548D01*
X033996Y013286D02*
Y013601D01*
X033838Y013443D01*
X034048D01*
X032884Y025894D02*
Y026209D01*
X033041D01*
X033094Y026156D01*
Y026052D01*
X033041Y025999D01*
X032884D01*
X032989D02*
X033094Y025894D01*
X033409D02*
X033199D01*
X033409Y026104D01*
Y026156D01*
X033356Y026209D01*
X033251D01*
X033199Y026156D01*
X033723Y026209D02*
X033514D01*
Y026052D01*
X033619Y026104D01*
X033671D01*
X033723Y026052D01*
Y025947D01*
X033671Y025894D01*
X033566D01*
X033514Y025947D01*
X035354Y023433D02*
Y023748D01*
X035512D01*
X035564Y023696D01*
Y023591D01*
X035512Y023538D01*
X035354D01*
X035459D02*
X035564Y023433D01*
X035879D02*
X035669D01*
X035879Y023643D01*
Y023696D01*
X035827Y023748D01*
X035722D01*
X035669Y023696D01*
X036194Y023748D02*
X036089Y023696D01*
X035984Y023591D01*
Y023486D01*
X036037Y023433D01*
X036141D01*
X036194Y023486D01*
Y023538D01*
X036141Y023591D01*
X035984D01*
X035354Y023000D02*
Y023315D01*
X035512D01*
X035564Y023263D01*
Y023158D01*
X035512Y023105D01*
X035354D01*
X035459D02*
X035564Y023000D01*
X035879D02*
X035669D01*
X035879Y023210D01*
Y023263D01*
X035827Y023315D01*
X035722D01*
X035669Y023263D01*
X035984Y023315D02*
X036194D01*
Y023263D01*
X035984Y023053D01*
Y023000D01*
X039075Y015370D02*
Y015684D01*
X039233D01*
X039285Y015632D01*
Y015527D01*
X039233Y015475D01*
X039075D01*
X039180D02*
X039285Y015370D01*
X039600D02*
X039390D01*
X039600Y015580D01*
Y015632D01*
X039548Y015684D01*
X039443D01*
X039390Y015632D01*
X039075Y014939D02*
Y015254D01*
X039233D01*
X039285Y015202D01*
Y015097D01*
X039233Y015044D01*
X039075D01*
X039180D02*
X039285Y014939D01*
X039390Y015202D02*
X039443Y015254D01*
X039548D01*
X039600Y015202D01*
Y015149D01*
X039548Y015097D01*
X039495D01*
X039548D01*
X039600Y015044D01*
Y014992D01*
X039548Y014939D01*
X039443D01*
X039390Y014992D01*
X031499Y022803D02*
X031394D01*
X031447D01*
Y022541D01*
X031394Y022489D01*
X031342D01*
X031289Y022541D01*
X031762Y022489D02*
Y022803D01*
X031604Y022646D01*
X031814D01*
X042454Y022872D02*
X042349D01*
X042402D01*
Y022610D01*
X042349Y022557D01*
X042297D01*
X042244Y022610D01*
X042769Y022872D02*
X042559D01*
Y022715D01*
X042664Y022767D01*
X042716D01*
X042769Y022715D01*
Y022610D01*
X042716Y022557D01*
X042611D01*
X042559Y022610D01*
X031280Y011918D02*
Y011603D01*
X031437D01*
X031489Y011655D01*
Y011865D01*
X031437Y011918D01*
X031280D01*
X031804Y011603D02*
X031594D01*
X031804Y011813D01*
Y011865D01*
X031752Y011918D01*
X031647D01*
X031594Y011865D01*
X031489Y010727D02*
X031384D01*
X031437D01*
Y010464D01*
X031384Y010412D01*
X031332D01*
X031280Y010464D01*
X031594Y010674D02*
X031647Y010727D01*
X031752D01*
X031804Y010674D01*
Y010622D01*
X031752Y010569D01*
X031699D01*
X031752D01*
X031804Y010517D01*
Y010464D01*
X031752Y010412D01*
X031647D01*
X031594Y010464D01*
X042362Y012006D02*
X042677D01*
Y012216D01*
X042362Y012321D02*
X042677D01*
Y012479D01*
X042625Y012531D01*
X042415D01*
X042362Y012479D01*
Y012321D01*
X042677Y012846D02*
Y012636D01*
X042467Y012846D01*
X042415D01*
X042362Y012793D01*
Y012688D01*
X042415Y012636D01*
X042894Y012006D02*
X043209D01*
Y012216D01*
X042894Y012321D02*
X043209D01*
Y012479D01*
X043156Y012531D01*
X042946D01*
X042894Y012479D01*
Y012321D01*
X042946Y012636D02*
X042894Y012688D01*
Y012793D01*
X042946Y012846D01*
X042999D01*
X043051Y012793D01*
Y012741D01*
Y012793D01*
X043104Y012846D01*
X043156D01*
X043209Y012793D01*
Y012688D01*
X043156Y012636D01*
X043406Y012006D02*
X043720D01*
Y012216D01*
X043406Y012321D02*
X043720D01*
Y012479D01*
X043668Y012531D01*
X043458D01*
X043406Y012479D01*
Y012321D01*
X043720Y012793D02*
X043406D01*
X043563Y012636D01*
Y012846D01*
X042677Y013069D02*
X042362D01*
Y013227D01*
X042415Y013279D01*
X042520D01*
X042572Y013227D01*
Y013069D01*
Y013174D02*
X042677Y013279D01*
Y013594D02*
Y013384D01*
X042467Y013594D01*
X042415D01*
X042362Y013542D01*
Y013437D01*
X042415Y013384D01*
Y013699D02*
X042362Y013751D01*
Y013856D01*
X042415Y013909D01*
X042467D01*
X042520Y013856D01*
X042572Y013909D01*
X042625D01*
X042677Y013856D01*
Y013751D01*
X042625Y013699D01*
X042572D01*
X042520Y013751D01*
X042467Y013699D01*
X042415D01*
X042520Y013751D02*
Y013856D01*
X043209Y013069D02*
X042894D01*
Y013227D01*
X042946Y013279D01*
X043051D01*
X043104Y013227D01*
Y013069D01*
Y013174D02*
X043209Y013279D01*
Y013594D02*
Y013384D01*
X042999Y013594D01*
X042946D01*
X042894Y013542D01*
Y013437D01*
X042946Y013384D01*
X043156Y013699D02*
X043209Y013751D01*
Y013856D01*
X043156Y013909D01*
X042946D01*
X042894Y013856D01*
Y013751D01*
X042946Y013699D01*
X042999D01*
X043051Y013751D01*
Y013909D01*
X043720Y013069D02*
X043406D01*
Y013227D01*
X043458Y013279D01*
X043563D01*
X043616Y013227D01*
Y013069D01*
Y013174D02*
X043720Y013279D01*
X043458Y013384D02*
X043406Y013437D01*
Y013542D01*
X043458Y013594D01*
X043511D01*
X043563Y013542D01*
Y013489D01*
Y013542D01*
X043616Y013594D01*
X043668D01*
X043720Y013542D01*
Y013437D01*
X043668Y013384D01*
X043458Y013699D02*
X043406Y013751D01*
Y013856D01*
X043458Y013909D01*
X043668D01*
X043720Y013856D01*
Y013751D01*
X043668Y013699D01*
X043458D01*
X039862Y012183D02*
X040072D01*
X039967D01*
Y011868D01*
X040177D02*
X040282D01*
X040230D01*
Y012183D01*
X040177Y012131D01*
X041122Y012164D02*
X041332D01*
X041227D01*
Y011849D01*
X041647D02*
X041437D01*
X041647Y012059D01*
Y012111D01*
X041594Y012164D01*
X041489D01*
X041437Y012111D01*
X030650Y025550D02*
Y025760D01*
Y025655D01*
X030965D01*
Y025864D02*
X030650D01*
Y026022D01*
X030702Y026074D01*
X030807D01*
X030860Y026022D01*
Y025864D01*
X030965Y026179D02*
Y026284D01*
Y026232D01*
X030650D01*
X030702Y026179D01*
X030158Y025550D02*
Y025760D01*
Y025655D01*
X030472D01*
Y025864D02*
X030158D01*
Y026022D01*
X030210Y026074D01*
X030315D01*
X030367Y026022D01*
Y025864D01*
X030472Y026389D02*
Y026179D01*
X030263Y026389D01*
X030210D01*
X030158Y026337D01*
Y026232D01*
X030210Y026179D01*
X029665Y025550D02*
Y025760D01*
Y025655D01*
X029980D01*
Y025864D02*
X029665D01*
Y026022D01*
X029718Y026074D01*
X029823D01*
X029875Y026022D01*
Y025864D01*
X029718Y026179D02*
X029665Y026232D01*
Y026337D01*
X029718Y026389D01*
X029770D01*
X029823Y026337D01*
Y026284D01*
Y026337D01*
X029875Y026389D01*
X029928D01*
X029980Y026337D01*
Y026232D01*
X029928Y026179D01*
X029173Y025550D02*
Y025760D01*
Y025655D01*
X029488D01*
Y025864D02*
X029173D01*
Y026022D01*
X029226Y026074D01*
X029331D01*
X029383Y026022D01*
Y025864D01*
X029488Y026337D02*
X029173D01*
X029331Y026179D01*
Y026389D01*
X042588Y024667D02*
X042798D01*
X042693D01*
Y024352D01*
X042903D02*
Y024667D01*
X043061D01*
X043113Y024615D01*
Y024510D01*
X043061Y024457D01*
X042903D01*
X043218Y024352D02*
X043323D01*
X043271D01*
Y024667D01*
X043218Y024615D01*
X043480D02*
X043533Y024667D01*
X043638D01*
X043690Y024615D01*
Y024562D01*
X043638Y024510D01*
X043585D01*
X043638D01*
X043690Y024457D01*
Y024405D01*
X043638Y024352D01*
X043533D01*
X043480Y024405D01*
X038835Y013836D02*
X039045D01*
X038940D01*
Y013521D01*
X039150D02*
Y013836D01*
X039307D01*
X039360Y013783D01*
Y013678D01*
X039307Y013626D01*
X039150D01*
X039465Y013521D02*
X039570D01*
X039517D01*
Y013836D01*
X039465Y013783D01*
X039884Y013521D02*
Y013836D01*
X039727Y013678D01*
X039937D01*
X043032Y020766D02*
Y020976D01*
Y020871D01*
X043346D01*
Y021081D02*
X043032D01*
Y021238D01*
X043084Y021291D01*
X043189D01*
X043242Y021238D01*
Y021081D01*
X043346Y021396D02*
Y021501D01*
Y021448D01*
X043032D01*
X043084Y021396D01*
X043032Y021868D02*
Y021658D01*
X043189D01*
X043137Y021763D01*
Y021816D01*
X043189Y021868D01*
X043294D01*
X043346Y021816D01*
Y021711D01*
X043294Y021658D01*
X030189Y023921D02*
X030137Y023868D01*
Y023763D01*
X030189Y023711D01*
X030242D01*
X030294Y023763D01*
Y023868D01*
X030347Y023921D01*
X030399D01*
X030452Y023868D01*
Y023763D01*
X030399Y023711D01*
X030189Y024235D02*
X030137Y024183D01*
Y024078D01*
X030189Y024025D01*
X030399D01*
X030452Y024078D01*
Y024183D01*
X030399Y024235D01*
X030137Y024340D02*
X030452D01*
Y024550D01*
X030137Y024655D02*
X030452D01*
X030347D01*
X030137Y024865D01*
X030294Y024708D01*
X030452Y024865D01*
X029416Y023711D02*
X029101D01*
X029206Y023816D01*
X029101Y023921D01*
X029416D01*
X029101Y024025D02*
Y024130D01*
Y024078D01*
X029416D01*
Y024025D01*
Y024130D01*
X029153Y024498D02*
X029101Y024445D01*
Y024340D01*
X029153Y024288D01*
X029206D01*
X029258Y024340D01*
Y024445D01*
X029311Y024498D01*
X029363D01*
X029416Y024445D01*
Y024340D01*
X029363Y024288D01*
X029101Y024760D02*
Y024655D01*
X029153Y024603D01*
X029363D01*
X029416Y024655D01*
Y024760D01*
X029363Y024813D01*
X029153D01*
X029101Y024760D01*
X029934Y023711D02*
X029619D01*
X029724Y023816D01*
X029619Y023921D01*
X029934D01*
X029619Y024183D02*
Y024078D01*
X029671Y024025D01*
X029881D01*
X029934Y024078D01*
Y024183D01*
X029881Y024235D01*
X029671D01*
X029619Y024183D01*
X029671Y024550D02*
X029619Y024498D01*
Y024393D01*
X029671Y024340D01*
X029724D01*
X029776Y024393D01*
Y024498D01*
X029829Y024550D01*
X029881D01*
X029934Y024498D01*
Y024393D01*
X029881Y024340D01*
X029619Y024655D02*
Y024760D01*
Y024708D01*
X029934D01*
Y024655D01*
Y024760D01*
X030707Y023921D02*
X030655Y023868D01*
Y023763D01*
X030707Y023711D01*
X030917D01*
X030970Y023763D01*
Y023868D01*
X030917Y023921D01*
X030707Y024235D02*
X030655Y024183D01*
Y024078D01*
X030707Y024025D01*
X030760D01*
X030812Y024078D01*
Y024183D01*
X030865Y024235D01*
X030917D01*
X030970Y024183D01*
Y024078D01*
X030917Y024025D01*
D73*
X026535Y011161D02*
Y025354D01*
X027323Y011161D02*
Y025354D01*
X022060Y023290D02*
X022027Y023323D01*
X021962D01*
X021929Y023290D01*
Y023159D01*
X021962Y023126D01*
X022027D01*
X022060Y023159D01*
X022159Y023126D02*
X022224D01*
X022257Y023159D01*
Y023224D01*
X022224Y023257D01*
X022159D01*
X022126Y023224D01*
Y023159D01*
X022159Y023126D01*
X022355Y023257D02*
X022421D01*
X022454Y023224D01*
Y023126D01*
X022355D01*
X022323Y023159D01*
X022355Y023191D01*
X022454D01*
X022519Y023323D02*
X022651Y023126D01*
Y023323D02*
X022519Y023126D01*
X021831Y022795D02*
Y022992D01*
X021929D01*
X021962Y022959D01*
Y022894D01*
X021929Y022861D01*
X021831D01*
X022027Y022926D02*
Y022795D01*
Y022861D01*
X022060Y022894D01*
X022093Y022926D01*
X022126D01*
X022323Y022795D02*
X022257D01*
X022224Y022828D01*
Y022894D01*
X022257Y022926D01*
X022323D01*
X022355Y022894D01*
Y022861D01*
X022224D01*
X022421Y022795D02*
X022519D01*
X022552Y022828D01*
X022519Y022861D01*
X022454D01*
X022421Y022894D01*
X022454Y022926D01*
X022552D01*
X022618Y022795D02*
X022716D01*
X022749Y022828D01*
X022716Y022861D01*
X022651D01*
X022618Y022894D01*
X022651Y022926D01*
X022749D01*
X019646Y025079D02*
Y024915D01*
X019678Y024882D01*
X019744D01*
X019777Y024915D01*
Y025079D01*
X019842Y024882D02*
Y025013D01*
X019908Y025079D01*
X019974Y025013D01*
Y024882D01*
Y024980D01*
X019842D01*
X020039Y024882D02*
Y025079D01*
X020138D01*
X020170Y025046D01*
Y024980D01*
X020138Y024947D01*
X020039D01*
X020105D02*
X020170Y024882D01*
X020236Y025079D02*
X020367D01*
X020302D01*
Y024882D01*
X011909Y015640D02*
X011713D01*
Y015738D01*
X011745Y015771D01*
X011811D01*
X011844Y015738D01*
Y015640D01*
X011713Y015837D02*
X011909D01*
X011844Y015902D01*
X011909Y015968D01*
X011713D01*
X011909Y016033D02*
X011713D01*
Y016132D01*
X011745Y016165D01*
X011811D01*
X011844Y016132D01*
Y016033D01*
Y016099D02*
X011909Y016165D01*
X011942Y016230D02*
Y016361D01*
X011745Y016558D02*
X011713Y016525D01*
Y016460D01*
X011745Y016427D01*
X011877D01*
X011909Y016460D01*
Y016525D01*
X011877Y016558D01*
X011811D01*
Y016493D01*
X011713Y016722D02*
Y016656D01*
X011745Y016624D01*
X011877D01*
X011909Y016656D01*
Y016722D01*
X011877Y016755D01*
X011745D01*
X011713Y016722D01*
Y016919D02*
Y016853D01*
X011745Y016820D01*
X011877D01*
X011909Y016853D01*
Y016919D01*
X011877Y016952D01*
X011745D01*
X011713Y016919D01*
Y017017D02*
X011909D01*
Y017116D01*
X011877Y017148D01*
X011745D01*
X011713Y017116D01*
Y017017D01*
X023957Y011243D02*
Y011178D01*
Y011211D01*
X024121D01*
X024154Y011178D01*
Y011145D01*
X024121Y011112D01*
X023957Y011309D02*
Y011440D01*
Y011375D01*
X024154D01*
Y011506D02*
X024022D01*
X023957Y011571D01*
X024022Y011637D01*
X024154D01*
X024055D01*
Y011506D01*
X023990Y011834D02*
X023957Y011801D01*
Y011735D01*
X023990Y011703D01*
X024121D01*
X024154Y011735D01*
Y011801D01*
X024121Y011834D01*
X024055D01*
Y011768D01*
X023022Y010108D02*
Y010239D01*
Y010174D01*
X023219D01*
X023022Y010403D02*
Y010338D01*
X023055Y010305D01*
X023186D01*
X023219Y010338D01*
Y010403D01*
X023186Y010436D01*
X023055D01*
X023022Y010403D01*
X023219Y010502D02*
X023022D01*
Y010600D01*
X023055Y010633D01*
X023120D01*
X023153Y010600D01*
Y010502D01*
X020920Y014893D02*
X020887Y014926D01*
X020822D01*
X020789Y014893D01*
Y014860D01*
X020822Y014827D01*
X020887D01*
X020920Y014795D01*
Y014762D01*
X020887Y014729D01*
X020822D01*
X020789Y014762D01*
X020986Y014729D02*
Y014926D01*
X021084D01*
X021117Y014893D01*
Y014827D01*
X021084Y014795D01*
X020986D01*
X021314Y014926D02*
X021183D01*
Y014729D01*
X021314D01*
X021183Y014827D02*
X021248D01*
X021379Y014926D02*
Y014729D01*
Y014795D01*
X021511Y014926D01*
X021412Y014827D01*
X021511Y014729D01*
X021576Y014926D02*
X021707D01*
X021642D01*
Y014729D01*
X021773D02*
Y014926D01*
X021871D01*
X021904Y014893D01*
Y014827D01*
X021871Y014795D01*
X021773D01*
X021839D02*
X021904Y014729D01*
X022068Y014926D02*
X022003D01*
X021970Y014893D01*
Y014762D01*
X022003Y014729D01*
X022068D01*
X022101Y014762D01*
Y014893D01*
X022068Y014926D01*
X022167Y014729D02*
Y014926D01*
X022265D01*
X022298Y014893D01*
Y014827D01*
X022265Y014795D01*
X022167D01*
X022494Y014729D02*
X022363D01*
X022494Y014860D01*
Y014893D01*
X022462Y014926D01*
X022396D01*
X022363Y014893D01*
X021824Y011788D02*
X021791Y011821D01*
X021726D01*
X021693Y011788D01*
Y011755D01*
X021726Y011722D01*
X021791D01*
X021824Y011690D01*
Y011657D01*
X021791Y011624D01*
X021726D01*
X021693Y011657D01*
X021890Y011624D02*
Y011821D01*
X021988D01*
X022021Y011788D01*
Y011722D01*
X021988Y011690D01*
X021890D01*
X021955D02*
X022021Y011624D01*
X022218Y011788D02*
X022185Y011821D01*
X022119D01*
X022086Y011788D01*
Y011755D01*
X022119Y011722D01*
X022185D01*
X022218Y011690D01*
Y011657D01*
X022185Y011624D01*
X022119D01*
X022086Y011657D01*
X022283Y011821D02*
X022414D01*
X022349D01*
Y011624D01*
X016811Y011703D02*
Y011900D01*
X016909D01*
X016942Y011867D01*
Y011801D01*
X016909Y011768D01*
X016811D01*
X017008Y011703D02*
Y011900D01*
X017106D01*
X017139Y011867D01*
Y011801D01*
X017106Y011768D01*
X017008D01*
X017073D02*
X017139Y011703D01*
X017303Y011900D02*
X017237D01*
X017205Y011867D01*
Y011736D01*
X017237Y011703D01*
X017303D01*
X017336Y011736D01*
Y011867D01*
X017303Y011900D01*
X017533Y011867D02*
X017500Y011900D01*
X017434D01*
X017401Y011867D01*
Y011736D01*
X017434Y011703D01*
X017500D01*
X017533Y011736D01*
Y011801D01*
X017467D01*
X017598Y011670D02*
X017729D01*
X017795Y011900D02*
Y011703D01*
X017893D01*
X017926Y011736D01*
Y011768D01*
X017893Y011801D01*
X017795D01*
X017893D01*
X017926Y011834D01*
Y011867D01*
X017893Y011900D01*
X017795D01*
X015974Y012146D02*
Y012342D01*
X016073D01*
X016106Y012310D01*
Y012244D01*
X016073Y012211D01*
X015974D01*
X016171Y012146D02*
X016237D01*
X016204D01*
Y012342D01*
X016171Y012310D01*
X016335Y012342D02*
Y012211D01*
X016401Y012146D01*
X016466Y012211D01*
Y012342D01*
X016532Y012310D02*
X016565Y012342D01*
X016630D01*
X016663Y012310D01*
Y012178D01*
X016630Y012146D01*
X016565D01*
X016532Y012178D01*
Y012310D01*
X014278Y013914D02*
X014082D01*
Y014013D01*
X014114Y014045D01*
X014180D01*
X014213Y014013D01*
Y013914D01*
X014278Y014111D02*
Y014177D01*
Y014144D01*
X014082D01*
X014114Y014111D01*
X014082Y014275D02*
X014213D01*
X014278Y014341D01*
X014213Y014406D01*
X014082D01*
X014278Y014603D02*
Y014472D01*
X014147Y014603D01*
X014114D01*
X014082Y014570D01*
Y014505D01*
X014114Y014472D01*
X021004Y012500D02*
X020807D01*
Y012598D01*
X020840Y012631D01*
X020906D01*
X020938Y012598D01*
Y012500D01*
X021004Y012697D02*
Y012762D01*
Y012730D01*
X020807D01*
X020840Y012697D01*
X020807Y012861D02*
X020938D01*
X021004Y012926D01*
X020938Y012992D01*
X020807D01*
X020840Y013058D02*
X020807Y013090D01*
Y013156D01*
X020840Y013189D01*
X020873D01*
X020906Y013156D01*
X020938Y013189D01*
X020971D01*
X021004Y013156D01*
Y013090D01*
X020971Y013058D01*
X020938D01*
X020906Y013090D01*
X020873Y013058D01*
X020840D01*
X020906Y013090D02*
Y013156D01*
X022657Y015689D02*
X022461D01*
Y015787D01*
X022493Y015820D01*
X022559D01*
X022592Y015787D01*
Y015689D01*
X022493Y015886D02*
X022461Y015919D01*
Y015984D01*
X022493Y016017D01*
X022526D01*
X022559Y015984D01*
Y015951D01*
Y015984D01*
X022592Y016017D01*
X022625D01*
X022657Y015984D01*
Y015919D01*
X022625Y015886D01*
X022461Y016083D02*
X022592D01*
X022657Y016148D01*
X022592Y016214D01*
X022461D01*
X022493Y016279D02*
X022461Y016312D01*
Y016378D01*
X022493Y016411D01*
X022526D01*
X022559Y016378D01*
Y016345D01*
Y016378D01*
X022592Y016411D01*
X022625D01*
X022657Y016378D01*
Y016312D01*
X022625Y016279D01*
X014017Y010333D02*
X013820D01*
Y010432D01*
X013853Y010465D01*
X013919D01*
X013951Y010432D01*
Y010333D01*
X014017Y010530D02*
Y010596D01*
Y010563D01*
X013820D01*
X013853Y010530D01*
X014017Y010825D02*
Y010694D01*
X013886Y010825D01*
X013853D01*
X013820Y010793D01*
Y010727D01*
X013853Y010694D01*
X013820Y010891D02*
X013951D01*
X014017Y010957D01*
X013951Y011022D01*
X013820D01*
X013853Y011088D02*
X013820Y011121D01*
Y011186D01*
X013853Y011219D01*
X013984D01*
X014017Y011186D01*
Y011121D01*
X013984Y011088D01*
X013853D01*
X010600Y022943D02*
Y022746D01*
X010732D01*
X010928Y022943D02*
X010797D01*
Y022746D01*
X010928D01*
X010797Y022844D02*
X010863D01*
X010994Y022943D02*
Y022746D01*
X011092D01*
X011125Y022779D01*
Y022910D01*
X011092Y022943D01*
X010994D01*
X011191Y022910D02*
X011224Y022943D01*
X011289D01*
X011322Y022910D01*
Y022779D01*
X011289Y022746D01*
X011224D01*
X011191Y022779D01*
Y022910D01*
X010177Y023258D02*
Y023061D01*
X010308D01*
X010505Y023258D02*
X010374D01*
Y023061D01*
X010505D01*
X010374Y023159D02*
X010440D01*
X010571Y023258D02*
Y023061D01*
X010669D01*
X010702Y023094D01*
Y023225D01*
X010669Y023258D01*
X010571D01*
X010768Y023061D02*
X010833D01*
X010800D01*
Y023258D01*
X010768Y023225D01*
X020789Y014430D02*
Y014627D01*
X020887D01*
X020920Y014594D01*
Y014528D01*
X020887Y014496D01*
X020789D01*
X020986Y014430D02*
Y014627D01*
X021084D01*
X021117Y014594D01*
Y014528D01*
X021084Y014496D01*
X020986D01*
X021051D02*
X021117Y014430D01*
X021281Y014627D02*
X021215D01*
X021183Y014594D01*
Y014463D01*
X021215Y014430D01*
X021281D01*
X021314Y014463D01*
Y014594D01*
X021281Y014627D01*
X021511Y014594D02*
X021478Y014627D01*
X021412D01*
X021379Y014594D01*
Y014463D01*
X021412Y014430D01*
X021478D01*
X021511Y014463D01*
X021576Y014397D02*
X021707D01*
X021773Y014627D02*
Y014430D01*
X021871D01*
X021904Y014463D01*
Y014496D01*
X021871Y014528D01*
X021773D01*
X021871D01*
X021904Y014561D01*
Y014594D01*
X021871Y014627D01*
X021773D01*
X021970Y014430D02*
Y014627D01*
X022068D01*
X022101Y014594D01*
Y014528D01*
X022068Y014496D01*
X021970D01*
X022035D02*
X022101Y014430D01*
X022167Y014627D02*
Y014430D01*
X022265D01*
X022298Y014463D01*
Y014594D01*
X022265Y014627D01*
X022167D01*
X022363Y014397D02*
X022494D01*
X022560Y014627D02*
Y014496D01*
X022626Y014430D01*
X022691Y014496D01*
Y014627D01*
X022757Y014430D02*
X022822D01*
X022790D01*
Y014627D01*
X022757Y014594D01*
X020920Y014065D02*
X020789D01*
X020920Y014196D01*
Y014229D01*
X020887Y014262D01*
X020822D01*
X020789Y014229D01*
X021117Y014262D02*
X020986D01*
Y014164D01*
X021051Y014196D01*
X021084D01*
X021117Y014164D01*
Y014098D01*
X021084Y014065D01*
X021019D01*
X020986Y014098D01*
X021183Y014065D02*
X021314Y014196D01*
X021379Y014229D02*
X021412Y014262D01*
X021478D01*
X021511Y014229D01*
Y014098D01*
X021478Y014065D01*
X021412D01*
X021379Y014098D01*
Y014229D01*
X021576Y014065D02*
X021642D01*
X021609D01*
Y014262D01*
X021576Y014229D01*
X021740Y014065D02*
X021871Y014196D01*
X022068Y014065D02*
X021937D01*
X022068Y014196D01*
Y014229D01*
X022035Y014262D01*
X021970D01*
X021937Y014229D01*
X022134D02*
X022167Y014262D01*
X022232D01*
X022265Y014229D01*
Y014098D01*
X022232Y014065D01*
X022167D01*
X022134Y014098D01*
Y014229D01*
X022331Y014065D02*
X022396D01*
X022363D01*
Y014262D01*
X022331Y014229D01*
X022494D02*
X022527Y014262D01*
X022593D01*
X022626Y014229D01*
Y014196D01*
X022593Y014164D01*
X022626Y014131D01*
Y014098D01*
X022593Y014065D01*
X022527D01*
X022494Y014098D01*
Y014131D01*
X022527Y014164D01*
X022494Y014196D01*
Y014229D01*
X022527Y014164D02*
X022593D01*
X023957Y010236D02*
X024154D01*
Y010335D01*
X024121Y010367D01*
X024088D01*
X024055Y010335D01*
Y010236D01*
Y010335D01*
X024022Y010367D01*
X023990D01*
X023957Y010335D01*
Y010236D01*
Y010531D02*
Y010466D01*
X023990Y010433D01*
X024121D01*
X024154Y010466D01*
Y010531D01*
X024121Y010564D01*
X023990D01*
X023957Y010531D01*
Y010728D02*
Y010663D01*
X023990Y010630D01*
X024121D01*
X024154Y010663D01*
Y010728D01*
X024121Y010761D01*
X023990D01*
X023957Y010728D01*
Y010827D02*
Y010958D01*
Y010892D01*
X024154D01*
X020906Y024872D02*
X021102D01*
Y024774D01*
X021070Y024741D01*
X021004D01*
X020971Y024774D01*
Y024872D01*
Y024806D02*
X020906Y024741D01*
X021102Y024675D02*
X020906Y024544D01*
X021102D02*
X020906Y024675D01*
X021070Y024478D02*
X021102Y024446D01*
Y024380D01*
X021070Y024347D01*
X020938D01*
X020906Y024380D01*
Y024446D01*
X020938Y024478D01*
X021070D01*
X020728Y024872D02*
Y024741D01*
Y024806D01*
X020531D01*
X020728Y024675D02*
X020531Y024544D01*
X020728D02*
X020531Y024675D01*
X020695Y024478D02*
X020728Y024446D01*
Y024380D01*
X020695Y024347D01*
X020564D01*
X020531Y024380D01*
Y024446D01*
X020564Y024478D01*
X020695D01*
X018947Y024872D02*
X019144D01*
Y024774D01*
X019111Y024741D01*
X019045D01*
X019012Y024774D01*
Y024872D01*
Y024806D02*
X018947Y024741D01*
X019144Y024675D02*
X018947Y024544D01*
X019144D02*
X018947Y024675D01*
Y024478D02*
Y024413D01*
Y024446D01*
X019144D01*
X019111Y024478D01*
X019518Y024872D02*
Y024741D01*
Y024806D01*
X019321D01*
X019518Y024675D02*
X019321Y024544D01*
X019518D02*
X019321Y024675D01*
Y024478D02*
Y024413D01*
Y024446D01*
X019518D01*
X019485Y024478D01*
X013773Y023146D02*
X013740Y023179D01*
X013675D01*
X013642Y023146D01*
Y023113D01*
X013675Y023081D01*
X013740D01*
X013773Y023048D01*
Y023015D01*
X013740Y022982D01*
X013675D01*
X013642Y023015D01*
X013839Y023179D02*
Y022982D01*
X013937D01*
X013970Y023015D01*
Y023146D01*
X013937Y023179D01*
X013839D01*
X014035D02*
X014101D01*
X014068D01*
Y022982D01*
X014035D01*
X014101D01*
X013612Y011457D02*
X013415D01*
Y011555D01*
X013448Y011588D01*
X013514D01*
X013547Y011555D01*
Y011457D01*
X013415Y011653D02*
X013612D01*
X013547Y011719D01*
X013612Y011785D01*
X013415D01*
X013612Y011850D02*
X013415D01*
Y011949D01*
X013448Y011981D01*
X013514D01*
X013547Y011949D01*
Y011850D01*
Y011916D02*
X013612Y011981D01*
X010968Y017431D02*
X010902D01*
X010935D01*
Y017267D01*
X010902Y017234D01*
X010869D01*
X010837Y017267D01*
X011033Y017431D02*
X011165D01*
X011099D01*
Y017234D01*
X011230D02*
Y017365D01*
X011296Y017431D01*
X011361Y017365D01*
Y017234D01*
Y017333D01*
X011230D01*
X011558Y017398D02*
X011525Y017431D01*
X011460D01*
X011427Y017398D01*
Y017267D01*
X011460Y017234D01*
X011525D01*
X011558Y017267D01*
Y017333D01*
X011493D01*
X024715Y015413D02*
X024518D01*
Y015512D01*
X024551Y015545D01*
X024616D01*
X024649Y015512D01*
Y015413D01*
Y015479D02*
X024715Y015545D01*
X024551Y015741D02*
X024518Y015709D01*
Y015643D01*
X024551Y015610D01*
X024583D01*
X024616Y015643D01*
Y015709D01*
X024649Y015741D01*
X024682D01*
X024715Y015709D01*
Y015643D01*
X024682Y015610D01*
X024715Y015905D02*
X024518D01*
X024616Y015807D01*
Y015938D01*
X024551Y016004D02*
X024518Y016037D01*
Y016102D01*
X024551Y016135D01*
X024583D01*
X024616Y016102D01*
X024649Y016135D01*
X024682D01*
X024715Y016102D01*
Y016037D01*
X024682Y016004D01*
X024649D01*
X024616Y016037D01*
X024583Y016004D01*
X024551D01*
X024616Y016037D02*
Y016102D01*
X024518Y016332D02*
Y016201D01*
X024616D01*
X024583Y016266D01*
Y016299D01*
X024616Y016332D01*
X024682D01*
X024715Y016299D01*
Y016233D01*
X024682Y016201D01*
X023783Y022858D02*
X023750Y022825D01*
Y022759D01*
X023783Y022726D01*
X023816D01*
X023848Y022759D01*
Y022825D01*
X023881Y022858D01*
X023914D01*
X023947Y022825D01*
Y022759D01*
X023914Y022726D01*
X023947Y022923D02*
X023816D01*
X023750Y022989D01*
X023816Y023054D01*
X023947D01*
X023848D01*
Y022923D01*
X023750Y023120D02*
Y023251D01*
Y023186D01*
X023947D01*
Y023317D02*
X023816D01*
X023750Y023382D01*
X023816Y023448D01*
X023947D01*
X023848D01*
Y023317D01*
X029813Y012430D02*
Y012626D01*
X029911D01*
X029944Y012594D01*
Y012528D01*
X029911Y012495D01*
X029813D01*
X030010Y012626D02*
Y012430D01*
X030075Y012495D01*
X030141Y012430D01*
Y012626D01*
X030207Y012430D02*
Y012626D01*
X030305D01*
X030338Y012594D01*
Y012528D01*
X030305Y012495D01*
X030207D01*
X030272D02*
X030338Y012430D01*
X027805Y011987D02*
X027936D01*
X027871D01*
Y011790D01*
X028100Y011987D02*
X028035D01*
X028002Y011954D01*
Y011823D01*
X028035Y011790D01*
X028100D01*
X028133Y011823D01*
Y011954D01*
X028100Y011987D01*
X028199Y011790D02*
Y011987D01*
X028297D01*
X028330Y011954D01*
Y011888D01*
X028297Y011855D01*
X028199D01*
D79*
X010157Y011496D02*
X010177D01*
X024400Y017382D02*
X024409D01*
D128*
X030305Y011809D02*
D03*
M02*
