G04 Layer_Physical_Order=2*
G04 Layer_Color=32768*
%FSAX24Y24*%
%MOIN*%
G70*
G01*
G75*
%ADD79C,0.0100*%
%ADD91C,0.0315*%
%ADD93C,0.0400*%
%ADD94C,0.0070*%
%ADD95R,1.0381X0.2000*%
%ADD96R,0.2000X0.2000*%
%ADD97C,0.0374*%
%ADD98C,0.0413*%
%ADD99C,0.0453*%
%ADD100C,0.0768*%
%ADD101C,0.0669*%
%ADD102C,0.1083*%
%ADD103C,0.0354*%
%ADD104C,0.0295*%
%ADD105C,0.0236*%
%ADD106C,0.0177*%
G36*
X018632Y023100D02*
X017854D01*
Y024006D01*
X018632D01*
Y023100D01*
D02*
G37*
G36*
X027323Y010000D02*
X026535D01*
Y026535D01*
X027323D01*
Y010000D01*
D02*
G37*
G36*
X015118Y025059D02*
X015709Y025059D01*
Y024567D01*
X015217D01*
Y023681D01*
X012067D01*
Y026339D01*
X015118D01*
Y025059D01*
D02*
G37*
G36*
X020541Y024980D02*
X020541Y024390D01*
X019557Y024390D01*
X019557Y024980D01*
X020541Y024980D01*
D02*
G37*
G36*
X024415Y024118D02*
X022240D01*
X021890Y024469D01*
X021447D01*
X021447Y025020D01*
X021878Y025020D01*
X022175Y025295D01*
Y026205D01*
X022387Y026417D01*
X023076D01*
X024415Y026417D01*
X024415Y024118D01*
D02*
G37*
D79*
X011260Y023071D02*
X011565Y023376D01*
X012746D01*
X013032Y023091D01*
X011260Y021850D02*
X011447Y021663D01*
X011260Y021850D02*
Y023071D01*
X011447Y021663D02*
X012933D01*
X013032Y021762D01*
Y023091D01*
X081553Y020431D02*
Y020479D01*
X081601Y020574D01*
X081648Y020621D01*
X081743Y020669D01*
X081934D01*
X082029Y020621D01*
X082077Y020574D01*
X082124Y020479D01*
Y020383D01*
X082077Y020288D01*
X081981Y020145D01*
X081505Y019669D01*
X082172D01*
D91*
X012264Y010492D02*
D03*
X020984Y026033D02*
D03*
X020492D02*
D03*
X020000D02*
D03*
X019508D02*
D03*
X030266Y010806D02*
D03*
D93*
X010000Y010787D02*
G03*
X010787Y010000I000787J-000000D01*
G01*
X010797Y026535D02*
G03*
X010000Y025738I-000000J-000797D01*
G01*
X026535Y025748D02*
G03*
X025748Y026535I-000787J000000D01*
G01*
X028110Y026535D02*
G03*
X027323Y025748I-000000J-000787D01*
G01*
X043858Y025748D02*
G03*
X043081Y026535I-000782J000005D01*
G01*
X043071Y010000D02*
G03*
X043858Y010787I000000J000787D01*
G01*
X027323Y010787D02*
G03*
X028110Y010000I000787J-000000D01*
G01*
X025748Y010000D02*
G03*
X026535Y010787I000000J000787D01*
G01*
Y010787D01*
X027323D01*
Y010787D02*
Y010787D01*
X028110Y010000D02*
X043071D01*
X043858Y025748D02*
X043858Y010787D01*
X043071Y026535D02*
X043081Y026535D01*
X028110D02*
X043071Y026535D01*
X026535Y025748D02*
X027323D01*
X010797Y026535D02*
X025748Y026535D01*
X010000Y010787D02*
X010000Y025738D01*
X010787Y010000D02*
X025748D01*
D94*
X081288Y022200D02*
X081818Y021669D01*
X082121Y021972D01*
X081750Y022460D02*
X081775Y022535D01*
Y022687D01*
X082305Y022157D01*
X082341Y022646D02*
X082795Y023101D01*
X083154Y023813D02*
X083078Y023838D01*
X082977Y023838D01*
X082901Y023813D01*
X082800Y023712D01*
X082775Y023636D01*
Y023535D01*
X082800Y023459D01*
X082851Y023358D01*
X082977Y023232D01*
X083078Y023182D01*
X083154Y023156D01*
X083255Y023156D01*
X083330Y023182D01*
X083431Y023283D01*
X083457Y023358D01*
Y023459D01*
X083431Y023535D01*
X083356Y023611D01*
X083229Y023485D02*
X083356Y023611D01*
X083149Y024060D02*
X083679Y023530D01*
X083149Y024060D02*
X084032Y023884D01*
X083502Y024414D02*
X084032Y023884D01*
X083648Y024560D02*
X084179Y024030D01*
X083648Y024560D02*
X083825Y024737D01*
X083926Y024787D01*
X084027D01*
X084103Y024762D01*
X084204Y024712D01*
X084330Y024585D01*
X084381Y024484D01*
X084406Y024409D01*
Y024308D01*
X084355Y024207D01*
X084179Y024030D01*
D95*
X088008Y020169D02*
D03*
D96*
X079818D02*
D03*
D97*
X025354Y015213D02*
D03*
X026142Y014819D02*
D03*
X025354Y014426D02*
D03*
X026142Y014032D02*
D03*
D98*
X024656Y011240D02*
D03*
Y010453D02*
D03*
X013268Y024970D02*
D03*
D99*
X023415Y025118D02*
D03*
D100*
X014268Y025970D02*
D03*
D101*
X024331Y022953D02*
D03*
Y013583D02*
D03*
X013307Y022953D02*
D03*
Y013583D02*
D03*
X030472Y022912D02*
D03*
X030472Y013620D02*
D03*
X041496Y022912D02*
D03*
X041496Y013620D02*
D03*
D102*
X010787Y010787D02*
D03*
X025748D02*
D03*
Y025748D02*
D03*
X010787D02*
D03*
X028110Y025746D02*
D03*
X043071D02*
D03*
Y010786D02*
D03*
X028110D02*
D03*
D103*
X035175Y017056D02*
D03*
Y018556D02*
D03*
Y019056D02*
D03*
X034175Y020556D02*
D03*
Y021056D02*
D03*
X034675Y020556D02*
D03*
X035175Y017556D02*
D03*
Y018056D02*
D03*
X034675Y017056D02*
D03*
Y017556D02*
D03*
X033675Y017056D02*
D03*
Y017556D02*
D03*
X034175Y018056D02*
D03*
Y019056D02*
D03*
X034675Y016056D02*
D03*
Y016556D02*
D03*
X035175D02*
D03*
Y015556D02*
D03*
Y016056D02*
D03*
X033675D02*
D03*
Y016556D02*
D03*
Y019056D02*
D03*
X034175Y015556D02*
D03*
Y016056D02*
D03*
Y016556D02*
D03*
Y017056D02*
D03*
Y017556D02*
D03*
Y018556D02*
D03*
Y019556D02*
D03*
Y020056D02*
D03*
X034675Y019056D02*
D03*
Y019556D02*
D03*
Y020056D02*
D03*
X035175Y019556D02*
D03*
Y020056D02*
D03*
X033675Y019556D02*
D03*
Y020556D02*
D03*
Y020056D02*
D03*
D104*
X037175Y020556D02*
D03*
Y020056D02*
D03*
Y019556D02*
D03*
Y019056D02*
D03*
Y018056D02*
D03*
Y017556D02*
D03*
Y017056D02*
D03*
Y016556D02*
D03*
Y016056D02*
D03*
X033675Y018556D02*
D03*
X034675D02*
D03*
X035175Y020556D02*
D03*
Y021056D02*
D03*
X035675Y015556D02*
D03*
Y016056D02*
D03*
Y017056D02*
D03*
Y018056D02*
D03*
Y018556D02*
D03*
Y019056D02*
D03*
Y020056D02*
D03*
Y020556D02*
D03*
Y021056D02*
D03*
X036175Y016056D02*
D03*
Y016556D02*
D03*
Y017056D02*
D03*
Y017556D02*
D03*
Y018056D02*
D03*
Y018556D02*
D03*
Y019056D02*
D03*
Y019556D02*
D03*
Y020056D02*
D03*
Y020556D02*
D03*
X036675Y015556D02*
D03*
Y016056D02*
D03*
Y016556D02*
D03*
Y017056D02*
D03*
Y017556D02*
D03*
Y018056D02*
D03*
Y018556D02*
D03*
Y019056D02*
D03*
Y019556D02*
D03*
Y020056D02*
D03*
Y020556D02*
D03*
Y021056D02*
D03*
X037175Y015556D02*
D03*
Y021056D02*
D03*
D105*
X011526Y014818D02*
D03*
Y015025D02*
D03*
X014692Y018061D02*
D03*
X014485D02*
D03*
X014692Y017249D02*
D03*
X014485D02*
D03*
X016978Y023269D02*
D03*
X025945Y019265D02*
D03*
Y019471D02*
D03*
X022025Y021870D02*
D03*
X022232D02*
D03*
X016978Y023062D02*
D03*
X021102Y022047D02*
D03*
Y022362D02*
D03*
X022056Y019370D02*
D03*
X021850D02*
D03*
X019801Y023481D02*
D03*
Y023688D02*
D03*
X018885Y023481D02*
D03*
Y023688D02*
D03*
X018354Y023061D02*
D03*
X018147D02*
D03*
X012717Y014488D02*
D03*
X012510D02*
D03*
X010650Y017559D02*
D03*
Y017766D02*
D03*
X025000Y017377D02*
D03*
Y017584D02*
D03*
X010433Y019257D02*
D03*
Y019464D02*
D03*
X021732Y015748D02*
D03*
X021417Y015748D02*
D03*
X021732Y015069D02*
D03*
Y015276D02*
D03*
X025157Y016196D02*
D03*
Y016403D02*
D03*
X011212Y017953D02*
D03*
X011005D02*
D03*
X013974Y017771D02*
D03*
Y017977D02*
D03*
X012638Y017638D02*
D03*
X013996Y015999D02*
D03*
Y016206D02*
D03*
X011535Y015408D02*
D03*
Y015615D02*
D03*
X020787Y017638D02*
D03*
X021102D02*
D03*
X021417Y016378D02*
D03*
Y016693D02*
D03*
X011545Y016590D02*
D03*
Y016796D02*
D03*
X013140Y015984D02*
D03*
X013286Y016130D02*
D03*
X014232Y015408D02*
D03*
Y015615D02*
D03*
X019527Y016378D02*
D03*
Y016693D02*
D03*
X014732Y016590D02*
D03*
Y016796D02*
D03*
X017313Y022372D02*
D03*
Y022579D02*
D03*
X018354Y024083D02*
D03*
X018147D02*
D03*
X014042Y017064D02*
D03*
Y017271D02*
D03*
X020787Y021417D02*
D03*
Y021732D02*
D03*
X021102Y016063D02*
D03*
Y016378D02*
D03*
X022232Y021028D02*
D03*
X025787Y016142D02*
D03*
Y016348D02*
D03*
X019842Y015433D02*
D03*
X019527D02*
D03*
X014422Y019878D02*
D03*
X020157Y017323D02*
D03*
Y017008D02*
D03*
X019842Y016693D02*
D03*
X019212Y020787D02*
D03*
X019212Y021102D02*
D03*
X020472Y020787D02*
D03*
Y021102D02*
D03*
X022025Y021028D02*
D03*
X025827Y020971D02*
D03*
Y020765D02*
D03*
X022323Y016772D02*
D03*
X022177Y016918D02*
D03*
X020157Y015433D02*
D03*
X020472D02*
D03*
X020472Y016378D02*
D03*
Y016063D02*
D03*
X020157D02*
D03*
X019527Y015748D02*
D03*
X019212Y016063D02*
D03*
Y016378D02*
D03*
X020157Y016378D02*
D03*
X019842D02*
D03*
X020787Y016063D02*
D03*
X020157Y022362D02*
D03*
X020157Y022047D02*
D03*
X019842Y017323D02*
D03*
X019527Y017323D02*
D03*
X019842Y017008D02*
D03*
X012638Y017431D02*
D03*
X014745Y018568D02*
D03*
Y018361D02*
D03*
X021102Y015748D02*
D03*
X020787D02*
D03*
X019842Y015748D02*
D03*
X020472Y017008D02*
D03*
Y016693D02*
D03*
X018474Y025394D02*
D03*
X018268D02*
D03*
X019674Y024631D02*
D03*
Y024838D02*
D03*
X014630Y018976D02*
D03*
X014423D02*
D03*
X014629Y019878D02*
D03*
X010472Y017096D02*
D03*
X010728D02*
D03*
X021874Y020315D02*
D03*
X022081D02*
D03*
X039922Y016194D02*
D03*
Y016401D02*
D03*
X039921Y016785D02*
D03*
Y016992D02*
D03*
X042283Y016785D02*
D03*
Y016991D02*
D03*
Y016194D02*
D03*
Y016401D02*
D03*
X028898Y016588D02*
D03*
Y016795D02*
D03*
X031260Y014628D02*
D03*
Y014421D02*
D03*
X029980Y018360D02*
D03*
X029980Y016204D02*
D03*
Y015997D02*
D03*
X031260Y015614D02*
D03*
Y015407D02*
D03*
X028898Y015023D02*
D03*
Y014816D02*
D03*
Y017977D02*
D03*
Y017770D02*
D03*
X028898Y015614D02*
D03*
Y015407D02*
D03*
X029980Y017385D02*
D03*
Y017179D02*
D03*
Y018566D02*
D03*
X042283Y017582D02*
D03*
Y017375D02*
D03*
D106*
X024281Y020453D02*
D03*
X018415Y024911D02*
D03*
X022018Y013957D02*
D03*
X022864Y014134D02*
D03*
X023054D02*
D03*
X022116Y013583D02*
D03*
Y013789D02*
D03*
X021919D02*
D03*
Y013583D02*
D03*
X023435Y013474D02*
D03*
Y013691D02*
D03*
Y013907D02*
D03*
X021673Y013140D02*
D03*
X023245Y014134D02*
D03*
X013023Y017676D02*
D03*
X014626Y016398D02*
D03*
X021713Y010876D02*
D03*
X011654Y014124D02*
D03*
X011142Y022116D02*
D03*
X022372Y011063D02*
D03*
X017322Y016378D02*
D03*
X019842Y020157D02*
D03*
X019527Y017008D02*
D03*
X011014Y022992D02*
D03*
X010433Y023041D02*
D03*
X011348Y024951D02*
D03*
X010335Y021299D02*
D03*
X016024Y010394D02*
D03*
X018543Y010748D02*
D03*
X022648Y012736D02*
D03*
X012638Y018140D02*
D03*
X012687Y017884D02*
D03*
X010423Y022766D02*
D03*
X011063Y021811D02*
D03*
X011132Y021516D02*
D03*
X014065Y019528D02*
D03*
X020472Y019842D02*
D03*
X020157Y019842D02*
D03*
X019842Y019842D02*
D03*
X020472Y019527D02*
D03*
X020157D02*
D03*
X021102Y017323D02*
D03*
Y016693D02*
D03*
X024695Y014104D02*
D03*
X024006Y013238D02*
D03*
X025325Y011732D02*
D03*
X020138Y010758D02*
D03*
X020384Y010276D02*
D03*
X019468Y010787D02*
D03*
X022333Y011319D02*
D03*
X022063Y010591D02*
D03*
X024626Y011644D02*
D03*
X024823D02*
D03*
X025020D02*
D03*
X024626Y011841D02*
D03*
X024823D02*
D03*
X025020D02*
D03*
X024222Y010354D02*
D03*
X020472Y017323D02*
D03*
X022175Y011785D02*
D03*
X018858Y015394D02*
D03*
X021220Y014931D02*
D03*
X022313Y013376D02*
D03*
X023435Y014134D02*
D03*
X022559Y019783D02*
D03*
X022593Y019547D02*
D03*
X013839Y022795D02*
D03*
X024999Y014617D02*
D03*
X011545Y018199D02*
D03*
X018701Y022825D02*
D03*
X024301Y015089D02*
D03*
X022116Y013376D02*
D03*
X024596Y013110D02*
D03*
X021919Y013376D02*
D03*
X021526D02*
D03*
X021732Y014104D02*
D03*
X021722Y013376D02*
D03*
X021673Y012864D02*
D03*
X018602Y014222D02*
D03*
X017106Y014557D02*
D03*
X016910Y014754D02*
D03*
X019734Y015039D02*
D03*
X015374Y024193D02*
D03*
X015925Y023337D02*
D03*
X015098Y024163D02*
D03*
X016909Y023829D02*
D03*
X021932Y017187D02*
D03*
X019842Y016063D02*
D03*
X016063Y018268D02*
D03*
X014724Y015630D02*
D03*
X019144Y022825D02*
D03*
X021004Y014931D02*
D03*
X020718Y014700D02*
D03*
X015276Y014341D02*
D03*
Y014134D02*
D03*
X019842Y019527D02*
D03*
Y019212D02*
D03*
X024345Y021319D02*
D03*
X022545Y018552D02*
D03*
X022598Y021575D02*
D03*
X023646Y022992D02*
D03*
X017637Y021732D02*
D03*
X020158Y021417D02*
D03*
X021417Y021733D02*
D03*
X021732Y022362D02*
D03*
X021417Y020157D02*
D03*
X020718Y014487D02*
D03*
X014183Y020925D02*
D03*
X013986Y021319D02*
D03*
Y021516D02*
D03*
X013278Y021909D02*
D03*
X013986Y022106D02*
D03*
X020787Y018897D02*
D03*
X016693Y018582D02*
D03*
X017952Y018582D02*
D03*
X017637Y018582D02*
D03*
X019212Y018582D02*
D03*
X017008D02*
D03*
X020787Y018582D02*
D03*
X020472D02*
D03*
X020157D02*
D03*
X020157Y018268D02*
D03*
X018897Y018268D02*
D03*
X019842Y018268D02*
D03*
X021102Y018268D02*
D03*
X020787D02*
D03*
X020472D02*
D03*
X020787Y020157D02*
D03*
X018897Y017638D02*
D03*
X019527Y019212D02*
D03*
X019527Y019842D02*
D03*
X017637Y021102D02*
D03*
X017008Y021102D02*
D03*
X017322Y021102D02*
D03*
X017008Y021417D02*
D03*
X017637Y021417D02*
D03*
X017952Y021419D02*
D03*
X018582Y020787D02*
D03*
Y021102D02*
D03*
X018582Y021417D02*
D03*
X020157Y020787D02*
D03*
X016063Y014606D02*
D03*
Y014341D02*
D03*
Y014094D02*
D03*
X018897Y021102D02*
D03*
X019212Y020472D02*
D03*
X018897D02*
D03*
X021102Y021417D02*
D03*
X015118Y020787D02*
D03*
Y017638D02*
D03*
X017637Y017323D02*
D03*
X016063Y020472D02*
D03*
X017952Y021102D02*
D03*
X017008Y020787D02*
D03*
X015748Y021417D02*
D03*
X015433Y019212D02*
D03*
X015433Y015748D02*
D03*
X016378Y016063D02*
D03*
X017008Y017323D02*
D03*
X017322Y017638D02*
D03*
X017637Y017953D02*
D03*
X017008D02*
D03*
X018582Y016693D02*
D03*
X017008Y019527D02*
D03*
Y020157D02*
D03*
Y020472D02*
D03*
X017322D02*
D03*
Y019842D02*
D03*
Y019212D02*
D03*
X017637Y019527D02*
D03*
Y020157D02*
D03*
X017952Y019842D02*
D03*
X017952Y020472D02*
D03*
X020787Y022047D02*
D03*
X019527Y020787D02*
D03*
X020787D02*
D03*
X019842Y021102D02*
D03*
X019212Y021417D02*
D03*
X019842Y021732D02*
D03*
X019527Y022047D02*
D03*
X015218Y013299D02*
D03*
X015718D02*
D03*
X015213Y013825D02*
D03*
X014972Y011801D02*
D03*
Y012301D02*
D03*
X015472Y011798D02*
D03*
X016472Y011801D02*
D03*
X017470Y012301D02*
D03*
X014722Y012044D02*
D03*
X017721D02*
D03*
X017465Y011801D02*
D03*
X014722Y012299D02*
D03*
X017715D02*
D03*
X019433Y012283D02*
D03*
Y012028D02*
D03*
X022181Y012285D02*
D03*
X021183Y011785D02*
D03*
X020183Y011782D02*
D03*
X019683Y012285D02*
D03*
Y011785D02*
D03*
X021183Y012285D02*
D03*
X020675D02*
D03*
X019902Y013806D02*
D03*
X020179Y013283D02*
D03*
X019902Y013543D02*
D03*
X020429Y013283D02*
D03*
X019907Y013280D02*
D03*
X019821Y010770D02*
D03*
X020917D02*
D03*
X020718Y014273D02*
D03*
Y014059D02*
D03*
X016965Y011301D02*
D03*
X019527Y020157D02*
D03*
X019527Y020472D02*
D03*
X017952Y020787D02*
D03*
X021102Y017953D02*
D03*
X020157D02*
D03*
Y019212D02*
D03*
X020787D02*
D03*
X021102D02*
D03*
X021417Y019842D02*
D03*
X016063Y016693D02*
D03*
X016063Y015748D02*
D03*
X016378Y016693D02*
D03*
X019212Y017638D02*
D03*
Y017323D02*
D03*
X018582Y020472D02*
D03*
X017952Y017638D02*
D03*
X021797Y016850D02*
D03*
X016496Y026195D02*
D03*
X015451Y025965D02*
D03*
X016772Y026299D02*
D03*
X025152Y024589D02*
D03*
X025748Y023471D02*
D03*
X022593Y015020D02*
D03*
Y015610D02*
D03*
X024966D02*
D03*
X024345Y018169D02*
D03*
X013199Y018533D02*
D03*
X015433Y022047D02*
D03*
X016693Y021417D02*
D03*
X018267Y018897D02*
D03*
X018267Y018582D02*
D03*
X018582Y018582D02*
D03*
Y019212D02*
D03*
X018267Y019212D02*
D03*
X022441Y022047D02*
D03*
X021417Y017638D02*
D03*
X019842Y018582D02*
D03*
X019842Y018897D02*
D03*
X020472Y017953D02*
D03*
X014094Y020551D02*
D03*
Y020315D02*
D03*
X019527Y018582D02*
D03*
Y018267D02*
D03*
X019527Y017637D02*
D03*
X021102Y015433D02*
D03*
X015748Y015748D02*
D03*
X016378D02*
D03*
X016063Y017323D02*
D03*
X018897Y020157D02*
D03*
X019212Y020157D02*
D03*
X020787Y019527D02*
D03*
X021102D02*
D03*
X016339Y026339D02*
D03*
X015669Y026339D02*
D03*
X017283Y026260D02*
D03*
X018150Y025866D02*
D03*
X018130Y026280D02*
D03*
X016732Y024055D02*
D03*
X016693Y023622D02*
D03*
X020787Y016378D02*
D03*
X022441Y019961D02*
D03*
X017717Y010827D02*
D03*
X020183Y011285D02*
D03*
X015747Y019212D02*
D03*
X016063Y019527D02*
D03*
X016063Y019842D02*
D03*
X015512Y014134D02*
D03*
Y014341D02*
D03*
X015276Y014646D02*
D03*
X026161Y016240D02*
D03*
X025551Y018976D02*
D03*
X015118Y019842D02*
D03*
X015433Y019842D02*
D03*
X015118Y020472D02*
D03*
X014262Y020719D02*
D03*
X021102Y020157D02*
D03*
X018622Y025000D02*
D03*
X019212Y018268D02*
D03*
X015984Y015236D02*
D03*
X026240Y018258D02*
D03*
X011026Y024339D02*
D03*
X010723Y024300D02*
D03*
X024803Y013110D02*
D03*
X023307Y012874D02*
D03*
X025157Y012795D02*
D03*
X025354Y012598D02*
D03*
X025906Y012638D02*
D03*
X014012Y018868D02*
D03*
X015118Y016693D02*
D03*
X017951Y015432D02*
D03*
X018582Y018268D02*
D03*
X025020Y017972D02*
D03*
X019842Y017953D02*
D03*
X025522Y016791D02*
D03*
X022244Y017313D02*
D03*
X024345Y020138D02*
D03*
Y019154D02*
D03*
X024291Y019409D02*
D03*
X024345Y019744D02*
D03*
X024322Y021556D02*
D03*
X024345Y020925D02*
D03*
X024291Y018898D02*
D03*
X022579Y021319D02*
D03*
X022402Y022441D02*
D03*
X014075Y019745D02*
D03*
X022372Y018986D02*
D03*
X015866Y024129D02*
D03*
X016161Y024134D02*
D03*
X017077Y023986D02*
D03*
X020086Y022576D02*
D03*
X014744Y012992D02*
D03*
X014961D02*
D03*
X015468Y013297D02*
D03*
X015974Y012293D02*
D03*
X016467D02*
D03*
X015748Y014341D02*
D03*
Y014134D02*
D03*
X022432Y012028D02*
D03*
X022438Y011773D02*
D03*
X013287Y022372D02*
D03*
X018602Y014449D02*
D03*
X018307Y014862D02*
D03*
X018120D02*
D03*
X015728Y014616D02*
D03*
X018494Y014862D02*
D03*
X017589Y014882D02*
D03*
X017844Y014892D02*
D03*
X018681Y014862D02*
D03*
X018602Y014656D02*
D03*
X016693Y020157D02*
D03*
X016555Y015236D02*
D03*
X016706Y013268D02*
D03*
X016886D02*
D03*
X017067D02*
D03*
X017247D02*
D03*
X016654Y012815D02*
D03*
X017539Y013100D02*
D03*
X017434Y013258D02*
D03*
X021693Y025305D02*
D03*
X024262Y016201D02*
D03*
X024311Y016821D02*
D03*
X024321Y016378D02*
D03*
X015286Y025335D02*
D03*
X010630Y018642D02*
D03*
X022549Y019154D02*
D03*
X010886Y018327D02*
D03*
X026161Y024144D02*
D03*
X020246Y023937D02*
D03*
X020248Y024135D02*
D03*
X020020D02*
D03*
X020017Y023937D02*
D03*
X021004Y023386D02*
D03*
Y023573D02*
D03*
X021220D02*
D03*
X021216Y023387D02*
D03*
X021693Y024163D02*
D03*
X011447Y014360D02*
D03*
X011417Y012697D02*
D03*
X012697Y016732D02*
D03*
X012264Y017224D02*
D03*
X014055Y011339D02*
D03*
X011427Y011437D02*
D03*
X011634Y011289D02*
D03*
X011476Y012431D02*
D03*
X012844Y013051D02*
D03*
X016220Y010787D02*
D03*
X013218Y012785D02*
D03*
X013376Y010906D02*
D03*
X013632Y013957D02*
D03*
X011417Y013848D02*
D03*
X011624Y010994D02*
D03*
X011713Y013366D02*
D03*
X012913Y015709D02*
D03*
X016693Y017323D02*
D03*
X013258Y018317D02*
D03*
X010393Y019685D02*
D03*
Y019941D02*
D03*
X014400Y016417D02*
D03*
X018957Y024961D02*
D03*
X014104Y023307D02*
D03*
X019350Y025138D02*
D03*
X010738Y023750D02*
D03*
X010364Y020157D02*
D03*
Y020394D02*
D03*
X021850Y017402D02*
D03*
X019212Y019527D02*
D03*
X019527Y019527D02*
D03*
X018897Y019212D02*
D03*
X020787Y019843D02*
D03*
X021102Y019842D02*
D03*
X022593Y020138D02*
D03*
X020472Y020157D02*
D03*
X023927Y022559D02*
D03*
X025079Y022047D02*
D03*
X024783Y023091D02*
D03*
X018868Y024331D02*
D03*
X019144Y025551D02*
D03*
X010679Y023219D02*
D03*
X023219Y012165D02*
D03*
X023248Y012431D02*
D03*
X014882Y010354D02*
D03*
X011447Y012185D02*
D03*
X011033Y015443D02*
D03*
X010335Y021093D02*
D03*
X010344Y020768D02*
D03*
X020753Y023578D02*
D03*
X022234Y023396D02*
D03*
X022372Y023238D02*
D03*
X024291Y018445D02*
D03*
X022510Y018159D02*
D03*
X022156Y017943D02*
D03*
X022244Y020817D02*
D03*
X022283Y020463D02*
D03*
X022047Y020640D02*
D03*
X018897Y016063D02*
D03*
X031260Y018954D02*
D03*
X028898Y020131D02*
D03*
X036469Y024384D02*
D03*
X036316Y022331D02*
D03*
X036614Y013699D02*
D03*
X036411Y013699D02*
D03*
X036817Y013699D02*
D03*
X037223Y013699D02*
D03*
X037020Y013699D02*
D03*
X039134Y022479D02*
D03*
X039370D02*
D03*
X039606D02*
D03*
X041772Y023896D02*
D03*
X041535D02*
D03*
X041299D02*
D03*
X041063D02*
D03*
X034123Y023373D02*
D03*
X033906D02*
D03*
X033690D02*
D03*
X033473D02*
D03*
X033257D02*
D03*
X035146Y024879D02*
D03*
X034945D02*
D03*
X034743D02*
D03*
X035137Y025066D02*
D03*
X034945D02*
D03*
X034753D02*
D03*
X033983Y026070D02*
D03*
X040443Y011859D02*
D03*
X039104Y012321D02*
D03*
X041319Y014623D02*
D03*
X040039Y014624D02*
D03*
X041319Y015017D02*
D03*
X040039Y015018D02*
D03*
X041113Y014893D02*
D03*
X040039Y015609D02*
D03*
X028898Y018952D02*
D03*
Y019158D02*
D03*
X028898Y019541D02*
D03*
Y019747D02*
D03*
Y020338D02*
D03*
X031260Y020131D02*
D03*
Y020338D02*
D03*
Y019541D02*
D03*
Y019747D02*
D03*
X030296Y021908D02*
D03*
X029016Y021516D02*
D03*
X030296Y021514D02*
D03*
X029016Y021319D02*
D03*
X030296Y020924D02*
D03*
X030089Y021013D02*
D03*
X028809Y020959D02*
D03*
X038265Y020526D02*
D03*
X037425Y015116D02*
D03*
X037165Y011573D02*
D03*
Y011367D02*
D03*
Y011160D02*
D03*
Y010953D02*
D03*
X037402D02*
D03*
Y011160D02*
D03*
Y011367D02*
D03*
Y011573D02*
D03*
X039114Y015727D02*
D03*
X039291Y016002D02*
D03*
X041112Y015756D02*
D03*
X039010Y017213D02*
D03*
X039074Y016830D02*
D03*
X038120Y017203D02*
D03*
X038425Y018030D02*
D03*
X038780Y015353D02*
D03*
X039843Y022479D02*
D03*
X043189Y019939D02*
D03*
M02*
