G04 Layer_Color=16711935*
%FSAX24Y24*%
%MOIN*%
G70*
G01*
G75*
%ADD16C,0.0394*%
%ADD17R,0.0236X0.0394*%
%ADD18R,0.0244X0.0228*%
%ADD19R,0.0315X0.0315*%
%ADD22R,0.0228X0.0244*%
%ADD23R,0.0354X0.0394*%
%ADD25R,0.0394X0.0394*%
%ADD26R,0.0394X0.0394*%
%ADD29R,0.0244X0.0244*%
%ADD30R,0.0244X0.0244*%
%ADD33R,0.0394X0.0354*%
%ADD38R,0.1181X0.0551*%
%ADD39R,0.1181X0.0512*%
%ADD40R,0.0394X0.0236*%
%ADD57R,0.0748X0.0571*%
%ADD59R,0.0453X0.0571*%
%ADD60R,0.0571X0.0453*%
%ADD64R,0.0571X0.0433*%
%ADD66C,0.0120*%
G04:AMPARAMS|DCode=81|XSize=41.3mil|YSize=49.2mil|CornerRadius=10.3mil|HoleSize=0mil|Usage=FLASHONLY|Rotation=180.000|XOffset=0mil|YOffset=0mil|HoleType=Round|Shape=RoundedRectangle|*
%AMROUNDEDRECTD81*
21,1,0.0413,0.0285,0,0,180.0*
21,1,0.0207,0.0492,0,0,180.0*
1,1,0.0207,-0.0103,0.0143*
1,1,0.0207,0.0103,0.0143*
1,1,0.0207,0.0103,-0.0143*
1,1,0.0207,-0.0103,-0.0143*
%
%ADD81ROUNDEDRECTD81*%
%ADD83C,0.0315*%
%ADD84C,0.1378*%
%ADD85C,0.0591*%
%ADD86C,0.0945*%
%ADD87R,0.1102X0.0866*%
%ADD88C,0.0630*%
%ADD89C,0.0827*%
%ADD90O,0.0827X0.0630*%
%ADD91R,0.0591X0.0512*%
%ADD92C,0.0551*%
%ADD93C,0.0157*%
%ADD107C,0.0236*%
%ADD117R,0.0669X0.0866*%
%ADD118R,0.0315X0.0157*%
G04:AMPARAMS|DCode=119|XSize=24.4mil|YSize=22.8mil|CornerRadius=0mil|HoleSize=0mil|Usage=FLASHONLY|Rotation=135.000|XOffset=0mil|YOffset=0mil|HoleType=Round|Shape=Rectangle|*
%AMROTATEDRECTD119*
4,1,4,0.0167,-0.0006,0.0006,-0.0167,-0.0167,0.0006,-0.0006,0.0167,0.0167,-0.0006,0.0*
%
%ADD119ROTATEDRECTD119*%

%ADD120R,0.0394X0.0118*%
%ADD121O,0.0394X0.0138*%
%ADD122R,0.0846X0.0846*%
%ADD123O,0.0138X0.0394*%
%ADD124R,0.0413X0.0177*%
%ADD125R,0.1378X0.1614*%
%ADD126P,0.0345X4X270.0*%
%ADD127R,0.0571X0.0748*%
%ADD128R,0.0374X0.0413*%
%ADD129R,0.0413X0.0236*%
%ADD130R,0.0236X0.0413*%
%ADD131R,0.0709X0.0886*%
%ADD132R,0.0283X0.0280*%
%ADD183C,0.0571*%
%ADD184P,0.1114X4X270.0*%
D16*
X024400Y012333D02*
D03*
D17*
X010433Y023386D02*
D03*
X011181D02*
D03*
X010807Y022480D02*
D03*
D18*
X013234Y010677D02*
D03*
Y010307D02*
D03*
X013622D02*
D03*
X013622Y010677D02*
D03*
X014272Y022502D02*
D03*
Y022872D02*
D03*
X026248Y018520D02*
D03*
Y018890D02*
D03*
X025839Y018890D02*
D03*
Y018520D02*
D03*
X016142Y016035D02*
D03*
Y016406D02*
D03*
X011811Y010667D02*
D03*
Y010297D02*
D03*
X019803Y020864D02*
D03*
Y020494D02*
D03*
X025450Y024219D02*
D03*
Y024589D02*
D03*
X017872Y010301D02*
D03*
Y010671D02*
D03*
X025450Y023841D02*
D03*
X025450Y023471D02*
D03*
X015394Y020127D02*
D03*
X015394Y020497D02*
D03*
X018907Y016685D02*
D03*
Y017055D02*
D03*
D19*
X025907Y023867D02*
D03*
Y024517D02*
D03*
D22*
X021819Y010581D02*
D03*
X021449Y010581D02*
D03*
X023600Y025728D02*
D03*
X023230D02*
D03*
X016311Y017047D02*
D03*
X016681D02*
D03*
X015776Y016063D02*
D03*
X015406D02*
D03*
X016681Y019567D02*
D03*
X016311Y019567D02*
D03*
X025287Y013071D02*
D03*
X025657D02*
D03*
X020500Y017677D02*
D03*
X020130D02*
D03*
X015776Y018937D02*
D03*
X015406D02*
D03*
X023978Y011821D02*
D03*
X024348D02*
D03*
D23*
X015187Y010551D02*
D03*
X014557D02*
D03*
X018878Y011236D02*
D03*
X019508D02*
D03*
D25*
X016417Y024498D02*
D03*
Y025089D02*
D03*
D26*
X016998Y024429D02*
D03*
X017589D02*
D03*
X017470Y015374D02*
D03*
X016880D02*
D03*
X022510Y022835D02*
D03*
X021919D02*
D03*
X019193Y018898D02*
D03*
X018602D02*
D03*
X017343D02*
D03*
X017933D02*
D03*
X017598Y015945D02*
D03*
X018189Y015945D02*
D03*
D29*
X021463Y010243D02*
D03*
X021817D02*
D03*
X015565Y024807D02*
D03*
X015919D02*
D03*
X015531Y025217D02*
D03*
X015886D02*
D03*
X015768Y025856D02*
D03*
X016122D02*
D03*
X015925Y023819D02*
D03*
X015571D02*
D03*
X016511Y025857D02*
D03*
X016866D02*
D03*
X017933Y025276D02*
D03*
X017579D02*
D03*
X022392Y024793D02*
D03*
X022746D02*
D03*
X017923Y016624D02*
D03*
X017569D02*
D03*
X017067Y015984D02*
D03*
X016713D02*
D03*
X016344Y020413D02*
D03*
X016699D02*
D03*
X015774Y019488D02*
D03*
X015419D02*
D03*
X022067Y016575D02*
D03*
X021712D02*
D03*
X020748Y015197D02*
D03*
X021102D02*
D03*
X018209Y020197D02*
D03*
X018563Y020197D02*
D03*
X016693Y016378D02*
D03*
X017047Y016378D02*
D03*
X018917Y015718D02*
D03*
X019272D02*
D03*
X021122Y020472D02*
D03*
X020767Y020472D02*
D03*
X017657Y020787D02*
D03*
X017303Y020787D02*
D03*
X020167Y018858D02*
D03*
X020522D02*
D03*
X016398Y019213D02*
D03*
X016752Y019213D02*
D03*
X017382Y018268D02*
D03*
X017028D02*
D03*
X016338Y018268D02*
D03*
X016693D02*
D03*
X018209Y017559D02*
D03*
X018563D02*
D03*
X016398Y018858D02*
D03*
X016752Y018858D02*
D03*
X016097Y021414D02*
D03*
X016451D02*
D03*
X016344Y020827D02*
D03*
X016699D02*
D03*
X019547Y017953D02*
D03*
X019193Y017953D02*
D03*
X016358Y019882D02*
D03*
X016713D02*
D03*
X011093Y019587D02*
D03*
X010738D02*
D03*
X017943Y017933D02*
D03*
X018297D02*
D03*
X023573Y011821D02*
D03*
X023219D02*
D03*
X019823Y010404D02*
D03*
X019468D02*
D03*
X010797Y022096D02*
D03*
X010443D02*
D03*
X010797Y021693D02*
D03*
X010443D02*
D03*
D30*
X013996Y010315D02*
D03*
Y010669D02*
D03*
X021693Y023307D02*
D03*
Y023661D02*
D03*
X018091Y024921D02*
D03*
Y024567D02*
D03*
X015096Y023816D02*
D03*
Y023461D02*
D03*
X011299Y018573D02*
D03*
Y018927D02*
D03*
X015779Y016651D02*
D03*
Y017005D02*
D03*
X018268Y020965D02*
D03*
X018268Y020610D02*
D03*
X015039Y016358D02*
D03*
Y016004D02*
D03*
X015403Y017008D02*
D03*
Y016653D02*
D03*
X020797Y017018D02*
D03*
X020797Y017372D02*
D03*
X021486Y021083D02*
D03*
Y021437D02*
D03*
X018898Y019862D02*
D03*
Y019508D02*
D03*
X018267Y016358D02*
D03*
Y016712D02*
D03*
X019252Y016687D02*
D03*
Y017041D02*
D03*
X019586Y021720D02*
D03*
Y021365D02*
D03*
X020472Y021713D02*
D03*
Y021358D02*
D03*
X015748Y020138D02*
D03*
Y020492D02*
D03*
X018228Y021663D02*
D03*
Y021309D02*
D03*
X015460Y021082D02*
D03*
Y021437D02*
D03*
X016063Y018917D02*
D03*
Y019272D02*
D03*
X016732Y017933D02*
D03*
Y017579D02*
D03*
X017322Y016988D02*
D03*
Y017342D02*
D03*
X021496Y020768D02*
D03*
Y020413D02*
D03*
X021414Y017040D02*
D03*
X021414Y017394D02*
D03*
X017913Y016988D02*
D03*
Y017343D02*
D03*
X021417Y022382D02*
D03*
Y022028D02*
D03*
X020512Y022421D02*
D03*
Y022067D02*
D03*
X019213Y021959D02*
D03*
Y022313D02*
D03*
X014786Y017825D02*
D03*
Y017471D02*
D03*
X014391Y017825D02*
D03*
X014391Y017471D02*
D03*
X018278Y010303D02*
D03*
Y010657D02*
D03*
X024843Y012795D02*
D03*
Y012441D02*
D03*
X010886Y018927D02*
D03*
Y018573D02*
D03*
X018199Y019488D02*
D03*
Y019843D02*
D03*
X022323Y010581D02*
D03*
Y010226D02*
D03*
X022328Y021636D02*
D03*
X021928Y021636D02*
D03*
X022328Y021282D02*
D03*
X021928Y021282D02*
D03*
X022165Y019970D02*
D03*
X021789Y019970D02*
D03*
X022165Y019616D02*
D03*
X021789Y019616D02*
D03*
X014724Y019227D02*
D03*
X014329Y019227D02*
D03*
X014724Y019581D02*
D03*
X014329Y019581D02*
D03*
D33*
X018303Y011811D02*
D03*
Y011181D02*
D03*
D38*
X010689Y011909D02*
D03*
Y012697D02*
D03*
Y013484D02*
D03*
Y014272D02*
D03*
Y015846D02*
D03*
X010689Y016634D02*
D03*
D39*
X010689Y015059D02*
D03*
D40*
X011201Y024587D02*
D03*
Y023839D02*
D03*
X010295Y024213D02*
D03*
D57*
X014605Y021471D02*
D03*
Y020369D02*
D03*
D59*
X021220Y018760D02*
D03*
X021929D02*
D03*
X020404Y022982D02*
D03*
X021112D02*
D03*
X015630Y015039D02*
D03*
X014921D02*
D03*
D60*
X015590Y017756D02*
D03*
Y018464D02*
D03*
X014843Y022185D02*
D03*
Y022894D02*
D03*
D64*
X018898Y012726D02*
D03*
Y012018D02*
D03*
D66*
X100441Y027422D02*
X100971Y026891D01*
X100441Y027422D02*
X100213Y027194D01*
X100163Y027093D01*
Y027043D01*
X100188Y026967D01*
X100239Y026917D01*
X100314Y026891D01*
X100365D01*
X100466Y026942D01*
X100693Y027169D02*
X100466Y026942D01*
X100415Y026841D01*
Y026790D01*
X100441Y026715D01*
X100516Y026639D01*
X100592Y026614D01*
X100643D01*
X100744Y026664D01*
X100971Y026891D01*
X100019Y026647D02*
X100095Y026672D01*
X100196D01*
X100297Y026621D01*
X100347Y026571D01*
X100398Y026470D01*
Y026369D01*
X100373Y026293D01*
X100297Y026217D01*
X100221Y026192D01*
X100120Y026192D01*
X100019Y026243D01*
X099969Y026293D01*
X099918Y026394D01*
X099918Y026495D01*
X099943Y026571D01*
X100019Y026647D01*
X099448Y026429D02*
X099878Y026000D01*
X099928Y025899D01*
X099903Y025823D01*
X099852Y025773D01*
X099701Y026328D02*
X099524Y026152D01*
X099171Y026152D02*
X099600Y025722D01*
X099650Y025621D01*
X099625Y025546D01*
X099575Y025495D01*
X099423Y026051D02*
X099246Y025874D01*
X099019Y025647D02*
X099095Y025672D01*
X099196D01*
X099297Y025621D01*
X099347Y025571D01*
X099398Y025470D01*
Y025369D01*
X099373Y025293D01*
X099297Y025218D01*
X099221Y025192D01*
X099120Y025192D01*
X099019Y025243D01*
X098969Y025293D01*
X098918Y025394D01*
X098918Y025495D01*
X098943Y025571D01*
X099019Y025647D01*
X098701Y025329D02*
X099055Y024975D01*
X098802Y025228D02*
X098651D01*
X098575Y025202D01*
X098499Y025127D01*
X098474Y025051D01*
X098524Y024950D01*
X098777Y024697D01*
X098524Y024950D02*
X098373D01*
X098297Y024925D01*
X098221Y024849D01*
X098196Y024773D01*
X098247Y024672D01*
X098499Y024420D01*
X097108Y023937D02*
Y024038D01*
X097158Y024139D01*
X097259Y024240D01*
X097360Y024291D01*
X097461Y024291D01*
X097512Y024240D01*
X097537Y024165D01*
Y024114D01*
X097512Y024038D01*
X097411Y023836D01*
X097386Y023761D01*
X097386Y023710D01*
X097411Y023634D01*
X097487Y023559D01*
X097588D01*
X097689Y023609D01*
X097790Y023710D01*
X097840Y023811D01*
Y023912D01*
X096964Y023592D02*
X097040Y023617D01*
X097141D01*
X097242Y023566D01*
X097292Y023516D01*
X097343Y023415D01*
Y023314D01*
X097317Y023238D01*
X097242Y023162D01*
X097166Y023137D01*
X097065Y023137D01*
X096964Y023188D01*
X096913Y023238D01*
X096863Y023339D01*
X096863Y023440D01*
X096888Y023516D01*
X096964Y023592D01*
X096469Y023450D02*
X096999Y022920D01*
X096055Y023036D02*
X096585Y022506D01*
X096308Y022784D02*
X096308Y022885D01*
X096333Y022960D01*
X096409Y023036D01*
X096484Y023061D01*
X096585D01*
X096686Y023011D01*
X096737Y022960D01*
X096787Y022859D01*
Y022758D01*
X096762Y022683D01*
X096686Y022607D01*
X096611Y022582D01*
X096510Y022582D01*
X096242Y022566D02*
X095939Y022263D01*
X095888Y022314D01*
X095863Y022390D01*
X095863Y022440D01*
X095888Y022516D01*
X095964Y022592D01*
X096040Y022617D01*
X096141D01*
X096242Y022566D01*
X096292Y022516D01*
X096343Y022415D01*
Y022314D01*
X096318Y022238D01*
X096242Y022162D01*
X096166Y022137D01*
X096065Y022137D01*
X095674Y022301D02*
X096027Y021948D01*
X095825Y022150D02*
X095724Y022200D01*
X095623D01*
X095548Y022175D01*
X095472Y022099D01*
D81*
X030167Y010806D02*
D03*
X030659D02*
D03*
X019016Y026033D02*
D03*
X019508D02*
D03*
X020000D02*
D03*
X020492D02*
D03*
X020984D02*
D03*
X012264Y010492D02*
D03*
X012756D02*
D03*
D83*
X034069Y020056D02*
D03*
Y020556D02*
D03*
Y019556D02*
D03*
X037569Y021056D02*
D03*
Y015556D02*
D03*
X037069Y021056D02*
D03*
Y020556D02*
D03*
Y020056D02*
D03*
Y019556D02*
D03*
Y019056D02*
D03*
Y018556D02*
D03*
Y018056D02*
D03*
Y017556D02*
D03*
Y017056D02*
D03*
Y016556D02*
D03*
Y016056D02*
D03*
Y015556D02*
D03*
X036569Y021056D02*
D03*
Y020556D02*
D03*
Y020056D02*
D03*
Y019556D02*
D03*
Y019056D02*
D03*
Y018556D02*
D03*
Y018056D02*
D03*
Y017556D02*
D03*
Y017056D02*
D03*
Y016556D02*
D03*
Y016056D02*
D03*
Y015556D02*
D03*
X036069Y021056D02*
D03*
Y020556D02*
D03*
Y020056D02*
D03*
Y019556D02*
D03*
Y019056D02*
D03*
Y018556D02*
D03*
Y018056D02*
D03*
Y017556D02*
D03*
Y017056D02*
D03*
Y016556D02*
D03*
Y016056D02*
D03*
Y015556D02*
D03*
X035569Y021056D02*
D03*
Y020556D02*
D03*
Y020056D02*
D03*
Y019556D02*
D03*
X035069Y021056D02*
D03*
Y020056D02*
D03*
Y019556D02*
D03*
Y019056D02*
D03*
Y018556D02*
D03*
Y018056D02*
D03*
Y015556D02*
D03*
X034569Y020056D02*
D03*
Y019556D02*
D03*
Y018556D02*
D03*
Y017556D02*
D03*
Y017056D02*
D03*
Y016556D02*
D03*
Y016056D02*
D03*
Y015556D02*
D03*
X034069Y021056D02*
D03*
Y019056D02*
D03*
Y018556D02*
D03*
Y018056D02*
D03*
Y016556D02*
D03*
Y016056D02*
D03*
X037569D02*
D03*
Y016556D02*
D03*
Y017056D02*
D03*
Y017556D02*
D03*
Y018056D02*
D03*
Y018556D02*
D03*
Y019056D02*
D03*
Y019556D02*
D03*
Y020056D02*
D03*
Y020556D02*
D03*
X035569Y016056D02*
D03*
Y015556D02*
D03*
Y016556D02*
D03*
X035069D02*
D03*
Y016056D02*
D03*
X034569Y019056D02*
D03*
Y018056D02*
D03*
X034069Y017556D02*
D03*
Y017056D02*
D03*
X035069Y017556D02*
D03*
Y017056D02*
D03*
X035569Y018056D02*
D03*
Y017556D02*
D03*
X035069Y020556D02*
D03*
X034569Y021056D02*
D03*
Y020556D02*
D03*
X035569Y019056D02*
D03*
Y018556D02*
D03*
Y017056D02*
D03*
D84*
X028504Y010786D02*
D03*
X043465D02*
D03*
Y025746D02*
D03*
X028504D02*
D03*
X010787Y025748D02*
D03*
X025748D02*
D03*
Y010787D02*
D03*
X010787D02*
D03*
D85*
X013268Y024970D02*
D03*
X024656Y010453D02*
D03*
D86*
X014268Y023970D02*
D03*
Y025970D02*
D03*
X012268D02*
D03*
Y023970D02*
D03*
D87*
X025866Y017622D02*
D03*
Y022638D02*
D03*
D88*
X023415Y025118D02*
D03*
D89*
X022415Y024118D02*
D03*
X024415D02*
D03*
D90*
X022415Y026118D02*
D03*
X024415D02*
D03*
D91*
X024656Y011240D02*
D03*
D92*
X025354Y013638D02*
D03*
X026142Y014032D02*
D03*
X025354Y014426D02*
D03*
X026142Y014819D02*
D03*
X025354Y015213D02*
D03*
X026142Y013244D02*
D03*
D93*
X034764Y015157D02*
D03*
X016742Y025039D02*
D03*
Y025384D02*
D03*
X035779Y022785D02*
D03*
X011181Y020157D02*
D03*
X012776Y019350D02*
D03*
X012520Y019370D02*
D03*
X012785Y019941D02*
D03*
X012269Y020531D02*
D03*
Y019941D02*
D03*
X012285Y019350D02*
D03*
X011476Y020719D02*
D03*
X012608Y020709D02*
D03*
X020940Y025069D02*
D03*
X020610D02*
D03*
X021270D02*
D03*
Y024739D02*
D03*
X020610D02*
D03*
X020940D02*
D03*
X021270Y024409D02*
D03*
X020610D02*
D03*
X020940D02*
D03*
X016102Y025039D02*
D03*
X017319Y025394D02*
D03*
Y025039D02*
D03*
X016102Y025394D02*
D03*
X011348Y019557D02*
D03*
X014485Y018061D02*
D03*
X014692D02*
D03*
X024321Y020679D02*
D03*
X024281Y020453D02*
D03*
X011201Y024921D02*
D03*
D107*
X015218Y013047D02*
D03*
Y012547D02*
D03*
Y012047D02*
D03*
Y011547D02*
D03*
Y011047D02*
D03*
X015718Y013047D02*
D03*
Y012547D02*
D03*
X015719Y012047D02*
D03*
X015718Y011547D02*
D03*
Y011047D02*
D03*
X016219Y013047D02*
D03*
Y012547D02*
D03*
Y012047D02*
D03*
Y011547D02*
D03*
Y011047D02*
D03*
X016718Y013047D02*
D03*
Y012547D02*
D03*
X016718Y012047D02*
D03*
X016718Y011547D02*
D03*
Y011047D02*
D03*
X017219Y013047D02*
D03*
Y012547D02*
D03*
Y012047D02*
D03*
Y011547D02*
D03*
Y011047D02*
D03*
X019929Y013032D02*
D03*
Y012531D02*
D03*
Y012032D02*
D03*
Y011531D02*
D03*
Y011032D02*
D03*
X020429Y013032D02*
D03*
Y012531D02*
D03*
X020429Y012032D02*
D03*
X020429Y011531D02*
D03*
Y011032D02*
D03*
X020929Y013032D02*
D03*
Y012531D02*
D03*
Y012032D02*
D03*
Y011531D02*
D03*
Y011032D02*
D03*
X021429Y013032D02*
D03*
Y012531D02*
D03*
X021429Y012032D02*
D03*
X021429Y011531D02*
D03*
Y011032D02*
D03*
X021929Y013032D02*
D03*
Y012531D02*
D03*
Y012032D02*
D03*
Y011531D02*
D03*
Y011032D02*
D03*
D117*
X023356Y010718D02*
D03*
D118*
X023947Y010344D02*
D03*
Y010718D02*
D03*
Y011093D02*
D03*
X022766D02*
D03*
X022766Y010718D02*
D03*
X022766Y010344D02*
D03*
D119*
X016351Y017926D02*
D03*
X016090Y017664D02*
D03*
D120*
X013632Y018366D02*
D03*
Y018563D02*
D03*
X011880Y015413D02*
D03*
Y015610D02*
D03*
X013632Y021909D02*
D03*
Y022106D02*
D03*
Y020728D02*
D03*
Y020925D02*
D03*
X011880Y018957D02*
D03*
Y019154D02*
D03*
Y020138D02*
D03*
Y020335D02*
D03*
Y020728D02*
D03*
Y020925D02*
D03*
X013632Y020138D02*
D03*
Y020335D02*
D03*
X011880Y021909D02*
D03*
Y022106D02*
D03*
X013632Y014823D02*
D03*
Y015020D02*
D03*
Y015217D02*
D03*
Y015807D02*
D03*
Y016004D02*
D03*
Y016201D02*
D03*
X011880Y014429D02*
D03*
Y014626D02*
D03*
Y014823D02*
D03*
Y015020D02*
D03*
Y015217D02*
D03*
Y015807D02*
D03*
Y016398D02*
D03*
X013632Y021713D02*
D03*
Y021516D02*
D03*
Y021319D02*
D03*
Y021122D02*
D03*
Y020531D02*
D03*
Y019941D02*
D03*
Y019744D02*
D03*
Y019547D02*
D03*
Y019350D02*
D03*
Y019154D02*
D03*
Y018957D02*
D03*
Y018760D02*
D03*
Y018169D02*
D03*
Y017579D02*
D03*
Y016988D02*
D03*
Y016398D02*
D03*
X011880Y021713D02*
D03*
Y021516D02*
D03*
Y021319D02*
D03*
Y021122D02*
D03*
Y020531D02*
D03*
Y019941D02*
D03*
Y019744D02*
D03*
Y019547D02*
D03*
Y019350D02*
D03*
Y018760D02*
D03*
Y018169D02*
D03*
Y017579D02*
D03*
Y016988D02*
D03*
X024656Y017972D02*
D03*
Y017382D02*
D03*
Y017579D02*
D03*
Y014429D02*
D03*
Y014626D02*
D03*
Y014823D02*
D03*
Y015020D02*
D03*
Y015217D02*
D03*
Y015413D02*
D03*
Y015610D02*
D03*
Y015807D02*
D03*
Y016004D02*
D03*
X022904Y014429D02*
D03*
Y014626D02*
D03*
Y014823D02*
D03*
Y015020D02*
D03*
Y015217D02*
D03*
Y015413D02*
D03*
Y015610D02*
D03*
Y015807D02*
D03*
Y016004D02*
D03*
X024656Y022106D02*
D03*
Y021909D02*
D03*
Y021713D02*
D03*
Y021516D02*
D03*
Y021319D02*
D03*
Y021122D02*
D03*
Y020925D02*
D03*
Y020728D02*
D03*
Y020531D02*
D03*
Y020335D02*
D03*
Y020138D02*
D03*
Y019941D02*
D03*
Y019744D02*
D03*
Y019547D02*
D03*
Y019350D02*
D03*
Y019154D02*
D03*
Y018957D02*
D03*
Y018760D02*
D03*
Y018563D02*
D03*
Y018366D02*
D03*
Y018169D02*
D03*
Y017776D02*
D03*
Y017185D02*
D03*
Y016594D02*
D03*
X022904Y022106D02*
D03*
Y021909D02*
D03*
Y021713D02*
D03*
Y021516D02*
D03*
Y021319D02*
D03*
Y021122D02*
D03*
Y020925D02*
D03*
Y020728D02*
D03*
Y020531D02*
D03*
Y020335D02*
D03*
Y020138D02*
D03*
Y019941D02*
D03*
Y019744D02*
D03*
Y019547D02*
D03*
Y019350D02*
D03*
Y019154D02*
D03*
Y018957D02*
D03*
Y018760D02*
D03*
Y018563D02*
D03*
Y018366D02*
D03*
Y018169D02*
D03*
Y017972D02*
D03*
Y017776D02*
D03*
Y017579D02*
D03*
Y017382D02*
D03*
Y017185D02*
D03*
Y016594D02*
D03*
X011880Y016791D02*
D03*
Y016594D02*
D03*
X022904Y016398D02*
D03*
Y016201D02*
D03*
Y016988D02*
D03*
Y016791D02*
D03*
X024656Y016988D02*
D03*
Y016791D02*
D03*
Y016398D02*
D03*
Y016201D02*
D03*
X013632Y017382D02*
D03*
Y017185D02*
D03*
Y017972D02*
D03*
Y017776D02*
D03*
Y016791D02*
D03*
Y016594D02*
D03*
X011880Y016201D02*
D03*
Y016004D02*
D03*
X013632Y015610D02*
D03*
Y015413D02*
D03*
X011880Y018563D02*
D03*
Y018366D02*
D03*
Y017972D02*
D03*
Y017776D02*
D03*
Y017382D02*
D03*
Y017185D02*
D03*
X013632Y014626D02*
D03*
Y014429D02*
D03*
D121*
X020236Y024862D02*
D03*
Y024606D02*
D03*
X021693Y024350D02*
D03*
X021693Y024606D02*
D03*
X021693Y024862D02*
D03*
X021693Y025118D02*
D03*
X020236Y025118D02*
D03*
Y024350D02*
D03*
D122*
X020965Y024734D02*
D03*
D123*
X020581Y024006D02*
D03*
X020837Y024006D02*
D03*
X021093Y024006D02*
D03*
X021348Y024006D02*
D03*
X021093Y025463D02*
D03*
X020837D02*
D03*
X020581D02*
D03*
D124*
X011959Y011096D02*
D03*
X011959Y011596D02*
D03*
X011959Y012096D02*
D03*
Y012596D02*
D03*
X014203D02*
D03*
Y012096D02*
D03*
X014203Y011596D02*
D03*
X014203Y011096D02*
D03*
D125*
X013081Y011846D02*
D03*
D126*
X022552Y025229D02*
D03*
X022802Y025480D02*
D03*
D127*
X022254Y014468D02*
D03*
X021152D02*
D03*
X016486Y014370D02*
D03*
X017589Y014370D02*
D03*
X017608Y023081D02*
D03*
X016506Y023081D02*
D03*
D128*
X016929Y013628D02*
D03*
X017559D02*
D03*
X015522Y013632D02*
D03*
X016152D02*
D03*
X021624Y013720D02*
D03*
X020994D02*
D03*
X020215Y013622D02*
D03*
X019585D02*
D03*
D129*
X026240Y012657D02*
D03*
Y011909D02*
D03*
X025335Y012283D02*
D03*
D130*
X026161Y015846D02*
D03*
X025413D02*
D03*
X025787Y016752D02*
D03*
D131*
X019085Y014626D02*
D03*
X020226D02*
D03*
D132*
X023770Y012220D02*
D03*
Y012583D02*
D03*
D183*
X041890Y013620D02*
D03*
X041890Y022912D02*
D03*
X030866Y013620D02*
D03*
X030866Y022912D02*
D03*
X013307Y013583D02*
D03*
Y022953D02*
D03*
X024331Y013583D02*
D03*
Y022953D02*
D03*
D184*
X028514Y024272D02*
D03*
X011909Y024951D02*
D03*
M02*
