G04 Layer_Color=128*
%FSAX44Y44*%
%MOMM*%
G71*
G01*
G75*
%ADD67C,0.3048*%
%ADD137R,0.7500X1.1500*%
%ADD146R,1.0500X1.1500*%
%ADD147R,0.7700X0.7300*%
%ADD157R,0.9500X0.9500*%
%ADD158R,1.1500X1.1500*%
%ADD161R,2.0500X1.6000*%
%ADD163R,1.3000X1.6000*%
%ADD166R,0.7700X0.7700*%
%ADD169R,1.1500X1.0500*%
%ADD170R,0.7700X0.7700*%
%ADD171R,1.1500X1.1500*%
%ADD172R,0.7300X0.7700*%
%ADD173R,1.1500X0.7500*%
%ADD175R,1.6000X1.2500*%
%ADD176R,1.6000X1.3000*%
%ADD183R,0.7500X1.2000*%
%ADD184R,1.8500X2.3500*%
%ADD185R,0.9500X0.5500*%
%ADD186R,1.2000X0.6000*%
%ADD187R,3.6500X4.2500*%
%ADD188R,1.1500X0.4500*%
%ADD189O,1.1500X0.5000*%
%ADD190R,2.3000X2.3000*%
%ADD191O,0.5000X1.1500*%
%ADD192R,1.9500X2.4000*%
%ADD193R,1.1000X1.2000*%
%ADD194R,0.8700X0.8600*%
%ADD195C,0.7500*%
G04:AMPARAMS|DCode=196|XSize=0.77mm|YSize=0.73mm|CornerRadius=0mm|HoleSize=0mm|Usage=FLASHONLY|Rotation=135.000|XOffset=0mm|YOffset=0mm|HoleType=Round|Shape=Rectangle|*
%AMROTATEDRECTD196*
4,1,4,0.5303,-0.0141,0.0141,-0.5303,-0.5303,0.0141,-0.0141,0.5303,0.5303,-0.0141,0.0*
%
%ADD196ROTATEDRECTD196*%

%ADD197P,1.0890X4X270.0*%
%ADD198R,1.6000X2.0500*%
%ADD199R,1.2000X0.7500*%
D67*
X02551208Y00695980D02*
X02564675Y00682513D01*
X02551208Y00695980D02*
X02545436Y00690208D01*
X02544153Y00687643D01*
Y00686360D01*
X02544794Y00684436D01*
X02546077Y00683154D01*
X02548001Y00682513D01*
X02549284D01*
X02551849Y00683795D01*
X02557621Y00689567D02*
X02551849Y00683795D01*
X02550566Y00681230D01*
Y00679947D01*
X02551208Y00678023D01*
X02553132Y00676099D01*
X02555055Y00675458D01*
X02556338D01*
X02558903Y00676741D01*
X02564675Y00682513D01*
X02540498Y00676292D02*
X02542422Y00676933D01*
X02544987D01*
X02547552Y00675650D01*
X02548835Y00674368D01*
X02550117Y00671803D01*
Y00669237D01*
X02549476Y00667314D01*
X02547552Y00665390D01*
X02545628Y00664748D01*
X02543063Y00664748D01*
X02540498Y00666031D01*
X02539215Y00667314D01*
X02537932Y00669879D01*
X02537932Y00672444D01*
X02538574Y00674368D01*
X02540498Y00676292D01*
X02526004Y00670777D02*
X02536906Y00659874D01*
X02538189Y00657309D01*
X02537548Y00655385D01*
X02536265Y00654102D01*
X02532417Y00668211D02*
X02527928Y00663722D01*
X02518950Y00663722D02*
X02529852Y00652820D01*
X02531135Y00650255D01*
X02530493Y00648331D01*
X02529211Y00647048D01*
X02525363Y00661157D02*
X02520874Y00656668D01*
X02515102Y00650896D02*
X02517026Y00651537D01*
X02519591D01*
X02522156Y00650255D01*
X02523439Y00648972D01*
X02524722Y00646407D01*
Y00643842D01*
X02524080Y00641918D01*
X02522156Y00639994D01*
X02520232Y00639352D01*
X02517667Y00639352D01*
X02515102Y00640635D01*
X02513819Y00641918D01*
X02512537Y00644483D01*
X02512537Y00647048D01*
X02513178Y00648972D01*
X02515102Y00650896D01*
X02507021Y00642815D02*
X02516000Y00633837D01*
X02509587Y00640250D02*
X02505739D01*
X02503815Y00639609D01*
X02501891Y00637685D01*
X02501250Y00635761D01*
X02502532Y00633196D01*
X02508945Y00626783D01*
X02502532Y00633196D02*
X02498684D01*
X02496760Y00632555D01*
X02494836Y00630631D01*
X02494195Y00628707D01*
X02495478Y00626141D01*
X02501891Y00619728D01*
X02480663Y00611327D02*
X02474892Y00605555D01*
X02472327Y00604273D01*
X02471044Y00604273D01*
X02469120Y00604914D01*
X02467196Y00606838D01*
X02466555Y00608762D01*
Y00610045D01*
X02467837Y00612610D01*
X02473609Y00618382D01*
X02487077Y00604914D01*
X02458410Y00594204D02*
X02467388Y00585226D01*
X02460334Y00592280D02*
X02460334Y00594846D01*
X02460975Y00596769D01*
X02462899Y00598693D01*
X02464823Y00599335D01*
X02467388D01*
X02469954Y00598052D01*
X02471236Y00596769D01*
X02472519Y00594204D01*
Y00591639D01*
X02471878Y00589715D01*
X02469954Y00587791D01*
X02468030Y00587150D01*
X02465464Y00587150D01*
X02449688Y00581634D02*
X02449047Y00583559D01*
X02450330Y00586124D01*
X02452254Y00588048D01*
X02454819Y00589330D01*
X02456743Y00588689D01*
X02457384Y00586765D01*
X02456743Y00584841D01*
X02454177Y00580993D01*
X02453536Y00579069D01*
X02454177Y00577145D01*
X02454819Y00576504D01*
X02456743Y00575863D01*
X02459308Y00577145D01*
X02461232Y00579069D01*
X02462514Y00581634D01*
X02461873Y00583559D01*
X02438530Y00583302D02*
X02449432Y00572400D01*
X02450714Y00569834D01*
X02450073Y00567910D01*
X02448790Y00566628D01*
X02444943Y00580737D02*
X02440453Y00576248D01*
X02441736Y00569834D02*
X02434040Y00562139D01*
X02432758Y00563421D01*
X02432116Y00565345D01*
Y00566628D01*
X02432758Y00568552D01*
X02434682Y00570476D01*
X02436606Y00571117D01*
X02439171D01*
X02441736Y00569834D01*
X02443019Y00568552D01*
X02444301Y00565987D01*
Y00563421D01*
X02443660Y00561497D01*
X02441736Y00559574D01*
X02439812Y00558932D01*
X02437247Y00558932D01*
D137*
X00265000Y00594000D02*
D03*
X00284000D02*
D03*
X00274500Y00571000D02*
D03*
D146*
X00385750Y00268000D02*
D03*
X00369750D02*
D03*
X00479500Y00285400D02*
D03*
X00495500D02*
D03*
D147*
X00362500Y00571550D02*
D03*
Y00580950D02*
D03*
X00666705Y00470406D02*
D03*
Y00479806D02*
D03*
X00656309Y00479806D02*
D03*
Y00470406D02*
D03*
X00346000Y00261800D02*
D03*
X00346000Y00271200D02*
D03*
X00410000Y00407300D02*
D03*
Y00416700D02*
D03*
X00336150Y00271200D02*
D03*
Y00261800D02*
D03*
X00300000Y00270950D02*
D03*
Y00261550D02*
D03*
X00503000Y00529950D02*
D03*
Y00520550D02*
D03*
X00646422Y00615173D02*
D03*
Y00624573D02*
D03*
X00453950Y00261650D02*
D03*
Y00271050D02*
D03*
X00646422Y00605573D02*
D03*
X00646422Y00596173D02*
D03*
X00391004Y00511228D02*
D03*
X00391004Y00520628D02*
D03*
X00480250Y00423800D02*
D03*
Y00433200D02*
D03*
D157*
X00658034Y00606223D02*
D03*
Y00622723D02*
D03*
D158*
X00417000Y00622250D02*
D03*
Y00637250D02*
D03*
D161*
X00370964Y00545369D02*
D03*
Y00517369D02*
D03*
D163*
X00539000Y00476500D02*
D03*
X00557000D02*
D03*
X00518250Y00583750D02*
D03*
X00536250D02*
D03*
X00397000Y00382000D02*
D03*
X00379000D02*
D03*
D166*
X00598750Y00300250D02*
D03*
X00589750D02*
D03*
X00545150Y00260161D02*
D03*
X00554150D02*
D03*
X00395339Y00630103D02*
D03*
X00404339D02*
D03*
X00394500Y00640500D02*
D03*
X00403500D02*
D03*
X00400500Y00656750D02*
D03*
X00409500D02*
D03*
X00404500Y00605000D02*
D03*
X00395500D02*
D03*
X00419390Y00656774D02*
D03*
X00428390D02*
D03*
X00455500Y00642000D02*
D03*
X00446500D02*
D03*
X00274250Y00551000D02*
D03*
X00265250D02*
D03*
X00274250Y00561250D02*
D03*
X00265250D02*
D03*
X00568750Y00629750D02*
D03*
X00577750D02*
D03*
X00455250Y00422250D02*
D03*
X00446250D02*
D03*
X00433500Y00406000D02*
D03*
X00424500D02*
D03*
X00415143Y00518495D02*
D03*
X00424143D02*
D03*
X00400650Y00495000D02*
D03*
X00391650D02*
D03*
X00560490Y00421000D02*
D03*
X00551490D02*
D03*
X00527000Y00386000D02*
D03*
X00536000D02*
D03*
X00462500Y00513000D02*
D03*
X00471500Y00513000D02*
D03*
X00423991Y00415995D02*
D03*
X00432991Y00415995D02*
D03*
X00480500Y00399250D02*
D03*
X00489500D02*
D03*
X00536491Y00519995D02*
D03*
X00527491Y00519995D02*
D03*
X00448500Y00528000D02*
D03*
X00439500Y00528000D02*
D03*
X00512250Y00479000D02*
D03*
X00521250D02*
D03*
X00416500Y00488000D02*
D03*
X00425500Y00488000D02*
D03*
X00441500Y00464000D02*
D03*
X00432500D02*
D03*
X00414991Y00463995D02*
D03*
X00423991D02*
D03*
X00462500Y00446000D02*
D03*
X00471500D02*
D03*
X00416500Y00479000D02*
D03*
X00425500Y00479000D02*
D03*
X00408862Y00543907D02*
D03*
X00417862D02*
D03*
X00415143Y00528995D02*
D03*
X00424143D02*
D03*
X00496500Y00456000D02*
D03*
X00487500Y00456000D02*
D03*
X00415500Y00505000D02*
D03*
X00424500D02*
D03*
X00281750Y00497500D02*
D03*
X00272750D02*
D03*
X00503500Y00264250D02*
D03*
X00494500D02*
D03*
X00455750Y00455500D02*
D03*
X00464750D02*
D03*
D169*
X00464900Y00300000D02*
D03*
Y00284000D02*
D03*
D170*
X00567000Y00268750D02*
D03*
Y00259750D02*
D03*
X00459500Y00633000D02*
D03*
Y00624000D02*
D03*
X00383441Y00604921D02*
D03*
Y00595921D02*
D03*
X00287000Y00471750D02*
D03*
Y00480750D02*
D03*
X00551000Y00592000D02*
D03*
Y00601000D02*
D03*
X00355500Y00262000D02*
D03*
Y00271000D02*
D03*
X00400790Y00422924D02*
D03*
Y00431924D02*
D03*
X00464000Y00532500D02*
D03*
X00464000Y00523500D02*
D03*
X00382000Y00415500D02*
D03*
Y00406500D02*
D03*
X00391241Y00431995D02*
D03*
Y00422995D02*
D03*
X00528250Y00432250D02*
D03*
X00528250Y00441250D02*
D03*
X00545750Y00535500D02*
D03*
Y00544500D02*
D03*
X00480000Y00504500D02*
D03*
Y00495500D02*
D03*
X00463991Y00415495D02*
D03*
Y00424495D02*
D03*
X00489000Y00423850D02*
D03*
Y00432850D02*
D03*
X00497492Y00551675D02*
D03*
Y00542675D02*
D03*
X00520000Y00551500D02*
D03*
Y00542500D02*
D03*
X00399993Y00511495D02*
D03*
Y00520495D02*
D03*
X00463000Y00550250D02*
D03*
Y00541250D02*
D03*
X00392693Y00535495D02*
D03*
Y00544495D02*
D03*
X00408000Y00480500D02*
D03*
Y00489500D02*
D03*
X00425000Y00455500D02*
D03*
Y00446500D02*
D03*
X00439991Y00431495D02*
D03*
Y00440495D02*
D03*
X00545991Y00527495D02*
D03*
Y00518495D02*
D03*
X00543926Y00432812D02*
D03*
X00543926Y00441812D02*
D03*
X00455000Y00431500D02*
D03*
Y00440500D02*
D03*
X00544000Y00568500D02*
D03*
Y00559500D02*
D03*
X00521000Y00569500D02*
D03*
Y00560500D02*
D03*
X00488000Y00557750D02*
D03*
Y00566750D02*
D03*
X00563000Y00507250D02*
D03*
X00563000Y00498250D02*
D03*
X00553448Y00507241D02*
D03*
X00553448Y00498241D02*
D03*
X00375577Y00452756D02*
D03*
Y00443755D02*
D03*
X00365535Y00452756D02*
D03*
X00365535Y00443755D02*
D03*
X00373995Y00488357D02*
D03*
Y00497357D02*
D03*
X00363954Y00488357D02*
D03*
Y00497357D02*
D03*
X00464250Y00261700D02*
D03*
Y00270700D02*
D03*
X00631000Y00325000D02*
D03*
Y00316000D02*
D03*
X00276500Y00480750D02*
D03*
Y00471750D02*
D03*
X00556983Y00549562D02*
D03*
Y00540562D02*
D03*
X00567138Y00549562D02*
D03*
Y00540562D02*
D03*
X00462250Y00495000D02*
D03*
Y00504000D02*
D03*
D171*
X00447000Y00405000D02*
D03*
X00462000Y00405000D02*
D03*
X00431750Y00620500D02*
D03*
X00446750D02*
D03*
X00443750Y00390500D02*
D03*
X00428750D02*
D03*
X00571750Y00580000D02*
D03*
X00556750D02*
D03*
X00487500Y00480000D02*
D03*
X00472500D02*
D03*
X00440500D02*
D03*
X00455500D02*
D03*
D172*
X00609050Y00300250D02*
D03*
X00618450D02*
D03*
X00599450Y00653500D02*
D03*
X00590050D02*
D03*
X00414300Y00433000D02*
D03*
X00423700D02*
D03*
X00400700Y00408000D02*
D03*
X00391300D02*
D03*
X00554200Y00268750D02*
D03*
X00544800Y00268750D02*
D03*
X00423700Y00497000D02*
D03*
X00414300Y00497000D02*
D03*
X00642300Y00332000D02*
D03*
X00651700D02*
D03*
X00520700Y00449000D02*
D03*
X00511300D02*
D03*
X00400700Y00481000D02*
D03*
X00391300D02*
D03*
D173*
X00284500Y00624500D02*
D03*
Y00605500D02*
D03*
X00261500Y00615000D02*
D03*
D175*
X00480000Y00323250D02*
D03*
Y00305250D02*
D03*
D176*
X00395991Y00450995D02*
D03*
Y00468995D02*
D03*
X00377000Y00563500D02*
D03*
Y00581500D02*
D03*
D183*
X00664500Y00402500D02*
D03*
X00645500D02*
D03*
X00655000Y00425500D02*
D03*
D184*
X00593250Y00272250D02*
D03*
D185*
X00608250Y00262750D02*
D03*
Y00272250D02*
D03*
Y00281750D02*
D03*
X00578250D02*
D03*
X00578250Y00272250D02*
D03*
X00578250Y00262750D02*
D03*
D186*
X00303750Y00281850D02*
D03*
X00303750Y00294550D02*
D03*
X00303750Y00307250D02*
D03*
Y00319950D02*
D03*
X00360750D02*
D03*
Y00307250D02*
D03*
X00360750Y00294550D02*
D03*
X00360750Y00281850D02*
D03*
D187*
X00332250Y00300900D02*
D03*
D188*
X00626250Y00456500D02*
D03*
Y00441500D02*
D03*
Y00446500D02*
D03*
Y00366500D02*
D03*
Y00371500D02*
D03*
Y00376500D02*
D03*
Y00381500D02*
D03*
Y00386500D02*
D03*
Y00391500D02*
D03*
Y00396500D02*
D03*
Y00401500D02*
D03*
Y00406500D02*
D03*
X00581750Y00366500D02*
D03*
Y00371500D02*
D03*
Y00376500D02*
D03*
Y00381500D02*
D03*
Y00386500D02*
D03*
Y00391500D02*
D03*
Y00396500D02*
D03*
Y00401500D02*
D03*
Y00406500D02*
D03*
X00626250Y00561500D02*
D03*
Y00556500D02*
D03*
Y00551500D02*
D03*
Y00546500D02*
D03*
Y00541500D02*
D03*
Y00536500D02*
D03*
Y00531500D02*
D03*
Y00526500D02*
D03*
Y00521500D02*
D03*
Y00516500D02*
D03*
Y00511500D02*
D03*
Y00506500D02*
D03*
Y00501500D02*
D03*
Y00496500D02*
D03*
Y00491500D02*
D03*
Y00486500D02*
D03*
Y00481500D02*
D03*
Y00476500D02*
D03*
Y00471500D02*
D03*
Y00466500D02*
D03*
Y00461500D02*
D03*
Y00451500D02*
D03*
Y00436500D02*
D03*
Y00421500D02*
D03*
X00581750Y00561500D02*
D03*
Y00556500D02*
D03*
Y00551500D02*
D03*
Y00546500D02*
D03*
Y00541500D02*
D03*
Y00536500D02*
D03*
Y00531500D02*
D03*
Y00526500D02*
D03*
Y00521500D02*
D03*
Y00516500D02*
D03*
Y00511500D02*
D03*
Y00506500D02*
D03*
Y00501500D02*
D03*
Y00496500D02*
D03*
Y00491500D02*
D03*
Y00486500D02*
D03*
Y00481500D02*
D03*
Y00476500D02*
D03*
Y00471500D02*
D03*
Y00466500D02*
D03*
Y00461500D02*
D03*
Y00456500D02*
D03*
Y00451500D02*
D03*
Y00446500D02*
D03*
Y00441500D02*
D03*
Y00436500D02*
D03*
Y00421500D02*
D03*
Y00416500D02*
D03*
Y00411500D02*
D03*
Y00431500D02*
D03*
Y00426500D02*
D03*
X00626250Y00431500D02*
D03*
Y00426500D02*
D03*
Y00416500D02*
D03*
Y00411500D02*
D03*
X00346250Y00466500D02*
D03*
Y00471500D02*
D03*
X00301750Y00391500D02*
D03*
Y00396500D02*
D03*
X00346250Y00556500D02*
D03*
Y00561500D02*
D03*
Y00526500D02*
D03*
Y00531500D02*
D03*
X00301750Y00481500D02*
D03*
Y00486500D02*
D03*
Y00511500D02*
D03*
Y00516500D02*
D03*
Y00526500D02*
D03*
Y00531500D02*
D03*
X00346250Y00511500D02*
D03*
Y00516500D02*
D03*
X00301750Y00556500D02*
D03*
Y00561500D02*
D03*
X00346250Y00376500D02*
D03*
Y00381500D02*
D03*
Y00386500D02*
D03*
Y00401500D02*
D03*
Y00406500D02*
D03*
Y00411500D02*
D03*
X00301750Y00366500D02*
D03*
Y00371500D02*
D03*
Y00376500D02*
D03*
Y00381500D02*
D03*
Y00386500D02*
D03*
Y00401500D02*
D03*
Y00416500D02*
D03*
X00346250Y00551500D02*
D03*
Y00546500D02*
D03*
Y00541500D02*
D03*
Y00536500D02*
D03*
Y00521500D02*
D03*
Y00506500D02*
D03*
Y00501500D02*
D03*
Y00496500D02*
D03*
Y00491500D02*
D03*
Y00486500D02*
D03*
Y00481500D02*
D03*
Y00476500D02*
D03*
Y00461500D02*
D03*
Y00446500D02*
D03*
Y00431500D02*
D03*
Y00416500D02*
D03*
X00301750Y00551500D02*
D03*
Y00546500D02*
D03*
Y00541500D02*
D03*
Y00536500D02*
D03*
Y00521500D02*
D03*
Y00506500D02*
D03*
Y00501500D02*
D03*
Y00496500D02*
D03*
Y00491500D02*
D03*
Y00476500D02*
D03*
Y00461500D02*
D03*
Y00446500D02*
D03*
Y00431500D02*
D03*
Y00426500D02*
D03*
Y00421500D02*
D03*
X00346250Y00441500D02*
D03*
Y00436500D02*
D03*
Y00456500D02*
D03*
Y00451500D02*
D03*
Y00426500D02*
D03*
Y00421500D02*
D03*
X00301750Y00411500D02*
D03*
Y00406500D02*
D03*
X00346250Y00396500D02*
D03*
Y00391500D02*
D03*
X00301750Y00471500D02*
D03*
Y00466500D02*
D03*
Y00456500D02*
D03*
Y00451500D02*
D03*
Y00441500D02*
D03*
Y00436500D02*
D03*
X00346250Y00371500D02*
D03*
Y00366500D02*
D03*
D189*
X00514000Y00631500D02*
D03*
Y00625000D02*
D03*
X00551000Y00618500D02*
D03*
X00551000Y00625000D02*
D03*
X00551000Y00631500D02*
D03*
X00551000Y00638000D02*
D03*
X00514000Y00638000D02*
D03*
Y00618500D02*
D03*
D190*
X00532500Y00628250D02*
D03*
D191*
X00522750Y00609750D02*
D03*
X00529250Y00609750D02*
D03*
X00535750Y00609750D02*
D03*
X00542250Y00609750D02*
D03*
X00535750Y00646750D02*
D03*
X00529250D02*
D03*
X00522750D02*
D03*
D192*
X00484750Y00371500D02*
D03*
X00513750D02*
D03*
D193*
X00513470Y00346000D02*
D03*
X00497470D02*
D03*
X00430000Y00346158D02*
D03*
X00446000D02*
D03*
X00394250Y00346250D02*
D03*
X00410250D02*
D03*
X00549250Y00348500D02*
D03*
X00533250D02*
D03*
D194*
X00603750Y00310400D02*
D03*
Y00319600D02*
D03*
D195*
X00506200Y00331000D02*
D03*
Y00318300D02*
D03*
Y00305600D02*
D03*
Y00292900D02*
D03*
Y00280200D02*
D03*
X00518900Y00331000D02*
D03*
Y00318300D02*
D03*
X00518900Y00305600D02*
D03*
X00518900Y00292900D02*
D03*
Y00280200D02*
D03*
X00531600Y00331000D02*
D03*
Y00318300D02*
D03*
Y00305600D02*
D03*
Y00292900D02*
D03*
Y00280200D02*
D03*
X00544300Y00331000D02*
D03*
Y00318300D02*
D03*
X00544300Y00305600D02*
D03*
X00544300Y00292900D02*
D03*
Y00280200D02*
D03*
X00557000Y00331000D02*
D03*
Y00318300D02*
D03*
Y00305600D02*
D03*
Y00292900D02*
D03*
Y00280200D02*
D03*
X00386550Y00331400D02*
D03*
Y00318700D02*
D03*
Y00306000D02*
D03*
Y00293300D02*
D03*
Y00280600D02*
D03*
X00399250Y00331400D02*
D03*
Y00318700D02*
D03*
X00399250Y00306000D02*
D03*
X00399250Y00293300D02*
D03*
Y00280600D02*
D03*
X00411950Y00331400D02*
D03*
Y00318700D02*
D03*
Y00306000D02*
D03*
Y00293300D02*
D03*
Y00280600D02*
D03*
X00424650Y00331400D02*
D03*
Y00318700D02*
D03*
X00424650Y00306000D02*
D03*
X00424650Y00293300D02*
D03*
Y00280600D02*
D03*
X00437350Y00331400D02*
D03*
Y00318700D02*
D03*
Y00306000D02*
D03*
Y00293300D02*
D03*
Y00280600D02*
D03*
D196*
X00415323Y00455323D02*
D03*
X00408677Y00448677D02*
D03*
D197*
X00572818Y00640818D02*
D03*
X00579182Y00647182D02*
D03*
D198*
X00565250Y00367500D02*
D03*
X00537250D02*
D03*
X00418750Y00365000D02*
D03*
X00446750Y00365000D02*
D03*
X00447250Y00586250D02*
D03*
X00419250Y00586250D02*
D03*
D199*
X00666500Y00321500D02*
D03*
Y00302500D02*
D03*
X00643500Y00312000D02*
D03*
M02*
