G04 Layer_Color=2752767*
%FSAX24Y24*%
%MOIN*%
G70*
G01*
G75*
%ADD196C,0.0020*%
%ADD197C,0.0027*%
%ADD198C,0.0013*%
D196*
X012676Y010412D02*
Y010572D01*
X012836D01*
Y010412D01*
X012676D01*
X012184D02*
Y010572D01*
X012344D01*
Y010412D01*
X012184D01*
X024656Y011160D02*
X024576Y011320D01*
X024736D01*
X024656Y011160D01*
Y010373D02*
X024576Y010533D01*
X024736D01*
X024656Y010373D01*
X024415Y026038D02*
X024455Y026078D01*
X024495D01*
X024455Y026118D01*
X024495Y026158D01*
X024455D01*
X024415Y026198D01*
X024375Y026158D01*
X024335D01*
X024375Y026118D01*
X024335Y026078D01*
X024375D01*
X024415Y026038D01*
X022415D02*
X022455Y026078D01*
X022495D01*
X022455Y026118D01*
X022495Y026158D01*
X022455D01*
X022415Y026198D01*
X022375Y026158D01*
X022335D01*
X022375Y026118D01*
X022335Y026078D01*
X022375D01*
X022415Y026038D01*
X024415Y024038D02*
X024455Y024078D01*
X024495D01*
X024455Y024118D01*
X024495Y024158D01*
X024455D01*
X024415Y024198D01*
X024375Y024158D01*
X024335D01*
X024375Y024118D01*
X024335Y024078D01*
X024375D01*
X024415Y024038D01*
X022415D02*
X022455Y024078D01*
X022495D01*
X022455Y024118D01*
X022495Y024158D01*
X022455D01*
X022415Y024198D01*
X022375Y024158D01*
X022335D01*
X022375Y024118D01*
X022335Y024078D01*
X022375D01*
X022415Y024038D01*
X023335Y025038D02*
X023375Y025118D01*
X023335Y025198D01*
X023415Y025158D01*
X023495Y025198D01*
X023455Y025118D01*
X023495Y025038D01*
X023415Y025078D01*
X023335Y025038D01*
X025826Y022598D02*
Y022558D01*
X025906D01*
Y022598D01*
X025946D01*
Y022678D01*
X025906D01*
Y022718D01*
X025826D01*
Y022678D01*
X025786D01*
Y022598D01*
X025826D01*
Y017582D02*
Y017542D01*
X025906D01*
Y017582D01*
X025946D01*
Y017662D01*
X025906D01*
Y017702D01*
X025826D01*
Y017662D01*
X025786D01*
Y017582D01*
X025826D01*
X012188Y023890D02*
X012228D01*
X012268Y023930D01*
X012308Y023890D01*
X012348D01*
Y023930D01*
X012308Y023970D01*
X012348Y024010D01*
Y024050D01*
X012308D01*
X012268Y024010D01*
X012228Y024050D01*
X012188D01*
Y024010D01*
X012228Y023970D01*
X012188Y023930D01*
Y023890D01*
Y025890D02*
X012228D01*
X012268Y025930D01*
X012308Y025890D01*
X012348D01*
Y025930D01*
X012308Y025970D01*
X012348Y026010D01*
Y026050D01*
X012308D01*
X012268Y026010D01*
X012228Y026050D01*
X012188D01*
Y026010D01*
X012228Y025970D01*
X012188Y025930D01*
Y025890D01*
X014188D02*
X014228D01*
X014268Y025930D01*
X014308Y025890D01*
X014348D01*
Y025930D01*
X014308Y025970D01*
X014348Y026010D01*
Y026050D01*
X014308D01*
X014268Y026010D01*
X014228Y026050D01*
X014188D01*
Y026010D01*
X014228Y025970D01*
X014188Y025930D01*
Y025890D01*
Y023890D02*
X014228D01*
X014268Y023930D01*
X014308Y023890D01*
X014348D01*
Y023930D01*
X014308Y023970D01*
X014348Y024010D01*
Y024050D01*
X014308D01*
X014268Y024010D01*
X014228Y024050D01*
X014188D01*
Y024010D01*
X014228Y023970D01*
X014188Y023930D01*
Y023890D01*
X013268Y024890D02*
X013188Y025050D01*
X013348D01*
X013268Y024890D01*
X024251Y022953D02*
X024331Y023033D01*
X024411Y022953D01*
X024331Y022873D01*
X024251Y022953D01*
Y013583D02*
X024331Y013663D01*
X024411Y013583D01*
X024331Y013503D01*
X024251Y013583D01*
X013227Y022953D02*
X013307Y023033D01*
X013387Y022953D01*
X013307Y022873D01*
X013227Y022953D01*
Y013583D02*
X013307Y013663D01*
X013387Y013583D01*
X013307Y013503D01*
X013227Y013583D01*
X010707Y010707D02*
Y010867D01*
X010867D01*
Y010707D01*
X010707D01*
X010747Y010747D02*
Y010827D01*
X010827D01*
Y010747D01*
X010747D01*
X025668Y010707D02*
Y010867D01*
X025828D01*
Y010707D01*
X025668D01*
X025708Y010747D02*
Y010827D01*
X025788D01*
Y010747D01*
X025708D01*
X025668Y025668D02*
Y025828D01*
X025828D01*
Y025668D01*
X025668D01*
X025708Y025708D02*
Y025788D01*
X025788D01*
Y025708D01*
X025708D01*
X010707Y025668D02*
Y025828D01*
X010867D01*
Y025668D01*
X010707D01*
X010747Y025708D02*
Y025788D01*
X010827D01*
Y025708D01*
X010747D01*
X020904Y025953D02*
Y026113D01*
X021064D01*
Y025953D01*
X020904D01*
X020412D02*
Y026113D01*
X020572D01*
Y025953D01*
X020412D01*
X019920D02*
Y026113D01*
X020080D01*
Y025953D01*
X019920D01*
X019428D02*
Y026113D01*
X019588D01*
Y025953D01*
X019428D01*
X018936D02*
Y026113D01*
X019096D01*
Y025953D01*
X018936D01*
X028030Y025666D02*
Y025826D01*
X028190D01*
Y025666D01*
X028030D01*
X028070Y025706D02*
Y025786D01*
X028150D01*
Y025706D01*
X028070D01*
X042991Y025666D02*
Y025826D01*
X043151D01*
Y025666D01*
X042991D01*
X043031Y025706D02*
Y025786D01*
X043111D01*
Y025706D01*
X043031D01*
X042991Y010706D02*
Y010866D01*
X043151D01*
Y010706D01*
X042991D01*
X043031Y010746D02*
Y010826D01*
X043111D01*
Y010746D01*
X043031D01*
X028030Y010706D02*
Y010866D01*
X028190D01*
Y010706D01*
X028030D01*
X028070Y010746D02*
Y010826D01*
X028150D01*
Y010746D01*
X028070D01*
X030392Y022912D02*
X030472Y022992D01*
X030552Y022912D01*
X030472Y022832D01*
X030392Y022912D01*
X030392Y013620D02*
X030472Y013700D01*
X030552Y013620D01*
X030472Y013540D01*
X030392Y013620D01*
X041416Y022912D02*
X041496Y022992D01*
X041576Y022912D01*
X041496Y022832D01*
X041416Y022912D01*
X041416Y013620D02*
X041496Y013700D01*
X041576Y013620D01*
X041496Y013540D01*
X041416Y013620D01*
X030186Y010726D02*
Y010886D01*
X030346D01*
Y010726D01*
X030186D01*
X029694D02*
Y010886D01*
X029854D01*
Y010726D01*
X029694D01*
X011526Y014738D02*
X011446Y014898D01*
X011606D01*
X011526Y014738D01*
Y014778D02*
X011486Y014858D01*
X011566D01*
X011526Y014778D01*
Y014945D02*
X011446Y015105D01*
X011606D01*
X011526Y014945D01*
Y014985D02*
X011486Y015065D01*
X011566D01*
X011526Y014985D01*
X024281Y020373D02*
X024202Y020533D01*
X024362D01*
X024281Y020373D01*
Y020413D02*
X024241Y020493D01*
X024321D01*
X024281Y020413D01*
X024321Y020599D02*
X024241Y020759D01*
X024401D01*
X024321Y020599D01*
Y020639D02*
X024281Y020719D01*
X024361D01*
X024321Y020639D01*
X014692Y017981D02*
X014612Y018141D01*
X014772D01*
X014692Y017981D01*
Y018021D02*
X014652Y018101D01*
X014732D01*
X014692Y018021D01*
X014485Y017981D02*
X014405Y018141D01*
X014565D01*
X014485Y017981D01*
Y018021D02*
X014445Y018101D01*
X014525D01*
X014485Y018021D01*
X014692Y017169D02*
X014612Y017329D01*
X014772D01*
X014692Y017169D01*
Y017209D02*
X014652Y017289D01*
X014732D01*
X014692Y017209D01*
X014485Y017169D02*
X014405Y017329D01*
X014565D01*
X014485Y017169D01*
Y017209D02*
X014445Y017289D01*
X014525D01*
X014485Y017209D01*
X011348Y019477D02*
X011268Y019637D01*
X011428D01*
X011348Y019477D01*
Y019517D02*
X011308Y019597D01*
X011388D01*
X011348Y019517D01*
X016102Y025314D02*
X016022Y025474D01*
X016182D01*
X016102Y025314D01*
Y025354D02*
X016062Y025434D01*
X016142D01*
X016102Y025354D01*
X017319Y024959D02*
X017239Y025119D01*
X017399D01*
X017319Y024959D01*
Y024999D02*
X017279Y025079D01*
X017359D01*
X017319Y024999D01*
Y025314D02*
X017239Y025474D01*
X017399D01*
X017319Y025314D01*
Y025354D02*
X017279Y025434D01*
X017359D01*
X017319Y025354D01*
X016711Y024959D02*
X016631Y025119D01*
X016791D01*
X016711Y024959D01*
Y024999D02*
X016671Y025079D01*
X016751D01*
X016711Y024999D01*
X016102Y024959D02*
X016022Y025119D01*
X016182D01*
X016102Y024959D01*
Y024999D02*
X016062Y025079D01*
X016142D01*
X016102Y024999D01*
X016711Y025302D02*
X016631Y025462D01*
X016791D01*
X016711Y025302D01*
Y025342D02*
X016671Y025422D01*
X016751D01*
X016711Y025342D01*
X020940Y024329D02*
X020860Y024489D01*
X021020D01*
X020940Y024329D01*
Y024369D02*
X020900Y024449D01*
X020980D01*
X020940Y024369D01*
X020610Y024329D02*
X020530Y024489D01*
X020690D01*
X020610Y024329D01*
Y024369D02*
X020570Y024449D01*
X020650D01*
X020610Y024369D01*
X021270Y024329D02*
X021190Y024489D01*
X021350D01*
X021270Y024329D01*
Y024369D02*
X021230Y024449D01*
X021310D01*
X021270Y024369D01*
X020940Y024659D02*
X020860Y024819D01*
X021020D01*
X020940Y024659D01*
Y024699D02*
X020900Y024779D01*
X020980D01*
X020940Y024699D01*
X020610Y024659D02*
X020530Y024819D01*
X020690D01*
X020610Y024659D01*
Y024699D02*
X020570Y024779D01*
X020650D01*
X020610Y024699D01*
X021270Y024659D02*
X021190Y024819D01*
X021350D01*
X021270Y024659D01*
Y024699D02*
X021230Y024779D01*
X021310D01*
X021270Y024699D01*
Y024989D02*
X021190Y025149D01*
X021350D01*
X021270Y024989D01*
Y025029D02*
X021230Y025109D01*
X021310D01*
X021270Y025029D01*
X020610Y024989D02*
X020530Y025149D01*
X020690D01*
X020610Y024989D01*
Y025029D02*
X020570Y025109D01*
X020650D01*
X020610Y025029D01*
X020940Y024989D02*
X020860Y025149D01*
X021020D01*
X020940Y024989D01*
Y025029D02*
X020900Y025109D01*
X020980D01*
X020940Y025029D01*
X014478Y014014D02*
X014398Y014174D01*
X014558D01*
X014478Y014014D01*
Y014054D02*
X014438Y014134D01*
X014518D01*
X014478Y014054D01*
X016978Y023189D02*
X016898Y023349D01*
X017058D01*
X016978Y023189D01*
Y023229D02*
X016938Y023309D01*
X017018D01*
X016978Y023229D01*
X025945Y019185D02*
X025865Y019345D01*
X026025D01*
X025945Y019185D01*
Y019225D02*
X025905Y019305D01*
X025985D01*
X025945Y019225D01*
Y019391D02*
X025865Y019551D01*
X026025D01*
X025945Y019391D01*
Y019431D02*
X025905Y019511D01*
X025985D01*
X025945Y019431D01*
X022025Y021790D02*
X021945Y021950D01*
X022105D01*
X022025Y021790D01*
Y021830D02*
X021985Y021910D01*
X022065D01*
X022025Y021830D01*
X022232Y021790D02*
X022152Y021950D01*
X022312D01*
X022232Y021790D01*
Y021830D02*
X022192Y021910D01*
X022272D01*
X022232Y021830D01*
X016978Y022982D02*
X016898Y023142D01*
X017058D01*
X016978Y022982D01*
Y023022D02*
X016938Y023102D01*
X017018D01*
X016978Y023022D01*
X021102Y021967D02*
X021022Y022127D01*
X021182D01*
X021102Y021967D01*
Y022007D02*
X021062Y022087D01*
X021142D01*
X021102Y022007D01*
Y022282D02*
X021022Y022442D01*
X021182D01*
X021102Y022282D01*
Y022322D02*
X021062Y022402D01*
X021142D01*
X021102Y022322D01*
X022056Y019290D02*
X021976Y019450D01*
X022136D01*
X022056Y019290D01*
Y019330D02*
X022016Y019410D01*
X022096D01*
X022056Y019330D01*
X021850Y019290D02*
X021770Y019450D01*
X021930D01*
X021850Y019290D01*
Y019330D02*
X021810Y019410D01*
X021890D01*
X021850Y019330D01*
X019801Y023401D02*
X019721Y023561D01*
X019881D01*
X019801Y023401D01*
Y023441D02*
X019761Y023521D01*
X019841D01*
X019801Y023441D01*
Y023608D02*
X019721Y023768D01*
X019881D01*
X019801Y023608D01*
Y023648D02*
X019761Y023728D01*
X019841D01*
X019801Y023648D01*
X018885Y023401D02*
X018805Y023561D01*
X018965D01*
X018885Y023401D01*
Y023441D02*
X018845Y023521D01*
X018925D01*
X018885Y023441D01*
Y023608D02*
X018805Y023768D01*
X018965D01*
X018885Y023608D01*
Y023648D02*
X018845Y023728D01*
X018925D01*
X018885Y023648D01*
X018354Y022981D02*
X018274Y023141D01*
X018434D01*
X018354Y022981D01*
Y023021D02*
X018314Y023101D01*
X018394D01*
X018354Y023021D01*
X018147Y022981D02*
X018067Y023141D01*
X018227D01*
X018147Y022981D01*
Y023021D02*
X018107Y023101D01*
X018187D01*
X018147Y023021D01*
X012717Y014408D02*
X012637Y014568D01*
X012797D01*
X012717Y014408D01*
Y014448D02*
X012677Y014528D01*
X012757D01*
X012717Y014448D01*
X012510Y014408D02*
X012430Y014568D01*
X012590D01*
X012510Y014408D01*
Y014448D02*
X012470Y014528D01*
X012550D01*
X012510Y014448D01*
X010650Y017479D02*
X010570Y017639D01*
X010730D01*
X010650Y017479D01*
Y017519D02*
X010610Y017599D01*
X010690D01*
X010650Y017519D01*
Y017686D02*
X010570Y017846D01*
X010730D01*
X010650Y017686D01*
Y017726D02*
X010610Y017806D01*
X010690D01*
X010650Y017726D01*
X025000Y017297D02*
X024920Y017457D01*
X025080D01*
X025000Y017297D01*
Y017337D02*
X024960Y017417D01*
X025040D01*
X025000Y017337D01*
Y017504D02*
X024920Y017664D01*
X025080D01*
X025000Y017504D01*
Y017544D02*
X024960Y017624D01*
X025040D01*
X025000Y017544D01*
X010433Y019177D02*
X010353Y019337D01*
X010513D01*
X010433Y019177D01*
Y019217D02*
X010393Y019297D01*
X010473D01*
X010433Y019217D01*
Y019384D02*
X010353Y019544D01*
X010513D01*
X010433Y019384D01*
Y019424D02*
X010393Y019504D01*
X010473D01*
X010433Y019424D01*
X021732Y015668D02*
X021652Y015828D01*
X021812D01*
X021732Y015668D01*
Y015708D02*
X021692Y015788D01*
X021772D01*
X021732Y015708D01*
X021417Y015668D02*
X021337Y015828D01*
X021497D01*
X021417Y015668D01*
Y015708D02*
X021377Y015788D01*
X021457D01*
X021417Y015708D01*
X021732Y014989D02*
X021652Y015149D01*
X021812D01*
X021732Y014989D01*
Y015029D02*
X021692Y015109D01*
X021772D01*
X021732Y015029D01*
Y015196D02*
X021652Y015356D01*
X021812D01*
X021732Y015196D01*
Y015236D02*
X021692Y015316D01*
X021772D01*
X021732Y015236D01*
X025157Y016116D02*
X025077Y016276D01*
X025237D01*
X025157Y016116D01*
Y016156D02*
X025117Y016236D01*
X025197D01*
X025157Y016156D01*
Y016323D02*
X025077Y016483D01*
X025237D01*
X025157Y016323D01*
Y016363D02*
X025117Y016443D01*
X025197D01*
X025157Y016363D01*
X011212Y017873D02*
X011132Y018033D01*
X011292D01*
X011212Y017873D01*
Y017913D02*
X011172Y017993D01*
X011252D01*
X011212Y017913D01*
X011005Y017873D02*
X010925Y018033D01*
X011085D01*
X011005Y017873D01*
Y017913D02*
X010965Y017993D01*
X011045D01*
X011005Y017913D01*
X013974Y017691D02*
X013894Y017851D01*
X014054D01*
X013974Y017691D01*
Y017731D02*
X013934Y017811D01*
X014014D01*
X013974Y017731D01*
Y017897D02*
X013894Y018057D01*
X014054D01*
X013974Y017897D01*
Y017937D02*
X013934Y018017D01*
X014014D01*
X013974Y017937D01*
X012638Y017558D02*
X012558Y017718D01*
X012718D01*
X012638Y017558D01*
Y017598D02*
X012598Y017678D01*
X012678D01*
X012638Y017598D01*
X013996Y015919D02*
X013916Y016079D01*
X014076D01*
X013996Y015919D01*
Y015959D02*
X013956Y016039D01*
X014036D01*
X013996Y015959D01*
Y016126D02*
X013916Y016286D01*
X014076D01*
X013996Y016126D01*
Y016166D02*
X013956Y016246D01*
X014036D01*
X013996Y016166D01*
X011535Y015328D02*
X011455Y015488D01*
X011615D01*
X011535Y015328D01*
Y015368D02*
X011495Y015448D01*
X011575D01*
X011535Y015368D01*
Y015535D02*
X011455Y015695D01*
X011615D01*
X011535Y015535D01*
Y015575D02*
X011495Y015655D01*
X011575D01*
X011535Y015575D01*
X020787Y017558D02*
X020707Y017718D01*
X020867D01*
X020787Y017558D01*
Y017598D02*
X020747Y017678D01*
X020827D01*
X020787Y017598D01*
X021102Y017558D02*
X021022Y017718D01*
X021182D01*
X021102Y017558D01*
Y017598D02*
X021062Y017678D01*
X021142D01*
X021102Y017598D01*
X021417Y016298D02*
X021337Y016458D01*
X021497D01*
X021417Y016298D01*
Y016338D02*
X021377Y016418D01*
X021457D01*
X021417Y016338D01*
Y016613D02*
X021337Y016773D01*
X021497D01*
X021417Y016613D01*
Y016653D02*
X021377Y016733D01*
X021457D01*
X021417Y016653D01*
X011545Y016510D02*
X011465Y016670D01*
X011625D01*
X011545Y016510D01*
Y016550D02*
X011505Y016630D01*
X011585D01*
X011545Y016550D01*
Y016716D02*
X011465Y016876D01*
X011625D01*
X011545Y016716D01*
Y016756D02*
X011505Y016836D01*
X011585D01*
X011545Y016756D01*
X013140Y015904D02*
X013060Y016064D01*
X013220D01*
X013140Y015904D01*
Y015944D02*
X013100Y016024D01*
X013180D01*
X013140Y015944D01*
X013286Y016050D02*
X013206Y016210D01*
X013366D01*
X013286Y016050D01*
Y016090D02*
X013246Y016170D01*
X013326D01*
X013286Y016090D01*
X014232Y015328D02*
X014152Y015488D01*
X014312D01*
X014232Y015328D01*
Y015368D02*
X014192Y015448D01*
X014272D01*
X014232Y015368D01*
Y015535D02*
X014152Y015695D01*
X014312D01*
X014232Y015535D01*
Y015575D02*
X014192Y015655D01*
X014272D01*
X014232Y015575D01*
X019527Y016298D02*
X019447Y016458D01*
X019607D01*
X019527Y016298D01*
Y016338D02*
X019487Y016418D01*
X019567D01*
X019527Y016338D01*
Y016613D02*
X019447Y016773D01*
X019607D01*
X019527Y016613D01*
Y016653D02*
X019487Y016733D01*
X019567D01*
X019527Y016653D01*
X014732Y016510D02*
X014652Y016670D01*
X014812D01*
X014732Y016510D01*
Y016550D02*
X014692Y016630D01*
X014772D01*
X014732Y016550D01*
Y016716D02*
X014652Y016876D01*
X014812D01*
X014732Y016716D01*
Y016756D02*
X014692Y016836D01*
X014772D01*
X014732Y016756D01*
X017313Y022292D02*
X017233Y022452D01*
X017393D01*
X017313Y022292D01*
Y022332D02*
X017273Y022412D01*
X017353D01*
X017313Y022332D01*
Y022499D02*
X017233Y022659D01*
X017393D01*
X017313Y022499D01*
Y022539D02*
X017273Y022619D01*
X017353D01*
X017313Y022539D01*
X018354Y024003D02*
X018274Y024163D01*
X018434D01*
X018354Y024003D01*
Y024043D02*
X018314Y024123D01*
X018394D01*
X018354Y024043D01*
X018147Y024003D02*
X018067Y024163D01*
X018227D01*
X018147Y024003D01*
Y024043D02*
X018107Y024123D01*
X018187D01*
X018147Y024043D01*
X018415Y024831D02*
X018335Y024991D01*
X018495D01*
X018415Y024831D01*
Y024871D02*
X018375Y024951D01*
X018455D01*
X018415Y024871D01*
X018474Y024605D02*
X018394Y024765D01*
X018554D01*
X018474Y024605D01*
Y024645D02*
X018434Y024725D01*
X018514D01*
X018474Y024645D01*
X014042Y016984D02*
X013962Y017144D01*
X014122D01*
X014042Y016984D01*
Y017024D02*
X014002Y017104D01*
X014082D01*
X014042Y017024D01*
Y017191D02*
X013962Y017351D01*
X014122D01*
X014042Y017191D01*
Y017231D02*
X014002Y017311D01*
X014082D01*
X014042Y017231D01*
X020787Y021337D02*
X020707Y021497D01*
X020867D01*
X020787Y021337D01*
Y021377D02*
X020747Y021457D01*
X020827D01*
X020787Y021377D01*
Y021652D02*
X020707Y021812D01*
X020867D01*
X020787Y021652D01*
Y021692D02*
X020747Y021772D01*
X020827D01*
X020787Y021692D01*
X021102Y015983D02*
X021022Y016143D01*
X021182D01*
X021102Y015983D01*
Y016023D02*
X021062Y016103D01*
X021142D01*
X021102Y016023D01*
Y016298D02*
X021022Y016458D01*
X021182D01*
X021102Y016298D01*
Y016338D02*
X021062Y016418D01*
X021142D01*
X021102Y016338D01*
X022232Y020948D02*
X022152Y021108D01*
X022312D01*
X022232Y020948D01*
Y020988D02*
X022192Y021068D01*
X022272D01*
X022232Y020988D01*
X025787Y016062D02*
X025707Y016222D01*
X025867D01*
X025787Y016062D01*
Y016102D02*
X025747Y016182D01*
X025827D01*
X025787Y016102D01*
Y016268D02*
X025707Y016428D01*
X025867D01*
X025787Y016268D01*
Y016308D02*
X025747Y016388D01*
X025827D01*
X025787Y016308D01*
X022018Y013877D02*
X021938Y014037D01*
X022098D01*
X022018Y013877D01*
Y013917D02*
X021978Y013997D01*
X022058D01*
X022018Y013917D01*
X022864Y014054D02*
X022784Y014214D01*
X022944D01*
X022864Y014054D01*
Y014094D02*
X022824Y014174D01*
X022904D01*
X022864Y014094D01*
X023054Y014054D02*
X022974Y014214D01*
X023134D01*
X023054Y014054D01*
Y014094D02*
X023014Y014174D01*
X023094D01*
X023054Y014094D01*
X022116Y013503D02*
X022036Y013663D01*
X022196D01*
X022116Y013503D01*
Y013543D02*
X022076Y013623D01*
X022156D01*
X022116Y013543D01*
Y013709D02*
X022036Y013869D01*
X022196D01*
X022116Y013709D01*
Y013749D02*
X022076Y013829D01*
X022156D01*
X022116Y013749D01*
X021919Y013709D02*
X021839Y013869D01*
X021999D01*
X021919Y013709D01*
Y013749D02*
X021879Y013829D01*
X021959D01*
X021919Y013749D01*
Y013503D02*
X021839Y013663D01*
X021999D01*
X021919Y013503D01*
Y013543D02*
X021879Y013623D01*
X021959D01*
X021919Y013543D01*
X023435Y013394D02*
X023355Y013554D01*
X023515D01*
X023435Y013394D01*
Y013434D02*
X023395Y013514D01*
X023475D01*
X023435Y013434D01*
Y013611D02*
X023355Y013771D01*
X023515D01*
X023435Y013611D01*
Y013651D02*
X023395Y013731D01*
X023475D01*
X023435Y013651D01*
Y013827D02*
X023355Y013987D01*
X023515D01*
X023435Y013827D01*
Y013867D02*
X023395Y013947D01*
X023475D01*
X023435Y013867D01*
X016978Y023404D02*
X016898Y023564D01*
X017058D01*
X016978Y023404D01*
Y023444D02*
X016938Y023524D01*
X017018D01*
X016978Y023444D01*
X021673Y013060D02*
X021593Y013220D01*
X021753D01*
X021673Y013060D01*
Y013100D02*
X021633Y013180D01*
X021713D01*
X021673Y013100D01*
X023245Y014054D02*
X023165Y014214D01*
X023325D01*
X023245Y014054D01*
Y014094D02*
X023205Y014174D01*
X023285D01*
X023245Y014094D01*
X013023Y017596D02*
X012943Y017756D01*
X013103D01*
X013023Y017596D01*
Y017636D02*
X012983Y017716D01*
X013063D01*
X013023Y017636D01*
X014626Y016318D02*
X014546Y016478D01*
X014706D01*
X014626Y016318D01*
Y016358D02*
X014586Y016438D01*
X014666D01*
X014626Y016358D01*
X010669Y018207D02*
X010589Y018367D01*
X010749D01*
X010669Y018207D01*
Y018247D02*
X010629Y018327D01*
X010709D01*
X010669Y018247D01*
X013218Y017499D02*
X013139Y017659D01*
X013298D01*
X013218Y017499D01*
Y017539D02*
X013178Y017619D01*
X013259D01*
X013218Y017539D01*
X021713Y010796D02*
X021633Y010956D01*
X021793D01*
X021713Y010796D01*
Y010836D02*
X021673Y010916D01*
X021753D01*
X021713Y010836D01*
X011654Y014044D02*
X011574Y014204D01*
X011734D01*
X011654Y014044D01*
Y014084D02*
X011614Y014164D01*
X011694D01*
X011654Y014084D01*
X011142Y022036D02*
X011062Y022196D01*
X011222D01*
X011142Y022036D01*
Y022076D02*
X011102Y022156D01*
X011182D01*
X011142Y022076D01*
X022953Y012617D02*
X022873Y012777D01*
X023033D01*
X022953Y012617D01*
Y012657D02*
X022913Y012737D01*
X022993D01*
X022953Y012657D01*
X023568Y011327D02*
X023488Y011487D01*
X023648D01*
X023568Y011327D01*
Y011367D02*
X023528Y011447D01*
X023608D01*
X023568Y011367D01*
X023184Y011327D02*
X023104Y011487D01*
X023264D01*
X023184Y011327D01*
Y011367D02*
X023144Y011447D01*
X023224D01*
X023184Y011367D01*
X023376Y011327D02*
X023296Y011487D01*
X023456D01*
X023376Y011327D01*
Y011367D02*
X023336Y011447D01*
X023416D01*
X023376Y011367D01*
X022372Y010983D02*
X022292Y011143D01*
X022452D01*
X022372Y010983D01*
Y011023D02*
X022332Y011103D01*
X022412D01*
X022372Y011023D01*
X017952Y018188D02*
X017872Y018348D01*
X018032D01*
X017952Y018188D01*
Y018228D02*
X017912Y018308D01*
X017992D01*
X017952Y018228D01*
X018582Y017873D02*
X018502Y018033D01*
X018662D01*
X018582Y017873D01*
Y017913D02*
X018542Y017993D01*
X018622D01*
X018582Y017913D01*
X017322Y016298D02*
X017242Y016458D01*
X017402D01*
X017322Y016298D01*
Y016338D02*
X017283Y016418D01*
X017363D01*
X017322Y016338D01*
X019842Y020077D02*
X019762Y020237D01*
X019922D01*
X019842Y020077D01*
Y020117D02*
X019802Y020197D01*
X019882D01*
X019842Y020117D01*
X019527Y016928D02*
X019447Y017088D01*
X019607D01*
X019527Y016928D01*
Y016968D02*
X019487Y017048D01*
X019567D01*
X019527Y016968D01*
X011014Y022912D02*
X010934Y023072D01*
X011094D01*
X011014Y022912D01*
Y022952D02*
X010974Y023032D01*
X011054D01*
X011014Y022952D01*
X010433Y022961D02*
X010353Y023121D01*
X010513D01*
X010433Y022961D01*
Y023001D02*
X010393Y023081D01*
X010473D01*
X010433Y023001D01*
X011348Y024871D02*
X011268Y025031D01*
X011428D01*
X011348Y024871D01*
Y024911D02*
X011308Y024991D01*
X011388D01*
X011348Y024911D01*
X010335Y021219D02*
X010255Y021379D01*
X010415D01*
X010335Y021219D01*
Y021259D02*
X010295Y021339D01*
X010375D01*
X010335Y021259D01*
X016024Y010314D02*
X015944Y010474D01*
X016104D01*
X016024Y010314D01*
Y010354D02*
X015984Y010434D01*
X016064D01*
X016024Y010354D01*
X018543Y010668D02*
X018463Y010828D01*
X018623D01*
X018543Y010668D01*
Y010708D02*
X018503Y010788D01*
X018583D01*
X018543Y010708D01*
X022648Y012656D02*
X022568Y012816D01*
X022728D01*
X022648Y012656D01*
Y012696D02*
X022608Y012776D01*
X022688D01*
X022648Y012696D01*
X011545Y016249D02*
X011465Y016409D01*
X011625D01*
X011545Y016249D01*
Y016289D02*
X011505Y016369D01*
X011585D01*
X011545Y016289D01*
X013947Y014940D02*
X013867Y015100D01*
X014027D01*
X013947Y014940D01*
Y014980D02*
X013907Y015060D01*
X013987D01*
X013947Y014980D01*
X012264Y014408D02*
X012184Y014568D01*
X012344D01*
X012264Y014408D01*
Y014448D02*
X012224Y014528D01*
X012304D01*
X012264Y014448D01*
X013002Y016859D02*
X012922Y017019D01*
X013082D01*
X013002Y016859D01*
Y016899D02*
X012962Y016979D01*
X013042D01*
X013002Y016899D01*
X012638Y018060D02*
X012558Y018220D01*
X012718D01*
X012638Y018060D01*
Y018100D02*
X012598Y018180D01*
X012678D01*
X012638Y018100D01*
X012687Y017804D02*
X012607Y017964D01*
X012767D01*
X012687Y017804D01*
Y017844D02*
X012647Y017924D01*
X012727D01*
X012687Y017844D01*
X010423Y022686D02*
X010343Y022846D01*
X010503D01*
X010423Y022686D01*
Y022726D02*
X010383Y022806D01*
X010463D01*
X010423Y022726D01*
X011063Y021731D02*
X010983Y021891D01*
X011143D01*
X011063Y021731D01*
Y021771D02*
X011023Y021851D01*
X011103D01*
X011063Y021771D01*
X011132Y021436D02*
X011052Y021596D01*
X011212D01*
X011132Y021436D01*
Y021476D02*
X011092Y021556D01*
X011172D01*
X011132Y021476D01*
X010827Y021249D02*
X010747Y021409D01*
X010907D01*
X010827Y021249D01*
Y021289D02*
X010787Y021369D01*
X010867D01*
X010827Y021289D01*
X012215Y017499D02*
X012135Y017659D01*
X012295D01*
X012215Y017499D01*
Y017539D02*
X012175Y017619D01*
X012255D01*
X012215Y017539D01*
X014065Y019448D02*
X013985Y019608D01*
X014145D01*
X014065Y019448D01*
Y019488D02*
X014025Y019568D01*
X014105D01*
X014065Y019488D01*
X020472Y019762D02*
X020392Y019922D01*
X020552D01*
X020472Y019762D01*
Y019802D02*
X020432Y019882D01*
X020512D01*
X020472Y019802D01*
X020157Y019762D02*
X020077Y019922D01*
X020237D01*
X020157Y019762D01*
Y019802D02*
X020117Y019882D01*
X020197D01*
X020157Y019802D01*
X019842Y019762D02*
X019762Y019922D01*
X019922D01*
X019842Y019762D01*
Y019802D02*
X019802Y019882D01*
X019882D01*
X019842Y019802D01*
X020472Y019447D02*
X020392Y019607D01*
X020552D01*
X020472Y019447D01*
Y019487D02*
X020432Y019567D01*
X020512D01*
X020472Y019487D01*
X020157Y019447D02*
X020077Y019607D01*
X020237D01*
X020157Y019447D01*
Y019487D02*
X020117Y019567D01*
X020197D01*
X020157Y019487D01*
X021102Y017243D02*
X021022Y017403D01*
X021182D01*
X021102Y017243D01*
Y017283D02*
X021062Y017363D01*
X021142D01*
X021102Y017283D01*
Y016613D02*
X021022Y016773D01*
X021182D01*
X021102Y016613D01*
Y016653D02*
X021062Y016733D01*
X021142D01*
X021102Y016653D01*
X024695Y014024D02*
X024615Y014184D01*
X024775D01*
X024695Y014024D01*
Y014064D02*
X024655Y014144D01*
X024735D01*
X024695Y014064D01*
X024144Y014202D02*
X024064Y014361D01*
X024224D01*
X024144Y014202D01*
Y014241D02*
X024104Y014322D01*
X024184D01*
X024144Y014241D01*
X024006Y013158D02*
X023926Y013318D01*
X024086D01*
X024006Y013158D01*
Y013198D02*
X023966Y013278D01*
X024046D01*
X024006Y013198D01*
X025325Y011652D02*
X025245Y011812D01*
X025405D01*
X025325Y011652D01*
Y011692D02*
X025285Y011772D01*
X025365D01*
X025325Y011692D01*
X024262Y010648D02*
X024182Y010808D01*
X024342D01*
X024262Y010648D01*
Y010688D02*
X024222Y010768D01*
X024302D01*
X024262Y010688D01*
X021112Y011200D02*
X021032Y011360D01*
X021192D01*
X021112Y011200D01*
Y011240D02*
X021072Y011320D01*
X021152D01*
X021112Y011240D01*
X020138Y010678D02*
X020058Y010838D01*
X020218D01*
X020138Y010678D01*
Y010718D02*
X020098Y010798D01*
X020178D01*
X020138Y010718D01*
X020384Y010196D02*
X020304Y010356D01*
X020464D01*
X020384Y010196D01*
Y010236D02*
X020344Y010316D01*
X020424D01*
X020384Y010236D01*
X021703Y011160D02*
X021623Y011320D01*
X021783D01*
X021703Y011160D01*
Y011200D02*
X021663Y011280D01*
X021743D01*
X021703Y011200D01*
X019468Y010707D02*
X019389Y010867D01*
X019548D01*
X019468Y010707D01*
Y010747D02*
X019428Y010827D01*
X019509D01*
X019468Y010747D01*
X022333Y011239D02*
X022253Y011399D01*
X022413D01*
X022333Y011239D01*
Y011279D02*
X022293Y011359D01*
X022373D01*
X022333Y011279D01*
X022063Y010511D02*
X021983Y010671D01*
X022143D01*
X022063Y010511D01*
Y010551D02*
X022023Y010631D01*
X022103D01*
X022063Y010551D01*
X024626Y011564D02*
X024546Y011724D01*
X024706D01*
X024626Y011564D01*
Y011604D02*
X024586Y011684D01*
X024666D01*
X024626Y011604D01*
X024823Y011564D02*
X024743Y011724D01*
X024903D01*
X024823Y011564D01*
Y011604D02*
X024783Y011684D01*
X024863D01*
X024823Y011604D01*
X025020Y011564D02*
X024940Y011724D01*
X025100D01*
X025020Y011564D01*
Y011604D02*
X024980Y011684D01*
X025060D01*
X025020Y011604D01*
X024626Y011761D02*
X024546Y011921D01*
X024706D01*
X024626Y011761D01*
Y011801D02*
X024586Y011881D01*
X024666D01*
X024626Y011801D01*
X024823Y011761D02*
X024743Y011921D01*
X024903D01*
X024823Y011761D01*
Y011801D02*
X024783Y011881D01*
X024863D01*
X024823Y011801D01*
X025020Y011761D02*
X024940Y011921D01*
X025100D01*
X025020Y011761D01*
Y011801D02*
X024980Y011881D01*
X025060D01*
X025020Y011801D01*
X025600Y011928D02*
X025520Y012088D01*
X025680D01*
X025600Y011928D01*
Y011968D02*
X025560Y012048D01*
X025640D01*
X025600Y011968D01*
X024213Y013020D02*
X024133Y013180D01*
X024293D01*
X024213Y013020D01*
Y013060D02*
X024173Y013140D01*
X024253D01*
X024213Y013060D01*
X024222Y010274D02*
X024142Y010434D01*
X024302D01*
X024222Y010274D01*
Y010314D02*
X024182Y010394D01*
X024262D01*
X024222Y010314D01*
X020472Y017243D02*
X020392Y017403D01*
X020552D01*
X020472Y017243D01*
Y017283D02*
X020432Y017363D01*
X020512D01*
X020472Y017283D01*
X022175Y011705D02*
X022095Y011865D01*
X022255D01*
X022175Y011705D01*
Y011745D02*
X022135Y011825D01*
X022215D01*
X022175Y011745D01*
X018858Y015314D02*
X018778Y015474D01*
X018938D01*
X018858Y015314D01*
Y015354D02*
X018818Y015434D01*
X018898D01*
X018858Y015354D01*
X012608Y020629D02*
X012528Y020789D01*
X012688D01*
X012608Y020629D01*
Y020669D02*
X012568Y020749D01*
X012648D01*
X012608Y020669D01*
X011476Y020638D02*
X011396Y020798D01*
X011556D01*
X011476Y020638D01*
Y020679D02*
X011436Y020759D01*
X011516D01*
X011476Y020679D01*
X021220Y014851D02*
X021140Y015011D01*
X021300D01*
X021220Y014851D01*
Y014891D02*
X021180Y014971D01*
X021260D01*
X021220Y014891D01*
X022313Y013296D02*
X022233Y013456D01*
X022393D01*
X022313Y013296D01*
Y013336D02*
X022273Y013416D01*
X022353D01*
X022313Y013336D01*
X023435Y014054D02*
X023355Y014214D01*
X023515D01*
X023435Y014054D01*
Y014094D02*
X023395Y014174D01*
X023475D01*
X023435Y014094D01*
X022559Y019703D02*
X022479Y019863D01*
X022639D01*
X022559Y019703D01*
Y019743D02*
X022519Y019823D01*
X022599D01*
X022559Y019743D01*
X022593Y019467D02*
X022513Y019627D01*
X022673D01*
X022593Y019467D01*
Y019507D02*
X022553Y019587D01*
X022633D01*
X022593Y019507D01*
X013839Y022715D02*
X013759Y022875D01*
X013919D01*
X013839Y022715D01*
Y022755D02*
X013799Y022835D01*
X013879D01*
X013839Y022755D01*
X024999Y014537D02*
X024919Y014697D01*
X025079D01*
X024999Y014537D01*
Y014577D02*
X024959Y014657D01*
X025039D01*
X024999Y014577D01*
X011545Y018119D02*
X011465Y018279D01*
X011625D01*
X011545Y018119D01*
Y018159D02*
X011505Y018239D01*
X011585D01*
X011545Y018159D01*
X011417Y017942D02*
X011337Y018102D01*
X011497D01*
X011417Y017942D01*
Y017982D02*
X011377Y018062D01*
X011457D01*
X011417Y017982D01*
X017008Y022282D02*
X016928Y022442D01*
X017088D01*
X017008Y022282D01*
Y022322D02*
X016968Y022402D01*
X017048D01*
X017008Y022322D01*
X021949Y014979D02*
X021869Y015139D01*
X022029D01*
X021949Y014979D01*
Y015019D02*
X021909Y015099D01*
X021989D01*
X021949Y015019D01*
X025807Y015855D02*
X025727Y016015D01*
X025887D01*
X025807Y015855D01*
Y015895D02*
X025767Y015975D01*
X025847D01*
X025807Y015895D01*
X018701Y022745D02*
X018621Y022905D01*
X018781D01*
X018701Y022745D01*
Y022785D02*
X018661Y022865D01*
X018741D01*
X018701Y022785D01*
X026132Y019300D02*
X026052Y019460D01*
X026212D01*
X026132Y019300D01*
Y019340D02*
X026092Y019420D01*
X026172D01*
X026132Y019340D01*
X026053Y020786D02*
X025973Y020946D01*
X026133D01*
X026053Y020786D01*
Y020826D02*
X026013Y020906D01*
X026093D01*
X026053Y020826D01*
X019961Y022715D02*
X019881Y022875D01*
X020041D01*
X019961Y022715D01*
Y022755D02*
X019921Y022835D01*
X020001D01*
X019961Y022755D01*
X018789Y023847D02*
X018709Y024007D01*
X018869D01*
X018789Y023847D01*
Y023887D02*
X018749Y023967D01*
X018829D01*
X018789Y023887D01*
X018583Y024005D02*
X018503Y024165D01*
X018663D01*
X018583Y024005D01*
Y024045D02*
X018543Y024125D01*
X018623D01*
X018583Y024045D01*
X018691Y025314D02*
X018611Y025474D01*
X018771D01*
X018691Y025314D01*
Y025354D02*
X018651Y025434D01*
X018731D01*
X018691Y025354D01*
X024301Y015009D02*
X024221Y015169D01*
X024381D01*
X024301Y015009D01*
Y015049D02*
X024261Y015129D01*
X024341D01*
X024301Y015049D01*
X024350Y015343D02*
X024270Y015503D01*
X024430D01*
X024350Y015343D01*
Y015383D02*
X024310Y015463D01*
X024390D01*
X024350Y015383D01*
X022116Y013296D02*
X022036Y013456D01*
X022196D01*
X022116Y013296D01*
Y013336D02*
X022076Y013416D01*
X022156D01*
X022116Y013336D01*
X024596Y013030D02*
X024516Y013190D01*
X024676D01*
X024596Y013030D01*
Y013070D02*
X024556Y013150D01*
X024636D01*
X024596Y013070D01*
X021919Y013296D02*
X021839Y013456D01*
X021999D01*
X021919Y013296D01*
Y013336D02*
X021879Y013416D01*
X021959D01*
X021919Y013336D01*
X021526Y013296D02*
X021446Y013456D01*
X021606D01*
X021526Y013296D01*
Y013336D02*
X021486Y013416D01*
X021566D01*
X021526Y013336D01*
X021732Y014024D02*
X021652Y014184D01*
X021812D01*
X021732Y014024D01*
Y014064D02*
X021692Y014144D01*
X021772D01*
X021732Y014064D01*
X021722Y013296D02*
X021642Y013456D01*
X021802D01*
X021722Y013296D01*
Y013336D02*
X021682Y013416D01*
X021762D01*
X021722Y013336D01*
X021673Y012784D02*
X021593Y012944D01*
X021753D01*
X021673Y012784D01*
Y012824D02*
X021633Y012904D01*
X021713D01*
X021673Y012824D01*
X020679Y012952D02*
X020599Y013111D01*
X020759D01*
X020679Y012952D01*
Y012991D02*
X020639Y013072D01*
X020719D01*
X020679Y012991D01*
X018602Y014142D02*
X018522Y014302D01*
X018682D01*
X018602Y014142D01*
Y014182D02*
X018562Y014262D01*
X018642D01*
X018602Y014182D01*
X017106Y014477D02*
X017026Y014637D01*
X017186D01*
X017106Y014477D01*
Y014517D02*
X017066Y014597D01*
X017146D01*
X017106Y014517D01*
X016910Y014674D02*
X016830Y014834D01*
X016990D01*
X016910Y014674D01*
Y014714D02*
X016870Y014794D01*
X016950D01*
X016910Y014714D01*
X019734Y014959D02*
X019654Y015119D01*
X019814D01*
X019734Y014959D01*
Y014999D02*
X019694Y015079D01*
X019774D01*
X019734Y014999D01*
X019842Y015353D02*
X019762Y015513D01*
X019922D01*
X019842Y015353D01*
Y015393D02*
X019802Y015473D01*
X019882D01*
X019842Y015393D01*
X019527Y015353D02*
X019447Y015513D01*
X019607D01*
X019527Y015353D01*
Y015393D02*
X019487Y015473D01*
X019567D01*
X019527Y015393D01*
X015374Y024113D02*
X015294Y024273D01*
X015454D01*
X015374Y024113D01*
Y024153D02*
X015334Y024233D01*
X015414D01*
X015374Y024153D01*
X015925Y023257D02*
X015845Y023417D01*
X016005D01*
X015925Y023257D01*
Y023297D02*
X015885Y023377D01*
X015965D01*
X015925Y023297D01*
X015098Y024083D02*
X015018Y024243D01*
X015178D01*
X015098Y024083D01*
Y024123D02*
X015058Y024203D01*
X015138D01*
X015098Y024123D01*
X015571Y024398D02*
X015491Y024558D01*
X015651D01*
X015571Y024398D01*
Y024438D02*
X015531Y024518D01*
X015611D01*
X015571Y024438D01*
X016909Y023749D02*
X016829Y023909D01*
X016989D01*
X016909Y023749D01*
Y023789D02*
X016869Y023869D01*
X016949D01*
X016909Y023789D01*
X021932Y017107D02*
X021852Y017267D01*
X022012D01*
X021932Y017107D01*
Y017147D02*
X021892Y017227D01*
X021972D01*
X021932Y017147D01*
X019842Y015983D02*
X019762Y016143D01*
X019922D01*
X019842Y015983D01*
Y016023D02*
X019802Y016103D01*
X019882D01*
X019842Y016023D01*
X016063Y018188D02*
X015983Y018348D01*
X016143D01*
X016063Y018188D01*
Y018228D02*
X016023Y018308D01*
X016103D01*
X016063Y018228D01*
X014724Y015550D02*
X014644Y015710D01*
X014804D01*
X014724Y015550D01*
Y015590D02*
X014684Y015670D01*
X014764D01*
X014724Y015590D01*
X019144Y022745D02*
X019064Y022905D01*
X019224D01*
X019144Y022745D01*
Y022785D02*
X019104Y022865D01*
X019184D01*
X019144Y022785D01*
X021004Y014851D02*
X020924Y015011D01*
X021084D01*
X021004Y014851D01*
Y014891D02*
X020964Y014971D01*
X021044D01*
X021004Y014891D01*
X020718Y014620D02*
X020638Y014780D01*
X020798D01*
X020718Y014620D01*
Y014660D02*
X020678Y014740D01*
X020758D01*
X020718Y014660D01*
X015276Y014261D02*
X015196Y014421D01*
X015356D01*
X015276Y014261D01*
Y014301D02*
X015236Y014381D01*
X015316D01*
X015276Y014301D01*
Y014054D02*
X015196Y014214D01*
X015356D01*
X015276Y014054D01*
Y014094D02*
X015236Y014174D01*
X015316D01*
X015276Y014094D01*
X019842Y019447D02*
X019762Y019607D01*
X019922D01*
X019842Y019447D01*
Y019487D02*
X019802Y019567D01*
X019882D01*
X019842Y019487D01*
X022165Y015196D02*
X022085Y015356D01*
X022245D01*
X022165Y015196D01*
Y015236D02*
X022125Y015316D01*
X022205D01*
X022165Y015236D01*
X019842Y019132D02*
X019762Y019292D01*
X019922D01*
X019842Y019132D01*
Y019172D02*
X019802Y019252D01*
X019882D01*
X019842Y019172D01*
X024345Y021239D02*
X024265Y021399D01*
X024425D01*
X024345Y021239D01*
Y021279D02*
X024305Y021359D01*
X024385D01*
X024345Y021279D01*
X022545Y018472D02*
X022465Y018632D01*
X022625D01*
X022545Y018472D01*
Y018512D02*
X022505Y018592D01*
X022585D01*
X022545Y018512D01*
X022598Y021495D02*
X022518Y021655D01*
X022678D01*
X022598Y021495D01*
Y021535D02*
X022558Y021615D01*
X022638D01*
X022598Y021535D01*
X022480Y020930D02*
X022400Y021090D01*
X022560D01*
X022480Y020930D01*
Y020970D02*
X022440Y021050D01*
X022520D01*
X022480Y020970D01*
X023646Y022912D02*
X023566Y023072D01*
X023726D01*
X023646Y022912D01*
Y022952D02*
X023606Y023032D01*
X023686D01*
X023646Y022952D01*
X020157Y020392D02*
X020077Y020552D01*
X020237D01*
X020157Y020392D01*
Y020432D02*
X020117Y020512D01*
X020197D01*
X020157Y020432D01*
X015319Y026227D02*
X015239Y026387D01*
X015399D01*
X015319Y026227D01*
Y026267D02*
X015279Y026347D01*
X015359D01*
X015319Y026267D01*
X014422Y019798D02*
X014342Y019958D01*
X014502D01*
X014422Y019798D01*
Y019838D02*
X014382Y019918D01*
X014462D01*
X014422Y019838D01*
X017637Y021652D02*
X017557Y021812D01*
X017717D01*
X017637Y021652D01*
Y021692D02*
X017597Y021772D01*
X017677D01*
X017637Y021692D01*
X020158Y021337D02*
X020078Y021497D01*
X020238D01*
X020158Y021337D01*
Y021377D02*
X020118Y021457D01*
X020198D01*
X020158Y021377D01*
X020158Y021652D02*
X020078Y021812D01*
X020238D01*
X020158Y021652D01*
Y021692D02*
X020118Y021772D01*
X020198D01*
X020158Y021692D01*
X017795Y026101D02*
X017715Y026261D01*
X017875D01*
X017795Y026101D01*
Y026141D02*
X017755Y026221D01*
X017835D01*
X017795Y026141D01*
X018583Y021967D02*
X018503Y022127D01*
X018663D01*
X018583Y021967D01*
Y022007D02*
X018543Y022087D01*
X018623D01*
X018583Y022007D01*
X025557Y018538D02*
X025477Y018698D01*
X025637D01*
X025557Y018538D01*
Y018578D02*
X025517Y018658D01*
X025597D01*
X025557Y018578D01*
X021417Y021653D02*
X021337Y021813D01*
X021497D01*
X021417Y021653D01*
Y021693D02*
X021377Y021773D01*
X021457D01*
X021417Y021693D01*
X021732Y022282D02*
X021652Y022442D01*
X021812D01*
X021732Y022282D01*
Y022322D02*
X021692Y022402D01*
X021772D01*
X021732Y022322D01*
X021417Y020077D02*
X021337Y020237D01*
X021497D01*
X021417Y020077D01*
Y020117D02*
X021377Y020197D01*
X021457D01*
X021417Y020117D01*
X019331Y022577D02*
X019251Y022737D01*
X019411D01*
X019331Y022577D01*
Y022617D02*
X019291Y022697D01*
X019371D01*
X019331Y022617D01*
X020718Y014407D02*
X020638Y014567D01*
X020798D01*
X020718Y014407D01*
Y014447D02*
X020678Y014527D01*
X020758D01*
X020718Y014447D01*
X014183Y020845D02*
X014103Y021005D01*
X014263D01*
X014183Y020845D01*
Y020885D02*
X014143Y020965D01*
X014223D01*
X014183Y020885D01*
X013986Y021239D02*
X013906Y021399D01*
X014066D01*
X013986Y021239D01*
Y021279D02*
X013946Y021359D01*
X014026D01*
X013986Y021279D01*
Y021436D02*
X013906Y021596D01*
X014066D01*
X013986Y021436D01*
Y021476D02*
X013946Y021556D01*
X014026D01*
X013986Y021476D01*
X013278Y021829D02*
X013198Y021989D01*
X013358D01*
X013278Y021829D01*
Y021869D02*
X013238Y021949D01*
X013318D01*
X013278Y021869D01*
X013986Y022026D02*
X013906Y022186D01*
X014066D01*
X013986Y022026D01*
Y022066D02*
X013946Y022146D01*
X014026D01*
X013986Y022066D01*
X021417Y015983D02*
X021337Y016143D01*
X021497D01*
X021417Y015983D01*
Y016023D02*
X021377Y016103D01*
X021457D01*
X021417Y016023D01*
X020787Y018817D02*
X020707Y018977D01*
X020867D01*
X020787Y018817D01*
Y018857D02*
X020747Y018937D01*
X020827D01*
X020787Y018857D01*
X025557Y021538D02*
X025477Y021698D01*
X025637D01*
X025557Y021538D01*
Y021578D02*
X025517Y021658D01*
X025597D01*
X025557Y021578D01*
X019527Y018817D02*
X019447Y018977D01*
X019607D01*
X019527Y018817D01*
Y018857D02*
X019487Y018937D01*
X019567D01*
X019527Y018857D01*
X016693Y018502D02*
X016613Y018662D01*
X016773D01*
X016693Y018502D01*
Y018542D02*
X016653Y018622D01*
X016733D01*
X016693Y018542D01*
X017952Y018502D02*
X017872Y018662D01*
X018032D01*
X017952Y018502D01*
Y018542D02*
X017912Y018622D01*
X017992D01*
X017952Y018542D01*
X017637Y018502D02*
X017557Y018662D01*
X017717D01*
X017637Y018502D01*
Y018542D02*
X017597Y018622D01*
X017677D01*
X017637Y018542D01*
Y019132D02*
X017557Y019292D01*
X017717D01*
X017637Y019132D01*
Y019172D02*
X017597Y019252D01*
X017677D01*
X017637Y019172D01*
X019212Y018502D02*
X019132Y018662D01*
X019292D01*
X019212Y018502D01*
Y018542D02*
X019172Y018622D01*
X019252D01*
X019212Y018542D01*
X018897Y018502D02*
X018817Y018662D01*
X018977D01*
X018897Y018502D01*
Y018542D02*
X018857Y018622D01*
X018937D01*
X018897Y018542D01*
X017322Y018502D02*
X017242Y018662D01*
X017402D01*
X017322Y018502D01*
Y018542D02*
X017283Y018622D01*
X017363D01*
X017322Y018542D01*
X017008Y018502D02*
X016928Y018662D01*
X017088D01*
X017008Y018502D01*
Y018542D02*
X016968Y018622D01*
X017048D01*
X017008Y018542D01*
X016063Y018502D02*
X015983Y018662D01*
X016143D01*
X016063Y018502D01*
Y018542D02*
X016023Y018622D01*
X016103D01*
X016063Y018542D01*
X020787Y018502D02*
X020707Y018662D01*
X020867D01*
X020787Y018502D01*
Y018542D02*
X020747Y018622D01*
X020827D01*
X020787Y018542D01*
X020472Y018502D02*
X020392Y018662D01*
X020552D01*
X020472Y018502D01*
Y018542D02*
X020432Y018622D01*
X020512D01*
X020472Y018542D01*
X020157Y018502D02*
X020077Y018662D01*
X020237D01*
X020157Y018502D01*
Y018542D02*
X020117Y018622D01*
X020197D01*
X020157Y018542D01*
X020157Y018188D02*
X020077Y018348D01*
X020237D01*
X020157Y018188D01*
Y018228D02*
X020117Y018308D01*
X020197D01*
X020157Y018228D01*
X018897Y018188D02*
X018817Y018348D01*
X018977D01*
X018897Y018188D01*
Y018228D02*
X018857Y018308D01*
X018937D01*
X018897Y018228D01*
X019842Y018188D02*
X019762Y018348D01*
X019922D01*
X019842Y018188D01*
Y018228D02*
X019802Y018308D01*
X019882D01*
X019842Y018228D01*
X021102Y018188D02*
X021022Y018348D01*
X021182D01*
X021102Y018188D01*
Y018228D02*
X021062Y018308D01*
X021142D01*
X021102Y018228D01*
X020787Y018188D02*
X020707Y018348D01*
X020867D01*
X020787Y018188D01*
Y018228D02*
X020747Y018308D01*
X020827D01*
X020787Y018228D01*
X020472Y018188D02*
X020392Y018348D01*
X020552D01*
X020472Y018188D01*
Y018228D02*
X020432Y018308D01*
X020512D01*
X020472Y018228D01*
X020787Y020077D02*
X020707Y020237D01*
X020867D01*
X020787Y020077D01*
Y020117D02*
X020747Y020197D01*
X020827D01*
X020787Y020117D01*
X020157Y017243D02*
X020077Y017403D01*
X020237D01*
X020157Y017243D01*
Y017283D02*
X020117Y017363D01*
X020197D01*
X020157Y017283D01*
Y016928D02*
X020077Y017088D01*
X020237D01*
X020157Y016928D01*
Y016968D02*
X020117Y017048D01*
X020197D01*
X020157Y016968D01*
X018897Y017558D02*
X018817Y017718D01*
X018977D01*
X018897Y017558D01*
Y017598D02*
X018857Y017678D01*
X018937D01*
X018897Y017598D01*
X019842Y016613D02*
X019762Y016773D01*
X019922D01*
X019842Y016613D01*
Y016653D02*
X019802Y016733D01*
X019882D01*
X019842Y016653D01*
X019527Y019132D02*
X019447Y019292D01*
X019607D01*
X019527Y019132D01*
Y019172D02*
X019487Y019252D01*
X019567D01*
X019527Y019172D01*
X019527Y019762D02*
X019447Y019922D01*
X019607D01*
X019527Y019762D01*
Y019802D02*
X019487Y019882D01*
X019567D01*
X019527Y019802D01*
X017637Y021022D02*
X017557Y021182D01*
X017717D01*
X017637Y021022D01*
Y021062D02*
X017597Y021142D01*
X017677D01*
X017637Y021062D01*
X017008Y021022D02*
X016928Y021182D01*
X017088D01*
X017008Y021022D01*
Y021062D02*
X016968Y021142D01*
X017048D01*
X017008Y021062D01*
X017322Y021022D02*
X017242Y021182D01*
X017402D01*
X017322Y021022D01*
Y021062D02*
X017283Y021142D01*
X017363D01*
X017322Y021062D01*
X017008Y021337D02*
X016928Y021497D01*
X017088D01*
X017008Y021337D01*
Y021377D02*
X016968Y021457D01*
X017048D01*
X017008Y021377D01*
X017637Y021337D02*
X017557Y021497D01*
X017717D01*
X017637Y021337D01*
Y021377D02*
X017597Y021457D01*
X017677D01*
X017637Y021377D01*
X017952Y021339D02*
X017872Y021499D01*
X018032D01*
X017952Y021339D01*
Y021379D02*
X017912Y021459D01*
X017992D01*
X017952Y021379D01*
X018582Y020707D02*
X018502Y020867D01*
X018662D01*
X018582Y020707D01*
Y020747D02*
X018542Y020827D01*
X018622D01*
X018582Y020747D01*
Y021022D02*
X018502Y021182D01*
X018662D01*
X018582Y021022D01*
Y021062D02*
X018542Y021142D01*
X018622D01*
X018582Y021062D01*
X018582Y021337D02*
X018502Y021497D01*
X018662D01*
X018582Y021337D01*
Y021377D02*
X018542Y021457D01*
X018622D01*
X018582Y021377D01*
X019212Y020707D02*
X019132Y020867D01*
X019292D01*
X019212Y020707D01*
Y020747D02*
X019172Y020827D01*
X019252D01*
X019212Y020747D01*
X019212Y021022D02*
X019132Y021182D01*
X019292D01*
X019212Y021022D01*
Y021062D02*
X019172Y021142D01*
X019252D01*
X019212Y021062D01*
X020157Y020707D02*
X020077Y020867D01*
X020237D01*
X020157Y020707D01*
Y020747D02*
X020117Y020827D01*
X020197D01*
X020157Y020747D01*
X020472Y020392D02*
X020392Y020552D01*
X020552D01*
X020472Y020392D01*
Y020432D02*
X020432Y020512D01*
X020512D01*
X020472Y020432D01*
X020787Y021022D02*
X020707Y021182D01*
X020867D01*
X020787Y021022D01*
Y021062D02*
X020747Y021142D01*
X020827D01*
X020787Y021062D01*
X012285Y019270D02*
X012205Y019430D01*
X012365D01*
X012285Y019270D01*
Y019310D02*
X012245Y019390D01*
X012325D01*
X012285Y019310D01*
X016063Y014526D02*
X015983Y014686D01*
X016143D01*
X016063Y014526D01*
Y014566D02*
X016023Y014646D01*
X016103D01*
X016063Y014566D01*
Y014261D02*
X015983Y014421D01*
X016143D01*
X016063Y014261D01*
Y014301D02*
X016023Y014381D01*
X016103D01*
X016063Y014301D01*
Y014014D02*
X015983Y014174D01*
X016143D01*
X016063Y014014D01*
Y014054D02*
X016023Y014134D01*
X016103D01*
X016063Y014054D01*
X012269Y019861D02*
X012189Y020021D01*
X012349D01*
X012269Y019861D01*
Y019901D02*
X012229Y019981D01*
X012309D01*
X012269Y019901D01*
Y020452D02*
X012189Y020612D01*
X012349D01*
X012269Y020452D01*
Y020491D02*
X012229Y020571D01*
X012309D01*
X012269Y020491D01*
X018897Y021022D02*
X018817Y021182D01*
X018977D01*
X018897Y021022D01*
Y021062D02*
X018857Y021142D01*
X018937D01*
X018897Y021062D01*
X019212Y020392D02*
X019132Y020552D01*
X019292D01*
X019212Y020392D01*
Y020432D02*
X019172Y020512D01*
X019252D01*
X019212Y020432D01*
X018897Y020392D02*
X018817Y020552D01*
X018977D01*
X018897Y020392D01*
Y020432D02*
X018857Y020512D01*
X018937D01*
X018897Y020432D01*
X021102Y021337D02*
X021022Y021497D01*
X021182D01*
X021102Y021337D01*
Y021377D02*
X021062Y021457D01*
X021142D01*
X021102Y021377D01*
X015118Y020707D02*
X015038Y020867D01*
X015198D01*
X015118Y020707D01*
Y020747D02*
X015078Y020827D01*
X015158D01*
X015118Y020747D01*
Y017558D02*
X015038Y017718D01*
X015198D01*
X015118Y017558D01*
Y017598D02*
X015078Y017678D01*
X015158D01*
X015118Y017598D01*
X015118Y019447D02*
X015038Y019607D01*
X015198D01*
X015118Y019447D01*
Y019487D02*
X015078Y019567D01*
X015158D01*
X015118Y019487D01*
X017637Y017243D02*
X017557Y017403D01*
X017717D01*
X017637Y017243D01*
Y017283D02*
X017597Y017363D01*
X017677D01*
X017637Y017283D01*
X016063Y020392D02*
X015983Y020552D01*
X016143D01*
X016063Y020392D01*
Y020432D02*
X016023Y020512D01*
X016103D01*
X016063Y020432D01*
X017952Y021022D02*
X017872Y021182D01*
X018032D01*
X017952Y021022D01*
Y021062D02*
X017912Y021142D01*
X017992D01*
X017952Y021062D01*
X017008Y020707D02*
X016928Y020867D01*
X017088D01*
X017008Y020707D01*
Y020747D02*
X016968Y020827D01*
X017048D01*
X017008Y020747D01*
X015748Y021337D02*
X015668Y021497D01*
X015828D01*
X015748Y021337D01*
Y021377D02*
X015708Y021457D01*
X015788D01*
X015748Y021377D01*
X017322Y021337D02*
X017242Y021497D01*
X017402D01*
X017322Y021337D01*
Y021377D02*
X017283Y021457D01*
X017363D01*
X017322Y021377D01*
X016378Y021022D02*
X016298Y021182D01*
X016458D01*
X016378Y021022D01*
Y021062D02*
X016338Y021142D01*
X016418D01*
X016378Y021062D01*
X015433Y020707D02*
X015353Y020867D01*
X015513D01*
X015433Y020707D01*
Y020747D02*
X015393Y020827D01*
X015473D01*
X015433Y020747D01*
X015748Y019762D02*
X015668Y019922D01*
X015828D01*
X015748Y019762D01*
Y019802D02*
X015708Y019882D01*
X015788D01*
X015748Y019802D01*
X015433Y019132D02*
X015353Y019292D01*
X015513D01*
X015433Y019132D01*
Y019172D02*
X015393Y019252D01*
X015473D01*
X015433Y019172D01*
X015433Y015668D02*
X015353Y015828D01*
X015513D01*
X015433Y015668D01*
Y015708D02*
X015393Y015788D01*
X015473D01*
X015433Y015708D01*
X015748Y016298D02*
X015668Y016458D01*
X015828D01*
X015748Y016298D01*
Y016338D02*
X015708Y016418D01*
X015788D01*
X015748Y016338D01*
X015433Y017243D02*
X015353Y017403D01*
X015513D01*
X015433Y017243D01*
Y017283D02*
X015393Y017363D01*
X015473D01*
X015433Y017283D01*
X016378Y017558D02*
X016298Y017718D01*
X016458D01*
X016378Y017558D01*
Y017598D02*
X016338Y017678D01*
X016418D01*
X016378Y017598D01*
X016693Y016613D02*
X016613Y016773D01*
X016773D01*
X016693Y016613D01*
Y016653D02*
X016653Y016733D01*
X016733D01*
X016693Y016653D01*
X016378Y015983D02*
X016298Y016143D01*
X016458D01*
X016378Y015983D01*
Y016023D02*
X016338Y016103D01*
X016418D01*
X016378Y016023D01*
X017008Y017243D02*
X016928Y017403D01*
X017088D01*
X017008Y017243D01*
Y017283D02*
X016968Y017363D01*
X017048D01*
X017008Y017283D01*
X017637Y017558D02*
X017557Y017718D01*
X017717D01*
X017637Y017558D01*
Y017598D02*
X017597Y017678D01*
X017677D01*
X017637Y017598D01*
X017322Y017558D02*
X017242Y017718D01*
X017402D01*
X017322Y017558D01*
Y017598D02*
X017283Y017678D01*
X017363D01*
X017322Y017598D01*
X017008Y017558D02*
X016928Y017718D01*
X017088D01*
X017008Y017558D01*
Y017598D02*
X016968Y017678D01*
X017048D01*
X017008Y017598D01*
X017637Y017873D02*
X017557Y018033D01*
X017717D01*
X017637Y017873D01*
Y017913D02*
X017597Y017993D01*
X017677D01*
X017637Y017913D01*
X017322Y017873D02*
X017242Y018033D01*
X017402D01*
X017322Y017873D01*
Y017913D02*
X017283Y017993D01*
X017363D01*
X017322Y017913D01*
X017008Y017873D02*
X016928Y018033D01*
X017088D01*
X017008Y017873D01*
Y017913D02*
X016968Y017993D01*
X017048D01*
X017008Y017913D01*
X018897Y017243D02*
X018817Y017403D01*
X018977D01*
X018897Y017243D01*
Y017283D02*
X018857Y017363D01*
X018937D01*
X018897Y017283D01*
X018582Y016613D02*
X018502Y016773D01*
X018662D01*
X018582Y016613D01*
Y016653D02*
X018542Y016733D01*
X018622D01*
X018582Y016653D01*
X017008Y019132D02*
X016928Y019292D01*
X017088D01*
X017008Y019132D01*
Y019172D02*
X016968Y019252D01*
X017048D01*
X017008Y019172D01*
Y019447D02*
X016928Y019607D01*
X017088D01*
X017008Y019447D01*
Y019487D02*
X016968Y019567D01*
X017048D01*
X017008Y019487D01*
Y019762D02*
X016928Y019922D01*
X017088D01*
X017008Y019762D01*
Y019802D02*
X016968Y019882D01*
X017048D01*
X017008Y019802D01*
Y020077D02*
X016928Y020237D01*
X017088D01*
X017008Y020077D01*
Y020117D02*
X016968Y020197D01*
X017048D01*
X017008Y020117D01*
Y020392D02*
X016928Y020552D01*
X017088D01*
X017008Y020392D01*
Y020432D02*
X016968Y020512D01*
X017048D01*
X017008Y020432D01*
X017322Y020392D02*
X017242Y020552D01*
X017402D01*
X017322Y020392D01*
Y020432D02*
X017283Y020512D01*
X017363D01*
X017322Y020432D01*
Y020077D02*
X017242Y020237D01*
X017402D01*
X017322Y020077D01*
Y020117D02*
X017283Y020197D01*
X017363D01*
X017322Y020117D01*
Y019762D02*
X017242Y019922D01*
X017402D01*
X017322Y019762D01*
Y019802D02*
X017283Y019882D01*
X017363D01*
X017322Y019802D01*
X017322Y019447D02*
X017242Y019607D01*
X017402D01*
X017322Y019447D01*
Y019487D02*
X017283Y019567D01*
X017363D01*
X017322Y019487D01*
X017322Y019132D02*
X017242Y019292D01*
X017402D01*
X017322Y019132D01*
Y019172D02*
X017283Y019252D01*
X017363D01*
X017322Y019172D01*
X017637Y019447D02*
X017557Y019607D01*
X017717D01*
X017637Y019447D01*
Y019487D02*
X017597Y019567D01*
X017677D01*
X017637Y019487D01*
Y019762D02*
X017557Y019922D01*
X017717D01*
X017637Y019762D01*
Y019802D02*
X017597Y019882D01*
X017677D01*
X017637Y019802D01*
Y020077D02*
X017557Y020237D01*
X017717D01*
X017637Y020077D01*
Y020117D02*
X017597Y020197D01*
X017677D01*
X017637Y020117D01*
X017637Y020392D02*
X017557Y020552D01*
X017717D01*
X017637Y020392D01*
Y020432D02*
X017597Y020512D01*
X017677D01*
X017637Y020432D01*
X019212Y019132D02*
X019132Y019292D01*
X019292D01*
X019212Y019132D01*
Y019172D02*
X019172Y019252D01*
X019252D01*
X019212Y019172D01*
X018582Y019447D02*
X018502Y019607D01*
X018662D01*
X018582Y019447D01*
Y019487D02*
X018542Y019567D01*
X018622D01*
X018582Y019487D01*
X017952Y019447D02*
X017872Y019607D01*
X018032D01*
X017952Y019447D01*
Y019487D02*
X017912Y019567D01*
X017992D01*
X017952Y019487D01*
X017952Y019762D02*
X017872Y019922D01*
X018032D01*
X017952Y019762D01*
Y019802D02*
X017912Y019882D01*
X017992D01*
X017952Y019802D01*
Y020077D02*
X017872Y020237D01*
X018032D01*
X017952Y020077D01*
Y020117D02*
X017912Y020197D01*
X017992D01*
X017952Y020117D01*
X017952Y020392D02*
X017872Y020552D01*
X018032D01*
X017952Y020392D01*
Y020432D02*
X017912Y020512D01*
X017992D01*
X017952Y020432D01*
X019212Y019762D02*
X019132Y019922D01*
X019292D01*
X019212Y019762D01*
Y019802D02*
X019172Y019882D01*
X019252D01*
X019212Y019802D01*
X018582Y019762D02*
X018502Y019922D01*
X018662D01*
X018582Y019762D01*
Y019802D02*
X018542Y019882D01*
X018622D01*
X018582Y019802D01*
X020157Y020077D02*
X020077Y020237D01*
X020237D01*
X020157Y020077D01*
Y020117D02*
X020117Y020197D01*
X020197D01*
X020157Y020117D01*
X020787Y021967D02*
X020707Y022127D01*
X020867D01*
X020787Y021967D01*
Y022007D02*
X020747Y022087D01*
X020827D01*
X020787Y022007D01*
X018897Y020707D02*
X018817Y020867D01*
X018977D01*
X018897Y020707D01*
Y020747D02*
X018857Y020827D01*
X018937D01*
X018897Y020747D01*
X019527Y020707D02*
X019447Y020867D01*
X019607D01*
X019527Y020707D01*
Y020747D02*
X019487Y020827D01*
X019567D01*
X019527Y020747D01*
X020787Y020707D02*
X020707Y020867D01*
X020867D01*
X020787Y020707D01*
Y020747D02*
X020747Y020827D01*
X020827D01*
X020787Y020747D01*
X019842Y021022D02*
X019762Y021182D01*
X019922D01*
X019842Y021022D01*
Y021062D02*
X019802Y021142D01*
X019882D01*
X019842Y021062D01*
X018582Y021652D02*
X018502Y021812D01*
X018662D01*
X018582Y021652D01*
Y021692D02*
X018542Y021772D01*
X018622D01*
X018582Y021692D01*
X018897Y021337D02*
X018817Y021497D01*
X018977D01*
X018897Y021337D01*
Y021377D02*
X018857Y021457D01*
X018937D01*
X018897Y021377D01*
Y021652D02*
X018817Y021812D01*
X018977D01*
X018897Y021652D01*
Y021692D02*
X018857Y021772D01*
X018937D01*
X018897Y021692D01*
X019212Y021652D02*
X019132Y021812D01*
X019292D01*
X019212Y021652D01*
Y021692D02*
X019172Y021772D01*
X019252D01*
X019212Y021692D01*
Y021337D02*
X019132Y021497D01*
X019292D01*
X019212Y021337D01*
Y021377D02*
X019172Y021457D01*
X019252D01*
X019212Y021377D01*
X019842Y021652D02*
X019762Y021812D01*
X019922D01*
X019842Y021652D01*
Y021692D02*
X019802Y021772D01*
X019882D01*
X019842Y021692D01*
X019527Y021967D02*
X019447Y022127D01*
X019607D01*
X019527Y021967D01*
Y022007D02*
X019487Y022087D01*
X019567D01*
X019527Y022007D01*
X019527Y021022D02*
X019447Y021182D01*
X019607D01*
X019527Y021022D01*
Y021062D02*
X019487Y021142D01*
X019567D01*
X019527Y021062D01*
X019842Y021337D02*
X019762Y021497D01*
X019922D01*
X019842Y021337D01*
Y021377D02*
X019802Y021457D01*
X019882D01*
X019842Y021377D01*
X020157Y021022D02*
X020077Y021182D01*
X020237D01*
X020157Y021022D01*
Y021062D02*
X020117Y021142D01*
X020197D01*
X020157Y021062D01*
X020787Y022282D02*
X020707Y022442D01*
X020867D01*
X020787Y022282D01*
Y022322D02*
X020747Y022402D01*
X020827D01*
X020787Y022322D01*
X021102Y021652D02*
X021022Y021812D01*
X021182D01*
X021102Y021652D01*
Y021692D02*
X021062Y021772D01*
X021142D01*
X021102Y021692D01*
Y021022D02*
X021022Y021182D01*
X021182D01*
X021102Y021022D01*
Y021062D02*
X021062Y021142D01*
X021142D01*
X021102Y021062D01*
Y020707D02*
X021022Y020867D01*
X021182D01*
X021102Y020707D01*
Y020747D02*
X021062Y020827D01*
X021142D01*
X021102Y020747D01*
X020472Y019132D02*
X020392Y019292D01*
X020552D01*
X020472Y019132D01*
Y019172D02*
X020432Y019252D01*
X020512D01*
X020472Y019172D01*
X021417Y019447D02*
X021337Y019607D01*
X021497D01*
X021417Y019447D01*
Y019487D02*
X021377Y019567D01*
X021457D01*
X021417Y019487D01*
X020472Y015668D02*
X020392Y015828D01*
X020552D01*
X020472Y015668D01*
Y015708D02*
X020432Y015788D01*
X020512D01*
X020472Y015708D01*
X020157Y016613D02*
X020077Y016773D01*
X020237D01*
X020157Y016613D01*
Y016653D02*
X020117Y016733D01*
X020197D01*
X020157Y016653D01*
X021102Y016928D02*
X021022Y017088D01*
X021182D01*
X021102Y016928D01*
Y016968D02*
X021062Y017048D01*
X021142D01*
X021102Y016968D01*
X020787Y017873D02*
X020707Y018033D01*
X020867D01*
X020787Y017873D01*
Y017913D02*
X020747Y017993D01*
X020827D01*
X020787Y017913D01*
X015218Y013219D02*
X015138Y013379D01*
X015299D01*
X015218Y013219D01*
Y013259D02*
X015179Y013339D01*
X015259D01*
X015218Y013259D01*
X015718Y013219D02*
X015639Y013379D01*
X015798D01*
X015718Y013219D01*
Y013259D02*
X015678Y013339D01*
X015759D01*
X015718Y013259D01*
X016033Y013217D02*
X015953Y013377D01*
X016113D01*
X016033Y013217D01*
Y013257D02*
X015993Y013337D01*
X016073D01*
X016033Y013257D01*
X016468Y013217D02*
X016388Y013377D01*
X016549D01*
X016468Y013217D01*
Y013257D02*
X016429Y013337D01*
X016509D01*
X016468Y013257D01*
X015965Y012717D02*
X015885Y012877D01*
X016045D01*
X015965Y012717D01*
Y012757D02*
X015925Y012837D01*
X016005D01*
X015965Y012757D01*
X015213Y013745D02*
X015133Y013905D01*
X015293D01*
X015213Y013745D01*
Y013785D02*
X015173Y013865D01*
X015253D01*
X015213Y013785D01*
X014972Y011721D02*
X014892Y011881D01*
X015052D01*
X014972Y011721D01*
Y011761D02*
X014932Y011841D01*
X015012D01*
X014972Y011761D01*
X015474Y010721D02*
X015394Y010881D01*
X015554D01*
X015474Y010721D01*
Y010761D02*
X015434Y010841D01*
X015514D01*
X015474Y010761D01*
X015972Y010721D02*
X015892Y010881D01*
X016052D01*
X015972Y010721D01*
Y010761D02*
X015932Y010841D01*
X016012D01*
X015972Y010761D01*
X016467Y013690D02*
X016387Y013850D01*
X016547D01*
X016467Y013690D01*
Y013730D02*
X016427Y013810D01*
X016507D01*
X016467Y013730D01*
X014972Y012221D02*
X014892Y012381D01*
X015052D01*
X014972Y012221D01*
Y012261D02*
X014932Y012341D01*
X015012D01*
X014972Y012261D01*
X015472Y011718D02*
X015392Y011878D01*
X015552D01*
X015472Y011718D01*
Y011758D02*
X015432Y011838D01*
X015512D01*
X015472Y011758D01*
X016472Y011721D02*
X016392Y011881D01*
X016552D01*
X016472Y011721D01*
Y011761D02*
X016432Y011841D01*
X016512D01*
X016472Y011761D01*
X017470Y012221D02*
X017390Y012381D01*
X017550D01*
X017470Y012221D01*
Y012261D02*
X017430Y012341D01*
X017510D01*
X017470Y012261D01*
X014722Y011964D02*
X014642Y012124D01*
X014802D01*
X014722Y011964D01*
Y012004D02*
X014682Y012084D01*
X014762D01*
X014722Y012004D01*
X017721Y011964D02*
X017641Y012124D01*
X017801D01*
X017721Y011964D01*
Y012004D02*
X017681Y012084D01*
X017761D01*
X017721Y012004D01*
X018268Y013070D02*
X018188Y013230D01*
X018348D01*
X018268Y013070D01*
Y013110D02*
X018228Y013190D01*
X018308D01*
X018268Y013110D01*
Y012676D02*
X018188Y012836D01*
X018348D01*
X018268Y012676D01*
Y012716D02*
X018228Y012796D01*
X018308D01*
X018268Y012716D01*
X017465Y011721D02*
X017385Y011881D01*
X017545D01*
X017465Y011721D01*
Y011761D02*
X017425Y011841D01*
X017505D01*
X017465Y011761D01*
X014722Y012219D02*
X014642Y012379D01*
X014802D01*
X014722Y012219D01*
Y012259D02*
X014682Y012339D01*
X014762D01*
X014722Y012259D01*
X013927Y013054D02*
X013847Y013214D01*
X014007D01*
X013927Y013054D01*
Y013094D02*
X013887Y013174D01*
X013967D01*
X013927Y013094D01*
X014139Y013054D02*
X014059Y013214D01*
X014219D01*
X014139Y013054D01*
Y013094D02*
X014099Y013174D01*
X014179D01*
X014139Y013094D01*
X014350Y013054D02*
X014270Y013214D01*
X014430D01*
X014350Y013054D01*
Y013094D02*
X014310Y013174D01*
X014390D01*
X014350Y013094D01*
X017715Y012219D02*
X017635Y012379D01*
X017795D01*
X017715Y012219D01*
Y012259D02*
X017675Y012339D01*
X017755D01*
X017715Y012259D01*
X019433Y012203D02*
X019353Y012363D01*
X019513D01*
X019433Y012203D01*
Y012243D02*
X019393Y012323D01*
X019473D01*
X019433Y012243D01*
Y011948D02*
X019353Y012108D01*
X019513D01*
X019433Y011948D01*
Y011988D02*
X019393Y012068D01*
X019473D01*
X019433Y011988D01*
X022181Y012205D02*
X022101Y012365D01*
X022261D01*
X022181Y012205D01*
Y012245D02*
X022141Y012325D01*
X022221D01*
X022181Y012245D01*
X021183Y011705D02*
X021103Y011865D01*
X021263D01*
X021183Y011705D01*
Y011745D02*
X021143Y011825D01*
X021223D01*
X021183Y011745D01*
X020183Y011702D02*
X020103Y011862D01*
X020263D01*
X020183Y011702D01*
Y011742D02*
X020143Y011822D01*
X020223D01*
X020183Y011742D01*
X019683Y012205D02*
X019603Y012365D01*
X019763D01*
X019683Y012205D01*
Y012245D02*
X019643Y012325D01*
X019723D01*
X019683Y012245D01*
X020675Y013701D02*
X020595Y013862D01*
X020755D01*
X020675Y013701D01*
Y013742D02*
X020635Y013822D01*
X020715D01*
X020675Y013742D01*
X020683Y010705D02*
X020603Y010865D01*
X020763D01*
X020683Y010705D01*
Y010745D02*
X020643Y010825D01*
X020723D01*
X020683Y010745D01*
X019683Y011705D02*
X019603Y011865D01*
X019763D01*
X019683Y011705D01*
Y011745D02*
X019643Y011825D01*
X019723D01*
X019683Y011745D01*
X021183Y012205D02*
X021103Y012365D01*
X021263D01*
X021183Y012205D01*
Y012245D02*
X021143Y012325D01*
X021223D01*
X021183Y012245D01*
X020675Y012205D02*
X020595Y012365D01*
X020755D01*
X020675Y012205D01*
Y012245D02*
X020635Y012325D01*
X020715D01*
X020675Y012245D01*
X019902Y013726D02*
X019822Y013886D01*
X019982D01*
X019902Y013726D01*
Y013766D02*
X019862Y013846D01*
X019942D01*
X019902Y013766D01*
X020179Y013203D02*
X020099Y013363D01*
X020259D01*
X020179Y013203D01*
Y013243D02*
X020139Y013323D01*
X020219D01*
X020179Y013243D01*
X020669Y012701D02*
X020589Y012861D01*
X020749D01*
X020669Y012701D01*
Y012742D02*
X020629Y012822D01*
X020709D01*
X020669Y012742D01*
X021179Y013202D02*
X021099Y013362D01*
X021259D01*
X021179Y013202D01*
Y013241D02*
X021139Y013321D01*
X021219D01*
X021179Y013241D01*
X020669Y013202D02*
X020589Y013362D01*
X020749D01*
X020669Y013202D01*
Y013241D02*
X020629Y013321D01*
X020709D01*
X020669Y013241D01*
X019902Y013463D02*
X019822Y013623D01*
X019982D01*
X019902Y013463D01*
Y013503D02*
X019862Y013583D01*
X019942D01*
X019902Y013503D01*
X020429Y013203D02*
X020349Y013363D01*
X020509D01*
X020429Y013203D01*
Y013243D02*
X020389Y013323D01*
X020469D01*
X020429Y013243D01*
X019907Y013200D02*
X019827Y013360D01*
X019987D01*
X019907Y013200D01*
Y013240D02*
X019867Y013320D01*
X019947D01*
X019907Y013240D01*
X018583Y013070D02*
X018503Y013230D01*
X018663D01*
X018583Y013070D01*
Y013110D02*
X018543Y013190D01*
X018623D01*
X018583Y013110D01*
X018898Y013070D02*
X018818Y013230D01*
X018978D01*
X018898Y013070D01*
Y013110D02*
X018858Y013190D01*
X018938D01*
X018898Y013110D01*
X019213Y013070D02*
X019133Y013230D01*
X019293D01*
X019213Y013070D01*
Y013110D02*
X019173Y013190D01*
X019253D01*
X019213Y013110D01*
X018878Y010696D02*
X018798Y010856D01*
X018958D01*
X018878Y010696D01*
Y010736D02*
X018838Y010816D01*
X018918D01*
X018878Y010736D01*
X019821Y010690D02*
X019741Y010850D01*
X019901D01*
X019821Y010690D01*
Y010730D02*
X019781Y010810D01*
X019861D01*
X019821Y010730D01*
X020917Y010690D02*
X020837Y010850D01*
X020997D01*
X020917Y010690D01*
Y010730D02*
X020877Y010810D01*
X020957D01*
X020917Y010730D01*
X020718Y014193D02*
X020638Y014353D01*
X020798D01*
X020718Y014193D01*
Y014233D02*
X020678Y014313D01*
X020758D01*
X020718Y014233D01*
Y013979D02*
X020638Y014139D01*
X020798D01*
X020718Y013979D01*
Y014019D02*
X020678Y014099D01*
X020758D01*
X020718Y014019D01*
X016472Y010721D02*
X016392Y010881D01*
X016552D01*
X016472Y010721D01*
Y010761D02*
X016432Y010841D01*
X016512D01*
X016472Y010761D01*
X016965Y011221D02*
X016885Y011381D01*
X017045D01*
X016965Y011221D01*
Y011261D02*
X016925Y011341D01*
X017005D01*
X016965Y011261D01*
X019527Y020077D02*
X019447Y020237D01*
X019607D01*
X019527Y020077D01*
Y020117D02*
X019487Y020197D01*
X019567D01*
X019527Y020117D01*
X019527Y020392D02*
X019447Y020552D01*
X019607D01*
X019527Y020392D01*
Y020432D02*
X019487Y020512D01*
X019567D01*
X019527Y020432D01*
X017952Y020707D02*
X017872Y020867D01*
X018032D01*
X017952Y020707D01*
Y020747D02*
X017912Y020827D01*
X017992D01*
X017952Y020747D01*
X021102Y017873D02*
X021022Y018033D01*
X021182D01*
X021102Y017873D01*
Y017913D02*
X021062Y017993D01*
X021142D01*
X021102Y017913D01*
X020157Y017873D02*
X020077Y018033D01*
X020237D01*
X020157Y017873D01*
Y017913D02*
X020117Y017993D01*
X020197D01*
X020157Y017913D01*
Y019132D02*
X020077Y019292D01*
X020237D01*
X020157Y019132D01*
Y019172D02*
X020117Y019252D01*
X020197D01*
X020157Y019172D01*
X020787Y019132D02*
X020707Y019292D01*
X020867D01*
X020787Y019132D01*
Y019172D02*
X020747Y019252D01*
X020827D01*
X020787Y019172D01*
X021102Y019132D02*
X021022Y019292D01*
X021182D01*
X021102Y019132D01*
Y019172D02*
X021062Y019252D01*
X021142D01*
X021102Y019172D01*
X021417Y019762D02*
X021337Y019922D01*
X021497D01*
X021417Y019762D01*
Y019802D02*
X021377Y019882D01*
X021457D01*
X021417Y019802D01*
X016063Y016613D02*
X015983Y016773D01*
X016143D01*
X016063Y016613D01*
Y016653D02*
X016023Y016733D01*
X016103D01*
X016063Y016653D01*
X016063Y015668D02*
X015983Y015828D01*
X016143D01*
X016063Y015668D01*
Y015708D02*
X016023Y015788D01*
X016103D01*
X016063Y015708D01*
X016378Y016613D02*
X016298Y016773D01*
X016458D01*
X016378Y016613D01*
Y016653D02*
X016338Y016733D01*
X016418D01*
X016378Y016653D01*
X019212Y017558D02*
X019132Y017718D01*
X019292D01*
X019212Y017558D01*
Y017598D02*
X019172Y017678D01*
X019252D01*
X019212Y017598D01*
Y017243D02*
X019132Y017403D01*
X019292D01*
X019212Y017243D01*
Y017283D02*
X019172Y017363D01*
X019252D01*
X019212Y017283D01*
X018582Y020392D02*
X018502Y020552D01*
X018662D01*
X018582Y020392D01*
Y020432D02*
X018542Y020512D01*
X018622D01*
X018582Y020432D01*
X017952Y017558D02*
X017872Y017718D01*
X018032D01*
X017952Y017558D01*
Y017598D02*
X017912Y017678D01*
X017992D01*
X017952Y017598D01*
X021797Y016770D02*
X021717Y016930D01*
X021877D01*
X021797Y016770D01*
Y016810D02*
X021757Y016890D01*
X021837D01*
X021797Y016810D01*
X012785Y019861D02*
X012705Y020021D01*
X012865D01*
X012785Y019861D01*
Y019901D02*
X012745Y019981D01*
X012825D01*
X012785Y019901D01*
X015118Y018502D02*
X015038Y018662D01*
X015198D01*
X015118Y018502D01*
Y018542D02*
X015078Y018622D01*
X015158D01*
X015118Y018542D01*
X016496Y026115D02*
X016416Y026275D01*
X016576D01*
X016496Y026115D01*
Y026155D02*
X016456Y026235D01*
X016536D01*
X016496Y026155D01*
X015451Y025885D02*
X015371Y026045D01*
X015531D01*
X015451Y025885D01*
Y025925D02*
X015411Y026005D01*
X015491D01*
X015451Y025925D01*
X019842Y025038D02*
X019762Y025198D01*
X019922D01*
X019842Y025038D01*
Y025078D02*
X019802Y025158D01*
X019882D01*
X019842Y025078D01*
X016024Y026115D02*
X015944Y026275D01*
X016104D01*
X016024Y026115D01*
Y026155D02*
X015984Y026235D01*
X016064D01*
X016024Y026155D01*
X016772Y026219D02*
X016692Y026379D01*
X016852D01*
X016772Y026219D01*
Y026259D02*
X016732Y026339D01*
X016812D01*
X016772Y026259D01*
X017952Y016298D02*
X017872Y016458D01*
X018032D01*
X017952Y016298D01*
Y016338D02*
X017912Y016418D01*
X017992D01*
X017952Y016338D01*
X025152Y024509D02*
X025072Y024669D01*
X025232D01*
X025152Y024509D01*
Y024549D02*
X025112Y024629D01*
X025192D01*
X025152Y024549D01*
X025748Y023391D02*
X025668Y023551D01*
X025828D01*
X025748Y023391D01*
Y023431D02*
X025708Y023511D01*
X025788D01*
X025748Y023431D01*
X013223Y021062D02*
X013143Y021222D01*
X013303D01*
X013223Y021062D01*
Y021102D02*
X013183Y021182D01*
X013263D01*
X013223Y021102D01*
X020472Y020707D02*
X020392Y020867D01*
X020552D01*
X020472Y020707D01*
Y020747D02*
X020432Y020827D01*
X020512D01*
X020472Y020747D01*
Y021022D02*
X020392Y021182D01*
X020552D01*
X020472Y021022D01*
Y021062D02*
X020432Y021142D01*
X020512D01*
X020472Y021062D01*
X026067Y020091D02*
X025987Y020251D01*
X026147D01*
X026067Y020091D01*
Y020131D02*
X026027Y020211D01*
X026107D01*
X026067Y020131D01*
X022593Y014940D02*
X022513Y015100D01*
X022673D01*
X022593Y014940D01*
Y014980D02*
X022553Y015060D01*
X022633D01*
X022593Y014980D01*
Y015530D02*
X022513Y015690D01*
X022673D01*
X022593Y015530D01*
Y015570D02*
X022553Y015650D01*
X022633D01*
X022593Y015570D01*
X024966Y016514D02*
X024886Y016674D01*
X025046D01*
X024966Y016514D01*
Y016554D02*
X024926Y016634D01*
X025006D01*
X024966Y016554D01*
Y015530D02*
X024886Y015690D01*
X025046D01*
X024966Y015530D01*
Y015570D02*
X024926Y015650D01*
X025006D01*
X024966Y015570D01*
X024345Y018089D02*
X024265Y018249D01*
X024425D01*
X024345Y018089D01*
Y018129D02*
X024305Y018209D01*
X024385D01*
X024345Y018129D01*
X013199Y018453D02*
X013119Y018613D01*
X013280D01*
X013199Y018453D01*
Y018493D02*
X013160Y018573D01*
X013240D01*
X013199Y018493D01*
X015118Y021652D02*
X015038Y021812D01*
X015198D01*
X015118Y021652D01*
Y021692D02*
X015078Y021772D01*
X015158D01*
X015118Y021692D01*
X015433Y021967D02*
X015353Y022127D01*
X015513D01*
X015433Y021967D01*
Y022007D02*
X015393Y022087D01*
X015473D01*
X015433Y022007D01*
X016386Y021965D02*
X016306Y022125D01*
X016466D01*
X016386Y021965D01*
Y022005D02*
X016346Y022085D01*
X016426D01*
X016386Y022005D01*
X016693Y021337D02*
X016613Y021497D01*
X016773D01*
X016693Y021337D01*
Y021377D02*
X016653Y021457D01*
X016733D01*
X016693Y021377D01*
X014075Y019901D02*
X013995Y020061D01*
X014155D01*
X014075Y019901D01*
Y019941D02*
X014035Y020021D01*
X014115D01*
X014075Y019941D01*
X018267Y017243D02*
X018187Y017403D01*
X018347D01*
X018267Y017243D01*
Y017283D02*
X018227Y017363D01*
X018307D01*
X018267Y017283D01*
Y018817D02*
X018187Y018977D01*
X018347D01*
X018267Y018817D01*
Y018857D02*
X018227Y018937D01*
X018307D01*
X018267Y018857D01*
X018267Y018502D02*
X018187Y018662D01*
X018347D01*
X018267Y018502D01*
Y018542D02*
X018227Y018622D01*
X018307D01*
X018267Y018542D01*
X018582Y018502D02*
X018502Y018662D01*
X018662D01*
X018582Y018502D01*
Y018542D02*
X018542Y018622D01*
X018622D01*
X018582Y018542D01*
Y019132D02*
X018502Y019292D01*
X018662D01*
X018582Y019132D01*
Y019172D02*
X018542Y019252D01*
X018622D01*
X018582Y019172D01*
X018267Y019132D02*
X018187Y019292D01*
X018347D01*
X018267Y019132D01*
Y019172D02*
X018227Y019252D01*
X018307D01*
X018267Y019172D01*
X022025Y020948D02*
X021945Y021108D01*
X022105D01*
X022025Y020948D01*
Y020988D02*
X021985Y021068D01*
X022065D01*
X022025Y020988D01*
X022441Y021967D02*
X022361Y022127D01*
X022521D01*
X022441Y021967D01*
Y022007D02*
X022401Y022087D01*
X022481D01*
X022441Y022007D01*
X025827Y020891D02*
X025747Y021051D01*
X025907D01*
X025827Y020891D01*
Y020931D02*
X025787Y021011D01*
X025867D01*
X025827Y020931D01*
Y020685D02*
X025747Y020845D01*
X025907D01*
X025827Y020685D01*
Y020725D02*
X025787Y020805D01*
X025867D01*
X025827Y020725D01*
X021417Y017558D02*
X021337Y017718D01*
X021497D01*
X021417Y017558D01*
Y017598D02*
X021377Y017678D01*
X021457D01*
X021417Y017598D01*
X025585Y020041D02*
X025505Y020201D01*
X025665D01*
X025585Y020041D01*
Y020081D02*
X025545Y020161D01*
X025625D01*
X025585Y020081D01*
X025702Y019698D02*
X025622Y019858D01*
X025782D01*
X025702Y019698D01*
Y019738D02*
X025662Y019818D01*
X025742D01*
X025702Y019738D01*
X019842Y018502D02*
X019762Y018662D01*
X019922D01*
X019842Y018502D01*
Y018542D02*
X019802Y018622D01*
X019882D01*
X019842Y018542D01*
X019842Y018817D02*
X019762Y018977D01*
X019922D01*
X019842Y018817D01*
Y018857D02*
X019802Y018937D01*
X019882D01*
X019842Y018857D01*
X020472Y017873D02*
X020392Y018033D01*
X020552D01*
X020472Y017873D01*
Y017913D02*
X020432Y017993D01*
X020512D01*
X020472Y017913D01*
X023681Y023306D02*
X023601Y023466D01*
X023761D01*
X023681Y023306D01*
Y023346D02*
X023641Y023426D01*
X023721D01*
X023681Y023346D01*
X014094Y020471D02*
X014014Y020631D01*
X014174D01*
X014094Y020471D01*
Y020511D02*
X014054Y020591D01*
X014134D01*
X014094Y020511D01*
Y020235D02*
X014014Y020395D01*
X014174D01*
X014094Y020235D01*
Y020275D02*
X014054Y020355D01*
X014134D01*
X014094Y020275D01*
X022323Y016692D02*
X022243Y016852D01*
X022403D01*
X022323Y016692D01*
Y016732D02*
X022283Y016812D01*
X022363D01*
X022323Y016732D01*
X022177Y016838D02*
X022097Y016998D01*
X022257D01*
X022177Y016838D01*
Y016878D02*
X022137Y016958D01*
X022217D01*
X022177Y016878D01*
X019527Y018502D02*
X019447Y018662D01*
X019607D01*
X019527Y018502D01*
Y018542D02*
X019487Y018622D01*
X019567D01*
X019527Y018542D01*
Y018187D02*
X019447Y018347D01*
X019607D01*
X019527Y018187D01*
Y018227D02*
X019487Y018307D01*
X019567D01*
X019527Y018227D01*
X019527Y017557D02*
X019447Y017717D01*
X019607D01*
X019527Y017557D01*
Y017597D02*
X019487Y017677D01*
X019567D01*
X019527Y017597D01*
X020157Y015353D02*
X020077Y015513D01*
X020237D01*
X020157Y015353D01*
Y015393D02*
X020117Y015473D01*
X020197D01*
X020157Y015393D01*
X019212Y015353D02*
X019132Y015513D01*
X019292D01*
X019212Y015353D01*
Y015393D02*
X019172Y015473D01*
X019252D01*
X019212Y015393D01*
X020472Y015353D02*
X020392Y015513D01*
X020552D01*
X020472Y015353D01*
Y015393D02*
X020432Y015473D01*
X020512D01*
X020472Y015393D01*
X021102Y015353D02*
X021022Y015513D01*
X021182D01*
X021102Y015353D01*
Y015393D02*
X021062Y015473D01*
X021142D01*
X021102Y015393D01*
X020472Y016298D02*
X020392Y016458D01*
X020552D01*
X020472Y016298D01*
Y016338D02*
X020432Y016418D01*
X020512D01*
X020472Y016338D01*
Y015983D02*
X020392Y016143D01*
X020552D01*
X020472Y015983D01*
Y016023D02*
X020432Y016103D01*
X020512D01*
X020472Y016023D01*
X020157Y015983D02*
X020077Y016143D01*
X020237D01*
X020157Y015983D01*
Y016023D02*
X020117Y016103D01*
X020197D01*
X020157Y016023D01*
X018897Y016298D02*
X018817Y016458D01*
X018977D01*
X018897Y016298D01*
Y016338D02*
X018857Y016418D01*
X018937D01*
X018897Y016338D01*
X019527Y015668D02*
X019447Y015828D01*
X019607D01*
X019527Y015668D01*
Y015708D02*
X019487Y015788D01*
X019567D01*
X019527Y015708D01*
X019212Y015983D02*
X019132Y016143D01*
X019292D01*
X019212Y015983D01*
Y016023D02*
X019172Y016103D01*
X019252D01*
X019212Y016023D01*
Y016298D02*
X019132Y016458D01*
X019292D01*
X019212Y016298D01*
Y016338D02*
X019172Y016418D01*
X019252D01*
X019212Y016338D01*
X020157Y016298D02*
X020077Y016458D01*
X020237D01*
X020157Y016298D01*
Y016338D02*
X020117Y016418D01*
X020197D01*
X020157Y016338D01*
X019842Y016298D02*
X019762Y016458D01*
X019922D01*
X019842Y016298D01*
Y016338D02*
X019802Y016418D01*
X019882D01*
X019842Y016338D01*
X015748Y015668D02*
X015668Y015828D01*
X015828D01*
X015748Y015668D01*
Y015708D02*
X015708Y015788D01*
X015788D01*
X015748Y015708D01*
X016378Y015668D02*
X016298Y015828D01*
X016458D01*
X016378Y015668D01*
Y015708D02*
X016338Y015788D01*
X016418D01*
X016378Y015708D01*
X016063Y017243D02*
X015983Y017403D01*
X016143D01*
X016063Y017243D01*
Y017283D02*
X016023Y017363D01*
X016103D01*
X016063Y017283D01*
X018897Y020077D02*
X018817Y020237D01*
X018977D01*
X018897Y020077D01*
Y020117D02*
X018857Y020197D01*
X018937D01*
X018897Y020117D01*
X019212Y020077D02*
X019132Y020237D01*
X019292D01*
X019212Y020077D01*
Y020117D02*
X019172Y020197D01*
X019252D01*
X019212Y020117D01*
X020787Y019447D02*
X020707Y019607D01*
X020867D01*
X020787Y019447D01*
Y019487D02*
X020747Y019567D01*
X020827D01*
X020787Y019487D01*
X021102Y019447D02*
X021022Y019607D01*
X021182D01*
X021102Y019447D01*
Y019487D02*
X021062Y019567D01*
X021142D01*
X021102Y019487D01*
X016339Y026259D02*
X016259Y026419D01*
X016419D01*
X016339Y026259D01*
Y026299D02*
X016299Y026379D01*
X016379D01*
X016339Y026299D01*
X015669Y026259D02*
X015589Y026419D01*
X015749D01*
X015669Y026259D01*
Y026299D02*
X015629Y026379D01*
X015709D01*
X015669Y026299D01*
X017283Y026180D02*
X017203Y026340D01*
X017363D01*
X017283Y026180D01*
Y026220D02*
X017243Y026300D01*
X017323D01*
X017283Y026220D01*
X018150Y025786D02*
X018070Y025946D01*
X018230D01*
X018150Y025786D01*
Y025826D02*
X018110Y025906D01*
X018190D01*
X018150Y025826D01*
X018130Y026200D02*
X018050Y026360D01*
X018210D01*
X018130Y026200D01*
Y026240D02*
X018090Y026320D01*
X018170D01*
X018130Y026240D01*
X016732Y023975D02*
X016652Y024135D01*
X016812D01*
X016732Y023975D01*
Y024015D02*
X016692Y024095D01*
X016772D01*
X016732Y024015D01*
X016693Y023542D02*
X016613Y023702D01*
X016773D01*
X016693Y023542D01*
Y023582D02*
X016653Y023662D01*
X016733D01*
X016693Y023582D01*
X020787Y015983D02*
X020707Y016143D01*
X020867D01*
X020787Y015983D01*
Y016023D02*
X020747Y016103D01*
X020827D01*
X020787Y016023D01*
X020787Y016298D02*
X020707Y016458D01*
X020867D01*
X020787Y016298D01*
Y016338D02*
X020747Y016418D01*
X020827D01*
X020787Y016338D01*
X022441Y019881D02*
X022361Y020041D01*
X022521D01*
X022441Y019881D01*
Y019921D02*
X022401Y020001D01*
X022481D01*
X022441Y019921D01*
X017126Y010511D02*
X017046Y010671D01*
X017206D01*
X017126Y010511D01*
Y010551D02*
X017086Y010631D01*
X017166D01*
X017126Y010551D01*
X017717Y010747D02*
X017637Y010907D01*
X017797D01*
X017717Y010747D01*
Y010787D02*
X017677Y010867D01*
X017757D01*
X017717Y010787D01*
X020183Y011205D02*
X020103Y011365D01*
X020263D01*
X020183Y011205D01*
Y011245D02*
X020143Y011325D01*
X020223D01*
X020183Y011245D01*
X015747Y019132D02*
X015667Y019292D01*
X015827D01*
X015747Y019132D01*
Y019172D02*
X015707Y019252D01*
X015787D01*
X015747Y019172D01*
X016063Y019447D02*
X015983Y019607D01*
X016143D01*
X016063Y019447D01*
Y019487D02*
X016023Y019567D01*
X016103D01*
X016063Y019487D01*
X016063Y019762D02*
X015983Y019922D01*
X016143D01*
X016063Y019762D01*
Y019802D02*
X016023Y019882D01*
X016103D01*
X016063Y019802D01*
X015512Y014054D02*
X015432Y014214D01*
X015592D01*
X015512Y014054D01*
Y014094D02*
X015472Y014174D01*
X015552D01*
X015512Y014094D01*
Y014261D02*
X015432Y014421D01*
X015592D01*
X015512Y014261D01*
Y014301D02*
X015472Y014381D01*
X015552D01*
X015512Y014301D01*
X015276Y014566D02*
X015196Y014726D01*
X015356D01*
X015276Y014566D01*
Y014606D02*
X015236Y014686D01*
X015316D01*
X015276Y014606D01*
X026161Y016160D02*
X026081Y016320D01*
X026241D01*
X026161Y016160D01*
Y016200D02*
X026121Y016280D01*
X026201D01*
X026161Y016200D01*
X025748Y012203D02*
X025668Y012363D01*
X025828D01*
X025748Y012203D01*
Y012243D02*
X025708Y012323D01*
X025788D01*
X025748Y012243D01*
X025551Y018896D02*
X025471Y019056D01*
X025631D01*
X025551Y018896D01*
Y018936D02*
X025511Y019016D01*
X025591D01*
X025551Y018936D01*
X015118Y019762D02*
X015038Y019922D01*
X015198D01*
X015118Y019762D01*
Y019802D02*
X015078Y019882D01*
X015158D01*
X015118Y019802D01*
X026328Y019147D02*
X026248Y019307D01*
X026408D01*
X026328Y019147D01*
Y019187D02*
X026288Y019267D01*
X026368D01*
X026328Y019187D01*
X015433Y019762D02*
X015353Y019922D01*
X015513D01*
X015433Y019762D01*
Y019802D02*
X015393Y019882D01*
X015473D01*
X015433Y019802D01*
X015118Y020392D02*
X015038Y020552D01*
X015198D01*
X015118Y020392D01*
Y020432D02*
X015078Y020512D01*
X015158D01*
X015118Y020432D01*
X012520Y019290D02*
X012440Y019450D01*
X012600D01*
X012520Y019290D01*
Y019330D02*
X012480Y019410D01*
X012560D01*
X012520Y019330D01*
X012776Y019270D02*
X012696Y019430D01*
X012856D01*
X012776Y019270D01*
Y019310D02*
X012736Y019390D01*
X012816D01*
X012776Y019310D01*
X014262Y020638D02*
X014182Y020798D01*
X014342D01*
X014262Y020638D01*
Y020679D02*
X014222Y020759D01*
X014302D01*
X014262Y020679D01*
X021102Y020077D02*
X021022Y020237D01*
X021182D01*
X021102Y020077D01*
Y020117D02*
X021062Y020197D01*
X021142D01*
X021102Y020117D01*
X020157Y022282D02*
X020077Y022442D01*
X020237D01*
X020157Y022282D01*
Y022322D02*
X020117Y022402D01*
X020197D01*
X020157Y022322D01*
X020157Y021967D02*
X020077Y022127D01*
X020237D01*
X020157Y021967D01*
Y022007D02*
X020117Y022087D01*
X020197D01*
X020157Y022007D01*
X018622Y024920D02*
X018542Y025080D01*
X018702D01*
X018622Y024920D01*
Y024960D02*
X018582Y025040D01*
X018662D01*
X018622Y024960D01*
X019212Y018188D02*
X019132Y018348D01*
X019292D01*
X019212Y018188D01*
Y018228D02*
X019172Y018308D01*
X019252D01*
X019212Y018228D01*
X016220Y015196D02*
X016140Y015356D01*
X016300D01*
X016220Y015196D01*
Y015236D02*
X016180Y015316D01*
X016260D01*
X016220Y015236D01*
X015984Y015156D02*
X015904Y015316D01*
X016064D01*
X015984Y015156D01*
Y015196D02*
X015944Y015276D01*
X016024D01*
X015984Y015196D01*
X014055Y021692D02*
X013975Y021852D01*
X014135D01*
X014055Y021692D01*
Y021732D02*
X014015Y021812D01*
X014095D01*
X014055Y021732D01*
X026240Y018178D02*
X026160Y018338D01*
X026320D01*
X026240Y018178D01*
Y018218D02*
X026200Y018298D01*
X026280D01*
X026240Y018218D01*
X019842Y017558D02*
X019762Y017718D01*
X019922D01*
X019842Y017558D01*
Y017598D02*
X019802Y017678D01*
X019882D01*
X019842Y017598D01*
X011026Y024259D02*
X010946Y024419D01*
X011106D01*
X011026Y024259D01*
Y024299D02*
X010986Y024379D01*
X011066D01*
X011026Y024299D01*
X010723Y024220D02*
X010643Y024380D01*
X010803D01*
X010723Y024220D01*
Y024260D02*
X010683Y024340D01*
X010763D01*
X010723Y024260D01*
X024803Y013030D02*
X024723Y013190D01*
X024883D01*
X024803Y013030D01*
Y013070D02*
X024763Y013150D01*
X024843D01*
X024803Y013070D01*
X023307Y012794D02*
X023227Y012954D01*
X023387D01*
X023307Y012794D01*
Y012834D02*
X023267Y012914D01*
X023347D01*
X023307Y012834D01*
X025157Y012715D02*
X025077Y012875D01*
X025237D01*
X025157Y012715D01*
Y012755D02*
X025117Y012835D01*
X025197D01*
X025157Y012755D01*
X025354Y012518D02*
X025274Y012678D01*
X025434D01*
X025354Y012518D01*
Y012558D02*
X025314Y012638D01*
X025394D01*
X025354Y012558D01*
X025906Y012558D02*
X025826Y012718D01*
X025986D01*
X025906Y012558D01*
Y012598D02*
X025866Y012678D01*
X025946D01*
X025906Y012598D01*
X014012Y018788D02*
X013932Y018948D01*
X014092D01*
X014012Y018788D01*
Y018828D02*
X013972Y018908D01*
X014052D01*
X014012Y018828D01*
X015118Y016613D02*
X015038Y016773D01*
X015198D01*
X015118Y016613D01*
Y016653D02*
X015078Y016733D01*
X015158D01*
X015118Y016653D01*
X017951Y015352D02*
X017871Y015512D01*
X018031D01*
X017951Y015352D01*
Y015392D02*
X017911Y015472D01*
X017991D01*
X017951Y015392D01*
X019842Y017243D02*
X019762Y017403D01*
X019922D01*
X019842Y017243D01*
Y017283D02*
X019802Y017363D01*
X019882D01*
X019842Y017283D01*
X019527Y017243D02*
X019447Y017403D01*
X019607D01*
X019527Y017243D01*
Y017283D02*
X019487Y017363D01*
X019567D01*
X019527Y017283D01*
X019842Y016928D02*
X019762Y017088D01*
X019922D01*
X019842Y016928D01*
Y016968D02*
X019802Y017048D01*
X019882D01*
X019842Y016968D01*
X018582Y018188D02*
X018502Y018348D01*
X018662D01*
X018582Y018188D01*
Y018228D02*
X018542Y018308D01*
X018622D01*
X018582Y018228D01*
X012638Y017351D02*
X012558Y017511D01*
X012718D01*
X012638Y017351D01*
Y017391D02*
X012598Y017471D01*
X012678D01*
X012638Y017391D01*
X025020Y017892D02*
X024940Y018052D01*
X025100D01*
X025020Y017892D01*
Y017932D02*
X024980Y018012D01*
X025060D01*
X025020Y017932D01*
X019842Y017873D02*
X019762Y018033D01*
X019922D01*
X019842Y017873D01*
Y017913D02*
X019802Y017993D01*
X019882D01*
X019842Y017913D01*
X022530Y017627D02*
X022450Y017787D01*
X022610D01*
X022530Y017627D01*
Y017667D02*
X022490Y017747D01*
X022570D01*
X022530Y017667D01*
X025522Y016711D02*
X025442Y016871D01*
X025602D01*
X025522Y016711D01*
Y016751D02*
X025482Y016831D01*
X025562D01*
X025522Y016751D01*
X023425Y016731D02*
X023345Y016891D01*
X023505D01*
X023425Y016731D01*
Y016771D02*
X023385Y016851D01*
X023465D01*
X023425Y016771D01*
X022244Y017233D02*
X022164Y017393D01*
X022324D01*
X022244Y017233D01*
Y017273D02*
X022204Y017353D01*
X022284D01*
X022244Y017273D01*
X024345Y020058D02*
X024265Y020218D01*
X024425D01*
X024345Y020058D01*
Y020098D02*
X024305Y020178D01*
X024385D01*
X024345Y020098D01*
Y019074D02*
X024265Y019234D01*
X024425D01*
X024345Y019074D01*
Y019114D02*
X024305Y019194D01*
X024385D01*
X024345Y019114D01*
X024291Y019329D02*
X024211Y019489D01*
X024371D01*
X024291Y019329D01*
Y019369D02*
X024251Y019449D01*
X024331D01*
X024291Y019369D01*
X024345Y019664D02*
X024265Y019824D01*
X024425D01*
X024345Y019664D01*
Y019704D02*
X024305Y019784D01*
X024385D01*
X024345Y019704D01*
X025630Y021229D02*
X025550Y021389D01*
X025710D01*
X025630Y021229D01*
Y021269D02*
X025590Y021349D01*
X025670D01*
X025630Y021269D01*
X024322Y021476D02*
X024242Y021636D01*
X024402D01*
X024322Y021476D01*
Y021516D02*
X024282Y021596D01*
X024362D01*
X024322Y021516D01*
X024345Y020845D02*
X024265Y021005D01*
X024425D01*
X024345Y020845D01*
Y020885D02*
X024305Y020965D01*
X024385D01*
X024345Y020885D01*
X024291Y018818D02*
X024211Y018978D01*
X024371D01*
X024291Y018818D01*
Y018858D02*
X024251Y018938D01*
X024331D01*
X024291Y018858D01*
X022579Y021239D02*
X022499Y021399D01*
X022659D01*
X022579Y021239D01*
Y021279D02*
X022539Y021359D01*
X022619D01*
X022579Y021279D01*
X022402Y022361D02*
X022322Y022521D01*
X022482D01*
X022402Y022361D01*
Y022401D02*
X022362Y022481D01*
X022442D01*
X022402Y022401D01*
X021797Y020865D02*
X021717Y021025D01*
X021877D01*
X021797Y020865D01*
Y020905D02*
X021757Y020985D01*
X021837D01*
X021797Y020905D01*
X021142Y022499D02*
X021062Y022659D01*
X021222D01*
X021142Y022499D01*
Y022539D02*
X021102Y022619D01*
X021182D01*
X021142Y022539D01*
X014075Y019665D02*
X013995Y019825D01*
X014155D01*
X014075Y019665D01*
Y019705D02*
X014035Y019785D01*
X014115D01*
X014075Y019705D01*
X022372Y018906D02*
X022292Y019066D01*
X022452D01*
X022372Y018906D01*
Y018946D02*
X022332Y019026D01*
X022412D01*
X022372Y018946D01*
X015866Y024049D02*
X015786Y024209D01*
X015946D01*
X015866Y024049D01*
Y024089D02*
X015826Y024169D01*
X015906D01*
X015866Y024089D01*
X016161Y024054D02*
X016081Y024214D01*
X016241D01*
X016161Y024054D01*
Y024094D02*
X016121Y024174D01*
X016201D01*
X016161Y024094D01*
X017077Y023906D02*
X016997Y024066D01*
X017157D01*
X017077Y023906D01*
Y023946D02*
X017037Y024026D01*
X017117D01*
X017077Y023946D01*
X014745Y018488D02*
X014665Y018648D01*
X014825D01*
X014745Y018488D01*
Y018528D02*
X014705Y018608D01*
X014785D01*
X014745Y018528D01*
Y018281D02*
X014665Y018441D01*
X014825D01*
X014745Y018281D01*
Y018321D02*
X014705Y018401D01*
X014785D01*
X014745Y018321D01*
X021102Y015668D02*
X021022Y015828D01*
X021182D01*
X021102Y015668D01*
Y015708D02*
X021062Y015788D01*
X021142D01*
X021102Y015708D01*
X020787Y015668D02*
X020707Y015828D01*
X020867D01*
X020787Y015668D01*
Y015708D02*
X020747Y015788D01*
X020827D01*
X020787Y015708D01*
X019842Y015668D02*
X019762Y015828D01*
X019922D01*
X019842Y015668D01*
Y015708D02*
X019802Y015788D01*
X019882D01*
X019842Y015708D01*
X020472Y016928D02*
X020392Y017088D01*
X020552D01*
X020472Y016928D01*
Y016968D02*
X020432Y017048D01*
X020512D01*
X020472Y016968D01*
Y016613D02*
X020392Y016773D01*
X020552D01*
X020472Y016613D01*
Y016653D02*
X020432Y016733D01*
X020512D01*
X020472Y016653D01*
X018474Y025314D02*
X018394Y025474D01*
X018554D01*
X018474Y025314D01*
Y025354D02*
X018434Y025434D01*
X018514D01*
X018474Y025354D01*
X018268Y025314D02*
X018188Y025474D01*
X018348D01*
X018268Y025314D01*
Y025354D02*
X018228Y025434D01*
X018308D01*
X018268Y025354D01*
X019674Y024551D02*
X019594Y024711D01*
X019754D01*
X019674Y024551D01*
Y024591D02*
X019634Y024671D01*
X019714D01*
X019674Y024591D01*
Y024758D02*
X019594Y024918D01*
X019754D01*
X019674Y024758D01*
Y024798D02*
X019634Y024878D01*
X019714D01*
X019674Y024798D01*
X020086Y022496D02*
X020006Y022656D01*
X020166D01*
X020086Y022496D01*
Y022536D02*
X020046Y022616D01*
X020126D01*
X020086Y022536D01*
X022274Y015589D02*
X022194Y015749D01*
X022354D01*
X022274Y015589D01*
Y015629D02*
X022234Y015709D01*
X022314D01*
X022274Y015629D01*
X014744Y012912D02*
X014664Y013072D01*
X014824D01*
X014744Y012912D01*
Y012952D02*
X014704Y013032D01*
X014784D01*
X014744Y012952D01*
X014961Y012912D02*
X014881Y013072D01*
X015041D01*
X014961Y012912D01*
Y012952D02*
X014921Y013032D01*
X015001D01*
X014961Y012952D01*
X015468Y013217D02*
X015388Y013377D01*
X015548D01*
X015468Y013217D01*
Y013257D02*
X015429Y013337D01*
X015509D01*
X015468Y013257D01*
X015974Y012213D02*
X015894Y012373D01*
X016054D01*
X015974Y012213D01*
Y012253D02*
X015934Y012333D01*
X016014D01*
X015974Y012253D01*
X016467Y012213D02*
X016387Y012373D01*
X016547D01*
X016467Y012213D01*
Y012253D02*
X016427Y012333D01*
X016507D01*
X016467Y012253D01*
X015748Y014261D02*
X015668Y014421D01*
X015828D01*
X015748Y014261D01*
Y014301D02*
X015708Y014381D01*
X015788D01*
X015748Y014301D01*
Y014054D02*
X015668Y014214D01*
X015828D01*
X015748Y014054D01*
Y014094D02*
X015708Y014174D01*
X015788D01*
X015748Y014094D01*
X022432Y011948D02*
X022352Y012108D01*
X022512D01*
X022432Y011948D01*
Y011988D02*
X022392Y012068D01*
X022472D01*
X022432Y011988D01*
X022438Y011693D02*
X022358Y011853D01*
X022518D01*
X022438Y011693D01*
Y011733D02*
X022398Y011813D01*
X022478D01*
X022438Y011733D01*
X013287Y022292D02*
X013207Y022452D01*
X013367D01*
X013287Y022292D01*
Y022332D02*
X013247Y022412D01*
X013327D01*
X013287Y022332D01*
X011398Y021790D02*
X011318Y021950D01*
X011478D01*
X011398Y021790D01*
Y021830D02*
X011358Y021910D01*
X011438D01*
X011398Y021830D01*
Y022068D02*
X011318Y022228D01*
X011478D01*
X011398Y022068D01*
Y022108D02*
X011358Y022188D01*
X011438D01*
X011398Y022108D01*
Y022346D02*
X011318Y022506D01*
X011478D01*
X011398Y022346D01*
Y022386D02*
X011358Y022466D01*
X011438D01*
X011398Y022386D01*
Y022624D02*
X011318Y022784D01*
X011478D01*
X011398Y022624D01*
Y022664D02*
X011358Y022744D01*
X011438D01*
X011398Y022664D01*
Y022902D02*
X011318Y023062D01*
X011478D01*
X011398Y022902D01*
Y022942D02*
X011358Y023022D01*
X011438D01*
X011398Y022942D01*
X011583Y023198D02*
X011503Y023358D01*
X011663D01*
X011583Y023198D01*
Y023238D02*
X011543Y023318D01*
X011623D01*
X011583Y023238D01*
X011805Y023198D02*
X011725Y023358D01*
X011885D01*
X011805Y023198D01*
Y023238D02*
X011765Y023318D01*
X011845D01*
X011805Y023238D01*
X012028Y023198D02*
X011948Y023358D01*
X012108D01*
X012028Y023198D01*
Y023238D02*
X011988Y023318D01*
X012068D01*
X012028Y023238D01*
X012250Y023198D02*
X012170Y023358D01*
X012330D01*
X012250Y023198D01*
Y023238D02*
X012210Y023318D01*
X012290D01*
X012250Y023238D01*
X012472Y023198D02*
X012392Y023358D01*
X012552D01*
X012472Y023198D01*
Y023238D02*
X012432Y023318D01*
X012512D01*
X012472Y023238D01*
X012695Y023198D02*
X012615Y023358D01*
X012775D01*
X012695Y023198D01*
Y023238D02*
X012655Y023318D01*
X012735D01*
X012695Y023238D01*
X012904Y022684D02*
X012824Y022844D01*
X012984D01*
X012904Y022684D01*
Y022724D02*
X012864Y022804D01*
X012944D01*
X012904Y022724D01*
Y022436D02*
X012824Y022596D01*
X012984D01*
X012904Y022436D01*
Y022476D02*
X012864Y022556D01*
X012944D01*
X012904Y022476D01*
Y022188D02*
X012824Y022348D01*
X012984D01*
X012904Y022188D01*
Y022228D02*
X012864Y022308D01*
X012944D01*
X012904Y022228D01*
Y021940D02*
X012824Y022100D01*
X012984D01*
X012904Y021940D01*
Y021980D02*
X012864Y022060D01*
X012944D01*
X012904Y021980D01*
Y021692D02*
X012824Y021852D01*
X012984D01*
X012904Y021692D01*
Y021732D02*
X012864Y021812D01*
X012944D01*
X012904Y021732D01*
X018602Y014369D02*
X018522Y014529D01*
X018682D01*
X018602Y014369D01*
Y014409D02*
X018562Y014489D01*
X018642D01*
X018602Y014409D01*
X018307Y014782D02*
X018227Y014942D01*
X018387D01*
X018307Y014782D01*
Y014822D02*
X018267Y014902D01*
X018347D01*
X018307Y014822D01*
X018120Y014782D02*
X018040Y014942D01*
X018200D01*
X018120Y014782D01*
Y014822D02*
X018080Y014902D01*
X018160D01*
X018120Y014822D01*
X015728Y014536D02*
X015648Y014696D01*
X015808D01*
X015728Y014536D01*
Y014576D02*
X015688Y014656D01*
X015768D01*
X015728Y014576D01*
X018494Y014782D02*
X018414Y014942D01*
X018574D01*
X018494Y014782D01*
Y014822D02*
X018454Y014902D01*
X018534D01*
X018494Y014822D01*
X017589Y014802D02*
X017509Y014962D01*
X017669D01*
X017589Y014802D01*
Y014842D02*
X017549Y014922D01*
X017629D01*
X017589Y014842D01*
X017844Y014812D02*
X017764Y014972D01*
X017924D01*
X017844Y014812D01*
Y014852D02*
X017804Y014932D01*
X017884D01*
X017844Y014852D01*
X018681Y014782D02*
X018601Y014942D01*
X018761D01*
X018681Y014782D01*
Y014822D02*
X018641Y014902D01*
X018721D01*
X018681Y014822D01*
X018602Y014576D02*
X018522Y014736D01*
X018682D01*
X018602Y014576D01*
Y014616D02*
X018562Y014696D01*
X018642D01*
X018602Y014616D01*
X016693Y020077D02*
X016613Y020237D01*
X016773D01*
X016693Y020077D01*
Y020117D02*
X016653Y020197D01*
X016733D01*
X016693Y020117D01*
X016555Y015156D02*
X016475Y015316D01*
X016635D01*
X016555Y015156D01*
Y015196D02*
X016515Y015276D01*
X016595D01*
X016555Y015196D01*
X016706Y013188D02*
X016626Y013348D01*
X016786D01*
X016706Y013188D01*
Y013228D02*
X016666Y013308D01*
X016746D01*
X016706Y013228D01*
X016886Y013188D02*
X016806Y013348D01*
X016966D01*
X016886Y013188D01*
Y013228D02*
X016846Y013308D01*
X016926D01*
X016886Y013228D01*
X017067Y013188D02*
X016987Y013348D01*
X017147D01*
X017067Y013188D01*
Y013228D02*
X017027Y013308D01*
X017107D01*
X017067Y013228D01*
X017247Y013188D02*
X017167Y013348D01*
X017327D01*
X017247Y013188D01*
Y013228D02*
X017207Y013308D01*
X017287D01*
X017247Y013228D01*
X016654Y012735D02*
X016574Y012895D01*
X016734D01*
X016654Y012735D01*
Y012775D02*
X016614Y012855D01*
X016694D01*
X016654Y012775D01*
X017539Y013020D02*
X017459Y013180D01*
X017619D01*
X017539Y013020D01*
Y013060D02*
X017499Y013140D01*
X017579D01*
X017539Y013060D01*
X017434Y013178D02*
X017354Y013338D01*
X017514D01*
X017434Y013178D01*
Y013218D02*
X017394Y013298D01*
X017474D01*
X017434Y013218D01*
X021693Y025225D02*
X021613Y025385D01*
X021773D01*
X021693Y025225D01*
Y025265D02*
X021653Y025345D01*
X021733D01*
X021693Y025265D01*
X024262Y016121D02*
X024182Y016281D01*
X024342D01*
X024262Y016121D01*
Y016161D02*
X024222Y016241D01*
X024302D01*
X024262Y016161D01*
X024311Y016741D02*
X024231Y016901D01*
X024391D01*
X024311Y016741D01*
Y016781D02*
X024271Y016861D01*
X024351D01*
X024311Y016781D01*
X024321Y016298D02*
X024241Y016458D01*
X024401D01*
X024321Y016298D01*
Y016338D02*
X024281Y016418D01*
X024361D01*
X024321Y016338D01*
X015286Y025255D02*
X015206Y025415D01*
X015366D01*
X015286Y025255D01*
Y025295D02*
X015246Y025375D01*
X015326D01*
X015286Y025295D01*
X010630Y018562D02*
X010550Y018722D01*
X010710D01*
X010630Y018562D01*
Y018602D02*
X010590Y018682D01*
X010670D01*
X010630Y018602D01*
X022549Y019074D02*
X022469Y019234D01*
X022629D01*
X022549Y019074D01*
Y019114D02*
X022509Y019194D01*
X022589D01*
X022549Y019114D01*
X014630Y018896D02*
X014550Y019056D01*
X014710D01*
X014630Y018896D01*
Y018936D02*
X014590Y019016D01*
X014670D01*
X014630Y018936D01*
X014423Y018896D02*
X014343Y019056D01*
X014503D01*
X014423Y018896D01*
Y018936D02*
X014383Y019016D01*
X014463D01*
X014423Y018936D01*
X010886Y018247D02*
X010806Y018407D01*
X010966D01*
X010886Y018247D01*
Y018287D02*
X010846Y018367D01*
X010926D01*
X010886Y018287D01*
X026161Y024064D02*
X026081Y024224D01*
X026241D01*
X026161Y024064D01*
Y024104D02*
X026121Y024184D01*
X026201D01*
X026161Y024104D01*
X020246Y023857D02*
X020166Y024017D01*
X020326D01*
X020246Y023857D01*
Y023897D02*
X020206Y023977D01*
X020286D01*
X020246Y023897D01*
X020248Y024055D02*
X020168Y024215D01*
X020329D01*
X020248Y024055D01*
Y024095D02*
X020208Y024175D01*
X020289D01*
X020248Y024095D01*
X020020Y024055D02*
X019940Y024215D01*
X020100D01*
X020020Y024055D01*
Y024095D02*
X019980Y024175D01*
X020060D01*
X020020Y024095D01*
X020017Y023857D02*
X019937Y024017D01*
X020097D01*
X020017Y023857D01*
Y023897D02*
X019977Y023977D01*
X020057D01*
X020017Y023897D01*
X021004Y023306D02*
X020924Y023466D01*
X021084D01*
X021004Y023306D01*
Y023346D02*
X020964Y023426D01*
X021044D01*
X021004Y023346D01*
Y023493D02*
X020924Y023653D01*
X021084D01*
X021004Y023493D01*
Y023533D02*
X020964Y023613D01*
X021044D01*
X021004Y023533D01*
X021220Y023493D02*
X021140Y023653D01*
X021300D01*
X021220Y023493D01*
Y023533D02*
X021180Y023613D01*
X021260D01*
X021220Y023533D01*
X021216Y023307D02*
X021136Y023467D01*
X021296D01*
X021216Y023307D01*
Y023347D02*
X021176Y023427D01*
X021256D01*
X021216Y023347D01*
X021693Y024083D02*
X021613Y024243D01*
X021773D01*
X021693Y024083D01*
Y024123D02*
X021653Y024203D01*
X021733D01*
X021693Y024123D01*
X011447Y014280D02*
X011367Y014440D01*
X011527D01*
X011447Y014280D01*
Y014320D02*
X011407Y014400D01*
X011487D01*
X011447Y014320D01*
X011417Y012617D02*
X011337Y012777D01*
X011497D01*
X011417Y012617D01*
Y012657D02*
X011377Y012737D01*
X011457D01*
X011417Y012657D01*
X012697Y016652D02*
X012617Y016812D01*
X012777D01*
X012697Y016652D01*
Y016692D02*
X012657Y016772D01*
X012737D01*
X012697Y016692D01*
X012480Y015678D02*
X012400Y015838D01*
X012560D01*
X012480Y015678D01*
Y015718D02*
X012440Y015798D01*
X012520D01*
X012480Y015718D01*
X013032Y014920D02*
X012952Y015080D01*
X013111D01*
X013032Y014920D01*
Y014960D02*
X012991Y015040D01*
X013072D01*
X013032Y014960D01*
X012264Y017144D02*
X012184Y017304D01*
X012344D01*
X012264Y017144D01*
Y017184D02*
X012224Y017264D01*
X012304D01*
X012264Y017184D01*
X011949Y013030D02*
X011869Y013190D01*
X012029D01*
X011949Y013030D01*
Y013070D02*
X011909Y013150D01*
X011989D01*
X011949Y013070D01*
X011496Y010215D02*
X011416Y010375D01*
X011576D01*
X011496Y010215D01*
Y010255D02*
X011456Y010335D01*
X011536D01*
X011496Y010255D01*
X014055Y011259D02*
X013975Y011419D01*
X014135D01*
X014055Y011259D01*
Y011299D02*
X014015Y011379D01*
X014095D01*
X014055Y011299D01*
X014321Y010796D02*
X014241Y010956D01*
X014401D01*
X014321Y010796D01*
Y010836D02*
X014281Y010916D01*
X014361D01*
X014321Y010836D01*
X011427Y011357D02*
X011347Y011517D01*
X011507D01*
X011427Y011357D01*
Y011397D02*
X011387Y011477D01*
X011467D01*
X011427Y011397D01*
X011634Y011209D02*
X011554Y011369D01*
X011714D01*
X011634Y011209D01*
Y011249D02*
X011594Y011329D01*
X011674D01*
X011634Y011249D01*
X011476Y012351D02*
X011396Y012511D01*
X011556D01*
X011476Y012351D01*
Y012391D02*
X011436Y012471D01*
X011516D01*
X011476Y012391D01*
X012844Y012971D02*
X012764Y013131D01*
X012924D01*
X012844Y012971D01*
Y013011D02*
X012804Y013091D01*
X012884D01*
X012844Y013011D01*
X016220Y010707D02*
X016140Y010867D01*
X016300D01*
X016220Y010707D01*
Y010747D02*
X016180Y010827D01*
X016260D01*
X016220Y010747D01*
X013218Y012705D02*
X013139Y012865D01*
X013298D01*
X013218Y012705D01*
Y012745D02*
X013178Y012825D01*
X013259D01*
X013218Y012745D01*
X013376Y010826D02*
X013296Y010986D01*
X013456D01*
X013376Y010826D01*
Y010866D02*
X013336Y010946D01*
X013416D01*
X013376Y010866D01*
X013632Y013877D02*
X013552Y014037D01*
X013712D01*
X013632Y013877D01*
Y013917D02*
X013592Y013997D01*
X013672D01*
X013632Y013917D01*
X011417Y013768D02*
X011337Y013928D01*
X011497D01*
X011417Y013768D01*
Y013808D02*
X011377Y013888D01*
X011457D01*
X011417Y013808D01*
X011624Y010914D02*
X011544Y011074D01*
X011704D01*
X011624Y010914D01*
Y010954D02*
X011584Y011034D01*
X011664D01*
X011624Y010954D01*
X012402Y014054D02*
X012322Y014214D01*
X012482D01*
X012402Y014054D01*
Y014094D02*
X012362Y014174D01*
X012442D01*
X012402Y014094D01*
X011713Y013286D02*
X011633Y013446D01*
X011793D01*
X011713Y013286D01*
Y013326D02*
X011673Y013406D01*
X011753D01*
X011713Y013326D01*
X012913Y015629D02*
X012833Y015789D01*
X012993D01*
X012913Y015629D01*
Y015669D02*
X012873Y015749D01*
X012953D01*
X012913Y015669D01*
X016693Y017243D02*
X016613Y017403D01*
X016773D01*
X016693Y017243D01*
Y017283D02*
X016653Y017363D01*
X016733D01*
X016693Y017283D01*
X013258Y018237D02*
X013178Y018397D01*
X013338D01*
X013258Y018237D01*
Y018277D02*
X013218Y018357D01*
X013298D01*
X013258Y018277D01*
X014629Y019798D02*
X014549Y019958D01*
X014709D01*
X014629Y019798D01*
Y019838D02*
X014589Y019918D01*
X014669D01*
X014629Y019838D01*
X010393Y019605D02*
X010313Y019765D01*
X010473D01*
X010393Y019605D01*
Y019645D02*
X010353Y019725D01*
X010433D01*
X010393Y019645D01*
Y019861D02*
X010313Y020021D01*
X010473D01*
X010393Y019861D01*
Y019901D02*
X010353Y019981D01*
X010433D01*
X010393Y019901D01*
X014764Y016140D02*
X014684Y016300D01*
X014844D01*
X014764Y016140D01*
Y016180D02*
X014724Y016260D01*
X014804D01*
X014764Y016180D01*
X014400Y016337D02*
X014320Y016497D01*
X014480D01*
X014400Y016337D01*
Y016377D02*
X014360Y016457D01*
X014440D01*
X014400Y016377D01*
X018957Y024881D02*
X018877Y025041D01*
X019037D01*
X018957Y024881D01*
Y024921D02*
X018917Y025001D01*
X018997D01*
X018957Y024921D01*
X014104Y023227D02*
X014024Y023387D01*
X014184D01*
X014104Y023227D01*
Y023267D02*
X014064Y023347D01*
X014144D01*
X014104Y023267D01*
X019350Y025058D02*
X019270Y025218D01*
X019430D01*
X019350Y025058D01*
Y025098D02*
X019310Y025178D01*
X019390D01*
X019350Y025098D01*
X010738Y023670D02*
X010658Y023830D01*
X010818D01*
X010738Y023670D01*
Y023710D02*
X010698Y023790D01*
X010778D01*
X010738Y023710D01*
X010364Y020077D02*
X010284Y020237D01*
X010444D01*
X010364Y020077D01*
Y020117D02*
X010324Y020197D01*
X010404D01*
X010364Y020117D01*
Y020314D02*
X010284Y020474D01*
X010444D01*
X010364Y020314D01*
Y020354D02*
X010324Y020434D01*
X010404D01*
X010364Y020354D01*
X021850Y017322D02*
X021770Y017482D01*
X021930D01*
X021850Y017322D01*
Y017362D02*
X021810Y017442D01*
X021890D01*
X021850Y017362D01*
X019212Y019447D02*
X019132Y019607D01*
X019292D01*
X019212Y019447D01*
Y019487D02*
X019172Y019567D01*
X019252D01*
X019212Y019487D01*
X019527Y019447D02*
X019447Y019607D01*
X019607D01*
X019527Y019447D01*
Y019487D02*
X019487Y019567D01*
X019567D01*
X019527Y019487D01*
X018897Y019132D02*
X018817Y019292D01*
X018977D01*
X018897Y019132D01*
Y019172D02*
X018857Y019252D01*
X018937D01*
X018897Y019172D01*
X020787Y019763D02*
X020707Y019923D01*
X020867D01*
X020787Y019763D01*
Y019803D02*
X020747Y019883D01*
X020827D01*
X020787Y019803D01*
X021102Y019762D02*
X021022Y019922D01*
X021182D01*
X021102Y019762D01*
Y019802D02*
X021062Y019882D01*
X021142D01*
X021102Y019802D01*
X022593Y020058D02*
X022513Y020218D01*
X022673D01*
X022593Y020058D01*
Y020098D02*
X022553Y020178D01*
X022633D01*
X022593Y020098D01*
X022480Y019280D02*
X022400Y019440D01*
X022560D01*
X022480Y019280D01*
Y019320D02*
X022440Y019400D01*
X022520D01*
X022480Y019320D01*
X020472Y020077D02*
X020392Y020237D01*
X020552D01*
X020472Y020077D01*
Y020117D02*
X020432Y020197D01*
X020512D01*
X020472Y020117D01*
X021782Y022076D02*
X021702Y022236D01*
X021862D01*
X021782Y022076D01*
Y022116D02*
X021742Y022196D01*
X021822D01*
X021782Y022116D01*
X023927Y022479D02*
X023847Y022639D01*
X024007D01*
X023927Y022479D01*
Y022519D02*
X023887Y022599D01*
X023967D01*
X023927Y022519D01*
X025079Y021967D02*
X024999Y022127D01*
X025159D01*
X025079Y021967D01*
Y022007D02*
X025039Y022087D01*
X025119D01*
X025079Y022007D01*
X024783Y023011D02*
X024703Y023171D01*
X024863D01*
X024783Y023011D01*
Y023051D02*
X024743Y023131D01*
X024823D01*
X024783Y023051D01*
X018868Y024251D02*
X018788Y024411D01*
X018948D01*
X018868Y024251D01*
Y024291D02*
X018828Y024371D01*
X018908D01*
X018868Y024291D01*
X019144Y025471D02*
X019064Y025631D01*
X019224D01*
X019144Y025471D01*
Y025511D02*
X019104Y025591D01*
X019184D01*
X019144Y025511D01*
X010679Y023138D02*
X010599Y023298D01*
X010759D01*
X010679Y023138D01*
Y023179D02*
X010639Y023259D01*
X010719D01*
X010679Y023179D01*
X023219Y012085D02*
X023138Y012245D01*
X023298D01*
X023219Y012085D01*
Y012125D02*
X023179Y012205D01*
X023259D01*
X023219Y012125D01*
X023248Y012351D02*
X023168Y012511D01*
X023328D01*
X023248Y012351D01*
Y012391D02*
X023208Y012471D01*
X023288D01*
X023248Y012391D01*
X014882Y010274D02*
X014802Y010434D01*
X014962D01*
X014882Y010274D01*
Y010314D02*
X014842Y010394D01*
X014922D01*
X014882Y010314D01*
X012648Y012715D02*
X012568Y012875D01*
X012728D01*
X012648Y012715D01*
Y012755D02*
X012608Y012835D01*
X012688D01*
X012648Y012755D01*
X011447Y012105D02*
X011367Y012265D01*
X011527D01*
X011447Y012105D01*
Y012145D02*
X011407Y012225D01*
X011487D01*
X011447Y012145D01*
X011033Y015363D02*
X010953Y015523D01*
X011113D01*
X011033Y015363D01*
Y015403D02*
X010993Y015483D01*
X011073D01*
X011033Y015403D01*
X010335Y021013D02*
X010255Y021173D01*
X010415D01*
X010335Y021013D01*
Y021053D02*
X010295Y021133D01*
X010375D01*
X010335Y021053D01*
X010344Y020688D02*
X010264Y020848D01*
X010424D01*
X010344Y020688D01*
Y020728D02*
X010304Y020808D01*
X010384D01*
X010344Y020728D01*
X019764Y024231D02*
X019684Y024391D01*
X019844D01*
X019764Y024231D01*
Y024271D02*
X019724Y024351D01*
X019804D01*
X019764Y024271D01*
X020753Y023498D02*
X020673Y023658D01*
X020833D01*
X020753Y023498D01*
Y023538D02*
X020713Y023618D01*
X020793D01*
X020753Y023538D01*
X022234Y023316D02*
X022154Y023476D01*
X022314D01*
X022234Y023316D01*
Y023356D02*
X022194Y023436D01*
X022274D01*
X022234Y023356D01*
X022067Y023178D02*
X021987Y023338D01*
X022147D01*
X022067Y023178D01*
Y023218D02*
X022027Y023298D01*
X022107D01*
X022067Y023218D01*
X022372Y023158D02*
X022292Y023318D01*
X022452D01*
X022372Y023158D01*
Y023198D02*
X022332Y023278D01*
X022412D01*
X022372Y023198D01*
X024291Y018365D02*
X024211Y018525D01*
X024371D01*
X024291Y018365D01*
Y018405D02*
X024251Y018485D01*
X024331D01*
X024291Y018405D01*
X022510Y018079D02*
X022430Y018239D01*
X022590D01*
X022510Y018079D01*
Y018119D02*
X022470Y018199D01*
X022550D01*
X022510Y018119D01*
X022156Y017863D02*
X022076Y018023D01*
X022236D01*
X022156Y017863D01*
Y017903D02*
X022116Y017983D01*
X022196D01*
X022156Y017903D01*
X022244Y020737D02*
X022164Y020897D01*
X022324D01*
X022244Y020737D01*
Y020777D02*
X022204Y020857D01*
X022284D01*
X022244Y020777D01*
X022283Y020383D02*
X022203Y020543D01*
X022363D01*
X022283Y020383D01*
Y020423D02*
X022243Y020503D01*
X022323D01*
X022283Y020423D01*
X011181Y017036D02*
X011101Y017196D01*
X011261D01*
X011181Y017036D01*
Y017076D02*
X011141Y017156D01*
X011221D01*
X011181Y017076D01*
X010472Y017016D02*
X010392Y017176D01*
X010552D01*
X010472Y017016D01*
Y017056D02*
X010432Y017136D01*
X010512D01*
X010472Y017056D01*
X010728Y017016D02*
X010648Y017176D01*
X010808D01*
X010728Y017016D01*
Y017056D02*
X010688Y017136D01*
X010768D01*
X010728Y017056D01*
X021874Y020235D02*
X021794Y020395D01*
X021954D01*
X021874Y020235D01*
Y020275D02*
X021834Y020355D01*
X021914D01*
X021874Y020275D01*
X022081Y020235D02*
X022001Y020395D01*
X022161D01*
X022081Y020235D01*
Y020275D02*
X022041Y020355D01*
X022121D01*
X022081Y020275D01*
X022047Y020560D02*
X021967Y020720D01*
X022127D01*
X022047Y020560D01*
Y020600D02*
X022007Y020680D01*
X022087D01*
X022047Y020600D01*
X022343Y018345D02*
X022263Y018505D01*
X022423D01*
X022343Y018345D01*
Y018385D02*
X022303Y018465D01*
X022383D01*
X022343Y018385D01*
X011181Y020077D02*
X011101Y020237D01*
X011261D01*
X011181Y020077D01*
Y020117D02*
X011141Y020197D01*
X011221D01*
X011181Y020117D01*
X017322Y015983D02*
X017242Y016143D01*
X017402D01*
X017322Y015983D01*
Y016023D02*
X017283Y016103D01*
X017363D01*
X017322Y016023D01*
X018897Y015983D02*
X018817Y016143D01*
X018977D01*
X018897Y015983D01*
Y016023D02*
X018857Y016103D01*
X018937D01*
X018897Y016023D01*
X031260Y018874D02*
X031180Y019034D01*
X031340D01*
X031260Y018874D01*
Y018914D02*
X031220Y018994D01*
X031300D01*
X031260Y018914D01*
X037953Y015155D02*
X037873Y015315D01*
X038033D01*
X037953Y015155D01*
Y015195D02*
X037913Y015275D01*
X037993D01*
X037953Y015195D01*
X029862Y017494D02*
X029782Y017654D01*
X029942D01*
X029862Y017494D01*
Y017534D02*
X029822Y017614D01*
X029902D01*
X029862Y017534D01*
Y016316D02*
X029782Y016476D01*
X029942D01*
X029862Y016316D01*
Y016356D02*
X029822Y016436D01*
X029902D01*
X029862Y016356D01*
Y015135D02*
X029782Y015295D01*
X029942D01*
X029862Y015135D01*
Y015175D02*
X029822Y015255D01*
X029902D01*
X029862Y015175D01*
Y014544D02*
X029782Y014704D01*
X029942D01*
X029862Y014544D01*
Y014584D02*
X029822Y014664D01*
X029902D01*
X029862Y014584D01*
X029862Y018681D02*
X029782Y018841D01*
X029942D01*
X029862Y018681D01*
Y018721D02*
X029822Y018801D01*
X029902D01*
X029862Y018721D01*
X029857Y019271D02*
X029777Y019431D01*
X029937D01*
X029857Y019271D01*
Y019311D02*
X029817Y019391D01*
X029897D01*
X029857Y019311D01*
X029862Y019862D02*
X029782Y020022D01*
X029942D01*
X029862Y019862D01*
Y019902D02*
X029822Y019982D01*
X029902D01*
X029862Y019902D01*
Y020453D02*
X029782Y020613D01*
X029942D01*
X029862Y020453D01*
Y020493D02*
X029822Y020573D01*
X029902D01*
X029862Y020493D01*
X028898Y020051D02*
X028818Y020211D01*
X028978D01*
X028898Y020051D01*
Y020091D02*
X028858Y020171D01*
X028938D01*
X028898Y020091D01*
X036469Y024304D02*
X036389Y024464D01*
X036549D01*
X036469Y024304D01*
Y024344D02*
X036429Y024424D01*
X036509D01*
X036469Y024344D01*
X036316Y022251D02*
X036236Y022411D01*
X036396D01*
X036316Y022251D01*
Y022291D02*
X036276Y022371D01*
X036356D01*
X036316Y022291D01*
X038145Y019736D02*
X038065Y019896D01*
X038225D01*
X038145Y019736D01*
Y019776D02*
X038105Y019856D01*
X038185D01*
X038145Y019776D01*
X037717Y011985D02*
X037637Y012145D01*
X037797D01*
X037717Y011985D01*
Y012025D02*
X037677Y012105D01*
X037757D01*
X037717Y012025D01*
X038543Y012438D02*
X038463Y012598D01*
X038623D01*
X038543Y012438D01*
Y012478D02*
X038503Y012558D01*
X038583D01*
X038543Y012478D01*
X036614Y013619D02*
X036534Y013779D01*
X036694D01*
X036614Y013619D01*
Y013659D02*
X036574Y013739D01*
X036654D01*
X036614Y013659D01*
X036411Y013619D02*
X036331Y013779D01*
X036491D01*
X036411Y013619D01*
Y013659D02*
X036371Y013739D01*
X036451D01*
X036411Y013659D01*
X036817Y013619D02*
X036737Y013779D01*
X036897D01*
X036817Y013619D01*
Y013659D02*
X036777Y013739D01*
X036857D01*
X036817Y013659D01*
X037223Y013619D02*
X037143Y013779D01*
X037303D01*
X037223Y013619D01*
Y013659D02*
X037183Y013739D01*
X037263D01*
X037223Y013659D01*
X037020Y013619D02*
X036940Y013779D01*
X037100D01*
X037020Y013619D01*
Y013659D02*
X036980Y013739D01*
X037060D01*
X037020Y013659D01*
X039134Y022399D02*
X039054Y022559D01*
X039214D01*
X039134Y022399D01*
Y022439D02*
X039094Y022519D01*
X039174D01*
X039134Y022439D01*
X039370Y022399D02*
X039290Y022559D01*
X039450D01*
X039370Y022399D01*
Y022439D02*
X039330Y022519D01*
X039410D01*
X039370Y022439D01*
X039606Y022399D02*
X039526Y022559D01*
X039686D01*
X039606Y022399D01*
Y022439D02*
X039566Y022519D01*
X039646D01*
X039606Y022439D01*
X041772Y023816D02*
X041692Y023976D01*
X041852D01*
X041772Y023816D01*
Y023856D02*
X041732Y023936D01*
X041812D01*
X041772Y023856D01*
X041535Y023816D02*
X041455Y023976D01*
X041615D01*
X041535Y023816D01*
Y023856D02*
X041495Y023936D01*
X041575D01*
X041535Y023856D01*
X041299Y023816D02*
X041219Y023976D01*
X041379D01*
X041299Y023816D01*
Y023856D02*
X041259Y023936D01*
X041339D01*
X041299Y023856D01*
X041063Y023816D02*
X040983Y023976D01*
X041143D01*
X041063Y023816D01*
Y023856D02*
X041023Y023936D01*
X041103D01*
X041063Y023856D01*
X037953Y023924D02*
X037873Y024084D01*
X038033D01*
X037953Y023924D01*
Y023964D02*
X037913Y024044D01*
X037993D01*
X037953Y023964D01*
X038145Y023924D02*
X038065Y024084D01*
X038225D01*
X038145Y023924D01*
Y023964D02*
X038105Y024044D01*
X038185D01*
X038145Y023964D01*
X038337Y023924D02*
X038257Y024084D01*
X038417D01*
X038337Y023924D01*
Y023964D02*
X038297Y024044D01*
X038377D01*
X038337Y023964D01*
X037923Y025834D02*
X037843Y025994D01*
X038003D01*
X037923Y025834D01*
Y025874D02*
X037883Y025954D01*
X037963D01*
X037923Y025874D01*
X038115Y025834D02*
X038035Y025994D01*
X038195D01*
X038115Y025834D01*
Y025874D02*
X038075Y025954D01*
X038155D01*
X038115Y025874D01*
X038307Y025834D02*
X038227Y025994D01*
X038387D01*
X038307Y025834D01*
Y025874D02*
X038267Y025954D01*
X038347D01*
X038307Y025874D01*
X032952Y024976D02*
X032872Y025136D01*
X033032D01*
X032952Y024976D01*
Y025016D02*
X032912Y025096D01*
X032992D01*
X032952Y025016D01*
X035166Y023283D02*
X035086Y023443D01*
X035246D01*
X035166Y023283D01*
Y023323D02*
X035126Y023403D01*
X035206D01*
X035166Y023323D01*
X034577Y021985D02*
X034497Y022145D01*
X034657D01*
X034577Y021985D01*
Y022025D02*
X034537Y022105D01*
X034617D01*
X034577Y022025D01*
X034123Y023293D02*
X034043Y023453D01*
X034203D01*
X034123Y023293D01*
Y023333D02*
X034083Y023413D01*
X034163D01*
X034123Y023333D01*
X033906Y023293D02*
X033826Y023453D01*
X033986D01*
X033906Y023293D01*
Y023333D02*
X033866Y023413D01*
X033946D01*
X033906Y023333D01*
X033690Y023293D02*
X033610Y023453D01*
X033770D01*
X033690Y023293D01*
Y023333D02*
X033650Y023413D01*
X033730D01*
X033690Y023333D01*
X033473Y023293D02*
X033393Y023453D01*
X033553D01*
X033473Y023293D01*
Y023333D02*
X033433Y023413D01*
X033513D01*
X033473Y023333D01*
X033257Y023293D02*
X033177Y023453D01*
X033337D01*
X033257Y023293D01*
Y023333D02*
X033217Y023413D01*
X033297D01*
X033257Y023333D01*
X037627Y022574D02*
X037547Y022734D01*
X037707D01*
X037627Y022574D01*
Y022614D02*
X037587Y022694D01*
X037667D01*
X037627Y022614D01*
X037421Y021985D02*
X037341Y022145D01*
X037501D01*
X037421Y021985D01*
Y022025D02*
X037381Y022105D01*
X037461D01*
X037421Y022025D01*
X035146Y024799D02*
X035066Y024959D01*
X035226D01*
X035146Y024799D01*
Y024839D02*
X035106Y024919D01*
X035186D01*
X035146Y024839D01*
X034945Y024799D02*
X034865Y024959D01*
X035025D01*
X034945Y024799D01*
Y024839D02*
X034905Y024919D01*
X034985D01*
X034945Y024839D01*
X034743Y024799D02*
X034663Y024959D01*
X034823D01*
X034743Y024799D01*
Y024839D02*
X034703Y024919D01*
X034783D01*
X034743Y024839D01*
X035137Y024986D02*
X035057Y025146D01*
X035217D01*
X035137Y024986D01*
Y025026D02*
X035097Y025106D01*
X035177D01*
X035137Y025026D01*
X034945Y024986D02*
X034865Y025146D01*
X035025D01*
X034945Y024986D01*
Y025026D02*
X034905Y025106D01*
X034985D01*
X034945Y025026D01*
X034753Y024986D02*
X034673Y025146D01*
X034833D01*
X034753Y024986D01*
Y025026D02*
X034713Y025106D01*
X034793D01*
X034753Y025026D01*
X033983Y025990D02*
X033903Y026150D01*
X034063D01*
X033983Y025990D01*
Y026030D02*
X033943Y026110D01*
X034023D01*
X033983Y026030D01*
X033831Y025378D02*
X033751Y025538D01*
X033911D01*
X033831Y025378D01*
Y025418D02*
X033791Y025498D01*
X033871D01*
X033831Y025418D01*
X032126Y010972D02*
X032046Y011132D01*
X032206D01*
X032126Y010972D01*
Y011012D02*
X032086Y011092D01*
X032166D01*
X032126Y011012D01*
Y011237D02*
X032046Y011397D01*
X032206D01*
X032126Y011237D01*
Y011277D02*
X032086Y011357D01*
X032166D01*
X032126Y011277D01*
Y011503D02*
X032046Y011663D01*
X032206D01*
X032126Y011503D01*
Y011543D02*
X032086Y011623D01*
X032166D01*
X032126Y011543D01*
Y011769D02*
X032046Y011929D01*
X032206D01*
X032126Y011769D01*
Y011809D02*
X032086Y011889D01*
X032166D01*
X032126Y011809D01*
Y012035D02*
X032046Y012195D01*
X032206D01*
X032126Y012035D01*
Y012075D02*
X032086Y012155D01*
X032166D01*
X032126Y012075D01*
X040443Y011779D02*
X040363Y011939D01*
X040523D01*
X040443Y011779D01*
Y011819D02*
X040403Y011899D01*
X040483D01*
X040443Y011819D01*
X041093Y011779D02*
X041013Y011939D01*
X041173D01*
X041093Y011779D01*
Y011819D02*
X041053Y011899D01*
X041133D01*
X041093Y011819D01*
X039695Y011779D02*
X039615Y011939D01*
X039775D01*
X039695Y011779D01*
Y011819D02*
X039655Y011899D01*
X039735D01*
X039695Y011819D01*
X039104Y012241D02*
X039024Y012401D01*
X039184D01*
X039104Y012241D01*
Y012281D02*
X039064Y012361D01*
X039144D01*
X039104Y012281D01*
X034129Y013362D02*
X034049Y013522D01*
X034209D01*
X034129Y013362D01*
Y013402D02*
X034089Y013482D01*
X034169D01*
X034129Y013402D01*
X035935Y014372D02*
X035855Y014532D01*
X036015D01*
X035935Y014372D01*
Y014412D02*
X035895Y014492D01*
X035975D01*
X035935Y014412D01*
X036693Y014357D02*
X036613Y014517D01*
X036773D01*
X036693Y014357D01*
Y014397D02*
X036653Y014477D01*
X036733D01*
X036693Y014397D01*
X039922Y016114D02*
X039841Y016274D01*
X040002D01*
X039922Y016114D01*
Y016154D02*
X039881Y016234D01*
X039962D01*
X039922Y016154D01*
Y016321D02*
X039841Y016481D01*
X040002D01*
X039922Y016321D01*
Y016361D02*
X039881Y016441D01*
X039962D01*
X039922Y016361D01*
X039921Y016705D02*
X039841Y016865D01*
X040001D01*
X039921Y016705D01*
Y016745D02*
X039881Y016825D01*
X039961D01*
X039921Y016745D01*
Y016912D02*
X039841Y017072D01*
X040001D01*
X039921Y016912D01*
Y016952D02*
X039881Y017032D01*
X039961D01*
X039921Y016952D01*
X042283Y016705D02*
X042203Y016865D01*
X042363D01*
X042283Y016705D01*
Y016745D02*
X042243Y016825D01*
X042323D01*
X042283Y016745D01*
Y016911D02*
X042203Y017071D01*
X042363D01*
X042283Y016911D01*
Y016951D02*
X042243Y017031D01*
X042323D01*
X042283Y016951D01*
Y016114D02*
X042203Y016274D01*
X042363D01*
X042283Y016114D01*
Y016154D02*
X042243Y016234D01*
X042323D01*
X042283Y016154D01*
Y016321D02*
X042203Y016481D01*
X042363D01*
X042283Y016321D01*
Y016361D02*
X042243Y016441D01*
X042323D01*
X042283Y016361D01*
X042175Y014741D02*
X042095Y014901D01*
X042255D01*
X042175Y014741D01*
Y014781D02*
X042135Y014861D01*
X042215D01*
X042175Y014781D01*
X041319Y014543D02*
X041239Y014703D01*
X041399D01*
X041319Y014543D01*
Y014583D02*
X041279Y014663D01*
X041359D01*
X041319Y014583D01*
X040039Y014544D02*
X039959Y014704D01*
X040119D01*
X040039Y014544D01*
Y014584D02*
X039999Y014664D01*
X040079D01*
X040039Y014584D01*
Y021632D02*
X039959Y021792D01*
X040119D01*
X040039Y021632D01*
Y021672D02*
X039999Y021752D01*
X040079D01*
X040039Y021672D01*
X041319Y021631D02*
X041239Y021791D01*
X041399D01*
X041319Y021631D01*
Y021671D02*
X041279Y021751D01*
X041359D01*
X041319Y021671D01*
Y014937D02*
X041239Y015097D01*
X041399D01*
X041319Y014937D01*
Y014977D02*
X041279Y015057D01*
X041359D01*
X041319Y014977D01*
X040039Y014938D02*
X039959Y015098D01*
X040119D01*
X040039Y014938D01*
Y014978D02*
X039999Y015058D01*
X040079D01*
X040039Y014978D01*
X041113Y014813D02*
X041033Y014973D01*
X041193D01*
X041113Y014813D01*
Y014853D02*
X041073Y014933D01*
X041153D01*
X041113Y014853D01*
X040039Y021042D02*
X039959Y021202D01*
X040119D01*
X040039Y021042D01*
Y021082D02*
X039999Y021162D01*
X040079D01*
X040039Y021082D01*
X041319Y015330D02*
X041239Y015490D01*
X041399D01*
X041319Y015330D01*
Y015370D02*
X041279Y015450D01*
X041359D01*
X041319Y015370D01*
Y021040D02*
X041239Y021200D01*
X041399D01*
X041319Y021040D01*
Y021080D02*
X041279Y021160D01*
X041359D01*
X041319Y021080D01*
X040039Y015529D02*
X039959Y015689D01*
X040119D01*
X040039Y015529D01*
Y015569D02*
X039999Y015649D01*
X040079D01*
X040039Y015569D01*
X041319Y020647D02*
X041239Y020807D01*
X041399D01*
X041319Y020647D01*
Y020687D02*
X041279Y020767D01*
X041359D01*
X041319Y020687D01*
X040039Y020452D02*
X039959Y020612D01*
X040119D01*
X040039Y020452D01*
Y020492D02*
X039999Y020572D01*
X040079D01*
X040039Y020492D01*
X041319Y015921D02*
X041239Y016081D01*
X041399D01*
X041319Y015921D01*
Y015961D02*
X041279Y016041D01*
X041359D01*
X041319Y015961D01*
Y020450D02*
X041239Y020610D01*
X041399D01*
X041319Y020450D01*
Y020490D02*
X041279Y020570D01*
X041359D01*
X041319Y020490D01*
X040039Y019861D02*
X039959Y020021D01*
X040119D01*
X040039Y019861D01*
Y019901D02*
X039999Y019981D01*
X040079D01*
X040039Y019901D01*
X041319Y016511D02*
X041239Y016671D01*
X041399D01*
X041319Y016511D01*
Y016551D02*
X041279Y016631D01*
X041359D01*
X041319Y016551D01*
Y019859D02*
X041239Y020019D01*
X041399D01*
X041319Y019859D01*
Y019899D02*
X041279Y019979D01*
X041359D01*
X041319Y019899D01*
X040039Y016513D02*
X039959Y016673D01*
X040119D01*
X040039Y016513D01*
Y016553D02*
X039999Y016633D01*
X040079D01*
X040039Y016553D01*
X040034Y019271D02*
X039954Y019431D01*
X040114D01*
X040034Y019271D01*
Y019311D02*
X039994Y019391D01*
X040074D01*
X040034Y019311D01*
X041324Y017101D02*
X041244Y017261D01*
X041404D01*
X041324Y017101D01*
Y017141D02*
X041284Y017221D01*
X041364D01*
X041324Y017141D01*
X041319Y019269D02*
X041239Y019429D01*
X041399D01*
X041319Y019269D01*
Y019309D02*
X041279Y019389D01*
X041359D01*
X041319Y019309D01*
X040039Y017103D02*
X039959Y017263D01*
X040119D01*
X040039Y017103D01*
Y017143D02*
X039999Y017223D01*
X040079D01*
X040039Y017143D01*
Y018680D02*
X039959Y018840D01*
X040119D01*
X040039Y018680D01*
Y018720D02*
X039999Y018800D01*
X040079D01*
X040039Y018720D01*
X041319Y017693D02*
X041239Y017853D01*
X041399D01*
X041319Y017693D01*
Y017733D02*
X041279Y017813D01*
X041359D01*
X041319Y017733D01*
Y018677D02*
X041239Y018837D01*
X041399D01*
X041319Y018677D01*
Y018717D02*
X041279Y018797D01*
X041359D01*
X041319Y018717D01*
X040039Y017695D02*
X039959Y017855D01*
X040119D01*
X040039Y017695D01*
Y017735D02*
X039999Y017815D01*
X040079D01*
X040039Y017735D01*
Y018286D02*
X039959Y018446D01*
X040119D01*
X040039Y018286D01*
Y018326D02*
X039999Y018406D01*
X040079D01*
X040039Y018326D01*
X041319Y018283D02*
X041239Y018443D01*
X041399D01*
X041319Y018283D01*
Y018323D02*
X041279Y018403D01*
X041359D01*
X041319Y018323D01*
X028898Y016508D02*
X028818Y016668D01*
X028978D01*
X028898Y016508D01*
Y016548D02*
X028858Y016628D01*
X028938D01*
X028898Y016548D01*
Y016715D02*
X028818Y016875D01*
X028978D01*
X028898Y016715D01*
Y016755D02*
X028858Y016835D01*
X028938D01*
X028898Y016755D01*
X028898Y018872D02*
X028818Y019032D01*
X028978D01*
X028898Y018872D01*
Y018912D02*
X028858Y018992D01*
X028938D01*
X028898Y018912D01*
Y019078D02*
X028818Y019238D01*
X028978D01*
X028898Y019078D01*
Y019118D02*
X028858Y019198D01*
X028938D01*
X028898Y019118D01*
X028898Y019461D02*
X028818Y019621D01*
X028978D01*
X028898Y019461D01*
Y019501D02*
X028858Y019581D01*
X028938D01*
X028898Y019501D01*
Y019667D02*
X028818Y019827D01*
X028978D01*
X028898Y019667D01*
Y019707D02*
X028858Y019787D01*
X028938D01*
X028898Y019707D01*
Y020258D02*
X028818Y020418D01*
X028978D01*
X028898Y020258D01*
Y020298D02*
X028858Y020378D01*
X028938D01*
X028898Y020298D01*
X031260Y020051D02*
X031180Y020211D01*
X031340D01*
X031260Y020051D01*
Y020091D02*
X031220Y020171D01*
X031300D01*
X031260Y020091D01*
Y020258D02*
X031180Y020418D01*
X031340D01*
X031260Y020258D01*
Y020298D02*
X031220Y020378D01*
X031300D01*
X031260Y020298D01*
Y019461D02*
X031180Y019621D01*
X031340D01*
X031260Y019461D01*
Y019501D02*
X031220Y019581D01*
X031300D01*
X031260Y019501D01*
Y019667D02*
X031180Y019827D01*
X031340D01*
X031260Y019667D01*
Y019707D02*
X031220Y019787D01*
X031300D01*
X031260Y019707D01*
X031260Y014548D02*
X031180Y014708D01*
X031340D01*
X031260Y014548D01*
Y014588D02*
X031220Y014668D01*
X031300D01*
X031260Y014588D01*
Y014341D02*
X031180Y014501D01*
X031340D01*
X031260Y014341D01*
Y014381D02*
X031220Y014461D01*
X031300D01*
X031260Y014381D01*
X030296Y021828D02*
X030215Y021988D01*
X030375D01*
X030296Y021828D01*
Y021868D02*
X030255Y021948D01*
X030336D01*
X030296Y021868D01*
X030089Y021953D02*
X030009Y022113D01*
X030169D01*
X030089Y021953D01*
Y021993D02*
X030049Y022073D01*
X030129D01*
X030089Y021993D01*
X029016Y021436D02*
X028935Y021596D01*
X029095D01*
X029016Y021436D01*
Y021476D02*
X028976Y021556D01*
X029056D01*
X029016Y021476D01*
X030296Y014937D02*
X030215Y015097D01*
X030375D01*
X030296Y014937D01*
Y014977D02*
X030255Y015057D01*
X030336D01*
X030296Y014977D01*
Y021434D02*
X030215Y021594D01*
X030375D01*
X030296Y021434D01*
Y021474D02*
X030255Y021554D01*
X030336D01*
X030296Y021474D01*
X029016Y021239D02*
X028935Y021399D01*
X029095D01*
X029016Y021239D01*
Y021279D02*
X028976Y021359D01*
X029056D01*
X029016Y021279D01*
X030296Y015134D02*
X030215Y015294D01*
X030375D01*
X030296Y015134D01*
Y015174D02*
X030255Y015254D01*
X030336D01*
X030296Y015174D01*
X030089Y021273D02*
X030009Y021433D01*
X030169D01*
X030089Y021273D01*
Y021313D02*
X030049Y021393D01*
X030129D01*
X030089Y021313D01*
X030296Y020844D02*
X030215Y021004D01*
X030375D01*
X030296Y020844D01*
Y020884D02*
X030255Y020964D01*
X030336D01*
X030296Y020884D01*
X030089Y020933D02*
X030009Y021093D01*
X030169D01*
X030089Y020933D01*
Y020973D02*
X030049Y021053D01*
X030129D01*
X030089Y020973D01*
X028809Y020879D02*
X028729Y021039D01*
X028889D01*
X028809Y020879D01*
Y020919D02*
X028769Y020999D01*
X028849D01*
X028809Y020919D01*
X030296Y015729D02*
X030215Y015889D01*
X030375D01*
X030296Y015729D01*
Y015769D02*
X030255Y015849D01*
X030336D01*
X030296Y015769D01*
Y020450D02*
X030215Y020610D01*
X030375D01*
X030296Y020450D01*
Y020490D02*
X030255Y020570D01*
X030336D01*
X030296Y020490D01*
Y016315D02*
X030215Y016475D01*
X030375D01*
X030296Y016315D01*
Y016355D02*
X030255Y016435D01*
X030336D01*
X030296Y016355D01*
Y019859D02*
X030215Y020019D01*
X030375D01*
X030296Y019859D01*
Y019899D02*
X030255Y019979D01*
X030336D01*
X030296Y019899D01*
Y016905D02*
X030215Y017065D01*
X030375D01*
X030296Y016905D01*
Y016945D02*
X030255Y017025D01*
X030336D01*
X030296Y016945D01*
Y019269D02*
X030215Y019429D01*
X030375D01*
X030296Y019269D01*
Y019309D02*
X030255Y019389D01*
X030336D01*
X030296Y019309D01*
Y019070D02*
X030215Y019230D01*
X030375D01*
X030296Y019070D01*
Y019110D02*
X030255Y019190D01*
X030336D01*
X030296Y019110D01*
Y017496D02*
X030215Y017656D01*
X030375D01*
X030296Y017496D01*
Y017536D02*
X030255Y017616D01*
X030336D01*
X030296Y017536D01*
Y018677D02*
X030215Y018837D01*
X030375D01*
X030296Y018677D01*
Y018717D02*
X030255Y018797D01*
X030336D01*
X030296Y018717D01*
Y018086D02*
X030215Y018246D01*
X030375D01*
X030296Y018086D01*
Y018126D02*
X030255Y018206D01*
X030336D01*
X030296Y018126D01*
X038265Y020446D02*
X038185Y020606D01*
X038345D01*
X038265Y020446D01*
Y020486D02*
X038225Y020566D01*
X038305D01*
X038265Y020486D01*
X037425Y015036D02*
X037345Y015196D01*
X037505D01*
X037425Y015036D01*
Y015076D02*
X037385Y015156D01*
X037465D01*
X037425Y015076D01*
X034855Y022706D02*
X034775Y022866D01*
X034935D01*
X034855Y022706D01*
Y022746D02*
X034815Y022826D01*
X034895D01*
X034855Y022746D01*
X035791Y011516D02*
X035711Y011676D01*
X035871D01*
X035791Y011516D01*
Y011556D02*
X035751Y011636D01*
X035831D01*
X035791Y011556D01*
X037165Y011493D02*
X037085Y011653D01*
X037245D01*
X037165Y011493D01*
Y011533D02*
X037125Y011613D01*
X037205D01*
X037165Y011533D01*
Y011287D02*
X037085Y011447D01*
X037245D01*
X037165Y011287D01*
Y011327D02*
X037125Y011407D01*
X037205D01*
X037165Y011327D01*
Y011080D02*
X037085Y011240D01*
X037245D01*
X037165Y011080D01*
Y011120D02*
X037125Y011200D01*
X037205D01*
X037165Y011120D01*
Y010873D02*
X037085Y011033D01*
X037245D01*
X037165Y010873D01*
Y010913D02*
X037125Y010993D01*
X037205D01*
X037165Y010913D01*
X037402Y010873D02*
X037322Y011033D01*
X037482D01*
X037402Y010873D01*
Y010913D02*
X037362Y010993D01*
X037442D01*
X037402Y010913D01*
Y011080D02*
X037322Y011240D01*
X037482D01*
X037402Y011080D01*
Y011120D02*
X037362Y011200D01*
X037442D01*
X037402Y011120D01*
Y011287D02*
X037322Y011447D01*
X037482D01*
X037402Y011287D01*
Y011327D02*
X037362Y011407D01*
X037442D01*
X037402Y011327D01*
Y011493D02*
X037322Y011653D01*
X037482D01*
X037402Y011493D01*
Y011533D02*
X037362Y011613D01*
X037442D01*
X037402Y011533D01*
X037126Y010430D02*
X037046Y010590D01*
X037206D01*
X037126Y010430D01*
Y010470D02*
X037086Y010550D01*
X037166D01*
X037126Y010470D01*
X039096Y018816D02*
X039016Y018976D01*
X039176D01*
X039096Y018816D01*
Y018856D02*
X039056Y018936D01*
X039136D01*
X039096Y018856D01*
Y019346D02*
X039016Y019506D01*
X039176D01*
X039096Y019346D01*
Y019386D02*
X039056Y019466D01*
X039136D01*
X039096Y019386D01*
Y019726D02*
X039016Y019886D01*
X039176D01*
X039096Y019726D01*
Y019766D02*
X039056Y019846D01*
X039136D01*
X039096Y019766D01*
X039114Y020826D02*
X039034Y020986D01*
X039194D01*
X039114Y020826D01*
Y020866D02*
X039074Y020946D01*
X039154D01*
X039114Y020866D01*
Y020156D02*
X039034Y020316D01*
X039194D01*
X039114Y020156D01*
Y020196D02*
X039074Y020276D01*
X039154D01*
X039114Y020196D01*
X033990Y024405D02*
X033910Y024565D01*
X034070D01*
X033990Y024405D01*
Y024445D02*
X033950Y024525D01*
X034030D01*
X033990Y024445D01*
X036436Y024897D02*
X036356Y025057D01*
X036516D01*
X036436Y024897D01*
Y024937D02*
X036396Y025017D01*
X036476D01*
X036436Y024937D01*
X035876Y022714D02*
X035796Y022874D01*
X035956D01*
X035876Y022714D01*
Y022754D02*
X035836Y022834D01*
X035916D01*
X035876Y022754D01*
X035906Y022251D02*
X035826Y022411D01*
X035986D01*
X035906Y022251D01*
Y022291D02*
X035866Y022371D01*
X035946D01*
X035906Y022291D01*
X029016Y018090D02*
X028936Y018250D01*
X029096D01*
X029016Y018090D01*
Y018130D02*
X028976Y018210D01*
X029056D01*
X029016Y018130D01*
X029016Y016907D02*
X028936Y017067D01*
X029096D01*
X029016Y016907D01*
Y016947D02*
X028976Y017027D01*
X029056D01*
X029016Y016947D01*
Y015725D02*
X028936Y015885D01*
X029096D01*
X029016Y015725D01*
Y015765D02*
X028976Y015845D01*
X029056D01*
X029016Y015765D01*
X039114Y015647D02*
X039034Y015807D01*
X039194D01*
X039114Y015647D01*
Y015687D02*
X039074Y015767D01*
X039154D01*
X039114Y015687D01*
X039291Y015922D02*
X039211Y016082D01*
X039371D01*
X039291Y015922D01*
Y015962D02*
X039251Y016042D01*
X039331D01*
X039291Y015962D01*
X039911Y015312D02*
X039831Y015472D01*
X039991D01*
X039911Y015312D01*
Y015352D02*
X039871Y015432D01*
X039951D01*
X039911Y015352D01*
X039813Y014761D02*
X039733Y014921D01*
X039893D01*
X039813Y014761D01*
Y014801D02*
X039773Y014881D01*
X039853D01*
X039813Y014801D01*
X040886Y015922D02*
X040806Y016082D01*
X040966D01*
X040886Y015922D01*
Y015962D02*
X040846Y016042D01*
X040926D01*
X040886Y015962D01*
X041112Y015676D02*
X041032Y015836D01*
X041192D01*
X041112Y015676D01*
Y015716D02*
X041072Y015796D01*
X041152D01*
X041112Y015716D01*
X035631Y014411D02*
X035551Y014571D01*
X035711D01*
X035631Y014411D01*
Y014451D02*
X035591Y014531D01*
X035671D01*
X035631Y014451D01*
X029980Y018280D02*
X029900Y018440D01*
X030060D01*
X029980Y018280D01*
Y018320D02*
X029940Y018400D01*
X030020D01*
X029980Y018320D01*
X039010Y017133D02*
X038930Y017293D01*
X039090D01*
X039010Y017133D01*
Y017173D02*
X038970Y017253D01*
X039050D01*
X039010Y017173D01*
X039093Y017527D02*
X039013Y017687D01*
X039173D01*
X039093Y017527D01*
Y017567D02*
X039053Y017647D01*
X039133D01*
X039093Y017567D01*
X039074Y016750D02*
X038994Y016910D01*
X039154D01*
X039074Y016750D01*
Y016790D02*
X039034Y016870D01*
X039114D01*
X039074Y016790D01*
X038120Y017123D02*
X038040Y017283D01*
X038200D01*
X038120Y017123D01*
Y017163D02*
X038080Y017243D01*
X038160D01*
X038120Y017163D01*
X038425Y017950D02*
X038345Y018110D01*
X038505D01*
X038425Y017950D01*
Y017990D02*
X038385Y018070D01*
X038465D01*
X038425Y017990D01*
X038199Y018403D02*
X038119Y018563D01*
X038279D01*
X038199Y018403D01*
Y018443D02*
X038159Y018523D01*
X038239D01*
X038199Y018443D01*
X038780Y015273D02*
X038700Y015433D01*
X038860D01*
X038780Y015273D01*
Y015313D02*
X038740Y015393D01*
X038820D01*
X038780Y015313D01*
X039843Y022399D02*
X039763Y022559D01*
X039923D01*
X039843Y022399D01*
Y022439D02*
X039803Y022519D01*
X039883D01*
X039843Y022439D01*
X038179Y022389D02*
X038099Y022549D01*
X038259D01*
X038179Y022389D01*
Y022429D02*
X038139Y022509D01*
X038219D01*
X038179Y022429D01*
X043189Y019859D02*
X043109Y020019D01*
X043269D01*
X043189Y019859D01*
Y019899D02*
X043149Y019979D01*
X043229D01*
X043189Y019899D01*
X029980Y016124D02*
X029900Y016284D01*
X030060D01*
X029980Y016124D01*
Y016164D02*
X029940Y016244D01*
X030020D01*
X029980Y016164D01*
Y015917D02*
X029900Y016077D01*
X030060D01*
X029980Y015917D01*
Y015957D02*
X029940Y016037D01*
X030020D01*
X029980Y015957D01*
X031260Y015534D02*
X031180Y015694D01*
X031340D01*
X031260Y015534D01*
Y015574D02*
X031220Y015654D01*
X031300D01*
X031260Y015574D01*
Y015327D02*
X031180Y015487D01*
X031340D01*
X031260Y015327D01*
Y015367D02*
X031220Y015447D01*
X031300D01*
X031260Y015367D01*
X028898Y014943D02*
X028818Y015103D01*
X028978D01*
X028898Y014943D01*
Y014983D02*
X028858Y015063D01*
X028938D01*
X028898Y014983D01*
Y014736D02*
X028818Y014896D01*
X028978D01*
X028898Y014736D01*
Y014776D02*
X028858Y014856D01*
X028938D01*
X028898Y014776D01*
Y017897D02*
X028818Y018057D01*
X028978D01*
X028898Y017897D01*
Y017937D02*
X028858Y018017D01*
X028938D01*
X028898Y017937D01*
Y017690D02*
X028818Y017850D01*
X028978D01*
X028898Y017690D01*
Y017730D02*
X028858Y017810D01*
X028938D01*
X028898Y017730D01*
X028898Y015534D02*
X028818Y015694D01*
X028978D01*
X028898Y015534D01*
Y015574D02*
X028858Y015654D01*
X028938D01*
X028898Y015574D01*
Y015327D02*
X028818Y015487D01*
X028978D01*
X028898Y015327D01*
Y015367D02*
X028858Y015447D01*
X028938D01*
X028898Y015367D01*
X029980Y017305D02*
X029900Y017465D01*
X030060D01*
X029980Y017305D01*
Y017345D02*
X029940Y017425D01*
X030020D01*
X029980Y017345D01*
Y017099D02*
X029900Y017259D01*
X030060D01*
X029980Y017099D01*
Y017139D02*
X029940Y017219D01*
X030020D01*
X029980Y017139D01*
Y018486D02*
X029900Y018646D01*
X030060D01*
X029980Y018486D01*
Y018526D02*
X029940Y018606D01*
X030020D01*
X029980Y018526D01*
X042283Y017502D02*
X042203Y017662D01*
X042363D01*
X042283Y017502D01*
Y017542D02*
X042243Y017622D01*
X042323D01*
X042283Y017542D01*
Y017295D02*
X042203Y017455D01*
X042363D01*
X042283Y017295D01*
Y017335D02*
X042243Y017415D01*
X042323D01*
X042283Y017335D01*
X035385Y022705D02*
X035305Y022865D01*
X035465D01*
X035385Y022705D01*
Y022745D02*
X035345Y022825D01*
X035425D01*
X035385Y022745D01*
D197*
X026222Y013244D02*
G03*
X026222Y013244I-000080J000000D01*
G01*
X025434Y015213D02*
G03*
X025434Y015213I-000080J000000D01*
G01*
X026222Y014819D02*
G03*
X026222Y014819I-000080J000000D01*
G01*
X025434Y014426D02*
G03*
X025434Y014426I-000080J000000D01*
G01*
X026222Y014032D02*
G03*
X026222Y014032I-000080J000000D01*
G01*
X025434Y013638D02*
G03*
X025434Y013638I-000080J000000D01*
G01*
X035255Y017056D02*
G03*
X035255Y017056I-000080J000000D01*
G01*
Y018556D02*
G03*
X035255Y018556I-000080J000000D01*
G01*
Y019056D02*
G03*
X035255Y019056I-000080J000000D01*
G01*
X034255Y020556D02*
G03*
X034255Y020556I-000080J000000D01*
G01*
Y021056D02*
G03*
X034255Y021056I-000080J000000D01*
G01*
X034755Y020556D02*
G03*
X034755Y020556I-000080J000000D01*
G01*
X035255Y017556D02*
G03*
X035255Y017556I-000080J000000D01*
G01*
Y018056D02*
G03*
X035255Y018056I-000080J000000D01*
G01*
X034755Y017056D02*
G03*
X034755Y017056I-000080J000000D01*
G01*
Y017556D02*
G03*
X034755Y017556I-000080J000000D01*
G01*
X033755Y017056D02*
G03*
X033755Y017056I-000080J000000D01*
G01*
Y017556D02*
G03*
X033755Y017556I-000080J000000D01*
G01*
X034255Y018056D02*
G03*
X034255Y018056I-000080J000000D01*
G01*
Y019056D02*
G03*
X034255Y019056I-000080J000000D01*
G01*
X034755Y016056D02*
G03*
X034755Y016056I-000080J000000D01*
G01*
Y016556D02*
G03*
X034755Y016556I-000080J000000D01*
G01*
X035255D02*
G03*
X035255Y016556I-000080J000000D01*
G01*
Y015556D02*
G03*
X035255Y015556I-000080J000000D01*
G01*
Y016056D02*
G03*
X035255Y016056I-000080J000000D01*
G01*
X037255Y020556D02*
G03*
X037255Y020556I-000080J000000D01*
G01*
Y020056D02*
G03*
X037255Y020056I-000080J000000D01*
G01*
Y019556D02*
G03*
X037255Y019556I-000080J000000D01*
G01*
Y019056D02*
G03*
X037255Y019056I-000080J000000D01*
G01*
Y018556D02*
G03*
X037255Y018556I-000080J000000D01*
G01*
Y018056D02*
G03*
X037255Y018056I-000080J000000D01*
G01*
Y017556D02*
G03*
X037255Y017556I-000080J000000D01*
G01*
Y017056D02*
G03*
X037255Y017056I-000080J000000D01*
G01*
Y016556D02*
G03*
X037255Y016556I-000080J000000D01*
G01*
Y016056D02*
G03*
X037255Y016056I-000080J000000D01*
G01*
X033755D02*
G03*
X033755Y016056I-000080J000000D01*
G01*
Y016556D02*
G03*
X033755Y016556I-000080J000000D01*
G01*
Y018056D02*
G03*
X033755Y018056I-000080J000000D01*
G01*
Y018556D02*
G03*
X033755Y018556I-000080J000000D01*
G01*
Y019056D02*
G03*
X033755Y019056I-000080J000000D01*
G01*
Y021056D02*
G03*
X033755Y021056I-000080J000000D01*
G01*
X034255Y015556D02*
G03*
X034255Y015556I-000080J000000D01*
G01*
Y016056D02*
G03*
X034255Y016056I-000080J000000D01*
G01*
Y016556D02*
G03*
X034255Y016556I-000080J000000D01*
G01*
Y017056D02*
G03*
X034255Y017056I-000080J000000D01*
G01*
Y017556D02*
G03*
X034255Y017556I-000080J000000D01*
G01*
Y018556D02*
G03*
X034255Y018556I-000080J000000D01*
G01*
Y019556D02*
G03*
X034255Y019556I-000080J000000D01*
G01*
Y020056D02*
G03*
X034255Y020056I-000080J000000D01*
G01*
X034755Y015556D02*
G03*
X034755Y015556I-000080J000000D01*
G01*
Y018056D02*
G03*
X034755Y018056I-000080J000000D01*
G01*
Y018556D02*
G03*
X034755Y018556I-000080J000000D01*
G01*
Y019056D02*
G03*
X034755Y019056I-000080J000000D01*
G01*
Y019556D02*
G03*
X034755Y019556I-000080J000000D01*
G01*
Y020056D02*
G03*
X034755Y020056I-000080J000000D01*
G01*
Y021056D02*
G03*
X034755Y021056I-000080J000000D01*
G01*
X035255Y019556D02*
G03*
X035255Y019556I-000080J000000D01*
G01*
Y020056D02*
G03*
X035255Y020056I-000080J000000D01*
G01*
Y020556D02*
G03*
X035255Y020556I-000080J000000D01*
G01*
Y021056D02*
G03*
X035255Y021056I-000080J000000D01*
G01*
X035755Y015556D02*
G03*
X035755Y015556I-000080J000000D01*
G01*
Y016056D02*
G03*
X035755Y016056I-000080J000000D01*
G01*
Y016556D02*
G03*
X035755Y016556I-000080J000000D01*
G01*
Y017056D02*
G03*
X035755Y017056I-000080J000000D01*
G01*
Y017556D02*
G03*
X035755Y017556I-000080J000000D01*
G01*
Y018056D02*
G03*
X035755Y018056I-000080J000000D01*
G01*
Y018556D02*
G03*
X035755Y018556I-000080J000000D01*
G01*
Y019056D02*
G03*
X035755Y019056I-000080J000000D01*
G01*
Y019556D02*
G03*
X035755Y019556I-000080J000000D01*
G01*
Y020056D02*
G03*
X035755Y020056I-000080J000000D01*
G01*
Y020556D02*
G03*
X035755Y020556I-000080J000000D01*
G01*
Y021056D02*
G03*
X035755Y021056I-000080J000000D01*
G01*
X036255Y015556D02*
G03*
X036255Y015556I-000080J000000D01*
G01*
Y016056D02*
G03*
X036255Y016056I-000080J000000D01*
G01*
Y016556D02*
G03*
X036255Y016556I-000080J000000D01*
G01*
Y017056D02*
G03*
X036255Y017056I-000080J000000D01*
G01*
Y017556D02*
G03*
X036255Y017556I-000080J000000D01*
G01*
Y018056D02*
G03*
X036255Y018056I-000080J000000D01*
G01*
Y018556D02*
G03*
X036255Y018556I-000080J000000D01*
G01*
Y019056D02*
G03*
X036255Y019056I-000080J000000D01*
G01*
Y019556D02*
G03*
X036255Y019556I-000080J000000D01*
G01*
Y020056D02*
G03*
X036255Y020056I-000080J000000D01*
G01*
Y020556D02*
G03*
X036255Y020556I-000080J000000D01*
G01*
Y021056D02*
G03*
X036255Y021056I-000080J000000D01*
G01*
X036755Y015556D02*
G03*
X036755Y015556I-000080J000000D01*
G01*
Y016056D02*
G03*
X036755Y016056I-000080J000000D01*
G01*
Y016556D02*
G03*
X036755Y016556I-000080J000000D01*
G01*
Y017056D02*
G03*
X036755Y017056I-000080J000000D01*
G01*
Y017556D02*
G03*
X036755Y017556I-000080J000000D01*
G01*
Y018056D02*
G03*
X036755Y018056I-000080J000000D01*
G01*
Y018556D02*
G03*
X036755Y018556I-000080J000000D01*
G01*
Y019056D02*
G03*
X036755Y019056I-000080J000000D01*
G01*
Y019556D02*
G03*
X036755Y019556I-000080J000000D01*
G01*
Y020056D02*
G03*
X036755Y020056I-000080J000000D01*
G01*
Y020556D02*
G03*
X036755Y020556I-000080J000000D01*
G01*
Y021056D02*
G03*
X036755Y021056I-000080J000000D01*
G01*
X037255Y015556D02*
G03*
X037255Y015556I-000080J000000D01*
G01*
Y021056D02*
G03*
X037255Y021056I-000080J000000D01*
G01*
X033755Y019556D02*
G03*
X033755Y019556I-000080J000000D01*
G01*
Y020556D02*
G03*
X033755Y020556I-000080J000000D01*
G01*
Y020056D02*
G03*
X033755Y020056I-000080J000000D01*
G01*
D198*
X035215Y017056D02*
G03*
X035215Y017056I-000040J000000D01*
G01*
Y018556D02*
G03*
X035215Y018556I-000040J000000D01*
G01*
Y019056D02*
G03*
X035215Y019056I-000040J000000D01*
G01*
X034215Y020556D02*
G03*
X034215Y020556I-000040J000000D01*
G01*
Y021056D02*
G03*
X034215Y021056I-000040J000000D01*
G01*
X034715Y020556D02*
G03*
X034715Y020556I-000040J000000D01*
G01*
X035215Y017556D02*
G03*
X035215Y017556I-000040J000000D01*
G01*
Y018056D02*
G03*
X035215Y018056I-000040J000000D01*
G01*
X034715Y017056D02*
G03*
X034715Y017056I-000040J000000D01*
G01*
Y017556D02*
G03*
X034715Y017556I-000040J000000D01*
G01*
X033715Y017056D02*
G03*
X033715Y017056I-000040J000000D01*
G01*
Y017556D02*
G03*
X033715Y017556I-000040J000000D01*
G01*
X034215Y018056D02*
G03*
X034215Y018056I-000040J000000D01*
G01*
Y019056D02*
G03*
X034215Y019056I-000040J000000D01*
G01*
X034715Y016056D02*
G03*
X034715Y016056I-000040J000000D01*
G01*
Y016556D02*
G03*
X034715Y016556I-000040J000000D01*
G01*
X035215D02*
G03*
X035215Y016556I-000040J000000D01*
G01*
Y015556D02*
G03*
X035215Y015556I-000040J000000D01*
G01*
Y016056D02*
G03*
X035215Y016056I-000040J000000D01*
G01*
X037215Y020556D02*
G03*
X037215Y020556I-000040J000000D01*
G01*
Y020056D02*
G03*
X037215Y020056I-000040J000000D01*
G01*
Y019556D02*
G03*
X037215Y019556I-000040J000000D01*
G01*
Y019056D02*
G03*
X037215Y019056I-000040J000000D01*
G01*
Y018556D02*
G03*
X037215Y018556I-000040J000000D01*
G01*
Y018056D02*
G03*
X037215Y018056I-000040J000000D01*
G01*
Y017556D02*
G03*
X037215Y017556I-000040J000000D01*
G01*
Y017056D02*
G03*
X037215Y017056I-000040J000000D01*
G01*
Y016556D02*
G03*
X037215Y016556I-000040J000000D01*
G01*
Y016056D02*
G03*
X037215Y016056I-000040J000000D01*
G01*
X033715D02*
G03*
X033715Y016056I-000040J000000D01*
G01*
Y016556D02*
G03*
X033715Y016556I-000040J000000D01*
G01*
Y018056D02*
G03*
X033715Y018056I-000040J000000D01*
G01*
Y018556D02*
G03*
X033715Y018556I-000040J000000D01*
G01*
Y019056D02*
G03*
X033715Y019056I-000040J000000D01*
G01*
Y021056D02*
G03*
X033715Y021056I-000040J000000D01*
G01*
X034215Y015556D02*
G03*
X034215Y015556I-000040J000000D01*
G01*
Y016056D02*
G03*
X034215Y016056I-000040J000000D01*
G01*
Y016556D02*
G03*
X034215Y016556I-000040J000000D01*
G01*
Y017056D02*
G03*
X034215Y017056I-000040J000000D01*
G01*
Y017556D02*
G03*
X034215Y017556I-000040J000000D01*
G01*
Y018556D02*
G03*
X034215Y018556I-000040J000000D01*
G01*
Y019556D02*
G03*
X034215Y019556I-000040J000000D01*
G01*
Y020056D02*
G03*
X034215Y020056I-000040J000000D01*
G01*
X034715Y015556D02*
G03*
X034715Y015556I-000040J000000D01*
G01*
Y018056D02*
G03*
X034715Y018056I-000040J000000D01*
G01*
Y018556D02*
G03*
X034715Y018556I-000040J000000D01*
G01*
Y019056D02*
G03*
X034715Y019056I-000040J000000D01*
G01*
Y019556D02*
G03*
X034715Y019556I-000040J000000D01*
G01*
Y020056D02*
G03*
X034715Y020056I-000040J000000D01*
G01*
Y021056D02*
G03*
X034715Y021056I-000040J000000D01*
G01*
X035215Y019556D02*
G03*
X035215Y019556I-000040J000000D01*
G01*
Y020056D02*
G03*
X035215Y020056I-000040J000000D01*
G01*
Y020556D02*
G03*
X035215Y020556I-000040J000000D01*
G01*
Y021056D02*
G03*
X035215Y021056I-000040J000000D01*
G01*
X035715Y015556D02*
G03*
X035715Y015556I-000040J000000D01*
G01*
Y016056D02*
G03*
X035715Y016056I-000040J000000D01*
G01*
Y016556D02*
G03*
X035715Y016556I-000040J000000D01*
G01*
Y017056D02*
G03*
X035715Y017056I-000040J000000D01*
G01*
Y017556D02*
G03*
X035715Y017556I-000040J000000D01*
G01*
Y018056D02*
G03*
X035715Y018056I-000040J000000D01*
G01*
Y018556D02*
G03*
X035715Y018556I-000040J000000D01*
G01*
Y019056D02*
G03*
X035715Y019056I-000040J000000D01*
G01*
Y019556D02*
G03*
X035715Y019556I-000040J000000D01*
G01*
Y020056D02*
G03*
X035715Y020056I-000040J000000D01*
G01*
Y020556D02*
G03*
X035715Y020556I-000040J000000D01*
G01*
Y021056D02*
G03*
X035715Y021056I-000040J000000D01*
G01*
X036215Y015556D02*
G03*
X036215Y015556I-000040J000000D01*
G01*
Y016056D02*
G03*
X036215Y016056I-000040J000000D01*
G01*
Y016556D02*
G03*
X036215Y016556I-000040J000000D01*
G01*
Y017056D02*
G03*
X036215Y017056I-000040J000000D01*
G01*
Y017556D02*
G03*
X036215Y017556I-000040J000000D01*
G01*
Y018056D02*
G03*
X036215Y018056I-000040J000000D01*
G01*
Y018556D02*
G03*
X036215Y018556I-000040J000000D01*
G01*
Y019056D02*
G03*
X036215Y019056I-000040J000000D01*
G01*
Y019556D02*
G03*
X036215Y019556I-000040J000000D01*
G01*
Y020056D02*
G03*
X036215Y020056I-000040J000000D01*
G01*
Y020556D02*
G03*
X036215Y020556I-000040J000000D01*
G01*
Y021056D02*
G03*
X036215Y021056I-000040J000000D01*
G01*
X036715Y015556D02*
G03*
X036715Y015556I-000040J000000D01*
G01*
Y016056D02*
G03*
X036715Y016056I-000040J000000D01*
G01*
Y016556D02*
G03*
X036715Y016556I-000040J000000D01*
G01*
Y017056D02*
G03*
X036715Y017056I-000040J000000D01*
G01*
Y017556D02*
G03*
X036715Y017556I-000040J000000D01*
G01*
Y018056D02*
G03*
X036715Y018056I-000040J000000D01*
G01*
Y018556D02*
G03*
X036715Y018556I-000040J000000D01*
G01*
Y019056D02*
G03*
X036715Y019056I-000040J000000D01*
G01*
Y019556D02*
G03*
X036715Y019556I-000040J000000D01*
G01*
Y020056D02*
G03*
X036715Y020056I-000040J000000D01*
G01*
Y020556D02*
G03*
X036715Y020556I-000040J000000D01*
G01*
Y021056D02*
G03*
X036715Y021056I-000040J000000D01*
G01*
X037215Y015556D02*
G03*
X037215Y015556I-000040J000000D01*
G01*
Y021056D02*
G03*
X037215Y021056I-000040J000000D01*
G01*
X033715Y019556D02*
G03*
X033715Y019556I-000040J000000D01*
G01*
Y020556D02*
G03*
X033715Y020556I-000040J000000D01*
G01*
Y020056D02*
G03*
X033715Y020056I-000040J000000D01*
G01*
M02*
