G04 Layer_Color=32768*
%FSAX44Y44*%
%MOMM*%
G71*
G01*
G75*
%ADD65C,0.1000*%
%ADD179C,0.0500*%
D65*
X00574250Y00327500D02*
X00633750D01*
Y00600500D01*
X00574250D02*
X00633750D01*
X00574250Y00327500D02*
Y00600500D01*
X00294250Y00327500D02*
X00353750D01*
Y00600500D01*
X00294250D02*
X00353750D01*
X00294250Y00327500D02*
Y00600500D01*
D179*
X00658500Y00414000D02*
G03*
X00658500Y00414000I-00003500J00000000D01*
G01*
X00596750Y00272250D02*
G03*
X00596750Y00272250I-00003500J00000000D01*
G01*
X00609750Y00429000D02*
G03*
X00609750Y00429000I-00003500J00000000D01*
G01*
X00335750Y00300900D02*
G03*
X00335750Y00300900I-00003500J00000000D01*
G01*
X00320500Y00296750D02*
G03*
X00320500Y00296750I-00003500J00000000D01*
G01*
X01006750Y00300460D02*
G03*
X01006750Y00300460I-00003500J00000000D01*
G01*
X00536000Y00628250D02*
G03*
X00536000Y00628250I-00003500J00000000D01*
G01*
X00309500Y00504250D02*
G03*
X00309500Y00504250I-00003500J00000000D01*
G01*
X00428500Y00640000D02*
G03*
X00428500Y00640000I-00003500J00000000D01*
G01*
X00945500Y00329460D02*
G03*
X00945500Y00329460I-00003500J00000000D01*
G01*
X00491750Y00359750D02*
G03*
X00491750Y00359750I-00003500J00000000D01*
G01*
X00977500Y00331960D02*
G03*
X00977500Y00331960I-00003500J00000000D01*
G01*
X00483500Y00314250D02*
G03*
X00483500Y00314250I-00003500J00000000D01*
G01*
X00584750Y00306000D02*
G03*
X00584750Y00306000I-00003500J00000000D01*
G01*
X00508970Y00346000D02*
G03*
X00508970Y00346000I-00003500J00000000D01*
G01*
X00458000Y00405000D02*
G03*
X00458000Y00405000I-00003500J00000000D01*
G01*
X00607250Y00315000D02*
G03*
X00607250Y00315000I-00003500J00000000D01*
G01*
X00467491Y00479995D02*
G03*
X00467491Y00479995I-00003500J00000000D01*
G01*
X00535100Y00305600D02*
G03*
X00535100Y00305600I-00003500J00000000D01*
G01*
X00617250Y00300250D02*
G03*
X00617250Y00300250I-00003500J00000000D01*
G01*
X00580500Y00347750D02*
G03*
X00580500Y00347750I-00003500J00000000D01*
G01*
X00533750Y00610500D02*
G03*
X00533750Y00610500I-00003500J00000000D01*
G01*
X00286000Y00596750D02*
G03*
X00286000Y00596750I-00003500J00000000D01*
G01*
X00267801D02*
G03*
X00267801Y00596750I-00003500J00000000D01*
G01*
X00421107Y00599448D02*
G03*
X00421107Y00599448I-00003500J00000000D01*
G01*
X00384617Y00663501D02*
G03*
X00384617Y00663501I-00003500J00000000D01*
G01*
X00442750Y00620500D02*
G03*
X00442750Y00620500I-00003500J00000000D01*
G01*
X00420500Y00629750D02*
G03*
X00420500Y00629750I-00003500J00000000D01*
G01*
X00447500Y00590250D02*
G03*
X00447500Y00590250I-00003500J00000000D01*
G01*
X00591500Y00496077D02*
G03*
X00591500Y00496077I-00003500J00000000D01*
G01*
Y00476538D02*
G03*
X00591500Y00476538I-00003500J00000000D01*
G01*
Y00486308D02*
G03*
X00591500Y00486308I-00003500J00000000D01*
G01*
Y00525384D02*
G03*
X00591500Y00525384I-00003500J00000000D01*
G01*
Y00535154D02*
G03*
X00591500Y00535154I-00003500J00000000D01*
G01*
Y00505846D02*
G03*
X00591500Y00505846I-00003500J00000000D01*
G01*
Y00515615D02*
G03*
X00591500Y00515615I-00003500J00000000D01*
G01*
X00609250Y00543583D02*
G03*
X00609250Y00543583I-00003500J00000000D01*
G01*
Y00533750D02*
G03*
X00609250Y00533750I-00003500J00000000D01*
G01*
Y00467500D02*
G03*
X00609250Y00467500I-00003500J00000000D01*
G01*
Y00517250D02*
G03*
X00609250Y00517250I-00003500J00000000D01*
G01*
X00591500Y00457000D02*
G03*
X00591500Y00457000I-00003500J00000000D01*
G01*
Y00466769D02*
G03*
X00591500Y00466769I-00003500J00000000D01*
G01*
X00591500Y00447250D02*
G03*
X00591500Y00447250I-00003500J00000000D01*
G01*
X00609250Y00507300D02*
G03*
X00609250Y00507300I-00003500J00000000D01*
G01*
X00591500Y00437000D02*
G03*
X00591500Y00437000I-00003500J00000000D01*
G01*
X00609250Y00487400D02*
G03*
X00609250Y00487400I-00003500J00000000D01*
G01*
Y00497350D02*
G03*
X00609250Y00497350I-00003500J00000000D01*
G01*
Y00477450D02*
G03*
X00609250Y00477450I-00003500J00000000D01*
G01*
X00591500Y00545250D02*
G03*
X00591500Y00545250I-00003500J00000000D01*
G01*
X00609250Y00563250D02*
G03*
X00609250Y00563250I-00003500J00000000D01*
G01*
X00592500Y00584000D02*
G03*
X00592500Y00584000I-00003500J00000000D01*
G01*
X00591500Y00574500D02*
G03*
X00591500Y00574500I-00003500J00000000D01*
G01*
Y00564750D02*
G03*
X00591500Y00564750I-00003500J00000000D01*
G01*
X00609250Y00553417D02*
G03*
X00609250Y00553417I-00003500J00000000D01*
G01*
X00591500Y00555000D02*
G03*
X00591500Y00555000I-00003500J00000000D01*
G01*
X00300500Y00449500D02*
G03*
X00300500Y00449500I-00003500J00000000D01*
G01*
X00362413Y00467550D02*
G03*
X00362413Y00467550I-00003500J00000000D01*
G01*
X00278500Y00566500D02*
G03*
X00278500Y00566500I-00003500J00000000D01*
G01*
X00268250D02*
G03*
X00268250Y00566500I-00003500J00000000D01*
G01*
X00366000Y00576250D02*
G03*
X00366000Y00576250I-00003500J00000000D01*
G01*
X00352209Y00467550D02*
G03*
X00352209Y00467550I-00003500J00000000D01*
G01*
X00670206Y00475106D02*
G03*
X00670206Y00475106I-00003500J00000000D01*
G01*
X00659809D02*
G03*
X00659809Y00475106I-00003500J00000000D01*
G01*
X00598250Y00653500D02*
G03*
X00598250Y00653500I-00003500J00000000D01*
G01*
X00349500Y00266500D02*
G03*
X00349500Y00266500I-00003500J00000000D01*
G01*
X00422500Y00433000D02*
G03*
X00422500Y00433000I-00003500J00000000D01*
G01*
X00399500Y00408000D02*
G03*
X00399500Y00408000I-00003500J00000000D01*
G01*
X00324750Y00315250D02*
G03*
X00324750Y00315250I-00003500J00000000D01*
G01*
X00413500Y00412000D02*
G03*
X00413500Y00412000I-00003500J00000000D01*
G01*
X00415500Y00452000D02*
G03*
X00415500Y00452000I-00003500J00000000D01*
G01*
X00360000Y00422500D02*
G03*
X00360000Y00422500I-00003500J00000000D01*
G01*
X00553000Y00268750D02*
G03*
X00553000Y00268750I-00003500J00000000D01*
G01*
X00346000Y00380750D02*
G03*
X00346000Y00380750I-00003500J00000000D01*
G01*
X00333750Y00315250D02*
G03*
X00333750Y00315250I-00003500J00000000D01*
G01*
X00339650Y00266500D02*
G03*
X00339650Y00266500I-00003500J00000000D01*
G01*
X00308500Y00321250D02*
G03*
X00308500Y00321250I-00003500J00000000D01*
G01*
Y00310750D02*
G03*
X00308500Y00310750I-00003500J00000000D01*
G01*
X00318250Y00334000D02*
G03*
X00318250Y00334000I-00003500J00000000D01*
G01*
X00303500Y00266250D02*
G03*
X00303500Y00266250I-00003500J00000000D01*
G01*
X00590432Y00409568D02*
G03*
X00590432Y00409568I-00003500J00000000D01*
G01*
X00506500Y00525250D02*
G03*
X00506500Y00525250I-00003500J00000000D01*
G01*
X00649922Y00619873D02*
G03*
X00649922Y00619873I-00003500J00000000D01*
G01*
X00457450Y00266350D02*
G03*
X00457450Y00266350I-00003500J00000000D01*
G01*
X00649922Y00600873D02*
G03*
X00649922Y00600873I-00003500J00000000D01*
G01*
X00422500Y00497000D02*
G03*
X00422500Y00497000I-00003500J00000000D01*
G01*
X00394504Y00515928D02*
G03*
X00394504Y00515928I-00003500J00000000D01*
G01*
X00483750Y00428500D02*
G03*
X00483750Y00428500I-00003500J00000000D01*
G01*
X00657500Y00298000D02*
G03*
X00657500Y00298000I-00003500J00000000D01*
G01*
X00650500Y00332000D02*
G03*
X00650500Y00332000I-00003500J00000000D01*
G01*
X00583500Y00331000D02*
G03*
X00583500Y00331000I-00003500J00000000D01*
G01*
X00439750Y00390500D02*
G03*
X00439750Y00390500I-00003500J00000000D01*
G01*
X00567750Y00580000D02*
G03*
X00567750Y00580000I-00003500J00000000D01*
G01*
X00483500Y00480000D02*
G03*
X00483500Y00480000I-00003500J00000000D01*
G01*
X00451500D02*
G03*
X00451500Y00480000I-00003500J00000000D01*
G01*
X00614250Y00451000D02*
G03*
X00614250Y00451000I-00003500J00000000D01*
G01*
X00554750Y00367500D02*
G03*
X00554750Y00367500I-00003500J00000000D01*
G01*
X00374464Y00531369D02*
G03*
X00374464Y00531369I-00003500J00000000D01*
G01*
X00436250Y00365000D02*
G03*
X00436250Y00365000I-00003500J00000000D01*
G01*
X00436750Y00586250D02*
G03*
X00436750Y00586250I-00003500J00000000D01*
G01*
X00359000Y00316750D02*
G03*
X00359000Y00316750I-00003500J00000000D01*
G01*
X00467950Y00306600D02*
G03*
X00467950Y00306600I-00003500J00000000D01*
G01*
X00396500Y00300250D02*
G03*
X00396500Y00300250I-00003500J00000000D01*
G01*
X00441500Y00346158D02*
G03*
X00441500Y00346158I-00003500J00000000D01*
G01*
X00405750Y00346250D02*
G03*
X00405750Y00346250I-00003500J00000000D01*
G01*
X00486500Y00318250D02*
G03*
X00486500Y00318250I-00003500J00000000D01*
G01*
X00544750Y00348500D02*
G03*
X00544750Y00348500I-00003500J00000000D01*
G01*
X00415450Y00306000D02*
G03*
X00415450Y00306000I-00003500J00000000D01*
G01*
X00464000Y00354000D02*
G03*
X00464000Y00354000I-00003500J00000000D01*
G01*
X00448874D02*
G03*
X00448874Y00354000I-00003500J00000000D01*
G01*
X00433248D02*
G03*
X00433248Y00354000I-00003500J00000000D01*
G01*
X00381750D02*
G03*
X00381750Y00354000I-00003500J00000000D01*
G01*
X00518500D02*
G03*
X00518500Y00354000I-00003500J00000000D01*
G01*
X00420691Y00286600D02*
G03*
X00420691Y00286600I-00003500J00000000D01*
G01*
X00530000Y00280500D02*
G03*
X00530000Y00280500I-00003500J00000000D01*
G01*
X00511651Y00280600D02*
G03*
X00511651Y00280600I-00003500J00000000D01*
G01*
X00379100Y00281000D02*
G03*
X00379100Y00281000I-00003500J00000000D01*
G01*
X00519500Y00449000D02*
G03*
X00519500Y00449000I-00003500J00000000D01*
G01*
X00410500Y00286600D02*
G03*
X00410500Y00286600I-00003500J00000000D01*
G01*
X00399500Y00481000D02*
G03*
X00399500Y00481000I-00003500J00000000D01*
G01*
X00658500Y00312000D02*
G03*
X00658500Y00312000I-00003500J00000000D01*
G01*
X00929541Y00271108D02*
G03*
X00929541Y00271108I-00003500J00000000D01*
G01*
X00993983Y00417710D02*
G03*
X00993983Y00417710I-00003500J00000000D01*
G01*
X00994750Y00586960D02*
G03*
X00994750Y00586960I-00003500J00000000D01*
G01*
X00972409Y00478487D02*
G03*
X00972409Y00478487I-00003500J00000000D01*
G01*
X00865469Y00621173D02*
G03*
X00865469Y00621173I-00003500J00000000D01*
G01*
X00893719Y00606423D02*
G03*
X00893719Y00606423I-00003500J00000000D01*
G01*
X00893219Y00662173D02*
G03*
X00893219Y00662173I-00003500J00000000D01*
G01*
X00993983Y00407710D02*
G03*
X00993983Y00407710I-00003500J00000000D01*
G01*
X00993983Y00397710D02*
G03*
X00993983Y00397710I-00003500J00000000D01*
G01*
X00980250Y00300460D02*
G03*
X00980250Y00300460I-00003500J00000000D01*
G01*
X00993739D02*
G03*
X00993739Y00300460I-00003500J00000000D01*
G01*
X00292500Y00549500D02*
X00326500D01*
Y00590500D01*
X00292500D02*
X00326500D01*
X00292500Y00549500D02*
Y00590500D01*
X00292500Y00342000D02*
X00328500D01*
X00292500D02*
Y00385000D01*
X00328500D01*
Y00342000D02*
Y00385000D01*
X00313500Y00450000D02*
X00352500D01*
X00313500Y00415000D02*
Y00450000D01*
Y00415000D02*
X00352500D01*
Y00450000D01*
X00333000Y00427500D02*
Y00437500D01*
X00328000Y00432500D02*
X00338000D01*
X00637000Y00394500D02*
Y00433500D01*
X00673000D01*
Y00394500D02*
Y00433500D01*
X00637000Y00394500D02*
X00673000D01*
X00650000Y00414000D02*
X00660000D01*
X00655000Y00409000D02*
Y00419000D01*
X01045750Y00259798D02*
Y00297798D01*
Y00259798D02*
X01080750D01*
Y00297798D01*
X01045750D02*
X01080750D01*
X01058250Y00278798D02*
X01068250D01*
X01063250Y00273798D02*
Y00283798D01*
X00905500Y00669710D02*
X00905500Y00598710D01*
X00905500Y00669710D02*
X00991500Y00669710D01*
Y00598710D02*
Y00669710D01*
X00905500Y00598710D02*
X00991500D01*
X00943500Y00634210D02*
X00953500D01*
X00948500Y00629210D02*
Y00639210D01*
X00588250Y00272250D02*
X00598250D01*
X00593250Y00267250D02*
Y00277250D01*
X00571750Y00254250D02*
Y00290250D01*
Y00254250D02*
X00614750D01*
Y00290250D01*
X00571750D02*
X00614750D01*
X00593500Y00299000D02*
Y00335000D01*
X00636500D01*
Y00299000D02*
Y00335000D01*
X00593500Y00299000D02*
X00636500D01*
X00593250Y00412500D02*
Y00445500D01*
Y00412500D02*
X00619250D01*
Y00445500D01*
X00593250D02*
X00619250D01*
X00601250Y00429000D02*
X00611250D01*
X00606250Y00424000D02*
Y00434000D01*
X00295750Y00328400D02*
X00368750Y00328400D01*
Y00273400D02*
Y00328400D01*
X00295750Y00273400D02*
X00368750D01*
X00295750D02*
X00295750Y00328400D01*
X00332250Y00295900D02*
Y00305900D01*
X00327250Y00300900D02*
X00337250D01*
X00336750Y00287000D02*
Y00306500D01*
X00297250Y00287000D02*
Y00306500D01*
Y00287000D02*
X00336750D01*
X00297250Y00306500D02*
X00336750D01*
X00317000Y00291750D02*
Y00301750D01*
X00312000Y00296750D02*
X00322000D01*
X01065000Y00600460D02*
X01081250Y00584210D01*
X01026750Y00327460D02*
Y00600460D01*
X01065000D01*
X01081250Y00327460D02*
Y00584210D01*
X01026750Y00327460D02*
X01081250D01*
X00946469Y00572423D02*
Y00578423D01*
X00943469Y00575423D02*
X00949469D01*
X00931469Y00582923D02*
X00961469D01*
X00931469Y00567923D02*
X00961469D01*
X00931469D02*
X00931469Y00582923D01*
X00961469D02*
X00961469Y00567923D01*
X01007850Y00291360D02*
Y00309560D01*
X00998650D02*
X01007850D01*
X00998650Y00291360D02*
Y00309560D01*
Y00291360D02*
X01007850D01*
X00998250Y00300460D02*
X01008250D01*
X01003250Y00295460D02*
Y00305460D01*
X00527500Y00628250D02*
X00537500Y00628250D01*
X00532500Y00623250D02*
X00532500Y00633250D01*
X00506500Y00654250D02*
X00558500Y00654250D01*
Y00602250D02*
Y00654250D01*
X00506500Y00602250D02*
X00558500D01*
X00506500Y00654250D02*
X00506500Y00602250D01*
X00306000Y00499250D02*
Y00509250D01*
X00301000Y00504250D02*
X00311000D01*
X00264500Y00462750D02*
Y00545750D01*
Y00462750D02*
X00347500D01*
Y00545750D01*
X00264500D02*
X00347500D01*
X00420000Y00640000D02*
X00430000D01*
X00425000Y00635000D02*
Y00645000D01*
X00461500Y00613500D02*
Y00666500D01*
X00388500Y00613500D02*
X00461500D01*
X00388500D02*
Y00666500D01*
X00461500D01*
X00419850Y00284000D02*
X00466850D01*
X00419850Y00254000D02*
X00466850D01*
X00419850D02*
Y00284000D01*
X00466850Y00254000D02*
Y00284000D01*
X00391750Y00593500D02*
X00401750D01*
X00396750Y00588500D02*
Y00598500D01*
X00380750Y00575000D02*
Y00612000D01*
X00412750Y00612000D01*
Y00575000D02*
Y00612000D01*
X00380750Y00575000D02*
X00412750Y00575000D01*
X00618000Y00363500D02*
Y00404500D01*
X00582000Y00363500D02*
X00618000Y00363500D01*
X00582000Y00404500D02*
X00618000D01*
X00582000Y00363500D02*
X00582000Y00404500D01*
X00997000Y00289710D02*
X01010000D01*
X00997000Y00260210D02*
Y00289710D01*
Y00260210D02*
X01010000D01*
Y00289710D01*
X00942000Y00324460D02*
Y00334460D01*
X00937000Y00329460D02*
X00947000D01*
X00934500Y00314460D02*
X00949500D01*
X00934500D02*
Y00344460D01*
X00949500D01*
Y00314460D02*
Y00344460D01*
X00997250Y00652461D02*
X00997250Y00602961D01*
X01072250D01*
X00997250Y00652461D02*
X01072250D01*
Y00602961D02*
Y00652461D01*
X00799000Y00288460D02*
Y00311460D01*
X00749000Y00288460D02*
Y00311460D01*
Y00288460D02*
X00799000D01*
X00749000Y00311460D02*
X00799000D01*
X00769000Y00299960D02*
X00779000D01*
X00774000Y00294960D02*
Y00304960D01*
X00473250Y00354000D02*
Y00389000D01*
X00525250Y00354000D02*
Y00389000D01*
X00473250Y00354000D02*
X00525250D01*
X00473250Y00389000D02*
X00525250D01*
X00496250Y00371500D02*
X00502250D01*
X00499250Y00368500D02*
Y00374500D01*
X00488250Y00354750D02*
Y00364750D01*
X00483250Y00359750D02*
X00493250D01*
X00476250Y00383500D02*
X00500250Y00383500D01*
X00476250Y00336000D02*
Y00383500D01*
Y00336000D02*
X00500250Y00336000D01*
X00500250Y00383500D02*
X00500250Y00336000D01*
X00969000Y00331960D02*
X00979000D01*
X00974000Y00326960D02*
Y00336960D01*
X00997250Y00320460D02*
Y00343460D01*
X00950750Y00320460D02*
X00997250D01*
X00950750D02*
Y00343460D01*
X00997250D01*
X00490000Y00297250D02*
Y00331250D01*
X00470000Y00297250D02*
X00490000D01*
X00470000D02*
Y00331250D01*
X00490000D01*
X00475000Y00314250D02*
X00485000D01*
X00480000Y00309250D02*
Y00319250D01*
X00505750Y00324250D02*
Y00330250D01*
X00502750Y00327250D02*
X00508750D01*
X00488250Y00317250D02*
X00523250D01*
Y00337250D01*
X00488250D02*
X00523250D01*
X00488250Y00317250D02*
Y00337250D01*
X00573750Y00291000D02*
Y00321000D01*
Y00291000D02*
X00588750D01*
Y00321000D01*
X00573750D02*
X00588750D01*
X00576250Y00306000D02*
X00586250D01*
X00581250Y00301000D02*
Y00311000D01*
X00500470Y00346000D02*
X00510470D01*
X00505470Y00341000D02*
Y00351000D01*
X00489970Y00338000D02*
Y00354000D01*
Y00338000D02*
X00520970D01*
Y00354000D01*
X00489970D02*
X00520970D01*
X00889719Y00618673D02*
Y00624673D01*
X00886719Y00621673D02*
X00892719D01*
X00874219Y00629173D02*
X00905219D01*
X00874219Y00614173D02*
X00905219D01*
X00874219D02*
Y00629173D01*
X00905219Y00614173D02*
Y00629173D01*
X00449500Y00405000D02*
X00459500D01*
X00454500Y00400000D02*
Y00410000D01*
X00469500Y00397500D02*
Y00412500D01*
X00439500D02*
X00469500D01*
X00439500Y00397500D02*
Y00412500D01*
Y00397500D02*
X00469500D01*
X00603750Y00310000D02*
Y00320000D01*
X00598750Y00315000D02*
X00608750D01*
X00598650Y00324700D02*
X00608850D01*
X00598650Y00305300D02*
Y00324700D01*
Y00305300D02*
X00608850D01*
Y00324700D01*
X00981979Y00518583D02*
X01000179D01*
X00981979Y00509383D02*
Y00518583D01*
Y00509383D02*
X01000179D01*
Y00518583D01*
X00991079Y00508983D02*
Y00518983D01*
X00986079Y00513983D02*
X00996079D01*
X00348991Y00364995D02*
Y00594995D01*
Y00364995D02*
X00578991D01*
Y00594995D01*
X00348991D02*
X00578991D01*
X00463991Y00474995D02*
Y00484995D01*
X00458991Y00479995D02*
X00468991D01*
X00480100Y00357100D02*
X00583100D01*
X00480100Y00254100D02*
Y00357100D01*
Y00254100D02*
X00583100D01*
Y00357100D01*
X00526600Y00305600D02*
X00536600D01*
X00531600Y00300600D02*
Y00310600D01*
X00596650Y00530350D02*
X00614850D01*
X00596650Y00521150D02*
Y00530350D01*
Y00521150D02*
X00614850D01*
Y00530350D01*
X00605750Y00520750D02*
Y00530750D01*
X00600750Y00525750D02*
X00610750D01*
X00592750Y00258250D02*
X00607750D01*
X00592750Y00288250D02*
X00607750D01*
X00592750Y00258250D02*
Y00288250D01*
X00607750Y00258250D02*
Y00288250D01*
X00600250Y00270250D02*
Y00276250D01*
X00597250Y00273250D02*
X00603250D01*
X00305400Y00413850D02*
X00305400Y00395650D01*
X00314600Y00395650D01*
Y00413850D01*
X00305400D02*
X00314600D01*
X00305000Y00404750D02*
X00315000D01*
X00310000Y00399750D02*
Y00409750D01*
X00604650Y00304850D02*
X00622850D01*
Y00295650D02*
Y00304850D01*
X00604650Y00295650D02*
X00622850D01*
X00604650D02*
Y00304850D01*
X00613750Y00295250D02*
Y00305250D01*
X00608750Y00300250D02*
X00618750D01*
X00585150Y00304850D02*
X00603350Y00304850D01*
Y00295650D02*
Y00304850D01*
X00585150Y00295650D02*
X00603350Y00295650D01*
X00585150Y00295650D02*
Y00304850D01*
X00594250Y00295250D02*
Y00305250D01*
X00589250Y00300250D02*
X00599250D01*
X00562400Y00255150D02*
Y00273350D01*
X00571600Y00273350D01*
X00571600Y00255150D01*
X00562400D02*
X00571600D01*
X00562000Y00264250D02*
X00572000D01*
X00567000Y00259250D02*
Y00269250D01*
X00540550Y00255561D02*
X00558750Y00255561D01*
X00540550Y00264761D02*
X00540550Y00255561D01*
X00540550Y00264761D02*
X00558750Y00264761D01*
X00558750Y00255561D01*
X00549650Y00255161D02*
Y00265161D01*
X00544650Y00260161D02*
X00554650D01*
X00572000Y00347750D02*
X00582000D01*
X00577000Y00342750D02*
Y00352750D01*
X00562000Y00340250D02*
Y00355250D01*
X00592000D01*
Y00340250D02*
Y00355250D01*
X00562000Y00340250D02*
X00592000D01*
X00530500Y00466500D02*
Y00486500D01*
Y00466500D02*
X00565500D01*
Y00486500D01*
X00530500D02*
X00565500D01*
X00545000Y00476500D02*
X00551000D01*
X00548000Y00473500D02*
Y00479500D01*
X00525250Y00610500D02*
X00535250D01*
X00530250Y00605500D02*
Y00615500D01*
X00545250Y00603000D02*
Y00618000D01*
X00515250Y00603000D02*
X00545250D01*
X00515250D02*
Y00618000D01*
X00545250D01*
X00254000Y00597500D02*
X00292000D01*
X00254000D02*
Y00632500D01*
X00292000D01*
Y00597500D02*
Y00632500D01*
X00273000Y00610000D02*
Y00620000D01*
X00268000Y00615000D02*
X00278000D01*
X00273400Y00601350D02*
X00291600D01*
X00273400Y00592150D02*
Y00601350D01*
Y00592150D02*
X00291600D01*
Y00601350D01*
X00282500Y00591750D02*
Y00601750D01*
X00277500Y00596750D02*
X00287500D01*
X00255201Y00592150D02*
X00273400D01*
Y00601350D01*
X00255201D02*
X00273400D01*
X00255201Y00592150D02*
Y00601350D01*
X00264300Y00591750D02*
Y00601750D01*
X00259300Y00596750D02*
X00269300D01*
X00259356Y00602464D02*
Y00631964D01*
X00272356D01*
Y00602464D02*
Y00631964D01*
X00259356Y00602464D02*
X00272356D01*
X00273356D02*
Y00631964D01*
X00286356D01*
Y00602464D02*
Y00631964D01*
X00273356Y00602464D02*
X00286356D01*
X00422207Y00608548D02*
X00422207Y00590347D01*
X00413007Y00608548D02*
X00422207D01*
X00413007Y00590348D02*
Y00608548D01*
Y00590348D02*
X00422207Y00590347D01*
X00412607Y00599448D02*
X00422607D01*
X00417607Y00594448D02*
Y00604448D01*
X00385717Y00654401D02*
Y00672601D01*
X00376517D02*
X00385717D01*
X00376517D02*
X00376517Y00654401D01*
X00385717Y00654401D01*
X00376117Y00663501D02*
X00386117D01*
X00381117Y00658501D02*
Y00668501D01*
X00390739Y00625503D02*
X00408939D01*
X00390739D02*
Y00634703D01*
X00408939D01*
Y00625503D02*
Y00634703D01*
X00399839Y00625103D02*
Y00635103D01*
X00394839Y00630103D02*
X00404839D01*
X00389900Y00635900D02*
X00408100D01*
X00389900D02*
Y00645100D01*
X00408100D01*
Y00635900D02*
Y00645100D01*
X00399000Y00635500D02*
Y00645500D01*
X00394000Y00640500D02*
X00404000D01*
X00434250Y00620500D02*
X00444250D01*
X00439250Y00615500D02*
Y00625500D01*
X00454250Y00613000D02*
Y00628000D01*
X00424250D02*
X00454250D01*
X00424250Y00613000D02*
Y00628000D01*
Y00613000D02*
X00454250D01*
X00417000Y00624750D02*
Y00634750D01*
X00412000Y00629750D02*
X00422000D01*
X00409500Y00644750D02*
X00424500D01*
X00409500Y00614750D02*
Y00644750D01*
Y00614750D02*
X00424500D01*
Y00644750D01*
X00395900Y00652150D02*
X00414100D01*
X00395900D02*
Y00661350D01*
X00414100D01*
Y00652150D02*
Y00661350D01*
X00405000Y00651750D02*
Y00661750D01*
X00400000Y00656750D02*
X00410000D01*
X00390900Y00609600D02*
X00409100D01*
Y00600400D02*
Y00609600D01*
X00390900Y00600400D02*
X00409100D01*
X00390900D02*
Y00609600D01*
X00400000Y00600000D02*
Y00610000D01*
X00395000Y00605000D02*
X00405000D01*
X00444000Y00585250D02*
Y00595250D01*
X00439000Y00590250D02*
X00449000D01*
X00436500Y00575250D02*
X00451500D01*
X00436500D02*
Y00605250D01*
X00451500D01*
Y00575250D02*
Y00605250D01*
X00414790Y00652174D02*
X00432990D01*
X00414790D02*
Y00661374D01*
X00432990D01*
Y00652174D02*
Y00661374D01*
X00423890Y00651774D02*
Y00661774D01*
X00418890Y00656774D02*
X00428890D01*
X00454900Y00619400D02*
Y00637600D01*
X00464100D01*
Y00619400D02*
Y00637600D01*
X00454900Y00619400D02*
X00464100D01*
X00454500Y00628500D02*
X00464500D01*
X00459500Y00623500D02*
Y00633500D01*
X00441900Y00646600D02*
X00460100D01*
Y00637400D02*
Y00646600D01*
X00441900Y00637400D02*
X00460100D01*
X00441900D02*
Y00646600D01*
X00451000Y00637000D02*
X00451000Y00647000D01*
X00446000Y00642000D02*
X00456000Y00642000D01*
X00378842Y00591321D02*
Y00609521D01*
X00388041D01*
Y00591321D02*
Y00609521D01*
X00378842Y00591321D02*
X00388041D01*
X00378442Y00600421D02*
X00388441D01*
X00383441Y00595421D02*
Y00605421D01*
X00435865Y00613284D02*
X00454065D01*
X00435865Y00604084D02*
Y00613284D01*
Y00604084D02*
X00454065D01*
Y00613284D01*
X00444965Y00603684D02*
Y00613684D01*
X00439965Y00608684D02*
X00449965D01*
X00376517Y00635182D02*
X00376517Y00616982D01*
X00385717D01*
Y00635182D01*
X00376517Y00635182D02*
X00385717Y00635182D01*
X00376117Y00626082D02*
X00386117Y00626082D01*
X00381117Y00621082D02*
X00381117Y00631082D01*
X00385717Y00635897D02*
X00385717Y00654097D01*
X00376517D02*
X00385717D01*
X00376517Y00635897D02*
Y00654097D01*
Y00635897D02*
X00385717D01*
X00376117Y00644997D02*
X00386117D01*
X00381117Y00639997D02*
Y00649997D01*
X00315250Y00383250D02*
X00353250D01*
Y00418250D01*
X00315250D02*
X00353250D01*
X00315250Y00383250D02*
Y00418250D01*
X00334250Y00395750D02*
Y00405750D01*
X00329250Y00400750D02*
X00339250D01*
X00669034Y00595473D02*
Y00633473D01*
X00634034D02*
X00669034D01*
X00634034Y00595473D02*
Y00633473D01*
Y00595473D02*
X00669034D01*
X00646534Y00614473D02*
X00656534D01*
X00651534Y00609473D02*
Y00619473D01*
X00578900Y00491477D02*
X00597100D01*
Y00500677D01*
X00578900D02*
X00597100D01*
X00578900Y00491477D02*
Y00500677D01*
X00588000Y00491077D02*
Y00501077D01*
X00583000Y00496077D02*
X00593000D01*
X00578900Y00471939D02*
X00597100D01*
Y00481138D01*
X00578900D02*
X00597100D01*
X00578900Y00471939D02*
Y00481138D01*
X00588000Y00471539D02*
Y00481538D01*
X00583000Y00476538D02*
X00593000D01*
X00578900Y00481708D02*
X00597100D01*
Y00490908D01*
X00578900D02*
X00597100D01*
X00578900Y00481708D02*
Y00490908D01*
X00588000Y00481308D02*
Y00491308D01*
X00583000Y00486308D02*
X00593000D01*
X00578900Y00520785D02*
X00597100D01*
Y00529985D01*
X00578900D02*
X00597100D01*
X00578900Y00520785D02*
Y00529985D01*
X00588000Y00520385D02*
Y00530384D01*
X00583000Y00525384D02*
X00593000D01*
X00578900Y00530554D02*
X00597100D01*
Y00539754D01*
X00578900D02*
X00597100D01*
X00578900Y00530554D02*
Y00539754D01*
X00588000Y00530154D02*
Y00540154D01*
X00583000Y00535154D02*
X00593000D01*
X00578900Y00501246D02*
X00597100D01*
Y00510446D01*
X00578900D02*
X00597100D01*
X00578900Y00501246D02*
Y00510446D01*
X00588000Y00500846D02*
Y00510846D01*
X00583000Y00505846D02*
X00593000D01*
X00578900Y00511015D02*
X00597100D01*
Y00520215D01*
X00578900D02*
X00597100D01*
X00578900Y00511015D02*
Y00520215D01*
X00588000Y00510615D02*
Y00520615D01*
X00583000Y00515615D02*
X00593000D01*
X00596650Y00548183D02*
X00614850D01*
X00596650Y00538983D02*
Y00548183D01*
Y00538983D02*
X00614850D01*
Y00548183D01*
X00605750Y00538583D02*
Y00548583D01*
X00600750Y00543583D02*
X00610750D01*
X00596650Y00538350D02*
X00614850D01*
X00596650Y00529150D02*
Y00538350D01*
Y00529150D02*
X00614850D01*
Y00538350D01*
X00605750Y00528750D02*
Y00538750D01*
X00600750Y00533750D02*
X00610750D01*
X00596650Y00472100D02*
X00614850D01*
X00596650Y00462900D02*
Y00472100D01*
Y00462900D02*
X00614850D01*
Y00472100D01*
X00605750Y00462500D02*
Y00472500D01*
X00600750Y00467500D02*
X00610750D01*
X00596650Y00521850D02*
X00614850D01*
X00596650Y00512650D02*
Y00521850D01*
Y00512650D02*
X00614850D01*
Y00521850D01*
X00605750Y00512250D02*
Y00522250D01*
X00600750Y00517250D02*
X00610750D01*
X00578900Y00452400D02*
X00597100D01*
Y00461600D01*
X00578900D02*
X00597100D01*
X00578900Y00452400D02*
Y00461600D01*
X00588000Y00452000D02*
Y00462000D01*
X00583000Y00457000D02*
X00593000D01*
X00578900Y00462169D02*
X00597100D01*
Y00471369D01*
X00578900D02*
X00597100D01*
X00578900Y00462169D02*
Y00471369D01*
X00588000Y00461769D02*
Y00471769D01*
X00583000Y00466769D02*
X00593000D01*
X00578900Y00442650D02*
X00597100D01*
Y00451850D01*
X00578900D02*
X00597100D01*
X00578900Y00442650D02*
Y00451850D01*
X00588000Y00442250D02*
Y00452250D01*
X00583000Y00447250D02*
X00593000D01*
X00596650Y00511900D02*
X00614850D01*
X00596650Y00502700D02*
Y00511900D01*
Y00502700D02*
X00614850D01*
Y00511900D01*
X00605750Y00502300D02*
Y00512300D01*
X00600750Y00507300D02*
X00610750D01*
X00578900Y00432400D02*
X00597100Y00432400D01*
Y00441600D01*
X00578900Y00441600D02*
X00597100Y00441600D01*
X00578900Y00432400D02*
X00578900Y00441600D01*
X00588000Y00432000D02*
Y00442000D01*
X00583000Y00437000D02*
X00593000D01*
X00596650Y00492000D02*
X00614850D01*
X00596650Y00482800D02*
Y00492000D01*
Y00482800D02*
X00614850D01*
Y00492000D01*
X00605750Y00482400D02*
Y00492400D01*
X00600750Y00487400D02*
X00610750D01*
X00596650Y00501950D02*
X00614850D01*
X00596650Y00492750D02*
Y00501950D01*
Y00492750D02*
X00614850D01*
Y00501950D01*
X00605750Y00492350D02*
Y00502350D01*
X00600750Y00497350D02*
X00610750D01*
X00596650Y00482050D02*
X00614850D01*
X00596650Y00472850D02*
Y00482050D01*
Y00472850D02*
X00614850D01*
Y00482050D01*
X00605750Y00472450D02*
Y00482450D01*
X00600750Y00477450D02*
X00610750D01*
X00578900Y00540650D02*
X00597100D01*
Y00549850D01*
X00578900D02*
X00597100D01*
X00578900Y00540650D02*
Y00549850D01*
X00588000Y00540250D02*
Y00550250D01*
X00583000Y00545250D02*
X00593000D01*
X00596650Y00567850D02*
X00614850D01*
X00596650Y00558650D02*
Y00567850D01*
Y00558650D02*
X00614850D01*
Y00567850D01*
X00605750Y00558250D02*
Y00568250D01*
X00600750Y00563250D02*
X00610750D01*
X00579900Y00588600D02*
X00598100D01*
X00579900Y00579400D02*
Y00588600D01*
Y00579400D02*
X00598100D01*
Y00588600D01*
X00589000Y00579000D02*
Y00589000D01*
X00584000Y00584000D02*
X00594000D01*
X00578900Y00569900D02*
X00597100D01*
Y00579100D01*
X00578900D02*
X00597100D01*
X00578900Y00569900D02*
Y00579100D01*
X00588000Y00569500D02*
Y00579500D01*
X00583000Y00574500D02*
X00593000D01*
X00578900Y00560150D02*
X00597100D01*
Y00569350D01*
X00578900D02*
X00597100D01*
X00578900Y00560150D02*
Y00569350D01*
X00588000Y00559750D02*
Y00569750D01*
X00583000Y00564750D02*
X00593000D01*
X00596650Y00558017D02*
X00614850D01*
X00596650Y00548817D02*
Y00558017D01*
Y00548817D02*
X00614850D01*
Y00558017D01*
X00605750Y00548417D02*
Y00558417D01*
X00600750Y00553417D02*
X00610750D01*
X00578900Y00550400D02*
X00597100D01*
Y00559600D01*
X00578900D02*
X00597100D01*
X00578900Y00550400D02*
Y00559600D01*
X00588000Y00550000D02*
Y00560000D01*
X00583000Y00555000D02*
X00593000D01*
X00287900Y00444900D02*
X00306100D01*
Y00454100D01*
X00287900D02*
X00306100D01*
X00287900Y00444900D02*
Y00454100D01*
X00297000Y00444500D02*
Y00454500D01*
X00292000Y00449500D02*
X00302000D01*
X00363513Y00458450D02*
Y00476650D01*
X00354313D02*
X00363513D01*
X00354313Y00458450D02*
X00354313Y00476650D01*
X00354313Y00458450D02*
X00363513D01*
X00353913Y00467550D02*
X00363913D01*
X00358913Y00462550D02*
Y00472550D01*
X00270400Y00575600D02*
X00270400Y00557400D01*
X00279600Y00557400D01*
Y00575600D01*
X00270400Y00575600D02*
X00279600Y00575600D01*
X00270000Y00566500D02*
X00280000D01*
X00275000Y00561500D02*
X00275000Y00571500D01*
X00260150Y00557400D02*
Y00575600D01*
Y00557400D02*
X00269350Y00557400D01*
X00269350Y00575600D01*
X00260150D02*
X00269350D01*
X00259750Y00566500D02*
X00269750D01*
X00264750Y00561500D02*
Y00571500D01*
X00357900Y00567150D02*
Y00585350D01*
X00367100D01*
Y00567150D02*
Y00585350D01*
X00357900Y00567150D02*
X00367100D01*
X00357500Y00576250D02*
X00367500D01*
X00362500Y00571250D02*
Y00581250D01*
X00344109Y00458450D02*
X00344109Y00476650D01*
X00344109Y00458450D02*
X00353309D01*
X00353309Y00476650D01*
X00344109Y00476650D02*
X00353309Y00476650D01*
X00343709Y00467550D02*
X00353709D01*
X00348709Y00462550D02*
Y00472550D01*
X00662105Y00466006D02*
X00662106Y00484206D01*
X00671305Y00484206D01*
Y00466006D02*
Y00484206D01*
X00662105Y00466006D02*
X00671305Y00466006D01*
X00661705Y00475106D02*
X00671705D01*
X00666705Y00470106D02*
Y00480106D01*
X00660909Y00466006D02*
Y00484206D01*
X00651709Y00466006D02*
X00660909Y00466006D01*
X00651709Y00466006D02*
Y00484206D01*
X00660909Y00484206D01*
X00651309Y00475106D02*
X00661309D01*
X00656309Y00470106D02*
Y00480106D01*
X00585650Y00648900D02*
X00603850D01*
X00585650Y00658100D02*
X00585650Y00648900D01*
X00585650Y00658100D02*
X00603850Y00658100D01*
Y00648900D02*
Y00658100D01*
X00594750Y00648500D02*
X00594750Y00658500D01*
X00589750Y00653500D02*
X00599750Y00653500D01*
X00341400Y00257400D02*
Y00275600D01*
X00350600D01*
Y00257400D02*
Y00275600D01*
X00341400Y00257400D02*
X00350600D01*
X00341000Y00266500D02*
X00351000D01*
X00346000Y00261500D02*
Y00271500D01*
X00409900Y00437600D02*
X00428100D01*
Y00428400D02*
Y00437600D01*
X00409900Y00428400D02*
X00428100D01*
X00409900D02*
Y00437600D01*
X00419000Y00428000D02*
Y00438000D01*
X00414000Y00433000D02*
X00424000D01*
X00386900Y00403400D02*
X00405100Y00403400D01*
X00386900Y00403400D02*
Y00412600D01*
X00405100D01*
Y00403400D02*
Y00412600D01*
X00396000Y00403000D02*
Y00413000D01*
X00391000Y00408000D02*
X00401000D01*
X00325850Y00306150D02*
Y00324350D01*
X00316650Y00324350D02*
X00325850Y00324350D01*
X00316650Y00306150D02*
Y00324350D01*
Y00306150D02*
X00325850Y00306150D01*
X00316250Y00315250D02*
X00326250D01*
X00321250Y00310250D02*
Y00320250D01*
X00405400Y00421100D02*
X00405400Y00402900D01*
X00405400Y00421100D02*
X00414600D01*
X00414600Y00402900D02*
X00414600Y00421100D01*
X00405400Y00402900D02*
X00414600D01*
X00405000Y00412000D02*
X00415000D01*
X00410000Y00407000D02*
Y00417000D01*
X00408818Y00442313D02*
X00421687Y00455182D01*
X00402313Y00448818D02*
X00408818Y00442313D01*
X00402313Y00448818D02*
X00415182Y00461687D01*
X00421687Y00455182D01*
X00408465Y00455536D02*
X00415536Y00448465D01*
X00408465D02*
X00415536Y00455536D01*
X00361100Y00431600D02*
X00361100Y00413400D01*
X00351900Y00431600D02*
X00361100Y00431600D01*
X00351900Y00431600D02*
X00351900Y00413400D01*
X00361100Y00413400D01*
X00351500Y00422500D02*
X00361500D01*
X00356500Y00417500D02*
Y00427500D01*
X00540400Y00264150D02*
X00558600Y00264150D01*
X00540400Y00264150D02*
X00540400Y00273350D01*
X00558600Y00273350D01*
X00558600Y00264150D02*
X00558600Y00273350D01*
X00549500Y00263750D02*
Y00273750D01*
X00544500Y00268750D02*
X00554500Y00268750D01*
X00333400Y00376150D02*
X00351600Y00376150D01*
Y00385350D01*
X00333400Y00385350D02*
X00351600Y00385350D01*
X00333400Y00376150D02*
Y00385350D01*
X00342500Y00375750D02*
Y00385750D01*
X00337500Y00380750D02*
X00347500D01*
X00325650Y00306150D02*
Y00324350D01*
Y00306150D02*
X00334850D01*
Y00324350D01*
X00325650Y00324350D02*
X00334850Y00324350D01*
X00325250Y00315250D02*
X00335250D01*
X00330250Y00310250D02*
Y00320250D01*
X00340750Y00257400D02*
Y00275600D01*
X00331550Y00257400D02*
X00340750D01*
X00331550D02*
Y00275600D01*
X00340750D01*
X00331150Y00266500D02*
X00341150D01*
X00336150Y00261500D02*
Y00271500D01*
X00295900Y00316650D02*
X00314100D01*
Y00325850D01*
X00295900D02*
X00314100D01*
X00295900Y00316650D02*
Y00325850D01*
X00305000Y00316250D02*
Y00326250D01*
X00300000Y00321250D02*
X00310000D01*
X00295900Y00306150D02*
X00314100D01*
Y00315350D01*
X00295900D02*
X00314100D01*
X00295900Y00306150D02*
Y00315350D01*
X00305000Y00305750D02*
Y00315750D01*
X00300000Y00310750D02*
X00310000D01*
X00305650Y00338600D02*
X00323850D01*
X00305650Y00329400D02*
Y00338600D01*
Y00329400D02*
X00323850D01*
Y00338600D01*
X00314750Y00329000D02*
Y00339000D01*
X00309750Y00334000D02*
X00319750D01*
X00304600Y00257150D02*
Y00275350D01*
X00295400Y00257150D02*
X00304600D01*
X00295400D02*
Y00275350D01*
X00304600D01*
X00295000Y00266250D02*
X00305000D01*
X00300000Y00261250D02*
Y00271250D01*
X00577832Y00404968D02*
X00596032D01*
Y00414168D01*
X00577832Y00414168D02*
X00596032Y00414168D01*
X00577832Y00404968D02*
Y00414168D01*
X00586932Y00404568D02*
Y00414568D01*
X00581932Y00409568D02*
X00591932D01*
X00507600Y00516150D02*
X00507600Y00534350D01*
X00498400Y00516150D02*
X00507600Y00516150D01*
X00498400Y00534350D02*
X00498400Y00516150D01*
X00498400Y00534350D02*
X00507600D01*
X00498000Y00525250D02*
X00508000D01*
X00503000Y00520250D02*
Y00530250D01*
X00641822Y00610773D02*
Y00628973D01*
X00651022D01*
Y00610773D02*
Y00628973D01*
X00641822Y00610773D02*
X00651022D01*
X00641422Y00619873D02*
X00651422D01*
X00646422Y00614873D02*
Y00624873D01*
X00449350Y00257250D02*
Y00275450D01*
X00458550D01*
X00458550Y00257250D01*
X00449350D02*
X00458550D01*
X00448950Y00266350D02*
X00458950D01*
X00453950Y00261350D02*
Y00271350D01*
X00651022Y00591773D02*
Y00609973D01*
X00641822Y00591773D02*
X00651022D01*
X00641822D02*
X00641822Y00609973D01*
X00651022D01*
X00641422Y00600873D02*
X00651422D01*
X00646422Y00595873D02*
Y00605873D01*
X00409900Y00492400D02*
X00428100Y00492400D01*
X00409900Y00492400D02*
X00409900Y00501600D01*
X00428100Y00501600D01*
X00428100Y00492400D02*
X00428100Y00501600D01*
X00419000Y00492000D02*
Y00502000D01*
X00414000Y00497000D02*
X00424000D01*
X00386404Y00506828D02*
X00386404Y00525028D01*
X00395604Y00525028D01*
X00395604Y00506828D02*
X00395604Y00525028D01*
X00386404Y00506828D02*
X00395604Y00506828D01*
X00386004Y00515928D02*
X00396004D01*
X00391004Y00520928D02*
X00391004Y00510928D01*
X00475650Y00437600D02*
X00475650Y00419400D01*
X00475650Y00437600D02*
X00484850D01*
X00484850Y00419400D02*
X00484850Y00437600D01*
X00475650Y00419400D02*
X00484850D01*
X00475250Y00428500D02*
X00485250D01*
X00480250Y00423500D02*
Y00433500D01*
X00644900Y00302600D02*
X00663100Y00302600D01*
X00644900Y00293400D02*
Y00302600D01*
Y00293400D02*
X00663100Y00293400D01*
Y00302600D01*
X00654000Y00293000D02*
Y00303000D01*
X00649000Y00298000D02*
X00659000D01*
X00637900Y00336600D02*
X00656100D01*
Y00327400D02*
Y00336600D01*
X00637900Y00327400D02*
X00656100D01*
X00637900D02*
Y00336600D01*
X00647000Y00327000D02*
Y00337000D01*
X00642000Y00332000D02*
X00652000D01*
X00570900Y00335600D02*
X00589100D01*
X00570900Y00326400D02*
Y00335600D01*
Y00326400D02*
X00589100D01*
Y00335600D01*
X00580000Y00326000D02*
Y00336000D01*
X00575000Y00331000D02*
X00585000D01*
X00536250Y00283750D02*
X00583250D01*
X00536250Y00253750D02*
X00583250D01*
X00536250D02*
Y00283750D01*
X00583250Y00253750D02*
Y00283750D01*
X00324250Y00377125D02*
X00353750D01*
X00353750Y00364125D01*
X00324250Y00364125D02*
X00353750Y00364125D01*
X00324250Y00364125D02*
X00324250Y00377125D01*
X00651534Y00599723D02*
Y00629223D01*
Y00599723D02*
X00664533D01*
Y00629223D01*
X00651534D02*
X00664533D01*
X00431250Y00390500D02*
X00441250D01*
X00436250Y00385500D02*
Y00395500D01*
X00421250Y00398000D02*
X00421250Y00383000D01*
X00451250D01*
X00451250Y00398000D02*
X00451250Y00383000D01*
X00421250Y00398000D02*
X00451250D01*
X00559250Y00580000D02*
X00569250D01*
X00564250Y00575000D02*
Y00585000D01*
X00549250Y00572500D02*
Y00587500D01*
Y00572500D02*
X00579250Y00572500D01*
X00579250Y00587500D02*
X00579250Y00572500D01*
X00549250Y00587500D02*
X00579250D01*
X00475000Y00480000D02*
X00485000D01*
X00480000Y00475000D02*
Y00485000D01*
X00465000Y00487500D02*
X00465000Y00472500D01*
X00495000D01*
X00495000Y00487500D01*
X00465000D02*
X00495000D01*
X00443000Y00480000D02*
X00453000D01*
X00448000Y00475000D02*
Y00485000D01*
X00463000Y00472500D02*
Y00487500D01*
X00433000D02*
X00463000D01*
X00433000Y00472500D02*
Y00487500D01*
Y00472500D02*
X00463000D01*
X00595750Y00458500D02*
X00625750D01*
X00595750Y00443500D02*
Y00458500D01*
Y00443500D02*
X00625750D01*
Y00458500D01*
X00610750Y00446000D02*
Y00456000D01*
X00605750Y00451000D02*
X00615750D01*
X00620150Y00434100D02*
X00620150Y00415900D01*
X00629350D01*
X00629350Y00434100D01*
X00620150D02*
X00629350D01*
X00619750Y00425000D02*
X00629750D01*
X00624750Y00420000D02*
Y00430000D01*
X00260650Y00555600D02*
X00278850D01*
Y00546400D02*
Y00555600D01*
X00260650Y00546400D02*
X00278850D01*
X00260650D02*
Y00555600D01*
X00269750Y00546000D02*
Y00556000D01*
X00264750Y00551000D02*
X00274750D01*
X00260650Y00565850D02*
X00278850D01*
Y00556650D02*
Y00565850D01*
X00260650Y00556650D02*
X00278850D01*
X00260650D02*
Y00565850D01*
X00269750Y00556250D02*
Y00566250D01*
X00264750Y00561250D02*
X00274750D01*
X00268600Y00459900D02*
Y00478100D01*
X00259400D02*
X00268600D01*
X00259400Y00459900D02*
Y00478100D01*
Y00459900D02*
X00268600D01*
X00259000Y00469000D02*
X00269000D01*
X00264000Y00464000D02*
Y00474000D01*
X00291600Y00467150D02*
Y00485350D01*
X00282400Y00467150D02*
X00291600D01*
X00282400D02*
Y00485350D01*
X00291600D01*
X00282000Y00476250D02*
X00292000D01*
X00287000Y00471250D02*
Y00481250D01*
X00324400Y00458850D02*
X00342600D01*
X00324400Y00449650D02*
Y00458850D01*
Y00449650D02*
X00342600D01*
Y00458850D01*
X00333500Y00449250D02*
Y00459250D01*
X00328500Y00454250D02*
X00338500D01*
X00355100Y00497150D02*
X00355100Y00515350D01*
X00345900D02*
X00355100D01*
X00345900D02*
X00345900Y00497150D01*
X00355100D01*
X00345500Y00506250D02*
X00355500D01*
X00350500Y00501250D02*
Y00511250D01*
X00346400Y00517900D02*
Y00536100D01*
Y00517900D02*
X00355600D01*
Y00536100D01*
X00346400D02*
X00355600D01*
X00346000Y00527000D02*
X00356000D01*
X00351000Y00522000D02*
Y00532000D01*
X00555600Y00587400D02*
Y00605600D01*
X00546400Y00587400D02*
X00555600D01*
X00546400D02*
Y00605600D01*
X00555600D01*
X00546000Y00596500D02*
X00556000D01*
X00551000Y00591500D02*
Y00601500D01*
X00545650Y00638100D02*
X00545650Y00619900D01*
X00554850D01*
X00554850Y00638100D01*
X00545650D02*
X00554850D01*
X00545250Y00629000D02*
X00555250D01*
X00550250Y00624000D02*
Y00634000D01*
X00546650Y00592650D02*
Y00610850D01*
Y00592650D02*
X00555850D01*
X00555850Y00610850D01*
X00546650Y00610850D02*
X00555850Y00610850D01*
X00546250Y00601750D02*
X00556250D01*
X00551250Y00596750D02*
Y00606750D01*
X00502400Y00630100D02*
X00520600D01*
X00502400Y00620900D02*
Y00630100D01*
Y00620900D02*
X00520600D01*
Y00630100D01*
X00511500Y00620500D02*
Y00630500D01*
X00506500Y00625500D02*
X00516500D01*
X00572818Y00634313D02*
X00585687Y00647182D01*
X00566313Y00640818D02*
X00572818Y00634313D01*
X00566313Y00640818D02*
X00579182Y00653687D01*
X00585687Y00647182D01*
X00572464Y00647535D02*
X00579535Y00640464D01*
X00572464Y00640464D02*
X00579535Y00647535D01*
X00564150Y00625150D02*
X00582350Y00625150D01*
X00564150Y00625150D02*
Y00634350D01*
X00582350D01*
X00582350Y00625150D01*
X00573250Y00624750D02*
Y00634750D01*
X00568250Y00629750D02*
X00578250D01*
X00360100Y00257400D02*
Y00275600D01*
X00350900Y00257400D02*
X00360100D01*
X00350900D02*
Y00275600D01*
X00360100D01*
X00350500Y00266500D02*
X00360500D01*
X00355500Y00261500D02*
Y00271500D01*
X00608650Y00362600D02*
X00626850D01*
X00608650Y00353400D02*
Y00362600D01*
Y00353400D02*
X00626850D01*
Y00362600D01*
X00617750Y00353000D02*
Y00363000D01*
X00612750Y00358000D02*
X00622750D01*
X00441650Y00426850D02*
X00459850Y00426850D01*
X00459850Y00417650D01*
X00441650Y00417650D02*
X00459850Y00417650D01*
X00441650Y00417650D02*
X00441650Y00426850D01*
X00450750Y00417250D02*
Y00427250D01*
X00445750Y00422250D02*
X00455750D01*
X00419900Y00410600D02*
X00438100D01*
Y00401400D02*
Y00410600D01*
X00419900Y00401400D02*
X00438100D01*
X00419900D02*
Y00410600D01*
X00429000Y00411000D02*
X00429000Y00401000D01*
X00424000Y00406000D02*
X00434000Y00406000D01*
X00405390Y00418324D02*
Y00436524D01*
X00396190Y00418324D02*
X00405390D01*
X00396190D02*
Y00436524D01*
X00405390D01*
X00395790Y00427424D02*
X00405790Y00427424D01*
X00400790Y00422424D02*
X00400790Y00432424D01*
X00546250Y00367500D02*
X00556250D01*
X00551250Y00362500D02*
Y00372500D01*
X00527500Y00355500D02*
Y00379500D01*
X00575000Y00379500D01*
X00575000Y00355500D01*
X00527500D02*
X00575000D01*
X00410543Y00513895D02*
X00428743Y00513895D01*
X00410543Y00513895D02*
Y00523095D01*
X00428743D01*
Y00513895D02*
Y00523095D01*
X00419643Y00513495D02*
X00419643Y00523495D01*
X00414643Y00518495D02*
X00424643Y00518495D01*
X00459400Y00518900D02*
Y00537100D01*
X00468600D01*
X00468600Y00518900D02*
X00468600Y00537100D01*
X00459400Y00518900D02*
X00468600D01*
X00459000Y00528000D02*
X00469000D01*
X00464000Y00523000D02*
Y00533000D01*
X00370964Y00526369D02*
Y00536369D01*
X00365964Y00531369D02*
X00375964D01*
X00358964Y00507619D02*
X00382964Y00507619D01*
X00358964Y00507619D02*
Y00555119D01*
X00382964Y00555119D01*
Y00507619D02*
Y00555119D01*
X00377400Y00420100D02*
X00377400Y00401900D01*
X00377400Y00420100D02*
X00386600D01*
X00386600Y00401900D02*
X00386600Y00420100D01*
X00377400Y00401900D02*
X00386600D01*
X00377000Y00411000D02*
X00387000D01*
X00382000Y00406000D02*
Y00416000D01*
X00387050Y00499600D02*
X00405250Y00499600D01*
Y00490400D02*
Y00499600D01*
X00387050Y00490400D02*
X00405250Y00490400D01*
X00387050Y00490400D02*
Y00499600D01*
X00396150Y00490000D02*
Y00500000D01*
X00391150Y00495000D02*
X00401150D01*
X00386642Y00418395D02*
Y00436595D01*
X00395841D01*
Y00418395D02*
Y00436595D01*
X00386642Y00418395D02*
X00395841D01*
X00386241Y00427495D02*
X00396241Y00427495D01*
X00391241Y00432495D02*
X00391241Y00422495D01*
X00532850Y00427650D02*
X00532850Y00445850D01*
X00523650Y00427650D02*
X00532850D01*
X00523650Y00445850D02*
X00523650Y00427650D01*
X00523650Y00445850D02*
X00532850Y00445850D01*
X00523250Y00436750D02*
X00533250D01*
X00528250Y00431750D02*
Y00441750D01*
X00546890Y00425600D02*
X00565090D01*
X00565090Y00416400D01*
X00546890D02*
X00565090D01*
X00546890D02*
X00546890Y00425600D01*
X00555990Y00416000D02*
Y00426000D01*
X00550990Y00421000D02*
X00560990D01*
X00522400Y00381400D02*
X00540600Y00381400D01*
X00522400Y00381400D02*
Y00390600D01*
X00540600D01*
X00540600Y00381400D01*
X00531500Y00391000D02*
X00531500Y00381000D01*
X00526500Y00386000D02*
X00536500Y00386000D01*
X00550350Y00530900D02*
X00550350Y00549100D01*
X00541150Y00530900D02*
X00550350D01*
X00541150D02*
Y00549100D01*
X00550350Y00549100D01*
X00540750Y00540000D02*
X00550750D01*
X00545750Y00535000D02*
Y00545000D01*
X00475400Y00509100D02*
X00475400Y00490900D01*
X00475400Y00509100D02*
X00484600D01*
Y00490900D02*
Y00509100D01*
X00475400Y00490900D02*
X00484600Y00490900D01*
X00475000Y00500000D02*
X00485000D01*
X00480000Y00495000D02*
Y00505000D01*
X00457900Y00508400D02*
X00476100D01*
X00457900D02*
Y00517600D01*
X00476100D01*
Y00508400D02*
Y00517600D01*
X00467000Y00508000D02*
Y00518000D01*
X00462000Y00513000D02*
X00472000D01*
X00427750Y00365000D02*
X00437750D01*
X00432750Y00360000D02*
Y00370000D01*
X00456500Y00353000D02*
Y00377000D01*
X00409000Y00353000D02*
X00456500D01*
X00409000D02*
Y00377000D01*
X00456500D01*
X00468591Y00410895D02*
X00468591Y00429095D01*
X00459391Y00410895D02*
X00468591Y00410895D01*
X00459391Y00410895D02*
X00459392Y00429095D01*
X00468591Y00429095D01*
X00458991Y00419995D02*
X00468991Y00419995D01*
X00463991Y00424995D02*
X00463992Y00414995D01*
X00419391Y00411395D02*
X00437591Y00411395D01*
X00419391Y00411395D02*
Y00420595D01*
X00437591D01*
X00437591Y00411395D02*
X00437591Y00420595D01*
X00428491Y00410995D02*
Y00420995D01*
X00423491Y00415995D02*
X00433491D01*
X00428250Y00586250D02*
X00438250D01*
X00433250Y00581250D02*
Y00591250D01*
X00409500Y00574250D02*
Y00598250D01*
X00457000D01*
Y00574250D02*
Y00598250D01*
X00409500Y00574250D02*
X00457000D01*
X00475900Y00394650D02*
X00494100Y00394650D01*
X00475900Y00394650D02*
Y00403850D01*
X00494100D01*
X00494100Y00394650D02*
X00494100Y00403850D01*
X00485000Y00394250D02*
Y00404250D01*
X00480000Y00399250D02*
X00490000D01*
X00493600Y00419250D02*
X00493600Y00437450D01*
X00484400Y00419250D02*
X00493600Y00419250D01*
X00484400Y00437450D02*
X00484400Y00419250D01*
X00484400Y00437450D02*
X00493600Y00437450D01*
X00484000Y00428350D02*
X00494000D01*
X00489000Y00423350D02*
Y00433350D01*
X00509750Y00573750D02*
Y00593750D01*
Y00573750D02*
X00544750Y00573750D01*
Y00593750D01*
X00509750D02*
X00544750D01*
X00524250Y00583750D02*
X00530250D01*
X00527250Y00580750D02*
Y00586750D01*
X00522891Y00524595D02*
X00541091Y00524595D01*
Y00515395D02*
Y00524595D01*
X00522891Y00515395D02*
X00541091D01*
X00522891D02*
Y00524595D01*
X00531991Y00514995D02*
Y00524995D01*
X00526991Y00519995D02*
X00536991D01*
X00492892Y00538075D02*
Y00556275D01*
X00502092D01*
Y00538075D02*
Y00556275D01*
X00492892Y00538075D02*
X00502092D01*
X00492492Y00547175D02*
X00502492D01*
X00497492Y00542175D02*
Y00552175D01*
X00515400Y00537900D02*
X00515400Y00556100D01*
X00524600D01*
X00524600Y00537900D02*
X00524600Y00556100D01*
X00515400Y00537900D02*
X00524600Y00537900D01*
X00515000Y00547000D02*
X00525000D01*
X00520000Y00542000D02*
Y00552000D01*
X00404593Y00506895D02*
X00404593Y00525095D01*
X00395393Y00506895D02*
X00404593D01*
X00395393D02*
Y00525095D01*
X00404593D01*
X00394993Y00515995D02*
X00404993D01*
X00399993Y00510995D02*
Y00520995D01*
X00458400Y00536650D02*
Y00554850D01*
X00467600D01*
X00467600Y00536650D02*
X00467600Y00554850D01*
X00458400Y00536650D02*
X00467600Y00536650D01*
X00458000Y00545750D02*
X00468000D01*
X00463000Y00540750D02*
Y00550750D01*
X00397293Y00530895D02*
Y00549095D01*
X00388093Y00530895D02*
X00397293Y00530895D01*
X00388093Y00549095D02*
X00388093Y00530895D01*
X00388093Y00549095D02*
X00397293D01*
X00387693Y00539995D02*
X00397693D01*
X00392693Y00534995D02*
Y00544995D01*
X00412600Y00475900D02*
Y00494100D01*
X00403400Y00475900D02*
X00412600Y00475900D01*
X00403400Y00475900D02*
Y00494100D01*
X00412600Y00494100D01*
X00403000Y00485000D02*
X00413000Y00485000D01*
X00408000Y00480000D02*
Y00490000D01*
X00434900Y00532600D02*
X00453100Y00532600D01*
Y00523400D02*
Y00532600D01*
X00434900Y00523400D02*
X00453100D01*
X00434900Y00532600D02*
X00434900Y00523400D01*
X00444000Y00523000D02*
Y00533000D01*
X00439000Y00528000D02*
X00449000D01*
X00507650Y00474400D02*
X00525850Y00474400D01*
X00507650Y00483600D02*
X00507650Y00474400D01*
X00507650Y00483600D02*
X00525850D01*
X00525850Y00474400D02*
X00525850Y00483600D01*
X00516750Y00474000D02*
Y00484000D01*
X00511750Y00479000D02*
X00521750D01*
X00411900Y00483400D02*
X00430100Y00483400D01*
X00411900Y00483400D02*
Y00492600D01*
X00430100Y00492600D01*
Y00483400D02*
Y00492600D01*
X00421000Y00483000D02*
Y00493000D01*
X00416000Y00488000D02*
X00426000D01*
X00427900Y00468600D02*
X00446100D01*
Y00459400D02*
Y00468600D01*
X00427900Y00459400D02*
X00446100D01*
X00427900D02*
Y00468600D01*
X00437000Y00459000D02*
Y00469000D01*
X00432000Y00464000D02*
X00442000D01*
X00410391Y00459395D02*
X00428591Y00459395D01*
X00410391Y00459395D02*
Y00468595D01*
X00428591D01*
Y00459395D02*
Y00468595D01*
X00419491Y00458995D02*
Y00468995D01*
X00414491Y00463995D02*
X00424491D01*
X00457900Y00441400D02*
X00476100Y00441400D01*
X00457900Y00441400D02*
X00457900Y00450600D01*
X00476100D01*
X00476100Y00441400D02*
X00476100Y00450600D01*
X00467000Y00441000D02*
Y00451000D01*
X00462000Y00446000D02*
X00472000Y00446000D01*
X00420400Y00441900D02*
Y00460100D01*
X00429600D01*
Y00441900D02*
Y00460100D01*
X00420400Y00441900D02*
X00429600D01*
X00420000Y00451000D02*
X00430000D01*
X00425000Y00446000D02*
Y00456000D01*
X00411900Y00474400D02*
X00430100D01*
X00411900D02*
X00411900Y00483600D01*
X00430100Y00483600D01*
Y00474400D02*
Y00483600D01*
X00421000Y00474000D02*
Y00484000D01*
X00416000Y00479000D02*
X00426000D01*
X00444591Y00426895D02*
X00444591Y00445095D01*
X00435391Y00426895D02*
X00444591D01*
X00435391D02*
X00435392Y00445095D01*
X00444591Y00445095D01*
X00434991Y00435995D02*
X00444991D01*
X00439991Y00430995D02*
Y00440995D01*
X00385991Y00442495D02*
X00405991Y00442495D01*
Y00477495D01*
X00385991Y00477495D02*
X00405991Y00477495D01*
X00385991Y00442495D02*
Y00477495D01*
X00395991Y00456995D02*
Y00462995D01*
X00392991Y00459995D02*
X00398991D01*
X00404262Y00539307D02*
X00422462Y00539308D01*
X00404262Y00539307D02*
Y00548507D01*
X00422462D01*
Y00539308D02*
Y00548507D01*
X00413362Y00538907D02*
Y00548907D01*
X00408362Y00543907D02*
X00418362D01*
X00410543Y00524395D02*
X00428743Y00524395D01*
X00410543Y00533595D02*
X00410543Y00524395D01*
X00410543Y00533595D02*
X00428743Y00533595D01*
Y00524395D02*
Y00533595D01*
X00419643Y00523995D02*
Y00533995D01*
X00414643Y00528995D02*
X00424643D01*
X00367000Y00555000D02*
X00387000D01*
Y00590000D01*
X00367000D02*
X00387000D01*
X00367000Y00555000D02*
Y00590000D01*
X00377000Y00569500D02*
Y00575500D01*
X00374000Y00572500D02*
X00380000D01*
X00541391Y00513895D02*
Y00532095D01*
X00550591D01*
Y00513895D02*
Y00532095D01*
X00541391Y00513895D02*
X00550591D01*
X00540991Y00522995D02*
X00550991D01*
X00545991Y00517995D02*
Y00527995D01*
X00548526Y00428212D02*
X00548526Y00446412D01*
X00539326Y00428212D02*
X00548526D01*
X00539326D02*
Y00446412D01*
X00548526D01*
X00538926Y00437312D02*
X00548926D01*
X00543926Y00432312D02*
Y00442312D01*
X00405500Y00372000D02*
Y00392000D01*
X00370500D02*
X00405500D01*
X00370500Y00372000D02*
X00370500Y00392000D01*
X00370500Y00372000D02*
X00405500D01*
X00385000Y00382000D02*
X00391000D01*
X00388000Y00379000D02*
Y00385000D01*
X00459600Y00426900D02*
Y00445100D01*
X00450400Y00426900D02*
X00459600D01*
X00450400Y00445100D02*
X00450400Y00426900D01*
X00450400Y00445100D02*
X00459600D01*
X00450000Y00436000D02*
X00460000D01*
X00455000Y00431000D02*
Y00441000D01*
X00482900Y00460600D02*
X00501100Y00460600D01*
Y00451400D02*
Y00460600D01*
X00482900Y00451400D02*
X00501100Y00451400D01*
X00482900Y00451400D02*
X00482900Y00460600D01*
X00492000Y00451000D02*
Y00461000D01*
X00487000Y00456000D02*
X00497000D01*
X00410900Y00500400D02*
X00429100Y00500400D01*
X00410900Y00500400D02*
Y00509600D01*
X00429100Y00509600D01*
X00429100Y00500400D02*
X00429100Y00509600D01*
X00420000Y00500000D02*
Y00510000D01*
X00415000Y00505000D02*
X00425000D01*
X00539400Y00554900D02*
Y00573100D01*
X00548600Y00573100D01*
Y00554900D02*
Y00573100D01*
X00539400Y00554900D02*
X00548600Y00554900D01*
X00539000Y00564000D02*
X00549000D01*
X00544000Y00559000D02*
Y00569000D01*
X00516400Y00555900D02*
Y00574100D01*
X00525600Y00574100D01*
X00525600Y00555900D01*
X00516400D02*
X00525600D01*
X00516000Y00565000D02*
X00526000D01*
X00521000Y00560000D02*
Y00570000D01*
X00492600Y00571350D02*
X00492600Y00553150D01*
X00483400Y00553150D02*
X00492600Y00553150D01*
X00483400Y00571350D02*
X00483400Y00553150D01*
X00483400Y00571350D02*
X00492600D01*
X00483000Y00562250D02*
X00493000D01*
X00488000Y00557250D02*
Y00567250D01*
X00468795Y00594711D02*
Y00604711D01*
X00463795Y00599711D02*
X00473795Y00599711D01*
X00464195Y00590611D02*
X00473395Y00590611D01*
X00464195Y00590611D02*
Y00608811D01*
X00473395Y00608811D01*
X00473395Y00590611D02*
X00473395Y00608811D01*
X00458323Y00594711D02*
Y00604711D01*
X00453323Y00599711D02*
X00463323D01*
X00453723Y00590611D02*
X00462923Y00590611D01*
X00453723Y00590611D02*
Y00608811D01*
X00462923Y00608811D01*
Y00590611D02*
Y00608811D01*
X00485670Y00604294D02*
X00495670D01*
X00490670Y00599294D02*
Y00609294D01*
X00499770Y00599694D02*
Y00608894D01*
X00481570Y00599694D02*
X00499770Y00599694D01*
X00481570Y00599694D02*
X00481570Y00608894D01*
X00499770D01*
X00485670Y00593795D02*
X00495670Y00593795D01*
X00490670Y00598795D02*
X00490670Y00588795D01*
X00499770Y00598395D02*
X00499770Y00589195D01*
X00481570D02*
X00499770D01*
X00481570D02*
X00481570Y00598395D01*
X00499770D01*
X00563000Y00507750D02*
X00563000Y00497750D01*
X00558000Y00502750D02*
X00568000Y00502750D01*
X00558400Y00511850D02*
X00567600D01*
X00558400Y00493650D02*
Y00511850D01*
Y00493650D02*
X00567600D01*
Y00511850D01*
X00553448Y00497741D02*
X00553448Y00507741D01*
X00548448Y00502741D02*
X00558448D01*
X00548848Y00511841D02*
X00558048Y00511841D01*
X00548848Y00511841D02*
X00548848Y00493641D01*
X00558048D01*
X00558048Y00511841D01*
X00375577Y00443256D02*
Y00453256D01*
X00370577Y00448256D02*
X00380577D01*
X00370976Y00439156D02*
X00380176D01*
Y00457355D01*
X00370977D02*
X00380176D01*
X00370976Y00439156D02*
X00370977Y00457355D01*
X00365535Y00443256D02*
Y00453256D01*
X00360535Y00448256D02*
X00370535D01*
X00360935Y00439156D02*
X00370135Y00439155D01*
X00370135Y00457355D02*
X00370135Y00439155D01*
X00360935Y00457355D02*
X00370135D01*
X00360935Y00439156D02*
Y00457355D01*
X00373995Y00487857D02*
Y00497857D01*
X00368995Y00492857D02*
X00378995Y00492857D01*
X00369395Y00483757D02*
X00378595Y00483757D01*
Y00501957D01*
X00369395Y00501957D02*
X00378595Y00501957D01*
X00369395Y00483757D02*
X00369395Y00501957D01*
X00363954Y00487857D02*
Y00497857D01*
X00358954Y00492857D02*
X00368954D01*
X00359354Y00483757D02*
X00368554D01*
X00368554Y00501957D01*
X00359353D02*
X00368554D01*
X00359353D02*
X00359354Y00483757D01*
X00464250Y00261200D02*
Y00271200D01*
X00459250Y00266200D02*
X00469250D01*
X00459650Y00257100D02*
X00468850D01*
Y00275300D01*
X00459650D02*
X00468850D01*
X00459650Y00257100D02*
Y00275300D01*
X00598650Y00335900D02*
Y00354100D01*
Y00335900D02*
X00607850D01*
Y00354100D01*
X00598650D02*
X00607850D01*
X00598250Y00345000D02*
X00608250D01*
X00603250Y00340000D02*
Y00350000D01*
X00626400Y00311400D02*
Y00329600D01*
X00635600D01*
Y00311400D02*
Y00329600D01*
X00626400Y00311400D02*
X00635600D01*
X00626000Y00320500D02*
X00636000D01*
X00631000Y00315500D02*
Y00325500D01*
X00272250Y00497500D02*
X00282250D01*
X00277250Y00492500D02*
Y00502500D01*
X00286350Y00492900D02*
Y00502100D01*
X00268150D02*
X00286350D01*
X00268150Y00492900D02*
Y00502100D01*
Y00492900D02*
X00286350D01*
X00276500Y00471250D02*
Y00481250D01*
X00271500Y00476250D02*
X00281500D01*
X00271900Y00485350D02*
X00281100D01*
X00271900Y00467150D02*
Y00485350D01*
Y00467150D02*
X00281100D01*
Y00485350D01*
X00345500Y00299750D02*
Y00333750D01*
Y00299750D02*
X00365500D01*
Y00333750D01*
X00345500D02*
X00365500D01*
X00350500Y00316750D02*
X00360500D01*
X00355500Y00311750D02*
Y00321750D01*
X00456950Y00291600D02*
Y00321600D01*
Y00291600D02*
X00471950D01*
Y00321600D01*
X00456950D02*
X00471950D01*
X00459450Y00306600D02*
X00469450D01*
X00464450Y00301600D02*
Y00311600D01*
X00385500Y00285250D02*
Y00315250D01*
Y00285250D02*
X00400500D01*
Y00315250D01*
X00385500D02*
X00400500D01*
X00388000Y00300250D02*
X00398000D01*
X00393000Y00295250D02*
Y00305250D01*
X00422750Y00323000D02*
Y00329000D01*
X00419750Y00326000D02*
X00425750D01*
X00405250Y00316000D02*
X00440250D01*
Y00336000D01*
X00405250D02*
X00440250D01*
X00405250Y00316000D02*
Y00336000D01*
X00433000Y00346158D02*
X00443000D01*
X00438000Y00341158D02*
Y00351158D01*
X00453500Y00338158D02*
Y00354158D01*
X00422500D02*
X00453500D01*
X00422500Y00338158D02*
Y00354158D01*
Y00338158D02*
X00453500D01*
X00459500Y00286000D02*
X00469500D01*
X00464500Y00281000D02*
Y00291000D01*
X00473600Y00281400D02*
Y00290600D01*
X00455400Y00281400D02*
X00473600D01*
X00455400D02*
Y00290600D01*
X00473600D01*
X00354000Y00294500D02*
X00364000D01*
X00359000Y00289500D02*
Y00299500D01*
X00349900Y00289900D02*
Y00299100D01*
X00368100D01*
Y00289900D02*
Y00299100D01*
X00349900Y00289900D02*
X00368100D01*
X00393000Y00337250D02*
X00399000D01*
X00396000Y00334250D02*
Y00340250D01*
X00406000Y00319750D02*
Y00354750D01*
X00386000D02*
X00406000D01*
X00386000Y00319750D02*
Y00354750D01*
Y00319750D02*
X00406000D01*
X00397250Y00346250D02*
X00407250D01*
X00402250Y00341250D02*
Y00351250D01*
X00417750Y00338250D02*
Y00354250D01*
X00386750D02*
X00417750D01*
X00386750Y00338250D02*
Y00354250D01*
Y00338250D02*
X00417750D01*
X00475500Y00303250D02*
Y00333250D01*
Y00303250D02*
X00490500D01*
Y00333250D01*
X00475500D02*
X00490500D01*
X00478000Y00318250D02*
X00488000D01*
X00483000Y00313250D02*
Y00323250D01*
X00550500Y00320000D02*
Y00326000D01*
X00547500Y00323000D02*
X00553500D01*
X00533000Y00313000D02*
X00568000D01*
Y00333000D01*
X00533000D02*
X00568000D01*
X00533000Y00313000D02*
Y00333000D01*
X00536250Y00348500D02*
X00546250D01*
X00541250Y00343500D02*
Y00353500D01*
X00525750Y00340500D02*
Y00356500D01*
Y00340500D02*
X00556750D01*
Y00356500D01*
X00525750D02*
X00556750D01*
X00494000Y00264250D02*
X00504000D01*
X00499000Y00259250D02*
Y00269250D01*
X00508100Y00259650D02*
Y00268850D01*
X00489900Y00268850D02*
X00508100Y00268850D01*
X00489900Y00259650D02*
Y00268850D01*
Y00259650D02*
X00508100Y00259650D01*
X00483400Y00295735D02*
X00493400D01*
X00488400Y00290735D02*
Y00300735D01*
X00479300Y00291135D02*
Y00300335D01*
X00497500D01*
Y00291135D02*
Y00300335D01*
X00479300Y00291135D02*
X00497500D01*
X00360450Y00357500D02*
X00463450D01*
X00360450Y00254500D02*
Y00357500D01*
Y00254500D02*
X00463450D01*
Y00357500D01*
X00406950Y00306000D02*
X00416950D01*
X00411950Y00301000D02*
Y00311000D01*
X00468000Y00339000D02*
Y00369000D01*
X00453000D02*
X00468000D01*
X00453000Y00339000D02*
Y00369000D01*
Y00339000D02*
X00468000D01*
X00455500Y00354000D02*
X00465500D01*
X00460500Y00349000D02*
Y00359000D01*
X00452874Y00339000D02*
Y00369000D01*
X00437874D02*
X00452874D01*
X00437874Y00339000D02*
Y00369000D01*
Y00339000D02*
X00452874D01*
X00440374Y00354000D02*
X00450374D01*
X00445374Y00349000D02*
Y00359000D01*
X00437248Y00339000D02*
Y00369000D01*
X00422248D02*
X00437248D01*
X00422248Y00339000D02*
Y00369000D01*
Y00339000D02*
X00437248D01*
X00424748Y00354000D02*
X00434748D01*
X00429748Y00349000D02*
Y00359000D01*
X00385750Y00339000D02*
Y00369000D01*
X00370750D02*
X00385750D01*
X00370750Y00339000D02*
Y00369000D01*
Y00339000D02*
X00385750D01*
X00373250Y00354000D02*
X00383250D01*
X00378250Y00349000D02*
Y00359000D01*
X00522500Y00339000D02*
Y00369000D01*
X00507500D02*
X00522500D01*
X00507500Y00339000D02*
Y00369000D01*
Y00339000D02*
X00522500D01*
X00510000Y00354000D02*
X00520000D01*
X00515000Y00349000D02*
Y00359000D01*
X00358000Y00290250D02*
X00371000D01*
X00358000Y00260750D02*
Y00290250D01*
Y00260750D02*
X00371000D01*
Y00290250D01*
X00392750Y00260500D02*
Y00275500D01*
X00362750Y00260500D02*
Y00275500D01*
X00392750D01*
X00362750Y00260500D02*
X00392750D01*
X00374750Y00268000D02*
X00380750D01*
X00377750Y00265000D02*
Y00271000D01*
X00457400Y00307000D02*
X00472400Y00307000D01*
X00457400Y00277000D02*
X00472400D01*
X00457400D02*
Y00307000D01*
X00472400Y00277000D02*
Y00307000D01*
X00464900Y00295000D02*
X00464900Y00289000D01*
X00461900Y00292000D02*
X00467900D01*
X00417191Y00281600D02*
Y00291600D01*
X00412191Y00286600D02*
X00422191D01*
X00412591Y00277500D02*
X00421791D01*
X00412591D02*
Y00295700D01*
X00421791D01*
Y00277500D02*
Y00295700D01*
X00472500Y00277900D02*
Y00292900D01*
X00502500Y00277900D02*
Y00292900D01*
X00472500Y00277900D02*
X00502500D01*
X00472500Y00292900D02*
X00502500D01*
X00484500Y00285400D02*
X00490500D01*
X00487500Y00282400D02*
Y00288400D01*
X00521500Y00280500D02*
X00531500D01*
X00526500Y00275500D02*
Y00285500D01*
X00535600Y00275900D02*
Y00285100D01*
X00517400Y00275900D02*
X00535600D01*
X00517400D02*
Y00285100D01*
X00535600D01*
X00503151Y00280600D02*
X00513151D01*
X00508151Y00275600D02*
Y00285600D01*
X00499051Y00276000D02*
Y00285200D01*
X00517251D01*
Y00276000D02*
Y00285200D01*
X00499051Y00276000D02*
X00517251D01*
X00486500Y00257500D02*
Y00272500D01*
X00516500Y00257500D02*
Y00272500D01*
X00486500D02*
X00516500D01*
X00486500Y00257500D02*
X00516500D01*
X00498500Y00265000D02*
X00504500D01*
X00501500Y00262000D02*
Y00268000D01*
X00375600Y00276000D02*
Y00286000D01*
X00370600Y00281000D02*
X00380600D01*
X00371000Y00271900D02*
X00380200D01*
X00371000D02*
X00371000Y00290100D01*
X00380200Y00290100D01*
Y00271900D02*
Y00290100D01*
X00556983Y00540062D02*
Y00550062D01*
X00551983Y00545062D02*
X00561983D01*
X00552383Y00535962D02*
X00561584D01*
Y00554162D01*
X00552383D02*
X00561584D01*
X00552383D02*
X00552383Y00535962D01*
X00567138Y00540062D02*
Y00550062D01*
X00562138Y00545062D02*
X00572138D01*
X00562538Y00535962D02*
X00571738D01*
X00571738Y00554162D01*
X00562538D02*
X00571738D01*
X00562538D02*
X00562538Y00535962D01*
X00584000Y00594000D02*
X00594000D01*
X00589000Y00589000D02*
Y00599000D01*
X00598100Y00589400D02*
Y00598600D01*
X00579900Y00589400D02*
X00598100D01*
X00579900D02*
Y00598600D01*
X00598100D01*
X00582500Y00418250D02*
Y00428250D01*
X00577500Y00423250D02*
X00587500D01*
X00577900Y00414150D02*
X00587100D01*
X00577900D02*
Y00432350D01*
X00587100D01*
Y00414150D02*
Y00432350D01*
X00511000Y00449000D02*
X00521000D01*
X00516000Y00444000D02*
Y00454000D01*
X00506900Y00444400D02*
Y00453600D01*
Y00444400D02*
X00525100D01*
Y00453600D01*
X00506900D02*
X00525100D01*
X00407000Y00281600D02*
Y00291600D01*
X00402000Y00286600D02*
X00412000D01*
X00402400Y00277500D02*
X00411600D01*
X00402400D02*
Y00295700D01*
X00411600D01*
Y00277500D02*
Y00295700D01*
X00391000Y00481000D02*
X00401000D01*
X00396000Y00476000D02*
Y00486000D01*
X00386900Y00476400D02*
Y00485600D01*
Y00476400D02*
X00405100D01*
Y00485600D01*
X00386900D02*
X00405100D01*
X00455250Y00455500D02*
X00465250D01*
X00460250Y00450500D02*
Y00460500D01*
X00451150Y00450900D02*
Y00460100D01*
Y00450900D02*
X00469350Y00450900D01*
Y00460100D01*
X00451150Y00460100D02*
X00469350Y00460100D01*
X00462250Y00494500D02*
Y00504500D01*
X00457250Y00499500D02*
X00467250D01*
X00457650Y00490400D02*
X00466850D01*
Y00508600D01*
X00457650D02*
X00466850D01*
X00457650Y00490400D02*
Y00508600D01*
X00292000Y00563500D02*
Y00601500D01*
X00257000Y00563500D02*
X00292000D01*
X00257000D02*
Y00601500D01*
X00292000D01*
X00269500Y00582500D02*
X00279500D01*
X00274500Y00577500D02*
Y00587500D01*
X00635500Y00294000D02*
X00674500D01*
X00635500D02*
Y00330000D01*
X00674500D01*
Y00294000D02*
Y00330000D01*
X00655000Y00307000D02*
Y00317000D01*
X00650000Y00312000D02*
X00660000D01*
X00596400Y00402650D02*
X00614600Y00402650D01*
Y00411850D01*
X00596400Y00411850D02*
X00614600Y00411850D01*
X00596400Y00402650D02*
Y00411850D01*
X00605500Y00402250D02*
Y00412250D01*
X00600500Y00407250D02*
X00610500D01*
X00926041Y00266108D02*
Y00276108D01*
X00921041Y00271108D02*
X00931041D01*
X00921441Y00280208D02*
X00930641D01*
Y00262008D02*
Y00280208D01*
X00921441Y00262008D02*
X00930641D01*
X00921441D02*
Y00280208D01*
X00981383Y00422310D02*
X00999583Y00422310D01*
X00981383Y00422310D02*
X00981383Y00413110D01*
X00999583Y00413110D01*
Y00422310D01*
X00990483Y00412710D02*
Y00422710D01*
X00985483Y00417710D02*
X00995483D01*
X00918255Y00258773D02*
Y00329773D01*
X00832255Y00258773D02*
X00918255Y00258773D01*
X00832255Y00258773D02*
Y00329773D01*
X00918255D01*
X00870255Y00294273D02*
X00880255D01*
X00875255Y00289273D02*
X00875255Y00299273D01*
X00981979Y00507661D02*
X01000179D01*
X00981979Y00498461D02*
Y00507661D01*
Y00498461D02*
X01000179D01*
Y00507661D01*
X00991079Y00498061D02*
Y00508061D01*
X00986079Y00503061D02*
X00996079D01*
X00959959Y00462767D02*
X00978159D01*
X00959959Y00453567D02*
Y00462767D01*
Y00453567D02*
X00978159D01*
Y00462767D01*
X00969059Y00453167D02*
Y00463167D01*
X00964059Y00458167D02*
X00974059D01*
X00982900Y00566110D02*
X01001100D01*
Y00575310D01*
X00982900D02*
X01001100D01*
X00982900Y00566110D02*
Y00575310D01*
X00992000Y00565710D02*
Y00575710D01*
X00987000Y00570710D02*
X00997000D01*
X00986250Y00586960D02*
X00996250D01*
X00991250Y00581960D02*
Y00591960D01*
X00968000Y00598460D02*
X00968000Y00575460D01*
X00968000Y00598460D02*
X01014500D01*
X01014500Y00575460D01*
X00968000D02*
X01014500D01*
X00900850Y00363360D02*
X00900850Y00381560D01*
X00891650Y00381560D02*
X00900850Y00381560D01*
X00891650Y00363360D02*
X00891650Y00381560D01*
X00891650Y00363360D02*
X00900850D01*
X00891250Y00372460D02*
X00901250D01*
X00896250Y00367460D02*
Y00377460D01*
X00897071Y00565335D02*
Y00583535D01*
Y00565335D02*
X00906271D01*
Y00583535D01*
X00897071D02*
X00906271D01*
X00896671Y00574435D02*
X00906671D01*
X00901671Y00569435D02*
Y00579435D01*
X00890975Y00546865D02*
Y00565065D01*
Y00546865D02*
X00900175D01*
Y00565065D01*
X00890975D02*
X00900175D01*
X00890575Y00555965D02*
X00900575D01*
X00895575Y00550965D02*
Y00560965D01*
X00901897Y00363477D02*
Y00381677D01*
Y00363477D02*
X00911097D01*
Y00381677D01*
X00901897D02*
X00911097D01*
X00901497Y00372577D02*
X00911497D01*
X00906497Y00367577D02*
Y00377577D01*
X00881619Y00588823D02*
X00899819D01*
Y00598023D01*
X00881619D02*
X00899819D01*
X00881619Y00588823D02*
Y00598023D01*
X00890719Y00588423D02*
Y00598423D01*
X00885719Y00593423D02*
X00895719D01*
X00837889Y00455171D02*
Y00473371D01*
Y00455171D02*
X00847089D01*
Y00473371D01*
X00837889D02*
X00847089D01*
X00837489Y00464271D02*
X00847489D01*
X00842489Y00459271D02*
Y00469271D01*
X00849827Y00455099D02*
Y00473299D01*
Y00455099D02*
X00859027D01*
Y00473299D01*
X00849827D02*
X00859027D01*
X00849427Y00464199D02*
X00859427D01*
X00854427Y00459199D02*
Y00469199D01*
X00923250Y00314210D02*
X00929250D01*
X00926250Y00311210D02*
Y00317210D01*
X00918750Y00299210D02*
Y00329210D01*
X00933750Y00299210D02*
Y00329210D01*
X00918750Y00299210D02*
X00933750Y00299210D01*
X00918750Y00329210D02*
X00933750D01*
X00959809Y00483087D02*
X00978009D01*
X00959809Y00473887D02*
Y00483087D01*
Y00473887D02*
X00978009D01*
Y00483087D01*
X00968909Y00473487D02*
Y00483487D01*
X00963909Y00478487D02*
X00973909D01*
X00861969Y00616173D02*
Y00626173D01*
X00856969Y00621173D02*
X00866969D01*
X00850469Y00644423D02*
X00873469D01*
Y00597923D02*
Y00644423D01*
X00850469Y00597923D02*
X00873469D01*
X00850469D02*
Y00644423D01*
X00904183Y00547047D02*
Y00565247D01*
Y00547047D02*
X00913383D01*
Y00565247D01*
X00904183D02*
X00913383D01*
X00903783Y00556147D02*
X00913783D01*
X00908783Y00551147D02*
Y00561147D01*
X00927805Y00546860D02*
Y00565060D01*
Y00546860D02*
X00937005D01*
Y00565060D01*
X00927805D02*
X00937005D01*
X00927405Y00555960D02*
X00937405D01*
X00932405Y00550960D02*
Y00560960D01*
X00917391Y00546860D02*
Y00565060D01*
Y00546860D02*
X00926591D01*
Y00565060D01*
X00917391D02*
X00926591D01*
X00916991Y00555960D02*
X00926991D01*
X00921991Y00550960D02*
Y00560960D01*
X00910533Y00565263D02*
Y00583463D01*
Y00565263D02*
X00919733D01*
Y00583463D01*
X00910533D02*
X00919733D01*
X00910133Y00574363D02*
X00920133D01*
X00915133Y00569363D02*
Y00579363D01*
X00960135Y00390765D02*
X00978335D01*
Y00399965D01*
X00960135D02*
X00978335D01*
X00960135Y00390765D02*
Y00399965D01*
X00969235Y00390365D02*
Y00400365D01*
X00964235Y00395365D02*
X00974235D01*
X00918153Y00371025D02*
Y00389225D01*
Y00371025D02*
X00927353D01*
Y00389225D01*
X00918153D02*
X00927353D01*
X00917753Y00380125D02*
X00927753D01*
X00922753Y00375125D02*
Y00385125D01*
X00959959Y00448060D02*
X00978159D01*
X00959959Y00438860D02*
Y00448060D01*
Y00438860D02*
X00978159D01*
Y00448060D01*
X00969059Y00438460D02*
Y00448460D01*
X00964059Y00443460D02*
X00974059D01*
X00959959Y00472927D02*
X00978159D01*
X00959959Y00463727D02*
Y00472927D01*
Y00463727D02*
X00978159D01*
Y00472927D01*
X00969059Y00463327D02*
Y00473327D01*
X00964059Y00468327D02*
X00974059D01*
X00981979Y00484547D02*
X01000179D01*
X00981979Y00475347D02*
Y00484547D01*
Y00475347D02*
X01000179D01*
Y00484547D01*
X00991079Y00474947D02*
Y00484947D01*
X00986079Y00479947D02*
X00996079D01*
X00981979Y00498009D02*
X01000179D01*
X00981979Y00488809D02*
Y00498009D01*
Y00488809D02*
X01000179D01*
Y00498009D01*
X00991079Y00488409D02*
Y00498409D01*
X00986079Y00493409D02*
X00996079D01*
X00959047Y00508169D02*
X00977247D01*
X00959047Y00498969D02*
Y00508169D01*
Y00498969D02*
X00977247D01*
Y00508169D01*
X00968147Y00498569D02*
Y00508569D01*
X00963147Y00503569D02*
X00973147D01*
X00981400Y00441810D02*
X00999600D01*
X00981400Y00432610D02*
Y00441810D01*
Y00432610D02*
X00999600D01*
Y00441810D01*
X00990500Y00432210D02*
Y00442210D01*
X00985500Y00437210D02*
X00995500D01*
X00981400Y00451810D02*
X00999600D01*
X00981400Y00442610D02*
Y00451810D01*
Y00442610D02*
X00999600D01*
Y00451810D01*
X00990500Y00442210D02*
Y00452210D01*
X00985500Y00447210D02*
X00995500D01*
X00957833Y00371025D02*
Y00389225D01*
X00948633D02*
X00957833D01*
X00948633Y00371025D02*
Y00389225D01*
Y00371025D02*
X00957833D01*
X00948233Y00380125D02*
X00958233D01*
X00953233Y00375125D02*
Y00385125D01*
X00938219Y00546860D02*
Y00565060D01*
Y00546860D02*
X00947419D01*
Y00565060D01*
X00938219D02*
X00947419D01*
X00937819Y00555960D02*
X00947819D01*
X00942819Y00550960D02*
Y00560960D01*
X00946657Y00370699D02*
Y00388899D01*
X00937457D02*
X00946657D01*
X00937457Y00370699D02*
Y00388899D01*
Y00370699D02*
X00946657D01*
X00937057Y00379799D02*
X00947057D01*
X00942057Y00374799D02*
Y00384799D01*
X00981400Y00432060D02*
X00999600D01*
X00981400Y00422860D02*
Y00432060D01*
Y00422860D02*
X00999600D01*
Y00432060D01*
X00990500Y00422460D02*
Y00432460D01*
X00985500Y00427460D02*
X00995500D01*
X00948633Y00546860D02*
Y00565060D01*
Y00546860D02*
X00957833D01*
Y00565060D01*
X00948633D02*
X00957833D01*
X00948233Y00555960D02*
X00958233D01*
X00953233Y00550960D02*
Y00560960D01*
X00962149Y00525811D02*
X00980349D01*
X00962149Y00516611D02*
Y00525811D01*
Y00516611D02*
X00980349D01*
Y00525811D01*
X00971249Y00516211D02*
Y00526211D01*
X00966249Y00521211D02*
X00976249D01*
X00981979Y00535601D02*
X01000179D01*
X00981979Y00526401D02*
Y00535601D01*
Y00526401D02*
X01000179D01*
Y00535601D01*
X00991079Y00526001D02*
Y00536001D01*
X00986079Y00531001D02*
X00996079D01*
X00938500Y00274710D02*
X00944500D01*
X00941500Y00271710D02*
Y00277710D01*
X00949000Y00259210D02*
Y00290210D01*
X00934000Y00259210D02*
Y00290210D01*
X00949000D01*
X00934000Y00259210D02*
X00949000D01*
X00949750Y00303460D02*
Y00309460D01*
X00946750Y00306460D02*
X00952750D01*
X00934250Y00298960D02*
X00965250D01*
X00934250Y00313960D02*
X00965250D01*
Y00298960D02*
Y00313960D01*
X00934250Y00298960D02*
Y00313960D01*
X00889219Y00643673D02*
X00889219Y00649673D01*
X00886219Y00646673D02*
X00892219Y00646673D01*
X00873719Y00639173D02*
X00904719D01*
X00873719Y00654173D02*
X00904719D01*
X00904719Y00639173D01*
X00873719Y00654173D02*
X00873719Y00639173D01*
X00885219Y00606423D02*
X00895219Y00606423D01*
X00890219Y00611423D02*
X00890219Y00601423D01*
X00905219Y00598923D02*
Y00613923D01*
X00875219Y00598923D02*
X00905219D01*
X00875219D02*
Y00613923D01*
X00905219D01*
X00893417Y00338517D02*
Y00344517D01*
X00890417Y00341517D02*
X00896417D01*
X00878417Y00334017D02*
X00908417D01*
X00878417Y00349017D02*
X00908417D01*
X00908417Y00334017D02*
X00908417Y00349017D01*
X00878417Y00334017D02*
Y00349017D01*
X00884719Y00662173D02*
X00894719D01*
X00889719Y00657173D02*
Y00667173D01*
X00880619Y00657573D02*
Y00666773D01*
X00898819D01*
Y00657573D02*
Y00666773D01*
X00880619Y00657573D02*
X00898819D01*
X00946469Y00587673D02*
X00946469Y00593673D01*
X00943469Y00590673D02*
X00949469Y00590673D01*
X00931469Y00598173D02*
X00961469D01*
X00931469Y00583173D02*
X00961469D01*
X00931469D02*
Y00598173D01*
X00961469Y00583173D02*
Y00598173D01*
X00981383Y00412310D02*
X00999583Y00412310D01*
X00981383Y00403110D02*
X00981383Y00412310D01*
X00981383Y00403110D02*
X00999583Y00403110D01*
Y00412310D01*
X00990483Y00402710D02*
Y00412710D01*
X00985483Y00407710D02*
X00995483D01*
X00981383Y00402310D02*
X00999583Y00402310D01*
X00981383Y00393110D02*
Y00402310D01*
Y00393110D02*
X00999583D01*
X00999583Y00402310D02*
X00999583Y00393110D01*
X00990483Y00392710D02*
Y00402710D01*
X00985483Y00397710D02*
X00995483D01*
X00785000Y00600460D02*
X00801250Y00584210D01*
X00746750Y00327460D02*
Y00600460D01*
X00785000D01*
X00801250Y00327460D02*
Y00584210D01*
X00746750Y00327460D02*
X00801250D01*
X00970250Y00289710D02*
X00983250D01*
X00970250Y00260210D02*
Y00289710D01*
Y00260210D02*
X00983250D01*
Y00289710D01*
X00983750Y00289710D02*
X00996750D01*
X00983750Y00260210D02*
Y00289710D01*
Y00260210D02*
X00996750D01*
Y00289710D01*
X00981350Y00291360D02*
Y00309560D01*
X00972150D02*
X00981350D01*
X00972150Y00291360D02*
Y00309560D01*
Y00291360D02*
X00981350D01*
X00971750Y00300460D02*
X00981750D01*
X00976750Y00295460D02*
Y00305460D01*
X00994839Y00291360D02*
Y00309560D01*
X00985639D02*
X00994839D01*
X00985639Y00291360D02*
Y00309560D01*
Y00291360D02*
X00994839D01*
X00985239Y00300460D02*
X00995239D01*
X00990239Y00295460D02*
Y00305460D01*
X01010250Y00259798D02*
Y00297798D01*
Y00259798D02*
X01045250D01*
Y00297798D01*
X01010250D02*
X01045250D01*
X01022750Y00278798D02*
X01032750D01*
X01027750Y00273798D02*
Y00283798D01*
M02*
