G04 Layer_Color=255*
%FSAX44Y44*%
%MOMM*%
G71*
G01*
G75*
%ADD14R,1.2000X1.4000*%
%ADD15R,0.6000X1.1000*%
%ADD16R,1.0500X0.6500*%
%ADD17R,1.0500X0.5500*%
%ADD18R,0.6000X1.0000*%
%ADD19R,2.0500X0.6500*%
%ADD20R,2.0500X3.2000*%
%ADD21R,1.8000X2.4000*%
%ADD22R,0.7500X0.2000*%
%ADD23R,0.2000X0.7000*%
%ADD24R,1.6000X1.0000*%
%ADD25R,0.9000X0.5000*%
%ADD26R,1.5000X0.3000*%
%ADD27R,0.9000X1.0000*%
%ADD28R,0.6200X0.5800*%
%ADD29R,5.3000X5.3000*%
%ADD30O,0.8500X0.3000*%
%ADD31O,0.3000X0.8500*%
%ADD32O,0.8500X0.2000*%
%ADD33R,3.7000X1.6500*%
%ADD34O,0.2000X0.8500*%
%ADD35R,0.8000X1.7000*%
%ADD36R,0.8000X1.1000*%
%ADD37R,1.1000X1.2000*%
%ADD38R,3.0000X1.4000*%
%ADD39R,3.0000X1.3000*%
%ADD40R,0.8000X0.8000*%
%ADD41R,1.0000X1.0000*%
%ADD42R,1.4500X3.0000*%
%ADD43R,1.0000X1.7500*%
%ADD44R,1.9000X1.4500*%
%ADD45R,1.1500X1.8000*%
%ADD46R,1.1500X1.4500*%
%ADD47R,1.0000X0.9500*%
%ADD48R,0.9500X1.0000*%
%ADD49R,0.6200X0.6200*%
%ADD50C,1.0000*%
%ADD51C,0.4500*%
%ADD52R,2.0000X0.9000*%
%ADD53P,1.4142X4X360.0*%
%ADD54R,1.0000X0.9000*%
%ADD55R,0.6200X0.6200*%
%ADD56R,1.0000X1.0000*%
%ADD57R,0.5800X0.6200*%
%ADD58R,1.0000X0.6000*%
%ADD59R,0.8000X0.8000*%
%ADD60R,1.4500X1.1000*%
%ADD61R,1.4500X1.1500*%
%ADD62R,1.8000X1.1500*%
%ADD63R,1.0000X0.9500*%
%ADD64C,0.6000*%
%ADD80C,0.5000*%
G04:AMPARAMS|DCode=81|XSize=1.05mm|YSize=1.25mm|CornerRadius=0.2625mm|HoleSize=0mm|Usage=FLASHONLY|Rotation=180.000|XOffset=0mm|YOffset=0mm|HoleType=Round|Shape=RoundedRectangle|*
%AMROUNDEDRECTD81*
21,1,1.0500,0.7250,0,0,180.0*
21,1,0.5250,1.2500,0,0,180.0*
1,1,0.5250,-0.2625,0.3625*
1,1,0.5250,0.2625,0.3625*
1,1,0.5250,0.2625,-0.3625*
1,1,0.5250,-0.2625,-0.3625*
%
%ADD81ROUNDEDRECTD81*%
%ADD82C,1.4000*%
%ADD83C,1.5000*%
%ADD84R,1.5000X1.3000*%
%ADD85C,0.8000*%
%ADD86C,2.4000*%
%ADD87C,1.6000*%
%ADD88C,2.1000*%
%ADD89O,2.1000X1.7000*%
%ADD90R,2.8000X2.2000*%
%ADD91C,3.5000*%
D14*
X00318000Y00559000D02*
D03*
Y00581000D02*
D03*
X00301000Y00559000D02*
D03*
Y00581000D02*
D03*
X00590499Y00373000D02*
D03*
Y00395000D02*
D03*
X00609500Y00395000D02*
D03*
Y00373000D02*
D03*
D15*
X00301000Y00377000D02*
D03*
X00310500Y00377000D02*
D03*
X00320000Y00377000D02*
D03*
Y00350000D02*
D03*
X00310500Y00350000D02*
D03*
X00301000Y00350000D02*
D03*
D16*
X00321500Y00432500D02*
D03*
X00344500Y00423000D02*
D03*
D17*
Y00442000D02*
D03*
D18*
X01072750Y00290298D02*
D03*
X01053750D02*
D03*
X01063250Y00267298D02*
D03*
X00642033Y00602973D02*
D03*
X00661033D02*
D03*
X00651534Y00625973D02*
D03*
X01037250Y00290298D02*
D03*
X01018250D02*
D03*
X01027750Y00267298D02*
D03*
D19*
X00918500Y00659610D02*
D03*
Y00646910D02*
D03*
Y00634210D02*
D03*
X00918500Y00621510D02*
D03*
X00918500Y00608810D02*
D03*
X00905255Y00268873D02*
D03*
Y00281573D02*
D03*
Y00294273D02*
D03*
Y00306973D02*
D03*
Y00319673D02*
D03*
D20*
X00978500Y00634210D02*
D03*
X00845255Y00294273D02*
D03*
D21*
X00615000Y00317000D02*
D03*
D22*
X00630000Y00329000D02*
D03*
Y00325000D02*
D03*
Y00321000D02*
D03*
Y00317000D02*
D03*
Y00313000D02*
D03*
Y00309000D02*
D03*
Y00305000D02*
D03*
X00600000D02*
D03*
Y00309000D02*
D03*
Y00313000D02*
D03*
Y00317000D02*
D03*
Y00321000D02*
D03*
Y00325000D02*
D03*
Y00329000D02*
D03*
D23*
X00614250Y00439500D02*
D03*
X00610250D02*
D03*
X00606250D02*
D03*
X00602250D02*
D03*
X00598250D02*
D03*
Y00418500D02*
D03*
X00602250D02*
D03*
X00606250D02*
D03*
X00610250D02*
D03*
X00614250D02*
D03*
D24*
X00606250Y00429000D02*
D03*
D25*
X00330000Y00296750D02*
D03*
X00304000D02*
D03*
D26*
X01070256Y00561459D02*
D03*
Y00556459D02*
D03*
Y00551459D02*
D03*
Y00546459D02*
D03*
Y00541459D02*
D03*
Y00536459D02*
D03*
Y00531459D02*
D03*
Y00526461D02*
D03*
Y00521461D02*
D03*
Y00516461D02*
D03*
Y00511461D02*
D03*
Y00506458D02*
D03*
Y00501459D02*
D03*
Y00496459D02*
D03*
Y00491461D02*
D03*
Y00486422D02*
D03*
Y00481552D02*
D03*
Y00476424D02*
D03*
Y00471424D02*
D03*
Y00466426D02*
D03*
Y00461426D02*
D03*
Y00456426D02*
D03*
Y00451426D02*
D03*
Y00446424D02*
D03*
Y00441424D02*
D03*
X01070380Y00436399D02*
D03*
X01070256Y00431424D02*
D03*
Y00426426D02*
D03*
Y00421424D02*
D03*
Y00416424D02*
D03*
Y00411426D02*
D03*
Y00406419D02*
D03*
Y00401544D02*
D03*
Y00396424D02*
D03*
Y00391424D02*
D03*
Y00386424D02*
D03*
Y00381424D02*
D03*
Y00376424D02*
D03*
Y00371426D02*
D03*
Y00366424D02*
D03*
X01037744Y00561496D02*
D03*
Y00556494D02*
D03*
Y00551496D02*
D03*
Y00546496D02*
D03*
Y00541496D02*
D03*
Y00536496D02*
D03*
Y00531496D02*
D03*
Y00526376D02*
D03*
Y00521501D02*
D03*
Y00516494D02*
D03*
Y00511496D02*
D03*
Y00506496D02*
D03*
Y00501494D02*
D03*
Y00496496D02*
D03*
X01037620Y00491521D02*
D03*
X01037744Y00486496D02*
D03*
Y00481496D02*
D03*
Y00476494D02*
D03*
Y00471494D02*
D03*
Y00466494D02*
D03*
Y00461494D02*
D03*
Y00456496D02*
D03*
Y00451496D02*
D03*
Y00446368D02*
D03*
Y00441498D02*
D03*
Y00436459D02*
D03*
Y00431461D02*
D03*
Y00426461D02*
D03*
Y00421462D02*
D03*
Y00416459D02*
D03*
Y00411459D02*
D03*
Y00406459D02*
D03*
Y00401459D02*
D03*
Y00396461D02*
D03*
Y00391461D02*
D03*
Y00386461D02*
D03*
Y00381461D02*
D03*
Y00376461D02*
D03*
Y00371461D02*
D03*
Y00366461D02*
D03*
X00790256Y00366424D02*
D03*
Y00371426D02*
D03*
Y00561459D02*
D03*
Y00556459D02*
D03*
Y00551459D02*
D03*
Y00546459D02*
D03*
Y00541459D02*
D03*
Y00536459D02*
D03*
Y00531459D02*
D03*
Y00526461D02*
D03*
Y00521461D02*
D03*
Y00516461D02*
D03*
Y00511461D02*
D03*
Y00506458D02*
D03*
Y00501459D02*
D03*
Y00496459D02*
D03*
Y00491461D02*
D03*
Y00486422D02*
D03*
Y00481552D02*
D03*
Y00476424D02*
D03*
Y00471424D02*
D03*
Y00466426D02*
D03*
Y00461426D02*
D03*
Y00451426D02*
D03*
Y00446424D02*
D03*
Y00441424D02*
D03*
X00790380Y00436399D02*
D03*
X00790256Y00431424D02*
D03*
Y00426426D02*
D03*
Y00421424D02*
D03*
Y00416424D02*
D03*
Y00411426D02*
D03*
Y00406419D02*
D03*
Y00401544D02*
D03*
Y00396424D02*
D03*
Y00391424D02*
D03*
Y00386424D02*
D03*
Y00381424D02*
D03*
Y00376424D02*
D03*
X00757744Y00561496D02*
D03*
Y00556494D02*
D03*
Y00551496D02*
D03*
Y00546496D02*
D03*
Y00541496D02*
D03*
Y00536496D02*
D03*
Y00531496D02*
D03*
Y00526376D02*
D03*
Y00521501D02*
D03*
Y00516494D02*
D03*
Y00511496D02*
D03*
Y00506496D02*
D03*
Y00501494D02*
D03*
Y00496496D02*
D03*
X00757620Y00491521D02*
D03*
X00757744Y00486496D02*
D03*
Y00481496D02*
D03*
Y00476494D02*
D03*
Y00471494D02*
D03*
Y00466494D02*
D03*
Y00461494D02*
D03*
Y00456496D02*
D03*
Y00451496D02*
D03*
Y00446368D02*
D03*
Y00441498D02*
D03*
Y00436459D02*
D03*
Y00431461D02*
D03*
Y00426461D02*
D03*
Y00421462D02*
D03*
Y00416459D02*
D03*
Y00411459D02*
D03*
Y00406459D02*
D03*
Y00401459D02*
D03*
Y00396461D02*
D03*
Y00391461D02*
D03*
Y00386461D02*
D03*
Y00381461D02*
D03*
Y00376461D02*
D03*
Y00371461D02*
D03*
Y00366461D02*
D03*
X00790256Y00456426D02*
D03*
D27*
X00938469Y00575423D02*
D03*
X00954469D02*
D03*
X00493500Y00265000D02*
D03*
X00509500D02*
D03*
X00901417Y00341517D02*
D03*
X00885417D02*
D03*
X00938469Y00590673D02*
D03*
X00954469D02*
D03*
D28*
X01003250Y00295760D02*
D03*
Y00305160D02*
D03*
X00417607Y00594748D02*
D03*
Y00604147D02*
D03*
X00381117Y00658801D02*
D03*
Y00668201D02*
D03*
X00358913Y00462850D02*
D03*
Y00472250D02*
D03*
X00275000Y00571200D02*
D03*
Y00561800D02*
D03*
X00264750Y00571200D02*
D03*
X00264750Y00561800D02*
D03*
X00348709Y00472250D02*
D03*
Y00462850D02*
D03*
X00321250Y00310550D02*
D03*
Y00319950D02*
D03*
X00356500Y00417800D02*
D03*
Y00427200D02*
D03*
X00330250Y00319950D02*
D03*
X00330250Y00310550D02*
D03*
X00417191Y00291300D02*
D03*
Y00281900D02*
D03*
X00375600Y00285700D02*
D03*
Y00276300D02*
D03*
X00407000Y00291300D02*
D03*
Y00281900D02*
D03*
X00926041Y00266408D02*
D03*
Y00275808D02*
D03*
X00976750Y00295760D02*
D03*
Y00305160D02*
D03*
X00990239Y00295760D02*
D03*
Y00305160D02*
D03*
D29*
X00306000Y00504250D02*
D03*
D30*
X00340500Y00529250D02*
D03*
Y00524250D02*
D03*
Y00519250D02*
D03*
Y00514250D02*
D03*
Y00509250D02*
D03*
Y00504250D02*
D03*
Y00499250D02*
D03*
Y00494250D02*
D03*
Y00489250D02*
D03*
Y00484250D02*
D03*
Y00479250D02*
D03*
X00271500D02*
D03*
Y00484250D02*
D03*
Y00489250D02*
D03*
Y00494250D02*
D03*
Y00499250D02*
D03*
Y00504250D02*
D03*
Y00509250D02*
D03*
Y00514250D02*
D03*
Y00519250D02*
D03*
Y00524250D02*
D03*
Y00529250D02*
D03*
D31*
X00331000Y00469750D02*
D03*
X00326000D02*
D03*
X00321000D02*
D03*
X00316000D02*
D03*
X00311000D02*
D03*
X00306000D02*
D03*
X00301000D02*
D03*
X00296000D02*
D03*
X00291000D02*
D03*
X00286000D02*
D03*
X00281000D02*
D03*
Y00538750D02*
D03*
X00286000D02*
D03*
X00291000D02*
D03*
X00296000D02*
D03*
X00301000D02*
D03*
X00306000D02*
D03*
X00311000D02*
D03*
X00316000D02*
D03*
X00321000D02*
D03*
X00326000D02*
D03*
X00331000D02*
D03*
D32*
X00454500Y00646000D02*
D03*
Y00650000D02*
D03*
X00395500Y00626000D02*
D03*
Y00630000D02*
D03*
Y00634000D02*
D03*
Y00638000D02*
D03*
Y00642000D02*
D03*
Y00646000D02*
D03*
Y00650000D02*
D03*
Y00654000D02*
D03*
X00454500D02*
D03*
Y00642000D02*
D03*
Y00638000D02*
D03*
Y00634000D02*
D03*
Y00630000D02*
D03*
Y00626000D02*
D03*
D33*
X00425000Y00640000D02*
D03*
D34*
X00447000Y00620500D02*
D03*
X00443000D02*
D03*
X00439000D02*
D03*
X00435000D02*
D03*
X00431000D02*
D03*
X00427000Y00620500D02*
D03*
X00423000D02*
D03*
X00419000Y00620500D02*
D03*
X00415000D02*
D03*
X00411000D02*
D03*
X00407000D02*
D03*
X00403000D02*
D03*
Y00659500D02*
D03*
X00407000D02*
D03*
X00411000D02*
D03*
X00415000D02*
D03*
X00419000D02*
D03*
X00423000Y00659500D02*
D03*
X00427000D02*
D03*
X00431000Y00659500D02*
D03*
X00435000D02*
D03*
X00439000D02*
D03*
X00443000D02*
D03*
X00447000D02*
D03*
D35*
X00460350Y00269000D02*
D03*
X00426350D02*
D03*
X00576750Y00268750D02*
D03*
X00542750D02*
D03*
D36*
X00443350Y00285500D02*
D03*
X00559750Y00285250D02*
D03*
D37*
X00388750Y00603500D02*
D03*
Y00583500D02*
D03*
X00404750D02*
D03*
X00404750Y00603500D02*
D03*
D38*
X00271500Y00302500D02*
D03*
Y00322500D02*
D03*
Y00342500D02*
D03*
Y00362500D02*
D03*
Y00402500D02*
D03*
X00271500Y00422500D02*
D03*
D39*
X00271500Y00382500D02*
D03*
D40*
X01003500Y00283210D02*
D03*
Y00266710D02*
D03*
X00265856Y00625465D02*
D03*
Y00608965D02*
D03*
X00279856Y00625465D02*
D03*
Y00608965D02*
D03*
X00364500Y00283750D02*
D03*
Y00267250D02*
D03*
X00976750Y00283210D02*
D03*
Y00266710D02*
D03*
X00990250Y00283210D02*
D03*
Y00266710D02*
D03*
D41*
X00942000Y00336960D02*
D03*
Y00321960D02*
D03*
X00444000Y00597750D02*
D03*
Y00582750D02*
D03*
X00460500Y00346500D02*
D03*
Y00361500D02*
D03*
X00445374Y00346500D02*
D03*
Y00361500D02*
D03*
X00429748Y00346500D02*
D03*
Y00361500D02*
D03*
X00378250Y00346500D02*
D03*
Y00361500D02*
D03*
X00515000Y00346500D02*
D03*
Y00361500D02*
D03*
D42*
X01007000Y00627710D02*
D03*
X01062500D02*
D03*
D43*
X00791500Y00299960D02*
D03*
X00756500D02*
D03*
D44*
X00488250Y00345750D02*
D03*
Y00373750D02*
D03*
D45*
X00959000Y00331960D02*
D03*
X00989000D02*
D03*
X01006250Y00586960D02*
D03*
X00976250D02*
D03*
D46*
X00514750Y00327250D02*
D03*
X00496750D02*
D03*
X00431750Y00326000D02*
D03*
X00413750D02*
D03*
X00559500Y00323000D02*
D03*
X00541500D02*
D03*
D47*
X00581250Y00313500D02*
D03*
Y00298500D02*
D03*
X00464450Y00314100D02*
D03*
Y00299100D02*
D03*
X00393000Y00307750D02*
D03*
Y00292750D02*
D03*
X00483000Y00325750D02*
D03*
Y00310750D02*
D03*
D48*
X00897719Y00621673D02*
D03*
X00881719D02*
D03*
X00941750Y00306460D02*
D03*
X00957750D02*
D03*
X00881219Y00646673D02*
D03*
X00897219D02*
D03*
D49*
X00986579Y00513983D02*
D03*
X00995579D02*
D03*
X00601250Y00525750D02*
D03*
X00610250D02*
D03*
X00440465Y00608684D02*
D03*
X00449465D02*
D03*
X00329000Y00454250D02*
D03*
X00338000D02*
D03*
X00507000Y00625500D02*
D03*
X00516000D02*
D03*
X00613250Y00358000D02*
D03*
X00622250D02*
D03*
X00486170Y00604294D02*
D03*
X00495170D02*
D03*
X00486170Y00593795D02*
D03*
X00495169D02*
D03*
X00469000Y00286000D02*
D03*
X00460000D02*
D03*
X00354500Y00294500D02*
D03*
X00363500D02*
D03*
X00483900Y00295735D02*
D03*
X00492900D02*
D03*
X00593500Y00594000D02*
D03*
X00584500D02*
D03*
X00610000Y00407250D02*
D03*
X00601000D02*
D03*
X00986579Y00503061D02*
D03*
X00995579D02*
D03*
X00964559Y00458167D02*
D03*
X00973559D02*
D03*
X00996500Y00570710D02*
D03*
X00987500D02*
D03*
X00895219Y00593423D02*
D03*
X00886219D02*
D03*
X00973735Y00395365D02*
D03*
X00964735D02*
D03*
X00964559Y00443460D02*
D03*
X00973559D02*
D03*
X00964559Y00468327D02*
D03*
X00973559D02*
D03*
X00986579Y00479947D02*
D03*
X00995579D02*
D03*
X00986579Y00493409D02*
D03*
X00995579D02*
D03*
X00963647Y00503569D02*
D03*
X00972647D02*
D03*
X00986000Y00437210D02*
D03*
X00995000D02*
D03*
X00986000Y00447210D02*
D03*
X00995000D02*
D03*
X00986000Y00427460D02*
D03*
X00995000D02*
D03*
X00966749Y00521211D02*
D03*
X00975749D02*
D03*
X00986579Y00531001D02*
D03*
X00995579D02*
D03*
D50*
X01107000Y00518344D02*
D03*
X00431750Y00311250D02*
D03*
X00397007Y00265000D02*
D03*
X00309500Y00420000D02*
D03*
X00362250Y00345000D02*
D03*
X00577500Y00389000D02*
D03*
X00522500Y00264500D02*
D03*
X00533250Y00345750D02*
D03*
X00493250Y00285500D02*
D03*
X00791500Y00638960D02*
D03*
X00779000D02*
D03*
X00766500D02*
D03*
X00754000D02*
D03*
X01095250Y00606960D02*
D03*
X01008000Y00333960D02*
D03*
D51*
X00507991Y00443995D02*
D03*
X00539991Y00395995D02*
D03*
X00547991D02*
D03*
X00547991Y00411995D02*
D03*
Y00419995D02*
D03*
X00531991Y00563995D02*
D03*
Y00555995D02*
D03*
X00395991Y00563995D02*
D03*
X00403991D02*
D03*
X00411991Y00563995D02*
D03*
X00395991Y00555995D02*
D03*
X00403991Y00555995D02*
D03*
X00411991Y00555995D02*
D03*
X00419991Y00563995D02*
D03*
X00427991Y00563995D02*
D03*
X00435991D02*
D03*
X00443991D02*
D03*
X00451991D02*
D03*
X00459991D02*
D03*
X00419991Y00555995D02*
D03*
X00427991Y00555995D02*
D03*
X00435991D02*
D03*
X00443991D02*
D03*
X00451991D02*
D03*
X00459991Y00555995D02*
D03*
X00467991Y00563995D02*
D03*
X00475991Y00563995D02*
D03*
X00483991D02*
D03*
X00491991D02*
D03*
X00507991D02*
D03*
X00515991Y00563995D02*
D03*
X00523991Y00563995D02*
D03*
X00539991D02*
D03*
X00547991D02*
D03*
X00467991Y00555995D02*
D03*
X00475991D02*
D03*
X00483991D02*
D03*
X00491991D02*
D03*
X00507991D02*
D03*
X00515991Y00555995D02*
D03*
X00523991Y00555995D02*
D03*
X00539991D02*
D03*
X00547991D02*
D03*
X00379991Y00547995D02*
D03*
X00387991D02*
D03*
X00379991Y00539995D02*
D03*
X00387991D02*
D03*
X00379991Y00531995D02*
D03*
X00387991Y00531995D02*
D03*
X00379991Y00523995D02*
D03*
X00387991D02*
D03*
X00379991Y00515995D02*
D03*
X00387991D02*
D03*
X00379991Y00507995D02*
D03*
X00387991D02*
D03*
X00379991Y00499995D02*
D03*
X00387991D02*
D03*
X00379991Y00491995D02*
D03*
X00387991D02*
D03*
X00379991Y00483995D02*
D03*
X00387991Y00483995D02*
D03*
X00379991Y00475995D02*
D03*
X00387991D02*
D03*
X00379991Y00467995D02*
D03*
X00387991D02*
D03*
X00379991Y00459995D02*
D03*
X00387991D02*
D03*
X00379991Y00451995D02*
D03*
X00387991D02*
D03*
X00379991Y00443995D02*
D03*
X00387991D02*
D03*
X00379991Y00435995D02*
D03*
X00387991D02*
D03*
X00379991Y00427995D02*
D03*
X00387991Y00427995D02*
D03*
X00379991Y00419995D02*
D03*
X00387991D02*
D03*
X00379991Y00411995D02*
D03*
X00387991D02*
D03*
X00379991Y00403995D02*
D03*
X00387991D02*
D03*
X00379991Y00395995D02*
D03*
X00387991D02*
D03*
X00531991D02*
D03*
X00523991Y00395995D02*
D03*
X00515991D02*
D03*
X00507991D02*
D03*
X00499991D02*
D03*
X00491991Y00395995D02*
D03*
X00483991D02*
D03*
X00475991D02*
D03*
X00467991Y00395995D02*
D03*
X00459991Y00395995D02*
D03*
X00451991D02*
D03*
X00443991Y00395995D02*
D03*
X00435991D02*
D03*
X00427991Y00395995D02*
D03*
X00419991D02*
D03*
X00411991Y00395995D02*
D03*
X00403991Y00395995D02*
D03*
X00395991D02*
D03*
X00547991Y00403995D02*
D03*
X00539991Y00403995D02*
D03*
X00531991D02*
D03*
X00523991D02*
D03*
X00515991D02*
D03*
X00507991Y00403995D02*
D03*
X00499991D02*
D03*
X00491991Y00403995D02*
D03*
X00483991D02*
D03*
X00475991D02*
D03*
X00467991D02*
D03*
X00459991D02*
D03*
X00451991Y00403995D02*
D03*
X00443991Y00403995D02*
D03*
X00435991D02*
D03*
X00427991Y00403995D02*
D03*
X00419991D02*
D03*
X00411991Y00403995D02*
D03*
X00403991D02*
D03*
X00395991D02*
D03*
X00539991Y00411995D02*
D03*
X00531991Y00411995D02*
D03*
X00523991D02*
D03*
X00515991D02*
D03*
X00507991D02*
D03*
X00499991Y00411995D02*
D03*
X00491991D02*
D03*
X00483991D02*
D03*
X00475991Y00411995D02*
D03*
X00467991D02*
D03*
X00459991D02*
D03*
X00451991D02*
D03*
X00443991Y00411995D02*
D03*
X00435991D02*
D03*
X00427991D02*
D03*
X00419991Y00411995D02*
D03*
X00411991D02*
D03*
X00403991Y00411995D02*
D03*
X00395991D02*
D03*
X00539991Y00419995D02*
D03*
X00531991D02*
D03*
X00523991D02*
D03*
X00515991D02*
D03*
X00507991D02*
D03*
X00499991D02*
D03*
X00491991D02*
D03*
X00483991D02*
D03*
X00475991D02*
D03*
X00467991D02*
D03*
X00459991D02*
D03*
X00451991D02*
D03*
X00443991D02*
D03*
X00435991D02*
D03*
X00427991D02*
D03*
X00419991D02*
D03*
X00411991D02*
D03*
X00403991D02*
D03*
X00395991D02*
D03*
X00547991Y00427995D02*
D03*
X00539991Y00427995D02*
D03*
X00531991D02*
D03*
X00523991D02*
D03*
X00515991D02*
D03*
X00507991Y00427995D02*
D03*
X00499991D02*
D03*
X00491991D02*
D03*
X00483991Y00427995D02*
D03*
X00475991D02*
D03*
X00467991Y00427995D02*
D03*
X00459991D02*
D03*
X00451991D02*
D03*
X00443992Y00427995D02*
D03*
X00435991Y00427995D02*
D03*
X00427991D02*
D03*
X00419991D02*
D03*
X00411991D02*
D03*
X00403991Y00427995D02*
D03*
X00395992D02*
D03*
X00547991Y00435995D02*
D03*
X00539991D02*
D03*
X00531991Y00435995D02*
D03*
X00523991D02*
D03*
X00515991D02*
D03*
X00507991D02*
D03*
X00499991Y00435995D02*
D03*
X00491991D02*
D03*
X00483991D02*
D03*
X00475991Y00435995D02*
D03*
X00467991D02*
D03*
X00459991D02*
D03*
X00451991D02*
D03*
X00443991Y00435995D02*
D03*
X00435991D02*
D03*
X00427991Y00435995D02*
D03*
X00419991D02*
D03*
X00411991D02*
D03*
X00403991D02*
D03*
X00395992D02*
D03*
X00547991Y00443995D02*
D03*
X00539991D02*
D03*
X00531991D02*
D03*
X00523991Y00443995D02*
D03*
X00515991D02*
D03*
X00499991Y00443995D02*
D03*
X00491991D02*
D03*
X00483991D02*
D03*
X00475991D02*
D03*
X00467991Y00443995D02*
D03*
X00459991D02*
D03*
X00451991Y00443995D02*
D03*
X00443991D02*
D03*
X00435991D02*
D03*
X00427991Y00443995D02*
D03*
X00419991D02*
D03*
X00411991D02*
D03*
X00403992Y00443995D02*
D03*
X00395991D02*
D03*
X00547991Y00451995D02*
D03*
X00539991D02*
D03*
X00531991D02*
D03*
X00523991D02*
D03*
X00515991D02*
D03*
X00507991D02*
D03*
X00499991D02*
D03*
X00491991D02*
D03*
X00483991D02*
D03*
X00475991D02*
D03*
X00467991Y00451995D02*
D03*
X00459991Y00451995D02*
D03*
X00451991D02*
D03*
X00443991D02*
D03*
X00435991D02*
D03*
X00427991D02*
D03*
X00419991D02*
D03*
X00411991Y00451995D02*
D03*
X00403991Y00451995D02*
D03*
X00395991D02*
D03*
X00547991Y00459995D02*
D03*
X00539991D02*
D03*
X00531991D02*
D03*
X00523991Y00459995D02*
D03*
X00515991D02*
D03*
X00507991Y00459995D02*
D03*
X00499991D02*
D03*
X00491991D02*
D03*
X00483991D02*
D03*
X00475991D02*
D03*
X00467991Y00459995D02*
D03*
X00459991D02*
D03*
X00451991Y00459995D02*
D03*
X00443991D02*
D03*
X00435991D02*
D03*
X00427991D02*
D03*
X00419991D02*
D03*
X00411991Y00459995D02*
D03*
X00403991Y00459995D02*
D03*
X00395991D02*
D03*
X00547991Y00467995D02*
D03*
X00539991D02*
D03*
X00531991Y00467995D02*
D03*
X00523991D02*
D03*
X00515991D02*
D03*
X00507991D02*
D03*
X00499991Y00467995D02*
D03*
X00491991D02*
D03*
X00483991D02*
D03*
X00475991Y00467995D02*
D03*
X00467991D02*
D03*
X00459991D02*
D03*
X00451991D02*
D03*
X00443991Y00467995D02*
D03*
X00435991D02*
D03*
X00427991D02*
D03*
X00419991Y00467995D02*
D03*
X00411991D02*
D03*
X00403991Y00467995D02*
D03*
X00395991D02*
D03*
X00547991Y00475995D02*
D03*
X00539991Y00475995D02*
D03*
X00531991Y00475995D02*
D03*
X00523991D02*
D03*
X00515991D02*
D03*
X00507991D02*
D03*
X00499991D02*
D03*
X00491991Y00475995D02*
D03*
X00483991Y00475995D02*
D03*
X00475991D02*
D03*
X00467991D02*
D03*
X00459991D02*
D03*
X00451991D02*
D03*
X00443991Y00475995D02*
D03*
X00435991Y00475995D02*
D03*
X00427991D02*
D03*
X00419991D02*
D03*
X00411991D02*
D03*
X00403991Y00475995D02*
D03*
X00395991D02*
D03*
X00547991Y00483995D02*
D03*
X00539991Y00483995D02*
D03*
X00531991D02*
D03*
X00523991D02*
D03*
X00515991D02*
D03*
X00507991D02*
D03*
X00499991D02*
D03*
X00491991Y00483995D02*
D03*
X00483991Y00483995D02*
D03*
X00475991D02*
D03*
X00467991D02*
D03*
X00459991D02*
D03*
X00451991D02*
D03*
X00443992D02*
D03*
X00435991Y00483995D02*
D03*
X00427991Y00483995D02*
D03*
X00419991D02*
D03*
X00411991D02*
D03*
X00403991D02*
D03*
X00395992D02*
D03*
X00547991Y00491995D02*
D03*
X00539991D02*
D03*
X00531991Y00491995D02*
D03*
X00523991D02*
D03*
X00515991D02*
D03*
X00507991D02*
D03*
X00499991Y00491995D02*
D03*
X00491991D02*
D03*
X00483991D02*
D03*
X00475991Y00491995D02*
D03*
X00467991D02*
D03*
X00459991D02*
D03*
X00451991D02*
D03*
X00443991Y00491995D02*
D03*
X00435991D02*
D03*
X00427991Y00491995D02*
D03*
X00419991D02*
D03*
X00411991D02*
D03*
X00403991D02*
D03*
X00395992D02*
D03*
X00547991Y00499995D02*
D03*
X00539991D02*
D03*
X00531991D02*
D03*
X00523991D02*
D03*
X00515991Y00499995D02*
D03*
X00507991Y00499995D02*
D03*
X00499991D02*
D03*
X00491991D02*
D03*
X00483991D02*
D03*
X00475991D02*
D03*
X00467991D02*
D03*
X00459991Y00499995D02*
D03*
X00451991Y00499995D02*
D03*
X00443991D02*
D03*
X00435991D02*
D03*
X00427991Y00499995D02*
D03*
X00419991D02*
D03*
X00411991Y00499995D02*
D03*
X00403991D02*
D03*
X00395991D02*
D03*
X00547991Y00507995D02*
D03*
X00539991D02*
D03*
X00531991D02*
D03*
X00523991D02*
D03*
X00515991Y00507995D02*
D03*
X00507991Y00507995D02*
D03*
X00499991D02*
D03*
X00491991D02*
D03*
X00483991D02*
D03*
X00475991D02*
D03*
X00467991Y00507995D02*
D03*
X00459991Y00507995D02*
D03*
X00451991D02*
D03*
X00443991D02*
D03*
X00435991D02*
D03*
X00427991Y00507995D02*
D03*
X00419991D02*
D03*
X00411991D02*
D03*
X00403991Y00507995D02*
D03*
X00395991D02*
D03*
X00547991Y00515995D02*
D03*
X00539991D02*
D03*
X00531991D02*
D03*
X00523991D02*
D03*
X00515991D02*
D03*
X00507991D02*
D03*
X00499991D02*
D03*
X00491991D02*
D03*
X00483991D02*
D03*
X00475991D02*
D03*
X00467991D02*
D03*
X00459991D02*
D03*
X00451991D02*
D03*
X00443991D02*
D03*
X00435991D02*
D03*
X00427991D02*
D03*
X00419991D02*
D03*
X00411991D02*
D03*
X00403992D02*
D03*
X00395991D02*
D03*
X00531991Y00523995D02*
D03*
X00523991D02*
D03*
X00515991D02*
D03*
X00507991D02*
D03*
X00499991D02*
D03*
X00491991Y00523995D02*
D03*
X00483991D02*
D03*
X00475991Y00523995D02*
D03*
X00467991D02*
D03*
X00459991D02*
D03*
X00451991D02*
D03*
X00443991D02*
D03*
X00435991D02*
D03*
X00427991D02*
D03*
X00419991D02*
D03*
X00411991D02*
D03*
X00403991Y00523995D02*
D03*
X00395991D02*
D03*
X00547991Y00531995D02*
D03*
X00539991Y00531995D02*
D03*
X00531991Y00531995D02*
D03*
X00523991D02*
D03*
X00515991D02*
D03*
X00507991D02*
D03*
X00499991D02*
D03*
X00491991Y00531995D02*
D03*
X00483991Y00531995D02*
D03*
X00475991D02*
D03*
X00467991D02*
D03*
X00459991D02*
D03*
X00451991D02*
D03*
X00443991Y00531995D02*
D03*
X00435991Y00531995D02*
D03*
X00427991D02*
D03*
X00419991D02*
D03*
X00411991D02*
D03*
X00403991Y00531995D02*
D03*
X00395991D02*
D03*
X00547991Y00539995D02*
D03*
X00539991D02*
D03*
X00531991D02*
D03*
X00523991D02*
D03*
X00515991D02*
D03*
X00507991D02*
D03*
X00499991Y00539995D02*
D03*
X00491991Y00539995D02*
D03*
X00483991D02*
D03*
X00475991D02*
D03*
X00467991D02*
D03*
X00459991D02*
D03*
X00451991D02*
D03*
X00443991D02*
D03*
X00435991D02*
D03*
X00427991Y00539995D02*
D03*
X00419991Y00539995D02*
D03*
X00411991D02*
D03*
X00403991D02*
D03*
X00395991D02*
D03*
X00547991Y00547995D02*
D03*
X00539991D02*
D03*
X00531991D02*
D03*
X00523991D02*
D03*
X00515991D02*
D03*
X00507991D02*
D03*
X00499991D02*
D03*
X00491991D02*
D03*
X00483991D02*
D03*
X00475991D02*
D03*
X00467991D02*
D03*
X00459991D02*
D03*
X00451991D02*
D03*
X00443991D02*
D03*
X00435991D02*
D03*
X00427991Y00547995D02*
D03*
X00419991Y00547995D02*
D03*
X00411991D02*
D03*
X00403991D02*
D03*
X00395991D02*
D03*
X00387991Y00555995D02*
D03*
X00379991D02*
D03*
X00387991Y00563995D02*
D03*
X00379991D02*
D03*
X00547991Y00523995D02*
D03*
X00539991D02*
D03*
X00499991Y00563995D02*
D03*
Y00555995D02*
D03*
D52*
X00633400Y00536700D02*
D03*
Y00511300D02*
D03*
Y00473200D02*
D03*
Y00549400D02*
D03*
Y00524000D02*
D03*
Y00498600D02*
D03*
Y00485900D02*
D03*
D53*
X00629000Y00635750D02*
D03*
X00724000Y00327250D02*
D03*
D54*
X00600250Y00265250D02*
D03*
Y00281250D02*
D03*
X00926250Y00306210D02*
D03*
Y00322210D02*
D03*
D55*
X00310000Y00400250D02*
D03*
Y00409250D02*
D03*
X00381117Y00621582D02*
D03*
Y00630582D02*
D03*
X00381117Y00649497D02*
D03*
Y00640497D02*
D03*
X00624750Y00420500D02*
D03*
X00624750Y00429500D02*
D03*
X00264000Y00473500D02*
D03*
Y00464500D02*
D03*
X00350500Y00510750D02*
D03*
Y00501750D02*
D03*
X00351000Y00522500D02*
D03*
Y00531500D02*
D03*
X00550250Y00624500D02*
D03*
X00550250Y00633500D02*
D03*
X00551250Y00597250D02*
D03*
Y00606250D02*
D03*
X00468795Y00604211D02*
D03*
Y00595211D02*
D03*
X00458323Y00604211D02*
D03*
Y00595211D02*
D03*
X00603250Y00340500D02*
D03*
Y00349500D02*
D03*
X00582500Y00418750D02*
D03*
Y00427750D02*
D03*
X00896250Y00376960D02*
D03*
Y00367960D02*
D03*
X00901671Y00569935D02*
D03*
Y00578935D02*
D03*
X00895575Y00551465D02*
D03*
Y00560465D02*
D03*
X00906497Y00368077D02*
D03*
Y00377077D02*
D03*
X00842489Y00459771D02*
D03*
Y00468771D02*
D03*
X00854427Y00459699D02*
D03*
Y00468699D02*
D03*
X00908783Y00551647D02*
D03*
Y00560647D02*
D03*
X00932405Y00551460D02*
D03*
Y00560460D02*
D03*
X00921991Y00551460D02*
D03*
Y00560460D02*
D03*
X00915133Y00569863D02*
D03*
Y00578863D02*
D03*
X00922753Y00375625D02*
D03*
Y00384625D02*
D03*
X00953233Y00384625D02*
D03*
Y00375625D02*
D03*
X00942819Y00551460D02*
D03*
Y00560460D02*
D03*
X00942057Y00384299D02*
D03*
Y00375299D02*
D03*
X00953233Y00551460D02*
D03*
Y00560460D02*
D03*
D56*
X00584500Y00347750D02*
D03*
X00569500D02*
D03*
X00522750Y00610500D02*
D03*
X00537750D02*
D03*
X00618250Y00451000D02*
D03*
X00603250D02*
D03*
X00882719Y00606423D02*
D03*
X00897719D02*
D03*
D57*
X00287200Y00596750D02*
D03*
X00277800D02*
D03*
X00259601D02*
D03*
X00269000D02*
D03*
X00583300Y00496077D02*
D03*
X00592700D02*
D03*
X00583300Y00476538D02*
D03*
X00592700D02*
D03*
X00583300Y00486308D02*
D03*
X00592700D02*
D03*
X00583300Y00525384D02*
D03*
X00592700D02*
D03*
X00583300Y00535154D02*
D03*
X00592700D02*
D03*
X00583300Y00505846D02*
D03*
X00592700D02*
D03*
X00583300Y00515615D02*
D03*
X00592700D02*
D03*
X00610450Y00543583D02*
D03*
X00601050D02*
D03*
X00610450Y00533750D02*
D03*
X00601050D02*
D03*
X00610450Y00467500D02*
D03*
X00601050D02*
D03*
X00610450Y00517250D02*
D03*
X00601050D02*
D03*
X00583300Y00457000D02*
D03*
X00592700D02*
D03*
X00583300Y00466769D02*
D03*
X00592700D02*
D03*
X00583300Y00447250D02*
D03*
X00592700D02*
D03*
X00610450Y00507300D02*
D03*
X00601050D02*
D03*
X00583300Y00437000D02*
D03*
X00592700D02*
D03*
X00610450Y00487400D02*
D03*
X00601050D02*
D03*
X00610450Y00497350D02*
D03*
X00601050D02*
D03*
X00610450Y00477450D02*
D03*
X00601050D02*
D03*
X00583300Y00545250D02*
D03*
X00592700D02*
D03*
X00610450Y00563250D02*
D03*
X00601050D02*
D03*
X00593700Y00584000D02*
D03*
X00584300D02*
D03*
X00583300Y00574500D02*
D03*
X00592700D02*
D03*
X00583300Y00564750D02*
D03*
X00592700D02*
D03*
X00610450Y00553417D02*
D03*
X00601050D02*
D03*
X00583300Y00555000D02*
D03*
X00592700D02*
D03*
X00292300Y00449500D02*
D03*
X00301700D02*
D03*
X00337800Y00380750D02*
D03*
X00347200D02*
D03*
X00300300Y00321250D02*
D03*
X00309700D02*
D03*
X00300300Y00310750D02*
D03*
X00309700D02*
D03*
X00319450Y00334000D02*
D03*
X00310050D02*
D03*
X00582232Y00409568D02*
D03*
X00591632D02*
D03*
X00658700Y00298000D02*
D03*
X00649300D02*
D03*
X00584700Y00331000D02*
D03*
X00575300D02*
D03*
X00521800Y00280500D02*
D03*
X00531200D02*
D03*
X00512851Y00280600D02*
D03*
X00503451D02*
D03*
X00995183Y00417710D02*
D03*
X00985783D02*
D03*
X00973609Y00478487D02*
D03*
X00964209D02*
D03*
X00894419Y00662173D02*
D03*
X00885019D02*
D03*
X00995183Y00407710D02*
D03*
X00985783Y00407710D02*
D03*
X00995183Y00397710D02*
D03*
X00985783D02*
D03*
D58*
X00322750Y00410250D02*
D03*
Y00391250D02*
D03*
X00345750Y00400750D02*
D03*
D59*
X00347250Y00370625D02*
D03*
X00330750D02*
D03*
D60*
X00355500Y00325750D02*
D03*
Y00307750D02*
D03*
D61*
X00396000Y00346250D02*
D03*
Y00328250D02*
D03*
D62*
X00861969Y00606173D02*
D03*
Y00636173D02*
D03*
D63*
X00941500Y00266710D02*
D03*
Y00282710D02*
D03*
D64*
X00273250Y00551000D02*
D03*
X00262250Y00550250D02*
D03*
X00471750Y00619250D02*
D03*
D80*
X01064000Y00345960D02*
D03*
X01064000Y00581960D02*
D03*
X00618000Y00345000D02*
D03*
Y00583000D02*
D03*
X00338000Y00345000D02*
D03*
Y00583000D02*
D03*
X00784000Y00345960D02*
D03*
X00784000Y00581960D02*
D03*
D81*
X00483000Y00661250D02*
D03*
X00495500D02*
D03*
X00508000D02*
D03*
X00520500D02*
D03*
X00533000D02*
D03*
X00766250Y00274460D02*
D03*
X00778750D02*
D03*
X00311500Y00266500D02*
D03*
X00324000D02*
D03*
D82*
X00644000Y00346408D02*
D03*
X00664000Y00356408D02*
D03*
X00644000Y00366408D02*
D03*
X00664000Y00376408D02*
D03*
X00644000Y00386408D02*
D03*
X00664000Y00336408D02*
D03*
D83*
X00626250Y00265500D02*
D03*
X00337000Y00634250D02*
D03*
D84*
X00626250Y00285500D02*
D03*
D85*
X00865349Y00509411D02*
D03*
Y00522111D02*
D03*
Y00496711D02*
D03*
X00954249Y00534811D02*
D03*
Y00395111D02*
D03*
X00941549Y00534811D02*
D03*
Y00522111D02*
D03*
Y00509411D02*
D03*
Y00496711D02*
D03*
Y00484011D02*
D03*
Y00471311D02*
D03*
Y00458611D02*
D03*
Y00445911D02*
D03*
Y00433211D02*
D03*
Y00420511D02*
D03*
Y00407811D02*
D03*
Y00395111D02*
D03*
X00928849Y00534811D02*
D03*
Y00522111D02*
D03*
Y00509411D02*
D03*
Y00496711D02*
D03*
Y00484011D02*
D03*
Y00471311D02*
D03*
Y00458611D02*
D03*
Y00445911D02*
D03*
Y00433211D02*
D03*
Y00420511D02*
D03*
Y00407811D02*
D03*
Y00395111D02*
D03*
X00916149Y00534811D02*
D03*
Y00522111D02*
D03*
Y00509411D02*
D03*
Y00496711D02*
D03*
Y00484011D02*
D03*
Y00471311D02*
D03*
Y00458611D02*
D03*
Y00445911D02*
D03*
Y00433211D02*
D03*
Y00420511D02*
D03*
Y00407811D02*
D03*
Y00395111D02*
D03*
X00903449Y00534811D02*
D03*
Y00522111D02*
D03*
Y00509411D02*
D03*
Y00496711D02*
D03*
X00890749Y00534811D02*
D03*
Y00509411D02*
D03*
Y00496711D02*
D03*
Y00484011D02*
D03*
Y00471311D02*
D03*
Y00458611D02*
D03*
Y00395111D02*
D03*
X00878049Y00509411D02*
D03*
Y00496711D02*
D03*
Y00471311D02*
D03*
Y00445911D02*
D03*
Y00433211D02*
D03*
Y00420511D02*
D03*
Y00407811D02*
D03*
Y00395111D02*
D03*
X00865349Y00534811D02*
D03*
Y00484011D02*
D03*
Y00471311D02*
D03*
Y00458611D02*
D03*
Y00420511D02*
D03*
Y00407811D02*
D03*
X00954249D02*
D03*
Y00420511D02*
D03*
Y00433211D02*
D03*
Y00445911D02*
D03*
Y00458611D02*
D03*
Y00471311D02*
D03*
Y00484011D02*
D03*
Y00496711D02*
D03*
Y00509411D02*
D03*
Y00522111D02*
D03*
X00903449Y00407811D02*
D03*
Y00395111D02*
D03*
Y00420511D02*
D03*
X00890749D02*
D03*
Y00407811D02*
D03*
X00878049Y00484011D02*
D03*
Y00458611D02*
D03*
X00865349Y00445911D02*
D03*
Y00433211D02*
D03*
X00890749Y00445911D02*
D03*
Y00433211D02*
D03*
X00903449Y00458611D02*
D03*
Y00445911D02*
D03*
X00890749Y00522111D02*
D03*
X00878049Y00534811D02*
D03*
Y00522111D02*
D03*
X00903449Y00484011D02*
D03*
Y00471311D02*
D03*
Y00433211D02*
D03*
D86*
X00362400Y00608850D02*
D03*
Y00659650D02*
D03*
X00311600D02*
D03*
Y00608850D02*
D03*
D87*
X00594750Y00638000D02*
D03*
D88*
X00569350Y00612600D02*
D03*
X00620150D02*
D03*
D89*
X00569350Y00663400D02*
D03*
X00620150D02*
D03*
D90*
X00657000Y00447600D02*
D03*
Y00575000D02*
D03*
D91*
X00724000Y00273960D02*
D03*
X01104000D02*
D03*
Y00653960D02*
D03*
X00724000D02*
D03*
X00274000Y00654000D02*
D03*
X00654000D02*
D03*
Y00274000D02*
D03*
X00274000D02*
D03*
M02*
