G04 Layer_Color=8388736*
%FSAX24Y24*%
%MOIN*%
G70*
G01*
G75*
%ADD78C,0.0100*%
%ADD94C,0.0070*%
%ADD194C,0.0050*%
D78*
X079338Y034722D02*
X099577D01*
X079338Y033472D02*
X099577D01*
X079338Y032222D02*
X099577D01*
X079338Y030972D02*
X099626D01*
X079338Y029722D02*
X099577D01*
Y034722D01*
X084838Y029722D02*
Y034722D01*
X079338Y029722D02*
Y034722D01*
D94*
X085338Y030294D02*
X085980D01*
X085338Y032830D02*
X085659D01*
X085766Y032865D01*
X085802Y032901D01*
X085837Y032972D01*
Y033079D01*
X085802Y033151D01*
X085766Y033187D01*
X085659Y033222D01*
X085338D01*
Y032472D01*
X086041Y032544D02*
X086005Y032508D01*
X086041Y032472D01*
X086077Y032508D01*
X086041Y032544D01*
X087330Y033222D02*
X086830Y032472D01*
Y033222D02*
X087330D01*
X086830Y032472D02*
X087330D01*
X087498Y033222D02*
Y032472D01*
Y033222D02*
X087748D01*
X087855Y033187D01*
X087926Y033115D01*
X087962Y033044D01*
X087998Y032937D01*
Y032758D01*
X087962Y032651D01*
X087926Y032580D01*
X087855Y032508D01*
X087748Y032472D01*
X087498D01*
X088166Y033222D02*
Y032687D01*
X088201Y032580D01*
X088273Y032508D01*
X088380Y032472D01*
X088451D01*
X088558Y032508D01*
X088630Y032580D01*
X088665Y032687D01*
Y033222D01*
X088873D02*
Y032472D01*
Y033222D02*
X089372Y032472D01*
Y033222D02*
Y032472D01*
X090044Y033222D02*
X089580D01*
Y032472D01*
X090044D01*
X089580Y032865D02*
X089865D01*
X090169Y033222D02*
Y032472D01*
X090669Y033222D02*
X090169Y032722D01*
X090347Y032901D02*
X090669Y032472D01*
X085552Y031972D02*
X085445Y031937D01*
X085373Y031829D01*
X085338Y031651D01*
Y031544D01*
X085373Y031365D01*
X085445Y031258D01*
X085552Y031222D01*
X085623D01*
X085730Y031258D01*
X085802Y031365D01*
X085837Y031544D01*
Y031651D01*
X085802Y031829D01*
X085730Y031937D01*
X085623Y031972D01*
X085552D01*
X086005Y031829D02*
X086077Y031865D01*
X086184Y031972D01*
Y031222D01*
X086591Y031294D02*
X086555Y031258D01*
X086591Y031222D01*
X086627Y031258D01*
X086591Y031294D01*
X086827Y031794D02*
Y031829D01*
X086862Y031901D01*
X086898Y031937D01*
X086969Y031972D01*
X087112D01*
X087184Y031937D01*
X087219Y031901D01*
X087255Y031829D01*
Y031758D01*
X087219Y031687D01*
X087148Y031580D01*
X086791Y031222D01*
X087291D01*
X087673Y031972D02*
X087566Y031937D01*
X087494Y031829D01*
X087459Y031651D01*
Y031544D01*
X087494Y031365D01*
X087566Y031258D01*
X087673Y031222D01*
X087744D01*
X087851Y031258D01*
X087923Y031365D01*
X087958Y031544D01*
Y031651D01*
X087923Y031829D01*
X087851Y031937D01*
X087744Y031972D01*
X087673D01*
X088126Y031829D02*
X088198Y031865D01*
X088305Y031972D01*
Y031222D01*
X088855Y031972D02*
X088748Y031937D01*
X088712Y031865D01*
Y031794D01*
X088748Y031722D01*
X088819Y031687D01*
X088962Y031651D01*
X089069Y031615D01*
X089140Y031544D01*
X089176Y031472D01*
Y031365D01*
X089140Y031294D01*
X089105Y031258D01*
X088998Y031222D01*
X088855D01*
X088748Y031258D01*
X088712Y031294D01*
X088676Y031365D01*
Y031472D01*
X088712Y031544D01*
X088783Y031615D01*
X088890Y031651D01*
X089033Y031687D01*
X089105Y031722D01*
X089140Y031794D01*
Y031865D01*
X089105Y031937D01*
X088998Y031972D01*
X088855D01*
X085837Y034365D02*
X085766Y034437D01*
X085659Y034472D01*
X085516D01*
X085409Y034437D01*
X085338Y034365D01*
Y034294D01*
X085373Y034222D01*
X085409Y034187D01*
X085480Y034151D01*
X085695Y034080D01*
X085766Y034044D01*
X085802Y034008D01*
X085837Y033937D01*
Y033830D01*
X085766Y033758D01*
X085659Y033722D01*
X085516D01*
X085409Y033758D01*
X085338Y033830D01*
X086005Y034080D02*
X086327D01*
X086434Y034115D01*
X086469Y034151D01*
X086505Y034222D01*
Y034329D01*
X086469Y034401D01*
X086434Y034437D01*
X086327Y034472D01*
X086005D01*
Y033722D01*
X087137Y034472D02*
X086673D01*
Y033722D01*
X087137D01*
X086673Y034115D02*
X086959D01*
X087262Y034472D02*
Y033722D01*
X087762Y034472D02*
X087262Y033972D01*
X087441Y034151D02*
X087762Y033722D01*
X088180Y034472D02*
Y033722D01*
X087930Y034472D02*
X088430D01*
X088519D02*
Y033722D01*
Y034472D02*
X088840D01*
X088948Y034437D01*
X088983Y034401D01*
X089019Y034329D01*
Y034258D01*
X088983Y034187D01*
X088948Y034151D01*
X088840Y034115D01*
X088519D01*
X088769D02*
X089019Y033722D01*
X089401Y034472D02*
X089330Y034437D01*
X089258Y034365D01*
X089222Y034294D01*
X089187Y034187D01*
Y034008D01*
X089222Y033901D01*
X089258Y033830D01*
X089330Y033758D01*
X089401Y033722D01*
X089544D01*
X089615Y033758D01*
X089687Y033830D01*
X089722Y033901D01*
X089758Y034008D01*
Y034187D01*
X089722Y034294D01*
X089687Y034365D01*
X089615Y034437D01*
X089544Y034472D01*
X089401D01*
X089933Y034080D02*
X090254D01*
X090362Y034115D01*
X090397Y034151D01*
X090433Y034222D01*
Y034329D01*
X090397Y034401D01*
X090362Y034437D01*
X090254Y034472D01*
X089933D01*
Y033722D01*
X090636Y034294D02*
Y034329D01*
X090672Y034401D01*
X090708Y034437D01*
X090779Y034472D01*
X090922D01*
X090994Y034437D01*
X091029Y034401D01*
X091065Y034329D01*
Y034258D01*
X091029Y034187D01*
X090958Y034080D01*
X090601Y033722D01*
X091101D01*
X091268Y033472D02*
X091840D01*
X091936Y034080D02*
X092258D01*
X092365Y034115D01*
X092400Y034151D01*
X092436Y034222D01*
Y034329D01*
X092400Y034401D01*
X092365Y034437D01*
X092258Y034472D01*
X091936D01*
Y033722D01*
X092604Y034472D02*
Y033722D01*
Y034472D02*
X092925D01*
X093032Y034437D01*
X093068Y034401D01*
X093104Y034329D01*
Y034258D01*
X093068Y034187D01*
X093032Y034151D01*
X092925Y034115D01*
X092604D01*
X092854D02*
X093104Y033722D01*
X093486Y034472D02*
X093414Y034437D01*
X093343Y034365D01*
X093307Y034294D01*
X093272Y034187D01*
Y034008D01*
X093307Y033901D01*
X093343Y033830D01*
X093414Y033758D01*
X093486Y033722D01*
X093629D01*
X093700Y033758D01*
X093772Y033830D01*
X093807Y033901D01*
X093843Y034008D01*
Y034187D01*
X093807Y034294D01*
X093772Y034365D01*
X093700Y034437D01*
X093629Y034472D01*
X093486D01*
X094553Y034294D02*
X094518Y034365D01*
X094446Y034437D01*
X094375Y034472D01*
X094232D01*
X094161Y034437D01*
X094089Y034365D01*
X094054Y034294D01*
X094018Y034187D01*
Y034008D01*
X094054Y033901D01*
X094089Y033830D01*
X094161Y033758D01*
X094232Y033722D01*
X094375D01*
X094446Y033758D01*
X094518Y033830D01*
X094553Y033901D01*
X094764Y033472D02*
X095335D01*
X095432Y034472D02*
Y033722D01*
Y034472D02*
X095753D01*
X095860Y034437D01*
X095896Y034401D01*
X095932Y034329D01*
Y034258D01*
X095896Y034187D01*
X095860Y034151D01*
X095753Y034115D01*
X095432D02*
X095753D01*
X095860Y034080D01*
X095896Y034044D01*
X095932Y033972D01*
Y033865D01*
X095896Y033794D01*
X095860Y033758D01*
X095753Y033722D01*
X095432D01*
X096100Y034472D02*
Y033722D01*
Y034472D02*
X096421D01*
X096528Y034437D01*
X096564Y034401D01*
X096599Y034329D01*
Y034258D01*
X096564Y034187D01*
X096528Y034151D01*
X096421Y034115D01*
X096100D01*
X096350D02*
X096599Y033722D01*
X096767Y034472D02*
Y033722D01*
Y034472D02*
X097017D01*
X097124Y034437D01*
X097196Y034365D01*
X097231Y034294D01*
X097267Y034187D01*
Y034008D01*
X097231Y033901D01*
X097196Y033830D01*
X097124Y033758D01*
X097017Y033722D01*
X096767D01*
X097435Y033472D02*
X098006D01*
X098103Y034472D02*
X098388Y033722D01*
X098674Y034472D02*
X098388Y033722D01*
X098770Y034329D02*
X098842Y034365D01*
X098949Y034472D01*
Y033722D01*
X079838Y034472D02*
Y033722D01*
Y034472D02*
X080337Y033722D01*
Y034472D02*
Y033722D01*
X080545Y034222D02*
Y033865D01*
X080580Y033758D01*
X080652Y033722D01*
X080759D01*
X080830Y033758D01*
X080937Y033865D01*
Y034222D02*
Y033722D01*
X081134Y034222D02*
Y033722D01*
Y034080D02*
X081241Y034187D01*
X081312Y034222D01*
X081419D01*
X081491Y034187D01*
X081527Y034080D01*
Y033722D01*
Y034080D02*
X081634Y034187D01*
X081705Y034222D01*
X081812D01*
X081884Y034187D01*
X081919Y034080D01*
Y033722D01*
X082155Y034472D02*
Y033722D01*
Y034115D02*
X082226Y034187D01*
X082298Y034222D01*
X082405D01*
X082476Y034187D01*
X082548Y034115D01*
X082583Y034008D01*
Y033937D01*
X082548Y033830D01*
X082476Y033758D01*
X082405Y033722D01*
X082298D01*
X082226Y033758D01*
X082155Y033830D01*
X082744Y034008D02*
X083173D01*
Y034080D01*
X083137Y034151D01*
X083101Y034187D01*
X083030Y034222D01*
X082923D01*
X082851Y034187D01*
X082780Y034115D01*
X082744Y034008D01*
Y033937D01*
X082780Y033830D01*
X082851Y033758D01*
X082923Y033722D01*
X083030D01*
X083101Y033758D01*
X083173Y033830D01*
X083333Y034222D02*
Y033722D01*
Y034008D02*
X083369Y034115D01*
X083440Y034187D01*
X083512Y034222D01*
X083619D01*
X079838Y031972D02*
Y031222D01*
Y031972D02*
X080088D01*
X080195Y031937D01*
X080266Y031865D01*
X080302Y031794D01*
X080337Y031687D01*
Y031508D01*
X080302Y031401D01*
X080266Y031330D01*
X080195Y031258D01*
X080088Y031222D01*
X079838D01*
X081077D02*
X080791Y031972D01*
X080505Y031222D01*
X080612Y031472D02*
X080969D01*
X081502Y031972D02*
Y031222D01*
X081252Y031972D02*
X081751D01*
X082305D02*
X081841D01*
Y031222D01*
X082305D01*
X081841Y031615D02*
X082126D01*
X079838Y033222D02*
Y032472D01*
Y033222D02*
X080088D01*
X080195Y033187D01*
X080266Y033115D01*
X080302Y033044D01*
X080337Y032937D01*
Y032758D01*
X080302Y032651D01*
X080266Y032580D01*
X080195Y032508D01*
X080088Y032472D01*
X079838D01*
X080505Y032972D02*
Y032472D01*
Y032758D02*
X080541Y032865D01*
X080612Y032937D01*
X080684Y032972D01*
X080791D01*
X081287D02*
Y032472D01*
Y032865D02*
X081216Y032937D01*
X081144Y032972D01*
X081037D01*
X080966Y032937D01*
X080895Y032865D01*
X080859Y032758D01*
Y032687D01*
X080895Y032580D01*
X080966Y032508D01*
X081037Y032472D01*
X081144D01*
X081216Y032508D01*
X081287Y032580D01*
X081487Y032972D02*
X081630Y032472D01*
X081773Y032972D02*
X081630Y032472D01*
X081773Y032972D02*
X081916Y032472D01*
X082059Y032972D02*
X081916Y032472D01*
X082234Y032972D02*
Y032472D01*
Y032830D02*
X082341Y032937D01*
X082412Y032972D01*
X082519D01*
X082591Y032937D01*
X082626Y032830D01*
Y032472D01*
X083412Y033222D02*
Y032472D01*
Y033222D02*
X083733D01*
X083840Y033187D01*
X083876Y033151D01*
X083912Y033079D01*
Y033008D01*
X083876Y032937D01*
X083840Y032901D01*
X083733Y032865D01*
X083412D02*
X083733D01*
X083840Y032830D01*
X083876Y032794D01*
X083912Y032722D01*
Y032615D01*
X083876Y032544D01*
X083840Y032508D01*
X083733Y032472D01*
X083412D01*
X084115Y032972D02*
X084330Y032472D01*
X084544Y032972D02*
X084330Y032472D01*
X084258Y032330D01*
X084187Y032258D01*
X084115Y032222D01*
X084080D01*
X079838Y030722D02*
Y029972D01*
Y030722D02*
X080123Y029972D01*
X080409Y030722D02*
X080123Y029972D01*
X080409Y030722D02*
Y029972D01*
X080837Y030722D02*
X080766Y030687D01*
X080695Y030615D01*
X080659Y030544D01*
X080623Y030437D01*
Y030258D01*
X080659Y030151D01*
X080695Y030080D01*
X080766Y030008D01*
X080837Y029972D01*
X080980D01*
X081052Y030008D01*
X081123Y030080D01*
X081159Y030151D01*
X081194Y030258D01*
Y030437D01*
X081159Y030544D01*
X081123Y030615D01*
X081052Y030687D01*
X080980Y030722D01*
X080837D01*
X081369D02*
Y029972D01*
Y030722D02*
X081619D01*
X081726Y030687D01*
X081798Y030615D01*
X081834Y030544D01*
X081869Y030437D01*
Y030258D01*
X081834Y030151D01*
X081798Y030080D01*
X081726Y030008D01*
X081619Y029972D01*
X081369D01*
X082073Y030044D02*
X082037Y030008D01*
X082073Y029972D01*
X082109Y030008D01*
X082073Y030044D01*
D194*
X080171Y028151D02*
X080123Y028199D01*
X080052Y028222D01*
X079957D01*
X079885Y028199D01*
X079838Y028151D01*
Y028103D01*
X079861Y028056D01*
X079885Y028032D01*
X079933Y028008D01*
X080076Y027960D01*
X080123Y027937D01*
X080147Y027913D01*
X080171Y027865D01*
Y027794D01*
X080123Y027746D01*
X080052Y027722D01*
X079957D01*
X079885Y027746D01*
X079838Y027794D01*
X080640Y028103D02*
X080616Y028151D01*
X080568Y028199D01*
X080521Y028222D01*
X080426D01*
X080378Y028199D01*
X080330Y028151D01*
X080307Y028103D01*
X080283Y028032D01*
Y027913D01*
X080307Y027841D01*
X080330Y027794D01*
X080378Y027746D01*
X080426Y027722D01*
X080521D01*
X080568Y027746D01*
X080616Y027794D01*
X080640Y027841D01*
X081161Y027722D02*
X080971Y028222D01*
X080780Y027722D01*
X080852Y027889D02*
X081090D01*
X081278Y028222D02*
Y027722D01*
X081563D01*
X081928Y028222D02*
X081618D01*
Y027722D01*
X081928D01*
X081618Y027984D02*
X081809D01*
X082035Y028056D02*
X082011Y028032D01*
X082035Y028008D01*
X082059Y028032D01*
X082035Y028056D01*
Y027770D02*
X082011Y027746D01*
X082035Y027722D01*
X082059Y027746D01*
X082035Y027770D01*
X082561Y028127D02*
X082608Y028151D01*
X082680Y028222D01*
Y027722D01*
X082951Y027770D02*
X082927Y027746D01*
X082951Y027722D01*
X082975Y027746D01*
X082951Y027770D01*
X083227Y028222D02*
X083156Y028199D01*
X083108Y028127D01*
X083085Y028008D01*
Y027937D01*
X083108Y027818D01*
X083156Y027746D01*
X083227Y027722D01*
X083275D01*
X083346Y027746D01*
X083394Y027818D01*
X083418Y027937D01*
Y028008D01*
X083394Y028127D01*
X083346Y028199D01*
X083275Y028222D01*
X083227D01*
X083672D02*
X083601Y028199D01*
X083553Y028127D01*
X083530Y028008D01*
Y027937D01*
X083553Y027818D01*
X083601Y027746D01*
X083672Y027722D01*
X083720D01*
X083792Y027746D01*
X083839Y027818D01*
X083863Y027937D01*
Y028008D01*
X083839Y028127D01*
X083792Y028199D01*
X083720Y028222D01*
X083672D01*
X079838Y028960D02*
X080052D01*
X080123Y028984D01*
X080147Y029008D01*
X080171Y029056D01*
Y029127D01*
X080147Y029175D01*
X080123Y029199D01*
X080052Y029222D01*
X079838D01*
Y028722D01*
X080283Y029056D02*
Y028722D01*
Y028913D02*
X080307Y028984D01*
X080354Y029032D01*
X080402Y029056D01*
X080473D01*
X080566Y029222D02*
X080590Y029199D01*
X080614Y029222D01*
X080590Y029246D01*
X080566Y029222D01*
X080590Y029056D02*
Y028722D01*
X080702Y029056D02*
Y028722D01*
Y028960D02*
X080773Y029032D01*
X080821Y029056D01*
X080892D01*
X080940Y029032D01*
X080964Y028960D01*
Y028722D01*
X081166Y029222D02*
Y028818D01*
X081190Y028746D01*
X081237Y028722D01*
X081285D01*
X081094Y029056D02*
X081261D01*
X081749Y029222D02*
Y028722D01*
Y029222D02*
X081916D01*
X081987Y029199D01*
X082035Y029151D01*
X082059Y029103D01*
X082082Y029032D01*
Y028913D01*
X082059Y028841D01*
X082035Y028794D01*
X081987Y028746D01*
X081916Y028722D01*
X081749D01*
X082480Y029056D02*
Y028722D01*
Y028984D02*
X082432Y029032D01*
X082385Y029056D01*
X082313D01*
X082266Y029032D01*
X082218Y028984D01*
X082194Y028913D01*
Y028865D01*
X082218Y028794D01*
X082266Y028746D01*
X082313Y028722D01*
X082385D01*
X082432Y028746D01*
X082480Y028794D01*
X082685Y029222D02*
Y028818D01*
X082708Y028746D01*
X082756Y028722D01*
X082804D01*
X082613Y029056D02*
X082780D01*
X082875Y028913D02*
X083161D01*
Y028960D01*
X083137Y029008D01*
X083113Y029032D01*
X083065Y029056D01*
X082994D01*
X082946Y029032D01*
X082899Y028984D01*
X082875Y028913D01*
Y028865D01*
X082899Y028794D01*
X082946Y028746D01*
X082994Y028722D01*
X083065D01*
X083113Y028746D01*
X083161Y028794D01*
X085861Y029103D02*
Y029127D01*
X085885Y029175D01*
X085909Y029199D01*
X085957Y029222D01*
X086052D01*
X086099Y029199D01*
X086123Y029175D01*
X086147Y029127D01*
Y029080D01*
X086123Y029032D01*
X086076Y028960D01*
X085838Y028722D01*
X086171D01*
X086568Y029151D02*
X086545Y029199D01*
X086473Y029222D01*
X086426D01*
X086354Y029199D01*
X086307Y029127D01*
X086283Y029008D01*
Y028889D01*
X086307Y028794D01*
X086354Y028746D01*
X086426Y028722D01*
X086449D01*
X086521Y028746D01*
X086568Y028794D01*
X086592Y028865D01*
Y028889D01*
X086568Y028960D01*
X086521Y029008D01*
X086449Y029032D01*
X086426D01*
X086354Y029008D01*
X086307Y028960D01*
X086283Y028889D01*
X086702Y028937D02*
X087130D01*
X087516Y029222D02*
Y028841D01*
X087492Y028770D01*
X087468Y028746D01*
X087421Y028722D01*
X087373D01*
X087325Y028746D01*
X087302Y028770D01*
X087278Y028841D01*
Y028889D01*
X087930Y029056D02*
Y028722D01*
Y028984D02*
X087882Y029032D01*
X087835Y029056D01*
X087763D01*
X087716Y029032D01*
X087668Y028984D01*
X087644Y028913D01*
Y028865D01*
X087668Y028794D01*
X087716Y028746D01*
X087763Y028722D01*
X087835D01*
X087882Y028746D01*
X087930Y028794D01*
X088063Y029056D02*
Y028722D01*
Y028960D02*
X088135Y029032D01*
X088182Y029056D01*
X088254D01*
X088301Y029032D01*
X088325Y028960D01*
Y028722D01*
X088456Y028937D02*
X088885D01*
X089032Y029127D02*
X089080Y029151D01*
X089151Y029222D01*
Y028722D01*
X089518Y029222D02*
X089446Y029199D01*
X089423Y029151D01*
Y029103D01*
X089446Y029056D01*
X089494Y029032D01*
X089589Y029008D01*
X089661Y028984D01*
X089708Y028937D01*
X089732Y028889D01*
Y028818D01*
X089708Y028770D01*
X089684Y028746D01*
X089613Y028722D01*
X089518D01*
X089446Y028746D01*
X089423Y028770D01*
X089399Y028818D01*
Y028889D01*
X089423Y028937D01*
X089470Y028984D01*
X089542Y029008D01*
X089637Y029032D01*
X089684Y029056D01*
X089708Y029103D01*
Y029151D01*
X089684Y029199D01*
X089613Y029222D01*
X089518D01*
X090838Y029127D02*
X090885Y029151D01*
X090957Y029222D01*
Y028722D01*
X091204Y029127D02*
X091252Y029151D01*
X091323Y029222D01*
Y028722D01*
X091595Y029056D02*
X091571Y029032D01*
X091595Y029008D01*
X091618Y029032D01*
X091595Y029056D01*
Y028770D02*
X091571Y028746D01*
X091595Y028722D01*
X091618Y028746D01*
X091595Y028770D01*
X092014Y029222D02*
X091775D01*
X091752Y029008D01*
X091775Y029032D01*
X091847Y029056D01*
X091918D01*
X091990Y029032D01*
X092037Y028984D01*
X092061Y028913D01*
Y028865D01*
X092037Y028794D01*
X091990Y028746D01*
X091918Y028722D01*
X091847D01*
X091775Y028746D01*
X091752Y028770D01*
X091728Y028818D01*
X092411Y029222D02*
X092173Y028889D01*
X092530D01*
X092411Y029222D02*
Y028722D01*
X092642Y029056D02*
X092618Y029032D01*
X092642Y029008D01*
X092666Y029032D01*
X092642Y029056D01*
Y028770D02*
X092618Y028746D01*
X092642Y028722D01*
X092666Y028746D01*
X092642Y028770D01*
X093013Y029222D02*
X092775Y028889D01*
X093132D01*
X093013Y029222D02*
Y028722D01*
X093458Y029222D02*
X093220Y028889D01*
X093577D01*
X093458Y029222D02*
Y028722D01*
X094058Y028960D02*
X094273D01*
X094344Y028984D01*
X094368Y029008D01*
X094392Y029056D01*
Y029127D01*
X094368Y029175D01*
X094344Y029199D01*
X094273Y029222D01*
X094058D01*
Y028722D01*
X094503Y029222D02*
Y028722D01*
Y029222D02*
X094694Y028722D01*
X094884Y029222D02*
X094694Y028722D01*
X094884Y029222D02*
Y028722D01*
M02*
