G04 Layer_Color=128*
%FSAX44Y44*%
%MOMM*%
G71*
G01*
G75*
%ADD204C,0.0508*%
D204*
X01056750Y00345960D02*
X01071250D01*
X01064000Y00338710D02*
Y00353210D01*
X01056750Y00581960D02*
X01071250D01*
X01064000Y00574710D02*
Y00589210D01*
X00610750Y00345000D02*
X00625250D01*
X00618000Y00337750D02*
Y00352250D01*
X00610750Y00583000D02*
X00625250D01*
X00618000Y00575750D02*
Y00590250D01*
X00480250Y00661250D02*
X00485750D01*
X00483000Y00658500D02*
Y00664000D01*
X00492750Y00661250D02*
X00498250D01*
X00495500Y00658500D02*
Y00664000D01*
X00505250Y00661250D02*
X00510750D01*
X00508000Y00658500D02*
Y00664000D01*
X00517750Y00661250D02*
X00523250D01*
X00520500Y00658500D02*
Y00664000D01*
X00530250Y00661250D02*
X00535750D01*
X00533000Y00658500D02*
Y00664000D01*
X00763500Y00274460D02*
X00769000D01*
X00766250Y00271710D02*
Y00277210D01*
X00776000Y00274460D02*
X00781500D01*
X00778750Y00271710D02*
Y00277210D01*
X00640500Y00346408D02*
X00647500D01*
X00644000Y00342908D02*
Y00349908D01*
X00660500Y00356408D02*
X00667500D01*
X00664000Y00352908D02*
Y00359908D01*
X00640500Y00366408D02*
X00647500D01*
X00644000Y00362908D02*
Y00369908D01*
X00660500Y00376408D02*
X00667500D01*
X00664000Y00372908D02*
Y00379908D01*
X00640500Y00386408D02*
X00647500D01*
X00644000Y00382908D02*
Y00389908D01*
X00660500Y00336408D02*
X00667500D01*
X00664000Y00332908D02*
Y00339908D01*
X00622250Y00265500D02*
X00630250D01*
X00626250Y00261500D02*
Y00269500D01*
X00622250Y00285500D02*
X00630250D01*
X00626250Y00281500D02*
Y00289500D01*
X00862849Y00509411D02*
X00867849D01*
X00865349Y00506911D02*
Y00511911D01*
X00862849Y00522111D02*
X00867849D01*
X00865349Y00519611D02*
Y00524611D01*
X00862849Y00496711D02*
X00867849D01*
X00865349Y00494211D02*
Y00499211D01*
X00951749Y00534811D02*
X00956749D01*
X00954249Y00532311D02*
Y00537311D01*
X00951749Y00395111D02*
X00956749D01*
X00954249Y00392611D02*
Y00397611D01*
X00939049Y00534811D02*
X00944049D01*
X00941549Y00532311D02*
Y00537311D01*
X00939049Y00522111D02*
X00944049D01*
X00941549Y00519611D02*
Y00524611D01*
X00939049Y00509411D02*
X00944049D01*
X00941549Y00506911D02*
Y00511911D01*
X00939049Y00496711D02*
X00944049D01*
X00941549Y00494211D02*
Y00499211D01*
X00939049Y00484011D02*
X00944049D01*
X00941549Y00481511D02*
Y00486511D01*
X00939049Y00471311D02*
X00944049D01*
X00941549Y00468811D02*
Y00473811D01*
X00939049Y00458611D02*
X00944049D01*
X00941549Y00456111D02*
Y00461111D01*
X00939049Y00445911D02*
X00944049D01*
X00941549Y00443411D02*
Y00448411D01*
X00939049Y00433211D02*
X00944049D01*
X00941549Y00430711D02*
Y00435711D01*
X00939049Y00420511D02*
X00944049D01*
X00941549Y00418011D02*
Y00423011D01*
X00939049Y00407811D02*
X00944049D01*
X00941549Y00405311D02*
Y00410311D01*
X00939049Y00395111D02*
X00944049D01*
X00941549Y00392611D02*
Y00397611D01*
X00926349Y00534811D02*
X00931349D01*
X00928849Y00532311D02*
Y00537311D01*
X00926349Y00522111D02*
X00931349D01*
X00928849Y00519611D02*
Y00524611D01*
X00926349Y00509411D02*
X00931349D01*
X00928849Y00506911D02*
Y00511911D01*
X00926349Y00496711D02*
X00931349D01*
X00928849Y00494211D02*
Y00499211D01*
X00926349Y00484011D02*
X00931349D01*
X00928849Y00481511D02*
Y00486511D01*
X00926349Y00471311D02*
X00931349D01*
X00928849Y00468811D02*
Y00473811D01*
X00926349Y00458611D02*
X00931349D01*
X00928849Y00456111D02*
Y00461111D01*
X00926349Y00445911D02*
X00931349D01*
X00928849Y00443411D02*
Y00448411D01*
X00926349Y00433211D02*
X00931349D01*
X00928849Y00430711D02*
Y00435711D01*
X00926349Y00420511D02*
X00931349D01*
X00928849Y00418011D02*
Y00423011D01*
X00926349Y00407811D02*
X00931349D01*
X00928849Y00405311D02*
Y00410311D01*
X00926349Y00395111D02*
X00931349D01*
X00928849Y00392611D02*
Y00397611D01*
X00913649Y00534811D02*
X00918649D01*
X00916149Y00532311D02*
Y00537311D01*
X00913649Y00522111D02*
X00918649D01*
X00916149Y00519611D02*
Y00524611D01*
X00913649Y00509411D02*
X00918649D01*
X00916149Y00506911D02*
Y00511911D01*
X00913649Y00496711D02*
X00918649D01*
X00916149Y00494211D02*
Y00499211D01*
X00913649Y00484011D02*
X00918649D01*
X00916149Y00481511D02*
Y00486511D01*
X00913649Y00471311D02*
X00918649D01*
X00916149Y00468811D02*
Y00473811D01*
X00913649Y00458611D02*
X00918649D01*
X00916149Y00456111D02*
Y00461111D01*
X00913649Y00445911D02*
X00918649D01*
X00916149Y00443411D02*
Y00448411D01*
X00913649Y00433211D02*
X00918649D01*
X00916149Y00430711D02*
Y00435711D01*
X00913649Y00420511D02*
X00918649D01*
X00916149Y00418011D02*
Y00423011D01*
X00913649Y00407811D02*
X00918649D01*
X00916149Y00405311D02*
Y00410311D01*
X00913649Y00395111D02*
X00918649D01*
X00916149Y00392611D02*
Y00397611D01*
X00900949Y00534811D02*
X00905949D01*
X00903449Y00532311D02*
Y00537311D01*
X00900949Y00522111D02*
X00905949D01*
X00903449Y00519611D02*
Y00524611D01*
X00900949Y00509411D02*
X00905949D01*
X00903449Y00506911D02*
Y00511911D01*
X00900949Y00496711D02*
X00905949D01*
X00903449Y00494211D02*
Y00499211D01*
X00888249Y00534811D02*
X00893249D01*
X00890749Y00532311D02*
Y00537311D01*
X00888249Y00509411D02*
X00893249D01*
X00890749Y00506911D02*
Y00511911D01*
X00888249Y00496711D02*
X00893249D01*
X00890749Y00494211D02*
Y00499211D01*
X00888249Y00484011D02*
X00893249D01*
X00890749Y00481511D02*
Y00486511D01*
X00888249Y00471311D02*
X00893249D01*
X00890749Y00468811D02*
Y00473811D01*
X00888249Y00458611D02*
X00893249D01*
X00890749Y00456111D02*
Y00461111D01*
X00888249Y00395111D02*
X00893249D01*
X00890749Y00392611D02*
Y00397611D01*
X00875549Y00509411D02*
X00880549D01*
X00878049Y00506911D02*
Y00511911D01*
X00875549Y00496711D02*
X00880549D01*
X00878049Y00494211D02*
Y00499211D01*
X00875549Y00471311D02*
X00880549D01*
X00878049Y00468811D02*
Y00473811D01*
X00875549Y00445911D02*
X00880549D01*
X00878049Y00443411D02*
Y00448411D01*
X00875549Y00433211D02*
X00880549D01*
X00878049Y00430711D02*
Y00435711D01*
X00875549Y00420511D02*
X00880549D01*
X00878049Y00418011D02*
Y00423011D01*
X00875549Y00407811D02*
X00880549D01*
X00878049Y00405311D02*
Y00410311D01*
X00875549Y00395111D02*
X00880549D01*
X00878049Y00392611D02*
Y00397611D01*
X00862849Y00534811D02*
X00867849D01*
X00865349Y00532311D02*
Y00537311D01*
X00862849Y00484011D02*
X00867849D01*
X00865349Y00481511D02*
Y00486511D01*
X00862849Y00471311D02*
X00867849D01*
X00865349Y00468811D02*
Y00473811D01*
X00862849Y00458611D02*
X00867849D01*
X00865349Y00456111D02*
Y00461111D01*
X00862849Y00420511D02*
X00867849D01*
X00865349Y00418011D02*
Y00423011D01*
X00862849Y00407811D02*
X00867849D01*
X00865349Y00405311D02*
Y00410311D01*
X00951749Y00407811D02*
X00956749D01*
X00954249Y00405311D02*
Y00410311D01*
X00951749Y00420511D02*
X00956749D01*
X00954249Y00418011D02*
Y00423011D01*
X00951749Y00433211D02*
X00956749D01*
X00954249Y00430711D02*
Y00435711D01*
X00951749Y00445911D02*
X00956749D01*
X00954249Y00443411D02*
Y00448411D01*
X00951749Y00458611D02*
X00956749D01*
X00954249Y00456111D02*
Y00461111D01*
X00951749Y00471311D02*
X00956749D01*
X00954249Y00468811D02*
Y00473811D01*
X00951749Y00484011D02*
X00956749D01*
X00954249Y00481511D02*
Y00486511D01*
X00951749Y00496711D02*
X00956749D01*
X00954249Y00494211D02*
Y00499211D01*
X00951749Y00509411D02*
X00956749D01*
X00954249Y00506911D02*
Y00511911D01*
X00951749Y00522111D02*
X00956749D01*
X00954249Y00519611D02*
Y00524611D01*
X00900949Y00407811D02*
X00905949D01*
X00903449Y00405311D02*
Y00410311D01*
X00900949Y00395111D02*
X00905949D01*
X00903449Y00392611D02*
Y00397611D01*
X00900949Y00420511D02*
X00905949D01*
X00903449Y00418011D02*
Y00423011D01*
X00888249Y00420511D02*
X00893249D01*
X00890749Y00418011D02*
Y00423011D01*
X00888249Y00407811D02*
X00893249D01*
X00890749Y00405311D02*
Y00410311D01*
X00875549Y00484011D02*
X00880549D01*
X00878049Y00481511D02*
Y00486511D01*
X00875549Y00458611D02*
X00880549D01*
X00878049Y00456111D02*
Y00461111D01*
X00862849Y00445911D02*
X00867849D01*
X00865349Y00443411D02*
Y00448411D01*
X00862849Y00433211D02*
X00867849D01*
X00865349Y00430711D02*
Y00435711D01*
X00888249Y00445911D02*
X00893249D01*
X00890749Y00443411D02*
Y00448411D01*
X00888249Y00433211D02*
X00893249D01*
X00890749Y00430711D02*
Y00435711D01*
X00900949Y00458611D02*
X00905949D01*
X00903449Y00456111D02*
Y00461111D01*
X00900949Y00445911D02*
X00905949D01*
X00903449Y00443411D02*
Y00448411D01*
X00888249Y00522111D02*
X00893249D01*
X00890749Y00519611D02*
Y00524611D01*
X00875549Y00534811D02*
X00880549D01*
X00878049Y00532311D02*
Y00537311D01*
X00875549Y00522111D02*
X00880549D01*
X00878049Y00519611D02*
Y00524611D01*
X00900949Y00484011D02*
X00905949D01*
X00903449Y00481511D02*
Y00486511D01*
X00900949Y00471311D02*
X00905949D01*
X00903449Y00468811D02*
Y00473811D01*
X00900949Y00433211D02*
X00905949D01*
X00903449Y00430711D02*
Y00435711D01*
X00333000Y00634250D02*
X00341000D01*
X00337000Y00630250D02*
Y00638250D01*
X00353900Y00608850D02*
X00370900D01*
X00362400Y00600350D02*
Y00617350D01*
X00353900Y00659650D02*
X00370900D01*
X00362400Y00651150D02*
Y00668150D01*
X00303100Y00659650D02*
X00320100D01*
X00311600Y00651150D02*
Y00668150D01*
X00303100Y00608850D02*
X00320100D01*
X00311600Y00600350D02*
Y00617350D01*
X00590250Y00638000D02*
X00599250D01*
X00594750Y00633500D02*
Y00642500D01*
X00562350Y00612600D02*
X00576350D01*
X00569350Y00605600D02*
Y00619600D01*
X00613150Y00612600D02*
X00627150D01*
X00620150Y00605600D02*
Y00619600D01*
X00562350Y00663400D02*
X00576350D01*
X00569350Y00656400D02*
Y00670400D01*
X00613150Y00663400D02*
X00627150D01*
X00620150Y00656400D02*
Y00670400D01*
X00649500Y00447600D02*
X00664500D01*
X00657000Y00440100D02*
Y00455100D01*
X00649500Y00575000D02*
X00664500D01*
X00657000Y00567500D02*
Y00582500D01*
X00330750Y00345000D02*
X00345250D01*
X00338000Y00337750D02*
Y00352250D01*
X00330750Y00583000D02*
X00345250D01*
X00338000Y00575750D02*
Y00590250D01*
X00308750Y00266500D02*
X00314250D01*
X00311500Y00263750D02*
Y00269250D01*
X00321250Y00266500D02*
X00326750D01*
X00324000Y00263750D02*
Y00269250D01*
X00776750Y00345960D02*
X00791250D01*
X00784000Y00338710D02*
Y00353210D01*
X00776750Y00581960D02*
X00791250D01*
X00784000Y00574710D02*
Y00589210D01*
X00711500Y00273960D02*
X00736500D01*
X00724000Y00261460D02*
Y00286460D01*
X01091500Y00273960D02*
X01116500D01*
X01104000Y00261460D02*
Y00286460D01*
X01091500Y00653960D02*
X01116500D01*
X01104000Y00641460D02*
Y00666460D01*
X00711500Y00653960D02*
X00736500D01*
X00724000Y00641460D02*
Y00666460D01*
X00261500Y00654000D02*
X00286500D01*
X00274000Y00641500D02*
Y00666500D01*
X00641500Y00654000D02*
X00666500D01*
X00654000Y00641500D02*
Y00666500D01*
X00641500Y00274000D02*
X00666500D01*
X00654000Y00261500D02*
Y00286500D01*
X00261500Y00274000D02*
X00286500D01*
X00274000Y00261500D02*
Y00286500D01*
X00406991Y00551995D02*
X00408991D01*
X00407991Y00550995D02*
Y00552995D01*
X00398992Y00551995D02*
X00400992D01*
X00399991Y00550995D02*
Y00552995D01*
X00534991Y00503995D02*
X00536991D01*
X00535991Y00502995D02*
Y00504995D01*
X00544250Y00668250D02*
X00546250D01*
X00545250Y00667250D02*
Y00669250D01*
X00882000Y00385000D02*
X00884000D01*
X00883000Y00384000D02*
Y00386000D01*
X00345250Y00354500D02*
X00347250D01*
X00346250Y00353500D02*
Y00355500D01*
X00424250Y00636000D02*
X00426250D01*
X00425250Y00635000D02*
Y00637000D01*
X00424250Y00644750D02*
X00426250D01*
X00425250Y00643750D02*
Y00645750D01*
X00907783Y00578750D02*
X00909783D01*
X00908783Y00577750D02*
Y00579750D01*
X01082994Y00441334D02*
X01084994D01*
X01083994Y00440334D02*
Y00442334D01*
X01082994Y00446584D02*
X01084994D01*
X01083994Y00445584D02*
Y00447584D01*
X00770494Y00471586D02*
X00772494D01*
X00771494Y00470586D02*
Y00472586D01*
X00770494Y00436336D02*
X00772494D01*
X00771494Y00435336D02*
Y00437336D01*
X00770494Y00441586D02*
X00772494D01*
X00771494Y00440586D02*
Y00442586D01*
X00743006Y00391334D02*
X00745006D01*
X00744006Y00390334D02*
Y00392334D01*
X00743006Y00396584D02*
X00745006D01*
X00744006Y00395584D02*
Y00397584D01*
X00743000Y00451370D02*
X00745000D01*
X00744000Y00450370D02*
Y00452370D01*
X00743000Y00456620D02*
X00745000D01*
X00744000Y00455620D02*
Y00457620D01*
X00743000Y00376335D02*
X00745000D01*
X00744000Y00375335D02*
Y00377335D01*
X00743000Y00381585D02*
X00745000D01*
X00744000Y00380585D02*
Y00382585D01*
X00802994Y00391334D02*
X00804994D01*
X00803994Y00390334D02*
Y00392334D01*
X00802994Y00396584D02*
X00804994D01*
X00803994Y00395584D02*
Y00397584D01*
X00770500Y00406333D02*
X00772500D01*
X00771500Y00405332D02*
Y00407332D01*
X00770500Y00411582D02*
X00772500D01*
X00771500Y00410583D02*
Y00412583D01*
X01106000Y00506460D02*
X01108000D01*
X01107000Y00505460D02*
Y00507460D01*
X00978750Y00570710D02*
X00980750D01*
X00979750Y00569710D02*
Y00571710D01*
X01021000Y00570960D02*
X01023000D01*
X01022000Y00569960D02*
Y00571960D01*
X00994000Y00389960D02*
X00996000D01*
X00995000Y00388960D02*
Y00390960D01*
X00979250Y00469460D02*
X00981250D01*
X00980250Y00468460D02*
Y00470460D01*
X00985000Y00457960D02*
X00987000D01*
X00986000Y00456960D02*
Y00458960D01*
X00977250Y00436960D02*
X00979250D01*
X00978250Y00435960D02*
Y00437960D01*
X01001470Y00427473D02*
X01003470D01*
X01002470Y00426473D02*
Y00428473D01*
X01001970Y00447223D02*
X01003970D01*
X01002970Y00446223D02*
Y00448223D01*
X00999859Y00437210D02*
X01001859D01*
X01000859Y00436210D02*
Y00438210D01*
X00770494Y00466336D02*
X00772494D01*
X00771494Y00465336D02*
Y00467336D01*
X00914029Y00368077D02*
X00916029D01*
X00915029Y00367077D02*
Y00369077D01*
X01053250Y00400210D02*
X01055250D01*
X01054250Y00399210D02*
Y00401210D01*
X01047495Y00406459D02*
X01049494D01*
X01048494Y00405459D02*
Y00407459D01*
X01020250Y00376960D02*
X01022250D01*
X01021250Y00375960D02*
Y00377960D01*
X01022750Y00390960D02*
X01024750D01*
X01023750Y00389960D02*
Y00391960D01*
X01007000Y00406460D02*
X01009000D01*
X01008000Y00405460D02*
Y00407460D01*
X01002500Y00399460D02*
X01004500D01*
X01003500Y00398460D02*
Y00400460D01*
X00746006Y00401459D02*
X00748006D01*
X00747006Y00400459D02*
Y00402459D01*
X00746006Y00431461D02*
X00748006D01*
X00747006Y00430461D02*
Y00432461D01*
X00746000Y00461527D02*
X00748000D01*
X00747000Y00460527D02*
Y00462527D01*
X00921000Y00567210D02*
X00923000D01*
X00922000Y00566210D02*
Y00568210D01*
X00920250Y00578960D02*
X00922250D01*
X00921250Y00577960D02*
Y00579960D01*
X00934469Y00634423D02*
X00936469D01*
X00935469Y00633423D02*
Y00635423D01*
X00872347Y00621923D02*
X00874347D01*
X00873347Y00620923D02*
Y00622923D01*
X01002485Y00513996D02*
X01004485D01*
X01003485Y00512996D02*
Y00514996D01*
X01002485Y00531014D02*
X01004485D01*
X01003485Y00530014D02*
Y00532014D01*
X01002049Y00503074D02*
X01004049D01*
X01003049Y00502074D02*
Y00504074D01*
X01002049Y00493422D02*
X01004049D01*
X01003049Y00492422D02*
Y00494422D01*
X01002049Y00479960D02*
X01004049D01*
X01003049Y00478960D02*
Y00480960D01*
X00952000Y00266960D02*
X00954000D01*
X00953000Y00265960D02*
Y00267960D01*
X00959000Y00293960D02*
X00961000D01*
X00960000Y00292960D02*
Y00294960D01*
X00959000Y00288710D02*
X00961000D01*
X00960000Y00287710D02*
Y00289710D01*
X00959000Y00283460D02*
X00961000D01*
X00960000Y00282460D02*
Y00284460D01*
X00959000Y00278210D02*
X00961000D01*
X00960000Y00277210D02*
Y00279210D01*
X00953000Y00278210D02*
X00955000D01*
X00954000Y00277210D02*
Y00279210D01*
X00953000Y00283460D02*
X00955000D01*
X00954000Y00282460D02*
Y00284460D01*
X00953000Y00288710D02*
X00955000D01*
X00954000Y00287710D02*
Y00289710D01*
X00953000Y00293960D02*
X00955000D01*
X00954000Y00292960D02*
Y00294960D01*
X00918095Y00294543D02*
X00920095D01*
X00919095Y00293543D02*
Y00295543D01*
X00894321Y00578753D02*
X00896321D01*
X00895321Y00577753D02*
Y00579753D01*
X00959599Y00383935D02*
X00961599D01*
X00960599Y00382935D02*
Y00384935D01*
X00980935Y00521349D02*
X00982935D01*
X00981935Y00520349D02*
Y00522349D01*
X00778506Y00461426D02*
X00780506D01*
X00779506Y00460426D02*
Y00462426D01*
X00778506Y00476424D02*
X00780506D01*
X00779506Y00475424D02*
Y00477424D01*
X00778506Y00446424D02*
X00780506D01*
X00779506Y00445424D02*
Y00447424D01*
X00778506Y00486422D02*
X00780506D01*
X00779506Y00485422D02*
Y00487422D01*
X00778506Y00491461D02*
X00780506D01*
X00779506Y00490461D02*
Y00492461D01*
X00778506Y00431424D02*
X00780506D01*
X00779506Y00430424D02*
Y00432424D01*
X00778506Y00506458D02*
X00780506D01*
X00779506Y00505458D02*
Y00507458D01*
X00778506Y00416424D02*
X00780506D01*
X00779506Y00415424D02*
Y00417424D01*
X00778506Y00521461D02*
X00780506D01*
X00779506Y00520461D02*
Y00522461D01*
X00778506Y00401544D02*
X00780506D01*
X00779506Y00400544D02*
Y00402544D01*
X00740758Y00532359D02*
X00742758D01*
X00741758Y00531359D02*
Y00533359D01*
X00773270Y00533737D02*
X00775270D01*
X00774270Y00532738D02*
Y00534738D01*
X00778506Y00531459D02*
X00780506D01*
X00779506Y00530459D02*
Y00532459D01*
X00773270Y00542374D02*
X00775270D01*
X00774270Y00541373D02*
Y00543373D01*
X00778506Y00386424D02*
X00780506D01*
X00779506Y00385424D02*
Y00387424D01*
X00745994Y00541496D02*
X00747994D01*
X00746994Y00540496D02*
Y00542496D01*
X00778506Y00546459D02*
X00780506D01*
X00779506Y00545459D02*
Y00547459D01*
X00778506Y00381424D02*
X00780506D01*
X00779506Y00380424D02*
Y00382424D01*
X00745994Y00546496D02*
X00747994D01*
X00746994Y00545496D02*
Y00547496D01*
X00773270Y00559646D02*
X00775270D01*
X00774270Y00558646D02*
Y00560645D01*
X00778506Y00556459D02*
X00780506D01*
X00779506Y00555459D02*
Y00557459D01*
X00803000Y00366300D02*
X00805000D01*
X00804000Y00365300D02*
Y00367300D01*
X00803000Y00371550D02*
X00805000D01*
X00804000Y00370550D02*
Y00372550D01*
X00802994Y00501584D02*
X00804994D01*
X00803994Y00500584D02*
Y00502584D01*
X00802994Y00496334D02*
X00804994D01*
X00803994Y00495334D02*
Y00497334D01*
X00802994Y00516584D02*
X00804994D01*
X00803994Y00515584D02*
Y00517584D01*
X00802994Y00511334D02*
X00804994D01*
X00803994Y00510334D02*
Y00512334D01*
X00743006Y00516584D02*
X00745006D01*
X00744006Y00515584D02*
Y00517584D01*
X00743006Y00501584D02*
X00745006D01*
X00744006Y00500584D02*
Y00502584D01*
X00743006Y00496334D02*
X00745006D01*
X00744006Y00495334D02*
Y00497334D01*
X00743000Y00486620D02*
X00745000D01*
X00744000Y00485620D02*
Y00487620D01*
X00743000Y00481370D02*
X00745000D01*
X00744000Y00480370D02*
Y00482370D01*
X00743006Y00426584D02*
X00745006D01*
X00744006Y00425584D02*
Y00427584D01*
X00743006Y00421334D02*
X00745006D01*
X00744006Y00420334D02*
Y00422334D01*
X01058506Y00466427D02*
X01060506D01*
X01059506Y00465426D02*
Y00467426D01*
X01025994Y00466493D02*
X01027993D01*
X01026994Y00465494D02*
Y00467494D01*
X01025994Y00451496D02*
X01027993D01*
X01026994Y00450496D02*
Y00452496D01*
X01058506Y00476424D02*
X01060506D01*
X01059506Y00475424D02*
Y00477424D01*
X01058506Y00451426D02*
X01060506D01*
X01059506Y00450426D02*
Y00452426D01*
X01025994Y00476493D02*
X01027993D01*
X01026994Y00475494D02*
Y00477494D01*
X01025994Y00436459D02*
X01027993D01*
X01026994Y00435459D02*
Y00437459D01*
X01058506Y00491461D02*
X01060506D01*
X01059506Y00490461D02*
Y00492461D01*
X01058630Y00436399D02*
X01060630D01*
X01059630Y00435399D02*
Y00437399D01*
X01025870Y00491521D02*
X01027870D01*
X01026870Y00490521D02*
Y00492521D01*
X01025994Y00421462D02*
X01027993D01*
X01026994Y00420462D02*
Y00422462D01*
X01058506Y00506458D02*
X01060506D01*
X01059506Y00505458D02*
Y00507458D01*
X01058506Y00421424D02*
X01060506D01*
X01059506Y00420424D02*
Y00422424D01*
X01025994Y00506496D02*
X01027993D01*
X01026994Y00505496D02*
Y00507496D01*
X01058506Y00521461D02*
X01060506D01*
X01059506Y00520461D02*
Y00522461D01*
X01058506Y00406419D02*
X01060506D01*
X01059506Y00405419D02*
Y00407419D01*
X01025994Y00521501D02*
X01027993D01*
X01026994Y00520501D02*
Y00522501D01*
X01058506Y00526461D02*
X01060506D01*
X01059506Y00525461D02*
Y00527461D01*
X01025994Y00396461D02*
X01027993D01*
X01026994Y00395461D02*
Y00397461D01*
X01058506Y00536459D02*
X01060506D01*
X01059506Y00535459D02*
Y00537459D01*
X01058506Y00391424D02*
X01060506D01*
X01059506Y00390424D02*
Y00392424D01*
X01025994Y00536496D02*
X01027993D01*
X01026994Y00535496D02*
Y00537496D01*
X01053270Y00378289D02*
X01055270D01*
X01054270Y00377289D02*
Y00379289D01*
X01025994Y00381461D02*
X01027993D01*
X01026994Y00380461D02*
Y00382461D01*
X01058506Y00381424D02*
X01060506D01*
X01059506Y00380424D02*
Y00382424D01*
X01058506Y00551459D02*
X01060506D01*
X01059506Y00550459D02*
Y00552459D01*
X01025994Y00551496D02*
X01027993D01*
X01026994Y00550496D02*
Y00552496D01*
X01025994Y00371461D02*
X01027993D01*
X01026994Y00370461D02*
Y00372461D01*
X01058506Y00371426D02*
X01060506D01*
X01059506Y00370426D02*
Y00372426D01*
X01080250Y00376460D02*
X01082250D01*
X01081250Y00375460D02*
Y00377460D01*
X01082994Y00416584D02*
X01084994D01*
X01083994Y00415584D02*
Y00417584D01*
X01082994Y00411334D02*
X01084994D01*
X01083994Y00410334D02*
Y00412334D01*
X01082994Y00431584D02*
X01084994D01*
X01083994Y00430584D02*
Y00432584D01*
X01082994Y00426334D02*
X01084994D01*
X01083994Y00425334D02*
Y00427334D01*
X01023000Y00431585D02*
X01025000D01*
X01024000Y00430585D02*
Y00432585D01*
X01023000Y00426335D02*
X01025000D01*
X01024000Y00425335D02*
Y00427335D01*
X01023006Y00416584D02*
X01025006D01*
X01024006Y00415584D02*
Y00417584D01*
X01023006Y00411334D02*
X01025006D01*
X01024006Y00410334D02*
Y00412334D01*
X00941000Y00366710D02*
X00943000D01*
X00942000Y00365710D02*
Y00367710D01*
X00921753Y00367093D02*
X00923753D01*
X00922753Y00366093D02*
Y00368093D01*
X00875886Y00341417D02*
X00877886D01*
X00876886Y00340417D02*
Y00342417D01*
X01002250Y00312960D02*
X01004250D01*
X01003250Y00311960D02*
Y00313960D01*
X01017250Y00301210D02*
X01019250D01*
X01018250Y00300210D02*
Y00302210D01*
X01052750Y00301210D02*
X01054750D01*
X01053750Y00300210D02*
Y00302210D01*
X01036250Y00301210D02*
X01038250D01*
X01037250Y00300210D02*
Y00302210D01*
X00825000Y00307710D02*
X00827000D01*
X00826000Y00306710D02*
Y00308710D01*
X00825000Y00300960D02*
X00827000D01*
X00826000Y00299960D02*
Y00301960D01*
X00825000Y00294210D02*
X00827000D01*
X00826000Y00293210D02*
Y00295210D01*
X00825000Y00287460D02*
X00827000D01*
X00826000Y00286460D02*
Y00288460D01*
X00825000Y00280710D02*
X00827000D01*
X00826000Y00279710D02*
Y00281710D01*
X00868320Y00646633D02*
X00870320D01*
X00869320Y00645633D02*
Y00647633D01*
X00872162Y00662187D02*
X00874162D01*
X00873162Y00661187D02*
Y00663186D01*
X00891719Y00636673D02*
X00893719D01*
X00892719Y00635673D02*
Y00637673D01*
X00896594Y00636673D02*
X00898594D01*
X00897594Y00635673D02*
Y00637673D01*
X00901469Y00636673D02*
X00903469D01*
X00902469Y00635673D02*
Y00637673D01*
X00891469Y00631923D02*
X00893469D01*
X00892469Y00630923D02*
Y00632923D01*
X00896594Y00631923D02*
X00898594D01*
X00897594Y00630923D02*
Y00632923D01*
X00901719Y00631923D02*
X00903719D01*
X00902719Y00630923D02*
Y00632923D01*
X00959500Y00560460D02*
X00961500D01*
X00960500Y00559460D02*
Y00561460D01*
X00964719Y00575423D02*
X00966719D01*
X00965719Y00574423D02*
Y00576423D01*
X00853719Y00593673D02*
X00855719D01*
X00854719Y00592673D02*
Y00594673D01*
X00859219Y00593673D02*
X00861219D01*
X00860219Y00592673D02*
Y00594673D01*
X00864719Y00593673D02*
X00866719D01*
X00865719Y00592673D02*
Y00594673D01*
X00870219Y00593673D02*
X00872219D01*
X00871219Y00592673D02*
Y00594673D01*
X00875719Y00593673D02*
X00877719D01*
X00876719Y00592673D02*
Y00594673D01*
X00887250Y00560460D02*
X00889250D01*
X00888250Y00559460D02*
Y00561460D01*
X00902219Y00593423D02*
X00904219D01*
X00903219Y00592423D02*
Y00594423D01*
X00845969Y00636423D02*
X00847969D01*
X00846969Y00635423D02*
Y00637423D01*
X00982000Y00658210D02*
X00984000D01*
X00983000Y00657210D02*
Y00659210D01*
X00977125Y00658210D02*
X00979125D01*
X00978125Y00657210D02*
Y00659210D01*
X00972250Y00658210D02*
X00974250D01*
X00973250Y00657210D02*
Y00659210D01*
X00982750Y00609710D02*
X00984750D01*
X00983750Y00608710D02*
Y00610710D01*
X00977875Y00609710D02*
X00979875D01*
X00978875Y00608710D02*
Y00610710D01*
X00973000Y00609710D02*
X00975000D01*
X00974000Y00608710D02*
Y00610710D01*
X01052000Y00606960D02*
X01054000D01*
X01053000Y00605960D02*
Y00607960D01*
X01058000Y00606960D02*
X01060000D01*
X01059000Y00605960D02*
Y00607960D01*
X01064000Y00606960D02*
X01066000D01*
X01065000Y00605960D02*
Y00607960D01*
X01070000Y00606960D02*
X01072000D01*
X01071000Y00605960D02*
Y00607960D01*
X01015000Y00570960D02*
X01017000D01*
X01016000Y00569960D02*
Y00571960D01*
X01009000Y00570960D02*
X01011000D01*
X01010000Y00569960D02*
Y00571960D01*
X01003000Y00570960D02*
X01005000D01*
X01004000Y00569960D02*
Y00571960D01*
X00949309Y00347958D02*
X00951309D01*
X00950309Y00346958D02*
Y00348958D01*
X00954464Y00347957D02*
X00956464D01*
X00955464Y00346957D02*
Y00348957D01*
X00944155Y00347959D02*
X00946155D01*
X00945155Y00346959D02*
Y00348959D01*
X00933845Y00347961D02*
X00935845D01*
X00934845Y00346961D02*
Y00348961D01*
X00939000Y00347960D02*
X00941000D01*
X00940000Y00346960D02*
Y00348960D01*
X00988000Y00317960D02*
X00990000D01*
X00989000Y00316960D02*
Y00318960D01*
X00967000Y00306460D02*
X00969000D01*
X00968000Y00305460D02*
Y00307460D01*
X00977887Y00503315D02*
X00979887D01*
X00978887Y00502315D02*
Y00504315D01*
X00931414Y00567210D02*
X00933414D01*
X00932414Y00566210D02*
Y00568210D01*
X00935300Y00619342D02*
X00937300D01*
X00936300Y00618341D02*
Y00620341D01*
X00743006Y00511334D02*
X00745006D01*
X00744006Y00510334D02*
Y00512334D01*
X00767500Y00521542D02*
X00769500D01*
X00768500Y00520542D02*
Y00522542D01*
X00767500Y00506532D02*
X00769500D01*
X00768500Y00505532D02*
Y00507532D01*
X00767370Y00491521D02*
X00769370D01*
X00768370Y00490521D02*
Y00492521D01*
X00767500Y00476527D02*
X00769500D01*
X00768500Y00475527D02*
Y00477527D01*
X00767495Y00371461D02*
X00769494D01*
X00768494Y00370461D02*
Y00372461D01*
X00767495Y00386461D02*
X00769494D01*
X00768494Y00385461D02*
Y00387461D01*
X00767495Y00416459D02*
X00769494D01*
X00768494Y00415459D02*
Y00417459D01*
X00767495Y00446368D02*
X00769494D01*
X00768494Y00445368D02*
Y00447368D01*
X00973000Y00386960D02*
X00975000D01*
X00974000Y00385960D02*
Y00387960D01*
X00802994Y00481429D02*
X00804994D01*
X00803994Y00480429D02*
Y00482429D01*
X00478991Y00407995D02*
X00480991D01*
X00479991Y00406995D02*
Y00408995D01*
X00438991Y00407995D02*
X00440991D01*
X00439991Y00406995D02*
Y00408995D01*
X00283000Y00512000D02*
X00285000D01*
X00284000Y00511000D02*
Y00513000D01*
X00566500Y00468000D02*
X00568500D01*
X00567500Y00467000D02*
Y00469000D01*
X00559000Y00524250D02*
X00561000D01*
X00560000Y00523250D02*
Y00525250D01*
X00559849Y00516000D02*
X00561849D01*
X00560849Y00515000D02*
Y00517000D01*
X00554599Y00516000D02*
X00556599D01*
X00555599Y00515000D02*
Y00517000D01*
X00271500Y00434250D02*
X00273500D01*
X00272500Y00433250D02*
Y00435250D01*
X00265000Y00434250D02*
X00267000D01*
X00266000Y00433250D02*
Y00435250D01*
X00283000Y00434750D02*
X00285000D01*
X00284000Y00433750D02*
Y00435750D01*
X00565000Y00519750D02*
X00567000D01*
X00566000Y00518750D02*
Y00520750D01*
X00564000Y00528750D02*
X00566000D01*
X00565000Y00527750D02*
Y00529750D01*
X00561750Y00455750D02*
X00563750D01*
X00562750Y00454750D02*
Y00456750D01*
X00570750Y00461250D02*
X00572750D01*
X00571750Y00460250D02*
Y00462250D01*
X00616000Y00468500D02*
X00618000D01*
X00617000Y00467500D02*
Y00469500D01*
X00567250Y00590250D02*
X00569250D01*
X00568250Y00589250D02*
Y00591250D01*
X00559500Y00590750D02*
X00561500D01*
X00560500Y00589750D02*
Y00591750D01*
X00563750Y00594250D02*
X00565750D01*
X00564750Y00593250D02*
Y00595250D01*
X00526125Y00598875D02*
X00528125D01*
X00527125Y00597875D02*
Y00599875D01*
X00501000Y00617500D02*
X00503000D01*
X00502000Y00616500D02*
Y00618500D01*
X00261750Y00527500D02*
X00263750D01*
X00262750Y00526500D02*
Y00528500D01*
X00261500Y00535750D02*
X00263500D01*
X00262500Y00534750D02*
Y00536750D01*
X00279250Y00392250D02*
X00281250D01*
X00280250Y00391250D02*
Y00393250D01*
X00289750Y00309500D02*
X00291750D01*
X00290750Y00308500D02*
Y00310500D01*
X00320250Y00325000D02*
X00322250D01*
X00321250Y00324000D02*
Y00326000D01*
X00377000Y00263000D02*
X00379000D01*
X00378000Y00262000D02*
Y00264000D01*
X00589500Y00315750D02*
X00591500D01*
X00590500Y00314750D02*
Y00316750D01*
X00588750Y00309000D02*
X00590750D01*
X00589750Y00308000D02*
Y00310000D01*
X00270250Y00589750D02*
X00272250D01*
X00271250Y00588750D02*
Y00590750D01*
X00485250Y00649000D02*
X00487250D01*
X00486250Y00648000D02*
Y00650000D01*
X00478250Y00618000D02*
X00480250D01*
X00479250Y00617000D02*
Y00619000D01*
X00628500Y00586500D02*
X00630500D01*
X00629500Y00585500D02*
Y00587500D01*
X00636000Y00560000D02*
X00638000D01*
X00637000Y00559000D02*
Y00561000D01*
X00606750Y00573000D02*
X00608750D01*
X00607750Y00572000D02*
Y00574000D01*
X00552265Y00562765D02*
X00554265D01*
X00553265Y00561765D02*
Y00563765D01*
X00518991Y00511995D02*
X00520991D01*
X00519991Y00510995D02*
Y00512995D01*
X00570000Y00491750D02*
X00572000D01*
X00571000Y00490750D02*
Y00492750D01*
X00572851Y00511500D02*
X00574851D01*
X00573851Y00510500D02*
Y00512500D01*
X00527000Y00504004D02*
X00529000D01*
X00528000Y00503004D02*
Y00505004D01*
X00478991Y00487995D02*
X00480991D01*
X00479991Y00486995D02*
Y00488995D01*
X00494991Y00495995D02*
X00496991D01*
X00495991Y00494995D02*
Y00496995D01*
X00486992Y00495995D02*
X00488992D01*
X00487991Y00494995D02*
Y00496995D01*
X00554000Y00442000D02*
X00556000D01*
X00555000Y00441000D02*
Y00443000D01*
X00262250Y00518000D02*
X00264250D01*
X00263250Y00517000D02*
Y00519000D01*
X00262250Y00512000D02*
X00264250D01*
X00263250Y00511000D02*
Y00513000D01*
X00271750Y00603250D02*
X00273750D01*
X00272750Y00602250D02*
Y00604250D01*
X00490500Y00638500D02*
X00492500D01*
X00491500Y00637500D02*
Y00639500D01*
X00357250Y00592000D02*
X00359250D01*
X00358250Y00591000D02*
Y00593000D01*
X00480500Y00634000D02*
X00482500D01*
X00481500Y00633000D02*
Y00635000D01*
X00364750Y00417000D02*
X00366750D01*
X00365750Y00416000D02*
Y00418000D01*
X00374000Y00412000D02*
X00376000D01*
X00375000Y00411000D02*
Y00413000D01*
X00262990Y00506490D02*
X00264990D01*
X00263990Y00505490D02*
Y00507490D01*
X00262990Y00500000D02*
X00264990D01*
X00263990Y00499000D02*
Y00501000D01*
X00370577Y00504891D02*
X00372577D01*
X00371577Y00503891D02*
Y00505891D01*
X00335750Y00465250D02*
X00337750D01*
X00336750Y00464250D02*
Y00466250D01*
X00422991Y00439995D02*
X00424991D01*
X00423991Y00438995D02*
Y00440995D01*
X00327000Y00399000D02*
X00329000D01*
X00328000Y00398000D02*
Y00400000D01*
X00296500Y00339500D02*
X00298500D01*
X00297500Y00338500D02*
Y00340500D01*
X00314000Y00359000D02*
X00316000D01*
X00315000Y00358000D02*
Y00360000D01*
X00294250Y00279250D02*
X00296250D01*
X00295250Y00278250D02*
Y00280250D01*
X00289000Y00351750D02*
X00291000D01*
X00290000Y00350750D02*
Y00352750D01*
X00338750Y00277000D02*
X00340750D01*
X00339750Y00276000D02*
Y00278000D01*
X00334750Y00324750D02*
X00336750D01*
X00335750Y00323750D02*
Y00325750D01*
X00411000Y00274000D02*
X00413000D01*
X00412000Y00273000D02*
Y00275000D01*
X00325250Y00331500D02*
X00327250D01*
X00326250Y00330500D02*
Y00332500D01*
X00290500Y00315750D02*
X00292500D01*
X00291500Y00314750D02*
Y00316750D01*
X00294500Y00286750D02*
X00296500D01*
X00295500Y00285750D02*
Y00287750D01*
X00289250Y00290500D02*
X00291250D01*
X00290250Y00289500D02*
Y00291500D01*
X00362750Y00276250D02*
X00364750D01*
X00363750Y00275250D02*
Y00277250D01*
X00356000Y00288000D02*
X00358000D01*
X00357000Y00287000D02*
Y00289000D01*
X00291000Y00261500D02*
X00293000D01*
X00292000Y00260500D02*
Y00262500D01*
X00302500Y00333000D02*
X00304500D01*
X00303500Y00332000D02*
Y00334000D01*
X00310500Y00437500D02*
X00312500D01*
X00311500Y00436500D02*
Y00438500D01*
X00330000Y00381000D02*
X00332000D01*
X00331000Y00380000D02*
Y00382000D01*
X00316000Y00400250D02*
X00318000D01*
X00317000Y00399250D02*
Y00401250D01*
X00321500Y00425000D02*
X00323500D01*
X00322500Y00424000D02*
Y00426000D01*
X00289000Y00322500D02*
X00291000D01*
X00290000Y00321500D02*
Y00323500D01*
X00289750Y00364750D02*
X00291750D01*
X00290750Y00363750D02*
Y00365750D01*
X00550000Y00613750D02*
X00552000D01*
X00551000Y00612750D02*
Y00614750D01*
X00537875Y00594022D02*
X00539875D01*
X00538875Y00593022D02*
Y00595022D01*
X00538000Y00598750D02*
X00540000D01*
X00539000Y00597750D02*
Y00599750D01*
X00532500Y00598750D02*
X00534500D01*
X00533500Y00597750D02*
Y00599750D01*
X00532500Y00594000D02*
X00534500D01*
X00533500Y00593000D02*
Y00595000D01*
X00507436Y00608000D02*
X00509436D01*
X00508437Y00607000D02*
Y00609000D01*
X00507498Y00613022D02*
X00509498D01*
X00508498Y00612022D02*
Y00614022D01*
X00513312Y00613022D02*
X00515312D01*
X00514312Y00612022D02*
Y00614022D01*
X00513250Y00608000D02*
X00515250D01*
X00514250Y00607000D02*
Y00609000D01*
X00663500Y00613250D02*
X00665500D01*
X00664500Y00612250D02*
Y00614250D01*
X00275500Y00465500D02*
X00277500D01*
X00276500Y00464500D02*
Y00466500D01*
X00365349Y00482000D02*
X00367349D01*
X00366349Y00481000D02*
Y00483000D01*
X00370599Y00482000D02*
X00372599D01*
X00371599Y00481000D02*
Y00483000D01*
X00571750Y00486500D02*
X00573750D01*
X00572750Y00485500D02*
Y00487500D01*
X00269001Y00473511D02*
X00271001D01*
X00270001Y00472511D02*
Y00474511D01*
X00387257Y00643519D02*
X00389257D01*
X00388257Y00642519D02*
Y00644519D01*
X00616750Y00416000D02*
X00618750D01*
X00617750Y00415000D02*
Y00417000D01*
X00616500Y00427250D02*
X00618500D01*
X00617500Y00426250D02*
Y00428250D01*
X00615250Y00411500D02*
X00617250D01*
X00616250Y00410500D02*
Y00412500D01*
X00550000Y00642750D02*
X00552000D01*
X00551000Y00641750D02*
Y00643750D01*
X00441833Y00336750D02*
X00443833D01*
X00442833Y00335750D02*
Y00337750D01*
X00444500Y00332750D02*
X00446500D01*
X00445500Y00331750D02*
Y00333750D01*
X00422000Y00325500D02*
X00424000D01*
X00423000Y00324500D02*
Y00326500D01*
X00437083Y00337000D02*
X00439083D01*
X00438083Y00336000D02*
Y00338000D01*
X00432500Y00337000D02*
X00434500D01*
X00433500Y00336000D02*
Y00338000D01*
X00427917Y00337000D02*
X00429917D01*
X00428917Y00336000D02*
Y00338000D01*
X00423333Y00337000D02*
X00425333D01*
X00424333Y00336000D02*
Y00338000D01*
X00419500Y00387000D02*
X00421500D01*
X00420500Y00386000D02*
Y00388000D01*
X00422991Y00511995D02*
X00424991D01*
X00423992Y00510995D02*
Y00512995D01*
X00471500Y00372250D02*
X00473500D01*
X00472500Y00371250D02*
Y00373250D01*
X00473500Y00377500D02*
X00475500D01*
X00474500Y00376500D02*
Y00378500D01*
X00452250Y00378250D02*
X00454250D01*
X00453250Y00377250D02*
Y00379250D01*
X00445750Y00378000D02*
X00447750D01*
X00446750Y00377000D02*
Y00379000D01*
X00468750Y00377500D02*
X00470750D01*
X00469750Y00376500D02*
Y00378500D01*
X00398500Y00371250D02*
X00400500D01*
X00399500Y00370250D02*
Y00372250D01*
X00459250Y00377500D02*
X00461250D01*
X00460250Y00376500D02*
Y00378500D01*
X00464000Y00377500D02*
X00466000D01*
X00465000Y00376500D02*
Y00378500D01*
X00471500Y00367000D02*
X00473500D01*
X00472500Y00366000D02*
Y00368000D01*
X00326750Y00553000D02*
X00328750D01*
X00327750Y00552000D02*
Y00554000D01*
X00326750Y00559300D02*
X00328750D01*
X00327750Y00558300D02*
Y00560300D01*
X00326750Y00565600D02*
X00328750D01*
X00327750Y00564600D02*
Y00566600D01*
X00326750Y00571900D02*
X00328750D01*
X00327750Y00570900D02*
Y00572900D01*
X00321450Y00591250D02*
X00323450D01*
X00322450Y00590250D02*
Y00592250D01*
X00315800Y00591250D02*
X00317800D01*
X00316800Y00590250D02*
Y00592250D01*
X00310150Y00591250D02*
X00312150D01*
X00311150Y00590250D02*
Y00592250D01*
X00304500Y00591250D02*
X00306500D01*
X00305500Y00590250D02*
Y00592250D01*
X00298850Y00591250D02*
X00300850D01*
X00299850Y00590250D02*
Y00592250D01*
X00293200Y00591250D02*
X00295200D01*
X00294200Y00590250D02*
Y00592250D01*
X00288500Y00583750D02*
X00290500D01*
X00289500Y00582750D02*
Y00584750D01*
X00288500Y00576688D02*
X00290500D01*
X00289500Y00575687D02*
Y00577687D01*
X00288500Y00569625D02*
X00290500D01*
X00289500Y00568625D02*
Y00570625D01*
X00288500Y00562562D02*
X00290500D01*
X00289500Y00561562D02*
Y00563563D01*
X00288500Y00555500D02*
X00290500D01*
X00289500Y00554500D02*
Y00556500D01*
X00336500Y00568250D02*
X00338500D01*
X00337500Y00567250D02*
Y00569250D01*
X00568913Y00299040D02*
X00570913D01*
X00569913Y00298040D02*
Y00300040D01*
X00568763Y00305520D02*
X00570763D01*
X00569763Y00304520D02*
Y00306520D01*
X00399000Y00359000D02*
X00401000D01*
X00400000Y00358000D02*
Y00360000D01*
X00399000Y00364250D02*
X00401000D01*
X00400000Y00363250D02*
Y00365250D01*
X00417250Y00312250D02*
X00419250D01*
X00418250Y00311250D02*
Y00313250D01*
X00404750Y00312250D02*
X00406750D01*
X00405750Y00311250D02*
Y00313250D01*
X00391900Y00337750D02*
X00393900D01*
X00392900Y00336750D02*
Y00338750D01*
X00379000Y00330000D02*
X00381000D01*
X00380000Y00329000D02*
Y00331000D01*
X00373500Y00330000D02*
X00375500D01*
X00374500Y00329000D02*
Y00331000D01*
X00564750Y00398000D02*
X00566750D01*
X00565750Y00397000D02*
Y00399000D01*
X00509184Y00573434D02*
X00511184D01*
X00510184Y00572434D02*
Y00574434D01*
X00498710Y00630875D02*
X00500710D01*
X00499710Y00629875D02*
Y00631875D01*
X00498710Y00625625D02*
X00500710D01*
X00499710Y00624625D02*
Y00626625D01*
X00463000Y00645000D02*
X00465000D01*
X00464000Y00644000D02*
Y00646000D01*
X00468250Y00645000D02*
X00470250D01*
X00469250Y00644000D02*
Y00646000D01*
X00518991Y00423995D02*
X00520991D01*
X00519991Y00422995D02*
Y00424995D01*
X00518991Y00431995D02*
X00520991D01*
X00519991Y00430995D02*
Y00432995D01*
X00502991Y00399995D02*
X00504991D01*
X00503991Y00398995D02*
Y00400995D01*
X00526991Y00399995D02*
X00528991D01*
X00527991Y00398995D02*
Y00400995D01*
X00534991Y00399995D02*
X00536991D01*
X00535991Y00398995D02*
Y00400995D01*
X00373520Y00466375D02*
X00375520D01*
X00374520Y00465375D02*
Y00467375D01*
X00373520Y00471625D02*
X00375520D01*
X00374520Y00470625D02*
Y00472625D01*
X00432750Y00609250D02*
X00434750D01*
X00433750Y00608250D02*
Y00610250D01*
X00409500Y00613000D02*
X00411500D01*
X00410500Y00612000D02*
Y00614000D01*
X00402000Y00612875D02*
X00404000D01*
X00403000Y00611875D02*
Y00613875D01*
X00567250Y00482250D02*
X00569250D01*
X00568250Y00481250D02*
Y00483250D01*
X00356505Y00501512D02*
X00358505D01*
X00357505Y00500512D02*
Y00502512D01*
X00536000Y00573500D02*
X00538000D01*
X00537000Y00572500D02*
Y00574500D01*
X00552648Y00531995D02*
X00554648D01*
X00553648Y00530995D02*
Y00532995D01*
X00568000Y00570000D02*
X00570000D01*
X00569000Y00569000D02*
Y00571000D01*
X00572500Y00541500D02*
X00574500D01*
X00573500Y00540500D02*
Y00542500D01*
X00616000Y00480000D02*
X00618000D01*
X00617000Y00479000D02*
Y00481000D01*
X00617351Y00531500D02*
X00619351D01*
X00618351Y00530500D02*
Y00532500D01*
X00616768Y00547514D02*
X00618768D01*
X00617768Y00546514D02*
Y00548514D01*
X00650000Y00541250D02*
X00652000D01*
X00651000Y00540250D02*
Y00542250D01*
X00617351Y00501500D02*
X00619351D01*
X00618351Y00500500D02*
Y00502500D01*
X00616000Y00493000D02*
X00618000D01*
X00617000Y00492000D02*
Y00494000D01*
X00617351Y00486500D02*
X00619351D01*
X00618351Y00485500D02*
Y00487500D01*
X00617351Y00511500D02*
X00619351D01*
X00618351Y00510500D02*
Y00512500D01*
X00564000Y00439750D02*
X00566000D01*
X00565000Y00438750D02*
Y00440750D01*
X00594000Y00427000D02*
X00596000D01*
X00595000Y00426000D02*
Y00428000D01*
X00647250Y00426500D02*
X00649250D01*
X00648250Y00425500D02*
Y00427500D01*
X00571250Y00449750D02*
X00573250D01*
X00572250Y00448750D02*
Y00450750D01*
X00502991Y00455995D02*
X00504991D01*
X00503991Y00454995D02*
Y00456995D01*
X00634500Y00456500D02*
X00636500D01*
X00635500Y00455500D02*
Y00457500D01*
X00320000Y00442750D02*
X00322000D01*
X00321000Y00441750D02*
Y00443750D01*
X00470991Y00463995D02*
X00472991D01*
X00471991Y00462995D02*
Y00464995D01*
X00502991Y00431995D02*
X00504991D01*
X00503991Y00430995D02*
Y00432995D01*
X00494991Y00439995D02*
X00496991D01*
X00495991Y00438995D02*
Y00440995D01*
X00502991Y00439995D02*
X00504991D01*
X00503991Y00438995D02*
Y00440995D01*
X00454963Y00391984D02*
X00456964D01*
X00455964Y00390984D02*
Y00392984D01*
X00382991Y00423995D02*
X00384991D01*
X00383991Y00422995D02*
Y00424995D01*
X00354905Y00479243D02*
X00356905D01*
X00355905Y00478243D02*
Y00480243D01*
X00657000Y00321000D02*
X00659000D01*
X00658000Y00320000D02*
Y00322000D01*
X00643000Y00320000D02*
X00645000D01*
X00644000Y00319000D02*
Y00321000D01*
X00638000Y00325000D02*
X00640000D01*
X00639000Y00324000D02*
Y00326000D01*
X00591000Y00327000D02*
X00593000D01*
X00592000Y00326000D02*
Y00328000D01*
X00629000Y00333000D02*
X00631000D01*
X00630000Y00332000D02*
Y00334000D01*
X00271356Y00617215D02*
X00273356D01*
X00272356Y00616214D02*
Y00618214D01*
X00279055Y00618212D02*
X00281055D01*
X00280055Y00617212D02*
Y00619212D01*
X00502991Y00447995D02*
X00504991D01*
X00503991Y00446995D02*
Y00448995D01*
X00665500Y00463750D02*
X00667500D01*
X00666500Y00462750D02*
Y00464750D01*
X00356000Y00553000D02*
X00358000D01*
X00357000Y00552000D02*
Y00554000D01*
X00405000Y00387000D02*
X00407000D01*
X00406000Y00386000D02*
Y00388000D01*
X00411000Y00388000D02*
X00413000D01*
X00412000Y00387000D02*
Y00389000D01*
X00486991Y00463995D02*
X00488991D01*
X00487991Y00462995D02*
Y00464995D01*
X00472000Y00635000D02*
X00474000D01*
X00473000Y00634000D02*
Y00636000D01*
X00510992Y00559995D02*
X00512991D01*
X00511992Y00558995D02*
Y00560995D01*
X00510992Y00567995D02*
X00512991D01*
X00511992Y00566995D02*
Y00568995D01*
X00534991Y00511995D02*
X00536992D01*
X00535992Y00510995D02*
Y00512995D01*
X00361250Y00526250D02*
X00363250D01*
X00362250Y00525250D02*
Y00527250D01*
X00323500Y00491500D02*
X00325500D01*
X00324500Y00490500D02*
Y00492500D01*
X00317000Y00492000D02*
X00319000D01*
X00318000Y00491000D02*
Y00493000D01*
X00382991Y00519995D02*
X00384991D01*
X00383991Y00518995D02*
Y00520995D01*
X00390991Y00503995D02*
X00392991D01*
X00391991Y00502995D02*
Y00504995D01*
X00667727Y00488364D02*
X00669727D01*
X00668727Y00487364D02*
Y00489364D01*
X00382991Y00503995D02*
X00384991D01*
X00383991Y00502995D02*
Y00504995D01*
X00648000Y00482000D02*
X00650000D01*
X00649000Y00481000D02*
Y00483000D01*
X00653000Y00312000D02*
X00655000D01*
X00654000Y00311000D02*
Y00313000D01*
X00663500Y00412500D02*
X00665500D01*
X00664500Y00411500D02*
Y00413500D01*
X00387000Y00372000D02*
X00389000D01*
X00388000Y00371000D02*
Y00373000D01*
X00393000Y00364250D02*
X00395000D01*
X00394000Y00363250D02*
Y00365250D01*
X00393000Y00359000D02*
X00395000D01*
X00394000Y00358000D02*
Y00360000D01*
X00406991Y00503995D02*
X00408991D01*
X00407991Y00502995D02*
Y00504995D01*
X00406992Y00495995D02*
X00408992D01*
X00407991Y00494995D02*
Y00496995D01*
X00398983Y00487990D02*
X00400983D01*
X00399983Y00486991D02*
Y00488991D01*
X00511650Y00286650D02*
X00513650D01*
X00512650Y00285650D02*
Y00287650D01*
X00449000Y00275000D02*
X00451000D01*
X00450000Y00274000D02*
Y00276000D01*
X00434000Y00269000D02*
X00436000D01*
X00435000Y00268000D02*
Y00270000D01*
X00569000Y00507000D02*
X00571000D01*
X00570000Y00506000D02*
Y00508000D01*
X00526995Y00416009D02*
X00528995D01*
X00527995Y00415009D02*
Y00417009D01*
X00526991Y00407995D02*
X00528991D01*
X00527991Y00406995D02*
Y00408995D01*
X00423000Y00600000D02*
X00425000D01*
X00424000Y00599000D02*
Y00601000D01*
Y00611000D02*
X00426000D01*
X00425000Y00610000D02*
Y00612000D01*
X00459500Y00667500D02*
X00461500D01*
X00460500Y00666500D02*
Y00668500D01*
X00460000Y00657000D02*
X00462000D01*
X00461000Y00656000D02*
Y00658000D01*
X00438000Y00667000D02*
X00440000D01*
X00439000Y00666000D02*
Y00668000D01*
X00397000Y00669000D02*
X00399000D01*
X00398000Y00668000D02*
Y00670000D01*
X00414000Y00669000D02*
X00416000D01*
X00415000Y00668000D02*
Y00670000D01*
X00534991Y00495995D02*
X00536992D01*
X00535992Y00494995D02*
Y00496995D01*
X00526992Y00495995D02*
X00528991D01*
X00527991Y00494995D02*
Y00496995D01*
X00486992Y00511995D02*
X00488992D01*
X00487991Y00510995D02*
Y00512995D01*
X00478992Y00511995D02*
X00480992D01*
X00479991Y00510995D02*
Y00512995D01*
X00407000Y00440000D02*
X00409000D01*
X00408000Y00439000D02*
Y00441000D01*
X00414995Y00399995D02*
X00416995D01*
X00415995Y00398995D02*
Y00400995D01*
X00398992Y00399995D02*
X00400992D01*
X00399991Y00398995D02*
Y00400995D01*
X00502991Y00415995D02*
X00504991D01*
X00503991Y00414995D02*
Y00416995D01*
X00510991Y00415995D02*
X00512991D01*
X00511991Y00414995D02*
Y00416995D01*
X00486992Y00415995D02*
X00488992D01*
X00487991Y00414995D02*
Y00416995D01*
X00486992Y00407995D02*
X00488992D01*
X00487991Y00406995D02*
Y00408995D01*
X00494991Y00399995D02*
X00496991D01*
X00495991Y00398995D02*
Y00400995D01*
X00478991Y00415995D02*
X00480991D01*
X00479991Y00414995D02*
Y00416995D01*
X00510991Y00407995D02*
X00512991D01*
X00511991Y00406995D02*
Y00408995D01*
X00518991Y00407995D02*
X00520991D01*
X00519991Y00406995D02*
Y00408995D01*
X00518991Y00415995D02*
X00520991D01*
X00519991Y00414995D02*
Y00416995D01*
X00534991Y00391995D02*
X00536991D01*
X00535991Y00390995D02*
Y00392995D01*
X00518992Y00391995D02*
X00520992D01*
X00519991Y00390995D02*
Y00392995D01*
X00486992Y00391995D02*
X00488992D01*
X00487991Y00390995D02*
Y00392995D01*
X00510992Y00391995D02*
X00512991D01*
X00511992Y00390995D02*
Y00392995D01*
X00494983Y00447991D02*
X00496983D01*
X00495983Y00446991D02*
Y00448991D01*
X00494996Y00463987D02*
X00496996D01*
X00495996Y00462987D02*
Y00464987D01*
X00494996Y00471987D02*
X00496996D01*
X00495996Y00470987D02*
Y00472987D01*
X00562288Y00429712D02*
X00564288D01*
X00563288Y00428712D02*
Y00430712D01*
X00566000Y00426000D02*
X00568000D01*
X00567000Y00425000D02*
Y00427000D01*
X00357000Y00516000D02*
X00359000D01*
X00358000Y00515000D02*
Y00517000D01*
X00357000Y00522000D02*
X00359000D01*
X00358000Y00521000D02*
Y00523000D01*
X00600488Y00594000D02*
X00602487D01*
X00601488Y00593000D02*
Y00595000D01*
X00518991Y00455995D02*
X00520991D01*
X00519991Y00454995D02*
Y00456995D01*
X00502991Y00479995D02*
X00504991D01*
X00503991Y00478995D02*
Y00480995D01*
X00502991Y00471995D02*
X00504991D01*
X00503991Y00470995D02*
Y00472995D01*
X00651834Y00502367D02*
X00653834D01*
X00652834Y00501367D02*
Y00503367D01*
X00648859Y00511084D02*
X00650859D01*
X00649859Y00510084D02*
Y00512084D01*
X00542991Y00447995D02*
X00544991D01*
X00543991Y00446995D02*
Y00448995D01*
X00655000Y00527425D02*
X00657000D01*
X00656000Y00526425D02*
Y00528425D01*
X00655000Y00532675D02*
X00657000D01*
X00656000Y00531675D02*
Y00533675D01*
X00569000Y00560000D02*
X00571000D01*
X00570000Y00559000D02*
Y00561000D01*
X00558436Y00534115D02*
X00560436D01*
X00559436Y00533115D02*
Y00535115D01*
X00462991Y00487995D02*
X00464991D01*
X00463991Y00486995D02*
Y00488995D01*
X00470991Y00487995D02*
X00472991D01*
X00471991Y00486995D02*
Y00488995D01*
X00470991Y00471995D02*
X00472991D01*
X00471991Y00470995D02*
Y00472995D01*
X00462991Y00471995D02*
X00464991D01*
X00463992Y00470995D02*
Y00472995D01*
X00462991Y00479995D02*
X00464991D01*
X00463991Y00478995D02*
Y00480995D01*
X00462991Y00439995D02*
X00464991D01*
X00463991Y00438995D02*
Y00440995D01*
X00356505Y00507512D02*
X00358505D01*
X00357505Y00506512D02*
Y00508512D01*
X00422991Y00543995D02*
X00424991D01*
X00423992Y00542995D02*
Y00544995D01*
X00415195Y00559949D02*
X00417195D01*
X00416195Y00558949D02*
Y00560949D01*
X00390991Y00559995D02*
X00392991D01*
X00391991Y00558995D02*
Y00560995D01*
X00382991Y00551995D02*
X00384991D01*
X00383992Y00550995D02*
Y00552995D01*
X00334267Y00470750D02*
X00336267D01*
X00335267Y00469750D02*
Y00471750D01*
X00617351Y00461500D02*
X00619351D01*
X00618351Y00460500D02*
Y00462500D01*
X00633149Y00396500D02*
X00635149D01*
X00634149Y00395500D02*
Y00397500D01*
X00633149Y00421500D02*
X00635149D01*
X00634149Y00420500D02*
Y00422500D01*
X00572851Y00396500D02*
X00574851D01*
X00573851Y00395500D02*
Y00397500D01*
X00572851Y00381500D02*
X00574851D01*
X00573851Y00380500D02*
Y00382500D01*
X00661108Y00512336D02*
X00663108D01*
X00662108Y00511336D02*
Y00513336D01*
X00518991Y00535995D02*
X00520991D01*
X00519991Y00534995D02*
Y00536995D01*
X00518991Y00527995D02*
X00520991D01*
X00519991Y00526995D02*
Y00528995D01*
X00334877Y00536998D02*
X00336877D01*
X00335877Y00535998D02*
Y00537998D01*
X00652992Y00596173D02*
X00654992D01*
X00653992Y00595173D02*
Y00597173D01*
X00637852Y00624573D02*
X00639852D01*
X00638852Y00623573D02*
Y00625573D01*
X00454991Y00415995D02*
X00456992D01*
X00455992Y00414995D02*
Y00416995D01*
X00425000Y00667999D02*
X00427000D01*
X00426000Y00666999D02*
Y00668999D01*
X00406000Y00665350D02*
X00408000D01*
X00407000Y00664350D02*
Y00666350D01*
X00502975Y00638000D02*
X00504975D01*
X00503975Y00637000D02*
Y00639000D01*
X00391444Y00659500D02*
X00393444D01*
X00392444Y00658500D02*
Y00660500D01*
X00418000Y00665350D02*
X00420000D01*
X00419000Y00664350D02*
Y00666350D01*
X00382991Y00471995D02*
X00384991D01*
X00383991Y00470995D02*
Y00472995D01*
X00323750Y00506500D02*
X00325750D01*
X00324750Y00505500D02*
Y00507500D01*
X00552648Y00427995D02*
X00554648D01*
X00553648Y00426995D02*
Y00428995D01*
X00454991Y00447995D02*
X00456991D01*
X00455991Y00446995D02*
Y00448995D01*
X00470991Y00519995D02*
X00472991D01*
X00471991Y00518995D02*
Y00520995D01*
X00486991Y00439995D02*
X00488991D01*
X00487991Y00438995D02*
Y00440995D01*
X00486991Y00447995D02*
X00488991D01*
X00487991Y00446995D02*
Y00448995D01*
X00414991Y00423995D02*
X00416991D01*
X00415991Y00422995D02*
Y00424995D01*
X00406991Y00399995D02*
X00408991D01*
X00407991Y00398995D02*
Y00400995D01*
X00406991Y00423995D02*
X00408991D01*
X00407991Y00422995D02*
Y00424995D01*
X00542991Y00503995D02*
X00544991D01*
X00543991Y00502995D02*
Y00504995D01*
X00534991Y00487995D02*
X00536991D01*
X00535991Y00486995D02*
Y00488995D01*
X00526991Y00487995D02*
X00528991D01*
X00527991Y00486995D02*
Y00488995D01*
X00510991Y00487995D02*
X00512991D01*
X00511991Y00486995D02*
Y00488995D01*
X00510991Y00455995D02*
X00512991D01*
X00511991Y00454995D02*
Y00456995D01*
X00534991Y00455995D02*
X00536991D01*
X00535991Y00454995D02*
Y00456995D01*
X00454991Y00527995D02*
X00456992D01*
X00455992Y00526995D02*
Y00528995D01*
X00494991Y00519995D02*
X00496991D01*
X00495991Y00518995D02*
Y00520995D01*
X00494991Y00511995D02*
X00496991D01*
X00495991Y00510995D02*
Y00512995D01*
X00429900Y00287050D02*
X00431900D01*
X00430900Y00286050D02*
Y00288050D01*
X00417400Y00274350D02*
X00419400D01*
X00418400Y00273350D02*
Y00275350D01*
X00525248Y00357100D02*
X00527248D01*
X00526248Y00356100D02*
Y00358100D01*
X00525248Y00362529D02*
X00527248D01*
X00526248Y00361529D02*
Y00363529D01*
X00530300Y00273549D02*
X00532300D01*
X00531300Y00272549D02*
Y00274549D01*
X00502451Y00273549D02*
X00504451D01*
X00503451Y00272549D02*
Y00274549D01*
X00478500Y00273700D02*
X00480500D01*
X00479500Y00272700D02*
Y00274700D01*
X00487000Y00334000D02*
X00489000D01*
X00488000Y00333000D02*
Y00335000D01*
X00479000Y00334000D02*
X00481000D01*
X00480000Y00333000D02*
Y00335000D01*
X00471000Y00334000D02*
X00473000D01*
X00472000Y00333000D02*
Y00335000D01*
X00504648Y00337321D02*
X00506648D01*
X00505648Y00336321D02*
Y00338321D01*
X00517900Y00337400D02*
X00519900D01*
X00518900Y00336400D02*
Y00338400D01*
X00504500Y00344000D02*
X00506500D01*
X00505500Y00343000D02*
Y00345000D01*
X00524000Y00337350D02*
X00526000D01*
X00525000Y00336350D02*
Y00338350D01*
X00536950Y00337350D02*
X00538950D01*
X00537950Y00336350D02*
Y00338350D01*
X00524000Y00324650D02*
X00526000D01*
X00525000Y00323650D02*
Y00325650D01*
X00511550Y00337400D02*
X00513550D01*
X00512550Y00336400D02*
Y00338400D01*
X00504500Y00350679D02*
X00506500D01*
X00505500Y00349679D02*
Y00351679D01*
X00524150Y00312050D02*
X00526150D01*
X00525150Y00311050D02*
Y00313050D01*
X00537050Y00312050D02*
X00539050D01*
X00538050Y00311050D02*
Y00313050D01*
X00498950Y00299350D02*
X00500950D01*
X00499950Y00298350D02*
Y00300350D01*
X00524350Y00273950D02*
X00526350D01*
X00525350Y00272950D02*
Y00274950D01*
X00524150Y00350050D02*
X00526150D01*
X00525150Y00349050D02*
Y00351050D01*
X00498950Y00312050D02*
X00500950D01*
X00499950Y00311050D02*
Y00313050D01*
X00511650Y00299270D02*
X00513650D01*
X00512650Y00298270D02*
Y00300270D01*
X00537050Y00299350D02*
X00539050D01*
X00538050Y00298350D02*
Y00300350D01*
X00562400Y00312050D02*
X00564400D01*
X00563400Y00311050D02*
Y00313050D01*
X00492587Y00305520D02*
X00494587D01*
X00493587Y00304520D02*
Y00306520D01*
X00492587Y00312000D02*
X00494587D01*
X00493587Y00311000D02*
Y00313000D01*
X00448963Y00312400D02*
X00450963D01*
X00449963Y00311400D02*
Y00313400D01*
X00363500Y00333609D02*
X00365500D01*
X00364500Y00332609D02*
Y00334609D01*
X00358125Y00333609D02*
X00360125D01*
X00359125Y00332609D02*
Y00334609D01*
X00352750Y00333609D02*
X00354750D01*
X00353750Y00332609D02*
Y00334609D01*
X00372937Y00312400D02*
X00374937D01*
X00373937Y00311400D02*
Y00313400D01*
X00442600Y00299750D02*
X00444600D01*
X00443600Y00298750D02*
Y00300750D01*
X00463000Y00324000D02*
X00465000D01*
X00464000Y00323000D02*
Y00325000D01*
X00463000Y00334000D02*
X00465000D01*
X00464000Y00333000D02*
Y00335000D01*
X00449113Y00305920D02*
X00451113D01*
X00450113Y00304920D02*
Y00306920D01*
X00372937Y00305920D02*
X00374937D01*
X00373937Y00304920D02*
Y00306920D01*
X00442750Y00312450D02*
X00444750D01*
X00443750Y00311450D02*
Y00313450D01*
X00417400Y00299750D02*
X00419400D01*
X00418400Y00298750D02*
Y00300750D01*
X00392000Y00299670D02*
X00394000D01*
X00393000Y00298670D02*
Y00300670D01*
X00379300Y00312450D02*
X00381300D01*
X00380300Y00311450D02*
Y00313450D01*
X00417250Y00349750D02*
X00419250D01*
X00418250Y00348750D02*
Y00350750D01*
X00404700Y00274350D02*
X00406700D01*
X00405700Y00273350D02*
Y00275350D01*
X00392043Y00274350D02*
X00394043D01*
X00393043Y00273350D02*
Y00275350D01*
X00379300Y00299750D02*
X00381300D01*
X00380300Y00298750D02*
Y00300750D01*
X00385402Y00351158D02*
X00387402D01*
X00386402Y00350158D02*
Y00352158D01*
X00404500Y00325050D02*
X00406500D01*
X00405500Y00324050D02*
Y00326050D01*
X00417300Y00337750D02*
X00419300D01*
X00418300Y00336750D02*
Y00338750D01*
X00406250Y00337750D02*
X00408250D01*
X00407250Y00336750D02*
Y00338750D01*
X00398250Y00337800D02*
X00400250D01*
X00399250Y00336800D02*
Y00338800D01*
X00385550Y00337800D02*
X00387550D01*
X00386550Y00336800D02*
Y00338800D01*
X00526991Y00455995D02*
X00528991D01*
X00527991Y00454995D02*
Y00456995D01*
X00534991Y00431995D02*
X00536991D01*
X00535991Y00430995D02*
Y00432995D01*
X00510991Y00423995D02*
X00512991D01*
X00511991Y00422995D02*
Y00424995D01*
X00518991Y00399995D02*
X00520991D01*
X00519991Y00398995D02*
Y00400995D01*
X00542991Y00495995D02*
X00544991D01*
X00543991Y00494995D02*
Y00496995D01*
X00518991Y00487995D02*
X00520991D01*
X00519991Y00486995D02*
Y00488995D01*
X00534991Y00527995D02*
X00536991D01*
X00535991Y00526995D02*
Y00528995D01*
X00534991Y00535995D02*
X00536991D01*
X00535991Y00534995D02*
Y00536995D01*
X00534991Y00551995D02*
X00536991D01*
X00535991Y00550995D02*
Y00552995D01*
X00526991Y00567995D02*
X00528991D01*
X00527991Y00566995D02*
Y00568995D01*
X00510991Y00535995D02*
X00512991D01*
X00511991Y00534995D02*
Y00536995D01*
X00502991Y00543995D02*
X00504991D01*
X00503991Y00542995D02*
Y00544995D01*
X00494991Y00535995D02*
X00496991D01*
X00495991Y00534995D02*
Y00536995D01*
X00494991Y00559995D02*
X00496992D01*
X00495992Y00558995D02*
Y00560995D01*
X00502991Y00551995D02*
X00504991D01*
X00503991Y00550995D02*
Y00552995D01*
X00486991Y00543995D02*
X00488991D01*
X00487991Y00542995D02*
Y00544995D01*
X00486991Y00551995D02*
X00488991D01*
X00487991Y00550995D02*
Y00552995D01*
X00478991Y00551995D02*
X00480991D01*
X00479991Y00550995D02*
Y00552995D01*
X00478991Y00543995D02*
X00480991D01*
X00479991Y00542995D02*
Y00544995D01*
X00470991Y00551995D02*
X00472991D01*
X00471991Y00550995D02*
Y00552995D01*
X00502991Y00535995D02*
X00504991D01*
X00503991Y00534995D02*
Y00536995D01*
X00526991Y00527995D02*
X00528991D01*
X00527991Y00526995D02*
Y00528995D01*
X00494991Y00527995D02*
X00496991D01*
X00495991Y00526995D02*
Y00528995D01*
X00478991Y00527995D02*
X00480991D01*
X00479991Y00526995D02*
Y00528995D01*
X00526991Y00559995D02*
X00528991D01*
X00527991Y00558995D02*
Y00560995D01*
X00510991Y00511995D02*
X00512991D01*
X00511991Y00510995D02*
Y00512995D01*
X00470991Y00503995D02*
X00472991D01*
X00471991Y00502995D02*
Y00504995D01*
X00486991Y00503995D02*
X00488991D01*
X00487991Y00502995D02*
Y00504995D01*
X00454991Y00519995D02*
X00456991D01*
X00455991Y00518995D02*
Y00520995D01*
X00454991Y00511995D02*
X00456992D01*
X00455992Y00510995D02*
Y00512995D01*
X00454991Y00503995D02*
X00456992D01*
X00455992Y00502995D02*
Y00504995D01*
X00454991Y00495995D02*
X00456991D01*
X00455991Y00494995D02*
Y00496995D01*
X00470991Y00495995D02*
X00472991D01*
X00471991Y00494995D02*
Y00496995D01*
X00486991Y00487995D02*
X00488991D01*
X00487991Y00486995D02*
Y00488995D01*
X00446991Y00519995D02*
X00448991D01*
X00447991Y00518995D02*
Y00520995D01*
X00446992Y00511995D02*
X00448992D01*
X00447991Y00510995D02*
Y00512995D01*
X00446992Y00503995D02*
X00448992D01*
X00447991Y00502995D02*
Y00504995D01*
X00446992Y00495995D02*
X00448992D01*
X00447991Y00494995D02*
Y00496995D01*
X00438992Y00487995D02*
X00440992D01*
X00439991Y00486995D02*
Y00488995D01*
X00438992Y00495995D02*
X00440991D01*
X00439991Y00494995D02*
Y00496995D01*
X00438992Y00503995D02*
X00440992D01*
X00439991Y00502995D02*
Y00504995D01*
X00438992Y00511995D02*
X00440992D01*
X00439991Y00510995D02*
Y00512995D01*
X00438992Y00519995D02*
X00440992D01*
X00439991Y00518995D02*
Y00520995D01*
X00430992Y00519995D02*
X00432991D01*
X00431992Y00518995D02*
Y00520995D01*
X00430992Y00511995D02*
X00432991D01*
X00431992Y00510995D02*
Y00512995D01*
X00430992Y00503995D02*
X00432991D01*
X00431992Y00502995D02*
Y00504995D01*
X00430992Y00495995D02*
X00432991D01*
X00431992Y00494995D02*
Y00496995D01*
X00430992Y00487995D02*
X00432991D01*
X00431992Y00486995D02*
Y00488995D01*
X00470991Y00423995D02*
X00472991D01*
X00471991Y00422995D02*
Y00424995D01*
X00478991Y00439995D02*
X00480991D01*
X00479991Y00438995D02*
Y00440995D01*
X00430991Y00455995D02*
X00432991D01*
X00431991Y00454995D02*
Y00456995D01*
X00438991Y00455995D02*
X00440991D01*
X00439991Y00454995D02*
Y00456995D01*
X00446991Y00455995D02*
X00448991D01*
X00447991Y00454995D02*
Y00456995D01*
X00430991Y00447995D02*
X00432991D01*
X00431991Y00446995D02*
Y00448995D01*
X00438991Y00447995D02*
X00440991D01*
X00439991Y00446995D02*
Y00448995D01*
X00446991Y00447995D02*
X00448991D01*
X00447991Y00446995D02*
Y00448995D01*
X00430991Y00439995D02*
X00432991D01*
X00431991Y00438995D02*
Y00440995D01*
X00414991Y00407995D02*
X00416991D01*
X00415991Y00406995D02*
Y00408995D01*
X00422991Y00423995D02*
X00424991D01*
X00423992Y00422995D02*
Y00424995D01*
X00414991Y00447995D02*
X00416991D01*
X00415991Y00446995D02*
Y00448995D01*
X00390991Y00439995D02*
X00392991D01*
X00391991Y00438995D02*
Y00440995D01*
X00398992Y00415995D02*
X00400992D01*
X00399991Y00414995D02*
Y00416995D01*
X00390991Y00399995D02*
X00392991D01*
X00391991Y00398995D02*
Y00400995D01*
X00390992Y00487995D02*
X00392991D01*
X00391992Y00486995D02*
Y00488995D01*
X00398992Y00503995D02*
X00400992D01*
X00399991Y00502995D02*
Y00504995D01*
X00390992Y00527995D02*
X00392991D01*
X00391992Y00526995D02*
Y00528995D01*
X00414991Y00535995D02*
X00416992D01*
X00415992Y00534995D02*
Y00536995D01*
X00438992Y00543995D02*
X00440992D01*
X00439991Y00542995D02*
Y00544995D01*
X00398992Y00543995D02*
X00400992D01*
X00399991Y00542995D02*
Y00544995D01*
X00430992Y00527995D02*
X00432991D01*
X00431992Y00526995D02*
Y00528995D01*
X00454991Y00535995D02*
X00456992D01*
X00455992Y00534995D02*
Y00536995D01*
X00406992Y00519995D02*
X00408992D01*
X00407991Y00518995D02*
Y00520995D01*
X00446991Y00439995D02*
X00448991D01*
X00447991Y00438995D02*
Y00440995D01*
X00382991Y00495995D02*
X00384991D01*
X00383991Y00494995D02*
Y00496995D01*
X00382991Y00447995D02*
X00384991D01*
X00383991Y00446995D02*
Y00448995D01*
X00382991Y00527995D02*
X00384991D01*
X00383991Y00526995D02*
Y00528995D01*
X00534991Y00543995D02*
X00536991D01*
X00535991Y00542995D02*
Y00544995D01*
X00478991Y00519995D02*
X00480991D01*
X00479991Y00518995D02*
Y00520995D01*
X00486991Y00519995D02*
X00488991D01*
X00487991Y00518995D02*
Y00520995D01*
X00478991Y00535995D02*
X00480991D01*
X00479991Y00534995D02*
Y00536995D01*
X00310644Y00521500D02*
X00312644D01*
X00311644Y00520500D02*
Y00522500D01*
X00310644Y00506500D02*
X00312644D01*
X00311644Y00505500D02*
Y00507500D01*
X00407000Y00358000D02*
X00409000D01*
X00408000Y00357000D02*
Y00359000D01*
X00407000Y00364250D02*
X00409000D01*
X00408000Y00363250D02*
Y00365250D01*
X00407000Y00371000D02*
X00409000D01*
X00408000Y00370000D02*
Y00372000D01*
X00311039Y00491500D02*
X00313039D01*
X00312039Y00490500D02*
Y00492500D01*
X00526991Y00535995D02*
X00528991D01*
X00527991Y00534995D02*
Y00536995D01*
X00518991Y00519995D02*
X00520991D01*
X00519991Y00518995D02*
Y00520995D01*
X00510991Y00527995D02*
X00512991D01*
X00511991Y00526995D02*
Y00528995D01*
X00486991Y00535995D02*
X00488991D01*
X00487991Y00534995D02*
Y00536995D01*
X00486991Y00527995D02*
X00488991D01*
X00487991Y00526995D02*
Y00528995D01*
X00470991Y00543995D02*
X00472991D01*
X00471991Y00542995D02*
Y00544995D01*
X00470991Y00535995D02*
X00472991D01*
X00471991Y00534995D02*
Y00536995D01*
X00470991Y00527995D02*
X00472991D01*
X00471991Y00526995D02*
Y00528995D01*
X00454991Y00544035D02*
X00456991D01*
X00455991Y00543035D02*
Y00545035D01*
X00446992Y00543995D02*
X00448992D01*
X00447991Y00542995D02*
Y00544995D01*
X00430992Y00543995D02*
X00432991D01*
X00431992Y00542995D02*
Y00544995D01*
X00438992Y00535995D02*
X00440992D01*
X00439991Y00534995D02*
Y00536995D01*
X00430991Y00535995D02*
X00432991D01*
X00431991Y00534995D02*
Y00536995D01*
X00446992Y00535995D02*
X00448992D01*
X00447991Y00534995D02*
Y00536995D01*
X00494991Y00503995D02*
X00496992D01*
X00495992Y00502995D02*
Y00504995D01*
X00494991Y00487995D02*
X00496991D01*
X00495991Y00486995D02*
Y00488995D01*
X00502991Y00423995D02*
X00504991D01*
X00503991Y00422995D02*
Y00424995D01*
X00478991Y00447995D02*
X00480991D01*
X00479991Y00446995D02*
Y00448995D01*
X00510991Y00431995D02*
X00512991D01*
X00511991Y00430995D02*
Y00432995D01*
X00510991Y00439995D02*
X00512991D01*
X00511991Y00438995D02*
Y00440995D01*
X00526991Y00511995D02*
X00528991D01*
X00527991Y00510995D02*
Y00512995D01*
X00518991Y00463995D02*
X00520991D01*
X00519991Y00462995D02*
Y00464995D01*
X00526991Y00463995D02*
X00528991D01*
X00527991Y00462995D02*
Y00464995D01*
X00534991Y00463995D02*
X00536991D01*
X00535991Y00462995D02*
Y00464995D01*
X00502991Y00463995D02*
X00504991D01*
X00503991Y00462995D02*
Y00464995D01*
X00478991Y00463995D02*
X00480991D01*
X00479991Y00462995D02*
Y00464995D01*
X00510991Y00463995D02*
X00512991D01*
X00511991Y00462995D02*
Y00464995D01*
X00510992Y00471995D02*
X00512991D01*
X00511992Y00470995D02*
Y00472995D01*
X00518991Y00471995D02*
X00520991D01*
X00519991Y00470995D02*
Y00472995D01*
X00526991Y00471995D02*
X00528991D01*
X00527991Y00470995D02*
Y00472995D01*
X00406992Y00471995D02*
X00408992D01*
X00407991Y00470995D02*
Y00472995D01*
X00430992Y00471995D02*
X00432991D01*
X00431992Y00470995D02*
Y00472995D01*
X00438992Y00471995D02*
X00440992D01*
X00439991Y00470995D02*
Y00472995D01*
X00478991Y00471995D02*
X00480991D01*
X00479991Y00470995D02*
Y00472995D01*
X00486991Y00471995D02*
X00488991D01*
X00487991Y00470995D02*
Y00472995D01*
X00446992Y00487995D02*
X00448992D01*
X00447991Y00486995D02*
Y00488995D01*
X00446992Y00471995D02*
X00448992D01*
X00447991Y00470995D02*
Y00472995D01*
X00454991Y00471995D02*
X00456992D01*
X00455992Y00470995D02*
Y00472995D01*
X00422991Y00471995D02*
X00424991D01*
X00423992Y00470995D02*
Y00472995D01*
X00494991Y00479995D02*
X00496992D01*
X00495992Y00478995D02*
Y00480995D01*
X00648150Y00549100D02*
X00650150D01*
X00649150Y00548100D02*
Y00550100D01*
X00526992Y00479995D02*
X00528992D01*
X00527991Y00478995D02*
Y00480995D01*
X00542991Y00407995D02*
X00544991D01*
X00543991Y00406995D02*
Y00408995D01*
X00354250Y00561500D02*
X00356250D01*
X00355250Y00560500D02*
Y00562500D01*
X00336250Y00556500D02*
X00338250D01*
X00337250Y00555500D02*
Y00557500D01*
X00354250Y00546500D02*
X00356250D01*
X00355250Y00545500D02*
Y00547500D01*
X00354250Y00541500D02*
X00356250D01*
X00355250Y00540500D02*
Y00542500D01*
X00359250Y00531500D02*
X00361250D01*
X00360250Y00530500D02*
Y00532500D01*
X00525248Y00367958D02*
X00527248D01*
X00526248Y00366958D02*
Y00368958D01*
X00490000Y00575500D02*
X00492000D01*
X00491000Y00574500D02*
Y00576500D01*
X00542991Y00511995D02*
X00544991D01*
X00543992Y00510995D02*
Y00512995D01*
X00550991Y00567995D02*
X00552991D01*
X00551991Y00566995D02*
Y00568995D01*
X00542995Y00552009D02*
X00544995D01*
X00543995Y00551009D02*
Y00553009D01*
X00648150Y00472900D02*
X00650150D01*
X00649150Y00471900D02*
Y00473900D01*
X00471005Y00559991D02*
X00473005D01*
X00472005Y00558992D02*
Y00560992D01*
X00451000Y00665000D02*
X00453000D01*
X00452000Y00664000D02*
Y00666000D01*
X00511005Y00551991D02*
X00513005D01*
X00512005Y00550991D02*
Y00552991D01*
X00511005Y00543991D02*
X00513005D01*
X00512005Y00542991D02*
Y00544991D01*
X00446991Y00551995D02*
X00448991D01*
X00447991Y00550995D02*
Y00552995D01*
X00365327Y00504891D02*
X00367327D01*
X00366327Y00503891D02*
Y00505891D01*
X00388103Y00668201D02*
X00390103D01*
X00389103Y00667201D02*
Y00669201D01*
X00510991Y00519995D02*
X00512991D01*
X00511991Y00518995D02*
Y00520995D01*
X00599599Y00584000D02*
X00601599D01*
X00600599Y00583000D02*
Y00585000D01*
X00570000Y00533649D02*
X00572000D01*
X00571000Y00532649D02*
Y00534649D01*
X00573000Y00548000D02*
X00575000D01*
X00574000Y00547000D02*
Y00549000D01*
X00571650Y00471217D02*
X00573650D01*
X00572650Y00470217D02*
Y00472217D01*
X00617351Y00541500D02*
X00619351D01*
X00618351Y00540500D02*
Y00542500D01*
X00502991Y00487995D02*
X00504991D01*
X00503991Y00486995D02*
Y00488995D01*
X00562000Y00388000D02*
X00564000D01*
X00563000Y00387000D02*
Y00389000D01*
X00502991Y00495995D02*
X00504991D01*
X00503991Y00494995D02*
Y00496995D01*
X00387000Y00359000D02*
X00389000D01*
X00388000Y00358000D02*
Y00360000D01*
X00387000Y00364250D02*
X00389000D01*
X00388000Y00363250D02*
Y00365250D01*
X00525248Y00373388D02*
X00527248D01*
X00526248Y00372388D02*
Y00374388D01*
X00532500Y00379250D02*
X00534500D01*
X00533500Y00378250D02*
Y00380250D01*
X00485250Y00579750D02*
X00487250D01*
X00486250Y00578750D02*
Y00580750D01*
X00373000Y00397000D02*
X00375000D01*
X00374000Y00396000D02*
Y00398000D01*
X00406991Y00463995D02*
X00408991D01*
X00407991Y00462995D02*
Y00464995D01*
X00502991Y00407995D02*
X00504991D01*
X00503991Y00406995D02*
Y00408995D01*
X00556080Y00436547D02*
X00558080D01*
X00557080Y00435547D02*
Y00437547D01*
X00428500Y00605250D02*
X00430500D01*
X00429500Y00604250D02*
Y00606250D01*
X00394500Y00621750D02*
X00396500D01*
X00395500Y00620750D02*
Y00622750D01*
X00382500Y00613750D02*
X00384500D01*
X00383500Y00612750D02*
Y00614750D01*
X00403500Y00592750D02*
X00405500D01*
X00404500Y00591750D02*
Y00593750D01*
X00389500Y00614500D02*
X00391500D01*
X00390500Y00613500D02*
Y00615500D01*
X00494991Y00391995D02*
X00496992D01*
X00495992Y00390995D02*
Y00392995D01*
X00502991Y00391995D02*
X00504991D01*
X00503992Y00390995D02*
Y00392995D01*
X00500250Y00382000D02*
X00502250D01*
X00501250Y00381000D02*
Y00383000D01*
X00428509Y00374741D02*
X00430509D01*
X00429509Y00373741D02*
Y00375741D01*
X00433500Y00369750D02*
X00435500D01*
X00434500Y00368750D02*
Y00370750D01*
X00471500Y00361250D02*
X00473500D01*
X00472500Y00360250D02*
Y00362250D01*
X00524250Y00331000D02*
X00526250D01*
X00525250Y00330000D02*
Y00332000D01*
X00549500Y00326750D02*
X00551500D01*
X00550500Y00325750D02*
Y00327750D01*
X00550750Y00339750D02*
X00552750D01*
X00551750Y00338750D02*
Y00340750D01*
X00551000Y00358250D02*
X00553000D01*
X00552000Y00357250D02*
Y00359250D01*
X00545750Y00339750D02*
X00547750D01*
X00546750Y00338750D02*
Y00340750D01*
X00555750Y00339750D02*
X00557750D01*
X00556750Y00338750D02*
Y00340750D01*
X00623750Y00333000D02*
X00625750D01*
X00624750Y00332000D02*
Y00334000D01*
X00560750Y00339750D02*
X00562750D01*
X00561750Y00338750D02*
Y00340750D01*
X00617500Y00391750D02*
X00619500D01*
X00618500Y00390750D02*
Y00392750D01*
X00616250Y00383250D02*
X00618250D01*
X00617250Y00382250D02*
Y00384250D01*
X00473750Y00645000D02*
X00475750D01*
X00474750Y00644000D02*
Y00646000D01*
X00471000Y00611750D02*
X00473000D01*
X00472000Y00610750D02*
Y00612750D01*
X00476250Y00607750D02*
X00478250D01*
X00477250Y00606750D02*
Y00608750D01*
X00506000Y00579000D02*
X00508000D01*
X00507000Y00578000D02*
Y00580000D01*
X00660750Y00530000D02*
X00662750D01*
X00661750Y00529000D02*
Y00531000D01*
X00662750Y00492250D02*
X00664750D01*
X00663750Y00491250D02*
Y00493250D01*
X00474000Y00579750D02*
X00476000D01*
X00475000Y00578750D02*
Y00580750D01*
X00654500Y00404750D02*
X00656500D01*
X00655500Y00403750D02*
Y00405750D01*
X00556500Y00382500D02*
X00558500D01*
X00557500Y00381500D02*
Y00383500D01*
X00430992Y00567995D02*
X00432991D01*
X00431992Y00566995D02*
Y00568995D01*
X00289000Y00457750D02*
X00291000D01*
X00290000Y00456750D02*
Y00458750D01*
X00292250Y00462250D02*
X00294250D01*
X00293250Y00461250D02*
Y00463250D01*
X00633978Y00371272D02*
X00635978D01*
X00634978Y00370272D02*
Y00372272D01*
X00350500Y00579000D02*
X00352500D01*
X00351500Y00578000D02*
Y00580000D01*
X00572851Y00496500D02*
X00574851D01*
X00573851Y00495500D02*
Y00497500D01*
X00572000Y00502500D02*
X00574000D01*
X00573000Y00501500D02*
Y00503500D01*
X00594250Y00359000D02*
X00596250D01*
X00595250Y00358000D02*
Y00360000D01*
X00565750Y00339750D02*
X00567750D01*
X00566750Y00338750D02*
Y00340750D01*
X00538000Y00379250D02*
X00540000D01*
X00539000Y00378250D02*
Y00380250D01*
X00290500Y00526250D02*
X00292500D01*
X00291500Y00525250D02*
Y00527250D01*
X00319250Y00526000D02*
X00321250D01*
X00320250Y00525000D02*
Y00527000D01*
X00478000Y00391000D02*
X00480000D01*
X00479000Y00390000D02*
Y00392000D01*
X00562250Y00299350D02*
X00564250D01*
X00563250Y00298350D02*
Y00300350D01*
X00518991Y00439995D02*
X00520991D01*
X00519991Y00438995D02*
Y00440995D01*
X00614250Y00263000D02*
X00616250D01*
X00615250Y00262000D02*
Y00264000D01*
X00614000Y00332750D02*
X00616000D01*
X00615000Y00331750D02*
Y00333750D01*
X00649250Y00305000D02*
X00651250D01*
X00650250Y00304000D02*
Y00306000D01*
X00634500Y00300750D02*
X00636500D01*
X00635500Y00299750D02*
Y00301750D01*
X00629500Y00300750D02*
X00631500D01*
X00630500Y00299750D02*
Y00301750D01*
X00624500Y00300750D02*
X00626500D01*
X00625500Y00299750D02*
Y00301750D01*
X00634500Y00295750D02*
X00636500D01*
X00635500Y00294750D02*
Y00296750D01*
X00629500Y00295750D02*
X00631500D01*
X00630500Y00294750D02*
Y00296750D01*
X00624500Y00295750D02*
X00626500D01*
X00625500Y00294750D02*
Y00296750D01*
X00559400Y00269000D02*
X00561400D01*
X00560400Y00268000D02*
Y00270000D01*
X00566250Y00287500D02*
X00568250D01*
X00567250Y00286500D02*
Y00288500D01*
X00493500Y00274000D02*
X00495500D01*
X00494500Y00273000D02*
Y00275000D01*
X00550250Y00285500D02*
X00552250D01*
X00551250Y00284500D02*
Y00286500D01*
X00516750Y00261000D02*
X00518750D01*
X00517750Y00260000D02*
Y00262000D01*
X00510500Y00273250D02*
X00512500D01*
X00511500Y00272250D02*
Y00274250D01*
X00535250Y00286500D02*
X00537250D01*
X00536250Y00285500D02*
Y00287500D01*
X00615250Y00272500D02*
X00617250D01*
X00616250Y00271500D02*
Y00273500D01*
X00642250Y00298000D02*
X00644250D01*
X00643250Y00297000D02*
Y00299000D01*
X00608750Y00336250D02*
X00610750D01*
X00609750Y00335250D02*
Y00337250D01*
X00612250Y00362750D02*
X00614250D01*
X00613250Y00361750D02*
Y00363750D01*
X00626250Y00358250D02*
X00628250D01*
X00627250Y00357250D02*
Y00359250D01*
X00534991Y00423995D02*
X00536991D01*
X00535991Y00422995D02*
Y00424995D01*
X00534991Y00439995D02*
X00536991D01*
X00535991Y00438995D02*
Y00440995D01*
X00510991Y00495995D02*
X00512991D01*
X00511991Y00494995D02*
Y00496995D01*
X00518991Y00495995D02*
X00520991D01*
X00519991Y00494995D02*
Y00496995D01*
X00502991Y00503995D02*
X00504991D01*
X00503991Y00502995D02*
Y00504995D01*
X00510992Y00503995D02*
X00512991D01*
X00511992Y00502995D02*
Y00504995D01*
X00518992Y00503995D02*
X00520992D01*
X00519991Y00502995D02*
Y00504995D01*
X00356250Y00496000D02*
X00358250D01*
X00357250Y00495000D02*
Y00497000D01*
X00309250Y00446500D02*
X00311250D01*
X00310250Y00445500D02*
Y00447500D01*
X00274000Y00541750D02*
X00276000D01*
X00275000Y00540750D02*
Y00542750D01*
X00281750Y00546500D02*
X00283750D01*
X00282750Y00545500D02*
Y00547500D01*
X00280000Y00554000D02*
X00282000D01*
X00281000Y00553000D02*
Y00555000D01*
X00263750Y00578250D02*
X00265750D01*
X00264750Y00577250D02*
Y00579250D01*
X00321250Y00454250D02*
X00323250D01*
X00322250Y00453250D02*
Y00455250D01*
X00320000Y00460750D02*
X00322000D01*
X00321000Y00459750D02*
Y00461750D01*
X00329250Y00430250D02*
X00331250D01*
X00330250Y00429250D02*
Y00431250D01*
X00310500Y00368000D02*
X00312500D01*
X00311500Y00367000D02*
Y00369000D01*
X00353250Y00381500D02*
X00355250D01*
X00354250Y00380500D02*
Y00382500D01*
X00292250Y00414750D02*
X00294250D01*
X00293250Y00413750D02*
Y00415750D01*
X00574250Y00323500D02*
X00576250D01*
X00575250Y00322500D02*
Y00324500D01*
X00470000Y00273000D02*
X00472000D01*
X00471000Y00272000D02*
Y00274000D01*
X00406000Y00264000D02*
X00408000D01*
X00407000Y00263000D02*
Y00265000D01*
X00261500Y00541000D02*
X00263500D01*
X00262500Y00540000D02*
Y00542000D01*
X00264000Y00585250D02*
X00266000D01*
X00265000Y00584250D02*
Y00586250D01*
X00278750Y00584000D02*
X00280750D01*
X00279750Y00583000D02*
Y00585000D01*
X00494991Y00431995D02*
X00496991D01*
X00495991Y00430995D02*
Y00432995D01*
X00502991Y00511995D02*
X00504991D01*
X00503991Y00510995D02*
Y00512995D01*
X00438992Y00415995D02*
X00440991D01*
X00439991Y00414995D02*
Y00416995D01*
X00470992Y00455995D02*
X00472991D01*
X00471992Y00454995D02*
Y00456995D01*
X00454991Y00463995D02*
X00456991D01*
X00455991Y00462995D02*
Y00464995D01*
X00567250Y00281000D02*
X00569250D01*
X00568250Y00280000D02*
Y00282000D01*
X00592750Y00289750D02*
X00594750D01*
X00593750Y00288750D02*
Y00290750D01*
X00587875Y00289750D02*
X00589875D01*
X00588875Y00288750D02*
Y00290750D01*
X00597625Y00289750D02*
X00599625D01*
X00598625Y00288750D02*
Y00290750D01*
X00582000Y00322500D02*
X00584000D01*
X00583000Y00321500D02*
Y00323500D01*
X00295000Y00358750D02*
X00297000D01*
X00296000Y00357750D02*
Y00359750D01*
X00550500Y00276250D02*
X00552500D01*
X00551500Y00275250D02*
Y00277250D01*
X00334750Y00446500D02*
X00336750D01*
X00335750Y00445500D02*
Y00447500D01*
X00270000Y00464500D02*
X00272000D01*
X00271000Y00463500D02*
Y00465500D01*
X00370500Y00416500D02*
X00372500D01*
X00371500Y00415500D02*
Y00417500D01*
X00329788Y00448962D02*
X00331788D01*
X00330788Y00447962D02*
Y00449962D01*
X00589417Y00359000D02*
X00591417D01*
X00590417Y00358000D02*
Y00360000D01*
X00549500Y00333750D02*
X00551500D01*
X00550500Y00332750D02*
Y00334750D01*
X00430250Y00596500D02*
X00432250D01*
X00431250Y00595500D02*
Y00597500D01*
X00594250Y00353250D02*
X00596250D01*
X00595250Y00352250D02*
Y00354250D01*
X00594250Y00347750D02*
X00596250D01*
X00595250Y00346750D02*
Y00348750D01*
X00594250Y00342250D02*
X00596250D01*
X00595250Y00341250D02*
Y00343250D01*
X00555750Y00345000D02*
X00557750D01*
X00556750Y00344000D02*
Y00346000D01*
X00555750Y00350250D02*
X00557750D01*
X00556750Y00349250D02*
Y00351250D01*
X00560750Y00350250D02*
X00562750D01*
X00561750Y00349250D02*
Y00351250D01*
X00560750Y00345000D02*
X00562750D01*
X00561750Y00344000D02*
Y00346000D01*
X00584583Y00359000D02*
X00586583D01*
X00585583Y00358000D02*
Y00360000D01*
X00579750Y00359000D02*
X00581750D01*
X00580750Y00358000D02*
Y00360000D01*
X00558250Y00354500D02*
X00560250D01*
X00559250Y00353500D02*
Y00355500D01*
X00654000Y00415250D02*
X00656000D01*
X00655000Y00414250D02*
Y00416250D01*
X00654000Y00410000D02*
X00656000D01*
X00655000Y00409000D02*
Y00411000D01*
X00563686Y00534115D02*
X00565686D01*
X00564686Y00533115D02*
Y00535115D01*
X00534991Y00415995D02*
X00536991D01*
X00535991Y00414995D02*
Y00416995D01*
X00534991Y00407995D02*
X00536991D01*
X00535991Y00406995D02*
Y00408995D01*
X00526991Y00551995D02*
X00528991D01*
X00527991Y00550995D02*
Y00552995D01*
X00526991Y00543995D02*
X00528991D01*
X00527991Y00542995D02*
Y00544995D01*
X00355671Y00438677D02*
X00357671D01*
X00356671Y00437677D02*
Y00439677D01*
X00355671Y00433427D02*
X00357671D01*
X00356671Y00432427D02*
Y00434427D01*
X00468250Y00627000D02*
X00470250D01*
X00469250Y00626000D02*
Y00628000D01*
X00466750Y00632750D02*
X00468750D01*
X00467750Y00631750D02*
Y00633750D01*
X00459934Y00611705D02*
X00461934D01*
X00460934Y00610705D02*
Y00612705D01*
X00465184Y00611705D02*
X00467184D01*
X00466184Y00610705D02*
Y00612705D01*
X00438750Y00573500D02*
X00440750D01*
X00439750Y00572500D02*
Y00574500D01*
X00438750Y00568250D02*
X00440750D01*
X00439750Y00567250D02*
Y00569250D01*
X00373199Y00426625D02*
X00375199D01*
X00374199Y00425625D02*
Y00427625D01*
X00373199Y00421375D02*
X00375199D01*
X00374199Y00420375D02*
Y00422375D01*
X00494991Y00423995D02*
X00496991D01*
X00495991Y00422995D02*
Y00424995D01*
X00494991Y00415995D02*
X00496991D01*
X00495991Y00414995D02*
Y00416995D01*
X00360500Y00396625D02*
X00362500D01*
X00361500Y00395625D02*
Y00397625D01*
X00360500Y00391375D02*
X00362500D01*
X00361500Y00390375D02*
Y00392375D01*
X00336462Y00409712D02*
X00338462D01*
X00337462Y00408712D02*
Y00410712D01*
X00332750Y00406000D02*
X00334750D01*
X00333750Y00405000D02*
Y00407000D01*
X00292250Y00426625D02*
X00294250D01*
X00293250Y00425625D02*
Y00427625D01*
X00292250Y00421375D02*
X00294250D01*
X00293250Y00420375D02*
Y00422375D01*
X00542991Y00423995D02*
X00544991D01*
X00543991Y00422995D02*
Y00424995D01*
X00542991Y00415995D02*
X00544991D01*
X00543991Y00414995D02*
Y00416995D01*
X00534991Y00447995D02*
X00536991D01*
X00535991Y00446995D02*
Y00448995D01*
X00526991Y00447995D02*
X00528991D01*
X00527991Y00446995D02*
Y00448995D01*
X00292000Y00396625D02*
X00294000D01*
X00293000Y00395625D02*
Y00397625D01*
X00292000Y00391375D02*
X00294000D01*
X00293000Y00390375D02*
Y00392375D01*
X00354500Y00411625D02*
X00356500D01*
X00355500Y00410625D02*
Y00412625D01*
X00354500Y00406375D02*
X00356500D01*
X00355500Y00405375D02*
Y00407375D01*
X00320000Y00448000D02*
X00322000D01*
X00321000Y00447000D02*
Y00449000D01*
X00353941Y00456625D02*
X00355941D01*
X00354941Y00455625D02*
Y00457625D01*
X00353941Y00451375D02*
X00355941D01*
X00354941Y00450375D02*
Y00452375D01*
X00278524Y00456000D02*
X00280524D01*
X00279524Y00455000D02*
Y00457000D01*
X00283774Y00456000D02*
X00285774D01*
X00284774Y00455000D02*
Y00457000D01*
X00638000Y00416625D02*
X00640000D01*
X00639000Y00415625D02*
Y00417625D01*
X00638000Y00411375D02*
X00640000D01*
X00639000Y00410375D02*
Y00412375D01*
X00551000Y00388000D02*
X00553000D01*
X00552000Y00387000D02*
Y00389000D01*
X00551000Y00382750D02*
X00553000D01*
X00552000Y00381750D02*
Y00383750D01*
X00542991Y00399995D02*
X00544991D01*
X00543991Y00398995D02*
Y00400995D01*
X00550991Y00399995D02*
X00552991D01*
X00551991Y00398995D02*
Y00400995D01*
X00264000Y00494375D02*
X00266000D01*
X00265000Y00493375D02*
Y00495375D01*
X00264000Y00489125D02*
X00266000D01*
X00265000Y00488125D02*
Y00490125D01*
X00634000Y00446625D02*
X00636000D01*
X00635000Y00445625D02*
Y00447625D01*
X00634000Y00441375D02*
X00636000D01*
X00635000Y00440375D02*
Y00442375D01*
X00269500Y00451250D02*
X00271500D01*
X00270500Y00450250D02*
Y00452250D01*
X00269500Y00446000D02*
X00271500D01*
X00270500Y00445000D02*
Y00447000D01*
X00316750Y00368000D02*
X00318750D01*
X00317750Y00367000D02*
Y00369000D01*
X00322000Y00368000D02*
X00324000D01*
X00323000Y00367000D02*
Y00369000D01*
X00459934Y00585750D02*
X00461934D01*
X00460934Y00584750D02*
Y00586750D01*
X00465184Y00585750D02*
X00467184D01*
X00466184Y00584750D02*
Y00586750D01*
X00478676Y00601669D02*
X00480676D01*
X00479676Y00600669D02*
Y00602669D01*
X00478676Y00596419D02*
X00480676D01*
X00479676Y00595419D02*
Y00597419D01*
X00501934Y00601669D02*
X00503934D01*
X00502934Y00600669D02*
Y00602669D01*
X00501934Y00596419D02*
X00503934D01*
X00502934Y00595419D02*
Y00597419D01*
X00553983Y00492000D02*
X00555983D01*
X00554983Y00491000D02*
Y00493000D01*
X00559233Y00492000D02*
X00561233D01*
X00560233Y00491000D02*
Y00493000D01*
X00534991Y00567995D02*
X00536991D01*
X00535991Y00566995D02*
Y00568995D01*
X00534991Y00559995D02*
X00536991D01*
X00535991Y00558995D02*
Y00560995D01*
X00430250Y00585781D02*
X00432250D01*
X00431250Y00584781D02*
Y00586781D01*
X00563686Y00555500D02*
X00565686D01*
X00564686Y00554500D02*
Y00556500D01*
X00558436Y00555500D02*
X00560436D01*
X00559436Y00554500D02*
Y00556500D01*
X00658000Y00494575D02*
X00660000D01*
X00659000Y00493575D02*
Y00495575D01*
X00658000Y00489325D02*
X00660000D01*
X00659000Y00488325D02*
Y00490325D01*
X00430250Y00591031D02*
X00432250D01*
X00431250Y00590031D02*
Y00592031D01*
X00366750Y00358000D02*
X00368750D01*
X00367750Y00357000D02*
Y00359000D01*
X00530875Y00636750D02*
X00532875D01*
X00531875Y00635750D02*
Y00637750D01*
X00522500Y00636750D02*
X00524500D01*
X00523500Y00635750D02*
Y00637750D01*
X00539250Y00636750D02*
X00541250D01*
X00540250Y00635750D02*
Y00637750D01*
X00539250Y00628375D02*
X00541250D01*
X00540250Y00627375D02*
Y00629375D01*
X00522500Y00628375D02*
X00524500D01*
X00523500Y00627375D02*
Y00629375D01*
X00530875Y00628375D02*
X00532875D01*
X00531875Y00627375D02*
Y00629375D01*
X00539250Y00620000D02*
X00541250D01*
X00540250Y00619000D02*
Y00621000D01*
X00522500Y00620000D02*
X00524500D01*
X00523500Y00619000D02*
Y00621000D01*
X00530875Y00620000D02*
X00532875D01*
X00531875Y00619000D02*
Y00621000D01*
X00408000Y00636000D02*
X00410000D01*
X00409000Y00635000D02*
Y00637000D01*
X00438894Y00645000D02*
X00440894D01*
X00439894Y00644000D02*
Y00646000D01*
X00438894Y00636000D02*
X00440894D01*
X00439894Y00635000D02*
Y00637000D01*
X00408000Y00645000D02*
X00410000D01*
X00409000Y00644000D02*
Y00646000D01*
X00287250Y00496750D02*
X00289250D01*
X00288250Y00495750D02*
Y00497750D01*
X00366931Y00438121D02*
X00368931D01*
X00367931Y00437121D02*
Y00439121D01*
X00372181Y00438121D02*
X00374181D01*
X00373181Y00437121D02*
Y00439121D01*
X00366931Y00458750D02*
X00368931D01*
X00367931Y00457750D02*
Y00459750D01*
X00372181Y00458750D02*
X00374181D01*
X00373181Y00457750D02*
Y00459750D01*
X00616750Y00525250D02*
X00618750D01*
X00617750Y00524250D02*
Y00526250D01*
X00615750Y00519500D02*
X00617750D01*
X00616750Y00518500D02*
Y00520500D01*
X00291750Y00381625D02*
X00293750D01*
X00292750Y00380625D02*
Y00382625D01*
X00291750Y00376375D02*
X00293750D01*
X00292750Y00375375D02*
Y00377375D01*
X00280750Y00561750D02*
X00282750D01*
X00281750Y00560750D02*
Y00562750D01*
X00283500Y00633000D02*
X00285500D01*
X00284500Y00632000D02*
Y00634000D01*
M02*
