G04 Layer_Physical_Order=7*
G04 Layer_Color=8388736*
%FSAX44Y44*%
%MOMM*%
G71*
G01*
G75*
%ADD64C,0.6000*%
%ADD67C,0.3048*%
%ADD73C,0.4000*%
%ADD76C,0.2540*%
%ADD96C,1.8500*%
%ADD98C,0.9500*%
%ADD99C,1.1000*%
%ADD100C,1.2000*%
%ADD101C,0.9000*%
%ADD103C,1.3000*%
%ADD105C,2.9000*%
%ADD108C,2.1000*%
%ADD109C,1.8000*%
%ADD110C,1.9000*%
%ADD112R,3.4925X5.0800*%
%ADD113R,20.3200X5.0800*%
G36*
X00329250Y00591750D02*
Y00549000D01*
X00286750D01*
Y00592750D01*
X00328250D01*
X00329250Y00591750D01*
D02*
G37*
G36*
X00704000Y00274000D02*
X00674000Y00274000D01*
Y00654000D01*
X00704000Y00654000D01*
Y00274000D01*
D02*
G37*
G36*
X00519750Y00621250D02*
X00497250D01*
Y00634750D01*
X00519750D01*
Y00621250D01*
D02*
G37*
G36*
X00620150Y00612600D02*
X00564900D01*
X00556000Y00621500D01*
X00544750D01*
X00544750Y00635500D01*
X00555710Y00635500D01*
X00563250Y00642483D01*
Y00674000D01*
X00620150D01*
X00620150Y00612600D01*
D02*
G37*
D64*
X00407991Y00551995D02*
D03*
X00399991D02*
D03*
X00535991Y00503995D02*
D03*
X00545250Y00668250D02*
D03*
X00883000Y00385000D02*
D03*
X00346250Y00354500D02*
D03*
X00425250Y00636000D02*
D03*
Y00644750D02*
D03*
X01083994Y00441334D02*
D03*
Y00446584D02*
D03*
X00771494Y00471586D02*
D03*
Y00436336D02*
D03*
Y00441586D02*
D03*
X00744006Y00391334D02*
D03*
Y00396584D02*
D03*
X00744000Y00451370D02*
D03*
Y00456620D02*
D03*
Y00376335D02*
D03*
Y00381585D02*
D03*
X00803994Y00391334D02*
D03*
Y00396584D02*
D03*
X00771500Y00406333D02*
D03*
Y00411582D02*
D03*
X01107000Y00506460D02*
D03*
X01022000Y00570960D02*
D03*
X00995000Y00389960D02*
D03*
X00986000Y00457960D02*
D03*
X00978250Y00436960D02*
D03*
X01002470Y00427473D02*
D03*
X01000859Y00437210D02*
D03*
X00771494Y00466336D02*
D03*
X01054250Y00400210D02*
D03*
X01008000Y00406460D02*
D03*
X01003500Y00399460D02*
D03*
X00960000Y00293960D02*
D03*
Y00288710D02*
D03*
Y00283460D02*
D03*
Y00278210D02*
D03*
X00954000D02*
D03*
Y00283460D02*
D03*
Y00288710D02*
D03*
Y00293960D02*
D03*
X00960599Y00383935D02*
D03*
X00981935Y00521349D02*
D03*
X00741758Y00532359D02*
D03*
X00774270Y00533737D02*
D03*
X00779506Y00531459D02*
D03*
X00746994Y00541496D02*
D03*
X00779506Y00546459D02*
D03*
X00746994Y00546496D02*
D03*
X00779506Y00556459D02*
D03*
X00804000Y00366300D02*
D03*
Y00371550D02*
D03*
X00803994Y00501584D02*
D03*
Y00496334D02*
D03*
Y00516584D02*
D03*
Y00511334D02*
D03*
X00744006Y00516584D02*
D03*
Y00501584D02*
D03*
Y00496334D02*
D03*
X00744000Y00486620D02*
D03*
Y00481370D02*
D03*
X00744006Y00426584D02*
D03*
Y00421334D02*
D03*
X01026994Y00396461D02*
D03*
X01054270Y00378289D02*
D03*
X01026994Y00381461D02*
D03*
X01059506Y00381424D02*
D03*
X01026994Y00371461D02*
D03*
X01059506Y00371426D02*
D03*
X01083994Y00416584D02*
D03*
Y00411334D02*
D03*
Y00431584D02*
D03*
Y00426334D02*
D03*
X01024000Y00431585D02*
D03*
Y00426335D02*
D03*
X01024006Y00416584D02*
D03*
Y00411334D02*
D03*
X01003250Y00312960D02*
D03*
X01037250Y00301210D02*
D03*
X00873162Y00662187D02*
D03*
X00892719Y00636673D02*
D03*
X00897594D02*
D03*
X00902469D02*
D03*
X00892469Y00631923D02*
D03*
X00897594D02*
D03*
X00902719D02*
D03*
X00854719Y00593673D02*
D03*
X00860219D02*
D03*
X00865719D02*
D03*
X00871219D02*
D03*
X00876719D02*
D03*
X01053000Y00606960D02*
D03*
X01059000D02*
D03*
X01065000D02*
D03*
X01071000D02*
D03*
X01016000Y00570960D02*
D03*
X01010000D02*
D03*
X01004000D02*
D03*
X00950309Y00347958D02*
D03*
X00955464Y00347957D02*
D03*
X00945155Y00347959D02*
D03*
X00934845Y00347961D02*
D03*
X00940000Y00347960D02*
D03*
X00932414Y00567210D02*
D03*
X00936300Y00619342D02*
D03*
X00744006Y00511334D02*
D03*
X00803994Y00481429D02*
D03*
X00479991Y00407995D02*
D03*
X00439991Y00407995D02*
D03*
X00284000Y00512000D02*
D03*
X00567500Y00468000D02*
D03*
X00560000Y00524250D02*
D03*
X00560849Y00516000D02*
D03*
X00555599D02*
D03*
X00272500Y00434250D02*
D03*
X00266000D02*
D03*
X00284000Y00434750D02*
D03*
X00566000Y00519750D02*
D03*
X00565000Y00528750D02*
D03*
X00562750Y00455750D02*
D03*
X00571750Y00461250D02*
D03*
X00617000Y00468500D02*
D03*
X00568250Y00590250D02*
D03*
X00560500Y00590750D02*
D03*
X00564750Y00594250D02*
D03*
X00527125Y00598875D02*
D03*
X00502000Y00617500D02*
D03*
X00262750Y00527500D02*
D03*
X00262500Y00535750D02*
D03*
X00280250Y00392250D02*
D03*
X00290750Y00309500D02*
D03*
X00321250Y00325000D02*
D03*
X00378000Y00263000D02*
D03*
X00590500Y00315750D02*
D03*
X00589750Y00309000D02*
D03*
X00271250Y00589750D02*
D03*
X00486250Y00649000D02*
D03*
X00479250Y00618000D02*
D03*
X00629500Y00586500D02*
D03*
X00637000Y00560000D02*
D03*
X00607750Y00573000D02*
D03*
X00553265Y00562765D02*
D03*
X00519991Y00511995D02*
D03*
X00571000Y00491750D02*
D03*
X00573851Y00511500D02*
D03*
X00528000Y00504004D02*
D03*
X00479991Y00487995D02*
D03*
X00495991Y00495995D02*
D03*
X00487991Y00495995D02*
D03*
X00555000Y00442000D02*
D03*
X00263250Y00518000D02*
D03*
Y00512000D02*
D03*
X00272750Y00603250D02*
D03*
X00491500Y00638500D02*
D03*
X00358250Y00592000D02*
D03*
X00481500Y00634000D02*
D03*
X00365750Y00417000D02*
D03*
X00375000Y00412000D02*
D03*
X00263990Y00506490D02*
D03*
Y00500000D02*
D03*
X00371577Y00504891D02*
D03*
X00336750Y00465250D02*
D03*
X00423991Y00439995D02*
D03*
X00328000Y00399000D02*
D03*
X00297500Y00339500D02*
D03*
X00315000Y00359000D02*
D03*
X00295250Y00279250D02*
D03*
X00290000Y00351750D02*
D03*
X00339750Y00277000D02*
D03*
X00335750Y00324750D02*
D03*
X00412000Y00274000D02*
D03*
X00326250Y00331500D02*
D03*
X00291500Y00315750D02*
D03*
X00295500Y00286750D02*
D03*
X00290250Y00290500D02*
D03*
X00363750Y00276250D02*
D03*
X00357000Y00288000D02*
D03*
X00292000Y00261500D02*
D03*
X00303500Y00333000D02*
D03*
X00311500Y00437500D02*
D03*
X00331000Y00381000D02*
D03*
X00317000Y00400250D02*
D03*
X00322500Y00425000D02*
D03*
X00290000Y00322500D02*
D03*
X00290750Y00364750D02*
D03*
X00551000Y00613750D02*
D03*
X00538875Y00594022D02*
D03*
X00539000Y00598750D02*
D03*
X00533500D02*
D03*
Y00594000D02*
D03*
X00508437Y00608000D02*
D03*
X00508498Y00613022D02*
D03*
X00514312D02*
D03*
X00514250Y00608000D02*
D03*
X00664500Y00613250D02*
D03*
X00276500Y00465500D02*
D03*
X00366349Y00482000D02*
D03*
X00371599D02*
D03*
X00572750Y00486500D02*
D03*
X00270001Y00473511D02*
D03*
X00388257Y00643519D02*
D03*
X00617750Y00416000D02*
D03*
X00617500Y00427250D02*
D03*
X00616250Y00411500D02*
D03*
X00551000Y00642750D02*
D03*
X00442833Y00336750D02*
D03*
X00445500Y00332750D02*
D03*
X00423000Y00325500D02*
D03*
X00438083Y00337000D02*
D03*
X00433500D02*
D03*
X00428917D02*
D03*
X00424333D02*
D03*
X00420500Y00387000D02*
D03*
X00423992Y00511995D02*
D03*
X00472500Y00372250D02*
D03*
X00474500Y00377500D02*
D03*
X00453250Y00378250D02*
D03*
X00446750Y00378000D02*
D03*
X00469750Y00377500D02*
D03*
X00399500Y00371250D02*
D03*
X00460250Y00377500D02*
D03*
X00465000D02*
D03*
X00472500Y00367000D02*
D03*
X00327750Y00553000D02*
D03*
Y00559300D02*
D03*
Y00565600D02*
D03*
Y00571900D02*
D03*
X00322450Y00591250D02*
D03*
X00316800D02*
D03*
X00311150D02*
D03*
X00305500D02*
D03*
X00299850D02*
D03*
X00294200D02*
D03*
X00289500Y00583750D02*
D03*
Y00576688D02*
D03*
Y00569625D02*
D03*
Y00562562D02*
D03*
Y00555500D02*
D03*
X00337500Y00568250D02*
D03*
X00569913Y00299040D02*
D03*
X00569763Y00305520D02*
D03*
X00400000Y00359000D02*
D03*
Y00364250D02*
D03*
X00418250Y00312250D02*
D03*
X00405750D02*
D03*
X00392900Y00337750D02*
D03*
X00380000Y00330000D02*
D03*
X00374500D02*
D03*
X00565750Y00398000D02*
D03*
X00510184Y00573434D02*
D03*
X00499710Y00630875D02*
D03*
Y00625625D02*
D03*
X00464000Y00645000D02*
D03*
X00469250D02*
D03*
X00519991Y00423995D02*
D03*
Y00431995D02*
D03*
X00503991Y00399995D02*
D03*
X00527991Y00399995D02*
D03*
X00535991D02*
D03*
X00374520Y00466375D02*
D03*
Y00471625D02*
D03*
X00433750Y00609250D02*
D03*
X00410500Y00613000D02*
D03*
X00403000Y00612875D02*
D03*
X00568250Y00482250D02*
D03*
X00357505Y00501512D02*
D03*
X00537000Y00573500D02*
D03*
X00553648Y00531995D02*
D03*
X00569000Y00570000D02*
D03*
X00573500Y00541500D02*
D03*
X00617000Y00480000D02*
D03*
X00618351Y00531500D02*
D03*
X00617768Y00547514D02*
D03*
X00651000Y00541250D02*
D03*
X00618351Y00501500D02*
D03*
X00617000Y00493000D02*
D03*
X00618351Y00486500D02*
D03*
Y00511500D02*
D03*
X00565000Y00439750D02*
D03*
X00595000Y00427000D02*
D03*
X00648250Y00426500D02*
D03*
X00572250Y00449750D02*
D03*
X00503991Y00455995D02*
D03*
X00635500Y00456500D02*
D03*
X00321000Y00442750D02*
D03*
X00471991Y00463995D02*
D03*
X00503991Y00431995D02*
D03*
X00495991Y00439995D02*
D03*
X00503991Y00439995D02*
D03*
X00455964Y00391984D02*
D03*
X00383991Y00423995D02*
D03*
X00355905Y00479243D02*
D03*
X00658000Y00321000D02*
D03*
X00644000Y00320000D02*
D03*
X00639000Y00325000D02*
D03*
X00592000Y00327000D02*
D03*
X00630000Y00333000D02*
D03*
X00272356Y00617215D02*
D03*
X00280055Y00618212D02*
D03*
X00503991Y00447995D02*
D03*
X00666500Y00463750D02*
D03*
X00357000Y00553000D02*
D03*
X00406000Y00387000D02*
D03*
X00412000Y00388000D02*
D03*
X00487991Y00463995D02*
D03*
X00473000Y00635000D02*
D03*
X00511992Y00559995D02*
D03*
X00511992Y00567995D02*
D03*
X00535992Y00511995D02*
D03*
X00362250Y00526250D02*
D03*
X00324500Y00491500D02*
D03*
X00318000Y00492000D02*
D03*
X00383991Y00519995D02*
D03*
X00391991Y00503995D02*
D03*
X00668727Y00488364D02*
D03*
X00383991Y00503995D02*
D03*
X00649000Y00482000D02*
D03*
X00654000Y00312000D02*
D03*
X00664500Y00412500D02*
D03*
X00388000Y00372000D02*
D03*
X00394000Y00364250D02*
D03*
Y00359000D02*
D03*
X00407991Y00503995D02*
D03*
X00407991Y00495995D02*
D03*
X00399983Y00487990D02*
D03*
X00512650Y00286650D02*
D03*
X00450000Y00275000D02*
D03*
X00435000Y00269000D02*
D03*
X00570000Y00507000D02*
D03*
X00527991Y00407995D02*
D03*
X00424000Y00600000D02*
D03*
X00425000Y00611000D02*
D03*
X00460500Y00667500D02*
D03*
X00461000Y00657000D02*
D03*
X00439000Y00667000D02*
D03*
X00398000Y00669000D02*
D03*
X00415000Y00669000D02*
D03*
X00535992Y00495995D02*
D03*
X00527991D02*
D03*
X00487991Y00511995D02*
D03*
X00479991Y00511995D02*
D03*
X00408000Y00440000D02*
D03*
X00415995Y00399995D02*
D03*
X00399991D02*
D03*
X00503991Y00415995D02*
D03*
X00511991D02*
D03*
X00487991Y00415995D02*
D03*
Y00407995D02*
D03*
X00495991Y00399995D02*
D03*
X00479991Y00415995D02*
D03*
X00511991Y00407995D02*
D03*
X00519991D02*
D03*
Y00415995D02*
D03*
X00519991Y00391995D02*
D03*
X00487991Y00391995D02*
D03*
X00511992Y00391995D02*
D03*
X00495983Y00447991D02*
D03*
X00495996Y00463987D02*
D03*
Y00471987D02*
D03*
X00563288Y00429712D02*
D03*
X00567000Y00426000D02*
D03*
X00358000Y00516000D02*
D03*
Y00522000D02*
D03*
X00601488Y00594000D02*
D03*
X00519991Y00455995D02*
D03*
X00503991Y00479995D02*
D03*
X00503991Y00471995D02*
D03*
X00652834Y00502367D02*
D03*
X00649859Y00511084D02*
D03*
X00543991Y00447995D02*
D03*
X00656000Y00527425D02*
D03*
Y00532675D02*
D03*
X00570000Y00560000D02*
D03*
X00559436Y00534115D02*
D03*
X00463991Y00487995D02*
D03*
X00471991Y00487995D02*
D03*
Y00471995D02*
D03*
X00463992Y00471995D02*
D03*
X00463991Y00479995D02*
D03*
Y00439995D02*
D03*
X00357505Y00507512D02*
D03*
X00423992Y00543995D02*
D03*
X00416195Y00559949D02*
D03*
X00391991Y00559995D02*
D03*
X00383992Y00551995D02*
D03*
X00335267Y00470750D02*
D03*
X00618351Y00461500D02*
D03*
X00634149Y00396500D02*
D03*
Y00421500D02*
D03*
X00573851Y00396500D02*
D03*
Y00381500D02*
D03*
X00662108Y00512336D02*
D03*
X00519991Y00535995D02*
D03*
Y00527995D02*
D03*
X00335877Y00536998D02*
D03*
X00653992Y00596173D02*
D03*
X00638852Y00624573D02*
D03*
X00455992Y00415995D02*
D03*
X00426000Y00667999D02*
D03*
X00407000Y00665350D02*
D03*
X00503975Y00638000D02*
D03*
X00392444Y00659500D02*
D03*
X00419000Y00665350D02*
D03*
X00383991Y00471995D02*
D03*
X00324750Y00506500D02*
D03*
X00455991Y00447995D02*
D03*
X00471991Y00519995D02*
D03*
X00487991Y00439995D02*
D03*
Y00447995D02*
D03*
X00415991Y00423995D02*
D03*
X00407991Y00399995D02*
D03*
X00407991Y00423995D02*
D03*
X00543991Y00503995D02*
D03*
X00535991Y00487995D02*
D03*
X00527991D02*
D03*
X00511991D02*
D03*
Y00455995D02*
D03*
X00535991D02*
D03*
X00455992Y00527995D02*
D03*
X00495991Y00519995D02*
D03*
X00495991Y00511995D02*
D03*
X00430900Y00287050D02*
D03*
X00418400Y00274350D02*
D03*
X00526248Y00357100D02*
D03*
Y00362529D02*
D03*
X00531300Y00273549D02*
D03*
X00503451D02*
D03*
X00479500Y00273700D02*
D03*
X00488000Y00334000D02*
D03*
X00480000D02*
D03*
X00472000D02*
D03*
X00505648Y00337321D02*
D03*
X00518900Y00337400D02*
D03*
X00505500Y00344000D02*
D03*
X00525000Y00337350D02*
D03*
X00537950D02*
D03*
X00525000Y00324650D02*
D03*
X00512550Y00337400D02*
D03*
X00505500Y00350679D02*
D03*
X00525150Y00312050D02*
D03*
X00538050D02*
D03*
X00499950Y00299350D02*
D03*
X00525350Y00273950D02*
D03*
X00525150Y00350050D02*
D03*
X00499950Y00312050D02*
D03*
X00512650Y00299270D02*
D03*
X00538050Y00299350D02*
D03*
X00563400Y00312050D02*
D03*
X00493587Y00305520D02*
D03*
Y00312000D02*
D03*
X00449963Y00312400D02*
D03*
X00364500Y00333609D02*
D03*
X00359125D02*
D03*
X00353750D02*
D03*
X00373937Y00312400D02*
D03*
X00443600Y00299750D02*
D03*
X00464000Y00324000D02*
D03*
Y00334000D02*
D03*
X00450113Y00305920D02*
D03*
X00373937D02*
D03*
X00443750Y00312450D02*
D03*
X00418400Y00299750D02*
D03*
X00393000Y00299670D02*
D03*
X00380300Y00312450D02*
D03*
X00418250Y00349750D02*
D03*
X00405700Y00274350D02*
D03*
X00393043D02*
D03*
X00380300Y00299750D02*
D03*
X00386402Y00351158D02*
D03*
X00405500Y00325050D02*
D03*
X00418300Y00337750D02*
D03*
X00407250D02*
D03*
X00399250Y00337800D02*
D03*
X00386550D02*
D03*
X00527991Y00455995D02*
D03*
X00535991Y00431995D02*
D03*
X00511991Y00423995D02*
D03*
X00519991Y00399995D02*
D03*
X00543991Y00495995D02*
D03*
X00519991Y00487995D02*
D03*
X00535991Y00527995D02*
D03*
Y00535995D02*
D03*
Y00551995D02*
D03*
X00527991Y00567995D02*
D03*
X00511991Y00535995D02*
D03*
X00503991Y00543995D02*
D03*
X00495991Y00535995D02*
D03*
X00495992Y00559995D02*
D03*
X00503991Y00551995D02*
D03*
X00487991Y00543995D02*
D03*
Y00551995D02*
D03*
X00479991D02*
D03*
Y00543995D02*
D03*
X00471991Y00551995D02*
D03*
X00503991Y00535995D02*
D03*
X00527991Y00527995D02*
D03*
X00495991D02*
D03*
X00479991D02*
D03*
X00527991Y00559995D02*
D03*
X00511991Y00511995D02*
D03*
X00471991Y00503995D02*
D03*
X00487991Y00503995D02*
D03*
X00455991Y00519995D02*
D03*
X00455992Y00511995D02*
D03*
Y00503995D02*
D03*
X00455991Y00495995D02*
D03*
X00471991Y00495995D02*
D03*
X00487991Y00487995D02*
D03*
X00447991Y00519995D02*
D03*
X00447991Y00511995D02*
D03*
Y00503995D02*
D03*
Y00495995D02*
D03*
X00439991Y00487995D02*
D03*
X00439991Y00495995D02*
D03*
X00439991Y00503995D02*
D03*
Y00511995D02*
D03*
Y00519995D02*
D03*
X00431992D02*
D03*
Y00511995D02*
D03*
Y00503995D02*
D03*
Y00495995D02*
D03*
Y00487995D02*
D03*
X00471991Y00423995D02*
D03*
X00479991Y00439995D02*
D03*
X00431991Y00455995D02*
D03*
X00439991D02*
D03*
X00447991D02*
D03*
X00431991Y00447995D02*
D03*
X00439991D02*
D03*
X00447991D02*
D03*
X00431991Y00439995D02*
D03*
X00415991Y00407995D02*
D03*
X00423992Y00423995D02*
D03*
X00415991Y00447995D02*
D03*
X00391991Y00439995D02*
D03*
X00399991Y00415995D02*
D03*
X00391991Y00399995D02*
D03*
X00391992Y00487995D02*
D03*
X00399991Y00503995D02*
D03*
X00391992Y00527995D02*
D03*
X00415992Y00535995D02*
D03*
X00439991Y00543995D02*
D03*
X00399991D02*
D03*
X00431992Y00527995D02*
D03*
X00455992Y00535995D02*
D03*
X00407991Y00519995D02*
D03*
X00447991Y00439995D02*
D03*
X00383991Y00495995D02*
D03*
X00383991Y00447995D02*
D03*
Y00527995D02*
D03*
X00535991Y00543995D02*
D03*
X00479991Y00519995D02*
D03*
X00487991D02*
D03*
X00479991Y00535995D02*
D03*
X00311644Y00521500D02*
D03*
Y00506500D02*
D03*
X00408000Y00358000D02*
D03*
Y00364250D02*
D03*
Y00371000D02*
D03*
X00312039Y00491500D02*
D03*
X00527991Y00535995D02*
D03*
X00519991Y00519995D02*
D03*
X00511991Y00527995D02*
D03*
X00487991Y00535995D02*
D03*
X00487991Y00527995D02*
D03*
X00471991Y00543995D02*
D03*
X00471991Y00535995D02*
D03*
Y00527995D02*
D03*
X00455991Y00544035D02*
D03*
X00447991Y00543995D02*
D03*
X00431992Y00543995D02*
D03*
X00439991Y00535995D02*
D03*
X00431991Y00535995D02*
D03*
X00447991Y00535995D02*
D03*
X00495992Y00503995D02*
D03*
X00495991Y00487995D02*
D03*
X00503991Y00423995D02*
D03*
X00479991Y00447995D02*
D03*
X00511991Y00431995D02*
D03*
Y00439995D02*
D03*
X00527991Y00511995D02*
D03*
X00519991Y00463995D02*
D03*
X00527991D02*
D03*
X00535991D02*
D03*
X00503991Y00463995D02*
D03*
X00479991Y00463995D02*
D03*
X00511991Y00463995D02*
D03*
X00511992Y00471995D02*
D03*
X00519991D02*
D03*
X00527991D02*
D03*
X00407991Y00471995D02*
D03*
X00431992D02*
D03*
X00439991D02*
D03*
X00479991D02*
D03*
X00487991D02*
D03*
X00447991Y00487995D02*
D03*
Y00471995D02*
D03*
X00455992Y00471995D02*
D03*
X00423992Y00471995D02*
D03*
X00495992Y00479995D02*
D03*
X00649150Y00549100D02*
D03*
X00527991Y00479995D02*
D03*
X00543991Y00407995D02*
D03*
X00355250Y00561500D02*
D03*
X00337250Y00556500D02*
D03*
X00355250Y00546500D02*
D03*
Y00541500D02*
D03*
X00360250Y00531500D02*
D03*
X00526248Y00367958D02*
D03*
X00491000Y00575500D02*
D03*
X00543992Y00511995D02*
D03*
X00551991Y00567995D02*
D03*
X00543995Y00552009D02*
D03*
X00649150Y00472900D02*
D03*
X00472005Y00559991D02*
D03*
X00452000Y00665000D02*
D03*
X00512005Y00551991D02*
D03*
X00512005Y00543991D02*
D03*
X00447991Y00551995D02*
D03*
X00366327Y00504891D02*
D03*
X00389103Y00668201D02*
D03*
X00511991Y00519995D02*
D03*
X00600599Y00584000D02*
D03*
X00571000Y00533649D02*
D03*
X00574000Y00548000D02*
D03*
X00572650Y00471217D02*
D03*
X00618351Y00541500D02*
D03*
X00503991Y00487995D02*
D03*
X00563000Y00388000D02*
D03*
X00503991Y00495995D02*
D03*
X00388000Y00359000D02*
D03*
Y00364250D02*
D03*
X00526248Y00373388D02*
D03*
X00533500Y00379250D02*
D03*
X00374000Y00397000D02*
D03*
X00407991Y00463995D02*
D03*
X00557080Y00436547D02*
D03*
X00429500Y00605250D02*
D03*
X00395500Y00621750D02*
D03*
X00383500Y00613750D02*
D03*
X00404500Y00592750D02*
D03*
X00390500Y00614500D02*
D03*
X00495992Y00391995D02*
D03*
X00503992D02*
D03*
X00501250Y00382000D02*
D03*
X00429509Y00374741D02*
D03*
X00434500Y00369750D02*
D03*
X00472500Y00361250D02*
D03*
X00525250Y00331000D02*
D03*
X00550500Y00326750D02*
D03*
X00551750Y00339750D02*
D03*
X00552000Y00358250D02*
D03*
X00546750Y00339750D02*
D03*
X00556750D02*
D03*
X00624750Y00333000D02*
D03*
X00561750Y00339750D02*
D03*
X00618500Y00391750D02*
D03*
X00617250Y00383250D02*
D03*
X00474750Y00645000D02*
D03*
X00472000Y00611750D02*
D03*
X00477250Y00607750D02*
D03*
X00507000Y00579000D02*
D03*
X00661750Y00530000D02*
D03*
X00663750Y00492250D02*
D03*
X00475000Y00579750D02*
D03*
X00655500Y00404750D02*
D03*
X00557500Y00382500D02*
D03*
X00431992Y00567995D02*
D03*
X00290000Y00457750D02*
D03*
X00293250Y00462250D02*
D03*
X00634978Y00371272D02*
D03*
X00351500Y00579000D02*
D03*
X00573851Y00496500D02*
D03*
X00573000Y00502500D02*
D03*
X00595250Y00359000D02*
D03*
X00566750Y00339750D02*
D03*
X00539000Y00379250D02*
D03*
X00291500Y00526250D02*
D03*
X00320250Y00526000D02*
D03*
X00479000Y00391000D02*
D03*
X00563250Y00299350D02*
D03*
X00615250Y00263000D02*
D03*
X00615000Y00332750D02*
D03*
X00650250Y00305000D02*
D03*
X00560400Y00269000D02*
D03*
X00567250Y00287500D02*
D03*
X00494500Y00274000D02*
D03*
X00551250Y00285500D02*
D03*
X00517750Y00261000D02*
D03*
X00511500Y00273250D02*
D03*
X00536250Y00286500D02*
D03*
X00616250Y00272500D02*
D03*
X00643250Y00298000D02*
D03*
X00609750Y00336250D02*
D03*
X00613250Y00362750D02*
D03*
X00627250Y00358250D02*
D03*
X00535991Y00423995D02*
D03*
Y00439995D02*
D03*
X00511991Y00495995D02*
D03*
X00519991D02*
D03*
X00503991Y00503995D02*
D03*
X00511992Y00503995D02*
D03*
X00519991Y00503995D02*
D03*
X00357250Y00496000D02*
D03*
X00310250Y00446500D02*
D03*
X00275000Y00541750D02*
D03*
X00282750Y00546500D02*
D03*
X00281000Y00554000D02*
D03*
X00264750Y00578250D02*
D03*
X00322250Y00454250D02*
D03*
X00321000Y00460750D02*
D03*
X00330250Y00430250D02*
D03*
X00311500Y00368000D02*
D03*
X00354250Y00381500D02*
D03*
X00293250Y00414750D02*
D03*
X00575250Y00323500D02*
D03*
X00471000Y00273000D02*
D03*
X00407000Y00264000D02*
D03*
X00262500Y00541000D02*
D03*
X00265000Y00585250D02*
D03*
X00279750Y00584000D02*
D03*
X00503991Y00511995D02*
D03*
X00439991Y00415995D02*
D03*
X00471992Y00455995D02*
D03*
X00455991Y00463995D02*
D03*
X00568250Y00281000D02*
D03*
X00593750Y00289750D02*
D03*
X00588875D02*
D03*
X00598625D02*
D03*
X00583000Y00322500D02*
D03*
X00296000Y00358750D02*
D03*
X00551500Y00276250D02*
D03*
X00335750Y00446500D02*
D03*
X00271000Y00464500D02*
D03*
X00371500Y00416500D02*
D03*
X00330788Y00448962D02*
D03*
X00590417Y00359000D02*
D03*
X00550500Y00333750D02*
D03*
X00431250Y00596500D02*
D03*
X00595250Y00353250D02*
D03*
Y00347750D02*
D03*
Y00342250D02*
D03*
X00556750Y00345000D02*
D03*
Y00350250D02*
D03*
X00561750D02*
D03*
Y00345000D02*
D03*
X00585583Y00359000D02*
D03*
X00580750D02*
D03*
X00559250Y00354500D02*
D03*
X00655000Y00415250D02*
D03*
Y00410000D02*
D03*
X00564686Y00534115D02*
D03*
X00535991Y00415995D02*
D03*
Y00407995D02*
D03*
X00527991Y00551995D02*
D03*
Y00543995D02*
D03*
X00356671Y00438677D02*
D03*
Y00433427D02*
D03*
X00469250Y00627000D02*
D03*
X00467750Y00632750D02*
D03*
X00460934Y00611705D02*
D03*
X00466184D02*
D03*
X00439750Y00573500D02*
D03*
Y00568250D02*
D03*
X00374199Y00426625D02*
D03*
Y00421375D02*
D03*
X00495991Y00423995D02*
D03*
Y00415995D02*
D03*
X00361500Y00396625D02*
D03*
Y00391375D02*
D03*
X00337462Y00409712D02*
D03*
X00333750Y00406000D02*
D03*
X00293250Y00426625D02*
D03*
Y00421375D02*
D03*
X00543991Y00423995D02*
D03*
Y00415995D02*
D03*
X00535991Y00447995D02*
D03*
X00527991D02*
D03*
X00293000Y00396625D02*
D03*
Y00391375D02*
D03*
X00355500Y00411625D02*
D03*
Y00406375D02*
D03*
X00321000Y00448000D02*
D03*
X00354941Y00456625D02*
D03*
Y00451375D02*
D03*
X00279524Y00456000D02*
D03*
X00284774D02*
D03*
X00639000Y00416625D02*
D03*
Y00411375D02*
D03*
X00552000Y00388000D02*
D03*
Y00382750D02*
D03*
X00543991Y00399995D02*
D03*
X00551991Y00399995D02*
D03*
X00265000Y00494375D02*
D03*
Y00489125D02*
D03*
X00635000Y00446625D02*
D03*
Y00441375D02*
D03*
X00270500Y00451250D02*
D03*
Y00446000D02*
D03*
X00317750Y00368000D02*
D03*
X00323000D02*
D03*
X00460934Y00585750D02*
D03*
X00466184D02*
D03*
X00479676Y00601669D02*
D03*
Y00596419D02*
D03*
X00502934Y00601669D02*
D03*
Y00596419D02*
D03*
X00554983Y00492000D02*
D03*
X00560233D02*
D03*
X00535991Y00567995D02*
D03*
Y00559995D02*
D03*
X00431250Y00585781D02*
D03*
X00564686Y00555500D02*
D03*
X00559436D02*
D03*
X00659000Y00494575D02*
D03*
Y00489325D02*
D03*
X00431250Y00591031D02*
D03*
X00367750Y00358000D02*
D03*
X00531875Y00636750D02*
D03*
X00523500D02*
D03*
X00540250D02*
D03*
Y00628375D02*
D03*
X00523500D02*
D03*
X00531875D02*
D03*
X00540250Y00620000D02*
D03*
X00523500D02*
D03*
X00531875D02*
D03*
X00409000Y00636000D02*
D03*
X00439894Y00645000D02*
D03*
Y00636000D02*
D03*
X00409000Y00645000D02*
D03*
X00288250Y00496750D02*
D03*
X00367931Y00438121D02*
D03*
X00373181D02*
D03*
X00367931Y00458750D02*
D03*
X00373181D02*
D03*
X00617750Y00525250D02*
D03*
X00616750Y00519500D02*
D03*
X00292750Y00381625D02*
D03*
Y00376375D02*
D03*
X00281750Y00561750D02*
D03*
X00284500Y00633000D02*
D03*
D67*
X02319433Y00566693D02*
X02332900Y00553225D01*
X02340596Y00560921D01*
X02338223Y00581635D02*
X02336299Y00582276D01*
X02333734Y00580994D01*
X02332451Y00579711D01*
X02331169Y00577146D01*
X02331810Y00573939D01*
X02334375Y00570091D01*
X02337582Y00566885D01*
X02340788Y00564961D01*
X02343353D01*
X02345919Y00566244D01*
X02346560Y00566885D01*
X02347843Y00569450D01*
X02347843Y00572015D01*
X02346560Y00574581D01*
X02345919Y00575222D01*
X02343353Y00576505D01*
X02340788D01*
X02338223Y00575222D01*
X02337582Y00574581D01*
X02336299Y00572015D01*
X02336299Y00569450D01*
X02337582Y00566885D01*
X02347586Y00579455D02*
X02359130Y00590998D01*
X02362464Y00595616D02*
X02368236Y00601387D01*
X02369519Y00603953D01*
X02369519Y00605235D01*
X02368878Y00607159D01*
X02366954Y00609083D01*
X02365030Y00609724D01*
X02363747D01*
X02361182Y00608442D01*
X02355410Y00602670D01*
X02368878Y00589202D01*
X02371250Y00612097D02*
X02370609Y00612739D01*
X02369968Y00614662D01*
Y00615945D01*
X02370609Y00617869D01*
X02373174Y00620434D01*
X02375098Y00621076D01*
X02376381D01*
X02378305Y00620434D01*
X02379587Y00619152D01*
X02380229Y00617228D01*
X02380870Y00614021D01*
Y00601195D01*
X02389848Y00610173D01*
X02379395Y00626655D02*
X02397993Y00618318D01*
X02389656Y00636916D02*
X02397993Y00618318D01*
X02399083Y00646343D02*
X02392670Y00639930D01*
X02397801Y00633517D01*
Y00634800D01*
X02399083Y00637365D01*
X02401007Y00639289D01*
X02403572Y00640571D01*
X02406138D01*
X02408703Y00639289D01*
X02409986Y00638006D01*
X02411268Y00635441D01*
Y00632876D01*
X02409986Y00630310D01*
X02408062Y00628386D01*
X02405496Y00627104D01*
X02404214D01*
X02402290Y00627745D01*
D73*
X01124000Y00654000D02*
G03*
X01104000Y00674000I-00020000J00000000D01*
G01*
X00724000Y00674000D02*
G03*
X00704000Y00654000I-00000001J-00019999D01*
G01*
X00674000D02*
G03*
X00654000Y00674000I-00019999J00000001D01*
G01*
X00274250Y00674000D02*
G03*
X00254000Y00653749I-00000002J-00020248D01*
G01*
X00254000Y00274000D02*
G03*
X00274000Y00254000I00019999J-00000001D01*
G01*
X00654000D02*
G03*
X00674000Y00274000I00000000J00020000D01*
G01*
X00704000Y00274000D02*
G03*
X00724000Y00254000I00019999J-00000001D01*
G01*
X01104000D02*
G03*
X01124000Y00274000I00000124J00019876D01*
G01*
X01124000D02*
Y00654000D01*
X00724000Y00674000D02*
X01104000Y00674000D01*
X00674000Y00654000D02*
X00704000Y00654000D01*
X00274250Y00674000D02*
X00654000D01*
X00254000Y00274000D02*
X00254000Y00653749D01*
X00274000Y00254000D02*
X00654000D01*
X00674000Y00274000D02*
X00704000Y00274000D01*
X00724000Y00254000D02*
X01104000Y00254000D01*
D76*
X02321980Y00524995D02*
X02309887Y00499600D01*
X02305050Y00524995D02*
X02321980D01*
D96*
X01064000Y00345960D02*
D03*
X01064000Y00581960D02*
D03*
X00618000Y00345000D02*
D03*
Y00583000D02*
D03*
X00338000Y00345000D02*
D03*
Y00583000D02*
D03*
X00784000Y00345960D02*
D03*
X00784000Y00581960D02*
D03*
D98*
X00483000Y00661250D02*
D03*
X00495500D02*
D03*
X00508000D02*
D03*
X00520500D02*
D03*
X00533000D02*
D03*
X00778750Y00274460D02*
D03*
X00311500Y00266500D02*
D03*
X00324000D02*
D03*
D99*
X00644000Y00346408D02*
D03*
X00664000Y00356408D02*
D03*
X00644000Y00366408D02*
D03*
X00664000Y00376408D02*
D03*
X00644000Y00386408D02*
D03*
X00664000Y00336408D02*
D03*
D100*
X00626250Y00265500D02*
D03*
Y00285500D02*
D03*
X00337000Y00634250D02*
D03*
D101*
X00865349Y00509411D02*
D03*
Y00522111D02*
D03*
Y00496711D02*
D03*
X00954249Y00534811D02*
D03*
Y00395111D02*
D03*
X00941549Y00534811D02*
D03*
Y00522111D02*
D03*
Y00509411D02*
D03*
Y00496711D02*
D03*
Y00484011D02*
D03*
Y00471311D02*
D03*
Y00458611D02*
D03*
Y00445911D02*
D03*
Y00433211D02*
D03*
Y00420511D02*
D03*
Y00407811D02*
D03*
Y00395111D02*
D03*
X00928849Y00522111D02*
D03*
Y00509411D02*
D03*
Y00496711D02*
D03*
Y00484011D02*
D03*
Y00471311D02*
D03*
Y00458611D02*
D03*
Y00445911D02*
D03*
Y00433211D02*
D03*
Y00420511D02*
D03*
Y00407811D02*
D03*
X00916149Y00534811D02*
D03*
Y00522111D02*
D03*
Y00509411D02*
D03*
Y00484011D02*
D03*
Y00471311D02*
D03*
Y00458611D02*
D03*
Y00433211D02*
D03*
Y00407811D02*
D03*
Y00395111D02*
D03*
X00903449Y00534811D02*
D03*
Y00522111D02*
D03*
Y00509411D02*
D03*
Y00496711D02*
D03*
X00890749Y00509411D02*
D03*
Y00496711D02*
D03*
Y00484011D02*
D03*
Y00471311D02*
D03*
X00878049Y00509411D02*
D03*
Y00496711D02*
D03*
Y00471311D02*
D03*
Y00445911D02*
D03*
Y00433211D02*
D03*
Y00420511D02*
D03*
Y00407811D02*
D03*
Y00395111D02*
D03*
X00865349Y00484011D02*
D03*
Y00471311D02*
D03*
Y00420511D02*
D03*
Y00407811D02*
D03*
X00954249D02*
D03*
Y00420511D02*
D03*
Y00433211D02*
D03*
Y00445911D02*
D03*
Y00458611D02*
D03*
Y00484011D02*
D03*
Y00496711D02*
D03*
Y00509411D02*
D03*
Y00522111D02*
D03*
X00903449Y00407811D02*
D03*
Y00395111D02*
D03*
Y00420511D02*
D03*
X00890749D02*
D03*
Y00407811D02*
D03*
X00878049Y00484011D02*
D03*
Y00458611D02*
D03*
X00865349Y00445911D02*
D03*
Y00433211D02*
D03*
X00890749Y00445911D02*
D03*
Y00433211D02*
D03*
X00903449Y00458611D02*
D03*
Y00445911D02*
D03*
X00890749Y00522111D02*
D03*
X00878049Y00534811D02*
D03*
Y00522111D02*
D03*
X00903449Y00484011D02*
D03*
Y00471311D02*
D03*
Y00433211D02*
D03*
D103*
X00594750Y00638000D02*
D03*
D105*
X00724000Y00273960D02*
D03*
X01104000D02*
D03*
Y00653960D02*
D03*
X00724000D02*
D03*
X00274000Y00654000D02*
D03*
X00654000D02*
D03*
Y00274000D02*
D03*
X00274000D02*
D03*
D108*
X00362400Y00608850D02*
D03*
Y00659650D02*
D03*
X00311600D02*
D03*
Y00608850D02*
D03*
D109*
X00569350Y00612600D02*
D03*
X00620150D02*
D03*
X00569350Y00663400D02*
D03*
X00620150D02*
D03*
D110*
X00657000Y00447600D02*
D03*
Y00575000D02*
D03*
D112*
X02273438Y00512300D02*
D03*
X02348938Y00513300D02*
D03*
D113*
X02103575Y00512300D02*
D03*
M02*
