G04 Layer_Color=8388736*
%FSAX24Y24*%
%MOIN*%
G70*
G01*
G75*
%ADD16R,0.0244X0.0244*%
%ADD17R,0.0787X0.0354*%
%ADD18C,0.0177*%
%ADD19R,0.0244X0.0244*%
%ADD20R,0.0394X0.0354*%
%ADD21R,0.0571X0.0433*%
%ADD22R,0.0244X0.0228*%
%ADD23R,0.0228X0.0244*%
%ADD24R,0.0295X0.0079*%
%ADD25R,0.0709X0.0945*%
%ADD26R,0.0354X0.0394*%
%ADD27R,0.0315X0.0315*%
%ADD28R,0.0394X0.0394*%
%ADD29R,0.0354X0.0197*%
%ADD30R,0.0453X0.0571*%
%ADD31R,0.0394X0.0374*%
%ADD32R,0.0571X0.0453*%
%ADD33C,0.0394*%
%ADD34R,0.0748X0.0571*%
%ADD35R,0.0394X0.0394*%
%ADD36R,0.0236X0.0433*%
%ADD37O,0.0118X0.0335*%
%ADD38O,0.0335X0.0118*%
%ADD39R,0.2087X0.2087*%
%ADD40R,0.0630X0.0394*%
%ADD41R,0.0079X0.0276*%
%ADD42R,0.0315X0.0433*%
%ADD43R,0.0315X0.0669*%
%ADD44R,0.0472X0.0551*%
%ADD45R,0.0236X0.0394*%
%ADD46O,0.0335X0.0079*%
%ADD47O,0.0079X0.0335*%
%ADD48R,0.1457X0.0650*%
%ADD49R,0.0433X0.0472*%
%ADD50R,0.0315X0.0315*%
%ADD51R,0.0394X0.0236*%
%ADD52R,0.1181X0.0551*%
%ADD53R,0.1181X0.0512*%
%ADD54R,0.0413X0.0256*%
%ADD55R,0.0413X0.0217*%
%ADD56R,0.0807X0.1260*%
%ADD57R,0.0807X0.0256*%
%ADD58R,0.0453X0.0709*%
%ADD59R,0.0709X0.0453*%
%ADD60R,0.0394X0.0374*%
%ADD61R,0.0374X0.0394*%
%ADD62R,0.0571X0.1181*%
%ADD63R,0.0591X0.0118*%
%ADD64R,0.0394X0.0689*%
%ADD79C,0.0120*%
G04:AMPARAMS|DCode=80|XSize=41.3mil|YSize=49.2mil|CornerRadius=10.3mil|HoleSize=0mil|Usage=FLASHONLY|Rotation=0.000|XOffset=0mil|YOffset=0mil|HoleType=Round|Shape=RoundedRectangle|*
%AMROUNDEDRECTD80*
21,1,0.0413,0.0285,0,0,0.0*
21,1,0.0207,0.0492,0,0,0.0*
1,1,0.0207,0.0103,-0.0143*
1,1,0.0207,-0.0103,-0.0143*
1,1,0.0207,-0.0103,0.0143*
1,1,0.0207,0.0103,0.0143*
%
%ADD80ROUNDEDRECTD80*%
%ADD81C,0.0551*%
%ADD82R,0.0591X0.0512*%
%ADD83C,0.0591*%
%ADD84O,0.0827X0.0630*%
%ADD85C,0.0827*%
%ADD86C,0.0630*%
%ADD87R,0.1102X0.0866*%
%ADD88C,0.0945*%
%ADD90C,0.1378*%
%ADD91C,0.0315*%
%ADD92C,0.0157*%
%ADD176C,0.0020*%
%ADD177C,0.0571*%
G36*
X024272Y016250D02*
X024193D01*
Y016358D01*
X024272Y016398D01*
Y016250D01*
D02*
G37*
G36*
X012726Y012687D02*
X012559D01*
Y012785D01*
X012726D01*
Y012687D01*
D02*
G37*
G36*
X013081Y017776D02*
Y017687D01*
X012953D01*
Y017776D01*
X013081Y017776D01*
D02*
G37*
G36*
X010600Y019507D02*
Y019428D01*
X010453Y019405D01*
X010453Y019523D01*
X010600Y019507D01*
D02*
G37*
G36*
Y019300D02*
Y019221D01*
X010453Y019198D01*
X010453Y019316D01*
X010600Y019300D01*
D02*
G37*
D16*
X024026Y020699D02*
D03*
X023671D02*
D03*
X019495Y023378D02*
D03*
X019495Y023791D02*
D03*
X019141Y023378D02*
D03*
X019141Y023791D02*
D03*
X023661Y016033D02*
D03*
X024016D02*
D03*
X023012Y023386D02*
D03*
X023366D02*
D03*
X019406Y011643D02*
D03*
X019051D02*
D03*
X014311Y011594D02*
D03*
X013957D02*
D03*
X018110Y011260D02*
D03*
X018465D02*
D03*
X024498Y014094D02*
D03*
X024144D02*
D03*
X020315Y024626D02*
D03*
X019961D02*
D03*
X013307Y017884D02*
D03*
X012953D02*
D03*
X017695Y023964D02*
D03*
X017341D02*
D03*
X039196Y019806D02*
D03*
X038842D02*
D03*
X038329Y018038D02*
D03*
X037975D02*
D03*
X038878Y022469D02*
D03*
X039232D02*
D03*
X034890Y023363D02*
D03*
X035245D02*
D03*
X037982Y015566D02*
D03*
X038336D02*
D03*
X038329Y017459D02*
D03*
X037975D02*
D03*
X038329Y018438D02*
D03*
X037975D02*
D03*
X039196Y018896D02*
D03*
X038842D02*
D03*
X039196Y019426D02*
D03*
X038842D02*
D03*
X038293Y019826D02*
D03*
X037939D02*
D03*
X039173Y017213D02*
D03*
X038819D02*
D03*
X039173Y017607D02*
D03*
X038819D02*
D03*
X039173Y016829D02*
D03*
X038819D02*
D03*
X038415Y020520D02*
D03*
X038061D02*
D03*
X039196Y020906D02*
D03*
X038842D02*
D03*
X039196Y020236D02*
D03*
X038842D02*
D03*
D17*
X024937Y019130D02*
D03*
Y019630D02*
D03*
Y020630D02*
D03*
Y021630D02*
D03*
Y018630D02*
D03*
Y020130D02*
D03*
Y021130D02*
D03*
D18*
X019685Y021890D02*
D03*
Y022205D02*
D03*
X021260Y020630D02*
D03*
X021574D02*
D03*
X014960Y022205D02*
D03*
X015275D02*
D03*
X014960Y021890D02*
D03*
X015275D02*
D03*
X015590Y021575D02*
D03*
X015905D02*
D03*
X016220D02*
D03*
X016535D02*
D03*
X016850Y021575D02*
D03*
X017165Y021575D02*
D03*
X017480D02*
D03*
X017795D02*
D03*
X018110D02*
D03*
X018425D02*
D03*
X018740D02*
D03*
X019055D02*
D03*
X019370D02*
D03*
X019685D02*
D03*
X020000D02*
D03*
X020315D02*
D03*
X020630D02*
D03*
X020945D02*
D03*
X021260D02*
D03*
X021574D02*
D03*
X015590Y021260D02*
D03*
X015905D02*
D03*
X016220D02*
D03*
X016535D02*
D03*
X016850Y021260D02*
D03*
X017165Y021260D02*
D03*
X017480D02*
D03*
X017795D02*
D03*
X018110D02*
D03*
X018425D02*
D03*
X018740D02*
D03*
X019055D02*
D03*
X019370D02*
D03*
X019685Y021260D02*
D03*
X020000Y021260D02*
D03*
X020315D02*
D03*
X020630D02*
D03*
X020945D02*
D03*
X021260D02*
D03*
X021574D02*
D03*
X015590Y020945D02*
D03*
X015905D02*
D03*
X016220Y020945D02*
D03*
X016535D02*
D03*
X016850D02*
D03*
X017165D02*
D03*
X017480Y020945D02*
D03*
X017795Y020945D02*
D03*
X018110D02*
D03*
X018425D02*
D03*
X018740D02*
D03*
X019055D02*
D03*
X019370Y020945D02*
D03*
X019685Y020945D02*
D03*
X020000D02*
D03*
X020315D02*
D03*
X020630D02*
D03*
X020945D02*
D03*
X021260Y020945D02*
D03*
X021574Y020945D02*
D03*
X015590Y020630D02*
D03*
X015905D02*
D03*
X016220Y020630D02*
D03*
X016535D02*
D03*
X016850D02*
D03*
X017165D02*
D03*
X017480D02*
D03*
X017795D02*
D03*
X018110D02*
D03*
X018425D02*
D03*
X018740D02*
D03*
X019055Y020630D02*
D03*
X019370D02*
D03*
X019685Y020630D02*
D03*
X020000D02*
D03*
X020315D02*
D03*
X020630D02*
D03*
X020945D02*
D03*
X015590Y020315D02*
D03*
X015905D02*
D03*
X016220D02*
D03*
X016535D02*
D03*
X016850D02*
D03*
X017165D02*
D03*
X017480D02*
D03*
X017795D02*
D03*
X018110D02*
D03*
X018425D02*
D03*
X018740D02*
D03*
X019055D02*
D03*
X019370D02*
D03*
X019685D02*
D03*
X020000D02*
D03*
X020315D02*
D03*
X020630D02*
D03*
X020945D02*
D03*
X021260D02*
D03*
X021574D02*
D03*
X015590Y020000D02*
D03*
X015905D02*
D03*
X016220Y020000D02*
D03*
X016535D02*
D03*
X016850D02*
D03*
X017165Y020000D02*
D03*
X017480D02*
D03*
X017795D02*
D03*
X018110D02*
D03*
X018425Y020000D02*
D03*
X018740Y020000D02*
D03*
X019055D02*
D03*
X019370D02*
D03*
X019685D02*
D03*
X020000D02*
D03*
X020315Y020000D02*
D03*
X020630Y020000D02*
D03*
X020945D02*
D03*
X021260D02*
D03*
X021574D02*
D03*
X015590Y019685D02*
D03*
X015905D02*
D03*
X016220D02*
D03*
X016535Y019685D02*
D03*
X016850D02*
D03*
X017165Y019685D02*
D03*
X017480D02*
D03*
X017795D02*
D03*
X018110Y019685D02*
D03*
X018425Y019685D02*
D03*
X018740D02*
D03*
X019055D02*
D03*
X019370D02*
D03*
X019685D02*
D03*
X020000D02*
D03*
X020315Y019685D02*
D03*
X020630Y019685D02*
D03*
X020945D02*
D03*
X021260D02*
D03*
X021574D02*
D03*
X015590Y019370D02*
D03*
X015905D02*
D03*
X016220D02*
D03*
X016535D02*
D03*
X016850D02*
D03*
X017165Y019370D02*
D03*
X017480D02*
D03*
X017795Y019370D02*
D03*
X018110D02*
D03*
X018425D02*
D03*
X018740D02*
D03*
X019055Y019370D02*
D03*
X019370D02*
D03*
X019685D02*
D03*
X020000Y019370D02*
D03*
X020315D02*
D03*
X020630D02*
D03*
X020945D02*
D03*
X021260Y019370D02*
D03*
X021574D02*
D03*
X015590Y019055D02*
D03*
X015905D02*
D03*
X016220D02*
D03*
X016535D02*
D03*
X016850D02*
D03*
X017165Y019055D02*
D03*
X017480Y019055D02*
D03*
X017795D02*
D03*
X018110D02*
D03*
X018425D02*
D03*
X018740D02*
D03*
X019055D02*
D03*
X019370Y019055D02*
D03*
X019685Y019055D02*
D03*
X020000D02*
D03*
X020315D02*
D03*
X020630D02*
D03*
X020945D02*
D03*
X021260D02*
D03*
X021574Y019055D02*
D03*
X015590Y018740D02*
D03*
X015905D02*
D03*
X016220Y018740D02*
D03*
X016535D02*
D03*
X016850D02*
D03*
X017165D02*
D03*
X017480Y018740D02*
D03*
X017795Y018740D02*
D03*
X018110D02*
D03*
X018425D02*
D03*
X018740D02*
D03*
X019055D02*
D03*
X019370Y018740D02*
D03*
X019685Y018740D02*
D03*
X020000D02*
D03*
X020315D02*
D03*
X020630D02*
D03*
X020945D02*
D03*
X021260Y018740D02*
D03*
X021574Y018740D02*
D03*
X015590Y018425D02*
D03*
X015905D02*
D03*
X016220Y018425D02*
D03*
X016535D02*
D03*
X016850Y018425D02*
D03*
X017165D02*
D03*
X017480D02*
D03*
X017795Y018425D02*
D03*
X018110D02*
D03*
X018425D02*
D03*
X018740D02*
D03*
X019055Y018425D02*
D03*
X019370D02*
D03*
X019685D02*
D03*
X020000Y018425D02*
D03*
X020315D02*
D03*
X020630D02*
D03*
X020945D02*
D03*
X021260Y018425D02*
D03*
X021574D02*
D03*
X015590Y018110D02*
D03*
X015905D02*
D03*
X016220Y018110D02*
D03*
X016535Y018110D02*
D03*
X016850D02*
D03*
X017165D02*
D03*
X017480D02*
D03*
X017795D02*
D03*
X018110Y018110D02*
D03*
X018425D02*
D03*
X018740Y018110D02*
D03*
X019055D02*
D03*
X019370D02*
D03*
X019685D02*
D03*
X020000D02*
D03*
X020315Y018110D02*
D03*
X020630D02*
D03*
X020945Y018110D02*
D03*
X021260D02*
D03*
X021574D02*
D03*
X015590Y017795D02*
D03*
X015905D02*
D03*
X016220Y017795D02*
D03*
X016535Y017795D02*
D03*
X016850D02*
D03*
X017165D02*
D03*
X017480D02*
D03*
X017795D02*
D03*
X018110D02*
D03*
X018425Y017795D02*
D03*
X018740Y017795D02*
D03*
X019055D02*
D03*
X019370D02*
D03*
X019685D02*
D03*
X020000D02*
D03*
X020315D02*
D03*
X020630D02*
D03*
X020945D02*
D03*
X021260D02*
D03*
X021574D02*
D03*
X015590Y017480D02*
D03*
X015905D02*
D03*
X016220Y017480D02*
D03*
X016535D02*
D03*
X016850D02*
D03*
X017165Y017480D02*
D03*
X017480D02*
D03*
X017795D02*
D03*
X018110Y017480D02*
D03*
X018425D02*
D03*
X018740Y017480D02*
D03*
X019055D02*
D03*
X019370D02*
D03*
X019685D02*
D03*
X020315Y017480D02*
D03*
X020630D02*
D03*
X020945Y017480D02*
D03*
X021260D02*
D03*
X021574D02*
D03*
X015590Y017165D02*
D03*
X015905D02*
D03*
X016220D02*
D03*
X016535D02*
D03*
X016850D02*
D03*
X017165Y017165D02*
D03*
X017480D02*
D03*
X017795Y017165D02*
D03*
X018110D02*
D03*
X018425D02*
D03*
X018740D02*
D03*
X019055Y017165D02*
D03*
X019370D02*
D03*
X019685D02*
D03*
X020000Y017165D02*
D03*
X020315D02*
D03*
X020630D02*
D03*
X020945D02*
D03*
X021260Y017165D02*
D03*
X021574D02*
D03*
X015590Y016850D02*
D03*
X015905D02*
D03*
X016220Y016850D02*
D03*
X016535D02*
D03*
X016850D02*
D03*
X017165D02*
D03*
X017480Y016850D02*
D03*
X017795Y016850D02*
D03*
X018110D02*
D03*
X018425D02*
D03*
X018740Y016850D02*
D03*
X019055D02*
D03*
X019370Y016850D02*
D03*
X019685D02*
D03*
X020000D02*
D03*
X020315Y016850D02*
D03*
X020630D02*
D03*
X020945D02*
D03*
X021260D02*
D03*
X021574Y016850D02*
D03*
X015590Y016535D02*
D03*
X015905D02*
D03*
X016220D02*
D03*
X016535D02*
D03*
X016850D02*
D03*
X017165D02*
D03*
X017480D02*
D03*
X017795D02*
D03*
X018110D02*
D03*
X018425D02*
D03*
X018740D02*
D03*
X019055D02*
D03*
X019370D02*
D03*
X019685D02*
D03*
X020000D02*
D03*
X020315D02*
D03*
X020630D02*
D03*
X020945D02*
D03*
X021260D02*
D03*
X015590Y016220D02*
D03*
X015905D02*
D03*
X016220Y016220D02*
D03*
X016535D02*
D03*
X016850Y016220D02*
D03*
X017165D02*
D03*
X017480D02*
D03*
X017795Y016220D02*
D03*
X018110D02*
D03*
X018425D02*
D03*
X018740D02*
D03*
X019055Y016220D02*
D03*
X019370D02*
D03*
X019685D02*
D03*
X020000Y016220D02*
D03*
X020315D02*
D03*
X020630D02*
D03*
X020945D02*
D03*
X021260Y016220D02*
D03*
X015590Y015905D02*
D03*
X015905D02*
D03*
X016220D02*
D03*
X016535Y015905D02*
D03*
X016850D02*
D03*
X017165Y015905D02*
D03*
X017480D02*
D03*
X017795Y015905D02*
D03*
X018110Y015905D02*
D03*
X018425D02*
D03*
X018740D02*
D03*
X019055D02*
D03*
X019370D02*
D03*
X019685Y015905D02*
D03*
X020000D02*
D03*
X020315Y015905D02*
D03*
X020630D02*
D03*
X020945D02*
D03*
X021260D02*
D03*
X021574Y015905D02*
D03*
X015590Y015590D02*
D03*
X015905D02*
D03*
X016220Y015590D02*
D03*
X016535Y015590D02*
D03*
X016850D02*
D03*
X017165Y015590D02*
D03*
X017480D02*
D03*
X017795Y015590D02*
D03*
X018110D02*
D03*
X018425Y015590D02*
D03*
X018740Y015590D02*
D03*
X019055D02*
D03*
X019370D02*
D03*
X019685Y015590D02*
D03*
X020000D02*
D03*
X020315D02*
D03*
X020630D02*
D03*
X020945Y015590D02*
D03*
X015275D02*
D03*
X014960D02*
D03*
X015275Y015905D02*
D03*
X014960D02*
D03*
X015275Y016220D02*
D03*
X014960D02*
D03*
X015275Y016535D02*
D03*
X014960D02*
D03*
X015275Y016850D02*
D03*
X014960Y016850D02*
D03*
X015275Y017165D02*
D03*
X014960D02*
D03*
X015275Y017480D02*
D03*
X014960D02*
D03*
X015275Y017795D02*
D03*
X014960D02*
D03*
X015275Y018110D02*
D03*
X014960D02*
D03*
X015275Y018425D02*
D03*
X014960D02*
D03*
X015275Y018740D02*
D03*
X014960D02*
D03*
X015275Y019055D02*
D03*
X014960Y019055D02*
D03*
X015275Y019370D02*
D03*
X014960D02*
D03*
X015275Y019685D02*
D03*
X014960D02*
D03*
X015275Y020000D02*
D03*
X014960D02*
D03*
X015275Y020315D02*
D03*
X014960D02*
D03*
X015275Y020630D02*
D03*
X014960D02*
D03*
X015275Y020945D02*
D03*
X014960Y020945D02*
D03*
X015275Y021260D02*
D03*
X014960D02*
D03*
X015275Y021575D02*
D03*
X014960D02*
D03*
X021574Y021890D02*
D03*
X021260D02*
D03*
X020630D02*
D03*
X020315Y021890D02*
D03*
X020000Y021890D02*
D03*
X019370D02*
D03*
X019055D02*
D03*
X018740D02*
D03*
X018425D02*
D03*
X021574Y022205D02*
D03*
X021260D02*
D03*
X020630D02*
D03*
X020315Y022205D02*
D03*
X020000Y022205D02*
D03*
X019370D02*
D03*
X019055D02*
D03*
X018740D02*
D03*
X018425Y022205D02*
D03*
X018110Y021890D02*
D03*
X017795Y021890D02*
D03*
X017480D02*
D03*
X017165D02*
D03*
X016850D02*
D03*
X016535Y021890D02*
D03*
X018110Y022205D02*
D03*
X017795D02*
D03*
X017480D02*
D03*
X017165D02*
D03*
X016850D02*
D03*
X016535Y022205D02*
D03*
X016220Y021890D02*
D03*
X015905Y021890D02*
D03*
X015590Y021890D02*
D03*
X016220Y022205D02*
D03*
X015905Y022205D02*
D03*
X015590D02*
D03*
X020945Y021890D02*
D03*
Y022205D02*
D03*
X021574Y016535D02*
D03*
Y016220D02*
D03*
X021574Y015590D02*
D03*
X021260D02*
D03*
X020000Y017480D02*
D03*
D19*
X018044Y023434D02*
D03*
X018456D02*
D03*
X018044Y023788D02*
D03*
X018456D02*
D03*
X022933Y016841D02*
D03*
Y016486D02*
D03*
X021663Y024941D02*
D03*
X021663Y024587D02*
D03*
X013819Y020925D02*
D03*
Y020571D02*
D03*
X013799Y019754D02*
D03*
Y020108D02*
D03*
X010394Y018287D02*
D03*
Y018642D02*
D03*
X024596Y016909D02*
D03*
X024596Y016555D02*
D03*
X015005Y025216D02*
D03*
Y025571D02*
D03*
X015005Y024826D02*
D03*
Y024472D02*
D03*
X023750Y013760D02*
D03*
Y013406D02*
D03*
X021703Y023868D02*
D03*
Y023514D02*
D03*
X012205Y016112D02*
D03*
Y015758D02*
D03*
X035285Y014487D02*
D03*
Y014841D02*
D03*
X035499Y022793D02*
D03*
Y022438D02*
D03*
X035259Y022066D02*
D03*
Y021711D02*
D03*
X035689Y014846D02*
D03*
Y014491D02*
D03*
X033169Y018456D02*
D03*
Y018101D02*
D03*
X033639Y018453D02*
D03*
Y018098D02*
D03*
X035779Y022073D02*
D03*
Y021718D02*
D03*
X036709Y022065D02*
D03*
Y021711D02*
D03*
X036299Y022065D02*
D03*
Y021711D02*
D03*
X036029Y022790D02*
D03*
Y022436D02*
D03*
X036329Y015143D02*
D03*
Y014788D02*
D03*
X037529Y014788D02*
D03*
Y015143D02*
D03*
X037119Y022065D02*
D03*
Y021711D02*
D03*
X037089Y014776D02*
D03*
Y015130D02*
D03*
X037529Y022065D02*
D03*
Y021711D02*
D03*
D20*
X023632Y011073D02*
D03*
Y010443D02*
D03*
X036467Y012685D02*
D03*
Y012056D02*
D03*
D21*
X013996Y012116D02*
D03*
Y012825D02*
D03*
D22*
X010827Y022118D02*
D03*
Y022488D02*
D03*
X010423Y022118D02*
D03*
X010423Y022488D02*
D03*
X016024Y011098D02*
D03*
Y011468D02*
D03*
X014787Y010878D02*
D03*
Y011248D02*
D03*
X016425Y011098D02*
D03*
Y011468D02*
D03*
X013002Y012226D02*
D03*
X013002Y012596D02*
D03*
X012648D02*
D03*
Y012226D02*
D03*
X013729Y018222D02*
D03*
Y018593D02*
D03*
X014130Y018593D02*
D03*
Y018222D02*
D03*
X015005Y026307D02*
D03*
Y025937D02*
D03*
X016441Y023785D02*
D03*
Y023415D02*
D03*
X014035Y016819D02*
D03*
Y016449D02*
D03*
X036458Y010859D02*
D03*
Y010489D02*
D03*
X038455Y012014D02*
D03*
Y011644D02*
D03*
X038986Y012014D02*
D03*
Y011644D02*
D03*
X039498Y012014D02*
D03*
Y011644D02*
D03*
D23*
X011878Y017697D02*
D03*
X011508D02*
D03*
X025563Y011732D02*
D03*
X025933D02*
D03*
X019821Y011047D02*
D03*
X020191D02*
D03*
X020913Y011043D02*
D03*
X020543D02*
D03*
X023293Y016125D02*
D03*
X022923D02*
D03*
X012207Y013150D02*
D03*
X012577D02*
D03*
X012193Y012234D02*
D03*
X011823D02*
D03*
X012193Y012648D02*
D03*
X011823D02*
D03*
X023335Y021850D02*
D03*
X022965D02*
D03*
X023663Y021788D02*
D03*
X024033D02*
D03*
X023335Y022234D02*
D03*
X022965D02*
D03*
X023335Y022618D02*
D03*
X022965D02*
D03*
X023004Y022992D02*
D03*
X023374D02*
D03*
X023663Y022175D02*
D03*
X024033D02*
D03*
X023335Y021467D02*
D03*
X022965D02*
D03*
X023663Y018797D02*
D03*
X024033D02*
D03*
X023663Y019581D02*
D03*
X024033D02*
D03*
X023663Y019189D02*
D03*
X024033D02*
D03*
X023335Y017205D02*
D03*
X022965D02*
D03*
X023663Y019972D02*
D03*
X024033D02*
D03*
X023335Y017608D02*
D03*
X022965D02*
D03*
X023335Y018377D02*
D03*
X022965D02*
D03*
X023335Y017992D02*
D03*
X022965D02*
D03*
X023663Y020364D02*
D03*
X024033D02*
D03*
X023663Y018406D02*
D03*
X024033D02*
D03*
X023663Y021014D02*
D03*
X024033D02*
D03*
X023663Y021401D02*
D03*
X024033D02*
D03*
X023335Y020300D02*
D03*
X022965D02*
D03*
X023335Y019915D02*
D03*
X022965D02*
D03*
X023335Y021069D02*
D03*
X022965D02*
D03*
X023335Y020684D02*
D03*
X022965D02*
D03*
X023335Y019146D02*
D03*
X022965D02*
D03*
X023335Y018761D02*
D03*
X022965D02*
D03*
X023335Y019531D02*
D03*
X022965D02*
D03*
X010591Y023494D02*
D03*
X010220D02*
D03*
X010937D02*
D03*
X011307D02*
D03*
X022650Y013032D02*
D03*
X023020D02*
D03*
X013669Y014990D02*
D03*
X013299D02*
D03*
X038810Y016445D02*
D03*
X039180D02*
D03*
X037961Y018838D02*
D03*
X038331D02*
D03*
X034843Y026070D02*
D03*
X035213D02*
D03*
X038810Y016052D02*
D03*
X039180Y016052D02*
D03*
X038810Y015658D02*
D03*
X039180D02*
D03*
D24*
X023622Y012953D02*
D03*
Y012795D02*
D03*
Y012638D02*
D03*
Y012480D02*
D03*
Y012323D02*
D03*
Y012165D02*
D03*
Y012008D02*
D03*
X024803D02*
D03*
Y012165D02*
D03*
Y012323D02*
D03*
Y012480D02*
D03*
Y012638D02*
D03*
Y012795D02*
D03*
Y012953D02*
D03*
D25*
X024213Y012480D02*
D03*
D26*
X020059Y010433D02*
D03*
X019429D02*
D03*
X034859Y013446D02*
D03*
X035489D02*
D03*
X037578Y023255D02*
D03*
X036948D02*
D03*
X037578Y022654D02*
D03*
X036948D02*
D03*
D27*
X014350Y010522D02*
D03*
Y011171D02*
D03*
X011018Y023975D02*
D03*
Y024625D02*
D03*
X010467Y023975D02*
D03*
Y024625D02*
D03*
X038455Y010500D02*
D03*
Y011150D02*
D03*
X038986Y010500D02*
D03*
Y011150D02*
D03*
X039508Y010500D02*
D03*
Y011150D02*
D03*
D28*
X020276Y014232D02*
D03*
Y013642D02*
D03*
X014892Y014232D02*
D03*
Y013642D02*
D03*
X016919Y014232D02*
D03*
Y013642D02*
D03*
X017534Y014232D02*
D03*
Y013642D02*
D03*
X018130Y014232D02*
D03*
Y013642D02*
D03*
X017480Y022943D02*
D03*
Y023533D02*
D03*
X037087Y012676D02*
D03*
Y013266D02*
D03*
D29*
X011968Y011683D02*
D03*
X012992D02*
D03*
D30*
X019557Y012884D02*
D03*
X020266D02*
D03*
X021319Y012717D02*
D03*
X022028D02*
D03*
X016289Y012835D02*
D03*
X016998D02*
D03*
D31*
X022884Y011752D02*
D03*
Y012343D02*
D03*
X019016Y012234D02*
D03*
Y012825D02*
D03*
X015472Y011526D02*
D03*
Y012116D02*
D03*
X018285Y011776D02*
D03*
Y012366D02*
D03*
D32*
X015591Y012923D02*
D03*
Y013632D02*
D03*
D33*
X019419Y011240D02*
D03*
X020994Y013612D02*
D03*
X020571Y010413D02*
D03*
X022736Y015315D02*
D03*
X014262Y013583D02*
D03*
X015630Y010433D02*
D03*
X016998Y012254D02*
D03*
X012185Y016535D02*
D03*
X031161Y025156D02*
D03*
X030669D02*
D03*
X030177D02*
D03*
X029685D02*
D03*
X043120Y023896D02*
D03*
X039685Y013148D02*
D03*
X043583Y020407D02*
D03*
D34*
X019222Y014715D02*
D03*
Y013612D02*
D03*
D35*
X023750Y017756D02*
D03*
X024341D02*
D03*
X021171Y024035D02*
D03*
X020581D02*
D03*
X022421Y013691D02*
D03*
X023012D02*
D03*
X035343Y023875D02*
D03*
X034753D02*
D03*
D36*
X011850Y013780D02*
D03*
X012224Y013780D02*
D03*
X012598Y013780D02*
D03*
Y014843D02*
D03*
X012224Y014843D02*
D03*
X011850Y014843D02*
D03*
D37*
X013032Y021211D02*
D03*
X012835D02*
D03*
X012638D02*
D03*
X012441D02*
D03*
X012244D02*
D03*
X012047D02*
D03*
X011850D02*
D03*
X011654D02*
D03*
X011457D02*
D03*
X011260D02*
D03*
X011063D02*
D03*
Y018494D02*
D03*
X011260D02*
D03*
X011457D02*
D03*
X011654D02*
D03*
X011850D02*
D03*
X012047D02*
D03*
X012244D02*
D03*
X012441D02*
D03*
X012638D02*
D03*
X012835D02*
D03*
X013032D02*
D03*
D38*
X010689Y020837D02*
D03*
Y020640D02*
D03*
Y020443D02*
D03*
Y020246D02*
D03*
Y020049D02*
D03*
Y019852D02*
D03*
Y019656D02*
D03*
Y019459D02*
D03*
Y019262D02*
D03*
Y019065D02*
D03*
Y018868D02*
D03*
X013406D02*
D03*
Y019065D02*
D03*
Y019262D02*
D03*
Y019459D02*
D03*
Y019656D02*
D03*
Y019852D02*
D03*
Y020049D02*
D03*
Y020246D02*
D03*
Y020443D02*
D03*
Y020640D02*
D03*
Y020837D02*
D03*
D39*
X012047Y019852D02*
D03*
D40*
X023868Y016890D02*
D03*
D41*
X024183Y016476D02*
D03*
X024026D02*
D03*
X023868D02*
D03*
X023711D02*
D03*
X023553D02*
D03*
Y017303D02*
D03*
X023711D02*
D03*
X023868D02*
D03*
X024026D02*
D03*
X024183D02*
D03*
D42*
X017455Y011240D02*
D03*
X022037Y011230D02*
D03*
D43*
X016785Y010591D02*
D03*
X018124D02*
D03*
X021368Y010581D02*
D03*
X022707D02*
D03*
D44*
X011850Y022874D02*
D03*
Y022008D02*
D03*
X012520Y022874D02*
D03*
Y022008D02*
D03*
X023996Y014685D02*
D03*
Y015551D02*
D03*
X023248Y015551D02*
D03*
Y014685D02*
D03*
D45*
X025651Y024645D02*
D03*
X026025Y023739D02*
D03*
X025277D02*
D03*
X040463Y010524D02*
D03*
X040089Y011429D02*
D03*
X040837D02*
D03*
X041860Y010524D02*
D03*
X041486Y011429D02*
D03*
X042234D02*
D03*
D46*
X017894Y024646D02*
D03*
Y024803D02*
D03*
Y024961D02*
D03*
Y025118D02*
D03*
Y025276D02*
D03*
Y025748D02*
D03*
X015571D02*
D03*
Y025591D02*
D03*
Y025433D02*
D03*
Y025276D02*
D03*
Y025118D02*
D03*
Y024961D02*
D03*
Y024803D02*
D03*
Y024646D02*
D03*
X017894Y025591D02*
D03*
Y025433D02*
D03*
D47*
X017598Y025965D02*
D03*
X017441D02*
D03*
X017283D02*
D03*
X017126D02*
D03*
X016968D02*
D03*
X016811Y025965D02*
D03*
X016654D02*
D03*
X016496Y025965D02*
D03*
X016339D02*
D03*
X016181D02*
D03*
X016024D02*
D03*
X015866D02*
D03*
Y024429D02*
D03*
X016024D02*
D03*
X016181D02*
D03*
X016339D02*
D03*
X016496D02*
D03*
X016654Y024429D02*
D03*
X016811D02*
D03*
X016968Y024429D02*
D03*
X017126D02*
D03*
X017283D02*
D03*
X017441D02*
D03*
X017598D02*
D03*
D48*
X016732Y025197D02*
D03*
D49*
X015935Y023760D02*
D03*
X015935Y022972D02*
D03*
X015305D02*
D03*
Y023760D02*
D03*
D50*
X013022Y014592D02*
D03*
X013671D02*
D03*
D51*
X013612Y015778D02*
D03*
X012707Y015404D02*
D03*
Y016152D02*
D03*
D52*
X010689Y016634D02*
D03*
X010689Y015846D02*
D03*
Y014272D02*
D03*
Y013484D02*
D03*
Y012697D02*
D03*
Y011909D02*
D03*
D53*
Y015059D02*
D03*
D54*
X013563Y016654D02*
D03*
X012657Y017028D02*
D03*
D55*
X013563Y017402D02*
D03*
D56*
X033278Y011586D02*
D03*
X038524Y024969D02*
D03*
D57*
X035640Y012586D02*
D03*
Y012086D02*
D03*
Y011586D02*
D03*
Y011086D02*
D03*
Y010586D02*
D03*
X036161Y023969D02*
D03*
X036161Y024469D02*
D03*
X036161Y024969D02*
D03*
Y025469D02*
D03*
Y025969D02*
D03*
D58*
X038435Y023109D02*
D03*
X039616D02*
D03*
X038937Y013069D02*
D03*
X037756D02*
D03*
D59*
X033936Y025046D02*
D03*
Y023865D02*
D03*
D60*
X037067Y011130D02*
D03*
Y010500D02*
D03*
D61*
X037707Y012065D02*
D03*
X037077D02*
D03*
X035324Y025460D02*
D03*
X034694D02*
D03*
X034713Y024475D02*
D03*
X035343D02*
D03*
D62*
X041831Y024713D02*
D03*
X039646D02*
D03*
D63*
X031112Y017970D02*
D03*
X029832Y014428D02*
D03*
Y014624D02*
D03*
Y014821D02*
D03*
Y015018D02*
D03*
Y015215D02*
D03*
Y015412D02*
D03*
Y015609D02*
D03*
Y015805D02*
D03*
Y016002D02*
D03*
Y016199D02*
D03*
Y016396D02*
D03*
Y016593D02*
D03*
Y016790D02*
D03*
Y016987D02*
D03*
Y017183D02*
D03*
Y017382D02*
D03*
Y017574D02*
D03*
Y017775D02*
D03*
Y017972D02*
D03*
Y018169D02*
D03*
Y018366D02*
D03*
Y018563D02*
D03*
Y018760D02*
D03*
Y018957D02*
D03*
Y019153D02*
D03*
X029828Y019351D02*
D03*
X029832Y019547D02*
D03*
Y019744D02*
D03*
Y019941D02*
D03*
Y020138D02*
D03*
Y020334D02*
D03*
Y020532D02*
D03*
Y020723D02*
D03*
Y020925D02*
D03*
Y021122D02*
D03*
Y021319D02*
D03*
Y021516D02*
D03*
Y021712D02*
D03*
Y021909D02*
D03*
Y022106D02*
D03*
X031112Y014820D02*
D03*
Y015017D02*
D03*
Y015214D02*
D03*
Y015410D02*
D03*
Y015607D02*
D03*
Y015809D02*
D03*
Y016001D02*
D03*
Y016198D02*
D03*
Y016395D02*
D03*
Y016591D02*
D03*
Y016788D02*
D03*
Y016985D02*
D03*
X031117Y017181D02*
D03*
X031112Y017379D02*
D03*
Y017576D02*
D03*
Y017773D02*
D03*
Y018166D02*
D03*
Y018363D02*
D03*
Y018560D02*
D03*
Y018757D02*
D03*
Y018959D02*
D03*
Y019150D02*
D03*
Y019349D02*
D03*
Y019546D02*
D03*
Y019742D02*
D03*
Y019939D02*
D03*
Y020136D02*
D03*
Y020333D02*
D03*
Y020530D02*
D03*
Y020727D02*
D03*
Y020924D02*
D03*
Y021120D02*
D03*
Y021317D02*
D03*
Y021514D02*
D03*
Y021711D02*
D03*
Y021908D02*
D03*
Y022105D02*
D03*
Y014623D02*
D03*
Y014426D02*
D03*
X040856Y014428D02*
D03*
Y014624D02*
D03*
Y014821D02*
D03*
Y015018D02*
D03*
Y015215D02*
D03*
Y015412D02*
D03*
Y015609D02*
D03*
Y015805D02*
D03*
Y016002D02*
D03*
Y016199D02*
D03*
Y016396D02*
D03*
Y016593D02*
D03*
Y016790D02*
D03*
Y016987D02*
D03*
Y017183D02*
D03*
Y017382D02*
D03*
Y017574D02*
D03*
Y017775D02*
D03*
Y017972D02*
D03*
Y018169D02*
D03*
Y018366D02*
D03*
Y018563D02*
D03*
Y018760D02*
D03*
Y018957D02*
D03*
Y019153D02*
D03*
X040851Y019351D02*
D03*
X040856Y019547D02*
D03*
Y019744D02*
D03*
Y019941D02*
D03*
Y020138D02*
D03*
Y020334D02*
D03*
Y020532D02*
D03*
Y020723D02*
D03*
Y020925D02*
D03*
Y021122D02*
D03*
Y021319D02*
D03*
Y021516D02*
D03*
Y021712D02*
D03*
Y021909D02*
D03*
Y022106D02*
D03*
X042136Y014426D02*
D03*
Y014623D02*
D03*
Y014820D02*
D03*
Y015017D02*
D03*
Y015214D02*
D03*
Y015410D02*
D03*
Y015607D02*
D03*
Y015809D02*
D03*
Y016001D02*
D03*
Y016198D02*
D03*
Y016395D02*
D03*
Y016591D02*
D03*
Y016788D02*
D03*
Y016985D02*
D03*
X042141Y017181D02*
D03*
X042136Y017379D02*
D03*
Y017576D02*
D03*
Y017773D02*
D03*
Y017970D02*
D03*
Y018166D02*
D03*
Y018363D02*
D03*
Y018560D02*
D03*
Y018757D02*
D03*
Y018959D02*
D03*
Y019150D02*
D03*
Y019349D02*
D03*
Y019546D02*
D03*
Y019742D02*
D03*
Y019939D02*
D03*
Y020136D02*
D03*
Y020333D02*
D03*
Y020530D02*
D03*
Y020727D02*
D03*
Y020924D02*
D03*
Y021120D02*
D03*
Y021317D02*
D03*
Y021514D02*
D03*
Y021711D02*
D03*
Y021908D02*
D03*
Y022105D02*
D03*
D64*
X029783Y011809D02*
D03*
X031161D02*
D03*
D79*
X077339Y022251D02*
X077870Y021721D01*
X077163Y022075D02*
X077516Y022428D01*
X077882Y022441D02*
X077857Y022365D01*
Y022264D01*
X077908Y022163D01*
X077958Y022112D01*
X078059Y022062D01*
X078160D01*
X078236Y022087D01*
X078312Y022163D01*
X078337Y022239D01*
X078337Y022340D01*
X078286Y022441D01*
X078236Y022491D01*
X078135Y022542D01*
X078034Y022542D01*
X077958Y022516D01*
X077882Y022441D01*
X078200Y022759D02*
X078731Y022229D01*
X078276Y022683D02*
Y022784D01*
X078301Y022860D01*
X078377Y022935D01*
X078453Y022961D01*
X078554D01*
X078655Y022910D01*
X078705Y022860D01*
X078756Y022759D01*
Y022658D01*
X078731Y022582D01*
X078655Y022506D01*
X078579Y022481D01*
X078478D01*
X079286Y024046D02*
X079185D01*
X079084Y023996D01*
X078983Y023895D01*
X078933Y023794D01*
X078933Y023693D01*
X078983Y023642D01*
X079059Y023617D01*
X079109D01*
X079185Y023642D01*
X079387Y023743D01*
X079463Y023769D01*
X079513Y023769D01*
X079589Y023743D01*
X079665Y023668D01*
Y023567D01*
X079614Y023466D01*
X079513Y023365D01*
X079412Y023314D01*
X079311D01*
X079632Y024190D02*
X079607Y024115D01*
Y024014D01*
X079657Y023913D01*
X079708Y023862D01*
X079809Y023812D01*
X079910D01*
X079985Y023837D01*
X080061Y023913D01*
X080086Y023988D01*
X080086Y024089D01*
X080036Y024190D01*
X079985Y024241D01*
X079884Y024291D01*
X079783Y024291D01*
X079708Y024266D01*
X079632Y024190D01*
X079773Y024685D02*
X080304Y024155D01*
X080187Y025099D02*
X080718Y024569D01*
X080440Y024847D02*
X080339Y024847D01*
X080263Y024822D01*
X080187Y024746D01*
X080162Y024670D01*
Y024569D01*
X080213Y024468D01*
X080263Y024418D01*
X080364Y024367D01*
X080465D01*
X080541Y024392D01*
X080617Y024468D01*
X080642Y024544D01*
X080642Y024645D01*
X080657Y024912D02*
X080960Y025215D01*
X080910Y025266D01*
X080834Y025291D01*
X080783Y025291D01*
X080708Y025266D01*
X080632Y025190D01*
X080607Y025114D01*
Y025013D01*
X080657Y024912D01*
X080708Y024862D01*
X080809Y024811D01*
X080910D01*
X080985Y024837D01*
X081061Y024912D01*
X081086Y024988D01*
X081086Y025089D01*
X080922Y025481D02*
X081276Y025127D01*
X081074Y025329D02*
X081023Y025430D01*
Y025531D01*
X081048Y025607D01*
X081124Y025682D01*
D80*
X012756Y010492D02*
D03*
X012264D02*
D03*
X020984Y026033D02*
D03*
X020492D02*
D03*
X020000D02*
D03*
X019508D02*
D03*
X019016D02*
D03*
X030659Y010806D02*
D03*
X030167D02*
D03*
D81*
X026142Y013244D02*
D03*
X025354Y015213D02*
D03*
X026142Y014819D02*
D03*
X025354Y014426D02*
D03*
X026142Y014032D02*
D03*
X025354Y013638D02*
D03*
D82*
X024656Y011240D02*
D03*
D83*
Y010453D02*
D03*
X013268Y024970D02*
D03*
D84*
X024415Y026118D02*
D03*
X022415D02*
D03*
D85*
X024415Y024118D02*
D03*
X022415D02*
D03*
D86*
X023415Y025118D02*
D03*
D87*
X025866Y022638D02*
D03*
Y017622D02*
D03*
D88*
X012268Y023970D02*
D03*
Y025970D02*
D03*
X014268D02*
D03*
Y023970D02*
D03*
D90*
X010787Y010787D02*
D03*
X025748D02*
D03*
Y025748D02*
D03*
X010787D02*
D03*
X028504Y025746D02*
D03*
X043465D02*
D03*
Y010786D02*
D03*
X028504D02*
D03*
D91*
X035569Y017056D02*
D03*
Y018556D02*
D03*
Y019056D02*
D03*
X034569Y020556D02*
D03*
Y021056D02*
D03*
X035069Y020556D02*
D03*
X035569Y017556D02*
D03*
Y018056D02*
D03*
X035069Y017056D02*
D03*
Y017556D02*
D03*
X034069Y017056D02*
D03*
Y017556D02*
D03*
X034569Y018056D02*
D03*
Y019056D02*
D03*
X035069Y016056D02*
D03*
Y016556D02*
D03*
X035569D02*
D03*
Y015556D02*
D03*
Y016056D02*
D03*
X037569Y020556D02*
D03*
Y020056D02*
D03*
Y019556D02*
D03*
Y019056D02*
D03*
Y018556D02*
D03*
Y018056D02*
D03*
Y017556D02*
D03*
Y017056D02*
D03*
Y016556D02*
D03*
Y016056D02*
D03*
X034069D02*
D03*
Y016556D02*
D03*
Y018056D02*
D03*
Y018556D02*
D03*
Y019056D02*
D03*
Y021056D02*
D03*
X034569Y015556D02*
D03*
Y016056D02*
D03*
Y016556D02*
D03*
Y017056D02*
D03*
Y017556D02*
D03*
Y018556D02*
D03*
Y019556D02*
D03*
Y020056D02*
D03*
X035069Y015556D02*
D03*
Y018056D02*
D03*
Y018556D02*
D03*
Y019056D02*
D03*
Y019556D02*
D03*
Y020056D02*
D03*
Y021056D02*
D03*
X035569Y019556D02*
D03*
Y020056D02*
D03*
Y020556D02*
D03*
Y021056D02*
D03*
X036069Y015556D02*
D03*
Y016056D02*
D03*
Y016556D02*
D03*
Y017056D02*
D03*
Y017556D02*
D03*
Y018056D02*
D03*
Y018556D02*
D03*
Y019056D02*
D03*
Y019556D02*
D03*
Y020056D02*
D03*
Y020556D02*
D03*
Y021056D02*
D03*
X036569Y015556D02*
D03*
Y016056D02*
D03*
Y016556D02*
D03*
Y017056D02*
D03*
Y017556D02*
D03*
Y018056D02*
D03*
Y018556D02*
D03*
Y019056D02*
D03*
Y019556D02*
D03*
Y020056D02*
D03*
Y020556D02*
D03*
Y021056D02*
D03*
X037069Y015556D02*
D03*
Y016056D02*
D03*
Y016556D02*
D03*
Y017056D02*
D03*
Y017556D02*
D03*
Y018056D02*
D03*
Y018556D02*
D03*
Y019056D02*
D03*
Y019556D02*
D03*
Y020056D02*
D03*
Y020556D02*
D03*
Y021056D02*
D03*
X037569Y015556D02*
D03*
Y021056D02*
D03*
X034069Y019556D02*
D03*
Y020556D02*
D03*
Y020056D02*
D03*
D92*
X024281Y020453D02*
D03*
X024321Y020679D02*
D03*
X014692Y018061D02*
D03*
X014485D02*
D03*
X011348Y019557D02*
D03*
X016102Y025394D02*
D03*
X017319Y025039D02*
D03*
Y025394D02*
D03*
X016102Y025039D02*
D03*
X020940Y024409D02*
D03*
X020610D02*
D03*
X021270D02*
D03*
X020940Y024739D02*
D03*
X020610D02*
D03*
X021270D02*
D03*
Y025069D02*
D03*
X020610D02*
D03*
X020940D02*
D03*
X014478Y014094D02*
D03*
X012608Y020709D02*
D03*
X011476Y020719D02*
D03*
X012285Y019350D02*
D03*
X012269Y019941D02*
D03*
Y020531D02*
D03*
X012785Y019941D02*
D03*
X012520Y019370D02*
D03*
X012776Y019350D02*
D03*
X011181Y020157D02*
D03*
X035779Y022785D02*
D03*
X016742Y025384D02*
D03*
Y025039D02*
D03*
D176*
X024350Y012480D02*
G03*
X024350Y012480I-000138J000000D01*
G01*
X024213Y012283D02*
Y012677D01*
X024016Y012480D02*
X024409D01*
D177*
X024331Y022953D02*
D03*
Y013583D02*
D03*
X013307Y022953D02*
D03*
Y013583D02*
D03*
X030866Y022912D02*
D03*
X030866Y013620D02*
D03*
X041890Y022912D02*
D03*
X041890Y013620D02*
D03*
M02*
