G04 Layer_Color=32896*
%FSAX24Y24*%
%MOIN*%
G70*
G01*
G75*
%ADD10C,0.0049*%
%ADD14C,0.0118*%
%ADD67C,0.0079*%
%ADD68C,0.0120*%
%ADD69C,0.0098*%
%ADD70C,0.0059*%
%ADD75C,0.0039*%
%ADD76C,0.0394*%
%ADD81C,0.0100*%
G36*
X042244Y017973D02*
X042095D01*
Y017553D01*
X041993D01*
Y017973D01*
X041844D01*
Y018058D01*
X042244D01*
Y017973D01*
D02*
G37*
G36*
X042679Y017553D02*
X042577D01*
Y017744D01*
X042486D01*
X042475Y017744D01*
X042465D01*
X042456Y017745D01*
X042447Y017746D01*
X042439Y017747D01*
X042432Y017747D01*
X042426D01*
X042421Y017748D01*
X042416Y017749D01*
X042412Y017750D01*
X042409D01*
X042407Y017750D01*
X042405D01*
X042395Y017753D01*
X042386Y017757D01*
X042377Y017760D01*
X042369Y017765D01*
X042362Y017769D01*
X042357Y017771D01*
X042354Y017774D01*
X042353Y017774D01*
X042343Y017782D01*
X042335Y017790D01*
X042327Y017798D01*
X042321Y017806D01*
X042316Y017813D01*
X042313Y017819D01*
X042311Y017822D01*
X042310Y017824D01*
X042304Y017836D01*
X042300Y017849D01*
X042297Y017863D01*
X042295Y017876D01*
X042293Y017886D01*
Y017891D01*
X042292Y017895D01*
Y017898D01*
Y017900D01*
Y017902D01*
Y017903D01*
X042294Y017924D01*
X042297Y017943D01*
X042302Y017960D01*
X042307Y017974D01*
X042310Y017980D01*
X042313Y017985D01*
X042315Y017989D01*
X042318Y017994D01*
X042319Y017997D01*
X042321Y017999D01*
X042322Y018000D01*
Y018000D01*
X042334Y018013D01*
X042346Y018024D01*
X042358Y018033D01*
X042369Y018040D01*
X042379Y018044D01*
X042387Y018048D01*
X042390Y018048D01*
X042392Y018049D01*
X042394Y018050D01*
X042394D01*
X042400Y018051D01*
X042407Y018053D01*
X042416Y018054D01*
X042425Y018054D01*
X042445Y018056D01*
X042466Y018057D01*
X042485D01*
X042493Y018058D01*
X042679D01*
Y017553D01*
D02*
G37*
G36*
X041124D02*
X041017D01*
X040975Y017668D01*
X040772D01*
X040729Y017553D01*
X040619D01*
X040821Y018058D01*
X040929D01*
X041124Y017553D01*
D02*
G37*
G36*
X041781D02*
X041679D01*
Y018058D01*
X041781D01*
Y017553D01*
D02*
G37*
G36*
X041383Y018067D02*
X041402Y018064D01*
X041419Y018061D01*
X041436Y018056D01*
X041450Y018051D01*
X041465Y018046D01*
X041477Y018039D01*
X041489Y018032D01*
X041500Y018026D01*
X041509Y018019D01*
X041517Y018013D01*
X041523Y018008D01*
X041528Y018004D01*
X041532Y018000D01*
X041534Y017998D01*
X041535Y017997D01*
X041547Y017984D01*
X041556Y017969D01*
X041565Y017954D01*
X041572Y017938D01*
X041579Y017921D01*
X041584Y017905D01*
X041588Y017889D01*
X041592Y017873D01*
X041595Y017858D01*
X041596Y017845D01*
X041598Y017833D01*
X041599Y017822D01*
Y017814D01*
X041600Y017807D01*
Y017803D01*
Y017802D01*
Y017801D01*
X041599Y017779D01*
X041597Y017759D01*
X041594Y017739D01*
X041590Y017722D01*
X041585Y017705D01*
X041579Y017689D01*
X041574Y017675D01*
X041568Y017663D01*
X041562Y017651D01*
X041556Y017641D01*
X041550Y017633D01*
X041546Y017626D01*
X041541Y017621D01*
X041539Y017616D01*
X041536Y017614D01*
X041536Y017613D01*
X041523Y017601D01*
X041510Y017591D01*
X041496Y017581D01*
X041482Y017574D01*
X041469Y017567D01*
X041455Y017561D01*
X041442Y017557D01*
X041429Y017553D01*
X041417Y017551D01*
X041406Y017548D01*
X041396Y017547D01*
X041388Y017546D01*
X041380Y017545D01*
X041375Y017545D01*
X041371D01*
X041356Y017545D01*
X041342Y017546D01*
X041328Y017548D01*
X041315Y017551D01*
X041304Y017554D01*
X041293Y017557D01*
X041283Y017561D01*
X041273Y017565D01*
X041265Y017569D01*
X041258Y017572D01*
X041251Y017575D01*
X041246Y017578D01*
X041242Y017581D01*
X041239Y017583D01*
X041237Y017584D01*
X041237Y017585D01*
X041227Y017593D01*
X041219Y017602D01*
X041202Y017621D01*
X041189Y017642D01*
X041179Y017661D01*
X041175Y017671D01*
X041171Y017680D01*
X041168Y017688D01*
X041165Y017694D01*
X041163Y017700D01*
X041162Y017704D01*
X041161Y017707D01*
Y017708D01*
X041260Y017739D01*
X041266Y017719D01*
X041272Y017702D01*
X041279Y017688D01*
X041286Y017677D01*
X041292Y017668D01*
X041297Y017662D01*
X041301Y017658D01*
X041302Y017657D01*
X041314Y017648D01*
X041326Y017642D01*
X041337Y017638D01*
X041348Y017634D01*
X041357Y017633D01*
X041365Y017632D01*
X041368Y017631D01*
X041372D01*
X041382Y017632D01*
X041391Y017633D01*
X041409Y017638D01*
X041424Y017644D01*
X041436Y017652D01*
X041447Y017659D01*
X041454Y017665D01*
X041457Y017668D01*
X041459Y017670D01*
X041460Y017671D01*
X041461Y017672D01*
X041466Y017680D01*
X041471Y017689D01*
X041477Y017699D01*
X041480Y017710D01*
X041486Y017733D01*
X041490Y017755D01*
X041492Y017766D01*
X041493Y017776D01*
X041494Y017785D01*
Y017793D01*
X041495Y017799D01*
Y017804D01*
Y017808D01*
Y017809D01*
X041494Y017825D01*
X041493Y017841D01*
X041492Y017855D01*
X041490Y017868D01*
X041487Y017879D01*
X041484Y017890D01*
X041481Y017900D01*
X041477Y017908D01*
X041474Y017916D01*
X041471Y017922D01*
X041469Y017927D01*
X041466Y017932D01*
X041463Y017935D01*
X041462Y017938D01*
X041461Y017939D01*
Y017940D01*
X041454Y017947D01*
X041447Y017954D01*
X041439Y017959D01*
X041431Y017963D01*
X041416Y017970D01*
X041401Y017976D01*
X041389Y017978D01*
X041383Y017979D01*
X041379Y017980D01*
X041375Y017981D01*
X041369D01*
X041355Y017980D01*
X041342Y017977D01*
X041330Y017973D01*
X041320Y017969D01*
X041312Y017965D01*
X041306Y017961D01*
X041302Y017958D01*
X041301Y017957D01*
X041291Y017949D01*
X041283Y017938D01*
X041276Y017928D01*
X041271Y017918D01*
X041267Y017909D01*
X041265Y017903D01*
X041264Y017900D01*
Y017898D01*
X041263Y017897D01*
Y017896D01*
X041162Y017920D01*
X041170Y017941D01*
X041178Y017960D01*
X041186Y017976D01*
X041194Y017989D01*
X041202Y017999D01*
X041205Y018003D01*
X041208Y018007D01*
X041210Y018009D01*
X041213Y018011D01*
X041213Y018013D01*
X041214D01*
X041225Y018022D01*
X041237Y018031D01*
X041249Y018038D01*
X041262Y018044D01*
X041275Y018050D01*
X041287Y018054D01*
X041299Y018058D01*
X041311Y018061D01*
X041322Y018063D01*
X041332Y018064D01*
X041341Y018066D01*
X041349Y018067D01*
X041356Y018067D01*
X041364D01*
X041383Y018067D01*
D02*
G37*
G36*
X034929Y012326D02*
X034590D01*
X034929Y012118D01*
Y012019D01*
X034425D01*
Y012113D01*
X034757D01*
X034425Y012318D01*
Y012420D01*
X034929D01*
Y012326D01*
D02*
G37*
G36*
Y012492D02*
X034844D01*
Y012642D01*
X034425D01*
Y012744D01*
X034844D01*
Y012893D01*
X034929D01*
Y012492D01*
D02*
G37*
G36*
X034610Y011362D02*
X034590Y011356D01*
X034573Y011349D01*
X034560Y011343D01*
X034548Y011336D01*
X034539Y011330D01*
X034533Y011325D01*
X034530Y011321D01*
X034528Y011319D01*
X034520Y011308D01*
X034514Y011296D01*
X034509Y011284D01*
X034506Y011274D01*
X034504Y011265D01*
X034503Y011257D01*
X034503Y011254D01*
Y011252D01*
Y011251D01*
Y011250D01*
X034503Y011240D01*
X034504Y011231D01*
X034509Y011213D01*
X034515Y011198D01*
X034523Y011185D01*
X034530Y011175D01*
X034536Y011168D01*
X034539Y011165D01*
X034541Y011163D01*
X034542Y011162D01*
X034543Y011161D01*
X034551Y011155D01*
X034560Y011150D01*
X034571Y011145D01*
X034581Y011142D01*
X034604Y011136D01*
X034627Y011131D01*
X034638Y011130D01*
X034647Y011129D01*
X034657Y011128D01*
X034665D01*
X034670Y011127D01*
X034680D01*
X034697Y011128D01*
X034712Y011128D01*
X034726Y011130D01*
X034739Y011132D01*
X034751Y011135D01*
X034762Y011138D01*
X034771Y011141D01*
X034780Y011145D01*
X034787Y011147D01*
X034794Y011150D01*
X034799Y011153D01*
X034803Y011156D01*
X034807Y011158D01*
X034809Y011160D01*
X034810Y011161D01*
X034811D01*
X034818Y011168D01*
X034825Y011175D01*
X034830Y011182D01*
X034834Y011190D01*
X034842Y011206D01*
X034847Y011220D01*
X034850Y011233D01*
X034850Y011239D01*
X034851Y011243D01*
X034852Y011247D01*
Y011250D01*
Y011252D01*
Y011252D01*
X034851Y011267D01*
X034848Y011280D01*
X034845Y011292D01*
X034840Y011302D01*
X034836Y011310D01*
X034832Y011316D01*
X034829Y011319D01*
X034829Y011321D01*
X034820Y011330D01*
X034810Y011339D01*
X034799Y011346D01*
X034789Y011351D01*
X034780Y011354D01*
X034774Y011357D01*
X034771Y011358D01*
X034769D01*
X034768Y011359D01*
X034767D01*
X034791Y011459D01*
X034813Y011452D01*
X034831Y011444D01*
X034847Y011435D01*
X034860Y011427D01*
X034870Y011419D01*
X034875Y011416D01*
X034878Y011414D01*
X034880Y011411D01*
X034883Y011409D01*
X034884Y011408D01*
Y011408D01*
X034894Y011397D01*
X034902Y011384D01*
X034910Y011373D01*
X034915Y011360D01*
X034921Y011347D01*
X034926Y011335D01*
X034929Y011322D01*
X034932Y011311D01*
X034934Y011300D01*
X034936Y011290D01*
X034937Y011281D01*
X034938Y011273D01*
X034939Y011266D01*
Y011262D01*
Y011258D01*
Y011258D01*
X034938Y011239D01*
X034936Y011220D01*
X034932Y011203D01*
X034928Y011186D01*
X034923Y011171D01*
X034917Y011157D01*
X034910Y011145D01*
X034904Y011133D01*
X034897Y011122D01*
X034891Y011113D01*
X034885Y011105D01*
X034880Y011099D01*
X034875Y011093D01*
X034872Y011090D01*
X034869Y011088D01*
X034869Y011087D01*
X034855Y011075D01*
X034840Y011066D01*
X034825Y011057D01*
X034809Y011050D01*
X034792Y011043D01*
X034776Y011038D01*
X034760Y011034D01*
X034745Y011030D01*
X034729Y011027D01*
X034716Y011026D01*
X034704Y011024D01*
X034694Y011023D01*
X034685D01*
X034678Y011022D01*
X034673D01*
X034651Y011023D01*
X034630Y011025D01*
X034611Y011028D01*
X034593Y011032D01*
X034576Y011037D01*
X034560Y011042D01*
X034546Y011048D01*
X034534Y011054D01*
X034522Y011060D01*
X034512Y011066D01*
X034504Y011072D01*
X034497Y011076D01*
X034492Y011080D01*
X034487Y011083D01*
X034485Y011085D01*
X034485Y011086D01*
X034472Y011099D01*
X034462Y011112D01*
X034452Y011126D01*
X034445Y011139D01*
X034439Y011153D01*
X034433Y011167D01*
X034428Y011180D01*
X034425Y011193D01*
X034422Y011205D01*
X034420Y011216D01*
X034418Y011226D01*
X034417Y011234D01*
X034417Y011241D01*
X034416Y011247D01*
Y011250D01*
Y011251D01*
X034417Y011266D01*
X034417Y011280D01*
X034420Y011294D01*
X034423Y011306D01*
X034425Y011318D01*
X034428Y011329D01*
X034432Y011339D01*
X034436Y011349D01*
X034440Y011357D01*
X034444Y011364D01*
X034447Y011371D01*
X034450Y011376D01*
X034452Y011380D01*
X034455Y011383D01*
X034455Y011384D01*
X034456Y011385D01*
X034464Y011395D01*
X034473Y011403D01*
X034493Y011419D01*
X034513Y011432D01*
X034533Y011443D01*
X034542Y011447D01*
X034551Y011451D01*
X034559Y011454D01*
X034565Y011457D01*
X034571Y011459D01*
X034576Y011460D01*
X034579Y011461D01*
X034579D01*
X034610Y011362D01*
D02*
G37*
G36*
X034510Y011651D02*
X034647D01*
Y011904D01*
X034732D01*
Y011651D01*
X034844D01*
Y011923D01*
X034929D01*
Y011549D01*
X034425D01*
Y011933D01*
X034510D01*
Y011651D01*
D02*
G37*
G36*
X040562Y017553D02*
X040206D01*
Y017639D01*
X040460D01*
Y018054D01*
X040562D01*
Y017553D01*
D02*
G37*
G36*
X034221Y012351D02*
X033881D01*
X034221Y012142D01*
Y012044D01*
X033716D01*
Y012138D01*
X034049D01*
X033716Y012343D01*
Y012445D01*
X034221D01*
Y012351D01*
D02*
G37*
G36*
X033802Y012655D02*
X033939D01*
Y012908D01*
X034024D01*
Y012655D01*
X034136D01*
Y012927D01*
X034221D01*
Y012553D01*
X033716D01*
Y012936D01*
X033802D01*
Y012655D01*
D02*
G37*
G36*
Y011521D02*
X034217D01*
Y011419D01*
X033716D01*
Y011775D01*
X033802D01*
Y011521D01*
D02*
G37*
G36*
X034221Y011844D02*
X033716D01*
Y011946D01*
X034221D01*
Y011844D01*
D02*
G37*
G36*
X041717Y016136D02*
X041334D01*
Y016221D01*
X041615D01*
Y016358D01*
X041362D01*
Y016444D01*
X041615D01*
Y016555D01*
X041344D01*
Y016641D01*
X041717D01*
Y016136D01*
D02*
G37*
G36*
X042226D02*
X042132D01*
Y016469D01*
X041927Y016136D01*
X041825D01*
Y016641D01*
X041919D01*
Y016301D01*
X042128Y016641D01*
X042226D01*
Y016136D01*
D02*
G37*
G36*
X043026Y018067D02*
X043048Y018064D01*
X043066Y018061D01*
X043082Y018057D01*
X043088Y018055D01*
X043095Y018054D01*
X043100Y018052D01*
X043104Y018050D01*
X043108Y018049D01*
X043111Y018048D01*
X043112Y018047D01*
X043113D01*
X043126Y018041D01*
X043139Y018034D01*
X043150Y018026D01*
X043159Y018019D01*
X043167Y018012D01*
X043174Y018006D01*
X043177Y018003D01*
X043178Y018002D01*
X043179Y018001D01*
X043189Y017989D01*
X043198Y017977D01*
X043206Y017966D01*
X043213Y017955D01*
X043218Y017946D01*
X043223Y017938D01*
X043223Y017935D01*
X043225Y017933D01*
X043225Y017933D01*
Y017932D01*
X043233Y017911D01*
X043239Y017890D01*
X043242Y017868D01*
X043245Y017847D01*
X043246Y017838D01*
X043247Y017829D01*
X043247Y017822D01*
Y017815D01*
X043248Y017809D01*
Y017806D01*
Y017803D01*
Y017802D01*
X043247Y017780D01*
X043245Y017759D01*
X043242Y017739D01*
X043238Y017721D01*
X043233Y017704D01*
X043227Y017689D01*
X043221Y017674D01*
X043215Y017662D01*
X043209Y017650D01*
X043203Y017641D01*
X043197Y017632D01*
X043192Y017625D01*
X043188Y017620D01*
X043185Y017615D01*
X043182Y017613D01*
X043182Y017613D01*
X043169Y017600D01*
X043155Y017590D01*
X043141Y017580D01*
X043126Y017573D01*
X043111Y017567D01*
X043096Y017561D01*
X043082Y017556D01*
X043067Y017553D01*
X043054Y017550D01*
X043042Y017548D01*
X043031Y017546D01*
X043021Y017545D01*
X043014Y017545D01*
X043008Y017544D01*
X043003D01*
X042983Y017545D01*
X042964Y017547D01*
X042945Y017551D01*
X042929Y017555D01*
X042913Y017560D01*
X042898Y017566D01*
X042885Y017572D01*
X042873Y017578D01*
X042862Y017585D01*
X042853Y017591D01*
X042845Y017596D01*
X042838Y017602D01*
X042832Y017606D01*
X042829Y017610D01*
X042827Y017612D01*
X042826Y017613D01*
X042814Y017626D01*
X042804Y017641D01*
X042795Y017656D01*
X042787Y017672D01*
X042781Y017688D01*
X042775Y017704D01*
X042771Y017720D01*
X042767Y017735D01*
X042765Y017749D01*
X042763Y017763D01*
X042761Y017774D01*
X042760Y017785D01*
Y017793D01*
X042759Y017800D01*
Y017804D01*
Y017805D01*
X042760Y017828D01*
X042762Y017849D01*
X042765Y017868D01*
X042769Y017887D01*
X042774Y017904D01*
X042780Y017920D01*
X042786Y017935D01*
X042792Y017947D01*
X042799Y017959D01*
X042805Y017969D01*
X042811Y017978D01*
X042816Y017985D01*
X042819Y017990D01*
X042823Y017995D01*
X042825Y017997D01*
X042826Y017997D01*
X042839Y018010D01*
X042853Y018021D01*
X042867Y018030D01*
X042882Y018038D01*
X042897Y018045D01*
X042912Y018051D01*
X042927Y018055D01*
X042940Y018059D01*
X042954Y018062D01*
X042966Y018064D01*
X042977Y018065D01*
X042986Y018067D01*
X042994D01*
X042999Y018067D01*
X043005D01*
X043026Y018067D01*
D02*
G37*
G36*
X042426Y016136D02*
X042324D01*
Y016641D01*
X042426D01*
Y016136D01*
D02*
G37*
G36*
X042851D02*
X042495D01*
Y016221D01*
X042749D01*
Y016637D01*
X042851D01*
Y016136D01*
D02*
G37*
G36*
X034510Y013061D02*
X034647D01*
Y013314D01*
X034732D01*
Y013061D01*
X034844D01*
Y013333D01*
X034929D01*
Y012959D01*
X034425D01*
Y013342D01*
X034510D01*
Y013061D01*
D02*
G37*
G36*
X035219Y013810D02*
X035635D01*
Y013708D01*
X035134D01*
Y014064D01*
X035219D01*
Y013810D01*
D02*
G37*
G36*
X040841Y016844D02*
X040739D01*
Y017055D01*
X040706D01*
X040696Y017054D01*
X040687Y017054D01*
X040680Y017052D01*
X040674Y017051D01*
X040670Y017050D01*
X040668Y017049D01*
X040667D01*
X040662Y017046D01*
X040656Y017043D01*
X040651Y017040D01*
X040645Y017037D01*
X040642Y017033D01*
X040639Y017030D01*
X040637Y017029D01*
X040637Y017028D01*
X040634Y017025D01*
X040630Y017021D01*
X040622Y017010D01*
X040613Y016998D01*
X040604Y016985D01*
X040596Y016973D01*
X040592Y016968D01*
X040589Y016963D01*
X040586Y016960D01*
X040584Y016957D01*
X040584Y016955D01*
X040583Y016954D01*
X040510Y016844D01*
X040387D01*
X040449Y016943D01*
X040456Y016953D01*
X040463Y016963D01*
X040468Y016972D01*
X040474Y016980D01*
X040479Y016987D01*
X040484Y016995D01*
X040492Y017006D01*
X040499Y017014D01*
X040503Y017020D01*
X040507Y017024D01*
X040508Y017025D01*
X040516Y017033D01*
X040525Y017041D01*
X040534Y017048D01*
X040543Y017054D01*
X040550Y017059D01*
X040556Y017063D01*
X040560Y017066D01*
X040561Y017067D01*
X040562D01*
X040549Y017069D01*
X040538Y017072D01*
X040528Y017075D01*
X040518Y017078D01*
X040509Y017082D01*
X040501Y017086D01*
X040493Y017089D01*
X040487Y017094D01*
X040481Y017097D01*
X040476Y017101D01*
X040471Y017105D01*
X040468Y017108D01*
X040465Y017110D01*
X040463Y017112D01*
X040463Y017113D01*
X040462Y017113D01*
X040456Y017121D01*
X040451Y017128D01*
X040442Y017144D01*
X040436Y017159D01*
X040433Y017175D01*
X040430Y017188D01*
X040429Y017193D01*
Y017198D01*
X040428Y017202D01*
Y017205D01*
Y017207D01*
Y017207D01*
X040429Y017224D01*
X040432Y017239D01*
X040436Y017252D01*
X040439Y017264D01*
X040444Y017273D01*
X040447Y017280D01*
X040449Y017283D01*
X040450Y017285D01*
X040451Y017285D01*
Y017286D01*
X040460Y017299D01*
X040469Y017309D01*
X040479Y017317D01*
X040488Y017324D01*
X040497Y017328D01*
X040503Y017332D01*
X040508Y017334D01*
X040508Y017335D01*
X040509D01*
X040516Y017337D01*
X040524Y017339D01*
X040543Y017343D01*
X040562Y017345D01*
X040581Y017347D01*
X040591D01*
X040599Y017348D01*
X040607D01*
X040613Y017349D01*
X040841D01*
Y016844D01*
D02*
G37*
G36*
X035638Y013449D02*
Y013341D01*
X035134Y013146D01*
Y013254D01*
X035248Y013295D01*
Y013498D01*
X035134Y013541D01*
Y013652D01*
X035638Y013449D01*
D02*
G37*
G36*
Y012489D02*
X035134D01*
Y012591D01*
X035638D01*
Y012489D01*
D02*
G37*
G36*
X035319Y013010D02*
X035299Y013004D01*
X035282Y012998D01*
X035269Y012991D01*
X035257Y012984D01*
X035248Y012978D01*
X035242Y012973D01*
X035239Y012969D01*
X035237Y012968D01*
X035229Y012956D01*
X035223Y012944D01*
X035218Y012933D01*
X035215Y012923D01*
X035213Y012913D01*
X035213Y012905D01*
X035212Y012902D01*
Y012900D01*
Y012899D01*
Y012898D01*
X035213Y012888D01*
X035213Y012879D01*
X035218Y012861D01*
X035224Y012846D01*
X035232Y012834D01*
X035239Y012823D01*
X035245Y012816D01*
X035248Y012813D01*
X035250Y012811D01*
X035251Y012810D01*
X035252Y012810D01*
X035260Y012804D01*
X035269Y012799D01*
X035280Y012794D01*
X035291Y012790D01*
X035313Y012784D01*
X035336Y012780D01*
X035347Y012778D01*
X035356Y012777D01*
X035366Y012776D01*
X035374D01*
X035379Y012775D01*
X035389D01*
X035406Y012776D01*
X035421Y012777D01*
X035435Y012778D01*
X035448Y012780D01*
X035460Y012783D01*
X035471Y012786D01*
X035480Y012789D01*
X035489Y012793D01*
X035496Y012796D01*
X035503Y012799D01*
X035508Y012802D01*
X035512Y012804D01*
X035516Y012807D01*
X035518Y012808D01*
X035519Y012810D01*
X035520D01*
X035527Y012816D01*
X035534Y012823D01*
X035539Y012831D01*
X035543Y012839D01*
X035551Y012854D01*
X035556Y012869D01*
X035559Y012881D01*
X035560Y012887D01*
X035560Y012891D01*
X035561Y012896D01*
Y012898D01*
Y012900D01*
Y012901D01*
X035560Y012915D01*
X035557Y012928D01*
X035554Y012940D01*
X035549Y012950D01*
X035545Y012958D01*
X035541Y012964D01*
X035538Y012968D01*
X035538Y012969D01*
X035529Y012979D01*
X035519Y012987D01*
X035508Y012994D01*
X035498Y012999D01*
X035490Y013003D01*
X035483Y013005D01*
X035480Y013006D01*
X035478D01*
X035477Y013007D01*
X035476D01*
X035500Y013108D01*
X035522Y013100D01*
X035540Y013092D01*
X035556Y013084D01*
X035569Y013076D01*
X035579Y013068D01*
X035584Y013065D01*
X035587Y013062D01*
X035589Y013060D01*
X035592Y013057D01*
X035593Y013057D01*
Y013056D01*
X035603Y013045D01*
X035611Y013033D01*
X035619Y013021D01*
X035624Y013009D01*
X035630Y012995D01*
X035635Y012983D01*
X035638Y012971D01*
X035641Y012959D01*
X035643Y012948D01*
X035645Y012938D01*
X035646Y012929D01*
X035647Y012921D01*
X035648Y012915D01*
Y012910D01*
Y012907D01*
Y012906D01*
X035647Y012887D01*
X035645Y012868D01*
X035641Y012851D01*
X035637Y012834D01*
X035632Y012820D01*
X035626Y012805D01*
X035619Y012793D01*
X035613Y012781D01*
X035606Y012770D01*
X035600Y012761D01*
X035594Y012753D01*
X035589Y012747D01*
X035584Y012742D01*
X035581Y012738D01*
X035578Y012736D01*
X035578Y012735D01*
X035564Y012724D01*
X035549Y012714D01*
X035534Y012705D01*
X035518Y012698D01*
X035501Y012691D01*
X035485Y012686D01*
X035469Y012682D01*
X035454Y012678D01*
X035438Y012675D01*
X035425Y012674D01*
X035413Y012672D01*
X035403Y012671D01*
X035394D01*
X035387Y012670D01*
X035382D01*
X035360Y012671D01*
X035339Y012673D01*
X035320Y012676D01*
X035302Y012681D01*
X035285Y012685D01*
X035269Y012691D01*
X035256Y012697D01*
X035243Y012702D01*
X035231Y012708D01*
X035221Y012714D01*
X035213Y012720D01*
X035206Y012724D01*
X035201Y012729D01*
X035196Y012732D01*
X035194Y012734D01*
X035194Y012734D01*
X035181Y012747D01*
X035171Y012760D01*
X035161Y012774D01*
X035154Y012788D01*
X035148Y012802D01*
X035142Y012815D01*
X035137Y012829D01*
X035134Y012841D01*
X035131Y012853D01*
X035129Y012864D01*
X035127Y012874D01*
X035126Y012882D01*
X035126Y012890D01*
X035125Y012895D01*
Y012898D01*
Y012899D01*
X035126Y012915D01*
X035126Y012928D01*
X035129Y012942D01*
X035132Y012955D01*
X035135Y012966D01*
X035137Y012977D01*
X035141Y012987D01*
X035145Y012997D01*
X035149Y013005D01*
X035153Y013012D01*
X035156Y013019D01*
X035159Y013024D01*
X035161Y013028D01*
X035164Y013031D01*
X035164Y013033D01*
X035165Y013033D01*
X035173Y013043D01*
X035182Y013052D01*
X035202Y013068D01*
X035222Y013081D01*
X035242Y013091D01*
X035251Y013095D01*
X035260Y013099D01*
X035268Y013102D01*
X035274Y013105D01*
X035280Y013107D01*
X035285Y013108D01*
X035288Y013109D01*
X035288D01*
X035319Y013010D01*
D02*
G37*
G36*
X043032Y017358D02*
X043050Y017355D01*
X043067Y017352D01*
X043084Y017347D01*
X043099Y017342D01*
X043113Y017337D01*
X043126Y017330D01*
X043137Y017323D01*
X043148Y017317D01*
X043157Y017310D01*
X043165Y017304D01*
X043171Y017299D01*
X043177Y017295D01*
X043180Y017291D01*
X043182Y017289D01*
X043183Y017288D01*
X043195Y017275D01*
X043204Y017260D01*
X043213Y017245D01*
X043220Y017229D01*
X043227Y017212D01*
X043232Y017196D01*
X043236Y017180D01*
X043240Y017164D01*
X043243Y017149D01*
X043244Y017136D01*
X043246Y017124D01*
X043247Y017113D01*
Y017105D01*
X043248Y017098D01*
Y017094D01*
Y017093D01*
Y017092D01*
X043247Y017070D01*
X043245Y017050D01*
X043242Y017030D01*
X043238Y017013D01*
X043233Y016996D01*
X043228Y016980D01*
X043222Y016966D01*
X043216Y016954D01*
X043210Y016942D01*
X043204Y016932D01*
X043198Y016924D01*
X043194Y016917D01*
X043190Y016911D01*
X043187Y016907D01*
X043185Y016905D01*
X043184Y016904D01*
X043171Y016892D01*
X043158Y016882D01*
X043145Y016872D01*
X043131Y016865D01*
X043117Y016858D01*
X043103Y016852D01*
X043090Y016848D01*
X043077Y016844D01*
X043065Y016842D01*
X043054Y016839D01*
X043044Y016838D01*
X043036Y016837D01*
X043029Y016836D01*
X043024Y016836D01*
X043019D01*
X043004Y016836D01*
X042990Y016837D01*
X042976Y016839D01*
X042964Y016842D01*
X042952Y016845D01*
X042941Y016848D01*
X042931Y016852D01*
X042921Y016856D01*
X042913Y016860D01*
X042906Y016863D01*
X042900Y016866D01*
X042894Y016869D01*
X042890Y016872D01*
X042887Y016874D01*
X042886Y016875D01*
X042885Y016876D01*
X042876Y016884D01*
X042867Y016893D01*
X042851Y016912D01*
X042838Y016933D01*
X042827Y016952D01*
X042823Y016962D01*
X042819Y016971D01*
X042816Y016979D01*
X042814Y016985D01*
X042811Y016991D01*
X042810Y016995D01*
X042809Y016998D01*
Y016999D01*
X042908Y017030D01*
X042914Y017010D01*
X042921Y016993D01*
X042927Y016979D01*
X042935Y016968D01*
X042940Y016959D01*
X042945Y016953D01*
X042949Y016949D01*
X042951Y016948D01*
X042962Y016939D01*
X042974Y016933D01*
X042986Y016929D01*
X042996Y016925D01*
X043005Y016924D01*
X043013Y016923D01*
X043016Y016922D01*
X043020D01*
X043030Y016923D01*
X043040Y016924D01*
X043057Y016929D01*
X043072Y016935D01*
X043085Y016943D01*
X043095Y016950D01*
X043102Y016956D01*
X043105Y016959D01*
X043107Y016961D01*
X043108Y016962D01*
X043109Y016963D01*
X043115Y016971D01*
X043120Y016980D01*
X043125Y016990D01*
X043128Y017001D01*
X043134Y017024D01*
X043139Y017046D01*
X043140Y017057D01*
X043141Y017067D01*
X043142Y017076D01*
Y017084D01*
X043143Y017090D01*
Y017095D01*
Y017099D01*
Y017100D01*
X043142Y017116D01*
X043142Y017132D01*
X043140Y017146D01*
X043138Y017159D01*
X043135Y017170D01*
X043132Y017181D01*
X043129Y017191D01*
X043126Y017199D01*
X043123Y017207D01*
X043120Y017213D01*
X043117Y017218D01*
X043114Y017223D01*
X043112Y017226D01*
X043110Y017229D01*
X043109Y017230D01*
Y017231D01*
X043102Y017238D01*
X043095Y017245D01*
X043088Y017250D01*
X043080Y017254D01*
X043064Y017261D01*
X043050Y017267D01*
X043037Y017269D01*
X043032Y017270D01*
X043027Y017271D01*
X043023Y017272D01*
X043018D01*
X043003Y017271D01*
X042990Y017268D01*
X042978Y017264D01*
X042968Y017260D01*
X042960Y017256D01*
X042954Y017252D01*
X042951Y017249D01*
X042949Y017248D01*
X042940Y017240D01*
X042931Y017229D01*
X042924Y017219D01*
X042919Y017209D01*
X042916Y017200D01*
X042913Y017194D01*
X042912Y017191D01*
Y017189D01*
X042911Y017188D01*
Y017187D01*
X042811Y017211D01*
X042818Y017232D01*
X042826Y017250D01*
X042835Y017267D01*
X042843Y017280D01*
X042851Y017290D01*
X042854Y017294D01*
X042857Y017298D01*
X042859Y017300D01*
X042861Y017302D01*
X042862Y017304D01*
X042862D01*
X042873Y017313D01*
X042886Y017322D01*
X042897Y017329D01*
X042910Y017335D01*
X042923Y017341D01*
X042935Y017345D01*
X042948Y017349D01*
X042959Y017352D01*
X042970Y017354D01*
X042980Y017355D01*
X042989Y017357D01*
X042997Y017358D01*
X043004Y017358D01*
X043013D01*
X043032Y017358D01*
D02*
G37*
G36*
X042251Y016844D02*
X042157D01*
Y017177D01*
X041952Y016844D01*
X041850D01*
Y017349D01*
X041944D01*
Y017009D01*
X042152Y017349D01*
X042251D01*
Y016844D01*
D02*
G37*
G36*
X042721D02*
X042338D01*
Y016930D01*
X042619D01*
Y017067D01*
X042366D01*
Y017152D01*
X042619D01*
Y017264D01*
X042347D01*
Y017349D01*
X042721D01*
Y016844D01*
D02*
G37*
G36*
X041311D02*
X040928D01*
Y016930D01*
X041209D01*
Y017067D01*
X040956D01*
Y017152D01*
X041209D01*
Y017264D01*
X040937D01*
Y017349D01*
X041311D01*
Y016844D01*
D02*
G37*
G36*
X041778Y017264D02*
X041628D01*
Y016844D01*
X041526D01*
Y017264D01*
X041377D01*
Y017349D01*
X041778D01*
Y017264D01*
D02*
G37*
G36*
X035408Y011510D02*
X035429Y011508D01*
X035449Y011505D01*
X035468Y011501D01*
X035484Y011496D01*
X035500Y011490D01*
X035515Y011484D01*
X035527Y011478D01*
X035539Y011471D01*
X035549Y011465D01*
X035558Y011459D01*
X035565Y011454D01*
X035570Y011451D01*
X035575Y011447D01*
X035577Y011445D01*
X035578Y011444D01*
X035590Y011431D01*
X035601Y011417D01*
X035611Y011403D01*
X035619Y011388D01*
X035625Y011373D01*
X035631Y011358D01*
X035635Y011344D01*
X035639Y011330D01*
X035642Y011317D01*
X035644Y011304D01*
X035646Y011293D01*
X035647Y011284D01*
Y011276D01*
X035648Y011271D01*
Y011267D01*
Y011266D01*
X035647Y011244D01*
X035645Y011223D01*
X035641Y011204D01*
X035638Y011188D01*
X035635Y011182D01*
X035634Y011175D01*
X035632Y011170D01*
X035630Y011166D01*
X035629Y011162D01*
X035628Y011159D01*
X035627Y011158D01*
Y011157D01*
X035621Y011144D01*
X035614Y011131D01*
X035606Y011120D01*
X035599Y011111D01*
X035592Y011103D01*
X035586Y011096D01*
X035583Y011093D01*
X035582Y011092D01*
X035581Y011091D01*
X035570Y011081D01*
X035557Y011072D01*
X035546Y011064D01*
X035535Y011057D01*
X035526Y011052D01*
X035519Y011048D01*
X035516Y011047D01*
X035514Y011045D01*
X035513Y011045D01*
X035512D01*
X035492Y011037D01*
X035470Y011032D01*
X035448Y011028D01*
X035428Y011025D01*
X035418Y011024D01*
X035409Y011024D01*
X035402Y011023D01*
X035395D01*
X035390Y011022D01*
X035382D01*
X035361Y011023D01*
X035339Y011025D01*
X035320Y011028D01*
X035301Y011032D01*
X035285Y011037D01*
X035269Y011043D01*
X035255Y011049D01*
X035242Y011056D01*
X035231Y011061D01*
X035221Y011067D01*
X035213Y011073D01*
X035205Y011078D01*
X035200Y011083D01*
X035196Y011085D01*
X035194Y011088D01*
X035193Y011088D01*
X035180Y011102D01*
X035170Y011115D01*
X035161Y011129D01*
X035153Y011145D01*
X035147Y011159D01*
X035141Y011174D01*
X035137Y011188D01*
X035133Y011203D01*
X035130Y011216D01*
X035128Y011228D01*
X035126Y011239D01*
X035126Y011249D01*
X035125Y011256D01*
X035124Y011262D01*
Y011266D01*
Y011267D01*
X035125Y011287D01*
X035127Y011306D01*
X035131Y011325D01*
X035135Y011341D01*
X035140Y011357D01*
X035146Y011372D01*
X035152Y011385D01*
X035159Y011397D01*
X035165Y011408D01*
X035171Y011417D01*
X035177Y011425D01*
X035182Y011432D01*
X035186Y011438D01*
X035190Y011441D01*
X035192Y011443D01*
X035193Y011444D01*
X035207Y011456D01*
X035221Y011466D01*
X035237Y011475D01*
X035252Y011483D01*
X035268Y011489D01*
X035284Y011495D01*
X035300Y011500D01*
X035315Y011503D01*
X035329Y011505D01*
X035343Y011508D01*
X035355Y011509D01*
X035365Y011510D01*
X035374D01*
X035380Y011511D01*
X035385D01*
X035408Y011510D01*
D02*
G37*
G36*
X035504Y011976D02*
X035524Y011973D01*
X035540Y011968D01*
X035554Y011963D01*
X035560Y011960D01*
X035565Y011957D01*
X035570Y011955D01*
X035574Y011952D01*
X035577Y011951D01*
X035579Y011949D01*
X035580Y011948D01*
X035581D01*
X035594Y011936D01*
X035605Y011925D01*
X035613Y011912D01*
X035620Y011901D01*
X035624Y011891D01*
X035628Y011883D01*
X035629Y011880D01*
X035629Y011878D01*
X035630Y011876D01*
Y011876D01*
X035632Y011870D01*
X035633Y011863D01*
X035634Y011854D01*
X035635Y011845D01*
X035636Y011825D01*
X035638Y011804D01*
Y011795D01*
Y011785D01*
X035638Y011777D01*
Y011769D01*
Y011763D01*
Y011759D01*
Y011755D01*
Y011755D01*
Y011591D01*
X035134D01*
Y011693D01*
X035324D01*
Y011760D01*
Y011772D01*
Y011784D01*
X035325Y011795D01*
Y011805D01*
X035326Y011814D01*
X035326Y011823D01*
X035327Y011831D01*
X035328Y011838D01*
Y011844D01*
X035328Y011849D01*
X035329Y011855D01*
X035330Y011858D01*
Y011861D01*
X035331Y011863D01*
Y011864D01*
Y011865D01*
X035334Y011875D01*
X035337Y011884D01*
X035341Y011893D01*
X035345Y011901D01*
X035349Y011908D01*
X035352Y011913D01*
X035354Y011916D01*
X035355Y011917D01*
X035362Y011927D01*
X035370Y011935D01*
X035379Y011943D01*
X035386Y011949D01*
X035393Y011954D01*
X035399Y011957D01*
X035403Y011960D01*
X035404Y011960D01*
X035417Y011966D01*
X035430Y011970D01*
X035444Y011973D01*
X035456Y011976D01*
X035466Y011977D01*
X035471D01*
X035475Y011978D01*
X035483D01*
X035504Y011976D01*
D02*
G37*
G36*
X034523Y013821D02*
X034533Y013814D01*
X034544Y013808D01*
X034552Y013802D01*
X034560Y013796D01*
X034568Y013791D01*
X034575Y013786D01*
X034586Y013778D01*
X034595Y013771D01*
X034600Y013767D01*
X034604Y013763D01*
X034605Y013762D01*
X034614Y013754D01*
X034622Y013745D01*
X034628Y013736D01*
X034635Y013727D01*
X034640Y013720D01*
X034643Y013714D01*
X034646Y013710D01*
X034647Y013709D01*
Y013708D01*
X034649Y013721D01*
X034652Y013732D01*
X034655Y013742D01*
X034659Y013752D01*
X034662Y013761D01*
X034666Y013769D01*
X034670Y013777D01*
X034674Y013784D01*
X034678Y013789D01*
X034681Y013794D01*
X034685Y013799D01*
X034688Y013802D01*
X034690Y013805D01*
X034692Y013807D01*
X034693Y013808D01*
X034694Y013808D01*
X034701Y013814D01*
X034708Y013819D01*
X034724Y013828D01*
X034740Y013834D01*
X034755Y013837D01*
X034768Y013840D01*
X034773Y013841D01*
X034778D01*
X034782Y013842D01*
X034788D01*
X034804Y013841D01*
X034819Y013838D01*
X034832Y013835D01*
X034844Y013831D01*
X034853Y013827D01*
X034861Y013823D01*
X034863Y013821D01*
X034865Y013820D01*
X034866Y013819D01*
X034867D01*
X034879Y013810D01*
X034889Y013801D01*
X034897Y013792D01*
X034904Y013782D01*
X034909Y013773D01*
X034912Y013767D01*
X034915Y013762D01*
X034915Y013762D01*
Y013761D01*
X034918Y013754D01*
X034920Y013746D01*
X034923Y013727D01*
X034926Y013708D01*
X034928Y013689D01*
Y013679D01*
X034928Y013671D01*
Y013663D01*
X034929Y013657D01*
Y013652D01*
Y013647D01*
Y013644D01*
Y013644D01*
Y013429D01*
X034425D01*
Y013531D01*
X034635D01*
Y013552D01*
Y013564D01*
X034635Y013574D01*
X034634Y013583D01*
X034633Y013590D01*
X034632Y013596D01*
X034630Y013600D01*
X034630Y013602D01*
Y013603D01*
X034627Y013609D01*
X034624Y013614D01*
X034620Y013619D01*
X034617Y013625D01*
X034614Y013628D01*
X034611Y013631D01*
X034609Y013633D01*
X034608Y013633D01*
X034605Y013636D01*
X034601Y013640D01*
X034590Y013648D01*
X034579Y013657D01*
X034565Y013666D01*
X034554Y013674D01*
X034548Y013678D01*
X034544Y013681D01*
X034540Y013684D01*
X034537Y013686D01*
X034535Y013687D01*
X034534Y013687D01*
X034425Y013760D01*
Y013883D01*
X034523Y013821D01*
D02*
G37*
G36*
X035638Y012026D02*
X035553D01*
Y012175D01*
X035134D01*
Y012277D01*
X035553D01*
Y012426D01*
X035638D01*
Y012026D01*
D02*
G37*
%LPC*%
G36*
X042577Y017973D02*
X042501D01*
X042494Y017972D01*
X042487D01*
X042480Y017971D01*
X042471D01*
X042464Y017970D01*
X042459Y017970D01*
X042456Y017969D01*
X042455D01*
X042446Y017967D01*
X042438Y017964D01*
X042431Y017960D01*
X042425Y017956D01*
X042421Y017952D01*
X042417Y017949D01*
X042415Y017947D01*
X042414Y017946D01*
X042408Y017939D01*
X042405Y017932D01*
X042402Y017924D01*
X042399Y017917D01*
X042398Y017910D01*
X042397Y017905D01*
Y017902D01*
Y017900D01*
X042398Y017892D01*
X042399Y017885D01*
X042401Y017879D01*
X042403Y017873D01*
X042405Y017868D01*
X042407Y017864D01*
X042408Y017862D01*
X042409Y017861D01*
X042413Y017855D01*
X042419Y017850D01*
X042424Y017846D01*
X042429Y017842D01*
X042434Y017840D01*
X042437Y017838D01*
X042440Y017837D01*
X042441Y017836D01*
X042445Y017835D01*
X042451Y017834D01*
X042462Y017832D01*
X042475Y017830D01*
X042488Y017830D01*
X042502D01*
X042507Y017829D01*
X042577D01*
Y017973D01*
D02*
G37*
G36*
X040876Y017941D02*
X040805Y017753D01*
X040944D01*
X040876Y017941D01*
D02*
G37*
G36*
X043009Y017981D02*
X043003D01*
X042991Y017980D01*
X042980Y017978D01*
X042970Y017977D01*
X042961Y017974D01*
X042944Y017967D01*
X042936Y017963D01*
X042929Y017960D01*
X042923Y017955D01*
X042918Y017952D01*
X042913Y017948D01*
X042909Y017944D01*
X042906Y017941D01*
X042904Y017940D01*
X042903Y017938D01*
X042902Y017938D01*
X042896Y017929D01*
X042889Y017919D01*
X042884Y017910D01*
X042880Y017899D01*
X042873Y017877D01*
X042869Y017856D01*
X042867Y017847D01*
X042866Y017837D01*
X042865Y017829D01*
X042865Y017822D01*
X042864Y017815D01*
Y017811D01*
Y017808D01*
Y017807D01*
X042865Y017791D01*
X042865Y017776D01*
X042867Y017762D01*
X042870Y017750D01*
X042873Y017737D01*
X042876Y017726D01*
X042880Y017717D01*
X042884Y017708D01*
X042887Y017700D01*
X042891Y017693D01*
X042894Y017688D01*
X042897Y017682D01*
X042900Y017679D01*
X042902Y017677D01*
X042902Y017675D01*
X042903Y017674D01*
X042910Y017666D01*
X042919Y017660D01*
X042927Y017654D01*
X042935Y017649D01*
X042944Y017645D01*
X042952Y017642D01*
X042968Y017637D01*
X042982Y017633D01*
X042988Y017632D01*
X042993Y017631D01*
X042997Y017631D01*
X043003D01*
X043014Y017631D01*
X043025Y017633D01*
X043035Y017635D01*
X043045Y017638D01*
X043062Y017645D01*
X043076Y017653D01*
X043083Y017657D01*
X043088Y017661D01*
X043093Y017665D01*
X043096Y017669D01*
X043099Y017671D01*
X043102Y017673D01*
X043103Y017674D01*
X043104Y017675D01*
X043110Y017684D01*
X043117Y017693D01*
X043122Y017704D01*
X043126Y017715D01*
X043134Y017736D01*
X043138Y017757D01*
X043139Y017767D01*
X043141Y017776D01*
X043142Y017785D01*
X043142Y017792D01*
X043143Y017798D01*
Y017802D01*
Y017805D01*
Y017806D01*
X043142Y017822D01*
X043142Y017836D01*
X043139Y017850D01*
X043137Y017863D01*
X043134Y017875D01*
X043131Y017886D01*
X043128Y017895D01*
X043124Y017904D01*
X043120Y017912D01*
X043117Y017919D01*
X043114Y017924D01*
X043111Y017929D01*
X043109Y017933D01*
X043107Y017935D01*
X043106Y017936D01*
X043105Y017937D01*
X043098Y017945D01*
X043090Y017952D01*
X043081Y017957D01*
X043073Y017962D01*
X043064Y017967D01*
X043056Y017970D01*
X043040Y017976D01*
X043025Y017978D01*
X043019Y017979D01*
X043013Y017980D01*
X043009Y017981D01*
D02*
G37*
G36*
X040739Y017264D02*
X040622D01*
X040616Y017263D01*
X040600D01*
X040593Y017262D01*
X040589D01*
X040586Y017261D01*
X040586D01*
X040577Y017259D01*
X040569Y017256D01*
X040562Y017253D01*
X040557Y017250D01*
X040553Y017246D01*
X040549Y017244D01*
X040548Y017242D01*
X040547Y017241D01*
X040543Y017235D01*
X040539Y017228D01*
X040537Y017221D01*
X040535Y017215D01*
X040534Y017209D01*
X040533Y017205D01*
Y017202D01*
Y017200D01*
X040534Y017192D01*
X040535Y017185D01*
X040537Y017178D01*
X040538Y017172D01*
X040541Y017168D01*
X040543Y017165D01*
X040543Y017163D01*
X040544Y017162D01*
X040549Y017157D01*
X040553Y017153D01*
X040562Y017146D01*
X040566Y017144D01*
X040570Y017143D01*
X040572Y017141D01*
X040573D01*
X040576Y017140D01*
X040582Y017139D01*
X040588Y017138D01*
X040594Y017137D01*
X040610Y017137D01*
X040625Y017136D01*
X040640Y017135D01*
X040739D01*
Y017264D01*
D02*
G37*
G36*
X035334Y013465D02*
Y013326D01*
X035521Y013394D01*
X035334Y013465D01*
D02*
G37*
G36*
X035395Y011406D02*
X035387D01*
X035371Y011406D01*
X035356Y011405D01*
X035342Y011403D01*
X035330Y011400D01*
X035317Y011397D01*
X035307Y011394D01*
X035297Y011390D01*
X035288Y011387D01*
X035280Y011383D01*
X035274Y011379D01*
X035268Y011376D01*
X035263Y011373D01*
X035259Y011371D01*
X035257Y011368D01*
X035256Y011368D01*
X035255Y011367D01*
X035247Y011360D01*
X035240Y011352D01*
X035234Y011343D01*
X035229Y011335D01*
X035226Y011326D01*
X035222Y011318D01*
X035217Y011302D01*
X035213Y011288D01*
X035213Y011282D01*
X035212Y011277D01*
X035211Y011273D01*
Y011270D01*
Y011268D01*
Y011267D01*
X035212Y011256D01*
X035213Y011245D01*
X035215Y011235D01*
X035218Y011225D01*
X035225Y011208D01*
X035234Y011194D01*
X035237Y011188D01*
X035242Y011182D01*
X035245Y011177D01*
X035249Y011174D01*
X035251Y011171D01*
X035253Y011169D01*
X035255Y011167D01*
X035256Y011166D01*
X035264Y011160D01*
X035274Y011153D01*
X035284Y011148D01*
X035295Y011144D01*
X035316Y011136D01*
X035337Y011132D01*
X035347Y011131D01*
X035356Y011129D01*
X035365Y011128D01*
X035372Y011128D01*
X035378Y011127D01*
X035386D01*
X035402Y011128D01*
X035417Y011128D01*
X035430Y011131D01*
X035444Y011133D01*
X035455Y011136D01*
X035466Y011139D01*
X035476Y011142D01*
X035484Y011146D01*
X035492Y011150D01*
X035499Y011153D01*
X035504Y011156D01*
X035509Y011159D01*
X035513Y011161D01*
X035515Y011163D01*
X035517Y011164D01*
X035517Y011165D01*
X035525Y011172D01*
X035532Y011180D01*
X035538Y011189D01*
X035543Y011197D01*
X035547Y011206D01*
X035550Y011214D01*
X035556Y011231D01*
X035559Y011245D01*
X035560Y011251D01*
X035560Y011257D01*
X035561Y011261D01*
Y011264D01*
Y011266D01*
Y011267D01*
X035560Y011279D01*
X035559Y011290D01*
X035557Y011300D01*
X035554Y011309D01*
X035547Y011326D01*
X035543Y011334D01*
X035540Y011341D01*
X035535Y011347D01*
X035532Y011352D01*
X035528Y011357D01*
X035525Y011361D01*
X035522Y011364D01*
X035520Y011366D01*
X035519Y011367D01*
X035518Y011368D01*
X035509Y011374D01*
X035500Y011381D01*
X035490Y011386D01*
X035479Y011390D01*
X035457Y011397D01*
X035436Y011401D01*
X035427Y011403D01*
X035417Y011404D01*
X035409Y011405D01*
X035402Y011406D01*
X035395Y011406D01*
D02*
G37*
G36*
X035485Y011873D02*
X035481D01*
X035473Y011872D01*
X035465Y011871D01*
X035459Y011869D01*
X035453Y011867D01*
X035448Y011865D01*
X035444Y011863D01*
X035442Y011862D01*
X035441Y011861D01*
X035436Y011857D01*
X035430Y011851D01*
X035426Y011846D01*
X035422Y011841D01*
X035420Y011836D01*
X035418Y011833D01*
X035417Y011830D01*
X035417Y011829D01*
X035415Y011825D01*
X035414Y011820D01*
X035412Y011808D01*
X035411Y011795D01*
X035410Y011782D01*
Y011769D01*
X035409Y011763D01*
Y011758D01*
Y011755D01*
Y011752D01*
Y011750D01*
Y011749D01*
Y011693D01*
X035553D01*
Y011742D01*
Y011753D01*
Y011761D01*
Y011769D01*
X035552Y011777D01*
Y011783D01*
X035551Y011790D01*
Y011799D01*
X035551Y011806D01*
X035550Y011812D01*
X035549Y011814D01*
Y011815D01*
X035547Y011824D01*
X035544Y011832D01*
X035541Y011839D01*
X035536Y011845D01*
X035533Y011849D01*
X035530Y011853D01*
X035527Y011855D01*
X035527Y011856D01*
X035519Y011862D01*
X035512Y011866D01*
X035504Y011868D01*
X035497Y011871D01*
X035490Y011872D01*
X035485Y011873D01*
D02*
G37*
G36*
X034785Y013737D02*
X034780D01*
X034772Y013736D01*
X034765Y013735D01*
X034759Y013733D01*
X034753Y013732D01*
X034748Y013730D01*
X034746Y013727D01*
X034743Y013727D01*
X034743Y013726D01*
X034737Y013722D01*
X034733Y013717D01*
X034727Y013708D01*
X034724Y013704D01*
X034723Y013700D01*
X034721Y013698D01*
Y013697D01*
X034721Y013694D01*
X034719Y013688D01*
X034719Y013682D01*
X034718Y013676D01*
X034717Y013660D01*
X034716Y013645D01*
X034716Y013630D01*
Y013624D01*
Y013618D01*
Y013613D01*
Y013609D01*
Y013607D01*
Y013606D01*
Y013531D01*
X034844D01*
Y013610D01*
Y013621D01*
Y013631D01*
Y013640D01*
Y013648D01*
X034843Y013654D01*
Y013661D01*
Y013666D01*
Y013671D01*
X034842Y013677D01*
Y013681D01*
X034842Y013684D01*
Y013684D01*
X034840Y013693D01*
X034837Y013701D01*
X034834Y013708D01*
X034830Y013713D01*
X034826Y013717D01*
X034824Y013721D01*
X034822Y013722D01*
X034821Y013723D01*
X034815Y013727D01*
X034808Y013731D01*
X034802Y013733D01*
X034795Y013735D01*
X034789Y013736D01*
X034785Y013737D01*
D02*
G37*
%LPD*%
D10*
X027874Y018266D02*
X031969D01*
X035984Y022203D02*
Y026298D01*
X039843Y018266D02*
X043937D01*
X035984Y010156D02*
Y014250D01*
D14*
X027126Y011152D02*
Y025344D01*
D67*
X033132Y021170D02*
G03*
X032935Y020973I000000J-000197D01*
G01*
X032935Y015638D02*
G03*
X033132Y015441I000197J000000D01*
G01*
X032640Y015343D02*
G03*
X032837Y015146I000197J000000D01*
G01*
Y021465D02*
G03*
X032640Y021268I000000J-000197D01*
G01*
X038998D02*
G03*
X038801Y021465I-000197J000000D01*
G01*
X038703Y020973D02*
G03*
X038506Y021170I-000197J000000D01*
G01*
Y015441D02*
G03*
X038703Y015638I000000J000197D01*
G01*
X038801Y015146D02*
G03*
X038995Y015377I000000J000197D01*
G01*
X018927Y015217D02*
X020384D01*
X018927Y014035D02*
X020384D01*
X025217Y016181D02*
X026358D01*
Y016417D01*
X025217D02*
X026358D01*
X025217Y016181D02*
Y016417D01*
X025906Y011713D02*
Y012854D01*
X025669D02*
X025906D01*
X025669Y011713D02*
Y012854D01*
Y011713D02*
X025906D01*
X010236Y022805D02*
Y023061D01*
Y022805D02*
X011378D01*
Y023061D01*
X022169Y010791D02*
Y013272D01*
X019689Y010791D02*
X022169D01*
X019689Y013272D02*
X022169D01*
X017459Y010807D02*
Y013287D01*
X014978D02*
X017459D01*
X018671Y012372D02*
X019124D01*
X015276Y014813D02*
Y015266D01*
X014616Y022539D02*
X015069D01*
X015364Y018110D02*
X015817D01*
X020758Y022756D02*
Y023209D01*
X016939Y023455D02*
X017175D01*
X016939Y022707D02*
X017175D01*
X016919Y013996D02*
X017156D01*
X016919Y014744D02*
X017156D01*
X014231Y020802D02*
Y021038D01*
X014979Y020802D02*
Y021038D01*
X021585Y014843D02*
X021821Y014843D01*
X021585Y014094D02*
X021821D01*
X012313Y012831D02*
X013848Y012831D01*
X020177Y024104D02*
Y024144D01*
Y024104D02*
X020335Y023947D01*
X020374Y023947D01*
X021752D02*
Y024144D01*
X021555Y023947D02*
X021752Y023947D01*
X020177Y025325D02*
Y025522D01*
X020374D01*
X021752Y025325D02*
Y025522D01*
X021555D02*
X021752D01*
X025749Y024162D02*
Y024221D01*
X026064Y024162D02*
Y024221D01*
X010876Y023642D02*
Y024783D01*
X010620D02*
X010876D01*
X010620Y023642D02*
Y024783D01*
Y023642D02*
X010876D01*
X021575Y018533D02*
Y018986D01*
X023061Y011309D02*
X023652D01*
X023061Y010128D02*
X023652D01*
X037984Y020520D02*
X038238D01*
X037984Y016087D02*
X038238D01*
Y020520D01*
X032738Y015443D02*
X032817D01*
X032738D02*
Y015561D01*
X032817D01*
Y015443D02*
Y015561D01*
X033132Y015441D02*
X033672D01*
X037966Y021170D02*
X038506D01*
X032837Y015146D02*
X038801D01*
X032640Y015343D02*
Y021268D01*
X032837Y021465D02*
X038801D01*
X038995Y015377D02*
X038998Y021268D01*
X038703Y015638D02*
Y020973D01*
X033132Y021170D02*
X033672D01*
X032935Y015638D02*
Y020973D01*
X037966Y015441D02*
X038506D01*
X039315Y014634D02*
X039490Y014809D01*
X032323Y014634D02*
X039315D01*
X032148Y014809D02*
X032323Y014634D01*
X032148Y014809D02*
Y021802D01*
X032323Y021977D01*
X039315D01*
X039490Y021802D01*
Y014809D02*
Y021802D01*
X022387Y022035D02*
X022406D01*
X022444Y022053D01*
X022462Y022072D01*
X022481Y022109D01*
Y022184D01*
X022462Y022222D01*
X022444Y022241D01*
X022406Y022259D01*
X022369D01*
X022331Y022241D01*
X022275Y022203D01*
X022087Y022016D01*
Y022278D01*
X026148Y021857D02*
X026166Y021894D01*
X026223Y021950D01*
X025829D01*
X014045Y022878D02*
X014008Y022896D01*
X013952Y022953D01*
Y022559D01*
D68*
X101004Y027963D02*
X101534Y027433D01*
X101004Y027963D02*
X100777Y027736D01*
X100726Y027635D01*
Y027585D01*
X100751Y027509D01*
X100802Y027458D01*
X100878Y027433D01*
X100928D01*
X101029Y027484D01*
X101256Y027711D02*
X101029Y027484D01*
X100978Y027383D01*
Y027332D01*
X101004Y027256D01*
X101079Y027181D01*
X101155Y027155D01*
X101206D01*
X101307Y027206D01*
X101534Y027433D01*
X100582Y027188D02*
X100658Y027213D01*
X100759D01*
X100860Y027163D01*
X100910Y027112D01*
X100961Y027011D01*
Y026910D01*
X100936Y026835D01*
X100860Y026759D01*
X100784Y026734D01*
X100683Y026734D01*
X100582Y026784D01*
X100532Y026835D01*
X100481Y026936D01*
X100481Y027037D01*
X100506Y027112D01*
X100582Y027188D01*
X100011Y026971D02*
X100441Y026542D01*
X100491Y026441D01*
X100466Y026365D01*
X100415Y026315D01*
X100264Y026870D02*
X100087Y026693D01*
X099734Y026693D02*
X100163Y026264D01*
X100213Y026163D01*
X100188Y026087D01*
X100138Y026037D01*
X099986Y026592D02*
X099809Y026416D01*
X099582Y026188D02*
X099658Y026214D01*
X099759D01*
X099860Y026163D01*
X099910Y026113D01*
X099961Y026012D01*
Y025911D01*
X099936Y025835D01*
X099860Y025759D01*
X099784Y025734D01*
X099683Y025734D01*
X099582Y025784D01*
X099532Y025835D01*
X099481Y025936D01*
X099481Y026037D01*
X099507Y026113D01*
X099582Y026188D01*
X099264Y025870D02*
X099618Y025517D01*
X099365Y025769D02*
X099214D01*
X099138Y025744D01*
X099062Y025668D01*
X099037Y025592D01*
X099087Y025491D01*
X099340Y025239D01*
X099087Y025491D02*
X098936D01*
X098860Y025466D01*
X098784Y025390D01*
X098759Y025315D01*
X098810Y025214D01*
X099062Y024961D01*
X097797Y024757D02*
X097873Y024782D01*
X097974D01*
X098050Y024757D01*
X098151Y024706D01*
X098277Y024580D01*
X098327Y024479D01*
X098353Y024403D01*
X098353Y024302D01*
X098327Y024227D01*
X098226Y024126D01*
X098151Y024100D01*
X098050D01*
X097974Y024126D01*
X097873Y024176D01*
X097747Y024302D01*
X097696Y024403D01*
X097671Y024479D01*
Y024580D01*
X097696Y024656D01*
X097797Y024757D01*
X097598Y024204D02*
X097800Y023699D01*
X097295Y023901D02*
X097800Y023699D01*
X097360Y023663D02*
X097057Y023361D01*
X097007Y023411D01*
X096982Y023487D01*
X096982Y023537D01*
X097007Y023613D01*
X097083Y023689D01*
X097158Y023714D01*
X097259D01*
X097360Y023663D01*
X097411Y023613D01*
X097461Y023512D01*
Y023411D01*
X097436Y023335D01*
X097360Y023260D01*
X097285Y023234D01*
X097184Y023234D01*
X096792Y023398D02*
X097146Y023045D01*
X096944Y023247D02*
X096843Y023297D01*
X096742D01*
X096666Y023272D01*
X096590Y023196D01*
X096366Y023325D02*
X096896Y022795D01*
X096128Y022734D02*
X096482Y022381D01*
X096204Y022659D02*
Y022760D01*
X096229Y022835D01*
X096305Y022911D01*
X096381Y022936D01*
X096482D01*
X096583Y022886D01*
X096633Y022835D01*
X096684Y022734D01*
Y022633D01*
X096658Y022558D01*
X096583Y022482D01*
X096507Y022457D01*
X096406Y022457D01*
X095962Y022568D02*
X096164Y022063D01*
X095659Y022265D02*
X096164Y022063D01*
X096315Y022012D01*
X096416D01*
X096492Y022037D01*
X096517Y022063D01*
D69*
X018760Y013996D02*
G03*
X018760Y013996I-000049J000000D01*
G01*
X026378Y012913D02*
G03*
X026383Y012935I-000044J000022D01*
G01*
X015208Y013500D02*
G03*
X015209Y013506I-000049J000006D01*
G01*
X011614Y011096D02*
G03*
X011614Y011096I-000049J000000D01*
G01*
X019852Y024350D02*
G03*
X019852Y024350I-000049J000000D01*
G01*
X025956Y023523D02*
G03*
X025956Y023523I-000049J000000D01*
G01*
X011348Y024902D02*
G03*
X011348Y024902I-000049J000000D01*
G01*
X022717Y010157D02*
G03*
X022717Y010157I-000010J000000D01*
G01*
D70*
X040187Y014949D02*
Y015054D01*
Y015002D01*
X039872D01*
Y014949D01*
Y015054D01*
X040134Y015422D02*
X040187Y015369D01*
Y015264D01*
X040134Y015212D01*
X039925D01*
X039872Y015264D01*
Y015369D01*
X039925Y015422D01*
X039872Y015526D02*
Y015631D01*
Y015579D01*
X040187D01*
X040134Y015526D01*
D75*
X026535Y011161D02*
Y025354D01*
X027717Y011161D02*
Y025354D01*
X022805Y012992D02*
Y014232D01*
X024754Y013543D02*
Y014232D01*
Y022303D02*
Y023051D01*
X022805Y022303D02*
Y023543D01*
X024333Y014016D02*
Y014248D01*
X023701Y013323D02*
Y013480D01*
X023858D01*
Y013323D02*
Y013480D01*
X023226Y013323D02*
X023898D01*
X023423Y023213D02*
X023898D01*
X024333Y022287D02*
Y022520D01*
X023226Y022287D02*
X024333D01*
X023226D02*
Y023016D01*
X023407Y014793D02*
Y014852D01*
X024152Y014793D02*
Y014852D01*
X023407Y014990D02*
Y015049D01*
X024152Y014990D02*
Y015049D01*
X023407Y015187D02*
Y015246D01*
X024152Y015187D02*
Y015246D01*
X023407Y015384D02*
Y015443D01*
X024152Y015384D02*
Y015443D01*
X023407Y015581D02*
Y015640D01*
X024152Y015581D02*
Y015640D01*
X023407Y015778D02*
Y015837D01*
X024152Y015778D02*
Y015837D01*
X023407Y015974D02*
Y016033D01*
X024152Y015974D02*
Y016033D01*
X023407Y016171D02*
Y016230D01*
X024152Y016171D02*
Y016230D01*
X023407Y016368D02*
Y016427D01*
X024152Y016368D02*
Y016427D01*
X023407Y016565D02*
Y016624D01*
X024152Y016565D02*
Y016624D01*
X023407Y016762D02*
Y016821D01*
X024152Y016762D02*
Y016821D01*
X023407Y016959D02*
Y017018D01*
X024152Y016959D02*
Y017018D01*
X023407Y017156D02*
Y017215D01*
X024152Y017156D02*
Y017215D01*
X023407Y017352D02*
Y017411D01*
X024152Y017352D02*
Y017411D01*
X023407Y017549D02*
Y017608D01*
X024152Y017549D02*
Y017608D01*
X023407Y017746D02*
Y017805D01*
X024152Y017746D02*
Y017805D01*
X023407Y017943D02*
Y018002D01*
X024152Y017943D02*
Y018002D01*
X023407Y018140D02*
Y018199D01*
X024152Y018140D02*
Y018199D01*
X023407Y018337D02*
Y018396D01*
X024152Y018337D02*
Y018396D01*
X023407Y018533D02*
Y018593D01*
X024152Y018533D02*
Y018593D01*
X023407Y018730D02*
Y018789D01*
X024152Y018730D02*
Y018789D01*
X023407Y018927D02*
Y018986D01*
X024152Y018927D02*
Y018986D01*
X023407Y019124D02*
Y019183D01*
X024152Y019124D02*
Y019183D01*
X023407Y019321D02*
Y019380D01*
X024152Y019321D02*
Y019380D01*
X023407Y019518D02*
Y019577D01*
X024152Y019518D02*
Y019577D01*
X023407Y019715D02*
Y019774D01*
X024152Y019715D02*
Y019774D01*
X023407Y019911D02*
Y019970D01*
X024152Y019911D02*
Y019970D01*
X023407Y020108D02*
Y020167D01*
X024152Y020108D02*
Y020167D01*
X023407Y020305D02*
Y020364D01*
X024152Y020305D02*
Y020364D01*
X023407Y020502D02*
Y020561D01*
X024152Y020502D02*
Y020561D01*
X023407Y020699D02*
Y020758D01*
X024152Y020699D02*
Y020758D01*
X023407Y020896D02*
Y020955D01*
X024152Y020896D02*
Y020955D01*
X023407Y021093D02*
Y021152D01*
X024152Y021093D02*
Y021152D01*
X023407Y021289D02*
Y021348D01*
X024152Y021289D02*
Y021348D01*
X023407Y021486D02*
Y021545D01*
X024152Y021486D02*
Y021545D01*
X023407Y021683D02*
Y021742D01*
X024152Y021683D02*
Y021742D01*
X023226Y014248D02*
X024333D01*
X024715Y023091D02*
X024754Y023051D01*
X023226Y013323D02*
Y014248D01*
Y023016D02*
X023423Y023213D01*
X022805Y023543D02*
X024262D01*
X024715Y023091D01*
X024152Y022077D02*
Y022136D01*
X023407Y021880D02*
Y021939D01*
Y022077D02*
Y022136D01*
X024152Y021880D02*
Y021939D01*
Y014400D02*
Y014459D01*
Y014596D02*
Y014656D01*
X023407Y014596D02*
Y014656D01*
Y014400D02*
Y014459D01*
X011782Y012992D02*
Y014232D01*
X013730Y012992D02*
Y014232D01*
Y022303D02*
Y023051D01*
X011782Y022303D02*
Y023543D01*
X013309Y014016D02*
Y014248D01*
X012677Y013323D02*
Y013480D01*
X012835D01*
Y013323D02*
Y013480D01*
X012203Y013323D02*
X012874D01*
X012400Y023213D02*
X012874D01*
X013309Y022287D02*
Y022520D01*
X012203Y022287D02*
X013309D01*
X012203D02*
Y023016D01*
X012384Y014793D02*
Y014852D01*
X013128Y014793D02*
Y014852D01*
X012384Y014990D02*
Y015049D01*
X013128Y014990D02*
Y015049D01*
X012384Y015187D02*
Y015246D01*
X013128Y015187D02*
Y015246D01*
X012384Y015384D02*
Y015443D01*
X013128Y015384D02*
Y015443D01*
X012384Y015581D02*
Y015640D01*
X013128Y015581D02*
Y015640D01*
X012384Y015778D02*
Y015837D01*
X013128Y015778D02*
Y015837D01*
X012384Y015974D02*
Y016033D01*
X013128Y015974D02*
Y016033D01*
X012384Y016171D02*
Y016230D01*
X013128Y016171D02*
Y016230D01*
X012384Y016368D02*
Y016427D01*
X013128Y016368D02*
Y016427D01*
X012384Y016565D02*
Y016624D01*
X013128Y016565D02*
Y016624D01*
X012384Y016762D02*
Y016821D01*
X013128Y016762D02*
Y016821D01*
X012384Y016959D02*
Y017018D01*
X013128Y016959D02*
Y017018D01*
X012384Y017156D02*
Y017215D01*
X013128Y017156D02*
Y017215D01*
X012384Y017352D02*
Y017411D01*
X013128Y017352D02*
Y017411D01*
X012384Y017549D02*
Y017608D01*
X013128Y017549D02*
Y017608D01*
X012384Y017746D02*
Y017805D01*
X013128Y017746D02*
Y017805D01*
X012384Y017943D02*
Y018002D01*
X013128Y017943D02*
Y018002D01*
X012384Y018140D02*
Y018199D01*
X013128Y018140D02*
Y018199D01*
X012384Y018337D02*
Y018396D01*
X013128Y018337D02*
Y018396D01*
X012384Y018533D02*
Y018593D01*
X013128Y018533D02*
Y018593D01*
X012384Y018730D02*
Y018789D01*
X013128Y018730D02*
Y018789D01*
X012384Y018927D02*
Y018986D01*
X013128Y018927D02*
Y018986D01*
X012384Y019124D02*
Y019183D01*
X013128Y019124D02*
Y019183D01*
X012384Y019321D02*
Y019380D01*
X013128Y019321D02*
Y019380D01*
X012384Y019518D02*
Y019577D01*
X013128Y019518D02*
Y019577D01*
X012384Y019715D02*
Y019774D01*
X013128Y019715D02*
Y019774D01*
X012384Y019911D02*
Y019970D01*
X013128Y019911D02*
Y019970D01*
X012384Y020108D02*
Y020167D01*
X013128Y020108D02*
Y020167D01*
X012384Y020305D02*
Y020364D01*
X013128Y020305D02*
Y020364D01*
X012384Y020502D02*
Y020561D01*
X013128Y020502D02*
Y020561D01*
X012384Y020699D02*
Y020758D01*
X013128Y020699D02*
Y020758D01*
X012384Y020896D02*
Y020955D01*
X013128Y020896D02*
Y020955D01*
X012384Y021093D02*
Y021152D01*
X013128Y021093D02*
Y021152D01*
X012384Y021289D02*
Y021348D01*
X013128Y021289D02*
Y021348D01*
X012384Y021486D02*
Y021545D01*
X013128Y021486D02*
Y021545D01*
X012384Y021683D02*
Y021742D01*
X013128Y021683D02*
Y021742D01*
X012203Y014248D02*
X013309D01*
X013691Y023091D02*
X013730Y023051D01*
X012203Y013323D02*
Y014248D01*
Y023016D02*
X012400Y023213D01*
X013238Y023543D02*
X013691Y023091D01*
X013128Y022077D02*
Y022136D01*
X012384Y021880D02*
Y021939D01*
Y022077D02*
Y022136D01*
X013128Y021880D02*
Y021939D01*
Y014400D02*
Y014459D01*
Y014596D02*
Y014656D01*
X012384Y014596D02*
Y014656D01*
Y014400D02*
Y014459D01*
X022667Y012087D02*
X022864D01*
Y011988D01*
X022831Y011955D01*
X022799D01*
X022766Y011988D01*
Y012087D01*
Y011988D01*
X022733Y011955D01*
X022700D01*
X022667Y011988D01*
Y012087D01*
Y011890D02*
Y011759D01*
Y011824D01*
X022864D01*
Y011693D02*
X022667D01*
X022733Y011627D01*
X022667Y011562D01*
X022864D01*
X033318Y022848D02*
X033351Y022815D01*
Y022749D01*
X033318Y022717D01*
X033285D01*
X033253Y022749D01*
Y022815D01*
X033220Y022848D01*
X033187D01*
X033154Y022815D01*
Y022749D01*
X033187Y022717D01*
X033154Y022913D02*
X033351D01*
Y023012D01*
X033318Y023045D01*
X033253D01*
X033220Y023012D01*
Y022913D01*
X033351Y023241D02*
Y023110D01*
X033154D01*
Y023241D01*
X033253Y023110D02*
Y023176D01*
X033351Y023307D02*
X033154D01*
X033220D01*
X033351Y023438D01*
X033253Y023340D01*
X033154Y023438D01*
X033351Y023504D02*
Y023635D01*
Y023569D01*
X033154D01*
Y023700D02*
X033351D01*
Y023799D01*
X033318Y023832D01*
X033253D01*
X033220Y023799D01*
Y023700D01*
Y023766D02*
X033154Y023832D01*
X033351Y023996D02*
Y023930D01*
X033318Y023897D01*
X033187D01*
X033154Y023930D01*
Y023996D01*
X033187Y024028D01*
X033318D01*
X033351Y023996D01*
X033154Y024094D02*
X033351D01*
Y024192D01*
X033318Y024225D01*
X033253D01*
X033220Y024192D01*
Y024094D01*
X033154Y024422D02*
Y024291D01*
X033285Y024422D01*
X033318D01*
X033351Y024389D01*
Y024324D01*
X033318Y024291D01*
X033021Y022848D02*
X033054Y022815D01*
Y022749D01*
X033021Y022717D01*
X032989D01*
X032956Y022749D01*
Y022815D01*
X032923Y022848D01*
X032890D01*
X032857Y022815D01*
Y022749D01*
X032890Y022717D01*
X033054Y023045D02*
Y022913D01*
X032857D01*
Y023045D01*
X032956Y022913D02*
Y022979D01*
X032857Y023110D02*
X033054D01*
X032857Y023241D01*
X033054D01*
X033021Y023438D02*
X033054Y023405D01*
Y023340D01*
X033021Y023307D01*
X032989D01*
X032956Y023340D01*
Y023405D01*
X032923Y023438D01*
X032890D01*
X032857Y023405D01*
Y023340D01*
X032890Y023307D01*
X033054Y023602D02*
Y023537D01*
X033021Y023504D01*
X032890D01*
X032857Y023537D01*
Y023602D01*
X032890Y023635D01*
X033021D01*
X033054Y023602D01*
X032857Y023700D02*
X033054D01*
Y023799D01*
X033021Y023832D01*
X032956D01*
X032923Y023799D01*
Y023700D01*
Y023766D02*
X032857Y023832D01*
X032825Y023897D02*
Y024028D01*
X033054Y024094D02*
X032857D01*
Y024192D01*
X032890Y024225D01*
X032923D01*
X032956Y024192D01*
Y024094D01*
Y024192D01*
X032989Y024225D01*
X033021D01*
X033054Y024192D01*
Y024094D01*
X032857Y024291D02*
X033054D01*
Y024389D01*
X033021Y024422D01*
X032956D01*
X032923Y024389D01*
Y024291D01*
Y024356D02*
X032857Y024422D01*
X033054Y024488D02*
X032857D01*
Y024586D01*
X032890Y024619D01*
X033021D01*
X033054Y024586D01*
Y024488D01*
X032825Y024684D02*
Y024816D01*
X033054Y024881D02*
X032923D01*
X032857Y024947D01*
X032923Y025012D01*
X033054D01*
X032857Y025078D02*
Y025144D01*
Y025111D01*
X033054D01*
X033021Y025078D01*
X032329Y022717D02*
X032362Y022749D01*
Y022815D01*
X032329Y022848D01*
X032198D01*
X032165Y022815D01*
Y022749D01*
X032198Y022717D01*
X032329D01*
X032165Y023045D02*
Y022913D01*
X032297Y023045D01*
X032329D01*
X032362Y023012D01*
Y022946D01*
X032329Y022913D01*
X032165Y023110D02*
X032297Y023241D01*
X032329Y023307D02*
X032362Y023340D01*
Y023405D01*
X032329Y023438D01*
X032198D01*
X032165Y023405D01*
Y023340D01*
X032198Y023307D01*
X032329D01*
X032165Y023635D02*
Y023504D01*
X032297Y023635D01*
X032329D01*
X032362Y023602D01*
Y023537D01*
X032329Y023504D01*
X032165Y023700D02*
X032297Y023832D01*
X032165Y024028D02*
Y023897D01*
X032297Y024028D01*
X032329D01*
X032362Y023996D01*
Y023930D01*
X032329Y023897D01*
Y024094D02*
X032362Y024127D01*
Y024192D01*
X032329Y024225D01*
X032198D01*
X032165Y024192D01*
Y024127D01*
X032198Y024094D01*
X032329D01*
X032165Y024291D02*
Y024356D01*
Y024324D01*
X032362D01*
X032329Y024291D01*
Y024455D02*
X032362Y024488D01*
Y024553D01*
X032329Y024586D01*
X032297D01*
X032264Y024553D01*
X032231Y024586D01*
X032198D01*
X032165Y024553D01*
Y024488D01*
X032198Y024455D01*
X032231D01*
X032264Y024488D01*
X032297Y024455D01*
X032329D01*
X032264Y024488D02*
Y024553D01*
X032659Y022848D02*
X032692Y022815D01*
Y022749D01*
X032659Y022717D01*
X032528D01*
X032495Y022749D01*
Y022815D01*
X032528Y022848D01*
X032495Y022913D02*
X032692D01*
X032626Y022979D01*
X032692Y023045D01*
X032495D01*
X032692Y023110D02*
X032561D01*
X032495Y023176D01*
X032561Y023241D01*
X032692D01*
X032495Y023405D02*
X032692D01*
X032593Y023307D01*
Y023438D01*
X032659Y023504D02*
X032692Y023537D01*
Y023602D01*
X032659Y023635D01*
X032528D01*
X032495Y023602D01*
Y023537D01*
X032528Y023504D01*
X032659D01*
Y023700D02*
X032692Y023733D01*
Y023799D01*
X032659Y023832D01*
X032528D01*
X032495Y023799D01*
Y023733D01*
X032528Y023700D01*
X032659D01*
Y023897D02*
X032692Y023930D01*
Y023996D01*
X032659Y024028D01*
X032528D01*
X032495Y023996D01*
Y023930D01*
X032528Y023897D01*
X032659D01*
X028760Y011996D02*
Y011800D01*
X028661D01*
X028629Y011832D01*
Y011865D01*
X028661Y011898D01*
X028760D01*
X028661D01*
X028629Y011931D01*
Y011964D01*
X028661Y011996D01*
X028760D01*
X028563D02*
X028432D01*
X028497D01*
Y011800D01*
X028366D02*
Y011996D01*
X028301Y011931D01*
X028235Y011996D01*
Y011800D01*
X017982Y025728D02*
X017851D01*
X017917D01*
Y025531D01*
X017786D02*
Y025728D01*
X017687D01*
X017654Y025695D01*
Y025630D01*
X017687Y025597D01*
X017786D01*
X017589Y025531D02*
X017523D01*
X017556D01*
Y025728D01*
X017589Y025695D01*
X017425Y025564D02*
X017392Y025531D01*
X017326D01*
X017294Y025564D01*
Y025695D01*
X017326Y025728D01*
X017392D01*
X017425Y025695D01*
Y025663D01*
X017392Y025630D01*
X017294D01*
X022018Y025846D02*
X021887D01*
X021952D01*
Y025650D01*
X021821D02*
Y025846D01*
X021723D01*
X021690Y025814D01*
Y025748D01*
X021723Y025715D01*
X021821D01*
X021493Y025650D02*
X021624D01*
X021493Y025781D01*
Y025814D01*
X021526Y025846D01*
X021591D01*
X021624Y025814D01*
X021296Y025650D02*
X021427D01*
X021296Y025781D01*
Y025814D01*
X021329Y025846D01*
X021395D01*
X021427Y025814D01*
X016033Y022805D02*
X015902D01*
X015968D01*
Y022608D01*
X015837D02*
Y022805D01*
X015738D01*
X015705Y022772D01*
Y022707D01*
X015738Y022674D01*
X015837D01*
X015509Y022608D02*
X015640D01*
X015509Y022739D01*
Y022772D01*
X015541Y022805D01*
X015607D01*
X015640Y022772D01*
X015443D02*
X015410Y022805D01*
X015345D01*
X015312Y022772D01*
Y022641D01*
X015345Y022608D01*
X015410D01*
X015443Y022641D01*
Y022772D01*
D76*
X031781Y014924D02*
X031833D01*
D81*
X026339Y015492D02*
Y015512D01*
M02*
