G04 Layer_Color=32896*
%FSAX24Y24*%
%MOIN*%
G70*
G01*
G75*
%ADD65C,0.0079*%
%ADD73C,0.0039*%
%ADD79C,0.0100*%
%ADD175C,0.0020*%
D65*
X024543Y018453D02*
X025331D01*
X024543D02*
Y018807D01*
X025331D01*
Y018453D02*
Y018807D01*
X024740Y018630D02*
X024937D01*
Y018827D01*
Y018630D02*
X025134D01*
X024937Y018433D02*
Y018630D01*
X024543Y018953D02*
X025331D01*
X024543D02*
Y019307D01*
X025331D01*
Y018953D02*
Y019307D01*
X024740Y019130D02*
X024937D01*
Y019327D01*
Y019130D02*
X025134D01*
X024937Y018933D02*
Y019130D01*
X024543Y019453D02*
X025331D01*
X024543D02*
Y019807D01*
X025331D01*
Y019453D02*
Y019807D01*
X024740Y019630D02*
X024937D01*
Y019827D01*
Y019630D02*
X025134D01*
X024937Y019433D02*
Y019630D01*
X024543Y019953D02*
X025331D01*
X024543D02*
Y020307D01*
X025331D01*
Y019953D02*
Y020307D01*
X024740Y020130D02*
X024937D01*
Y020327D01*
Y020130D02*
X025134D01*
X024937Y019933D02*
Y020130D01*
X024543Y020453D02*
X025331D01*
X024543D02*
Y020807D01*
X025331D01*
Y020453D02*
Y020807D01*
X024740Y020630D02*
X024937D01*
Y020827D01*
Y020630D02*
X025134D01*
X024937Y020433D02*
Y020630D01*
X024543Y020953D02*
X025331D01*
X024543D02*
Y021307D01*
X025331D01*
Y020953D02*
Y021307D01*
X024740Y021130D02*
X024937D01*
Y021327D01*
Y021130D02*
X025134D01*
X024937Y020933D02*
Y021130D01*
X024543Y021453D02*
X025331D01*
X024543D02*
Y021807D01*
X025331D01*
Y021453D02*
Y021807D01*
X024740Y021630D02*
X024937D01*
Y021827D01*
Y021630D02*
X025134D01*
X024937Y021433D02*
Y021630D01*
X025276Y017189D02*
X026457D01*
X025276D02*
Y018055D01*
X026457D01*
Y017189D02*
Y018055D01*
X025669Y017622D02*
X025866D01*
Y017819D01*
Y017622D02*
X026063D01*
X025866Y017425D02*
Y017622D01*
X025276Y022205D02*
X026457D01*
X025276D02*
Y023071D01*
X026457D01*
Y022205D02*
Y023071D01*
X025669Y022638D02*
X025866D01*
Y022835D01*
Y022638D02*
X026063D01*
X025866Y022441D02*
Y022638D01*
D73*
X026161Y017622D02*
G03*
X026161Y017622I-000295J000000D01*
G01*
Y022638D02*
G03*
X026161Y022638I-000295J000000D01*
G01*
X024626Y013583D02*
G03*
X024626Y013583I-000295J000000D01*
G01*
Y022953D02*
G03*
X024626Y022953I-000295J000000D01*
G01*
X013602Y013583D02*
G03*
X013602Y013583I-000295J000000D01*
G01*
Y022953D02*
G03*
X013602Y022953I-000295J000000D01*
G01*
X014350Y010846D02*
Y011043D01*
Y010846D02*
X014547D01*
X014154D02*
X014350D01*
Y010650D02*
Y010846D01*
Y011171D02*
X014508Y011329D01*
X014193D02*
X014350Y011171D01*
Y010679D02*
Y011014D01*
Y010522D02*
X014508Y010679D01*
X014193D02*
X014350Y010522D01*
X014193Y010679D02*
X014508D01*
X014193Y010364D02*
Y010679D01*
Y010364D02*
X014508D01*
Y010679D01*
X014193Y011329D02*
X014508D01*
X014193Y011014D02*
Y011329D01*
Y011014D02*
X014508D01*
Y011329D01*
X012264Y010492D02*
X012264Y010689D01*
X012067Y010492D02*
X012264D01*
Y010295D02*
Y010492D01*
X012461D01*
X012756Y010689D02*
X012756Y010492D01*
X012559D02*
X012756D01*
X012756Y010295D02*
X012756Y010492D01*
X012953D01*
X012371Y010631D02*
X012510Y010492D01*
X012371Y010353D02*
X012510Y010492D01*
X012649Y010353D01*
X012510Y010492D02*
X012649Y010631D01*
X025354Y015016D02*
Y015213D01*
X025157D02*
X025354D01*
X025551D01*
X025354D02*
Y015410D01*
Y014229D02*
Y014426D01*
X025157D02*
X025354D01*
X025551D01*
X025354D02*
Y014622D01*
Y013441D02*
Y013638D01*
X025157D02*
X025354D01*
X025551D01*
X025354D02*
Y013835D01*
X026142Y013048D02*
Y013244D01*
X025945D02*
X026142D01*
X026339D01*
X026142D02*
Y013441D01*
Y013835D02*
Y014032D01*
X025945D02*
X026142D01*
X026339D01*
X026142D02*
Y014229D01*
Y014622D02*
Y014819D01*
X025945D02*
X026142D01*
X026339D01*
X026142D02*
Y015016D01*
X025748Y014032D02*
Y014229D01*
X025551D02*
X025748D01*
X025945D01*
X025748D02*
Y014426D01*
X024656Y010256D02*
Y010453D01*
X024459D02*
X024656D01*
X024852D01*
X024656D02*
Y010650D01*
Y011043D02*
Y011240D01*
X024459D02*
X024656D01*
X024852D01*
X024656D02*
Y011437D01*
X023415Y025118D02*
Y025315D01*
Y025118D02*
X023612D01*
X023219D02*
X023415D01*
Y024921D02*
Y025118D01*
X024415Y024118D02*
Y024315D01*
Y024118D02*
X024612D01*
X024218D02*
X024415D01*
Y023921D02*
Y024118D01*
X022415D02*
Y024315D01*
Y024118D02*
X022612D01*
X022218D02*
X022415D01*
Y023921D02*
Y024118D01*
X024415Y026118D02*
Y026315D01*
Y026118D02*
X024612D01*
X024218D02*
X024415D01*
Y025921D02*
Y026118D01*
X022415D02*
Y026315D01*
Y026118D02*
X022612D01*
X022218D02*
X022415D01*
Y025921D02*
Y026118D01*
X017455Y010394D02*
Y010591D01*
X017258D02*
X017455D01*
Y010787D01*
Y010591D02*
X017652D01*
X017258Y011240D02*
X017455D01*
Y011437D01*
Y011240D02*
X017652D01*
X017455Y011043D02*
Y011240D01*
X016589Y010591D02*
X016785D01*
Y010787D01*
Y010591D02*
X016982D01*
X016785Y010394D02*
Y010591D01*
X017927D02*
X018124D01*
Y010787D01*
Y010591D02*
X018321D01*
X018124Y010394D02*
Y010591D01*
X022037Y010384D02*
Y010581D01*
X021841D02*
X022037D01*
Y010778D01*
Y010581D02*
X022234D01*
X021841Y011230D02*
X022037D01*
Y011427D01*
Y011230D02*
X022234D01*
X022037Y011033D02*
Y011230D01*
X021171Y010581D02*
X021368D01*
Y010778D01*
Y010581D02*
X021565D01*
X021368Y010384D02*
Y010581D01*
X022510D02*
X022707D01*
Y010778D01*
Y010581D02*
X022904D01*
X022707Y010384D02*
Y010581D01*
X011988Y022441D02*
X012185D01*
Y022638D01*
Y022441D02*
X012382D01*
X012185Y022244D02*
Y022441D01*
X011850Y022874D02*
Y023071D01*
Y022874D02*
X012047D01*
X011850Y022677D02*
Y022874D01*
X011654D02*
X011850D01*
X011614Y022598D02*
Y023150D01*
Y022598D02*
X012087D01*
Y023150D01*
X011614D02*
X012087D01*
X011850Y022008D02*
Y022205D01*
Y022008D02*
X012047D01*
X011850Y021811D02*
Y022008D01*
X011654D02*
X011850D01*
X011614Y021732D02*
Y022283D01*
Y021732D02*
X012087D01*
Y022283D01*
X011614D02*
X012087D01*
X012520Y022874D02*
Y023071D01*
Y022874D02*
X012717D01*
X012520Y022677D02*
Y022874D01*
X012323D02*
X012520D01*
X012283Y022598D02*
Y023150D01*
Y022598D02*
X012756D01*
Y023150D01*
X012283D02*
X012756D01*
X012520Y022008D02*
Y022205D01*
Y022008D02*
X012717D01*
X012520Y021811D02*
Y022008D01*
X012323D02*
X012520D01*
X012283Y021732D02*
Y022283D01*
Y021732D02*
X012756D01*
Y022283D01*
X012283D02*
X012756D01*
X013071Y026762D02*
X013268D01*
X013465D01*
X013661Y027943D02*
Y028730D01*
X013268Y027943D02*
X013661D01*
Y026959D02*
Y027746D01*
X013268D02*
X013661D01*
X013129Y027804D02*
X013268Y027943D01*
X013407Y027804D01*
X013268Y027746D02*
Y027943D01*
X013129Y027607D02*
X013268Y027746D01*
X013407Y027607D01*
X013268Y026762D02*
Y027746D01*
X012268Y023774D02*
Y023970D01*
X012071D02*
X012268D01*
X012465D01*
X012268D02*
Y024167D01*
Y025774D02*
Y025970D01*
X012071D02*
X012268D01*
X012465D01*
X012268D02*
Y026167D01*
X014268Y025774D02*
Y025970D01*
X014071D02*
X014268D01*
X014465D01*
X014268D02*
Y026167D01*
Y023774D02*
Y023970D01*
X014071D02*
X014268D01*
X014465D01*
X014268D02*
Y024167D01*
X013268Y024774D02*
Y024970D01*
X013071D02*
X013268D01*
X013465D01*
X013268D02*
Y025167D01*
X010860Y023818D02*
Y024132D01*
X011175D01*
Y023818D02*
Y024132D01*
X010860Y023818D02*
X011175D01*
X010860Y024467D02*
Y024782D01*
X011175D01*
Y024467D02*
Y024782D01*
X010860Y024467D02*
X011175D01*
X011018Y024625D02*
X011175Y024467D01*
X010860D02*
X011018Y024625D01*
Y024132D02*
Y024467D01*
Y023975D02*
X011175Y023818D01*
X010860D02*
X011018Y023975D01*
Y024300D02*
Y024497D01*
Y024300D02*
X011215D01*
X010821D02*
X011018D01*
Y024103D02*
Y024300D01*
X010309Y023818D02*
Y024132D01*
X010624D01*
Y023818D02*
Y024132D01*
X010309Y023818D02*
X010624D01*
X010309Y024467D02*
Y024782D01*
X010624D01*
Y024467D02*
Y024782D01*
X010309Y024467D02*
X010624D01*
X010467Y024625D02*
X010624Y024467D01*
X010309D02*
X010467Y024625D01*
Y024132D02*
Y024467D01*
Y023975D02*
X010624Y023818D01*
X010309D02*
X010467Y023975D01*
Y024300D02*
Y024497D01*
Y024300D02*
X010664D01*
X010270D02*
X010467D01*
Y024103D02*
Y024300D01*
X023799Y014685D02*
X023996Y014685D01*
Y014882D01*
Y014488D02*
Y014685D01*
X024193D01*
X023760Y014961D02*
X024232D01*
Y014409D02*
Y014961D01*
X023760Y014409D02*
X024232D01*
X023760D02*
Y014961D01*
X023051Y014685D02*
X023248Y014685D01*
Y014882D01*
Y014488D02*
Y014685D01*
X023445Y014685D01*
X023012Y014961D02*
X023484D01*
Y014409D02*
Y014961D01*
X023012Y014409D02*
X023484D01*
X023012Y014961D02*
X023012Y014409D01*
X023799Y015551D02*
X023996Y015551D01*
Y015748D01*
Y015354D02*
Y015551D01*
X024193D01*
X023760Y015827D02*
X024232D01*
Y015276D02*
Y015827D01*
X023760Y015276D02*
X024232D01*
X023760Y015827D02*
X023760Y015276D01*
X023051Y015551D02*
X023248D01*
Y015748D01*
Y015354D02*
Y015551D01*
X023445D01*
X023012Y015827D02*
X023484Y015827D01*
Y015276D02*
Y015827D01*
X023012Y015276D02*
X023484D01*
X023012D02*
X023012Y015827D01*
X023622Y015118D02*
Y015315D01*
Y015118D02*
X023819D01*
X023425D02*
X023622D01*
X023622Y014921D02*
X023622Y015118D01*
X024656Y021319D02*
X024852Y021260D01*
X024656Y021319D02*
X024852Y021378D01*
X024459D02*
X024852D01*
X024459Y021260D02*
Y021378D01*
Y021260D02*
X024852D01*
Y021378D01*
X024656Y021516D02*
X024852Y021457D01*
X024656Y021516D02*
X024852Y021575D01*
X024459D02*
X024852D01*
X024459Y021457D02*
Y021575D01*
Y021457D02*
X024852D01*
Y021575D01*
X024656Y021713D02*
X024852Y021654D01*
X024656Y021713D02*
X024852Y021772D01*
X024459D02*
X024852D01*
X024459Y021654D02*
Y021772D01*
Y021654D02*
X024852D01*
Y021772D01*
X024656Y021909D02*
X024852Y021850D01*
X024656Y021909D02*
X024852Y021969D01*
X024459D02*
X024852D01*
X024459Y021850D02*
Y021969D01*
Y021850D02*
X024852D01*
Y021969D01*
X024656Y022106D02*
X024852Y022047D01*
X024656Y022106D02*
X024852Y022165D01*
X024459D02*
X024852D01*
X024459Y022047D02*
Y022165D01*
Y022047D02*
X024852D01*
Y022165D01*
X024656Y015413D02*
X024852Y015354D01*
X024656Y015413D02*
X024852Y015472D01*
X024459D02*
X024852D01*
X024459Y015354D02*
Y015472D01*
Y015354D02*
X024852D01*
Y015472D01*
X024656Y015610D02*
X024852Y015551D01*
X024656Y015610D02*
X024852Y015669D01*
X024459D02*
X024852D01*
X024459Y015551D02*
Y015669D01*
Y015551D02*
X024852D01*
Y015669D01*
X024656Y015807D02*
X024852Y015748D01*
X024656Y015807D02*
X024852Y015866D01*
X024459D02*
X024852D01*
X024459Y015748D02*
Y015866D01*
Y015748D02*
X024852D01*
Y015866D01*
X024656Y016004D02*
X024852Y015945D01*
X024656Y016004D02*
X024852Y016063D01*
X024459D02*
X024852D01*
X024459Y015945D02*
Y016063D01*
Y015945D02*
X024852D01*
Y016063D01*
X024656Y016201D02*
X024852Y016142D01*
X024656Y016201D02*
X024852Y016260D01*
X024459D02*
X024852D01*
X024459Y016142D02*
Y016260D01*
Y016142D02*
X024852D01*
Y016260D01*
X022707Y014370D02*
X022904Y014429D01*
X022707Y014488D02*
X022904Y014429D01*
X022707Y014488D02*
X023100D01*
Y014370D02*
Y014488D01*
X022707Y014370D02*
X023100D01*
X022707D02*
Y014488D01*
Y014567D02*
X022904Y014626D01*
X022707Y014685D02*
X022904Y014626D01*
X022707Y014685D02*
X023100D01*
Y014567D02*
Y014685D01*
X022707Y014567D02*
X023100D01*
X022707D02*
Y014685D01*
Y014764D02*
X022904Y014823D01*
X022707Y014882D02*
X022904Y014823D01*
X022707Y014882D02*
X023100D01*
Y014764D02*
Y014882D01*
X022707Y014764D02*
X023100D01*
X022707D02*
Y014882D01*
Y014961D02*
X022904Y015020D01*
X022707Y015079D02*
X022904Y015020D01*
X022707Y015079D02*
X023100D01*
Y014961D02*
Y015079D01*
X022707Y014961D02*
X023100D01*
X022707D02*
Y015079D01*
Y015157D02*
X022904Y015217D01*
X022707Y015276D02*
X022904Y015217D01*
X022707Y015276D02*
X023100D01*
Y015157D02*
Y015276D01*
X022707Y015157D02*
X023100D01*
X022707D02*
Y015276D01*
Y021260D02*
X022904Y021319D01*
X022707Y021378D02*
X022904Y021319D01*
X022707Y021378D02*
X023100D01*
Y021260D02*
Y021378D01*
X022707Y021260D02*
X023100D01*
X022707D02*
Y021378D01*
Y021457D02*
X022904Y021516D01*
X022707Y021575D02*
X022904Y021516D01*
X022707Y021575D02*
X023100D01*
Y021457D02*
Y021575D01*
X022707Y021457D02*
X023100D01*
X022707D02*
Y021575D01*
Y021654D02*
X022904Y021713D01*
X022707Y021772D02*
X022904Y021713D01*
X022707Y021772D02*
X023100D01*
Y021654D02*
Y021772D01*
X022707Y021654D02*
X023100D01*
X022707D02*
Y021772D01*
Y021850D02*
X022904Y021909D01*
X022707Y021969D02*
X022904Y021909D01*
X022707Y021969D02*
X023100D01*
Y021850D02*
Y021969D01*
X022707Y021850D02*
X023100D01*
X022707D02*
Y021969D01*
Y022047D02*
X022904Y022106D01*
X022707Y022165D02*
X022904Y022106D01*
X022707Y022165D02*
X023100D01*
Y022047D02*
Y022165D01*
X022707Y022047D02*
X023100D01*
X022707D02*
Y022165D01*
X024331Y013583D02*
Y013780D01*
Y013386D02*
Y013583D01*
X024134D02*
X024331D01*
X024528D01*
X024331Y022756D02*
Y022953D01*
Y023150D01*
X024134Y022953D02*
X024331D01*
X024528D01*
X024656Y014429D02*
X024852Y014370D01*
X024656Y014429D02*
X024852Y014488D01*
X024459D02*
X024852D01*
X024459Y014370D02*
Y014488D01*
Y014370D02*
X024852D01*
Y014488D01*
X024656Y014626D02*
X024852Y014567D01*
X024656Y014626D02*
X024852Y014685D01*
X024459D02*
X024852D01*
X024459Y014567D02*
Y014685D01*
Y014567D02*
X024852D01*
Y014685D01*
X024656Y014823D02*
X024852Y014764D01*
X024656Y014823D02*
X024852Y014882D01*
X024459D02*
X024852D01*
X024459Y014764D02*
Y014882D01*
Y014764D02*
X024852D01*
Y014882D01*
X024656Y015020D02*
X024852Y014961D01*
X024656Y015020D02*
X024852Y015079D01*
X024459D02*
X024852D01*
X024459Y014961D02*
Y015079D01*
Y014961D02*
X024852D01*
Y015079D01*
X024656Y015217D02*
X024852Y015157D01*
X024656Y015217D02*
X024852Y015276D01*
X024459D02*
X024852D01*
X024459Y015157D02*
Y015276D01*
Y015157D02*
X024852D01*
Y015276D01*
X024656Y016398D02*
X024852Y016339D01*
X024656Y016398D02*
X024852Y016457D01*
X024459D02*
X024852D01*
X024459Y016339D02*
Y016457D01*
Y016339D02*
X024852D01*
Y016457D01*
X024656Y016594D02*
X024852Y016535D01*
X024656Y016594D02*
X024852Y016654D01*
X024459D02*
X024852D01*
X024459Y016535D02*
Y016654D01*
Y016535D02*
X024852D01*
Y016654D01*
X024656Y016791D02*
X024852Y016732D01*
X024656Y016791D02*
X024852Y016850D01*
X024459D02*
X024852D01*
X024459Y016732D02*
Y016850D01*
Y016732D02*
X024852D01*
Y016850D01*
X024656Y016988D02*
X024852Y016929D01*
X024656Y016988D02*
X024852Y017047D01*
X024459D02*
X024852D01*
X024459Y016929D02*
Y017047D01*
Y016929D02*
X024852D01*
Y017047D01*
X024656Y017185D02*
X024852Y017126D01*
X024656Y017185D02*
X024852Y017244D01*
X024459D02*
X024852D01*
X024459Y017126D02*
Y017244D01*
Y017126D02*
X024852D01*
Y017244D01*
X024656Y017382D02*
X024852Y017323D01*
X024656Y017382D02*
X024852Y017441D01*
X024459D02*
X024852D01*
X024459Y017323D02*
Y017441D01*
Y017323D02*
X024852D01*
Y017441D01*
X024656Y017579D02*
X024852Y017520D01*
X024656Y017579D02*
X024852Y017638D01*
X024459D02*
X024852D01*
X024459Y017520D02*
Y017638D01*
Y017520D02*
X024852D01*
Y017638D01*
X024656Y017776D02*
X024852Y017717D01*
X024656Y017776D02*
X024852Y017835D01*
X024459D02*
X024852D01*
X024459Y017717D02*
Y017835D01*
Y017717D02*
X024852D01*
Y017835D01*
X024656Y017972D02*
X024852Y017913D01*
X024656Y017972D02*
X024852Y018032D01*
X024459D02*
X024852D01*
X024459Y017913D02*
Y018032D01*
Y017913D02*
X024852D01*
Y018032D01*
X024656Y018169D02*
X024852Y018110D01*
X024656Y018169D02*
X024852Y018228D01*
X024459D02*
X024852D01*
X024459Y018110D02*
Y018228D01*
Y018110D02*
X024852D01*
Y018228D01*
X024656Y018366D02*
X024852Y018307D01*
X024656Y018366D02*
X024852Y018425D01*
X024459D02*
X024852D01*
X024459Y018307D02*
Y018425D01*
Y018307D02*
X024852D01*
Y018425D01*
X024656Y018563D02*
X024852Y018504D01*
X024656Y018563D02*
X024852Y018622D01*
X024459D02*
X024852D01*
X024459Y018504D02*
Y018622D01*
Y018504D02*
X024852D01*
Y018622D01*
X024656Y018760D02*
X024852Y018701D01*
X024656Y018760D02*
X024852Y018819D01*
X024459D02*
X024852D01*
X024459Y018701D02*
Y018819D01*
Y018701D02*
X024852D01*
Y018819D01*
X024656Y018957D02*
X024852Y018898D01*
X024656Y018957D02*
X024852Y019016D01*
X024459D02*
X024852D01*
X024459Y018898D02*
Y019016D01*
Y018898D02*
X024852D01*
Y019016D01*
X024656Y019154D02*
X024852Y019094D01*
X024656Y019154D02*
X024852Y019213D01*
X024459D02*
X024852D01*
X024459Y019094D02*
Y019213D01*
Y019094D02*
X024852D01*
Y019213D01*
X024656Y019350D02*
X024852Y019291D01*
X024656Y019350D02*
X024852Y019409D01*
X024459D02*
X024852D01*
X024459Y019291D02*
Y019409D01*
Y019291D02*
X024852D01*
Y019409D01*
X024656Y019547D02*
X024852Y019488D01*
X024656Y019547D02*
X024852Y019606D01*
X024459D02*
X024852D01*
X024459Y019488D02*
Y019606D01*
Y019488D02*
X024852D01*
Y019606D01*
X024656Y019744D02*
X024852Y019685D01*
X024656Y019744D02*
X024852Y019803D01*
X024459D02*
X024852D01*
X024459Y019685D02*
Y019803D01*
Y019685D02*
X024852D01*
Y019803D01*
X024656Y019941D02*
X024852Y019882D01*
X024656Y019941D02*
X024852Y020000D01*
X024459D02*
X024852D01*
X024459Y019882D02*
Y020000D01*
Y019882D02*
X024852D01*
Y020000D01*
X024656Y020138D02*
X024852Y020079D01*
X024656Y020138D02*
X024852Y020197D01*
X024459D02*
X024852D01*
X024459Y020079D02*
Y020197D01*
Y020079D02*
X024852D01*
Y020197D01*
X024656Y020335D02*
X024852Y020276D01*
X024656Y020335D02*
X024852Y020394D01*
X024459D02*
X024852D01*
X024459Y020276D02*
Y020394D01*
Y020276D02*
X024852D01*
Y020394D01*
X024656Y020531D02*
X024852Y020472D01*
X024656Y020531D02*
X024852Y020591D01*
X024459D02*
X024852D01*
X024459Y020472D02*
Y020591D01*
Y020472D02*
X024852D01*
Y020591D01*
X024656Y020728D02*
X024852Y020669D01*
X024656Y020728D02*
X024852Y020787D01*
X024459D02*
X024852D01*
X024459Y020669D02*
Y020787D01*
Y020669D02*
X024852D01*
Y020787D01*
X024656Y020925D02*
X024852Y020866D01*
X024656Y020925D02*
X024852Y020984D01*
X024459D02*
X024852D01*
X024459Y020866D02*
Y020984D01*
Y020866D02*
X024852D01*
Y020984D01*
X024656Y021122D02*
X024852Y021063D01*
X024656Y021122D02*
X024852Y021181D01*
X024459D02*
X024852D01*
X024459Y021063D02*
Y021181D01*
Y021063D02*
X024852D01*
Y021181D01*
X022707Y015354D02*
X022904Y015413D01*
X022707Y015472D02*
X022904Y015413D01*
X022707Y015472D02*
X023100D01*
Y015354D02*
Y015472D01*
X022707Y015354D02*
X023100D01*
X022707D02*
Y015472D01*
Y015551D02*
X022904Y015610D01*
X022707Y015669D02*
X022904Y015610D01*
X022707Y015669D02*
X023100D01*
Y015551D02*
Y015669D01*
X022707Y015551D02*
X023100D01*
X022707D02*
Y015669D01*
Y015748D02*
X022904Y015807D01*
X022707Y015866D02*
X022904Y015807D01*
X022707Y015866D02*
X023100D01*
Y015748D02*
Y015866D01*
X022707Y015748D02*
X023100D01*
X022707D02*
Y015866D01*
Y015945D02*
X022904Y016004D01*
X022707Y016063D02*
X022904Y016004D01*
X022707Y016063D02*
X023100D01*
Y015945D02*
Y016063D01*
X022707Y015945D02*
X023100D01*
X022707D02*
Y016063D01*
Y016142D02*
X022904Y016201D01*
X022707Y016260D02*
X022904Y016201D01*
X022707Y016260D02*
X023100D01*
Y016142D02*
Y016260D01*
X022707Y016142D02*
X023100D01*
X022707D02*
Y016260D01*
Y016339D02*
X022904Y016398D01*
X022707Y016457D02*
X022904Y016398D01*
X022707Y016457D02*
X023100D01*
Y016339D02*
Y016457D01*
X022707Y016339D02*
X023100D01*
X022707D02*
Y016457D01*
Y016535D02*
X022904Y016594D01*
X022707Y016654D02*
X022904Y016594D01*
X022707Y016654D02*
X023100D01*
Y016535D02*
Y016654D01*
X022707Y016535D02*
X023100D01*
X022707D02*
Y016654D01*
Y016732D02*
X022904Y016791D01*
X022707Y016850D02*
X022904Y016791D01*
X022707Y016850D02*
X023100D01*
Y016732D02*
Y016850D01*
X022707Y016732D02*
X023100D01*
X022707D02*
Y016850D01*
Y016929D02*
X022904Y016988D01*
X022707Y017047D02*
X022904Y016988D01*
X022707Y017047D02*
X023100D01*
Y016929D02*
Y017047D01*
X022707Y016929D02*
X023100D01*
X022707D02*
Y017047D01*
Y017126D02*
X022904Y017185D01*
X022707Y017244D02*
X022904Y017185D01*
X022707Y017244D02*
X023100D01*
Y017126D02*
Y017244D01*
X022707Y017126D02*
X023100D01*
X022707D02*
Y017244D01*
Y017323D02*
X022904Y017382D01*
X022707Y017441D02*
X022904Y017382D01*
X022707Y017441D02*
X023100D01*
Y017323D02*
Y017441D01*
X022707Y017323D02*
X023100D01*
X022707D02*
Y017441D01*
Y017520D02*
X022904Y017579D01*
X022707Y017638D02*
X022904Y017579D01*
X022707Y017638D02*
X023100D01*
Y017520D02*
Y017638D01*
X022707Y017520D02*
X023100D01*
X022707D02*
Y017638D01*
Y017717D02*
X022904Y017776D01*
X022707Y017835D02*
X022904Y017776D01*
X022707Y017835D02*
X023100D01*
Y017717D02*
Y017835D01*
X022707Y017717D02*
X023100D01*
X022707D02*
Y017835D01*
Y017913D02*
X022904Y017972D01*
X022707Y018032D02*
X022904Y017972D01*
X022707Y018032D02*
X023100D01*
Y017913D02*
Y018032D01*
X022707Y017913D02*
X023100D01*
X022707D02*
Y018032D01*
Y018110D02*
X022904Y018169D01*
X022707Y018228D02*
X022904Y018169D01*
X022707Y018228D02*
X023100D01*
Y018110D02*
Y018228D01*
X022707Y018110D02*
X023100D01*
X022707D02*
Y018228D01*
Y018307D02*
X022904Y018366D01*
X022707Y018425D02*
X022904Y018366D01*
X022707Y018425D02*
X023100D01*
Y018307D02*
Y018425D01*
X022707Y018307D02*
X023100D01*
X022707D02*
Y018425D01*
Y018504D02*
X022904Y018563D01*
X022707Y018622D02*
X022904Y018563D01*
X022707Y018622D02*
X023100D01*
Y018504D02*
Y018622D01*
X022707Y018504D02*
X023100D01*
X022707D02*
Y018622D01*
Y018701D02*
X022904Y018760D01*
X022707Y018819D02*
X022904Y018760D01*
X022707Y018819D02*
X023100D01*
Y018701D02*
Y018819D01*
X022707Y018701D02*
X023100D01*
X022707D02*
Y018819D01*
Y018898D02*
X022904Y018957D01*
X022707Y019016D02*
X022904Y018957D01*
X022707Y019016D02*
X023100D01*
Y018898D02*
Y019016D01*
X022707Y018898D02*
X023100D01*
X022707D02*
Y019016D01*
Y019094D02*
X022904Y019154D01*
X022707Y019213D02*
X022904Y019154D01*
X022707Y019213D02*
X023100D01*
Y019094D02*
Y019213D01*
X022707Y019094D02*
X023100D01*
X022707D02*
Y019213D01*
Y019291D02*
X022904Y019350D01*
X022707Y019409D02*
X022904Y019350D01*
X022707Y019409D02*
X023100D01*
Y019291D02*
Y019409D01*
X022707Y019291D02*
X023100D01*
X022707D02*
Y019409D01*
Y019488D02*
X022904Y019547D01*
X022707Y019606D02*
X022904Y019547D01*
X022707Y019606D02*
X023100D01*
Y019488D02*
Y019606D01*
X022707Y019488D02*
X023100D01*
X022707D02*
Y019606D01*
Y019685D02*
X022904Y019744D01*
X022707Y019803D02*
X022904Y019744D01*
X022707Y019803D02*
X023100D01*
Y019685D02*
Y019803D01*
X022707Y019685D02*
X023100D01*
X022707D02*
Y019803D01*
Y019882D02*
X022904Y019941D01*
X022707Y020000D02*
X022904Y019941D01*
X022707Y020000D02*
X023100D01*
Y019882D02*
Y020000D01*
X022707Y019882D02*
X023100D01*
X022707D02*
Y020000D01*
Y020079D02*
X022904Y020138D01*
X022707Y020197D02*
X022904Y020138D01*
X022707Y020197D02*
X023100D01*
Y020079D02*
Y020197D01*
X022707Y020079D02*
X023100D01*
X022707D02*
Y020197D01*
Y020276D02*
X022904Y020335D01*
X022707Y020394D02*
X022904Y020335D01*
X022707Y020394D02*
X023100D01*
Y020276D02*
Y020394D01*
X022707Y020276D02*
X023100D01*
X022707D02*
Y020394D01*
Y020472D02*
X022904Y020531D01*
X022707Y020591D02*
X022904Y020531D01*
X022707Y020591D02*
X023100D01*
Y020472D02*
Y020591D01*
X022707Y020472D02*
X023100D01*
X022707D02*
Y020591D01*
Y020669D02*
X022904Y020728D01*
X022707Y020787D02*
X022904Y020728D01*
X022707Y020787D02*
X023100D01*
Y020669D02*
Y020787D01*
X022707Y020669D02*
X023100D01*
X022707D02*
Y020787D01*
Y020866D02*
X022904Y020925D01*
X022707Y020984D02*
X022904Y020925D01*
X022707Y020984D02*
X023100D01*
Y020866D02*
Y020984D01*
X022707Y020866D02*
X023100D01*
X022707D02*
Y020984D01*
Y021063D02*
X022904Y021122D01*
X022707Y021181D02*
X022904Y021122D01*
X022707Y021181D02*
X023100D01*
Y021063D02*
Y021181D01*
X022707Y021063D02*
X023100D01*
X022707D02*
Y021181D01*
X023780Y018071D02*
Y018268D01*
Y018465D01*
Y018268D02*
X023976D01*
X023583D02*
X023780D01*
X013632Y021319D02*
X013829Y021260D01*
X013632Y021319D02*
X013829Y021378D01*
X013435D02*
X013829D01*
X013435Y021260D02*
Y021378D01*
Y021260D02*
X013829D01*
Y021378D01*
X013632Y021516D02*
X013829Y021457D01*
X013632Y021516D02*
X013829Y021575D01*
X013435D02*
X013829D01*
X013435Y021457D02*
Y021575D01*
Y021457D02*
X013829D01*
Y021575D01*
X013632Y021713D02*
X013829Y021654D01*
X013632Y021713D02*
X013829Y021772D01*
X013435D02*
X013829D01*
X013435Y021654D02*
Y021772D01*
Y021654D02*
X013829D01*
Y021772D01*
X013632Y021909D02*
X013829Y021850D01*
X013632Y021909D02*
X013829Y021969D01*
X013435D02*
X013829D01*
X013435Y021850D02*
Y021969D01*
Y021850D02*
X013829D01*
Y021969D01*
X013632Y022106D02*
X013829Y022047D01*
X013632Y022106D02*
X013829Y022165D01*
X013435D02*
X013829D01*
X013435Y022047D02*
Y022165D01*
Y022047D02*
X013829D01*
Y022165D01*
X013632Y015413D02*
X013829Y015354D01*
X013632Y015413D02*
X013829Y015472D01*
X013435D02*
X013829D01*
X013435Y015354D02*
Y015472D01*
Y015354D02*
X013829D01*
Y015472D01*
X013632Y015610D02*
X013829Y015551D01*
X013632Y015610D02*
X013829Y015669D01*
X013435D02*
X013829D01*
X013435Y015551D02*
Y015669D01*
Y015551D02*
X013829D01*
Y015669D01*
X013632Y015807D02*
X013829Y015748D01*
X013632Y015807D02*
X013829Y015866D01*
X013435D02*
X013829D01*
X013435Y015748D02*
Y015866D01*
Y015748D02*
X013829D01*
Y015866D01*
X013632Y016004D02*
X013829Y015945D01*
X013632Y016004D02*
X013829Y016063D01*
X013435D02*
X013829D01*
X013435Y015945D02*
Y016063D01*
Y015945D02*
X013829D01*
Y016063D01*
X013632Y016201D02*
X013829Y016142D01*
X013632Y016201D02*
X013829Y016260D01*
X013435D02*
X013829D01*
X013435Y016142D02*
Y016260D01*
Y016142D02*
X013829D01*
Y016260D01*
X011683Y014370D02*
X011880Y014429D01*
X011683Y014488D02*
X011880Y014429D01*
X011683Y014488D02*
X012077D01*
Y014370D02*
Y014488D01*
X011683Y014370D02*
X012077D01*
X011683D02*
Y014488D01*
Y014567D02*
X011880Y014626D01*
X011683Y014685D02*
X011880Y014626D01*
X011683Y014685D02*
X012077D01*
Y014567D02*
Y014685D01*
X011683Y014567D02*
X012077D01*
X011683D02*
Y014685D01*
Y014764D02*
X011880Y014823D01*
X011683Y014882D02*
X011880Y014823D01*
X011683Y014882D02*
X012077D01*
Y014764D02*
Y014882D01*
X011683Y014764D02*
X012077D01*
X011683D02*
Y014882D01*
Y014961D02*
X011880Y015020D01*
X011683Y015079D02*
X011880Y015020D01*
X011683Y015079D02*
X012077D01*
Y014961D02*
Y015079D01*
X011683Y014961D02*
X012077D01*
X011683D02*
Y015079D01*
Y015157D02*
X011880Y015217D01*
X011683Y015276D02*
X011880Y015217D01*
X011683Y015276D02*
X012077D01*
Y015157D02*
Y015276D01*
X011683Y015157D02*
X012077D01*
X011683D02*
Y015276D01*
Y021260D02*
X011880Y021319D01*
X011683Y021378D02*
X011880Y021319D01*
X011683Y021378D02*
X012077D01*
Y021260D02*
Y021378D01*
X011683Y021260D02*
X012077D01*
X011683D02*
Y021378D01*
Y021457D02*
X011880Y021516D01*
X011683Y021575D02*
X011880Y021516D01*
X011683Y021575D02*
X012077D01*
Y021457D02*
Y021575D01*
X011683Y021457D02*
X012077D01*
X011683D02*
Y021575D01*
Y021654D02*
X011880Y021713D01*
X011683Y021772D02*
X011880Y021713D01*
X011683Y021772D02*
X012077D01*
Y021654D02*
Y021772D01*
X011683Y021654D02*
X012077D01*
X011683D02*
Y021772D01*
Y021850D02*
X011880Y021909D01*
X011683Y021969D02*
X011880Y021909D01*
X011683Y021969D02*
X012077D01*
Y021850D02*
Y021969D01*
X011683Y021850D02*
X012077D01*
X011683D02*
Y021969D01*
Y022047D02*
X011880Y022106D01*
X011683Y022165D02*
X011880Y022106D01*
X011683Y022165D02*
X012077D01*
Y022047D02*
Y022165D01*
X011683Y022047D02*
X012077D01*
X011683D02*
Y022165D01*
X013307Y013583D02*
Y013780D01*
Y013386D02*
Y013583D01*
X013110D02*
X013307D01*
X013504D01*
X013307Y022756D02*
Y022953D01*
Y023150D01*
X013110Y022953D02*
X013307D01*
X013504D01*
X013632Y014429D02*
X013829Y014370D01*
X013632Y014429D02*
X013829Y014488D01*
X013435D02*
X013829D01*
X013435Y014370D02*
Y014488D01*
Y014370D02*
X013829D01*
Y014488D01*
X013632Y014626D02*
X013829Y014567D01*
X013632Y014626D02*
X013829Y014685D01*
X013435D02*
X013829D01*
X013435Y014567D02*
Y014685D01*
Y014567D02*
X013829D01*
Y014685D01*
X013632Y014823D02*
X013829Y014764D01*
X013632Y014823D02*
X013829Y014882D01*
X013435D02*
X013829D01*
X013435Y014764D02*
Y014882D01*
Y014764D02*
X013829D01*
Y014882D01*
X013632Y015020D02*
X013829Y014961D01*
X013632Y015020D02*
X013829Y015079D01*
X013435D02*
X013829D01*
X013435Y014961D02*
Y015079D01*
Y014961D02*
X013829D01*
Y015079D01*
X013632Y015217D02*
X013829Y015157D01*
X013632Y015217D02*
X013829Y015276D01*
X013435D02*
X013829D01*
X013435Y015157D02*
Y015276D01*
Y015157D02*
X013829D01*
Y015276D01*
X013632Y016398D02*
X013829Y016339D01*
X013632Y016398D02*
X013829Y016457D01*
X013435D02*
X013829D01*
X013435Y016339D02*
Y016457D01*
Y016339D02*
X013829D01*
Y016457D01*
X013632Y016594D02*
X013829Y016535D01*
X013632Y016594D02*
X013829Y016654D01*
X013435D02*
X013829D01*
X013435Y016535D02*
Y016654D01*
Y016535D02*
X013829D01*
Y016654D01*
X013632Y016791D02*
X013829Y016732D01*
X013632Y016791D02*
X013829Y016850D01*
X013435D02*
X013829D01*
X013435Y016732D02*
Y016850D01*
Y016732D02*
X013829D01*
Y016850D01*
X013632Y016988D02*
X013829Y016929D01*
X013632Y016988D02*
X013829Y017047D01*
X013435D02*
X013829D01*
X013435Y016929D02*
Y017047D01*
Y016929D02*
X013829D01*
Y017047D01*
X013632Y017185D02*
X013829Y017126D01*
X013632Y017185D02*
X013829Y017244D01*
X013435D02*
X013829D01*
X013435Y017126D02*
Y017244D01*
Y017126D02*
X013829D01*
Y017244D01*
X013632Y017382D02*
X013829Y017323D01*
X013632Y017382D02*
X013829Y017441D01*
X013435D02*
X013829D01*
X013435Y017323D02*
Y017441D01*
Y017323D02*
X013829D01*
Y017441D01*
X013632Y017579D02*
X013829Y017520D01*
X013632Y017579D02*
X013829Y017638D01*
X013435D02*
X013829D01*
X013435Y017520D02*
Y017638D01*
Y017520D02*
X013829D01*
Y017638D01*
X013632Y017776D02*
X013829Y017717D01*
X013632Y017776D02*
X013829Y017835D01*
X013435D02*
X013829D01*
X013435Y017717D02*
Y017835D01*
Y017717D02*
X013829D01*
Y017835D01*
X013632Y017972D02*
X013829Y017913D01*
X013632Y017972D02*
X013829Y018032D01*
X013435D02*
X013829D01*
X013435Y017913D02*
Y018032D01*
Y017913D02*
X013829D01*
Y018032D01*
X013632Y018169D02*
X013829Y018110D01*
X013632Y018169D02*
X013829Y018228D01*
X013435D02*
X013829D01*
X013435Y018110D02*
Y018228D01*
Y018110D02*
X013829D01*
Y018228D01*
X013632Y018366D02*
X013829Y018307D01*
X013632Y018366D02*
X013829Y018425D01*
X013435D02*
X013829D01*
X013435Y018307D02*
Y018425D01*
Y018307D02*
X013829D01*
Y018425D01*
X013632Y018563D02*
X013829Y018504D01*
X013632Y018563D02*
X013829Y018622D01*
X013435D02*
X013829D01*
X013435Y018504D02*
Y018622D01*
Y018504D02*
X013829D01*
Y018622D01*
X013632Y018760D02*
X013829Y018701D01*
X013632Y018760D02*
X013829Y018819D01*
X013435D02*
X013829D01*
X013435Y018701D02*
Y018819D01*
Y018701D02*
X013829D01*
Y018819D01*
X013632Y018957D02*
X013829Y018898D01*
X013632Y018957D02*
X013829Y019016D01*
X013435D02*
X013829D01*
X013435Y018898D02*
Y019016D01*
Y018898D02*
X013829D01*
Y019016D01*
X013632Y019154D02*
X013829Y019094D01*
X013632Y019154D02*
X013829Y019213D01*
X013435D02*
X013829D01*
X013435Y019094D02*
Y019213D01*
Y019094D02*
X013829D01*
Y019213D01*
X013632Y019350D02*
X013829Y019291D01*
X013632Y019350D02*
X013829Y019409D01*
X013435D02*
X013829D01*
X013435Y019291D02*
Y019409D01*
Y019291D02*
X013829D01*
Y019409D01*
X013632Y019547D02*
X013829Y019488D01*
X013632Y019547D02*
X013829Y019606D01*
X013435D02*
X013829D01*
X013435Y019488D02*
Y019606D01*
Y019488D02*
X013829D01*
Y019606D01*
X013632Y019744D02*
X013829Y019685D01*
X013632Y019744D02*
X013829Y019803D01*
X013435D02*
X013829D01*
X013435Y019685D02*
Y019803D01*
Y019685D02*
X013829D01*
Y019803D01*
X013632Y019941D02*
X013829Y019882D01*
X013632Y019941D02*
X013829Y020000D01*
X013435D02*
X013829D01*
X013435Y019882D02*
Y020000D01*
Y019882D02*
X013829D01*
Y020000D01*
X013632Y020138D02*
X013829Y020079D01*
X013632Y020138D02*
X013829Y020197D01*
X013435D02*
X013829D01*
X013435Y020079D02*
Y020197D01*
Y020079D02*
X013829D01*
Y020197D01*
X013632Y020335D02*
X013829Y020276D01*
X013632Y020335D02*
X013829Y020394D01*
X013435D02*
X013829D01*
X013435Y020276D02*
Y020394D01*
Y020276D02*
X013829D01*
Y020394D01*
X013632Y020531D02*
X013829Y020472D01*
X013632Y020531D02*
X013829Y020591D01*
X013435D02*
X013829D01*
X013435Y020472D02*
Y020591D01*
Y020472D02*
X013829D01*
Y020591D01*
X013632Y020728D02*
X013829Y020669D01*
X013632Y020728D02*
X013829Y020787D01*
X013435D02*
X013829D01*
X013435Y020669D02*
Y020787D01*
Y020669D02*
X013829D01*
Y020787D01*
X013632Y020925D02*
X013829Y020866D01*
X013632Y020925D02*
X013829Y020984D01*
X013435D02*
X013829D01*
X013435Y020866D02*
Y020984D01*
Y020866D02*
X013829D01*
Y020984D01*
X013632Y021122D02*
X013829Y021063D01*
X013632Y021122D02*
X013829Y021181D01*
X013435D02*
X013829D01*
X013435Y021063D02*
Y021181D01*
Y021063D02*
X013829D01*
Y021181D01*
X011683Y015354D02*
X011880Y015413D01*
X011683Y015472D02*
X011880Y015413D01*
X011683Y015472D02*
X012077D01*
Y015354D02*
Y015472D01*
X011683Y015354D02*
X012077D01*
X011683D02*
Y015472D01*
Y015551D02*
X011880Y015610D01*
X011683Y015669D02*
X011880Y015610D01*
X011683Y015669D02*
X012077D01*
Y015551D02*
Y015669D01*
X011683Y015551D02*
X012077D01*
X011683D02*
Y015669D01*
Y015748D02*
X011880Y015807D01*
X011683Y015866D02*
X011880Y015807D01*
X011683Y015866D02*
X012077D01*
Y015748D02*
Y015866D01*
X011683Y015748D02*
X012077D01*
X011683D02*
Y015866D01*
Y015945D02*
X011880Y016004D01*
X011683Y016063D02*
X011880Y016004D01*
X011683Y016063D02*
X012077D01*
Y015945D02*
Y016063D01*
X011683Y015945D02*
X012077D01*
X011683D02*
Y016063D01*
Y016142D02*
X011880Y016201D01*
X011683Y016260D02*
X011880Y016201D01*
X011683Y016260D02*
X012077D01*
Y016142D02*
Y016260D01*
X011683Y016142D02*
X012077D01*
X011683D02*
Y016260D01*
Y016339D02*
X011880Y016398D01*
X011683Y016457D02*
X011880Y016398D01*
X011683Y016457D02*
X012077D01*
Y016339D02*
Y016457D01*
X011683Y016339D02*
X012077D01*
X011683D02*
Y016457D01*
Y016535D02*
X011880Y016594D01*
X011683Y016654D02*
X011880Y016594D01*
X011683Y016654D02*
X012077D01*
Y016535D02*
Y016654D01*
X011683Y016535D02*
X012077D01*
X011683D02*
Y016654D01*
Y016732D02*
X011880Y016791D01*
X011683Y016850D02*
X011880Y016791D01*
X011683Y016850D02*
X012077D01*
Y016732D02*
Y016850D01*
X011683Y016732D02*
X012077D01*
X011683D02*
Y016850D01*
Y016929D02*
X011880Y016988D01*
X011683Y017047D02*
X011880Y016988D01*
X011683Y017047D02*
X012077D01*
Y016929D02*
Y017047D01*
X011683Y016929D02*
X012077D01*
X011683D02*
Y017047D01*
Y017126D02*
X011880Y017185D01*
X011683Y017244D02*
X011880Y017185D01*
X011683Y017244D02*
X012077D01*
Y017126D02*
Y017244D01*
X011683Y017126D02*
X012077D01*
X011683D02*
Y017244D01*
Y017323D02*
X011880Y017382D01*
X011683Y017441D02*
X011880Y017382D01*
X011683Y017441D02*
X012077D01*
Y017323D02*
Y017441D01*
X011683Y017323D02*
X012077D01*
X011683D02*
Y017441D01*
Y017520D02*
X011880Y017579D01*
X011683Y017638D02*
X011880Y017579D01*
X011683Y017638D02*
X012077D01*
Y017520D02*
Y017638D01*
X011683Y017520D02*
X012077D01*
X011683D02*
Y017638D01*
Y017717D02*
X011880Y017776D01*
X011683Y017835D02*
X011880Y017776D01*
X011683Y017835D02*
X012077D01*
Y017717D02*
Y017835D01*
X011683Y017717D02*
X012077D01*
X011683D02*
Y017835D01*
Y017913D02*
X011880Y017972D01*
X011683Y018032D02*
X011880Y017972D01*
X011683Y018032D02*
X012077D01*
Y017913D02*
Y018032D01*
X011683Y017913D02*
X012077D01*
X011683D02*
Y018032D01*
Y018110D02*
X011880Y018169D01*
X011683Y018228D02*
X011880Y018169D01*
X011683Y018228D02*
X012077D01*
Y018110D02*
Y018228D01*
X011683Y018110D02*
X012077D01*
X011683D02*
Y018228D01*
Y018307D02*
X011880Y018366D01*
X011683Y018425D02*
X011880Y018366D01*
X011683Y018425D02*
X012077D01*
Y018307D02*
Y018425D01*
X011683Y018307D02*
X012077D01*
X011683D02*
Y018425D01*
Y018504D02*
X011880Y018563D01*
X011683Y018622D02*
X011880Y018563D01*
X011683Y018622D02*
X012077D01*
Y018504D02*
Y018622D01*
X011683Y018504D02*
X012077D01*
X011683D02*
Y018622D01*
Y018701D02*
X011880Y018760D01*
X011683Y018819D02*
X011880Y018760D01*
X011683Y018819D02*
X012077D01*
Y018701D02*
Y018819D01*
X011683Y018701D02*
X012077D01*
X011683D02*
Y018819D01*
Y018898D02*
X011880Y018957D01*
X011683Y019016D02*
X011880Y018957D01*
X011683Y019016D02*
X012077D01*
Y018898D02*
Y019016D01*
X011683Y018898D02*
X012077D01*
X011683D02*
Y019016D01*
Y019094D02*
X011880Y019154D01*
X011683Y019213D02*
X011880Y019154D01*
X011683Y019213D02*
X012077D01*
Y019094D02*
Y019213D01*
X011683Y019094D02*
X012077D01*
X011683D02*
Y019213D01*
Y019291D02*
X011880Y019350D01*
X011683Y019409D02*
X011880Y019350D01*
X011683Y019409D02*
X012077D01*
Y019291D02*
Y019409D01*
X011683Y019291D02*
X012077D01*
X011683D02*
Y019409D01*
Y019488D02*
X011880Y019547D01*
X011683Y019606D02*
X011880Y019547D01*
X011683Y019606D02*
X012077D01*
Y019488D02*
Y019606D01*
X011683Y019488D02*
X012077D01*
X011683D02*
Y019606D01*
Y019685D02*
X011880Y019744D01*
X011683Y019803D02*
X011880Y019744D01*
X011683Y019803D02*
X012077D01*
Y019685D02*
Y019803D01*
X011683Y019685D02*
X012077D01*
X011683D02*
Y019803D01*
Y019882D02*
X011880Y019941D01*
X011683Y020000D02*
X011880Y019941D01*
X011683Y020000D02*
X012077D01*
Y019882D02*
Y020000D01*
X011683Y019882D02*
X012077D01*
X011683D02*
Y020000D01*
Y020079D02*
X011880Y020138D01*
X011683Y020197D02*
X011880Y020138D01*
X011683Y020197D02*
X012077D01*
Y020079D02*
Y020197D01*
X011683Y020079D02*
X012077D01*
X011683D02*
Y020197D01*
Y020276D02*
X011880Y020335D01*
X011683Y020394D02*
X011880Y020335D01*
X011683Y020394D02*
X012077D01*
Y020276D02*
Y020394D01*
X011683Y020276D02*
X012077D01*
X011683D02*
Y020394D01*
Y020472D02*
X011880Y020531D01*
X011683Y020591D02*
X011880Y020531D01*
X011683Y020591D02*
X012077D01*
Y020472D02*
Y020591D01*
X011683Y020472D02*
X012077D01*
X011683D02*
Y020591D01*
Y020669D02*
X011880Y020728D01*
X011683Y020787D02*
X011880Y020728D01*
X011683Y020787D02*
X012077D01*
Y020669D02*
Y020787D01*
X011683Y020669D02*
X012077D01*
X011683D02*
Y020787D01*
Y020866D02*
X011880Y020925D01*
X011683Y020984D02*
X011880Y020925D01*
X011683Y020984D02*
X012077D01*
Y020866D02*
Y020984D01*
X011683Y020866D02*
X012077D01*
X011683D02*
Y020984D01*
Y021063D02*
X011880Y021122D01*
X011683Y021181D02*
X011880Y021122D01*
X011683Y021181D02*
X012077D01*
Y021063D02*
Y021181D01*
X011683Y021063D02*
X012077D01*
X011683D02*
Y021181D01*
X012756Y018071D02*
Y018268D01*
Y018465D01*
Y018268D02*
X012953D01*
X012559D02*
X012756D01*
X025749Y024359D02*
Y024674D01*
Y024359D02*
X026064D01*
Y024674D01*
X025749D02*
X026064D01*
X025749Y023710D02*
Y024025D01*
Y023710D02*
X026064D01*
Y024025D01*
X025749D02*
X026064D01*
X025907Y023867D02*
X026064Y024025D01*
X025749D02*
X025907Y023867D01*
Y024025D02*
Y024359D01*
Y024517D02*
X026064Y024674D01*
X025749D02*
X025907Y024517D01*
Y024192D02*
X025907Y023995D01*
X025907Y024192D02*
X026104D01*
X025710Y024192D02*
X025907Y024192D01*
Y024389D01*
X019803Y026033D02*
X020000D01*
Y026230D01*
Y026033D02*
X020197D01*
X020000Y025837D02*
Y026033D01*
X020295D02*
X020492D01*
Y026230D01*
Y026033D02*
X020689D01*
X020492Y025837D02*
Y026033D01*
X020787D02*
X020984D01*
X020984Y026230D02*
X020984Y026033D01*
X021181D01*
X020984Y025837D02*
X020984Y026033D01*
X019311D02*
X019508D01*
X019508Y026230D01*
X019508Y026033D02*
X019705D01*
X019508D02*
X019508Y025837D01*
X018819Y026033D02*
X019016D01*
X019016Y026230D01*
X019016Y026033D02*
X019213D01*
X019016D02*
X019016Y025837D01*
X019508Y026033D02*
X019508Y025837D01*
X012864Y014749D02*
X013179D01*
Y014434D02*
Y014749D01*
X012864Y014434D02*
X013179D01*
X012864D02*
X012864Y014749D01*
X013514D02*
X013829D01*
Y014434D02*
Y014749D01*
X013514Y014434D02*
X013829Y014434D01*
X013514Y014434D02*
Y014749D01*
Y014434D02*
X013671Y014592D01*
X013514Y014749D02*
X013671Y014592D01*
X013179Y014592D02*
X013514Y014592D01*
X012864Y014434D02*
X013022Y014592D01*
X012864Y014749D02*
X013022Y014592D01*
X013346D02*
X013543D01*
X013346Y014395D02*
Y014592D01*
Y014788D01*
X013150Y014592D02*
X013346D01*
X009705Y014272D02*
X009902D01*
Y014469D01*
Y014272D02*
X010098D01*
X009902Y014075D02*
Y014272D01*
X010098Y011634D02*
X011280Y011634D01*
X010098Y012185D02*
X011280D01*
X010098D02*
X010098Y011634D01*
X011280Y011634D02*
Y012185D01*
X010492Y011909D02*
X010689Y011909D01*
Y012106D01*
Y011909D02*
X010886D01*
X010689Y011713D02*
Y011909D01*
X010098Y012421D02*
X011280D01*
X010098Y012972D02*
X011280D01*
X010098Y012421D02*
Y012972D01*
X011280Y012421D02*
X011280Y012972D01*
X010492Y012697D02*
X010689Y012697D01*
Y012894D01*
Y012697D02*
X010886D01*
X010689Y012500D02*
Y012697D01*
X010098Y013209D02*
X011280D01*
X010098Y013760D02*
X011280D01*
X010098Y013209D02*
Y013760D01*
X011280Y013209D02*
Y013760D01*
X010492Y013484D02*
X010689D01*
Y013681D01*
Y013484D02*
X010886D01*
X010689Y013287D02*
Y013484D01*
X010098Y013996D02*
X011280D01*
X010098Y014547D02*
X011280D01*
X010098Y013996D02*
Y014547D01*
X011280D02*
X011280Y013996D01*
X010492Y014272D02*
X010689D01*
Y014468D01*
Y014272D02*
X010886D01*
X010689Y014075D02*
Y014272D01*
X010098Y014783D02*
X011280D01*
X010098Y015335D02*
X011280D01*
X010098Y014783D02*
Y015335D01*
X011280Y014783D02*
Y015335D01*
X010492Y015059D02*
X010689D01*
Y015256D01*
Y015059D02*
X010886D01*
X010689Y014862D02*
Y015059D01*
X010098Y015571D02*
X011280D01*
X010098Y016122D02*
X011280D01*
X010098Y015571D02*
X010098Y016122D01*
X011280Y015571D02*
Y016122D01*
X010492Y015846D02*
X010689D01*
Y016043D01*
Y015846D02*
X010886D01*
X010689Y015650D02*
X010689Y015846D01*
X010098Y016358D02*
X011280D01*
X010098Y016909D02*
X011280D01*
X010098Y016358D02*
Y016909D01*
X011280D02*
X011280Y016358D01*
X010492Y016634D02*
X010689Y016634D01*
Y016831D01*
Y016634D02*
X010886D01*
X010689D02*
X010689Y016437D01*
X035489Y018443D02*
X035628Y018304D01*
X035767Y018443D01*
X035628Y018304D02*
X035767Y018164D01*
X035489D02*
X035628Y018304D01*
X033478Y021056D02*
X033675D01*
Y021252D01*
Y021056D02*
X033872D01*
X033675Y020859D02*
Y021056D01*
X033978D02*
X034175D01*
Y021252D01*
Y021056D02*
X034372D01*
X034175Y020859D02*
Y021056D01*
X034478D02*
X034675D01*
Y021252D01*
Y021056D02*
X034872D01*
X034675Y020859D02*
Y021056D01*
X034978D02*
X035175D01*
Y021252D01*
Y021056D02*
X035372D01*
X035175Y020859D02*
Y021056D01*
X035478D02*
X035675D01*
Y021252D01*
Y021056D02*
X035872D01*
X035675Y020859D02*
Y021056D01*
X035978D02*
X036175D01*
Y021252D01*
Y021056D02*
X036372D01*
X036175Y020859D02*
Y021056D01*
X036478D02*
X036675D01*
Y021252D01*
Y021056D02*
X036872D01*
X036675Y020859D02*
Y021056D01*
X036978D02*
X037175D01*
Y021252D01*
Y021056D02*
X037372D01*
X037175Y020859D02*
Y021056D01*
X033478Y020556D02*
X033675D01*
Y020752D01*
Y020556D02*
X033872D01*
X033675Y020359D02*
Y020556D01*
X033978D02*
X034175D01*
Y020752D01*
Y020556D02*
X034372D01*
X034175Y020359D02*
Y020556D01*
X034478D02*
X034675D01*
Y020752D01*
Y020556D02*
X034872D01*
X034675Y020359D02*
Y020556D01*
X034978D02*
X035175D01*
Y020752D01*
Y020556D02*
X035372D01*
X035175Y020359D02*
Y020556D01*
X035478D02*
X035675D01*
Y020752D01*
Y020556D02*
X035872D01*
X035675Y020359D02*
Y020556D01*
X035978D02*
X036175D01*
Y020752D01*
Y020556D02*
X036372D01*
X036175Y020359D02*
Y020556D01*
X036478D02*
X036675D01*
Y020752D01*
Y020556D02*
X036872D01*
X036675Y020359D02*
Y020556D01*
X036978D02*
X037175D01*
Y020752D01*
Y020556D02*
X037372D01*
X037175Y020359D02*
Y020556D01*
X033478Y020056D02*
X033675D01*
Y020252D01*
Y020056D02*
X033872D01*
X033675Y019859D02*
Y020056D01*
X033978D02*
X034175D01*
Y020252D01*
Y020056D02*
X034372D01*
X034175Y019859D02*
Y020056D01*
X034478D02*
X034675D01*
Y020252D01*
Y020056D02*
X034872D01*
X034675Y019859D02*
Y020056D01*
X034978D02*
X035175D01*
Y020252D01*
Y020056D02*
X035372D01*
X035175Y019859D02*
Y020056D01*
X035478D02*
X035675D01*
Y020252D01*
Y020056D02*
X035872D01*
X035675Y019859D02*
Y020056D01*
X035978D02*
X036175D01*
Y020252D01*
Y020056D02*
X036372D01*
X036175Y019859D02*
Y020056D01*
X036478D02*
X036675D01*
Y020252D01*
Y020056D02*
X036872D01*
X036675Y019859D02*
Y020056D01*
X036978D02*
X037175D01*
Y020252D01*
Y020056D02*
X037372D01*
X037175Y019859D02*
Y020056D01*
X033478Y019556D02*
X033675D01*
Y019752D01*
Y019556D02*
X033872D01*
X033675Y019359D02*
Y019556D01*
X033978D02*
X034175D01*
Y019752D01*
Y019556D02*
X034372D01*
X034175Y019359D02*
Y019556D01*
X034478D02*
X034675D01*
Y019752D01*
Y019556D02*
X034872D01*
X034675Y019359D02*
Y019556D01*
X034978D02*
X035175D01*
Y019752D01*
Y019556D02*
X035372D01*
X035175Y019359D02*
Y019556D01*
X035478D02*
X035675D01*
Y019752D01*
Y019556D02*
X035872D01*
X035675Y019359D02*
Y019556D01*
X035978D02*
X036175D01*
Y019752D01*
Y019556D02*
X036372D01*
X036175Y019359D02*
Y019556D01*
X036478D02*
X036675D01*
Y019752D01*
Y019556D02*
X036872D01*
X036675Y019359D02*
Y019556D01*
X036978D02*
X037175D01*
Y019752D01*
Y019556D02*
X037372D01*
X037175Y019359D02*
Y019556D01*
X033478Y019056D02*
X033675D01*
Y019252D01*
Y019056D02*
X033872D01*
X033675Y018859D02*
Y019056D01*
X033978D02*
X034175D01*
Y019252D01*
Y019056D02*
X034372D01*
X034175Y018859D02*
Y019056D01*
X034478D02*
X034675D01*
Y019252D01*
Y019056D02*
X034872D01*
X034675Y018859D02*
Y019056D01*
X034978D02*
X035175D01*
Y019252D01*
Y019056D02*
X035372D01*
X035175Y018859D02*
Y019056D01*
X035478D02*
X035675D01*
Y019252D01*
Y019056D02*
X035872D01*
X035675Y018859D02*
Y019056D01*
X035978D02*
X036175D01*
Y019252D01*
Y019056D02*
X036372D01*
X036175Y018859D02*
Y019056D01*
X036478D02*
X036675D01*
Y019252D01*
Y019056D02*
X036872D01*
X036675Y018859D02*
Y019056D01*
X036978D02*
X037175D01*
Y019252D01*
Y019056D02*
X037372D01*
X037175Y018859D02*
Y019056D01*
X033478Y018556D02*
X033675D01*
Y018752D01*
Y018556D02*
X033872D01*
X033675Y018359D02*
Y018556D01*
X033978D02*
X034175D01*
Y018752D01*
Y018556D02*
X034372D01*
X034175Y018359D02*
Y018556D01*
X034478D02*
X034675D01*
Y018752D01*
Y018556D02*
X034872D01*
X034675Y018359D02*
Y018556D01*
X034978D02*
X035175D01*
Y018752D01*
Y018556D02*
X035372D01*
X035175Y018359D02*
Y018556D01*
X035478D02*
X035675D01*
Y018752D01*
Y018556D02*
X035872D01*
X035675Y018359D02*
Y018556D01*
X035978D02*
X036175D01*
Y018752D01*
Y018556D02*
X036372D01*
X036175Y018359D02*
Y018556D01*
X036478D02*
X036675D01*
Y018752D01*
Y018556D02*
X036872D01*
X036675Y018359D02*
Y018556D01*
X036978D02*
X037175D01*
Y018752D01*
Y018556D02*
X037372D01*
X037175Y018359D02*
Y018556D01*
X033478Y018056D02*
X033675D01*
Y018252D01*
Y018056D02*
X033872D01*
X033675Y017859D02*
Y018056D01*
X033978D02*
X034175D01*
Y018252D01*
Y018056D02*
X034372D01*
X034175Y017859D02*
Y018056D01*
X034478D02*
X034675D01*
Y018252D01*
Y018056D02*
X034872D01*
X034675Y017859D02*
Y018056D01*
X034978D02*
X035175D01*
Y018252D01*
Y018056D02*
X035372D01*
X035175Y017859D02*
Y018056D01*
X035478D02*
X035675D01*
Y018252D01*
Y018056D02*
X035872D01*
X035675Y017859D02*
Y018056D01*
X035978D02*
X036175D01*
Y018252D01*
Y018056D02*
X036372D01*
X036175Y017859D02*
Y018056D01*
X036478D02*
X036675D01*
Y018252D01*
Y018056D02*
X036872D01*
X036675Y017859D02*
Y018056D01*
X036978D02*
X037175D01*
Y018252D01*
Y018056D02*
X037372D01*
X037175Y017859D02*
Y018056D01*
X033478Y017556D02*
X033675D01*
Y017752D01*
Y017556D02*
X033872D01*
X033675Y017359D02*
Y017556D01*
X033978D02*
X034175D01*
Y017752D01*
Y017556D02*
X034372D01*
X034175Y017359D02*
Y017556D01*
X034478D02*
X034675D01*
Y017752D01*
Y017556D02*
X034872D01*
X034675Y017359D02*
Y017556D01*
X034978D02*
X035175D01*
Y017752D01*
Y017556D02*
X035372D01*
X035175Y017359D02*
Y017556D01*
X035478D02*
X035675D01*
Y017752D01*
Y017556D02*
X035872D01*
X035675Y017359D02*
Y017556D01*
X035978D02*
X036175D01*
Y017752D01*
Y017556D02*
X036372D01*
X036175Y017359D02*
Y017556D01*
X036478D02*
X036675D01*
Y017752D01*
Y017556D02*
X036872D01*
X036675Y017359D02*
Y017556D01*
X036978D02*
X037175D01*
Y017752D01*
Y017556D02*
X037372D01*
X037175Y017359D02*
Y017556D01*
X033478Y017056D02*
X033675D01*
Y017252D01*
Y017056D02*
X033872D01*
X033675Y016859D02*
Y017056D01*
X033978D02*
X034175D01*
Y017252D01*
Y017056D02*
X034372D01*
X034175Y016859D02*
Y017056D01*
X034478D02*
X034675D01*
Y017252D01*
Y017056D02*
X034872D01*
X034675Y016859D02*
Y017056D01*
X034978D02*
X035175D01*
Y017252D01*
Y017056D02*
X035372D01*
X035175Y016859D02*
Y017056D01*
X035478D02*
X035675D01*
Y017252D01*
Y017056D02*
X035872D01*
X035675Y016859D02*
Y017056D01*
X035978D02*
X036175D01*
Y017252D01*
Y017056D02*
X036372D01*
X036175Y016859D02*
Y017056D01*
X036478D02*
X036675D01*
Y017252D01*
Y017056D02*
X036872D01*
X036675Y016859D02*
Y017056D01*
X036978D02*
X037175D01*
Y017252D01*
Y017056D02*
X037372D01*
X037175Y016859D02*
Y017056D01*
X033478Y016556D02*
X033675D01*
Y016752D01*
Y016556D02*
X033872D01*
X033675Y016359D02*
Y016556D01*
X033978D02*
X034175D01*
Y016752D01*
Y016556D02*
X034372D01*
X034175Y016359D02*
Y016556D01*
X034478D02*
X034675D01*
Y016752D01*
Y016556D02*
X034872D01*
X034675Y016359D02*
Y016556D01*
X034978D02*
X035175D01*
Y016752D01*
Y016556D02*
X035372D01*
X035175Y016359D02*
Y016556D01*
X035478D02*
X035675D01*
Y016752D01*
Y016556D02*
X035872D01*
X035675Y016359D02*
Y016556D01*
X035978D02*
X036175D01*
Y016752D01*
Y016556D02*
X036372D01*
X036175Y016359D02*
Y016556D01*
X036478D02*
X036675D01*
Y016752D01*
Y016556D02*
X036872D01*
X036675Y016359D02*
Y016556D01*
X036978D02*
X037175D01*
Y016752D01*
Y016556D02*
X037372D01*
X037175Y016359D02*
Y016556D01*
X033478Y016056D02*
X033675D01*
Y016252D01*
Y016056D02*
X033872D01*
X033675Y015859D02*
Y016056D01*
X033978D02*
X034175D01*
Y016252D01*
Y016056D02*
X034372D01*
X034175Y015859D02*
Y016056D01*
X034478D02*
X034675D01*
Y016252D01*
Y016056D02*
X034872D01*
X034675Y015859D02*
Y016056D01*
X034978D02*
X035175D01*
Y016252D01*
Y016056D02*
X035372D01*
X035175Y015859D02*
Y016056D01*
X035478D02*
X035675D01*
Y016252D01*
Y016056D02*
X035872D01*
X035675Y015859D02*
Y016056D01*
X035978D02*
X036175D01*
Y016252D01*
Y016056D02*
X036372D01*
X036175Y015859D02*
Y016056D01*
X036478D02*
X036675D01*
Y016252D01*
Y016056D02*
X036872D01*
X036675Y015859D02*
Y016056D01*
X036978D02*
X037175D01*
Y016252D01*
Y016056D02*
X037372D01*
X037175Y015859D02*
Y016056D01*
X033978Y015556D02*
X034175D01*
Y015752D01*
Y015556D02*
X034372D01*
X034175Y015359D02*
Y015556D01*
X034478D02*
X034675D01*
Y015752D01*
Y015556D02*
X034872D01*
X034675Y015359D02*
Y015556D01*
X034978D02*
X035175D01*
Y015752D01*
Y015556D02*
X035372D01*
X035175Y015359D02*
Y015556D01*
X035478D02*
X035675D01*
Y015752D01*
Y015556D02*
X035872D01*
X035675Y015359D02*
Y015556D01*
X035978D02*
X036175D01*
Y015752D01*
Y015556D02*
X036372D01*
X036175Y015359D02*
Y015556D01*
X036478D02*
X036675D01*
Y015752D01*
Y015556D02*
X036872D01*
X036675Y015359D02*
Y015556D01*
X036978D02*
X037175D01*
Y015752D01*
Y015556D02*
X037372D01*
X037175Y015359D02*
Y015556D01*
X035228Y018306D02*
X035425D01*
Y018502D01*
Y018109D02*
Y018306D01*
X029880Y010666D02*
X030020Y010806D01*
X029880Y010945D02*
X030020Y010806D01*
X030159Y010945D01*
X030020Y010806D02*
X030159Y010666D01*
X029577Y010806D02*
X029774D01*
Y011002D01*
Y010806D02*
X029970D01*
X029774Y010609D02*
Y010806D01*
X030069D02*
X030266D01*
Y011002D01*
Y010806D02*
X030463D01*
X030266Y010609D02*
Y010806D01*
X038061Y010825D02*
Y011022D01*
Y010825D02*
X038258D01*
X037864D02*
X038061D01*
Y010628D02*
Y010825D01*
Y011150D02*
X038219Y011307D01*
X037904D02*
X038061Y011150D01*
Y010658D02*
Y010993D01*
Y010500D02*
X038219Y010658D01*
X037904D02*
X038061Y010500D01*
X037904Y010658D02*
X038219D01*
X037904Y010343D02*
Y010658D01*
Y010343D02*
X038219D01*
Y010658D01*
X037904Y011307D02*
X038219D01*
X037904Y010993D02*
Y011307D01*
Y010993D02*
X038219D01*
Y011307D01*
X038593Y010825D02*
Y011022D01*
Y010825D02*
X038789D01*
X038396D02*
X038593D01*
Y010628D02*
Y010825D01*
Y011150D02*
X038750Y011307D01*
X038435D02*
X038593Y011150D01*
Y010658D02*
Y010993D01*
Y010500D02*
X038750Y010658D01*
X038435D02*
X038593Y010500D01*
X038435Y010658D02*
X038750D01*
X038435Y010343D02*
Y010658D01*
Y010343D02*
X038750D01*
Y010658D01*
X038435Y011307D02*
X038750D01*
X038435Y010993D02*
Y011307D01*
Y010993D02*
X038750D01*
Y011307D01*
X039114Y010825D02*
Y011022D01*
Y010825D02*
X039311D01*
X038917D02*
X039114D01*
Y010628D02*
Y010825D01*
Y011150D02*
X039272Y011307D01*
X038957D02*
X039114Y011150D01*
Y010658D02*
Y010993D01*
Y010500D02*
X039272Y010658D01*
X038957D02*
X039114Y010500D01*
X038957Y010658D02*
X039272D01*
X038957Y010343D02*
Y010658D01*
Y010343D02*
X039272D01*
Y010658D01*
X038957Y011307D02*
X039272D01*
X038957Y010993D02*
Y011307D01*
Y010993D02*
X039272D01*
Y011307D01*
X014134Y028750D02*
X014212Y028671D01*
Y028513D01*
X014134Y028435D01*
X014055D01*
X013976Y028513D01*
Y028592D01*
Y028513D01*
X013898Y028435D01*
X013819D01*
X013740Y028513D01*
Y028671D01*
X013819Y028750D01*
X013740Y028277D02*
X013819D01*
Y028199D01*
X013740D01*
Y028277D01*
X014134Y027884D02*
X014212Y027805D01*
Y027648D01*
X014134Y027569D01*
X013819D01*
X013740Y027648D01*
Y027805D01*
X013819Y027884D01*
X014134D01*
X013740Y027451D02*
Y027765D01*
X014055Y027451D01*
X014134D01*
X014212Y027529D01*
Y027687D01*
X014134Y027765D01*
X013740Y027293D02*
X013819D01*
Y027214D01*
X013740D01*
Y027293D01*
X014212Y026585D02*
Y026900D01*
X013976D01*
X014055Y026742D01*
Y026663D01*
X013976Y026585D01*
X013819D01*
X013740Y026663D01*
Y026821D01*
X013819Y026900D01*
D79*
X092164Y021699D02*
X095164Y024699D01*
X078818Y021669D02*
X095177D01*
X080068D02*
X083068Y024669D01*
X082068Y021669D02*
X085068Y024669D01*
X084068Y021669D02*
X087068Y024669D01*
X088068Y021669D02*
X091068Y024669D01*
X086068Y021669D02*
X089068Y024669D01*
X090068Y021669D02*
X093068Y024669D01*
D175*
X015069Y022205D02*
G03*
X015069Y022205I-000108J000000D01*
G01*
X015384D02*
G03*
X015384Y022205I-000108J000000D01*
G01*
X015698D02*
G03*
X015698Y022205I-000108J000000D01*
G01*
X016013D02*
G03*
X016013Y022205I-000108J000000D01*
G01*
X016328Y022205D02*
G03*
X016328Y022205I-000108J000000D01*
G01*
X016643D02*
G03*
X016643Y022205I-000108J000000D01*
G01*
X016958Y022205D02*
G03*
X016958Y022205I-000108J000000D01*
G01*
X017273D02*
G03*
X017273Y022205I-000108J000000D01*
G01*
X017588D02*
G03*
X017588Y022205I-000108J000000D01*
G01*
X017903D02*
G03*
X017903Y022205I-000108J000000D01*
G01*
X018218D02*
G03*
X018218Y022205I-000108J000000D01*
G01*
X018533D02*
G03*
X018533Y022205I-000108J000000D01*
G01*
X018848D02*
G03*
X018848Y022205I-000108J000000D01*
G01*
X019163D02*
G03*
X019163Y022205I-000108J000000D01*
G01*
X019478D02*
G03*
X019478Y022205I-000108J000000D01*
G01*
X019793D02*
G03*
X019793Y022205I-000108J000000D01*
G01*
X020108Y022205D02*
G03*
X020108Y022205I-000108J000000D01*
G01*
X020423D02*
G03*
X020423Y022205I-000108J000000D01*
G01*
X020738Y022205D02*
G03*
X020738Y022205I-000108J000000D01*
G01*
X021053D02*
G03*
X021053Y022205I-000108J000000D01*
G01*
X021368D02*
G03*
X021368Y022205I-000108J000000D01*
G01*
X021683D02*
G03*
X021683Y022205I-000108J000000D01*
G01*
X015069Y021890D02*
G03*
X015069Y021890I-000108J000000D01*
G01*
X015384D02*
G03*
X015384Y021890I-000108J000000D01*
G01*
X015698D02*
G03*
X015698Y021890I-000108J000000D01*
G01*
X016013Y021890D02*
G03*
X016013Y021890I-000108J000000D01*
G01*
X016328Y021890D02*
G03*
X016328Y021890I-000108J000000D01*
G01*
X016643Y021890D02*
G03*
X016643Y021890I-000108J000000D01*
G01*
X016958Y021890D02*
G03*
X016958Y021890I-000108J000000D01*
G01*
X017273D02*
G03*
X017273Y021890I-000108J000000D01*
G01*
X017588D02*
G03*
X017588Y021890I-000108J000000D01*
G01*
X017903D02*
G03*
X017903Y021890I-000108J000000D01*
G01*
X018218Y021890D02*
G03*
X018218Y021890I-000108J000000D01*
G01*
X018533Y021890D02*
G03*
X018533Y021890I-000108J000000D01*
G01*
X018848D02*
G03*
X018848Y021890I-000108J000000D01*
G01*
X019163D02*
G03*
X019163Y021890I-000108J000000D01*
G01*
X019478D02*
G03*
X019478Y021890I-000108J000000D01*
G01*
X019793D02*
G03*
X019793Y021890I-000108J000000D01*
G01*
X020108Y021890D02*
G03*
X020108Y021890I-000108J000000D01*
G01*
X020423Y021890D02*
G03*
X020423Y021890I-000108J000000D01*
G01*
X020738Y021890D02*
G03*
X020738Y021890I-000108J000000D01*
G01*
X021053D02*
G03*
X021053Y021890I-000108J000000D01*
G01*
X021368D02*
G03*
X021368Y021890I-000108J000000D01*
G01*
X021683D02*
G03*
X021683Y021890I-000108J000000D01*
G01*
X015069Y021575D02*
G03*
X015069Y021575I-000108J000000D01*
G01*
X015384D02*
G03*
X015384Y021575I-000108J000000D01*
G01*
X015698D02*
G03*
X015698Y021575I-000108J000000D01*
G01*
X016013D02*
G03*
X016013Y021575I-000108J000000D01*
G01*
X016328D02*
G03*
X016328Y021575I-000108J000000D01*
G01*
X016643D02*
G03*
X016643Y021575I-000108J000000D01*
G01*
X016958D02*
G03*
X016958Y021575I-000108J000000D01*
G01*
X017273D02*
G03*
X017273Y021575I-000108J000000D01*
G01*
X017588D02*
G03*
X017588Y021575I-000108J000000D01*
G01*
X017903D02*
G03*
X017903Y021575I-000108J000000D01*
G01*
X018218D02*
G03*
X018218Y021575I-000108J000000D01*
G01*
X018533D02*
G03*
X018533Y021575I-000108J000000D01*
G01*
X018848D02*
G03*
X018848Y021575I-000108J000000D01*
G01*
X019163D02*
G03*
X019163Y021575I-000108J000000D01*
G01*
X019478D02*
G03*
X019478Y021575I-000108J000000D01*
G01*
X019793D02*
G03*
X019793Y021575I-000108J000000D01*
G01*
X020108D02*
G03*
X020108Y021575I-000108J000000D01*
G01*
X020423D02*
G03*
X020423Y021575I-000108J000000D01*
G01*
X020738D02*
G03*
X020738Y021575I-000108J000000D01*
G01*
X021053D02*
G03*
X021053Y021575I-000108J000000D01*
G01*
X021368D02*
G03*
X021368Y021575I-000108J000000D01*
G01*
X021683D02*
G03*
X021683Y021575I-000108J000000D01*
G01*
X015069Y021260D02*
G03*
X015069Y021260I-000108J000000D01*
G01*
X015384Y021260D02*
G03*
X015384Y021260I-000108J000000D01*
G01*
X015698D02*
G03*
X015698Y021260I-000108J000000D01*
G01*
X016013D02*
G03*
X016013Y021260I-000108J000000D01*
G01*
X016328D02*
G03*
X016328Y021260I-000108J000000D01*
G01*
X016643D02*
G03*
X016643Y021260I-000108J000000D01*
G01*
X016958D02*
G03*
X016958Y021260I-000108J000000D01*
G01*
X017273Y021260D02*
G03*
X017273Y021260I-000108J000000D01*
G01*
X017588Y021260D02*
G03*
X017588Y021260I-000108J000000D01*
G01*
X017903D02*
G03*
X017903Y021260I-000108J000000D01*
G01*
X018218D02*
G03*
X018218Y021260I-000108J000000D01*
G01*
X018533D02*
G03*
X018533Y021260I-000108J000000D01*
G01*
X018848D02*
G03*
X018848Y021260I-000108J000000D01*
G01*
X019163D02*
G03*
X019163Y021260I-000108J000000D01*
G01*
X019478Y021260D02*
G03*
X019478Y021260I-000108J000000D01*
G01*
X019793Y021260D02*
G03*
X019793Y021260I-000108J000000D01*
G01*
X020108D02*
G03*
X020108Y021260I-000108J000000D01*
G01*
X020423D02*
G03*
X020423Y021260I-000108J000000D01*
G01*
X020738D02*
G03*
X020738Y021260I-000108J000000D01*
G01*
X021053D02*
G03*
X021053Y021260I-000108J000000D01*
G01*
X021368D02*
G03*
X021368Y021260I-000108J000000D01*
G01*
X021683Y021260D02*
G03*
X021683Y021260I-000108J000000D01*
G01*
X015069Y020945D02*
G03*
X015069Y020945I-000108J000000D01*
G01*
X015384Y020945D02*
G03*
X015384Y020945I-000108J000000D01*
G01*
X015698D02*
G03*
X015698Y020945I-000108J000000D01*
G01*
X016013Y020945D02*
G03*
X016013Y020945I-000108J000000D01*
G01*
X016328D02*
G03*
X016328Y020945I-000108J000000D01*
G01*
X016643D02*
G03*
X016643Y020945I-000108J000000D01*
G01*
X016958D02*
G03*
X016958Y020945I-000108J000000D01*
G01*
X017273D02*
G03*
X017273Y020945I-000108J000000D01*
G01*
X017588D02*
G03*
X017588Y020945I-000108J000000D01*
G01*
X017903D02*
G03*
X017903Y020945I-000108J000000D01*
G01*
X018218D02*
G03*
X018218Y020945I-000108J000000D01*
G01*
X018533D02*
G03*
X018533Y020945I-000108J000000D01*
G01*
X018848D02*
G03*
X018848Y020945I-000108J000000D01*
G01*
X019163D02*
G03*
X019163Y020945I-000108J000000D01*
G01*
X019478Y020945D02*
G03*
X019478Y020945I-000108J000000D01*
G01*
X019793Y020945D02*
G03*
X019793Y020945I-000108J000000D01*
G01*
X020108D02*
G03*
X020108Y020945I-000108J000000D01*
G01*
X020423D02*
G03*
X020423Y020945I-000108J000000D01*
G01*
X020738D02*
G03*
X020738Y020945I-000108J000000D01*
G01*
X021053Y020945D02*
G03*
X021053Y020945I-000108J000000D01*
G01*
X021368D02*
G03*
X021368Y020945I-000108J000000D01*
G01*
X021683Y020945D02*
G03*
X021683Y020945I-000108J000000D01*
G01*
X015069Y020630D02*
G03*
X015069Y020630I-000108J000000D01*
G01*
X015384D02*
G03*
X015384Y020630I-000108J000000D01*
G01*
X015698Y020630D02*
G03*
X015698Y020630I-000108J000000D01*
G01*
X016013Y020630D02*
G03*
X016013Y020630I-000108J000000D01*
G01*
X016328D02*
G03*
X016328Y020630I-000108J000000D01*
G01*
X016643D02*
G03*
X016643Y020630I-000108J000000D01*
G01*
X016958Y020630D02*
G03*
X016958Y020630I-000108J000000D01*
G01*
X017273Y020630D02*
G03*
X017273Y020630I-000108J000000D01*
G01*
X017588D02*
G03*
X017588Y020630I-000108J000000D01*
G01*
X017903D02*
G03*
X017903Y020630I-000108J000000D01*
G01*
X018218D02*
G03*
X018218Y020630I-000108J000000D01*
G01*
X018533D02*
G03*
X018533Y020630I-000108J000000D01*
G01*
X018848D02*
G03*
X018848Y020630I-000108J000000D01*
G01*
X019163Y020630D02*
G03*
X019163Y020630I-000108J000000D01*
G01*
X019478D02*
G03*
X019478Y020630I-000108J000000D01*
G01*
X019793Y020630D02*
G03*
X019793Y020630I-000108J000000D01*
G01*
X020108D02*
G03*
X020108Y020630I-000108J000000D01*
G01*
X020423D02*
G03*
X020423Y020630I-000108J000000D01*
G01*
X020738D02*
G03*
X020738Y020630I-000108J000000D01*
G01*
X021053Y020630D02*
G03*
X021053Y020630I-000108J000000D01*
G01*
X021368Y020630D02*
G03*
X021368Y020630I-000108J000000D01*
G01*
X021683D02*
G03*
X021683Y020630I-000108J000000D01*
G01*
X015069Y020315D02*
G03*
X015069Y020315I-000108J000000D01*
G01*
X015384D02*
G03*
X015384Y020315I-000108J000000D01*
G01*
X015698D02*
G03*
X015698Y020315I-000108J000000D01*
G01*
X016013Y020315D02*
G03*
X016013Y020315I-000108J000000D01*
G01*
X016328D02*
G03*
X016328Y020315I-000108J000000D01*
G01*
X016643Y020315D02*
G03*
X016643Y020315I-000108J000000D01*
G01*
X016958D02*
G03*
X016958Y020315I-000108J000000D01*
G01*
X017273D02*
G03*
X017273Y020315I-000108J000000D01*
G01*
X017588D02*
G03*
X017588Y020315I-000108J000000D01*
G01*
X017903D02*
G03*
X017903Y020315I-000108J000000D01*
G01*
X018218Y020315D02*
G03*
X018218Y020315I-000108J000000D01*
G01*
X018533D02*
G03*
X018533Y020315I-000108J000000D01*
G01*
X018848Y020315D02*
G03*
X018848Y020315I-000108J000000D01*
G01*
X019163D02*
G03*
X019163Y020315I-000108J000000D01*
G01*
X019478D02*
G03*
X019478Y020315I-000108J000000D01*
G01*
X019793D02*
G03*
X019793Y020315I-000108J000000D01*
G01*
X020108D02*
G03*
X020108Y020315I-000108J000000D01*
G01*
X020423Y020315D02*
G03*
X020423Y020315I-000108J000000D01*
G01*
X020738D02*
G03*
X020738Y020315I-000108J000000D01*
G01*
X021053Y020315D02*
G03*
X021053Y020315I-000108J000000D01*
G01*
X021368D02*
G03*
X021368Y020315I-000108J000000D01*
G01*
X021683D02*
G03*
X021683Y020315I-000108J000000D01*
G01*
X015069Y020000D02*
G03*
X015069Y020000I-000108J000000D01*
G01*
X015384D02*
G03*
X015384Y020000I-000108J000000D01*
G01*
X015698D02*
G03*
X015698Y020000I-000108J000000D01*
G01*
X016013D02*
G03*
X016013Y020000I-000108J000000D01*
G01*
X016328Y020000D02*
G03*
X016328Y020000I-000108J000000D01*
G01*
X016643D02*
G03*
X016643Y020000I-000108J000000D01*
G01*
X016958Y020000D02*
G03*
X016958Y020000I-000108J000000D01*
G01*
X017273D02*
G03*
X017273Y020000I-000108J000000D01*
G01*
X017588D02*
G03*
X017588Y020000I-000108J000000D01*
G01*
X017903D02*
G03*
X017903Y020000I-000108J000000D01*
G01*
X018218D02*
G03*
X018218Y020000I-000108J000000D01*
G01*
X018533D02*
G03*
X018533Y020000I-000108J000000D01*
G01*
X018848D02*
G03*
X018848Y020000I-000108J000000D01*
G01*
X019163D02*
G03*
X019163Y020000I-000108J000000D01*
G01*
X019478D02*
G03*
X019478Y020000I-000108J000000D01*
G01*
X019793D02*
G03*
X019793Y020000I-000108J000000D01*
G01*
X020108Y020000D02*
G03*
X020108Y020000I-000108J000000D01*
G01*
X020423D02*
G03*
X020423Y020000I-000108J000000D01*
G01*
X020738Y020000D02*
G03*
X020738Y020000I-000108J000000D01*
G01*
X021053D02*
G03*
X021053Y020000I-000108J000000D01*
G01*
X021368D02*
G03*
X021368Y020000I-000108J000000D01*
G01*
X021683D02*
G03*
X021683Y020000I-000108J000000D01*
G01*
X015069Y019685D02*
G03*
X015069Y019685I-000108J000000D01*
G01*
X015384D02*
G03*
X015384Y019685I-000108J000000D01*
G01*
X015698D02*
G03*
X015698Y019685I-000108J000000D01*
G01*
X016013Y019685D02*
G03*
X016013Y019685I-000108J000000D01*
G01*
X016328D02*
G03*
X016328Y019685I-000108J000000D01*
G01*
X016643D02*
G03*
X016643Y019685I-000108J000000D01*
G01*
X016958Y019685D02*
G03*
X016958Y019685I-000108J000000D01*
G01*
X017273D02*
G03*
X017273Y019685I-000108J000000D01*
G01*
X017588D02*
G03*
X017588Y019685I-000108J000000D01*
G01*
X017903D02*
G03*
X017903Y019685I-000108J000000D01*
G01*
X018218Y019685D02*
G03*
X018218Y019685I-000108J000000D01*
G01*
X018533D02*
G03*
X018533Y019685I-000108J000000D01*
G01*
X018848Y019685D02*
G03*
X018848Y019685I-000108J000000D01*
G01*
X019163D02*
G03*
X019163Y019685I-000108J000000D01*
G01*
X019478D02*
G03*
X019478Y019685I-000108J000000D01*
G01*
X019793D02*
G03*
X019793Y019685I-000108J000000D01*
G01*
X020108Y019685D02*
G03*
X020108Y019685I-000108J000000D01*
G01*
X020423D02*
G03*
X020423Y019685I-000108J000000D01*
G01*
X020738D02*
G03*
X020738Y019685I-000108J000000D01*
G01*
X021053Y019685D02*
G03*
X021053Y019685I-000108J000000D01*
G01*
X021368D02*
G03*
X021368Y019685I-000108J000000D01*
G01*
X021683D02*
G03*
X021683Y019685I-000108J000000D01*
G01*
X015069Y019370D02*
G03*
X015069Y019370I-000108J000000D01*
G01*
X015384D02*
G03*
X015384Y019370I-000108J000000D01*
G01*
X015698Y019370D02*
G03*
X015698Y019370I-000108J000000D01*
G01*
X016013D02*
G03*
X016013Y019370I-000108J000000D01*
G01*
X016328D02*
G03*
X016328Y019370I-000108J000000D01*
G01*
X016643D02*
G03*
X016643Y019370I-000108J000000D01*
G01*
X016958Y019370D02*
G03*
X016958Y019370I-000108J000000D01*
G01*
X017273D02*
G03*
X017273Y019370I-000108J000000D01*
G01*
X017588D02*
G03*
X017588Y019370I-000108J000000D01*
G01*
X017903Y019370D02*
G03*
X017903Y019370I-000108J000000D01*
G01*
X018218D02*
G03*
X018218Y019370I-000108J000000D01*
G01*
X018533D02*
G03*
X018533Y019370I-000108J000000D01*
G01*
X018848D02*
G03*
X018848Y019370I-000108J000000D01*
G01*
X019163Y019370D02*
G03*
X019163Y019370I-000108J000000D01*
G01*
X019478D02*
G03*
X019478Y019370I-000108J000000D01*
G01*
X019793D02*
G03*
X019793Y019370I-000108J000000D01*
G01*
X020108Y019370D02*
G03*
X020108Y019370I-000108J000000D01*
G01*
X020423D02*
G03*
X020423Y019370I-000108J000000D01*
G01*
X020738D02*
G03*
X020738Y019370I-000108J000000D01*
G01*
X021053D02*
G03*
X021053Y019370I-000108J000000D01*
G01*
X021368Y019370D02*
G03*
X021368Y019370I-000108J000000D01*
G01*
X021683D02*
G03*
X021683Y019370I-000108J000000D01*
G01*
X015069Y019055D02*
G03*
X015069Y019055I-000108J000000D01*
G01*
X015384Y019055D02*
G03*
X015384Y019055I-000108J000000D01*
G01*
X015698D02*
G03*
X015698Y019055I-000108J000000D01*
G01*
X016013D02*
G03*
X016013Y019055I-000108J000000D01*
G01*
X016328D02*
G03*
X016328Y019055I-000108J000000D01*
G01*
X016643D02*
G03*
X016643Y019055I-000108J000000D01*
G01*
X016958D02*
G03*
X016958Y019055I-000108J000000D01*
G01*
X017273Y019055D02*
G03*
X017273Y019055I-000108J000000D01*
G01*
X017588Y019055D02*
G03*
X017588Y019055I-000108J000000D01*
G01*
X017903D02*
G03*
X017903Y019055I-000108J000000D01*
G01*
X018218D02*
G03*
X018218Y019055I-000108J000000D01*
G01*
X018533D02*
G03*
X018533Y019055I-000108J000000D01*
G01*
X018848D02*
G03*
X018848Y019055I-000108J000000D01*
G01*
X019163D02*
G03*
X019163Y019055I-000108J000000D01*
G01*
X019478Y019055D02*
G03*
X019478Y019055I-000108J000000D01*
G01*
X019793Y019055D02*
G03*
X019793Y019055I-000108J000000D01*
G01*
X020108D02*
G03*
X020108Y019055I-000108J000000D01*
G01*
X020423D02*
G03*
X020423Y019055I-000108J000000D01*
G01*
X020738D02*
G03*
X020738Y019055I-000108J000000D01*
G01*
X021053D02*
G03*
X021053Y019055I-000108J000000D01*
G01*
X021368D02*
G03*
X021368Y019055I-000108J000000D01*
G01*
X021683Y019055D02*
G03*
X021683Y019055I-000108J000000D01*
G01*
X015069Y018740D02*
G03*
X015069Y018740I-000108J000000D01*
G01*
X015384D02*
G03*
X015384Y018740I-000108J000000D01*
G01*
X015698D02*
G03*
X015698Y018740I-000108J000000D01*
G01*
X016013D02*
G03*
X016013Y018740I-000108J000000D01*
G01*
X016328D02*
G03*
X016328Y018740I-000108J000000D01*
G01*
X016643D02*
G03*
X016643Y018740I-000108J000000D01*
G01*
X016958D02*
G03*
X016958Y018740I-000108J000000D01*
G01*
X017273D02*
G03*
X017273Y018740I-000108J000000D01*
G01*
X017588D02*
G03*
X017588Y018740I-000108J000000D01*
G01*
X017903D02*
G03*
X017903Y018740I-000108J000000D01*
G01*
X018218D02*
G03*
X018218Y018740I-000108J000000D01*
G01*
X018533D02*
G03*
X018533Y018740I-000108J000000D01*
G01*
X018848D02*
G03*
X018848Y018740I-000108J000000D01*
G01*
X019163D02*
G03*
X019163Y018740I-000108J000000D01*
G01*
X019478D02*
G03*
X019478Y018740I-000108J000000D01*
G01*
X019793D02*
G03*
X019793Y018740I-000108J000000D01*
G01*
X020108D02*
G03*
X020108Y018740I-000108J000000D01*
G01*
X020423D02*
G03*
X020423Y018740I-000108J000000D01*
G01*
X020738D02*
G03*
X020738Y018740I-000108J000000D01*
G01*
X021053D02*
G03*
X021053Y018740I-000108J000000D01*
G01*
X021368D02*
G03*
X021368Y018740I-000108J000000D01*
G01*
X021683D02*
G03*
X021683Y018740I-000108J000000D01*
G01*
X015069Y018425D02*
G03*
X015069Y018425I-000108J000000D01*
G01*
X015384D02*
G03*
X015384Y018425I-000108J000000D01*
G01*
X015698D02*
G03*
X015698Y018425I-000108J000000D01*
G01*
X016013Y018425D02*
G03*
X016013Y018425I-000108J000000D01*
G01*
X016328D02*
G03*
X016328Y018425I-000108J000000D01*
G01*
X016643D02*
G03*
X016643Y018425I-000108J000000D01*
G01*
X016958Y018425D02*
G03*
X016958Y018425I-000108J000000D01*
G01*
X017273D02*
G03*
X017273Y018425I-000108J000000D01*
G01*
X017588D02*
G03*
X017588Y018425I-000108J000000D01*
G01*
X017903Y018425D02*
G03*
X017903Y018425I-000108J000000D01*
G01*
X018218D02*
G03*
X018218Y018425I-000108J000000D01*
G01*
X018533D02*
G03*
X018533Y018425I-000108J000000D01*
G01*
X018848D02*
G03*
X018848Y018425I-000108J000000D01*
G01*
X019163Y018425D02*
G03*
X019163Y018425I-000108J000000D01*
G01*
X019478D02*
G03*
X019478Y018425I-000108J000000D01*
G01*
X019793D02*
G03*
X019793Y018425I-000108J000000D01*
G01*
X020108Y018425D02*
G03*
X020108Y018425I-000108J000000D01*
G01*
X020423D02*
G03*
X020423Y018425I-000108J000000D01*
G01*
X020738D02*
G03*
X020738Y018425I-000108J000000D01*
G01*
X021053Y018425D02*
G03*
X021053Y018425I-000108J000000D01*
G01*
X021368D02*
G03*
X021368Y018425I-000108J000000D01*
G01*
X021683D02*
G03*
X021683Y018425I-000108J000000D01*
G01*
X015069Y018110D02*
G03*
X015069Y018110I-000108J000000D01*
G01*
X015384D02*
G03*
X015384Y018110I-000108J000000D01*
G01*
X015698D02*
G03*
X015698Y018110I-000108J000000D01*
G01*
X016013Y018110D02*
G03*
X016013Y018110I-000108J000000D01*
G01*
X016328D02*
G03*
X016328Y018110I-000108J000000D01*
G01*
X016643Y018110D02*
G03*
X016643Y018110I-000108J000000D01*
G01*
X016958D02*
G03*
X016958Y018110I-000108J000000D01*
G01*
X017273D02*
G03*
X017273Y018110I-000108J000000D01*
G01*
X017588D02*
G03*
X017588Y018110I-000108J000000D01*
G01*
X017903D02*
G03*
X017903Y018110I-000108J000000D01*
G01*
X018218Y018110D02*
G03*
X018218Y018110I-000108J000000D01*
G01*
X018533D02*
G03*
X018533Y018110I-000108J000000D01*
G01*
X018848Y018110D02*
G03*
X018848Y018110I-000108J000000D01*
G01*
X019163D02*
G03*
X019163Y018110I-000108J000000D01*
G01*
X019478D02*
G03*
X019478Y018110I-000108J000000D01*
G01*
X019793D02*
G03*
X019793Y018110I-000108J000000D01*
G01*
X020108D02*
G03*
X020108Y018110I-000108J000000D01*
G01*
X020423Y018110D02*
G03*
X020423Y018110I-000108J000000D01*
G01*
X020738D02*
G03*
X020738Y018110I-000108J000000D01*
G01*
X021053Y018110D02*
G03*
X021053Y018110I-000108J000000D01*
G01*
X021368D02*
G03*
X021368Y018110I-000108J000000D01*
G01*
X021683D02*
G03*
X021683Y018110I-000108J000000D01*
G01*
X015069Y017795D02*
G03*
X015069Y017795I-000108J000000D01*
G01*
X015384D02*
G03*
X015384Y017795I-000108J000000D01*
G01*
X015698D02*
G03*
X015698Y017795I-000108J000000D01*
G01*
X016013Y017795D02*
G03*
X016013Y017795I-000108J000000D01*
G01*
X016328Y017795D02*
G03*
X016328Y017795I-000108J000000D01*
G01*
X016643Y017795D02*
G03*
X016643Y017795I-000108J000000D01*
G01*
X016958Y017795D02*
G03*
X016958Y017795I-000108J000000D01*
G01*
X017273D02*
G03*
X017273Y017795I-000108J000000D01*
G01*
X017588Y017795D02*
G03*
X017588Y017795I-000108J000000D01*
G01*
X017903D02*
G03*
X017903Y017795I-000108J000000D01*
G01*
X018218D02*
G03*
X018218Y017795I-000108J000000D01*
G01*
X018533D02*
G03*
X018533Y017795I-000108J000000D01*
G01*
X018848Y017795D02*
G03*
X018848Y017795I-000108J000000D01*
G01*
X019163D02*
G03*
X019163Y017795I-000108J000000D01*
G01*
X019478Y017795D02*
G03*
X019478Y017795I-000108J000000D01*
G01*
X019793D02*
G03*
X019793Y017795I-000108J000000D01*
G01*
X020108D02*
G03*
X020108Y017795I-000108J000000D01*
G01*
X020423D02*
G03*
X020423Y017795I-000108J000000D01*
G01*
X020738D02*
G03*
X020738Y017795I-000108J000000D01*
G01*
X021053Y017795D02*
G03*
X021053Y017795I-000108J000000D01*
G01*
X021368Y017795D02*
G03*
X021368Y017795I-000108J000000D01*
G01*
X021683D02*
G03*
X021683Y017795I-000108J000000D01*
G01*
X015069Y017480D02*
G03*
X015069Y017480I-000108J000000D01*
G01*
X015384D02*
G03*
X015384Y017480I-000108J000000D01*
G01*
X015698D02*
G03*
X015698Y017480I-000108J000000D01*
G01*
X016013Y017480D02*
G03*
X016013Y017480I-000108J000000D01*
G01*
X016328D02*
G03*
X016328Y017480I-000108J000000D01*
G01*
X016643D02*
G03*
X016643Y017480I-000108J000000D01*
G01*
X016958Y017480D02*
G03*
X016958Y017480I-000108J000000D01*
G01*
X017273D02*
G03*
X017273Y017480I-000108J000000D01*
G01*
X017588D02*
G03*
X017588Y017480I-000108J000000D01*
G01*
X017903D02*
G03*
X017903Y017480I-000108J000000D01*
G01*
X018218Y017480D02*
G03*
X018218Y017480I-000108J000000D01*
G01*
X018533D02*
G03*
X018533Y017480I-000108J000000D01*
G01*
X018848Y017480D02*
G03*
X018848Y017480I-000108J000000D01*
G01*
X019163D02*
G03*
X019163Y017480I-000108J000000D01*
G01*
X019478D02*
G03*
X019478Y017480I-000108J000000D01*
G01*
X019793D02*
G03*
X019793Y017480I-000108J000000D01*
G01*
X020108Y017480D02*
G03*
X020108Y017480I-000108J000000D01*
G01*
X020423D02*
G03*
X020423Y017480I-000108J000000D01*
G01*
X020738D02*
G03*
X020738Y017480I-000108J000000D01*
G01*
X021053Y017480D02*
G03*
X021053Y017480I-000108J000000D01*
G01*
X021368D02*
G03*
X021368Y017480I-000108J000000D01*
G01*
X021683D02*
G03*
X021683Y017480I-000108J000000D01*
G01*
X015069Y017165D02*
G03*
X015069Y017165I-000108J000000D01*
G01*
X015384D02*
G03*
X015384Y017165I-000108J000000D01*
G01*
X015698Y017165D02*
G03*
X015698Y017165I-000108J000000D01*
G01*
X016013Y017165D02*
G03*
X016013Y017165I-000108J000000D01*
G01*
X016328D02*
G03*
X016328Y017165I-000108J000000D01*
G01*
X016643D02*
G03*
X016643Y017165I-000108J000000D01*
G01*
X016958D02*
G03*
X016958Y017165I-000108J000000D01*
G01*
X017273D02*
G03*
X017273Y017165I-000108J000000D01*
G01*
X017588D02*
G03*
X017588Y017165I-000108J000000D01*
G01*
X017903D02*
G03*
X017903Y017165I-000108J000000D01*
G01*
X018218D02*
G03*
X018218Y017165I-000108J000000D01*
G01*
X018533Y017165D02*
G03*
X018533Y017165I-000108J000000D01*
G01*
X018848D02*
G03*
X018848Y017165I-000108J000000D01*
G01*
X019163Y017165D02*
G03*
X019163Y017165I-000108J000000D01*
G01*
X019478D02*
G03*
X019478Y017165I-000108J000000D01*
G01*
X019793D02*
G03*
X019793Y017165I-000108J000000D01*
G01*
X020108D02*
G03*
X020108Y017165I-000108J000000D01*
G01*
X020423D02*
G03*
X020423Y017165I-000108J000000D01*
G01*
X020738Y017165D02*
G03*
X020738Y017165I-000108J000000D01*
G01*
X021053D02*
G03*
X021053Y017165I-000108J000000D01*
G01*
X021368Y017165D02*
G03*
X021368Y017165I-000108J000000D01*
G01*
X021683D02*
G03*
X021683Y017165I-000108J000000D01*
G01*
X015069Y016850D02*
G03*
X015069Y016850I-000108J000000D01*
G01*
X015384Y016850D02*
G03*
X015384Y016850I-000108J000000D01*
G01*
X015698D02*
G03*
X015698Y016850I-000108J000000D01*
G01*
X016013Y016850D02*
G03*
X016013Y016850I-000108J000000D01*
G01*
X016328D02*
G03*
X016328Y016850I-000108J000000D01*
G01*
X016643D02*
G03*
X016643Y016850I-000108J000000D01*
G01*
X016958Y016850D02*
G03*
X016958Y016850I-000108J000000D01*
G01*
X017273Y016850D02*
G03*
X017273Y016850I-000108J000000D01*
G01*
X017588D02*
G03*
X017588Y016850I-000108J000000D01*
G01*
X017903D02*
G03*
X017903Y016850I-000108J000000D01*
G01*
X018218D02*
G03*
X018218Y016850I-000108J000000D01*
G01*
X018533Y016850D02*
G03*
X018533Y016850I-000108J000000D01*
G01*
X018848D02*
G03*
X018848Y016850I-000108J000000D01*
G01*
X019163D02*
G03*
X019163Y016850I-000108J000000D01*
G01*
X019478Y016850D02*
G03*
X019478Y016850I-000108J000000D01*
G01*
X019793D02*
G03*
X019793Y016850I-000108J000000D01*
G01*
X020108D02*
G03*
X020108Y016850I-000108J000000D01*
G01*
X020423Y016850D02*
G03*
X020423Y016850I-000108J000000D01*
G01*
X020738D02*
G03*
X020738Y016850I-000108J000000D01*
G01*
X021053D02*
G03*
X021053Y016850I-000108J000000D01*
G01*
X021368D02*
G03*
X021368Y016850I-000108J000000D01*
G01*
X021683Y016850D02*
G03*
X021683Y016850I-000108J000000D01*
G01*
X015069Y016535D02*
G03*
X015069Y016535I-000108J000000D01*
G01*
X015384D02*
G03*
X015384Y016535I-000108J000000D01*
G01*
X015698D02*
G03*
X015698Y016535I-000108J000000D01*
G01*
X016013D02*
G03*
X016013Y016535I-000108J000000D01*
G01*
X016328D02*
G03*
X016328Y016535I-000108J000000D01*
G01*
X016643D02*
G03*
X016643Y016535I-000108J000000D01*
G01*
X016958D02*
G03*
X016958Y016535I-000108J000000D01*
G01*
X017273D02*
G03*
X017273Y016535I-000108J000000D01*
G01*
X017588D02*
G03*
X017588Y016535I-000108J000000D01*
G01*
X017903D02*
G03*
X017903Y016535I-000108J000000D01*
G01*
X018218D02*
G03*
X018218Y016535I-000108J000000D01*
G01*
X018533D02*
G03*
X018533Y016535I-000108J000000D01*
G01*
X018848D02*
G03*
X018848Y016535I-000108J000000D01*
G01*
X019163D02*
G03*
X019163Y016535I-000108J000000D01*
G01*
X019478D02*
G03*
X019478Y016535I-000108J000000D01*
G01*
X019793D02*
G03*
X019793Y016535I-000108J000000D01*
G01*
X020108D02*
G03*
X020108Y016535I-000108J000000D01*
G01*
X020423D02*
G03*
X020423Y016535I-000108J000000D01*
G01*
X020738D02*
G03*
X020738Y016535I-000108J000000D01*
G01*
X021053D02*
G03*
X021053Y016535I-000108J000000D01*
G01*
X021368D02*
G03*
X021368Y016535I-000108J000000D01*
G01*
X021683D02*
G03*
X021683Y016535I-000108J000000D01*
G01*
X015069Y016220D02*
G03*
X015069Y016220I-000108J000000D01*
G01*
X015384D02*
G03*
X015384Y016220I-000108J000000D01*
G01*
X015698D02*
G03*
X015698Y016220I-000108J000000D01*
G01*
X016013D02*
G03*
X016013Y016220I-000108J000000D01*
G01*
X016328D02*
G03*
X016328Y016220I-000108J000000D01*
G01*
X016643D02*
G03*
X016643Y016220I-000108J000000D01*
G01*
X016958D02*
G03*
X016958Y016220I-000108J000000D01*
G01*
X017273D02*
G03*
X017273Y016220I-000108J000000D01*
G01*
X017588Y016220D02*
G03*
X017588Y016220I-000108J000000D01*
G01*
X017903Y016220D02*
G03*
X017903Y016220I-000108J000000D01*
G01*
X018218D02*
G03*
X018218Y016220I-000108J000000D01*
G01*
X018533D02*
G03*
X018533Y016220I-000108J000000D01*
G01*
X018848D02*
G03*
X018848Y016220I-000108J000000D01*
G01*
X019163D02*
G03*
X019163Y016220I-000108J000000D01*
G01*
X019478D02*
G03*
X019478Y016220I-000108J000000D01*
G01*
X019793Y016220D02*
G03*
X019793Y016220I-000108J000000D01*
G01*
X020108Y016220D02*
G03*
X020108Y016220I-000108J000000D01*
G01*
X020423D02*
G03*
X020423Y016220I-000108J000000D01*
G01*
X020738D02*
G03*
X020738Y016220I-000108J000000D01*
G01*
X021053D02*
G03*
X021053Y016220I-000108J000000D01*
G01*
X021368D02*
G03*
X021368Y016220I-000108J000000D01*
G01*
X021683D02*
G03*
X021683Y016220I-000108J000000D01*
G01*
X015069Y015905D02*
G03*
X015069Y015905I-000108J000000D01*
G01*
X015384D02*
G03*
X015384Y015905I-000108J000000D01*
G01*
X015698D02*
G03*
X015698Y015905I-000108J000000D01*
G01*
X016013D02*
G03*
X016013Y015905I-000108J000000D01*
G01*
X016328D02*
G03*
X016328Y015905I-000108J000000D01*
G01*
X016643Y015905D02*
G03*
X016643Y015905I-000108J000000D01*
G01*
X016958Y015905D02*
G03*
X016958Y015905I-000108J000000D01*
G01*
X017273D02*
G03*
X017273Y015905I-000108J000000D01*
G01*
X017588Y015905D02*
G03*
X017588Y015905I-000108J000000D01*
G01*
X017903D02*
G03*
X017903Y015905I-000108J000000D01*
G01*
X018218Y015905D02*
G03*
X018218Y015905I-000108J000000D01*
G01*
X018533D02*
G03*
X018533Y015905I-000108J000000D01*
G01*
X018848D02*
G03*
X018848Y015905I-000108J000000D01*
G01*
X019163D02*
G03*
X019163Y015905I-000108J000000D01*
G01*
X019478Y015905D02*
G03*
X019478Y015905I-000108J000000D01*
G01*
X019793D02*
G03*
X019793Y015905I-000108J000000D01*
G01*
X020108D02*
G03*
X020108Y015905I-000108J000000D01*
G01*
X020423Y015905D02*
G03*
X020423Y015905I-000108J000000D01*
G01*
X020738D02*
G03*
X020738Y015905I-000108J000000D01*
G01*
X021053D02*
G03*
X021053Y015905I-000108J000000D01*
G01*
X021368D02*
G03*
X021368Y015905I-000108J000000D01*
G01*
X021683Y015905D02*
G03*
X021683Y015905I-000108J000000D01*
G01*
X015069Y015590D02*
G03*
X015069Y015590I-000108J000000D01*
G01*
X015384D02*
G03*
X015384Y015590I-000108J000000D01*
G01*
X015698D02*
G03*
X015698Y015590I-000108J000000D01*
G01*
X016013Y015590D02*
G03*
X016013Y015590I-000108J000000D01*
G01*
X016328Y015590D02*
G03*
X016328Y015590I-000108J000000D01*
G01*
X016643Y015590D02*
G03*
X016643Y015590I-000108J000000D01*
G01*
X016958Y015590D02*
G03*
X016958Y015590I-000108J000000D01*
G01*
X017273D02*
G03*
X017273Y015590I-000108J000000D01*
G01*
X017588Y015590D02*
G03*
X017588Y015590I-000108J000000D01*
G01*
X017903D02*
G03*
X017903Y015590I-000108J000000D01*
G01*
X018218D02*
G03*
X018218Y015590I-000108J000000D01*
G01*
X018533D02*
G03*
X018533Y015590I-000108J000000D01*
G01*
X018848Y015590D02*
G03*
X018848Y015590I-000108J000000D01*
G01*
X019163D02*
G03*
X019163Y015590I-000108J000000D01*
G01*
X019478Y015590D02*
G03*
X019478Y015590I-000108J000000D01*
G01*
X019793D02*
G03*
X019793Y015590I-000108J000000D01*
G01*
X020108D02*
G03*
X020108Y015590I-000108J000000D01*
G01*
X020423D02*
G03*
X020423Y015590I-000108J000000D01*
G01*
X020738D02*
G03*
X020738Y015590I-000108J000000D01*
G01*
X021053Y015590D02*
G03*
X021053Y015590I-000108J000000D01*
G01*
X021368Y015590D02*
G03*
X021368Y015590I-000108J000000D01*
G01*
X021683D02*
G03*
X021683Y015590I-000108J000000D01*
G01*
X030758Y022912D02*
G03*
X030758Y022912I-000285J000000D01*
G01*
Y013620D02*
G03*
X030758Y013620I-000285J000000D01*
G01*
X041782Y022912D02*
G03*
X041782Y022912I-000285J000000D01*
G01*
Y013620D02*
G03*
X041782Y013620I-000285J000000D01*
G01*
X012283Y011683D02*
X012480D01*
Y011880D01*
Y011486D02*
Y011683D01*
X012677D01*
X011791Y011782D02*
X012146D01*
Y011585D02*
Y011782D01*
X011791Y011585D02*
X012146D01*
X011791D02*
Y011782D01*
X011968Y011683D01*
X011791Y011585D02*
X011968Y011683D01*
X012815Y011782D02*
X013169D01*
X012815Y011585D02*
Y011782D01*
Y011585D02*
X013169D01*
Y011782D01*
X012992Y011683D02*
X013169Y011782D01*
X012992Y011683D02*
X013169Y011585D01*
X014862Y022205D02*
X014960D01*
Y022303D01*
X015177Y022205D02*
X015275D01*
Y022303D01*
X015492Y022205D02*
X015590D01*
Y022303D01*
X015807Y022205D02*
X015905D01*
Y022303D01*
X016122Y022205D02*
X016220D01*
Y022303D01*
X016437Y022205D02*
X016535Y022205D01*
Y022303D01*
X016752Y022205D02*
X016850D01*
Y022303D01*
X017067Y022205D02*
X017165D01*
Y022303D01*
X017382Y022205D02*
X017480D01*
Y022303D01*
X017697Y022205D02*
X017795D01*
Y022303D01*
X018011Y022205D02*
X018110Y022205D01*
Y022303D01*
X018326Y022205D02*
X018425D01*
Y022303D01*
X018641Y022205D02*
X018740D01*
Y022303D01*
X018956Y022205D02*
X019055D01*
Y022303D01*
X019271Y022205D02*
X019370D01*
Y022303D01*
X019586Y022205D02*
X019685D01*
Y022303D01*
X019901Y022205D02*
X020000D01*
Y022303D01*
X020216Y022205D02*
X020315D01*
Y022303D01*
X020531Y022205D02*
X020630D01*
Y022303D01*
X020846Y022205D02*
X020945D01*
Y022303D01*
X021161Y022205D02*
X021260D01*
Y022303D01*
X021476Y022205D02*
X021574Y022205D01*
Y022303D01*
X014862Y021890D02*
X014960D01*
Y021988D01*
X015177Y021890D02*
X015275D01*
Y021988D01*
X015492Y021890D02*
X015590D01*
Y021988D01*
X015807Y021890D02*
X015905D01*
Y021988D01*
X016122Y021890D02*
X016220D01*
Y021988D01*
X016437Y021890D02*
X016535Y021890D01*
Y021988D01*
X016752Y021890D02*
X016850D01*
Y021988D01*
X017067Y021890D02*
X017165D01*
Y021988D01*
X017382Y021890D02*
X017480D01*
Y021988D01*
X017697Y021890D02*
X017795D01*
Y021988D01*
X018011Y021890D02*
X018110D01*
Y021988D01*
X018326Y021890D02*
X018425D01*
Y021988D01*
X018641Y021890D02*
X018740D01*
Y021988D01*
X018956Y021890D02*
X019055D01*
Y021988D01*
X019271Y021890D02*
X019370D01*
Y021988D01*
X019586Y021890D02*
X019685D01*
Y021988D01*
X019901Y021890D02*
X020000D01*
Y021988D01*
X020216Y021890D02*
X020315D01*
Y021988D01*
X020531Y021890D02*
X020630D01*
Y021988D01*
X020846Y021890D02*
X020945D01*
Y021988D01*
X021161Y021890D02*
X021260D01*
Y021988D01*
X021476Y021890D02*
X021574Y021890D01*
Y021988D01*
X014862Y021575D02*
X014960D01*
Y021673D01*
X015177Y021575D02*
X015275D01*
Y021673D01*
X015492Y021575D02*
X015590D01*
X015590Y021673D01*
X015807Y021575D02*
X015905D01*
Y021673D01*
X016122Y021575D02*
X016220D01*
X016220Y021673D01*
X016437Y021575D02*
X016535D01*
X016535Y021673D01*
X016752Y021575D02*
X016850D01*
Y021673D01*
X017067Y021575D02*
X017165D01*
Y021673D01*
X017382Y021575D02*
X017480D01*
Y021673D01*
X017697Y021575D02*
X017795D01*
Y021673D01*
X018011Y021575D02*
X018110D01*
Y021673D01*
X018326Y021575D02*
X018425D01*
Y021673D01*
X018641Y021575D02*
X018740D01*
Y021673D01*
X018956Y021575D02*
X019055D01*
Y021673D01*
X019271Y021575D02*
X019370D01*
X019370Y021673D01*
X019586Y021575D02*
X019685D01*
Y021673D01*
X019901Y021575D02*
X020000D01*
X020000Y021673D02*
X020000Y021575D01*
X020216D02*
X020315D01*
X020315Y021673D02*
X020315Y021575D01*
X020531D02*
X020630D01*
Y021673D01*
X020846Y021575D02*
X020945D01*
X020945Y021673D01*
X021161Y021575D02*
X021260D01*
X021260Y021673D01*
X021476Y021575D02*
X021574D01*
X021574Y021673D01*
X014862Y021260D02*
X014960D01*
Y021358D01*
X015177Y021260D02*
X015275D01*
Y021358D01*
X015492Y021260D02*
X015590D01*
Y021358D01*
X015807Y021260D02*
X015905D01*
Y021358D01*
X016122Y021260D02*
X016220D01*
Y021358D01*
X016437Y021260D02*
X016535D01*
Y021358D01*
X016752Y021260D02*
X016850D01*
Y021358D01*
X017067Y021260D02*
X017165D01*
Y021358D01*
X017382Y021260D02*
X017480D01*
Y021358D01*
X017697Y021260D02*
X017795D01*
Y021358D01*
X018011Y021260D02*
X018110D01*
Y021358D01*
X018326Y021260D02*
X018425D01*
Y021358D01*
X018641Y021260D02*
X018740D01*
Y021358D01*
X018956Y021260D02*
X019055D01*
Y021358D01*
X019271Y021260D02*
X019370D01*
Y021358D01*
X019586Y021260D02*
X019685D01*
Y021358D01*
X019901Y021260D02*
X020000D01*
Y021358D01*
X020216Y021260D02*
X020315D01*
Y021358D01*
X020531Y021260D02*
X020630D01*
Y021358D01*
X020846Y021260D02*
X020945D01*
Y021358D01*
X021161Y021260D02*
X021260D01*
Y021358D01*
X021476Y021260D02*
X021574Y021260D01*
Y021358D01*
X014862Y020945D02*
X014960D01*
Y021043D01*
X015177Y020945D02*
X015275D01*
Y021043D01*
X015492Y020945D02*
X015590Y020945D01*
Y021043D01*
X015807Y020945D02*
X015905D01*
Y021043D01*
X016122Y020945D02*
X016220D01*
Y021043D01*
X016437Y020945D02*
X016535D01*
Y021043D01*
X016752Y020945D02*
X016850D01*
Y021043D01*
X017067Y020945D02*
X017165D01*
Y021043D01*
X017382Y020945D02*
X017480D01*
Y021043D01*
X017697Y020945D02*
X017795D01*
Y021043D01*
X018011Y020945D02*
X018110D01*
Y021043D01*
X018326Y020945D02*
X018425D01*
Y021043D01*
X018641Y020945D02*
X018740D01*
Y021043D01*
X018956Y020945D02*
X019055Y020945D01*
Y021043D01*
X019271Y020945D02*
X019370Y020945D01*
Y021043D01*
X019586Y020945D02*
X019685D01*
Y021043D01*
X019901Y020945D02*
X020000D01*
Y021043D01*
X020216Y020945D02*
X020315D01*
Y021043D01*
X020531Y020945D02*
X020630D01*
Y021043D01*
X020846Y020945D02*
X020945D01*
Y021043D01*
X021161Y020945D02*
X021260D01*
Y021043D01*
X021476Y020945D02*
X021574Y020945D01*
Y021043D01*
X014862Y020630D02*
X014960D01*
X014960Y020728D01*
X015177Y020630D02*
X015275D01*
X015275Y020728D01*
X015492Y020630D02*
X015590Y020630D01*
Y020728D01*
X015807Y020630D02*
X015905D01*
Y020728D01*
X016122Y020630D02*
X016220D01*
Y020728D01*
X016437Y020630D02*
X016535D01*
Y020728D01*
X016752Y020630D02*
X016850D01*
Y020728D01*
X017067Y020630D02*
X017165D01*
X017165Y020728D01*
X017382Y020630D02*
X017480D01*
Y020728D01*
X017697Y020630D02*
X017795D01*
Y020728D01*
X018011Y020630D02*
X018110D01*
Y020728D01*
X018326Y020630D02*
X018425D01*
Y020728D01*
X018641Y020630D02*
X018740D01*
Y020728D01*
X018956Y020630D02*
X019055D01*
Y020728D01*
X019271Y020630D02*
X019370Y020630D01*
X019370Y020728D02*
X019370Y020630D01*
X019586Y020630D02*
X019685D01*
Y020728D01*
X019901Y020630D02*
X020000D01*
X020000Y020728D01*
X020216Y020630D02*
X020315D01*
X020315Y020728D01*
X020531Y020630D02*
X020630D01*
Y020728D01*
X020846Y020630D02*
X020945D01*
Y020728D01*
X021161Y020630D02*
X021260D01*
X021260Y020728D02*
X021260Y020630D01*
X021476Y020630D02*
X021574Y020630D01*
X021574Y020728D02*
X021574Y020630D01*
X014862Y020315D02*
X014960D01*
Y020413D01*
X015177Y020315D02*
X015275D01*
Y020413D01*
X015492Y020315D02*
X015590D01*
Y020413D01*
X015807Y020315D02*
X015905D01*
Y020413D01*
X016122Y020315D02*
X016220D01*
Y020413D01*
X016437Y020315D02*
X016535D01*
Y020413D01*
X016752Y020315D02*
X016850D01*
Y020413D01*
X017067Y020315D02*
X017165D01*
Y020413D01*
X017382Y020315D02*
X017480D01*
Y020413D01*
X017697Y020315D02*
X017795D01*
Y020413D01*
X018011Y020315D02*
X018110D01*
Y020413D01*
X018326Y020315D02*
X018425D01*
Y020413D01*
X018641Y020315D02*
X018740D01*
Y020413D01*
X018956Y020315D02*
X019055D01*
Y020413D01*
X019271Y020315D02*
X019370D01*
Y020413D01*
X019586Y020315D02*
X019685D01*
Y020413D01*
X019901Y020315D02*
X020000D01*
Y020413D01*
X020216Y020315D02*
X020315D01*
Y020413D01*
X020531Y020315D02*
X020630D01*
Y020413D01*
X020846Y020315D02*
X020945D01*
Y020413D01*
X021161Y020315D02*
X021260D01*
Y020413D01*
X021476Y020315D02*
X021574D01*
Y020413D01*
X014862Y020000D02*
X014960D01*
Y020098D01*
X015177Y020000D02*
X015275D01*
Y020098D01*
X015492Y020000D02*
X015590D01*
Y020098D01*
X015807Y020000D02*
X015905D01*
Y020098D01*
X016122Y020000D02*
X016220D01*
Y020098D01*
X016437Y020000D02*
X016535Y020000D01*
Y020098D01*
X016752Y020000D02*
X016850D01*
Y020098D01*
X017067Y020000D02*
X017165D01*
Y020098D01*
X017382Y020000D02*
X017480D01*
Y020098D01*
X017697Y020000D02*
X017795D01*
Y020098D01*
X018011Y020000D02*
X018110Y020000D01*
Y020098D01*
X018326Y020000D02*
X018425D01*
Y020098D01*
X018641Y020000D02*
X018740D01*
Y020098D01*
X018956Y020000D02*
X019055D01*
Y020098D01*
X019271Y020000D02*
X019370D01*
Y020098D01*
X019586Y020000D02*
X019685D01*
Y020098D01*
X019901Y020000D02*
X020000D01*
Y020098D01*
X020216Y020000D02*
X020315D01*
Y020098D01*
X020531Y020000D02*
X020630D01*
Y020098D01*
X020846Y020000D02*
X020945D01*
Y020098D01*
X021161Y020000D02*
X021260D01*
Y020098D01*
X021476Y020000D02*
X021574Y020000D01*
Y020098D01*
X014862Y019685D02*
X014960D01*
Y019783D01*
X015177Y019685D02*
X015275D01*
Y019783D01*
X015492Y019685D02*
X015590D01*
Y019783D01*
X015807Y019685D02*
X015905D01*
Y019783D01*
X016122Y019685D02*
X016220D01*
Y019783D01*
X016437Y019685D02*
X016535Y019685D01*
Y019783D01*
X016752Y019685D02*
X016850D01*
Y019783D01*
X017067Y019685D02*
X017165D01*
Y019783D01*
X017382Y019685D02*
X017480D01*
Y019783D01*
X017697Y019685D02*
X017795D01*
Y019783D01*
X018011Y019685D02*
X018110D01*
Y019783D01*
X018326Y019685D02*
X018425D01*
Y019783D01*
X018641Y019685D02*
X018740D01*
Y019783D01*
X018956Y019685D02*
X019055D01*
Y019783D01*
X019271Y019685D02*
X019370D01*
Y019783D01*
X019586Y019685D02*
X019685D01*
Y019783D01*
X019901Y019685D02*
X020000D01*
Y019783D01*
X020216Y019685D02*
X020315D01*
Y019783D01*
X020531Y019685D02*
X020630D01*
Y019783D01*
X020846Y019685D02*
X020945D01*
Y019783D01*
X021161Y019685D02*
X021260D01*
Y019783D01*
X021476Y019685D02*
X021574Y019685D01*
Y019783D01*
X014862Y019370D02*
X014960D01*
Y019468D01*
X015177Y019370D02*
X015275D01*
Y019468D01*
X015492Y019370D02*
X015590D01*
Y019468D01*
X015807Y019370D02*
X015905D01*
Y019468D01*
X016122Y019370D02*
X016220D01*
Y019468D01*
X016437Y019370D02*
X016535D01*
Y019468D01*
X016752Y019370D02*
X016850D01*
Y019468D01*
X017067Y019370D02*
X017165D01*
Y019468D01*
X017382Y019370D02*
X017480D01*
Y019468D01*
X017697Y019370D02*
X017795D01*
Y019468D01*
X018011Y019370D02*
X018110D01*
Y019468D01*
X018326Y019370D02*
X018425D01*
Y019468D01*
X018641Y019370D02*
X018740D01*
Y019468D01*
X018956Y019370D02*
X019055D01*
Y019468D01*
X019271Y019370D02*
X019370D01*
Y019468D01*
X019586Y019370D02*
X019685D01*
Y019468D01*
X019901Y019370D02*
X020000D01*
Y019468D01*
X020216Y019370D02*
X020315D01*
Y019468D01*
X020531Y019370D02*
X020630D01*
Y019468D01*
X020846Y019370D02*
X020945D01*
Y019468D01*
X021161Y019370D02*
X021260D01*
Y019468D01*
X021476Y019370D02*
X021574Y019370D01*
Y019468D01*
X014862Y019055D02*
X014960D01*
Y019153D01*
X015177Y019055D02*
X015275D01*
Y019153D01*
X015492Y019055D02*
X015590D01*
Y019153D01*
X015807Y019055D02*
X015905D01*
Y019153D01*
X016122Y019055D02*
X016220D01*
Y019153D01*
X016437Y019055D02*
X016535D01*
Y019153D01*
X016752Y019055D02*
X016850D01*
Y019153D01*
X017067Y019055D02*
X017165D01*
Y019153D01*
X017382Y019055D02*
X017480D01*
Y019153D01*
X017697Y019055D02*
X017795D01*
Y019153D01*
X018011Y019055D02*
X018110D01*
Y019153D01*
X018326Y019055D02*
X018425D01*
Y019153D01*
X018641Y019055D02*
X018740D01*
Y019153D01*
X018956Y019055D02*
X019055D01*
Y019153D01*
X019271Y019055D02*
X019370D01*
Y019153D01*
X019586Y019055D02*
X019685D01*
Y019153D01*
X019901Y019055D02*
X020000D01*
Y019153D01*
X020216Y019055D02*
X020315D01*
X020315Y019153D01*
X020531Y019055D02*
X020630D01*
Y019153D01*
X020846Y019055D02*
X020945D01*
Y019153D01*
X021161Y019055D02*
X021260D01*
Y019153D01*
X021476Y019055D02*
X021574Y019055D01*
Y019153D01*
X014862Y018740D02*
X014960D01*
Y018838D01*
X015177Y018740D02*
X015275D01*
Y018838D01*
X015492Y018740D02*
X015590D01*
Y018838D01*
X015807Y018740D02*
X015905D01*
Y018838D01*
X016122Y018740D02*
X016220D01*
Y018838D01*
X016437Y018740D02*
X016535D01*
Y018838D01*
X016752Y018740D02*
X016850D01*
Y018838D01*
X017067Y018740D02*
X017165D01*
Y018838D01*
X017382Y018740D02*
X017480D01*
Y018838D01*
X017697Y018740D02*
X017795D01*
Y018838D01*
X018011Y018740D02*
X018110D01*
Y018838D01*
X018326Y018740D02*
X018425D01*
Y018838D01*
X018641Y018740D02*
X018740D01*
Y018838D01*
X018956Y018740D02*
X019055D01*
Y018838D01*
X019271Y018740D02*
X019370D01*
Y018838D01*
X019586Y018740D02*
X019685D01*
Y018838D01*
X019901Y018740D02*
X020000D01*
Y018838D01*
X020216Y018740D02*
X020315D01*
Y018838D01*
X020531Y018740D02*
X020630D01*
Y018838D01*
X020846Y018740D02*
X020945D01*
Y018838D01*
X021161Y018740D02*
X021260D01*
Y018838D01*
X021476Y018740D02*
X021574D01*
Y018838D01*
X014862Y018425D02*
X014960D01*
Y018523D01*
X015177Y018425D02*
X015275D01*
Y018523D01*
X015492Y018425D02*
X015590Y018425D01*
Y018523D01*
X015807Y018425D02*
X015905D01*
Y018523D01*
X016122Y018425D02*
X016220D01*
Y018523D01*
X016437Y018425D02*
X016535D01*
Y018523D01*
X016752Y018425D02*
X016850D01*
Y018523D01*
X017067Y018425D02*
X017165D01*
Y018523D01*
X017382Y018425D02*
X017480D01*
Y018523D01*
X017697Y018425D02*
X017795D01*
Y018523D01*
X018011Y018425D02*
X018110D01*
Y018523D01*
X018326Y018425D02*
X018425D01*
Y018523D01*
X018641Y018425D02*
X018740D01*
Y018523D01*
X018956Y018425D02*
X019055D01*
Y018523D01*
X019271Y018425D02*
X019370D01*
Y018523D01*
X019586Y018425D02*
X019685D01*
Y018523D01*
X019901Y018425D02*
X020000D01*
Y018523D01*
X020216Y018425D02*
X020315D01*
Y018523D01*
X020531Y018425D02*
X020630D01*
Y018523D01*
X020846Y018425D02*
X020945D01*
Y018523D01*
X021161Y018425D02*
X021260D01*
Y018523D01*
X021476Y018425D02*
X021574Y018425D01*
Y018523D01*
X014862Y018110D02*
X014960D01*
Y018208D01*
X015177Y018110D02*
X015275D01*
Y018208D01*
X015492Y018110D02*
X015590D01*
Y018208D01*
X015807Y018110D02*
X015905D01*
Y018208D01*
X016122Y018110D02*
X016220D01*
X016220Y018208D02*
X016220Y018110D01*
X016437Y018110D02*
X016535D01*
Y018208D01*
X016752Y018110D02*
X016850D01*
Y018208D01*
X017067Y018110D02*
X017165D01*
Y018208D01*
X017382Y018110D02*
X017480D01*
Y018208D01*
X017697Y018110D02*
X017795D01*
Y018208D01*
X018011Y018110D02*
X018110D01*
Y018208D01*
X018326Y018110D02*
X018425D01*
Y018208D01*
X018641Y018110D02*
X018740D01*
Y018208D01*
X018956Y018110D02*
X019055D01*
Y018208D01*
X019271Y018110D02*
X019370D01*
X019370Y018208D01*
X019586Y018110D02*
X019685D01*
Y018208D01*
X019901Y018110D02*
X020000D01*
Y018208D01*
X020216Y018110D02*
X020315D01*
Y018208D01*
X020531Y018110D02*
X020630D01*
Y018208D01*
X020846Y018110D02*
X020945D01*
Y018208D01*
X021161Y018110D02*
X021260D01*
Y018208D01*
X021476Y018110D02*
X021574D01*
X021574Y018208D01*
X014862Y017795D02*
X014960D01*
Y017894D01*
X015177Y017795D02*
X015275D01*
Y017894D01*
X015492Y017795D02*
X015590Y017795D01*
Y017894D01*
X015807Y017795D02*
X015905D01*
Y017894D01*
X016122Y017795D02*
X016220D01*
Y017894D01*
X016437Y017795D02*
X016535Y017795D01*
X016535Y017894D02*
X016535Y017795D01*
X016752Y017795D02*
X016850D01*
Y017894D01*
X017067Y017795D02*
X017165D01*
Y017894D01*
X017382Y017795D02*
X017480D01*
Y017894D01*
X017697Y017795D02*
X017795D01*
Y017894D01*
X018011Y017795D02*
X018110D01*
Y017894D01*
X018326Y017795D02*
X018425D01*
Y017894D01*
X018641Y017795D02*
X018740D01*
Y017894D01*
X018956Y017795D02*
X019055Y017795D01*
Y017894D01*
X019271Y017795D02*
X019370D01*
Y017894D01*
X019586Y017795D02*
X019685D01*
Y017894D01*
X019901Y017795D02*
X020000D01*
Y017894D01*
X020216Y017795D02*
X020315D01*
Y017894D01*
X020531Y017795D02*
X020630D01*
Y017894D01*
X020846Y017795D02*
X020945D01*
Y017894D01*
X021161Y017795D02*
X021260D01*
Y017894D01*
X021476Y017795D02*
X021574D01*
Y017894D01*
X014862Y017480D02*
X014960D01*
Y017579D01*
X015177Y017480D02*
X015275D01*
Y017579D01*
X015492Y017480D02*
X015590D01*
Y017579D01*
X015807Y017480D02*
X015905D01*
Y017579D01*
X016122Y017480D02*
X016220D01*
Y017579D01*
X016437Y017480D02*
X016535Y017480D01*
Y017579D01*
X016752Y017480D02*
X016850D01*
Y017579D01*
X017067Y017480D02*
X017165D01*
Y017579D01*
X017382Y017480D02*
X017480D01*
Y017579D01*
X017697Y017480D02*
X017795D01*
Y017579D01*
X018011Y017480D02*
X018110D01*
Y017579D01*
X018326Y017480D02*
X018425D01*
Y017579D01*
X018641Y017480D02*
X018740D01*
Y017579D01*
X018956Y017480D02*
X019055D01*
Y017579D01*
X019271Y017480D02*
X019370D01*
Y017579D01*
X019586Y017480D02*
X019685D01*
Y017579D01*
X019901Y017480D02*
X020000D01*
Y017579D01*
X020216Y017480D02*
X020315D01*
Y017579D01*
X020531Y017480D02*
X020630D01*
Y017579D01*
X020846Y017480D02*
X020945D01*
Y017579D01*
X021161Y017480D02*
X021260D01*
Y017579D01*
X021476Y017480D02*
X021574Y017480D01*
Y017579D01*
X014862Y017165D02*
X014960D01*
Y017264D01*
X015177Y017165D02*
X015275D01*
Y017264D01*
X015492Y017165D02*
X015590Y017165D01*
Y017264D01*
X015807Y017165D02*
X015905D01*
Y017264D01*
X016122Y017165D02*
X016220D01*
Y017264D01*
X016437Y017165D02*
X016535Y017165D01*
Y017264D01*
X016752Y017165D02*
X016850D01*
Y017264D01*
X017067Y017165D02*
X017165D01*
Y017264D01*
X017382Y017165D02*
X017480D01*
Y017264D01*
X017697Y017165D02*
X017795D01*
Y017264D01*
X018011Y017165D02*
X018110D01*
Y017264D01*
X018326Y017165D02*
X018425D01*
Y017264D01*
X018641Y017165D02*
X018740D01*
Y017264D01*
X018956Y017165D02*
X019055D01*
Y017264D01*
X019271Y017165D02*
X019370D01*
Y017264D01*
X019586Y017165D02*
X019685D01*
Y017264D01*
X019901Y017165D02*
X020000D01*
Y017264D01*
X020216Y017165D02*
X020315D01*
Y017264D01*
X020531Y017165D02*
X020630D01*
Y017264D01*
X020846Y017165D02*
X020945D01*
Y017264D01*
X021161Y017165D02*
X021260D01*
Y017264D01*
X021476Y017165D02*
X021574D01*
Y017264D01*
X014862Y016850D02*
X014960D01*
Y016949D01*
X015177Y016850D02*
X015275D01*
Y016949D01*
X015492Y016850D02*
X015590Y016850D01*
Y016949D01*
X015807Y016850D02*
X015905D01*
Y016949D01*
X016122Y016850D02*
X016220D01*
Y016949D01*
X016437Y016850D02*
X016535Y016850D01*
Y016949D01*
X016752Y016850D02*
X016850D01*
Y016949D01*
X017067Y016850D02*
X017165D01*
Y016949D01*
X017382Y016850D02*
X017480D01*
Y016949D01*
X017697Y016850D02*
X017795D01*
Y016949D01*
X018011Y016850D02*
X018110Y016850D01*
Y016949D01*
X018326Y016850D02*
X018425D01*
Y016949D01*
X018641Y016850D02*
X018740D01*
Y016949D01*
X018956Y016850D02*
X019055D01*
Y016949D01*
X019271Y016850D02*
X019370D01*
Y016949D01*
X019586Y016850D02*
X019685D01*
Y016949D01*
X019901Y016850D02*
X020000D01*
Y016949D01*
X020216Y016850D02*
X020315D01*
Y016949D01*
X020531Y016850D02*
X020630D01*
Y016949D01*
X020846Y016850D02*
X020945D01*
Y016949D01*
X021161Y016850D02*
X021260D01*
Y016949D01*
X021476Y016850D02*
X021574D01*
Y016949D01*
X014862Y016535D02*
X014960D01*
Y016634D01*
X015177Y016535D02*
X015275D01*
Y016634D01*
X015492Y016535D02*
X015590D01*
Y016634D01*
X015807Y016535D02*
X015905D01*
Y016634D01*
X016122Y016535D02*
X016220D01*
Y016634D01*
X016437Y016535D02*
X016535D01*
Y016634D01*
X016752Y016535D02*
X016850D01*
Y016634D01*
X017067Y016535D02*
X017165D01*
Y016634D01*
X017382Y016535D02*
X017480D01*
Y016634D01*
X017697Y016535D02*
X017795D01*
Y016634D01*
X018011Y016535D02*
X018110D01*
Y016634D01*
X018326Y016535D02*
X018425D01*
Y016634D01*
X018641Y016535D02*
X018740D01*
Y016634D01*
X018956Y016535D02*
X019055D01*
Y016634D01*
X019271Y016535D02*
X019370D01*
Y016634D01*
X019586Y016535D02*
X019685D01*
Y016634D01*
X019901Y016535D02*
X020000D01*
Y016634D01*
X020216Y016535D02*
X020315D01*
Y016634D01*
X020531Y016535D02*
X020630D01*
Y016634D01*
X020846Y016535D02*
X020945D01*
Y016634D01*
X021161Y016535D02*
X021260D01*
Y016634D01*
X021476Y016535D02*
X021574D01*
Y016634D01*
X014862Y016220D02*
X014960D01*
Y016319D01*
X015177Y016220D02*
X015275D01*
Y016319D01*
X015492Y016220D02*
X015590D01*
Y016319D01*
X015807Y016220D02*
X015905D01*
Y016319D01*
X016122Y016220D02*
X016220D01*
Y016319D01*
X016437Y016220D02*
X016535D01*
Y016319D01*
X016752Y016220D02*
X016850D01*
Y016319D01*
X017067Y016220D02*
X017165D01*
Y016319D01*
X017382Y016220D02*
X017480D01*
Y016319D01*
X017697Y016220D02*
X017795D01*
Y016319D01*
X018011Y016220D02*
X018110D01*
Y016319D01*
X018326Y016220D02*
X018425D01*
Y016319D01*
X018641Y016220D02*
X018740D01*
Y016319D01*
X018956Y016220D02*
X019055D01*
Y016319D01*
X019271Y016220D02*
X019370D01*
Y016319D01*
X019586Y016220D02*
X019685D01*
Y016319D01*
X019901Y016220D02*
X020000D01*
Y016319D01*
X020216Y016220D02*
X020315D01*
Y016319D01*
X020531Y016220D02*
X020630D01*
Y016319D01*
X020846Y016220D02*
X020945D01*
Y016319D01*
X021161Y016220D02*
X021260D01*
Y016319D01*
X021476Y016220D02*
X021574D01*
Y016319D01*
X014862Y015905D02*
X014960D01*
Y016004D01*
X015177Y015905D02*
X015275D01*
Y016004D01*
X015492Y015905D02*
X015590Y015905D01*
Y016004D01*
X015807Y015905D02*
X015905D01*
Y016004D01*
X016122Y015905D02*
X016220D01*
Y016004D01*
X016437Y015905D02*
X016535Y015905D01*
Y016004D01*
X016752Y015905D02*
X016850D01*
Y016004D01*
X017067Y015905D02*
X017165D01*
Y016004D01*
X017382Y015905D02*
X017480D01*
Y016004D01*
X017697Y015905D02*
X017795D01*
Y016004D01*
X018011Y015905D02*
X018110D01*
Y016004D01*
X018326Y015905D02*
X018425D01*
Y016004D01*
X018641Y015905D02*
X018740D01*
Y016004D01*
X018956Y015905D02*
X019055D01*
Y016004D01*
X019271Y015905D02*
X019370D01*
Y016004D01*
X019586Y015905D02*
X019685D01*
Y016004D01*
X019901Y015905D02*
X020000D01*
Y016004D01*
X020216Y015905D02*
X020315D01*
Y016004D01*
X020531Y015905D02*
X020630D01*
Y016004D01*
X020846Y015905D02*
X020945D01*
Y016004D01*
X021161Y015905D02*
X021260D01*
Y016004D01*
X021476Y015905D02*
X021574D01*
Y016004D01*
X014862Y015590D02*
X014960D01*
X014960Y015689D02*
X014960Y015590D01*
X015177D02*
X015275D01*
X015275Y015689D02*
X015275Y015590D01*
X015492Y015590D02*
X015590Y015590D01*
Y015689D01*
X015807Y015590D02*
X015905D01*
X015905Y015689D01*
X016122Y015590D02*
X016220D01*
Y015689D01*
X016437Y015590D02*
X016535Y015590D01*
X016535Y015689D02*
X016535Y015590D01*
X016752Y015590D02*
X016850D01*
Y015689D01*
X017067Y015590D02*
X017165D01*
X017165Y015689D02*
X017165Y015590D01*
X017382Y015590D02*
X017480D01*
Y015689D01*
X017697Y015590D02*
X017795D01*
X017795Y015689D01*
X018011Y015590D02*
X018110D01*
X018110Y015689D01*
X018326Y015590D02*
X018425D01*
Y015689D01*
X018641Y015590D02*
X018740D01*
Y015689D01*
X018956Y015590D02*
X019055Y015590D01*
Y015689D01*
X019271Y015590D02*
X019370D01*
Y015689D01*
X019586Y015590D02*
X019685D01*
Y015689D01*
X019901Y015590D02*
X020000D01*
Y015689D01*
X020216Y015590D02*
X020315D01*
Y015689D01*
X020531Y015590D02*
X020630D01*
Y015689D01*
X020846Y015590D02*
X020945D01*
Y015689D01*
X021161Y015590D02*
X021260D01*
Y015689D01*
X021476Y015590D02*
X021574D01*
Y015689D01*
X018071Y018897D02*
X018267D01*
Y019094D01*
Y018701D02*
Y018897D01*
X018464D01*
X040148Y024713D02*
X040344D01*
X040541Y024713D01*
X040344Y024713D02*
Y024910D01*
Y024516D02*
Y024713D01*
X038967Y024398D02*
X039537Y024122D01*
X038967Y025028D02*
X039537Y025304D01*
X041152D02*
X041722Y025028D01*
X041152Y024122D02*
X041722Y024398D01*
X041152Y025304D02*
X041152Y024122D01*
X039537D02*
Y025304D01*
X041722Y024398D02*
X041722Y025028D01*
X038967D02*
X038967Y024398D01*
X030276Y022912D02*
X030669D01*
X030472Y022715D02*
Y023109D01*
X030276Y013620D02*
X030669D01*
X030472Y013424D02*
Y013817D01*
X029882Y018266D02*
X030079D01*
X030276D01*
X030079Y018069D02*
Y018266D01*
Y018463D01*
X029144Y014368D02*
Y014487D01*
X029734D01*
Y014368D02*
Y014487D01*
X029144Y014368D02*
X029734D01*
X029144Y014487D02*
X029439Y014428D01*
X029144Y014368D02*
X029439Y014428D01*
X031014Y014368D02*
Y014487D01*
X030423D02*
X031014D01*
X030423Y014368D02*
Y014487D01*
Y014368D02*
X031014D01*
X030719Y014428D02*
X031014Y014487D01*
X030719Y014428D02*
X031014Y014368D01*
X029144Y014565D02*
Y014683D01*
X029734D01*
Y014565D02*
Y014683D01*
X029144Y014565D02*
X029734D01*
X029144Y014683D02*
X029439Y014624D01*
X029144Y014565D02*
X029439Y014624D01*
X031014Y014565D02*
Y014683D01*
X030423D02*
X031014D01*
X030423Y014565D02*
Y014683D01*
Y014565D02*
X031014D01*
X030719Y014624D02*
X031014Y014683D01*
X030719Y014624D02*
X031014Y014565D01*
X029144Y014762D02*
Y014880D01*
X029734D01*
Y014762D02*
Y014880D01*
X029144Y014762D02*
X029734D01*
X029144Y014880D02*
X029439Y014821D01*
X029144Y014762D02*
X029439Y014821D01*
X031014Y014762D02*
Y014880D01*
X030423D02*
X031014D01*
X030423Y014762D02*
Y014880D01*
Y014762D02*
X031014D01*
X030719Y014821D02*
X031014Y014880D01*
X030719Y014821D02*
X031014Y014762D01*
X029144Y014959D02*
Y015077D01*
X029734D01*
Y014959D02*
Y015077D01*
X029144Y014959D02*
X029734D01*
X029144Y015077D02*
X029439Y015018D01*
X029144Y014959D02*
X029439Y015018D01*
X031014Y014959D02*
Y015077D01*
X030423D02*
X031014D01*
X030423Y014959D02*
Y015077D01*
Y014959D02*
X031014D01*
X030719Y015018D02*
X031014Y015077D01*
X030719Y015018D02*
X031014Y014959D01*
X029144Y015156D02*
Y015274D01*
X029734D01*
Y015156D02*
Y015274D01*
X029144Y015156D02*
X029734D01*
X029144Y015274D02*
X029439Y015215D01*
X029144Y015156D02*
X029439Y015215D01*
X031014Y015156D02*
Y015274D01*
X030423D02*
X031014D01*
X030423Y015156D02*
Y015274D01*
Y015156D02*
X031014D01*
X030719Y015215D02*
X031014Y015274D01*
X030719Y015215D02*
X031014Y015156D01*
X029144Y015353D02*
Y015471D01*
X029734D01*
Y015353D02*
Y015471D01*
X029144Y015353D02*
X029734D01*
X029144Y015471D02*
X029439Y015412D01*
X029144Y015353D02*
X029439Y015412D01*
X031014Y015353D02*
Y015471D01*
X030423D02*
X031014D01*
X030423Y015353D02*
Y015471D01*
Y015353D02*
X031014D01*
X030719Y015412D02*
X031014Y015471D01*
X030719Y015412D02*
X031014Y015353D01*
X029144Y015550D02*
Y015668D01*
X029734D01*
Y015550D02*
Y015668D01*
X029144Y015550D02*
X029734D01*
X029144Y015668D02*
X029439Y015609D01*
X029144Y015550D02*
X029439Y015609D01*
X031014Y015550D02*
Y015668D01*
X030423D02*
X031014D01*
X030423Y015550D02*
Y015668D01*
Y015550D02*
X031014D01*
X030719Y015609D02*
X031014Y015668D01*
X030719Y015609D02*
X031014Y015550D01*
X029144Y015746D02*
Y015865D01*
X029734D01*
Y015746D02*
Y015865D01*
X029144Y015746D02*
X029734D01*
X029144Y015865D02*
X029439Y015806D01*
X029144Y015746D02*
X029439Y015806D01*
X031014Y015746D02*
Y015865D01*
X030423D02*
X031014D01*
X030423Y015746D02*
Y015865D01*
Y015746D02*
X031014D01*
X030719Y015806D02*
X031014Y015865D01*
X030719Y015806D02*
X031014Y015746D01*
X029144Y015943D02*
Y016061D01*
X029734D01*
Y015943D02*
Y016061D01*
X029144Y015943D02*
X029734D01*
X029144Y016061D02*
X029439Y016002D01*
X029144Y015943D02*
X029439Y016002D01*
X031014Y015943D02*
Y016061D01*
X030423D02*
X031014D01*
X030423Y015943D02*
Y016061D01*
Y015943D02*
X031014D01*
X030719Y016002D02*
X031014Y016061D01*
X030719Y016002D02*
X031014Y015943D01*
X029144Y016140D02*
Y016258D01*
X029734D01*
Y016140D02*
Y016258D01*
X029144Y016140D02*
X029734D01*
X029144Y016258D02*
X029439Y016199D01*
X029144Y016140D02*
X029439Y016199D01*
X031014Y016140D02*
Y016258D01*
X030423D02*
X031014D01*
X030423Y016140D02*
Y016258D01*
Y016140D02*
X031014D01*
X030719Y016199D02*
X031014Y016258D01*
X030719Y016199D02*
X031014Y016140D01*
X029144Y016337D02*
Y016455D01*
X029734D01*
Y016337D02*
Y016455D01*
X029144Y016337D02*
X029734D01*
X029144Y016455D02*
X029439Y016396D01*
X029144Y016337D02*
X029439Y016396D01*
X031014Y016337D02*
Y016455D01*
X030423D02*
X031014D01*
X030423Y016337D02*
Y016455D01*
Y016337D02*
X031014D01*
X030719Y016396D02*
X031014Y016455D01*
X030719Y016396D02*
X031014Y016337D01*
X029144Y016534D02*
Y016652D01*
X029734D01*
Y016534D02*
Y016652D01*
X029144Y016534D02*
X029734D01*
X029144Y016652D02*
X029439Y016593D01*
X029144Y016534D02*
X029439Y016593D01*
X031014Y016534D02*
Y016652D01*
X030423D02*
X031014D01*
X030423Y016534D02*
Y016652D01*
Y016534D02*
X031014D01*
X030719Y016593D02*
X031014Y016652D01*
X030719Y016593D02*
X031014Y016534D01*
X029144Y016731D02*
Y016849D01*
X029734D01*
Y016731D02*
Y016849D01*
X029144Y016731D02*
X029734D01*
X029144Y016849D02*
X029439Y016790D01*
X029144Y016731D02*
X029439Y016790D01*
X031014Y016731D02*
Y016849D01*
X030423D02*
X031014D01*
X030423Y016731D02*
Y016849D01*
Y016731D02*
X031014D01*
X030719Y016790D02*
X031014Y016849D01*
X030719Y016790D02*
X031014Y016731D01*
X029144Y016928D02*
Y017046D01*
X029734D01*
Y016928D02*
Y017046D01*
X029144Y016928D02*
X029734D01*
X029144Y017046D02*
X029439Y016987D01*
X029144Y016928D02*
X029439Y016987D01*
X031014Y016928D02*
Y017046D01*
X030423D02*
X031014D01*
X030423Y016928D02*
Y017046D01*
Y016928D02*
X031014D01*
X030719Y016987D02*
X031014Y017046D01*
X030719Y016987D02*
X031014Y016928D01*
X029144Y017124D02*
Y017243D01*
X029734D01*
Y017124D02*
Y017243D01*
X029144Y017124D02*
X029734D01*
X029144Y017243D02*
X029439Y017183D01*
X029144Y017124D02*
X029439Y017183D01*
X031014Y017124D02*
Y017243D01*
X030423D02*
X031014D01*
X030423Y017124D02*
Y017243D01*
Y017124D02*
X031014D01*
X030719Y017183D02*
X031014Y017243D01*
X030719Y017183D02*
X031014Y017124D01*
X029144Y017321D02*
Y017439D01*
X029734D01*
Y017321D02*
Y017439D01*
X029144Y017321D02*
X029734D01*
X029144Y017439D02*
X029439Y017380D01*
X029144Y017321D02*
X029439Y017380D01*
X031014Y017321D02*
Y017439D01*
X030423D02*
X031014D01*
X030423Y017321D02*
Y017439D01*
Y017321D02*
X031014D01*
X030719Y017380D02*
X031014Y017439D01*
X030719Y017380D02*
X031014Y017321D01*
X029144Y017518D02*
Y017636D01*
X029734D01*
Y017518D02*
Y017636D01*
X029144Y017518D02*
X029734D01*
X029144Y017636D02*
X029439Y017577D01*
X029144Y017518D02*
X029439Y017577D01*
X031014Y017518D02*
Y017636D01*
X030423D02*
X031014D01*
X030423Y017518D02*
Y017636D01*
Y017518D02*
X031014D01*
X030719Y017577D02*
X031014Y017636D01*
X030719Y017577D02*
X031014Y017518D01*
X029144Y017715D02*
Y017833D01*
X029734D01*
Y017715D02*
Y017833D01*
X029144Y017715D02*
X029734D01*
X029144Y017833D02*
X029439Y017774D01*
X029144Y017715D02*
X029439Y017774D01*
X031014Y017715D02*
Y017833D01*
X030423D02*
X031014D01*
X030423Y017715D02*
Y017833D01*
Y017715D02*
X031014D01*
X030719Y017774D02*
X031014Y017833D01*
X030719Y017774D02*
X031014Y017715D01*
X029144Y017912D02*
Y018030D01*
X029734D01*
Y017912D02*
Y018030D01*
X029144Y017912D02*
X029734D01*
X029144Y018030D02*
X029439Y017971D01*
X029144Y017912D02*
X029439Y017971D01*
X031014Y017912D02*
Y018030D01*
X030423D02*
X031014D01*
X030423Y017912D02*
Y018030D01*
Y017912D02*
X031014D01*
X030719Y017971D02*
X031014Y018030D01*
X030719Y017971D02*
X031014Y017912D01*
X029144Y018109D02*
Y018227D01*
X029734D01*
Y018109D02*
Y018227D01*
X029144Y018109D02*
X029734D01*
X029144Y018227D02*
X029439Y018168D01*
X029144Y018109D02*
X029439Y018168D01*
X031014Y018109D02*
Y018227D01*
X030423D02*
X031014D01*
X030423Y018109D02*
Y018227D01*
Y018109D02*
X031014D01*
X030719Y018168D02*
X031014Y018227D01*
X030719Y018168D02*
X031014Y018109D01*
X029144Y018306D02*
Y018424D01*
X029734D01*
Y018306D02*
Y018424D01*
X029144Y018306D02*
X029734D01*
X029144Y018424D02*
X029439Y018365D01*
X029144Y018306D02*
X029439Y018365D01*
X031014Y018306D02*
Y018424D01*
X030423D02*
X031014D01*
X030423Y018306D02*
Y018424D01*
Y018306D02*
X031014D01*
X030719Y018365D02*
X031014Y018424D01*
X030719Y018365D02*
X031014Y018306D01*
X029144Y018502D02*
Y018620D01*
X029734D01*
Y018502D02*
Y018620D01*
X029144Y018502D02*
X029734D01*
X029144Y018620D02*
X029439Y018561D01*
X029144Y018502D02*
X029439Y018561D01*
X031014Y018502D02*
Y018620D01*
X030423D02*
X031014D01*
X030423Y018502D02*
Y018620D01*
Y018502D02*
X031014D01*
X030719Y018561D02*
X031014Y018620D01*
X030719Y018561D02*
X031014Y018502D01*
X029144Y018699D02*
Y018817D01*
X029734D01*
Y018699D02*
Y018817D01*
X029144Y018699D02*
X029734D01*
X029144Y018817D02*
X029439Y018758D01*
X029144Y018699D02*
X029439Y018758D01*
X031014Y018699D02*
Y018817D01*
X030423D02*
X031014D01*
X030423Y018699D02*
Y018817D01*
Y018699D02*
X031014D01*
X030719Y018758D02*
X031014Y018817D01*
X030719Y018758D02*
X031014Y018699D01*
X029144Y018896D02*
Y019014D01*
X029734D01*
Y018896D02*
Y019014D01*
X029144Y018896D02*
X029734D01*
X029144Y019014D02*
X029439Y018955D01*
X029144Y018896D02*
X029439Y018955D01*
X031014Y018896D02*
Y019014D01*
X030423D02*
X031014D01*
X030423Y018896D02*
Y019014D01*
Y018896D02*
X031014D01*
X030719Y018955D02*
X031014Y019014D01*
X030719Y018955D02*
X031014Y018896D01*
X029144Y019093D02*
Y019211D01*
X029734D01*
Y019093D02*
Y019211D01*
X029144Y019093D02*
X029734D01*
X029144Y019211D02*
X029439Y019152D01*
X029144Y019093D02*
X029439Y019152D01*
X031014Y019093D02*
Y019211D01*
X030423D02*
X031014D01*
X030423Y019093D02*
Y019211D01*
Y019093D02*
X031014D01*
X030719Y019152D02*
X031014Y019211D01*
X030719Y019152D02*
X031014Y019093D01*
X029144Y019290D02*
Y019408D01*
X029734D01*
Y019290D02*
Y019408D01*
X029144Y019290D02*
X029734D01*
X029144Y019408D02*
X029439Y019349D01*
X029144Y019290D02*
X029439Y019349D01*
X031014Y019290D02*
Y019408D01*
X030423D02*
X031014D01*
X030423Y019290D02*
Y019408D01*
Y019290D02*
X031014D01*
X030719Y019349D02*
X031014Y019408D01*
X030719Y019349D02*
X031014Y019290D01*
X029144Y019487D02*
Y019605D01*
X029734D01*
Y019487D02*
Y019605D01*
X029144Y019487D02*
X029734D01*
X029144Y019605D02*
X029439Y019546D01*
X029144Y019487D02*
X029439Y019546D01*
X031014Y019487D02*
Y019605D01*
X030423D02*
X031014D01*
X030423Y019487D02*
Y019605D01*
Y019487D02*
X031014D01*
X030719Y019546D02*
X031014Y019605D01*
X030719Y019546D02*
X031014Y019487D01*
X029144Y019683D02*
Y019802D01*
X029734D01*
Y019683D02*
Y019802D01*
X029144Y019683D02*
X029734D01*
X029144Y019802D02*
X029439Y019743D01*
X029144Y019683D02*
X029439Y019743D01*
X031014Y019683D02*
Y019802D01*
X030423D02*
X031014D01*
X030423Y019683D02*
Y019802D01*
Y019683D02*
X031014D01*
X030719Y019743D02*
X031014Y019802D01*
X030719Y019743D02*
X031014Y019683D01*
X029144Y019880D02*
Y019998D01*
X029734D01*
Y019880D02*
Y019998D01*
X029144Y019880D02*
X029734D01*
X029144Y019998D02*
X029439Y019939D01*
X029144Y019880D02*
X029439Y019939D01*
X031014Y019880D02*
Y019998D01*
X030423D02*
X031014D01*
X030423Y019880D02*
Y019998D01*
Y019880D02*
X031014D01*
X030719Y019939D02*
X031014Y019998D01*
X030719Y019939D02*
X031014Y019880D01*
X029144Y020077D02*
Y020195D01*
X029734D01*
Y020077D02*
Y020195D01*
X029144Y020077D02*
X029734D01*
X029144Y020195D02*
X029439Y020136D01*
X029144Y020077D02*
X029439Y020136D01*
X031014Y020077D02*
Y020195D01*
X030423D02*
X031014D01*
X030423Y020077D02*
Y020195D01*
Y020077D02*
X031014D01*
X030719Y020136D02*
X031014Y020195D01*
X030719Y020136D02*
X031014Y020077D01*
X029144Y020274D02*
Y020392D01*
X029734D01*
Y020274D02*
Y020392D01*
X029144Y020274D02*
X029734D01*
X029144Y020392D02*
X029439Y020333D01*
X029144Y020274D02*
X029439Y020333D01*
X031014Y020274D02*
Y020392D01*
X030423D02*
X031014D01*
X030423Y020274D02*
Y020392D01*
Y020274D02*
X031014D01*
X030719Y020333D02*
X031014Y020392D01*
X030719Y020333D02*
X031014Y020274D01*
X029144Y020471D02*
Y020589D01*
X029734D01*
Y020471D02*
Y020589D01*
X029144Y020471D02*
X029734D01*
X029144Y020589D02*
X029439Y020530D01*
X029144Y020471D02*
X029439Y020530D01*
X031014Y020471D02*
Y020589D01*
X030423D02*
X031014D01*
X030423Y020471D02*
Y020589D01*
Y020471D02*
X031014D01*
X030719Y020530D02*
X031014Y020589D01*
X030719Y020530D02*
X031014Y020471D01*
X029144Y020668D02*
Y020786D01*
X029734D01*
Y020668D02*
Y020786D01*
X029144Y020668D02*
X029734D01*
X029144Y020786D02*
X029439Y020727D01*
X029144Y020668D02*
X029439Y020727D01*
X031014Y020668D02*
Y020786D01*
X030423D02*
X031014D01*
X030423Y020668D02*
Y020786D01*
Y020668D02*
X031014D01*
X030719Y020727D02*
X031014Y020786D01*
X030719Y020727D02*
X031014Y020668D01*
X029144Y020865D02*
Y020983D01*
X029734D01*
Y020865D02*
Y020983D01*
X029144Y020865D02*
X029734D01*
X029144Y020983D02*
X029439Y020924D01*
X029144Y020865D02*
X029439Y020924D01*
X031014Y020865D02*
Y020983D01*
X030423D02*
X031014D01*
X030423Y020865D02*
Y020983D01*
Y020865D02*
X031014D01*
X030719Y020924D02*
X031014Y020983D01*
X030719Y020924D02*
X031014Y020865D01*
X029144Y021061D02*
Y021180D01*
X029734D01*
Y021061D02*
Y021180D01*
X029144Y021061D02*
X029734D01*
X029144Y021180D02*
X029439Y021120D01*
X029144Y021061D02*
X029439Y021120D01*
X031014Y021061D02*
Y021180D01*
X030423D02*
X031014D01*
X030423Y021061D02*
Y021180D01*
Y021061D02*
X031014D01*
X030719Y021120D02*
X031014Y021180D01*
X030719Y021120D02*
X031014Y021061D01*
X029144Y021258D02*
Y021376D01*
X029734D01*
Y021258D02*
Y021376D01*
X029144Y021258D02*
X029734D01*
X029144Y021376D02*
X029439Y021317D01*
X029144Y021258D02*
X029439Y021317D01*
X031014Y021258D02*
Y021376D01*
X030423D02*
X031014D01*
X030423Y021258D02*
Y021376D01*
Y021258D02*
X031014D01*
X030719Y021317D02*
X031014Y021376D01*
X030719Y021317D02*
X031014Y021258D01*
X029144Y021455D02*
Y021573D01*
X029734D01*
Y021455D02*
Y021573D01*
X029144Y021455D02*
X029734D01*
X029144Y021573D02*
X029439Y021514D01*
X029144Y021455D02*
X029439Y021514D01*
X031014Y021455D02*
Y021573D01*
X030423D02*
X031014D01*
X030423Y021455D02*
Y021573D01*
Y021455D02*
X031014D01*
X030719Y021514D02*
X031014Y021573D01*
X030719Y021514D02*
X031014Y021455D01*
X029144Y021652D02*
Y021770D01*
X029734D01*
Y021652D02*
Y021770D01*
X029144Y021652D02*
X029734D01*
X029144Y021770D02*
X029439Y021711D01*
X029144Y021652D02*
X029439Y021711D01*
X031014Y021652D02*
Y021770D01*
X030423D02*
X031014D01*
X030423Y021652D02*
Y021770D01*
Y021652D02*
X031014D01*
X030719Y021711D02*
X031014Y021770D01*
X030719Y021711D02*
X031014Y021652D01*
X029144Y021849D02*
Y021967D01*
X029734D01*
Y021849D02*
Y021967D01*
X029144Y021849D02*
X029734D01*
X029144Y021967D02*
X029439Y021908D01*
X029144Y021849D02*
X029439Y021908D01*
X031014Y021849D02*
Y021967D01*
X030423D02*
X031014D01*
X030423Y021849D02*
Y021967D01*
Y021849D02*
X031014D01*
X030719Y021908D02*
X031014Y021967D01*
X030719Y021908D02*
X031014Y021849D01*
X029144Y022046D02*
Y022164D01*
X029734D01*
Y022046D02*
Y022164D01*
X029144Y022046D02*
X029734D01*
X029144Y022164D02*
X029439Y022105D01*
X029144Y022046D02*
X029439Y022105D01*
X031014Y022046D02*
Y022164D01*
X030423D02*
X031014D01*
X030423Y022046D02*
Y022164D01*
Y022046D02*
X031014D01*
X030719Y022105D02*
X031014Y022164D01*
X030719Y022105D02*
X031014Y022046D01*
X041299Y022912D02*
X041693D01*
X041496Y022715D02*
Y023109D01*
X041299Y013620D02*
X041693D01*
X041496Y013424D02*
Y013817D01*
X040906Y018266D02*
X041102D01*
X041299D01*
X041102Y018069D02*
Y018266D01*
Y018463D01*
X040167Y014368D02*
Y014487D01*
X040758D01*
Y014368D02*
Y014487D01*
X040167Y014368D02*
X040758D01*
X040167Y014487D02*
X040463Y014428D01*
X040167Y014368D02*
X040463Y014428D01*
X042037Y014368D02*
Y014487D01*
X041447D02*
X042037D01*
X041447Y014368D02*
Y014487D01*
Y014368D02*
X042037D01*
X041742Y014428D02*
X042037Y014487D01*
X041742Y014428D02*
X042037Y014368D01*
X040167Y014565D02*
Y014683D01*
X040758D01*
Y014565D02*
Y014683D01*
X040167Y014565D02*
X040758D01*
X040167Y014683D02*
X040463Y014624D01*
X040167Y014565D02*
X040463Y014624D01*
X042037Y014565D02*
Y014683D01*
X041447D02*
X042037D01*
X041447Y014565D02*
Y014683D01*
Y014565D02*
X042037D01*
X041742Y014624D02*
X042037Y014683D01*
X041742Y014624D02*
X042037Y014565D01*
X040167Y014762D02*
Y014880D01*
X040758D01*
Y014762D02*
Y014880D01*
X040167Y014762D02*
X040758D01*
X040167Y014880D02*
X040463Y014821D01*
X040167Y014762D02*
X040463Y014821D01*
X042037Y014762D02*
Y014880D01*
X041447D02*
X042037D01*
X041447Y014762D02*
Y014880D01*
Y014762D02*
X042037D01*
X041742Y014821D02*
X042037Y014880D01*
X041742Y014821D02*
X042037Y014762D01*
X040167Y014959D02*
Y015077D01*
X040758D01*
Y014959D02*
Y015077D01*
X040167Y014959D02*
X040758D01*
X040167Y015077D02*
X040463Y015018D01*
X040167Y014959D02*
X040463Y015018D01*
X042037Y014959D02*
Y015077D01*
X041447D02*
X042037D01*
X041447Y014959D02*
Y015077D01*
Y014959D02*
X042037D01*
X041742Y015018D02*
X042037Y015077D01*
X041742Y015018D02*
X042037Y014959D01*
X040167Y015156D02*
Y015274D01*
X040758D01*
Y015156D02*
Y015274D01*
X040167Y015156D02*
X040758D01*
X040167Y015274D02*
X040463Y015215D01*
X040167Y015156D02*
X040463Y015215D01*
X042037Y015156D02*
Y015274D01*
X041447D02*
X042037D01*
X041447Y015156D02*
Y015274D01*
Y015156D02*
X042037D01*
X041742Y015215D02*
X042037Y015274D01*
X041742Y015215D02*
X042037Y015156D01*
X040167Y015353D02*
Y015471D01*
X040758D01*
Y015353D02*
Y015471D01*
X040167Y015353D02*
X040758D01*
X040167Y015471D02*
X040463Y015412D01*
X040167Y015353D02*
X040463Y015412D01*
X042037Y015353D02*
Y015471D01*
X041447D02*
X042037D01*
X041447Y015353D02*
Y015471D01*
Y015353D02*
X042037D01*
X041742Y015412D02*
X042037Y015471D01*
X041742Y015412D02*
X042037Y015353D01*
X040167Y015550D02*
Y015668D01*
X040758D01*
Y015550D02*
Y015668D01*
X040167Y015550D02*
X040758D01*
X040167Y015668D02*
X040463Y015609D01*
X040167Y015550D02*
X040463Y015609D01*
X042037Y015550D02*
Y015668D01*
X041447D02*
X042037D01*
X041447Y015550D02*
Y015668D01*
Y015550D02*
X042037D01*
X041742Y015609D02*
X042037Y015668D01*
X041742Y015609D02*
X042037Y015550D01*
X040167Y015746D02*
Y015865D01*
X040758D01*
Y015746D02*
Y015865D01*
X040167Y015746D02*
X040758D01*
X040167Y015865D02*
X040463Y015806D01*
X040167Y015746D02*
X040463Y015806D01*
X042037Y015746D02*
Y015865D01*
X041447D02*
X042037D01*
X041447Y015746D02*
Y015865D01*
Y015746D02*
X042037D01*
X041742Y015806D02*
X042037Y015865D01*
X041742Y015806D02*
X042037Y015746D01*
X040167Y015943D02*
Y016061D01*
X040758D01*
Y015943D02*
Y016061D01*
X040167Y015943D02*
X040758D01*
X040167Y016061D02*
X040463Y016002D01*
X040167Y015943D02*
X040463Y016002D01*
X042037Y015943D02*
Y016061D01*
X041447D02*
X042037D01*
X041447Y015943D02*
Y016061D01*
Y015943D02*
X042037D01*
X041742Y016002D02*
X042037Y016061D01*
X041742Y016002D02*
X042037Y015943D01*
X040167Y016140D02*
Y016258D01*
X040758D01*
Y016140D02*
Y016258D01*
X040167Y016140D02*
X040758D01*
X040167Y016258D02*
X040463Y016199D01*
X040167Y016140D02*
X040463Y016199D01*
X042037Y016140D02*
Y016258D01*
X041447D02*
X042037D01*
X041447Y016140D02*
Y016258D01*
Y016140D02*
X042037D01*
X041742Y016199D02*
X042037Y016258D01*
X041742Y016199D02*
X042037Y016140D01*
X040167Y016337D02*
Y016455D01*
X040758D01*
Y016337D02*
Y016455D01*
X040167Y016337D02*
X040758D01*
X040167Y016455D02*
X040463Y016396D01*
X040167Y016337D02*
X040463Y016396D01*
X042037Y016337D02*
Y016455D01*
X041447D02*
X042037D01*
X041447Y016337D02*
Y016455D01*
Y016337D02*
X042037D01*
X041742Y016396D02*
X042037Y016455D01*
X041742Y016396D02*
X042037Y016337D01*
X040167Y016534D02*
Y016652D01*
X040758D01*
Y016534D02*
Y016652D01*
X040167Y016534D02*
X040758D01*
X040167Y016652D02*
X040463Y016593D01*
X040167Y016534D02*
X040463Y016593D01*
X042037Y016534D02*
Y016652D01*
X041447D02*
X042037D01*
X041447Y016534D02*
Y016652D01*
Y016534D02*
X042037D01*
X041742Y016593D02*
X042037Y016652D01*
X041742Y016593D02*
X042037Y016534D01*
X040167Y016731D02*
Y016849D01*
X040758D01*
Y016731D02*
Y016849D01*
X040167Y016731D02*
X040758D01*
X040167Y016849D02*
X040463Y016790D01*
X040167Y016731D02*
X040463Y016790D01*
X042037Y016731D02*
Y016849D01*
X041447D02*
X042037D01*
X041447Y016731D02*
Y016849D01*
Y016731D02*
X042037D01*
X041742Y016790D02*
X042037Y016849D01*
X041742Y016790D02*
X042037Y016731D01*
X040167Y016928D02*
Y017046D01*
X040758D01*
Y016928D02*
Y017046D01*
X040167Y016928D02*
X040758D01*
X040167Y017046D02*
X040463Y016987D01*
X040167Y016928D02*
X040463Y016987D01*
X042037Y016928D02*
Y017046D01*
X041447D02*
X042037D01*
X041447Y016928D02*
Y017046D01*
Y016928D02*
X042037D01*
X041742Y016987D02*
X042037Y017046D01*
X041742Y016987D02*
X042037Y016928D01*
X040167Y017124D02*
Y017243D01*
X040758D01*
Y017124D02*
Y017243D01*
X040167Y017124D02*
X040758D01*
X040167Y017243D02*
X040463Y017183D01*
X040167Y017124D02*
X040463Y017183D01*
X042037Y017124D02*
Y017243D01*
X041447D02*
X042037D01*
X041447Y017124D02*
Y017243D01*
Y017124D02*
X042037D01*
X041742Y017183D02*
X042037Y017243D01*
X041742Y017183D02*
X042037Y017124D01*
X040167Y017321D02*
Y017439D01*
X040758D01*
Y017321D02*
Y017439D01*
X040167Y017321D02*
X040758D01*
X040167Y017439D02*
X040463Y017380D01*
X040167Y017321D02*
X040463Y017380D01*
X042037Y017321D02*
Y017439D01*
X041447D02*
X042037D01*
X041447Y017321D02*
Y017439D01*
Y017321D02*
X042037D01*
X041742Y017380D02*
X042037Y017439D01*
X041742Y017380D02*
X042037Y017321D01*
X040167Y017518D02*
Y017636D01*
X040758D01*
Y017518D02*
Y017636D01*
X040167Y017518D02*
X040758D01*
X040167Y017636D02*
X040463Y017577D01*
X040167Y017518D02*
X040463Y017577D01*
X042037Y017518D02*
Y017636D01*
X041447D02*
X042037D01*
X041447Y017518D02*
Y017636D01*
Y017518D02*
X042037D01*
X041742Y017577D02*
X042037Y017636D01*
X041742Y017577D02*
X042037Y017518D01*
X040167Y017715D02*
Y017833D01*
X040758D01*
Y017715D02*
Y017833D01*
X040167Y017715D02*
X040758D01*
X040167Y017833D02*
X040463Y017774D01*
X040167Y017715D02*
X040463Y017774D01*
X042037Y017715D02*
Y017833D01*
X041447D02*
X042037D01*
X041447Y017715D02*
Y017833D01*
Y017715D02*
X042037D01*
X041742Y017774D02*
X042037Y017833D01*
X041742Y017774D02*
X042037Y017715D01*
X040167Y017912D02*
Y018030D01*
X040758D01*
Y017912D02*
Y018030D01*
X040167Y017912D02*
X040758D01*
X040167Y018030D02*
X040463Y017971D01*
X040167Y017912D02*
X040463Y017971D01*
X042037Y017912D02*
Y018030D01*
X041447D02*
X042037D01*
X041447Y017912D02*
Y018030D01*
Y017912D02*
X042037D01*
X041742Y017971D02*
X042037Y018030D01*
X041742Y017971D02*
X042037Y017912D01*
X040167Y018109D02*
Y018227D01*
X040758D01*
Y018109D02*
Y018227D01*
X040167Y018109D02*
X040758D01*
X040167Y018227D02*
X040463Y018168D01*
X040167Y018109D02*
X040463Y018168D01*
X042037Y018109D02*
Y018227D01*
X041447D02*
X042037D01*
X041447Y018109D02*
Y018227D01*
Y018109D02*
X042037D01*
X041742Y018168D02*
X042037Y018227D01*
X041742Y018168D02*
X042037Y018109D01*
X040167Y018306D02*
Y018424D01*
X040758D01*
Y018306D02*
Y018424D01*
X040167Y018306D02*
X040758D01*
X040167Y018424D02*
X040463Y018365D01*
X040167Y018306D02*
X040463Y018365D01*
X042037Y018306D02*
Y018424D01*
X041447D02*
X042037D01*
X041447Y018306D02*
Y018424D01*
Y018306D02*
X042037D01*
X041742Y018365D02*
X042037Y018424D01*
X041742Y018365D02*
X042037Y018306D01*
X040167Y018502D02*
Y018620D01*
X040758D01*
Y018502D02*
Y018620D01*
X040167Y018502D02*
X040758D01*
X040167Y018620D02*
X040463Y018561D01*
X040167Y018502D02*
X040463Y018561D01*
X042037Y018502D02*
Y018620D01*
X041447D02*
X042037D01*
X041447Y018502D02*
Y018620D01*
Y018502D02*
X042037D01*
X041742Y018561D02*
X042037Y018620D01*
X041742Y018561D02*
X042037Y018502D01*
X040167Y018699D02*
Y018817D01*
X040758D01*
Y018699D02*
Y018817D01*
X040167Y018699D02*
X040758D01*
X040167Y018817D02*
X040463Y018758D01*
X040167Y018699D02*
X040463Y018758D01*
X042037Y018699D02*
Y018817D01*
X041447D02*
X042037D01*
X041447Y018699D02*
Y018817D01*
Y018699D02*
X042037D01*
X041742Y018758D02*
X042037Y018817D01*
X041742Y018758D02*
X042037Y018699D01*
X040167Y018896D02*
Y019014D01*
X040758D01*
Y018896D02*
Y019014D01*
X040167Y018896D02*
X040758D01*
X040167Y019014D02*
X040463Y018955D01*
X040167Y018896D02*
X040463Y018955D01*
X042037Y018896D02*
Y019014D01*
X041447D02*
X042037D01*
X041447Y018896D02*
Y019014D01*
Y018896D02*
X042037D01*
X041742Y018955D02*
X042037Y019014D01*
X041742Y018955D02*
X042037Y018896D01*
X040167Y019093D02*
Y019211D01*
X040758D01*
Y019093D02*
Y019211D01*
X040167Y019093D02*
X040758D01*
X040167Y019211D02*
X040463Y019152D01*
X040167Y019093D02*
X040463Y019152D01*
X042037Y019093D02*
Y019211D01*
X041447D02*
X042037D01*
X041447Y019093D02*
Y019211D01*
Y019093D02*
X042037D01*
X041742Y019152D02*
X042037Y019211D01*
X041742Y019152D02*
X042037Y019093D01*
X040167Y019290D02*
Y019408D01*
X040758D01*
Y019290D02*
Y019408D01*
X040167Y019290D02*
X040758D01*
X040167Y019408D02*
X040463Y019349D01*
X040167Y019290D02*
X040463Y019349D01*
X042037Y019290D02*
Y019408D01*
X041447D02*
X042037D01*
X041447Y019290D02*
Y019408D01*
Y019290D02*
X042037D01*
X041742Y019349D02*
X042037Y019408D01*
X041742Y019349D02*
X042037Y019290D01*
X040167Y019487D02*
Y019605D01*
X040758D01*
Y019487D02*
Y019605D01*
X040167Y019487D02*
X040758D01*
X040167Y019605D02*
X040463Y019546D01*
X040167Y019487D02*
X040463Y019546D01*
X042037Y019487D02*
Y019605D01*
X041447D02*
X042037D01*
X041447Y019487D02*
Y019605D01*
Y019487D02*
X042037D01*
X041742Y019546D02*
X042037Y019605D01*
X041742Y019546D02*
X042037Y019487D01*
X040167Y019683D02*
Y019802D01*
X040758D01*
Y019683D02*
Y019802D01*
X040167Y019683D02*
X040758D01*
X040167Y019802D02*
X040463Y019743D01*
X040167Y019683D02*
X040463Y019743D01*
X042037Y019683D02*
Y019802D01*
X041447D02*
X042037D01*
X041447Y019683D02*
Y019802D01*
Y019683D02*
X042037D01*
X041742Y019743D02*
X042037Y019802D01*
X041742Y019743D02*
X042037Y019683D01*
X040167Y019880D02*
Y019998D01*
X040758D01*
Y019880D02*
Y019998D01*
X040167Y019880D02*
X040758D01*
X040167Y019998D02*
X040463Y019939D01*
X040167Y019880D02*
X040463Y019939D01*
X042037Y019880D02*
Y019998D01*
X041447D02*
X042037D01*
X041447Y019880D02*
Y019998D01*
Y019880D02*
X042037D01*
X041742Y019939D02*
X042037Y019998D01*
X041742Y019939D02*
X042037Y019880D01*
X040167Y020077D02*
Y020195D01*
X040758D01*
Y020077D02*
Y020195D01*
X040167Y020077D02*
X040758D01*
X040167Y020195D02*
X040463Y020136D01*
X040167Y020077D02*
X040463Y020136D01*
X042037Y020077D02*
Y020195D01*
X041447D02*
X042037D01*
X041447Y020077D02*
Y020195D01*
Y020077D02*
X042037D01*
X041742Y020136D02*
X042037Y020195D01*
X041742Y020136D02*
X042037Y020077D01*
X040167Y020274D02*
Y020392D01*
X040758D01*
Y020274D02*
Y020392D01*
X040167Y020274D02*
X040758D01*
X040167Y020392D02*
X040463Y020333D01*
X040167Y020274D02*
X040463Y020333D01*
X042037Y020274D02*
Y020392D01*
X041447D02*
X042037D01*
X041447Y020274D02*
Y020392D01*
Y020274D02*
X042037D01*
X041742Y020333D02*
X042037Y020392D01*
X041742Y020333D02*
X042037Y020274D01*
X040167Y020471D02*
Y020589D01*
X040758D01*
Y020471D02*
Y020589D01*
X040167Y020471D02*
X040758D01*
X040167Y020589D02*
X040463Y020530D01*
X040167Y020471D02*
X040463Y020530D01*
X042037Y020471D02*
Y020589D01*
X041447D02*
X042037D01*
X041447Y020471D02*
Y020589D01*
Y020471D02*
X042037D01*
X041742Y020530D02*
X042037Y020589D01*
X041742Y020530D02*
X042037Y020471D01*
X040167Y020668D02*
Y020786D01*
X040758D01*
Y020668D02*
Y020786D01*
X040167Y020668D02*
X040758D01*
X040167Y020786D02*
X040463Y020727D01*
X040167Y020668D02*
X040463Y020727D01*
X042037Y020668D02*
Y020786D01*
X041447D02*
X042037D01*
X041447Y020668D02*
Y020786D01*
Y020668D02*
X042037D01*
X041742Y020727D02*
X042037Y020786D01*
X041742Y020727D02*
X042037Y020668D01*
X040167Y020865D02*
Y020983D01*
X040758D01*
Y020865D02*
Y020983D01*
X040167Y020865D02*
X040758D01*
X040167Y020983D02*
X040463Y020924D01*
X040167Y020865D02*
X040463Y020924D01*
X042037Y020865D02*
Y020983D01*
X041447D02*
X042037D01*
X041447Y020865D02*
Y020983D01*
Y020865D02*
X042037D01*
X041742Y020924D02*
X042037Y020983D01*
X041742Y020924D02*
X042037Y020865D01*
X040167Y021061D02*
Y021180D01*
X040758D01*
Y021061D02*
Y021180D01*
X040167Y021061D02*
X040758D01*
X040167Y021180D02*
X040463Y021120D01*
X040167Y021061D02*
X040463Y021120D01*
X042037Y021061D02*
Y021180D01*
X041447D02*
X042037D01*
X041447Y021061D02*
Y021180D01*
Y021061D02*
X042037D01*
X041742Y021120D02*
X042037Y021180D01*
X041742Y021120D02*
X042037Y021061D01*
X040167Y021258D02*
Y021376D01*
X040758D01*
Y021258D02*
Y021376D01*
X040167Y021258D02*
X040758D01*
X040167Y021376D02*
X040463Y021317D01*
X040167Y021258D02*
X040463Y021317D01*
X042037Y021258D02*
Y021376D01*
X041447D02*
X042037D01*
X041447Y021258D02*
Y021376D01*
Y021258D02*
X042037D01*
X041742Y021317D02*
X042037Y021376D01*
X041742Y021317D02*
X042037Y021258D01*
X040167Y021455D02*
Y021573D01*
X040758D01*
Y021455D02*
Y021573D01*
X040167Y021455D02*
X040758D01*
X040167Y021573D02*
X040463Y021514D01*
X040167Y021455D02*
X040463Y021514D01*
X042037Y021455D02*
Y021573D01*
X041447D02*
X042037D01*
X041447Y021455D02*
Y021573D01*
Y021455D02*
X042037D01*
X041742Y021514D02*
X042037Y021573D01*
X041742Y021514D02*
X042037Y021455D01*
X040167Y021652D02*
Y021770D01*
X040758D01*
Y021652D02*
Y021770D01*
X040167Y021652D02*
X040758D01*
X040167Y021770D02*
X040463Y021711D01*
X040167Y021652D02*
X040463Y021711D01*
X042037Y021652D02*
Y021770D01*
X041447D02*
X042037D01*
X041447Y021652D02*
Y021770D01*
Y021652D02*
X042037D01*
X041742Y021711D02*
X042037Y021770D01*
X041742Y021711D02*
X042037Y021652D01*
X040167Y021849D02*
Y021967D01*
X040758D01*
Y021849D02*
Y021967D01*
X040167Y021849D02*
X040758D01*
X040167Y021967D02*
X040463Y021908D01*
X040167Y021849D02*
X040463Y021908D01*
X042037Y021849D02*
Y021967D01*
X041447D02*
X042037D01*
X041447Y021849D02*
Y021967D01*
Y021849D02*
X042037D01*
X041742Y021908D02*
X042037Y021967D01*
X041742Y021908D02*
X042037Y021849D01*
X040167Y022046D02*
Y022164D01*
X040758D01*
Y022046D02*
Y022164D01*
X040167Y022046D02*
X040758D01*
X040167Y022164D02*
X040463Y022105D01*
X040167Y022046D02*
X040463Y022105D01*
X042037Y022046D02*
Y022164D01*
X041447D02*
X042037D01*
X041447Y022046D02*
Y022164D01*
Y022046D02*
X042037D01*
X041742Y022105D02*
X042037Y022164D01*
X041742Y022105D02*
X042037Y022046D01*
M02*
