G04 Layer_Physical_Order=8*
G04 Layer_Color=16711680*
%FSAX24Y24*%
%MOIN*%
G70*
G01*
G75*
%ADD10C,0.0055*%
%ADD12C,0.0049*%
%ADD13C,0.0049*%
%ADD14C,0.0118*%
%ADD15C,0.0256*%
%ADD16C,0.0236*%
%ADD17C,0.0394*%
%ADD18R,0.0236X0.0394*%
%ADD19R,0.0244X0.0228*%
%ADD20R,0.0315X0.0315*%
%ADD23R,0.0228X0.0244*%
%ADD24R,0.0354X0.0394*%
%ADD26R,0.0394X0.0394*%
%ADD27R,0.0394X0.0394*%
%ADD30R,0.0244X0.0244*%
%ADD31R,0.0244X0.0244*%
%ADD34R,0.0394X0.0354*%
%ADD39R,0.1181X0.0551*%
%ADD40R,0.1181X0.0512*%
%ADD41R,0.0394X0.0236*%
%ADD58R,0.0748X0.0571*%
%ADD60R,0.0453X0.0571*%
%ADD61R,0.0571X0.0453*%
%ADD65R,0.0571X0.0433*%
%ADD67C,0.0120*%
%ADD68C,0.0098*%
%ADD69C,0.0079*%
%ADD70C,0.0059*%
%ADD71C,0.0197*%
%ADD72C,0.0138*%
%ADD73C,0.0157*%
%ADD74C,0.0039*%
%ADD77C,0.0100*%
%ADD80C,0.0071*%
G04:AMPARAMS|DCode=82|XSize=41.3mil|YSize=49.2mil|CornerRadius=10.3mil|HoleSize=0mil|Usage=FLASHONLY|Rotation=180.000|XOffset=0mil|YOffset=0mil|HoleType=Round|Shape=RoundedRectangle|*
%AMROUNDEDRECTD82*
21,1,0.0413,0.0285,0,0,180.0*
21,1,0.0207,0.0492,0,0,180.0*
1,1,0.0207,-0.0103,0.0143*
1,1,0.0207,0.0103,0.0143*
1,1,0.0207,0.0103,-0.0143*
1,1,0.0207,-0.0103,-0.0143*
%
%ADD82ROUNDEDRECTD82*%
%ADD83C,0.0197*%
%ADD84C,0.0315*%
%ADD85C,0.1378*%
%ADD86C,0.0591*%
%ADD87C,0.0945*%
%ADD88R,0.1102X0.0866*%
%ADD89C,0.0630*%
%ADD90C,0.0827*%
%ADD91O,0.0827X0.0630*%
%ADD92R,0.0591X0.0512*%
%ADD93C,0.0551*%
%ADD94C,0.0157*%
%ADD109P,0.0278X4X90.0*%
%ADD117R,0.0669X0.0866*%
%ADD118R,0.0315X0.0157*%
G04:AMPARAMS|DCode=119|XSize=24.4mil|YSize=22.8mil|CornerRadius=0mil|HoleSize=0mil|Usage=FLASHONLY|Rotation=135.000|XOffset=0mil|YOffset=0mil|HoleType=Round|Shape=Rectangle|*
%AMROTATEDRECTD119*
4,1,4,0.0167,-0.0006,0.0006,-0.0167,-0.0167,0.0006,-0.0006,0.0167,0.0167,-0.0006,0.0*
%
%ADD119ROTATEDRECTD119*%

%ADD120R,0.0394X0.0118*%
%ADD121O,0.0394X0.0138*%
%ADD122R,0.0846X0.0846*%
%ADD123O,0.0138X0.0394*%
%ADD124R,0.0413X0.0177*%
%ADD125R,0.1378X0.1614*%
%ADD126P,0.0345X4X270.0*%
%ADD127R,0.0571X0.0748*%
%ADD128R,0.0374X0.0413*%
%ADD129R,0.0413X0.0236*%
%ADD130R,0.0236X0.0413*%
%ADD131R,0.0709X0.0886*%
%ADD132R,0.0283X0.0280*%
%ADD133P,0.0557X4X270.0*%
G36*
X016524Y013852D02*
X016530Y013838D01*
X016533Y013823D01*
X016535Y013819D01*
Y013721D01*
X016523Y013701D01*
X016520Y013686D01*
X016514Y013672D01*
Y013397D01*
X016516Y013392D01*
X016515Y013387D01*
X016522Y013376D01*
X016524Y013367D01*
X016535Y013349D01*
Y013245D01*
X016524Y013227D01*
X016522Y013218D01*
X016515Y013208D01*
X016516Y013202D01*
X016514Y013197D01*
Y012818D01*
X016513Y012815D01*
X016514Y012812D01*
Y012795D01*
X016520Y012780D01*
X016524Y012761D01*
X016535Y012744D01*
Y012520D01*
X016445Y012429D01*
X016413Y012423D01*
X016367Y012393D01*
X016337Y012347D01*
X016326Y012293D01*
X016328Y012283D01*
X016296Y012244D01*
X016145D01*
X016113Y012283D01*
X016115Y012293D01*
X016104Y012347D01*
X016074Y012393D01*
X016028Y012423D01*
X015991Y012430D01*
X015887Y012535D01*
X015889Y012547D01*
X015876Y012613D01*
X015874Y012615D01*
Y012791D01*
X015876Y012795D01*
Y012982D01*
X015876Y012982D01*
X015889Y013047D01*
X015876Y013113D01*
X015876Y013113D01*
Y013350D01*
X015915Y013376D01*
X015926Y013376D01*
X016073D01*
Y013632D01*
X016152D01*
Y013711D01*
X016388D01*
Y013887D01*
X016388Y013888D01*
X016390Y013937D01*
X016524D01*
Y013852D01*
D02*
G37*
G36*
X021919Y014222D02*
Y014045D01*
X022539D01*
X022539Y012822D01*
X022518Y012790D01*
X022516Y012780D01*
X021345Y012780D01*
Y012936D01*
X021339Y012950D01*
X021336Y012966D01*
X021331Y012973D01*
Y013090D01*
X021336Y013097D01*
X021339Y013113D01*
X021345Y013127D01*
Y013921D01*
X021331Y013955D01*
Y014045D01*
X021486D01*
Y014222D01*
X021919Y014222D01*
D02*
G37*
G36*
X015557Y012595D02*
X015548Y012547D01*
X015561Y012482D01*
X015598Y012427D01*
X015653Y012390D01*
X015718Y012377D01*
X015731Y012379D01*
X015838Y012271D01*
X015845Y012240D01*
X015875Y012194D01*
X015921Y012164D01*
X015974Y012153D01*
X015995Y012157D01*
X016057Y012095D01*
X016048Y012047D01*
X016061Y011982D01*
X016098Y011927D01*
X016153Y011890D01*
X016219Y011877D01*
X016284Y011890D01*
X016339Y011927D01*
X016376Y011982D01*
X016389Y012047D01*
X016380Y012095D01*
X016443Y012158D01*
X016467Y012153D01*
X016520Y012164D01*
X016566Y012194D01*
X016596Y012240D01*
X016604Y012276D01*
X016706Y012379D01*
X016718Y012377D01*
X016784Y012390D01*
X016839Y012427D01*
X016876Y012482D01*
X016889Y012547D01*
X016880Y012595D01*
X016968Y012684D01*
X017469D01*
X017968Y012681D01*
X017971Y011801D01*
X017546Y011376D01*
X017387Y011535D01*
X017389Y011547D01*
X017376Y011613D01*
X017354Y011646D01*
X017350Y011652D01*
X017386Y011688D01*
X017391Y011685D01*
X017411Y011671D01*
X017465Y011661D01*
X017518Y011671D01*
X017564Y011702D01*
X017594Y011747D01*
X017605Y011801D01*
X017594Y011855D01*
X017564Y011901D01*
X017518Y011931D01*
X017484Y011938D01*
X017387Y012035D01*
X017389Y012047D01*
X017376Y012113D01*
X017339Y012168D01*
X017284Y012205D01*
X017219Y012218D01*
X017153Y012205D01*
X017098Y012168D01*
X017061Y012113D01*
X017048Y012047D01*
X017061Y011982D01*
X017098Y011927D01*
X017153Y011890D01*
X017219Y011877D01*
X017231Y011879D01*
X017328Y011782D01*
X017335Y011747D01*
X017351Y011724D01*
X017355Y011718D01*
X017319Y011682D01*
X017313Y011685D01*
X017284Y011705D01*
X017219Y011718D01*
X017153Y011705D01*
X017098Y011668D01*
X017061Y011613D01*
X017048Y011547D01*
X017061Y011482D01*
X017084Y011447D01*
X017048Y011411D01*
X017018Y011431D01*
X016984Y011438D01*
X016887Y011535D01*
X016889Y011547D01*
X016876Y011613D01*
X016839Y011668D01*
X016784Y011705D01*
X016718Y011718D01*
X016653Y011705D01*
X016598Y011668D01*
X016561Y011613D01*
X016548Y011547D01*
X016561Y011482D01*
X016598Y011427D01*
X016653Y011390D01*
X016718Y011377D01*
X016731Y011379D01*
X016780Y011330D01*
X016761Y011283D01*
X015176D01*
X015157Y011330D01*
X015206Y011379D01*
X015218Y011377D01*
X015284Y011390D01*
X015339Y011427D01*
X015376Y011482D01*
X015389Y011547D01*
X015376Y011613D01*
X015339Y011668D01*
X015284Y011705D01*
X015218Y011718D01*
X015153Y011705D01*
X015124Y011685D01*
X015118Y011682D01*
X015082Y011718D01*
X015086Y011724D01*
X015102Y011747D01*
X015109Y011782D01*
X015206Y011879D01*
X015218Y011877D01*
X015284Y011890D01*
X015339Y011927D01*
X015376Y011982D01*
X015389Y012047D01*
X015376Y012113D01*
X015339Y012168D01*
X015284Y012205D01*
X015218Y012218D01*
X015153Y012205D01*
X015098Y012168D01*
X015061Y012113D01*
X015048Y012047D01*
X015050Y012035D01*
X014953Y011938D01*
X014919Y011931D01*
X014873Y011901D01*
X014843Y011855D01*
X014832Y011801D01*
X014843Y011747D01*
X014873Y011702D01*
X014919Y011671D01*
X014972Y011661D01*
X015026Y011671D01*
X015046Y011685D01*
X015051Y011688D01*
X015087Y011652D01*
X015083Y011646D01*
X015061Y011613D01*
X015048Y011547D01*
X015050Y011535D01*
X014891Y011376D01*
X014615Y011653D01*
X014612D01*
X014577Y011688D01*
Y011909D01*
X014577Y011910D01*
X014583Y011939D01*
X014577Y011968D01*
X014577Y011969D01*
Y012681D01*
X014969Y012684D01*
X015468D01*
X015557Y012595D01*
D02*
G37*
G36*
X021292Y013127D02*
X021272Y013097D01*
X021259Y013032D01*
X021272Y012966D01*
X021292Y012936D01*
Y012627D01*
X021272Y012597D01*
X021259Y012531D01*
X021261Y012519D01*
X021164Y012422D01*
X021129Y012415D01*
X021084Y012385D01*
X021053Y012339D01*
X021043Y012285D01*
X021044Y012278D01*
X021003Y012228D01*
X020855D01*
X020814Y012278D01*
X020816Y012285D01*
X020805Y012339D01*
X020775Y012385D01*
X020729Y012415D01*
X020695Y012422D01*
X020597Y012519D01*
X020600Y012531D01*
X020587Y012597D01*
X020585Y012599D01*
Y012964D01*
X020587Y012966D01*
X020600Y013032D01*
X020587Y013097D01*
X020585Y013099D01*
Y013921D01*
X020705D01*
X020718Y013919D01*
X020758Y013883D01*
Y013799D01*
X020994D01*
X021230D01*
Y013921D01*
X021292D01*
Y013127D01*
D02*
G37*
G36*
X020268Y012579D02*
X020259Y012531D01*
X020272Y012466D01*
X020308Y012411D01*
X020364Y012374D01*
X020429Y012361D01*
X020441Y012363D01*
X020539Y012266D01*
X020545Y012232D01*
X020576Y012186D01*
X020621Y012156D01*
X020675Y012145D01*
X020698Y012149D01*
X020768Y012079D01*
X020759Y012032D01*
X020772Y011966D01*
X020808Y011911D01*
X020864Y011874D01*
X020929Y011861D01*
X020994Y011874D01*
X021050Y011911D01*
X021087Y011966D01*
X021100Y012032D01*
X021090Y012079D01*
X021161Y012149D01*
X021183Y012145D01*
X021237Y012156D01*
X021282Y012186D01*
X021313Y012232D01*
X021320Y012266D01*
X021417Y012363D01*
X021429Y012361D01*
X021494Y012374D01*
X021550Y012411D01*
X021587Y012466D01*
X021600Y012531D01*
X021590Y012579D01*
X021679Y012668D01*
X022179D01*
X022529Y012666D01*
X022548Y012637D01*
X022549Y012636D01*
X022551Y011655D01*
X022427Y011531D01*
X022100D01*
X022087Y011597D01*
X022064Y011630D01*
X022060Y011636D01*
X022096Y011672D01*
X022102Y011669D01*
X022121Y011656D01*
X022175Y011645D01*
X022229Y011656D01*
X022275Y011686D01*
X022305Y011732D01*
X022316Y011785D01*
X022305Y011839D01*
X022275Y011885D01*
X022229Y011915D01*
X022195Y011922D01*
X022097Y012019D01*
X022100Y012032D01*
X022087Y012097D01*
X022050Y012152D01*
X021994Y012189D01*
X021929Y012202D01*
X021864Y012189D01*
X021809Y012152D01*
X021772Y012097D01*
X021759Y012032D01*
X021772Y011966D01*
X021809Y011911D01*
X021864Y011874D01*
X021929Y011861D01*
X021941Y011863D01*
X022039Y011766D01*
X022045Y011732D01*
X022061Y011708D01*
X022065Y011702D01*
X022029Y011666D01*
X022024Y011669D01*
X021994Y011689D01*
X021929Y011702D01*
X021864Y011689D01*
X021809Y011652D01*
X021772Y011597D01*
X021759Y011531D01*
X021600D01*
X021587Y011597D01*
X021550Y011652D01*
X021494Y011689D01*
X021429Y011702D01*
X021364Y011689D01*
X021309Y011652D01*
X021272Y011597D01*
X021259Y011531D01*
X021100D01*
X021100Y011531D01*
X021087Y011597D01*
X021050Y011652D01*
X020994Y011689D01*
X020929Y011702D01*
X020864Y011689D01*
X020808Y011652D01*
X020772Y011597D01*
X020759Y011531D01*
X020759Y011531D01*
X020600D01*
X020587Y011597D01*
X020550Y011652D01*
X020494Y011689D01*
X020429Y011702D01*
X020364Y011689D01*
X020308Y011652D01*
X020272Y011597D01*
X020259Y011531D01*
X020100D01*
X020087Y011597D01*
X020050Y011652D01*
X019994Y011689D01*
X019929Y011702D01*
X019864Y011689D01*
X019834Y011669D01*
X019829Y011666D01*
X019793Y011702D01*
X019797Y011708D01*
X019813Y011732D01*
X019820Y011766D01*
X019917Y011863D01*
X019929Y011861D01*
X019994Y011874D01*
X020050Y011911D01*
X020087Y011966D01*
X020100Y012032D01*
X020087Y012097D01*
X020050Y012152D01*
X019994Y012189D01*
X019929Y012202D01*
X019864Y012189D01*
X019808Y012152D01*
X019772Y012097D01*
X019759Y012032D01*
X019761Y012019D01*
X019664Y011922D01*
X019629Y011915D01*
X019584Y011885D01*
X019553Y011839D01*
X019543Y011785D01*
X019553Y011732D01*
X019584Y011686D01*
X019629Y011656D01*
X019683Y011645D01*
X019737Y011656D01*
X019757Y011669D01*
X019762Y011672D01*
X019798Y011636D01*
X019794Y011630D01*
X019772Y011597D01*
X019759Y011531D01*
X019431D01*
X019325Y011637D01*
X018598D01*
Y011752D01*
X018819D01*
Y012018D01*
X018898D01*
Y012096D01*
X019232D01*
Y012283D01*
X019083D01*
X019064Y012330D01*
X019195Y012461D01*
X019232D01*
Y012498D01*
X019291Y012557D01*
Y012665D01*
X019679Y012668D01*
X020179D01*
X020268Y012579D01*
D02*
G37*
G36*
X018482Y013921D02*
X019333D01*
X019349Y013878D01*
X019349D01*
Y013701D01*
X019585D01*
Y013622D01*
X019664D01*
Y013366D01*
X019679D01*
Y012813D01*
X019232D01*
Y012992D01*
X018976D01*
Y012726D01*
X018819D01*
Y012992D01*
X018563D01*
Y012813D01*
X018482D01*
Y012678D01*
Y012124D01*
X018023D01*
X018022Y012681D01*
X018014Y012699D01*
X018006Y012718D01*
X018006Y012718D01*
X018006Y012718D01*
X018000Y012721D01*
X017978Y012770D01*
X017980Y012779D01*
X017986Y012795D01*
Y013268D01*
X017971Y013305D01*
X017933Y013321D01*
X017613Y013321D01*
X017612Y013322D01*
X017640Y013372D01*
X017795D01*
Y013550D01*
X017559D01*
Y013628D01*
X017480D01*
Y013884D01*
X017374D01*
Y013937D01*
X018482D01*
Y013921D01*
D02*
G37*
G36*
X023533Y013209D02*
X023529Y013199D01*
X022756D01*
Y014232D01*
X023533D01*
Y013209D01*
D02*
G37*
G36*
X015823Y012795D02*
X014626D01*
Y013120D01*
Y013937D01*
X015823D01*
Y012795D01*
D02*
G37*
G36*
X020532Y013296D02*
X020529Y013282D01*
X020532Y013267D01*
Y013099D01*
X020533Y013095D01*
Y012968D01*
X020532Y012964D01*
Y012796D01*
X020529Y012781D01*
X020529Y012780D01*
X019765D01*
Y013366D01*
X019822D01*
Y013878D01*
X019775D01*
Y013891D01*
X019806Y013921D01*
X020532D01*
Y013296D01*
D02*
G37*
G36*
X017321Y013268D02*
X017933Y013268D01*
Y012795D01*
X017805Y012795D01*
X016567D01*
Y013197D01*
X016568Y013198D01*
X016598Y013243D01*
X016609Y013297D01*
X016598Y013351D01*
X016568Y013397D01*
X016567Y013397D01*
Y013672D01*
X016596Y013716D01*
X016607Y013770D01*
X016596Y013823D01*
X016577Y013852D01*
Y013937D01*
X017321D01*
Y013268D01*
D02*
G37*
G36*
X023691Y010758D02*
X023031Y010718D01*
Y011526D01*
X023691D01*
Y010758D01*
D02*
G37*
G36*
X024094Y012392D02*
Y010915D01*
X023760Y010915D01*
Y011614D01*
X023396D01*
Y012392D01*
X024094Y012392D01*
D02*
G37*
G36*
X022943Y011220D02*
X022844D01*
Y011093D01*
Y010965D01*
X022943D01*
Y010846D01*
X022559D01*
Y010591D01*
X022943D01*
Y010472D01*
X022844D01*
Y010344D01*
X022766D01*
Y010266D01*
X022559D01*
Y010256D01*
X022494D01*
Y010398D01*
X022494D01*
Y010409D01*
X022494D01*
Y010502D01*
X022323D01*
Y010581D01*
X022244D01*
Y010752D01*
X022152D01*
Y010752D01*
X022146Y010749D01*
X022096Y010778D01*
Y010896D01*
X022397Y011196D01*
X022432Y011220D01*
X022456Y011255D01*
X022638Y011437D01*
X022943D01*
Y011220D01*
D02*
G37*
G36*
X019606Y015096D02*
X019604Y015093D01*
X019594Y015039D01*
X019604Y014986D01*
X019606Y014983D01*
Y014035D01*
X017923D01*
Y014291D01*
X017589D01*
Y014449D01*
X017923D01*
Y014779D01*
X017944Y014792D01*
X017974Y014838D01*
X017981Y014871D01*
X018374Y015264D01*
X018804Y015264D01*
X018805Y015264D01*
X018858Y015253D01*
X018912Y015264D01*
X018912Y015264D01*
X019606Y015264D01*
Y015096D01*
D02*
G37*
G36*
X021575Y015294D02*
X021572Y015276D01*
X021584Y015214D01*
X021612Y015172D01*
X021584Y015130D01*
X021572Y015069D01*
X021584Y015007D01*
X021619Y014955D01*
X021644Y014939D01*
X021644Y014331D01*
X021486D01*
Y014390D01*
X021230D01*
Y014045D01*
X021278D01*
Y013983D01*
X021230Y013976D01*
X021230Y013976D01*
X021230Y013976D01*
X020758D01*
X020758Y013976D01*
X020715Y013974D01*
X020710Y013972D01*
X020705Y013975D01*
X020630D01*
Y014134D01*
Y014942D01*
X020713Y015026D01*
X020919D01*
Y015026D01*
X020931D01*
Y015026D01*
X021274D01*
Y015344D01*
X021534D01*
X021575Y015294D01*
D02*
G37*
G36*
X025167Y011290D02*
X025135Y011250D01*
X025030D01*
Y011575D01*
X024281D01*
Y011250D01*
X024183D01*
Y011600D01*
X024185Y011650D01*
X024233Y011650D01*
X024270D01*
Y011821D01*
Y011992D01*
X024228D01*
X024203Y012042D01*
X024222Y012067D01*
X025167D01*
Y011290D01*
D02*
G37*
%LPC*%
G36*
X016388Y013553D02*
X016230D01*
Y013376D01*
X016388D01*
Y013553D01*
D02*
G37*
G36*
X021545Y013976D02*
X021388D01*
Y013799D01*
X021545D01*
Y013976D01*
D02*
G37*
G36*
X021860D02*
X021703D01*
Y013799D01*
X021860D01*
Y013976D01*
D02*
G37*
G36*
X021545Y013642D02*
X021388D01*
Y013465D01*
X021545D01*
Y013642D01*
D02*
G37*
G36*
X021860D02*
X021703D01*
Y013465D01*
X021860D01*
Y013642D01*
D02*
G37*
G36*
X015718Y011718D02*
X015653Y011705D01*
X015598Y011668D01*
X015561Y011613D01*
X015548Y011547D01*
X015561Y011482D01*
X015598Y011427D01*
X015653Y011390D01*
X015718Y011377D01*
X015784Y011390D01*
X015839Y011427D01*
X015876Y011482D01*
X015889Y011547D01*
X015876Y011613D01*
X015839Y011668D01*
X015784Y011705D01*
X015718Y011718D01*
D02*
G37*
G36*
X016219Y011718D02*
X016153Y011705D01*
X016098Y011668D01*
X016061Y011613D01*
X016048Y011547D01*
X016061Y011482D01*
X016098Y011427D01*
X016153Y011390D01*
X016219Y011377D01*
X016284Y011390D01*
X016339Y011427D01*
X016376Y011482D01*
X016389Y011547D01*
X016376Y011613D01*
X016339Y011668D01*
X016284Y011705D01*
X016219Y011718D01*
D02*
G37*
G36*
X020915Y013642D02*
X020758D01*
Y013465D01*
X020915D01*
Y013642D01*
D02*
G37*
G36*
X021230D02*
X021073D01*
Y013465D01*
X021230D01*
Y013642D01*
D02*
G37*
G36*
X019232Y011939D02*
X018976D01*
Y011752D01*
X019232D01*
Y011939D01*
D02*
G37*
G36*
X019507Y013543D02*
X019349D01*
Y013366D01*
X019507D01*
Y013543D01*
D02*
G37*
G36*
X017795Y013884D02*
X017638D01*
Y013707D01*
X017795D01*
Y013884D01*
D02*
G37*
G36*
X015443Y013888D02*
X015285D01*
Y013711D01*
X015443D01*
Y013888D01*
D02*
G37*
G36*
X015758D02*
X015600D01*
Y013711D01*
X015758D01*
Y013888D01*
D02*
G37*
G36*
Y013553D02*
X015600D01*
Y013376D01*
X015758D01*
Y013553D01*
D02*
G37*
G36*
X015443D02*
X015285D01*
Y013376D01*
X015443D01*
Y013553D01*
D02*
G37*
G36*
X020452Y013543D02*
X020294D01*
Y013366D01*
X020452D01*
Y013543D01*
D02*
G37*
G36*
X020137D02*
X019979D01*
Y013366D01*
X020137D01*
Y013543D01*
D02*
G37*
G36*
Y013878D02*
X019979D01*
Y013701D01*
X020137D01*
Y013878D01*
D02*
G37*
G36*
X020452D02*
X020294D01*
Y013701D01*
X020452D01*
Y013878D01*
D02*
G37*
G36*
X017165Y013884D02*
X017008D01*
Y013707D01*
X017165D01*
Y013884D01*
D02*
G37*
G36*
X016850D02*
X016693D01*
Y013707D01*
X016850D01*
Y013884D01*
D02*
G37*
G36*
Y013550D02*
X016693D01*
Y013372D01*
X016850D01*
Y013550D01*
D02*
G37*
G36*
X017165D02*
X017008D01*
Y013372D01*
X017165D01*
Y013550D01*
D02*
G37*
G36*
X022687Y010472D02*
X022559D01*
Y010423D01*
X022687D01*
Y010472D01*
D02*
G37*
G36*
Y011014D02*
X022559D01*
Y010965D01*
X022687D01*
Y011014D01*
D02*
G37*
G36*
X022494Y010752D02*
X022402D01*
Y010659D01*
X022494D01*
Y010752D01*
D02*
G37*
G36*
X022687Y011220D02*
X022559D01*
Y011171D01*
X022687D01*
Y011220D01*
D02*
G37*
G36*
X019006Y015118D02*
X018681D01*
Y014705D01*
X019006D01*
Y015118D01*
D02*
G37*
G36*
X019488D02*
X019163D01*
Y014705D01*
X019488D01*
Y015118D01*
D02*
G37*
G36*
X019006Y014547D02*
X018681D01*
Y014134D01*
X019006D01*
Y014547D01*
D02*
G37*
G36*
X019488D02*
X019163D01*
Y014134D01*
X019488D01*
Y014547D01*
D02*
G37*
G36*
X021073Y014390D02*
X020817D01*
Y014045D01*
X021073D01*
Y014390D01*
D02*
G37*
G36*
X021486Y014892D02*
X021230D01*
Y014547D01*
X021486D01*
Y014892D01*
D02*
G37*
G36*
X021073D02*
X020817D01*
Y014547D01*
X021073D01*
Y014892D01*
D02*
G37*
G36*
X024427Y011992D02*
Y011900D01*
X024512D01*
Y011992D01*
X024427D01*
D02*
G37*
G36*
X024512Y011742D02*
X024427D01*
Y011650D01*
X024512D01*
Y011742D01*
D02*
G37*
%LPD*%
D10*
X022347Y016232D02*
G03*
X022325Y016210I000000J-000022D01*
G01*
X022303Y016075D02*
G03*
X022325Y016097I000000J000022D01*
G01*
X022215Y016210D02*
G03*
X022193Y016232I-000022J000000D01*
G01*
X022215Y016097D02*
G03*
X022237Y016075I000022J000000D01*
G01*
X022347Y016232D02*
X022648D01*
X022325Y016097D02*
Y016210D01*
X022215Y016097D02*
Y016210D01*
X022237Y016075D02*
X022303D01*
X022049Y016232D02*
X022193D01*
X014485Y017471D02*
Y017475D01*
Y017249D02*
Y017471D01*
X021854Y019551D02*
X021854Y019551D01*
X021850Y019547D02*
X021854Y019551D01*
X012944Y014153D02*
X013240Y014449D01*
X012698Y014153D02*
X012944D01*
X012889Y014286D02*
X013185Y014583D01*
X012754Y014286D02*
X012889D01*
X012546Y014305D02*
X012698Y014153D01*
X012546Y014305D02*
Y014452D01*
X012680Y014360D02*
Y014452D01*
Y014360D02*
X012754Y014286D01*
X022044Y020279D02*
X022081Y020315D01*
X021874D02*
X021910Y020279D01*
X011540Y015610D02*
X011880D01*
X011540Y015413D02*
X011880D01*
X011550Y016594D02*
X011880D01*
X011550Y016791D02*
X011880D01*
X011531Y014823D02*
X011880D01*
X011531Y015020D02*
X011880D01*
X021928Y021132D02*
Y021282D01*
Y021132D02*
X022025Y021036D01*
Y021028D02*
Y021036D01*
X022328Y021132D02*
Y021282D01*
X022232Y021036D02*
X022328Y021132D01*
X022232Y021028D02*
Y021036D01*
X022679Y016398D02*
X022904D01*
X022648Y016366D02*
X022679Y016398D01*
X021994Y016366D02*
X022648D01*
X021864Y016236D02*
X021994Y016366D01*
X021864Y016236D02*
Y016236D01*
X021598Y015970D02*
X021864Y016236D01*
X021598Y015929D02*
Y015970D01*
X021417Y015748D02*
X021598Y015929D01*
X022679Y016791D02*
X022904D01*
X022648Y016823D02*
X022679Y016791D01*
Y016988D02*
X022904D01*
X022648Y016957D02*
X022679Y016988D01*
X022216Y016957D02*
X022648D01*
X022374Y016823D02*
X022648D01*
X022177Y016918D02*
X022216Y016957D01*
X022323Y016772D02*
X022374Y016823D01*
X024656Y016791D02*
X024880D01*
X024911Y016823D01*
X025057D01*
X024656Y016988D02*
X024880D01*
X024911Y016957D01*
X025113D01*
X025057Y016823D02*
X025738Y016142D01*
X025787D01*
X025113Y016957D02*
X025721Y016348D01*
X025787D01*
X024656Y016201D02*
X024880D01*
X024911Y016232D01*
X024656Y016398D02*
X024880D01*
X024911Y016366D01*
Y016232D02*
X025121D01*
X022648D02*
X022679Y016201D01*
X022904D01*
X024911Y016366D02*
X025121D01*
X025153Y016398D01*
X025121Y016232D02*
X025153Y016201D01*
X021789Y019970D02*
X021910Y020091D01*
X022044Y020092D02*
X022165Y019970D01*
X021910Y020091D02*
Y020279D01*
X022044Y020092D02*
Y020279D01*
X022044Y019495D02*
X022165Y019616D01*
X022044Y019382D02*
Y019495D01*
Y019382D02*
X022056Y019370D01*
X021850D02*
Y019547D01*
X021789Y019616D02*
X021854Y019551D01*
X020012Y024606D02*
X020236D01*
X019951Y024667D02*
X020012Y024606D01*
X019710Y024667D02*
X019951D01*
X020012Y024862D02*
X020236D01*
X019951Y024801D02*
X020012Y024862D01*
X019710Y024801D02*
X019951D01*
X019674Y024838D02*
X019710Y024801D01*
X019674Y024631D02*
X019710Y024667D01*
X014329Y019227D02*
X014460Y019096D01*
X014593Y019096D02*
X014724Y019227D01*
X014460Y019013D02*
Y019096D01*
X014423Y018976D02*
X014460Y019013D01*
X014593Y019013D02*
Y019096D01*
Y019013D02*
X014630Y018976D01*
X014329Y019581D02*
X014460Y019712D01*
X014593Y019712D02*
X014724Y019581D01*
X014460Y019712D02*
Y019840D01*
X014422Y019878D02*
X014460Y019840D01*
X014593Y019712D02*
Y019842D01*
X014629Y019878D01*
X013632Y018366D02*
X013856D01*
X013888Y018398D01*
X013632Y018563D02*
X013856D01*
X013888Y018532D01*
X014708D01*
X014745Y018568D01*
X013888Y018398D02*
X014708D01*
X014745Y018361D01*
X013632Y017185D02*
X013908D01*
X014029Y017064D02*
X014042D01*
X013908Y017185D02*
X014029Y017064D01*
X013632Y017382D02*
X013931D01*
X014042Y017271D01*
X013632Y017776D02*
X013969D01*
X013632Y017972D02*
X013969D01*
X013632Y016594D02*
X013856D01*
X013888Y016626D01*
X013632Y016791D02*
X013856D01*
X013888Y016760D01*
X014696D01*
X014732Y016796D01*
X013888Y016626D02*
X014696D01*
X014732Y016590D01*
X011880Y016004D02*
X012104D01*
X012136Y016035D01*
X011880Y016201D02*
X012104D01*
X012136Y016169D01*
X013247D01*
X012136Y016035D02*
X013089D01*
X013140Y015984D01*
X013247Y016169D02*
X013286Y016130D01*
X013632Y015413D02*
X013856D01*
X013888Y015445D01*
X013632Y015610D02*
X013856D01*
X013888Y015579D01*
X014006D01*
X014008Y015581D01*
X013888Y015445D02*
X014061D01*
X014063Y015447D01*
X014194D01*
X014198Y015581D02*
X014232Y015615D01*
X014008Y015581D02*
X014198D01*
X014194Y015447D02*
X014232Y015408D01*
X013632Y016004D02*
X013991D01*
X013632Y016201D02*
X013991D01*
X011880Y018366D02*
X012104D01*
X012136Y018398D01*
X012222D01*
X011880Y018563D02*
X012104D01*
X012136Y018532D01*
X012278D01*
X012222Y018398D02*
X012333Y018287D01*
Y017695D02*
Y018287D01*
X012278Y018532D02*
X012467Y018343D01*
Y017750D02*
Y018343D01*
Y017750D02*
X012579Y017638D01*
X012333Y017695D02*
X012596Y017431D01*
X012579Y017638D02*
X012638D01*
X012596Y017431D02*
X012638D01*
X010650Y017559D02*
X010686Y017595D01*
X010650Y017766D02*
X010686Y017729D01*
X011381D01*
X010686Y017595D02*
X011436D01*
X011616Y017776D01*
X011880D01*
X011381Y017729D02*
X011596Y017945D01*
X011852D01*
X011880Y017972D01*
X012510Y014488D02*
X012546Y014452D01*
X012680Y014452D02*
X012717Y014488D01*
X013240Y014449D02*
X013388D01*
X013407Y014429D01*
X013632D01*
X013185Y014583D02*
X013364D01*
X013407Y014626D01*
X013632D01*
X021732Y015748D02*
Y015915D01*
X022049Y016232D01*
X022232Y021733D02*
X022328Y021636D01*
X022232Y021733D02*
Y021870D01*
X021928Y021636D02*
X022025Y021733D01*
Y021870D01*
X014692Y017249D02*
Y017411D01*
D12*
X020797Y022638D02*
G03*
X020804Y022621I000024J000000D01*
G01*
X015374Y023169D02*
Y024193D01*
Y022500D02*
Y023169D01*
X013635Y013957D02*
X013809Y013782D01*
X013632Y013957D02*
X013635D01*
X013809Y013346D02*
Y013782D01*
X013681Y013218D02*
X013809Y013346D01*
X013681Y013032D02*
Y013218D01*
Y013032D02*
X013799Y012913D01*
X012997Y012988D02*
Y013135D01*
X012776Y013357D02*
X012997Y013135D01*
X012776Y013357D02*
Y013720D01*
X013142Y014118D02*
X013439D01*
X012842Y013954D02*
X012978D01*
X013142Y014118D01*
X013183Y014020D02*
X013479D01*
X013019Y013856D02*
X013183Y014020D01*
X012911Y013856D02*
X013019D01*
X013439Y014118D02*
X013582Y014262D01*
X012677Y013789D02*
X012842Y013954D01*
X012776Y013720D02*
X012911Y013856D01*
X012677Y013218D02*
Y013789D01*
Y013218D02*
X012844Y013051D01*
X013890Y022502D02*
X014272D01*
X013760Y022372D02*
X013890Y022502D01*
X013287Y022372D02*
X013760D01*
X017894Y025276D02*
X017913Y025256D01*
X017894Y025241D02*
X018381D01*
X022628Y020728D02*
X022904D01*
X022539Y020640D02*
X022628Y020728D01*
X022047Y020640D02*
X022539D01*
X016063Y019815D02*
X016311Y019567D01*
X016063Y019815D02*
Y019842D01*
X010640Y023789D02*
X010709Y023720D01*
X011516Y020335D02*
X011880D01*
X010399Y021452D02*
X011516Y020335D01*
X010281Y021452D02*
X010399D01*
X011505Y020138D02*
X011880D01*
X010344Y021299D02*
X011505Y020138D01*
X011161Y019941D02*
X011457D01*
X010561Y020541D02*
X011161Y019941D01*
X010561Y020541D02*
Y020807D01*
X015271Y025664D02*
X015315Y025620D01*
X016811D01*
X017008Y025423D01*
Y024961D02*
Y025423D01*
Y024961D02*
X017283Y024685D01*
Y024236D02*
Y024685D01*
X024281Y018445D02*
X024291Y018435D01*
X014955Y019676D02*
X015119Y019841D01*
X010472Y017096D02*
X010612Y017236D01*
Y017273D01*
X010781Y017441D01*
X011407D01*
X010728Y017096D02*
Y017224D01*
X010829Y017325D01*
X011358D01*
X011458Y017225D01*
X011618D01*
X011407Y017441D02*
X011506Y017342D01*
X011618D01*
X011658Y017382D01*
X011880D01*
X011618Y017225D02*
X011658Y017185D01*
X011880D01*
X021639Y018273D02*
X022003Y017908D01*
Y017258D02*
Y017908D01*
X021639Y018273D02*
Y019119D01*
X025650Y015846D02*
X026142Y015354D01*
X025413Y015846D02*
X025650D01*
X026142Y014819D02*
Y015354D01*
X014400Y015906D02*
Y016417D01*
Y015906D02*
X014405Y015911D01*
X021457Y023169D02*
X021521Y023105D01*
X022239D01*
X022372Y023238D01*
X020753Y023578D02*
X020797Y023533D01*
X010344Y020659D02*
Y020768D01*
X010138Y020453D02*
X010344Y020659D01*
X010335Y021299D02*
X010344D01*
X012732Y012948D02*
X012781Y012899D01*
X012274Y012687D02*
X012534Y012948D01*
X012732D01*
X012781Y012899D02*
X012908D01*
X012997Y012988D01*
X018641Y021875D02*
X018725Y021791D01*
X015999Y021875D02*
X018641D01*
X019040Y021476D02*
X019070Y021447D01*
X019040Y021476D02*
Y021791D01*
X019016Y021815D02*
X019040Y021791D01*
X019016Y021815D02*
Y022018D01*
X018725Y021073D02*
Y021791D01*
X018819Y022215D02*
X019016Y022018D01*
X018474Y022215D02*
X018819D01*
X019990Y020009D02*
Y022283D01*
X019774Y022500D02*
X019990Y022283D01*
X019154Y022500D02*
X019774D01*
X018947Y022707D02*
X019154Y022500D01*
X019153Y021274D02*
X019336D01*
X019070Y021358D02*
Y021447D01*
Y021358D02*
X019153Y021274D01*
X016865Y022240D02*
Y022669D01*
X025079Y022047D02*
Y022313D01*
Y022007D02*
Y022047D01*
X023927Y022559D02*
X023986Y022500D01*
X024892D01*
X025079Y022313D01*
X019990Y020009D02*
X020157Y019842D01*
X019527D02*
Y019955D01*
X019384Y020098D02*
X019527Y019955D01*
X019385Y019783D02*
Y019896D01*
X019281Y020000D02*
X019385Y019896D01*
Y019783D02*
X019483Y019685D01*
X020856D02*
X020930Y019611D01*
X019483Y019685D02*
X020856D01*
X020900Y020940D02*
X020945Y020984D01*
X020389Y020940D02*
X020900D01*
X021731Y019213D02*
X022224D01*
X021731Y019212D02*
Y019213D01*
X022224D02*
X022313Y019301D01*
X021560Y019165D02*
Y019586D01*
X022313Y019301D02*
Y019409D01*
X022406Y019502D01*
Y019926D01*
X022441Y019961D01*
X021511Y018174D02*
Y019072D01*
Y018174D02*
X021850Y017834D01*
Y017402D02*
Y017834D01*
X021550Y019156D02*
X021560Y019165D01*
X021550Y019111D02*
Y019156D01*
X021511Y019072D02*
X021550Y019111D01*
X021639Y019119D02*
X021731Y019212D01*
X021551Y019595D02*
X021560Y019586D01*
X021932Y017187D02*
X022003Y017258D01*
X021551Y019595D02*
Y019708D01*
X021417Y019842D02*
X021551Y019708D01*
X010343Y018907D02*
X010518D01*
X010447Y019055D02*
X010742Y019350D01*
X010335Y019055D02*
X010447D01*
X010236Y019154D02*
X010335Y019055D01*
X010138Y019113D02*
X010343Y018907D01*
X010138Y019113D02*
Y020453D01*
X010236Y020069D02*
X010325Y020157D01*
X010236Y019154D02*
Y020069D01*
X010325Y020157D02*
X010364D01*
X010891Y024204D02*
X011026Y024339D01*
X010891Y023687D02*
Y024204D01*
X010709Y023720D02*
X010738Y023750D01*
X010807Y023603D02*
X010891Y023687D01*
X010807Y023306D02*
Y023603D01*
X010423Y023789D02*
X010640D01*
X010290Y023656D02*
X010423Y023789D01*
X010284Y023656D02*
X010290D01*
X010157Y023530D02*
X010284Y023656D01*
X010832Y022505D02*
Y023282D01*
X010807Y022480D02*
X010832Y022505D01*
X010807Y023306D02*
X010832Y023282D01*
X018957Y024961D02*
X019508Y025512D01*
Y026033D01*
X014203Y011596D02*
X014203Y011596D01*
Y011722D01*
X014334Y011853D01*
X014422D01*
X014508Y011939D01*
X014498Y011949D02*
X014508Y011939D01*
X011624Y010854D02*
Y010994D01*
Y010854D02*
X011811Y010667D01*
X013799Y012913D02*
X014094D01*
X014203Y012805D01*
Y012596D02*
Y012805D01*
X014311Y014563D02*
Y015238D01*
X013287Y010906D02*
X013376D01*
X013234Y010852D02*
X013287Y010906D01*
X013234Y010677D02*
Y010852D01*
X013218Y012785D02*
X013228Y012776D01*
X013770D01*
X013878Y012667D01*
Y012461D02*
Y012667D01*
Y012461D02*
X013967Y012372D01*
X014370D01*
X014498Y012244D01*
Y011949D02*
Y012244D01*
X011959Y012096D02*
Y012293D01*
X011821Y012431D02*
X011959Y012293D01*
X011476Y012431D02*
X011821D01*
X011587Y011596D02*
X011959D01*
X011427Y011437D02*
X011587Y011596D01*
X013976Y012096D02*
X014203D01*
X013967Y012106D02*
X013976Y012096D01*
X013878Y012018D02*
X013967Y012106D01*
X013252Y010677D02*
X013622Y010307D01*
X013234Y010677D02*
X013252D01*
X011959Y012096D02*
X012215D01*
X012274Y012156D01*
Y012687D01*
X025907Y023889D02*
X026161Y024144D01*
X025907Y023867D02*
Y023889D01*
Y024299D02*
Y024517D01*
X025450Y023841D02*
X025907Y024299D01*
X017311Y014910D02*
X017451Y015049D01*
X016129Y014910D02*
X017311D01*
X015835Y014616D02*
X016129Y014910D01*
X015728Y014616D02*
X015835D01*
X024291Y018435D02*
Y018445D01*
X014075Y019744D02*
X014075Y019745D01*
X013632Y019744D02*
X014075D01*
X019384Y020098D02*
Y021226D01*
X019336Y021274D02*
X019384Y021226D01*
X024656Y021909D02*
X024982D01*
X025079Y022007D01*
X024400Y018563D02*
X024656D01*
X022657Y017382D02*
X022904D01*
X022402Y017126D02*
X022657Y017382D01*
X022244Y017313D02*
X022392D01*
X022657Y017579D01*
X022904D01*
X022144Y017126D02*
X022402D01*
X022904Y017563D02*
Y017579D01*
X019933Y017480D02*
X020130Y017677D01*
X019724Y017480D02*
X019933D01*
X019567Y017637D02*
X019724Y017480D01*
X025354Y012598D02*
X025472Y012480D01*
X025906Y012638D02*
X026220D01*
X010635Y024213D02*
X010723Y024300D01*
X010295Y024213D02*
X010635D01*
X023646Y022467D02*
Y022992D01*
X024006Y022106D02*
X024656D01*
X026240Y018258D02*
Y018512D01*
X026248Y018520D01*
X016311Y019567D02*
X016350D01*
X019682Y019367D02*
X019842Y019527D01*
X019682Y018505D02*
Y019367D01*
X025153Y016201D02*
X025157Y016196D01*
X018381Y025241D02*
X018622Y025000D01*
X019682Y018505D02*
X019760Y018427D01*
X015118Y020472D02*
X015143Y020497D01*
X015394D01*
X014955Y018948D02*
Y019676D01*
X026248Y018520D02*
X026248Y018520D01*
X025839Y018520D02*
X026248D01*
X025354Y014409D02*
Y014426D01*
X024882Y013937D02*
X025354Y014409D01*
X026142Y013858D02*
Y014032D01*
X025657Y013374D02*
X026142Y013858D01*
X025657Y013071D02*
Y013374D01*
X026161Y015846D02*
Y016240D01*
Y015846D02*
X026181Y015866D01*
X026161Y015689D02*
Y015846D01*
X019212Y017638D02*
X019213D01*
X011535Y015615D02*
X011540Y015610D01*
X011535Y015408D02*
X011540Y015413D01*
X016311Y016759D02*
Y017047D01*
X015799Y016063D02*
X016142Y016406D01*
X015776Y016063D02*
X015799D01*
X016063Y016693D02*
X016142Y016614D01*
Y016406D02*
Y016614D01*
X016311Y016759D02*
X016378Y016693D01*
X015905Y015591D02*
X016063Y015748D01*
X011880Y019154D02*
X011895D01*
X011658D02*
X011880D01*
X019055Y020079D02*
Y020831D01*
X010518Y018907D02*
X010823Y019213D01*
X011634Y018957D02*
X011880D01*
X019527Y017637D02*
X019567D01*
X018725Y021073D02*
X018868Y020930D01*
X018956D01*
X019055Y020831D01*
Y020079D02*
X019134Y020000D01*
X019281D01*
X020930Y019385D02*
Y019611D01*
Y019385D02*
X021102Y019212D01*
X020315Y020428D02*
X020413Y020330D01*
X020576D01*
X020748Y020157D01*
X020787D01*
X024995Y017579D02*
X025000Y017584D01*
X024995Y017382D02*
X025000Y017377D01*
X025153Y016398D02*
X025157Y016403D01*
X013917Y020138D02*
X014094Y020315D01*
X013632Y020138D02*
X013917D01*
X013878Y020335D02*
X014094Y020551D01*
X013632Y020335D02*
X013878D01*
X023646Y022467D02*
X024006Y022106D01*
X016689Y021414D02*
X016693Y021417D01*
X013969Y017776D02*
X013974Y017771D01*
X013969Y017972D02*
X013974Y017977D01*
X025194Y024219D02*
X025450D01*
X016772Y026280D02*
Y026299D01*
X020315Y020428D02*
Y020866D01*
X014764Y015591D02*
X015905D01*
X014724Y015630D02*
X014764Y015591D01*
X022040Y017022D02*
X022144Y017126D01*
X015512Y022362D02*
X015512Y022362D01*
X015374Y022500D02*
X015512Y022362D01*
X015271Y026043D02*
X015566Y026339D01*
X015669D01*
X020315Y020866D02*
X020389Y020940D01*
X018701Y022825D02*
Y022972D01*
X018947Y022707D02*
Y022923D01*
X014421Y018720D02*
X014727D01*
X014955Y018948D01*
X013922Y019219D02*
X014421Y018720D01*
X016865Y022669D02*
X017165Y022969D01*
Y023563D01*
X017047Y023681D02*
X017165Y023563D01*
X016747Y023676D02*
X016973D01*
X016978Y023681D01*
X017047D01*
X016693Y023622D02*
X016747Y023676D01*
X020847Y018427D02*
X020959Y018314D01*
X025157Y012795D02*
X025287Y012925D01*
Y013071D01*
X021753Y017022D02*
X022040D01*
X020959Y017879D02*
Y018314D01*
Y017879D02*
X021043Y017795D01*
X021535D01*
X021673Y017657D01*
Y017101D02*
Y017657D01*
Y017101D02*
X021753Y017022D01*
X017894Y025241D02*
Y025276D01*
X021929Y011531D02*
X022142Y011319D01*
X022333D01*
X019468Y010787D02*
X019468Y010787D01*
X020350Y011223D02*
X020621D01*
X020929Y011531D01*
X019468Y010404D02*
Y010787D01*
X011545Y016590D02*
X011550Y016594D01*
X011545Y016796D02*
X011550Y016791D01*
X011526Y014818D02*
X011531Y014823D01*
X011526Y015025D02*
X011531Y015020D01*
X011880Y019547D02*
X011880Y019547D01*
X011654Y019744D02*
X011880D01*
X011654Y019744D02*
X011654Y019744D01*
X011457Y019941D02*
X011654Y019744D01*
X013991Y016004D02*
X013996Y015999D01*
X013991Y016201D02*
X013996Y016206D01*
X014311Y015238D02*
X014405Y015331D01*
Y015911D01*
X018278Y010657D02*
X018453D01*
X018543Y010748D01*
X010965Y019783D02*
X011339D01*
X010354Y020394D02*
X010364D01*
X010157Y021575D02*
X010281Y021452D01*
X010157Y021575D02*
Y023530D01*
X011201Y024587D02*
Y024803D01*
X010433Y023041D02*
Y023386D01*
X019760Y018427D02*
X020847D01*
X020138Y011012D02*
X020350Y011223D01*
X020138Y010738D02*
Y010758D01*
Y011012D01*
X021093Y023878D02*
Y024006D01*
X016865Y022240D02*
X017018Y022087D01*
X018346D01*
X018474Y022215D01*
X015512Y022362D02*
X015999Y021875D01*
X021093Y023878D02*
X021233Y023737D01*
X021281D01*
X021455Y023563D01*
X021457D01*
Y023169D02*
Y023563D01*
X025354Y012598D02*
X025657Y012902D01*
Y013071D01*
X011624Y010994D02*
X011726Y011096D01*
X011959D01*
X014010Y014262D02*
X014311Y014563D01*
X014134Y014114D02*
X014567Y014547D01*
Y016339D01*
X013479Y014020D02*
X013574Y014114D01*
X014134D01*
X013582Y014262D02*
X014010D01*
X010335Y021033D02*
Y021093D01*
Y021033D02*
X010561Y020807D01*
X014567Y016339D02*
X014626Y016398D01*
X020945Y020984D02*
Y022480D01*
X013922Y019219D02*
Y019455D01*
X013912Y019464D02*
X013922Y019455D01*
X013912Y019464D02*
Y019503D01*
X013868Y019547D02*
X013912Y019503D01*
X013632Y019547D02*
X013868D01*
X016090Y017664D02*
X016311Y017443D01*
Y017047D02*
Y017443D01*
X015271Y025664D02*
Y026043D01*
X017077Y023986D02*
X017402Y023661D01*
X018012D01*
X018701Y022972D01*
X017283Y024236D02*
X017701Y023819D01*
X018051D01*
X018947Y022923D01*
X019350Y025138D02*
X019508D01*
X020000Y025630D01*
Y026033D01*
X018013Y010393D02*
X018278Y010657D01*
X017964Y010393D02*
X018013D01*
X017872Y010301D02*
X017964Y010393D01*
X013632Y018957D02*
X013923D01*
X014012Y018868D01*
X013622Y010677D02*
X013878Y010933D01*
Y012018D01*
X024882Y013476D02*
Y013937D01*
Y013476D02*
X025287Y013071D01*
X025472Y012480D02*
X025974D01*
X026240Y012215D01*
Y012028D02*
Y012215D01*
X018907Y017055D02*
X018945D01*
X019066Y017176D01*
Y017190D01*
X019185Y017309D01*
X011339Y019783D02*
X011575Y019547D01*
X011880D01*
X010823Y019213D02*
X011378D01*
X011634Y018957D01*
X010742Y019350D02*
X011461D01*
X011658Y019154D01*
X020804Y022621D02*
X020945Y022480D01*
X020797Y022638D02*
Y023533D01*
X020804Y022621D02*
X020804Y022621D01*
X024783Y023091D02*
Y023396D01*
X025049Y023661D01*
Y024075D01*
X025194Y024219D01*
X010354Y020394D02*
X010965Y019783D01*
D13*
X020804Y022621D02*
D03*
D14*
X020974Y022923D02*
X021142Y022756D01*
X020581Y025118D02*
X020965Y024734D01*
X020581Y024350D02*
X020965Y024734D01*
X021122Y020807D02*
X021496D01*
X025306Y018366D02*
X025558Y018617D01*
X022539Y017697D02*
X022618Y017776D01*
X020797Y017047D02*
X021062D01*
X023219Y011407D02*
Y011821D01*
X022205Y014435D02*
X022593Y014823D01*
X020414Y021732D02*
X020472Y021673D01*
X019203Y021742D02*
Y021959D01*
X017309Y025394D02*
Y025762D01*
X016116Y025390D02*
Y025413D01*
X015919Y025216D02*
X016116Y025413D01*
X015865Y025216D02*
X015919D01*
X014331Y023907D02*
Y024124D01*
X016348Y021073D02*
X016348Y020827D01*
X016346Y020825D02*
X016348Y020827D01*
X016344Y020823D02*
X016346Y020825D01*
X016344Y019882D02*
X016344Y020413D01*
X015236Y018976D02*
X015406D01*
X017893Y016437D02*
Y016968D01*
X020177Y014646D02*
X020728Y015197D01*
X020177Y014449D02*
Y014646D01*
X014468Y014104D02*
X014921Y014557D01*
X015474Y010801D02*
X015720Y011047D01*
X018896Y017892D02*
Y018268D01*
X016722Y019872D02*
X017008Y020157D01*
X017008Y018268D02*
X017028D01*
X016728Y018862D02*
X017008Y018582D01*
X017008Y018268D02*
Y018268D01*
X016742Y017588D02*
X017008Y017323D01*
X020256Y021319D02*
X020472D01*
X021102Y015159D02*
Y015433D01*
X020551Y017402D02*
X020797D01*
X021732Y022667D02*
X021919Y022854D01*
X020512Y022047D02*
X020787Y022047D01*
X020486Y022047D02*
X020512D01*
X014843Y022198D02*
X015282D01*
X021414Y017366D02*
Y017635D01*
X016849Y015243D02*
X016968Y015362D01*
X014652Y020322D02*
X015118Y020787D01*
X015818Y017005D02*
Y017078D01*
X015128Y016683D02*
Y016693D01*
X015753Y015039D02*
Y015236D01*
X010610Y011909D02*
X011388D01*
X010458Y019651D02*
X010738D01*
X022904Y014203D02*
X022972Y014134D01*
X017628Y016452D02*
X018174Y015906D01*
X018209D01*
X017539Y016614D02*
X017637Y016712D01*
X017539Y016614D02*
X017628Y016525D01*
X017461Y015381D02*
X017585Y015506D01*
X015753Y015236D02*
X015984D01*
X016116Y025390D02*
X016417Y025089D01*
X011447Y011968D02*
Y012185D01*
X011388Y011909D02*
X011447Y011968D01*
X019537Y011368D02*
X019766D01*
X015474Y010602D02*
Y010801D01*
X015423Y010551D02*
X015474Y010602D01*
X015187Y010551D02*
X015423D01*
X017585Y015506D02*
X017774D01*
X017878Y015610D02*
X018174Y015906D01*
X017878Y015610D02*
X017878D01*
X017774Y015506D02*
X017878Y015610D01*
X017628Y016452D02*
Y016525D01*
X012785Y020531D02*
X013632D01*
X012608Y020709D02*
X012785Y020531D01*
X017214Y025857D02*
X017309Y025762D01*
X016866Y025857D02*
X017214D01*
X022403Y018365D02*
X022623D01*
X022343Y018425D02*
X022403Y018365D01*
X022264Y018425D02*
X022343D01*
X017933Y018572D02*
Y018602D01*
X019812Y020472D02*
X019842Y020502D01*
X019527Y020472D02*
X019812D01*
X011226Y017116D02*
X011354Y016988D01*
X011161Y017116D02*
X011181D01*
X011226D01*
X021969Y023661D02*
X022234Y023396D01*
X021693Y023661D02*
X021969D01*
X021693Y023307D02*
X022018D01*
X021693Y023661D02*
Y023839D01*
Y023622D02*
Y023661D01*
X022018Y023307D02*
X022067Y023258D01*
X021526Y024006D02*
X021693Y023839D01*
X021348Y024006D02*
X021526D01*
X019764Y024311D02*
X019803Y024350D01*
X020236D01*
X018514Y021663D02*
X018582Y021732D01*
X019203Y022313D02*
X019213D01*
X019203Y021742D02*
X019212Y021732D01*
X017637Y020472D02*
X017657Y020492D01*
Y020787D01*
X017303Y020787D02*
X017322Y020768D01*
Y020472D02*
Y020768D01*
X017952Y021102D02*
X018159Y021309D01*
X018189D01*
X021969Y022087D02*
X022165Y022283D01*
X021969Y022079D02*
Y022087D01*
X022165Y022283D02*
Y022510D01*
X020748Y018858D02*
X020787Y018897D01*
X020522Y018858D02*
X020748D01*
X020157Y018898D02*
X020472Y019212D01*
X020138Y018898D02*
X020157D01*
X022480Y019360D02*
X022490Y019350D01*
X022904D01*
X018582Y019842D02*
X018878D01*
X018898Y019862D01*
X018897Y019212D02*
X018898Y019213D01*
Y019508D01*
X010423Y019685D02*
X010458Y019651D01*
X010738Y019587D02*
Y019651D01*
X013375Y018169D02*
X013632D01*
X013335Y018130D02*
X013375Y018169D01*
X013327Y018130D02*
X013335D01*
X015403Y017293D02*
X015433Y017323D01*
X015403Y017008D02*
Y017293D01*
X011354Y016988D02*
X011880D01*
X014626Y010640D02*
Y010955D01*
X015218Y011547D01*
X012941Y010307D02*
X013234D01*
X012756Y010492D02*
X012941Y010307D01*
X014232Y010787D02*
X014301Y010856D01*
X014232Y010482D02*
Y010787D01*
X014065Y010315D02*
X014232Y010482D01*
X013996Y010315D02*
X014065D01*
X015118Y010551D02*
X015187D01*
X011496Y010295D02*
X011498Y010297D01*
X011762D01*
X011949Y013110D02*
X011959Y013100D01*
Y012596D02*
Y013100D01*
X012431Y015807D02*
X012480Y015758D01*
X011880Y015807D02*
X012431D01*
X013150Y015669D02*
X013287Y015807D01*
X013150Y015118D02*
Y015669D01*
X013032Y015000D02*
X013150Y015118D01*
X012815Y015217D02*
X013032Y015000D01*
X012254Y015217D02*
X012815D01*
X022165Y022510D02*
X022382Y022726D01*
X019842Y020873D02*
Y021102D01*
X021693Y024163D02*
Y024350D01*
X021693Y024163D02*
X021693Y024163D01*
X021693Y025305D02*
X021693Y025305D01*
X021693Y025118D02*
Y025305D01*
X019842Y025118D02*
X020236Y025118D01*
Y024350D02*
X020581D01*
X016486Y014370D02*
X016496Y014380D01*
X016467Y014350D02*
X016486Y014370D01*
X016849Y015243D02*
Y015325D01*
Y015107D02*
Y015243D01*
X016839Y015233D02*
X016849Y015243D01*
X016791Y015049D02*
X016849Y015107D01*
X011880Y020925D02*
X013632D01*
X011880Y021319D02*
Y021516D01*
X022274Y015669D02*
X022303D01*
X018116Y024556D02*
X018307D01*
X015866Y023846D02*
Y024129D01*
X017589Y024429D02*
Y024724D01*
X020728Y022421D02*
X020787Y022362D01*
X020512Y022421D02*
X020728D01*
X021102Y021417D02*
X021122Y021437D01*
X021486D01*
X025614Y021293D02*
X025630Y021309D01*
X025039Y021293D02*
X025614D01*
X022618Y017776D02*
X022904D01*
X023366Y017185D02*
X023455Y017096D01*
X022530Y017707D02*
Y017707D01*
Y017707D02*
X022539Y017697D01*
X017047Y016378D02*
Y016421D01*
X014866Y016358D02*
X015039D01*
X025354Y017185D02*
X025650Y017480D01*
X025157Y017185D02*
X025354D01*
X017637Y016712D02*
Y017323D01*
X017585Y011181D02*
X018303D01*
X016024Y026195D02*
X016077D01*
X016124Y026148D01*
X016485Y015955D02*
X016693D01*
X016378Y016063D02*
X016485Y015955D01*
X015039Y015827D02*
Y015925D01*
Y015827D02*
X015118Y015748D01*
X015157Y016653D02*
X015403D01*
X015128Y016683D02*
X015157Y016653D01*
X018602Y018584D02*
Y018584D01*
Y018584D02*
X018602Y018582D01*
X015861Y023841D02*
X015866Y023846D01*
X019842Y017638D02*
Y017658D01*
X025463Y021713D02*
X025557Y021618D01*
X015118Y016693D02*
X015128Y016683D01*
X017872Y010671D02*
X017872D01*
X017717Y010827D02*
X017872Y010671D01*
X017717Y010827D02*
Y010827D01*
X018267Y018582D02*
X018582D01*
X020683Y010785D02*
X020699Y010801D01*
X020760Y011032D02*
X020929D01*
X013996Y021713D02*
X014055Y021772D01*
X013632Y021713D02*
X013996D01*
X016358Y018288D02*
Y018819D01*
X024656Y021713D02*
X025463D01*
X016693Y016397D02*
Y016693D01*
X017992Y020197D02*
X018209D01*
X017952Y020157D02*
X017992Y020197D01*
X018858Y020197D02*
X018897Y020157D01*
X018563Y020197D02*
X018858D01*
X019547Y017953D02*
X019842Y017658D01*
X019193Y017953D02*
Y018248D01*
X019212Y018268D01*
X016063Y018582D02*
X016063Y018583D01*
Y018917D01*
X016063Y019527D02*
X016063Y019527D01*
Y019272D02*
Y019527D01*
X016338Y018268D02*
X016358Y018288D01*
X018209Y017381D02*
X018267Y017323D01*
X018209Y017381D02*
Y017559D01*
X016712Y018862D02*
X016728D01*
X025381Y019941D02*
X025562Y020121D01*
X024656Y019941D02*
X025381D01*
X025562Y020121D02*
X025585D01*
X017342Y018878D02*
X017637Y018582D01*
X017342Y018878D02*
Y018897D01*
X022904Y020531D02*
X023209D01*
X017933Y018602D02*
Y018897D01*
X013632Y015020D02*
Y015217D01*
Y014823D02*
Y015020D01*
X017893Y016437D02*
X017952Y016378D01*
X012776Y019350D02*
X013632D01*
X012520Y019094D02*
Y019370D01*
Y019094D02*
X012854Y018760D01*
X013632D01*
X015394Y019881D02*
X015433Y019842D01*
X015394Y019881D02*
Y020127D01*
X021496Y020807D02*
Y021049D01*
Y020768D02*
Y020807D01*
X021929Y018760D02*
Y018898D01*
X026248Y019147D02*
X026328Y019227D01*
X026248Y018890D02*
Y019147D01*
X015118Y019095D02*
Y019527D01*
X025551Y018976D02*
X025638Y018890D01*
X025839D01*
X022904Y017185D02*
X023366D01*
X017893Y016968D02*
X017913Y016988D01*
X015866Y018464D02*
X015945D01*
X015590D02*
X015866D01*
X016338Y018268D02*
Y018504D01*
X016299Y018543D02*
X016338Y018504D01*
X016102Y018543D02*
X016299D01*
X016063Y018582D02*
X016102Y018543D01*
X015945Y018464D02*
X016063Y018582D01*
X015118Y015748D02*
X015433D01*
X016693Y016693D02*
Y017036D01*
X016681Y017047D02*
X016693Y017036D01*
X015039Y016358D02*
X015202D01*
X015406Y016154D01*
Y016063D02*
Y016154D01*
X016142Y016035D02*
X016350D01*
X016338Y018268D02*
X016351Y018255D01*
X017027Y016378D02*
X017047D01*
X015748Y016378D02*
Y016619D01*
X015779Y016651D01*
X015403Y016653D02*
X015443D01*
X025415Y018760D02*
X025557Y018618D01*
X025558Y018617D01*
X016344Y020413D02*
Y020433D01*
X017008Y019508D02*
Y019527D01*
X015118Y019095D02*
X015236Y018976D01*
X015747Y019212D02*
X015776Y019184D01*
Y018976D02*
Y019184D01*
X017717Y010827D02*
X017872Y010671D01*
X022904Y019941D02*
X024656D01*
X011509Y018760D02*
X011880D01*
X011342Y018927D02*
X011509Y018760D01*
X011299Y018927D02*
X011342D01*
X011299Y018927D02*
X011299Y018927D01*
X010886Y018927D02*
X011299D01*
X021220Y022579D02*
X021417Y022382D01*
X017559Y023046D02*
X017574Y023061D01*
X017608D01*
X015644Y025965D02*
X015750Y025859D01*
X015451Y025965D02*
X015644D01*
X021417Y021733D02*
X021417Y021733D01*
Y022028D01*
X019212Y018957D02*
Y019212D01*
X017322Y017953D02*
X017382Y018012D01*
Y018268D01*
X017008Y017953D02*
Y018268D01*
X016693D02*
X017008D01*
X018267Y019212D02*
X018582D01*
X015818Y017078D02*
X016063Y017323D01*
X024656Y017185D02*
X025157Y017185D01*
X024656Y017776D02*
X025684D01*
X022573Y016575D02*
X022593Y016594D01*
X022067Y016575D02*
X022573D01*
X021712D02*
Y016765D01*
X021797Y016850D01*
X015433Y019212D02*
Y019389D01*
X025706Y020531D02*
X026067Y020171D01*
X024656Y020531D02*
X025706D01*
X025274Y019350D02*
X025702Y019778D01*
X024656Y019350D02*
X025274D01*
X021414Y017635D02*
X021417Y017638D01*
X021102Y017008D02*
X021411D01*
X021414Y017011D01*
X022624Y018366D02*
X022904D01*
X018582Y018917D02*
Y019212D01*
X012785Y019941D02*
X013632D01*
X016241Y021102D02*
X016378Y021102D01*
X016097Y021246D02*
X016241Y021102D01*
X016097Y021246D02*
Y021414D01*
X016451D02*
X016689D01*
X011895Y017579D02*
X012215D01*
X019212Y021732D02*
X019225Y021720D01*
X019586D01*
X021102Y021732D02*
X021116Y021746D01*
X024656Y018366D02*
X025306D01*
X024656Y016594D02*
X024966D01*
X022593D02*
X022904D01*
X022593Y014823D02*
X022904D01*
X024656Y021122D02*
X024868D01*
X025039Y021293D01*
X024656Y015610D02*
X024966D01*
X022593Y015020D02*
X022904D01*
X024656D02*
Y015217D01*
X022593Y015610D02*
X022904D01*
Y015807D01*
Y015020D02*
Y015217D01*
X024656Y015610D02*
Y015807D01*
X013223Y021142D02*
X013243Y021122D01*
X011181Y023386D02*
Y023819D01*
X012136Y023839D02*
X012268Y023970D01*
X011201Y023839D02*
X012136D01*
X025450Y023471D02*
X025748D01*
X025152Y024589D02*
X025450D01*
X017972Y016358D02*
X018267D01*
X016124Y025859D02*
Y026148D01*
X016496Y025873D02*
X016511Y025857D01*
X016496Y025873D02*
Y026195D01*
X015818Y017005D02*
X015821Y017008D01*
X015118Y016693D02*
X015123Y016688D01*
X015590Y018464D02*
X015866Y018464D01*
X020787Y017953D02*
X020807Y017933D01*
X017322Y017342D02*
Y017638D01*
X016344Y020433D02*
X016344Y020433D01*
X018267Y016712D02*
X018287Y016693D01*
X018582D01*
X019212Y019212D02*
X019232Y019232D01*
X021102Y021417D02*
X021122Y021397D01*
X021102Y020787D02*
X021122Y020768D01*
Y020472D02*
Y020768D01*
X020767Y020472D02*
Y020768D01*
X019527Y020472D02*
X019543Y020488D01*
X016472Y010801D02*
X016718Y011047D01*
X018268Y012756D02*
X018303Y012720D01*
Y011811D02*
Y012720D01*
X018878Y010776D02*
Y011236D01*
X020429Y012531D02*
X020675Y012285D01*
X021183D02*
X021429Y012531D01*
X019683Y011785D02*
X019929Y012032D01*
X019683Y012285D02*
X019929Y012531D01*
X020183Y011782D02*
X020429Y012028D01*
X021183Y011785D02*
X021429Y012032D01*
X021935Y012531D02*
X022181Y012285D01*
X017219Y012047D02*
X017465Y011801D01*
X017224Y012547D02*
X017470Y012301D01*
X016472Y011801D02*
X016718Y012047D01*
X015472Y011798D02*
X015718Y012044D01*
X014972Y012301D02*
X015218Y012547D01*
X017219Y011547D02*
X017585Y011181D01*
X016718Y011547D02*
X016965Y011301D01*
X014972Y011801D02*
X015218Y012047D01*
X016472Y012301D02*
X016718Y012547D01*
X015718D02*
X015965Y012301D01*
X011880Y020531D02*
X012269D01*
X015460Y020815D02*
Y021082D01*
X015433Y020787D02*
X015460Y020815D01*
X016348Y021073D02*
X016378Y021102D01*
X015460Y021437D02*
X015728D01*
X015748Y021417D01*
X011895Y019941D02*
X012269D01*
X019527Y021102D02*
X019527Y021102D01*
X019842Y021102D02*
X019857Y021088D01*
X016699Y020433D02*
X016968D01*
X017008Y020472D01*
X016344Y020433D02*
Y020823D01*
X015748Y020492D02*
X016043Y020492D01*
X016063Y020472D01*
X015748Y019842D02*
Y020138D01*
X015748Y019842D02*
X015748Y019842D01*
X016350Y016035D02*
X016378Y016063D01*
X015748Y016378D02*
X015748Y016378D01*
X015433Y017323D02*
X015443Y017313D01*
X017933Y018602D02*
X017952Y018582D01*
X016342Y018862D02*
X016358Y018862D01*
X017322Y018917D02*
Y019212D01*
Y018917D02*
X017342Y018897D01*
X015699Y014986D02*
Y015030D01*
X013632Y022106D02*
X013986D01*
X013278Y021909D02*
X013632D01*
Y021516D02*
X013986D01*
X013632Y021319D02*
X013986D01*
X013632Y020728D02*
Y020925D01*
X014183D01*
X011880Y018760D02*
X012146D01*
X012285Y018899D01*
Y019350D01*
X011880D02*
X012285D01*
X013243Y021122D02*
X013632D01*
X013647D01*
X011880Y020728D02*
Y020925D01*
X021929Y018760D02*
X022264Y018425D01*
X020925Y018760D02*
X021220D01*
X020787Y018897D02*
X020925Y018760D01*
X021122Y020472D02*
X021142Y020452D01*
X015282Y022198D02*
X015433Y022047D01*
X021732Y022362D02*
Y022667D01*
X021496Y020807D02*
X021496Y020807D01*
X021102Y020787D02*
X021122Y020807D01*
X024656Y018760D02*
X025415D01*
X020158Y021732D02*
X020414D01*
X020158Y021417D02*
X020256Y021319D01*
X015919Y024807D02*
Y025216D01*
X022904Y021713D02*
X023287D01*
X022904Y021122D02*
X023287D01*
X023425Y021260D01*
Y021575D01*
X023287Y021713D02*
X023425Y021575D01*
X022593Y021122D02*
X022904D01*
X022480Y021010D02*
X022593Y021122D01*
X021496Y020236D02*
Y020413D01*
X021417Y020157D02*
X021496Y020236D01*
X022904Y018760D02*
X023248D01*
X023346Y018661D01*
Y018465D02*
Y018661D01*
X023248Y018366D02*
X023346Y018465D01*
X022904Y018366D02*
X023248D01*
X024656Y014823D02*
X025531D01*
X025354Y013740D02*
X025758Y014144D01*
X025354Y013638D02*
Y013740D01*
X025758Y014144D02*
Y014596D01*
X025531Y014823D02*
X025758Y014596D01*
X022165Y015276D02*
X022303Y015413D01*
X022904D01*
X016702Y020827D02*
X016968D01*
X017008Y020787D01*
X021102Y015159D02*
X021102Y015159D01*
X015236Y017756D02*
X015590D01*
X015118Y017638D02*
X015236Y017756D01*
X015096Y023816D02*
Y024161D01*
X015571Y023819D02*
Y024478D01*
X015571Y024478D01*
X016467Y013770D02*
Y014350D01*
X024360Y015413D02*
X024656D01*
X024409Y016004D02*
X024656D01*
X024321Y015915D02*
X024409Y016004D01*
X024321Y015453D02*
Y015915D01*
Y015453D02*
X024350Y015423D01*
X024360Y015413D01*
X024301Y015089D02*
X024370Y015020D01*
X024656D01*
X017008Y022362D02*
X017013Y022367D01*
Y022643D01*
X024656Y014429D02*
Y014626D01*
Y014626D01*
Y014626D02*
X024990D01*
X024999Y014617D01*
X014331Y023681D02*
X014843Y023169D01*
Y022894D02*
Y023169D01*
X014331Y023681D02*
Y023907D01*
X013915Y022872D02*
X014272D01*
X013839Y022795D02*
X013915Y022872D01*
X022165Y014646D02*
X022205Y014606D01*
X022165Y014646D02*
Y015276D01*
X023455Y016841D02*
Y017096D01*
X015984Y015236D02*
X016171Y015049D01*
X016791D01*
X015630Y015039D02*
X015753D01*
X015699Y014986D02*
X015753Y015039D01*
X015763Y015049D01*
X013632Y019154D02*
Y019350D01*
X021929Y012032D02*
X022175Y011785D01*
X020472Y017323D02*
X020551Y017402D01*
X021062Y017047D02*
X021102Y017008D01*
X019578Y016063D02*
X019842D01*
X019272Y015757D02*
X019578Y016063D01*
X019272Y015718D02*
Y015757D01*
X018917Y015650D02*
Y015718D01*
Y015650D02*
X019134Y015433D01*
X019212D01*
X022766Y010718D02*
X023356D01*
X023770Y012583D02*
Y012657D01*
X024213Y013100D01*
X023882Y012333D02*
X024400D01*
X023770Y012220D02*
X023882Y012333D01*
X021429Y011032D02*
X021494D01*
X021703Y011240D01*
X020689Y010532D02*
X020978Y010243D01*
X020689Y010532D02*
Y010780D01*
X020683Y010785D02*
X020689Y010780D01*
X020699Y010801D02*
Y010970D01*
X020760Y011032D01*
X020429D02*
X020760D01*
X020929D02*
X021112Y011215D01*
Y011280D01*
X020559Y010785D02*
X020683D01*
X020177Y010404D02*
X020559Y010785D01*
X019823Y010404D02*
X020177D01*
X025000Y012283D02*
X025335D01*
X024843Y012441D02*
X025000Y012283D01*
X014035Y019941D02*
X014075Y019981D01*
X013632Y019941D02*
X014035D01*
X011880Y015217D02*
X011890Y015226D01*
X012215Y017579D02*
X012215Y017579D01*
X010827Y021329D02*
X011033Y021122D01*
X011880D01*
X011132Y021516D02*
X011132Y021516D01*
X011132Y021516D02*
X011880D01*
X010797Y021693D02*
Y022096D01*
X013002Y016663D02*
Y016939D01*
Y016663D02*
X013268Y016398D01*
X013632D01*
X013287Y015807D02*
X013632D01*
X011880Y015217D02*
X012254D01*
Y015217D02*
Y015217D01*
X013002Y016939D02*
X013051Y016988D01*
X013632D01*
Y015020D02*
X013947D01*
X011614Y016398D02*
X011880D01*
X011545Y016329D02*
X011614Y016398D01*
X018278Y010303D02*
X018650D01*
X018878Y010532D01*
Y010776D01*
X017952Y020472D02*
X018090Y020610D01*
X018268D01*
X018444D01*
X018582Y020472D01*
X017047Y016378D02*
X017322D01*
X017322Y016378D01*
X017717Y018159D02*
X017943Y017933D01*
X017717Y018159D02*
Y018356D01*
X017933Y018572D01*
X018297Y017933D02*
Y018553D01*
X018267Y018582D02*
X018297Y018553D01*
X017933Y019232D02*
X018189Y019488D01*
X017933Y018898D02*
Y019232D01*
X021142Y022579D02*
Y022756D01*
X015972Y010801D02*
Y010982D01*
X016024Y011033D01*
X016205D01*
X016219Y011047D01*
X019144Y022825D02*
X019301Y022982D01*
X020404D01*
X019213Y022313D02*
X019409D01*
X019527Y022195D01*
Y022047D02*
Y022195D01*
X018189Y021663D02*
X018228D01*
X018514D01*
X017913Y017343D02*
Y017599D01*
X017952Y017638D01*
X021449Y010581D02*
Y010740D01*
X020978Y010243D02*
X021463D01*
X021502D01*
X023219Y011407D02*
X023219D01*
X021449Y010740D02*
X021514Y010805D01*
X021523D01*
X021594Y010876D01*
X021713D01*
X013632Y017579D02*
X013632Y017579D01*
X013218Y017579D02*
X013632D01*
X013218Y018022D02*
X013327Y018130D01*
X014055Y011339D02*
X014144D01*
X014203Y011280D01*
Y011096D02*
Y011280D01*
X014764Y016256D02*
X014866Y016358D01*
X014764Y016220D02*
Y016256D01*
X013218Y017579D02*
Y018022D01*
X022904Y014429D02*
Y014626D01*
Y014203D02*
Y014429D01*
X018307Y024556D02*
X018436Y024685D01*
X018474D01*
X018116Y024910D02*
X018117Y024911D01*
X018415D01*
X016063Y018111D02*
Y018268D01*
X022904Y016594D02*
X023209D01*
X023425Y016811D01*
X022303Y015669D02*
X022638Y016004D01*
X022904D01*
X021486Y021437D02*
X021621Y021572D01*
Y021739D01*
X018563Y017559D02*
X018896Y017892D01*
X016063Y018111D02*
X016247Y017926D01*
X016351D01*
X014921Y014557D02*
Y015039D01*
X014468Y014104D02*
X014478Y014094D01*
Y014094D02*
Y014094D01*
X017013Y022643D02*
X017185Y022815D01*
X017451D01*
X017559Y022923D01*
Y022913D02*
Y022923D01*
Y023046D01*
X015925Y023150D02*
Y023337D01*
Y023150D02*
X015994Y023081D01*
X016506D01*
X020236Y025118D02*
X020581Y025118D01*
X017309Y025004D02*
Y025028D01*
Y025004D02*
X017589Y024724D01*
X021621Y021739D02*
X021783Y021901D01*
Y021930D01*
X021860Y021969D02*
X021969Y022079D01*
X021783Y021930D02*
X021821Y021969D01*
X021860D01*
X013996Y010669D02*
X014065Y010738D01*
Y010857D01*
X014134Y010926D01*
X010797Y021693D02*
X011033D01*
X011063Y021722D01*
Y021811D01*
X014134Y010926D02*
Y011028D01*
X014203Y011096D01*
X019766Y011368D02*
X019929Y011531D01*
X011368Y018376D02*
X011545Y018199D01*
X011368Y018376D02*
Y018504D01*
X011299Y018573D02*
X011368Y018504D01*
X014641Y021471D02*
X014903Y021732D01*
X015118D01*
X017319Y025394D02*
X017421D01*
X017539Y025276D01*
X016693Y016693D02*
X016831D01*
X017126Y016988D01*
X017322D01*
X018582Y018917D02*
X018583Y018896D01*
X018582Y018582D02*
Y018917D01*
X018583Y018896D02*
X018602Y018584D01*
X019665Y013936D02*
X020177Y014449D01*
X019665Y013701D02*
Y013936D01*
X019585Y013622D02*
X019665Y013701D01*
X024370Y020728D02*
X024656D01*
X024321Y020679D02*
X024370Y020728D01*
X023356Y020679D02*
X024321D01*
X023209Y020531D02*
X023356Y020679D01*
D15*
X022746Y024793D02*
X023091D01*
X024026Y025728D02*
X024415Y026118D01*
X023600Y025728D02*
X024026D01*
X023004Y025502D02*
X023230Y025728D01*
X022835Y025502D02*
X023004D01*
X023091Y024793D02*
X023415Y025118D01*
D16*
X018494Y025846D02*
D03*
X015374Y023169D02*
D03*
X021516Y026073D02*
D03*
X015218Y013047D02*
D03*
Y012547D02*
D03*
Y012047D02*
D03*
Y011547D02*
D03*
Y011047D02*
D03*
X015718Y013047D02*
D03*
Y012547D02*
D03*
X015719Y012047D02*
D03*
X015718Y011547D02*
D03*
Y011047D02*
D03*
X016219Y013047D02*
D03*
Y012547D02*
D03*
Y012047D02*
D03*
Y011547D02*
D03*
Y011047D02*
D03*
X016718Y013047D02*
D03*
Y012547D02*
D03*
X016718Y012047D02*
D03*
X016718Y011547D02*
D03*
Y011047D02*
D03*
X017219Y013047D02*
D03*
Y012547D02*
D03*
Y012047D02*
D03*
Y011547D02*
D03*
Y011047D02*
D03*
X019929Y013032D02*
D03*
Y012531D02*
D03*
Y012032D02*
D03*
Y011531D02*
D03*
Y011032D02*
D03*
X020429Y013032D02*
D03*
Y012531D02*
D03*
X020429Y012032D02*
D03*
X020429Y011531D02*
D03*
Y011032D02*
D03*
X020929Y013032D02*
D03*
Y012531D02*
D03*
Y012032D02*
D03*
Y011531D02*
D03*
Y011032D02*
D03*
X021429Y013032D02*
D03*
Y012531D02*
D03*
X021429Y012032D02*
D03*
X021429Y011531D02*
D03*
Y011032D02*
D03*
X021929Y013032D02*
D03*
Y012531D02*
D03*
Y012032D02*
D03*
Y011531D02*
D03*
Y011032D02*
D03*
D17*
X024400Y012333D02*
D03*
D18*
X010433Y023386D02*
D03*
X011181D02*
D03*
X010807Y022480D02*
D03*
D19*
X013234Y010677D02*
D03*
Y010307D02*
D03*
X013622D02*
D03*
X013622Y010677D02*
D03*
X014272Y022502D02*
D03*
Y022872D02*
D03*
X026248Y018520D02*
D03*
Y018890D02*
D03*
X025839Y018890D02*
D03*
Y018520D02*
D03*
X016142Y016035D02*
D03*
Y016406D02*
D03*
X011811Y010667D02*
D03*
Y010297D02*
D03*
X019803Y020864D02*
D03*
Y020494D02*
D03*
X025450Y024219D02*
D03*
Y024589D02*
D03*
X017872Y010301D02*
D03*
Y010671D02*
D03*
X025450Y023841D02*
D03*
X025450Y023471D02*
D03*
X015394Y020127D02*
D03*
X015394Y020497D02*
D03*
X018907Y016685D02*
D03*
Y017055D02*
D03*
D20*
X025907Y023867D02*
D03*
Y024517D02*
D03*
D23*
X021819Y010581D02*
D03*
X021449Y010581D02*
D03*
X023600Y025728D02*
D03*
X023230D02*
D03*
X016311Y017047D02*
D03*
X016681D02*
D03*
X015776Y016063D02*
D03*
X015406D02*
D03*
X016681Y019567D02*
D03*
X016311Y019567D02*
D03*
X025287Y013071D02*
D03*
X025657D02*
D03*
X020500Y017677D02*
D03*
X020130D02*
D03*
X015776Y018937D02*
D03*
X015406D02*
D03*
X023978Y011821D02*
D03*
X024348D02*
D03*
D24*
X015187Y010551D02*
D03*
X014557D02*
D03*
X018878Y011236D02*
D03*
X019508D02*
D03*
D26*
X016417Y024498D02*
D03*
Y025089D02*
D03*
D27*
X016998Y024429D02*
D03*
X017589D02*
D03*
X017470Y015374D02*
D03*
X016880D02*
D03*
X022510Y022835D02*
D03*
X021919D02*
D03*
X019193Y018898D02*
D03*
X018602D02*
D03*
X017343D02*
D03*
X017933D02*
D03*
X017598Y015945D02*
D03*
X018189Y015945D02*
D03*
D30*
X021463Y010243D02*
D03*
X021817D02*
D03*
X015565Y024807D02*
D03*
X015919D02*
D03*
X015531Y025217D02*
D03*
X015886D02*
D03*
X015768Y025856D02*
D03*
X016122D02*
D03*
X015925Y023819D02*
D03*
X015571D02*
D03*
X016511Y025857D02*
D03*
X016866D02*
D03*
X017933Y025276D02*
D03*
X017579D02*
D03*
X022392Y024793D02*
D03*
X022746D02*
D03*
X017923Y016624D02*
D03*
X017569D02*
D03*
X017067Y015984D02*
D03*
X016713D02*
D03*
X016344Y020413D02*
D03*
X016699D02*
D03*
X015774Y019488D02*
D03*
X015419D02*
D03*
X022067Y016575D02*
D03*
X021712D02*
D03*
X020748Y015197D02*
D03*
X021102D02*
D03*
X018209Y020197D02*
D03*
X018563Y020197D02*
D03*
X016693Y016378D02*
D03*
X017047Y016378D02*
D03*
X018917Y015718D02*
D03*
X019272D02*
D03*
X021122Y020472D02*
D03*
X020767Y020472D02*
D03*
X017657Y020787D02*
D03*
X017303Y020787D02*
D03*
X020167Y018858D02*
D03*
X020522D02*
D03*
X016398Y019213D02*
D03*
X016752Y019213D02*
D03*
X017382Y018268D02*
D03*
X017028D02*
D03*
X016338Y018268D02*
D03*
X016693D02*
D03*
X018209Y017559D02*
D03*
X018563D02*
D03*
X016398Y018858D02*
D03*
X016752Y018858D02*
D03*
X016097Y021414D02*
D03*
X016451D02*
D03*
X016344Y020827D02*
D03*
X016699D02*
D03*
X019547Y017953D02*
D03*
X019193Y017953D02*
D03*
X016358Y019882D02*
D03*
X016713D02*
D03*
X011093Y019587D02*
D03*
X010738D02*
D03*
X017943Y017933D02*
D03*
X018297D02*
D03*
X023573Y011821D02*
D03*
X023219D02*
D03*
X019823Y010404D02*
D03*
X019468D02*
D03*
X010797Y022096D02*
D03*
X010443D02*
D03*
X010797Y021693D02*
D03*
X010443D02*
D03*
D31*
X013996Y010315D02*
D03*
Y010669D02*
D03*
X021693Y023307D02*
D03*
Y023661D02*
D03*
X018091Y024921D02*
D03*
Y024567D02*
D03*
X015096Y023816D02*
D03*
Y023461D02*
D03*
X011299Y018573D02*
D03*
Y018927D02*
D03*
X015779Y016651D02*
D03*
Y017005D02*
D03*
X018268Y020965D02*
D03*
X018268Y020610D02*
D03*
X015039Y016358D02*
D03*
Y016004D02*
D03*
X015403Y017008D02*
D03*
Y016653D02*
D03*
X020797Y017018D02*
D03*
X020797Y017372D02*
D03*
X021486Y021083D02*
D03*
Y021437D02*
D03*
X018898Y019862D02*
D03*
Y019508D02*
D03*
X018267Y016358D02*
D03*
Y016712D02*
D03*
X019252Y016687D02*
D03*
Y017041D02*
D03*
X019586Y021720D02*
D03*
Y021365D02*
D03*
X020472Y021713D02*
D03*
Y021358D02*
D03*
X015748Y020138D02*
D03*
Y020492D02*
D03*
X018228Y021663D02*
D03*
Y021309D02*
D03*
X015460Y021082D02*
D03*
Y021437D02*
D03*
X016063Y018917D02*
D03*
Y019272D02*
D03*
X016732Y017933D02*
D03*
Y017579D02*
D03*
X017322Y016988D02*
D03*
Y017342D02*
D03*
X021496Y020768D02*
D03*
Y020413D02*
D03*
X021414Y017040D02*
D03*
X021414Y017394D02*
D03*
X017913Y016988D02*
D03*
Y017343D02*
D03*
X021417Y022382D02*
D03*
Y022028D02*
D03*
X020512Y022421D02*
D03*
Y022067D02*
D03*
X019213Y021959D02*
D03*
Y022313D02*
D03*
X014786Y017825D02*
D03*
Y017471D02*
D03*
X014391Y017825D02*
D03*
X014391Y017471D02*
D03*
X018278Y010303D02*
D03*
Y010657D02*
D03*
X024843Y012795D02*
D03*
Y012441D02*
D03*
X010886Y018927D02*
D03*
Y018573D02*
D03*
X018199Y019488D02*
D03*
Y019843D02*
D03*
X022323Y010581D02*
D03*
Y010226D02*
D03*
X022328Y021636D02*
D03*
X021928Y021636D02*
D03*
X022328Y021282D02*
D03*
X021928Y021282D02*
D03*
X022165Y019970D02*
D03*
X021789Y019970D02*
D03*
X022165Y019616D02*
D03*
X021789Y019616D02*
D03*
X014724Y019227D02*
D03*
X014329Y019227D02*
D03*
X014724Y019581D02*
D03*
X014329Y019581D02*
D03*
D34*
X018303Y011811D02*
D03*
Y011181D02*
D03*
D39*
X010689Y011909D02*
D03*
Y012697D02*
D03*
Y013484D02*
D03*
Y014272D02*
D03*
Y015846D02*
D03*
X010689Y016634D02*
D03*
D40*
X010689Y015059D02*
D03*
D41*
X011201Y024587D02*
D03*
Y023839D02*
D03*
X010295Y024213D02*
D03*
D58*
X014605Y021471D02*
D03*
Y020369D02*
D03*
D60*
X021220Y018760D02*
D03*
X021929D02*
D03*
X020404Y022982D02*
D03*
X021112D02*
D03*
X015630Y015039D02*
D03*
X014921D02*
D03*
D61*
X015590Y017756D02*
D03*
Y018464D02*
D03*
X014843Y022185D02*
D03*
Y022894D02*
D03*
D65*
X018898Y012726D02*
D03*
Y012018D02*
D03*
D67*
X094706Y023798D02*
X095236Y023268D01*
X094706Y023798D02*
X094479Y023571D01*
X094428Y023470D01*
Y023419D01*
X094454Y023343D01*
X094504Y023293D01*
X094580Y023268D01*
X094630D01*
X094731Y023318D01*
X094958Y023545D02*
X094731Y023318D01*
X094681Y023217D01*
Y023167D01*
X094706Y023091D01*
X094782Y023015D01*
X094857Y022990D01*
X094908D01*
X095009Y023040D01*
X095236Y023268D01*
X094057Y023149D02*
X094587Y022619D01*
X094234Y023326D02*
X093880Y022972D01*
X093817Y022909D02*
X094347Y022379D01*
X093817Y022909D02*
X094145Y022177D01*
X093413Y022505D02*
X094145Y022177D01*
X093413Y022505D02*
X093944Y021975D01*
D68*
X010443Y021693D02*
Y022096D01*
Y021693D02*
X010577Y021559D01*
Y021530D02*
Y021559D01*
Y021530D02*
X010778Y021329D01*
X010827D01*
D69*
X022313Y010256D02*
X022431Y010138D01*
X018268Y020945D02*
X018648D01*
X014331Y024124D02*
X014904Y023550D01*
X016711Y019566D02*
Y019567D01*
X016559Y019413D02*
X016711Y019566D01*
X016358Y019227D02*
X016544Y019413D01*
X015748Y019548D02*
X015807Y019488D01*
X016358Y019213D02*
Y019227D01*
X017461Y016063D02*
X017618Y015906D01*
X016673Y016378D02*
X016866Y016185D01*
X016713Y019213D02*
X017008Y019508D01*
X016890Y015441D02*
X016968Y015362D01*
X036073Y018524D02*
Y018553D01*
X035856Y018307D02*
X036073Y018524D01*
X035317Y018307D02*
X035856D01*
X035069Y018556D02*
X035317Y018307D01*
X034813D02*
X035059Y018553D01*
X034673Y018307D02*
X034813D01*
X034671Y018309D02*
X034673Y018307D01*
X035059Y018553D02*
Y018553D01*
X034315Y018309D02*
X034671D01*
X034069Y018556D02*
X034315Y018309D01*
X015007Y023550D02*
X015096Y023461D01*
X014904Y023550D02*
X015007D01*
X018353Y019689D02*
X018425Y019618D01*
X018352Y019689D02*
X018353D01*
X018199Y019843D02*
X018352Y019689D01*
X016711Y019567D02*
X016801Y019656D01*
X016842D01*
X017008Y019821D01*
X010886Y018327D02*
Y018573D01*
X015866Y023846D02*
X015866Y023846D01*
X016161Y024134D02*
Y024242D01*
X016417Y024498D01*
X024803Y013110D02*
X024902Y013012D01*
Y012817D02*
Y013012D01*
X014268Y023970D02*
X014331Y023907D01*
X017322Y016063D02*
X017461D01*
X011880Y018169D02*
X012067D01*
X014262Y020712D02*
Y020719D01*
X016965Y010858D02*
Y011301D01*
X016732Y017913D02*
Y017933D01*
X016890Y015441D02*
Y015787D01*
X019193Y018287D02*
X019212Y018268D01*
X024656Y020531D02*
Y020728D01*
X016673Y016378D02*
X016693D01*
X016866Y016185D02*
X016884D01*
X017067Y016002D01*
Y015984D02*
Y016002D01*
X022205Y014409D02*
Y014435D01*
X025335Y012283D02*
X025748D01*
X025787Y016752D02*
Y017469D01*
X016713Y015965D02*
Y015984D01*
Y015965D02*
X016890Y015787D01*
X016358Y019213D02*
X016366D01*
X015748Y019548D02*
Y019842D01*
X018805Y020787D02*
X018897D01*
X018648Y020945D02*
X018805Y020787D01*
X018268Y020945D02*
Y020965D01*
X019212Y021417D02*
X019534D01*
X019586Y021365D01*
X017952Y016378D02*
X017972Y016358D01*
X015866Y023846D02*
X015870Y023843D01*
X020767Y020768D02*
X020787Y020787D01*
X018896Y018268D02*
X018897Y018268D01*
X016544Y019413D02*
X016559D01*
X017008Y019821D02*
Y019842D01*
X020472Y019212D02*
X020492Y019232D01*
X016732Y024055D02*
Y024163D01*
X016998Y024429D01*
X015096Y024161D02*
X015098Y024163D01*
X012087Y018150D02*
X012165Y018071D01*
X023947Y010344D02*
X024213D01*
X024222Y010354D01*
X022431Y010138D02*
X023278D01*
X023346Y010207D01*
Y010709D01*
X023356Y010718D01*
X012165Y018071D02*
X012165D01*
X012165Y017628D02*
Y018071D01*
Y017628D02*
X012215Y017579D01*
X011880Y014429D02*
Y014626D01*
X012146D01*
X012264Y014508D01*
Y014488D02*
Y014508D01*
X016024Y010394D02*
X016500D01*
X016965Y010858D01*
X020157Y018268D02*
X020315Y018110D01*
Y017840D02*
Y018110D01*
Y017840D02*
X020323Y017832D01*
Y017825D02*
Y017832D01*
Y017825D02*
X020470Y017677D01*
X020500D01*
X019252Y017041D02*
X019494D01*
X019527Y017008D01*
X018189Y019843D02*
X018199D01*
X014262Y020712D02*
X014605Y020369D01*
X014652Y020322D01*
X016378Y017638D02*
X016535Y017795D01*
X016614D01*
X016732Y017913D01*
X018582Y019212D02*
X018582Y019212D01*
X018582Y019212D02*
Y019305D01*
X018425Y019462D02*
X018582Y019305D01*
X019185Y017309D02*
X019212Y017323D01*
X011093Y019587D02*
X011319D01*
X011348Y019557D01*
X018425Y019462D02*
Y019618D01*
D70*
X018943Y016378D02*
X019252Y016687D01*
D71*
X022185Y024793D02*
X022392D01*
X021998Y024606D02*
X022185Y024793D01*
X021693Y024606D02*
X021998D01*
D72*
X015510Y025216D02*
X015565D01*
X015510Y025203D02*
X015552D01*
X015510D02*
Y025216D01*
X015391Y025335D02*
X015510Y025216D01*
X015286Y025335D02*
X015391D01*
X015565Y024807D02*
Y025203D01*
X015552D02*
X015565Y025216D01*
D73*
X022254Y025226D02*
X022539D01*
X021890Y024862D02*
X022254Y025226D01*
X021693Y024862D02*
X021890D01*
D74*
X039969Y016244D02*
G03*
X039941Y016217I000000J-000028D01*
G01*
X039913Y016048D02*
G03*
X039941Y016075I000000J000028D01*
G01*
X039862D02*
G03*
X039890Y016048I000028J000000D01*
G01*
X039862Y016217D02*
G03*
X039835Y016244I-000028J000000D01*
G01*
X029852Y015591D02*
G03*
X029880Y015563I000028J000000D01*
G01*
X029852Y015693D02*
G03*
X029825Y015721I-000028J000000D01*
G01*
X029801D02*
G03*
X029774Y015693I000000J-000028D01*
G01*
X029746Y015563D02*
G03*
X029774Y015591I000000J000028D01*
G01*
X029695D02*
G03*
X029722Y015563I000028J000000D01*
G01*
X029695Y015693D02*
G03*
X029667Y015721I-000028J000000D01*
G01*
X029644D02*
G03*
X029616Y015693I000000J-000028D01*
G01*
X029589Y015563D02*
G03*
X029616Y015591I000000J000028D01*
G01*
X031091Y018410D02*
G03*
X031063Y018382I000000J-000028D01*
G01*
X031035Y018252D02*
G03*
X031063Y018280I000000J000028D01*
G01*
X030984D02*
G03*
X031012Y018252I000028J000000D01*
G01*
X030984Y018382D02*
G03*
X030957Y018410I-000028J000000D01*
G01*
X042222Y015556D02*
G03*
X042195Y015528I000000J-000028D01*
G01*
X042364Y015556D02*
G03*
X042392Y015583I000000J000028D01*
G01*
Y015607D02*
G03*
X042364Y015634I-000028J000000D01*
G01*
X042195Y015662D02*
G03*
X042222Y015634I000028J000000D01*
G01*
Y015713D02*
G03*
X042195Y015685I000000J-000028D01*
G01*
X042364Y015713D02*
G03*
X042392Y015741I000000J000028D01*
G01*
Y015764D02*
G03*
X042364Y015792I-000028J000000D01*
G01*
X042195Y015819D02*
G03*
X042222Y015792I000028J000000D01*
G01*
X042215Y017559D02*
G03*
X042242Y017532I000028J000000D01*
G01*
X042215Y017701D02*
G03*
X042187Y017729I-000028J000000D01*
G01*
X042163D02*
G03*
X042136Y017701I000000J-000028D01*
G01*
X042108Y017532D02*
G03*
X042136Y017559I000000J000028D01*
G01*
X042242Y016849D02*
G03*
X042215Y016821I000000J-000028D01*
G01*
X042187Y016652D02*
G03*
X042215Y016680I000000J000028D01*
G01*
X042136D02*
G03*
X042163Y016652I000028J000000D01*
G01*
X042136Y016821D02*
G03*
X042108Y016849I-000028J000000D01*
G01*
X042085D02*
G03*
X042057Y016821I000000J-000028D01*
G01*
X042030Y016652D02*
G03*
X042057Y016680I000000J000028D01*
G01*
X041978D02*
G03*
X042006Y016652I000028J000000D01*
G01*
X041978Y016821D02*
G03*
X041951Y016849I-000028J000000D01*
G01*
X014391Y017967D02*
X014391D01*
X014786D02*
X014786D01*
X018474Y025866D02*
X018494Y025846D01*
X018150Y025866D02*
X018474D01*
X021516Y026073D02*
Y026260D01*
X021467Y026309D02*
X021516Y026260D01*
X040089Y016244D02*
X040265D01*
X039460D02*
X039744D01*
X040020D02*
X040089D01*
X039969D02*
X040020D01*
X039941Y016075D02*
Y016217D01*
X039890Y016048D02*
X039913D01*
X039862Y016075D02*
Y016217D01*
X039783Y016244D02*
X039835D01*
X039744D02*
X039783D01*
X029951Y015563D02*
X030840D01*
X029342D02*
X029577D01*
X029931D02*
X029951D01*
X029880D02*
X029931D01*
X029852Y015591D02*
Y015693D01*
X029801Y015721D02*
X029825D01*
X029774Y015591D02*
Y015693D01*
X029722Y015563D02*
X029746D01*
X029695Y015591D02*
Y015693D01*
X029644Y015721D02*
X029667D01*
X029616Y015591D02*
Y015693D01*
X029577Y015563D02*
X029589D01*
X030424Y018410D02*
X030866D01*
X031142D02*
X031201D01*
X031091D02*
X031142D01*
X031063Y018280D02*
Y018382D01*
X031012Y018252D02*
X031035D01*
X030984Y018280D02*
Y018382D01*
X030906Y018410D02*
X030957D01*
X030866D02*
X030906D01*
X039862Y017089D02*
Y017983D01*
X042195Y015989D02*
Y016038D01*
Y014425D02*
Y015451D01*
Y015477D01*
Y015528D01*
X042222Y015556D02*
X042364D01*
X042392Y015583D02*
Y015607D01*
X042222Y015634D02*
X042364D01*
X042195Y015662D02*
Y015685D01*
X042222Y015713D02*
X042364D01*
X042392Y015741D02*
Y015764D01*
X042222Y015792D02*
X042364D01*
X042195Y015819D02*
Y015870D01*
Y015949D01*
Y015989D01*
X042264Y017532D02*
X042627D01*
X042242D02*
X042264D01*
X042215Y017559D02*
Y017701D01*
X042163Y017729D02*
X042187D01*
X042136Y017559D02*
Y017701D01*
X042057Y017532D02*
X042108D01*
X041978D02*
X042057D01*
X041939D02*
X041978D01*
X042323Y016849D02*
X042510D01*
X041459D02*
X041860D01*
X042293D02*
X042323D01*
X042242D02*
X042293D01*
X042215Y016680D02*
Y016821D01*
X042163Y016652D02*
X042187D01*
X042136Y016680D02*
Y016821D01*
X042085Y016849D02*
X042108D01*
X042057Y016680D02*
Y016821D01*
X042006Y016652D02*
X042030D01*
X041978Y016680D02*
Y016821D01*
X041900Y016849D02*
X041951D01*
X041860D02*
X041900D01*
X034842Y019829D02*
X035069Y020056D01*
X033975Y019829D02*
X034842D01*
X033816Y019989D02*
X033975Y019829D01*
X033329Y019989D02*
X033816D01*
X031751Y018410D02*
X033329Y019989D01*
X031201Y018410D02*
X031751D01*
X034842Y018829D02*
X035069Y019056D01*
X033975Y018829D02*
X034842D01*
X033839Y018965D02*
X033975Y018829D01*
X033280Y018965D02*
X033839D01*
X031544Y017229D02*
X033280Y018965D01*
X030424Y017229D02*
X031544D01*
X034889Y017556D02*
X035069D01*
X034663Y017782D02*
X034889Y017556D01*
X033975Y017782D02*
X034663D01*
X033798Y017605D02*
X033975Y017782D01*
X032882Y017605D02*
X033798D01*
X030840Y015563D02*
X032882Y017605D01*
X038900Y016805D02*
X039460Y016244D01*
X038900Y016805D02*
Y017274D01*
X038705Y017469D02*
X038900Y017274D01*
X037802Y017469D02*
X038705D01*
X037663Y017329D02*
X037802Y017469D01*
X035795Y017329D02*
X037663D01*
X035569Y017556D02*
X035795Y017329D01*
X039862Y017089D02*
X040010Y016941D01*
X040265D01*
X041565Y017532D02*
X041939D01*
X041146Y017951D02*
X041565Y017532D01*
X041146Y017951D02*
Y021050D01*
X040713Y021483D02*
X041146Y021050D01*
X035832Y021483D02*
X040713D01*
X035712Y021363D02*
X035832Y021483D01*
X035548Y021363D02*
X035712D01*
X035321Y021137D02*
X035548Y021363D01*
X035321Y020303D02*
Y021137D01*
Y020303D02*
X035569Y020056D01*
X039286Y014676D02*
X041459Y016849D01*
X036324Y014676D02*
X039286D01*
X036053Y014947D02*
X036324Y014676D01*
X036053Y014947D02*
Y015251D01*
X035842Y015462D02*
X036053Y015251D01*
X035842Y015462D02*
Y016282D01*
X035569Y016556D02*
X035842Y016282D01*
X042402Y016244D02*
X042627D01*
X042195Y016038D02*
X042402Y016244D01*
X041816Y014046D02*
X042195Y014425D01*
X035487Y014046D02*
X041816D01*
X035041Y014492D02*
X035487Y014046D01*
X035041Y014492D02*
Y015263D01*
X034842Y015462D02*
X035041Y015263D01*
X034842Y015462D02*
Y015649D01*
X035069Y015876D01*
Y016056D01*
X035295Y015462D02*
Y016329D01*
X035069Y016556D02*
X035295Y016329D01*
X035148Y015314D02*
X035295Y015462D01*
X035148Y014536D02*
Y015314D01*
Y014536D02*
X035531Y014152D01*
X041772D01*
X042089Y014469D01*
Y016082D01*
X042358Y016351D01*
X042627D01*
X042677Y016401D01*
X042627Y016244D02*
X042677Y016194D01*
X042641Y016955D02*
X042677Y016991D01*
X042515Y016844D02*
X042618D01*
X042510Y016849D02*
X042515Y016844D01*
X042618D02*
X042677Y016785D01*
X041415Y016955D02*
X042641D01*
X039242Y014782D02*
X041415Y016955D01*
X036368Y014782D02*
X039242D01*
X036159Y014991D02*
X036368Y014782D01*
X036159Y015326D02*
X036295Y015462D01*
X036115Y016329D02*
X036295Y016149D01*
X035842Y016462D02*
Y016782D01*
X035569Y017056D02*
X035842Y016782D01*
X035975Y016329D02*
X036115D01*
X036159Y014991D02*
Y015326D01*
X036295Y015462D02*
Y016149D01*
X035842Y016462D02*
X035975Y016329D01*
X035842Y017782D02*
X037663D01*
X037869Y017575D01*
X038749D01*
X035569Y018056D02*
X035842Y017782D01*
X038749Y017575D02*
X039006Y017318D01*
Y016849D02*
Y017318D01*
Y016849D02*
X039504Y016351D01*
X040265D01*
X040315Y016401D01*
X040265Y016244D02*
X040315Y016194D01*
X040265Y016941D02*
X040315Y016992D01*
X039860Y017985D02*
Y017985D01*
Y017985D02*
X039862Y017983D01*
X038669Y019026D02*
X039756Y017939D01*
Y017045D02*
Y017939D01*
Y017045D02*
X039966Y016835D01*
X040265D01*
X040315Y016785D01*
X038713Y019132D02*
X039860Y017985D01*
X037835Y019026D02*
X038669D01*
X035842Y018829D02*
X037663D01*
X035569Y018556D02*
X035842Y018829D01*
X037795Y018987D02*
X037835Y019026D01*
X037795Y018962D02*
Y018987D01*
X037663Y018829D02*
X037795Y018962D01*
X035795Y019282D02*
X037663D01*
X035569Y019056D02*
X035795Y019282D01*
X037663D02*
X037812Y019132D01*
X038713D01*
X035944Y021376D02*
X040669D01*
X035821Y021254D02*
X035944Y021376D01*
X035821Y019808D02*
Y021254D01*
X035569Y019556D02*
X035821Y019808D01*
X040669Y021376D02*
X041040Y021006D01*
Y017906D02*
Y021006D01*
Y017906D02*
X041521Y017426D01*
X042627Y017532D02*
X042677Y017582D01*
X041521Y017426D02*
X042627D01*
X042677Y017375D01*
X033788Y020095D02*
X033975Y020282D01*
X034795D01*
X035069Y020556D01*
X033285Y020095D02*
X033788D01*
X031707Y018516D02*
X033285Y020095D01*
X030424Y018516D02*
X031707D01*
X030374Y018566D02*
X030424Y018516D01*
X030374Y018360D02*
X030424Y018410D01*
X033975Y019282D02*
X034795D01*
X033764Y019071D02*
X033975Y019282D01*
X034795D02*
X035069Y019556D01*
X033236Y019071D02*
X033764D01*
X031500Y017335D02*
X033236Y019071D01*
X030424Y017335D02*
X031500D01*
X030374Y017385D02*
X030424Y017335D01*
X030374Y017179D02*
X030424Y017229D01*
X033975Y017329D02*
X034795D01*
X033806Y017498D02*
X033975Y017329D01*
X034795D02*
X035069Y017056D01*
X032926Y017498D02*
X033806D01*
X030885Y015457D02*
X032926Y017498D01*
X029342Y015457D02*
X030885D01*
X029292Y015614D02*
X029342Y015563D01*
X029292Y015407D02*
X029342Y015457D01*
X010610Y014272D02*
X011358D01*
X018454Y015501D02*
X018602D01*
X017844Y014892D02*
X018454Y015501D01*
X018736Y015636D02*
Y015865D01*
X018602Y015501D02*
X018736Y015636D01*
Y015865D02*
X018759Y015888D01*
X010610Y012697D02*
X011417D01*
X018543Y016388D02*
X018720Y016565D01*
X018543Y015744D02*
Y016388D01*
X017848Y015049D02*
X018543Y015744D01*
X017451Y015049D02*
X017848D01*
X011033Y015226D02*
Y015443D01*
X010866Y015059D02*
X011033Y015226D01*
X010689Y015059D02*
X010866D01*
X010787Y013583D02*
X011486D01*
X011417Y012697D02*
X011417Y012697D01*
X011358Y014272D02*
X011447Y014360D01*
X018701Y017362D02*
X018897Y017559D01*
X019213Y017638D02*
X019370Y017480D01*
X018897Y017559D02*
Y017638D01*
X019734Y015039D02*
Y015157D01*
X018701Y016769D02*
X018720Y016750D01*
X018701Y016769D02*
Y017362D01*
X021870Y010581D02*
X022053D01*
X022063Y010591D01*
X021856Y010567D02*
X021870Y010581D01*
X019990Y015295D02*
Y016939D01*
X019892Y015197D02*
X019990Y015295D01*
X019774Y015197D02*
X019892D01*
X019734Y015157D02*
X019774Y015197D01*
X019370Y017264D02*
Y017480D01*
Y017264D02*
X019468Y017165D01*
X019893D01*
X019990Y016939D02*
Y017069D01*
X019893Y017165D02*
X019990Y017069D01*
X021819Y010245D02*
Y010581D01*
X021817Y010243D02*
X021819Y010245D01*
X011486Y013583D02*
X011654Y013750D01*
Y014124D01*
X013969Y017776D02*
X013969Y017776D01*
X018720Y016565D02*
Y016750D01*
X018759Y015888D02*
Y016488D01*
X018809Y016537D01*
X018897Y016378D02*
X018943D01*
X018809Y016537D02*
Y016634D01*
X014391Y017825D02*
Y017967D01*
X014391D02*
X014485Y018061D01*
X014786Y017825D02*
Y017967D01*
X014692Y018061D02*
X014786Y017967D01*
X011201Y024803D02*
Y024921D01*
D77*
X092433Y020645D02*
X092290Y020598D01*
X092242Y020503D01*
Y020407D01*
X092290Y020312D01*
X092385Y020265D01*
X092576Y020217D01*
X092719Y020169D01*
X092814Y020074D01*
X092861Y019979D01*
Y019836D01*
X092814Y019741D01*
X092766Y019693D01*
X092623Y019646D01*
X092433D01*
X092290Y019693D01*
X092242Y019741D01*
X092195Y019836D01*
Y019979D01*
X092242Y020074D01*
X092338Y020169D01*
X092481Y020217D01*
X092671Y020265D01*
X092766Y020312D01*
X092814Y020407D01*
Y020503D01*
X092766Y020598D01*
X092623Y020645D01*
X092433D01*
D80*
X022884Y019154D02*
X022894Y019163D01*
X024281Y018445D02*
X024400Y018563D01*
X022746Y022096D02*
Y022106D01*
X022283Y020463D02*
X022293D01*
X022421Y020335D01*
X022244Y020817D02*
X022519D01*
X022627Y020925D02*
X022904D01*
X022519Y020817D02*
X022627Y020925D01*
X022156Y017943D02*
X022185Y017972D01*
X022520Y018169D02*
X022904D01*
X022510Y018159D02*
X022552D01*
X022510D02*
X022520Y018169D01*
X022552Y018159D02*
X022554Y018157D01*
X022598Y019744D02*
X022904D01*
X022559Y019783D02*
X022598Y019744D01*
X022577Y020138D02*
X022593D01*
X022904D01*
X022185Y017972D02*
X022904D01*
X022549Y019154D02*
X022884D01*
X022372Y018986D02*
X022874D01*
X022894Y019163D02*
X022904Y019154D01*
X022874Y018986D02*
X022904Y018957D01*
X022402Y022441D02*
X022746Y022096D01*
Y022106D02*
X022904D01*
X022579Y021319D02*
X022904D01*
X024350Y018957D02*
X024656D01*
X024291Y018898D02*
X024350Y018957D01*
X024329Y020925D02*
X024345D01*
X024656D01*
X024322Y021539D02*
Y021556D01*
Y021539D02*
X024345Y021516D01*
Y019744D02*
X024656D01*
X024390Y019547D02*
X024656D01*
X024291Y019449D02*
X024390Y019547D01*
X024291Y019409D02*
Y019449D01*
X024345Y019154D02*
X024656D01*
X024345Y020138D02*
X024656D01*
X024329D02*
X024345D01*
X022884Y017953D02*
X022904Y017972D01*
X024656D02*
X025020D01*
X024400Y020335D02*
X024656D01*
X022884Y019724D02*
X022904Y019744D01*
X022579Y021909D02*
X022904D01*
X022441Y022047D02*
X022579Y021909D01*
X022441Y022046D02*
Y022047D01*
Y022046D02*
X022518Y021969D01*
X024345Y018169D02*
X024656D01*
X024345Y021516D02*
X024656D01*
X022598Y021575D02*
X022657Y021516D01*
X022904D01*
X022421Y020335D02*
X022904D01*
X022566Y018552D02*
X022892D01*
X022545D02*
X022566D01*
X022577Y018563D01*
X022892Y018552D02*
X022904Y018563D01*
X024345Y021319D02*
X024656D01*
X022593Y019547D02*
X022904D01*
X022577D02*
X022593D01*
X022545Y018148D02*
X022554Y018157D01*
X024656Y017382D02*
X024995D01*
X024656Y017579D02*
X024995D01*
X024281Y020453D02*
X024400Y020335D01*
D82*
X030167Y010806D02*
D03*
X030659D02*
D03*
X019016Y026033D02*
D03*
X019508D02*
D03*
X020000D02*
D03*
X020492D02*
D03*
X020984D02*
D03*
X012264Y010492D02*
D03*
X012756D02*
D03*
D83*
X041890Y013620D02*
D03*
X041890Y022912D02*
D03*
X030866Y013620D02*
D03*
X030866Y022912D02*
D03*
X013307Y013583D02*
D03*
Y022953D02*
D03*
X024331Y013583D02*
D03*
Y022953D02*
D03*
D84*
X034069Y020056D02*
D03*
Y020556D02*
D03*
Y019556D02*
D03*
X037569Y021056D02*
D03*
Y015556D02*
D03*
X037069Y021056D02*
D03*
Y020556D02*
D03*
Y020056D02*
D03*
Y019556D02*
D03*
Y019056D02*
D03*
Y018556D02*
D03*
Y018056D02*
D03*
Y017556D02*
D03*
Y017056D02*
D03*
Y016556D02*
D03*
Y016056D02*
D03*
Y015556D02*
D03*
X036569Y021056D02*
D03*
Y020556D02*
D03*
Y020056D02*
D03*
Y019556D02*
D03*
Y019056D02*
D03*
Y018556D02*
D03*
Y018056D02*
D03*
Y017556D02*
D03*
Y017056D02*
D03*
Y016556D02*
D03*
Y016056D02*
D03*
Y015556D02*
D03*
X036069Y021056D02*
D03*
Y020556D02*
D03*
Y020056D02*
D03*
Y019556D02*
D03*
Y019056D02*
D03*
Y018556D02*
D03*
Y018056D02*
D03*
Y017556D02*
D03*
Y017056D02*
D03*
Y016556D02*
D03*
Y016056D02*
D03*
Y015556D02*
D03*
X035569Y021056D02*
D03*
Y020556D02*
D03*
Y020056D02*
D03*
Y019556D02*
D03*
X035069Y021056D02*
D03*
Y020056D02*
D03*
Y019556D02*
D03*
Y019056D02*
D03*
Y018556D02*
D03*
Y018056D02*
D03*
Y015556D02*
D03*
X034569Y020056D02*
D03*
Y019556D02*
D03*
Y018556D02*
D03*
Y017556D02*
D03*
Y017056D02*
D03*
Y016556D02*
D03*
Y016056D02*
D03*
Y015556D02*
D03*
X034069Y021056D02*
D03*
Y019056D02*
D03*
Y018556D02*
D03*
Y018056D02*
D03*
Y016556D02*
D03*
Y016056D02*
D03*
X037569D02*
D03*
Y016556D02*
D03*
Y017056D02*
D03*
Y017556D02*
D03*
Y018056D02*
D03*
Y018556D02*
D03*
Y019056D02*
D03*
Y019556D02*
D03*
Y020056D02*
D03*
Y020556D02*
D03*
X035569Y016056D02*
D03*
Y015556D02*
D03*
Y016556D02*
D03*
X035069D02*
D03*
Y016056D02*
D03*
X034569Y019056D02*
D03*
Y018056D02*
D03*
X034069Y017556D02*
D03*
Y017056D02*
D03*
X035069Y017556D02*
D03*
Y017056D02*
D03*
X035569Y018056D02*
D03*
Y017556D02*
D03*
X035069Y020556D02*
D03*
X034569Y021056D02*
D03*
Y020556D02*
D03*
X035569Y019056D02*
D03*
Y018556D02*
D03*
Y017056D02*
D03*
D85*
X028504Y010786D02*
D03*
X043465D02*
D03*
Y025746D02*
D03*
X028504D02*
D03*
X010787Y025748D02*
D03*
X025748D02*
D03*
Y010787D02*
D03*
X010787D02*
D03*
D86*
X013268Y024970D02*
D03*
X024656Y010453D02*
D03*
D87*
X014268Y023970D02*
D03*
Y025970D02*
D03*
X012268D02*
D03*
Y023970D02*
D03*
D88*
X025866Y017622D02*
D03*
Y022638D02*
D03*
D89*
X023415Y025118D02*
D03*
D90*
X022415Y024118D02*
D03*
X024415D02*
D03*
D91*
X022415Y026118D02*
D03*
X024415D02*
D03*
D92*
X024656Y011240D02*
D03*
D93*
X025354Y013638D02*
D03*
X026142Y014032D02*
D03*
X025354Y014426D02*
D03*
X026142Y014819D02*
D03*
X025354Y015213D02*
D03*
X026142Y013244D02*
D03*
D94*
X021467Y026309D02*
D03*
X034764Y015157D02*
D03*
X013632Y013957D02*
D03*
X016742Y025039D02*
D03*
Y025384D02*
D03*
X035779Y022785D02*
D03*
X042677Y017375D02*
D03*
Y017582D02*
D03*
X030374Y018566D02*
D03*
Y017179D02*
D03*
Y017385D02*
D03*
X029292Y015407D02*
D03*
Y015614D02*
D03*
X029291Y017770D02*
D03*
Y017977D02*
D03*
Y014816D02*
D03*
Y015023D02*
D03*
X031653Y015407D02*
D03*
Y015614D02*
D03*
X030374Y015997D02*
D03*
Y016204D02*
D03*
X043583Y019939D02*
D03*
X038573Y022469D02*
D03*
X040236Y022479D02*
D03*
X039173Y015353D02*
D03*
X038593Y018483D02*
D03*
X038819Y018030D02*
D03*
X038514Y017203D02*
D03*
X039467Y016830D02*
D03*
X039487Y017607D02*
D03*
X039404Y017213D02*
D03*
X030374Y018360D02*
D03*
X036025Y014491D02*
D03*
X041506Y015756D02*
D03*
X041279Y016002D02*
D03*
X040207Y014841D02*
D03*
X040305Y015392D02*
D03*
X039685Y016002D02*
D03*
X039508Y015727D02*
D03*
X029410Y015805D02*
D03*
Y016987D02*
D03*
X029409Y018170D02*
D03*
X036299Y022331D02*
D03*
X036270Y022794D02*
D03*
X036829Y024977D02*
D03*
X034384Y024485D02*
D03*
X039507Y020236D02*
D03*
Y020906D02*
D03*
X039490Y019806D02*
D03*
Y019426D02*
D03*
Y018896D02*
D03*
X037520Y010510D02*
D03*
X037795Y011573D02*
D03*
Y011367D02*
D03*
Y011160D02*
D03*
Y010953D02*
D03*
X037559D02*
D03*
Y011160D02*
D03*
Y011367D02*
D03*
Y011573D02*
D03*
X036185Y011596D02*
D03*
X035249Y022786D02*
D03*
X037819Y015116D02*
D03*
X038659Y020526D02*
D03*
X030689Y018166D02*
D03*
Y018757D02*
D03*
Y017576D02*
D03*
Y019150D02*
D03*
Y019349D02*
D03*
Y016985D02*
D03*
Y019939D02*
D03*
Y016395D02*
D03*
Y020530D02*
D03*
Y015809D02*
D03*
X029203Y020959D02*
D03*
X030483Y021013D02*
D03*
X030689Y020924D02*
D03*
X030483Y021353D02*
D03*
X030689Y015214D02*
D03*
X029409Y021319D02*
D03*
X030689Y021514D02*
D03*
Y015017D02*
D03*
X029409Y021516D02*
D03*
X030483Y022033D02*
D03*
X030689Y021908D02*
D03*
X031654Y014421D02*
D03*
Y014628D02*
D03*
X031653Y019747D02*
D03*
Y019541D02*
D03*
Y020338D02*
D03*
Y020131D02*
D03*
X029292Y020338D02*
D03*
Y019747D02*
D03*
Y019541D02*
D03*
X029291Y019158D02*
D03*
Y018952D02*
D03*
X029292Y016795D02*
D03*
Y016588D02*
D03*
X041713Y018363D02*
D03*
X040433Y018366D02*
D03*
Y017775D02*
D03*
X041713Y018757D02*
D03*
Y017773D02*
D03*
X040433Y018760D02*
D03*
Y017183D02*
D03*
X041713Y019349D02*
D03*
X041718Y017181D02*
D03*
X040428Y019351D02*
D03*
X040433Y016593D02*
D03*
X041713Y019939D02*
D03*
Y016591D02*
D03*
X040433Y019941D02*
D03*
X041713Y020530D02*
D03*
Y016001D02*
D03*
X040433Y020532D02*
D03*
X041713Y020727D02*
D03*
X040433Y015609D02*
D03*
X041713Y021120D02*
D03*
Y015410D02*
D03*
X040433Y021122D02*
D03*
X041507Y014893D02*
D03*
X040433Y015018D02*
D03*
X041713Y015017D02*
D03*
Y021711D02*
D03*
X040433Y021712D02*
D03*
Y014624D02*
D03*
X041713Y014623D02*
D03*
X042569Y014821D02*
D03*
X042677Y016401D02*
D03*
Y016194D02*
D03*
Y016991D02*
D03*
Y016785D02*
D03*
X040315Y016992D02*
D03*
Y016785D02*
D03*
X040315Y016401D02*
D03*
Y016194D02*
D03*
X037087Y014437D02*
D03*
X036329Y014452D02*
D03*
X034523Y013442D02*
D03*
X039498Y012321D02*
D03*
X040089Y011859D02*
D03*
X041486D02*
D03*
X040837D02*
D03*
X032520Y012115D02*
D03*
Y011849D02*
D03*
Y011583D02*
D03*
Y011317D02*
D03*
Y011052D02*
D03*
X034225Y025458D02*
D03*
X034376Y026070D02*
D03*
X035146Y025066D02*
D03*
X035338D02*
D03*
X035530D02*
D03*
X035137Y024879D02*
D03*
X035338D02*
D03*
X035540D02*
D03*
X037815Y022065D02*
D03*
X038020Y022654D02*
D03*
X033650Y023373D02*
D03*
X033867D02*
D03*
X034083D02*
D03*
X034300D02*
D03*
X034516D02*
D03*
X034970Y022065D02*
D03*
X035560Y023363D02*
D03*
X033345Y025056D02*
D03*
X038701Y025914D02*
D03*
X038509D02*
D03*
X038317D02*
D03*
X038730Y024004D02*
D03*
X038538D02*
D03*
X038346D02*
D03*
X041457Y023896D02*
D03*
X041693D02*
D03*
X041929D02*
D03*
X042165D02*
D03*
X040000Y022479D02*
D03*
X039764D02*
D03*
X039528D02*
D03*
X037414Y013699D02*
D03*
X037617Y013699D02*
D03*
X037211Y013699D02*
D03*
X036805Y013699D02*
D03*
X037008Y013699D02*
D03*
X038937Y012518D02*
D03*
X038110Y012065D02*
D03*
X038539Y019816D02*
D03*
X036709Y022331D02*
D03*
X036862Y024384D02*
D03*
X029292Y020131D02*
D03*
X030256Y020533D02*
D03*
Y019942D02*
D03*
X030251Y019351D02*
D03*
X030256Y018761D02*
D03*
X030256Y014624D02*
D03*
Y015215D02*
D03*
Y016396D02*
D03*
Y017574D02*
D03*
X038346Y015235D02*
D03*
X031653Y018954D02*
D03*
X018897Y016063D02*
D03*
X017322Y016063D02*
D03*
X011181Y020157D02*
D03*
X022343Y018425D02*
D03*
X022047Y020640D02*
D03*
X022081Y020315D02*
D03*
X021874D02*
D03*
X010728Y017096D02*
D03*
X010472D02*
D03*
X011181Y017116D02*
D03*
X022283Y020463D02*
D03*
X022244Y020817D02*
D03*
X022156Y017943D02*
D03*
X022510Y018159D02*
D03*
X024291Y018445D02*
D03*
X022372Y023238D02*
D03*
X022067Y023258D02*
D03*
X022234Y023396D02*
D03*
X020753Y023578D02*
D03*
X019764Y024311D02*
D03*
X010344Y020768D02*
D03*
X010335Y021093D02*
D03*
X011033Y015443D02*
D03*
X011447Y012185D02*
D03*
X012648Y012795D02*
D03*
X014882Y010354D02*
D03*
X023248Y012431D02*
D03*
X023219Y012165D02*
D03*
X010679Y023219D02*
D03*
X019144Y025551D02*
D03*
X018868Y024331D02*
D03*
X024783Y023091D02*
D03*
X025079Y022047D02*
D03*
X023927Y022559D02*
D03*
X021782Y022156D02*
D03*
X020472Y020157D02*
D03*
X022480Y019360D02*
D03*
X022593Y020138D02*
D03*
X021102Y019842D02*
D03*
X020787Y019843D02*
D03*
X018897Y019212D02*
D03*
X019527Y019527D02*
D03*
X019212Y019527D02*
D03*
X021850Y017402D02*
D03*
X010364Y020394D02*
D03*
Y020157D02*
D03*
X010738Y023750D02*
D03*
X019350Y025138D02*
D03*
X014104Y023307D02*
D03*
X018957Y024961D02*
D03*
X014400Y016417D02*
D03*
X014764Y016220D02*
D03*
X010393Y019941D02*
D03*
Y019685D02*
D03*
X014629Y019878D02*
D03*
X013258Y018317D02*
D03*
X016693Y017323D02*
D03*
X012913Y015709D02*
D03*
X011713Y013366D02*
D03*
X012402Y014134D02*
D03*
X011624Y010994D02*
D03*
X011417Y013848D02*
D03*
X013376Y010906D02*
D03*
X013218Y012785D02*
D03*
X016220Y010787D02*
D03*
X012844Y013051D02*
D03*
X011476Y012431D02*
D03*
X011634Y011289D02*
D03*
X011427Y011437D02*
D03*
X014321Y010876D02*
D03*
X014055Y011339D02*
D03*
X011496Y010295D02*
D03*
X011949Y013110D02*
D03*
X012264Y017224D02*
D03*
X013032Y015000D02*
D03*
X012480Y015758D02*
D03*
X012697Y016732D02*
D03*
X011417Y012697D02*
D03*
X011447Y014360D02*
D03*
X021693Y024163D02*
D03*
X021216Y023387D02*
D03*
X021220Y023573D02*
D03*
X021004D02*
D03*
Y023386D02*
D03*
X020017Y023937D02*
D03*
X020020Y024135D02*
D03*
X020248D02*
D03*
X020246Y023937D02*
D03*
X026161Y024144D02*
D03*
X010886Y018327D02*
D03*
X014423Y018976D02*
D03*
X014630D02*
D03*
X022549Y019154D02*
D03*
X010630Y018642D02*
D03*
X015286Y025335D02*
D03*
X024321Y016378D02*
D03*
X024311Y016821D02*
D03*
X024262Y016201D02*
D03*
X021693Y025305D02*
D03*
X017434Y013258D02*
D03*
X017539Y013100D02*
D03*
X016654Y012815D02*
D03*
X017247Y013268D02*
D03*
X017067D02*
D03*
X016886D02*
D03*
X016706D02*
D03*
X016555Y015236D02*
D03*
X016693Y020157D02*
D03*
X018602Y014656D02*
D03*
X018681Y014862D02*
D03*
X017844Y014892D02*
D03*
X017589Y014882D02*
D03*
X018494Y014862D02*
D03*
X015728Y014616D02*
D03*
X018120Y014862D02*
D03*
X018307D02*
D03*
X018602Y014449D02*
D03*
X012904Y021772D02*
D03*
Y022020D02*
D03*
Y022268D02*
D03*
Y022516D02*
D03*
Y022764D02*
D03*
X012695Y023278D02*
D03*
X012472D02*
D03*
X012250D02*
D03*
X012028D02*
D03*
X011805D02*
D03*
X011583D02*
D03*
X011398Y022982D02*
D03*
Y022704D02*
D03*
Y022426D02*
D03*
Y022148D02*
D03*
Y021870D02*
D03*
X013287Y022372D02*
D03*
X022438Y011773D02*
D03*
X022432Y012028D02*
D03*
X015748Y014134D02*
D03*
Y014341D02*
D03*
X016467Y012293D02*
D03*
X015974D02*
D03*
X015468Y013297D02*
D03*
X014961Y012992D02*
D03*
X014744D02*
D03*
X022274Y015669D02*
D03*
X020086Y022576D02*
D03*
X019674Y024838D02*
D03*
Y024631D02*
D03*
X018268Y025394D02*
D03*
X018474D02*
D03*
X020472Y016693D02*
D03*
Y017008D02*
D03*
X019842Y015748D02*
D03*
X020787Y015748D02*
D03*
X021102D02*
D03*
X014745Y018361D02*
D03*
Y018568D02*
D03*
X017077Y023986D02*
D03*
X016161Y024134D02*
D03*
X015866Y024129D02*
D03*
X022372Y018986D02*
D03*
X014075Y019745D02*
D03*
X021142Y022579D02*
D03*
X021797Y020945D02*
D03*
X022402Y022441D02*
D03*
X022579Y021319D02*
D03*
X024291Y018898D02*
D03*
X024345Y020925D02*
D03*
X024322Y021556D02*
D03*
X025630Y021309D02*
D03*
X024345Y019744D02*
D03*
X024291Y019409D02*
D03*
X024345Y019154D02*
D03*
Y020138D02*
D03*
X022244Y017313D02*
D03*
X023425Y016811D02*
D03*
X025522Y016791D02*
D03*
X022530Y017707D02*
D03*
X019842Y017953D02*
D03*
X025020Y017972D02*
D03*
X012638Y017431D02*
D03*
X018582Y018268D02*
D03*
X019842Y017008D02*
D03*
X019527Y017323D02*
D03*
X019842Y017323D02*
D03*
X017951Y015432D02*
D03*
X015118Y016693D02*
D03*
X014012Y018868D02*
D03*
X025906Y012638D02*
D03*
X025354Y012598D02*
D03*
X025157Y012795D02*
D03*
X023307Y012874D02*
D03*
X024803Y013110D02*
D03*
X010723Y024300D02*
D03*
X011026Y024339D02*
D03*
X019842Y017638D02*
D03*
X026240Y018258D02*
D03*
X014055Y021772D02*
D03*
X015984Y015236D02*
D03*
X016220Y015276D02*
D03*
X019212Y018268D02*
D03*
X018622Y025000D02*
D03*
X020157Y022047D02*
D03*
X020157Y022362D02*
D03*
X021102Y020157D02*
D03*
X014262Y020719D02*
D03*
X012776Y019350D02*
D03*
X012520Y019370D02*
D03*
X015118Y020472D02*
D03*
X015433Y019842D02*
D03*
X026328Y019227D02*
D03*
X015118Y019842D02*
D03*
X025551Y018976D02*
D03*
X025748Y012283D02*
D03*
X026161Y016240D02*
D03*
X015276Y014646D02*
D03*
X015512Y014341D02*
D03*
Y014134D02*
D03*
X016063Y019842D02*
D03*
X016063Y019527D02*
D03*
X015747Y019212D02*
D03*
X020183Y011285D02*
D03*
X017717Y010827D02*
D03*
X017126Y010591D02*
D03*
X022441Y019961D02*
D03*
X020787Y016378D02*
D03*
X020787Y016063D02*
D03*
X016693Y023622D02*
D03*
X016732Y024055D02*
D03*
X018130Y026280D02*
D03*
X018150Y025866D02*
D03*
X017283Y026260D02*
D03*
X015669Y026339D02*
D03*
X016339Y026339D02*
D03*
X021102Y019527D02*
D03*
X020787D02*
D03*
X019212Y020157D02*
D03*
X018897Y020157D02*
D03*
X016063Y017323D02*
D03*
X016378Y015748D02*
D03*
X015748D02*
D03*
X019842Y016378D02*
D03*
X020157D02*
D03*
X019212Y016378D02*
D03*
Y016063D02*
D03*
X019527Y015748D02*
D03*
X018897Y016378D02*
D03*
X020157Y016063D02*
D03*
X020472D02*
D03*
Y016378D02*
D03*
X021102Y015433D02*
D03*
X020472Y015433D02*
D03*
X019212Y015433D02*
D03*
X020157Y015433D02*
D03*
X019527Y017637D02*
D03*
X019527Y018267D02*
D03*
Y018582D02*
D03*
X022177Y016918D02*
D03*
X022323Y016772D02*
D03*
X014094Y020315D02*
D03*
Y020551D02*
D03*
X023681Y023386D02*
D03*
X020472Y017953D02*
D03*
X019842Y018897D02*
D03*
X019842Y018582D02*
D03*
X025702Y019778D02*
D03*
X025585Y020121D02*
D03*
X021417Y017638D02*
D03*
X025827Y020765D02*
D03*
Y020971D02*
D03*
X022441Y022047D02*
D03*
X022025Y021028D02*
D03*
X018267Y019212D02*
D03*
X018582Y019212D02*
D03*
Y018582D02*
D03*
X018267Y018582D02*
D03*
X018267Y018897D02*
D03*
Y017323D02*
D03*
X014075Y019981D02*
D03*
X016693Y021417D02*
D03*
X016386Y022045D02*
D03*
X015433Y022047D02*
D03*
X015118Y021732D02*
D03*
X013199Y018533D02*
D03*
X024345Y018169D02*
D03*
X024966Y015610D02*
D03*
Y016594D02*
D03*
X022593Y015610D02*
D03*
Y015020D02*
D03*
X026067Y020171D02*
D03*
X020472Y021102D02*
D03*
Y020787D02*
D03*
X013223Y021142D02*
D03*
X025748Y023471D02*
D03*
X025152Y024589D02*
D03*
X017952Y016378D02*
D03*
X016772Y026299D02*
D03*
X016024Y026195D02*
D03*
X019842Y025118D02*
D03*
X015451Y025965D02*
D03*
X016496Y026195D02*
D03*
X015118Y018582D02*
D03*
X012785Y019941D02*
D03*
X021797Y016850D02*
D03*
X017952Y017638D02*
D03*
X018582Y020472D02*
D03*
X019212Y017323D02*
D03*
Y017638D02*
D03*
X016378Y016693D02*
D03*
X016063Y015748D02*
D03*
X016063Y016693D02*
D03*
X021417Y019842D02*
D03*
X021102Y019212D02*
D03*
X020787D02*
D03*
X020157D02*
D03*
Y017953D02*
D03*
X021102D02*
D03*
X017952Y020787D02*
D03*
X019527Y020472D02*
D03*
X019527Y020157D02*
D03*
X016965Y011301D02*
D03*
X016472Y010801D02*
D03*
X020718Y014059D02*
D03*
Y014273D02*
D03*
X020917Y010770D02*
D03*
X019821D02*
D03*
X018878Y010776D02*
D03*
X019213Y013150D02*
D03*
X018898D02*
D03*
X018583D02*
D03*
X019907Y013280D02*
D03*
X020429Y013283D02*
D03*
X019902Y013543D02*
D03*
X020669Y013282D02*
D03*
X021179D02*
D03*
X020669Y012781D02*
D03*
X020179Y013283D02*
D03*
X019902Y013806D02*
D03*
X020675Y012285D02*
D03*
X021183D02*
D03*
X019683Y011785D02*
D03*
X020683Y010785D02*
D03*
X020675Y013781D02*
D03*
X019683Y012285D02*
D03*
X020183Y011782D02*
D03*
X021183Y011785D02*
D03*
X022181Y012285D02*
D03*
X019433Y012028D02*
D03*
Y012283D02*
D03*
X017715Y012299D02*
D03*
X014350Y013134D02*
D03*
X014139D02*
D03*
X013927D02*
D03*
X014722Y012299D02*
D03*
X017465Y011801D02*
D03*
X018268Y012756D02*
D03*
Y013150D02*
D03*
X017721Y012044D02*
D03*
X014722D02*
D03*
X017470Y012301D02*
D03*
X016472Y011801D02*
D03*
X015472Y011798D02*
D03*
X014972Y012301D02*
D03*
X016467Y013770D02*
D03*
X015972Y010801D02*
D03*
X015474D02*
D03*
X014972Y011801D02*
D03*
X015213Y013825D02*
D03*
X015965Y012797D02*
D03*
X016468Y013297D02*
D03*
X016033D02*
D03*
X015718Y013299D02*
D03*
X015218D02*
D03*
X020787Y017953D02*
D03*
X021102Y017008D02*
D03*
X020157Y016693D02*
D03*
X020472Y015748D02*
D03*
X021417Y019527D02*
D03*
X020472Y019212D02*
D03*
X021102Y020787D02*
D03*
Y021102D02*
D03*
Y021732D02*
D03*
X020787Y022362D02*
D03*
X020157Y021102D02*
D03*
X019842Y021417D02*
D03*
X019527Y021102D02*
D03*
X019527Y022047D02*
D03*
X019842Y021732D02*
D03*
X019212Y021417D02*
D03*
Y021732D02*
D03*
X018897D02*
D03*
Y021417D02*
D03*
X018582Y021732D02*
D03*
X019842Y021102D02*
D03*
X020787Y020787D02*
D03*
X019527D02*
D03*
X018897D02*
D03*
X020787Y022047D02*
D03*
X020157Y020157D02*
D03*
X018582Y019842D02*
D03*
X019212Y019842D02*
D03*
X017952Y020472D02*
D03*
X017952Y020157D02*
D03*
Y019842D02*
D03*
X017952Y019527D02*
D03*
X018582Y019527D02*
D03*
X019212Y019212D02*
D03*
X017637Y020472D02*
D03*
X017637Y020157D02*
D03*
Y019842D02*
D03*
Y019527D02*
D03*
X017322Y019212D02*
D03*
X017322Y019527D02*
D03*
X017322Y019842D02*
D03*
Y020157D02*
D03*
Y020472D02*
D03*
X017008D02*
D03*
Y020157D02*
D03*
Y019842D02*
D03*
Y019527D02*
D03*
Y019212D02*
D03*
X018582Y016693D02*
D03*
X018897Y017323D02*
D03*
X017008Y017953D02*
D03*
X017322D02*
D03*
X017637D02*
D03*
X017008Y017638D02*
D03*
X017322D02*
D03*
X017637D02*
D03*
X017008Y017323D02*
D03*
X016378Y016063D02*
D03*
X016693Y016693D02*
D03*
X016378Y017638D02*
D03*
X015433Y017323D02*
D03*
X015748Y016378D02*
D03*
X015433Y015748D02*
D03*
X015433Y019212D02*
D03*
X015748Y019842D02*
D03*
X015433Y020787D02*
D03*
X016378Y021102D02*
D03*
X017322Y021417D02*
D03*
X015748D02*
D03*
X017008Y020787D02*
D03*
X017952Y021102D02*
D03*
X016063Y020472D02*
D03*
X017637Y017323D02*
D03*
X015118Y019527D02*
D03*
X015118Y017638D02*
D03*
Y020787D02*
D03*
X021102Y021417D02*
D03*
X018897Y020472D02*
D03*
X019212D02*
D03*
X018897Y021102D02*
D03*
X012269Y020531D02*
D03*
Y019941D02*
D03*
X016063Y014094D02*
D03*
Y014341D02*
D03*
Y014606D02*
D03*
X012285Y019350D02*
D03*
X020787Y021102D02*
D03*
X020472Y020472D02*
D03*
X020157Y020787D02*
D03*
X019212Y021102D02*
D03*
X019212Y020787D02*
D03*
X018582Y021417D02*
D03*
X018582Y021102D02*
D03*
Y020787D02*
D03*
X017952Y021419D02*
D03*
X017637Y021417D02*
D03*
X017008Y021417D02*
D03*
X017322Y021102D02*
D03*
X017008Y021102D02*
D03*
X017637Y021102D02*
D03*
X019527Y019842D02*
D03*
X019527Y019212D02*
D03*
X019842Y016693D02*
D03*
X018897Y017638D02*
D03*
X020157Y017008D02*
D03*
Y017323D02*
D03*
X020787Y020157D02*
D03*
X020472Y018268D02*
D03*
X020787D02*
D03*
X021102D02*
D03*
X019842Y018268D02*
D03*
X018897Y018268D02*
D03*
X020157Y018268D02*
D03*
X020157Y018582D02*
D03*
X020472D02*
D03*
X020787D02*
D03*
X016063Y018582D02*
D03*
X017008D02*
D03*
X017322D02*
D03*
X018897D02*
D03*
X019212D02*
D03*
X017637Y019212D02*
D03*
Y018582D02*
D03*
X017952Y018582D02*
D03*
X016693Y018582D02*
D03*
X019527Y018897D02*
D03*
X025557Y021618D02*
D03*
X020787Y018897D02*
D03*
X021417Y016063D02*
D03*
X013986Y022106D02*
D03*
X013278Y021909D02*
D03*
X013986Y021516D02*
D03*
Y021319D02*
D03*
X014183Y020925D02*
D03*
X020718Y014487D02*
D03*
X019331Y022657D02*
D03*
X021417Y020157D02*
D03*
X021732Y022362D02*
D03*
X021417Y021733D02*
D03*
X025557Y018618D02*
D03*
X018583Y022047D02*
D03*
X017795Y026181D02*
D03*
X020158Y021732D02*
D03*
X020158Y021417D02*
D03*
X017637Y021732D02*
D03*
X014422Y019878D02*
D03*
X015319Y026307D02*
D03*
X020157Y020472D02*
D03*
X023646Y022992D02*
D03*
X022480Y021010D02*
D03*
X022598Y021575D02*
D03*
X022545Y018552D02*
D03*
X024345Y021319D02*
D03*
X019842Y019212D02*
D03*
X022165Y015276D02*
D03*
X019842Y019527D02*
D03*
X015276Y014134D02*
D03*
Y014341D02*
D03*
X020718Y014700D02*
D03*
X021004Y014931D02*
D03*
X019144Y022825D02*
D03*
X014724Y015630D02*
D03*
X016063Y018268D02*
D03*
X019842Y016063D02*
D03*
X021932Y017187D02*
D03*
X016909Y023829D02*
D03*
X015571Y024478D02*
D03*
X015098Y024163D02*
D03*
X015925Y023337D02*
D03*
X015374Y024193D02*
D03*
X019527Y015433D02*
D03*
X019842D02*
D03*
X019734Y015039D02*
D03*
X016910Y014754D02*
D03*
X017106Y014557D02*
D03*
X018602Y014222D02*
D03*
X020679Y013032D02*
D03*
X021673Y012864D02*
D03*
X021722Y013376D02*
D03*
X021732Y014104D02*
D03*
X021526Y013376D02*
D03*
X021919D02*
D03*
X024596Y013110D02*
D03*
X022116Y013376D02*
D03*
X024350Y015423D02*
D03*
X024301Y015089D02*
D03*
X018691Y025394D02*
D03*
X018583Y024085D02*
D03*
X018789Y023927D02*
D03*
X019961Y022795D02*
D03*
X026053Y020866D02*
D03*
X026132Y019380D02*
D03*
X018701Y022825D02*
D03*
X025807Y015935D02*
D03*
X021949Y015059D02*
D03*
X017008Y022362D02*
D03*
X011417Y018022D02*
D03*
X011545Y018199D02*
D03*
X024999Y014617D02*
D03*
X013839Y022795D02*
D03*
X022593Y019547D02*
D03*
X022559Y019783D02*
D03*
X023435Y014134D02*
D03*
X022313Y013376D02*
D03*
X021220Y014931D02*
D03*
X011476Y020719D02*
D03*
X012608Y020709D02*
D03*
X018858Y015394D02*
D03*
X022175Y011785D02*
D03*
X020472Y017323D02*
D03*
X024222Y010354D02*
D03*
X024213Y013100D02*
D03*
X025600Y012008D02*
D03*
X025020Y011841D02*
D03*
X024823D02*
D03*
X024626D02*
D03*
X025020Y011644D02*
D03*
X024823D02*
D03*
X024626D02*
D03*
X022063Y010591D02*
D03*
X022333Y011319D02*
D03*
X019468Y010787D02*
D03*
X021703Y011240D02*
D03*
X020384Y010276D02*
D03*
X020138Y010758D02*
D03*
X021112Y011280D02*
D03*
X024262Y010728D02*
D03*
X025325Y011732D02*
D03*
X024006Y013238D02*
D03*
X024144Y014282D02*
D03*
X024695Y014104D02*
D03*
X021102Y016693D02*
D03*
Y017323D02*
D03*
X020157Y019527D02*
D03*
X020472D02*
D03*
X019842Y019842D02*
D03*
X020157Y019842D02*
D03*
X020472Y019842D02*
D03*
X014065Y019528D02*
D03*
X012215Y017579D02*
D03*
X010827Y021329D02*
D03*
X011132Y021516D02*
D03*
X011063Y021811D02*
D03*
X010423Y022766D02*
D03*
X012687Y017884D02*
D03*
X012638Y018140D02*
D03*
X013002Y016939D02*
D03*
X012264Y014488D02*
D03*
X013947Y015020D02*
D03*
X011545Y016329D02*
D03*
X022648Y012736D02*
D03*
X018543Y010748D02*
D03*
X016024Y010394D02*
D03*
X010335Y021299D02*
D03*
X010433Y023041D02*
D03*
X011014Y022992D02*
D03*
X019527Y017008D02*
D03*
X019842Y020157D02*
D03*
X017322Y016378D02*
D03*
X018582Y017953D02*
D03*
X017952Y018268D02*
D03*
X022372Y011063D02*
D03*
X023376Y011407D02*
D03*
X023184D02*
D03*
X023568D02*
D03*
X022953Y012697D02*
D03*
X011654Y014124D02*
D03*
X021713Y010876D02*
D03*
X013218Y017579D02*
D03*
X010669Y018287D02*
D03*
X014626Y016398D02*
D03*
X013023Y017676D02*
D03*
X023245Y014134D02*
D03*
X021673Y013140D02*
D03*
X016978Y023484D02*
D03*
X023435Y013907D02*
D03*
Y013691D02*
D03*
Y013474D02*
D03*
X021919Y013583D02*
D03*
Y013789D02*
D03*
X022116D02*
D03*
Y013583D02*
D03*
X023054Y014134D02*
D03*
X022864D02*
D03*
X022018Y013957D02*
D03*
X025787Y016348D02*
D03*
Y016142D02*
D03*
X022232Y021028D02*
D03*
X021102Y016378D02*
D03*
Y016063D02*
D03*
X020787Y021732D02*
D03*
Y021417D02*
D03*
X014042Y017271D02*
D03*
Y017064D02*
D03*
X018474Y024685D02*
D03*
X018415Y024911D02*
D03*
X018147Y024083D02*
D03*
X018354D02*
D03*
X017313Y022579D02*
D03*
Y022372D02*
D03*
X014732Y016796D02*
D03*
Y016590D02*
D03*
X019527Y016693D02*
D03*
Y016378D02*
D03*
X014232Y015615D02*
D03*
Y015408D02*
D03*
X013286Y016130D02*
D03*
X013140Y015984D02*
D03*
X011545Y016796D02*
D03*
Y016590D02*
D03*
X021417Y016693D02*
D03*
Y016378D02*
D03*
X021102Y017638D02*
D03*
X020787D02*
D03*
X011535Y015615D02*
D03*
Y015408D02*
D03*
X013996Y016206D02*
D03*
Y015999D02*
D03*
X012638Y017638D02*
D03*
X013974Y017977D02*
D03*
Y017771D02*
D03*
X011005Y017953D02*
D03*
X011212D02*
D03*
X025157Y016403D02*
D03*
Y016196D02*
D03*
X021732Y015276D02*
D03*
Y015069D02*
D03*
X021417Y015748D02*
D03*
X021732Y015748D02*
D03*
X010433Y019464D02*
D03*
Y019257D02*
D03*
X025000Y017584D02*
D03*
Y017377D02*
D03*
X010650Y017766D02*
D03*
Y017559D02*
D03*
X012510Y014488D02*
D03*
X012717D02*
D03*
X018147Y023061D02*
D03*
X018354D02*
D03*
X018885Y023688D02*
D03*
Y023481D02*
D03*
X019801Y023688D02*
D03*
Y023481D02*
D03*
X021850Y019370D02*
D03*
X022056D02*
D03*
X021102Y022362D02*
D03*
Y022047D02*
D03*
X016978Y023062D02*
D03*
X022232Y021870D02*
D03*
X022025D02*
D03*
X025945Y019471D02*
D03*
Y019265D02*
D03*
X016978Y023269D02*
D03*
X014478Y014094D02*
D03*
X020940Y025069D02*
D03*
X020610D02*
D03*
X021270D02*
D03*
Y024739D02*
D03*
X020610D02*
D03*
X020940D02*
D03*
X021270Y024409D02*
D03*
X020610D02*
D03*
X020940D02*
D03*
X016102Y025039D02*
D03*
X017319Y025394D02*
D03*
Y025039D02*
D03*
X016102Y025394D02*
D03*
X011348Y019557D02*
D03*
X014485Y017249D02*
D03*
X014692D02*
D03*
X014485Y018061D02*
D03*
X014692D02*
D03*
X024321Y020679D02*
D03*
X024281Y020453D02*
D03*
X011526Y015025D02*
D03*
Y014818D02*
D03*
X011093Y022116D02*
D03*
X011201Y024921D02*
D03*
D109*
X042913Y024409D02*
D03*
Y023622D02*
D03*
Y022835D02*
D03*
Y022047D02*
D03*
Y021260D02*
D03*
Y020472D02*
D03*
Y019685D02*
D03*
Y018898D02*
D03*
Y018110D02*
D03*
Y015748D02*
D03*
Y014961D02*
D03*
Y014173D02*
D03*
Y013386D02*
D03*
Y012598D02*
D03*
Y011811D02*
D03*
X042126Y025197D02*
D03*
Y024409D02*
D03*
Y023622D02*
D03*
Y022047D02*
D03*
Y021260D02*
D03*
Y020472D02*
D03*
Y019685D02*
D03*
Y018898D02*
D03*
Y018110D02*
D03*
Y012598D02*
D03*
Y011811D02*
D03*
Y011024D02*
D03*
X041339Y025197D02*
D03*
Y024409D02*
D03*
Y023622D02*
D03*
Y022835D02*
D03*
Y022047D02*
D03*
Y013386D02*
D03*
Y012598D02*
D03*
Y011024D02*
D03*
X040551Y025197D02*
D03*
Y024409D02*
D03*
Y023622D02*
D03*
Y022835D02*
D03*
Y022047D02*
D03*
Y019685D02*
D03*
Y018110D02*
D03*
Y013386D02*
D03*
Y012598D02*
D03*
Y011811D02*
D03*
Y011024D02*
D03*
X039764Y025197D02*
D03*
Y024409D02*
D03*
Y023622D02*
D03*
Y022835D02*
D03*
Y022047D02*
D03*
Y020472D02*
D03*
Y019685D02*
D03*
Y018898D02*
D03*
Y013386D02*
D03*
Y012598D02*
D03*
Y011811D02*
D03*
Y011024D02*
D03*
X038976Y025197D02*
D03*
Y024409D02*
D03*
Y023622D02*
D03*
Y022835D02*
D03*
Y022047D02*
D03*
Y020472D02*
D03*
Y019685D02*
D03*
Y015748D02*
D03*
Y013386D02*
D03*
Y011811D02*
D03*
Y011024D02*
D03*
X038189Y025197D02*
D03*
Y024409D02*
D03*
Y023622D02*
D03*
Y022047D02*
D03*
Y020472D02*
D03*
Y019685D02*
D03*
Y018110D02*
D03*
Y016535D02*
D03*
Y015748D02*
D03*
Y013386D02*
D03*
Y012598D02*
D03*
Y011811D02*
D03*
Y011024D02*
D03*
X037402Y025197D02*
D03*
Y024409D02*
D03*
Y023622D02*
D03*
Y022835D02*
D03*
Y022047D02*
D03*
Y013386D02*
D03*
Y012598D02*
D03*
Y011811D02*
D03*
X036614Y025197D02*
D03*
Y023622D02*
D03*
Y022835D02*
D03*
Y022047D02*
D03*
Y013386D02*
D03*
Y012598D02*
D03*
Y011811D02*
D03*
Y011024D02*
D03*
X035827Y025197D02*
D03*
Y024409D02*
D03*
Y023622D02*
D03*
Y022047D02*
D03*
Y013386D02*
D03*
Y012598D02*
D03*
Y011811D02*
D03*
Y011024D02*
D03*
X035039Y024409D02*
D03*
Y023622D02*
D03*
Y013386D02*
D03*
Y012598D02*
D03*
Y011811D02*
D03*
Y011024D02*
D03*
X034252Y022835D02*
D03*
Y022047D02*
D03*
Y015748D02*
D03*
Y014961D02*
D03*
Y014173D02*
D03*
Y013386D02*
D03*
Y012598D02*
D03*
Y011811D02*
D03*
Y011024D02*
D03*
X033465Y024409D02*
D03*
Y023622D02*
D03*
Y022835D02*
D03*
Y022047D02*
D03*
Y021260D02*
D03*
Y020472D02*
D03*
Y018110D02*
D03*
Y016535D02*
D03*
Y015748D02*
D03*
Y014961D02*
D03*
Y014173D02*
D03*
Y013386D02*
D03*
Y012598D02*
D03*
Y011811D02*
D03*
Y011024D02*
D03*
X032677Y025197D02*
D03*
Y024409D02*
D03*
Y023622D02*
D03*
Y022835D02*
D03*
Y022047D02*
D03*
Y021260D02*
D03*
Y020472D02*
D03*
Y016535D02*
D03*
Y015748D02*
D03*
Y014961D02*
D03*
Y014173D02*
D03*
Y013386D02*
D03*
Y012598D02*
D03*
X031890Y025197D02*
D03*
Y024409D02*
D03*
Y023622D02*
D03*
Y022835D02*
D03*
Y022047D02*
D03*
Y021260D02*
D03*
Y020472D02*
D03*
Y014961D02*
D03*
Y014173D02*
D03*
Y013386D02*
D03*
Y012598D02*
D03*
Y011811D02*
D03*
Y011024D02*
D03*
X031102Y025197D02*
D03*
Y024409D02*
D03*
Y023622D02*
D03*
Y022047D02*
D03*
Y021260D02*
D03*
Y020472D02*
D03*
Y019685D02*
D03*
Y018898D02*
D03*
Y016535D02*
D03*
Y014961D02*
D03*
Y014173D02*
D03*
Y012598D02*
D03*
Y011811D02*
D03*
X030315Y025197D02*
D03*
Y024409D02*
D03*
Y023622D02*
D03*
Y022835D02*
D03*
Y019685D02*
D03*
Y014961D02*
D03*
Y014173D02*
D03*
Y013386D02*
D03*
Y012598D02*
D03*
Y011811D02*
D03*
X029528Y025197D02*
D03*
Y024409D02*
D03*
Y023622D02*
D03*
Y022835D02*
D03*
Y022047D02*
D03*
Y020472D02*
D03*
Y017323D02*
D03*
Y014173D02*
D03*
Y013386D02*
D03*
Y012598D02*
D03*
Y011811D02*
D03*
Y011024D02*
D03*
X028740Y023622D02*
D03*
Y022835D02*
D03*
Y022047D02*
D03*
Y021260D02*
D03*
Y020472D02*
D03*
Y019685D02*
D03*
Y018898D02*
D03*
Y018110D02*
D03*
Y017323D02*
D03*
Y016535D02*
D03*
Y015748D02*
D03*
Y014961D02*
D03*
Y014173D02*
D03*
Y013386D02*
D03*
Y012598D02*
D03*
Y011811D02*
D03*
D117*
X023356Y010718D02*
D03*
D118*
X023947Y010344D02*
D03*
Y010718D02*
D03*
Y011093D02*
D03*
X022766D02*
D03*
X022766Y010718D02*
D03*
X022766Y010344D02*
D03*
D119*
X016351Y017926D02*
D03*
X016090Y017664D02*
D03*
D120*
X013632Y018366D02*
D03*
Y018563D02*
D03*
X011880Y015413D02*
D03*
Y015610D02*
D03*
X013632Y021909D02*
D03*
Y022106D02*
D03*
Y020728D02*
D03*
Y020925D02*
D03*
X011880Y018957D02*
D03*
Y019154D02*
D03*
Y020138D02*
D03*
Y020335D02*
D03*
Y020728D02*
D03*
Y020925D02*
D03*
X013632Y020138D02*
D03*
Y020335D02*
D03*
X011880Y021909D02*
D03*
Y022106D02*
D03*
X013632Y014823D02*
D03*
Y015020D02*
D03*
Y015217D02*
D03*
Y015807D02*
D03*
Y016004D02*
D03*
Y016201D02*
D03*
X011880Y014429D02*
D03*
Y014626D02*
D03*
Y014823D02*
D03*
Y015020D02*
D03*
Y015217D02*
D03*
Y015807D02*
D03*
Y016398D02*
D03*
X013632Y021713D02*
D03*
Y021516D02*
D03*
Y021319D02*
D03*
Y021122D02*
D03*
Y020531D02*
D03*
Y019941D02*
D03*
Y019744D02*
D03*
Y019547D02*
D03*
Y019350D02*
D03*
Y019154D02*
D03*
Y018957D02*
D03*
Y018760D02*
D03*
Y018169D02*
D03*
Y017579D02*
D03*
Y016988D02*
D03*
Y016398D02*
D03*
X011880Y021713D02*
D03*
Y021516D02*
D03*
Y021319D02*
D03*
Y021122D02*
D03*
Y020531D02*
D03*
Y019941D02*
D03*
Y019744D02*
D03*
Y019547D02*
D03*
Y019350D02*
D03*
Y018760D02*
D03*
Y018169D02*
D03*
Y017579D02*
D03*
Y016988D02*
D03*
X024656Y017972D02*
D03*
Y017382D02*
D03*
Y017579D02*
D03*
Y014429D02*
D03*
Y014626D02*
D03*
Y014823D02*
D03*
Y015020D02*
D03*
Y015217D02*
D03*
Y015413D02*
D03*
Y015610D02*
D03*
Y015807D02*
D03*
Y016004D02*
D03*
X022904Y014429D02*
D03*
Y014626D02*
D03*
Y014823D02*
D03*
Y015020D02*
D03*
Y015217D02*
D03*
Y015413D02*
D03*
Y015610D02*
D03*
Y015807D02*
D03*
Y016004D02*
D03*
X024656Y022106D02*
D03*
Y021909D02*
D03*
Y021713D02*
D03*
Y021516D02*
D03*
Y021319D02*
D03*
Y021122D02*
D03*
Y020925D02*
D03*
Y020728D02*
D03*
Y020531D02*
D03*
Y020335D02*
D03*
Y020138D02*
D03*
Y019941D02*
D03*
Y019744D02*
D03*
Y019547D02*
D03*
Y019350D02*
D03*
Y019154D02*
D03*
Y018957D02*
D03*
Y018760D02*
D03*
Y018563D02*
D03*
Y018366D02*
D03*
Y018169D02*
D03*
Y017776D02*
D03*
Y017185D02*
D03*
Y016594D02*
D03*
X022904Y022106D02*
D03*
Y021909D02*
D03*
Y021713D02*
D03*
Y021516D02*
D03*
Y021319D02*
D03*
Y021122D02*
D03*
Y020925D02*
D03*
Y020728D02*
D03*
Y020531D02*
D03*
Y020335D02*
D03*
Y020138D02*
D03*
Y019941D02*
D03*
Y019744D02*
D03*
Y019547D02*
D03*
Y019350D02*
D03*
Y019154D02*
D03*
Y018957D02*
D03*
Y018760D02*
D03*
Y018563D02*
D03*
Y018366D02*
D03*
Y018169D02*
D03*
Y017972D02*
D03*
Y017776D02*
D03*
Y017579D02*
D03*
Y017382D02*
D03*
Y017185D02*
D03*
Y016594D02*
D03*
X011880Y016791D02*
D03*
Y016594D02*
D03*
X022904Y016398D02*
D03*
Y016201D02*
D03*
Y016988D02*
D03*
Y016791D02*
D03*
X024656Y016988D02*
D03*
Y016791D02*
D03*
Y016398D02*
D03*
Y016201D02*
D03*
X013632Y017382D02*
D03*
Y017185D02*
D03*
Y017972D02*
D03*
Y017776D02*
D03*
Y016791D02*
D03*
Y016594D02*
D03*
X011880Y016201D02*
D03*
Y016004D02*
D03*
X013632Y015610D02*
D03*
Y015413D02*
D03*
X011880Y018563D02*
D03*
Y018366D02*
D03*
Y017972D02*
D03*
Y017776D02*
D03*
Y017382D02*
D03*
Y017185D02*
D03*
X013632Y014626D02*
D03*
Y014429D02*
D03*
D121*
X020236Y024862D02*
D03*
Y024606D02*
D03*
X021693Y024350D02*
D03*
X021693Y024606D02*
D03*
X021693Y024862D02*
D03*
X021693Y025118D02*
D03*
X020236Y025118D02*
D03*
Y024350D02*
D03*
D122*
X020965Y024734D02*
D03*
D123*
X020581Y024006D02*
D03*
X020837Y024006D02*
D03*
X021093Y024006D02*
D03*
X021348Y024006D02*
D03*
X021093Y025463D02*
D03*
X020837D02*
D03*
X020581D02*
D03*
D124*
X011959Y011096D02*
D03*
X011959Y011596D02*
D03*
X011959Y012096D02*
D03*
Y012596D02*
D03*
X014203D02*
D03*
Y012096D02*
D03*
X014203Y011596D02*
D03*
X014203Y011096D02*
D03*
D125*
X013081Y011846D02*
D03*
D126*
X022552Y025229D02*
D03*
X022802Y025480D02*
D03*
D127*
X022254Y014468D02*
D03*
X021152D02*
D03*
X016486Y014370D02*
D03*
X017589Y014370D02*
D03*
X017608Y023081D02*
D03*
X016506Y023081D02*
D03*
D128*
X016929Y013628D02*
D03*
X017559D02*
D03*
X015522Y013632D02*
D03*
X016152D02*
D03*
X021624Y013720D02*
D03*
X020994D02*
D03*
X020215Y013622D02*
D03*
X019585D02*
D03*
D129*
X026240Y012657D02*
D03*
Y011909D02*
D03*
X025335Y012283D02*
D03*
D130*
X026161Y015846D02*
D03*
X025413D02*
D03*
X025787Y016752D02*
D03*
D131*
X019085Y014626D02*
D03*
X020226D02*
D03*
D132*
X023770Y012220D02*
D03*
Y012583D02*
D03*
D133*
X028514Y024272D02*
D03*
X011909Y024951D02*
D03*
M02*
