G04 Layer_Color=128*
%FSAX24Y24*%
%MOIN*%
G70*
G01*
G75*
%ADD79C,0.0120*%
%ADD130R,0.0303X0.0303*%
%ADD133R,0.0303X0.0303*%
%ADD134R,0.0453X0.0413*%
%ADD135R,0.0630X0.0492*%
%ADD136R,0.0303X0.0287*%
%ADD137R,0.0287X0.0303*%
%ADD140R,0.0413X0.0453*%
%ADD141R,0.0374X0.0374*%
%ADD142R,0.0453X0.0453*%
%ADD144R,0.0512X0.0630*%
%ADD146R,0.0630X0.0512*%
%ADD147R,0.0807X0.0630*%
%ADD148R,0.0453X0.0453*%
%ADD158R,0.0295X0.0453*%
%ADD164R,0.0453X0.0295*%
%ADD178R,0.0453X0.0177*%
%ADD179R,0.0343X0.0339*%
%ADD180R,0.0768X0.0945*%
%ADD181R,0.0295X0.0472*%
%ADD182R,0.0472X0.0295*%
%ADD183C,0.0295*%
%ADD184R,0.0433X0.0472*%
%ADD185R,0.0630X0.0807*%
%ADD186R,0.1437X0.1673*%
%ADD187R,0.0472X0.0236*%
%ADD188O,0.0453X0.0197*%
%ADD189O,0.0197X0.0453*%
%ADD190R,0.0906X0.0906*%
G04:AMPARAMS|DCode=191|XSize=30.3mil|YSize=28.7mil|CornerRadius=0mil|HoleSize=0mil|Usage=FLASHONLY|Rotation=135.000|XOffset=0mil|YOffset=0mil|HoleType=Round|Shape=Rectangle|*
%AMROTATEDRECTD191*
4,1,4,0.0209,-0.0006,0.0006,-0.0209,-0.0209,0.0006,-0.0006,0.0209,0.0209,-0.0006,0.0*
%
%ADD191ROTATEDRECTD191*%

%ADD192R,0.0374X0.0217*%
%ADD193R,0.0728X0.0925*%
D79*
X100441Y027401D02*
X100971Y026871D01*
X100441Y027401D02*
X100214Y027174D01*
X100164Y027073D01*
Y027022D01*
X100189Y026946D01*
X100239Y026896D01*
X100315Y026871D01*
X100365D01*
X100466Y026921D01*
X100694Y027148D02*
X100466Y026921D01*
X100416Y026820D01*
Y026770D01*
X100441Y026694D01*
X100517Y026618D01*
X100593Y026593D01*
X100643D01*
X100744Y026643D01*
X100971Y026871D01*
X100020Y026626D02*
X100095Y026651D01*
X100196D01*
X100297Y026600D01*
X100348Y026550D01*
X100398Y026449D01*
Y026348D01*
X100373Y026272D01*
X100297Y026196D01*
X100222Y026171D01*
X100121Y026171D01*
X100020Y026222D01*
X099969Y026272D01*
X099919Y026373D01*
X099919Y026474D01*
X099944Y026550D01*
X100020Y026626D01*
X099449Y026409D02*
X099878Y025979D01*
X099929Y025878D01*
X099903Y025803D01*
X099853Y025752D01*
X099701Y026308D02*
X099525Y026131D01*
X099171Y026131D02*
X099600Y025702D01*
X099651Y025601D01*
X099626Y025525D01*
X099575Y025474D01*
X099424Y026030D02*
X099247Y025853D01*
X099020Y025626D02*
X099095Y025651D01*
X099197D01*
X099297Y025601D01*
X099348Y025550D01*
X099398Y025449D01*
Y025348D01*
X099373Y025272D01*
X099297Y025197D01*
X099222Y025171D01*
X099121Y025171D01*
X099020Y025222D01*
X098969Y025272D01*
X098919Y025373D01*
X098919Y025474D01*
X098944Y025550D01*
X099020Y025626D01*
X098702Y025308D02*
X099055Y024954D01*
X098803Y025207D02*
X098651D01*
X098575Y025181D01*
X098500Y025106D01*
X098474Y025030D01*
X098525Y024929D01*
X098777Y024676D01*
X098525Y024929D02*
X098373D01*
X098298Y024904D01*
X098222Y024828D01*
X098197Y024752D01*
X098247Y024651D01*
X098500Y024399D01*
X097664Y024068D02*
X097437Y023841D01*
X097336Y023790D01*
X097285Y023790D01*
X097209Y023816D01*
X097134Y023891D01*
X097108Y023967D01*
Y024018D01*
X097159Y024118D01*
X097386Y024346D01*
X097916Y023816D01*
X096788Y023394D02*
X097141Y023040D01*
X096864Y023318D02*
X096864Y023419D01*
X096889Y023495D01*
X096965Y023571D01*
X097040Y023596D01*
X097141D01*
X097242Y023545D01*
X097293Y023495D01*
X097343Y023394D01*
Y023293D01*
X097318Y023217D01*
X097242Y023141D01*
X097167Y023116D01*
X097066Y023116D01*
X096444Y022899D02*
X096419Y022975D01*
X096470Y023076D01*
X096545Y023151D01*
X096646Y023202D01*
X096722Y023177D01*
X096747Y023101D01*
X096722Y023025D01*
X096621Y022874D01*
X096596Y022798D01*
X096621Y022722D01*
X096646Y022697D01*
X096722Y022672D01*
X096823Y022722D01*
X096899Y022798D01*
X096949Y022899D01*
X096924Y022975D01*
X096005Y022965D02*
X096434Y022535D01*
X096485Y022434D01*
X096460Y022359D01*
X096409Y022308D01*
X096258Y022864D02*
X096081Y022687D01*
X096131Y022434D02*
X095828Y022131D01*
X095778Y022182D01*
X095753Y022258D01*
Y022308D01*
X095778Y022384D01*
X095854Y022460D01*
X095929Y022485D01*
X096030D01*
X096131Y022434D01*
X096182Y022384D01*
X096232Y022283D01*
Y022182D01*
X096207Y022106D01*
X096131Y022030D01*
X096056Y022005D01*
X095955Y022005D01*
D130*
X010443Y021693D02*
D03*
X010797D02*
D03*
X010443Y022096D02*
D03*
X010797D02*
D03*
X019468Y010404D02*
D03*
X019823D02*
D03*
X023219Y011821D02*
D03*
X023573D02*
D03*
X018297Y017933D02*
D03*
X017943D02*
D03*
X010738Y019587D02*
D03*
X011093D02*
D03*
X016713Y019882D02*
D03*
X016358D02*
D03*
X019193Y017953D02*
D03*
X019547Y017953D02*
D03*
X016699Y020827D02*
D03*
X016344D02*
D03*
X016451Y021414D02*
D03*
X016097D02*
D03*
X016752Y018858D02*
D03*
X016398Y018858D02*
D03*
X018563Y017559D02*
D03*
X018209D02*
D03*
X016693Y018268D02*
D03*
X016338D02*
D03*
X017028Y018268D02*
D03*
X017382D02*
D03*
X016752Y019213D02*
D03*
X016398Y019213D02*
D03*
X020522Y018858D02*
D03*
X020167D02*
D03*
X017303Y020787D02*
D03*
X017657Y020787D02*
D03*
X020767Y020472D02*
D03*
X021122Y020472D02*
D03*
X019272Y015718D02*
D03*
X018917D02*
D03*
X017047Y016378D02*
D03*
X016693Y016378D02*
D03*
X018563Y020197D02*
D03*
X018209Y020197D02*
D03*
X021102Y015197D02*
D03*
X020748D02*
D03*
X021712Y016575D02*
D03*
X022067D02*
D03*
X015419Y019488D02*
D03*
X015774D02*
D03*
X016699Y020413D02*
D03*
X016344D02*
D03*
X016713Y015984D02*
D03*
X017067D02*
D03*
X017569Y016624D02*
D03*
X017923D02*
D03*
X022746Y024793D02*
D03*
X022392D02*
D03*
X022835Y025502D02*
D03*
X022480D02*
D03*
X017579Y025276D02*
D03*
X017933D02*
D03*
X016866Y025857D02*
D03*
X016511D02*
D03*
X015571Y023819D02*
D03*
X015925D02*
D03*
X016122Y025856D02*
D03*
X015768D02*
D03*
X015886Y025217D02*
D03*
X015531D02*
D03*
X015919Y024807D02*
D03*
X015565D02*
D03*
X021817Y010243D02*
D03*
X021463D02*
D03*
D133*
X014329Y019581D02*
D03*
X014724Y019581D02*
D03*
X014329Y019227D02*
D03*
X014724Y019227D02*
D03*
X021789Y019616D02*
D03*
X022165Y019616D02*
D03*
X021789Y019970D02*
D03*
X022165Y019970D02*
D03*
X021928Y021282D02*
D03*
X022328Y021282D02*
D03*
X021928Y021636D02*
D03*
X022328Y021636D02*
D03*
X022323Y010226D02*
D03*
Y010581D02*
D03*
X018199Y019843D02*
D03*
Y019488D02*
D03*
X010886Y018573D02*
D03*
Y018927D02*
D03*
X024843Y012441D02*
D03*
Y012795D02*
D03*
X018278Y010657D02*
D03*
Y010303D02*
D03*
X014391Y017471D02*
D03*
X014391Y017825D02*
D03*
X014786Y017471D02*
D03*
Y017825D02*
D03*
X019213Y022313D02*
D03*
Y021959D02*
D03*
X020512Y022067D02*
D03*
Y022421D02*
D03*
X021417Y022028D02*
D03*
Y022382D02*
D03*
X017913Y017343D02*
D03*
Y016988D02*
D03*
X021414Y017394D02*
D03*
X021414Y017040D02*
D03*
X021496Y020413D02*
D03*
Y020768D02*
D03*
X017322Y017342D02*
D03*
Y016988D02*
D03*
X016732Y017579D02*
D03*
Y017933D02*
D03*
X016063Y019272D02*
D03*
Y018917D02*
D03*
X015460Y021437D02*
D03*
Y021082D02*
D03*
X018228Y021309D02*
D03*
Y021663D02*
D03*
X015748Y020492D02*
D03*
Y020138D02*
D03*
X020472Y021358D02*
D03*
Y021713D02*
D03*
X019586Y021365D02*
D03*
Y021720D02*
D03*
X019252Y017041D02*
D03*
Y016687D02*
D03*
X018267Y016712D02*
D03*
Y016358D02*
D03*
X018898Y019508D02*
D03*
Y019862D02*
D03*
X021486Y021437D02*
D03*
Y021083D02*
D03*
X020797Y017372D02*
D03*
X020797Y017018D02*
D03*
X015403Y016653D02*
D03*
Y017008D02*
D03*
X015039Y016004D02*
D03*
Y016358D02*
D03*
X018268Y020610D02*
D03*
X018268Y020965D02*
D03*
X015779Y017005D02*
D03*
Y016651D02*
D03*
X011299Y018927D02*
D03*
Y018573D02*
D03*
X015096Y023461D02*
D03*
Y023816D02*
D03*
X018091Y024567D02*
D03*
Y024921D02*
D03*
X021693Y023661D02*
D03*
Y023307D02*
D03*
X013996Y010669D02*
D03*
Y010315D02*
D03*
D134*
X018303Y011181D02*
D03*
Y011811D02*
D03*
D135*
X018898Y012018D02*
D03*
Y012726D02*
D03*
D136*
X018907Y017055D02*
D03*
Y016685D02*
D03*
X015394Y020497D02*
D03*
X015394Y020127D02*
D03*
X025450Y023471D02*
D03*
X025450Y023841D02*
D03*
X017872Y010671D02*
D03*
Y010301D02*
D03*
X025450Y024589D02*
D03*
Y024219D02*
D03*
X019803Y020494D02*
D03*
Y020864D02*
D03*
X011811Y010297D02*
D03*
Y010667D02*
D03*
X016142Y016406D02*
D03*
Y016035D02*
D03*
X025839Y018520D02*
D03*
Y018890D02*
D03*
X026248Y018890D02*
D03*
Y018520D02*
D03*
X014272Y022872D02*
D03*
Y022502D02*
D03*
X013622Y010677D02*
D03*
X013622Y010307D02*
D03*
X013234D02*
D03*
Y010677D02*
D03*
D137*
X024348Y011821D02*
D03*
X023978D02*
D03*
X015406Y018937D02*
D03*
X015776D02*
D03*
X020130Y017677D02*
D03*
X020500D02*
D03*
X025657Y013071D02*
D03*
X025287D02*
D03*
X016311Y019567D02*
D03*
X016681Y019567D02*
D03*
X015406Y016063D02*
D03*
X015776D02*
D03*
X016681Y017047D02*
D03*
X016311D02*
D03*
X023230Y025728D02*
D03*
X023600D02*
D03*
X021449Y010581D02*
D03*
X021819Y010581D02*
D03*
D140*
X019508Y011236D02*
D03*
X018878D02*
D03*
X014557Y010551D02*
D03*
X015187D02*
D03*
D141*
X025907Y024517D02*
D03*
Y023867D02*
D03*
D142*
X016417Y025089D02*
D03*
Y024498D02*
D03*
D144*
X014921Y015039D02*
D03*
X015630D02*
D03*
X021112Y022982D02*
D03*
X020404D02*
D03*
X021929Y018760D02*
D03*
X021220D02*
D03*
D146*
X014843Y022894D02*
D03*
Y022185D02*
D03*
X015590Y018464D02*
D03*
Y017756D02*
D03*
D147*
X014605Y020369D02*
D03*
Y021471D02*
D03*
D148*
X018189Y015945D02*
D03*
X017598Y015945D02*
D03*
X017933Y018898D02*
D03*
X017343D02*
D03*
X018602D02*
D03*
X019193D02*
D03*
X021919Y022835D02*
D03*
X022510D02*
D03*
X016880Y015374D02*
D03*
X017470D02*
D03*
X017589Y024429D02*
D03*
X016998D02*
D03*
D158*
X010807Y022480D02*
D03*
X011181Y023386D02*
D03*
X010433D02*
D03*
D164*
X010295Y024213D02*
D03*
X011201Y023839D02*
D03*
Y024587D02*
D03*
D178*
X013632Y014429D02*
D03*
Y014626D02*
D03*
X011880Y017185D02*
D03*
Y017382D02*
D03*
Y017776D02*
D03*
Y017972D02*
D03*
Y018366D02*
D03*
Y018563D02*
D03*
X013632Y015413D02*
D03*
Y015610D02*
D03*
X011880Y016004D02*
D03*
Y016201D02*
D03*
X013632Y016594D02*
D03*
Y016791D02*
D03*
Y017776D02*
D03*
Y017972D02*
D03*
Y017185D02*
D03*
Y017382D02*
D03*
X024656Y016201D02*
D03*
Y016398D02*
D03*
Y016791D02*
D03*
Y016988D02*
D03*
X022904Y016791D02*
D03*
Y016988D02*
D03*
Y016201D02*
D03*
Y016398D02*
D03*
X011880Y016594D02*
D03*
Y016791D02*
D03*
X022904Y016594D02*
D03*
Y017185D02*
D03*
Y017382D02*
D03*
Y017579D02*
D03*
Y017776D02*
D03*
Y017972D02*
D03*
Y018169D02*
D03*
Y018366D02*
D03*
Y018563D02*
D03*
Y018760D02*
D03*
Y018957D02*
D03*
Y019154D02*
D03*
Y019350D02*
D03*
Y019547D02*
D03*
Y019744D02*
D03*
Y019941D02*
D03*
Y020138D02*
D03*
Y020335D02*
D03*
Y020531D02*
D03*
Y020728D02*
D03*
Y020925D02*
D03*
Y021122D02*
D03*
Y021319D02*
D03*
Y021516D02*
D03*
Y021713D02*
D03*
Y021909D02*
D03*
Y022106D02*
D03*
X024656Y016594D02*
D03*
Y017185D02*
D03*
Y017776D02*
D03*
Y018169D02*
D03*
Y018366D02*
D03*
Y018563D02*
D03*
Y018760D02*
D03*
Y018957D02*
D03*
Y019154D02*
D03*
Y019350D02*
D03*
Y019547D02*
D03*
Y019744D02*
D03*
Y019941D02*
D03*
Y020138D02*
D03*
Y020335D02*
D03*
Y020531D02*
D03*
Y020728D02*
D03*
Y020925D02*
D03*
Y021122D02*
D03*
Y021319D02*
D03*
Y021516D02*
D03*
Y021713D02*
D03*
Y021909D02*
D03*
Y022106D02*
D03*
X022904Y016004D02*
D03*
Y015807D02*
D03*
Y015610D02*
D03*
Y015413D02*
D03*
Y015217D02*
D03*
Y015020D02*
D03*
Y014823D02*
D03*
Y014626D02*
D03*
Y014429D02*
D03*
X024656Y016004D02*
D03*
Y015807D02*
D03*
Y015610D02*
D03*
Y015413D02*
D03*
Y015217D02*
D03*
Y015020D02*
D03*
Y014823D02*
D03*
Y014626D02*
D03*
Y014429D02*
D03*
Y017579D02*
D03*
Y017382D02*
D03*
Y017972D02*
D03*
X011880Y016988D02*
D03*
Y017579D02*
D03*
Y018169D02*
D03*
Y018760D02*
D03*
Y019350D02*
D03*
Y019547D02*
D03*
Y019744D02*
D03*
Y019941D02*
D03*
Y020531D02*
D03*
Y021122D02*
D03*
Y021319D02*
D03*
Y021516D02*
D03*
Y021713D02*
D03*
X013632Y016398D02*
D03*
Y016988D02*
D03*
Y017579D02*
D03*
Y018169D02*
D03*
Y018760D02*
D03*
Y018957D02*
D03*
Y019154D02*
D03*
Y019350D02*
D03*
Y019547D02*
D03*
Y019744D02*
D03*
Y019941D02*
D03*
Y020531D02*
D03*
Y021122D02*
D03*
Y021319D02*
D03*
Y021516D02*
D03*
Y021713D02*
D03*
X011880Y016398D02*
D03*
Y015807D02*
D03*
Y015217D02*
D03*
Y015020D02*
D03*
Y014823D02*
D03*
Y014626D02*
D03*
Y014429D02*
D03*
X013632Y016201D02*
D03*
Y016004D02*
D03*
Y015807D02*
D03*
Y015217D02*
D03*
Y015020D02*
D03*
Y014823D02*
D03*
X011880Y022106D02*
D03*
Y021909D02*
D03*
X013632Y020335D02*
D03*
Y020138D02*
D03*
X011880Y020925D02*
D03*
Y020728D02*
D03*
Y020335D02*
D03*
Y020138D02*
D03*
Y019154D02*
D03*
Y018957D02*
D03*
X013632Y020925D02*
D03*
Y020728D02*
D03*
Y022106D02*
D03*
Y021909D02*
D03*
X011880Y015610D02*
D03*
Y015413D02*
D03*
X013632Y018563D02*
D03*
Y018366D02*
D03*
D179*
X023770Y012583D02*
D03*
Y012220D02*
D03*
D180*
X020226Y014626D02*
D03*
X019085D02*
D03*
D181*
X025787Y016752D02*
D03*
X025413Y015846D02*
D03*
X026161D02*
D03*
D182*
X025335Y012283D02*
D03*
X026240Y011909D02*
D03*
Y012657D02*
D03*
D183*
X021929Y011032D02*
D03*
Y011531D02*
D03*
Y012032D02*
D03*
Y012531D02*
D03*
Y013032D02*
D03*
X021429Y011032D02*
D03*
Y011531D02*
D03*
X021429Y012032D02*
D03*
X021429Y012531D02*
D03*
Y013032D02*
D03*
X020929Y011032D02*
D03*
Y011531D02*
D03*
Y012032D02*
D03*
Y012531D02*
D03*
Y013032D02*
D03*
X020429Y011032D02*
D03*
Y011531D02*
D03*
X020429Y012032D02*
D03*
X020429Y012531D02*
D03*
Y013032D02*
D03*
X019929Y011032D02*
D03*
Y011531D02*
D03*
Y012032D02*
D03*
Y012531D02*
D03*
Y013032D02*
D03*
X017219Y011047D02*
D03*
Y011547D02*
D03*
Y012047D02*
D03*
Y012547D02*
D03*
Y013047D02*
D03*
X016718Y011047D02*
D03*
Y011547D02*
D03*
X016718Y012047D02*
D03*
X016718Y012547D02*
D03*
Y013047D02*
D03*
X016219Y011047D02*
D03*
Y011547D02*
D03*
Y012047D02*
D03*
Y012547D02*
D03*
Y013047D02*
D03*
X015718Y011047D02*
D03*
Y011547D02*
D03*
X015719Y012047D02*
D03*
X015718Y012547D02*
D03*
Y013047D02*
D03*
X015218Y011047D02*
D03*
Y011547D02*
D03*
Y012047D02*
D03*
Y012547D02*
D03*
Y013047D02*
D03*
D184*
X019585Y013622D02*
D03*
X020215D02*
D03*
X020994Y013720D02*
D03*
X021624D02*
D03*
X016152Y013632D02*
D03*
X015522D02*
D03*
X017559Y013628D02*
D03*
X016929D02*
D03*
D185*
X016506Y023081D02*
D03*
X017608Y023081D02*
D03*
X017589Y014370D02*
D03*
X016486Y014370D02*
D03*
X021152Y014468D02*
D03*
X022254D02*
D03*
D186*
X013081Y011846D02*
D03*
D187*
X014203Y011096D02*
D03*
X014203Y011596D02*
D03*
X014203Y012096D02*
D03*
Y012596D02*
D03*
X011959D02*
D03*
Y012096D02*
D03*
X011959Y011596D02*
D03*
X011959Y011096D02*
D03*
D188*
X020236Y024350D02*
D03*
Y025118D02*
D03*
X021693Y025118D02*
D03*
X021693Y024862D02*
D03*
X021693Y024606D02*
D03*
X021693Y024350D02*
D03*
X020236Y024606D02*
D03*
Y024862D02*
D03*
D189*
X020581Y025463D02*
D03*
X020837D02*
D03*
X021093D02*
D03*
X021348Y024006D02*
D03*
X021093Y024006D02*
D03*
X020837Y024006D02*
D03*
X020581Y024006D02*
D03*
D190*
X020965Y024734D02*
D03*
D191*
X016090Y017664D02*
D03*
X016351Y017926D02*
D03*
D192*
X022766Y010344D02*
D03*
X022766Y010718D02*
D03*
X022766Y011093D02*
D03*
X023947D02*
D03*
Y010718D02*
D03*
Y010344D02*
D03*
D193*
X023356Y010718D02*
D03*
M02*
