G04 Layer_Color=8421504*
%FSAX44Y44*%
%MOMM*%
G71*
G01*
G75*
%ADD67C,0.3048*%
%ADD133R,1.3500X1.5500*%
%ADD134R,0.7500X1.2500*%
%ADD135R,1.2000X0.8000*%
%ADD136R,1.2000X0.7000*%
%ADD137R,0.7500X1.1500*%
%ADD138R,2.2000X0.8000*%
%ADD139R,2.2000X3.3500*%
%ADD140R,1.9500X2.5500*%
%ADD141R,0.9000X0.3500*%
%ADD142R,0.3500X0.8500*%
%ADD143R,1.1500X0.5500*%
%ADD144R,1.0500X0.6500*%
%ADD145R,1.6500X0.4500*%
%ADD146R,1.0500X1.1500*%
%ADD147R,0.7700X0.7300*%
%ADD148R,5.4500X5.4500*%
%ADD149O,1.0000X0.4500*%
%ADD150O,0.4500X1.0000*%
%ADD151O,1.0000X0.3500*%
%ADD152R,2.8900X0.8400*%
%ADD153O,0.3500X1.0000*%
%ADD154R,0.9500X1.8500*%
%ADD155R,0.9500X1.2500*%
%ADD156R,1.2500X1.3500*%
%ADD157R,0.9500X0.9500*%
%ADD158R,1.1500X1.1500*%
%ADD159R,1.6000X3.1500*%
%ADD160R,1.1500X1.9000*%
%ADD161R,2.0500X1.6000*%
%ADD162R,1.3000X1.9500*%
%ADD163R,1.3000X1.6000*%
%ADD164R,1.1500X1.1000*%
%ADD165R,1.1000X1.1500*%
%ADD166R,0.7700X0.7700*%
%ADD167C,0.6000*%
%ADD168R,2.1500X1.0500*%
%ADD169R,1.1500X1.0500*%
%ADD170R,0.7700X0.7700*%
%ADD171R,1.1500X1.1500*%
%ADD172R,0.7300X0.7700*%
%ADD173R,1.1500X0.7500*%
%ADD174R,0.9500X0.9500*%
%ADD175R,1.6000X1.2500*%
%ADD176R,1.6000X1.3000*%
%ADD177R,1.9500X1.3000*%
%ADD178R,1.1500X1.1000*%
G36*
X00325600Y00484650D02*
X00309200D01*
Y00501050D01*
X00325600D01*
Y00484650D01*
D02*
G37*
G36*
X00302800D02*
X00286400D01*
Y00501050D01*
X00302800D01*
Y00484650D01*
D02*
G37*
G36*
X00325600Y00507450D02*
X00309200D01*
Y00523850D01*
X00325600D01*
Y00507450D01*
D02*
G37*
G36*
X00302800D02*
X00286400D01*
Y00523850D01*
X00302800D01*
Y00507450D01*
D02*
G37*
D67*
X01964422Y00565182D02*
X01977889Y00551714D01*
X01959933Y00560692D02*
X01968911Y00569671D01*
X01978210Y00569991D02*
X01977569Y00568068D01*
Y00565502D01*
X01978851Y00562937D01*
X01980134Y00561655D01*
X01982699Y00560372D01*
X01985264D01*
X01987188Y00561013D01*
X01989112Y00562937D01*
X01989753Y00564861D01*
X01989754Y00567426D01*
X01988471Y00569991D01*
X01987188Y00571274D01*
X01984623Y00572557D01*
X01982058Y00572557D01*
X01980134Y00571915D01*
X01978210Y00569991D01*
X01986290Y00578072D02*
X01999758Y00564604D01*
X01988214Y00576148D02*
Y00578713D01*
X01988856Y00580637D01*
X01990780Y00582561D01*
X01992704Y00583203D01*
X01995269D01*
X01997834Y00581920D01*
X01999117Y00580637D01*
X02000399Y00578072D01*
Y00575507D01*
X01999758Y00573583D01*
X01997834Y00571659D01*
X01995910Y00571018D01*
X01993345D01*
X02010019Y00596670D02*
X02015791Y00602442D01*
X02017073Y00605007D01*
X02017073Y00606290D01*
X02016432Y00608214D01*
X02014508Y00610137D01*
X02012584Y00610779D01*
X02011301D01*
X02008736Y00609496D01*
X02002964Y00603724D01*
X02016432Y00590257D01*
X02027142Y00618923D02*
X02036120Y00609945D01*
X02029066Y00617000D02*
X02026501Y00617000D01*
X02024577Y00616358D01*
X02022653Y00614434D01*
X02022011Y00612510D01*
Y00609945D01*
X02023294Y00607380D01*
X02024577Y00606097D01*
X02027142Y00604815D01*
X02029707D01*
X02031631Y00605456D01*
X02033555Y00607380D01*
X02034196Y00609304D01*
X02034196Y00611869D01*
X02039711Y00627645D02*
X02037787Y00628287D01*
X02035222Y00627004D01*
X02033298Y00625080D01*
X02032016Y00622515D01*
X02032657Y00620591D01*
X02034581Y00619949D01*
X02036505Y00620591D01*
X02040353Y00623156D01*
X02042277Y00623797D01*
X02044201Y00623156D01*
X02044842Y00622515D01*
X02045483Y00620591D01*
X02044201Y00618026D01*
X02042277Y00616102D01*
X02039711Y00614819D01*
X02037787Y00615460D01*
X02038044Y00638804D02*
X02048946Y00627902D01*
X02051512Y00626619D01*
X02053436Y00627260D01*
X02054718Y00628543D01*
X02040609Y00632391D02*
X02045098Y00636880D01*
X02051512Y00635597D02*
X02059207Y00643293D01*
X02057925Y00644576D01*
X02056001Y00645217D01*
X02054718Y00645217D01*
X02052794Y00644576D01*
X02050870Y00642652D01*
X02050229Y00640728D01*
Y00638163D01*
X02051512Y00635597D01*
X02052794Y00634315D01*
X02055359Y00633032D01*
X02057925D01*
X02059849Y00633674D01*
X02061772Y00635597D01*
X02062414Y00637521D01*
X02062414Y00640087D01*
D133*
X00318000Y00559000D02*
D03*
Y00581000D02*
D03*
X00301000Y00559000D02*
D03*
Y00581000D02*
D03*
X00590499Y00373000D02*
D03*
Y00395000D02*
D03*
X00609500Y00395000D02*
D03*
Y00373000D02*
D03*
D134*
X00301000Y00377000D02*
D03*
X00310500Y00377000D02*
D03*
X00320000Y00377000D02*
D03*
Y00350000D02*
D03*
X00310500Y00350000D02*
D03*
X00301000Y00350000D02*
D03*
D135*
X00321500Y00432500D02*
D03*
X00344500Y00423000D02*
D03*
D136*
Y00442000D02*
D03*
D137*
X01072750Y00290298D02*
D03*
X01053750D02*
D03*
X01063250Y00267298D02*
D03*
X00642033Y00602973D02*
D03*
X00661033D02*
D03*
X00651534Y00625973D02*
D03*
X01037250Y00290298D02*
D03*
X01018250D02*
D03*
X01027750Y00267298D02*
D03*
D138*
X00918500Y00659610D02*
D03*
Y00646910D02*
D03*
Y00634210D02*
D03*
X00918500Y00621510D02*
D03*
X00918500Y00608810D02*
D03*
X00905255Y00268873D02*
D03*
Y00281573D02*
D03*
Y00294273D02*
D03*
Y00306973D02*
D03*
Y00319673D02*
D03*
D139*
X00978500Y00634210D02*
D03*
X00845255Y00294273D02*
D03*
D140*
X00615000Y00317000D02*
D03*
D141*
X00630000Y00329000D02*
D03*
Y00325000D02*
D03*
Y00321000D02*
D03*
Y00317000D02*
D03*
Y00313000D02*
D03*
Y00309000D02*
D03*
Y00305000D02*
D03*
X00600000D02*
D03*
Y00309000D02*
D03*
Y00313000D02*
D03*
Y00317000D02*
D03*
Y00321000D02*
D03*
Y00325000D02*
D03*
Y00329000D02*
D03*
D142*
X00614250Y00439500D02*
D03*
X00610250D02*
D03*
X00606250D02*
D03*
X00602250D02*
D03*
X00598250D02*
D03*
Y00418500D02*
D03*
X00602250D02*
D03*
X00606250D02*
D03*
X00610250D02*
D03*
X00614250D02*
D03*
D143*
X00606250Y00429000D02*
D03*
D144*
X00330000Y00296750D02*
D03*
X00304000D02*
D03*
D145*
X01070256Y00561459D02*
D03*
Y00556459D02*
D03*
Y00551459D02*
D03*
Y00546459D02*
D03*
Y00541459D02*
D03*
Y00536459D02*
D03*
Y00531459D02*
D03*
Y00526461D02*
D03*
Y00521461D02*
D03*
Y00516461D02*
D03*
Y00511461D02*
D03*
Y00506458D02*
D03*
Y00501459D02*
D03*
Y00496459D02*
D03*
Y00491461D02*
D03*
Y00486422D02*
D03*
Y00481552D02*
D03*
Y00476424D02*
D03*
Y00471424D02*
D03*
Y00466426D02*
D03*
Y00461426D02*
D03*
Y00456426D02*
D03*
Y00451426D02*
D03*
Y00446424D02*
D03*
Y00441424D02*
D03*
X01070380Y00436399D02*
D03*
X01070256Y00431424D02*
D03*
Y00426426D02*
D03*
Y00421424D02*
D03*
Y00416424D02*
D03*
Y00411426D02*
D03*
Y00406419D02*
D03*
Y00401544D02*
D03*
Y00396424D02*
D03*
Y00391424D02*
D03*
Y00386424D02*
D03*
Y00381424D02*
D03*
Y00376424D02*
D03*
Y00371426D02*
D03*
Y00366424D02*
D03*
X01037744Y00561496D02*
D03*
Y00556494D02*
D03*
Y00551496D02*
D03*
Y00546496D02*
D03*
Y00541496D02*
D03*
Y00536496D02*
D03*
Y00531496D02*
D03*
Y00526376D02*
D03*
Y00521501D02*
D03*
Y00516494D02*
D03*
Y00511496D02*
D03*
Y00506496D02*
D03*
Y00501494D02*
D03*
Y00496496D02*
D03*
X01037620Y00491521D02*
D03*
X01037744Y00486496D02*
D03*
Y00481496D02*
D03*
Y00476494D02*
D03*
Y00471494D02*
D03*
Y00466494D02*
D03*
Y00461494D02*
D03*
Y00456496D02*
D03*
Y00451496D02*
D03*
Y00446368D02*
D03*
Y00441498D02*
D03*
Y00436459D02*
D03*
Y00431461D02*
D03*
Y00426461D02*
D03*
Y00421462D02*
D03*
Y00416459D02*
D03*
Y00411459D02*
D03*
Y00406459D02*
D03*
Y00401459D02*
D03*
Y00396461D02*
D03*
Y00391461D02*
D03*
Y00386461D02*
D03*
Y00381461D02*
D03*
Y00376461D02*
D03*
Y00371461D02*
D03*
Y00366461D02*
D03*
X00790256Y00366424D02*
D03*
Y00371426D02*
D03*
Y00561459D02*
D03*
Y00556459D02*
D03*
Y00551459D02*
D03*
Y00546459D02*
D03*
Y00541459D02*
D03*
Y00536459D02*
D03*
Y00531459D02*
D03*
Y00526461D02*
D03*
Y00521461D02*
D03*
Y00516461D02*
D03*
Y00511461D02*
D03*
Y00506458D02*
D03*
Y00501459D02*
D03*
Y00496459D02*
D03*
Y00491461D02*
D03*
Y00486422D02*
D03*
Y00481552D02*
D03*
Y00476424D02*
D03*
Y00471424D02*
D03*
Y00466426D02*
D03*
Y00461426D02*
D03*
Y00451426D02*
D03*
Y00446424D02*
D03*
Y00441424D02*
D03*
X00790380Y00436399D02*
D03*
X00790256Y00431424D02*
D03*
Y00426426D02*
D03*
Y00421424D02*
D03*
Y00416424D02*
D03*
Y00411426D02*
D03*
Y00406419D02*
D03*
Y00401544D02*
D03*
Y00396424D02*
D03*
Y00391424D02*
D03*
Y00386424D02*
D03*
Y00381424D02*
D03*
Y00376424D02*
D03*
X00757744Y00561496D02*
D03*
Y00556494D02*
D03*
Y00551496D02*
D03*
Y00546496D02*
D03*
Y00541496D02*
D03*
Y00536496D02*
D03*
Y00531496D02*
D03*
Y00526376D02*
D03*
Y00521501D02*
D03*
Y00516494D02*
D03*
Y00511496D02*
D03*
Y00506496D02*
D03*
Y00501494D02*
D03*
Y00496496D02*
D03*
X00757620Y00491521D02*
D03*
X00757744Y00486496D02*
D03*
Y00481496D02*
D03*
Y00476494D02*
D03*
Y00471494D02*
D03*
Y00466494D02*
D03*
Y00461494D02*
D03*
Y00456496D02*
D03*
Y00451496D02*
D03*
Y00446368D02*
D03*
Y00441498D02*
D03*
Y00436459D02*
D03*
Y00431461D02*
D03*
Y00426461D02*
D03*
Y00421462D02*
D03*
Y00416459D02*
D03*
Y00411459D02*
D03*
Y00406459D02*
D03*
Y00401459D02*
D03*
Y00396461D02*
D03*
Y00391461D02*
D03*
Y00386461D02*
D03*
Y00381461D02*
D03*
Y00376461D02*
D03*
Y00371461D02*
D03*
Y00366461D02*
D03*
X00790256Y00456426D02*
D03*
D146*
X00938469Y00575423D02*
D03*
X00954469D02*
D03*
X00493500Y00265000D02*
D03*
X00509500D02*
D03*
X00901417Y00341517D02*
D03*
X00885417D02*
D03*
X00938469Y00590673D02*
D03*
X00954469D02*
D03*
D147*
X01003250Y00295760D02*
D03*
Y00305160D02*
D03*
X00417607Y00594748D02*
D03*
Y00604147D02*
D03*
X00381117Y00658801D02*
D03*
Y00668201D02*
D03*
X00358913Y00462850D02*
D03*
Y00472250D02*
D03*
X00275000Y00571200D02*
D03*
Y00561800D02*
D03*
X00264750Y00571200D02*
D03*
X00264750Y00561800D02*
D03*
X00348709Y00472250D02*
D03*
Y00462850D02*
D03*
X00321250Y00310550D02*
D03*
Y00319950D02*
D03*
X00356500Y00417800D02*
D03*
Y00427200D02*
D03*
X00330250Y00319950D02*
D03*
X00330250Y00310550D02*
D03*
X00417191Y00291300D02*
D03*
Y00281900D02*
D03*
X00375600Y00285700D02*
D03*
Y00276300D02*
D03*
X00407000Y00291300D02*
D03*
Y00281900D02*
D03*
X00926041Y00266408D02*
D03*
Y00275808D02*
D03*
X00976750Y00295760D02*
D03*
Y00305160D02*
D03*
X00990239Y00295760D02*
D03*
Y00305160D02*
D03*
D148*
X00306000Y00504250D02*
D03*
D149*
X00340500Y00529250D02*
D03*
Y00524250D02*
D03*
Y00519250D02*
D03*
Y00514250D02*
D03*
Y00509250D02*
D03*
Y00504250D02*
D03*
Y00499250D02*
D03*
Y00494250D02*
D03*
Y00489250D02*
D03*
Y00484250D02*
D03*
Y00479250D02*
D03*
X00271500D02*
D03*
Y00484250D02*
D03*
Y00489250D02*
D03*
Y00494250D02*
D03*
Y00499250D02*
D03*
Y00504250D02*
D03*
Y00509250D02*
D03*
Y00514250D02*
D03*
Y00519250D02*
D03*
Y00524250D02*
D03*
Y00529250D02*
D03*
D150*
X00331000Y00469750D02*
D03*
X00326000D02*
D03*
X00321000D02*
D03*
X00316000D02*
D03*
X00311000D02*
D03*
X00306000D02*
D03*
X00301000D02*
D03*
X00296000D02*
D03*
X00291000D02*
D03*
X00286000D02*
D03*
X00281000D02*
D03*
Y00538750D02*
D03*
X00286000D02*
D03*
X00291000D02*
D03*
X00296000D02*
D03*
X00301000D02*
D03*
X00306000D02*
D03*
X00311000D02*
D03*
X00316000D02*
D03*
X00321000D02*
D03*
X00326000D02*
D03*
X00331000D02*
D03*
D151*
X00454500Y00646000D02*
D03*
Y00650000D02*
D03*
X00395500Y00626000D02*
D03*
Y00630000D02*
D03*
Y00634000D02*
D03*
Y00638000D02*
D03*
Y00642000D02*
D03*
Y00646000D02*
D03*
Y00650000D02*
D03*
Y00654000D02*
D03*
X00454500D02*
D03*
Y00642000D02*
D03*
Y00638000D02*
D03*
Y00634000D02*
D03*
Y00630000D02*
D03*
Y00626000D02*
D03*
D152*
X00425000Y00640000D02*
D03*
D153*
X00447000Y00620500D02*
D03*
X00443000D02*
D03*
X00439000D02*
D03*
X00435000D02*
D03*
X00431000D02*
D03*
X00427000Y00620500D02*
D03*
X00423000D02*
D03*
X00419000Y00620500D02*
D03*
X00415000D02*
D03*
X00411000D02*
D03*
X00407000D02*
D03*
X00403000D02*
D03*
Y00659500D02*
D03*
X00407000D02*
D03*
X00411000D02*
D03*
X00415000D02*
D03*
X00419000D02*
D03*
X00423000Y00659500D02*
D03*
X00427000D02*
D03*
X00431000Y00659500D02*
D03*
X00435000D02*
D03*
X00439000D02*
D03*
X00443000D02*
D03*
X00447000D02*
D03*
D154*
X00460350Y00269000D02*
D03*
X00426350D02*
D03*
X00576750Y00268750D02*
D03*
X00542750D02*
D03*
D155*
X00443350Y00285500D02*
D03*
X00559750Y00285250D02*
D03*
D156*
X00388750Y00603500D02*
D03*
Y00583500D02*
D03*
X00404750D02*
D03*
X00404750Y00603500D02*
D03*
D157*
X01003500Y00283210D02*
D03*
Y00266710D02*
D03*
X00265856Y00625465D02*
D03*
Y00608965D02*
D03*
X00279856Y00625465D02*
D03*
Y00608965D02*
D03*
X00364500Y00283750D02*
D03*
Y00267250D02*
D03*
X00976750Y00283210D02*
D03*
Y00266710D02*
D03*
X00990250Y00283210D02*
D03*
Y00266710D02*
D03*
D158*
X00942000Y00336960D02*
D03*
Y00321960D02*
D03*
X00444000Y00597750D02*
D03*
Y00582750D02*
D03*
X00460500Y00346500D02*
D03*
Y00361500D02*
D03*
X00445374Y00346500D02*
D03*
Y00361500D02*
D03*
X00429748Y00346500D02*
D03*
Y00361500D02*
D03*
X00378250Y00346500D02*
D03*
Y00361500D02*
D03*
X00515000Y00346500D02*
D03*
Y00361500D02*
D03*
D159*
X01007000Y00627710D02*
D03*
X01062500D02*
D03*
D160*
X00791500Y00299960D02*
D03*
X00756500D02*
D03*
D161*
X00488250Y00345750D02*
D03*
Y00373750D02*
D03*
D162*
X00959000Y00331960D02*
D03*
X00989000D02*
D03*
X01006250Y00586960D02*
D03*
X00976250D02*
D03*
D163*
X00514750Y00327250D02*
D03*
X00496750D02*
D03*
X00431750Y00326000D02*
D03*
X00413750D02*
D03*
X00559500Y00323000D02*
D03*
X00541500D02*
D03*
D164*
X00581250Y00313500D02*
D03*
Y00298500D02*
D03*
X00464450Y00314100D02*
D03*
Y00299100D02*
D03*
X00393000Y00307750D02*
D03*
Y00292750D02*
D03*
X00483000Y00325750D02*
D03*
Y00310750D02*
D03*
D165*
X00897719Y00621673D02*
D03*
X00881719D02*
D03*
X00941750Y00306460D02*
D03*
X00957750D02*
D03*
X00881219Y00646673D02*
D03*
X00897219D02*
D03*
D166*
X00986579Y00513983D02*
D03*
X00995579D02*
D03*
X00601250Y00525750D02*
D03*
X00610250D02*
D03*
X00440465Y00608684D02*
D03*
X00449465D02*
D03*
X00329000Y00454250D02*
D03*
X00338000D02*
D03*
X00507000Y00625500D02*
D03*
X00516000D02*
D03*
X00613250Y00358000D02*
D03*
X00622250D02*
D03*
X00486170Y00604294D02*
D03*
X00495170D02*
D03*
X00486170Y00593795D02*
D03*
X00495169D02*
D03*
X00469000Y00286000D02*
D03*
X00460000D02*
D03*
X00354500Y00294500D02*
D03*
X00363500D02*
D03*
X00483900Y00295735D02*
D03*
X00492900D02*
D03*
X00593500Y00594000D02*
D03*
X00584500D02*
D03*
X00610000Y00407250D02*
D03*
X00601000D02*
D03*
X00986579Y00503061D02*
D03*
X00995579D02*
D03*
X00964559Y00458167D02*
D03*
X00973559D02*
D03*
X00996500Y00570710D02*
D03*
X00987500D02*
D03*
X00895219Y00593423D02*
D03*
X00886219D02*
D03*
X00973735Y00395365D02*
D03*
X00964735D02*
D03*
X00964559Y00443460D02*
D03*
X00973559D02*
D03*
X00964559Y00468327D02*
D03*
X00973559D02*
D03*
X00986579Y00479947D02*
D03*
X00995579D02*
D03*
X00986579Y00493409D02*
D03*
X00995579D02*
D03*
X00963647Y00503569D02*
D03*
X00972647D02*
D03*
X00986000Y00437210D02*
D03*
X00995000D02*
D03*
X00986000Y00447210D02*
D03*
X00995000D02*
D03*
X00986000Y00427460D02*
D03*
X00995000D02*
D03*
X00966749Y00521211D02*
D03*
X00975749D02*
D03*
X00986579Y00531001D02*
D03*
X00995579D02*
D03*
D167*
X00507991Y00443995D02*
D03*
X00539991Y00395995D02*
D03*
X00547991D02*
D03*
X00547991Y00411995D02*
D03*
Y00419995D02*
D03*
X00531991Y00563995D02*
D03*
Y00555995D02*
D03*
X00395991Y00563995D02*
D03*
X00403991D02*
D03*
X00411991Y00563995D02*
D03*
X00395991Y00555995D02*
D03*
X00403991Y00555995D02*
D03*
X00411991Y00555995D02*
D03*
X00419991Y00563995D02*
D03*
X00427991Y00563995D02*
D03*
X00435991D02*
D03*
X00443991D02*
D03*
X00451991D02*
D03*
X00459991D02*
D03*
X00419991Y00555995D02*
D03*
X00427991Y00555995D02*
D03*
X00435991D02*
D03*
X00443991D02*
D03*
X00451991D02*
D03*
X00459991Y00555995D02*
D03*
X00467991Y00563995D02*
D03*
X00475991Y00563995D02*
D03*
X00483991D02*
D03*
X00491991D02*
D03*
X00507991D02*
D03*
X00515991Y00563995D02*
D03*
X00523991Y00563995D02*
D03*
X00539991D02*
D03*
X00547991D02*
D03*
X00467991Y00555995D02*
D03*
X00475991D02*
D03*
X00483991D02*
D03*
X00491991D02*
D03*
X00507991D02*
D03*
X00515991Y00555995D02*
D03*
X00523991Y00555995D02*
D03*
X00539991D02*
D03*
X00547991D02*
D03*
X00379991Y00547995D02*
D03*
X00387991D02*
D03*
X00379991Y00539995D02*
D03*
X00387991D02*
D03*
X00379991Y00531995D02*
D03*
X00387991Y00531995D02*
D03*
X00379991Y00523995D02*
D03*
X00387991D02*
D03*
X00379991Y00515995D02*
D03*
X00387991D02*
D03*
X00379991Y00507995D02*
D03*
X00387991D02*
D03*
X00379991Y00499995D02*
D03*
X00387991D02*
D03*
X00379991Y00491995D02*
D03*
X00387991D02*
D03*
X00379991Y00483995D02*
D03*
X00387991Y00483995D02*
D03*
X00379991Y00475995D02*
D03*
X00387991D02*
D03*
X00379991Y00467995D02*
D03*
X00387991D02*
D03*
X00379991Y00459995D02*
D03*
X00387991D02*
D03*
X00379991Y00451995D02*
D03*
X00387991D02*
D03*
X00379991Y00443995D02*
D03*
X00387991D02*
D03*
X00379991Y00435995D02*
D03*
X00387991D02*
D03*
X00379991Y00427995D02*
D03*
X00387991Y00427995D02*
D03*
X00379991Y00419995D02*
D03*
X00387991D02*
D03*
X00379991Y00411995D02*
D03*
X00387991D02*
D03*
X00379991Y00403995D02*
D03*
X00387991D02*
D03*
X00379991Y00395995D02*
D03*
X00387991D02*
D03*
X00531991D02*
D03*
X00523991Y00395995D02*
D03*
X00515991D02*
D03*
X00507991D02*
D03*
X00499991D02*
D03*
X00491991Y00395995D02*
D03*
X00483991D02*
D03*
X00475991D02*
D03*
X00467991Y00395995D02*
D03*
X00459991Y00395995D02*
D03*
X00451991D02*
D03*
X00443991Y00395995D02*
D03*
X00435991D02*
D03*
X00427991Y00395995D02*
D03*
X00419991D02*
D03*
X00411991Y00395995D02*
D03*
X00403991Y00395995D02*
D03*
X00395991D02*
D03*
X00547991Y00403995D02*
D03*
X00539991Y00403995D02*
D03*
X00531991D02*
D03*
X00523991D02*
D03*
X00515991D02*
D03*
X00507991Y00403995D02*
D03*
X00499991D02*
D03*
X00491991Y00403995D02*
D03*
X00483991D02*
D03*
X00475991D02*
D03*
X00467991D02*
D03*
X00459991D02*
D03*
X00451991Y00403995D02*
D03*
X00443991Y00403995D02*
D03*
X00435991D02*
D03*
X00427991Y00403995D02*
D03*
X00419991D02*
D03*
X00411991Y00403995D02*
D03*
X00403991D02*
D03*
X00395991D02*
D03*
X00539991Y00411995D02*
D03*
X00531991Y00411995D02*
D03*
X00523991D02*
D03*
X00515991D02*
D03*
X00507991D02*
D03*
X00499991Y00411995D02*
D03*
X00491991D02*
D03*
X00483991D02*
D03*
X00475991Y00411995D02*
D03*
X00467991D02*
D03*
X00459991D02*
D03*
X00451991D02*
D03*
X00443991Y00411995D02*
D03*
X00435991D02*
D03*
X00427991D02*
D03*
X00419991Y00411995D02*
D03*
X00411991D02*
D03*
X00403991Y00411995D02*
D03*
X00395991D02*
D03*
X00539991Y00419995D02*
D03*
X00531991D02*
D03*
X00523991D02*
D03*
X00515991D02*
D03*
X00507991D02*
D03*
X00499991D02*
D03*
X00491991D02*
D03*
X00483991D02*
D03*
X00475991D02*
D03*
X00467991D02*
D03*
X00459991D02*
D03*
X00451991D02*
D03*
X00443991D02*
D03*
X00435991D02*
D03*
X00427991D02*
D03*
X00419991D02*
D03*
X00411991D02*
D03*
X00403991D02*
D03*
X00395991D02*
D03*
X00547991Y00427995D02*
D03*
X00539991Y00427995D02*
D03*
X00531991D02*
D03*
X00523991D02*
D03*
X00515991D02*
D03*
X00507991Y00427995D02*
D03*
X00499991D02*
D03*
X00491991D02*
D03*
X00483991Y00427995D02*
D03*
X00475991D02*
D03*
X00467991Y00427995D02*
D03*
X00459991D02*
D03*
X00451991D02*
D03*
X00443992Y00427995D02*
D03*
X00435991Y00427995D02*
D03*
X00427991D02*
D03*
X00419991D02*
D03*
X00411991D02*
D03*
X00403991Y00427995D02*
D03*
X00395992D02*
D03*
X00547991Y00435995D02*
D03*
X00539991D02*
D03*
X00531991Y00435995D02*
D03*
X00523991D02*
D03*
X00515991D02*
D03*
X00507991D02*
D03*
X00499991Y00435995D02*
D03*
X00491991D02*
D03*
X00483991D02*
D03*
X00475991Y00435995D02*
D03*
X00467991D02*
D03*
X00459991D02*
D03*
X00451991D02*
D03*
X00443991Y00435995D02*
D03*
X00435991D02*
D03*
X00427991Y00435995D02*
D03*
X00419991D02*
D03*
X00411991D02*
D03*
X00403991D02*
D03*
X00395992D02*
D03*
X00547991Y00443995D02*
D03*
X00539991D02*
D03*
X00531991D02*
D03*
X00523991Y00443995D02*
D03*
X00515991D02*
D03*
X00499991Y00443995D02*
D03*
X00491991D02*
D03*
X00483991D02*
D03*
X00475991D02*
D03*
X00467991Y00443995D02*
D03*
X00459991D02*
D03*
X00451991Y00443995D02*
D03*
X00443991D02*
D03*
X00435991D02*
D03*
X00427991Y00443995D02*
D03*
X00419991D02*
D03*
X00411991D02*
D03*
X00403992Y00443995D02*
D03*
X00395991D02*
D03*
X00547991Y00451995D02*
D03*
X00539991D02*
D03*
X00531991D02*
D03*
X00523991D02*
D03*
X00515991D02*
D03*
X00507991D02*
D03*
X00499991D02*
D03*
X00491991D02*
D03*
X00483991D02*
D03*
X00475991D02*
D03*
X00467991Y00451995D02*
D03*
X00459991Y00451995D02*
D03*
X00451991D02*
D03*
X00443991D02*
D03*
X00435991D02*
D03*
X00427991D02*
D03*
X00419991D02*
D03*
X00411991Y00451995D02*
D03*
X00403991Y00451995D02*
D03*
X00395991D02*
D03*
X00547991Y00459995D02*
D03*
X00539991D02*
D03*
X00531991D02*
D03*
X00523991Y00459995D02*
D03*
X00515991D02*
D03*
X00507991Y00459995D02*
D03*
X00499991D02*
D03*
X00491991D02*
D03*
X00483991D02*
D03*
X00475991D02*
D03*
X00467991Y00459995D02*
D03*
X00459991D02*
D03*
X00451991Y00459995D02*
D03*
X00443991D02*
D03*
X00435991D02*
D03*
X00427991D02*
D03*
X00419991D02*
D03*
X00411991Y00459995D02*
D03*
X00403991Y00459995D02*
D03*
X00395991D02*
D03*
X00547991Y00467995D02*
D03*
X00539991D02*
D03*
X00531991Y00467995D02*
D03*
X00523991D02*
D03*
X00515991D02*
D03*
X00507991D02*
D03*
X00499991Y00467995D02*
D03*
X00491991D02*
D03*
X00483991D02*
D03*
X00475991Y00467995D02*
D03*
X00467991D02*
D03*
X00459991D02*
D03*
X00451991D02*
D03*
X00443991Y00467995D02*
D03*
X00435991D02*
D03*
X00427991D02*
D03*
X00419991Y00467995D02*
D03*
X00411991D02*
D03*
X00403991Y00467995D02*
D03*
X00395991D02*
D03*
X00547991Y00475995D02*
D03*
X00539991Y00475995D02*
D03*
X00531991Y00475995D02*
D03*
X00523991D02*
D03*
X00515991D02*
D03*
X00507991D02*
D03*
X00499991D02*
D03*
X00491991Y00475995D02*
D03*
X00483991Y00475995D02*
D03*
X00475991D02*
D03*
X00467991D02*
D03*
X00459991D02*
D03*
X00451991D02*
D03*
X00443991Y00475995D02*
D03*
X00435991Y00475995D02*
D03*
X00427991D02*
D03*
X00419991D02*
D03*
X00411991D02*
D03*
X00403991Y00475995D02*
D03*
X00395991D02*
D03*
X00547991Y00483995D02*
D03*
X00539991Y00483995D02*
D03*
X00531991D02*
D03*
X00523991D02*
D03*
X00515991D02*
D03*
X00507991D02*
D03*
X00499991D02*
D03*
X00491991Y00483995D02*
D03*
X00483991Y00483995D02*
D03*
X00475991D02*
D03*
X00467991D02*
D03*
X00459991D02*
D03*
X00451991D02*
D03*
X00443992D02*
D03*
X00435991Y00483995D02*
D03*
X00427991Y00483995D02*
D03*
X00419991D02*
D03*
X00411991D02*
D03*
X00403991D02*
D03*
X00395992D02*
D03*
X00547991Y00491995D02*
D03*
X00539991D02*
D03*
X00531991Y00491995D02*
D03*
X00523991D02*
D03*
X00515991D02*
D03*
X00507991D02*
D03*
X00499991Y00491995D02*
D03*
X00491991D02*
D03*
X00483991D02*
D03*
X00475991Y00491995D02*
D03*
X00467991D02*
D03*
X00459991D02*
D03*
X00451991D02*
D03*
X00443991Y00491995D02*
D03*
X00435991D02*
D03*
X00427991Y00491995D02*
D03*
X00419991D02*
D03*
X00411991D02*
D03*
X00403991D02*
D03*
X00395992D02*
D03*
X00547991Y00499995D02*
D03*
X00539991D02*
D03*
X00531991D02*
D03*
X00523991D02*
D03*
X00515991Y00499995D02*
D03*
X00507991Y00499995D02*
D03*
X00499991D02*
D03*
X00491991D02*
D03*
X00483991D02*
D03*
X00475991D02*
D03*
X00467991D02*
D03*
X00459991Y00499995D02*
D03*
X00451991Y00499995D02*
D03*
X00443991D02*
D03*
X00435991D02*
D03*
X00427991Y00499995D02*
D03*
X00419991D02*
D03*
X00411991Y00499995D02*
D03*
X00403991D02*
D03*
X00395991D02*
D03*
X00547991Y00507995D02*
D03*
X00539991D02*
D03*
X00531991D02*
D03*
X00523991D02*
D03*
X00515991Y00507995D02*
D03*
X00507991Y00507995D02*
D03*
X00499991D02*
D03*
X00491991D02*
D03*
X00483991D02*
D03*
X00475991D02*
D03*
X00467991Y00507995D02*
D03*
X00459991Y00507995D02*
D03*
X00451991D02*
D03*
X00443991D02*
D03*
X00435991D02*
D03*
X00427991Y00507995D02*
D03*
X00419991D02*
D03*
X00411991D02*
D03*
X00403991Y00507995D02*
D03*
X00395991D02*
D03*
X00547991Y00515995D02*
D03*
X00539991D02*
D03*
X00531991D02*
D03*
X00523991D02*
D03*
X00515991D02*
D03*
X00507991D02*
D03*
X00499991D02*
D03*
X00491991D02*
D03*
X00483991D02*
D03*
X00475991D02*
D03*
X00467991D02*
D03*
X00459991D02*
D03*
X00451991D02*
D03*
X00443991D02*
D03*
X00435991D02*
D03*
X00427991D02*
D03*
X00419991D02*
D03*
X00411991D02*
D03*
X00403992D02*
D03*
X00395991D02*
D03*
X00531991Y00523995D02*
D03*
X00523991D02*
D03*
X00515991D02*
D03*
X00507991D02*
D03*
X00499991D02*
D03*
X00491991Y00523995D02*
D03*
X00483991D02*
D03*
X00475991Y00523995D02*
D03*
X00467991D02*
D03*
X00459991D02*
D03*
X00451991D02*
D03*
X00443991D02*
D03*
X00435991D02*
D03*
X00427991D02*
D03*
X00419991D02*
D03*
X00411991D02*
D03*
X00403991Y00523995D02*
D03*
X00395991D02*
D03*
X00547991Y00531995D02*
D03*
X00539991Y00531995D02*
D03*
X00531991Y00531995D02*
D03*
X00523991D02*
D03*
X00515991D02*
D03*
X00507991D02*
D03*
X00499991D02*
D03*
X00491991Y00531995D02*
D03*
X00483991Y00531995D02*
D03*
X00475991D02*
D03*
X00467991D02*
D03*
X00459991D02*
D03*
X00451991D02*
D03*
X00443991Y00531995D02*
D03*
X00435991Y00531995D02*
D03*
X00427991D02*
D03*
X00419991D02*
D03*
X00411991D02*
D03*
X00403991Y00531995D02*
D03*
X00395991D02*
D03*
X00547991Y00539995D02*
D03*
X00539991D02*
D03*
X00531991D02*
D03*
X00523991D02*
D03*
X00515991D02*
D03*
X00507991D02*
D03*
X00499991Y00539995D02*
D03*
X00491991Y00539995D02*
D03*
X00483991D02*
D03*
X00475991D02*
D03*
X00467991D02*
D03*
X00459991D02*
D03*
X00451991D02*
D03*
X00443991D02*
D03*
X00435991D02*
D03*
X00427991Y00539995D02*
D03*
X00419991Y00539995D02*
D03*
X00411991D02*
D03*
X00403991D02*
D03*
X00395991D02*
D03*
X00547991Y00547995D02*
D03*
X00539991D02*
D03*
X00531991D02*
D03*
X00523991D02*
D03*
X00515991D02*
D03*
X00507991D02*
D03*
X00499991D02*
D03*
X00491991D02*
D03*
X00483991D02*
D03*
X00475991D02*
D03*
X00467991D02*
D03*
X00459991D02*
D03*
X00451991D02*
D03*
X00443991D02*
D03*
X00435991D02*
D03*
X00427991Y00547995D02*
D03*
X00419991Y00547995D02*
D03*
X00411991D02*
D03*
X00403991D02*
D03*
X00395991D02*
D03*
X00387991Y00555995D02*
D03*
X00379991D02*
D03*
X00387991Y00563995D02*
D03*
X00379991D02*
D03*
X00547991Y00523995D02*
D03*
X00539991D02*
D03*
X00499991Y00563995D02*
D03*
Y00555995D02*
D03*
D168*
X00633400Y00536700D02*
D03*
Y00511300D02*
D03*
Y00473200D02*
D03*
Y00549400D02*
D03*
Y00524000D02*
D03*
Y00498600D02*
D03*
Y00485900D02*
D03*
D169*
X00600250Y00265250D02*
D03*
Y00281250D02*
D03*
X00926250Y00306210D02*
D03*
Y00322210D02*
D03*
D170*
X00310000Y00400250D02*
D03*
Y00409250D02*
D03*
X00381117Y00621582D02*
D03*
Y00630582D02*
D03*
X00381117Y00649497D02*
D03*
Y00640497D02*
D03*
X00624750Y00420500D02*
D03*
X00624750Y00429500D02*
D03*
X00264000Y00473500D02*
D03*
Y00464500D02*
D03*
X00350500Y00510750D02*
D03*
Y00501750D02*
D03*
X00351000Y00522500D02*
D03*
Y00531500D02*
D03*
X00550250Y00624500D02*
D03*
X00550250Y00633500D02*
D03*
X00551250Y00597250D02*
D03*
Y00606250D02*
D03*
X00468795Y00604211D02*
D03*
Y00595211D02*
D03*
X00458323Y00604211D02*
D03*
Y00595211D02*
D03*
X00603250Y00340500D02*
D03*
Y00349500D02*
D03*
X00582500Y00418750D02*
D03*
Y00427750D02*
D03*
X00896250Y00376960D02*
D03*
Y00367960D02*
D03*
X00901671Y00569935D02*
D03*
Y00578935D02*
D03*
X00895575Y00551465D02*
D03*
Y00560465D02*
D03*
X00906497Y00368077D02*
D03*
Y00377077D02*
D03*
X00842489Y00459771D02*
D03*
Y00468771D02*
D03*
X00854427Y00459699D02*
D03*
Y00468699D02*
D03*
X00908783Y00551647D02*
D03*
Y00560647D02*
D03*
X00932405Y00551460D02*
D03*
Y00560460D02*
D03*
X00921991Y00551460D02*
D03*
Y00560460D02*
D03*
X00915133Y00569863D02*
D03*
Y00578863D02*
D03*
X00922753Y00375625D02*
D03*
Y00384625D02*
D03*
X00953233Y00384625D02*
D03*
Y00375625D02*
D03*
X00942819Y00551460D02*
D03*
Y00560460D02*
D03*
X00942057Y00384299D02*
D03*
Y00375299D02*
D03*
X00953233Y00551460D02*
D03*
Y00560460D02*
D03*
D171*
X00584500Y00347750D02*
D03*
X00569500D02*
D03*
X00522750Y00610500D02*
D03*
X00537750D02*
D03*
X00618250Y00451000D02*
D03*
X00603250D02*
D03*
X00882719Y00606423D02*
D03*
X00897719D02*
D03*
D172*
X00287200Y00596750D02*
D03*
X00277800D02*
D03*
X00259601D02*
D03*
X00269000D02*
D03*
X00583300Y00496077D02*
D03*
X00592700D02*
D03*
X00583300Y00476538D02*
D03*
X00592700D02*
D03*
X00583300Y00486308D02*
D03*
X00592700D02*
D03*
X00583300Y00525384D02*
D03*
X00592700D02*
D03*
X00583300Y00535154D02*
D03*
X00592700D02*
D03*
X00583300Y00505846D02*
D03*
X00592700D02*
D03*
X00583300Y00515615D02*
D03*
X00592700D02*
D03*
X00610450Y00543583D02*
D03*
X00601050D02*
D03*
X00610450Y00533750D02*
D03*
X00601050D02*
D03*
X00610450Y00467500D02*
D03*
X00601050D02*
D03*
X00610450Y00517250D02*
D03*
X00601050D02*
D03*
X00583300Y00457000D02*
D03*
X00592700D02*
D03*
X00583300Y00466769D02*
D03*
X00592700D02*
D03*
X00583300Y00447250D02*
D03*
X00592700D02*
D03*
X00610450Y00507300D02*
D03*
X00601050D02*
D03*
X00583300Y00437000D02*
D03*
X00592700D02*
D03*
X00610450Y00487400D02*
D03*
X00601050D02*
D03*
X00610450Y00497350D02*
D03*
X00601050D02*
D03*
X00610450Y00477450D02*
D03*
X00601050D02*
D03*
X00583300Y00545250D02*
D03*
X00592700D02*
D03*
X00610450Y00563250D02*
D03*
X00601050D02*
D03*
X00593700Y00584000D02*
D03*
X00584300D02*
D03*
X00583300Y00574500D02*
D03*
X00592700D02*
D03*
X00583300Y00564750D02*
D03*
X00592700D02*
D03*
X00610450Y00553417D02*
D03*
X00601050D02*
D03*
X00583300Y00555000D02*
D03*
X00592700D02*
D03*
X00292300Y00449500D02*
D03*
X00301700D02*
D03*
X00337800Y00380750D02*
D03*
X00347200D02*
D03*
X00300300Y00321250D02*
D03*
X00309700D02*
D03*
X00300300Y00310750D02*
D03*
X00309700D02*
D03*
X00319450Y00334000D02*
D03*
X00310050D02*
D03*
X00582232Y00409568D02*
D03*
X00591632D02*
D03*
X00658700Y00298000D02*
D03*
X00649300D02*
D03*
X00584700Y00331000D02*
D03*
X00575300D02*
D03*
X00521800Y00280500D02*
D03*
X00531200D02*
D03*
X00512851Y00280600D02*
D03*
X00503451D02*
D03*
X00995183Y00417710D02*
D03*
X00985783D02*
D03*
X00973609Y00478487D02*
D03*
X00964209D02*
D03*
X00894419Y00662173D02*
D03*
X00885019D02*
D03*
X00995183Y00407710D02*
D03*
X00985783Y00407710D02*
D03*
X00995183Y00397710D02*
D03*
X00985783D02*
D03*
D173*
X00322750Y00410250D02*
D03*
Y00391250D02*
D03*
X00345750Y00400750D02*
D03*
D174*
X00347250Y00370625D02*
D03*
X00330750D02*
D03*
D175*
X00355500Y00325750D02*
D03*
Y00307750D02*
D03*
D176*
X00396000Y00346250D02*
D03*
Y00328250D02*
D03*
D177*
X00861969Y00606173D02*
D03*
Y00636173D02*
D03*
D178*
X00941500Y00266710D02*
D03*
Y00282710D02*
D03*
M02*
