G04 Layer_Physical_Order=1*
G04 Layer_Color=255*
%FSAX24Y24*%
%MOIN*%
G70*
G01*
G75*
%ADD10C,0.0055*%
%ADD11C,0.0055*%
%ADD12C,0.0049*%
%ADD13C,0.0049*%
%ADD14C,0.0118*%
%ADD15C,0.0256*%
%ADD16C,0.0236*%
%ADD17C,0.0394*%
%ADD18R,0.0236X0.0394*%
%ADD19R,0.0244X0.0228*%
%ADD20R,0.0315X0.0315*%
%ADD21R,0.0394X0.0689*%
%ADD22R,0.0591X0.0118*%
%ADD23R,0.0228X0.0244*%
%ADD24R,0.0354X0.0394*%
%ADD25R,0.0571X0.1181*%
%ADD26R,0.0394X0.0394*%
%ADD27R,0.0394X0.0394*%
%ADD28R,0.0374X0.0394*%
%ADD29R,0.0394X0.0374*%
%ADD30R,0.0244X0.0244*%
%ADD31R,0.0244X0.0244*%
%ADD32R,0.0453X0.0709*%
%ADD33R,0.0709X0.0453*%
%ADD34R,0.0394X0.0354*%
%ADD35R,0.0807X0.0256*%
%ADD36R,0.0807X0.1260*%
%ADD37R,0.0413X0.0256*%
%ADD38R,0.0413X0.0217*%
%ADD39R,0.1181X0.0551*%
%ADD40R,0.1181X0.0512*%
%ADD41R,0.0394X0.0236*%
%ADD42R,0.0315X0.0315*%
%ADD43R,0.0472X0.0551*%
%ADD44R,0.0433X0.0472*%
%ADD45O,0.0335X0.0079*%
%ADD46R,0.1457X0.0650*%
%ADD47O,0.0079X0.0335*%
%ADD48R,0.0315X0.0669*%
%ADD49R,0.0315X0.0433*%
%ADD50R,0.0787X0.0354*%
%ADD51R,0.0079X0.0276*%
%ADD52R,0.0630X0.0394*%
%ADD53R,0.2087X0.2087*%
%ADD54O,0.0335X0.0118*%
%ADD55O,0.0118X0.0335*%
%ADD56C,0.0177*%
%ADD57R,0.0236X0.0433*%
%ADD58R,0.0748X0.0571*%
%ADD59R,0.0394X0.0374*%
%ADD60R,0.0453X0.0571*%
%ADD61R,0.0571X0.0453*%
%ADD62R,0.0354X0.0197*%
%ADD63R,0.0709X0.0945*%
%ADD64R,0.0295X0.0079*%
%ADD65R,0.0571X0.0433*%
%ADD66P,0.0557X4X360.0*%
%ADD67C,0.0079*%
%ADD68C,0.0197*%
%ADD69C,0.0120*%
%ADD70C,0.0098*%
%ADD71C,0.0059*%
%ADD72C,0.0138*%
%ADD73C,0.0157*%
%ADD74C,0.0039*%
%ADD75C,0.0300*%
%ADD76C,0.0080*%
%ADD77C,0.0100*%
%ADD78C,0.0394*%
%ADD79C,0.0315*%
%ADD80C,0.0071*%
%ADD81C,0.0169*%
G04:AMPARAMS|DCode=82|XSize=41.3mil|YSize=49.2mil|CornerRadius=10.3mil|HoleSize=0mil|Usage=FLASHONLY|Rotation=180.000|XOffset=0mil|YOffset=0mil|HoleType=Round|Shape=RoundedRectangle|*
%AMROUNDEDRECTD82*
21,1,0.0413,0.0285,0,0,180.0*
21,1,0.0207,0.0492,0,0,180.0*
1,1,0.0207,-0.0103,0.0143*
1,1,0.0207,0.0103,0.0143*
1,1,0.0207,0.0103,-0.0143*
1,1,0.0207,-0.0103,-0.0143*
%
%ADD82ROUNDEDRECTD82*%
%ADD83C,0.0197*%
%ADD84C,0.0315*%
%ADD85C,0.1378*%
%ADD86C,0.0591*%
%ADD87C,0.0945*%
%ADD88R,0.1102X0.0866*%
%ADD89C,0.0630*%
%ADD90C,0.0827*%
%ADD91O,0.0827X0.0669*%
%ADD92R,0.0591X0.0512*%
%ADD93C,0.0551*%
%ADD94C,0.0157*%
G36*
X023533Y014232D02*
X023533Y013340D01*
X023520Y013320D01*
X023512Y013278D01*
Y013238D01*
X022756Y013238D01*
X022756Y014197D01*
X022791Y014232D01*
X023533Y014232D01*
D02*
G37*
G36*
X015602Y014674D02*
X015599Y014670D01*
X015588Y014616D01*
X015599Y014562D01*
X015629Y014517D01*
X015675Y014486D01*
X015728Y014476D01*
X015757Y014481D01*
X015807Y014447D01*
Y013986D01*
X014628Y013986D01*
X014605Y014036D01*
X014608Y014041D01*
X014619Y014094D01*
X014608Y014148D01*
X014594Y014170D01*
Y014308D01*
X015010Y014724D01*
X015575D01*
X015602Y014674D01*
D02*
G37*
G36*
X024951Y013209D02*
Y012953D01*
X024656D01*
X024537Y013071D01*
X024537Y013199D01*
X024665Y013327D01*
X024833D01*
X024951Y013209D01*
D02*
G37*
G36*
X016565Y013169D02*
X016368D01*
Y012835D01*
Y012500D01*
X016526D01*
X016561Y012464D01*
X016560Y012450D01*
X016525Y012426D01*
X016515Y012424D01*
X016467Y012434D01*
X016413Y012423D01*
X016395Y012411D01*
X016046D01*
X016028Y012423D01*
X015974Y012434D01*
X015921Y012423D01*
X015903Y012411D01*
X015108D01*
Y012466D01*
X015128D01*
X015166Y012482D01*
X015181Y012520D01*
Y012989D01*
X015207Y013010D01*
X015256Y012988D01*
Y012648D01*
X015512D01*
Y012923D01*
X015591D01*
Y013002D01*
X015925D01*
Y013199D01*
X015876D01*
Y013356D01*
X015925D01*
Y013888D01*
X016565D01*
Y013169D01*
D02*
G37*
G36*
X018452Y013370D02*
X017968Y013370D01*
X017931Y013355D01*
X017915Y013317D01*
Y013209D01*
X017904D01*
Y012671D01*
X017857Y012652D01*
X017793Y012716D01*
X017756Y012732D01*
X017334Y012732D01*
X017324Y012728D01*
X017278Y012756D01*
X016998D01*
X016722D01*
Y012500D01*
X016681Y012480D01*
X016607D01*
X016607Y012481D01*
X016600Y012500D01*
X016599Y012500D01*
X016599Y012501D01*
X016594Y012505D01*
Y013128D01*
X016603Y013132D01*
X016618Y013169D01*
Y013888D01*
X018452D01*
Y013370D01*
D02*
G37*
G36*
X012968Y023085D02*
X012952Y023048D01*
X012940Y022953D01*
X012952Y022858D01*
X012982Y022785D01*
Y021693D01*
X012835Y021545D01*
X012667D01*
X012539Y021417D01*
X012467Y021417D01*
X012448Y021464D01*
X012608Y021624D01*
Y021683D01*
X012805D01*
Y022333D01*
X012608D01*
X012608Y022815D01*
X012323Y023100D01*
X012136D01*
Y023199D01*
X011565D01*
Y022549D01*
X011654D01*
Y021988D01*
X011850Y021791D01*
X011850Y021388D01*
X011781D01*
X011329Y021841D01*
X011329Y023159D01*
X011506Y023337D01*
X012717D01*
X012968Y023085D01*
D02*
G37*
G36*
X040325Y022370D02*
X039404Y022370D01*
Y022390D01*
X039232D01*
Y022469D01*
X039154D01*
Y022640D01*
X039104D01*
X039104Y025599D01*
X040325D01*
X040325Y022370D01*
D02*
G37*
G36*
X021284Y014715D02*
X021126D01*
X020969Y014557D01*
Y013996D01*
X019843D01*
Y014953D01*
X019864Y014986D01*
X019871Y015020D01*
X021284D01*
Y014715D01*
D02*
G37*
G36*
X018799Y014793D02*
X019222D01*
Y014715D01*
X019301D01*
Y014380D01*
X019606D01*
Y013986D01*
X017313Y013986D01*
X017278Y014022D01*
X017281Y014715D01*
X017874D01*
X018179Y015020D01*
X018799D01*
Y014793D01*
D02*
G37*
G36*
X017211Y013986D02*
X015876D01*
Y014077D01*
X015878Y014080D01*
X015889Y014134D01*
X015878Y014188D01*
X015876Y014190D01*
Y014284D01*
X015878Y014287D01*
X015889Y014341D01*
X015878Y014394D01*
X015876Y014397D01*
Y014921D01*
X017211D01*
Y013986D01*
D02*
G37*
G36*
X038150Y012597D02*
X037333Y012597D01*
Y012922D01*
X036841D01*
Y012597D01*
X036713D01*
Y012912D01*
X036654D01*
X036654Y013935D01*
X038150Y013935D01*
X038150Y012597D01*
D02*
G37*
G36*
X017915Y012519D02*
X017915Y012071D01*
X017931Y012033D01*
X017968Y012018D01*
X017992D01*
X018039Y012012D01*
Y011854D01*
X018285D01*
Y011776D01*
X018364D01*
Y011539D01*
X018504D01*
Y011480D01*
X017992D01*
X017334Y012138D01*
Y012679D01*
X017756Y012679D01*
X017915Y012519D01*
D02*
G37*
G36*
X022677Y014173D02*
Y013494D01*
X022490Y013307D01*
Y013203D01*
X022486D01*
Y012860D01*
X022490D01*
X022490Y012278D01*
X022328D01*
X022322Y012285D01*
X022312Y012335D01*
X022303Y012382D01*
X022303Y012382D01*
X022303Y012382D01*
Y012638D01*
X022028D01*
X021752D01*
Y012382D01*
X022028D01*
X022031Y012376D01*
X022050Y012332D01*
X022041Y012285D01*
X022034Y012278D01*
X021604Y012278D01*
Y013179D01*
X021339D01*
X021339Y014232D01*
X022490Y014232D01*
X022618D01*
X022677Y014173D01*
D02*
G37*
G36*
X019774Y012427D02*
Y012185D01*
X020577D01*
X020621Y012156D01*
X020675Y012145D01*
X020729Y012156D01*
X020773Y012185D01*
X021085Y012185D01*
X021129Y012156D01*
X021183Y012145D01*
X021237Y012156D01*
X021281Y012185D01*
X022057D01*
Y012234D01*
X022072Y012240D01*
X022073Y012242D01*
X022075Y012244D01*
X022082Y012252D01*
X022086Y012264D01*
X022093Y012275D01*
X022102Y012321D01*
X022100Y012332D01*
X022105Y012362D01*
X022119Y012382D01*
X022215D01*
X022257Y012340D01*
X022259Y012326D01*
X022260Y012325D01*
X022259Y012325D01*
X022269Y012275D01*
X022277Y012264D01*
X022280Y012252D01*
X022287Y012244D01*
X022289Y012242D01*
X022290Y012240D01*
X022307Y012233D01*
X022323Y012225D01*
X022325Y012225D01*
X022328Y012224D01*
X022372D01*
X022541Y012055D01*
X023130D01*
X023154Y012021D01*
X023122Y011988D01*
X022963D01*
Y011752D01*
X022884D01*
Y011673D01*
X022638D01*
Y011530D01*
X022603Y011480D01*
X022244D01*
Y011496D01*
X021831D01*
Y011480D01*
X021457Y011480D01*
X020188D01*
X019834Y011835D01*
X019814D01*
X019813Y011839D01*
X019782Y011885D01*
X019737Y011915D01*
X019683Y011926D01*
X019629Y011915D01*
X019584Y011885D01*
X019553Y011839D01*
X019552Y011835D01*
X018858D01*
Y011998D01*
X018937D01*
Y012234D01*
X019016D01*
Y012313D01*
X019262D01*
Y012427D01*
X019774D01*
D02*
G37*
G36*
X033720Y012265D02*
X033357D01*
Y011586D01*
Y010906D01*
X033720D01*
Y010796D01*
X032362D01*
Y012439D01*
X033720D01*
Y012265D01*
D02*
G37*
G36*
X037953Y011750D02*
Y010806D01*
X036102Y010806D01*
Y011425D01*
X036108Y011434D01*
X036152Y011462D01*
X036185Y011456D01*
X036239Y011466D01*
X036284Y011497D01*
X036315Y011542D01*
X036325Y011596D01*
X036315Y011650D01*
X036284Y011696D01*
X036277Y011700D01*
X036292Y011750D01*
X037953Y011750D01*
D02*
G37*
G36*
X015256Y013711D02*
X015591D01*
Y013632D01*
X015669D01*
Y013356D01*
X015807D01*
Y013199D01*
X015256D01*
Y013148D01*
X015128Y013020D01*
Y012520D01*
X014478D01*
Y013078D01*
X014480Y013080D01*
X014491Y013134D01*
X014480Y013188D01*
X014478Y013191D01*
Y013464D01*
X014494Y013487D01*
X014513Y013583D01*
X014494Y013679D01*
X014478Y013702D01*
Y013888D01*
X015256D01*
Y013711D01*
D02*
G37*
G36*
X014166Y013351D02*
X014262Y013332D01*
X014358Y013351D01*
X014375Y013362D01*
X014425Y013337D01*
Y013191D01*
X014429Y013182D01*
X014428Y013178D01*
X014437Y013134D01*
X014428Y013091D01*
X014429Y013087D01*
X014425Y013078D01*
Y012520D01*
X014429Y012511D01*
X014397Y012461D01*
X013593Y012461D01*
X013593Y012901D01*
X013611Y012916D01*
X013661Y012891D01*
Y012559D01*
X013917D01*
Y012825D01*
Y013091D01*
X013827D01*
X013808Y013137D01*
X014036Y013365D01*
X014040Y013370D01*
X014045Y013376D01*
X014128D01*
X014166Y013351D01*
D02*
G37*
G36*
X018799Y013888D02*
Y013691D01*
X019646D01*
Y013888D01*
X019730D01*
X019738Y013882D01*
X019767Y013838D01*
X019761Y013806D01*
X019772Y013752D01*
X019783Y013735D01*
Y013615D01*
X019772Y013597D01*
X019761Y013543D01*
X019772Y013490D01*
X019783Y013472D01*
Y013343D01*
X019778Y013334D01*
X019767Y013280D01*
X019769Y013269D01*
X019728Y013218D01*
X019636D01*
Y012884D01*
Y012549D01*
X019783D01*
Y012480D01*
X018740Y012480D01*
Y012071D01*
X017968D01*
X017968Y012568D01*
X017968Y013317D01*
X018506Y013317D01*
Y013888D01*
X018799D01*
D02*
G37*
G36*
X020518Y013218D02*
X020344D01*
Y012884D01*
Y012549D01*
X020518D01*
Y012301D01*
Y012287D01*
X019829D01*
Y012461D01*
X019837Y012480D01*
Y012549D01*
X019833Y012559D01*
Y013218D01*
X019829D01*
Y013272D01*
Y013318D01*
X019830Y013324D01*
X019830Y013324D01*
X019831Y013329D01*
X019837Y013343D01*
Y013472D01*
X019831Y013486D01*
X019829Y013497D01*
Y013590D01*
X019831Y013600D01*
X019837Y013615D01*
Y013735D01*
X019831Y013749D01*
X019829Y013760D01*
Y013888D01*
X020518D01*
Y013218D01*
D02*
G37*
G36*
X014478Y012466D02*
X015038D01*
X015038Y011979D01*
X014988Y011939D01*
X014972Y011942D01*
X014919Y011931D01*
X014873Y011901D01*
X014843Y011855D01*
X014838Y011831D01*
X014373D01*
X014331Y011850D01*
Y012037D01*
X013996D01*
Y012195D01*
X014331D01*
Y012382D01*
X014370Y012407D01*
X014397D01*
X014402Y012410D01*
X014408Y012409D01*
X014420Y012417D01*
X014434Y012423D01*
X014437Y012428D01*
X014442Y012432D01*
X014466Y012470D01*
X014469D01*
X014478Y012466D01*
D02*
G37*
G36*
X042520Y023778D02*
X041181D01*
Y025589D01*
X042520D01*
Y023778D01*
D02*
G37*
G36*
X035048Y023534D02*
X034969D01*
Y023363D01*
X034890D01*
Y023284D01*
X034719D01*
Y023192D01*
X034684Y023156D01*
X033404D01*
Y024121D01*
X033532D01*
Y023944D01*
X034339D01*
Y024121D01*
X035048D01*
Y023534D01*
D02*
G37*
G36*
X039065Y025632D02*
X039051Y025599D01*
X039051Y023650D01*
X037707D01*
Y026268D01*
X039065D01*
Y025632D01*
D02*
G37*
G36*
X035619Y024790D02*
X035009Y024790D01*
Y025154D01*
Y025755D01*
X035085D01*
X035087Y025706D01*
X035087Y025705D01*
Y025538D01*
X035560D01*
Y025705D01*
X035560Y025706D01*
X035562Y025755D01*
X035619D01*
X035619Y024790D01*
D02*
G37*
G36*
X021486Y023320D02*
X021436Y023282D01*
X021286Y023293D01*
X021280Y023295D01*
X020876D01*
Y023770D01*
X020880Y023780D01*
Y024268D01*
X020930Y024271D01*
X020940Y024269D01*
X020954Y024272D01*
X021256D01*
X021270Y024269D01*
X021283Y024272D01*
X021486D01*
Y023320D01*
D02*
G37*
G36*
X020827Y023780D02*
X020089Y023780D01*
X019911Y023957D01*
Y024203D01*
X019980Y024272D01*
X020827D01*
Y023780D01*
D02*
G37*
%LPC*%
G36*
X016211Y012756D02*
X016014D01*
Y012500D01*
X016211D01*
Y012756D01*
D02*
G37*
G36*
X015925Y012844D02*
X015669D01*
Y012648D01*
X015925D01*
Y012844D01*
D02*
G37*
G36*
X016211Y013169D02*
X016014D01*
Y012913D01*
X016211D01*
Y013169D01*
D02*
G37*
G36*
X017274D02*
X017077D01*
Y012913D01*
X017274D01*
Y013169D01*
D02*
G37*
G36*
X016919D02*
X016722D01*
Y012913D01*
X016919D01*
Y013169D01*
D02*
G37*
G36*
X039567Y025353D02*
X039311D01*
Y024792D01*
X039567D01*
Y025353D01*
D02*
G37*
G36*
X039980D02*
X039724D01*
Y024792D01*
X039980D01*
Y025353D01*
D02*
G37*
G36*
X039567Y024634D02*
X039311D01*
Y024073D01*
X039567D01*
Y024634D01*
D02*
G37*
G36*
X039980D02*
X039724D01*
Y024073D01*
X039980D01*
Y024634D01*
D02*
G37*
G36*
X039892Y023512D02*
X039695D01*
Y023187D01*
X039892D01*
Y023512D01*
D02*
G37*
G36*
X039537D02*
X039341D01*
Y023187D01*
X039537D01*
Y023512D01*
D02*
G37*
G36*
X039404Y022640D02*
X039311D01*
Y022548D01*
X039404D01*
Y022640D01*
D02*
G37*
G36*
X039537Y023030D02*
X039341D01*
Y022705D01*
X039537D01*
Y023030D01*
D02*
G37*
G36*
X039892D02*
X039695D01*
Y022705D01*
X039892D01*
Y023030D01*
D02*
G37*
G36*
X019144Y014636D02*
X018799D01*
Y014380D01*
X019144D01*
Y014636D01*
D02*
G37*
G36*
X038031Y013473D02*
X037835D01*
Y013148D01*
X038031D01*
Y013473D01*
D02*
G37*
G36*
Y012991D02*
X037835D01*
Y012666D01*
X038031D01*
Y012991D01*
D02*
G37*
G36*
X037677D02*
X037480D01*
Y012666D01*
X037677D01*
Y012991D01*
D02*
G37*
G36*
Y013473D02*
X037480D01*
Y013148D01*
X037677D01*
Y013473D01*
D02*
G37*
G36*
X018207Y011697D02*
X018039D01*
Y011539D01*
X018207D01*
Y011697D01*
D02*
G37*
G36*
X021949Y013051D02*
X021752D01*
Y012795D01*
X021949D01*
Y013051D01*
D02*
G37*
G36*
X022303D02*
X022106D01*
Y012795D01*
X022303D01*
Y013051D01*
D02*
G37*
G36*
X022805Y011988D02*
X022638D01*
Y011831D01*
X022805D01*
Y011988D01*
D02*
G37*
G36*
X019262Y012156D02*
X019094D01*
Y011998D01*
X019262D01*
Y012156D01*
D02*
G37*
G36*
X022175Y011926D02*
X022121Y011915D01*
X022076Y011885D01*
X022045Y011839D01*
X022035Y011785D01*
X022045Y011732D01*
X022076Y011686D01*
X022121Y011656D01*
X022175Y011645D01*
X022229Y011656D01*
X022275Y011686D01*
X022305Y011732D01*
X022316Y011785D01*
X022305Y011839D01*
X022275Y011885D01*
X022229Y011915D01*
X022175Y011926D01*
D02*
G37*
G36*
X033199Y011507D02*
X032825D01*
Y010906D01*
X033199D01*
Y011507D01*
D02*
G37*
G36*
Y012265D02*
X032825D01*
Y011664D01*
X033199D01*
Y012265D01*
D02*
G37*
G36*
X037313Y011367D02*
X037146D01*
Y011209D01*
X037313D01*
Y011367D01*
D02*
G37*
G36*
X036988D02*
X036821D01*
Y011209D01*
X036988D01*
Y011367D01*
D02*
G37*
G36*
Y011052D02*
X036821D01*
Y010894D01*
X036988D01*
Y011052D01*
D02*
G37*
G36*
X037313D02*
X037146D01*
Y010894D01*
X037313D01*
Y011052D01*
D02*
G37*
G36*
X015512Y013553D02*
X015256D01*
Y013356D01*
X015512D01*
Y013553D01*
D02*
G37*
G36*
X014331Y012746D02*
X014075D01*
Y012559D01*
X014331D01*
Y012746D01*
D02*
G37*
G36*
Y013091D02*
X014075D01*
Y012904D01*
X014331D01*
Y013091D01*
D02*
G37*
G36*
X018532Y012602D02*
X018364D01*
Y012445D01*
X018532D01*
Y012480D01*
Y012602D01*
D02*
G37*
G36*
X018207D02*
X018039D01*
Y012445D01*
X018207D01*
Y012602D01*
D02*
G37*
G36*
X018937Y012746D02*
X018770D01*
Y012589D01*
X018937D01*
Y012746D01*
D02*
G37*
G36*
X019478Y013218D02*
X019281D01*
Y013103D01*
X019262Y013061D01*
X019231Y013061D01*
X019094D01*
Y012825D01*
Y012589D01*
X019256D01*
X019281Y012549D01*
X019287Y012549D01*
X019478D01*
Y012884D01*
Y013218D01*
D02*
G37*
G36*
X018532Y012287D02*
X018364D01*
Y012130D01*
X018532D01*
Y012287D01*
D02*
G37*
G36*
X018207D02*
X018039D01*
Y012130D01*
X018207D01*
Y012287D01*
D02*
G37*
G36*
X019144Y013533D02*
X018799D01*
Y013278D01*
X019144D01*
Y013533D01*
D02*
G37*
G36*
X019646D02*
X019301D01*
Y013278D01*
X019646D01*
Y013533D01*
D02*
G37*
G36*
X018937Y013061D02*
X018770D01*
Y012904D01*
X018937D01*
Y013061D01*
D02*
G37*
G36*
X020187Y012805D02*
X019990D01*
Y012549D01*
X020187D01*
Y012805D01*
D02*
G37*
G36*
Y013218D02*
X019990D01*
Y012963D01*
X020187D01*
Y013218D01*
D02*
G37*
G36*
X042165Y025353D02*
X041909D01*
Y024792D01*
X042165D01*
Y025353D01*
D02*
G37*
G36*
X041752D02*
X041496D01*
Y024792D01*
X041752D01*
Y025353D01*
D02*
G37*
G36*
X042165Y024634D02*
X041909D01*
Y024073D01*
X042165D01*
Y024634D01*
D02*
G37*
G36*
X041752D02*
X041496D01*
Y024073D01*
X041752D01*
Y024634D01*
D02*
G37*
G36*
X034339Y023786D02*
X034015D01*
Y023589D01*
X034339D01*
Y023786D01*
D02*
G37*
G36*
X034812Y023534D02*
X034719D01*
Y023442D01*
X034812D01*
Y023534D01*
D02*
G37*
G36*
X033857Y023786D02*
X033532D01*
Y023589D01*
X033857D01*
Y023786D01*
D02*
G37*
G36*
X038445Y025648D02*
X038071D01*
Y025048D01*
X038445D01*
Y025648D01*
D02*
G37*
G36*
X038976Y024890D02*
X038602D01*
Y024290D01*
X038976D01*
Y024890D01*
D02*
G37*
G36*
Y025648D02*
X038602D01*
Y025048D01*
X038976D01*
Y025648D01*
D02*
G37*
G36*
X038445Y024890D02*
X038071D01*
Y024290D01*
X038445D01*
Y024890D01*
D02*
G37*
G36*
X035560Y025381D02*
X035402D01*
Y025213D01*
X035560D01*
Y025381D01*
D02*
G37*
G36*
X035245D02*
X035087D01*
Y025213D01*
X035245D01*
Y025381D01*
D02*
G37*
%LPD*%
D10*
X022177Y016825D02*
G03*
X022168Y016803I000022J-000022D01*
G01*
X021772Y016445D02*
G03*
X021852Y016478I000000J000114D01*
G01*
X021602Y016508D02*
G03*
X021754Y016445I000152J000152D01*
G01*
X021772Y016311D02*
G03*
X021947Y016383I000000J000247D01*
G01*
X021754Y016311D02*
G03*
X021602Y016248I000000J-000215D01*
G01*
X010445Y019262D02*
G03*
X010433Y019257I000000J-000017D01*
G01*
X010433Y019464D02*
G03*
X010445Y019459I000012J000012D01*
G01*
X016782Y023233D02*
G03*
X016650Y023178I000000J-000186D01*
G01*
X016349Y022697D02*
G03*
X016402Y022825I-000128J000128D01*
G01*
X016238Y022628D02*
G03*
X016309Y022657I000000J000101D01*
G01*
X015013Y022628D02*
G03*
X014718Y022506I000000J-000416D01*
G01*
D02*
G03*
X014620Y022269I000237J-000237D01*
G01*
X014577Y020246D02*
G03*
X014620Y020351I-000105J000105D01*
G01*
X014577Y020246D02*
G03*
X014472Y019994I000252J-000252D01*
G01*
X016782Y023099D02*
G03*
X016745Y023084I000000J-000052D01*
G01*
X016570Y022909D02*
G03*
X016535Y022825I000084J-000084D01*
G01*
X016443Y022602D02*
G03*
X016535Y022825I-000222J000222D01*
G01*
X016238Y022494D02*
G03*
X016404Y022563I000000J000235D01*
G01*
X015013Y022494D02*
G03*
X014813Y022411I000000J-000282D01*
G01*
D02*
G03*
X014754Y022269I000143J-000143D01*
G01*
X014671Y020151D02*
G03*
X014606Y019994I000157J-000157D01*
G01*
X016476Y023003D02*
G03*
X016402Y022825I000179J-000179D01*
G01*
X014671Y020151D02*
G03*
X014754Y020351I-000199J000199D01*
G01*
X022177Y016825D02*
Y016918D01*
X022168Y016793D02*
Y016803D01*
X021852Y016478D02*
X022168Y016793D01*
X021754Y016445D02*
X021772D01*
X021947Y016383D02*
X022329Y016766D01*
X021754Y016311D02*
X021772D01*
X021574Y016220D02*
X021602Y016248D01*
X010445Y019262D02*
X010689D01*
X010445Y019459D02*
X010689D01*
X016782Y023233D02*
X016942D01*
X016476Y023003D02*
X016650Y023178D01*
X016349Y022697D02*
X016349Y022697D01*
X016349Y022697D02*
X016349Y022697D01*
X016309Y022657D02*
X016349Y022697D01*
X016309Y022657D02*
X016309Y022657D01*
X016309Y022657D02*
X016309Y022657D01*
X015013Y022628D02*
X016238D01*
X014620Y020351D02*
Y022269D01*
X014472Y019928D02*
Y019994D01*
X016782Y023099D02*
X016942D01*
X016745Y023084D02*
X016745Y023084D01*
X016745Y023084D02*
X016745Y023084D01*
X016570Y022909D02*
X016745Y023084D01*
X016404Y022563D02*
X016443Y022602D01*
X015013Y022494D02*
X016238D01*
X014754Y020351D02*
Y022269D01*
X014606Y019900D02*
Y019994D01*
X020630Y016220D02*
X020787Y016063D01*
X019212Y016378D02*
X019370Y016220D01*
X019212Y016063D02*
X019370Y015905D01*
X019842Y015748D02*
X020000Y015905D01*
X019527Y015748D02*
X019685Y015905D01*
X020000Y016535D02*
X020157Y016378D01*
X020315Y016220D02*
X020472Y016063D01*
X020945Y015905D02*
X021102Y015748D01*
X020630Y015905D02*
X020787Y015748D01*
X020472Y015433D02*
X020630Y015590D01*
X019527Y015433D02*
X019685Y015590D01*
X019842Y015433D02*
X020000Y015590D01*
X020157Y015433D02*
X020315Y015590D01*
X021574Y015905D02*
X021732Y015748D01*
X021260Y015905D02*
X021417Y015748D01*
X021260Y016535D02*
X021417Y016378D01*
X019685Y017480D02*
X019842Y017323D01*
X020945Y016220D02*
X021102Y016063D01*
X020000Y016220D02*
X020157Y016063D01*
X020315Y016850D02*
X020472Y016693D01*
X020315Y020945D02*
X020472Y021102D01*
X020315Y020630D02*
X020472Y020787D01*
X019055Y020945D02*
X019212Y021102D01*
X019055Y020630D02*
X019212Y020787D01*
X019370Y017480D02*
X019527Y017323D01*
X019370Y016850D02*
X019527Y016693D01*
X019685Y016850D02*
X019842Y016693D01*
X019370Y016535D02*
X019527Y016378D01*
X020000Y017165D02*
X020157Y017008D01*
X020000Y017480D02*
X020157Y017323D01*
X020315Y017165D02*
X020472Y017008D01*
X020315Y016535D02*
X020472Y016378D01*
X019685Y016535D02*
X019842Y016378D01*
X020630Y017795D02*
X020787Y017638D01*
X020945Y017795D02*
X021102Y017638D01*
X019685Y017165D02*
X019842Y017008D01*
X020945Y016535D02*
X021102Y016378D01*
X021260Y016850D02*
X021417Y016693D01*
X011232Y018467D02*
X011260Y018494D01*
X011232Y018260D02*
Y018467D01*
X011005Y018032D02*
X011232Y018260D01*
X011429Y018467D02*
X011457Y018494D01*
X011429Y018303D02*
Y018467D01*
X011390Y018263D02*
X011429Y018303D01*
X011390Y018228D02*
Y018263D01*
X011212Y018050D02*
X011390Y018228D01*
X011212Y017953D02*
Y018050D01*
X011005Y017953D02*
Y018032D01*
X021574Y016535D02*
X021602Y016508D01*
X021260Y015590D02*
X021350Y015500D01*
X021484Y015500D02*
X021574Y015590D01*
X021484Y015444D02*
Y015500D01*
X021350Y015389D02*
Y015500D01*
X021719Y015069D02*
X021732D01*
X021350Y015389D02*
X021570Y015168D01*
X021615D01*
X021642Y015142D01*
X021646D01*
X021719Y015069D01*
X021534Y015394D02*
X021626Y015302D01*
X021706D01*
X021732Y015276D01*
X016942Y023099D02*
X016978Y023062D01*
X016942Y023233D02*
X016978Y023269D01*
X014606Y019900D02*
X014629Y019878D01*
X014422D02*
X014472Y019928D01*
D11*
X010433Y019464D02*
D03*
X016349Y022697D02*
D03*
X016309Y022657D02*
D03*
X016745Y023084D02*
D03*
D12*
X022186Y022335D02*
G03*
X022031Y022710I-000531J000000D01*
G01*
X020266Y023089D02*
G03*
X020285Y023069I000020J000000D01*
G01*
X021950Y022791D02*
G03*
X021280Y023069I-000670J-000670D01*
G01*
X022186Y021979D02*
G03*
X022232Y021870I000155J000000D01*
G01*
X020187Y023108D02*
G03*
X020167Y023089I000000J-000020D01*
G01*
X020266D02*
G03*
X020246Y023108I-000020J000000D01*
G01*
X020148Y023069D02*
G03*
X020167Y023089I000000J000020D01*
G01*
X019971Y023069D02*
G03*
X019770Y022986I000000J-000284D01*
G01*
D02*
G03*
X019677Y022761I000225J-000225D01*
G01*
X022070Y022335D02*
G03*
X021949Y022628I-000415J000000D01*
G01*
X019971Y022953D02*
G03*
X019852Y022904I000000J-000168D01*
G01*
X021868Y022709D02*
G03*
X021280Y022953I-000588J-000588D01*
G01*
X019852Y022904D02*
G03*
X019793Y022761I000143J-000143D01*
G01*
X019782Y021987D02*
G03*
X019842Y022132I-000146J000146D01*
G01*
X032072Y016041D02*
G03*
X032037Y016007I000000J-000034D01*
G01*
X032003Y015844D02*
G03*
X032037Y015879I000000J000034D01*
G01*
X031939D02*
G03*
X031973Y015844I000034J000000D01*
G01*
X031939Y016007D02*
G03*
X031905Y016041I-000034J000000D01*
G01*
X031834Y018838D02*
G03*
X031883Y018838I000024J000024D01*
G01*
X031818Y018854D02*
G03*
X031769Y018854I-000024J-000024D01*
G01*
X031748Y018833D02*
G03*
X031748Y018785I000024J-000024D01*
G01*
X031765Y018719D02*
G03*
X031765Y018768I-000024J000024D01*
G01*
X032049Y018267D02*
G03*
X032097Y018267I000024J000024D01*
G01*
X031958Y018357D02*
G03*
X031909Y018357I-000024J-000024D01*
G01*
X031888Y018337D02*
G03*
X031888Y018288I000024J-000024D01*
G01*
X031979Y018149D02*
G03*
X031979Y018197I-000024J000024D01*
G01*
X031954Y016632D02*
G03*
X031919Y016597I000000J-000034D01*
G01*
X031885Y016435D02*
G03*
X031919Y016470I000000J000034D01*
G01*
X031821D02*
G03*
X031855Y016435I000034J000000D01*
G01*
X031821Y016597D02*
G03*
X031786Y016632I-000034J000000D01*
G01*
X032013Y017222D02*
G03*
X031978Y017187I000000J-000034D01*
G01*
X031944Y017025D02*
G03*
X031978Y017060I000000J000034D01*
G01*
X031880D02*
G03*
X031914Y017025I000034J000000D01*
G01*
X031880Y017187D02*
G03*
X031845Y017222I-000034J000000D01*
G01*
X022025Y021870D02*
G03*
X022070Y021979I-000109J000109D01*
G01*
X010433Y019257D02*
X010438Y019262D01*
X010433Y019464D02*
X010438Y019459D01*
X010433Y019464D02*
X010433Y019464D01*
X021950Y022791D02*
X022031Y022710D01*
X022186Y021979D02*
Y022335D01*
X020285Y023069D02*
X021280D01*
X020187Y023108D02*
X020246D01*
X019971Y023069D02*
X020148D01*
X019677Y022278D02*
Y022761D01*
X021868Y022709D02*
X021949Y022628D01*
X022070Y021979D02*
Y022335D01*
X019971Y022953D02*
X021280D01*
X019793Y022326D02*
Y022761D01*
X019782Y021987D02*
X019782Y021987D01*
X019782Y021987D02*
X019782Y021987D01*
X019685Y021890D02*
X019782Y021987D01*
X042136Y016199D02*
X042672D01*
X042136D02*
X042136D01*
Y016396D02*
X042672D01*
X042136D02*
X042136D01*
Y016790D02*
X042672D01*
X042136D02*
X042136D01*
Y016987D02*
X042672D01*
X042136D02*
X042136D01*
X029832Y015412D02*
X029833D01*
X029296D02*
X029832D01*
Y015609D02*
X029833D01*
X029296D02*
X029832D01*
X031112Y015412D02*
X031648D01*
X031112D02*
X031112D01*
Y015609D02*
X031648D01*
X031112D02*
X031112D01*
X040856Y016199D02*
X040856D01*
X040320D02*
X040856D01*
Y016396D02*
X040856D01*
X040320D02*
X040856D01*
X029832Y016593D02*
X029833D01*
X029296D02*
X029832D01*
Y016790D02*
X029833D01*
X029296D02*
X029832D01*
X042136Y017380D02*
X042672D01*
X042136D02*
X042136D01*
Y017577D02*
X042672D01*
X042136D02*
X042136D01*
X021102Y019842D02*
X021260Y020000D01*
X018819Y024380D02*
X018868Y024331D01*
X018573Y024380D02*
X018819D01*
X010827Y022118D02*
X011140D01*
X020787Y019843D02*
X020945Y019685D01*
X010758Y021693D02*
X010827Y021762D01*
X010659Y021594D02*
X010758Y021693D01*
X010827Y021762D02*
Y022118D01*
X010659Y021211D02*
Y021594D01*
X010423Y021880D02*
Y022118D01*
X010325Y021781D02*
X010423Y021880D01*
X010325Y021663D02*
Y021781D01*
Y021594D02*
Y021663D01*
Y021594D02*
X010487Y021432D01*
Y020970D02*
Y021432D01*
X029296Y019743D02*
X029833D01*
X013632Y013957D02*
Y014075D01*
X013711Y014154D01*
X013902D01*
X015275Y015527D01*
X013896Y014286D02*
X014734Y015125D01*
X011590Y014286D02*
X013896D01*
X013218Y012933D02*
X013770Y013484D01*
X013218Y012785D02*
Y012933D01*
X013371Y012938D02*
X013883Y013450D01*
Y013853D01*
X013371Y010930D02*
Y012938D01*
X013770Y013484D02*
Y013879D01*
X014901Y015010D01*
X013883Y013853D02*
X014937Y014907D01*
X022063Y010581D02*
X022707D01*
X031112Y020136D02*
X031648D01*
X029296Y019546D02*
X029833D01*
X035219Y026077D02*
X035327Y025969D01*
X035209Y026077D02*
X035219D01*
X029296Y020333D02*
X029832D01*
X029296Y020136D02*
X029833D01*
X031112Y020333D02*
X031648D01*
X032250Y016041D02*
X032707D01*
X031473D02*
X031791D01*
X032234D02*
X032250D01*
X032136D02*
X032234D01*
X032072D02*
X032136D01*
X032037Y015879D02*
Y016007D01*
X031973Y015844D02*
X032003D01*
X031939Y015879D02*
Y016007D01*
X031841Y016041D02*
X031905D01*
X031791D02*
X031841D01*
X031920Y018875D02*
X033418Y020372D01*
X031565Y018520D02*
X031754Y018709D01*
X031883Y018838D02*
X031920Y018875D01*
X031818Y018854D02*
X031834Y018838D01*
X031748Y018833D02*
X031769Y018854D01*
X031748Y018785D02*
X031765Y018768D01*
X031754Y018709D02*
X031765Y018719D01*
X032131Y018301D02*
X033197Y019367D01*
X031760Y017929D02*
X031969Y018138D01*
X032097Y018267D02*
X032131Y018301D01*
X031958Y018357D02*
X032049Y018267D01*
X031888Y018337D02*
X031909Y018357D01*
X031888Y018288D02*
X031979Y018197D01*
X031969Y018138D02*
X031979Y018149D01*
X031988Y016632D02*
X033012D01*
X031473D02*
X031673D01*
X031954D02*
X031988D01*
X031919Y016470D02*
Y016597D01*
X031855Y016435D02*
X031885D01*
X031821Y016470D02*
Y016597D01*
X031722Y016632D02*
X031786D01*
X031673D02*
X031722D01*
X032028Y017222D02*
X033903D01*
X031478D02*
X031732D01*
X032013D02*
X032028D01*
X031978Y017060D02*
Y017187D01*
X031914Y017025D02*
X031944D01*
X031880Y017060D02*
Y017187D01*
X031781Y017222D02*
X031845D01*
X031732D02*
X031781D01*
X033069Y015680D02*
X034445D01*
X032707Y016041D02*
X033069Y015680D01*
X031432Y016001D02*
X031473Y016041D01*
X033884Y016241D02*
X034069Y016056D01*
X033404Y016241D02*
X033884D01*
X033012Y016632D02*
X033404Y016241D01*
X031432Y016591D02*
X031473Y016632D01*
X033903Y017222D02*
X034069Y017056D01*
X031437Y017181D02*
X031478Y017222D01*
X033880Y019367D02*
X034069Y019556D01*
X033197Y019367D02*
X033880D01*
X031473Y017929D02*
X031760D01*
X031432Y017970D02*
X031473Y017929D01*
X033886Y020372D02*
X034069Y020556D01*
X033418Y020372D02*
X033886D01*
X031473Y018520D02*
X031565D01*
X031432Y018560D02*
X031473Y018520D01*
X034445Y015680D02*
X034569Y015556D01*
X034309Y015796D02*
X034569Y016056D01*
X033117Y015796D02*
X034309D01*
X032755Y016157D02*
X033117Y015796D01*
X031473Y016157D02*
X032755D01*
X031432Y016198D02*
X031473Y016157D01*
X031112Y016198D02*
X031432D01*
X031112Y016001D02*
X031432D01*
X033870Y016357D02*
X034069Y016556D01*
X033452Y016357D02*
X033870D01*
X033060Y016748D02*
X033452Y016357D01*
X031473Y016748D02*
X033060D01*
X031432Y016788D02*
X031473Y016748D01*
X031112Y016788D02*
X031432D01*
X031112Y016591D02*
X031432D01*
X033851Y017338D02*
X034069Y017556D01*
X031473Y017338D02*
X033851D01*
X031432Y017379D02*
X031473Y017338D01*
X031112Y017379D02*
X031432D01*
X031117Y017181D02*
X031437D01*
X033874Y019250D02*
X034069Y019056D01*
X033245Y019250D02*
X033874D01*
X031808Y017813D02*
X033245Y019250D01*
X031473Y017813D02*
X031808D01*
X031112Y017970D02*
X031432D01*
Y017773D02*
X031473Y017813D01*
X031112Y017773D02*
X031432D01*
X034069Y020056D02*
Y020065D01*
X033878Y020256D02*
X034069Y020065D01*
X033466Y020256D02*
X033878D01*
X031613Y018404D02*
X033466Y020256D01*
X031473Y018404D02*
X031613D01*
X031112Y018560D02*
X031432D01*
Y018363D02*
X031473Y018404D01*
X031112Y018363D02*
X031432D01*
X039173Y015353D02*
X039180Y015360D01*
Y015658D01*
X039852Y010156D02*
X041073D01*
X029833Y016002D02*
X030369D01*
X030374Y015997D01*
X029833Y016199D02*
X030369D01*
X030374Y016204D01*
X029833Y017183D02*
X030369D01*
X030374Y017179D01*
X029833Y017380D02*
X030369D01*
X030374Y017385D01*
X029833Y018365D02*
X030369D01*
X030374Y018360D01*
X029833Y018562D02*
X030369D01*
X030374Y018566D01*
X031112Y014426D02*
X031649D01*
X031654Y014421D01*
X031112Y014623D02*
X031649D01*
X031654Y014628D01*
X031648Y015609D02*
X031653Y015614D01*
X031648Y015412D02*
X031653Y015407D01*
X031648Y019743D02*
X031653Y019747D01*
X031648Y019546D02*
X031653Y019541D01*
X031648Y020333D02*
X031653Y020338D01*
X031648Y020136D02*
X031653Y020131D01*
X029292Y020338D02*
X029296Y020333D01*
X029292Y019747D02*
X029296Y019743D01*
X029292Y019541D02*
X029296Y019546D01*
X029291Y019158D02*
X029296Y019153D01*
X029832D01*
X029291Y018952D02*
X029296Y018956D01*
X029832D01*
X029291Y017977D02*
X029296Y017972D01*
X029832D01*
X029291Y017770D02*
X029296Y017775D01*
X029832D01*
X029292Y016795D02*
X029296Y016790D01*
X029292Y016588D02*
X029296Y016593D01*
X029292Y015614D02*
X029296Y015609D01*
X029292Y015407D02*
X029296Y015412D01*
X029291Y015023D02*
X029296Y015018D01*
X029832D01*
X029291Y014816D02*
X029296Y014821D01*
X029832D01*
X042672Y016396D02*
X042677Y016401D01*
X042672Y016199D02*
X042677Y016194D01*
X042672Y016987D02*
X042677Y016991D01*
X042672Y016790D02*
X042677Y016785D01*
X042672Y017577D02*
X042677Y017582D01*
X042672Y017380D02*
X042677Y017375D01*
X040315Y016992D02*
X040320Y016987D01*
X040856D01*
X040315Y016785D02*
X040320Y016790D01*
X040856D01*
X040315Y016401D02*
X040320Y016396D01*
X040315Y016194D02*
X040320Y016199D01*
X038455Y011150D02*
Y011644D01*
X038455Y011150D02*
X038455Y011150D01*
X038986Y011150D02*
Y011644D01*
Y011150D02*
X038986Y011150D01*
X039498Y011160D02*
Y011644D01*
Y011160D02*
X039508Y011150D01*
X038986Y010500D02*
Y010756D01*
X039055Y010825D01*
X040417D01*
X040463Y010779D01*
Y010524D02*
Y010779D01*
X039508Y010500D02*
X039852Y010156D01*
X041073D02*
X041440Y010524D01*
X041860D01*
X029292Y020131D02*
X029296Y020136D01*
X031112Y019743D02*
X031648D01*
X031112Y019546D02*
X031648D01*
Y018959D02*
X031653Y018954D01*
X031112Y018959D02*
X031112D01*
X031648D01*
X035327Y025969D02*
X036161D01*
X023328Y012638D02*
X023622D01*
X023155Y012811D02*
X023328Y012638D01*
X023155Y012811D02*
Y012897D01*
X023020Y013032D02*
X023155Y012897D01*
X024444Y018420D02*
Y018508D01*
X024355Y018597D02*
X024444Y018508D01*
X016270Y023307D02*
X016333D01*
X015935Y022972D02*
X016270Y023307D01*
X016333D02*
X016441Y023415D01*
X013962Y018715D02*
X014055Y018622D01*
X013949Y018715D02*
X013962D01*
X013813Y018851D02*
Y019347D01*
Y018851D02*
X013949Y018715D01*
X012648Y012018D02*
Y012226D01*
X012520Y011890D02*
X012648Y012018D01*
X011706Y011890D02*
X012520D01*
X022782Y020315D02*
X022965D01*
X011900Y017530D02*
Y017697D01*
X019369Y017795D02*
X019527Y017637D01*
X024033Y018406D02*
Y018445D01*
X021869Y020787D02*
X021899Y020817D01*
X021417Y019213D02*
X021731D01*
X021260Y019055D02*
X021417Y019213D01*
X021412Y018272D02*
X021673D01*
X021260Y018425D02*
X021412Y018272D01*
X021417Y017953D02*
X021648D01*
X021260Y018110D02*
X021417Y017953D01*
X019454Y024250D02*
Y025026D01*
X020030Y023386D02*
Y023675D01*
X019454Y024250D02*
X020030Y023675D01*
X014104Y023307D02*
X014213Y023199D01*
X010571Y020443D02*
X010689D01*
X010468Y020546D02*
X010571Y020443D01*
X010251Y020920D02*
X010437D01*
X010167Y020837D02*
X010251Y020920D01*
X010167Y020650D02*
Y020837D01*
Y020650D02*
X010271Y020546D01*
X010468D01*
X010437Y020920D02*
X010487Y020970D01*
X010846Y020640D02*
X010930Y020723D01*
X010689Y020640D02*
X010846D01*
X010930Y020723D02*
Y020940D01*
X010659Y021211D02*
X010930Y020940D01*
X012421Y012835D02*
X012540Y012954D01*
X023297Y012480D02*
X023622D01*
X023248Y012431D02*
X023297Y012480D01*
X023219Y012165D02*
X023258D01*
X010669Y023219D02*
X010679D01*
X017884Y022510D02*
X018627D01*
X019972Y023329D02*
X020030Y023386D01*
X019794Y023329D02*
X019972D01*
X019647Y023182D02*
X019794Y023329D01*
X019299Y023182D02*
X019647D01*
X019144Y025551D02*
X019154Y025541D01*
Y024616D02*
Y025541D01*
X018868Y024331D02*
X019154Y024616D01*
X024969Y023739D02*
X025277D01*
X024783Y023553D02*
X024969Y023739D01*
X024783Y023091D02*
Y023553D01*
X021574Y019685D02*
X021811Y019921D01*
X022362D01*
X019527Y019527D02*
X019685Y019685D01*
X019212Y019527D02*
X019370Y019370D01*
X010659Y023228D02*
X010669Y023219D01*
X010625Y023194D02*
X010659Y023228D01*
X010310Y023194D02*
X010625D01*
X010177Y023061D02*
X010310Y023194D01*
X019503Y025084D02*
X019852Y025433D01*
X019503Y025075D02*
Y025084D01*
X019454Y025026D02*
X019503Y025075D01*
X014247Y016284D02*
X014469Y016063D01*
X014149Y016176D02*
X014694Y015630D01*
X014724D01*
X014035Y016449D02*
X014075D01*
X014469Y016063D02*
X016063D01*
X014646Y016378D02*
X015335D01*
X016063Y016063D02*
X016220Y016220D01*
X015335Y016378D02*
X015433Y016476D01*
X010393Y019941D02*
X010394Y019941D01*
X019852Y025433D02*
X020748D01*
X020984Y025669D01*
X014213Y021142D02*
Y023199D01*
X014270Y018850D02*
Y020421D01*
Y018850D02*
X014345Y018776D01*
X016535Y017165D02*
X016693Y017323D01*
X020984Y025669D02*
Y026033D01*
X018627Y022510D02*
X019299Y023182D01*
X017638Y022263D02*
X017884Y022510D01*
X017638Y022147D02*
Y022263D01*
X017533Y022042D02*
X017638Y022147D01*
X017417Y022042D02*
X017533D01*
X017327Y021953D02*
X017417Y022042D01*
X017327Y021836D02*
Y021953D01*
X017228Y021737D02*
X017327Y021836D01*
X016167Y021737D02*
X017228D01*
X016068Y021638D02*
X016167Y021737D01*
X016068Y020882D02*
Y021638D01*
Y020882D02*
X016157Y020792D01*
X016275D01*
X016383Y020684D01*
Y019937D02*
Y020684D01*
Y019937D02*
X016472Y019847D01*
X016588D01*
X016697Y019738D01*
Y019400D02*
Y019738D01*
X016688Y019390D02*
X016697Y019400D01*
X016688Y019307D02*
Y019390D01*
X016598Y019217D02*
X016688Y019307D01*
X016482Y019217D02*
X016598D01*
X016378Y019114D02*
X016482Y019217D01*
X016378Y018022D02*
Y019114D01*
Y018022D02*
X016447Y017953D01*
X016634D01*
X017589Y014882D02*
X017603D01*
X014173Y014823D02*
Y015138D01*
X013942Y014592D02*
X014173Y014823D01*
X013671Y014592D02*
X013942D01*
X013947Y015364D02*
X014173Y015138D01*
X013711Y015364D02*
X013947D01*
X013612Y015463D02*
X013711Y015364D01*
X011476Y013907D02*
Y014173D01*
X013371Y010930D02*
X013376Y010925D01*
X013612Y013976D02*
X013632Y013957D01*
X013140Y013976D02*
X013612D01*
X012884Y013720D02*
X013140Y013976D01*
X011827Y012199D02*
X011987Y012038D01*
X012369D01*
X011427Y011799D02*
X011827Y012199D01*
X012421Y012090D02*
Y012835D01*
X012369Y012038D02*
X012421Y012090D01*
X011634Y011289D02*
Y011817D01*
X011417Y013848D02*
X011476Y013907D01*
X011427Y011437D02*
Y011799D01*
X012185Y016535D02*
X012205Y016516D01*
Y016112D02*
Y016516D01*
X013376Y010906D02*
Y010925D01*
X014203Y010108D02*
X022657D01*
X015784Y011620D02*
X015974Y011811D01*
X016219Y012046D02*
X016467Y012293D01*
X015974Y011811D02*
Y012293D01*
X013002Y012226D02*
X013022D01*
X012648D02*
X013002D01*
X011823Y012648D02*
X011862D01*
X012205Y017224D02*
X012264D01*
X011900Y017530D02*
X012205Y017224D01*
X021703Y023514D02*
X021772D01*
X025651Y024645D02*
X025916D01*
X026161Y024400D01*
Y024144D02*
Y024400D01*
X024632Y018232D02*
X024760D01*
X024444Y018420D02*
X024632Y018232D01*
X016555Y015236D02*
X016776D01*
X016693Y020157D02*
X016850Y020315D01*
X018094Y015387D02*
X018142Y015435D01*
X018094Y015373D02*
Y015387D01*
X017603Y014882D02*
X018094Y015373D01*
X018142Y015435D02*
X018248D01*
X012717Y021457D02*
X012972D01*
X012638Y021377D02*
X012717Y021457D01*
X012638Y021211D02*
Y021377D01*
X011850Y022874D02*
X012175Y022549D01*
X012972Y021457D02*
X013100Y021585D01*
Y022185D02*
X013287Y022372D01*
X013100Y021585D02*
Y022185D01*
X023258Y012165D02*
X023415Y012323D01*
X023622D01*
X015600Y014813D02*
X015807Y015020D01*
X017077Y023986D02*
X017087Y023996D01*
Y024134D01*
X015669Y026339D02*
X015678Y026347D01*
X021417Y018898D02*
X021509D01*
X021260Y018740D02*
X021417Y018898D01*
X021509Y018897D02*
X021732D01*
X024760Y018232D02*
X025020Y017972D01*
X014619Y010878D02*
X014787D01*
X024803Y012165D02*
X025354D01*
X025709Y013032D02*
X025906Y012835D01*
Y012638D02*
Y012835D01*
X025709Y012520D02*
Y012790D01*
X025354Y012165D02*
X025709Y012520D01*
X024803Y012323D02*
X025315D01*
X025709Y013032D02*
Y014071D01*
X025157Y012598D02*
X025354D01*
X025039Y012480D02*
X025157Y012598D01*
X024803Y012480D02*
X025039D01*
X025000Y012638D02*
X025157Y012795D01*
X024803Y012638D02*
X025000D01*
X023386Y012795D02*
X023622D01*
X023307Y012874D02*
X023386Y012795D01*
X011850Y018494D02*
Y018533D01*
X013406Y019459D02*
X013505D01*
X013366D02*
X013406D01*
X012638Y021171D02*
Y021211D01*
X013406Y019656D02*
X013505D01*
X013366D02*
X013406D01*
X015221Y014907D02*
X015905Y015590D01*
X018110Y025276D02*
X018268Y025118D01*
X017894Y025276D02*
X018110D01*
X018504Y025118D02*
X018622Y025000D01*
X018268Y025118D02*
X018504D01*
X017894Y025276D02*
X017913Y025256D01*
X020157Y022047D02*
X020315Y021890D01*
X020157Y022362D02*
X020315Y022205D01*
X020945Y020000D02*
X021102Y020157D01*
X020945Y020000D02*
X020945D01*
X016776Y015236D02*
X017010Y015470D01*
Y015512D01*
X026161Y016004D02*
Y016240D01*
X018425Y017795D02*
X018425Y017795D01*
X013678Y018643D02*
X013729Y018593D01*
X020183Y011285D02*
X020191Y011278D01*
Y011047D02*
Y011278D01*
X022402Y019961D02*
X022441D01*
X022362Y019921D02*
X022402Y019961D01*
X016693Y023622D02*
Y023874D01*
X016496Y024071D02*
X016693Y023874D01*
X016968Y024252D02*
X017087Y024134D01*
X016968Y024252D02*
Y024429D01*
X016339Y023888D02*
Y024429D01*
Y023888D02*
X016441Y023785D01*
X016496Y024071D02*
Y024429D01*
X017593Y026334D02*
X017858D01*
X017441Y026181D02*
X017593Y026334D01*
X017858D02*
X018150Y026043D01*
X017126Y025965D02*
Y026339D01*
X018150Y025866D02*
Y026043D01*
X017441Y025965D02*
Y026181D01*
X017126Y025965D02*
X017131Y025969D01*
X017283Y025965D02*
Y026260D01*
X017283Y025965D02*
X017283Y025965D01*
X015678Y026347D02*
X016093D01*
X016181Y026260D01*
Y025965D02*
Y026260D01*
X016339Y025965D02*
Y026339D01*
X020945Y019370D02*
X021102Y019527D01*
X020630Y019370D02*
X020787Y019527D01*
X019212Y020157D02*
X019370Y020000D01*
X015748Y015748D02*
X015905Y015905D01*
X019685Y019055D02*
X019842Y018897D01*
X018110Y018740D02*
X018267Y018897D01*
X020945Y022205D02*
X021102Y022362D01*
X020945Y021890D02*
X021102Y022047D01*
X013505Y019459D02*
X013678Y019285D01*
X016772Y026299D02*
X016772D01*
X016968Y026103D01*
Y025965D02*
Y026103D01*
X017598Y023967D02*
Y024429D01*
X017375Y023967D02*
X017441Y024033D01*
Y024429D01*
X021417Y020787D02*
X021869Y020787D01*
X010650Y017559D02*
Y017579D01*
X019055Y017795D02*
X019212Y017638D01*
X015748Y016693D02*
X015905Y016850D01*
X015472Y016693D02*
X015748D01*
X015433Y016653D02*
X015472Y016693D01*
X015433Y016476D02*
Y016653D01*
X016220Y016535D02*
X016378Y016693D01*
X016063Y015748D02*
X016220Y015905D01*
X016063Y016693D02*
X016220Y016850D01*
X021260Y019685D02*
X021417Y019842D01*
X020945Y019055D02*
X021102Y019212D01*
X020630Y019055D02*
X020787Y019212D01*
X020000Y019055D02*
X020157Y019212D01*
X017952Y020787D02*
X018110Y020630D01*
X019370Y020315D02*
X019527Y020157D01*
X016797Y011468D02*
X016965Y011301D01*
X016425Y011468D02*
X016797D01*
X018740Y020315D02*
X018897Y020472D01*
X019055Y020315D02*
X019212Y020472D01*
X018740Y020945D02*
X018897Y021102D01*
X011841Y021181D02*
X011850Y021171D01*
X020630Y021575D02*
X020787Y021732D01*
X020630Y021260D02*
X020787Y021417D01*
X018425Y021260D02*
X018582Y021417D01*
X018425Y020945D02*
X018582Y021102D01*
X018425Y020630D02*
X018582Y020787D01*
X017952Y021419D02*
X018110Y021261D01*
X017637Y021417D02*
X017795Y021260D01*
X017008Y021417D02*
X017165Y021260D01*
X017322Y021102D02*
X017480Y020945D01*
X017008Y021102D02*
X017165Y020945D01*
X017637Y021102D02*
X017795Y020945D01*
X019370Y019685D02*
X019527Y019842D01*
X018740Y017795D02*
X018897Y017638D01*
X020630Y020000D02*
X020787Y020157D01*
X021260Y020630D02*
X021417Y020787D01*
X019685Y018425D02*
X019842Y018268D01*
X023646Y022992D02*
X023661D01*
X015807Y015020D02*
X017185D01*
X017637Y015472D01*
X016634Y017953D02*
X016693Y017894D01*
Y017637D02*
Y017894D01*
Y017637D02*
X016850Y017480D01*
X021932Y017187D02*
X021989D01*
X023248Y015551D02*
X023293Y015596D01*
X024788Y014680D02*
X024911Y014803D01*
X024990Y013508D02*
X025709Y012790D01*
X025315Y012323D02*
X025512Y012520D01*
Y012776D01*
X024862Y013425D02*
X025512Y012776D01*
X024788Y014552D02*
Y014680D01*
Y014552D02*
X024990Y014350D01*
Y013508D02*
Y014350D01*
X024596Y014793D02*
X025020Y015217D01*
X025354Y014426D02*
X025709Y014071D01*
X026142Y014793D02*
Y014803D01*
Y014819D01*
X023293Y015596D02*
Y016125D01*
X018858Y015394D02*
X019055Y015197D01*
X021310D01*
X021635Y014872D01*
X022440Y015806D02*
X022759Y016125D01*
X022923D01*
X021635Y014872D02*
X022067D01*
X022440Y015245D01*
Y015806D01*
X022657Y010108D02*
X022707Y010157D01*
Y010581D01*
X022063Y010591D02*
Y011096D01*
X022333Y011319D02*
X022953D01*
X023174Y011097D01*
X020531Y011031D02*
X020543Y011043D01*
X020531Y010454D02*
Y011031D01*
Y010454D02*
X020571Y010413D01*
X020433Y010276D02*
X020571Y010413D01*
X020059Y010679D02*
X020138Y010758D01*
X020059Y010433D02*
Y010679D01*
X023174Y011097D02*
X023524D01*
X020150Y011319D02*
X020183Y011285D01*
X019498Y011319D02*
X020150D01*
X019419Y011240D02*
X019498Y011319D01*
X020384Y010276D02*
X020433D01*
X025325Y011732D02*
X025563D01*
X020945Y016850D02*
X021102Y016693D01*
X020945Y017480D02*
X021102Y017323D01*
X019842Y019842D02*
X020000Y019685D01*
X020157Y019842D02*
X020315Y019685D01*
X010827Y022118D02*
X010837Y022108D01*
X010481Y019852D02*
X010689D01*
X010393Y019941D02*
X010481Y019852D01*
X011850Y018248D02*
Y018494D01*
X012215Y017884D02*
X012687D01*
X011850Y018248D02*
X012215Y017884D01*
X012047Y018287D02*
Y018494D01*
Y018287D02*
X012195Y018140D01*
X012638D01*
X014960Y015551D02*
Y015590D01*
X014734Y015125D02*
Y015325D01*
X014960Y015551D01*
X019055Y017480D02*
X019212Y017323D01*
X010723Y024300D02*
Y024369D01*
X010467Y024625D02*
X010723Y024369D01*
X011018Y024615D02*
X011026Y024607D01*
Y024339D02*
Y024607D01*
X017126Y026339D02*
X017219Y026432D01*
X018048D01*
X018130Y026350D01*
Y026280D02*
Y026350D01*
X012747Y012954D02*
X012844Y013051D01*
X012540Y012954D02*
X012747D01*
X012577Y013110D02*
Y013150D01*
X012884Y013457D01*
Y013720D01*
X011476Y014173D02*
X011590Y014286D01*
X013022Y014592D02*
X013214D01*
X013299Y014677D01*
Y014990D01*
Y015010D01*
X012707Y016053D02*
Y016152D01*
X013612Y015463D02*
Y015679D01*
X024911Y014803D02*
X026142D01*
X014327Y011170D02*
X014619Y010878D01*
X015679Y011063D02*
X015784Y011168D01*
Y011620D01*
X014882Y010354D02*
Y010610D01*
X015335Y011063D01*
X015679D01*
X013612Y010699D02*
X014203Y010108D01*
X013612Y010699D02*
Y012254D01*
X012205Y016112D02*
X012667D01*
X012707Y016152D01*
Y016427D01*
X012923Y016644D01*
X014626Y016398D02*
X014646Y016378D01*
X013505Y019656D02*
X013813Y019347D01*
X014247Y016284D02*
Y017989D01*
X015275Y015527D02*
Y015590D01*
X015010Y015010D02*
X015590Y015590D01*
X011634Y011817D02*
X011706Y011890D01*
X013002Y012596D02*
X013030D01*
X013218Y012785D01*
X014937Y014907D02*
X015221D01*
X014901Y015010D02*
X015010D01*
X016024Y011468D02*
X016219Y011664D01*
Y012046D01*
X014414Y020566D02*
Y020940D01*
X014270Y020421D02*
X014414Y020566D01*
X014213Y021142D02*
X014414Y020940D01*
X013678Y018643D02*
Y019285D01*
X021484Y015444D02*
X021534Y015394D01*
X017894Y025433D02*
X018086D01*
X018106Y025454D01*
X017894Y025591D02*
X018086D01*
X018106Y025570D01*
X018106Y025454D02*
X018208D01*
X018268Y025394D01*
X018474D02*
Y025403D01*
X018106Y025570D02*
X018307D01*
X018474Y025403D01*
X018044Y023788D02*
X018192Y023936D01*
X018308D02*
X018456Y023788D01*
X018308Y023936D02*
Y024038D01*
X018354Y024083D01*
X018192Y023936D02*
Y024038D01*
X018147Y024083D02*
X018192Y024038D01*
X018044Y023434D02*
X018192Y023285D01*
Y023106D02*
Y023285D01*
X018308D02*
X018456Y023434D01*
X018147Y023061D02*
X018192Y023106D01*
X018308Y023106D02*
Y023285D01*
Y023106D02*
X018354Y023061D01*
X018885Y023481D02*
X018891D01*
X018994Y023378D01*
X019141D01*
X018885Y023688D02*
X018891D01*
X018994Y023791D01*
X019141D01*
X019495Y023378D02*
X019642D01*
X019745Y023481D01*
X019801D01*
X019495Y023791D02*
X019642D01*
X019745Y023688D01*
X019801D01*
X019677Y022278D02*
X019685Y022270D01*
Y022205D02*
Y022270D01*
X019793Y022326D02*
X019842Y022277D01*
Y022132D02*
Y022132D01*
Y022277D01*
X024937Y020630D02*
X025355D01*
X024937Y021130D02*
X025355D01*
X025547Y020938D01*
X025793D01*
X025827Y020971D01*
X025764Y020819D02*
X025773D01*
X025827Y020765D01*
X025355Y020630D02*
X025547Y020822D01*
X025761D01*
X025764Y020819D01*
X024937Y019130D02*
X025355D01*
X025547Y019322D01*
X025888D01*
X024937Y019630D02*
X025355D01*
X025547Y019438D01*
X025911D02*
X025945Y019471D01*
X025547Y019438D02*
X025911D01*
X025888Y019322D02*
X025945Y019265D01*
X018425Y017795D02*
X018425Y017795D01*
X024033Y018797D02*
X024233Y018597D01*
X024355D01*
X011476Y012431D02*
X011606D01*
X011823Y012648D01*
X012047Y021211D02*
Y021535D01*
X012175Y021663D01*
Y022549D01*
X012244Y021211D02*
Y021447D01*
X012338Y021540D01*
Y021826D01*
X012520Y022008D01*
X012520D01*
X010177Y022364D02*
Y023061D01*
Y022364D02*
X010423Y022118D01*
X013671Y016644D02*
X013866Y016449D01*
X014035D01*
X014075D02*
X014149Y016375D01*
Y016176D02*
Y016375D01*
X012923Y016644D02*
X013671D01*
X014247Y017989D02*
X014333Y018075D01*
Y018124D01*
X014345Y018136D01*
Y018776D01*
X024596Y014568D02*
Y014793D01*
Y014568D02*
X024862Y014302D01*
Y013425D02*
Y014302D01*
X025020Y015217D02*
X025362D01*
Y015205D02*
X026161Y016004D01*
X017598Y023967D02*
X017729D01*
X011138Y022116D02*
X011140Y022118D01*
X011093Y022116D02*
X011138D01*
X016378Y015748D02*
X016535Y015591D01*
D13*
X019782Y021987D02*
D03*
D14*
X021703Y024140D02*
G03*
X021693Y024163I-000034J000000D01*
G01*
X020630Y016536D02*
X020787Y016378D01*
X021260Y021890D02*
X021417Y021733D01*
X021703Y023868D02*
Y024140D01*
X021594Y021575D02*
Y021870D01*
X021279Y021279D02*
Y021575D01*
X025000Y020118D02*
X025585D01*
X022303Y018425D02*
X022362D01*
X029478Y018170D02*
X029833D01*
X040207Y014821D02*
X040856D01*
X024380Y017756D02*
Y017771D01*
X022913Y012343D02*
Y012657D01*
X020158Y021732D02*
X020315Y021574D01*
X018583Y022047D02*
X018740Y022204D01*
X017343Y022894D02*
X017480D01*
X016986Y022383D02*
X017165Y022205D01*
X019389Y021279D02*
Y021575D01*
X016850Y020000D02*
X017165Y019685D01*
X017795Y018425D02*
X018110Y018110D01*
X018543Y012913D02*
X019528D01*
X014764Y016220D02*
X014960D01*
X010610Y012697D02*
Y016663D01*
X014071Y010870D02*
X014327D01*
X011949Y013110D02*
X012207D01*
X013818Y020058D02*
Y020444D01*
X013748Y020049D02*
X013809D01*
X016063Y017323D02*
X016220Y017165D01*
X022736Y015325D02*
X022805Y015256D01*
X022106Y013957D02*
Y014488D01*
X034378Y026072D02*
X034845D01*
X010935Y018533D02*
X011063D01*
X020158Y021417D02*
X020315Y021260D01*
X034764Y015157D02*
X034969D01*
X035285Y014841D01*
X038756Y017203D02*
X038819Y017266D01*
X030483Y021843D02*
X030615Y021711D01*
X037520Y010510D02*
X038445D01*
X039685Y012602D02*
X041727D01*
X039375D02*
X039685D01*
X036596Y022654D02*
X036948D01*
X036496Y022754D02*
X036596Y022654D01*
X036496Y022754D02*
Y023293D01*
X036161Y023628D02*
X036496Y023293D01*
X038514Y017203D02*
X038756D01*
X037957Y018056D02*
X037975Y018038D01*
X037569Y018056D02*
X037957D01*
X039173Y017213D02*
X039404D01*
X042234Y011859D02*
Y012095D01*
X038445Y010510D02*
X038455Y010500D01*
X031112Y021317D02*
Y021514D01*
X035689Y014491D02*
X036025D01*
X042136Y015607D02*
Y015809D01*
X041558D02*
X042136D01*
X041506Y015756D02*
X041558Y015809D01*
X041211Y016002D02*
X041279D01*
X041211Y016002D02*
X041211Y016002D01*
X040856Y016002D02*
X041211D01*
X040207Y014821D02*
Y014841D01*
X040325Y015412D02*
X040856D01*
X040305Y015392D02*
X040325Y015412D01*
X029832Y015805D02*
X029833D01*
X029478D02*
X029832D01*
X029478Y015805D02*
X029478Y015805D01*
X029410Y015805D02*
X029478D01*
X029832Y016987D02*
X029833D01*
X029478D02*
X029832D01*
X029478Y016987D02*
X029478Y016987D01*
X029410Y016987D02*
X029478D01*
X029478Y018170D02*
X029478Y018170D01*
X029409Y018170D02*
X029478D01*
X031112Y014820D02*
Y015017D01*
X030758Y018166D02*
X031112D01*
X030758Y018166D02*
X030758Y018166D01*
X030689Y018166D02*
X030758D01*
X030758Y018757D02*
X031112D01*
X030758Y018757D02*
X030758Y018757D01*
X030689Y018757D02*
X030758D01*
X030689Y017576D02*
X031112D01*
X030758Y019150D02*
X031112D01*
X030758Y019150D02*
X030758Y019150D01*
X030689Y019150D02*
X030758D01*
X030758Y019349D02*
X031112D01*
X030758Y019349D02*
X030758Y019349D01*
X030689Y019349D02*
X030758D01*
X030758Y016985D02*
X031112D01*
X030758Y016985D02*
X030758Y016985D01*
X030689Y016985D02*
X030758D01*
X030758Y019939D02*
X031112D01*
X030758Y019939D02*
X030758Y019939D01*
X030689Y019939D02*
X030758D01*
X030758Y016395D02*
X031112D01*
X030758Y016395D02*
X030758Y016395D01*
X030689Y016395D02*
X030758D01*
X030758Y020530D02*
X031112D01*
X030758Y020530D02*
X030758Y020530D01*
X030689Y020530D02*
X030758D01*
X030758Y015809D02*
X031112D01*
X030758Y015809D02*
X030758Y015809D01*
X030689Y015809D02*
X030758D01*
X029492Y020723D02*
X029832D01*
X029257Y020959D02*
X029492Y020723D01*
X029203Y020959D02*
X029257D01*
X030615Y020727D02*
X031112D01*
X030483Y020859D02*
X030615Y020727D01*
X030483Y020859D02*
Y021013D01*
X030758Y020924D02*
X031112D01*
X030758Y020924D02*
X030758Y020924D01*
X030689Y020924D02*
X030758D01*
X030771Y021120D02*
X031112D01*
X030538Y021353D02*
X030771Y021120D01*
X030483Y021353D02*
X030538D01*
X030758Y015214D02*
X031112D01*
X030758Y015214D02*
X030758Y015214D01*
X030689Y015214D02*
X030758D01*
X029478Y021319D02*
X029832D01*
X029478Y021319D02*
X029478Y021319D01*
X029409Y021319D02*
X029478D01*
X030758Y021514D02*
X031112D01*
X030758Y021514D02*
X030758Y021514D01*
X030689Y021514D02*
X030758D01*
X030758Y015017D02*
X031112D01*
X030758Y015017D02*
X030758Y015017D01*
X030689Y015017D02*
X030758D01*
X029478Y021516D02*
X029832D01*
X029478Y021516D02*
X029478Y021516D01*
X029409Y021516D02*
X029478D01*
X030615Y021711D02*
X031112D01*
X030483Y021843D02*
Y022033D01*
X030758Y021908D02*
X031112D01*
X030758Y021908D02*
X030758Y021908D01*
X030689Y021908D02*
X030758D01*
X031112Y021908D02*
Y022105D01*
X029832Y020723D02*
Y020925D01*
Y021122D02*
X030208D01*
X030440Y021353D01*
X030483D01*
X041781Y018363D02*
X042136D01*
X041781Y018363D02*
X041781Y018363D01*
X041713Y018363D02*
X041781D01*
X040501Y018366D02*
X040856D01*
X040501Y018366D02*
X040501Y018366D01*
X040433Y018366D02*
X040501D01*
X040501Y017775D02*
X040856D01*
X040501Y017775D02*
X040501Y017775D01*
X040433Y017775D02*
X040501D01*
X041781Y018757D02*
X042136D01*
X041781Y018757D02*
X041781Y018757D01*
X041713Y018757D02*
X041781D01*
X041781Y017773D02*
X042136D01*
X041781Y017773D02*
X041781Y017773D01*
X041713Y017773D02*
X041781D01*
X040501Y018760D02*
X040856D01*
X040501Y018760D02*
X040501Y018760D01*
X040433Y018760D02*
X040501D01*
X040501Y017183D02*
X040856D01*
X040501Y017183D02*
X040501Y017183D01*
X040433Y017183D02*
X040501D01*
X041781Y019349D02*
X042136D01*
X041781Y019349D02*
X041781Y019349D01*
X041713Y019349D02*
X041781D01*
X041786Y017181D02*
X042141D01*
X041786Y017181D02*
X041786Y017181D01*
X041718Y017181D02*
X041786D01*
X040496Y019351D02*
X040851D01*
X040496Y019351D02*
X040496Y019351D01*
X040428Y019351D02*
X040496D01*
X040501Y016593D02*
X040856D01*
X040501Y016593D02*
X040501Y016593D01*
X040433Y016593D02*
X040501D01*
X041781Y019939D02*
X042136D01*
X041781Y019939D02*
X041781Y019939D01*
X041713Y019939D02*
X041781D01*
X041781Y016591D02*
X042136D01*
X041781Y016591D02*
X041781Y016591D01*
X041713Y016591D02*
X041781D01*
X040501Y019941D02*
X040856D01*
X040501Y019941D02*
X040501Y019941D01*
X040433Y019941D02*
X040501D01*
X041781Y020530D02*
X042136D01*
X041781Y020530D02*
X041781Y020530D01*
X041713Y020530D02*
X041781D01*
X041781Y016001D02*
X042136D01*
X041781Y016001D02*
X041781Y016001D01*
X041713Y016001D02*
X041781D01*
X040501Y020532D02*
X040856D01*
X040501Y020532D02*
X040501Y020532D01*
X040433Y020532D02*
X040501D01*
X041781Y020727D02*
X042136D01*
X041781Y020727D02*
X041781Y020727D01*
X041713Y020727D02*
X041781D01*
X040501Y015609D02*
X040856D01*
X040501Y015609D02*
X040501Y015609D01*
X040433Y015609D02*
X040501D01*
X041781Y021120D02*
X042136D01*
X041781Y021120D02*
X041781Y021120D01*
X041713Y021120D02*
X041781D01*
X041781Y015410D02*
X042136D01*
X041781Y015410D02*
X041781Y015410D01*
X041713Y015410D02*
X041781D01*
X040501Y021122D02*
X040856D01*
X040501Y021122D02*
X040501Y021122D01*
X040433Y021122D02*
X040501D01*
X041639Y015214D02*
X042136D01*
X041507Y015081D02*
X041639Y015214D01*
X041507Y014893D02*
Y015081D01*
X040501Y015018D02*
X040856D01*
X040501Y015018D02*
X040501Y015018D01*
X040433Y015018D02*
X040501D01*
X041781Y015017D02*
X042136D01*
X041781Y015017D02*
X041781Y015017D01*
X041713Y015017D02*
X041781D01*
X041781Y021711D02*
X042136D01*
X041781Y021711D02*
X041781Y021711D01*
X041713Y021711D02*
X041781D01*
X040501Y021712D02*
X040856D01*
X040501Y021712D02*
X040501Y021712D01*
X040433Y021712D02*
X040501D01*
X040501Y014624D02*
X040856D01*
X040501Y014624D02*
X040501Y014624D01*
X040433Y014624D02*
X040501D01*
X041781Y014623D02*
X042136D01*
X041781Y014623D02*
X041781Y014623D01*
X041713Y014623D02*
X041781D01*
X040856Y015609D02*
Y015805D01*
Y015018D02*
Y015215D01*
Y014428D02*
Y014624D01*
X042136Y014426D02*
Y014623D01*
Y014820D02*
X042567D01*
X042569Y014821D01*
X037102Y014788D02*
X037529D01*
X037089Y014776D02*
X037102Y014788D01*
X037087Y014773D02*
X037089Y014776D01*
X037087Y014437D02*
Y014773D01*
X039498Y012014D02*
Y012321D01*
X039498Y012321D01*
X038455Y012014D02*
X038986D01*
X039498D01*
X040089Y011429D02*
Y011859D01*
X040089Y011859D01*
X041486Y011859D02*
X041486Y011859D01*
X041486Y011429D02*
Y011859D01*
X040837D02*
X040837Y011859D01*
X040837Y011429D02*
Y011859D01*
X042234Y011429D02*
Y011859D01*
X034227Y025460D02*
X034694D01*
X034225Y025458D02*
X034227Y025460D01*
X034376Y026070D02*
X034378Y026072D01*
X036161Y024469D02*
X036777D01*
X036948Y023255D02*
Y024298D01*
X037119Y022065D02*
X037529D01*
X037529Y022065D01*
X037815D01*
X037815Y022065D01*
X036948Y022654D02*
X036977D01*
X037578Y023255D01*
X037578Y022654D02*
X038020D01*
X036161Y023628D02*
Y023969D01*
X034971Y022066D02*
X035259D01*
X034970Y022065D02*
X034971Y022066D01*
X035290Y014846D02*
X035689D01*
X035285Y014841D02*
X035290Y014846D01*
X035285Y014487D02*
X035684D01*
X035689Y014491D01*
X035245Y023363D02*
X035560D01*
X033355Y025046D02*
X033936D01*
X033345Y025056D02*
X033355Y025046D01*
X038937Y012518D02*
Y013069D01*
X038937Y012518D02*
X038937D01*
X037707Y012065D02*
X038110D01*
X038020Y022654D02*
Y023002D01*
X038127Y023109D01*
X038435D01*
X036777Y024469D02*
X036862Y024384D01*
X036948Y024298D01*
X038701Y012321D02*
X039094D01*
X039375Y012602D01*
X037077Y012065D02*
X037087Y012075D01*
X042234Y011859D02*
X042234Y011859D01*
X041727Y012602D02*
X042234Y012095D01*
X037087Y012075D02*
Y012321D01*
X037146Y012380D01*
X038642D01*
X038701Y012321D01*
X036329Y014452D02*
Y014788D01*
X030187Y020533D02*
X030256D01*
X030187Y020533D02*
X030187Y020533D01*
X029833Y020533D02*
X030187D01*
X030187Y019942D02*
X030256D01*
X030187Y019942D02*
X030187Y019942D01*
X029833Y019942D02*
X030187D01*
X030182Y019351D02*
X030251D01*
X030182Y019351D02*
X030182Y019351D01*
X029828Y019351D02*
X030182D01*
X030187Y018761D02*
X030256D01*
X030187Y018761D02*
X030187Y018761D01*
X029833Y018761D02*
X030187D01*
X029832Y014428D02*
Y014624D01*
X030187Y014624D02*
X030256D01*
X030187Y014624D02*
X030187Y014624D01*
X029832Y014624D02*
X030187D01*
X029832Y015215D02*
X030256D01*
X030187Y016396D02*
X030256D01*
X030187Y016396D02*
X030187Y016396D01*
X029832Y016396D02*
X030187D01*
X029832Y017574D02*
X030256D01*
X038336Y015245D02*
Y015566D01*
Y015245D02*
X038346Y015235D01*
X018740Y015905D02*
X018897Y016063D01*
X017165Y015905D02*
X017322Y016063D01*
X023315Y017175D02*
Y017195D01*
Y017175D02*
Y017175D01*
X023335Y017195D01*
X023277Y017137D02*
X023315Y017175D01*
X023277Y017017D02*
Y017137D01*
X023100Y016841D02*
X023277Y017017D01*
X019683Y011671D02*
Y011785D01*
X019655Y011643D02*
X019683Y011671D01*
X019406Y011643D02*
X019655D01*
X011339Y016329D02*
X011545D01*
X011033Y016634D02*
X011339Y016329D01*
X010689Y016634D02*
X011033D01*
X022343Y018425D02*
X022362D01*
X022362Y018425D01*
X021574D02*
X021607Y018458D01*
X022270D01*
X022303Y018425D01*
X023335Y022623D02*
Y022638D01*
X014311Y011594D02*
X014766D01*
X012648Y012596D02*
Y012795D01*
X015472Y012116D02*
Y012472D01*
Y012093D02*
Y012116D01*
Y011526D02*
Y011798D01*
Y011503D02*
Y011526D01*
X021781Y022155D02*
X021782Y022156D01*
X021781Y022096D02*
Y022155D01*
X021574Y022205D02*
X021732Y022362D01*
X018740Y019685D02*
X019055Y020000D01*
X010423Y019685D02*
X010453Y019656D01*
X010689D01*
X020248Y024135D02*
X020315Y024201D01*
Y024626D01*
X019213Y022539D02*
X019331Y022657D01*
X019213Y022362D02*
Y022539D01*
X016228Y021888D02*
X016386Y022045D01*
X016378Y019527D02*
X016535Y019370D01*
X013927Y013134D02*
X013996Y013065D01*
Y012825D02*
Y013065D01*
X012224Y013957D02*
X012402Y014134D01*
X012224Y013780D02*
Y013957D01*
X013780Y011161D02*
X014071Y010870D01*
X013780Y011161D02*
Y011398D01*
X013957Y011575D01*
X016220Y010787D02*
Y010837D01*
X016024Y011033D02*
X016220Y010837D01*
X016024Y011033D02*
Y011098D01*
X015591Y012590D02*
Y012923D01*
X015472Y012472D02*
X015591Y012590D01*
X012193Y013096D02*
X012207Y013110D01*
X012193Y012648D02*
Y013096D01*
Y012234D02*
Y012648D01*
X012992Y011683D02*
X013100Y011575D01*
X014766Y011594D02*
X014972Y011801D01*
X012224Y014528D02*
X012264Y014488D01*
X012224Y014528D02*
Y014843D01*
X012205Y015758D02*
X012480D01*
X024380Y017771D02*
X025718D01*
X025866Y017622D01*
X023789Y017756D02*
X023868Y017677D01*
Y017303D02*
Y017677D01*
X023553Y017474D02*
Y017520D01*
X023425Y016781D02*
Y016811D01*
X023130Y016486D02*
X023425Y016781D01*
X022933Y016486D02*
X023130D01*
X023335Y017195D02*
Y017205D01*
X022933Y016841D02*
X023100D01*
X010630Y018642D02*
X010630Y018642D01*
X010394Y018642D02*
X010630D01*
X024400Y016909D02*
X024596D01*
X024311Y016821D02*
X024400Y016909D01*
X023335Y017205D02*
Y017224D01*
X024927Y016555D02*
X024947Y016575D01*
X024646Y016555D02*
X024927D01*
X023335Y020684D02*
X023579D01*
X012674Y021624D02*
X012687D01*
X012441Y021391D02*
X012674Y021624D01*
X012441Y021211D02*
Y021391D01*
X011535Y021703D02*
X011850Y021388D01*
Y021211D02*
Y021388D01*
X016998Y012254D02*
Y012835D01*
X015866Y024129D02*
Y024429D01*
X015866Y023829D02*
X015935Y023760D01*
X021574Y021575D02*
X021594D01*
X021574Y021890D02*
X021594Y021870D01*
X021781Y022096D02*
X021781D01*
X021574Y021890D02*
X021781Y022096D01*
X021574Y020945D02*
X021797D01*
X023335Y022234D02*
Y022618D01*
Y021850D02*
Y022234D01*
Y021467D02*
Y021747D01*
Y021089D02*
Y021467D01*
X023533Y022638D02*
X023673Y022498D01*
X018425Y018110D02*
X018582Y018268D01*
X017795Y015589D02*
Y015590D01*
Y015589D02*
X017951Y015432D01*
X015118Y016693D02*
X015275Y016850D01*
X013406Y020049D02*
X013748D01*
X013366D02*
X013406D01*
X010541Y019065D02*
X010689D01*
X016220Y015276D02*
Y015315D01*
X019055Y018110D02*
X019212Y018268D01*
X023335Y021747D02*
Y021850D01*
X021102Y021102D02*
X021260Y020945D01*
X013819Y020925D02*
Y020984D01*
X013661Y021142D02*
X013819Y020984D01*
X013223Y021142D02*
X013661D01*
X012530Y019370D02*
X012756D01*
X012776Y019350D01*
X015275Y020000D02*
X015433Y019842D01*
X016220Y015315D02*
X016220Y015315D01*
X016220Y015315D02*
Y015590D01*
X023335Y021069D02*
Y021089D01*
Y020684D02*
Y021069D01*
Y020315D02*
Y020684D01*
Y019531D02*
Y019541D01*
Y019146D02*
Y019531D01*
Y018766D02*
Y019146D01*
Y020300D02*
Y020315D01*
Y019915D02*
Y020300D01*
Y019541D02*
Y019915D01*
X018582Y019842D02*
X018740Y020000D01*
X018425Y019685D02*
X018582Y019842D01*
X016785Y010591D02*
X017126D01*
X018897Y020157D02*
X019055Y020000D01*
X017480Y018425D02*
X017637Y018582D01*
X018897Y016378D02*
X019055Y016535D01*
X020945Y015590D02*
X021102Y015433D01*
X019212D02*
X019370Y015590D01*
X021260Y016220D02*
X021417Y016063D01*
X018897Y018582D02*
X019055Y018425D01*
X023335Y018761D02*
Y018766D01*
Y018377D02*
Y018761D01*
Y017992D02*
Y018377D01*
X021260Y017795D02*
X021417Y017638D01*
X018267Y019212D02*
Y019212D01*
X018110Y019055D02*
X018267Y019212D01*
X018267Y018582D02*
X018267D01*
X018582D02*
X018582Y018582D01*
X018425Y019055D02*
X018582Y019212D01*
X018425Y018425D02*
X018582Y018582D01*
X018267Y018582D02*
X018425Y018740D01*
X018110Y017480D02*
X018267Y017323D01*
X013748Y020049D02*
X013757Y020058D01*
X013809Y020049D02*
X013818Y020058D01*
X016693Y021417D02*
X016850Y021575D01*
X015433Y022047D02*
X015590Y022205D01*
X019527Y021102D02*
Y021102D01*
X019370Y021260D02*
X019527Y021102D01*
X019370Y021260D02*
X019389Y021279D01*
X019370Y021575D02*
X019389D01*
X018740Y021890D02*
X018897Y021732D01*
X018740Y021890D02*
Y021890D01*
X021417Y021102D02*
X021417Y021102D01*
X021574Y020945D01*
X021417Y021102D02*
X021574Y021260D01*
X021260Y021260D02*
X021417Y021102D01*
X021260Y021260D02*
Y021260D01*
X021279Y021279D01*
X021260Y021575D02*
X021279D01*
X019055Y021890D02*
X019212Y021732D01*
X026025Y022722D02*
Y023739D01*
X017952Y016378D02*
X018110Y016220D01*
X015118Y018582D02*
X015275Y018425D01*
X012776Y019951D02*
X012785Y019941D01*
X021574Y016850D02*
X021797D01*
X017480Y017480D02*
X017637Y017638D01*
Y017638D01*
X016850Y020000D02*
Y020000D01*
X017952Y017638D02*
X018110Y017795D01*
X019685Y017795D02*
X019842Y017638D01*
X018582Y019527D02*
X018740Y019370D01*
X018897Y019212D02*
X019055Y019370D01*
X018740Y020000D02*
Y020000D01*
X018425Y020000D02*
Y020315D01*
X018582Y020472D01*
X020945Y020315D02*
Y020630D01*
X020472Y020472D02*
X020630Y020315D01*
X020472Y020472D02*
X020472D01*
X019527Y020472D02*
X019685Y020630D01*
X018878Y010776D02*
X019051Y010949D01*
Y011643D01*
X020630Y018110D02*
X020787Y017953D01*
X020945Y017165D02*
X021102Y017008D01*
X020000Y016850D02*
X020157Y016693D01*
X020315Y015905D02*
X020472Y015748D01*
X021260Y019370D02*
X021417Y019527D01*
X020315Y019055D02*
X020472Y019212D01*
X020945Y020945D02*
X021102Y021102D01*
X021260Y020945D02*
X021417Y021102D01*
X020945Y021575D02*
X021102Y021732D01*
X020630Y022205D02*
X020787Y022362D01*
X020000Y020315D02*
X020157Y020472D01*
X020315Y020315D02*
X020472Y020472D01*
X019370Y020945D02*
X019527Y021102D01*
X019370Y021890D02*
X019527Y022047D01*
X019685Y021575D02*
X019842Y021732D01*
X019055Y021260D02*
X019212Y021417D01*
X019055Y021575D02*
X019212Y021732D01*
X018740Y021575D02*
X018897Y021732D01*
X018740Y021260D02*
X018897Y021417D01*
X018425Y021575D02*
X018582Y021732D01*
X019685Y020945D02*
X019842Y021102D01*
X020630Y020630D02*
X020787Y020787D01*
X019370Y020630D02*
X019527Y020787D01*
X018740Y020630D02*
X018897Y020787D01*
X020000Y020630D02*
X020157Y020787D01*
X020630Y021890D02*
X020787Y022047D01*
X020000Y020000D02*
X020157Y020157D01*
X019055Y019685D02*
X019212Y019842D01*
X017952Y020472D02*
X018110Y020315D01*
X017952Y020157D02*
X018110Y020000D01*
X017952Y019842D02*
X018110Y019685D01*
X017952Y019527D02*
X018110Y019370D01*
X018425D02*
X018582Y019527D01*
X019055Y019055D02*
X019212Y019212D01*
X018740Y019055D02*
X018897Y019212D01*
X017637Y020472D02*
X017795Y020315D01*
X017637Y020157D02*
X017795Y020000D01*
X017637Y019842D02*
X017795Y019685D01*
X017637Y019527D02*
X017795Y019370D01*
X017322Y019212D02*
X017480Y019055D01*
X017322Y019527D02*
X017480Y019370D01*
X017322Y019842D02*
X017480Y019685D01*
X017322Y020157D02*
X017480Y020000D01*
X017322Y020472D02*
X017480Y020315D01*
X017008Y020472D02*
X017165Y020315D01*
X017008Y020157D02*
X017165Y020000D01*
X017008Y019527D02*
X017165Y019370D01*
X017008Y019212D02*
X017165Y019055D01*
X018425Y016850D02*
X018582Y016693D01*
X018740Y017480D02*
X018897Y017323D01*
X019370Y017165D02*
X019527Y017008D01*
X017008Y017953D02*
X017165Y018110D01*
X017322Y017953D02*
X017480Y018110D01*
X017637Y017953D02*
X017795Y018110D01*
X017008Y017638D02*
X017165Y017795D01*
X017322Y017638D02*
X017480Y017795D01*
X017637Y017638D02*
X017795Y017795D01*
X017008Y017323D02*
X017165Y017480D01*
X016378Y016063D02*
X016535Y016220D01*
X016693Y016693D02*
X016850Y016850D01*
X016378Y017638D02*
X016535Y017795D01*
X015433Y017323D02*
X015590Y017480D01*
X015748Y016378D02*
X015905Y016535D01*
X015433Y015748D02*
X015590Y015905D01*
X015433Y019212D02*
X015590Y019055D01*
X015748Y019842D02*
X015905Y019685D01*
X015433Y020787D02*
X015590Y020630D01*
X015118Y021732D02*
X015275Y021575D01*
X016378Y021102D02*
X016535Y020945D01*
X017322Y021417D02*
X017480Y021260D01*
X015748Y021417D02*
X015905Y021260D01*
X017008Y020787D02*
X017165Y020630D01*
X017952Y021102D02*
X018110Y020945D01*
X016063Y020472D02*
X016220Y020315D01*
X017637Y017323D02*
X017795Y017480D01*
X014960Y019370D02*
X015118Y019527D01*
X014960Y020945D02*
X015118Y020787D01*
X020945Y021260D02*
X021102Y021417D01*
X010689Y019065D02*
X010748D01*
X020630Y020945D02*
X020787Y021102D01*
X020945Y020630D02*
X021102Y020787D01*
X018740Y018425D02*
X018897Y018268D01*
X020000Y018425D02*
X020157Y018268D01*
X016063Y018582D02*
X016220Y018740D01*
X017008Y018582D02*
X017165Y018740D01*
X017322Y018582D02*
X017480Y018740D01*
X018740Y018740D02*
X018897Y018582D01*
X019055Y018740D02*
X019212Y018582D01*
X017637Y019212D02*
X017795Y019055D01*
X017637Y018582D02*
X017795Y018740D01*
X017952Y018582D02*
X018110Y018425D01*
X017322Y018582D02*
X017322D01*
X017165Y018425D02*
X017322Y018582D01*
X016693Y018582D02*
X016850Y018425D01*
X019370Y018740D02*
X019527Y018897D01*
X025000Y018618D02*
X025557D01*
X025000Y021618D02*
X025557D01*
X017795Y017165D02*
X018110Y017480D01*
X020787Y018897D02*
X020945Y018740D01*
X014960Y017795D02*
X015118Y017638D01*
X018898Y013150D02*
Y013499D01*
X018494Y012864D02*
X018543Y012913D01*
X019213Y022362D02*
X019370Y022205D01*
X021417Y020157D02*
X021574Y020000D01*
X018740Y022205D02*
X019055D01*
X019685Y021260D02*
X019842Y021417D01*
X020000Y021575D01*
Y021575D01*
X020157Y021732D01*
X020158D01*
X020000Y021890D02*
X020158Y021732D01*
X020000Y021890D02*
X020000D01*
X017637Y021732D02*
X017795Y021890D01*
X019685Y019370D02*
X019842Y019212D01*
X021211Y014902D02*
X021220Y014911D01*
X020000Y021260D02*
X020157Y021102D01*
X020000Y020945D02*
X020157Y021102D01*
X015905Y018110D02*
X016063Y018268D01*
X019685Y016220D02*
X019842Y016063D01*
X015935Y023346D02*
Y023760D01*
X015925Y023337D02*
X015935Y023346D01*
X015305Y023760D02*
X015935D01*
X020965Y013583D02*
X020994Y013612D01*
X024803Y013110D02*
Y013179D01*
X024705Y013278D02*
X024803Y013179D01*
X024705Y013209D02*
Y013278D01*
X024596Y013110D02*
X024606D01*
X024803D01*
X024606Y013110D02*
X024606Y013110D01*
X024705Y013209D01*
X024596Y013169D02*
X024705Y013278D01*
X024596Y013110D02*
Y013169D01*
X016986Y022383D02*
Y022537D01*
X017343Y022894D01*
X016909Y023829D02*
X017151Y023588D01*
X017357D01*
X020669Y012781D02*
X021254D01*
X021319Y012717D01*
X023248Y014685D02*
X023996D01*
X020276Y013642D02*
X020335Y013583D01*
X020965D01*
X023839Y014094D02*
X024144D01*
X023750Y014006D02*
X023839Y014094D01*
X023750Y013760D02*
Y014006D01*
X020315Y017480D02*
X020472Y017323D01*
X024213Y012480D02*
Y013100D01*
X025933Y011732D02*
Y012098D01*
X025748Y012283D02*
X025933Y012098D01*
X023632Y010443D02*
X023676Y010487D01*
X024021D01*
X024262Y010728D01*
Y010728D01*
X024144Y014094D02*
Y014281D01*
X024144Y014282D01*
X024498Y014094D02*
X024685D01*
X024695Y014104D01*
X020472Y019842D02*
X020630Y019685D01*
X011457Y021211D02*
X011654D01*
X011457D02*
Y021455D01*
X011101Y021811D02*
X011457Y021455D01*
X011063Y021811D02*
X011101D01*
X010423Y022488D02*
X010827D01*
X010423D02*
Y022766D01*
X010423Y022766D02*
X010423Y022766D01*
X022648Y012736D02*
X022650Y012738D01*
Y013032D01*
X018465Y011189D02*
Y011260D01*
Y011189D02*
X018878Y010776D01*
X010394Y018918D02*
X010541Y019065D01*
X010937Y023069D02*
Y023494D01*
Y023069D02*
X011014Y022992D01*
X017322Y016378D02*
X017480Y016535D01*
X018582Y017953D02*
X018740Y018110D01*
X021142Y022579D02*
X021240D01*
X021319Y022500D01*
Y022264D02*
Y022500D01*
X021260Y022205D02*
X021319Y022264D01*
X022106Y014488D02*
X022333Y014715D01*
X022648D01*
X022805Y014872D01*
Y015256D01*
X022913Y012657D02*
X022953Y012697D01*
X021663Y025276D02*
X021693Y025305D01*
X021663Y024941D02*
Y025276D01*
X021663Y024587D02*
X021947D01*
X022415Y024118D01*
X010394Y018287D02*
X010669D01*
X010669Y018287D01*
X013307Y017667D02*
Y017884D01*
X013218Y017579D02*
X013307Y017667D01*
X010886Y018327D02*
Y018484D01*
X010935Y018533D01*
X010394Y018642D02*
Y018918D01*
X021260Y022205D02*
X021574Y021890D01*
X019764Y024311D02*
Y024429D01*
X019961Y024626D01*
X021772Y023514D02*
X021939D01*
X022415Y023990D01*
Y024118D01*
X017465Y011801D02*
X017947Y011319D01*
X018051D01*
X018110Y011260D01*
X023996Y015551D02*
X024124Y015423D01*
X024350D01*
X023750Y013406D02*
X023917Y013238D01*
X024006D01*
X023622Y012953D02*
Y013278D01*
X023750Y013406D01*
X023996Y014685D02*
X024291D01*
X024498Y014478D01*
Y014094D02*
Y014478D01*
X021368Y010581D02*
Y011092D01*
X021517Y011240D01*
X021703D01*
X012480Y015758D02*
X012598D01*
X012707Y015650D01*
Y015404D02*
Y015650D01*
X023661Y015610D02*
Y016033D01*
Y015610D02*
X023720Y015551D01*
X023996D01*
X018878Y010776D02*
X019078Y010576D01*
X019286D01*
X019429Y010433D01*
X024026Y020699D02*
X024301D01*
X024321Y020679D01*
X023335Y017195D02*
X023335D01*
Y019541D02*
X023591D01*
X023335Y021089D02*
X023568D01*
X023335Y020315D02*
X023580D01*
X023335Y021747D02*
X023673D01*
X023335Y022638D02*
X023533D01*
X023335Y017224D02*
Y017992D01*
X023553Y017520D02*
X023789Y017756D01*
X023673Y017872D02*
X023789Y017756D01*
X023335Y018766D02*
X023603D01*
X023673Y018696D01*
Y017872D02*
Y018696D01*
Y019459D01*
Y020221D01*
Y020591D01*
X023580Y020315D02*
X023673Y020221D01*
Y020591D02*
Y020984D01*
X023579Y020684D02*
X023673Y020591D01*
X023568Y021089D02*
X023673Y020984D01*
X023591Y019541D02*
X023673Y019459D01*
Y020984D02*
Y021747D01*
Y022498D01*
D15*
X014722Y024548D02*
G03*
X014905Y024472I000183J000183D01*
G01*
X013317Y024991D02*
G03*
X013268Y024970I000000J-000069D01*
G01*
X014492Y024778D02*
G03*
X013978Y024991I-000514J-000514D01*
G01*
X014905Y024472D02*
X015005D01*
X013317Y024991D02*
X013978D01*
X014492Y024778D02*
X014722Y024548D01*
D16*
X018573Y024380D02*
D03*
X010758Y021693D02*
D03*
X010325Y021663D02*
D03*
D17*
X043583Y020407D02*
D03*
X039685Y013148D02*
D03*
X043120Y023896D02*
D03*
X029685Y025156D02*
D03*
X030177D02*
D03*
X030669D02*
D03*
X031161D02*
D03*
X012185Y016535D02*
D03*
X016998Y012254D02*
D03*
X015630Y010433D02*
D03*
X014262Y013583D02*
D03*
X022736Y015315D02*
D03*
X020571Y010413D02*
D03*
X020994Y013612D02*
D03*
X019419Y011240D02*
D03*
D18*
X042234Y011429D02*
D03*
X041486D02*
D03*
X041860Y010524D02*
D03*
X040837Y011429D02*
D03*
X040089D02*
D03*
X040463Y010524D02*
D03*
X025277Y023739D02*
D03*
X026025D02*
D03*
X025651Y024645D02*
D03*
D19*
X039498Y011644D02*
D03*
Y012014D02*
D03*
X038986Y011644D02*
D03*
Y012014D02*
D03*
X038455Y011644D02*
D03*
Y012014D02*
D03*
X036458Y010489D02*
D03*
Y010859D02*
D03*
X014035Y016449D02*
D03*
Y016819D02*
D03*
X016441Y023415D02*
D03*
Y023785D02*
D03*
X015005Y025937D02*
D03*
Y026307D02*
D03*
X014130Y018222D02*
D03*
Y018593D02*
D03*
X013729Y018593D02*
D03*
Y018222D02*
D03*
X012648Y012226D02*
D03*
Y012596D02*
D03*
X013002D02*
D03*
X013002Y012226D02*
D03*
X016425Y011468D02*
D03*
Y011098D02*
D03*
X014787Y011248D02*
D03*
Y010878D02*
D03*
X016024Y011468D02*
D03*
Y011098D02*
D03*
X010423Y022488D02*
D03*
X010423Y022118D02*
D03*
X010827Y022488D02*
D03*
Y022118D02*
D03*
D20*
X039508Y011150D02*
D03*
Y010500D02*
D03*
X038986Y011150D02*
D03*
Y010500D02*
D03*
X038455Y011150D02*
D03*
Y010500D02*
D03*
X010467Y024625D02*
D03*
Y023975D02*
D03*
X011018Y024625D02*
D03*
Y023975D02*
D03*
X014350Y011171D02*
D03*
Y010522D02*
D03*
D21*
X031161Y011809D02*
D03*
X029783D02*
D03*
D22*
X042136Y022105D02*
D03*
Y021908D02*
D03*
Y021711D02*
D03*
Y021514D02*
D03*
Y021317D02*
D03*
Y021120D02*
D03*
Y020924D02*
D03*
Y020727D02*
D03*
Y020530D02*
D03*
Y020333D02*
D03*
Y020136D02*
D03*
Y019939D02*
D03*
Y019742D02*
D03*
Y019546D02*
D03*
Y019349D02*
D03*
Y019150D02*
D03*
Y018959D02*
D03*
Y018757D02*
D03*
Y018560D02*
D03*
Y018363D02*
D03*
Y018166D02*
D03*
Y017970D02*
D03*
Y017773D02*
D03*
Y017576D02*
D03*
Y017379D02*
D03*
X042141Y017181D02*
D03*
X042136Y016985D02*
D03*
Y016788D02*
D03*
Y016591D02*
D03*
Y016395D02*
D03*
Y016198D02*
D03*
Y016001D02*
D03*
Y015809D02*
D03*
Y015607D02*
D03*
Y015410D02*
D03*
Y015214D02*
D03*
Y015017D02*
D03*
Y014820D02*
D03*
Y014623D02*
D03*
Y014426D02*
D03*
X040856Y022106D02*
D03*
Y021909D02*
D03*
Y021712D02*
D03*
Y021516D02*
D03*
Y021319D02*
D03*
Y021122D02*
D03*
Y020925D02*
D03*
Y020723D02*
D03*
Y020532D02*
D03*
Y020334D02*
D03*
Y020138D02*
D03*
Y019941D02*
D03*
Y019744D02*
D03*
Y019547D02*
D03*
X040851Y019351D02*
D03*
X040856Y019153D02*
D03*
Y018957D02*
D03*
Y018760D02*
D03*
Y018563D02*
D03*
Y018366D02*
D03*
Y018169D02*
D03*
Y017972D02*
D03*
Y017775D02*
D03*
Y017574D02*
D03*
Y017382D02*
D03*
Y017183D02*
D03*
Y016987D02*
D03*
Y016790D02*
D03*
Y016593D02*
D03*
Y016396D02*
D03*
Y016199D02*
D03*
Y016002D02*
D03*
Y015805D02*
D03*
Y015609D02*
D03*
Y015412D02*
D03*
Y015215D02*
D03*
Y015018D02*
D03*
Y014821D02*
D03*
Y014624D02*
D03*
Y014428D02*
D03*
X031112Y014426D02*
D03*
Y014623D02*
D03*
Y022105D02*
D03*
Y021908D02*
D03*
Y021711D02*
D03*
Y021514D02*
D03*
Y021317D02*
D03*
Y021120D02*
D03*
Y020924D02*
D03*
Y020727D02*
D03*
Y020530D02*
D03*
Y020333D02*
D03*
Y020136D02*
D03*
Y019939D02*
D03*
Y019742D02*
D03*
Y019546D02*
D03*
Y019349D02*
D03*
Y019150D02*
D03*
Y018959D02*
D03*
Y018757D02*
D03*
Y018560D02*
D03*
Y018363D02*
D03*
Y018166D02*
D03*
Y017773D02*
D03*
Y017576D02*
D03*
Y017379D02*
D03*
X031117Y017181D02*
D03*
X031112Y016985D02*
D03*
Y016788D02*
D03*
Y016591D02*
D03*
Y016395D02*
D03*
Y016198D02*
D03*
Y016001D02*
D03*
Y015809D02*
D03*
Y015607D02*
D03*
Y015410D02*
D03*
Y015214D02*
D03*
Y015017D02*
D03*
Y014820D02*
D03*
X029832Y022106D02*
D03*
Y021909D02*
D03*
Y021712D02*
D03*
Y021516D02*
D03*
Y021319D02*
D03*
Y021122D02*
D03*
Y020925D02*
D03*
Y020723D02*
D03*
Y020532D02*
D03*
Y020334D02*
D03*
Y020138D02*
D03*
Y019941D02*
D03*
Y019744D02*
D03*
Y019547D02*
D03*
X029828Y019351D02*
D03*
X029832Y019153D02*
D03*
Y018957D02*
D03*
Y018760D02*
D03*
Y018563D02*
D03*
Y018366D02*
D03*
Y018169D02*
D03*
Y017972D02*
D03*
Y017775D02*
D03*
Y017574D02*
D03*
Y017382D02*
D03*
Y017183D02*
D03*
Y016987D02*
D03*
Y016790D02*
D03*
Y016593D02*
D03*
Y016396D02*
D03*
Y016199D02*
D03*
Y016002D02*
D03*
Y015805D02*
D03*
Y015609D02*
D03*
Y015412D02*
D03*
Y015215D02*
D03*
Y015018D02*
D03*
Y014821D02*
D03*
Y014624D02*
D03*
Y014428D02*
D03*
X031112Y017970D02*
D03*
D23*
X039180Y015658D02*
D03*
X038810D02*
D03*
X039180Y016052D02*
D03*
X038810Y016052D02*
D03*
X035213Y026070D02*
D03*
X034843D02*
D03*
X038331Y018838D02*
D03*
X037961D02*
D03*
X039180Y016445D02*
D03*
X038810D02*
D03*
X013299Y014990D02*
D03*
X013669D02*
D03*
X023020Y013032D02*
D03*
X022650D02*
D03*
X011307Y023494D02*
D03*
X010937D02*
D03*
X010220D02*
D03*
X010591D02*
D03*
X022965Y019531D02*
D03*
X023335D02*
D03*
X022965Y018761D02*
D03*
X023335D02*
D03*
X022965Y019146D02*
D03*
X023335D02*
D03*
X022965Y020684D02*
D03*
X023335D02*
D03*
X022965Y021069D02*
D03*
X023335D02*
D03*
X022965Y019915D02*
D03*
X023335D02*
D03*
X022965Y020300D02*
D03*
X023335D02*
D03*
X024033Y021401D02*
D03*
X023663D02*
D03*
X024033Y021014D02*
D03*
X023663D02*
D03*
X024033Y018406D02*
D03*
X023663D02*
D03*
X024033Y020364D02*
D03*
X023663D02*
D03*
X022965Y017992D02*
D03*
X023335D02*
D03*
X022965Y018377D02*
D03*
X023335D02*
D03*
X022965Y017608D02*
D03*
X023335D02*
D03*
X024033Y019972D02*
D03*
X023663D02*
D03*
X022965Y017205D02*
D03*
X023335D02*
D03*
X024033Y019189D02*
D03*
X023663D02*
D03*
X024033Y019581D02*
D03*
X023663D02*
D03*
X024033Y018797D02*
D03*
X023663D02*
D03*
X022965Y021467D02*
D03*
X023335D02*
D03*
X024033Y022175D02*
D03*
X023663D02*
D03*
X023374Y022992D02*
D03*
X023004D02*
D03*
X022965Y022618D02*
D03*
X023335D02*
D03*
X022965Y022234D02*
D03*
X023335D02*
D03*
X024033Y021788D02*
D03*
X023663D02*
D03*
X022965Y021850D02*
D03*
X023335D02*
D03*
X011823Y012648D02*
D03*
X012193D02*
D03*
X011823Y012234D02*
D03*
X012193D02*
D03*
X012577Y013150D02*
D03*
X012207D02*
D03*
X022923Y016125D02*
D03*
X023293D02*
D03*
X020543Y011043D02*
D03*
X020913D02*
D03*
X020191Y011047D02*
D03*
X019821D02*
D03*
X025933Y011732D02*
D03*
X025563D02*
D03*
X011508Y017697D02*
D03*
X011878D02*
D03*
D24*
X036948Y022654D02*
D03*
X037578D02*
D03*
X036948Y023255D02*
D03*
X037578D02*
D03*
X035489Y013446D02*
D03*
X034859D02*
D03*
X019429Y010433D02*
D03*
X020059D02*
D03*
D25*
X039646Y024713D02*
D03*
X041831D02*
D03*
D26*
X037087Y013266D02*
D03*
Y012676D02*
D03*
X017480Y023533D02*
D03*
Y022943D02*
D03*
X018130Y013642D02*
D03*
Y014232D02*
D03*
X017534Y013642D02*
D03*
Y014232D02*
D03*
X016919Y013642D02*
D03*
Y014232D02*
D03*
X014892Y013642D02*
D03*
Y014232D02*
D03*
X020276Y013642D02*
D03*
Y014232D02*
D03*
D27*
X034753Y023875D02*
D03*
X035343D02*
D03*
X023012Y013691D02*
D03*
X022421D02*
D03*
X020581Y024035D02*
D03*
X021171D02*
D03*
X024341Y017756D02*
D03*
X023750D02*
D03*
D28*
X035343Y024475D02*
D03*
X034713D02*
D03*
X034694Y025460D02*
D03*
X035324D02*
D03*
X037077Y012065D02*
D03*
X037707D02*
D03*
D29*
X037067Y010500D02*
D03*
Y011130D02*
D03*
D30*
X038842Y020236D02*
D03*
X039196D02*
D03*
X038842Y020906D02*
D03*
X039196D02*
D03*
X038061Y020520D02*
D03*
X038415D02*
D03*
X038819Y016829D02*
D03*
X039173D02*
D03*
X038819Y017607D02*
D03*
X039173D02*
D03*
X038819Y017213D02*
D03*
X039173D02*
D03*
X037939Y019826D02*
D03*
X038293D02*
D03*
X038842Y019426D02*
D03*
X039196D02*
D03*
X038842Y018896D02*
D03*
X039196D02*
D03*
X037975Y018438D02*
D03*
X038329D02*
D03*
X037975Y017459D02*
D03*
X038329D02*
D03*
X038336Y015566D02*
D03*
X037982D02*
D03*
X035245Y023363D02*
D03*
X034890D02*
D03*
X039232Y022469D02*
D03*
X038878D02*
D03*
X037975Y018038D02*
D03*
X038329D02*
D03*
X038842Y019806D02*
D03*
X039196D02*
D03*
X017341Y023964D02*
D03*
X017695D02*
D03*
X012953Y017884D02*
D03*
X013307D02*
D03*
X019961Y024626D02*
D03*
X020315D02*
D03*
X024144Y014094D02*
D03*
X024498D02*
D03*
X018465Y011260D02*
D03*
X018110D02*
D03*
X013957Y011594D02*
D03*
X014311D02*
D03*
X019051Y011643D02*
D03*
X019406D02*
D03*
X023366Y023386D02*
D03*
X023012D02*
D03*
X024016Y016033D02*
D03*
X023661D02*
D03*
X019141Y023791D02*
D03*
X019141Y023378D02*
D03*
X019495Y023791D02*
D03*
X019495Y023378D02*
D03*
X023671Y020699D02*
D03*
X024026D02*
D03*
D31*
X037529Y021711D02*
D03*
Y022065D02*
D03*
X037089Y015130D02*
D03*
Y014776D02*
D03*
X037119Y021711D02*
D03*
Y022065D02*
D03*
X037529Y015143D02*
D03*
Y014788D02*
D03*
X036329Y014788D02*
D03*
Y015143D02*
D03*
X036029Y022436D02*
D03*
Y022790D02*
D03*
X036299Y021711D02*
D03*
Y022065D02*
D03*
X036709Y021711D02*
D03*
Y022065D02*
D03*
X035779Y021718D02*
D03*
Y022073D02*
D03*
X033639Y018098D02*
D03*
Y018453D02*
D03*
X033169Y018101D02*
D03*
Y018456D02*
D03*
X035689Y014491D02*
D03*
Y014846D02*
D03*
X035259Y021711D02*
D03*
Y022066D02*
D03*
X035499Y022438D02*
D03*
Y022793D02*
D03*
X035285Y014841D02*
D03*
Y014487D02*
D03*
X012205Y015758D02*
D03*
Y016112D02*
D03*
X021703Y023514D02*
D03*
Y023868D02*
D03*
X023750Y013406D02*
D03*
Y013760D02*
D03*
X015005Y024472D02*
D03*
Y024826D02*
D03*
X015005Y025571D02*
D03*
Y025216D02*
D03*
X024596Y016555D02*
D03*
X024596Y016909D02*
D03*
X010394Y018642D02*
D03*
Y018287D02*
D03*
X013799Y020108D02*
D03*
Y019754D02*
D03*
X013819Y020571D02*
D03*
Y020925D02*
D03*
X021663Y024587D02*
D03*
X021663Y024941D02*
D03*
X022933Y016486D02*
D03*
Y016841D02*
D03*
X018456Y023788D02*
D03*
X018044D02*
D03*
X018456Y023434D02*
D03*
X018044D02*
D03*
D32*
X037756Y013069D02*
D03*
X038937D02*
D03*
X039616Y023109D02*
D03*
X038435D02*
D03*
D33*
X033936Y023865D02*
D03*
Y025046D02*
D03*
D34*
X036467Y012056D02*
D03*
Y012685D02*
D03*
X023632Y010443D02*
D03*
Y011073D02*
D03*
D35*
X036161Y025969D02*
D03*
Y025469D02*
D03*
Y024969D02*
D03*
X036161Y024469D02*
D03*
X036161Y023969D02*
D03*
X035640Y010586D02*
D03*
Y011086D02*
D03*
Y011586D02*
D03*
Y012086D02*
D03*
Y012586D02*
D03*
D36*
X038524Y024969D02*
D03*
X033278Y011586D02*
D03*
D37*
X012657Y017028D02*
D03*
X013563Y016654D02*
D03*
D38*
Y017402D02*
D03*
D39*
X010689Y011909D02*
D03*
Y012697D02*
D03*
Y013484D02*
D03*
Y014272D02*
D03*
Y015846D02*
D03*
X010689Y016634D02*
D03*
D40*
X010689Y015059D02*
D03*
D41*
X012707Y016152D02*
D03*
Y015404D02*
D03*
X013612Y015778D02*
D03*
D42*
X013671Y014592D02*
D03*
X013022D02*
D03*
D43*
X023248Y014685D02*
D03*
Y015551D02*
D03*
X023996Y015551D02*
D03*
Y014685D02*
D03*
X012520Y022008D02*
D03*
Y022874D02*
D03*
X011850Y022008D02*
D03*
Y022874D02*
D03*
D44*
X015305Y023760D02*
D03*
Y022972D02*
D03*
X015935D02*
D03*
X015935Y023760D02*
D03*
D45*
X017894Y025433D02*
D03*
Y025591D02*
D03*
X015571Y024646D02*
D03*
Y024803D02*
D03*
Y024961D02*
D03*
Y025118D02*
D03*
Y025276D02*
D03*
Y025433D02*
D03*
Y025591D02*
D03*
Y025748D02*
D03*
X017894D02*
D03*
Y025276D02*
D03*
Y025118D02*
D03*
Y024961D02*
D03*
Y024803D02*
D03*
Y024646D02*
D03*
D46*
X016732Y025197D02*
D03*
D47*
X017598Y024429D02*
D03*
X017441D02*
D03*
X017283D02*
D03*
X017126D02*
D03*
X016968D02*
D03*
X016811Y024429D02*
D03*
X016654D02*
D03*
X016496Y024429D02*
D03*
X016339D02*
D03*
X016181D02*
D03*
X016024D02*
D03*
X015866D02*
D03*
Y025965D02*
D03*
X016024D02*
D03*
X016181D02*
D03*
X016339D02*
D03*
X016496D02*
D03*
X016654Y025965D02*
D03*
X016811D02*
D03*
X016968Y025965D02*
D03*
X017126D02*
D03*
X017283D02*
D03*
X017441D02*
D03*
X017598D02*
D03*
D48*
X022707Y010581D02*
D03*
X021368D02*
D03*
X018124Y010591D02*
D03*
X016785D02*
D03*
D49*
X022037Y011230D02*
D03*
X017455Y011240D02*
D03*
D50*
X024937Y021130D02*
D03*
Y020130D02*
D03*
Y018630D02*
D03*
Y021630D02*
D03*
Y020630D02*
D03*
Y019630D02*
D03*
Y019130D02*
D03*
D51*
X024183Y017303D02*
D03*
X024026D02*
D03*
X023868D02*
D03*
X023711D02*
D03*
X023553D02*
D03*
Y016476D02*
D03*
X023711D02*
D03*
X023868D02*
D03*
X024026D02*
D03*
X024183D02*
D03*
D52*
X023868Y016890D02*
D03*
D53*
X012047Y019852D02*
D03*
D54*
X013406Y020837D02*
D03*
Y020640D02*
D03*
Y020443D02*
D03*
Y020246D02*
D03*
Y020049D02*
D03*
Y019852D02*
D03*
Y019656D02*
D03*
Y019459D02*
D03*
Y019262D02*
D03*
Y019065D02*
D03*
Y018868D02*
D03*
X010689D02*
D03*
Y019065D02*
D03*
Y019262D02*
D03*
Y019459D02*
D03*
Y019656D02*
D03*
Y019852D02*
D03*
Y020049D02*
D03*
Y020246D02*
D03*
Y020443D02*
D03*
Y020640D02*
D03*
Y020837D02*
D03*
D55*
X013032Y018494D02*
D03*
X012835D02*
D03*
X012638D02*
D03*
X012441D02*
D03*
X012244D02*
D03*
X012047D02*
D03*
X011850D02*
D03*
X011654D02*
D03*
X011457D02*
D03*
X011260D02*
D03*
X011063D02*
D03*
Y021211D02*
D03*
X011260D02*
D03*
X011457D02*
D03*
X011654D02*
D03*
X011850D02*
D03*
X012047D02*
D03*
X012244D02*
D03*
X012441D02*
D03*
X012638D02*
D03*
X012835D02*
D03*
X013032D02*
D03*
D56*
X020000Y017480D02*
D03*
X021260Y015590D02*
D03*
X021574D02*
D03*
X021574Y016220D02*
D03*
Y016535D02*
D03*
X020945Y022205D02*
D03*
Y021890D02*
D03*
X015590Y022205D02*
D03*
X015905D02*
D03*
X016220Y022205D02*
D03*
X015590Y021890D02*
D03*
X015905Y021890D02*
D03*
X016220Y021890D02*
D03*
X016535Y022205D02*
D03*
X016850Y022205D02*
D03*
X017165D02*
D03*
X017480D02*
D03*
X017795D02*
D03*
X018110D02*
D03*
X016535Y021890D02*
D03*
X016850Y021890D02*
D03*
X017165D02*
D03*
X017480D02*
D03*
X017795D02*
D03*
X018110Y021890D02*
D03*
X018425Y022205D02*
D03*
X018740Y022205D02*
D03*
X019055D02*
D03*
X019370D02*
D03*
X020000D02*
D03*
X020315Y022205D02*
D03*
X020630Y022205D02*
D03*
X021260D02*
D03*
X021574D02*
D03*
X018425Y021890D02*
D03*
X018740D02*
D03*
X019055D02*
D03*
X019370D02*
D03*
X020000D02*
D03*
X020315Y021890D02*
D03*
X020630Y021890D02*
D03*
X021260D02*
D03*
X021574D02*
D03*
X014960Y021575D02*
D03*
X015275D02*
D03*
X014960Y021260D02*
D03*
X015275D02*
D03*
X014960Y020945D02*
D03*
X015275Y020945D02*
D03*
X014960Y020630D02*
D03*
X015275D02*
D03*
X014960Y020315D02*
D03*
X015275D02*
D03*
X014960Y020000D02*
D03*
X015275D02*
D03*
X014960Y019685D02*
D03*
X015275D02*
D03*
X014960Y019370D02*
D03*
X015275D02*
D03*
X014960Y019055D02*
D03*
X015275Y019055D02*
D03*
X014960Y018740D02*
D03*
X015275D02*
D03*
X014960Y018425D02*
D03*
X015275D02*
D03*
X014960Y018110D02*
D03*
X015275D02*
D03*
X014960Y017795D02*
D03*
X015275D02*
D03*
X014960Y017480D02*
D03*
X015275D02*
D03*
X014960Y017165D02*
D03*
X015275D02*
D03*
X014960Y016850D02*
D03*
X015275Y016850D02*
D03*
X014960Y016535D02*
D03*
X015275D02*
D03*
X014960Y016220D02*
D03*
X015275D02*
D03*
X014960Y015905D02*
D03*
X015275D02*
D03*
X014960Y015590D02*
D03*
X015275D02*
D03*
X020945D02*
D03*
X020630Y015590D02*
D03*
X020315D02*
D03*
X020000D02*
D03*
X019685D02*
D03*
X019370Y015590D02*
D03*
X019055D02*
D03*
X018740D02*
D03*
X018425Y015590D02*
D03*
X018110Y015590D02*
D03*
X017795D02*
D03*
X017480Y015590D02*
D03*
X017165D02*
D03*
X016850Y015590D02*
D03*
X016535D02*
D03*
X016220Y015590D02*
D03*
X015905Y015590D02*
D03*
X015590D02*
D03*
X021574Y015905D02*
D03*
X021260Y015905D02*
D03*
X020945D02*
D03*
X020630D02*
D03*
X020315D02*
D03*
X020000Y015905D02*
D03*
X019685D02*
D03*
X019370Y015905D02*
D03*
X019055D02*
D03*
X018740D02*
D03*
X018425D02*
D03*
X018110D02*
D03*
X017795Y015905D02*
D03*
X017480Y015905D02*
D03*
X017165D02*
D03*
X016850Y015905D02*
D03*
X016535D02*
D03*
X016220Y015905D02*
D03*
X015905D02*
D03*
X015590D02*
D03*
X021260Y016220D02*
D03*
X020945Y016220D02*
D03*
X020630D02*
D03*
X020315D02*
D03*
X020000D02*
D03*
X019685Y016220D02*
D03*
X019370D02*
D03*
X019055D02*
D03*
X018740Y016220D02*
D03*
X018425D02*
D03*
X018110D02*
D03*
X017795D02*
D03*
X017480Y016220D02*
D03*
X017165D02*
D03*
X016850D02*
D03*
X016535Y016220D02*
D03*
X016220D02*
D03*
X015905Y016220D02*
D03*
X015590D02*
D03*
X021260Y016535D02*
D03*
X020945D02*
D03*
X020630D02*
D03*
X020315D02*
D03*
X020000D02*
D03*
X019685D02*
D03*
X019370D02*
D03*
X019055D02*
D03*
X018740D02*
D03*
X018425D02*
D03*
X018110D02*
D03*
X017795D02*
D03*
X017480D02*
D03*
X017165D02*
D03*
X016850D02*
D03*
X016535D02*
D03*
X016220D02*
D03*
X015905D02*
D03*
X015590D02*
D03*
X021574Y016850D02*
D03*
X021260Y016850D02*
D03*
X020945D02*
D03*
X020630D02*
D03*
X020315D02*
D03*
X020000Y016850D02*
D03*
X019685D02*
D03*
X019370D02*
D03*
X019055Y016850D02*
D03*
X018740D02*
D03*
X018425Y016850D02*
D03*
X018110D02*
D03*
X017795D02*
D03*
X017480Y016850D02*
D03*
X017165Y016850D02*
D03*
X016850D02*
D03*
X016535D02*
D03*
X016220D02*
D03*
X015905Y016850D02*
D03*
X015590D02*
D03*
X021574Y017165D02*
D03*
X021260D02*
D03*
X020945Y017165D02*
D03*
X020630D02*
D03*
X020315D02*
D03*
X020000D02*
D03*
X019685Y017165D02*
D03*
X019370D02*
D03*
X019055D02*
D03*
X018740Y017165D02*
D03*
X018425D02*
D03*
X018110D02*
D03*
X017795D02*
D03*
X017480Y017165D02*
D03*
X017165D02*
D03*
X016850Y017165D02*
D03*
X016535D02*
D03*
X016220D02*
D03*
X015905D02*
D03*
X015590D02*
D03*
X021574Y017480D02*
D03*
X021260D02*
D03*
X020945D02*
D03*
X020630Y017480D02*
D03*
X020315D02*
D03*
X019685Y017480D02*
D03*
X019370D02*
D03*
X019055D02*
D03*
X018740D02*
D03*
X018425Y017480D02*
D03*
X018110D02*
D03*
X017795Y017480D02*
D03*
X017480D02*
D03*
X017165D02*
D03*
X016850Y017480D02*
D03*
X016535D02*
D03*
X016220D02*
D03*
X015905Y017480D02*
D03*
X015590D02*
D03*
X021574Y017795D02*
D03*
X021260D02*
D03*
X020945D02*
D03*
X020630D02*
D03*
X020315D02*
D03*
X020000D02*
D03*
X019685D02*
D03*
X019370D02*
D03*
X019055D02*
D03*
X018740D02*
D03*
X018425Y017795D02*
D03*
X018110Y017795D02*
D03*
X017795D02*
D03*
X017480D02*
D03*
X017165D02*
D03*
X016850D02*
D03*
X016535D02*
D03*
X016220Y017795D02*
D03*
X015905Y017795D02*
D03*
X015590D02*
D03*
X021574Y018110D02*
D03*
X021260D02*
D03*
X020945D02*
D03*
X020630Y018110D02*
D03*
X020315D02*
D03*
X020000Y018110D02*
D03*
X019685D02*
D03*
X019370D02*
D03*
X019055D02*
D03*
X018740D02*
D03*
X018425Y018110D02*
D03*
X018110D02*
D03*
X017795Y018110D02*
D03*
X017480D02*
D03*
X017165D02*
D03*
X016850D02*
D03*
X016535D02*
D03*
X016220Y018110D02*
D03*
X015905Y018110D02*
D03*
X015590D02*
D03*
X021574Y018425D02*
D03*
X021260D02*
D03*
X020945Y018425D02*
D03*
X020630D02*
D03*
X020315D02*
D03*
X020000D02*
D03*
X019685Y018425D02*
D03*
X019370D02*
D03*
X019055D02*
D03*
X018740Y018425D02*
D03*
X018425D02*
D03*
X018110D02*
D03*
X017795D02*
D03*
X017480Y018425D02*
D03*
X017165D02*
D03*
X016850D02*
D03*
X016535Y018425D02*
D03*
X016220D02*
D03*
X015905Y018425D02*
D03*
X015590D02*
D03*
X021574Y018740D02*
D03*
X021260Y018740D02*
D03*
X020945Y018740D02*
D03*
X020630D02*
D03*
X020315D02*
D03*
X020000D02*
D03*
X019685D02*
D03*
X019370Y018740D02*
D03*
X019055Y018740D02*
D03*
X018740D02*
D03*
X018425D02*
D03*
X018110D02*
D03*
X017795D02*
D03*
X017480Y018740D02*
D03*
X017165Y018740D02*
D03*
X016850D02*
D03*
X016535D02*
D03*
X016220D02*
D03*
X015905Y018740D02*
D03*
X015590D02*
D03*
X021574Y019055D02*
D03*
X021260Y019055D02*
D03*
X020945D02*
D03*
X020630D02*
D03*
X020315D02*
D03*
X020000D02*
D03*
X019685D02*
D03*
X019370Y019055D02*
D03*
X019055Y019055D02*
D03*
X018740D02*
D03*
X018425D02*
D03*
X018110D02*
D03*
X017795D02*
D03*
X017480D02*
D03*
X017165Y019055D02*
D03*
X016850Y019055D02*
D03*
X016535D02*
D03*
X016220D02*
D03*
X015905D02*
D03*
X015590D02*
D03*
X021574Y019370D02*
D03*
X021260D02*
D03*
X020945Y019370D02*
D03*
X020630D02*
D03*
X020315D02*
D03*
X020000D02*
D03*
X019685Y019370D02*
D03*
X019370D02*
D03*
X019055D02*
D03*
X018740Y019370D02*
D03*
X018425D02*
D03*
X018110D02*
D03*
X017795D02*
D03*
X017480Y019370D02*
D03*
X017165D02*
D03*
X016850Y019370D02*
D03*
X016535D02*
D03*
X016220D02*
D03*
X015905D02*
D03*
X015590D02*
D03*
X021574Y019685D02*
D03*
X021260D02*
D03*
X020945D02*
D03*
X020630D02*
D03*
X020315Y019685D02*
D03*
X020000Y019685D02*
D03*
X019685D02*
D03*
X019370D02*
D03*
X019055D02*
D03*
X018740D02*
D03*
X018425D02*
D03*
X018110Y019685D02*
D03*
X017795Y019685D02*
D03*
X017480D02*
D03*
X017165D02*
D03*
X016850Y019685D02*
D03*
X016535D02*
D03*
X016220Y019685D02*
D03*
X015905D02*
D03*
X015590D02*
D03*
X021574Y020000D02*
D03*
X021260D02*
D03*
X020945D02*
D03*
X020630D02*
D03*
X020315Y020000D02*
D03*
X020000Y020000D02*
D03*
X019685D02*
D03*
X019370D02*
D03*
X019055D02*
D03*
X018740D02*
D03*
X018425Y020000D02*
D03*
X018110Y020000D02*
D03*
X017795D02*
D03*
X017480D02*
D03*
X017165D02*
D03*
X016850Y020000D02*
D03*
X016535D02*
D03*
X016220D02*
D03*
X015905Y020000D02*
D03*
X015590D02*
D03*
X021574Y020315D02*
D03*
X021260D02*
D03*
X020945D02*
D03*
X020630D02*
D03*
X020315D02*
D03*
X020000D02*
D03*
X019685D02*
D03*
X019370D02*
D03*
X019055D02*
D03*
X018740D02*
D03*
X018425D02*
D03*
X018110D02*
D03*
X017795D02*
D03*
X017480D02*
D03*
X017165D02*
D03*
X016850D02*
D03*
X016535D02*
D03*
X016220D02*
D03*
X015905D02*
D03*
X015590D02*
D03*
X020945Y020630D02*
D03*
X020630D02*
D03*
X020315D02*
D03*
X020000D02*
D03*
X019685D02*
D03*
X019370Y020630D02*
D03*
X019055D02*
D03*
X018740Y020630D02*
D03*
X018425D02*
D03*
X018110D02*
D03*
X017795D02*
D03*
X017480D02*
D03*
X017165D02*
D03*
X016850D02*
D03*
X016535D02*
D03*
X016220D02*
D03*
X015905Y020630D02*
D03*
X015590D02*
D03*
X021574Y020945D02*
D03*
X021260Y020945D02*
D03*
X020945Y020945D02*
D03*
X020630D02*
D03*
X020315D02*
D03*
X020000D02*
D03*
X019685D02*
D03*
X019370Y020945D02*
D03*
X019055Y020945D02*
D03*
X018740D02*
D03*
X018425D02*
D03*
X018110D02*
D03*
X017795D02*
D03*
X017480Y020945D02*
D03*
X017165Y020945D02*
D03*
X016850D02*
D03*
X016535D02*
D03*
X016220D02*
D03*
X015905Y020945D02*
D03*
X015590D02*
D03*
X021574Y021260D02*
D03*
X021260D02*
D03*
X020945D02*
D03*
X020630D02*
D03*
X020315D02*
D03*
X020000D02*
D03*
X019685Y021260D02*
D03*
X019370Y021260D02*
D03*
X019055D02*
D03*
X018740D02*
D03*
X018425D02*
D03*
X018110D02*
D03*
X017795D02*
D03*
X017480D02*
D03*
X017165D02*
D03*
X016850Y021260D02*
D03*
X016535Y021260D02*
D03*
X016220D02*
D03*
X015905D02*
D03*
X015590D02*
D03*
X021574Y021575D02*
D03*
X021260D02*
D03*
X020945D02*
D03*
X020630D02*
D03*
X020315D02*
D03*
X020000D02*
D03*
X019685D02*
D03*
X019370D02*
D03*
X019055D02*
D03*
X018740D02*
D03*
X018425D02*
D03*
X018110D02*
D03*
X017795D02*
D03*
X017480D02*
D03*
X017165D02*
D03*
X016850Y021575D02*
D03*
X016535Y021575D02*
D03*
X016220D02*
D03*
X015905D02*
D03*
X015590D02*
D03*
X015275Y021890D02*
D03*
X014960D02*
D03*
X015275Y022205D02*
D03*
X014960D02*
D03*
X021574Y020630D02*
D03*
X021260D02*
D03*
X019685Y022205D02*
D03*
Y021890D02*
D03*
D57*
X011850Y014843D02*
D03*
X012224Y014843D02*
D03*
X012598Y014843D02*
D03*
Y013780D02*
D03*
X012224Y013780D02*
D03*
X011850Y013780D02*
D03*
D58*
X019222Y013612D02*
D03*
Y014715D02*
D03*
D59*
X018285Y012366D02*
D03*
Y011776D02*
D03*
X015472Y012116D02*
D03*
Y011526D02*
D03*
X019016Y012825D02*
D03*
Y012234D02*
D03*
X022884Y012343D02*
D03*
Y011752D02*
D03*
D60*
X016998Y012835D02*
D03*
X016289D02*
D03*
X022028Y012717D02*
D03*
X021319D02*
D03*
X020266Y012884D02*
D03*
X019557D02*
D03*
D61*
X015591Y013632D02*
D03*
Y012923D02*
D03*
D62*
X012992Y011683D02*
D03*
X011968D02*
D03*
D63*
X024213Y012480D02*
D03*
D64*
X024803Y012953D02*
D03*
Y012795D02*
D03*
Y012638D02*
D03*
Y012480D02*
D03*
Y012323D02*
D03*
Y012165D02*
D03*
Y012008D02*
D03*
X023622D02*
D03*
Y012165D02*
D03*
Y012323D02*
D03*
Y012480D02*
D03*
Y012638D02*
D03*
Y012795D02*
D03*
Y012953D02*
D03*
D65*
X013996Y012825D02*
D03*
Y012116D02*
D03*
D66*
X028504Y012884D02*
D03*
X024764Y025030D02*
D03*
D67*
X014179Y013577D02*
X014903D01*
X020917Y010770D02*
Y011047D01*
X016811Y025276D02*
Y025965D01*
X015722Y025748D02*
X016273Y025197D01*
X010728Y020246D02*
X011654D01*
X013842Y019754D02*
X014072Y019984D01*
X017357Y023588D02*
X017480Y023465D01*
X013366Y019852D02*
Y020049D01*
X024183Y016467D02*
X024252D01*
X024173D02*
X024183D01*
X024252Y016083D02*
Y016201D01*
X024163Y016476D02*
X024173Y016467D01*
X043583Y019939D02*
Y020407D01*
X039685Y012602D02*
Y013148D01*
X042165Y023896D02*
X043120D01*
X033636Y018456D02*
X033639Y018453D01*
X033169Y018456D02*
X033636D01*
X033966Y018453D02*
X034069Y018556D01*
X033639Y018453D02*
X033966D01*
X017126Y024429D02*
Y025089D01*
X017018Y025197D02*
X017126Y025089D01*
X016732Y025197D02*
X017018D01*
X016273D02*
X016732D01*
X024033Y018230D02*
Y018406D01*
X013032Y018533D02*
X013199D01*
X015005Y025216D02*
X015049D01*
X015305Y024961D01*
X015571D01*
X023315Y017175D02*
X023335Y017195D01*
X024596Y016909D02*
Y017175D01*
X024203Y016033D02*
X024252Y016083D01*
X024016Y016033D02*
X024203D01*
X024183Y016467D02*
Y016476D01*
Y016260D02*
Y016467D01*
Y016260D02*
X024242Y016201D01*
X023947Y016250D02*
X024006Y016191D01*
Y016063D02*
Y016191D01*
X024252Y016467D02*
X024321Y016398D01*
X024026Y016476D02*
X024163D01*
X023789Y016250D02*
X023947D01*
X023711Y016329D02*
X023789Y016250D01*
X023711Y016329D02*
Y016476D01*
X023335Y017224D02*
X023413Y017303D01*
X023425Y016811D02*
X023504Y016890D01*
X023868D01*
X023413Y017303D02*
X023553D01*
X023622Y012165D02*
X023898D01*
X015140Y011600D02*
Y011870D01*
X015042Y011968D02*
X015140Y011870D01*
X015039Y011968D02*
X015042D01*
X014972Y012035D02*
X015039Y011968D01*
X014972Y012035D02*
Y012301D01*
X014787Y011248D02*
X015140Y011600D01*
X016024Y024208D02*
X016098Y024134D01*
X016161D01*
X016024Y024208D02*
Y024429D01*
X015866Y023829D02*
Y024129D01*
X024026Y017303D02*
X024183D01*
X023868Y016476D02*
Y016890D01*
X023711Y017047D02*
X023868Y016890D01*
X023711Y017047D02*
Y017303D01*
X015978Y011098D02*
X016024D01*
X024528Y012795D02*
X024803D01*
X017598Y010591D02*
X018124D01*
X017455Y010734D02*
Y011240D01*
X016024Y025965D02*
Y026195D01*
X015571Y025748D02*
X015722D01*
X021260Y020945D02*
X021260D01*
X018108Y025118D02*
X018315Y024910D01*
X017894Y025118D02*
X018108D01*
X014025Y020719D02*
X014262D01*
X013878Y020571D02*
X014025Y020719D01*
X013819Y020571D02*
X013878D01*
X013819Y020108D02*
Y020148D01*
X016024Y011098D02*
X016425D01*
X017455Y010734D02*
X017598Y010591D01*
X016811Y024213D02*
X016900Y024124D01*
X016654Y024134D02*
X016732Y024055D01*
X016811Y024213D02*
Y024429D01*
X016654Y024134D02*
Y024429D01*
X017126Y024429D02*
X017283D01*
X015069Y024803D02*
X015571D01*
X016496Y025965D02*
Y026195D01*
X014072Y019984D02*
X014075Y019981D01*
X014070Y019984D02*
X014072D01*
X019055Y021890D02*
Y021890D01*
X020000Y021260D02*
Y021260D01*
X015451Y025965D02*
X015866D01*
X016732Y025197D02*
X016811Y025276D01*
X016654Y025965D02*
X016811D01*
X018740Y019370D02*
X018740D01*
X018897Y019212D02*
Y019212D01*
X019821Y010770D02*
Y011047D01*
X014173Y013583D02*
X014179Y013577D01*
X019685Y020315D02*
X020000D01*
X017894Y025748D02*
Y025925D01*
X017795Y026024D02*
X017894Y025925D01*
X017795Y026024D02*
Y026181D01*
X023327Y023386D02*
X023366D01*
X023681D01*
X013799Y019754D02*
X013842D01*
X016900Y023839D02*
Y024124D01*
Y023839D02*
X016909Y023829D01*
X015866Y023829D02*
X015866Y023829D01*
X010197Y023500D02*
Y023720D01*
X010191Y023494D02*
X010197Y023500D01*
X010451Y023975D02*
X010467D01*
X024469Y017303D02*
X024596Y017175D01*
X024183Y017303D02*
X024469D01*
X010689Y020049D02*
Y020246D01*
X024803Y012008D02*
X025600D01*
X011644Y017833D02*
Y018100D01*
X011508Y017697D02*
X011644Y017833D01*
X012264Y014488D02*
X012271Y014495D01*
X018282Y010748D02*
X018543D01*
X018124Y010591D02*
X018282Y010748D01*
X010197Y023720D02*
X010451Y023975D01*
X011018D02*
X011278Y023715D01*
Y023494D02*
Y023715D01*
X011654Y018494D02*
Y018533D01*
X011545Y018199D02*
X011575Y018169D01*
X011644Y018100D01*
X017894Y024646D02*
X018435D01*
X018474Y024685D01*
X018315Y024910D02*
X018317Y024911D01*
X018415D01*
X016181Y024429D02*
Y025028D01*
X014268Y023970D02*
X014459Y023780D01*
X014268Y023970D02*
X014268D01*
X014459Y023681D02*
Y023780D01*
Y023681D02*
X014665Y023474D01*
X014803D01*
X015305Y022972D01*
X015630Y010433D02*
X015670Y010394D01*
X016024D01*
X023310Y017200D02*
X023335Y017224D01*
Y017195D02*
X023340Y017200D01*
D68*
X017520Y013642D02*
X017534Y013627D01*
X017539Y013632D02*
X017549Y013642D01*
X018150Y013593D02*
Y013642D01*
X017534Y013593D02*
Y013627D01*
X016919Y013642D02*
X016968Y013593D01*
X018150Y013642D02*
X018150D01*
X017534Y013627D02*
X017549Y013612D01*
X017534Y013627D02*
Y013642D01*
X017539Y013632D02*
X017549Y013622D01*
Y013612D02*
Y013622D01*
D69*
X039213Y020906D02*
X039507D01*
X036161Y024969D02*
X036829D01*
X036029Y022790D02*
X036270D01*
X035256Y022793D02*
X036029D01*
X034384Y024479D02*
X034806D01*
X036299Y022065D02*
Y022331D01*
X039213Y020236D02*
X039507D01*
X039196Y019806D02*
X039490D01*
X039196Y019426D02*
X039490D01*
X039196Y018896D02*
X039490D01*
X038331Y018438D02*
Y018838D01*
X039193Y017607D02*
X039487D01*
X038331Y017461D02*
Y018438D01*
X037067Y010500D02*
X037520D01*
X039173Y016829D02*
X039467D01*
X036709Y022065D02*
Y022331D01*
X035779Y022073D02*
Y022785D01*
X038573Y022469D02*
X038878D01*
X038331Y018438D02*
X038548D01*
X038329D02*
X038331D01*
X038548D02*
X038593Y018483D01*
X038329Y017459D02*
X038331Y017461D01*
X036299Y022331D02*
X036299D01*
X036270Y022790D02*
Y022794D01*
X036829Y024969D02*
Y024977D01*
X034384Y024479D02*
Y024485D01*
X039507Y020236D02*
Y020236D01*
Y020906D02*
Y020906D01*
X039490Y019806D02*
Y019806D01*
Y019426D02*
Y019426D01*
Y018896D02*
Y018896D01*
X037520Y010500D02*
Y010510D01*
X036174Y011586D02*
X036185Y011596D01*
X035640Y011586D02*
X036174D01*
X037569Y015556D02*
X037579Y015566D01*
X037982D01*
X035249Y022786D02*
X035256Y022793D01*
X038415Y020520D02*
X038653D01*
X038659Y020526D01*
X034527Y013446D02*
X034859D01*
X034523Y013442D02*
X034527Y013446D01*
X038529Y019826D02*
X038539Y019816D01*
X038293Y019826D02*
X038529D01*
X036709Y022331D02*
X036709D01*
X079339Y022251D02*
X079870Y021721D01*
X079163Y022075D02*
X079516Y022428D01*
X079731Y022643D02*
X079706Y022567D01*
Y022466D01*
X079731Y022390D01*
X079781Y022289D01*
X079908Y022163D01*
X080009Y022112D01*
X080084Y022087D01*
X080185Y022087D01*
X080261Y022112D01*
X080362Y022213D01*
X080387Y022289D01*
Y022390D01*
X080362Y022466D01*
X080311Y022567D01*
X080185Y022693D01*
X080084Y022744D01*
X080009Y022769D01*
X079908Y022769D01*
X079832Y022744D01*
X079731Y022643D01*
X080385Y022741D02*
X080612Y022968D01*
X080662Y023069D01*
X080662Y023120D01*
X080637Y023196D01*
X080561Y023271D01*
X080486Y023297D01*
X080435Y023297D01*
X080334Y023246D01*
X080107Y023019D01*
X080637Y022489D01*
D70*
X033169Y018101D02*
X034023D01*
X034069Y018056D01*
X023335Y022618D02*
Y022623D01*
X023120Y022839D02*
X023335Y022623D01*
X023114Y022839D02*
X023120D01*
X023004Y022949D02*
X023114Y022839D01*
X023004Y022949D02*
Y022992D01*
X023012Y023000D01*
Y023386D01*
X023553Y017303D02*
Y017474D01*
X023898Y012165D02*
X024213Y012480D01*
X024803Y012953D02*
Y013110D01*
D71*
X014327Y010520D02*
Y010870D01*
X016063Y019527D02*
X016378D01*
X012913Y015709D02*
X013297Y015325D01*
X013514D01*
X013669Y015169D01*
Y015059D02*
Y015169D01*
X014321Y010876D02*
X014327Y010870D01*
X016998Y012254D02*
X016998Y012254D01*
X020000Y022490D02*
X020086Y022576D01*
X020000Y022205D02*
Y022490D01*
X024947Y016575D02*
X024966Y016594D01*
X015571Y024478D02*
Y024646D01*
X010906Y023492D02*
X010907Y023494D01*
X010561D02*
X010591D01*
X010907D01*
D72*
X011575Y018169D02*
X011654Y018248D01*
X015571Y025157D02*
Y025276D01*
X011654Y018248D02*
Y018494D01*
X015286Y025335D02*
X015345Y025276D01*
X015571D01*
D73*
X012697Y016988D02*
X012854Y017146D01*
X037069Y021056D02*
Y021664D01*
X014035Y016819D02*
X014045D01*
X013258Y018159D02*
X013474D01*
X013258D02*
Y018317D01*
X012835Y018309D02*
Y018494D01*
Y018533D01*
X013474Y018159D02*
X013537Y018222D01*
X013729D01*
X013729Y018222D01*
X014130D01*
X015044Y026307D02*
X015319D01*
X015005Y025571D02*
Y025937D01*
X012943Y017894D02*
X012953Y017884D01*
X012835Y018309D02*
X012953Y018191D01*
Y017884D02*
Y018191D01*
X012984Y018159D01*
X013258D01*
X013959Y016819D02*
X014035D01*
X012697Y016732D02*
Y016988D01*
X012854Y017146D02*
X013632D01*
X013959Y016819D01*
X012953Y017884D02*
X013023Y017813D01*
Y017676D02*
Y017813D01*
D74*
X013465Y012893D02*
X013986Y013414D01*
X013465Y012402D02*
Y012893D01*
X013986Y013414D02*
Y013824D01*
X014975Y014813D01*
X038745Y016056D02*
X038810Y016120D01*
X039180Y016514D02*
X039249Y016445D01*
X038741D02*
X038810Y016514D01*
X038741Y015658D02*
X038810Y015727D01*
X031648Y020333D02*
Y023291D01*
X039169Y016120D02*
X039238Y016052D01*
X031653Y019747D02*
X031949Y020043D01*
Y023384D01*
X031161Y024172D02*
X031949Y023384D01*
X031161Y024172D02*
Y025156D01*
X030669Y024270D02*
X031648Y023291D01*
X030669Y024270D02*
Y025156D01*
X029099Y019541D02*
X029292D01*
X028504Y020136D02*
X029099Y019541D01*
X028504Y020136D02*
Y023286D01*
X029685Y024467D01*
Y025156D01*
X028799Y020240D02*
X029292Y019747D01*
X028799Y020240D02*
Y022892D01*
X030177Y024270D01*
Y025156D01*
X039685Y016002D02*
Y016150D01*
X039390Y016445D02*
X039685Y016150D01*
X039249Y016445D02*
X039390D01*
X039508Y015727D02*
Y015894D01*
X039350Y016052D02*
X039508Y015894D01*
X039238Y016052D02*
X039350D01*
X038179Y016445D02*
X038741D01*
X037825Y016800D02*
X038179Y016445D01*
X038661Y015658D02*
X038741D01*
X038514Y015806D02*
X038661Y015658D01*
X037569Y016056D02*
X038745D01*
X036569Y017056D02*
X036825Y016800D01*
X037825D01*
X037069Y016056D02*
X037171D01*
X037421Y015806D01*
X038514D01*
X021716Y020472D02*
X021719Y020476D01*
X011033Y015443D02*
X011280D01*
X021640Y020472D02*
X021716D01*
X011850Y013780D02*
Y014055D01*
X012057Y013455D02*
X012510D01*
X011417Y012815D02*
X012057Y013455D01*
X011417Y012697D02*
Y012815D01*
X012510Y013455D02*
X012598Y013543D01*
X011280Y015443D02*
X011516Y015207D01*
X012598Y014843D02*
Y014951D01*
X011447Y014360D02*
X011850Y014764D01*
Y014843D01*
X012598Y013543D02*
Y013780D01*
X021640Y020472D02*
X021640Y020472D01*
X021509Y020472D02*
X021640D01*
X021509Y020472D02*
X021509Y020472D01*
X021417Y020472D02*
X021509D01*
X021260Y020315D02*
X021417Y020472D01*
X017480Y016220D02*
X017637Y016063D01*
Y015663D02*
Y016063D01*
X018538Y017003D02*
X018583Y017047D01*
X018318Y017003D02*
X018538D01*
X017010Y015512D02*
Y017005D01*
X016850Y017165D02*
X017010Y017005D01*
X018272Y016957D02*
X018318Y017003D01*
X017637Y015472D02*
Y015663D01*
X018425Y017795D02*
X018583Y017637D01*
X018248Y015435D02*
X018272Y015459D01*
Y016957D01*
X022037Y011122D02*
Y011230D01*
Y011122D02*
X022063Y011096D01*
X011654Y014124D02*
X011782D01*
X011850Y014055D01*
X012343Y015207D02*
X012598Y014951D01*
X011516Y015207D02*
X012343D01*
X014975Y014813D02*
X015600D01*
X013465Y012402D02*
X013612Y012254D01*
X018583Y017047D02*
Y017637D01*
D75*
X035343Y024386D02*
X035436Y024479D01*
X036414Y012086D02*
X036459Y012041D01*
X036467Y012056D02*
X036476Y012065D01*
X037077D01*
X035446Y024469D02*
X036161D01*
X035436Y024479D02*
X035446Y024469D01*
X035640Y012086D02*
X036414D01*
X035343Y023875D02*
Y024386D01*
X037077Y012065D02*
Y012666D01*
X037087Y012676D01*
D76*
X038806Y019743D02*
X038869Y019806D01*
X037321Y021524D02*
X037529Y021731D01*
X038740Y016829D02*
X038799Y016888D01*
X035705Y010521D02*
X036459D01*
X036299Y021736D02*
X036316Y021718D01*
Y020803D02*
Y021718D01*
X036679Y021728D02*
X036816Y021591D01*
X037069Y020056D02*
X037316Y020303D01*
X037844D02*
X038061Y020520D01*
X037316Y020303D02*
X037844D01*
X037569Y019556D02*
X038543D01*
X038730Y019743D01*
X038806D01*
X038819Y017607D02*
Y018030D01*
X037931Y018808D02*
X037961Y018838D01*
X037383Y018808D02*
X037931D01*
X037845Y018308D02*
X037975Y018438D01*
X037466Y018308D02*
X037845D01*
X037975Y017459D02*
Y017624D01*
X038175Y016829D02*
X038740D01*
X037701Y017303D02*
X038175Y016829D01*
X037791Y017808D02*
X037975Y017624D01*
X036816Y017808D02*
X037791D01*
X036569Y018056D02*
X036816Y017808D01*
X035816Y015253D02*
Y016803D01*
X036069Y017056D01*
X037169Y015806D02*
X037419Y015556D01*
X037569D01*
X036319Y015806D02*
X037169D01*
X036069Y016056D02*
X036319Y015806D01*
X036374Y012586D02*
X036459Y012671D01*
X035640Y012586D02*
X036374D01*
X035640Y010586D02*
X035705Y010521D01*
X035689Y015126D02*
X035816Y015253D01*
X036319Y015153D02*
Y015806D01*
Y015153D02*
X036329Y015143D01*
X037792D02*
X037819Y015116D01*
X037529Y015143D02*
X037792D01*
X037069Y015556D02*
X037089Y015536D01*
Y015130D02*
Y015536D01*
X035689Y014846D02*
Y014846D01*
Y015126D01*
X035489Y013092D02*
Y013446D01*
Y013092D02*
X035640Y012941D01*
Y012586D02*
Y012941D01*
X036569Y020056D02*
X036816Y020303D01*
Y021591D01*
X037069Y020556D02*
X037321Y020808D01*
Y021524D01*
X036569Y019556D02*
X036816Y019803D01*
X037916D02*
X037939Y019826D01*
X036816Y019803D02*
X037916D01*
X037069Y019556D02*
X037316Y019308D01*
X037671D01*
X037789Y019426D01*
X038842D01*
X038869D01*
X037069Y019056D02*
X037135D01*
X037383Y018808D01*
X037316Y018458D02*
X037466Y018308D01*
X037316Y018458D02*
Y018658D01*
X037171Y018803D02*
X037316Y018658D01*
X036569Y019056D02*
X036821Y018803D01*
X037171D01*
X036569Y017556D02*
X036821Y017303D01*
X037701D01*
X035321Y020803D02*
X035569Y020556D01*
X035259Y021711D02*
X035321Y021649D01*
Y020803D02*
Y021649D01*
X035821Y020303D02*
X036069Y020056D01*
X035821Y020303D02*
Y021676D01*
X035779Y021718D02*
X035821Y021676D01*
X036029Y022436D02*
X036069Y022396D01*
Y021056D02*
Y022396D01*
Y020556D02*
X036316Y020803D01*
X035499Y021126D02*
X035569Y021056D01*
X035499Y021126D02*
Y022438D01*
D77*
X038692Y020056D02*
X038872Y020236D01*
X038842Y020906D02*
X038859D01*
X037967D02*
X038842D01*
X037569Y020556D02*
X037617D01*
X037967Y020906D01*
X037569Y020056D02*
X038692D01*
X037569Y019056D02*
X037617D01*
X037775Y019214D01*
X038524D01*
X038842Y018896D01*
X079630Y020479D02*
X079726Y020526D01*
X079868Y020669D01*
Y019669D01*
D78*
X030167Y010806D02*
Y011426D01*
X029783Y011809D02*
X030167Y011426D01*
X036479Y011130D02*
X037067D01*
X030659Y010806D02*
Y011307D01*
X031161Y011809D01*
X033946Y023875D02*
X034753D01*
X033936Y023865D02*
X033946Y023875D01*
X012992Y010728D02*
Y011594D01*
X012756Y010492D02*
X012992Y010728D01*
X011968Y010787D02*
Y011594D01*
Y010787D02*
X012264Y010492D01*
D79*
X035640Y011086D02*
X036394D01*
X035333Y025469D02*
X036161D01*
X035324Y025460D02*
X035333Y025469D01*
X036394Y011086D02*
X036459Y011151D01*
D80*
X022726Y020709D02*
X022965D01*
X024094Y018169D02*
X024345D01*
X024033Y018230D02*
X024094Y018169D01*
X022923Y018780D02*
X022965D01*
X022549Y019154D02*
X022923Y018780D01*
X022510Y018063D02*
X022965Y017608D01*
X022510Y018063D02*
Y018159D01*
X022735Y022223D02*
X022965D01*
X024033Y019104D02*
X024103D01*
X019370Y018110D02*
X019527Y018267D01*
X019370Y018425D02*
X019527Y018582D01*
X024033Y019957D02*
X024214Y020138D01*
X022383Y020123D02*
X022395Y020135D01*
X021766Y020123D02*
X022383D01*
X022395Y020135D02*
X022590D01*
X022925Y019541D02*
X022965D01*
X023335Y022992D02*
X023646D01*
X022590Y020135D02*
X022593D01*
X022800Y019928D02*
X022965D01*
X022634Y020463D02*
X022782Y020315D01*
X022283Y020463D02*
X022634D01*
X021899Y020817D02*
X022244D01*
X021719Y020476D02*
X021726Y020482D01*
X022051Y020636D02*
X022654D01*
X022047Y020640D02*
X022051Y020636D01*
X021584Y020640D02*
X022047D01*
X021574Y020630D02*
X021584Y020640D01*
X021726Y020482D02*
X022136D01*
X022156Y020463D01*
X022283D01*
X022264Y020817D02*
X022561D01*
X022654Y020636D02*
X022726Y020709D01*
X022561Y020817D02*
X022813Y021069D01*
X022593Y019547D02*
X022717Y019423D01*
X021574Y019055D02*
X022184D01*
X022124Y019207D02*
X022229Y019312D01*
X022184Y019055D02*
X022283Y019154D01*
X021737Y019207D02*
X022124D01*
X022283Y019154D02*
X022549D01*
X022229Y019312D02*
Y019414D01*
X022146Y017953D02*
X022156Y017943D01*
X022333Y017402D02*
Y018026D01*
X022244Y017313D02*
X022333Y017402D01*
X022247Y018112D02*
X022333Y018026D01*
X021576Y018112D02*
X022247D01*
X022407Y018262D02*
X022510Y018159D01*
X021673Y018262D02*
X022407D01*
X021648Y017953D02*
X022146D01*
X021648Y017953D02*
X021648Y017953D01*
X021574Y018110D02*
X021576Y018112D01*
X022712Y018086D02*
Y018385D01*
X022706Y018081D02*
X022712Y018086D01*
X022545Y018552D02*
X022712Y018385D01*
X020315Y020000D02*
X020472Y020157D01*
X021574Y020315D02*
X021766Y020123D01*
X022590Y020135D02*
X022593Y020138D01*
X021574Y019370D02*
X021946Y019741D01*
X022517D01*
X022229Y019414D02*
X022363Y019547D01*
X022280Y018894D02*
X022372Y018986D01*
X021732Y018894D02*
X022280D01*
X022549Y019154D02*
X022579D01*
X022589Y019163D01*
X022392Y018986D02*
X022747Y018631D01*
X022372Y018986D02*
X022392D01*
X022756Y021850D02*
X022965D01*
X022579Y021319D02*
X022726Y021467D01*
X022955D01*
X022402Y022470D02*
X022549Y022618D01*
X022965D01*
X024951Y022175D02*
X025079Y022047D01*
X024033Y022175D02*
X024951D01*
X024322Y021556D02*
Y021682D01*
X024216Y021788D02*
X024322Y021682D01*
X024033Y021788D02*
X024216D01*
X024263Y021401D02*
X024345Y021319D01*
X024033Y021401D02*
X024263D01*
X024256Y021014D02*
X024345Y020925D01*
X024033Y021014D02*
X024256D01*
X024291Y018898D02*
Y018916D01*
X024103Y019104D02*
X024291Y018916D01*
X022402Y022441D02*
Y022470D01*
X022352Y017205D02*
X022965D01*
X022706Y018081D02*
Y018081D01*
Y018081D02*
X022795Y017992D01*
X022965D01*
X022842Y018536D02*
X022965Y018413D01*
X022808Y018536D02*
X022842D01*
X022747Y018597D02*
X022808Y018536D01*
X022747Y018597D02*
Y018631D01*
X022682Y019783D02*
X022925Y019541D01*
X022593Y020135D02*
X022800Y019928D01*
X019685Y018110D02*
X019842Y017953D01*
X021676Y018638D02*
X022459D01*
X022545Y018552D01*
X022965Y018793D02*
X022971Y018786D01*
X022965Y018793D02*
Y018807D01*
X020315Y018110D02*
X020472Y017953D01*
X019685Y018740D02*
X019842Y018582D01*
X022441Y022047D02*
X022559D01*
X022735Y022223D01*
X020000Y018110D02*
X020157Y017953D01*
X020945Y018110D02*
X021102Y017953D01*
X019370Y019055D02*
X019527Y019212D01*
X020315Y018425D02*
X020472Y018268D01*
X020630Y018425D02*
X020787Y018268D01*
X020945Y018425D02*
X021102Y018268D01*
X020000Y018740D02*
X020157Y018582D01*
X020315Y018740D02*
X020472Y018582D01*
X020630Y018740D02*
X020787Y018582D01*
X021574Y018740D02*
X021676Y018638D01*
X022598Y021693D02*
X022756Y021850D01*
X022598Y021575D02*
Y021693D01*
X022813Y021069D02*
X022965D01*
X022363Y019547D02*
X022593D01*
X022559Y019783D02*
X022682D01*
X022517Y019741D02*
X022559Y019783D01*
X024214Y020138D02*
X024345D01*
X020000Y019370D02*
X020157Y019527D01*
X020315Y019370D02*
X020472Y019527D01*
X019685Y020000D02*
X019842Y020157D01*
X022244Y017313D02*
X022352Y017205D01*
X022717Y019402D02*
Y019423D01*
Y019402D02*
X022965Y019154D01*
X024033Y019531D02*
Y019581D01*
X024197Y019744D01*
X024345D01*
X024033Y020364D02*
X024193D01*
X024281Y020453D01*
D81*
X020000Y020000D02*
X020000Y020000D01*
D82*
X030167Y010806D02*
D03*
X030659D02*
D03*
X019016Y026033D02*
D03*
X019508D02*
D03*
X020000D02*
D03*
X020492D02*
D03*
X020984D02*
D03*
X012264Y010492D02*
D03*
X012756D02*
D03*
D83*
X041890Y013620D02*
D03*
X041890Y022912D02*
D03*
X030866Y013620D02*
D03*
X030866Y022912D02*
D03*
X013307Y013583D02*
D03*
Y022953D02*
D03*
X024331Y013583D02*
D03*
Y022953D02*
D03*
D84*
X034069Y020056D02*
D03*
Y020556D02*
D03*
Y019556D02*
D03*
X037569Y021056D02*
D03*
Y015556D02*
D03*
X037069Y021056D02*
D03*
Y020556D02*
D03*
Y020056D02*
D03*
Y019556D02*
D03*
Y019056D02*
D03*
Y018556D02*
D03*
Y018056D02*
D03*
Y017556D02*
D03*
Y017056D02*
D03*
Y016556D02*
D03*
Y016056D02*
D03*
Y015556D02*
D03*
X036569Y021056D02*
D03*
Y020556D02*
D03*
Y020056D02*
D03*
Y019556D02*
D03*
Y019056D02*
D03*
Y018556D02*
D03*
Y018056D02*
D03*
Y017556D02*
D03*
Y017056D02*
D03*
Y016556D02*
D03*
Y016056D02*
D03*
Y015556D02*
D03*
X036069Y021056D02*
D03*
Y020556D02*
D03*
Y020056D02*
D03*
Y019556D02*
D03*
Y019056D02*
D03*
Y018556D02*
D03*
Y018056D02*
D03*
Y017556D02*
D03*
Y017056D02*
D03*
Y016556D02*
D03*
Y016056D02*
D03*
Y015556D02*
D03*
X035569Y021056D02*
D03*
Y020556D02*
D03*
Y020056D02*
D03*
Y019556D02*
D03*
X035069Y021056D02*
D03*
Y020056D02*
D03*
Y019556D02*
D03*
Y019056D02*
D03*
Y018556D02*
D03*
Y018056D02*
D03*
Y015556D02*
D03*
X034569Y020056D02*
D03*
Y019556D02*
D03*
Y018556D02*
D03*
Y017556D02*
D03*
Y017056D02*
D03*
Y016556D02*
D03*
Y016056D02*
D03*
Y015556D02*
D03*
X034069Y021056D02*
D03*
Y019056D02*
D03*
Y018556D02*
D03*
Y018056D02*
D03*
Y016556D02*
D03*
Y016056D02*
D03*
X037569D02*
D03*
Y016556D02*
D03*
Y017056D02*
D03*
Y017556D02*
D03*
Y018056D02*
D03*
Y018556D02*
D03*
Y019056D02*
D03*
Y019556D02*
D03*
Y020056D02*
D03*
Y020556D02*
D03*
X035569Y016056D02*
D03*
Y015556D02*
D03*
Y016556D02*
D03*
X035069D02*
D03*
Y016056D02*
D03*
X034569Y019056D02*
D03*
Y018056D02*
D03*
X034069Y017556D02*
D03*
Y017056D02*
D03*
X035069Y017556D02*
D03*
Y017056D02*
D03*
X035569Y018056D02*
D03*
Y017556D02*
D03*
X035069Y020556D02*
D03*
X034569Y021056D02*
D03*
Y020556D02*
D03*
X035569Y019056D02*
D03*
Y018556D02*
D03*
Y017056D02*
D03*
D85*
X028504Y010786D02*
D03*
X043465D02*
D03*
Y025746D02*
D03*
X028504D02*
D03*
X010787Y025748D02*
D03*
X025748D02*
D03*
Y010787D02*
D03*
X010787D02*
D03*
D86*
X013268Y024970D02*
D03*
X024656Y010453D02*
D03*
D87*
X014268Y023970D02*
D03*
Y025970D02*
D03*
X012268D02*
D03*
Y023970D02*
D03*
D88*
X025866Y017622D02*
D03*
Y022638D02*
D03*
D89*
X023415Y025118D02*
D03*
D90*
X022415Y024118D02*
D03*
X024415D02*
D03*
D91*
X022415Y026118D02*
D03*
X024415D02*
D03*
D92*
X024656Y011240D02*
D03*
D93*
X025354Y013638D02*
D03*
X026142Y014032D02*
D03*
X025354Y014426D02*
D03*
X026142Y014819D02*
D03*
X025354Y015213D02*
D03*
X026142Y013244D02*
D03*
D94*
X021102Y019842D02*
D03*
X021467Y026309D02*
D03*
X034764Y015157D02*
D03*
X013632Y013957D02*
D03*
X016742Y025039D02*
D03*
Y025384D02*
D03*
X035779Y022785D02*
D03*
X042677Y017375D02*
D03*
Y017582D02*
D03*
X030374Y018566D02*
D03*
Y017179D02*
D03*
Y017385D02*
D03*
X029292Y015407D02*
D03*
Y015614D02*
D03*
X029291Y017770D02*
D03*
Y017977D02*
D03*
Y014816D02*
D03*
Y015023D02*
D03*
X031653Y015407D02*
D03*
Y015614D02*
D03*
X030374Y015997D02*
D03*
Y016204D02*
D03*
X043583Y019939D02*
D03*
X038573Y022469D02*
D03*
X040236Y022479D02*
D03*
X039173Y015353D02*
D03*
X038593Y018483D02*
D03*
X038819Y018030D02*
D03*
X038514Y017203D02*
D03*
X039467Y016830D02*
D03*
X039487Y017607D02*
D03*
X039404Y017213D02*
D03*
X030374Y018360D02*
D03*
X036025Y014491D02*
D03*
X041506Y015756D02*
D03*
X041279Y016002D02*
D03*
X040207Y014841D02*
D03*
X040305Y015392D02*
D03*
X039685Y016002D02*
D03*
X039508Y015727D02*
D03*
X029410Y015805D02*
D03*
Y016987D02*
D03*
X029409Y018170D02*
D03*
X036299Y022331D02*
D03*
X036270Y022794D02*
D03*
X036829Y024977D02*
D03*
X034384Y024485D02*
D03*
X039507Y020236D02*
D03*
Y020906D02*
D03*
X039490Y019806D02*
D03*
Y019426D02*
D03*
Y018896D02*
D03*
X037520Y010510D02*
D03*
X037795Y011573D02*
D03*
Y011367D02*
D03*
Y011160D02*
D03*
Y010953D02*
D03*
X037559D02*
D03*
Y011160D02*
D03*
Y011367D02*
D03*
Y011573D02*
D03*
X036185Y011596D02*
D03*
X035249Y022786D02*
D03*
X037819Y015116D02*
D03*
X038659Y020526D02*
D03*
X030689Y018166D02*
D03*
Y018757D02*
D03*
Y017576D02*
D03*
Y019150D02*
D03*
Y019349D02*
D03*
Y016985D02*
D03*
Y019939D02*
D03*
Y016395D02*
D03*
Y020530D02*
D03*
Y015809D02*
D03*
X029203Y020959D02*
D03*
X030483Y021013D02*
D03*
X030689Y020924D02*
D03*
X030483Y021353D02*
D03*
X030689Y015214D02*
D03*
X029409Y021319D02*
D03*
X030689Y021514D02*
D03*
Y015017D02*
D03*
X029409Y021516D02*
D03*
X030483Y022033D02*
D03*
X030689Y021908D02*
D03*
X031654Y014421D02*
D03*
Y014628D02*
D03*
X031653Y019747D02*
D03*
Y019541D02*
D03*
Y020338D02*
D03*
Y020131D02*
D03*
X029292Y020338D02*
D03*
Y019747D02*
D03*
Y019541D02*
D03*
X029291Y019158D02*
D03*
Y018952D02*
D03*
X029292Y016795D02*
D03*
Y016588D02*
D03*
X041713Y018363D02*
D03*
X040433Y018366D02*
D03*
Y017775D02*
D03*
X041713Y018757D02*
D03*
Y017773D02*
D03*
X040433Y018760D02*
D03*
Y017183D02*
D03*
X041713Y019349D02*
D03*
X041718Y017181D02*
D03*
X040428Y019351D02*
D03*
X040433Y016593D02*
D03*
X041713Y019939D02*
D03*
Y016591D02*
D03*
X040433Y019941D02*
D03*
X041713Y020530D02*
D03*
Y016001D02*
D03*
X040433Y020532D02*
D03*
X041713Y020727D02*
D03*
X040433Y015609D02*
D03*
X041713Y021120D02*
D03*
Y015410D02*
D03*
X040433Y021122D02*
D03*
X041507Y014893D02*
D03*
X040433Y015018D02*
D03*
X041713Y015017D02*
D03*
Y021711D02*
D03*
X040433Y021712D02*
D03*
Y014624D02*
D03*
X041713Y014623D02*
D03*
X042569Y014821D02*
D03*
X042677Y016401D02*
D03*
Y016194D02*
D03*
Y016991D02*
D03*
Y016785D02*
D03*
X040315Y016992D02*
D03*
Y016785D02*
D03*
X040315Y016401D02*
D03*
Y016194D02*
D03*
X037087Y014437D02*
D03*
X036329Y014452D02*
D03*
X034523Y013442D02*
D03*
X039498Y012321D02*
D03*
X040089Y011859D02*
D03*
X041486D02*
D03*
X040837D02*
D03*
X032520Y012115D02*
D03*
Y011849D02*
D03*
Y011583D02*
D03*
Y011317D02*
D03*
Y011052D02*
D03*
X034225Y025458D02*
D03*
X034376Y026070D02*
D03*
X035146Y025066D02*
D03*
X035338D02*
D03*
X035530D02*
D03*
X035137Y024879D02*
D03*
X035338D02*
D03*
X035540D02*
D03*
X037815Y022065D02*
D03*
X038020Y022654D02*
D03*
X033650Y023373D02*
D03*
X033867D02*
D03*
X034083D02*
D03*
X034300D02*
D03*
X034516D02*
D03*
X034970Y022065D02*
D03*
X035560Y023363D02*
D03*
X033345Y025056D02*
D03*
X038701Y025914D02*
D03*
X038509D02*
D03*
X038317D02*
D03*
X038730Y024004D02*
D03*
X038538D02*
D03*
X038346D02*
D03*
X041457Y023896D02*
D03*
X041693D02*
D03*
X041929D02*
D03*
X042165D02*
D03*
X040000Y022479D02*
D03*
X039764D02*
D03*
X039528D02*
D03*
X037414Y013699D02*
D03*
X037617Y013699D02*
D03*
X037211Y013699D02*
D03*
X036805Y013699D02*
D03*
X037008Y013699D02*
D03*
X038937Y012518D02*
D03*
X038110Y012065D02*
D03*
X038539Y019816D02*
D03*
X036709Y022331D02*
D03*
X036862Y024384D02*
D03*
X029292Y020131D02*
D03*
X030256Y020533D02*
D03*
Y019942D02*
D03*
X030251Y019351D02*
D03*
X030256Y018761D02*
D03*
X030256Y014624D02*
D03*
Y015215D02*
D03*
Y016396D02*
D03*
Y017574D02*
D03*
X038346Y015235D02*
D03*
X031653Y018954D02*
D03*
X018897Y016063D02*
D03*
X017322Y016063D02*
D03*
X011181Y020157D02*
D03*
X022343Y018425D02*
D03*
X022047Y020640D02*
D03*
X022081Y020315D02*
D03*
X021874D02*
D03*
X010728Y017096D02*
D03*
X010472D02*
D03*
X011181Y017116D02*
D03*
X022283Y020463D02*
D03*
X022244Y020817D02*
D03*
X022156Y017943D02*
D03*
X022510Y018159D02*
D03*
X024291Y018445D02*
D03*
X022372Y023238D02*
D03*
X022067Y023258D02*
D03*
X022234Y023396D02*
D03*
X020753Y023578D02*
D03*
X019764Y024311D02*
D03*
X010344Y020768D02*
D03*
X010335Y021093D02*
D03*
X011033Y015443D02*
D03*
X011447Y012185D02*
D03*
X012648Y012795D02*
D03*
X014882Y010354D02*
D03*
X023248Y012431D02*
D03*
X023219Y012165D02*
D03*
X010679Y023219D02*
D03*
X019144Y025551D02*
D03*
X018868Y024331D02*
D03*
X024783Y023091D02*
D03*
X025079Y022047D02*
D03*
X023927Y022559D02*
D03*
X021782Y022156D02*
D03*
X020472Y020157D02*
D03*
X022480Y019360D02*
D03*
X022593Y020138D02*
D03*
X020787Y019843D02*
D03*
X018897Y019212D02*
D03*
X019527Y019527D02*
D03*
X019212Y019527D02*
D03*
X021850Y017402D02*
D03*
X010364Y020394D02*
D03*
Y020157D02*
D03*
X010738Y023750D02*
D03*
X019350Y025138D02*
D03*
X014104Y023307D02*
D03*
X018957Y024961D02*
D03*
X014400Y016417D02*
D03*
X014764Y016220D02*
D03*
X010393Y019941D02*
D03*
Y019685D02*
D03*
X014629Y019878D02*
D03*
X013258Y018317D02*
D03*
X016693Y017323D02*
D03*
X012913Y015709D02*
D03*
X011713Y013366D02*
D03*
X012402Y014134D02*
D03*
X011624Y010994D02*
D03*
X011417Y013848D02*
D03*
X013376Y010906D02*
D03*
X013218Y012785D02*
D03*
X016220Y010787D02*
D03*
X012844Y013051D02*
D03*
X011476Y012431D02*
D03*
X011634Y011289D02*
D03*
X011427Y011437D02*
D03*
X014321Y010876D02*
D03*
X014055Y011339D02*
D03*
X011496Y010295D02*
D03*
X011949Y013110D02*
D03*
X012264Y017224D02*
D03*
X013032Y015000D02*
D03*
X012480Y015758D02*
D03*
X012697Y016732D02*
D03*
X011417Y012697D02*
D03*
X011447Y014360D02*
D03*
X021693Y024163D02*
D03*
X021216Y023387D02*
D03*
X021220Y023573D02*
D03*
X021004D02*
D03*
Y023386D02*
D03*
X020017Y023937D02*
D03*
X020020Y024135D02*
D03*
X020248D02*
D03*
X020246Y023937D02*
D03*
X026161Y024144D02*
D03*
X010886Y018327D02*
D03*
X014423Y018976D02*
D03*
X014630D02*
D03*
X022549Y019154D02*
D03*
X010630Y018642D02*
D03*
X015286Y025335D02*
D03*
X024321Y016378D02*
D03*
X024311Y016821D02*
D03*
X024262Y016201D02*
D03*
X021693Y025305D02*
D03*
X017434Y013258D02*
D03*
X017539Y013100D02*
D03*
X016654Y012815D02*
D03*
X017247Y013268D02*
D03*
X017067D02*
D03*
X016886D02*
D03*
X016706D02*
D03*
X016555Y015236D02*
D03*
X016693Y020157D02*
D03*
X018602Y014656D02*
D03*
X018681Y014862D02*
D03*
X017844Y014892D02*
D03*
X017589Y014882D02*
D03*
X018494Y014862D02*
D03*
X015728Y014616D02*
D03*
X018120Y014862D02*
D03*
X018307D02*
D03*
X018602Y014449D02*
D03*
X012904Y021772D02*
D03*
Y022020D02*
D03*
Y022268D02*
D03*
Y022516D02*
D03*
X012695Y023278D02*
D03*
X012472D02*
D03*
X012250D02*
D03*
X012028D02*
D03*
X011805D02*
D03*
X011583D02*
D03*
X011398Y022982D02*
D03*
Y022704D02*
D03*
Y022426D02*
D03*
Y022148D02*
D03*
Y021870D02*
D03*
X013287Y022372D02*
D03*
X022438Y011773D02*
D03*
X022432Y012028D02*
D03*
X015748Y014134D02*
D03*
Y014341D02*
D03*
X016467Y012293D02*
D03*
X015974D02*
D03*
X015468Y013297D02*
D03*
X014961Y012992D02*
D03*
X014744D02*
D03*
X022274Y015669D02*
D03*
X020086Y022576D02*
D03*
X019674Y024838D02*
D03*
Y024631D02*
D03*
X018268Y025394D02*
D03*
X018474D02*
D03*
X020472Y016693D02*
D03*
Y017008D02*
D03*
X019842Y015748D02*
D03*
X020787Y015748D02*
D03*
X021102D02*
D03*
X014745Y018361D02*
D03*
Y018568D02*
D03*
X017077Y023986D02*
D03*
X016161Y024134D02*
D03*
X015866Y024129D02*
D03*
X022372Y018986D02*
D03*
X014075Y019745D02*
D03*
X021142Y022579D02*
D03*
X021797Y020945D02*
D03*
X022402Y022441D02*
D03*
X022579Y021319D02*
D03*
X024291Y018898D02*
D03*
X024345Y020925D02*
D03*
X024322Y021556D02*
D03*
X025630Y021309D02*
D03*
X024345Y019744D02*
D03*
X024291Y019409D02*
D03*
X024345Y019154D02*
D03*
Y020138D02*
D03*
X022244Y017313D02*
D03*
X023425Y016811D02*
D03*
X025522Y016791D02*
D03*
X022530Y017707D02*
D03*
X019842Y017953D02*
D03*
X025020Y017972D02*
D03*
X012638Y017431D02*
D03*
X018582Y018268D02*
D03*
X019842Y017008D02*
D03*
X019527Y017323D02*
D03*
X019842Y017323D02*
D03*
X017951Y015432D02*
D03*
X015118Y016693D02*
D03*
X014012Y018868D02*
D03*
X025906Y012638D02*
D03*
X025354Y012598D02*
D03*
X025157Y012795D02*
D03*
X023307Y012874D02*
D03*
X024803Y013110D02*
D03*
X010723Y024300D02*
D03*
X011026Y024339D02*
D03*
X019842Y017638D02*
D03*
X026240Y018258D02*
D03*
X014055Y021772D02*
D03*
X015984Y015236D02*
D03*
X016220Y015276D02*
D03*
X019212Y018268D02*
D03*
X018622Y025000D02*
D03*
X020157Y022047D02*
D03*
X020157Y022362D02*
D03*
X021102Y020157D02*
D03*
X014262Y020719D02*
D03*
X012776Y019350D02*
D03*
X012520Y019370D02*
D03*
X015118Y020472D02*
D03*
X015433Y019842D02*
D03*
X026328Y019227D02*
D03*
X015118Y019842D02*
D03*
X025551Y018976D02*
D03*
X025748Y012283D02*
D03*
X026161Y016240D02*
D03*
X015276Y014646D02*
D03*
X015512Y014341D02*
D03*
Y014134D02*
D03*
X016063Y019842D02*
D03*
X016063Y019527D02*
D03*
X015747Y019212D02*
D03*
X020183Y011285D02*
D03*
X017717Y010827D02*
D03*
X017126Y010591D02*
D03*
X022441Y019961D02*
D03*
X020787Y016378D02*
D03*
X020787Y016063D02*
D03*
X016693Y023622D02*
D03*
X016732Y024055D02*
D03*
X018130Y026280D02*
D03*
X018150Y025866D02*
D03*
X017283Y026260D02*
D03*
X015669Y026339D02*
D03*
X016339Y026339D02*
D03*
X021102Y019527D02*
D03*
X020787D02*
D03*
X019212Y020157D02*
D03*
X018897Y020157D02*
D03*
X016063Y017323D02*
D03*
X016378Y015748D02*
D03*
X015748D02*
D03*
X019842Y016378D02*
D03*
X020157D02*
D03*
X019212Y016378D02*
D03*
Y016063D02*
D03*
X019527Y015748D02*
D03*
X018897Y016378D02*
D03*
X020157Y016063D02*
D03*
X020472D02*
D03*
Y016378D02*
D03*
X021102Y015433D02*
D03*
X020472Y015433D02*
D03*
X019212Y015433D02*
D03*
X020157Y015433D02*
D03*
X019527Y017637D02*
D03*
X019527Y018267D02*
D03*
Y018582D02*
D03*
X022177Y016918D02*
D03*
X022323Y016772D02*
D03*
X014094Y020315D02*
D03*
Y020551D02*
D03*
X023681Y023386D02*
D03*
X020472Y017953D02*
D03*
X019842Y018897D02*
D03*
X019842Y018582D02*
D03*
X025702Y019778D02*
D03*
X025585Y020121D02*
D03*
X021417Y017638D02*
D03*
X025827Y020765D02*
D03*
Y020971D02*
D03*
X022441Y022047D02*
D03*
X022025Y021028D02*
D03*
X018267Y019212D02*
D03*
X018582Y019212D02*
D03*
Y018582D02*
D03*
X018267Y018582D02*
D03*
X018267Y018897D02*
D03*
Y017323D02*
D03*
X014075Y019981D02*
D03*
X016693Y021417D02*
D03*
X016386Y022045D02*
D03*
X015433Y022047D02*
D03*
X015118Y021732D02*
D03*
X013199Y018533D02*
D03*
X024345Y018169D02*
D03*
X024966Y015610D02*
D03*
Y016594D02*
D03*
X022593Y015610D02*
D03*
Y015020D02*
D03*
X026067Y020171D02*
D03*
X020472Y021102D02*
D03*
Y020787D02*
D03*
X013223Y021142D02*
D03*
X025748Y023471D02*
D03*
X025152Y024589D02*
D03*
X017952Y016378D02*
D03*
X016772Y026299D02*
D03*
X016024Y026195D02*
D03*
X019842Y025118D02*
D03*
X015451Y025965D02*
D03*
X016496Y026195D02*
D03*
X015118Y018582D02*
D03*
X012785Y019941D02*
D03*
X021797Y016850D02*
D03*
X017952Y017638D02*
D03*
X018582Y020472D02*
D03*
X019212Y017323D02*
D03*
Y017638D02*
D03*
X016378Y016693D02*
D03*
X016063Y015748D02*
D03*
X016063Y016693D02*
D03*
X021417Y019842D02*
D03*
X021102Y019212D02*
D03*
X020787D02*
D03*
X020157D02*
D03*
Y017953D02*
D03*
X021102D02*
D03*
X017952Y020787D02*
D03*
X019527Y020472D02*
D03*
X019527Y020157D02*
D03*
X016965Y011301D02*
D03*
X016472Y010801D02*
D03*
X020718Y014059D02*
D03*
Y014273D02*
D03*
X020917Y010770D02*
D03*
X019821D02*
D03*
X018878Y010776D02*
D03*
X019213Y013150D02*
D03*
X018898D02*
D03*
X018583D02*
D03*
X019907Y013280D02*
D03*
X020429Y013283D02*
D03*
X019902Y013543D02*
D03*
X020669Y013282D02*
D03*
X021179D02*
D03*
X020669Y012781D02*
D03*
X020179Y013283D02*
D03*
X019902Y013806D02*
D03*
X020675Y012285D02*
D03*
X021183D02*
D03*
X019683Y011785D02*
D03*
X020683Y010785D02*
D03*
X020675Y013781D02*
D03*
X019683Y012285D02*
D03*
X020183Y011782D02*
D03*
X021183Y011785D02*
D03*
X022181Y012285D02*
D03*
X019433Y012028D02*
D03*
Y012283D02*
D03*
X017715Y012299D02*
D03*
X014350Y013134D02*
D03*
X014139D02*
D03*
X013927D02*
D03*
X014722Y012299D02*
D03*
X017465Y011801D02*
D03*
X018268Y012756D02*
D03*
Y013150D02*
D03*
X017721Y012044D02*
D03*
X014722D02*
D03*
X017470Y012301D02*
D03*
X016472Y011801D02*
D03*
X015472Y011798D02*
D03*
X014972Y012301D02*
D03*
X016467Y013770D02*
D03*
X015972Y010801D02*
D03*
X015474D02*
D03*
X014972Y011801D02*
D03*
X015213Y013825D02*
D03*
X015965Y012797D02*
D03*
X016468Y013297D02*
D03*
X016033D02*
D03*
X015718Y013299D02*
D03*
X015218D02*
D03*
X020787Y017953D02*
D03*
X021102Y017008D02*
D03*
X020157Y016693D02*
D03*
X020472Y015748D02*
D03*
X021417Y019527D02*
D03*
X020472Y019212D02*
D03*
X021102Y020787D02*
D03*
Y021102D02*
D03*
Y021732D02*
D03*
X020787Y022362D02*
D03*
X020157Y021102D02*
D03*
X019842Y021417D02*
D03*
X019527Y021102D02*
D03*
X019527Y022047D02*
D03*
X019842Y021732D02*
D03*
X019212Y021417D02*
D03*
Y021732D02*
D03*
X018897D02*
D03*
Y021417D02*
D03*
X018582Y021732D02*
D03*
X019842Y021102D02*
D03*
X020787Y020787D02*
D03*
X019527D02*
D03*
X018897D02*
D03*
X020787Y022047D02*
D03*
X020157Y020157D02*
D03*
X018582Y019842D02*
D03*
X019212Y019842D02*
D03*
X017952Y020472D02*
D03*
X017952Y020157D02*
D03*
Y019842D02*
D03*
X017952Y019527D02*
D03*
X018582Y019527D02*
D03*
X019212Y019212D02*
D03*
X017637Y020472D02*
D03*
X017637Y020157D02*
D03*
Y019842D02*
D03*
Y019527D02*
D03*
X017322Y019212D02*
D03*
X017322Y019527D02*
D03*
X017322Y019842D02*
D03*
Y020157D02*
D03*
Y020472D02*
D03*
X017008D02*
D03*
Y020157D02*
D03*
Y019842D02*
D03*
Y019527D02*
D03*
Y019212D02*
D03*
X018582Y016693D02*
D03*
X018897Y017323D02*
D03*
X017008Y017953D02*
D03*
X017322D02*
D03*
X017637D02*
D03*
X017008Y017638D02*
D03*
X017322D02*
D03*
X017637D02*
D03*
X017008Y017323D02*
D03*
X016378Y016063D02*
D03*
X016693Y016693D02*
D03*
X016378Y017638D02*
D03*
X015433Y017323D02*
D03*
X015748Y016378D02*
D03*
X015433Y015748D02*
D03*
X015433Y019212D02*
D03*
X015748Y019842D02*
D03*
X015433Y020787D02*
D03*
X016378Y021102D02*
D03*
X017322Y021417D02*
D03*
X015748D02*
D03*
X017008Y020787D02*
D03*
X017952Y021102D02*
D03*
X016063Y020472D02*
D03*
X017637Y017323D02*
D03*
X015118Y019527D02*
D03*
X015118Y017638D02*
D03*
Y020787D02*
D03*
X021102Y021417D02*
D03*
X018897Y020472D02*
D03*
X019212D02*
D03*
X018897Y021102D02*
D03*
X012269Y020531D02*
D03*
Y019941D02*
D03*
X016063Y014094D02*
D03*
Y014341D02*
D03*
Y014606D02*
D03*
X012285Y019350D02*
D03*
X020787Y021102D02*
D03*
X020472Y020472D02*
D03*
X020157Y020787D02*
D03*
X019212Y021102D02*
D03*
X019212Y020787D02*
D03*
X018582Y021417D02*
D03*
X018582Y021102D02*
D03*
Y020787D02*
D03*
X017952Y021419D02*
D03*
X017637Y021417D02*
D03*
X017008Y021417D02*
D03*
X017322Y021102D02*
D03*
X017008Y021102D02*
D03*
X017637Y021102D02*
D03*
X019527Y019842D02*
D03*
X019527Y019212D02*
D03*
X019842Y016693D02*
D03*
X018897Y017638D02*
D03*
X020157Y017008D02*
D03*
Y017323D02*
D03*
X020787Y020157D02*
D03*
X020472Y018268D02*
D03*
X020787D02*
D03*
X021102D02*
D03*
X019842Y018268D02*
D03*
X018897Y018268D02*
D03*
X020157Y018268D02*
D03*
X020157Y018582D02*
D03*
X020472D02*
D03*
X020787D02*
D03*
X016063Y018582D02*
D03*
X017008D02*
D03*
X017322D02*
D03*
X018897D02*
D03*
X019212D02*
D03*
X017637Y019212D02*
D03*
Y018582D02*
D03*
X017952Y018582D02*
D03*
X016693Y018582D02*
D03*
X019527Y018897D02*
D03*
X025557Y021618D02*
D03*
X020787Y018897D02*
D03*
X021417Y016063D02*
D03*
X013986Y022106D02*
D03*
X013278Y021909D02*
D03*
X013986Y021516D02*
D03*
Y021319D02*
D03*
X014183Y020925D02*
D03*
X020718Y014487D02*
D03*
X019331Y022657D02*
D03*
X021417Y020157D02*
D03*
X021732Y022362D02*
D03*
X021417Y021733D02*
D03*
X025557Y018618D02*
D03*
X018583Y022047D02*
D03*
X017795Y026181D02*
D03*
X020158Y021732D02*
D03*
X020158Y021417D02*
D03*
X017637Y021732D02*
D03*
X014422Y019878D02*
D03*
X015319Y026307D02*
D03*
X020157Y020472D02*
D03*
X023646Y022992D02*
D03*
X022480Y021010D02*
D03*
X022598Y021575D02*
D03*
X022545Y018552D02*
D03*
X024345Y021319D02*
D03*
X019842Y019212D02*
D03*
X022165Y015276D02*
D03*
X019842Y019527D02*
D03*
X015276Y014134D02*
D03*
Y014341D02*
D03*
X020718Y014700D02*
D03*
X021004Y014931D02*
D03*
X019144Y022825D02*
D03*
X014724Y015630D02*
D03*
X016063Y018268D02*
D03*
X019842Y016063D02*
D03*
X021932Y017187D02*
D03*
X016909Y023829D02*
D03*
X015571Y024478D02*
D03*
X015098Y024163D02*
D03*
X015925Y023337D02*
D03*
X015374Y024193D02*
D03*
X019527Y015433D02*
D03*
X019842D02*
D03*
X019734Y015039D02*
D03*
X016910Y014754D02*
D03*
X017106Y014557D02*
D03*
X018602Y014222D02*
D03*
X020679Y013032D02*
D03*
X021673Y012864D02*
D03*
X021722Y013376D02*
D03*
X021732Y014104D02*
D03*
X021526Y013376D02*
D03*
X021919D02*
D03*
X024596Y013110D02*
D03*
X022116Y013376D02*
D03*
X024350Y015423D02*
D03*
X024301Y015089D02*
D03*
X018691Y025394D02*
D03*
X018583Y024085D02*
D03*
X018789Y023927D02*
D03*
X019961Y022795D02*
D03*
X026053Y020866D02*
D03*
X026132Y019380D02*
D03*
X018701Y022825D02*
D03*
X025807Y015935D02*
D03*
X021949Y015059D02*
D03*
X017008Y022362D02*
D03*
X011417Y018022D02*
D03*
X011545Y018199D02*
D03*
X024999Y014617D02*
D03*
X013839Y022795D02*
D03*
X022593Y019547D02*
D03*
X022559Y019783D02*
D03*
X023435Y014134D02*
D03*
X022313Y013376D02*
D03*
X021220Y014931D02*
D03*
X011476Y020719D02*
D03*
X012608Y020709D02*
D03*
X018858Y015394D02*
D03*
X022175Y011785D02*
D03*
X020472Y017323D02*
D03*
X024222Y010354D02*
D03*
X024213Y013100D02*
D03*
X025600Y012008D02*
D03*
X025020Y011841D02*
D03*
X024823D02*
D03*
X024626D02*
D03*
X025020Y011644D02*
D03*
X024823D02*
D03*
X024626D02*
D03*
X022063Y010591D02*
D03*
X022333Y011319D02*
D03*
X019468Y010787D02*
D03*
X021703Y011240D02*
D03*
X020384Y010276D02*
D03*
X020138Y010758D02*
D03*
X021112Y011280D02*
D03*
X024262Y010728D02*
D03*
X025325Y011732D02*
D03*
X024006Y013238D02*
D03*
X024144Y014282D02*
D03*
X024695Y014104D02*
D03*
X021102Y016693D02*
D03*
Y017323D02*
D03*
X020157Y019527D02*
D03*
X020472D02*
D03*
X019842Y019842D02*
D03*
X020157Y019842D02*
D03*
X020472Y019842D02*
D03*
X014065Y019528D02*
D03*
X012215Y017579D02*
D03*
X010827Y021329D02*
D03*
X011132Y021516D02*
D03*
X011063Y021811D02*
D03*
X010423Y022766D02*
D03*
X012687Y017884D02*
D03*
X012638Y018140D02*
D03*
X013002Y016939D02*
D03*
X012264Y014488D02*
D03*
X013947Y015020D02*
D03*
X011545Y016329D02*
D03*
X022648Y012736D02*
D03*
X018543Y010748D02*
D03*
X016024Y010394D02*
D03*
X010335Y021299D02*
D03*
X010433Y023041D02*
D03*
X011014Y022992D02*
D03*
X019527Y017008D02*
D03*
X019842Y020157D02*
D03*
X017322Y016378D02*
D03*
X018582Y017953D02*
D03*
X017952Y018268D02*
D03*
X022372Y011063D02*
D03*
X023376Y011407D02*
D03*
X023184D02*
D03*
X023568D02*
D03*
X022953Y012697D02*
D03*
X011654Y014124D02*
D03*
X021713Y010876D02*
D03*
X013218Y017579D02*
D03*
X010669Y018287D02*
D03*
X014626Y016398D02*
D03*
X013023Y017676D02*
D03*
X023245Y014134D02*
D03*
X021673Y013140D02*
D03*
X016978Y023484D02*
D03*
X023435Y013907D02*
D03*
Y013691D02*
D03*
Y013474D02*
D03*
X021919Y013583D02*
D03*
Y013789D02*
D03*
X022116D02*
D03*
Y013583D02*
D03*
X023054Y014134D02*
D03*
X022864D02*
D03*
X022018Y013957D02*
D03*
X025787Y016348D02*
D03*
Y016142D02*
D03*
X022232Y021028D02*
D03*
X021102Y016378D02*
D03*
Y016063D02*
D03*
X020787Y021732D02*
D03*
Y021417D02*
D03*
X014042Y017271D02*
D03*
Y017064D02*
D03*
X018474Y024685D02*
D03*
X018415Y024911D02*
D03*
X018147Y024083D02*
D03*
X018354D02*
D03*
X017313Y022579D02*
D03*
Y022372D02*
D03*
X014732Y016796D02*
D03*
Y016590D02*
D03*
X019527Y016693D02*
D03*
Y016378D02*
D03*
X014232Y015615D02*
D03*
Y015408D02*
D03*
X013286Y016130D02*
D03*
X013140Y015984D02*
D03*
X011545Y016796D02*
D03*
Y016590D02*
D03*
X021417Y016693D02*
D03*
Y016378D02*
D03*
X021102Y017638D02*
D03*
X020787D02*
D03*
X011535Y015615D02*
D03*
Y015408D02*
D03*
X013996Y016206D02*
D03*
Y015999D02*
D03*
X012638Y017638D02*
D03*
X013974Y017977D02*
D03*
Y017771D02*
D03*
X011005Y017953D02*
D03*
X011212D02*
D03*
X025157Y016403D02*
D03*
Y016196D02*
D03*
X021732Y015276D02*
D03*
Y015069D02*
D03*
X021417Y015748D02*
D03*
X021732Y015748D02*
D03*
X010433Y019464D02*
D03*
Y019257D02*
D03*
X025000Y017584D02*
D03*
Y017377D02*
D03*
X010650Y017766D02*
D03*
Y017559D02*
D03*
X012510Y014488D02*
D03*
X012717D02*
D03*
X018147Y023061D02*
D03*
X018354D02*
D03*
X018885Y023688D02*
D03*
Y023481D02*
D03*
X019801Y023688D02*
D03*
Y023481D02*
D03*
X021850Y019370D02*
D03*
X022056D02*
D03*
X021102Y022362D02*
D03*
Y022047D02*
D03*
X016978Y023062D02*
D03*
X022232Y021870D02*
D03*
X022025D02*
D03*
X025945Y019471D02*
D03*
Y019265D02*
D03*
X016978Y023269D02*
D03*
X014478Y014094D02*
D03*
X020940Y025069D02*
D03*
X020610D02*
D03*
X021270D02*
D03*
Y024739D02*
D03*
X020610D02*
D03*
X020940D02*
D03*
X021270Y024409D02*
D03*
X020610D02*
D03*
X020940D02*
D03*
X016102Y025039D02*
D03*
X017319Y025394D02*
D03*
Y025039D02*
D03*
X016102Y025394D02*
D03*
X011348Y019557D02*
D03*
X014485Y017249D02*
D03*
X014692D02*
D03*
X014485Y018061D02*
D03*
X014692D02*
D03*
X024321Y020679D02*
D03*
X024281Y020453D02*
D03*
X011526Y015025D02*
D03*
Y014818D02*
D03*
X011093Y022116D02*
D03*
X011201Y024921D02*
D03*
M02*
