G04 Layer_Color=32896*
%FSAX44Y44*%
%MOMM*%
G71*
G01*
G75*
%ADD200C,0.1270*%
D200*
X00486382Y00668500D02*
X00492118D01*
X00498882D02*
X00504618D01*
X00511382D02*
X00517118D01*
X00523882D02*
X00529618D01*
X00536382D02*
X00542000D01*
X00474000D02*
X00479618D01*
X00476000Y00640500D02*
Y00644500D01*
X00540000Y00640500D02*
Y00644500D01*
X00542000Y00660750D02*
Y00668500D01*
Y00660750D02*
X00545000D01*
X00542000Y00652250D02*
X00545000D01*
X00542000Y00641500D02*
Y00652250D01*
X00474000Y00641500D02*
X00542000D01*
X00474000D02*
Y00652250D01*
X00471000D02*
X00474000D01*
X00471000Y00660750D02*
X00474000D01*
Y00668500D01*
X00471000Y00671500D02*
X00474000Y00668500D01*
X00542000D02*
X00545000Y00671500D01*
X00545000Y00644500D02*
X00545000Y00671500D01*
X00471000D02*
X00545000D01*
X00471000D02*
X00471000Y00644500D01*
X00468000Y00644500D02*
X00548000D01*
X00548000Y00672500D02*
X00548000Y00640500D01*
X00468000Y00672500D02*
X00548000D01*
X00468000Y00640500D02*
Y00672500D01*
Y00640500D02*
X00548000D01*
M02*
