G04 Layer_Color=255*
%FSAX24Y24*%
%MOIN*%
G70*
G01*
G75*
%ADD16C,0.0236*%
%ADD17C,0.0394*%
%ADD18R,0.0236X0.0394*%
%ADD19R,0.0244X0.0228*%
%ADD20R,0.0315X0.0315*%
%ADD23R,0.0228X0.0244*%
%ADD24R,0.0354X0.0394*%
%ADD26R,0.0394X0.0394*%
%ADD27R,0.0394X0.0394*%
%ADD30R,0.0244X0.0244*%
%ADD31R,0.0244X0.0244*%
%ADD34R,0.0394X0.0354*%
%ADD39R,0.1181X0.0551*%
%ADD40R,0.1181X0.0512*%
%ADD41R,0.0394X0.0236*%
%ADD58R,0.0748X0.0571*%
%ADD60R,0.0453X0.0571*%
%ADD61R,0.0571X0.0453*%
%ADD65R,0.0571X0.0433*%
G04:AMPARAMS|DCode=82|XSize=41.3mil|YSize=49.2mil|CornerRadius=10.3mil|HoleSize=0mil|Usage=FLASHONLY|Rotation=180.000|XOffset=0mil|YOffset=0mil|HoleType=Round|Shape=RoundedRectangle|*
%AMROUNDEDRECTD82*
21,1,0.0413,0.0285,0,0,180.0*
21,1,0.0207,0.0492,0,0,180.0*
1,1,0.0207,-0.0103,0.0143*
1,1,0.0207,0.0103,0.0143*
1,1,0.0207,0.0103,-0.0143*
1,1,0.0207,-0.0103,-0.0143*
%
%ADD82ROUNDEDRECTD82*%
%ADD83C,0.0197*%
%ADD84C,0.0315*%
%ADD85C,0.1378*%
%ADD86C,0.0591*%
%ADD87C,0.0945*%
%ADD88R,0.1102X0.0866*%
%ADD89C,0.0630*%
%ADD90C,0.0827*%
%ADD91O,0.0827X0.0630*%
%ADD92R,0.0591X0.0512*%
%ADD93C,0.0551*%
%ADD109P,0.0278X4X90.0*%
%ADD117R,0.0669X0.0866*%
%ADD118R,0.0315X0.0157*%
G04:AMPARAMS|DCode=119|XSize=24.4mil|YSize=22.8mil|CornerRadius=0mil|HoleSize=0mil|Usage=FLASHONLY|Rotation=135.000|XOffset=0mil|YOffset=0mil|HoleType=Round|Shape=Rectangle|*
%AMROTATEDRECTD119*
4,1,4,0.0167,-0.0006,0.0006,-0.0167,-0.0167,0.0006,-0.0006,0.0167,0.0167,-0.0006,0.0*
%
%ADD119ROTATEDRECTD119*%

%ADD120R,0.0394X0.0118*%
%ADD121O,0.0394X0.0138*%
%ADD122R,0.0846X0.0846*%
%ADD123O,0.0138X0.0394*%
%ADD124R,0.0413X0.0177*%
%ADD125R,0.1378X0.1614*%
%ADD126P,0.0345X4X270.0*%
%ADD127R,0.0571X0.0748*%
%ADD128R,0.0374X0.0413*%
%ADD129R,0.0413X0.0236*%
%ADD130R,0.0236X0.0413*%
%ADD131R,0.0709X0.0886*%
%ADD132R,0.0283X0.0280*%
%ADD133P,0.0557X4X270.0*%
D16*
X018494Y025846D02*
D03*
X015374Y023169D02*
D03*
X021516Y026073D02*
D03*
X015218Y013047D02*
D03*
Y012547D02*
D03*
Y012047D02*
D03*
Y011547D02*
D03*
Y011047D02*
D03*
X015718Y013047D02*
D03*
Y012547D02*
D03*
X015719Y012047D02*
D03*
X015718Y011547D02*
D03*
Y011047D02*
D03*
X016219Y013047D02*
D03*
Y012547D02*
D03*
Y012047D02*
D03*
Y011547D02*
D03*
Y011047D02*
D03*
X016718Y013047D02*
D03*
Y012547D02*
D03*
X016718Y012047D02*
D03*
X016718Y011547D02*
D03*
Y011047D02*
D03*
X017219Y013047D02*
D03*
Y012547D02*
D03*
Y012047D02*
D03*
Y011547D02*
D03*
Y011047D02*
D03*
X019929Y013032D02*
D03*
Y012531D02*
D03*
Y012032D02*
D03*
Y011531D02*
D03*
Y011032D02*
D03*
X020429Y013032D02*
D03*
Y012531D02*
D03*
X020429Y012032D02*
D03*
X020429Y011531D02*
D03*
Y011032D02*
D03*
X020929Y013032D02*
D03*
Y012531D02*
D03*
Y012032D02*
D03*
Y011531D02*
D03*
Y011032D02*
D03*
X021429Y013032D02*
D03*
Y012531D02*
D03*
X021429Y012032D02*
D03*
X021429Y011531D02*
D03*
Y011032D02*
D03*
X021929Y013032D02*
D03*
Y012531D02*
D03*
Y012032D02*
D03*
Y011531D02*
D03*
Y011032D02*
D03*
D17*
X024400Y012333D02*
D03*
D18*
X010433Y023386D02*
D03*
X011181D02*
D03*
X010807Y022480D02*
D03*
D19*
X013234Y010677D02*
D03*
Y010307D02*
D03*
X013622D02*
D03*
X013622Y010677D02*
D03*
X014272Y022502D02*
D03*
Y022872D02*
D03*
X026248Y018520D02*
D03*
Y018890D02*
D03*
X025839Y018890D02*
D03*
Y018520D02*
D03*
X016142Y016035D02*
D03*
Y016406D02*
D03*
X011811Y010667D02*
D03*
Y010297D02*
D03*
X019803Y020864D02*
D03*
Y020494D02*
D03*
X025450Y024219D02*
D03*
Y024589D02*
D03*
X017872Y010301D02*
D03*
Y010671D02*
D03*
X025450Y023841D02*
D03*
X025450Y023471D02*
D03*
X015394Y020127D02*
D03*
X015394Y020497D02*
D03*
X018907Y016685D02*
D03*
Y017055D02*
D03*
D20*
X025907Y023867D02*
D03*
Y024517D02*
D03*
D23*
X021819Y010581D02*
D03*
X021449Y010581D02*
D03*
X023600Y025728D02*
D03*
X023230D02*
D03*
X016311Y017047D02*
D03*
X016681D02*
D03*
X015776Y016063D02*
D03*
X015406D02*
D03*
X016681Y019567D02*
D03*
X016311Y019567D02*
D03*
X025287Y013071D02*
D03*
X025657D02*
D03*
X020500Y017677D02*
D03*
X020130D02*
D03*
X015776Y018937D02*
D03*
X015406D02*
D03*
X023978Y011821D02*
D03*
X024348D02*
D03*
D24*
X015187Y010551D02*
D03*
X014557D02*
D03*
X018878Y011236D02*
D03*
X019508D02*
D03*
D26*
X016417Y024498D02*
D03*
Y025089D02*
D03*
D27*
X016998Y024429D02*
D03*
X017589D02*
D03*
X017470Y015374D02*
D03*
X016880D02*
D03*
X022510Y022835D02*
D03*
X021919D02*
D03*
X019193Y018898D02*
D03*
X018602D02*
D03*
X017343D02*
D03*
X017933D02*
D03*
X017598Y015945D02*
D03*
X018189Y015945D02*
D03*
D30*
X021463Y010243D02*
D03*
X021817D02*
D03*
X015565Y024807D02*
D03*
X015919D02*
D03*
X015531Y025217D02*
D03*
X015886D02*
D03*
X015768Y025856D02*
D03*
X016122D02*
D03*
X015925Y023819D02*
D03*
X015571D02*
D03*
X016511Y025857D02*
D03*
X016866D02*
D03*
X017933Y025276D02*
D03*
X017579D02*
D03*
X022392Y024793D02*
D03*
X022746D02*
D03*
X017923Y016624D02*
D03*
X017569D02*
D03*
X017067Y015984D02*
D03*
X016713D02*
D03*
X016344Y020413D02*
D03*
X016699D02*
D03*
X015774Y019488D02*
D03*
X015419D02*
D03*
X022067Y016575D02*
D03*
X021712D02*
D03*
X020748Y015197D02*
D03*
X021102D02*
D03*
X018209Y020197D02*
D03*
X018563Y020197D02*
D03*
X016693Y016378D02*
D03*
X017047Y016378D02*
D03*
X018917Y015718D02*
D03*
X019272D02*
D03*
X021122Y020472D02*
D03*
X020767Y020472D02*
D03*
X017657Y020787D02*
D03*
X017303Y020787D02*
D03*
X020167Y018858D02*
D03*
X020522D02*
D03*
X016398Y019213D02*
D03*
X016752Y019213D02*
D03*
X017382Y018268D02*
D03*
X017028D02*
D03*
X016338Y018268D02*
D03*
X016693D02*
D03*
X018209Y017559D02*
D03*
X018563D02*
D03*
X016398Y018858D02*
D03*
X016752Y018858D02*
D03*
X016097Y021414D02*
D03*
X016451D02*
D03*
X016344Y020827D02*
D03*
X016699D02*
D03*
X019547Y017953D02*
D03*
X019193Y017953D02*
D03*
X016358Y019882D02*
D03*
X016713D02*
D03*
X011093Y019587D02*
D03*
X010738D02*
D03*
X017943Y017933D02*
D03*
X018297D02*
D03*
X023573Y011821D02*
D03*
X023219D02*
D03*
X019823Y010404D02*
D03*
X019468D02*
D03*
X010797Y022096D02*
D03*
X010443D02*
D03*
X010797Y021693D02*
D03*
X010443D02*
D03*
D31*
X013996Y010315D02*
D03*
Y010669D02*
D03*
X021693Y023307D02*
D03*
Y023661D02*
D03*
X018091Y024921D02*
D03*
Y024567D02*
D03*
X015096Y023816D02*
D03*
Y023461D02*
D03*
X011299Y018573D02*
D03*
Y018927D02*
D03*
X015779Y016651D02*
D03*
Y017005D02*
D03*
X018268Y020965D02*
D03*
X018268Y020610D02*
D03*
X015039Y016358D02*
D03*
Y016004D02*
D03*
X015403Y017008D02*
D03*
Y016653D02*
D03*
X020797Y017018D02*
D03*
X020797Y017372D02*
D03*
X021486Y021083D02*
D03*
Y021437D02*
D03*
X018898Y019862D02*
D03*
Y019508D02*
D03*
X018267Y016358D02*
D03*
Y016712D02*
D03*
X019252Y016687D02*
D03*
Y017041D02*
D03*
X019586Y021720D02*
D03*
Y021365D02*
D03*
X020472Y021713D02*
D03*
Y021358D02*
D03*
X015748Y020138D02*
D03*
Y020492D02*
D03*
X018228Y021663D02*
D03*
Y021309D02*
D03*
X015460Y021082D02*
D03*
Y021437D02*
D03*
X016063Y018917D02*
D03*
Y019272D02*
D03*
X016732Y017933D02*
D03*
Y017579D02*
D03*
X017322Y016988D02*
D03*
Y017342D02*
D03*
X021496Y020768D02*
D03*
Y020413D02*
D03*
X021414Y017040D02*
D03*
X021414Y017394D02*
D03*
X017913Y016988D02*
D03*
Y017343D02*
D03*
X021417Y022382D02*
D03*
Y022028D02*
D03*
X020512Y022421D02*
D03*
Y022067D02*
D03*
X019213Y021959D02*
D03*
Y022313D02*
D03*
X014786Y017825D02*
D03*
Y017471D02*
D03*
X014391Y017825D02*
D03*
X014391Y017471D02*
D03*
X018278Y010303D02*
D03*
Y010657D02*
D03*
X024843Y012795D02*
D03*
Y012441D02*
D03*
X010886Y018927D02*
D03*
Y018573D02*
D03*
X018199Y019488D02*
D03*
Y019843D02*
D03*
X022323Y010581D02*
D03*
Y010226D02*
D03*
X022328Y021636D02*
D03*
X021928Y021636D02*
D03*
X022328Y021282D02*
D03*
X021928Y021282D02*
D03*
X022165Y019970D02*
D03*
X021789Y019970D02*
D03*
X022165Y019616D02*
D03*
X021789Y019616D02*
D03*
X014724Y019227D02*
D03*
X014329Y019227D02*
D03*
X014724Y019581D02*
D03*
X014329Y019581D02*
D03*
D34*
X018303Y011811D02*
D03*
Y011181D02*
D03*
D39*
X010689Y011909D02*
D03*
Y012697D02*
D03*
Y013484D02*
D03*
Y014272D02*
D03*
Y015846D02*
D03*
X010689Y016634D02*
D03*
D40*
X010689Y015059D02*
D03*
D41*
X011201Y024587D02*
D03*
Y023839D02*
D03*
X010295Y024213D02*
D03*
D58*
X014605Y021471D02*
D03*
Y020369D02*
D03*
D60*
X021220Y018760D02*
D03*
X021929D02*
D03*
X020404Y022982D02*
D03*
X021112D02*
D03*
X015630Y015039D02*
D03*
X014921D02*
D03*
D61*
X015590Y017756D02*
D03*
Y018464D02*
D03*
X014843Y022185D02*
D03*
Y022894D02*
D03*
D65*
X018898Y012726D02*
D03*
Y012018D02*
D03*
D82*
X030167Y010806D02*
D03*
X030659D02*
D03*
X019016Y026033D02*
D03*
X019508D02*
D03*
X020000D02*
D03*
X020492D02*
D03*
X020984D02*
D03*
X012264Y010492D02*
D03*
X012756D02*
D03*
D83*
X041890Y013620D02*
D03*
X041890Y022912D02*
D03*
X030866Y013620D02*
D03*
X030866Y022912D02*
D03*
X013307Y013583D02*
D03*
Y022953D02*
D03*
X024331Y013583D02*
D03*
Y022953D02*
D03*
D84*
X034069Y020056D02*
D03*
Y020556D02*
D03*
Y019556D02*
D03*
X037569Y021056D02*
D03*
Y015556D02*
D03*
X037069Y021056D02*
D03*
Y020556D02*
D03*
Y020056D02*
D03*
Y019556D02*
D03*
Y019056D02*
D03*
Y018556D02*
D03*
Y018056D02*
D03*
Y017556D02*
D03*
Y017056D02*
D03*
Y016556D02*
D03*
Y016056D02*
D03*
Y015556D02*
D03*
X036569Y021056D02*
D03*
Y020556D02*
D03*
Y020056D02*
D03*
Y019556D02*
D03*
Y019056D02*
D03*
Y018556D02*
D03*
Y018056D02*
D03*
Y017556D02*
D03*
Y017056D02*
D03*
Y016556D02*
D03*
Y016056D02*
D03*
Y015556D02*
D03*
X036069Y021056D02*
D03*
Y020556D02*
D03*
Y020056D02*
D03*
Y019556D02*
D03*
Y019056D02*
D03*
Y018556D02*
D03*
Y018056D02*
D03*
Y017556D02*
D03*
Y017056D02*
D03*
Y016556D02*
D03*
Y016056D02*
D03*
Y015556D02*
D03*
X035569Y021056D02*
D03*
Y020556D02*
D03*
Y020056D02*
D03*
Y019556D02*
D03*
X035069Y021056D02*
D03*
Y020056D02*
D03*
Y019556D02*
D03*
Y019056D02*
D03*
Y018556D02*
D03*
Y018056D02*
D03*
Y015556D02*
D03*
X034569Y020056D02*
D03*
Y019556D02*
D03*
Y018556D02*
D03*
Y017556D02*
D03*
Y017056D02*
D03*
Y016556D02*
D03*
Y016056D02*
D03*
Y015556D02*
D03*
X034069Y021056D02*
D03*
Y019056D02*
D03*
Y018556D02*
D03*
Y018056D02*
D03*
Y016556D02*
D03*
Y016056D02*
D03*
X037569D02*
D03*
Y016556D02*
D03*
Y017056D02*
D03*
Y017556D02*
D03*
Y018056D02*
D03*
Y018556D02*
D03*
Y019056D02*
D03*
Y019556D02*
D03*
Y020056D02*
D03*
Y020556D02*
D03*
X035569Y016056D02*
D03*
Y015556D02*
D03*
Y016556D02*
D03*
X035069D02*
D03*
Y016056D02*
D03*
X034569Y019056D02*
D03*
Y018056D02*
D03*
X034069Y017556D02*
D03*
Y017056D02*
D03*
X035069Y017556D02*
D03*
Y017056D02*
D03*
X035569Y018056D02*
D03*
Y017556D02*
D03*
X035069Y020556D02*
D03*
X034569Y021056D02*
D03*
Y020556D02*
D03*
X035569Y019056D02*
D03*
Y018556D02*
D03*
Y017056D02*
D03*
D85*
X028504Y010786D02*
D03*
X043465D02*
D03*
Y025746D02*
D03*
X028504D02*
D03*
X010787Y025748D02*
D03*
X025748D02*
D03*
Y010787D02*
D03*
X010787D02*
D03*
D86*
X013268Y024970D02*
D03*
X024656Y010453D02*
D03*
D87*
X014268Y023970D02*
D03*
Y025970D02*
D03*
X012268D02*
D03*
Y023970D02*
D03*
D88*
X025866Y017622D02*
D03*
Y022638D02*
D03*
D89*
X023415Y025118D02*
D03*
D90*
X022415Y024118D02*
D03*
X024415D02*
D03*
D91*
X022415Y026118D02*
D03*
X024415D02*
D03*
D92*
X024656Y011240D02*
D03*
D93*
X025354Y013638D02*
D03*
X026142Y014032D02*
D03*
X025354Y014426D02*
D03*
X026142Y014819D02*
D03*
X025354Y015213D02*
D03*
X026142Y013244D02*
D03*
D109*
X042913Y024409D02*
D03*
Y023622D02*
D03*
Y022835D02*
D03*
Y022047D02*
D03*
Y021260D02*
D03*
Y020472D02*
D03*
Y019685D02*
D03*
Y018898D02*
D03*
Y018110D02*
D03*
Y015748D02*
D03*
Y014961D02*
D03*
Y014173D02*
D03*
Y013386D02*
D03*
Y012598D02*
D03*
Y011811D02*
D03*
X042126Y025197D02*
D03*
Y024409D02*
D03*
Y023622D02*
D03*
Y022047D02*
D03*
Y021260D02*
D03*
Y020472D02*
D03*
Y019685D02*
D03*
Y018898D02*
D03*
Y018110D02*
D03*
Y012598D02*
D03*
Y011811D02*
D03*
Y011024D02*
D03*
X041339Y025197D02*
D03*
Y024409D02*
D03*
Y023622D02*
D03*
Y022835D02*
D03*
Y022047D02*
D03*
Y013386D02*
D03*
Y012598D02*
D03*
Y011024D02*
D03*
X040551Y025197D02*
D03*
Y024409D02*
D03*
Y023622D02*
D03*
Y022835D02*
D03*
Y022047D02*
D03*
Y019685D02*
D03*
Y018110D02*
D03*
Y013386D02*
D03*
Y012598D02*
D03*
Y011811D02*
D03*
Y011024D02*
D03*
X039764Y025197D02*
D03*
Y024409D02*
D03*
Y023622D02*
D03*
Y022835D02*
D03*
Y022047D02*
D03*
Y020472D02*
D03*
Y019685D02*
D03*
Y018898D02*
D03*
Y013386D02*
D03*
Y012598D02*
D03*
Y011811D02*
D03*
Y011024D02*
D03*
X038976Y025197D02*
D03*
Y024409D02*
D03*
Y023622D02*
D03*
Y022835D02*
D03*
Y022047D02*
D03*
Y020472D02*
D03*
Y019685D02*
D03*
Y015748D02*
D03*
Y013386D02*
D03*
Y011811D02*
D03*
Y011024D02*
D03*
X038189Y025197D02*
D03*
Y024409D02*
D03*
Y023622D02*
D03*
Y022047D02*
D03*
Y020472D02*
D03*
Y019685D02*
D03*
Y018110D02*
D03*
Y016535D02*
D03*
Y015748D02*
D03*
Y013386D02*
D03*
Y012598D02*
D03*
Y011811D02*
D03*
Y011024D02*
D03*
X037402Y025197D02*
D03*
Y024409D02*
D03*
Y023622D02*
D03*
Y022835D02*
D03*
Y022047D02*
D03*
Y013386D02*
D03*
Y012598D02*
D03*
Y011811D02*
D03*
X036614Y025197D02*
D03*
Y023622D02*
D03*
Y022835D02*
D03*
Y022047D02*
D03*
Y013386D02*
D03*
Y012598D02*
D03*
Y011811D02*
D03*
Y011024D02*
D03*
X035827Y025197D02*
D03*
Y024409D02*
D03*
Y023622D02*
D03*
Y022047D02*
D03*
Y013386D02*
D03*
Y012598D02*
D03*
Y011811D02*
D03*
Y011024D02*
D03*
X035039Y024409D02*
D03*
Y023622D02*
D03*
Y013386D02*
D03*
Y012598D02*
D03*
Y011811D02*
D03*
Y011024D02*
D03*
X034252Y022835D02*
D03*
Y022047D02*
D03*
Y015748D02*
D03*
Y014961D02*
D03*
Y014173D02*
D03*
Y013386D02*
D03*
Y012598D02*
D03*
Y011811D02*
D03*
Y011024D02*
D03*
X033465Y024409D02*
D03*
Y023622D02*
D03*
Y022835D02*
D03*
Y022047D02*
D03*
Y021260D02*
D03*
Y020472D02*
D03*
Y018110D02*
D03*
Y016535D02*
D03*
Y015748D02*
D03*
Y014961D02*
D03*
Y014173D02*
D03*
Y013386D02*
D03*
Y012598D02*
D03*
Y011811D02*
D03*
Y011024D02*
D03*
X032677Y025197D02*
D03*
Y024409D02*
D03*
Y023622D02*
D03*
Y022835D02*
D03*
Y022047D02*
D03*
Y021260D02*
D03*
Y020472D02*
D03*
Y016535D02*
D03*
Y015748D02*
D03*
Y014961D02*
D03*
Y014173D02*
D03*
Y013386D02*
D03*
Y012598D02*
D03*
X031890Y025197D02*
D03*
Y024409D02*
D03*
Y023622D02*
D03*
Y022835D02*
D03*
Y022047D02*
D03*
Y021260D02*
D03*
Y020472D02*
D03*
Y014961D02*
D03*
Y014173D02*
D03*
Y013386D02*
D03*
Y012598D02*
D03*
Y011811D02*
D03*
Y011024D02*
D03*
X031102Y025197D02*
D03*
Y024409D02*
D03*
Y023622D02*
D03*
Y022047D02*
D03*
Y021260D02*
D03*
Y020472D02*
D03*
Y019685D02*
D03*
Y018898D02*
D03*
Y016535D02*
D03*
Y014961D02*
D03*
Y014173D02*
D03*
Y012598D02*
D03*
Y011811D02*
D03*
X030315Y025197D02*
D03*
Y024409D02*
D03*
Y023622D02*
D03*
Y022835D02*
D03*
Y019685D02*
D03*
Y014961D02*
D03*
Y014173D02*
D03*
Y013386D02*
D03*
Y012598D02*
D03*
Y011811D02*
D03*
X029528Y025197D02*
D03*
Y024409D02*
D03*
Y023622D02*
D03*
Y022835D02*
D03*
Y022047D02*
D03*
Y020472D02*
D03*
Y017323D02*
D03*
Y014173D02*
D03*
Y013386D02*
D03*
Y012598D02*
D03*
Y011811D02*
D03*
Y011024D02*
D03*
X028740Y023622D02*
D03*
Y022835D02*
D03*
Y022047D02*
D03*
Y021260D02*
D03*
Y020472D02*
D03*
Y019685D02*
D03*
Y018898D02*
D03*
Y018110D02*
D03*
Y017323D02*
D03*
Y016535D02*
D03*
Y015748D02*
D03*
Y014961D02*
D03*
Y014173D02*
D03*
Y013386D02*
D03*
Y012598D02*
D03*
Y011811D02*
D03*
D117*
X023356Y010718D02*
D03*
D118*
X023947Y010344D02*
D03*
Y010718D02*
D03*
Y011093D02*
D03*
X022766D02*
D03*
X022766Y010718D02*
D03*
X022766Y010344D02*
D03*
D119*
X016351Y017926D02*
D03*
X016090Y017664D02*
D03*
D120*
X013632Y018366D02*
D03*
Y018563D02*
D03*
X011880Y015413D02*
D03*
Y015610D02*
D03*
X013632Y021909D02*
D03*
Y022106D02*
D03*
Y020728D02*
D03*
Y020925D02*
D03*
X011880Y018957D02*
D03*
Y019154D02*
D03*
Y020138D02*
D03*
Y020335D02*
D03*
Y020728D02*
D03*
Y020925D02*
D03*
X013632Y020138D02*
D03*
Y020335D02*
D03*
X011880Y021909D02*
D03*
Y022106D02*
D03*
X013632Y014823D02*
D03*
Y015020D02*
D03*
Y015217D02*
D03*
Y015807D02*
D03*
Y016004D02*
D03*
Y016201D02*
D03*
X011880Y014429D02*
D03*
Y014626D02*
D03*
Y014823D02*
D03*
Y015020D02*
D03*
Y015217D02*
D03*
Y015807D02*
D03*
Y016398D02*
D03*
X013632Y021713D02*
D03*
Y021516D02*
D03*
Y021319D02*
D03*
Y021122D02*
D03*
Y020531D02*
D03*
Y019941D02*
D03*
Y019744D02*
D03*
Y019547D02*
D03*
Y019350D02*
D03*
Y019154D02*
D03*
Y018957D02*
D03*
Y018760D02*
D03*
Y018169D02*
D03*
Y017579D02*
D03*
Y016988D02*
D03*
Y016398D02*
D03*
X011880Y021713D02*
D03*
Y021516D02*
D03*
Y021319D02*
D03*
Y021122D02*
D03*
Y020531D02*
D03*
Y019941D02*
D03*
Y019744D02*
D03*
Y019547D02*
D03*
Y019350D02*
D03*
Y018760D02*
D03*
Y018169D02*
D03*
Y017579D02*
D03*
Y016988D02*
D03*
X024656Y017972D02*
D03*
Y017382D02*
D03*
Y017579D02*
D03*
Y014429D02*
D03*
Y014626D02*
D03*
Y014823D02*
D03*
Y015020D02*
D03*
Y015217D02*
D03*
Y015413D02*
D03*
Y015610D02*
D03*
Y015807D02*
D03*
Y016004D02*
D03*
X022904Y014429D02*
D03*
Y014626D02*
D03*
Y014823D02*
D03*
Y015020D02*
D03*
Y015217D02*
D03*
Y015413D02*
D03*
Y015610D02*
D03*
Y015807D02*
D03*
Y016004D02*
D03*
X024656Y022106D02*
D03*
Y021909D02*
D03*
Y021713D02*
D03*
Y021516D02*
D03*
Y021319D02*
D03*
Y021122D02*
D03*
Y020925D02*
D03*
Y020728D02*
D03*
Y020531D02*
D03*
Y020335D02*
D03*
Y020138D02*
D03*
Y019941D02*
D03*
Y019744D02*
D03*
Y019547D02*
D03*
Y019350D02*
D03*
Y019154D02*
D03*
Y018957D02*
D03*
Y018760D02*
D03*
Y018563D02*
D03*
Y018366D02*
D03*
Y018169D02*
D03*
Y017776D02*
D03*
Y017185D02*
D03*
Y016594D02*
D03*
X022904Y022106D02*
D03*
Y021909D02*
D03*
Y021713D02*
D03*
Y021516D02*
D03*
Y021319D02*
D03*
Y021122D02*
D03*
Y020925D02*
D03*
Y020728D02*
D03*
Y020531D02*
D03*
Y020335D02*
D03*
Y020138D02*
D03*
Y019941D02*
D03*
Y019744D02*
D03*
Y019547D02*
D03*
Y019350D02*
D03*
Y019154D02*
D03*
Y018957D02*
D03*
Y018760D02*
D03*
Y018563D02*
D03*
Y018366D02*
D03*
Y018169D02*
D03*
Y017972D02*
D03*
Y017776D02*
D03*
Y017579D02*
D03*
Y017382D02*
D03*
Y017185D02*
D03*
Y016594D02*
D03*
X011880Y016791D02*
D03*
Y016594D02*
D03*
X022904Y016398D02*
D03*
Y016201D02*
D03*
Y016988D02*
D03*
Y016791D02*
D03*
X024656Y016988D02*
D03*
Y016791D02*
D03*
Y016398D02*
D03*
Y016201D02*
D03*
X013632Y017382D02*
D03*
Y017185D02*
D03*
Y017972D02*
D03*
Y017776D02*
D03*
Y016791D02*
D03*
Y016594D02*
D03*
X011880Y016201D02*
D03*
Y016004D02*
D03*
X013632Y015610D02*
D03*
Y015413D02*
D03*
X011880Y018563D02*
D03*
Y018366D02*
D03*
Y017972D02*
D03*
Y017776D02*
D03*
Y017382D02*
D03*
Y017185D02*
D03*
X013632Y014626D02*
D03*
Y014429D02*
D03*
D121*
X020236Y024862D02*
D03*
Y024606D02*
D03*
X021693Y024350D02*
D03*
X021693Y024606D02*
D03*
X021693Y024862D02*
D03*
X021693Y025118D02*
D03*
X020236Y025118D02*
D03*
Y024350D02*
D03*
D122*
X020965Y024734D02*
D03*
D123*
X020581Y024006D02*
D03*
X020837Y024006D02*
D03*
X021093Y024006D02*
D03*
X021348Y024006D02*
D03*
X021093Y025463D02*
D03*
X020837D02*
D03*
X020581D02*
D03*
D124*
X011959Y011096D02*
D03*
X011959Y011596D02*
D03*
X011959Y012096D02*
D03*
Y012596D02*
D03*
X014203D02*
D03*
Y012096D02*
D03*
X014203Y011596D02*
D03*
X014203Y011096D02*
D03*
D125*
X013081Y011846D02*
D03*
D126*
X022552Y025229D02*
D03*
X022802Y025480D02*
D03*
D127*
X022254Y014468D02*
D03*
X021152D02*
D03*
X016486Y014370D02*
D03*
X017589Y014370D02*
D03*
X017608Y023081D02*
D03*
X016506Y023081D02*
D03*
D128*
X016929Y013628D02*
D03*
X017559D02*
D03*
X015522Y013632D02*
D03*
X016152D02*
D03*
X021624Y013720D02*
D03*
X020994D02*
D03*
X020215Y013622D02*
D03*
X019585D02*
D03*
D129*
X026240Y012657D02*
D03*
Y011909D02*
D03*
X025335Y012283D02*
D03*
D130*
X026161Y015846D02*
D03*
X025413D02*
D03*
X025787Y016752D02*
D03*
D131*
X019085Y014626D02*
D03*
X020226D02*
D03*
D132*
X023770Y012220D02*
D03*
Y012583D02*
D03*
D133*
X028514Y024272D02*
D03*
X011909Y024951D02*
D03*
M02*
