G04 Layer_Color=16711935*
%FSAX24Y24*%
%MOIN*%
G70*
G01*
G75*
%ADD67C,0.0098*%
%ADD76C,0.0100*%
%ADD203C,0.0150*%
%ADD204C,0.0010*%
%ADD205C,0.0060*%
D67*
X035984Y009802D02*
Y026534D01*
D76*
X010000Y025873D02*
Y032953D01*
X044252Y025848D02*
Y032953D01*
X010000Y032853D02*
X025456D01*
X028476D02*
X044252D01*
X010000D02*
X010600Y032653D01*
X010000Y032853D02*
X010600Y033053D01*
X043652D02*
X044252Y032853D01*
X043652Y032653D02*
X044252Y032853D01*
X043465Y006957D02*
Y010787D01*
X028504Y006957D02*
Y010787D01*
X037334Y007057D02*
X043465D01*
X028504D02*
X034315D01*
X042865Y007257D02*
X043465Y007057D01*
X042865Y006857D02*
X043465Y007057D01*
X028504D02*
X029104Y006857D01*
X028504Y007057D02*
X029104Y007257D01*
X027746Y005510D02*
Y010000D01*
X044282Y005510D02*
Y010768D01*
X027746Y005610D02*
X034344D01*
X037363D02*
X044282D01*
X027746D02*
X028346Y005410D01*
X027746Y005610D02*
X028346Y005810D01*
X043682D02*
X044282Y005610D01*
X043682Y005410D02*
X044282Y005610D01*
X025748Y006957D02*
Y009998D01*
X010787Y006957D02*
Y009998D01*
X019617Y007057D02*
X025748D01*
X010787D02*
X016598D01*
X025148Y007257D02*
X025748Y007057D01*
X025148Y006857D02*
X025748Y007057D01*
X010787D02*
X011387Y006857D01*
X010787Y007057D02*
X011387Y007257D01*
X007469Y025748D02*
X009998D01*
X007469Y010787D02*
X009998D01*
X007569Y019617D02*
Y025748D01*
Y010787D02*
Y016598D01*
X007369Y025148D02*
X007569Y025748D01*
X007769Y025148D01*
X007569Y010787D02*
X007769Y011387D01*
X007369D02*
X007569Y010787D01*
X005540Y010000D02*
X010030D01*
X005540Y026535D02*
X010663D01*
X005640Y010000D02*
Y016598D01*
Y019617D02*
Y026535D01*
Y010000D02*
X005840Y010600D01*
X005440D02*
X005640Y010000D01*
X005440Y025935D02*
X005640Y026535D01*
X005840Y025935D01*
X010000Y005510D02*
Y010000D01*
X026535Y005510D02*
Y010663D01*
X010000Y005610D02*
X016598D01*
X019617D02*
X026535D01*
X010000D02*
X010600Y005410D01*
X010000Y005610D02*
X010600Y005810D01*
X025935D02*
X026535Y005610D01*
X025935Y005410D02*
X026535Y005610D01*
X027805Y018266D02*
X044222D01*
X079054Y062619D02*
Y062019D01*
X079454D01*
X079754Y062419D02*
X079954D01*
X080054Y062319D01*
Y062019D01*
X079754D01*
X079654Y062119D01*
X079754Y062219D01*
X080054D01*
X080254Y062419D02*
Y062119D01*
X080354Y062019D01*
X080654D01*
Y061919D01*
X080554Y061819D01*
X080454D01*
X080654Y062019D02*
Y062419D01*
X081154Y062019D02*
X080954D01*
X080854Y062119D01*
Y062319D01*
X080954Y062419D01*
X081154D01*
X081253Y062319D01*
Y062219D01*
X080854D01*
X081453Y062419D02*
Y062019D01*
Y062219D01*
X081553Y062319D01*
X081653Y062419D01*
X081753D01*
X079054Y039219D02*
X079254D01*
X079154D01*
Y039819D01*
X079054Y039719D01*
X079554Y039319D02*
X079654Y039219D01*
X079854D01*
X079954Y039319D01*
Y039719D01*
X079854Y039819D01*
X079654D01*
X079554Y039719D01*
Y039619D01*
X079654Y039519D01*
X079954D01*
X079054Y040419D02*
X079254D01*
X079154D01*
Y041019D01*
X079054Y040919D01*
X079554D02*
X079654Y041019D01*
X079854D01*
X079954Y040919D01*
Y040819D01*
X079854Y040719D01*
X079954Y040619D01*
Y040519D01*
X079854Y040419D01*
X079654D01*
X079554Y040519D01*
Y040619D01*
X079654Y040719D01*
X079554Y040819D01*
Y040919D01*
X079654Y040719D02*
X079854D01*
X079054Y041619D02*
X079254D01*
X079154D01*
Y042219D01*
X079054Y042119D01*
X079554Y042219D02*
X079954D01*
Y042119D01*
X079554Y041719D01*
Y041619D01*
X079054Y042819D02*
X079254D01*
X079154D01*
Y043419D01*
X079054Y043319D01*
X079954Y043419D02*
X079754Y043319D01*
X079554Y043119D01*
Y042919D01*
X079654Y042819D01*
X079854D01*
X079954Y042919D01*
Y043019D01*
X079854Y043119D01*
X079554D01*
X079054Y044019D02*
X079254D01*
X079154D01*
Y044619D01*
X079054Y044519D01*
X079954Y044619D02*
X079554D01*
Y044319D01*
X079754Y044419D01*
X079854D01*
X079954Y044319D01*
Y044119D01*
X079854Y044019D01*
X079654D01*
X079554Y044119D01*
X079054Y045219D02*
X079254D01*
X079154D01*
Y045819D01*
X079054Y045719D01*
X079854Y045219D02*
Y045819D01*
X079554Y045519D01*
X079954D01*
X079054Y046419D02*
X079254D01*
X079154D01*
Y047019D01*
X079054Y046919D01*
X079554D02*
X079654Y047019D01*
X079854D01*
X079954Y046919D01*
Y046819D01*
X079854Y046719D01*
X079754D01*
X079854D01*
X079954Y046619D01*
Y046519D01*
X079854Y046419D01*
X079654D01*
X079554Y046519D01*
X079054Y047619D02*
X079254D01*
X079154D01*
Y048219D01*
X079054Y048119D01*
X079954Y047619D02*
X079554D01*
X079954Y048019D01*
Y048119D01*
X079854Y048219D01*
X079654D01*
X079554Y048119D01*
X079054Y048819D02*
X079254D01*
X079154D01*
Y049419D01*
X079054Y049319D01*
X079554Y048819D02*
X079754D01*
X079654D01*
Y049419D01*
X079554Y049319D01*
X079054Y050019D02*
X079254D01*
X079154D01*
Y050619D01*
X079054Y050519D01*
X079554D02*
X079654Y050619D01*
X079854D01*
X079954Y050519D01*
Y050119D01*
X079854Y050019D01*
X079654D01*
X079554Y050119D01*
Y050519D01*
X079054Y051319D02*
X079154Y051219D01*
X079354D01*
X079454Y051319D01*
Y051719D01*
X079354Y051819D01*
X079154D01*
X079054Y051719D01*
Y051619D01*
X079154Y051519D01*
X079454D01*
X079054Y052919D02*
X079154Y053019D01*
X079354D01*
X079454Y052919D01*
Y052819D01*
X079354Y052719D01*
X079454Y052619D01*
Y052519D01*
X079354Y052419D01*
X079154D01*
X079054Y052519D01*
Y052619D01*
X079154Y052719D01*
X079054Y052819D01*
Y052919D01*
X079154Y052719D02*
X079354D01*
X079054Y054219D02*
X079454D01*
Y054119D01*
X079054Y053719D01*
Y053619D01*
X079454Y055419D02*
X079254Y055319D01*
X079054Y055119D01*
Y054919D01*
X079154Y054819D01*
X079354D01*
X079454Y054919D01*
Y055019D01*
X079354Y055119D01*
X079054D01*
X079454Y056619D02*
X079054D01*
Y056319D01*
X079254Y056419D01*
X079354D01*
X079454Y056319D01*
Y056119D01*
X079354Y056019D01*
X079154D01*
X079054Y056119D01*
X079354Y057219D02*
Y057819D01*
X079054Y057519D01*
X079454D01*
X079054Y058919D02*
X079154Y059019D01*
X079354D01*
X079454Y058919D01*
Y058819D01*
X079354Y058719D01*
X079254D01*
X079354D01*
X079454Y058619D01*
Y058519D01*
X079354Y058419D01*
X079154D01*
X079054Y058519D01*
X079454Y059619D02*
X079054D01*
X079454Y060019D01*
Y060119D01*
X079354Y060219D01*
X079154D01*
X079054Y060119D01*
Y060819D02*
X079254D01*
X079154D01*
Y061419D01*
X079054Y061319D01*
X083153Y062019D02*
Y062619D01*
X083553Y062019D01*
Y062619D01*
X083853Y062419D02*
X084053D01*
X084153Y062319D01*
Y062019D01*
X083853D01*
X083753Y062119D01*
X083853Y062219D01*
X084153D01*
X084353Y062019D02*
Y062419D01*
X084453D01*
X084553Y062319D01*
Y062019D01*
Y062319D01*
X084653Y062419D01*
X084753Y062319D01*
Y062019D01*
X085253D02*
X085053D01*
X084953Y062119D01*
Y062319D01*
X085053Y062419D01*
X085253D01*
X085353Y062319D01*
Y062219D01*
X084953D01*
X083153Y039819D02*
Y039219D01*
X083453D01*
X083553Y039319D01*
Y039419D01*
X083453Y039519D01*
X083153D01*
X083453D01*
X083553Y039619D01*
Y039719D01*
X083453Y039819D01*
X083153D01*
X083853Y039219D02*
X084053D01*
X084153Y039319D01*
Y039519D01*
X084053Y039619D01*
X083853D01*
X083753Y039519D01*
Y039319D01*
X083853Y039219D01*
X084453Y039719D02*
Y039619D01*
X084353D01*
X084553D01*
X084453D01*
Y039319D01*
X084553Y039219D01*
X084953Y039719D02*
Y039619D01*
X084853D01*
X085053D01*
X084953D01*
Y039319D01*
X085053Y039219D01*
X085453D02*
X085653D01*
X085752Y039319D01*
Y039519D01*
X085653Y039619D01*
X085453D01*
X085353Y039519D01*
Y039319D01*
X085453Y039219D01*
X085952D02*
Y039619D01*
X086052D01*
X086152Y039519D01*
Y039219D01*
Y039519D01*
X086252Y039619D01*
X086352Y039519D01*
Y039219D01*
X087452Y039819D02*
X087252D01*
X087152Y039719D01*
Y039319D01*
X087252Y039219D01*
X087452D01*
X087552Y039319D01*
Y039719D01*
X087452Y039819D01*
X087752Y039619D02*
X087952Y039219D01*
X088152Y039619D01*
X088652Y039219D02*
X088452D01*
X088352Y039319D01*
Y039519D01*
X088452Y039619D01*
X088652D01*
X088752Y039519D01*
Y039419D01*
X088352D01*
X088951Y039619D02*
Y039219D01*
Y039419D01*
X089051Y039519D01*
X089151Y039619D01*
X089251D01*
X089551Y039219D02*
X089751D01*
X089651D01*
Y039819D01*
X089551D01*
X090151Y039619D02*
X090351D01*
X090451Y039519D01*
Y039219D01*
X090151D01*
X090051Y039319D01*
X090151Y039419D01*
X090451D01*
X090651Y039619D02*
Y039319D01*
X090751Y039219D01*
X091051D01*
Y039119D01*
X090951Y039019D01*
X090851D01*
X091051Y039219D02*
Y039619D01*
X083153Y041019D02*
Y040419D01*
X083453D01*
X083553Y040519D01*
Y040619D01*
X083453Y040719D01*
X083153D01*
X083453D01*
X083553Y040819D01*
Y040919D01*
X083453Y041019D01*
X083153D01*
X083853Y040419D02*
X084053D01*
X084153Y040519D01*
Y040719D01*
X084053Y040819D01*
X083853D01*
X083753Y040719D01*
Y040519D01*
X083853Y040419D01*
X084453Y040919D02*
Y040819D01*
X084353D01*
X084553D01*
X084453D01*
Y040519D01*
X084553Y040419D01*
X084953Y040919D02*
Y040819D01*
X084853D01*
X085053D01*
X084953D01*
Y040519D01*
X085053Y040419D01*
X085453D02*
X085653D01*
X085752Y040519D01*
Y040719D01*
X085653Y040819D01*
X085453D01*
X085353Y040719D01*
Y040519D01*
X085453Y040419D01*
X085952D02*
Y040819D01*
X086052D01*
X086152Y040719D01*
Y040419D01*
Y040719D01*
X086252Y040819D01*
X086352Y040719D01*
Y040419D01*
X087552Y040919D02*
X087452Y041019D01*
X087252D01*
X087152Y040919D01*
Y040819D01*
X087252Y040719D01*
X087452D01*
X087552Y040619D01*
Y040519D01*
X087452Y040419D01*
X087252D01*
X087152Y040519D01*
X087852Y040419D02*
X088052D01*
X088152Y040519D01*
Y040719D01*
X088052Y040819D01*
X087852D01*
X087752Y040719D01*
Y040519D01*
X087852Y040419D01*
X088352D02*
X088552D01*
X088452D01*
Y041019D01*
X088352D01*
X089251D02*
Y040419D01*
X088951D01*
X088851Y040519D01*
Y040719D01*
X088951Y040819D01*
X089251D01*
X089751Y040419D02*
X089551D01*
X089451Y040519D01*
Y040719D01*
X089551Y040819D01*
X089751D01*
X089851Y040719D01*
Y040619D01*
X089451D01*
X090051Y040819D02*
Y040419D01*
Y040619D01*
X090151Y040719D01*
X090251Y040819D01*
X090351D01*
X083153Y042219D02*
Y041619D01*
X083453D01*
X083553Y041719D01*
Y041819D01*
X083453Y041919D01*
X083153D01*
X083453D01*
X083553Y042019D01*
Y042119D01*
X083453Y042219D01*
X083153D01*
X083753D02*
X084153D01*
X083953D01*
Y041619D01*
X084353D02*
Y042219D01*
X084553Y042019D01*
X084753Y042219D01*
Y041619D01*
X083153Y043419D02*
Y042819D01*
X083453D01*
X083553Y042919D01*
Y043319D01*
X083453Y043419D01*
X083153D01*
X083753Y042819D02*
X083953D01*
X083853D01*
Y043219D01*
X083753D01*
X084553Y042819D02*
X084353D01*
X084253Y042919D01*
Y043119D01*
X084353Y043219D01*
X084553D01*
X084653Y043119D01*
Y043019D01*
X084253D01*
X084853Y042819D02*
X085053D01*
X084953D01*
Y043419D01*
X084853D01*
X085653Y042819D02*
X085453D01*
X085353Y042919D01*
Y043119D01*
X085453Y043219D01*
X085653D01*
X085752Y043119D01*
Y043019D01*
X085353D01*
X086352Y043219D02*
X086052D01*
X085952Y043119D01*
Y042919D01*
X086052Y042819D01*
X086352D01*
X086652Y043319D02*
Y043219D01*
X086552D01*
X086752D01*
X086652D01*
Y042919D01*
X086752Y042819D01*
X087052Y043219D02*
Y042819D01*
Y043019D01*
X087152Y043119D01*
X087252Y043219D01*
X087352D01*
X087652Y042819D02*
X087852D01*
X087752D01*
Y043219D01*
X087652D01*
X088552D02*
X088252D01*
X088152Y043119D01*
Y042919D01*
X088252Y042819D01*
X088552D01*
X089351Y043319D02*
X089451Y043419D01*
X089651D01*
X089751Y043319D01*
Y043219D01*
X089651Y043119D01*
X089751Y043019D01*
Y042919D01*
X089651Y042819D01*
X089451D01*
X089351Y042919D01*
Y043019D01*
X089451Y043119D01*
X089351Y043219D01*
Y043319D01*
X089451Y043119D02*
X089651D01*
X083153Y044619D02*
Y044019D01*
X083553D01*
X084153Y044619D02*
X083953Y044519D01*
X083753Y044319D01*
Y044119D01*
X083853Y044019D01*
X084053D01*
X084153Y044119D01*
Y044219D01*
X084053Y044319D01*
X083753D01*
X084353D02*
X084753D01*
X084953Y044019D02*
Y044619D01*
X085253D01*
X085353Y044519D01*
Y044319D01*
X085253Y044219D01*
X084953D01*
X085952Y044019D02*
X085553D01*
X085952Y044419D01*
Y044519D01*
X085852Y044619D01*
X085653D01*
X085553Y044519D01*
X086152Y044619D02*
Y044219D01*
X086352Y044019D01*
X086552Y044219D01*
Y044619D01*
X087152D02*
X086752D01*
Y044319D01*
X086952Y044419D01*
X087052D01*
X087152Y044319D01*
Y044119D01*
X087052Y044019D01*
X086852D01*
X086752Y044119D01*
X083153Y045819D02*
Y045219D01*
X083453D01*
X083553Y045319D01*
Y045719D01*
X083453Y045819D01*
X083153D01*
X083753Y045219D02*
X083953D01*
X083853D01*
Y045619D01*
X083753D01*
X084553Y045219D02*
X084353D01*
X084253Y045319D01*
Y045519D01*
X084353Y045619D01*
X084553D01*
X084653Y045519D01*
Y045419D01*
X084253D01*
X084853Y045219D02*
X085053D01*
X084953D01*
Y045819D01*
X084853D01*
X085653Y045219D02*
X085453D01*
X085353Y045319D01*
Y045519D01*
X085453Y045619D01*
X085653D01*
X085752Y045519D01*
Y045419D01*
X085353D01*
X086352Y045619D02*
X086052D01*
X085952Y045519D01*
Y045319D01*
X086052Y045219D01*
X086352D01*
X086652Y045719D02*
Y045619D01*
X086552D01*
X086752D01*
X086652D01*
Y045319D01*
X086752Y045219D01*
X087052Y045619D02*
Y045219D01*
Y045419D01*
X087152Y045519D01*
X087252Y045619D01*
X087352D01*
X087652Y045219D02*
X087852D01*
X087752D01*
Y045619D01*
X087652D01*
X088552D02*
X088252D01*
X088152Y045519D01*
Y045319D01*
X088252Y045219D01*
X088552D01*
X089351Y045819D02*
X089751D01*
Y045719D01*
X089351Y045319D01*
Y045219D01*
X083153Y047019D02*
Y046419D01*
X083553D01*
X084153Y047019D02*
X083753D01*
Y046719D01*
X083953Y046819D01*
X084053D01*
X084153Y046719D01*
Y046519D01*
X084053Y046419D01*
X083853D01*
X083753Y046519D01*
X083153Y048219D02*
Y047619D01*
X083453D01*
X083553Y047719D01*
Y048119D01*
X083453Y048219D01*
X083153D01*
X083753Y047619D02*
X083953D01*
X083853D01*
Y048019D01*
X083753D01*
X084553Y047619D02*
X084353D01*
X084253Y047719D01*
Y047919D01*
X084353Y048019D01*
X084553D01*
X084653Y047919D01*
Y047819D01*
X084253D01*
X084853Y047619D02*
X085053D01*
X084953D01*
Y048219D01*
X084853D01*
X085653Y047619D02*
X085453D01*
X085353Y047719D01*
Y047919D01*
X085453Y048019D01*
X085653D01*
X085752Y047919D01*
Y047819D01*
X085353D01*
X086352Y048019D02*
X086052D01*
X085952Y047919D01*
Y047719D01*
X086052Y047619D01*
X086352D01*
X086652Y048119D02*
Y048019D01*
X086552D01*
X086752D01*
X086652D01*
Y047719D01*
X086752Y047619D01*
X087052Y048019D02*
Y047619D01*
Y047819D01*
X087152Y047919D01*
X087252Y048019D01*
X087352D01*
X087652Y047619D02*
X087852D01*
X087752D01*
Y048019D01*
X087652D01*
X088552D02*
X088252D01*
X088152Y047919D01*
Y047719D01*
X088252Y047619D01*
X088552D01*
X089651D02*
Y048219D01*
X089351Y047919D01*
X089751D01*
X083153Y049419D02*
Y048819D01*
X083553D01*
X084053D02*
Y049419D01*
X083753Y049119D01*
X084153D01*
X084353D02*
X084753D01*
X084953Y048819D02*
Y049419D01*
X085253D01*
X085353Y049319D01*
Y049119D01*
X085253Y049019D01*
X084953D01*
X085553Y049419D02*
Y048819D01*
X085752Y049019D01*
X085952Y048819D01*
Y049419D01*
X086152Y048819D02*
Y049419D01*
X086452D01*
X086552Y049319D01*
Y049119D01*
X086452Y049019D01*
X086152D01*
X086352D02*
X086552Y048819D01*
X083153Y050619D02*
Y050019D01*
X083453D01*
X083553Y050119D01*
Y050519D01*
X083453Y050619D01*
X083153D01*
X083753Y050019D02*
X083953D01*
X083853D01*
Y050419D01*
X083753D01*
X084553Y050019D02*
X084353D01*
X084253Y050119D01*
Y050319D01*
X084353Y050419D01*
X084553D01*
X084653Y050319D01*
Y050219D01*
X084253D01*
X084853Y050019D02*
X085053D01*
X084953D01*
Y050619D01*
X084853D01*
X085653Y050019D02*
X085453D01*
X085353Y050119D01*
Y050319D01*
X085453Y050419D01*
X085653D01*
X085752Y050319D01*
Y050219D01*
X085353D01*
X086352Y050419D02*
X086052D01*
X085952Y050319D01*
Y050119D01*
X086052Y050019D01*
X086352D01*
X086652Y050519D02*
Y050419D01*
X086552D01*
X086752D01*
X086652D01*
Y050119D01*
X086752Y050019D01*
X087052Y050419D02*
Y050019D01*
Y050219D01*
X087152Y050319D01*
X087252Y050419D01*
X087352D01*
X087652Y050019D02*
X087852D01*
X087752D01*
Y050419D01*
X087652D01*
X088552D02*
X088252D01*
X088152Y050319D01*
Y050119D01*
X088252Y050019D01*
X088552D01*
X089751Y050619D02*
X089351D01*
Y050319D01*
X089551Y050419D01*
X089651D01*
X089751Y050319D01*
Y050119D01*
X089651Y050019D01*
X089451D01*
X089351Y050119D01*
X083153Y051819D02*
Y051219D01*
X083553D01*
X083753Y051719D02*
X083853Y051819D01*
X084053D01*
X084153Y051719D01*
Y051619D01*
X084053Y051519D01*
X083953D01*
X084053D01*
X084153Y051419D01*
Y051319D01*
X084053Y051219D01*
X083853D01*
X083753Y051319D01*
X084353Y051519D02*
X084753D01*
X084953Y051219D02*
X085153D01*
X085053D01*
Y051819D01*
X084953Y051719D01*
X085453Y051819D02*
Y051419D01*
X085653Y051219D01*
X085852Y051419D01*
Y051819D01*
X086052Y051719D02*
X086152Y051819D01*
X086352D01*
X086452Y051719D01*
Y051619D01*
X086352Y051519D01*
X086452Y051419D01*
Y051319D01*
X086352Y051219D01*
X086152D01*
X086052Y051319D01*
Y051419D01*
X086152Y051519D01*
X086052Y051619D01*
Y051719D01*
X086152Y051519D02*
X086352D01*
X083153Y053019D02*
Y052419D01*
X083453D01*
X083553Y052519D01*
Y052919D01*
X083453Y053019D01*
X083153D01*
X083753Y052419D02*
X083953D01*
X083853D01*
Y052819D01*
X083753D01*
X084553Y052419D02*
X084353D01*
X084253Y052519D01*
Y052719D01*
X084353Y052819D01*
X084553D01*
X084653Y052719D01*
Y052619D01*
X084253D01*
X084853Y052419D02*
X085053D01*
X084953D01*
Y053019D01*
X084853D01*
X085653Y052419D02*
X085453D01*
X085353Y052519D01*
Y052719D01*
X085453Y052819D01*
X085653D01*
X085752Y052719D01*
Y052619D01*
X085353D01*
X086352Y052819D02*
X086052D01*
X085952Y052719D01*
Y052519D01*
X086052Y052419D01*
X086352D01*
X086652Y052919D02*
Y052819D01*
X086552D01*
X086752D01*
X086652D01*
Y052519D01*
X086752Y052419D01*
X087052Y052819D02*
Y052419D01*
Y052619D01*
X087152Y052719D01*
X087252Y052819D01*
X087352D01*
X087652Y052419D02*
X087852D01*
X087752D01*
Y052819D01*
X087652D01*
X088552D02*
X088252D01*
X088152Y052719D01*
Y052519D01*
X088252Y052419D01*
X088552D01*
X089751Y053019D02*
X089551Y052919D01*
X089351Y052719D01*
Y052519D01*
X089451Y052419D01*
X089651D01*
X089751Y052519D01*
Y052619D01*
X089651Y052719D01*
X089351D01*
X083153Y054219D02*
Y053619D01*
X083553D01*
X084153D02*
X083753D01*
X084153Y054019D01*
Y054119D01*
X084053Y054219D01*
X083853D01*
X083753Y054119D01*
X083153Y055419D02*
Y054819D01*
X083453D01*
X083553Y054919D01*
Y055319D01*
X083453Y055419D01*
X083153D01*
X083753Y054819D02*
X083953D01*
X083853D01*
Y055219D01*
X083753D01*
X084553Y054819D02*
X084353D01*
X084253Y054919D01*
Y055119D01*
X084353Y055219D01*
X084553D01*
X084653Y055119D01*
Y055019D01*
X084253D01*
X084853Y054819D02*
X085053D01*
X084953D01*
Y055419D01*
X084853D01*
X085653Y054819D02*
X085453D01*
X085353Y054919D01*
Y055119D01*
X085453Y055219D01*
X085653D01*
X085752Y055119D01*
Y055019D01*
X085353D01*
X086352Y055219D02*
X086052D01*
X085952Y055119D01*
Y054919D01*
X086052Y054819D01*
X086352D01*
X086652Y055319D02*
Y055219D01*
X086552D01*
X086752D01*
X086652D01*
Y054919D01*
X086752Y054819D01*
X087052Y055219D02*
Y054819D01*
Y055019D01*
X087152Y055119D01*
X087252Y055219D01*
X087352D01*
X087652Y054819D02*
X087852D01*
X087752D01*
Y055219D01*
X087652D01*
X088552D02*
X088252D01*
X088152Y055119D01*
Y054919D01*
X088252Y054819D01*
X088552D01*
X089351Y055319D02*
X089451Y055419D01*
X089651D01*
X089751Y055319D01*
Y055219D01*
X089651Y055119D01*
X089551D01*
X089651D01*
X089751Y055019D01*
Y054919D01*
X089651Y054819D01*
X089451D01*
X089351Y054919D01*
X083153Y056619D02*
Y056019D01*
X083553D01*
X083753D02*
X083953D01*
X083853D01*
Y056619D01*
X083753Y056519D01*
X084253Y056319D02*
X084653D01*
X085253Y056519D02*
X085153Y056619D01*
X084953D01*
X084853Y056519D01*
Y056119D01*
X084953Y056019D01*
X085153D01*
X085253Y056119D01*
Y056319D01*
X085053D01*
X085453Y056019D02*
Y056619D01*
X085852Y056019D01*
Y056619D01*
X086052D02*
Y056019D01*
X086352D01*
X086452Y056119D01*
Y056519D01*
X086352Y056619D01*
X086052D01*
X083153Y057819D02*
Y057219D01*
X083453D01*
X083553Y057319D01*
Y057719D01*
X083453Y057819D01*
X083153D01*
X083753Y057219D02*
X083953D01*
X083853D01*
Y057619D01*
X083753D01*
X084553Y057219D02*
X084353D01*
X084253Y057319D01*
Y057519D01*
X084353Y057619D01*
X084553D01*
X084653Y057519D01*
Y057419D01*
X084253D01*
X084853Y057219D02*
X085053D01*
X084953D01*
Y057819D01*
X084853D01*
X085653Y057219D02*
X085453D01*
X085353Y057319D01*
Y057519D01*
X085453Y057619D01*
X085653D01*
X085752Y057519D01*
Y057419D01*
X085353D01*
X086352Y057619D02*
X086052D01*
X085952Y057519D01*
Y057319D01*
X086052Y057219D01*
X086352D01*
X086652Y057719D02*
Y057619D01*
X086552D01*
X086752D01*
X086652D01*
Y057319D01*
X086752Y057219D01*
X087052Y057619D02*
Y057219D01*
Y057419D01*
X087152Y057519D01*
X087252Y057619D01*
X087352D01*
X087652Y057219D02*
X087852D01*
X087752D01*
Y057619D01*
X087652D01*
X088552D02*
X088252D01*
X088152Y057519D01*
Y057319D01*
X088252Y057219D01*
X088552D01*
X089351D02*
X089551D01*
X089451D01*
Y057819D01*
X089351Y057719D01*
X083153Y059019D02*
X083553D01*
X083353D01*
Y058419D01*
X084053Y059019D02*
X083853D01*
X083753Y058919D01*
Y058519D01*
X083853Y058419D01*
X084053D01*
X084153Y058519D01*
Y058919D01*
X084053Y059019D01*
X084353Y058419D02*
Y059019D01*
X084653D01*
X084753Y058919D01*
Y058719D01*
X084653Y058619D01*
X084353D01*
X083153Y060219D02*
X083553D01*
X083353D01*
Y059619D01*
X083853D02*
X084053D01*
X084153Y059719D01*
Y059919D01*
X084053Y060019D01*
X083853D01*
X083753Y059919D01*
Y059719D01*
X083853Y059619D01*
X084353Y059419D02*
Y060019D01*
X084653D01*
X084753Y059919D01*
Y059719D01*
X084653Y059619D01*
X084353D01*
X085952Y060119D02*
X085852Y060219D01*
X085653D01*
X085553Y060119D01*
Y060019D01*
X085653Y059919D01*
X085852D01*
X085952Y059819D01*
Y059719D01*
X085852Y059619D01*
X085653D01*
X085553Y059719D01*
X086252Y059619D02*
X086452D01*
X086552Y059719D01*
Y059919D01*
X086452Y060019D01*
X086252D01*
X086152Y059919D01*
Y059719D01*
X086252Y059619D01*
X086752D02*
X086952D01*
X086852D01*
Y060219D01*
X086752D01*
X087652D02*
Y059619D01*
X087352D01*
X087252Y059719D01*
Y059919D01*
X087352Y060019D01*
X087652D01*
X088152Y059619D02*
X087952D01*
X087852Y059719D01*
Y059919D01*
X087952Y060019D01*
X088152D01*
X088252Y059919D01*
Y059819D01*
X087852D01*
X088452Y060019D02*
Y059619D01*
Y059819D01*
X088552Y059919D01*
X088652Y060019D01*
X088752D01*
X083153Y061419D02*
X083553D01*
X083353D01*
Y060819D01*
X083853D02*
X084053D01*
X084153Y060919D01*
Y061119D01*
X084053Y061219D01*
X083853D01*
X083753Y061119D01*
Y060919D01*
X083853Y060819D01*
X084353Y060619D02*
Y061219D01*
X084653D01*
X084753Y061119D01*
Y060919D01*
X084653Y060819D01*
X084353D01*
X085852Y061419D02*
X085653D01*
X085553Y061319D01*
Y060919D01*
X085653Y060819D01*
X085852D01*
X085952Y060919D01*
Y061319D01*
X085852Y061419D01*
X086152Y061219D02*
X086352Y060819D01*
X086552Y061219D01*
X087052Y060819D02*
X086852D01*
X086752Y060919D01*
Y061119D01*
X086852Y061219D01*
X087052D01*
X087152Y061119D01*
Y061019D01*
X086752D01*
X087352Y061219D02*
Y060819D01*
Y061019D01*
X087452Y061119D01*
X087552Y061219D01*
X087652D01*
X087952Y060819D02*
X088152D01*
X088052D01*
Y061419D01*
X087952D01*
X088552Y061219D02*
X088752D01*
X088851Y061119D01*
Y060819D01*
X088552D01*
X088452Y060919D01*
X088552Y061019D01*
X088851D01*
X089051Y061219D02*
Y060919D01*
X089151Y060819D01*
X089451D01*
Y060719D01*
X089351Y060619D01*
X089251D01*
X089451Y060819D02*
Y061219D01*
X092451Y062019D02*
Y062619D01*
X092651Y062419D01*
X092851Y062619D01*
Y062019D01*
X093151Y062419D02*
X093350D01*
X093450Y062319D01*
Y062019D01*
X093151D01*
X093051Y062119D01*
X093151Y062219D01*
X093450D01*
X093750Y062519D02*
Y062419D01*
X093650D01*
X093850D01*
X093750D01*
Y062119D01*
X093850Y062019D01*
X094450D02*
X094250D01*
X094150Y062119D01*
Y062319D01*
X094250Y062419D01*
X094450D01*
X094550Y062319D01*
Y062219D01*
X094150D01*
X094750Y062419D02*
Y062019D01*
Y062219D01*
X094850Y062319D01*
X094950Y062419D01*
X095050D01*
X095350Y062019D02*
X095550D01*
X095450D01*
Y062419D01*
X095350D01*
X095950D02*
X096150D01*
X096250Y062319D01*
Y062019D01*
X095950D01*
X095850Y062119D01*
X095950Y062219D01*
X096250D01*
X096449Y062019D02*
X096649D01*
X096549D01*
Y062619D01*
X096449D01*
X092851Y040919D02*
X092751Y041019D01*
X092551D01*
X092451Y040919D01*
Y040819D01*
X092551Y040719D01*
X092751D01*
X092851Y040619D01*
Y040519D01*
X092751Y040419D01*
X092551D01*
X092451Y040519D01*
X093151Y040419D02*
X093350D01*
X093450Y040519D01*
Y040719D01*
X093350Y040819D01*
X093151D01*
X093051Y040719D01*
Y040519D01*
X093151Y040419D01*
X093650D02*
X093850D01*
X093750D01*
Y041019D01*
X093650D01*
X094550D02*
Y040419D01*
X094250D01*
X094150Y040519D01*
Y040719D01*
X094250Y040819D01*
X094550D01*
X095050Y040419D02*
X094850D01*
X094750Y040519D01*
Y040719D01*
X094850Y040819D01*
X095050D01*
X095150Y040719D01*
Y040619D01*
X094750D01*
X095350Y040819D02*
Y040419D01*
Y040619D01*
X095450Y040719D01*
X095550Y040819D01*
X095650D01*
X096549Y040419D02*
Y041019D01*
X096849D01*
X096949Y040919D01*
Y040719D01*
X096849Y040619D01*
X096549D01*
X096749D02*
X096949Y040419D01*
X097449D02*
X097249D01*
X097149Y040519D01*
Y040719D01*
X097249Y040819D01*
X097449D01*
X097549Y040719D01*
Y040619D01*
X097149D01*
X097749Y040419D02*
X098049D01*
X098149Y040519D01*
X098049Y040619D01*
X097849D01*
X097749Y040719D01*
X097849Y040819D01*
X098149D01*
X098349Y040419D02*
X098549D01*
X098449D01*
Y040819D01*
X098349D01*
X098849Y040419D02*
X099149D01*
X099249Y040519D01*
X099149Y040619D01*
X098949D01*
X098849Y040719D01*
X098949Y040819D01*
X099249D01*
X099548Y040919D02*
Y040819D01*
X099449D01*
X099648D01*
X099548D01*
Y040519D01*
X099648Y040419D01*
X092851Y042119D02*
X092751Y042219D01*
X092551D01*
X092451Y042119D01*
Y041719D01*
X092551Y041619D01*
X092751D01*
X092851Y041719D01*
X093151Y041619D02*
X093350D01*
X093450Y041719D01*
Y041919D01*
X093350Y042019D01*
X093151D01*
X093051Y041919D01*
Y041719D01*
X093151Y041619D01*
X093650Y041419D02*
Y042019D01*
X093950D01*
X094050Y041919D01*
Y041719D01*
X093950Y041619D01*
X093650D01*
X094250Y041419D02*
Y042019D01*
X094550D01*
X094650Y041919D01*
Y041719D01*
X094550Y041619D01*
X094250D01*
X095150D02*
X094950D01*
X094850Y041719D01*
Y041919D01*
X094950Y042019D01*
X095150D01*
X095250Y041919D01*
Y041819D01*
X094850D01*
X095450Y042019D02*
Y041619D01*
Y041819D01*
X095550Y041919D01*
X095650Y042019D01*
X095750D01*
X092851Y044519D02*
X092751Y044619D01*
X092551D01*
X092451Y044519D01*
Y044119D01*
X092551Y044019D01*
X092751D01*
X092851Y044119D01*
X093151Y044019D02*
X093350D01*
X093450Y044119D01*
Y044319D01*
X093350Y044419D01*
X093151D01*
X093051Y044319D01*
Y044119D01*
X093151Y044019D01*
X093650Y043819D02*
Y044419D01*
X093950D01*
X094050Y044319D01*
Y044119D01*
X093950Y044019D01*
X093650D01*
X094250Y043819D02*
Y044419D01*
X094550D01*
X094650Y044319D01*
Y044119D01*
X094550Y044019D01*
X094250D01*
X095150D02*
X094950D01*
X094850Y044119D01*
Y044319D01*
X094950Y044419D01*
X095150D01*
X095250Y044319D01*
Y044219D01*
X094850D01*
X095450Y044419D02*
Y044019D01*
Y044219D01*
X095550Y044319D01*
X095650Y044419D01*
X095750D01*
X092851Y046919D02*
X092751Y047019D01*
X092551D01*
X092451Y046919D01*
Y046519D01*
X092551Y046419D01*
X092751D01*
X092851Y046519D01*
X093151Y046419D02*
X093350D01*
X093450Y046519D01*
Y046719D01*
X093350Y046819D01*
X093151D01*
X093051Y046719D01*
Y046519D01*
X093151Y046419D01*
X093650Y046219D02*
Y046819D01*
X093950D01*
X094050Y046719D01*
Y046519D01*
X093950Y046419D01*
X093650D01*
X094250Y046219D02*
Y046819D01*
X094550D01*
X094650Y046719D01*
Y046519D01*
X094550Y046419D01*
X094250D01*
X095150D02*
X094950D01*
X094850Y046519D01*
Y046719D01*
X094950Y046819D01*
X095150D01*
X095250Y046719D01*
Y046619D01*
X094850D01*
X095450Y046819D02*
Y046419D01*
Y046619D01*
X095550Y046719D01*
X095650Y046819D01*
X095750D01*
X092851Y049319D02*
X092751Y049419D01*
X092551D01*
X092451Y049319D01*
Y048919D01*
X092551Y048819D01*
X092751D01*
X092851Y048919D01*
X093151Y048819D02*
X093350D01*
X093450Y048919D01*
Y049119D01*
X093350Y049219D01*
X093151D01*
X093051Y049119D01*
Y048919D01*
X093151Y048819D01*
X093650Y048619D02*
Y049219D01*
X093950D01*
X094050Y049119D01*
Y048919D01*
X093950Y048819D01*
X093650D01*
X094250Y048619D02*
Y049219D01*
X094550D01*
X094650Y049119D01*
Y048919D01*
X094550Y048819D01*
X094250D01*
X095150D02*
X094950D01*
X094850Y048919D01*
Y049119D01*
X094950Y049219D01*
X095150D01*
X095250Y049119D01*
Y049019D01*
X094850D01*
X095450Y049219D02*
Y048819D01*
Y049019D01*
X095550Y049119D01*
X095650Y049219D01*
X095750D01*
X092851Y051719D02*
X092751Y051819D01*
X092551D01*
X092451Y051719D01*
Y051319D01*
X092551Y051219D01*
X092751D01*
X092851Y051319D01*
X093151Y051219D02*
X093350D01*
X093450Y051319D01*
Y051519D01*
X093350Y051619D01*
X093151D01*
X093051Y051519D01*
Y051319D01*
X093151Y051219D01*
X093650Y051019D02*
Y051619D01*
X093950D01*
X094050Y051519D01*
Y051319D01*
X093950Y051219D01*
X093650D01*
X094250Y051019D02*
Y051619D01*
X094550D01*
X094650Y051519D01*
Y051319D01*
X094550Y051219D01*
X094250D01*
X095150D02*
X094950D01*
X094850Y051319D01*
Y051519D01*
X094950Y051619D01*
X095150D01*
X095250Y051519D01*
Y051419D01*
X094850D01*
X095450Y051619D02*
Y051219D01*
Y051419D01*
X095550Y051519D01*
X095650Y051619D01*
X095750D01*
X092851Y054119D02*
X092751Y054219D01*
X092551D01*
X092451Y054119D01*
Y053719D01*
X092551Y053619D01*
X092751D01*
X092851Y053719D01*
X093151Y053619D02*
X093350D01*
X093450Y053719D01*
Y053919D01*
X093350Y054019D01*
X093151D01*
X093051Y053919D01*
Y053719D01*
X093151Y053619D01*
X093650Y053419D02*
Y054019D01*
X093950D01*
X094050Y053919D01*
Y053719D01*
X093950Y053619D01*
X093650D01*
X094250Y053419D02*
Y054019D01*
X094550D01*
X094650Y053919D01*
Y053719D01*
X094550Y053619D01*
X094250D01*
X095150D02*
X094950D01*
X094850Y053719D01*
Y053919D01*
X094950Y054019D01*
X095150D01*
X095250Y053919D01*
Y053819D01*
X094850D01*
X095450Y054019D02*
Y053619D01*
Y053819D01*
X095550Y053919D01*
X095650Y054019D01*
X095750D01*
X092851Y056519D02*
X092751Y056619D01*
X092551D01*
X092451Y056519D01*
Y056119D01*
X092551Y056019D01*
X092751D01*
X092851Y056119D01*
X093151Y056019D02*
X093350D01*
X093450Y056119D01*
Y056319D01*
X093350Y056419D01*
X093151D01*
X093051Y056319D01*
Y056119D01*
X093151Y056019D01*
X093650Y055819D02*
Y056419D01*
X093950D01*
X094050Y056319D01*
Y056119D01*
X093950Y056019D01*
X093650D01*
X094250Y055819D02*
Y056419D01*
X094550D01*
X094650Y056319D01*
Y056119D01*
X094550Y056019D01*
X094250D01*
X095150D02*
X094950D01*
X094850Y056119D01*
Y056319D01*
X094950Y056419D01*
X095150D01*
X095250Y056319D01*
Y056219D01*
X094850D01*
X095450Y056419D02*
Y056019D01*
Y056219D01*
X095550Y056319D01*
X095650Y056419D01*
X095750D01*
X092851Y057819D02*
X092451D01*
Y057519D01*
X092651D01*
X092451D01*
Y057219D01*
X093051D02*
Y057819D01*
X093350D01*
X093450Y057719D01*
Y057519D01*
X093350Y057419D01*
X093051D01*
X093251D02*
X093450Y057219D01*
X093650Y057519D02*
X094050D01*
X094550Y057219D02*
Y057819D01*
X094250Y057519D01*
X094650D01*
X092851Y058919D02*
X092751Y059019D01*
X092551D01*
X092451Y058919D01*
Y058519D01*
X092551Y058419D01*
X092751D01*
X092851Y058519D01*
X093151Y058419D02*
X093350D01*
X093450Y058519D01*
Y058719D01*
X093350Y058819D01*
X093151D01*
X093051Y058719D01*
Y058519D01*
X093151Y058419D01*
X093650Y058219D02*
Y058819D01*
X093950D01*
X094050Y058719D01*
Y058519D01*
X093950Y058419D01*
X093650D01*
X094250Y058219D02*
Y058819D01*
X094550D01*
X094650Y058719D01*
Y058519D01*
X094550Y058419D01*
X094250D01*
X095150D02*
X094950D01*
X094850Y058519D01*
Y058719D01*
X094950Y058819D01*
X095150D01*
X095250Y058719D01*
Y058619D01*
X094850D01*
X095450Y058819D02*
Y058419D01*
Y058619D01*
X095550Y058719D01*
X095650Y058819D01*
X095750D01*
X092851Y060119D02*
X092751Y060219D01*
X092551D01*
X092451Y060119D01*
Y060019D01*
X092551Y059919D01*
X092751D01*
X092851Y059819D01*
Y059719D01*
X092751Y059619D01*
X092551D01*
X092451Y059719D01*
X093151Y059619D02*
X093350D01*
X093450Y059719D01*
Y059919D01*
X093350Y060019D01*
X093151D01*
X093051Y059919D01*
Y059719D01*
X093151Y059619D01*
X093650D02*
X093850D01*
X093750D01*
Y060219D01*
X093650D01*
X094550D02*
Y059619D01*
X094250D01*
X094150Y059719D01*
Y059919D01*
X094250Y060019D01*
X094550D01*
X095050Y059619D02*
X094850D01*
X094750Y059719D01*
Y059919D01*
X094850Y060019D01*
X095050D01*
X095150Y059919D01*
Y059819D01*
X094750D01*
X095350Y060019D02*
Y059619D01*
Y059819D01*
X095450Y059919D01*
X095550Y060019D01*
X095650D01*
X096549Y059619D02*
Y060219D01*
X096849D01*
X096949Y060119D01*
Y059919D01*
X096849Y059819D01*
X096549D01*
X096749D02*
X096949Y059619D01*
X097449D02*
X097249D01*
X097149Y059719D01*
Y059919D01*
X097249Y060019D01*
X097449D01*
X097549Y059919D01*
Y059819D01*
X097149D01*
X097749Y059619D02*
X098049D01*
X098149Y059719D01*
X098049Y059819D01*
X097849D01*
X097749Y059919D01*
X097849Y060019D01*
X098149D01*
X098349Y059619D02*
X098549D01*
X098449D01*
Y060019D01*
X098349D01*
X098849Y059619D02*
X099149D01*
X099249Y059719D01*
X099149Y059819D01*
X098949D01*
X098849Y059919D01*
X098949Y060019D01*
X099249D01*
X099548Y060119D02*
Y060019D01*
X099449D01*
X099648D01*
X099548D01*
Y059719D01*
X099648Y059619D01*
X101048Y062619D02*
X101448D01*
X101248D01*
Y062019D01*
X101648Y062619D02*
Y062019D01*
Y062319D01*
X101748Y062419D01*
X101948D01*
X102048Y062319D01*
Y062019D01*
X102248D02*
X102448D01*
X102348D01*
Y062419D01*
X102248D01*
X103148D02*
X102848D01*
X102748Y062319D01*
Y062119D01*
X102848Y062019D01*
X103148D01*
X103348D02*
Y062619D01*
Y062219D02*
X103648Y062419D01*
X103348Y062219D02*
X103648Y062019D01*
X103948D02*
Y062419D01*
X104247D01*
X104347Y062319D01*
Y062019D01*
X104847D02*
X104647D01*
X104547Y062119D01*
Y062319D01*
X104647Y062419D01*
X104847D01*
X104947Y062319D01*
Y062219D01*
X104547D01*
X105147Y062019D02*
X105447D01*
X105547Y062119D01*
X105447Y062219D01*
X105247D01*
X105147Y062319D01*
X105247Y062419D01*
X105547D01*
X105747Y062019D02*
X106047D01*
X106147Y062119D01*
X106047Y062219D01*
X105847D01*
X105747Y062319D01*
X105847Y062419D01*
X106147D01*
X101048Y040919D02*
X101148Y041019D01*
X101348D01*
X101448Y040919D01*
Y040519D01*
X101348Y040419D01*
X101148D01*
X101048Y040519D01*
Y040919D01*
X101648Y040419D02*
Y040519D01*
X101748D01*
Y040419D01*
X101648D01*
X102148Y040919D02*
X102248Y041019D01*
X102448D01*
X102548Y040919D01*
Y040519D01*
X102448Y040419D01*
X102248D01*
X102148Y040519D01*
Y040919D01*
X102748Y040419D02*
X102948D01*
X102848D01*
Y041019D01*
X102748Y040919D01*
X103248D02*
X103348Y041019D01*
X103548D01*
X103648Y040919D01*
Y040519D01*
X103548Y040419D01*
X103348D01*
X103248Y040519D01*
Y040919D01*
X103848Y040419D02*
Y040819D01*
X103948D01*
X104047Y040719D01*
Y040419D01*
Y040719D01*
X104147Y040819D01*
X104247Y040719D01*
Y040419D01*
X104447D02*
Y040819D01*
X104547D01*
X104647Y040719D01*
Y040419D01*
Y040719D01*
X104747Y040819D01*
X104847Y040719D01*
Y040419D01*
X101048Y042119D02*
X101148Y042219D01*
X101348D01*
X101448Y042119D01*
Y041719D01*
X101348Y041619D01*
X101148D01*
X101048Y041719D01*
Y042119D01*
X101648Y041619D02*
Y041719D01*
X101748D01*
Y041619D01*
X101648D01*
X102148Y042119D02*
X102248Y042219D01*
X102448D01*
X102548Y042119D01*
Y041719D01*
X102448Y041619D01*
X102248D01*
X102148Y041719D01*
Y042119D01*
X103148Y042219D02*
X102748D01*
Y041919D01*
X102948Y042019D01*
X103048D01*
X103148Y041919D01*
Y041719D01*
X103048Y041619D01*
X102848D01*
X102748Y041719D01*
X103348Y042119D02*
X103448Y042219D01*
X103648D01*
X103748Y042119D01*
Y042019D01*
X103648Y041919D01*
X103548D01*
X103648D01*
X103748Y041819D01*
Y041719D01*
X103648Y041619D01*
X103448D01*
X103348Y041719D01*
X103948Y041619D02*
Y042019D01*
X104047D01*
X104147Y041919D01*
Y041619D01*
Y041919D01*
X104247Y042019D01*
X104347Y041919D01*
Y041619D01*
X104547D02*
Y042019D01*
X104647D01*
X104747Y041919D01*
Y041619D01*
Y041919D01*
X104847Y042019D01*
X104947Y041919D01*
Y041619D01*
X101048Y043319D02*
X101148Y043419D01*
X101348D01*
X101448Y043319D01*
Y042919D01*
X101348Y042819D01*
X101148D01*
X101048Y042919D01*
Y043319D01*
X101648Y042819D02*
Y042919D01*
X101748D01*
Y042819D01*
X101648D01*
X102148D02*
X102348D01*
X102248D01*
Y043419D01*
X102148Y043319D01*
X102648Y042819D02*
X102848D01*
X102748D01*
Y043419D01*
X102648Y043319D01*
X103148D02*
X103248Y043419D01*
X103448D01*
X103548Y043319D01*
Y042919D01*
X103448Y042819D01*
X103248D01*
X103148Y042919D01*
Y043319D01*
X103748Y042819D02*
Y043219D01*
X103848D01*
X103948Y043119D01*
Y042819D01*
Y043119D01*
X104047Y043219D01*
X104147Y043119D01*
Y042819D01*
X104347D02*
Y043219D01*
X104447D01*
X104547Y043119D01*
Y042819D01*
Y043119D01*
X104647Y043219D01*
X104747Y043119D01*
Y042819D01*
X101048Y044519D02*
X101148Y044619D01*
X101348D01*
X101448Y044519D01*
Y044119D01*
X101348Y044019D01*
X101148D01*
X101048Y044119D01*
Y044519D01*
X101648Y044019D02*
Y044119D01*
X101748D01*
Y044019D01*
X101648D01*
X102148Y044519D02*
X102248Y044619D01*
X102448D01*
X102548Y044519D01*
Y044119D01*
X102448Y044019D01*
X102248D01*
X102148Y044119D01*
Y044519D01*
X102748Y044019D02*
X102948D01*
X102848D01*
Y044619D01*
X102748Y044519D01*
X103248D02*
X103348Y044619D01*
X103548D01*
X103648Y044519D01*
Y044419D01*
X103548Y044319D01*
X103648Y044219D01*
Y044119D01*
X103548Y044019D01*
X103348D01*
X103248Y044119D01*
Y044219D01*
X103348Y044319D01*
X103248Y044419D01*
Y044519D01*
X103348Y044319D02*
X103548D01*
X103848Y044019D02*
Y044419D01*
X103948D01*
X104047Y044319D01*
Y044019D01*
Y044319D01*
X104147Y044419D01*
X104247Y044319D01*
Y044019D01*
X104447D02*
Y044419D01*
X104547D01*
X104647Y044319D01*
Y044019D01*
Y044319D01*
X104747Y044419D01*
X104847Y044319D01*
Y044019D01*
X101048Y045719D02*
X101148Y045819D01*
X101348D01*
X101448Y045719D01*
Y045319D01*
X101348Y045219D01*
X101148D01*
X101048Y045319D01*
Y045719D01*
X101648Y045219D02*
Y045319D01*
X101748D01*
Y045219D01*
X101648D01*
X102148Y045719D02*
X102248Y045819D01*
X102448D01*
X102548Y045719D01*
Y045619D01*
X102448Y045519D01*
X102348D01*
X102448D01*
X102548Y045419D01*
Y045319D01*
X102448Y045219D01*
X102248D01*
X102148Y045319D01*
X102748Y045719D02*
X102848Y045819D01*
X103048D01*
X103148Y045719D01*
Y045319D01*
X103048Y045219D01*
X102848D01*
X102748Y045319D01*
Y045719D01*
X103348D02*
X103448Y045819D01*
X103648D01*
X103748Y045719D01*
Y045319D01*
X103648Y045219D01*
X103448D01*
X103348Y045319D01*
Y045719D01*
X103948Y045219D02*
Y045619D01*
X104047D01*
X104147Y045519D01*
Y045219D01*
Y045519D01*
X104247Y045619D01*
X104347Y045519D01*
Y045219D01*
X104547D02*
Y045619D01*
X104647D01*
X104747Y045519D01*
Y045219D01*
Y045519D01*
X104847Y045619D01*
X104947Y045519D01*
Y045219D01*
X101048Y046919D02*
X101148Y047019D01*
X101348D01*
X101448Y046919D01*
Y046519D01*
X101348Y046419D01*
X101148D01*
X101048Y046519D01*
Y046919D01*
X101648Y046419D02*
Y046519D01*
X101748D01*
Y046419D01*
X101648D01*
X102148Y046919D02*
X102248Y047019D01*
X102448D01*
X102548Y046919D01*
Y046519D01*
X102448Y046419D01*
X102248D01*
X102148Y046519D01*
Y046919D01*
X102748Y046419D02*
X102948D01*
X102848D01*
Y047019D01*
X102748Y046919D01*
X103248D02*
X103348Y047019D01*
X103548D01*
X103648Y046919D01*
Y046819D01*
X103548Y046719D01*
X103648Y046619D01*
Y046519D01*
X103548Y046419D01*
X103348D01*
X103248Y046519D01*
Y046619D01*
X103348Y046719D01*
X103248Y046819D01*
Y046919D01*
X103348Y046719D02*
X103548D01*
X103848Y046419D02*
Y046819D01*
X103948D01*
X104047Y046719D01*
Y046419D01*
Y046719D01*
X104147Y046819D01*
X104247Y046719D01*
Y046419D01*
X104447D02*
Y046819D01*
X104547D01*
X104647Y046719D01*
Y046419D01*
Y046719D01*
X104747Y046819D01*
X104847Y046719D01*
Y046419D01*
X101048Y048119D02*
X101148Y048219D01*
X101348D01*
X101448Y048119D01*
Y047719D01*
X101348Y047619D01*
X101148D01*
X101048Y047719D01*
Y048119D01*
X101648Y047619D02*
Y047719D01*
X101748D01*
Y047619D01*
X101648D01*
X102148D02*
X102348D01*
X102248D01*
Y048219D01*
X102148Y048119D01*
X102648Y047619D02*
X102848D01*
X102748D01*
Y048219D01*
X102648Y048119D01*
X103148D02*
X103248Y048219D01*
X103448D01*
X103548Y048119D01*
Y047719D01*
X103448Y047619D01*
X103248D01*
X103148Y047719D01*
Y048119D01*
X103748Y047619D02*
Y048019D01*
X103848D01*
X103948Y047919D01*
Y047619D01*
Y047919D01*
X104047Y048019D01*
X104147Y047919D01*
Y047619D01*
X104347D02*
Y048019D01*
X104447D01*
X104547Y047919D01*
Y047619D01*
Y047919D01*
X104647Y048019D01*
X104747Y047919D01*
Y047619D01*
X101048Y049319D02*
X101148Y049419D01*
X101348D01*
X101448Y049319D01*
Y048919D01*
X101348Y048819D01*
X101148D01*
X101048Y048919D01*
Y049319D01*
X101648Y048819D02*
Y048919D01*
X101748D01*
Y048819D01*
X101648D01*
X102148Y049319D02*
X102248Y049419D01*
X102448D01*
X102548Y049319D01*
Y048919D01*
X102448Y048819D01*
X102248D01*
X102148Y048919D01*
Y049319D01*
X102748D02*
X102848Y049419D01*
X103048D01*
X103148Y049319D01*
Y049219D01*
X103048Y049119D01*
X102948D01*
X103048D01*
X103148Y049019D01*
Y048919D01*
X103048Y048819D01*
X102848D01*
X102748Y048919D01*
X103748Y049419D02*
X103348D01*
Y049119D01*
X103548Y049219D01*
X103648D01*
X103748Y049119D01*
Y048919D01*
X103648Y048819D01*
X103448D01*
X103348Y048919D01*
X103948Y048819D02*
Y049219D01*
X104047D01*
X104147Y049119D01*
Y048819D01*
Y049119D01*
X104247Y049219D01*
X104347Y049119D01*
Y048819D01*
X104547D02*
Y049219D01*
X104647D01*
X104747Y049119D01*
Y048819D01*
Y049119D01*
X104847Y049219D01*
X104947Y049119D01*
Y048819D01*
X101048Y050519D02*
X101148Y050619D01*
X101348D01*
X101448Y050519D01*
Y050119D01*
X101348Y050019D01*
X101148D01*
X101048Y050119D01*
Y050519D01*
X101648Y050019D02*
Y050119D01*
X101748D01*
Y050019D01*
X101648D01*
X102148Y050519D02*
X102248Y050619D01*
X102448D01*
X102548Y050519D01*
Y050419D01*
X102448Y050319D01*
X102348D01*
X102448D01*
X102548Y050219D01*
Y050119D01*
X102448Y050019D01*
X102248D01*
X102148Y050119D01*
X102748Y050519D02*
X102848Y050619D01*
X103048D01*
X103148Y050519D01*
Y050119D01*
X103048Y050019D01*
X102848D01*
X102748Y050119D01*
Y050519D01*
X103348D02*
X103448Y050619D01*
X103648D01*
X103748Y050519D01*
Y050119D01*
X103648Y050019D01*
X103448D01*
X103348Y050119D01*
Y050519D01*
X103948Y050019D02*
Y050419D01*
X104047D01*
X104147Y050319D01*
Y050019D01*
Y050319D01*
X104247Y050419D01*
X104347Y050319D01*
Y050019D01*
X104547D02*
Y050419D01*
X104647D01*
X104747Y050319D01*
Y050019D01*
Y050319D01*
X104847Y050419D01*
X104947Y050319D01*
Y050019D01*
X101048Y051719D02*
X101148Y051819D01*
X101348D01*
X101448Y051719D01*
Y051319D01*
X101348Y051219D01*
X101148D01*
X101048Y051319D01*
Y051719D01*
X101648Y051219D02*
Y051319D01*
X101748D01*
Y051219D01*
X101648D01*
X102148Y051719D02*
X102248Y051819D01*
X102448D01*
X102548Y051719D01*
Y051319D01*
X102448Y051219D01*
X102248D01*
X102148Y051319D01*
Y051719D01*
X102748D02*
X102848Y051819D01*
X103048D01*
X103148Y051719D01*
Y051619D01*
X103048Y051519D01*
X102948D01*
X103048D01*
X103148Y051419D01*
Y051319D01*
X103048Y051219D01*
X102848D01*
X102748Y051319D01*
X103748Y051819D02*
X103348D01*
Y051519D01*
X103548Y051619D01*
X103648D01*
X103748Y051519D01*
Y051319D01*
X103648Y051219D01*
X103448D01*
X103348Y051319D01*
X103948Y051219D02*
Y051619D01*
X104047D01*
X104147Y051519D01*
Y051219D01*
Y051519D01*
X104247Y051619D01*
X104347Y051519D01*
Y051219D01*
X104547D02*
Y051619D01*
X104647D01*
X104747Y051519D01*
Y051219D01*
Y051519D01*
X104847Y051619D01*
X104947Y051519D01*
Y051219D01*
X101048Y052919D02*
X101148Y053019D01*
X101348D01*
X101448Y052919D01*
Y052519D01*
X101348Y052419D01*
X101148D01*
X101048Y052519D01*
Y052919D01*
X101648Y052419D02*
Y052519D01*
X101748D01*
Y052419D01*
X101648D01*
X102148D02*
X102348D01*
X102248D01*
Y053019D01*
X102148Y052919D01*
X102648Y052419D02*
X102848D01*
X102748D01*
Y053019D01*
X102648Y052919D01*
X103148D02*
X103248Y053019D01*
X103448D01*
X103548Y052919D01*
Y052519D01*
X103448Y052419D01*
X103248D01*
X103148Y052519D01*
Y052919D01*
X103748Y052419D02*
Y052819D01*
X103848D01*
X103948Y052719D01*
Y052419D01*
Y052719D01*
X104047Y052819D01*
X104147Y052719D01*
Y052419D01*
X104347D02*
Y052819D01*
X104447D01*
X104547Y052719D01*
Y052419D01*
Y052719D01*
X104647Y052819D01*
X104747Y052719D01*
Y052419D01*
X101048Y054119D02*
X101148Y054219D01*
X101348D01*
X101448Y054119D01*
Y053719D01*
X101348Y053619D01*
X101148D01*
X101048Y053719D01*
Y054119D01*
X101648Y053619D02*
Y053719D01*
X101748D01*
Y053619D01*
X101648D01*
X102148Y054119D02*
X102248Y054219D01*
X102448D01*
X102548Y054119D01*
Y053719D01*
X102448Y053619D01*
X102248D01*
X102148Y053719D01*
Y054119D01*
X102748Y053619D02*
X102948D01*
X102848D01*
Y054219D01*
X102748Y054119D01*
X103248D02*
X103348Y054219D01*
X103548D01*
X103648Y054119D01*
Y054019D01*
X103548Y053919D01*
X103648Y053819D01*
Y053719D01*
X103548Y053619D01*
X103348D01*
X103248Y053719D01*
Y053819D01*
X103348Y053919D01*
X103248Y054019D01*
Y054119D01*
X103348Y053919D02*
X103548D01*
X103848Y053619D02*
Y054019D01*
X103948D01*
X104047Y053919D01*
Y053619D01*
Y053919D01*
X104147Y054019D01*
X104247Y053919D01*
Y053619D01*
X104447D02*
Y054019D01*
X104547D01*
X104647Y053919D01*
Y053619D01*
Y053919D01*
X104747Y054019D01*
X104847Y053919D01*
Y053619D01*
X101048Y055319D02*
X101148Y055419D01*
X101348D01*
X101448Y055319D01*
Y054919D01*
X101348Y054819D01*
X101148D01*
X101048Y054919D01*
Y055319D01*
X101648Y054819D02*
Y054919D01*
X101748D01*
Y054819D01*
X101648D01*
X102148Y055319D02*
X102248Y055419D01*
X102448D01*
X102548Y055319D01*
Y055219D01*
X102448Y055119D01*
X102348D01*
X102448D01*
X102548Y055019D01*
Y054919D01*
X102448Y054819D01*
X102248D01*
X102148Y054919D01*
X102748Y055319D02*
X102848Y055419D01*
X103048D01*
X103148Y055319D01*
Y054919D01*
X103048Y054819D01*
X102848D01*
X102748Y054919D01*
Y055319D01*
X103348D02*
X103448Y055419D01*
X103648D01*
X103748Y055319D01*
Y054919D01*
X103648Y054819D01*
X103448D01*
X103348Y054919D01*
Y055319D01*
X103948Y054819D02*
Y055219D01*
X104047D01*
X104147Y055119D01*
Y054819D01*
Y055119D01*
X104247Y055219D01*
X104347Y055119D01*
Y054819D01*
X104547D02*
Y055219D01*
X104647D01*
X104747Y055119D01*
Y054819D01*
Y055119D01*
X104847Y055219D01*
X104947Y055119D01*
Y054819D01*
X101048Y056519D02*
X101148Y056619D01*
X101348D01*
X101448Y056519D01*
Y056119D01*
X101348Y056019D01*
X101148D01*
X101048Y056119D01*
Y056519D01*
X101648Y056019D02*
Y056119D01*
X101748D01*
Y056019D01*
X101648D01*
X102148Y056519D02*
X102248Y056619D01*
X102448D01*
X102548Y056519D01*
Y056119D01*
X102448Y056019D01*
X102248D01*
X102148Y056119D01*
Y056519D01*
X102748Y056019D02*
X102948D01*
X102848D01*
Y056619D01*
X102748Y056519D01*
X103248D02*
X103348Y056619D01*
X103548D01*
X103648Y056519D01*
Y056419D01*
X103548Y056319D01*
X103648Y056219D01*
Y056119D01*
X103548Y056019D01*
X103348D01*
X103248Y056119D01*
Y056219D01*
X103348Y056319D01*
X103248Y056419D01*
Y056519D01*
X103348Y056319D02*
X103548D01*
X103848Y056019D02*
Y056419D01*
X103948D01*
X104047Y056319D01*
Y056019D01*
Y056319D01*
X104147Y056419D01*
X104247Y056319D01*
Y056019D01*
X104447D02*
Y056419D01*
X104547D01*
X104647Y056319D01*
Y056019D01*
Y056319D01*
X104747Y056419D01*
X104847Y056319D01*
Y056019D01*
X101048Y057719D02*
X101148Y057819D01*
X101348D01*
X101448Y057719D01*
Y057319D01*
X101348Y057219D01*
X101148D01*
X101048Y057319D01*
Y057719D01*
X101648Y057219D02*
Y057319D01*
X101748D01*
Y057219D01*
X101648D01*
X102148D02*
X102348D01*
X102248D01*
Y057819D01*
X102148Y057719D01*
X102648Y057219D02*
X102848D01*
X102748D01*
Y057819D01*
X102648Y057719D01*
X103148D02*
X103248Y057819D01*
X103448D01*
X103548Y057719D01*
Y057319D01*
X103448Y057219D01*
X103248D01*
X103148Y057319D01*
Y057719D01*
X103748Y057219D02*
Y057619D01*
X103848D01*
X103948Y057519D01*
Y057219D01*
Y057519D01*
X104047Y057619D01*
X104147Y057519D01*
Y057219D01*
X104347D02*
Y057619D01*
X104447D01*
X104547Y057519D01*
Y057219D01*
Y057519D01*
X104647Y057619D01*
X104747Y057519D01*
Y057219D01*
X101048Y058919D02*
X101148Y059019D01*
X101348D01*
X101448Y058919D01*
Y058519D01*
X101348Y058419D01*
X101148D01*
X101048Y058519D01*
Y058919D01*
X101648Y058419D02*
Y058519D01*
X101748D01*
Y058419D01*
X101648D01*
X102148Y058919D02*
X102248Y059019D01*
X102448D01*
X102548Y058919D01*
Y058519D01*
X102448Y058419D01*
X102248D01*
X102148Y058519D01*
Y058919D01*
X103148Y059019D02*
X102748D01*
Y058719D01*
X102948Y058819D01*
X103048D01*
X103148Y058719D01*
Y058519D01*
X103048Y058419D01*
X102848D01*
X102748Y058519D01*
X103348Y058919D02*
X103448Y059019D01*
X103648D01*
X103748Y058919D01*
Y058819D01*
X103648Y058719D01*
X103548D01*
X103648D01*
X103748Y058619D01*
Y058519D01*
X103648Y058419D01*
X103448D01*
X103348Y058519D01*
X103948Y058419D02*
Y058819D01*
X104047D01*
X104147Y058719D01*
Y058419D01*
Y058719D01*
X104247Y058819D01*
X104347Y058719D01*
Y058419D01*
X104547D02*
Y058819D01*
X104647D01*
X104747Y058719D01*
Y058419D01*
Y058719D01*
X104847Y058819D01*
X104947Y058719D01*
Y058419D01*
X101048Y060119D02*
X101148Y060219D01*
X101348D01*
X101448Y060119D01*
Y059719D01*
X101348Y059619D01*
X101148D01*
X101048Y059719D01*
Y060119D01*
X101648Y059619D02*
Y059719D01*
X101748D01*
Y059619D01*
X101648D01*
X102148Y060119D02*
X102248Y060219D01*
X102448D01*
X102548Y060119D01*
Y059719D01*
X102448Y059619D01*
X102248D01*
X102148Y059719D01*
Y060119D01*
X102748Y059619D02*
X102948D01*
X102848D01*
Y060219D01*
X102748Y060119D01*
X103248D02*
X103348Y060219D01*
X103548D01*
X103648Y060119D01*
Y059719D01*
X103548Y059619D01*
X103348D01*
X103248Y059719D01*
Y060119D01*
X103848Y059619D02*
Y060019D01*
X103948D01*
X104047Y059919D01*
Y059619D01*
Y059919D01*
X104147Y060019D01*
X104247Y059919D01*
Y059619D01*
X104447D02*
Y060019D01*
X104547D01*
X104647Y059919D01*
Y059619D01*
Y059919D01*
X104747Y060019D01*
X104847Y059919D01*
Y059619D01*
X107947Y062519D02*
X107847Y062619D01*
X107647D01*
X107547Y062519D01*
Y062119D01*
X107647Y062019D01*
X107847D01*
X107947Y062119D01*
X108247Y062019D02*
X108447D01*
X108546Y062119D01*
Y062319D01*
X108447Y062419D01*
X108247D01*
X108147Y062319D01*
Y062119D01*
X108247Y062019D01*
X108746D02*
Y062419D01*
X109046D01*
X109146Y062319D01*
Y062019D01*
X109346D02*
X109646D01*
X109746Y062119D01*
X109646Y062219D01*
X109446D01*
X109346Y062319D01*
X109446Y062419D01*
X109746D01*
X110046Y062519D02*
Y062419D01*
X109946D01*
X110146D01*
X110046D01*
Y062119D01*
X110146Y062019D01*
X110546Y062419D02*
X110746D01*
X110846Y062319D01*
Y062019D01*
X110546D01*
X110446Y062119D01*
X110546Y062219D01*
X110846D01*
X111046Y062019D02*
Y062419D01*
X111346D01*
X111446Y062319D01*
Y062019D01*
X111745Y062519D02*
Y062419D01*
X111645D01*
X111845D01*
X111745D01*
Y062119D01*
X111845Y062019D01*
X107547Y040919D02*
X107647Y041019D01*
X107847D01*
X107947Y040919D01*
Y040819D01*
X107847Y040719D01*
X107747D01*
X107847D01*
X107947Y040619D01*
Y040519D01*
X107847Y040419D01*
X107647D01*
X107547Y040519D01*
X108147Y040419D02*
Y040519D01*
X108247D01*
Y040419D01*
X108147D01*
X109046Y041019D02*
X108646D01*
Y040719D01*
X108846Y040819D01*
X108946D01*
X109046Y040719D01*
Y040519D01*
X108946Y040419D01*
X108746D01*
X108646Y040519D01*
X107847Y042819D02*
Y043419D01*
X107547Y043119D01*
X107947D01*
X108147Y042819D02*
Y042919D01*
X108247D01*
Y042819D01*
X108147D01*
X109046D02*
X108646D01*
X109046Y043219D01*
Y043319D01*
X108946Y043419D01*
X108746D01*
X108646Y043319D01*
X107847Y045219D02*
Y045819D01*
X107547Y045519D01*
X107947D01*
X108147Y045219D02*
Y045319D01*
X108247D01*
Y045219D01*
X108147D01*
X109046D02*
X108646D01*
X109046Y045619D01*
Y045719D01*
X108946Y045819D01*
X108746D01*
X108646Y045719D01*
X107847Y047619D02*
Y048219D01*
X107547Y047919D01*
X107947D01*
X108147Y047619D02*
Y047719D01*
X108247D01*
Y047619D01*
X108147D01*
X109046D02*
X108646D01*
X109046Y048019D01*
Y048119D01*
X108946Y048219D01*
X108746D01*
X108646Y048119D01*
X107847Y050019D02*
Y050619D01*
X107547Y050319D01*
X107947D01*
X108147Y050019D02*
Y050119D01*
X108247D01*
Y050019D01*
X108147D01*
X109046D02*
X108646D01*
X109046Y050419D01*
Y050519D01*
X108946Y050619D01*
X108746D01*
X108646Y050519D01*
X107847Y052419D02*
Y053019D01*
X107547Y052719D01*
X107947D01*
X108147Y052419D02*
Y052519D01*
X108247D01*
Y052419D01*
X108147D01*
X109046D02*
X108646D01*
X109046Y052819D01*
Y052919D01*
X108946Y053019D01*
X108746D01*
X108646Y052919D01*
X107847Y054819D02*
Y055419D01*
X107547Y055119D01*
X107947D01*
X108147Y054819D02*
Y054919D01*
X108247D01*
Y054819D01*
X108147D01*
X109046D02*
X108646D01*
X109046Y055219D01*
Y055319D01*
X108946Y055419D01*
X108746D01*
X108646Y055319D01*
X107847Y057219D02*
Y057819D01*
X107547Y057519D01*
X107947D01*
X108147Y057219D02*
Y057319D01*
X108247D01*
Y057219D01*
X108147D01*
X109046D02*
X108646D01*
X109046Y057619D01*
Y057719D01*
X108946Y057819D01*
X108746D01*
X108646Y057719D01*
X107547Y060119D02*
X107647Y060219D01*
X107847D01*
X107947Y060119D01*
Y060019D01*
X107847Y059919D01*
X107747D01*
X107847D01*
X107947Y059819D01*
Y059719D01*
X107847Y059619D01*
X107647D01*
X107547Y059719D01*
X108147Y059619D02*
Y059719D01*
X108247D01*
Y059619D01*
X108147D01*
X109046Y060219D02*
X108646D01*
Y059919D01*
X108846Y060019D01*
X108946D01*
X109046Y059919D01*
Y059719D01*
X108946Y059619D01*
X108746D01*
X108646Y059719D01*
X113245Y062619D02*
Y062019D01*
X113545D01*
X113645Y062119D01*
Y062219D01*
X113545Y062319D01*
X113245D01*
X113545D01*
X113645Y062419D01*
Y062519D01*
X113545Y062619D01*
X113245D01*
X113945Y062019D02*
X114145D01*
X114245Y062119D01*
Y062319D01*
X114145Y062419D01*
X113945D01*
X113845Y062319D01*
Y062119D01*
X113945Y062019D01*
X114545Y062419D02*
X114745D01*
X114845Y062319D01*
Y062019D01*
X114545D01*
X114445Y062119D01*
X114545Y062219D01*
X114845D01*
X115045Y062419D02*
Y062019D01*
Y062219D01*
X115145Y062319D01*
X115245Y062419D01*
X115345D01*
X116045Y062619D02*
Y062019D01*
X115745D01*
X115645Y062119D01*
Y062319D01*
X115745Y062419D01*
X116045D01*
X116844Y062619D02*
Y062019D01*
X117244D01*
X117544Y062419D02*
X117744D01*
X117844Y062319D01*
Y062019D01*
X117544D01*
X117444Y062119D01*
X117544Y062219D01*
X117844D01*
X118044Y062419D02*
Y062119D01*
X118144Y062019D01*
X118444D01*
Y061919D01*
X118344Y061819D01*
X118244D01*
X118444Y062019D02*
Y062419D01*
X118944Y062019D02*
X118744D01*
X118644Y062119D01*
Y062319D01*
X118744Y062419D01*
X118944D01*
X119044Y062319D01*
Y062219D01*
X118644D01*
X119243Y062419D02*
Y062019D01*
Y062219D01*
X119343Y062319D01*
X119443Y062419D01*
X119543D01*
X120843Y062519D02*
X120743Y062619D01*
X120543D01*
X120443Y062519D01*
Y062419D01*
X120543Y062319D01*
X120743D01*
X120843Y062219D01*
Y062119D01*
X120743Y062019D01*
X120543D01*
X120443Y062119D01*
X121143Y062519D02*
Y062419D01*
X121043D01*
X121243D01*
X121143D01*
Y062119D01*
X121243Y062019D01*
X121643Y062419D02*
X121843D01*
X121943Y062319D01*
Y062019D01*
X121643D01*
X121543Y062119D01*
X121643Y062219D01*
X121943D01*
X122542Y062419D02*
X122243D01*
X122143Y062319D01*
Y062119D01*
X122243Y062019D01*
X122542D01*
X122742D02*
Y062619D01*
Y062219D02*
X123042Y062419D01*
X122742Y062219D02*
X123042Y062019D01*
X124442Y062619D02*
Y062019D01*
X124742D01*
X124842Y062119D01*
Y062219D01*
X124742Y062319D01*
X124442D01*
X124742D01*
X124842Y062419D01*
Y062519D01*
X124742Y062619D01*
X124442D01*
X125142Y062019D02*
X125342D01*
X125442Y062119D01*
Y062319D01*
X125342Y062419D01*
X125142D01*
X125042Y062319D01*
Y062119D01*
X125142Y062019D01*
X125742Y062419D02*
X125942D01*
X126042Y062319D01*
Y062019D01*
X125742D01*
X125642Y062119D01*
X125742Y062219D01*
X126042D01*
X126242Y062419D02*
Y062019D01*
Y062219D01*
X126342Y062319D01*
X126442Y062419D01*
X126542D01*
X127241Y062619D02*
Y062019D01*
X126941D01*
X126841Y062119D01*
Y062319D01*
X126941Y062419D01*
X127241D01*
X128041Y062619D02*
Y062019D01*
X128441D01*
X128741Y062419D02*
X128941D01*
X129041Y062319D01*
Y062019D01*
X128741D01*
X128641Y062119D01*
X128741Y062219D01*
X129041D01*
X129241Y062419D02*
Y062119D01*
X129341Y062019D01*
X129641D01*
Y061919D01*
X129541Y061819D01*
X129441D01*
X129641Y062019D02*
Y062419D01*
X130140Y062019D02*
X129940D01*
X129840Y062119D01*
Y062319D01*
X129940Y062419D01*
X130140D01*
X130240Y062319D01*
Y062219D01*
X129840D01*
X130440Y062419D02*
Y062019D01*
Y062219D01*
X130540Y062319D01*
X130640Y062419D01*
X130740D01*
X132040Y062519D02*
X131940Y062619D01*
X131740D01*
X131640Y062519D01*
Y062419D01*
X131740Y062319D01*
X131940D01*
X132040Y062219D01*
Y062119D01*
X131940Y062019D01*
X131740D01*
X131640Y062119D01*
X132340Y062519D02*
Y062419D01*
X132240D01*
X132440D01*
X132340D01*
Y062119D01*
X132440Y062019D01*
X132840Y062419D02*
X133039D01*
X133139Y062319D01*
Y062019D01*
X132840D01*
X132740Y062119D01*
X132840Y062219D01*
X133139D01*
X133739Y062419D02*
X133439D01*
X133339Y062319D01*
Y062119D01*
X133439Y062019D01*
X133739D01*
X133939D02*
Y062619D01*
Y062219D02*
X134239Y062419D01*
X133939Y062219D02*
X134239Y062019D01*
D203*
X078454Y061719D02*
X135039D01*
X078454Y062919D02*
X135039D01*
X078454Y038919D02*
Y062919D01*
Y038919D02*
X082553D01*
X078454Y040119D02*
X082553D01*
X078454Y041319D02*
X082553D01*
X078454Y042519D02*
X082553D01*
X078454Y043719D02*
X082553D01*
X078454Y044919D02*
X082553D01*
X078454Y046119D02*
X082553D01*
X078454Y047319D02*
X082553D01*
X078454Y048519D02*
X082553D01*
X078454Y049719D02*
X082553D01*
X078454Y050919D02*
X082553D01*
X078454Y052119D02*
X082553D01*
X078454Y053319D02*
X082553D01*
X078454Y054519D02*
X082553D01*
X078454Y055719D02*
X082553D01*
X078454Y056919D02*
X082553D01*
X078454Y058119D02*
X082553D01*
X078454Y059319D02*
X082553D01*
X078454Y060519D02*
X082553D01*
Y038919D02*
Y062919D01*
Y038919D02*
X091851D01*
X082553Y040119D02*
X091851D01*
X082553Y041319D02*
X091851D01*
X082553Y042519D02*
X091851D01*
X082553Y043719D02*
X091851D01*
X082553Y044919D02*
X091851D01*
X082553Y046119D02*
X091851D01*
X082553Y047319D02*
X091851D01*
X082553Y048519D02*
X091851D01*
X082553Y049719D02*
X091851D01*
X082553Y050919D02*
X091851D01*
X082553Y052119D02*
X091851D01*
X082553Y053319D02*
X091851D01*
X082553Y054519D02*
X091851D01*
X082553Y055719D02*
X091851D01*
X082553Y056919D02*
X091851D01*
X082553Y058119D02*
X091851D01*
X082553Y059319D02*
X091851D01*
X082553Y060519D02*
X091851D01*
Y038919D02*
Y062919D01*
Y038919D02*
X100448D01*
X091851Y040119D02*
X100448D01*
X091851Y041319D02*
X100448D01*
X091851Y042519D02*
X100448D01*
X091851Y043719D02*
X100448D01*
X091851Y044919D02*
X100448D01*
X091851Y046119D02*
X100448D01*
X091851Y047319D02*
X100448D01*
X091851Y048519D02*
X100448D01*
X091851Y049719D02*
X100448D01*
X091851Y050919D02*
X100448D01*
X091851Y052119D02*
X100448D01*
X091851Y053319D02*
X100448D01*
X091851Y054519D02*
X100448D01*
X091851Y055719D02*
X100448D01*
X091851Y056919D02*
X100448D01*
X091851Y058119D02*
X100448D01*
X091851Y059319D02*
X100448D01*
X091851Y060519D02*
X100448D01*
Y038919D02*
Y062919D01*
Y038919D02*
X106947D01*
X100448Y040119D02*
X106947D01*
X100448Y041319D02*
X106947D01*
X100448Y042519D02*
X106947D01*
X100448Y043719D02*
X106947D01*
X100448Y044919D02*
X106947D01*
X100448Y046119D02*
X106947D01*
X100448Y047319D02*
X106947D01*
X100448Y048519D02*
X106947D01*
X100448Y049719D02*
X106947D01*
X100448Y050919D02*
X106947D01*
X100448Y052119D02*
X106947D01*
X100448Y053319D02*
X106947D01*
X100448Y054519D02*
X106947D01*
X100448Y055719D02*
X106947D01*
X100448Y056919D02*
X106947D01*
X100448Y058119D02*
X106947D01*
X100448Y059319D02*
X106947D01*
X100448Y060519D02*
X106947D01*
Y038919D02*
Y062919D01*
Y038919D02*
X112645D01*
X106947Y040119D02*
X112645D01*
X106947Y041319D02*
X112645D01*
X106947Y042519D02*
X112645D01*
X106947Y043719D02*
X112645D01*
X106947Y044919D02*
X112645D01*
X106947Y046119D02*
X112645D01*
X106947Y047319D02*
X112645D01*
X106947Y048519D02*
X112645D01*
X106947Y049719D02*
X112645D01*
X106947Y050919D02*
X112645D01*
X106947Y052119D02*
X112645D01*
X106947Y053319D02*
X112645D01*
X106947Y054519D02*
X112645D01*
X106947Y055719D02*
X112645D01*
X106947Y056919D02*
X112645D01*
X106947Y058119D02*
X112645D01*
X106947Y059319D02*
X112645D01*
X106947Y060519D02*
X112645D01*
Y038919D02*
Y062919D01*
Y038919D02*
X123842D01*
X112645Y040119D02*
X123842D01*
X112645Y041319D02*
X123842D01*
X112645Y042519D02*
X123842D01*
X112645Y043719D02*
X123842D01*
X112645Y044919D02*
X123842D01*
X112645Y046119D02*
X123842D01*
X112645Y047319D02*
X123842D01*
X112645Y048519D02*
X123842D01*
X112645Y049719D02*
X123842D01*
X112645Y050919D02*
X123842D01*
X112645Y052119D02*
X123842D01*
X112645Y053319D02*
X123842D01*
X112645Y054519D02*
X123842D01*
X112645Y055719D02*
X123842D01*
X112645Y056919D02*
X123842D01*
X112645Y058119D02*
X123842D01*
X112645Y059319D02*
X123842D01*
X112645Y060519D02*
X123842D01*
Y038919D02*
Y062919D01*
Y038919D02*
X135039D01*
X123842Y040119D02*
X135039D01*
X123842Y041319D02*
X135039D01*
X123842Y042519D02*
X135039D01*
X123842Y043719D02*
X135039D01*
X123842Y044919D02*
X135039D01*
X123842Y046119D02*
X135039D01*
X123842Y047319D02*
X135039D01*
X123842Y048519D02*
X135039D01*
X123842Y049719D02*
X135039D01*
X123842Y050919D02*
X135039D01*
X123842Y052119D02*
X135039D01*
X123842Y053319D02*
X135039D01*
X123842Y054519D02*
X135039D01*
X123842Y055719D02*
X135039D01*
X123842Y056919D02*
X135039D01*
X123842Y058119D02*
X135039D01*
X123842Y059319D02*
X135039D01*
X123842Y060519D02*
X135039D01*
Y038919D02*
Y062919D01*
D204*
X123242Y038919D02*
X123842Y039519D01*
X122642Y038919D02*
X123842Y040119D01*
X122042Y038919D02*
X123242Y040119D01*
X121442Y038919D02*
X122642Y040119D01*
X120842Y038919D02*
X122042Y040119D01*
X120242Y038919D02*
X121442Y040119D01*
X119642Y038919D02*
X120842Y040119D01*
X119042Y038919D02*
X120242Y040119D01*
X118442Y038919D02*
X119642Y040119D01*
X117842Y038919D02*
X119042Y040119D01*
X117242Y038919D02*
X118442Y040119D01*
X116642Y038919D02*
X117842Y040119D01*
X116042Y038919D02*
X117242Y040119D01*
X115442Y038919D02*
X116642Y040119D01*
X114842Y038919D02*
X116042Y040119D01*
X114242Y038919D02*
X115442Y040119D01*
X113642Y038919D02*
X114842Y040119D01*
X113042Y038919D02*
X114242Y040119D01*
X112645Y039122D02*
X113642Y040119D01*
X112645Y039722D02*
X113042Y040119D01*
X123242D02*
X123842Y040719D01*
X122642Y040119D02*
X123842Y041319D01*
X122042Y040119D02*
X123242Y041319D01*
X121442Y040119D02*
X122642Y041319D01*
X120842Y040119D02*
X122042Y041319D01*
X120242Y040119D02*
X121442Y041319D01*
X119642Y040119D02*
X120842Y041319D01*
X119042Y040119D02*
X120242Y041319D01*
X118442Y040119D02*
X119642Y041319D01*
X117842Y040119D02*
X119042Y041319D01*
X117242Y040119D02*
X118442Y041319D01*
X116642Y040119D02*
X117842Y041319D01*
X116042Y040119D02*
X117242Y041319D01*
X115442Y040119D02*
X116642Y041319D01*
X114842Y040119D02*
X116042Y041319D01*
X114242Y040119D02*
X115442Y041319D01*
X113642Y040119D02*
X114842Y041319D01*
X113042Y040119D02*
X114242Y041319D01*
X112645Y040322D02*
X113642Y041319D01*
X112645Y040922D02*
X113042Y041319D01*
X123242D02*
X123842Y041919D01*
X122642Y041319D02*
X123842Y042519D01*
X122042Y041319D02*
X123242Y042519D01*
X121442Y041319D02*
X122642Y042519D01*
X120842Y041319D02*
X122042Y042519D01*
X120242Y041319D02*
X121442Y042519D01*
X119642Y041319D02*
X120842Y042519D01*
X119042Y041319D02*
X120242Y042519D01*
X118442Y041319D02*
X119642Y042519D01*
X117842Y041319D02*
X119042Y042519D01*
X117242Y041319D02*
X118442Y042519D01*
X116642Y041319D02*
X117842Y042519D01*
X116042Y041319D02*
X117242Y042519D01*
X115442Y041319D02*
X116642Y042519D01*
X114842Y041319D02*
X116042Y042519D01*
X114242Y041319D02*
X115442Y042519D01*
X113642Y041319D02*
X114842Y042519D01*
X113042Y041319D02*
X114242Y042519D01*
X112645Y041522D02*
X113642Y042519D01*
X112645Y042122D02*
X113042Y042519D01*
X123242D02*
X123842Y043119D01*
X122642Y042519D02*
X123842Y043719D01*
X122042Y042519D02*
X123242Y043719D01*
X121442Y042519D02*
X122642Y043719D01*
X120842Y042519D02*
X122042Y043719D01*
X120242Y042519D02*
X121442Y043719D01*
X119642Y042519D02*
X120842Y043719D01*
X119042Y042519D02*
X120242Y043719D01*
X118442Y042519D02*
X119642Y043719D01*
X117842Y042519D02*
X119042Y043719D01*
X117242Y042519D02*
X118442Y043719D01*
X116642Y042519D02*
X117842Y043719D01*
X116042Y042519D02*
X117242Y043719D01*
X115442Y042519D02*
X116642Y043719D01*
X114842Y042519D02*
X116042Y043719D01*
X114242Y042519D02*
X115442Y043719D01*
X113642Y042519D02*
X114842Y043719D01*
X113042Y042519D02*
X114242Y043719D01*
X112645Y042722D02*
X113642Y043719D01*
X112645Y043322D02*
X113042Y043719D01*
X123242D02*
X123842Y044319D01*
X122642Y043719D02*
X123842Y044919D01*
X122042Y043719D02*
X123242Y044919D01*
X121442Y043719D02*
X122642Y044919D01*
X120842Y043719D02*
X122042Y044919D01*
X120242Y043719D02*
X121442Y044919D01*
X119642Y043719D02*
X120842Y044919D01*
X119042Y043719D02*
X120242Y044919D01*
X118442Y043719D02*
X119642Y044919D01*
X117842Y043719D02*
X119042Y044919D01*
X117242Y043719D02*
X118442Y044919D01*
X116642Y043719D02*
X117842Y044919D01*
X116042Y043719D02*
X117242Y044919D01*
X115442Y043719D02*
X116642Y044919D01*
X114842Y043719D02*
X116042Y044919D01*
X114242Y043719D02*
X115442Y044919D01*
X113642Y043719D02*
X114842Y044919D01*
X113042Y043719D02*
X114242Y044919D01*
X112645Y043922D02*
X113642Y044919D01*
X112645Y044522D02*
X113042Y044919D01*
X123242D02*
X123842Y045519D01*
X122642Y044919D02*
X123842Y046119D01*
X122042Y044919D02*
X123242Y046119D01*
X121442Y044919D02*
X122642Y046119D01*
X120842Y044919D02*
X122042Y046119D01*
X120242Y044919D02*
X121442Y046119D01*
X119642Y044919D02*
X120842Y046119D01*
X119042Y044919D02*
X120242Y046119D01*
X118442Y044919D02*
X119642Y046119D01*
X117842Y044919D02*
X119042Y046119D01*
X117242Y044919D02*
X118442Y046119D01*
X116642Y044919D02*
X117842Y046119D01*
X116042Y044919D02*
X117242Y046119D01*
X115442Y044919D02*
X116642Y046119D01*
X114842Y044919D02*
X116042Y046119D01*
X114242Y044919D02*
X115442Y046119D01*
X113642Y044919D02*
X114842Y046119D01*
X113042Y044919D02*
X114242Y046119D01*
X112645Y045122D02*
X113642Y046119D01*
X112645Y045722D02*
X113042Y046119D01*
X123242D02*
X123842Y046719D01*
X122642Y046119D02*
X123842Y047319D01*
X122042Y046119D02*
X123242Y047319D01*
X121442Y046119D02*
X122642Y047319D01*
X120842Y046119D02*
X122042Y047319D01*
X120242Y046119D02*
X121442Y047319D01*
X119642Y046119D02*
X120842Y047319D01*
X119042Y046119D02*
X120242Y047319D01*
X118442Y046119D02*
X119642Y047319D01*
X117842Y046119D02*
X119042Y047319D01*
X117242Y046119D02*
X118442Y047319D01*
X116642Y046119D02*
X117842Y047319D01*
X116042Y046119D02*
X117242Y047319D01*
X115442Y046119D02*
X116642Y047319D01*
X114842Y046119D02*
X116042Y047319D01*
X114242Y046119D02*
X115442Y047319D01*
X113642Y046119D02*
X114842Y047319D01*
X113042Y046119D02*
X114242Y047319D01*
X112645Y046322D02*
X113642Y047319D01*
X112645Y046922D02*
X113042Y047319D01*
X123242D02*
X123842Y047919D01*
X122642Y047319D02*
X123842Y048519D01*
X122042Y047319D02*
X123242Y048519D01*
X121442Y047319D02*
X122642Y048519D01*
X120842Y047319D02*
X122042Y048519D01*
X120242Y047319D02*
X121442Y048519D01*
X119642Y047319D02*
X120842Y048519D01*
X119042Y047319D02*
X120242Y048519D01*
X118442Y047319D02*
X119642Y048519D01*
X117842Y047319D02*
X119042Y048519D01*
X117242Y047319D02*
X118442Y048519D01*
X116642Y047319D02*
X117842Y048519D01*
X116042Y047319D02*
X117242Y048519D01*
X115442Y047319D02*
X116642Y048519D01*
X114842Y047319D02*
X116042Y048519D01*
X114242Y047319D02*
X115442Y048519D01*
X113642Y047319D02*
X114842Y048519D01*
X113042Y047319D02*
X114242Y048519D01*
X112645Y047522D02*
X113642Y048519D01*
X112645Y048122D02*
X113042Y048519D01*
X123242D02*
X123842Y049119D01*
X122642Y048519D02*
X123842Y049719D01*
X122042Y048519D02*
X123242Y049719D01*
X121442Y048519D02*
X122642Y049719D01*
X120842Y048519D02*
X122042Y049719D01*
X120242Y048519D02*
X121442Y049719D01*
X119642Y048519D02*
X120842Y049719D01*
X119042Y048519D02*
X120242Y049719D01*
X118442Y048519D02*
X119642Y049719D01*
X117842Y048519D02*
X119042Y049719D01*
X117242Y048519D02*
X118442Y049719D01*
X116642Y048519D02*
X117842Y049719D01*
X116042Y048519D02*
X117242Y049719D01*
X115442Y048519D02*
X116642Y049719D01*
X114842Y048519D02*
X116042Y049719D01*
X114242Y048519D02*
X115442Y049719D01*
X113642Y048519D02*
X114842Y049719D01*
X113042Y048519D02*
X114242Y049719D01*
X112645Y048722D02*
X113642Y049719D01*
X112645Y049322D02*
X113042Y049719D01*
X123242D02*
X123842Y050319D01*
X122642Y049719D02*
X123842Y050919D01*
X122042Y049719D02*
X123242Y050919D01*
X121442Y049719D02*
X122642Y050919D01*
X120842Y049719D02*
X122042Y050919D01*
X120242Y049719D02*
X121442Y050919D01*
X119642Y049719D02*
X120842Y050919D01*
X119042Y049719D02*
X120242Y050919D01*
X118442Y049719D02*
X119642Y050919D01*
X117842Y049719D02*
X119042Y050919D01*
X117242Y049719D02*
X118442Y050919D01*
X116642Y049719D02*
X117842Y050919D01*
X116042Y049719D02*
X117242Y050919D01*
X115442Y049719D02*
X116642Y050919D01*
X114842Y049719D02*
X116042Y050919D01*
X114242Y049719D02*
X115442Y050919D01*
X113642Y049719D02*
X114842Y050919D01*
X113042Y049719D02*
X114242Y050919D01*
X112645Y049922D02*
X113642Y050919D01*
X112645Y050522D02*
X113042Y050919D01*
X123242D02*
X123842Y051519D01*
X122642Y050919D02*
X123842Y052119D01*
X122042Y050919D02*
X123242Y052119D01*
X121442Y050919D02*
X122642Y052119D01*
X120842Y050919D02*
X122042Y052119D01*
X120242Y050919D02*
X121442Y052119D01*
X119642Y050919D02*
X120842Y052119D01*
X119042Y050919D02*
X120242Y052119D01*
X118442Y050919D02*
X119642Y052119D01*
X117842Y050919D02*
X119042Y052119D01*
X117242Y050919D02*
X118442Y052119D01*
X116642Y050919D02*
X117842Y052119D01*
X116042Y050919D02*
X117242Y052119D01*
X115442Y050919D02*
X116642Y052119D01*
X114842Y050919D02*
X116042Y052119D01*
X114242Y050919D02*
X115442Y052119D01*
X113642Y050919D02*
X114842Y052119D01*
X113042Y050919D02*
X114242Y052119D01*
X112645Y051122D02*
X113642Y052119D01*
X112645Y051722D02*
X113042Y052119D01*
X123242D02*
X123842Y052719D01*
X122642Y052119D02*
X123842Y053319D01*
X122042Y052119D02*
X123242Y053319D01*
X121442Y052119D02*
X122642Y053319D01*
X120842Y052119D02*
X122042Y053319D01*
X120242Y052119D02*
X121442Y053319D01*
X119642Y052119D02*
X120842Y053319D01*
X119042Y052119D02*
X120242Y053319D01*
X118442Y052119D02*
X119642Y053319D01*
X117842Y052119D02*
X119042Y053319D01*
X117242Y052119D02*
X118442Y053319D01*
X116642Y052119D02*
X117842Y053319D01*
X116042Y052119D02*
X117242Y053319D01*
X115442Y052119D02*
X116642Y053319D01*
X114842Y052119D02*
X116042Y053319D01*
X114242Y052119D02*
X115442Y053319D01*
X113642Y052119D02*
X114842Y053319D01*
X113042Y052119D02*
X114242Y053319D01*
X112645Y052322D02*
X113642Y053319D01*
X112645Y052922D02*
X113042Y053319D01*
X123242D02*
X123842Y053919D01*
X122642Y053319D02*
X123842Y054519D01*
X122042Y053319D02*
X123242Y054519D01*
X121442Y053319D02*
X122642Y054519D01*
X120842Y053319D02*
X122042Y054519D01*
X120242Y053319D02*
X121442Y054519D01*
X119642Y053319D02*
X120842Y054519D01*
X119042Y053319D02*
X120242Y054519D01*
X118442Y053319D02*
X119642Y054519D01*
X117842Y053319D02*
X119042Y054519D01*
X117242Y053319D02*
X118442Y054519D01*
X116642Y053319D02*
X117842Y054519D01*
X116042Y053319D02*
X117242Y054519D01*
X115442Y053319D02*
X116642Y054519D01*
X114842Y053319D02*
X116042Y054519D01*
X114242Y053319D02*
X115442Y054519D01*
X113642Y053319D02*
X114842Y054519D01*
X113042Y053319D02*
X114242Y054519D01*
X112645Y053522D02*
X113642Y054519D01*
X112645Y054122D02*
X113042Y054519D01*
X123242D02*
X123842Y055119D01*
X122642Y054519D02*
X123842Y055719D01*
X122042Y054519D02*
X123242Y055719D01*
X121442Y054519D02*
X122642Y055719D01*
X120842Y054519D02*
X122042Y055719D01*
X120242Y054519D02*
X121442Y055719D01*
X119642Y054519D02*
X120842Y055719D01*
X119042Y054519D02*
X120242Y055719D01*
X118442Y054519D02*
X119642Y055719D01*
X117842Y054519D02*
X119042Y055719D01*
X117242Y054519D02*
X118442Y055719D01*
X116642Y054519D02*
X117842Y055719D01*
X116042Y054519D02*
X117242Y055719D01*
X115442Y054519D02*
X116642Y055719D01*
X114842Y054519D02*
X116042Y055719D01*
X114242Y054519D02*
X115442Y055719D01*
X113642Y054519D02*
X114842Y055719D01*
X113042Y054519D02*
X114242Y055719D01*
X112645Y054722D02*
X113642Y055719D01*
X112645Y055322D02*
X113042Y055719D01*
X123242D02*
X123842Y056319D01*
X122642Y055719D02*
X123842Y056919D01*
X122042Y055719D02*
X123242Y056919D01*
X121442Y055719D02*
X122642Y056919D01*
X120842Y055719D02*
X122042Y056919D01*
X120242Y055719D02*
X121442Y056919D01*
X119642Y055719D02*
X120842Y056919D01*
X119042Y055719D02*
X120242Y056919D01*
X118442Y055719D02*
X119642Y056919D01*
X117842Y055719D02*
X119042Y056919D01*
X117242Y055719D02*
X118442Y056919D01*
X116642Y055719D02*
X117842Y056919D01*
X116042Y055719D02*
X117242Y056919D01*
X115442Y055719D02*
X116642Y056919D01*
X114842Y055719D02*
X116042Y056919D01*
X114242Y055719D02*
X115442Y056919D01*
X113642Y055719D02*
X114842Y056919D01*
X113042Y055719D02*
X114242Y056919D01*
X112645Y055922D02*
X113642Y056919D01*
X112645Y056522D02*
X113042Y056919D01*
X123242D02*
X123842Y057519D01*
X122642Y056919D02*
X123842Y058119D01*
X122042Y056919D02*
X123242Y058119D01*
X121442Y056919D02*
X122642Y058119D01*
X120842Y056919D02*
X122042Y058119D01*
X120242Y056919D02*
X121442Y058119D01*
X119642Y056919D02*
X120842Y058119D01*
X119042Y056919D02*
X120242Y058119D01*
X118442Y056919D02*
X119642Y058119D01*
X117842Y056919D02*
X119042Y058119D01*
X117242Y056919D02*
X118442Y058119D01*
X116642Y056919D02*
X117842Y058119D01*
X116042Y056919D02*
X117242Y058119D01*
X115442Y056919D02*
X116642Y058119D01*
X114842Y056919D02*
X116042Y058119D01*
X114242Y056919D02*
X115442Y058119D01*
X113642Y056919D02*
X114842Y058119D01*
X113042Y056919D02*
X114242Y058119D01*
X112645Y057122D02*
X113642Y058119D01*
X112645Y057722D02*
X113042Y058119D01*
X123242D02*
X123842Y058719D01*
X122642Y058119D02*
X123842Y059319D01*
X122042Y058119D02*
X123242Y059319D01*
X121442Y058119D02*
X122642Y059319D01*
X120842Y058119D02*
X122042Y059319D01*
X120242Y058119D02*
X121442Y059319D01*
X119642Y058119D02*
X120842Y059319D01*
X119042Y058119D02*
X120242Y059319D01*
X118442Y058119D02*
X119642Y059319D01*
X117842Y058119D02*
X119042Y059319D01*
X117242Y058119D02*
X118442Y059319D01*
X116642Y058119D02*
X117842Y059319D01*
X116042Y058119D02*
X117242Y059319D01*
X115442Y058119D02*
X116642Y059319D01*
X114842Y058119D02*
X116042Y059319D01*
X114242Y058119D02*
X115442Y059319D01*
X113642Y058119D02*
X114842Y059319D01*
X113042Y058119D02*
X114242Y059319D01*
X112645Y058322D02*
X113642Y059319D01*
X112645Y058922D02*
X113042Y059319D01*
X123242D02*
X123842Y059919D01*
X122642Y059319D02*
X123842Y060519D01*
X122042Y059319D02*
X123242Y060519D01*
X121442Y059319D02*
X122642Y060519D01*
X120842Y059319D02*
X122042Y060519D01*
X120242Y059319D02*
X121442Y060519D01*
X119642Y059319D02*
X120842Y060519D01*
X119042Y059319D02*
X120242Y060519D01*
X118442Y059319D02*
X119642Y060519D01*
X117842Y059319D02*
X119042Y060519D01*
X117242Y059319D02*
X118442Y060519D01*
X116642Y059319D02*
X117842Y060519D01*
X116042Y059319D02*
X117242Y060519D01*
X115442Y059319D02*
X116642Y060519D01*
X114842Y059319D02*
X116042Y060519D01*
X114242Y059319D02*
X115442Y060519D01*
X113642Y059319D02*
X114842Y060519D01*
X113042Y059319D02*
X114242Y060519D01*
X112645Y059522D02*
X113642Y060519D01*
X112645Y060122D02*
X113042Y060519D01*
X123242D02*
X123842Y061119D01*
X122642Y060519D02*
X123842Y061719D01*
X122042Y060519D02*
X123242Y061719D01*
X121442Y060519D02*
X122642Y061719D01*
X120842Y060519D02*
X122042Y061719D01*
X120242Y060519D02*
X121442Y061719D01*
X119642Y060519D02*
X120842Y061719D01*
X119042Y060519D02*
X120242Y061719D01*
X118442Y060519D02*
X119642Y061719D01*
X117842Y060519D02*
X119042Y061719D01*
X117242Y060519D02*
X118442Y061719D01*
X116642Y060519D02*
X117842Y061719D01*
X116042Y060519D02*
X117242Y061719D01*
X115442Y060519D02*
X116642Y061719D01*
X114842Y060519D02*
X116042Y061719D01*
X114242Y060519D02*
X115442Y061719D01*
X113642Y060519D02*
X114842Y061719D01*
X113042Y060519D02*
X114242Y061719D01*
X112645Y060722D02*
X113642Y061719D01*
X112645Y061322D02*
X113042Y061719D01*
X123842Y039519D02*
X124442Y038919D01*
X123842Y040119D02*
X125042Y038919D01*
X124442Y040119D02*
X125642Y038919D01*
X125042Y040119D02*
X126242Y038919D01*
X125642Y040119D02*
X126842Y038919D01*
X126242Y040119D02*
X127442Y038919D01*
X126842Y040119D02*
X128042Y038919D01*
X127442Y040119D02*
X128642Y038919D01*
X128042Y040119D02*
X129242Y038919D01*
X128642Y040119D02*
X129842Y038919D01*
X129242Y040119D02*
X130442Y038919D01*
X129842Y040119D02*
X131042Y038919D01*
X130442Y040119D02*
X131642Y038919D01*
X131042Y040119D02*
X132242Y038919D01*
X131642Y040119D02*
X132842Y038919D01*
X132242Y040119D02*
X133442Y038919D01*
X132842Y040119D02*
X134042Y038919D01*
X133442Y040119D02*
X134642Y038919D01*
X134042Y040119D02*
X135039Y039122D01*
X134642Y040119D02*
X135039Y039722D01*
X123842Y040719D02*
X124442Y040119D01*
X123842Y041319D02*
X125042Y040119D01*
X124442Y041319D02*
X125642Y040119D01*
X125042Y041319D02*
X126242Y040119D01*
X125642Y041319D02*
X126842Y040119D01*
X126242Y041319D02*
X127442Y040119D01*
X126842Y041319D02*
X128042Y040119D01*
X127442Y041319D02*
X128642Y040119D01*
X128042Y041319D02*
X129242Y040119D01*
X128642Y041319D02*
X129842Y040119D01*
X129242Y041319D02*
X130442Y040119D01*
X129842Y041319D02*
X131042Y040119D01*
X130442Y041319D02*
X131642Y040119D01*
X131042Y041319D02*
X132242Y040119D01*
X131642Y041319D02*
X132842Y040119D01*
X132242Y041319D02*
X133442Y040119D01*
X132842Y041319D02*
X134042Y040119D01*
X133442Y041319D02*
X134642Y040119D01*
X134042Y041319D02*
X135039Y040322D01*
X134642Y041319D02*
X135039Y040922D01*
X123842Y041919D02*
X124442Y041319D01*
X123842Y042519D02*
X125042Y041319D01*
X124442Y042519D02*
X125642Y041319D01*
X125042Y042519D02*
X126242Y041319D01*
X125642Y042519D02*
X126842Y041319D01*
X126242Y042519D02*
X127442Y041319D01*
X126842Y042519D02*
X128042Y041319D01*
X127442Y042519D02*
X128642Y041319D01*
X128042Y042519D02*
X129242Y041319D01*
X128642Y042519D02*
X129842Y041319D01*
X129242Y042519D02*
X130442Y041319D01*
X129842Y042519D02*
X131042Y041319D01*
X130442Y042519D02*
X131642Y041319D01*
X131042Y042519D02*
X132242Y041319D01*
X131642Y042519D02*
X132842Y041319D01*
X132242Y042519D02*
X133442Y041319D01*
X132842Y042519D02*
X134042Y041319D01*
X133442Y042519D02*
X134642Y041319D01*
X134042Y042519D02*
X135039Y041522D01*
X134642Y042519D02*
X135039Y042122D01*
X123842Y043119D02*
X124442Y042519D01*
X123842Y043719D02*
X125042Y042519D01*
X124442Y043719D02*
X125642Y042519D01*
X125042Y043719D02*
X126242Y042519D01*
X125642Y043719D02*
X126842Y042519D01*
X126242Y043719D02*
X127442Y042519D01*
X126842Y043719D02*
X128042Y042519D01*
X127442Y043719D02*
X128642Y042519D01*
X128042Y043719D02*
X129242Y042519D01*
X128642Y043719D02*
X129842Y042519D01*
X129242Y043719D02*
X130442Y042519D01*
X129842Y043719D02*
X131042Y042519D01*
X130442Y043719D02*
X131642Y042519D01*
X131042Y043719D02*
X132242Y042519D01*
X131642Y043719D02*
X132842Y042519D01*
X132242Y043719D02*
X133442Y042519D01*
X132842Y043719D02*
X134042Y042519D01*
X133442Y043719D02*
X134642Y042519D01*
X134042Y043719D02*
X135039Y042722D01*
X134642Y043719D02*
X135039Y043322D01*
X123842Y044319D02*
X124442Y043719D01*
X123842Y044919D02*
X125042Y043719D01*
X124442Y044919D02*
X125642Y043719D01*
X125042Y044919D02*
X126242Y043719D01*
X125642Y044919D02*
X126842Y043719D01*
X126242Y044919D02*
X127442Y043719D01*
X126842Y044919D02*
X128042Y043719D01*
X127442Y044919D02*
X128642Y043719D01*
X128042Y044919D02*
X129242Y043719D01*
X128642Y044919D02*
X129842Y043719D01*
X129242Y044919D02*
X130442Y043719D01*
X129842Y044919D02*
X131042Y043719D01*
X130442Y044919D02*
X131642Y043719D01*
X131042Y044919D02*
X132242Y043719D01*
X131642Y044919D02*
X132842Y043719D01*
X132242Y044919D02*
X133442Y043719D01*
X132842Y044919D02*
X134042Y043719D01*
X133442Y044919D02*
X134642Y043719D01*
X134042Y044919D02*
X135039Y043922D01*
X134642Y044919D02*
X135039Y044522D01*
X123842Y045519D02*
X124442Y044919D01*
X123842Y046119D02*
X125042Y044919D01*
X124442Y046119D02*
X125642Y044919D01*
X125042Y046119D02*
X126242Y044919D01*
X125642Y046119D02*
X126842Y044919D01*
X126242Y046119D02*
X127442Y044919D01*
X126842Y046119D02*
X128042Y044919D01*
X127442Y046119D02*
X128642Y044919D01*
X128042Y046119D02*
X129242Y044919D01*
X128642Y046119D02*
X129842Y044919D01*
X129242Y046119D02*
X130442Y044919D01*
X129842Y046119D02*
X131042Y044919D01*
X130442Y046119D02*
X131642Y044919D01*
X131042Y046119D02*
X132242Y044919D01*
X131642Y046119D02*
X132842Y044919D01*
X132242Y046119D02*
X133442Y044919D01*
X132842Y046119D02*
X134042Y044919D01*
X133442Y046119D02*
X134642Y044919D01*
X134042Y046119D02*
X135039Y045122D01*
X134642Y046119D02*
X135039Y045722D01*
X123842Y046719D02*
X124442Y046119D01*
X123842Y047319D02*
X125042Y046119D01*
X124442Y047319D02*
X125642Y046119D01*
X125042Y047319D02*
X126242Y046119D01*
X125642Y047319D02*
X126842Y046119D01*
X126242Y047319D02*
X127442Y046119D01*
X126842Y047319D02*
X128042Y046119D01*
X127442Y047319D02*
X128642Y046119D01*
X128042Y047319D02*
X129242Y046119D01*
X128642Y047319D02*
X129842Y046119D01*
X129242Y047319D02*
X130442Y046119D01*
X129842Y047319D02*
X131042Y046119D01*
X130442Y047319D02*
X131642Y046119D01*
X131042Y047319D02*
X132242Y046119D01*
X131642Y047319D02*
X132842Y046119D01*
X132242Y047319D02*
X133442Y046119D01*
X132842Y047319D02*
X134042Y046119D01*
X133442Y047319D02*
X134642Y046119D01*
X134042Y047319D02*
X135039Y046322D01*
X134642Y047319D02*
X135039Y046922D01*
X123842Y047919D02*
X124442Y047319D01*
X123842Y048519D02*
X125042Y047319D01*
X124442Y048519D02*
X125642Y047319D01*
X125042Y048519D02*
X126242Y047319D01*
X125642Y048519D02*
X126842Y047319D01*
X126242Y048519D02*
X127442Y047319D01*
X126842Y048519D02*
X128042Y047319D01*
X127442Y048519D02*
X128642Y047319D01*
X128042Y048519D02*
X129242Y047319D01*
X128642Y048519D02*
X129842Y047319D01*
X129242Y048519D02*
X130442Y047319D01*
X129842Y048519D02*
X131042Y047319D01*
X130442Y048519D02*
X131642Y047319D01*
X131042Y048519D02*
X132242Y047319D01*
X131642Y048519D02*
X132842Y047319D01*
X132242Y048519D02*
X133442Y047319D01*
X132842Y048519D02*
X134042Y047319D01*
X133442Y048519D02*
X134642Y047319D01*
X134042Y048519D02*
X135039Y047522D01*
X134642Y048519D02*
X135039Y048122D01*
X123842Y049119D02*
X124442Y048519D01*
X123842Y049719D02*
X125042Y048519D01*
X124442Y049719D02*
X125642Y048519D01*
X125042Y049719D02*
X126242Y048519D01*
X125642Y049719D02*
X126842Y048519D01*
X126242Y049719D02*
X127442Y048519D01*
X126842Y049719D02*
X128042Y048519D01*
X127442Y049719D02*
X128642Y048519D01*
X128042Y049719D02*
X129242Y048519D01*
X128642Y049719D02*
X129842Y048519D01*
X129242Y049719D02*
X130442Y048519D01*
X129842Y049719D02*
X131042Y048519D01*
X130442Y049719D02*
X131642Y048519D01*
X131042Y049719D02*
X132242Y048519D01*
X131642Y049719D02*
X132842Y048519D01*
X132242Y049719D02*
X133442Y048519D01*
X132842Y049719D02*
X134042Y048519D01*
X133442Y049719D02*
X134642Y048519D01*
X134042Y049719D02*
X135039Y048722D01*
X134642Y049719D02*
X135039Y049322D01*
X123842Y050319D02*
X124442Y049719D01*
X123842Y050919D02*
X125042Y049719D01*
X124442Y050919D02*
X125642Y049719D01*
X125042Y050919D02*
X126242Y049719D01*
X125642Y050919D02*
X126842Y049719D01*
X126242Y050919D02*
X127442Y049719D01*
X126842Y050919D02*
X128042Y049719D01*
X127442Y050919D02*
X128642Y049719D01*
X128042Y050919D02*
X129242Y049719D01*
X128642Y050919D02*
X129842Y049719D01*
X129242Y050919D02*
X130442Y049719D01*
X129842Y050919D02*
X131042Y049719D01*
X130442Y050919D02*
X131642Y049719D01*
X131042Y050919D02*
X132242Y049719D01*
X131642Y050919D02*
X132842Y049719D01*
X132242Y050919D02*
X133442Y049719D01*
X132842Y050919D02*
X134042Y049719D01*
X133442Y050919D02*
X134642Y049719D01*
X134042Y050919D02*
X135039Y049922D01*
X134642Y050919D02*
X135039Y050522D01*
X123842Y051519D02*
X124442Y050919D01*
X123842Y052119D02*
X125042Y050919D01*
X124442Y052119D02*
X125642Y050919D01*
X125042Y052119D02*
X126242Y050919D01*
X125642Y052119D02*
X126842Y050919D01*
X126242Y052119D02*
X127442Y050919D01*
X126842Y052119D02*
X128042Y050919D01*
X127442Y052119D02*
X128642Y050919D01*
X128042Y052119D02*
X129242Y050919D01*
X128642Y052119D02*
X129842Y050919D01*
X129242Y052119D02*
X130442Y050919D01*
X129842Y052119D02*
X131042Y050919D01*
X130442Y052119D02*
X131642Y050919D01*
X131042Y052119D02*
X132242Y050919D01*
X131642Y052119D02*
X132842Y050919D01*
X132242Y052119D02*
X133442Y050919D01*
X132842Y052119D02*
X134042Y050919D01*
X133442Y052119D02*
X134642Y050919D01*
X134042Y052119D02*
X135039Y051122D01*
X134642Y052119D02*
X135039Y051722D01*
X123842Y052719D02*
X124442Y052119D01*
X123842Y053319D02*
X125042Y052119D01*
X124442Y053319D02*
X125642Y052119D01*
X125042Y053319D02*
X126242Y052119D01*
X125642Y053319D02*
X126842Y052119D01*
X126242Y053319D02*
X127442Y052119D01*
X126842Y053319D02*
X128042Y052119D01*
X127442Y053319D02*
X128642Y052119D01*
X128042Y053319D02*
X129242Y052119D01*
X128642Y053319D02*
X129842Y052119D01*
X129242Y053319D02*
X130442Y052119D01*
X129842Y053319D02*
X131042Y052119D01*
X130442Y053319D02*
X131642Y052119D01*
X131042Y053319D02*
X132242Y052119D01*
X131642Y053319D02*
X132842Y052119D01*
X132242Y053319D02*
X133442Y052119D01*
X132842Y053319D02*
X134042Y052119D01*
X133442Y053319D02*
X134642Y052119D01*
X134042Y053319D02*
X135039Y052322D01*
X134642Y053319D02*
X135039Y052922D01*
X123842Y053919D02*
X124442Y053319D01*
X123842Y054519D02*
X125042Y053319D01*
X124442Y054519D02*
X125642Y053319D01*
X125042Y054519D02*
X126242Y053319D01*
X125642Y054519D02*
X126842Y053319D01*
X126242Y054519D02*
X127442Y053319D01*
X126842Y054519D02*
X128042Y053319D01*
X127442Y054519D02*
X128642Y053319D01*
X128042Y054519D02*
X129242Y053319D01*
X128642Y054519D02*
X129842Y053319D01*
X129242Y054519D02*
X130442Y053319D01*
X129842Y054519D02*
X131042Y053319D01*
X130442Y054519D02*
X131642Y053319D01*
X131042Y054519D02*
X132242Y053319D01*
X131642Y054519D02*
X132842Y053319D01*
X132242Y054519D02*
X133442Y053319D01*
X132842Y054519D02*
X134042Y053319D01*
X133442Y054519D02*
X134642Y053319D01*
X134042Y054519D02*
X135039Y053522D01*
X134642Y054519D02*
X135039Y054122D01*
X123842Y055119D02*
X124442Y054519D01*
X123842Y055719D02*
X125042Y054519D01*
X124442Y055719D02*
X125642Y054519D01*
X125042Y055719D02*
X126242Y054519D01*
X125642Y055719D02*
X126842Y054519D01*
X126242Y055719D02*
X127442Y054519D01*
X126842Y055719D02*
X128042Y054519D01*
X127442Y055719D02*
X128642Y054519D01*
X128042Y055719D02*
X129242Y054519D01*
X128642Y055719D02*
X129842Y054519D01*
X129242Y055719D02*
X130442Y054519D01*
X129842Y055719D02*
X131042Y054519D01*
X130442Y055719D02*
X131642Y054519D01*
X131042Y055719D02*
X132242Y054519D01*
X131642Y055719D02*
X132842Y054519D01*
X132242Y055719D02*
X133442Y054519D01*
X132842Y055719D02*
X134042Y054519D01*
X133442Y055719D02*
X134642Y054519D01*
X134042Y055719D02*
X135039Y054722D01*
X134642Y055719D02*
X135039Y055322D01*
X123842Y056319D02*
X124442Y055719D01*
X123842Y056919D02*
X125042Y055719D01*
X124442Y056919D02*
X125642Y055719D01*
X125042Y056919D02*
X126242Y055719D01*
X125642Y056919D02*
X126842Y055719D01*
X126242Y056919D02*
X127442Y055719D01*
X126842Y056919D02*
X128042Y055719D01*
X127442Y056919D02*
X128642Y055719D01*
X128042Y056919D02*
X129242Y055719D01*
X128642Y056919D02*
X129842Y055719D01*
X129242Y056919D02*
X130442Y055719D01*
X129842Y056919D02*
X131042Y055719D01*
X130442Y056919D02*
X131642Y055719D01*
X131042Y056919D02*
X132242Y055719D01*
X131642Y056919D02*
X132842Y055719D01*
X132242Y056919D02*
X133442Y055719D01*
X132842Y056919D02*
X134042Y055719D01*
X133442Y056919D02*
X134642Y055719D01*
X134042Y056919D02*
X135039Y055922D01*
X134642Y056919D02*
X135039Y056522D01*
X123842Y057519D02*
X124442Y056919D01*
X123842Y058119D02*
X125042Y056919D01*
X124442Y058119D02*
X125642Y056919D01*
X125042Y058119D02*
X126242Y056919D01*
X125642Y058119D02*
X126842Y056919D01*
X126242Y058119D02*
X127442Y056919D01*
X126842Y058119D02*
X128042Y056919D01*
X127442Y058119D02*
X128642Y056919D01*
X128042Y058119D02*
X129242Y056919D01*
X128642Y058119D02*
X129842Y056919D01*
X129242Y058119D02*
X130442Y056919D01*
X129842Y058119D02*
X131042Y056919D01*
X130442Y058119D02*
X131642Y056919D01*
X131042Y058119D02*
X132242Y056919D01*
X131642Y058119D02*
X132842Y056919D01*
X132242Y058119D02*
X133442Y056919D01*
X132842Y058119D02*
X134042Y056919D01*
X133442Y058119D02*
X134642Y056919D01*
X134042Y058119D02*
X135039Y057122D01*
X134642Y058119D02*
X135039Y057722D01*
X123842Y058719D02*
X124442Y058119D01*
X123842Y059319D02*
X125042Y058119D01*
X124442Y059319D02*
X125642Y058119D01*
X125042Y059319D02*
X126242Y058119D01*
X125642Y059319D02*
X126842Y058119D01*
X126242Y059319D02*
X127442Y058119D01*
X126842Y059319D02*
X128042Y058119D01*
X127442Y059319D02*
X128642Y058119D01*
X128042Y059319D02*
X129242Y058119D01*
X128642Y059319D02*
X129842Y058119D01*
X129242Y059319D02*
X130442Y058119D01*
X129842Y059319D02*
X131042Y058119D01*
X130442Y059319D02*
X131642Y058119D01*
X131042Y059319D02*
X132242Y058119D01*
X131642Y059319D02*
X132842Y058119D01*
X132242Y059319D02*
X133442Y058119D01*
X132842Y059319D02*
X134042Y058119D01*
X133442Y059319D02*
X134642Y058119D01*
X134042Y059319D02*
X135039Y058322D01*
X134642Y059319D02*
X135039Y058922D01*
X123842Y059919D02*
X124442Y059319D01*
X123842Y060519D02*
X125042Y059319D01*
X124442Y060519D02*
X125642Y059319D01*
X125042Y060519D02*
X126242Y059319D01*
X125642Y060519D02*
X126842Y059319D01*
X126242Y060519D02*
X127442Y059319D01*
X126842Y060519D02*
X128042Y059319D01*
X127442Y060519D02*
X128642Y059319D01*
X128042Y060519D02*
X129242Y059319D01*
X128642Y060519D02*
X129842Y059319D01*
X129242Y060519D02*
X130442Y059319D01*
X129842Y060519D02*
X131042Y059319D01*
X130442Y060519D02*
X131642Y059319D01*
X131042Y060519D02*
X132242Y059319D01*
X131642Y060519D02*
X132842Y059319D01*
X132242Y060519D02*
X133442Y059319D01*
X132842Y060519D02*
X134042Y059319D01*
X133442Y060519D02*
X134642Y059319D01*
X134042Y060519D02*
X135039Y059522D01*
X134642Y060519D02*
X135039Y060122D01*
X123842Y061119D02*
X124442Y060519D01*
X123842Y061719D02*
X125042Y060519D01*
X124442Y061719D02*
X125642Y060519D01*
X125042Y061719D02*
X126242Y060519D01*
X125642Y061719D02*
X126842Y060519D01*
X126242Y061719D02*
X127442Y060519D01*
X126842Y061719D02*
X128042Y060519D01*
X127442Y061719D02*
X128642Y060519D01*
X128042Y061719D02*
X129242Y060519D01*
X128642Y061719D02*
X129842Y060519D01*
X129242Y061719D02*
X130442Y060519D01*
X129842Y061719D02*
X131042Y060519D01*
X130442Y061719D02*
X131642Y060519D01*
X131042Y061719D02*
X132242Y060519D01*
X131642Y061719D02*
X132842Y060519D01*
X132242Y061719D02*
X133442Y060519D01*
X132842Y061719D02*
X134042Y060519D01*
X133442Y061719D02*
X134642Y060519D01*
X134042Y061719D02*
X135039Y060722D01*
X134642Y061719D02*
X135039Y061322D01*
D205*
X025616Y032993D02*
X025716Y033093D01*
X025916D01*
X026016Y032993D01*
Y032893D01*
X025916Y032793D01*
X026016Y032693D01*
Y032593D01*
X025916Y032493D01*
X025716D01*
X025616Y032593D01*
Y032693D01*
X025716Y032793D01*
X025616Y032893D01*
Y032993D01*
X025716Y032793D02*
X025916D01*
X026216Y033093D02*
X026616D01*
Y032993D01*
X026216Y032593D01*
Y032493D01*
X026816D02*
Y032593D01*
X026916D01*
Y032493D01*
X026816D01*
X027316Y032993D02*
X027416Y033093D01*
X027616D01*
X027716Y032993D01*
Y032593D01*
X027616Y032493D01*
X027416D01*
X027316Y032593D01*
Y032993D01*
X027916D02*
X028016Y033093D01*
X028216D01*
X028316Y032993D01*
Y032593D01*
X028216Y032493D01*
X028016D01*
X027916Y032593D01*
Y032993D01*
X034475Y007197D02*
X034575Y007297D01*
X034775D01*
X034875Y007197D01*
Y007097D01*
X034775Y006997D01*
X034675D01*
X034775D01*
X034875Y006897D01*
Y006797D01*
X034775Y006697D01*
X034575D01*
X034475Y006797D01*
X035075Y007197D02*
X035174Y007297D01*
X035374D01*
X035474Y007197D01*
Y007097D01*
X035374Y006997D01*
X035474Y006897D01*
Y006797D01*
X035374Y006697D01*
X035174D01*
X035075Y006797D01*
Y006897D01*
X035174Y006997D01*
X035075Y007097D01*
Y007197D01*
X035174Y006997D02*
X035374D01*
X035674Y006697D02*
Y006797D01*
X035774D01*
Y006697D01*
X035674D01*
X036174Y007197D02*
X036274Y007297D01*
X036474D01*
X036574Y007197D01*
Y006797D01*
X036474Y006697D01*
X036274D01*
X036174Y006797D01*
Y007197D01*
X036774D02*
X036874Y007297D01*
X037074D01*
X037174Y007197D01*
Y006797D01*
X037074Y006697D01*
X036874D01*
X036774Y006797D01*
Y007197D01*
X034804Y005250D02*
Y005850D01*
X034504Y005550D01*
X034904D01*
X035504Y005250D02*
X035104D01*
X035504Y005650D01*
Y005750D01*
X035404Y005850D01*
X035204D01*
X035104Y005750D01*
X035704Y005250D02*
Y005350D01*
X035804D01*
Y005250D01*
X035704D01*
X036204Y005750D02*
X036304Y005850D01*
X036504D01*
X036604Y005750D01*
Y005350D01*
X036504Y005250D01*
X036304D01*
X036204Y005350D01*
Y005750D01*
X036803D02*
X036903Y005850D01*
X037103D01*
X037203Y005750D01*
Y005350D01*
X037103Y005250D01*
X036903D01*
X036803Y005350D01*
Y005750D01*
X016758Y007197D02*
X016858Y007297D01*
X017058D01*
X017158Y007197D01*
Y007097D01*
X017058Y006997D01*
X016958D01*
X017058D01*
X017158Y006897D01*
Y006797D01*
X017058Y006697D01*
X016858D01*
X016758Y006797D01*
X017358Y007197D02*
X017458Y007297D01*
X017658D01*
X017758Y007197D01*
Y007097D01*
X017658Y006997D01*
X017758Y006897D01*
Y006797D01*
X017658Y006697D01*
X017458D01*
X017358Y006797D01*
Y006897D01*
X017458Y006997D01*
X017358Y007097D01*
Y007197D01*
X017458Y006997D02*
X017658D01*
X017958Y006697D02*
Y006797D01*
X018058D01*
Y006697D01*
X017958D01*
X018458Y007197D02*
X018558Y007297D01*
X018758D01*
X018857Y007197D01*
Y006797D01*
X018758Y006697D01*
X018558D01*
X018458Y006797D01*
Y007197D01*
X019057D02*
X019157Y007297D01*
X019357D01*
X019457Y007197D01*
Y006797D01*
X019357Y006697D01*
X019157D01*
X019057Y006797D01*
Y007197D01*
X007429Y016758D02*
X007329Y016858D01*
Y017058D01*
X007429Y017158D01*
X007529D01*
X007629Y017058D01*
Y016958D01*
Y017058D01*
X007729Y017158D01*
X007829D01*
X007929Y017058D01*
Y016858D01*
X007829Y016758D01*
X007429Y017358D02*
X007329Y017458D01*
Y017658D01*
X007429Y017758D01*
X007529D01*
X007629Y017658D01*
X007729Y017758D01*
X007829D01*
X007929Y017658D01*
Y017458D01*
X007829Y017358D01*
X007729D01*
X007629Y017458D01*
X007529Y017358D01*
X007429D01*
X007629Y017458D02*
Y017658D01*
X007929Y017958D02*
X007829D01*
Y018058D01*
X007929D01*
Y017958D01*
X007429Y018458D02*
X007329Y018558D01*
Y018758D01*
X007429Y018857D01*
X007829D01*
X007929Y018758D01*
Y018558D01*
X007829Y018458D01*
X007429D01*
Y019057D02*
X007329Y019157D01*
Y019357D01*
X007429Y019457D01*
X007829D01*
X007929Y019357D01*
Y019157D01*
X007829Y019057D01*
X007429D01*
X006000Y017058D02*
X005400D01*
X005700Y016758D01*
Y017158D01*
X006000Y017758D02*
Y017358D01*
X005600Y017758D01*
X005500D01*
X005400Y017658D01*
Y017458D01*
X005500Y017358D01*
X006000Y017958D02*
X005900D01*
Y018058D01*
X006000D01*
Y017958D01*
X005500Y018458D02*
X005400Y018558D01*
Y018758D01*
X005500Y018857D01*
X005900D01*
X006000Y018758D01*
Y018558D01*
X005900Y018458D01*
X005500D01*
Y019057D02*
X005400Y019157D01*
Y019357D01*
X005500Y019457D01*
X005900D01*
X006000Y019357D01*
Y019157D01*
X005900Y019057D01*
X005500D01*
X017058Y005250D02*
Y005850D01*
X016758Y005550D01*
X017158D01*
X017758Y005250D02*
X017358D01*
X017758Y005650D01*
Y005750D01*
X017658Y005850D01*
X017458D01*
X017358Y005750D01*
X017958Y005250D02*
Y005350D01*
X018058D01*
Y005250D01*
X017958D01*
X018458Y005750D02*
X018558Y005850D01*
X018757D01*
X018857Y005750D01*
Y005350D01*
X018757Y005250D01*
X018558D01*
X018458Y005350D01*
Y005750D01*
X019057D02*
X019157Y005850D01*
X019357D01*
X019457Y005750D01*
Y005350D01*
X019357Y005250D01*
X019157D01*
X019057Y005350D01*
Y005750D01*
M02*
