G04 Layer_Physical_Order=1*
G04 Layer_Color=255*
%FSAX24Y24*%
%MOIN*%
G70*
G01*
G75*
%ADD10C,0.0049*%
%ADD11C,0.0049*%
%ADD12C,0.0055*%
%ADD13C,0.0055*%
%ADD14C,0.0118*%
%ADD15C,0.0256*%
%ADD16R,0.0244X0.0244*%
%ADD17R,0.0787X0.0354*%
%ADD18C,0.0177*%
%ADD19R,0.0244X0.0244*%
%ADD20R,0.0394X0.0354*%
%ADD21R,0.0571X0.0433*%
%ADD22R,0.0244X0.0228*%
%ADD23R,0.0228X0.0244*%
%ADD24R,0.0295X0.0079*%
%ADD25R,0.0709X0.0945*%
%ADD26R,0.0354X0.0394*%
%ADD27R,0.0315X0.0315*%
%ADD28R,0.0394X0.0394*%
%ADD29R,0.0354X0.0197*%
%ADD30R,0.0453X0.0571*%
%ADD31R,0.0394X0.0374*%
%ADD32R,0.0571X0.0453*%
%ADD33C,0.0394*%
%ADD34R,0.0748X0.0571*%
%ADD35R,0.0394X0.0394*%
%ADD36R,0.0236X0.0433*%
%ADD37O,0.0118X0.0335*%
%ADD38O,0.0335X0.0118*%
%ADD39R,0.2087X0.2087*%
%ADD40R,0.0630X0.0394*%
%ADD41R,0.0079X0.0276*%
%ADD42R,0.0315X0.0433*%
%ADD43R,0.0315X0.0669*%
%ADD44R,0.0472X0.0551*%
%ADD45R,0.0236X0.0394*%
%ADD46O,0.0335X0.0079*%
%ADD47O,0.0079X0.0335*%
%ADD48R,0.1457X0.0650*%
%ADD49R,0.0433X0.0472*%
%ADD50R,0.0315X0.0315*%
%ADD51R,0.0394X0.0236*%
%ADD52R,0.1181X0.0551*%
%ADD53R,0.1181X0.0512*%
%ADD54R,0.0413X0.0256*%
%ADD55R,0.0413X0.0217*%
%ADD56R,0.0807X0.1260*%
%ADD57R,0.0807X0.0256*%
%ADD58R,0.0453X0.0709*%
%ADD59R,0.0709X0.0453*%
%ADD60R,0.0394X0.0374*%
%ADD61R,0.0374X0.0394*%
%ADD62R,0.0571X0.1181*%
%ADD63R,0.0591X0.0118*%
%ADD64R,0.0394X0.0689*%
%ADD65C,0.0079*%
%ADD66C,0.0138*%
%ADD67C,0.0157*%
%ADD68C,0.0120*%
%ADD69C,0.0098*%
%ADD70C,0.0059*%
%ADD71C,0.0197*%
%ADD72C,0.0071*%
%ADD73C,0.0039*%
%ADD74C,0.0394*%
%ADD75C,0.0169*%
%ADD76C,0.0315*%
%ADD77C,0.0080*%
%ADD78C,0.0300*%
%ADD79C,0.0100*%
G04:AMPARAMS|DCode=80|XSize=41.3mil|YSize=49.2mil|CornerRadius=10.3mil|HoleSize=0mil|Usage=FLASHONLY|Rotation=0.000|XOffset=0mil|YOffset=0mil|HoleType=Round|Shape=RoundedRectangle|*
%AMROUNDEDRECTD80*
21,1,0.0413,0.0285,0,0,0.0*
21,1,0.0207,0.0492,0,0,0.0*
1,1,0.0207,0.0103,-0.0143*
1,1,0.0207,-0.0103,-0.0143*
1,1,0.0207,-0.0103,0.0143*
1,1,0.0207,0.0103,0.0143*
%
%ADD80ROUNDEDRECTD80*%
%ADD81C,0.0551*%
%ADD82R,0.0591X0.0512*%
%ADD83C,0.0591*%
%ADD84O,0.0827X0.0630*%
%ADD85C,0.0827*%
%ADD86C,0.0630*%
%ADD87R,0.1102X0.0866*%
%ADD88C,0.0945*%
%ADD89C,0.0197*%
%ADD90C,0.1378*%
%ADD91C,0.0315*%
%ADD92C,0.0157*%
G36*
X023533Y014232D02*
X023533Y013340D01*
X023520Y013320D01*
X023512Y013278D01*
Y013238D01*
X022756Y013238D01*
X022756Y014197D01*
X022791Y014232D01*
X023533Y014232D01*
D02*
G37*
G36*
X015613Y014674D02*
X015608Y014666D01*
X015598Y014616D01*
X015608Y014566D01*
X015636Y014524D01*
X015678Y014496D01*
X015728Y014486D01*
X015757Y014491D01*
X015807Y014459D01*
Y013986D01*
X014594Y013986D01*
Y014037D01*
X014599Y014045D01*
X014609Y014094D01*
X014599Y014144D01*
X014594Y014152D01*
Y014308D01*
X015010Y014724D01*
X015587D01*
X015613Y014674D01*
D02*
G37*
G36*
X024951Y013209D02*
Y012953D01*
X024656D01*
X024537Y013071D01*
Y013287D01*
X024577Y013327D01*
X024833D01*
X024951Y013209D01*
D02*
G37*
G36*
X016565Y013169D02*
X016368D01*
Y012835D01*
Y012500D01*
X016565D01*
Y012427D01*
X016516Y012414D01*
X016467Y012424D01*
X016417Y012414D01*
X016413Y012411D01*
X016028D01*
X016024Y012414D01*
X015974Y012424D01*
X015924Y012414D01*
X015921Y012411D01*
X015108D01*
Y012466D01*
X015128D01*
X015166Y012482D01*
X015181Y012520D01*
Y012989D01*
X015207Y013010D01*
X015256Y012988D01*
Y012648D01*
X015512D01*
Y012923D01*
X015591D01*
Y013002D01*
X015925D01*
Y013199D01*
X015876D01*
Y013356D01*
X015925D01*
Y013888D01*
X016565D01*
Y013169D01*
D02*
G37*
G36*
X018452Y013370D02*
X017968Y013370D01*
X017931Y013355D01*
X017915Y013317D01*
Y013209D01*
X017904D01*
Y012671D01*
X017857Y012652D01*
X017793Y012716D01*
X017756Y012732D01*
X017334Y012732D01*
X017324Y012728D01*
X017278Y012756D01*
X016998D01*
X016722D01*
Y012500D01*
X016681Y012480D01*
X016618D01*
Y012500D01*
X016603Y012538D01*
X016594Y012541D01*
Y013128D01*
X016603Y013132D01*
X016618Y013169D01*
Y013888D01*
X018452D01*
Y013370D01*
D02*
G37*
G36*
X018799Y014793D02*
X019222D01*
Y014715D01*
X019301D01*
Y014380D01*
X019606D01*
Y013986D01*
X017313Y013986D01*
X017278Y014022D01*
X017281Y014715D01*
X017874D01*
X018179Y015020D01*
X018799D01*
Y014793D01*
D02*
G37*
G36*
X039931Y022370D02*
X039010Y022370D01*
Y022390D01*
X038839D01*
Y022469D01*
X038760D01*
Y022640D01*
X038711D01*
X038711Y025599D01*
X039931D01*
X039931Y022370D01*
D02*
G37*
G36*
X021486Y023268D02*
X020876D01*
Y023770D01*
X020880Y023780D01*
Y024272D01*
X021486D01*
Y023268D01*
D02*
G37*
G36*
X012982Y023071D02*
Y023043D01*
X012981Y023040D01*
X012970Y022953D01*
X012981Y022865D01*
X012982Y022862D01*
Y021693D01*
X012835Y021545D01*
X012667D01*
X012539Y021417D01*
X012467Y021417D01*
X012448Y021464D01*
X012608Y021624D01*
Y021683D01*
X012805D01*
Y022333D01*
X012608D01*
X012608Y022815D01*
X012323Y023100D01*
X012136D01*
Y023199D01*
X011565D01*
Y022549D01*
X011654D01*
Y021988D01*
X011850Y021791D01*
X011850Y021388D01*
X011781D01*
X011329Y021841D01*
X011329Y023159D01*
X011506Y023337D01*
X012717D01*
X012982Y023071D01*
D02*
G37*
G36*
X017211Y013986D02*
X015876D01*
Y014121D01*
X015878Y014134D01*
X015876Y014146D01*
Y014328D01*
X015878Y014341D01*
X015876Y014353D01*
Y014921D01*
X017211D01*
Y013986D01*
D02*
G37*
G36*
X021284Y014715D02*
X021126D01*
X020969Y014557D01*
Y013996D01*
X019843D01*
Y014971D01*
X019855Y014989D01*
X019861Y015020D01*
X021284D01*
Y014715D01*
D02*
G37*
G36*
X017915Y012519D02*
X017915Y012071D01*
X017931Y012033D01*
X017968Y012018D01*
X017992D01*
X018039Y012012D01*
Y011854D01*
X018285D01*
Y011776D01*
X018364D01*
Y011539D01*
X018504D01*
Y011480D01*
X017992D01*
X017334Y012138D01*
Y012679D01*
X017756Y012679D01*
X017915Y012519D01*
D02*
G37*
G36*
X022677Y014173D02*
Y013494D01*
X022490Y013307D01*
Y013203D01*
X022486D01*
Y012860D01*
X022490D01*
X022490Y012278D01*
X022318D01*
X022312Y012285D01*
X022302Y012332D01*
X022303Y012382D01*
X022303Y012382D01*
X022303Y012382D01*
Y012638D01*
X022028D01*
X021752D01*
Y012382D01*
X022032D01*
X022060Y012337D01*
X022060Y012332D01*
X022051Y012285D01*
X022044Y012278D01*
X021604Y012278D01*
Y013179D01*
X021339D01*
X021339Y014232D01*
X022490Y014232D01*
X022618D01*
X022677Y014173D01*
D02*
G37*
G36*
X019774Y012427D02*
Y012185D01*
X020595D01*
X020625Y012165D01*
X020675Y012155D01*
X020725Y012165D01*
X020755Y012185D01*
X021103Y012185D01*
X021133Y012165D01*
X021183Y012155D01*
X021233Y012165D01*
X021263Y012185D01*
X022057D01*
Y012229D01*
X022065Y012233D01*
X022082Y012240D01*
X022083Y012242D01*
X022085Y012244D01*
X022092Y012252D01*
X022096Y012264D01*
X022103Y012275D01*
X022112Y012321D01*
X022111Y012325D01*
X022112Y012325D01*
X022111Y012328D01*
X022113Y012334D01*
X022117Y012345D01*
X022136Y012372D01*
X022149Y012382D01*
X022214D01*
X022249Y012346D01*
X022249Y012333D01*
X022251Y012327D01*
X022250Y012321D01*
X022259Y012275D01*
X022267Y012264D01*
X022270Y012252D01*
X022277Y012244D01*
X022279Y012242D01*
X022280Y012240D01*
X022297Y012233D01*
X022313Y012225D01*
X022315Y012225D01*
X022318Y012224D01*
X022372D01*
X022541Y012055D01*
X023105D01*
X023142Y012008D01*
X023135Y011988D01*
X023130Y011988D01*
Y011988D01*
X022963D01*
Y011752D01*
X022884D01*
Y011673D01*
X022638D01*
Y011530D01*
X022603Y011480D01*
X022244D01*
Y011496D01*
X021831D01*
Y011480D01*
X021457Y011480D01*
X020188D01*
X019834Y011835D01*
X019804D01*
X019804Y011835D01*
X019775Y011878D01*
X019733Y011906D01*
X019683Y011916D01*
X019633Y011906D01*
X019591Y011878D01*
X019563Y011835D01*
X019562Y011835D01*
X018858D01*
Y011998D01*
X018937D01*
Y012234D01*
X019016D01*
Y012313D01*
X019262D01*
Y012427D01*
X019774D01*
D02*
G37*
G36*
X033327Y012265D02*
X032963D01*
Y011586D01*
Y010906D01*
X033327D01*
Y010796D01*
X031969D01*
Y012439D01*
X033327D01*
Y012265D01*
D02*
G37*
G36*
X037559Y011750D02*
Y010806D01*
X035709Y010806D01*
Y011445D01*
X035759Y011472D01*
X035791Y011466D01*
X035841Y011476D01*
X035883Y011504D01*
X035912Y011546D01*
X035922Y011596D01*
X035912Y011646D01*
X035883Y011688D01*
X035865Y011700D01*
X035881Y011750D01*
X037559Y011750D01*
D02*
G37*
G36*
X020518Y013218D02*
X020344D01*
Y012884D01*
Y012549D01*
X020518D01*
Y012287D01*
X019829D01*
Y012461D01*
X019837Y012480D01*
Y012549D01*
X019833Y012559D01*
Y013218D01*
X019833D01*
X019829Y013269D01*
X019832Y013279D01*
X019831Y013280D01*
X019836Y013303D01*
X019835Y013308D01*
X019837Y013313D01*
Y013490D01*
X019833Y013500D01*
X019833Y013504D01*
X019829Y013527D01*
Y013560D01*
X019833Y013583D01*
X019833Y013587D01*
X019837Y013597D01*
Y013753D01*
X019833Y013763D01*
X019833Y013767D01*
X019829Y013790D01*
Y013823D01*
X019830Y013827D01*
X019829Y013832D01*
Y013888D01*
X020518D01*
Y013218D01*
D02*
G37*
G36*
X014166Y013351D02*
X014262Y013332D01*
X014358Y013351D01*
X014375Y013362D01*
X014425Y013337D01*
Y013147D01*
X014427Y013142D01*
X014426Y013136D01*
X014427Y013134D01*
X014426Y013132D01*
X014427Y013127D01*
X014425Y013122D01*
Y012520D01*
X014429Y012511D01*
X014397Y012461D01*
X013593Y012461D01*
X013593Y012903D01*
X013611Y012918D01*
X013661Y012893D01*
Y012559D01*
X013917D01*
Y012825D01*
Y013091D01*
X013825D01*
X013806Y013137D01*
X014045Y013376D01*
X014128D01*
X014166Y013351D01*
D02*
G37*
G36*
X037756Y012597D02*
X036939Y012597D01*
Y012922D01*
X036447D01*
Y012597D01*
X036319D01*
Y012912D01*
X036260D01*
X036260Y013935D01*
X037756Y013935D01*
X037756Y012597D01*
D02*
G37*
G36*
X015256Y013711D02*
X015591D01*
Y013632D01*
X015669D01*
Y013356D01*
X015807D01*
Y013199D01*
X015256D01*
Y013148D01*
X015128Y013020D01*
Y012520D01*
X014478D01*
Y013122D01*
X014481Y013134D01*
X014478Y013147D01*
Y013464D01*
X014494Y013487D01*
X014513Y013583D01*
X014494Y013679D01*
X014478Y013702D01*
Y013888D01*
X015256D01*
Y013711D01*
D02*
G37*
G36*
X014478Y012466D02*
X015038D01*
X015038Y011967D01*
X014988Y011929D01*
X014972Y011932D01*
X014923Y011922D01*
X014880Y011893D01*
X014852Y011851D01*
X014848Y011833D01*
X014846Y011831D01*
X014373D01*
X014331Y011850D01*
Y012037D01*
X013996D01*
Y012195D01*
X014331D01*
Y012382D01*
X014370Y012407D01*
X014397D01*
X014402Y012410D01*
X014408Y012409D01*
X014420Y012417D01*
X014434Y012423D01*
X014437Y012428D01*
X014442Y012432D01*
X014466Y012470D01*
X014469D01*
X014478Y012466D01*
D02*
G37*
G36*
X018799Y013888D02*
Y013691D01*
X019646D01*
Y013888D01*
X019742D01*
X019751Y013881D01*
X019777Y013838D01*
X019771Y013806D01*
X019781Y013756D01*
X019783Y013753D01*
Y013597D01*
X019781Y013593D01*
X019771Y013543D01*
X019781Y013493D01*
X019783Y013490D01*
Y013313D01*
X019777Y013280D01*
X019779Y013269D01*
X019747Y013218D01*
X019636D01*
Y012884D01*
Y012549D01*
X019783D01*
Y012480D01*
X018740Y012480D01*
Y012071D01*
X017968D01*
X017968Y012568D01*
X017968Y013317D01*
X018506Y013317D01*
Y013888D01*
X018799D01*
D02*
G37*
G36*
X042126Y023778D02*
X040787D01*
Y025589D01*
X042126D01*
Y023778D01*
D02*
G37*
G36*
X038671Y025632D02*
X038657Y025599D01*
X038657Y023650D01*
X037313D01*
Y026268D01*
X038671D01*
Y025632D01*
D02*
G37*
G36*
X034654Y023534D02*
X034576D01*
Y023363D01*
X034497D01*
Y023284D01*
X034326D01*
Y023192D01*
X034290Y023156D01*
X033011D01*
Y024121D01*
X033139D01*
Y023944D01*
X033946D01*
Y024121D01*
X034654D01*
Y023534D01*
D02*
G37*
G36*
X020827Y023780D02*
X020089Y023780D01*
X019911Y023957D01*
Y024203D01*
X019980Y024272D01*
X020827D01*
Y023780D01*
D02*
G37*
G36*
X035225Y024790D02*
X034615Y024790D01*
Y025154D01*
Y025755D01*
X034692D01*
X034694Y025706D01*
X034694Y025705D01*
Y025538D01*
X035166D01*
Y025705D01*
X035166Y025706D01*
X035168Y025755D01*
X035225D01*
X035225Y024790D01*
D02*
G37*
%LPC*%
G36*
X016211Y012756D02*
X016014D01*
Y012500D01*
X016211D01*
Y012756D01*
D02*
G37*
G36*
X015925Y012844D02*
X015669D01*
Y012648D01*
X015925D01*
Y012844D01*
D02*
G37*
G36*
X016211Y013169D02*
X016014D01*
Y012913D01*
X016211D01*
Y013169D01*
D02*
G37*
G36*
X017274D02*
X017077D01*
Y012913D01*
X017274D01*
Y013169D01*
D02*
G37*
G36*
X016919D02*
X016722D01*
Y012913D01*
X016919D01*
Y013169D01*
D02*
G37*
G36*
X019144Y014636D02*
X018799D01*
Y014380D01*
X019144D01*
Y014636D01*
D02*
G37*
G36*
X039587Y025353D02*
X039331D01*
Y024792D01*
X039587D01*
Y025353D01*
D02*
G37*
G36*
X039173D02*
X038917D01*
Y024792D01*
X039173D01*
Y025353D01*
D02*
G37*
G36*
Y024634D02*
X038917D01*
Y024073D01*
X039173D01*
Y024634D01*
D02*
G37*
G36*
X039144Y023512D02*
X038947D01*
Y023187D01*
X039144D01*
Y023512D01*
D02*
G37*
G36*
X039498D02*
X039301D01*
Y023187D01*
X039498D01*
Y023512D01*
D02*
G37*
G36*
Y023030D02*
X039301D01*
Y022705D01*
X039498D01*
Y023030D01*
D02*
G37*
G36*
X039010Y022640D02*
X038917D01*
Y022548D01*
X039010D01*
Y022640D01*
D02*
G37*
G36*
X039144Y023030D02*
X038947D01*
Y022705D01*
X039144D01*
Y023030D01*
D02*
G37*
G36*
X039587Y024634D02*
X039331D01*
Y024073D01*
X039587D01*
Y024634D01*
D02*
G37*
G36*
X018207Y011697D02*
X018039D01*
Y011539D01*
X018207D01*
Y011697D01*
D02*
G37*
G36*
X021949Y013051D02*
X021752D01*
Y012795D01*
X021949D01*
Y013051D01*
D02*
G37*
G36*
X022303D02*
X022106D01*
Y012795D01*
X022303D01*
Y013051D01*
D02*
G37*
G36*
X022805Y011988D02*
X022638D01*
Y011831D01*
X022805D01*
Y011988D01*
D02*
G37*
G36*
X019262Y012156D02*
X019094D01*
Y011998D01*
X019262D01*
Y012156D01*
D02*
G37*
G36*
X022175Y011916D02*
X022125Y011906D01*
X022083Y011878D01*
X022055Y011835D01*
X022045Y011785D01*
X022055Y011736D01*
X022083Y011693D01*
X022125Y011665D01*
X022175Y011655D01*
X022225Y011665D01*
X022267Y011693D01*
X022296Y011736D01*
X022306Y011785D01*
X022296Y011835D01*
X022267Y011878D01*
X022225Y011906D01*
X022175Y011916D01*
D02*
G37*
G36*
X032805Y011507D02*
X032431D01*
Y010906D01*
X032805D01*
Y011507D01*
D02*
G37*
G36*
Y012265D02*
X032431D01*
Y011664D01*
X032805D01*
Y012265D01*
D02*
G37*
G36*
X036919Y011367D02*
X036752D01*
Y011209D01*
X036919D01*
Y011367D01*
D02*
G37*
G36*
X036594D02*
X036427D01*
Y011209D01*
X036594D01*
Y011367D01*
D02*
G37*
G36*
Y011052D02*
X036427D01*
Y010894D01*
X036594D01*
Y011052D01*
D02*
G37*
G36*
X036919D02*
X036752D01*
Y010894D01*
X036919D01*
Y011052D01*
D02*
G37*
G36*
X020187Y012805D02*
X019990D01*
Y012549D01*
X020187D01*
Y012805D01*
D02*
G37*
G36*
Y013218D02*
X019990D01*
Y012963D01*
X020187D01*
Y013218D01*
D02*
G37*
G36*
X014331Y012746D02*
X014075D01*
Y012559D01*
X014331D01*
Y012746D01*
D02*
G37*
G36*
Y013091D02*
X014075D01*
Y012904D01*
X014331D01*
Y013091D01*
D02*
G37*
G36*
X037638Y013473D02*
X037441D01*
Y013148D01*
X037638D01*
Y013473D01*
D02*
G37*
G36*
X037283D02*
X037087D01*
Y013148D01*
X037283D01*
Y013473D01*
D02*
G37*
G36*
X037638Y012991D02*
X037441D01*
Y012666D01*
X037638D01*
Y012991D01*
D02*
G37*
G36*
X037283D02*
X037087D01*
Y012666D01*
X037283D01*
Y012991D01*
D02*
G37*
G36*
X015512Y013553D02*
X015256D01*
Y013356D01*
X015512D01*
Y013553D01*
D02*
G37*
G36*
X018207Y012602D02*
X018039D01*
Y012445D01*
X018207D01*
Y012602D01*
D02*
G37*
G36*
X018532D02*
X018364D01*
Y012445D01*
X018532D01*
Y012480D01*
Y012602D01*
D02*
G37*
G36*
Y012287D02*
X018364D01*
Y012130D01*
X018532D01*
Y012287D01*
D02*
G37*
G36*
X018937Y012746D02*
X018770D01*
Y012589D01*
X018937D01*
Y012746D01*
D02*
G37*
G36*
X019478Y013218D02*
X019281D01*
Y013103D01*
X019262Y013061D01*
X019231Y013061D01*
X019094D01*
Y012825D01*
Y012589D01*
X019256D01*
X019281Y012549D01*
X019287Y012549D01*
X019478D01*
Y012884D01*
Y013218D01*
D02*
G37*
G36*
X018207Y012287D02*
X018039D01*
Y012130D01*
X018207D01*
Y012287D01*
D02*
G37*
G36*
X019646Y013533D02*
X019301D01*
Y013278D01*
X019646D01*
Y013533D01*
D02*
G37*
G36*
X019144D02*
X018799D01*
Y013278D01*
X019144D01*
Y013533D01*
D02*
G37*
G36*
X018937Y013061D02*
X018770D01*
Y012904D01*
X018937D01*
Y013061D01*
D02*
G37*
G36*
X041772Y025353D02*
X041516D01*
Y024792D01*
X041772D01*
Y025353D01*
D02*
G37*
G36*
X041358D02*
X041102D01*
Y024792D01*
X041358D01*
Y025353D01*
D02*
G37*
G36*
X041772Y024634D02*
X041516D01*
Y024073D01*
X041772D01*
Y024634D01*
D02*
G37*
G36*
X041358D02*
X041102D01*
Y024073D01*
X041358D01*
Y024634D01*
D02*
G37*
G36*
X038051Y025648D02*
X037677D01*
Y025048D01*
X038051D01*
Y025648D01*
D02*
G37*
G36*
X038583Y024890D02*
X038209D01*
Y024290D01*
X038583D01*
Y024890D01*
D02*
G37*
G36*
Y025648D02*
X038209D01*
Y025048D01*
X038583D01*
Y025648D01*
D02*
G37*
G36*
X038051Y024890D02*
X037677D01*
Y024290D01*
X038051D01*
Y024890D01*
D02*
G37*
G36*
X033946Y023786D02*
X033621D01*
Y023589D01*
X033946D01*
Y023786D01*
D02*
G37*
G36*
X034418Y023534D02*
X034326D01*
Y023442D01*
X034418D01*
Y023534D01*
D02*
G37*
G36*
X033463Y023786D02*
X033139D01*
Y023589D01*
X033463D01*
Y023786D01*
D02*
G37*
G36*
X035166Y025381D02*
X035009D01*
Y025213D01*
X035166D01*
Y025381D01*
D02*
G37*
G36*
X034851D02*
X034694D01*
Y025213D01*
X034851D01*
Y025381D01*
D02*
G37*
%LPD*%
D10*
X022070Y022335D02*
G03*
X021949Y022628I-000415J000000D01*
G01*
X019971Y022953D02*
G03*
X019852Y022904I000000J-000168D01*
G01*
X021868Y022709D02*
G03*
X021280Y022953I-000588J-000588D01*
G01*
X019852Y022904D02*
G03*
X019793Y022761I000143J-000143D01*
G01*
X019782Y021987D02*
G03*
X019842Y022132I-000146J000146D01*
G01*
X022186Y022335D02*
G03*
X022031Y022710I-000531J000000D01*
G01*
X020266Y023089D02*
G03*
X020285Y023069I000020J000000D01*
G01*
X021950Y022791D02*
G03*
X021280Y023069I-000670J-000670D01*
G01*
X022186Y021979D02*
G03*
X022232Y021870I000155J000000D01*
G01*
X020187Y023108D02*
G03*
X020167Y023089I000000J-000020D01*
G01*
X020266D02*
G03*
X020246Y023108I-000020J000000D01*
G01*
X020148Y023069D02*
G03*
X020167Y023089I000000J000020D01*
G01*
X019971Y023069D02*
G03*
X019770Y022986I000000J-000284D01*
G01*
D02*
G03*
X019677Y022761I000225J-000225D01*
G01*
X022025Y021870D02*
G03*
X022070Y021979I-000109J000109D01*
G01*
X031486Y017187D02*
G03*
X031452Y017222I-000034J000000D01*
G01*
X031486Y017060D02*
G03*
X031521Y017025I000034J000000D01*
G01*
X031550D02*
G03*
X031585Y017060I000000J000034D01*
G01*
X031619Y017222D02*
G03*
X031585Y017187I000000J-000034D01*
G01*
X031427Y016597D02*
G03*
X031393Y016632I-000034J000000D01*
G01*
X031427Y016470D02*
G03*
X031462Y016435I000034J000000D01*
G01*
X031491D02*
G03*
X031526Y016470I000000J000034D01*
G01*
X031560Y016632D02*
G03*
X031526Y016597I000000J-000034D01*
G01*
X031585Y018149D02*
G03*
X031585Y018197I-000024J000024D01*
G01*
X031495Y018337D02*
G03*
X031495Y018288I000024J-000024D01*
G01*
X031564Y018357D02*
G03*
X031516Y018357I-000024J-000024D01*
G01*
X031655Y018267D02*
G03*
X031704Y018267I000024J000024D01*
G01*
X031371Y018719D02*
G03*
X031371Y018768I-000024J000024D01*
G01*
X031355Y018833D02*
G03*
X031355Y018785I000024J-000024D01*
G01*
X031424Y018854D02*
G03*
X031376Y018854I-000024J-000024D01*
G01*
X031441Y018838D02*
G03*
X031489Y018838I000024J000024D01*
G01*
X031545Y016007D02*
G03*
X031511Y016041I-000034J000000D01*
G01*
X031545Y015879D02*
G03*
X031580Y015844I000034J000000D01*
G01*
X031609D02*
G03*
X031644Y015879I000000J000034D01*
G01*
X031678Y016041D02*
G03*
X031644Y016007I000000J-000034D01*
G01*
X041742Y017577D02*
X042278D01*
X041742D02*
X041742D01*
Y017380D02*
X042278D01*
X041742D02*
X041742D01*
X029439Y016790D02*
X029439D01*
X028903D02*
X029439D01*
Y016593D02*
X029439D01*
X028903D02*
X029439D01*
X040462Y016396D02*
X040463D01*
X039926D02*
X040462D01*
Y016199D02*
X040463D01*
X039926D02*
X040462D01*
X030719Y015609D02*
X031255D01*
X030719D02*
X030719D01*
Y015412D02*
X031255D01*
X030719D02*
X030719D01*
X029439Y015609D02*
X029439D01*
X028903D02*
X029439D01*
Y015412D02*
X029439D01*
X028903D02*
X029439D01*
X041742Y016987D02*
X042278D01*
X041742D02*
X041742D01*
Y016790D02*
X042278D01*
X041742D02*
X041742D01*
Y016396D02*
X042278D01*
X041742D02*
X041742D01*
Y016199D02*
X042278D01*
X041742D02*
X041742D01*
X021868Y022709D02*
X021949Y022628D01*
X022070Y021979D02*
Y022335D01*
X019971Y022953D02*
X021280D01*
X019793Y022326D02*
Y022761D01*
X019782Y021987D02*
X019782Y021987D01*
X019782Y021987D02*
X019782Y021987D01*
X019685Y021890D02*
X019782Y021987D01*
X021950Y022791D02*
X022031Y022710D01*
X022186Y021979D02*
Y022335D01*
X020285Y023069D02*
X021280D01*
X020187Y023108D02*
X020246D01*
X019971Y023069D02*
X020148D01*
X019677Y022278D02*
Y022761D01*
X010433Y019464D02*
X010438Y019459D01*
X010433Y019464D02*
X010433Y019464D01*
X010433Y019257D02*
X010438Y019262D01*
X025362Y015205D02*
X026161Y016004D01*
X025020Y015217D02*
X025362D01*
X024862Y013425D02*
Y014302D01*
X024596Y014568D02*
X024862Y014302D01*
X024596Y014568D02*
Y014793D01*
X014345Y018136D02*
Y018776D01*
X014333Y018124D02*
X014345Y018136D01*
X014333Y018075D02*
Y018124D01*
X014247Y017989D02*
X014333Y018075D01*
X012923Y016644D02*
X013671D01*
X014149Y016176D02*
Y016375D01*
X014075Y016449D02*
X014149Y016375D01*
X013866Y016449D02*
X014035D01*
X013671Y016644D02*
X013866Y016449D01*
X020787Y019843D02*
X020945Y019685D01*
X010177Y022364D02*
X010423Y022118D01*
X010177Y022364D02*
Y023061D01*
X012520Y022008D02*
X012520D01*
X012338Y021826D02*
X012520Y022008D01*
X012338Y021540D02*
Y021826D01*
X012244Y021447D02*
X012338Y021540D01*
X012244Y021211D02*
Y021447D01*
X012175Y021663D02*
Y022549D01*
X012047Y021535D02*
X012175Y021663D01*
X012047Y021211D02*
Y021535D01*
X011606Y012431D02*
X011823Y012648D01*
X011476Y012431D02*
X011606D01*
X024233Y018597D02*
X024355D01*
X024033Y018797D02*
X024233Y018597D01*
X018425Y017795D02*
X018425Y017795D01*
X016378Y015748D02*
X016535Y015591D01*
X025888Y019322D02*
X025945Y019265D01*
X025547Y019438D02*
X025911D01*
X025945Y019471D01*
X025355Y019630D02*
X025547Y019438D01*
X024937Y019630D02*
X025355D01*
X025547Y019322D02*
X025888D01*
X025355Y019130D02*
X025547Y019322D01*
X024937Y019130D02*
X025355D01*
X025761Y020822D02*
X025764Y020819D01*
X025547Y020822D02*
X025761D01*
X025355Y020630D02*
X025547Y020822D01*
X025773Y020819D02*
X025827Y020765D01*
X025764Y020819D02*
X025773D01*
X025793Y020938D02*
X025827Y020971D01*
X025547Y020938D02*
X025793D01*
X025355Y021130D02*
X025547Y020938D01*
X024937Y021130D02*
X025355D01*
X024937Y020630D02*
X025355D01*
X019842Y022132D02*
Y022277D01*
Y022132D02*
Y022132D01*
X019793Y022326D02*
X019842Y022277D01*
X019685Y022205D02*
Y022270D01*
X019677Y022278D02*
X019685Y022270D01*
X019745Y023688D02*
X019801D01*
X019642Y023791D02*
X019745Y023688D01*
X019495Y023791D02*
X019642D01*
X019745Y023481D02*
X019801D01*
X019642Y023378D02*
X019745Y023481D01*
X019495Y023378D02*
X019642D01*
X018994Y023791D02*
X019141D01*
X018891Y023688D02*
X018994Y023791D01*
X018885Y023688D02*
X018891D01*
X018994Y023378D02*
X019141D01*
X018891Y023481D02*
X018994Y023378D01*
X018885Y023481D02*
X018891D01*
X018308Y023106D02*
X018354Y023061D01*
X018308Y023106D02*
Y023285D01*
X018147Y023061D02*
X018192Y023106D01*
X018308Y023285D02*
X018456Y023434D01*
X018192Y023106D02*
Y023285D01*
X018044Y023434D02*
X018192Y023285D01*
X018147Y024083D02*
X018192Y024038D01*
Y023936D02*
Y024038D01*
X018308Y024038D02*
X018354Y024083D01*
X018308Y023936D02*
Y024038D01*
Y023936D02*
X018456Y023788D01*
X018044D02*
X018192Y023936D01*
X018307Y025570D02*
X018474Y025403D01*
X018106Y025570D02*
X018307D01*
X018474Y025394D02*
Y025403D01*
X018208Y025454D02*
X018268Y025394D01*
X018106Y025454D02*
X018208D01*
X018086Y025591D02*
X018106Y025570D01*
X017894Y025591D02*
X018086D01*
Y025433D02*
X018106Y025454D01*
X017894Y025433D02*
X018086D01*
X021484Y015444D02*
X021534Y015394D01*
X013678Y018643D02*
Y019285D01*
X014213Y021142D02*
X014414Y020940D01*
X014270Y020421D02*
X014414Y020566D01*
Y020940D01*
X016219Y011664D02*
Y012046D01*
X016024Y011468D02*
X016219Y011664D01*
X013883Y013853D02*
X014937Y014907D01*
X013883Y013853D02*
Y013853D01*
X013765Y013735D02*
X013883Y013853D01*
X013666Y013775D02*
X014901Y015010D01*
X015010D01*
X014937Y014907D02*
X015221D01*
X013371Y010930D02*
Y012999D01*
X013030Y012596D02*
X013218Y012785D01*
X013002Y012596D02*
X013030D01*
X011634Y011817D02*
X011706Y011890D01*
X015010Y015010D02*
X015590Y015590D01*
X015275Y015527D02*
Y015590D01*
X013705Y013957D02*
X015275Y015527D01*
X014247Y016284D02*
Y017989D01*
X013505Y019656D02*
X013813Y019347D01*
X014626Y016398D02*
X014646Y016378D01*
X012707Y016427D02*
X012923Y016644D01*
X012707Y016152D02*
Y016427D01*
X012667Y016112D02*
X012707Y016152D01*
X012205Y016112D02*
X012667D01*
X013612Y010699D02*
Y012254D01*
Y010699D02*
X014203Y010108D01*
X015335Y011063D02*
X015679D01*
X014882Y010610D02*
X015335Y011063D01*
X014882Y010354D02*
Y010610D01*
X015784Y011168D02*
Y011620D01*
X015679Y011063D02*
X015784Y011168D01*
X014327Y011170D02*
X014619Y010878D01*
X017598Y023967D02*
X017729D01*
X024911Y014803D02*
X026142D01*
X013612Y015463D02*
Y015679D01*
X012707Y016053D02*
Y016152D01*
X013299Y014990D02*
Y015010D01*
Y014677D02*
Y014990D01*
X013214Y014592D02*
X013299Y014677D01*
X013022Y014592D02*
X013214D01*
X011590Y014286D02*
X013896D01*
X011476Y014173D02*
X011590Y014286D01*
X010827Y022118D02*
X011140D01*
X011142Y022116D01*
X012884Y013457D02*
Y013720D01*
X012577Y013150D02*
X012884Y013457D01*
X012577Y013110D02*
Y013150D01*
X012540Y012954D02*
X012747D01*
X012844Y013051D01*
X013218Y012785D02*
Y012986D01*
X018130Y026280D02*
Y026350D01*
X018048Y026432D02*
X018130Y026350D01*
X017219Y026432D02*
X018048D01*
X017126Y026339D02*
X017219Y026432D01*
X011026Y024339D02*
Y024607D01*
X011018Y024615D02*
X011026Y024607D01*
X010467Y024625D02*
X010723Y024369D01*
Y024300D02*
Y024369D01*
X019055Y017480D02*
X019212Y017323D01*
X010827Y021762D02*
Y022118D01*
X010659Y021594D02*
X010827Y021762D01*
X014734Y015325D02*
X014960Y015551D01*
X014734Y015125D02*
Y015325D01*
X014960Y015551D02*
Y015590D01*
X012195Y018140D02*
X012638D01*
X012047Y018287D02*
X012195Y018140D01*
X012047Y018287D02*
Y018494D01*
X011850Y018248D02*
X012215Y017884D01*
X012687D01*
X011850Y018248D02*
Y018494D01*
X010393Y019941D02*
X010481Y019852D01*
X010689D01*
X010827Y022118D02*
X010837Y022108D01*
X020157Y019842D02*
X020315Y019685D01*
X019842Y019842D02*
X020000Y019685D01*
X020945Y017480D02*
X021102Y017323D01*
X020945Y016850D02*
X021102Y016693D01*
X025325Y011732D02*
X025563D01*
X020384Y010276D02*
X020433D01*
X019419Y011240D02*
X019498Y011319D01*
X020150D01*
X020183Y011285D01*
X023174Y011097D02*
X023524D01*
X020059Y010433D02*
Y010679D01*
X020138Y010758D01*
X020433Y010276D02*
X020571Y010413D01*
X020531Y010454D02*
X020571Y010413D01*
X020531Y010454D02*
Y011031D01*
X020543Y011043D01*
X022953Y011319D02*
X023174Y011097D01*
X022333Y011319D02*
X022953D01*
X022063Y010591D02*
Y011096D01*
X022707Y010157D02*
Y010581D01*
X022657Y010108D02*
X022707Y010157D01*
X022440Y015245D02*
Y015806D01*
X022067Y014872D02*
X022440Y015245D01*
X021635Y014872D02*
X022067D01*
X022759Y016125D02*
X022923D01*
X022440Y015806D02*
X022759Y016125D01*
X021310Y015197D02*
X021635Y014872D01*
X019055Y015197D02*
X021310D01*
X018858Y015394D02*
X019055Y015197D01*
X023293Y015596D02*
Y016125D01*
X026142Y014803D02*
Y014819D01*
Y014793D02*
Y014803D01*
X025354Y014426D02*
X025709Y014071D01*
X024596Y014793D02*
X025020Y015217D01*
X024990Y013508D02*
Y014350D01*
X024788Y014552D02*
X024990Y014350D01*
X024788Y014552D02*
Y014680D01*
X024862Y013425D02*
X025512Y012776D01*
Y012520D02*
Y012776D01*
X025315Y012323D02*
X025512Y012520D01*
X024990Y013508D02*
X025709Y012790D01*
X024788Y014680D02*
X024911Y014803D01*
X023248Y015551D02*
X023293Y015596D01*
X021932Y017187D02*
X021989D01*
X016693Y017637D02*
X016850Y017480D01*
X016693Y017637D02*
Y017894D01*
X016634Y017953D02*
X016693Y017894D01*
X017185Y015020D02*
X017637Y015472D01*
X015807Y015020D02*
X017185D01*
X023646Y022992D02*
X023661D01*
X019685Y018425D02*
X019842Y018268D01*
X021260Y020630D02*
X021417Y020787D01*
X020630Y020000D02*
X020787Y020157D01*
X018740Y017795D02*
X018897Y017638D01*
X019370Y019685D02*
X019527Y019842D01*
X017637Y021102D02*
X017795Y020945D01*
X017008Y021102D02*
X017165Y020945D01*
X017322Y021102D02*
X017480Y020945D01*
X017008Y021417D02*
X017165Y021260D01*
X017637Y021417D02*
X017795Y021260D01*
X017952Y021419D02*
X018110Y021261D01*
X018425Y020630D02*
X018582Y020787D01*
X018425Y020945D02*
X018582Y021102D01*
X018425Y021260D02*
X018582Y021417D01*
X020630Y021260D02*
X020787Y021417D01*
X020630Y021575D02*
X020787Y021732D01*
X011841Y021181D02*
X011850Y021171D01*
X018740Y020945D02*
X018897Y021102D01*
X019055Y020315D02*
X019212Y020472D01*
X018740Y020315D02*
X018897Y020472D01*
X016425Y011468D02*
X016797D01*
X016965Y011301D01*
X019370Y020315D02*
X019527Y020157D01*
X017952Y020787D02*
X018110Y020630D01*
X020000Y019055D02*
X020157Y019212D01*
X020630Y019055D02*
X020787Y019212D01*
X020945Y019055D02*
X021102Y019212D01*
X021260Y019685D02*
X021417Y019842D01*
X016063Y016693D02*
X016220Y016850D01*
X016063Y015748D02*
X016220Y015905D01*
X016220Y016535D02*
X016378Y016693D01*
X015433Y016476D02*
Y016653D01*
X015472Y016693D01*
X015748D01*
X015905Y016850D01*
X019055Y017795D02*
X019212Y017638D01*
X010650Y017559D02*
Y017579D01*
X021417Y020787D02*
X021869Y020787D01*
X017441Y024033D02*
Y024429D01*
X017375Y023967D02*
X017441Y024033D01*
X017598Y023967D02*
Y024429D01*
X016968Y025965D02*
Y026103D01*
X016772Y026299D02*
X016968Y026103D01*
X016772Y026299D02*
X016772D01*
X013505Y019459D02*
X013678Y019285D01*
X020945Y021890D02*
X021102Y022047D01*
X020945Y022205D02*
X021102Y022362D01*
X018110Y018740D02*
X018267Y018897D01*
X019685Y019055D02*
X019842Y018897D01*
X015748Y015748D02*
X015905Y015905D01*
X019212Y020157D02*
X019370Y020000D01*
X020630Y019370D02*
X020787Y019527D01*
X020945Y019370D02*
X021102Y019527D01*
X016339Y025965D02*
Y026339D01*
X016181Y025965D02*
Y026260D01*
X016093Y026347D02*
X016181Y026260D01*
X015678Y026347D02*
X016093D01*
X017283Y025965D02*
X017283Y025965D01*
Y026260D01*
X017126Y025965D02*
X017131Y025969D01*
X017441Y025965D02*
Y026181D01*
X018150Y025866D02*
Y026043D01*
X017126Y025965D02*
Y026339D01*
X017858Y026334D02*
X018150Y026043D01*
X017441Y026181D02*
X017593Y026334D01*
X017858D01*
X016496Y024071D02*
Y024429D01*
X016339Y023888D02*
X016441Y023785D01*
X016339Y023888D02*
Y024429D01*
X016968Y024252D02*
Y024429D01*
Y024252D02*
X017087Y024134D01*
X016496Y024071D02*
X016693Y023874D01*
Y023622D02*
Y023874D01*
X022362Y019921D02*
X022402Y019961D01*
X022441D01*
X020191Y011047D02*
Y011278D01*
X020183Y011285D02*
X020191Y011278D01*
X013678Y018643D02*
X013729Y018593D01*
X018425Y017795D02*
X018425Y017795D01*
X026161Y016004D02*
Y016240D01*
X017010Y015470D02*
Y015512D01*
X016776Y015236D02*
X017010Y015470D01*
X020945Y020000D02*
X020945D01*
X021102Y020157D01*
X020157Y022362D02*
X020315Y022205D01*
X020157Y022047D02*
X020315Y021890D01*
X017894Y025276D02*
X017913Y025256D01*
X018268Y025118D02*
X018504D01*
X018622Y025000D01*
X017894Y025276D02*
X018110D01*
X018268Y025118D01*
X015221Y014907D02*
X015905Y015590D01*
X013366Y019656D02*
X013406D01*
X013505D01*
X012638Y021171D02*
Y021211D01*
X013366Y019459D02*
X013406D01*
X013505D01*
X011850Y018494D02*
Y018533D01*
X023307Y012874D02*
X023386Y012795D01*
X023622D01*
X024803Y012638D02*
X025000D01*
X025157Y012795D01*
X024803Y012480D02*
X025039D01*
X025157Y012598D01*
X025354D01*
X025709Y013032D02*
Y014071D01*
X024803Y012323D02*
X025315D01*
X025354Y012165D02*
X025709Y012520D01*
Y012790D01*
X025906Y012638D02*
Y012835D01*
X025709Y013032D02*
X025906Y012835D01*
X024803Y012165D02*
X025354D01*
X014619Y010878D02*
X014787D01*
X024760Y018232D02*
X025020Y017972D01*
X021509Y018897D02*
X021732D01*
X021260Y018740D02*
X021417Y018898D01*
X021509D01*
X015669Y026339D02*
X015678Y026347D01*
X017087Y023996D02*
Y024134D01*
X017077Y023986D02*
X017087Y023996D01*
X015600Y014813D02*
X015807Y015020D01*
X023415Y012323D02*
X023622D01*
X023258Y012165D02*
X023415Y012323D01*
X013100Y021585D02*
Y022185D01*
X013287Y022372D01*
X012972Y021457D02*
X013100Y021585D01*
X011850Y022874D02*
X012175Y022549D01*
X012638Y021211D02*
Y021377D01*
X012717Y021457D01*
X012972D01*
X018142Y015435D02*
X018248D01*
X017603Y014882D02*
X018094Y015373D01*
Y015387D01*
X018142Y015435D01*
X016693Y020157D02*
X016850Y020315D01*
X016555Y015236D02*
X016776D01*
X024444Y018420D02*
X024632Y018232D01*
X024760D01*
X026161Y024144D02*
Y024400D01*
X025916Y024645D02*
X026161Y024400D01*
X025651Y024645D02*
X025916D01*
X021703Y023514D02*
X021772D01*
X011900Y017530D02*
X012205Y017224D01*
X012264D01*
X011823Y012648D02*
X011862D01*
X012648Y012226D02*
X013002D01*
X013022D01*
X015974Y011811D02*
Y012293D01*
X016219Y012046D02*
X016467Y012293D01*
X015784Y011620D02*
X015974Y011811D01*
X014203Y010108D02*
X022657D01*
X013376Y010906D02*
Y010925D01*
X012205Y016112D02*
Y016516D01*
X012185Y016535D02*
X012205Y016516D01*
X013632Y013957D02*
X013705D01*
X011427Y011437D02*
Y011799D01*
X011417Y013848D02*
X011476Y013907D01*
X011634Y011289D02*
Y011817D01*
X013896Y014286D02*
X014734Y015125D01*
X012369Y012038D02*
X012421Y012090D01*
Y012835D01*
X011427Y011799D02*
X011827Y012199D01*
X011987Y012038D02*
X012369D01*
X011827Y012199D02*
X011987Y012038D01*
X012884Y013720D02*
X013140Y013976D01*
X013612D01*
X013632Y013957D01*
X013456Y013223D02*
X013456D01*
X013666Y013434D01*
X013371Y012999D02*
X013765Y013393D01*
X013218Y012986D02*
X013456Y013223D01*
X013765Y013393D02*
Y013735D01*
X013666Y013434D02*
Y013775D01*
X013371Y010930D02*
X013376Y010925D01*
X011476Y013907D02*
Y014173D01*
X013612Y015463D02*
X013711Y015364D01*
X013947D01*
X014173Y015138D01*
X013671Y014592D02*
X013942D01*
X014173Y014823D01*
Y015138D01*
X017589Y014882D02*
X017603D01*
X016447Y017953D02*
X016634D01*
X016378Y018022D02*
X016447Y017953D01*
X016378Y018022D02*
Y019114D01*
X016482Y019217D01*
X016598D01*
X016688Y019307D01*
Y019390D01*
X016697Y019400D01*
Y019738D01*
X016588Y019847D02*
X016697Y019738D01*
X016472Y019847D02*
X016588D01*
X016383Y019937D02*
X016472Y019847D01*
X016383Y019937D02*
Y020684D01*
X016275Y020792D02*
X016383Y020684D01*
X016157Y020792D02*
X016275D01*
X016068Y020882D02*
X016157Y020792D01*
X016068Y020882D02*
Y021638D01*
X016167Y021737D01*
X017228D01*
X017327Y021836D01*
Y021953D01*
X017417Y022042D01*
X017533D01*
X017638Y022147D01*
Y022263D01*
X017884Y022510D01*
X018627D02*
X019299Y023182D01*
X020984Y025669D02*
Y026033D01*
X016535Y017165D02*
X016693Y017323D01*
X014270Y018850D02*
X014345Y018776D01*
X014270Y018850D02*
Y020421D01*
X014213Y021142D02*
Y023199D01*
X020748Y025433D02*
X020984Y025669D01*
X019852Y025433D02*
X020748D01*
X010393Y019941D02*
X010394Y019941D01*
X015335Y016378D02*
X015433Y016476D01*
X016063Y016063D02*
X016220Y016220D01*
X014646Y016378D02*
X015335D01*
X014469Y016063D02*
X016063D01*
X014035Y016449D02*
X014075D01*
X014694Y015630D02*
X014724D01*
X014149Y016176D02*
X014694Y015630D01*
X014247Y016284D02*
X014469Y016063D01*
X019454Y025026D02*
X019503Y025075D01*
Y025084D01*
X019852Y025433D01*
X010177Y023061D02*
X010310Y023194D01*
X010625D01*
X010659Y023228D01*
X010669Y023219D01*
X019212Y019527D02*
X019370Y019370D01*
X019527Y019527D02*
X019685Y019685D01*
X021811Y019921D02*
X022362D01*
X021574Y019685D02*
X021811Y019921D01*
X021102Y019842D02*
X021260Y020000D01*
X024783Y023091D02*
Y023553D01*
X024969Y023739D01*
X025277D01*
X018868Y024331D02*
X019154Y024616D01*
Y025541D01*
X019144Y025551D02*
X019154Y025541D01*
X019299Y023182D02*
X019647D01*
X019794Y023329D01*
X019972D01*
X020030Y023386D01*
X017884Y022510D02*
X018627D01*
X010669Y023219D02*
X010679D01*
X023219Y012165D02*
X023258D01*
X023248Y012431D02*
X023297Y012480D01*
X023622D01*
X012421Y012835D02*
X012540Y012954D01*
X010659Y021211D02*
X010930Y020940D01*
X010659Y021211D02*
Y021594D01*
X010487Y020970D02*
Y022054D01*
X010930Y020723D02*
Y020940D01*
X010689Y020640D02*
X010846D01*
X010930Y020723D01*
X010437Y020920D02*
X010487Y020970D01*
X010271Y020546D02*
X010468D01*
X010167Y020650D02*
X010271Y020546D01*
X010167Y020650D02*
Y020837D01*
X010251Y020920D01*
X010437D01*
X010468Y020546D02*
X010571Y020443D01*
X010689D01*
X014104Y023307D02*
X014213Y023199D01*
X019454Y024250D02*
X020030Y023675D01*
Y023386D02*
Y023675D01*
X019454Y024250D02*
Y025026D01*
X021260Y018110D02*
X021417Y017953D01*
X021648D01*
X021260Y018425D02*
X021412Y018272D01*
X021673D01*
X021260Y019055D02*
X021417Y019213D01*
X021731D01*
X021869Y020787D02*
X021899Y020817D01*
X024033Y018406D02*
Y018445D01*
X022063Y010581D02*
X022707D01*
X019369Y017795D02*
X019527Y017637D01*
X011900Y017530D02*
Y017697D01*
X022782Y020315D02*
X022965D01*
X011706Y011890D02*
X012520D01*
X012648Y012018D01*
Y012226D01*
X013813Y018851D02*
X013949Y018715D01*
X013813Y018851D02*
Y019347D01*
X013949Y018715D02*
X013962D01*
X014055Y018622D01*
X016333Y023307D02*
X016441Y023415D01*
X015935Y022972D02*
X016270Y023307D01*
X016333D01*
X024355Y018597D02*
X024444Y018508D01*
Y018420D02*
Y018508D01*
X023020Y013032D02*
X023155Y012897D01*
Y012811D02*
Y012897D01*
Y012811D02*
X023328Y012638D01*
X023622D01*
X034933Y025969D02*
X035768D01*
X030719Y018959D02*
X031255D01*
X030719D02*
X030719D01*
X031255D02*
X031260Y018954D01*
X030719Y019546D02*
X031255D01*
X030719Y019743D02*
X031255D01*
X028898Y020131D02*
X028903Y020136D01*
X041047Y010524D02*
X041467D01*
X040679Y010156D02*
X041047Y010524D01*
X039114Y010500D02*
X039459Y010156D01*
X040069Y010524D02*
Y010779D01*
X040023Y010825D02*
X040069Y010779D01*
X038661Y010825D02*
X040023D01*
X038593Y010756D02*
X038661Y010825D01*
X038593Y010500D02*
Y010756D01*
X039104Y011160D02*
X039114Y011150D01*
X039104Y011160D02*
Y011644D01*
X038592Y011150D02*
X038593Y011150D01*
X038592Y011150D02*
Y011644D01*
X038061Y011150D02*
X038061Y011150D01*
Y011644D01*
X039922Y016194D02*
X039926Y016199D01*
X039922Y016401D02*
X039926Y016396D01*
X039926Y016790D02*
X040462D01*
X039921Y016785D02*
X039926Y016790D01*
Y016987D02*
X040462D01*
X039921Y016992D02*
X039926Y016987D01*
X042278Y017380D02*
X042283Y017375D01*
X042278Y017577D02*
X042283Y017582D01*
X042278Y016790D02*
X042283Y016785D01*
X042278Y016987D02*
X042283Y016991D01*
X042278Y016199D02*
X042283Y016194D01*
X042278Y016396D02*
X042283Y016401D01*
X028903Y014821D02*
X029439D01*
X028898Y014816D02*
X028903Y014821D01*
Y015018D02*
X029439D01*
X028898Y015023D02*
X028903Y015018D01*
X028898Y015407D02*
X028903Y015412D01*
X028898Y015614D02*
X028903Y015609D01*
X028898Y016588D02*
X028903Y016593D01*
X028898Y016795D02*
X028903Y016790D01*
X028903Y017775D02*
X029439D01*
X028898Y017770D02*
X028903Y017775D01*
Y017972D02*
X029439D01*
X028898Y017977D02*
X028903Y017972D01*
Y018956D02*
X029439D01*
X028898Y018952D02*
X028903Y018956D01*
Y019153D02*
X029439D01*
X028898Y019158D02*
X028903Y019153D01*
X028898Y019541D02*
X028903Y019546D01*
X028898Y019747D02*
X028903Y019743D01*
X028898Y020338D02*
X028903Y020333D01*
X031255Y020136D02*
X031260Y020131D01*
X031255Y020333D02*
X031260Y020338D01*
X031255Y019546D02*
X031260Y019541D01*
X031255Y019743D02*
X031260Y019747D01*
X031255Y015412D02*
X031260Y015407D01*
X031255Y015609D02*
X031260Y015614D01*
X031255Y014623D02*
X031260Y014628D01*
X030719Y014623D02*
X031255D01*
Y014426D02*
X031260Y014421D01*
X030719Y014426D02*
X031255D01*
X029975Y018562D02*
X029980Y018566D01*
X029439Y018562D02*
X029975D01*
Y018365D02*
X029980Y018360D01*
X029439Y018365D02*
X029975D01*
Y017380D02*
X029980Y017385D01*
X029439Y017380D02*
X029975D01*
Y017183D02*
X029980Y017179D01*
X029439Y017183D02*
X029975D01*
X029975Y016199D02*
X029980Y016204D01*
X029439Y016199D02*
X029975D01*
Y016002D02*
X029980Y015997D01*
X029439Y016002D02*
X029975D01*
X039459Y010156D02*
X040679D01*
X038787Y015360D02*
Y015658D01*
X038780Y015353D02*
X038787Y015360D01*
X030719Y018363D02*
X031039D01*
X031079Y018404D01*
X030719Y018560D02*
X031039D01*
X031079Y018404D02*
X031219D01*
X033072Y020256D01*
X033484D01*
X033675Y020065D01*
Y020056D02*
Y020065D01*
X030719Y017773D02*
X031039D01*
X031079Y017813D01*
X030719Y017970D02*
X031039D01*
X031079Y017813D02*
X031414D01*
X032851Y019250D01*
X033480D01*
X033675Y019056D01*
X030724Y017181D02*
X031044D01*
X030719Y017379D02*
X031039D01*
X031079Y017338D01*
X033458D01*
X033675Y017556D01*
X030719Y016591D02*
X031039D01*
X030719Y016788D02*
X031039D01*
X031079Y016748D01*
X032667D01*
X033058Y016357D01*
X033476D01*
X033675Y016556D01*
X030719Y016001D02*
X031039D01*
X030719Y016198D02*
X031039D01*
X031079Y016157D01*
X032362D01*
X032723Y015796D01*
X033915D01*
X034175Y016056D01*
X034051Y015680D02*
X034175Y015556D01*
X031039Y018560D02*
X031079Y018520D01*
X031171D01*
X033024Y020372D02*
X033492D01*
X033675Y020556D01*
X031039Y017970D02*
X031079Y017929D01*
X031366D01*
X032803Y019367D02*
X033486D01*
X033675Y019556D01*
X031044Y017181D02*
X031084Y017222D01*
X033509D02*
X033675Y017056D01*
X031039Y016591D02*
X031079Y016632D01*
X032619D02*
X033010Y016241D01*
X033490D01*
X033675Y016056D01*
X031039Y016001D02*
X031079Y016041D01*
X032313D02*
X032675Y015680D01*
X034051D01*
X030719Y020333D02*
X031255D01*
X028903Y019743D02*
X029439D01*
X028903Y020333D02*
X029439D01*
X028903Y019546D02*
X029439D01*
X034815Y026077D02*
X034825D01*
X034933Y025969D01*
X030719Y020136D02*
X031255D01*
X031339Y017222D02*
X031388D01*
X031452D01*
X031486Y017060D02*
Y017187D01*
X031521Y017025D02*
X031550D01*
X031585Y017060D02*
Y017187D01*
X031619Y017222D02*
X031634D01*
X031084D02*
X031339D01*
X031634D02*
X033509D01*
X031280Y016632D02*
X031329D01*
X031393D01*
X031427Y016470D02*
Y016597D01*
X031462Y016435D02*
X031491D01*
X031526Y016470D02*
Y016597D01*
X031560Y016632D02*
X031594D01*
X031079D02*
X031280D01*
X031594D02*
X032619D01*
X031575Y018138D02*
X031585Y018149D01*
X031495Y018288D02*
X031585Y018197D01*
X031495Y018337D02*
X031516Y018357D01*
X031564D02*
X031655Y018267D01*
X031704D02*
X031737Y018301D01*
X031366Y017929D02*
X031575Y018138D01*
X031737Y018301D02*
X032803Y019367D01*
X031361Y018709D02*
X031371Y018719D01*
X031355Y018785D02*
X031371Y018768D01*
X031355Y018833D02*
X031376Y018854D01*
X031424D02*
X031441Y018838D01*
X031489D02*
X031527Y018875D01*
X031171Y018520D02*
X031361Y018709D01*
X031527Y018875D02*
X033024Y020372D01*
X031398Y016041D02*
X031447D01*
X031511D01*
X031545Y015879D02*
Y016007D01*
X031580Y015844D02*
X031609D01*
X031644Y015879D02*
Y016007D01*
X031678Y016041D02*
X031742D01*
X031841D01*
X031856D01*
X031079D02*
X031398D01*
X031856D02*
X032313D01*
X028903Y020136D02*
X029439D01*
D11*
X019782Y021987D02*
D03*
D12*
X016782Y023099D02*
G03*
X016745Y023084I000000J-000052D01*
G01*
X016570Y022909D02*
G03*
X016535Y022825I000084J-000084D01*
G01*
X016443Y022602D02*
G03*
X016535Y022825I-000222J000222D01*
G01*
X016238Y022494D02*
G03*
X016404Y022563I000000J000235D01*
G01*
X015013Y022494D02*
G03*
X014813Y022411I000000J-000282D01*
G01*
D02*
G03*
X014754Y022269I000143J-000143D01*
G01*
X014671Y020151D02*
G03*
X014606Y019994I000157J-000157D01*
G01*
X016782Y023233D02*
G03*
X016650Y023178I000000J-000186D01*
G01*
X016349Y022697D02*
G03*
X016402Y022825I-000128J000128D01*
G01*
X016238Y022628D02*
G03*
X016309Y022657I000000J000101D01*
G01*
X015013Y022628D02*
G03*
X014718Y022506I000000J-000416D01*
G01*
D02*
G03*
X014620Y022269I000237J-000237D01*
G01*
X014577Y020246D02*
G03*
X014620Y020351I-000105J000105D01*
G01*
X014577Y020246D02*
G03*
X014472Y019994I000252J-000252D01*
G01*
X010433Y019464D02*
G03*
X010445Y019459I000012J000012D01*
G01*
X010445Y019262D02*
G03*
X010433Y019257I000000J-000017D01*
G01*
X021772Y016311D02*
G03*
X021947Y016383I000000J000247D01*
G01*
X021754Y016311D02*
G03*
X021602Y016248I000000J-000215D01*
G01*
X022177Y016825D02*
G03*
X022168Y016803I000022J-000022D01*
G01*
X021772Y016445D02*
G03*
X021852Y016478I000000J000114D01*
G01*
X021602Y016508D02*
G03*
X021754Y016445I000152J000152D01*
G01*
X014671Y020151D02*
G03*
X014754Y020351I-000199J000199D01*
G01*
X016476Y023003D02*
G03*
X016402Y022825I000179J-000179D01*
G01*
X016782Y023099D02*
X016942D01*
X016745Y023084D02*
X016745Y023084D01*
X016745Y023084D02*
X016745Y023084D01*
X016570Y022909D02*
X016745Y023084D01*
X016404Y022563D02*
X016443Y022602D01*
X015013Y022494D02*
X016238D01*
X014754Y020351D02*
Y022269D01*
X014606Y019900D02*
Y019994D01*
X016782Y023233D02*
X016942D01*
X016476Y023003D02*
X016650Y023178D01*
X016349Y022697D02*
X016349Y022697D01*
X016349Y022697D02*
X016349Y022697D01*
X016309Y022657D02*
X016349Y022697D01*
X016309Y022657D02*
X016309Y022657D01*
X016309Y022657D02*
X016309Y022657D01*
X015013Y022628D02*
X016238D01*
X014620Y020351D02*
Y022269D01*
X014472Y019928D02*
Y019994D01*
X010445Y019459D02*
X010689D01*
X010445Y019262D02*
X010689D01*
X021947Y016383D02*
X022329Y016766D01*
X021754Y016311D02*
X021772D01*
X021574Y016220D02*
X021602Y016248D01*
X022177Y016825D02*
Y016918D01*
X022168Y016793D02*
Y016803D01*
X021852Y016478D02*
X022168Y016793D01*
X021754Y016445D02*
X021772D01*
X014422Y019878D02*
X014472Y019928D01*
X014606Y019900D02*
X014629Y019878D01*
X016942Y023233D02*
X016978Y023269D01*
X016942Y023099D02*
X016978Y023062D01*
X021706Y015302D02*
X021732Y015276D01*
X021626Y015302D02*
X021706D01*
X021534Y015394D02*
X021626Y015302D01*
X021646Y015142D02*
X021719Y015069D01*
X021642Y015142D02*
X021646D01*
X021615Y015168D02*
X021642Y015142D01*
X021570Y015168D02*
X021615D01*
X021350Y015389D02*
X021570Y015168D01*
X021719Y015069D02*
X021732D01*
X021350Y015389D02*
Y015500D01*
X021484Y015444D02*
Y015500D01*
X021574Y015590D01*
X021260D02*
X021350Y015500D01*
X021574Y016535D02*
X021602Y016508D01*
X011005Y017953D02*
Y018032D01*
X011212Y017953D02*
Y018050D01*
X011390Y018228D01*
Y018263D01*
X011429Y018303D01*
Y018467D01*
X011457Y018494D01*
X011005Y018032D02*
X011232Y018260D01*
Y018467D01*
X011260Y018494D01*
X021260Y016850D02*
X021417Y016693D01*
X020945Y016535D02*
X021102Y016378D01*
X019685Y017165D02*
X019842Y017008D01*
X020945Y017795D02*
X021102Y017638D01*
X020630Y017795D02*
X020787Y017638D01*
X019685Y016535D02*
X019842Y016378D01*
X020315Y016535D02*
X020472Y016378D01*
X020315Y017165D02*
X020472Y017008D01*
X020000Y017480D02*
X020157Y017323D01*
X020000Y017165D02*
X020157Y017008D01*
X019370Y016535D02*
X019527Y016378D01*
X019685Y016850D02*
X019842Y016693D01*
X019370Y016850D02*
X019527Y016693D01*
X019370Y017480D02*
X019527Y017323D01*
X019055Y020630D02*
X019212Y020787D01*
X019055Y020945D02*
X019212Y021102D01*
X020315Y020630D02*
X020472Y020787D01*
X020315Y020945D02*
X020472Y021102D01*
X020315Y016850D02*
X020472Y016693D01*
X020000Y016220D02*
X020157Y016063D01*
X020945Y016220D02*
X021102Y016063D01*
X019685Y017480D02*
X019842Y017323D01*
X021260Y016535D02*
X021417Y016378D01*
X021260Y015905D02*
X021417Y015748D01*
X021574Y015905D02*
X021732Y015748D01*
X020157Y015433D02*
X020315Y015590D01*
X019842Y015433D02*
X020000Y015590D01*
X019527Y015433D02*
X019685Y015590D01*
X020472Y015433D02*
X020630Y015590D01*
X020630Y015905D02*
X020787Y015748D01*
X020945Y015905D02*
X021102Y015748D01*
X020315Y016220D02*
X020472Y016063D01*
X020000Y016535D02*
X020157Y016378D01*
X019527Y015748D02*
X019685Y015905D01*
X019842Y015748D02*
X020000Y015905D01*
X019212Y016063D02*
X019370Y015905D01*
X019212Y016378D02*
X019370Y016220D01*
X020630Y016220D02*
X020787Y016063D01*
D13*
X016745Y023084D02*
D03*
X016349Y022697D02*
D03*
X016309Y022657D02*
D03*
X010433Y019464D02*
D03*
D14*
X021703Y024140D02*
G03*
X021693Y024163I-000034J000000D01*
G01*
X022736Y015325D02*
X022805Y015256D01*
X022106Y013957D02*
Y014488D01*
X013818Y020058D02*
Y020444D01*
X013748Y020049D02*
X013809D01*
X016063Y017323D02*
X016220Y017165D01*
X021594Y021575D02*
Y021870D01*
X021279Y021279D02*
Y021575D01*
X025000Y020118D02*
X025585D01*
X022303Y018425D02*
X022362D01*
X029084Y018170D02*
X029439D01*
X039813Y014821D02*
X040462D01*
X024380Y017756D02*
Y017771D01*
X022913Y012343D02*
Y012657D01*
X020158Y021732D02*
X020315Y021574D01*
X018583Y022047D02*
X018740Y022204D01*
X017343Y022894D02*
X017480D01*
X016986Y022383D02*
X017165Y022205D01*
X019389Y021279D02*
Y021575D01*
X016850Y020000D02*
X017165Y019685D01*
X017795Y018425D02*
X018110Y018110D01*
X018543Y012913D02*
X019528D01*
X014764Y016220D02*
X014960D01*
X010610Y012697D02*
Y016663D01*
X014071Y010870D02*
X014327D01*
X011949Y013110D02*
X012207D01*
X020158Y021417D02*
X020315Y021260D01*
X021260Y021890D02*
X021417Y021733D01*
X021703Y023868D02*
Y024140D01*
X033984Y026072D02*
X034451D01*
X010935Y018533D02*
X011063D01*
X020630Y016536D02*
X020787Y016378D01*
X023673Y021747D02*
Y022498D01*
Y020984D02*
Y021747D01*
X023591Y019541D02*
X023673Y019459D01*
X023568Y021089D02*
X023673Y020984D01*
X023579Y020684D02*
X023673Y020591D01*
Y020984D01*
X023580Y020315D02*
X023673Y020221D01*
Y020591D01*
Y019459D02*
Y020221D01*
Y018696D02*
Y019459D01*
Y017872D02*
Y018696D01*
X023603Y018766D02*
X023673Y018696D01*
X023335Y018766D02*
X023603D01*
X023673Y017872D02*
X023789Y017756D01*
X023553Y017520D02*
X023789Y017756D01*
X023335Y017224D02*
Y017992D01*
Y022638D02*
X023533D01*
X023335Y021747D02*
X023673D01*
X023335Y020315D02*
X023580D01*
X023335Y021089D02*
X023568D01*
X023335Y019541D02*
X023591D01*
X023335Y017195D02*
X023335D01*
X024301Y020699D02*
X024321Y020679D01*
X024026Y020699D02*
X024301D01*
X019286Y010576D02*
X019429Y010433D01*
X019078Y010576D02*
X019286D01*
X018878Y010776D02*
X019078Y010576D01*
X023720Y015551D02*
X023996D01*
X023661Y015610D02*
X023720Y015551D01*
X023661Y015610D02*
Y016033D01*
X012707Y015404D02*
Y015650D01*
X012598Y015758D02*
X012707Y015650D01*
X012480Y015758D02*
X012598D01*
X021517Y011240D02*
X021703D01*
X021368Y011092D02*
X021517Y011240D01*
X021368Y010581D02*
Y011092D01*
X024498Y014094D02*
Y014478D01*
X024291Y014685D02*
X024498Y014478D01*
X023996Y014685D02*
X024291D01*
X023622Y013278D02*
X023750Y013406D01*
X023622Y012953D02*
Y013278D01*
X023917Y013238D02*
X024006D01*
X023750Y013406D02*
X023917Y013238D01*
X024124Y015423D02*
X024350D01*
X023996Y015551D02*
X024124Y015423D01*
X018051Y011319D02*
X018110Y011260D01*
X017947Y011319D02*
X018051D01*
X017465Y011801D02*
X017947Y011319D01*
X022415Y023990D02*
Y024118D01*
X021939Y023514D02*
X022415Y023990D01*
X021772Y023514D02*
X021939D01*
X019764Y024429D02*
X019961Y024626D01*
X019764Y024311D02*
Y024429D01*
X021260Y022205D02*
X021574Y021890D01*
X010394Y018642D02*
Y018918D01*
X010886Y018484D02*
X010935Y018533D01*
X010886Y018327D02*
Y018484D01*
X013218Y017579D02*
X013307Y017667D01*
Y017884D01*
X010669Y018287D02*
X010669Y018287D01*
X010394Y018287D02*
X010669D01*
X021947Y024587D02*
X022415Y024118D01*
X021663Y024587D02*
X021947D01*
X021663Y024941D02*
Y025276D01*
X021693Y025305D01*
X022913Y012657D02*
X022953Y012697D01*
X022805Y014872D02*
Y015256D01*
X022648Y014715D02*
X022805Y014872D01*
X022333Y014715D02*
X022648D01*
X022106Y014488D02*
X022333Y014715D01*
X021260Y022205D02*
X021319Y022264D01*
Y022500D01*
X021240Y022579D02*
X021319Y022500D01*
X021142Y022579D02*
X021240D01*
X018582Y017953D02*
X018740Y018110D01*
X017322Y016378D02*
X017480Y016535D01*
X010937Y023069D02*
X011014Y022992D01*
X010937Y023069D02*
Y023494D01*
X010394Y018918D02*
X010541Y019065D01*
X018465Y011189D02*
X018878Y010776D01*
X018465Y011189D02*
Y011260D01*
X022650Y012738D02*
Y013032D01*
X022648Y012736D02*
X022650Y012738D01*
X010423Y022766D02*
X010423Y022766D01*
Y022488D02*
Y022766D01*
Y022488D02*
X010827D01*
X011063Y021811D02*
X011101D01*
X011457Y021455D01*
Y021211D02*
Y021455D01*
Y021211D02*
X011654D01*
X020472Y019842D02*
X020630Y019685D01*
X024685Y014094D02*
X024695Y014104D01*
X024498Y014094D02*
X024685D01*
X024144Y014281D02*
X024144Y014282D01*
X024144Y014094D02*
Y014281D01*
X024262Y010728D02*
Y010728D01*
X024021Y010487D02*
X024262Y010728D01*
X023676Y010487D02*
X024021D01*
X023632Y010443D02*
X023676Y010487D01*
X025748Y012283D02*
X025933Y012098D01*
Y011732D02*
Y012098D01*
X024213Y012480D02*
Y013100D01*
X020315Y017480D02*
X020472Y017323D01*
X023750Y013760D02*
Y014006D01*
X023839Y014094D01*
X024144D01*
X020335Y013583D02*
X020965D01*
X020276Y013642D02*
X020335Y013583D01*
X023248Y014685D02*
X023996D01*
X021254Y012781D02*
X021319Y012717D01*
X020669Y012781D02*
X021254D01*
X017151Y023588D02*
X017357D01*
X016909Y023829D02*
X017151Y023588D01*
X016986Y022537D02*
X017343Y022894D01*
X016986Y022383D02*
Y022537D01*
X024596Y013110D02*
Y013169D01*
X024705Y013278D01*
X024606Y013110D02*
X024705Y013209D01*
X024606Y013110D02*
X024606Y013110D01*
X024803D01*
X024596D02*
X024606D01*
X024705Y013209D02*
Y013278D01*
X024803Y013179D01*
Y013110D02*
Y013179D01*
X020965Y013583D02*
X020994Y013612D01*
X015305Y023760D02*
X015935D01*
X015925Y023337D02*
X015935Y023346D01*
Y023760D01*
X019685Y016220D02*
X019842Y016063D01*
X015905Y018110D02*
X016063Y018268D01*
X020000Y020945D02*
X020157Y021102D01*
X020000Y021260D02*
X020157Y021102D01*
X021211Y014902D02*
X021220Y014911D01*
X019685Y019370D02*
X019842Y019212D01*
X017637Y021732D02*
X017795Y021890D01*
X020000D02*
X020000D01*
X020158Y021732D01*
X020157D02*
X020158D01*
X020000Y021575D02*
X020157Y021732D01*
X020000Y021575D02*
Y021575D01*
X019842Y021417D02*
X020000Y021575D01*
X019685Y021260D02*
X019842Y021417D01*
X018740Y022205D02*
X019055D01*
X021417Y020157D02*
X021574Y020000D01*
X019213Y022362D02*
X019370Y022205D01*
X018494Y012864D02*
X018543Y012913D01*
X018898Y013150D02*
Y013499D01*
X014960Y017795D02*
X015118Y017638D01*
X020787Y018897D02*
X020945Y018740D01*
X017795Y017165D02*
X018110Y017480D01*
X025000Y021618D02*
X025557D01*
X025000Y018618D02*
X025557D01*
X019370Y018740D02*
X019527Y018897D01*
X016693Y018582D02*
X016850Y018425D01*
X017165D02*
X017322Y018582D01*
X017322D01*
X017952D02*
X018110Y018425D01*
X017637Y018582D02*
X017795Y018740D01*
X017637Y019212D02*
X017795Y019055D01*
X019055Y018740D02*
X019212Y018582D01*
X018740Y018740D02*
X018897Y018582D01*
X017322D02*
X017480Y018740D01*
X017008Y018582D02*
X017165Y018740D01*
X016063Y018582D02*
X016220Y018740D01*
X020000Y018425D02*
X020157Y018268D01*
X018740Y018425D02*
X018897Y018268D01*
X020945Y020630D02*
X021102Y020787D01*
X020630Y020945D02*
X020787Y021102D01*
X010689Y019065D02*
X010748D01*
X020945Y021260D02*
X021102Y021417D01*
X014960Y020945D02*
X015118Y020787D01*
X014960Y019370D02*
X015118Y019527D01*
X017637Y017323D02*
X017795Y017480D01*
X016063Y020472D02*
X016220Y020315D01*
X017952Y021102D02*
X018110Y020945D01*
X017008Y020787D02*
X017165Y020630D01*
X015748Y021417D02*
X015905Y021260D01*
X017322Y021417D02*
X017480Y021260D01*
X016378Y021102D02*
X016535Y020945D01*
X015118Y021732D02*
X015275Y021575D01*
X015433Y020787D02*
X015590Y020630D01*
X015748Y019842D02*
X015905Y019685D01*
X015433Y019212D02*
X015590Y019055D01*
X015433Y015748D02*
X015590Y015905D01*
X015748Y016378D02*
X015905Y016535D01*
X015433Y017323D02*
X015590Y017480D01*
X016378Y017638D02*
X016535Y017795D01*
X016693Y016693D02*
X016850Y016850D01*
X016378Y016063D02*
X016535Y016220D01*
X017008Y017323D02*
X017165Y017480D01*
X017637Y017638D02*
X017795Y017795D01*
X017322Y017638D02*
X017480Y017795D01*
X017008Y017638D02*
X017165Y017795D01*
X017637Y017953D02*
X017795Y018110D01*
X017322Y017953D02*
X017480Y018110D01*
X017008Y017953D02*
X017165Y018110D01*
X019370Y017165D02*
X019527Y017008D01*
X018740Y017480D02*
X018897Y017323D01*
X018425Y016850D02*
X018582Y016693D01*
X017008Y019212D02*
X017165Y019055D01*
X017008Y019527D02*
X017165Y019370D01*
X017008Y020157D02*
X017165Y020000D01*
X017008Y020472D02*
X017165Y020315D01*
X017322Y020472D02*
X017480Y020315D01*
X017322Y020157D02*
X017480Y020000D01*
X017322Y019842D02*
X017480Y019685D01*
X017322Y019527D02*
X017480Y019370D01*
X017322Y019212D02*
X017480Y019055D01*
X017637Y019527D02*
X017795Y019370D01*
X017637Y019842D02*
X017795Y019685D01*
X017637Y020157D02*
X017795Y020000D01*
X017637Y020472D02*
X017795Y020315D01*
X018740Y019055D02*
X018897Y019212D01*
X019055Y019055D02*
X019212Y019212D01*
X018425Y019370D02*
X018582Y019527D01*
X017952D02*
X018110Y019370D01*
X017952Y019842D02*
X018110Y019685D01*
X017952Y020157D02*
X018110Y020000D01*
X017952Y020472D02*
X018110Y020315D01*
X019055Y019685D02*
X019212Y019842D01*
X020000Y020000D02*
X020157Y020157D01*
X020630Y021890D02*
X020787Y022047D01*
X020000Y020630D02*
X020157Y020787D01*
X018740Y020630D02*
X018897Y020787D01*
X019370Y020630D02*
X019527Y020787D01*
X020630Y020630D02*
X020787Y020787D01*
X019685Y020945D02*
X019842Y021102D01*
X018425Y021575D02*
X018582Y021732D01*
X018740Y021260D02*
X018897Y021417D01*
X018740Y021575D02*
X018897Y021732D01*
X019055Y021575D02*
X019212Y021732D01*
X019055Y021260D02*
X019212Y021417D01*
X019685Y021575D02*
X019842Y021732D01*
X019370Y021890D02*
X019527Y022047D01*
X019370Y020945D02*
X019527Y021102D01*
X020315Y020315D02*
X020472Y020472D01*
X020000Y020315D02*
X020157Y020472D01*
X020630Y022205D02*
X020787Y022362D01*
X020945Y021575D02*
X021102Y021732D01*
X021260Y020945D02*
X021417Y021102D01*
X020945Y020945D02*
X021102Y021102D01*
X020315Y019055D02*
X020472Y019212D01*
X021260Y019370D02*
X021417Y019527D01*
X020315Y015905D02*
X020472Y015748D01*
X020000Y016850D02*
X020157Y016693D01*
X020945Y017165D02*
X021102Y017008D01*
X020630Y018110D02*
X020787Y017953D01*
X019051Y010949D02*
Y011643D01*
X018878Y010776D02*
X019051Y010949D01*
X019527Y020472D02*
X019685Y020630D01*
X020472Y020472D02*
X020472D01*
X020630Y020315D01*
X020945D02*
Y020630D01*
X018425Y020315D02*
X018582Y020472D01*
X018425Y020000D02*
Y020315D01*
X018740Y020000D02*
Y020000D01*
X018897Y019212D02*
X019055Y019370D01*
X018582Y019527D02*
X018740Y019370D01*
X019685Y017795D02*
X019842Y017638D01*
X017952Y017638D02*
X018110Y017795D01*
X016850Y020000D02*
Y020000D01*
X017637Y017638D02*
Y017638D01*
X017480Y017480D02*
X017637Y017638D01*
X021574Y016850D02*
X021797D01*
X012776Y019951D02*
X012785Y019941D01*
X015118Y018582D02*
X015275Y018425D01*
X017952Y016378D02*
X018110Y016220D01*
X026025Y022722D02*
Y023739D01*
X019055Y021890D02*
X019212Y021732D01*
X021260Y021575D02*
X021279D01*
X021260Y021260D02*
X021279Y021279D01*
X021260Y021260D02*
Y021260D01*
Y021260D02*
X021417Y021102D01*
X021574Y021260D01*
X021417Y021102D02*
X021574Y020945D01*
X021417Y021102D02*
X021417Y021102D01*
X018740Y021890D02*
Y021890D01*
Y021890D02*
X018897Y021732D01*
X019370Y021575D02*
X019389D01*
X019370Y021260D02*
X019389Y021279D01*
X019370Y021260D02*
X019527Y021102D01*
Y021102D02*
Y021102D01*
X015433Y022047D02*
X015590Y022205D01*
X016693Y021417D02*
X016850Y021575D01*
X013809Y020049D02*
X013818Y020058D01*
X013748Y020049D02*
X013757Y020058D01*
X018110Y017480D02*
X018267Y017323D01*
X018267Y018582D02*
X018425Y018740D01*
Y018425D02*
X018582Y018582D01*
X018425Y019055D02*
X018582Y019212D01*
X018582Y018582D02*
X018582Y018582D01*
X018267Y018582D02*
X018267D01*
X018110Y019055D02*
X018267Y019212D01*
Y019212D01*
X021260Y017795D02*
X021417Y017638D01*
X023335Y017992D02*
Y018377D01*
Y018761D01*
Y018766D01*
X018897Y018582D02*
X019055Y018425D01*
X021260Y016220D02*
X021417Y016063D01*
X019212Y015433D02*
X019370Y015590D01*
X020945D02*
X021102Y015433D01*
X018897Y016378D02*
X019055Y016535D01*
X017480Y018425D02*
X017637Y018582D01*
X018897Y020157D02*
X019055Y020000D01*
X016785Y010591D02*
X017126D01*
X018425Y019685D02*
X018582Y019842D01*
X018740Y020000D01*
X023335Y019541D02*
Y019915D01*
Y020300D01*
Y020315D01*
Y018766D02*
Y019146D01*
Y019531D01*
Y019541D01*
Y020315D02*
Y020684D01*
Y021069D01*
Y021089D01*
X016220Y015315D02*
Y015590D01*
Y015315D02*
X016220Y015315D01*
X015275Y020000D02*
X015433Y019842D01*
X012756Y019370D02*
X012776Y019350D01*
X012530Y019370D02*
X012756D01*
X013223Y021142D02*
X013661D01*
X013819Y020984D01*
Y020925D02*
Y020984D01*
X021102Y021102D02*
X021260Y020945D01*
X023335Y021747D02*
Y021850D01*
X019055Y018110D02*
X019212Y018268D01*
X016220Y015276D02*
Y015315D01*
X010541Y019065D02*
X010689D01*
X013366Y020049D02*
X013406D01*
X013748D01*
X015118Y016693D02*
X015275Y016850D01*
X017795Y015589D02*
X017951Y015432D01*
X017795Y015589D02*
Y015590D01*
X018425Y018110D02*
X018582Y018268D01*
X023533Y022638D02*
X023673Y022498D01*
X023335Y021089D02*
Y021467D01*
Y021747D01*
Y021850D02*
Y022234D01*
Y022618D01*
X021574Y020945D02*
X021797D01*
X021574Y021890D02*
X021781Y022096D01*
X021781D01*
X021574Y021890D02*
X021594Y021870D01*
X021574Y021575D02*
X021594D01*
X015866Y023829D02*
X015935Y023760D01*
X015866Y024129D02*
Y024429D01*
X016998Y012254D02*
Y012835D01*
X011850Y021211D02*
Y021388D01*
X011535Y021703D02*
X011850Y021388D01*
X012441Y021211D02*
Y021391D01*
X012674Y021624D01*
X012687D01*
X023335Y020684D02*
X023579D01*
X024646Y016555D02*
X024927D01*
X024947Y016575D01*
X023335Y017205D02*
Y017224D01*
X024311Y016821D02*
X024400Y016909D01*
X024596D01*
X010394Y018642D02*
X010630D01*
X010630Y018642D01*
X022933Y016841D02*
X023100D01*
X023335Y017195D02*
Y017205D01*
X022933Y016486D02*
X023130D01*
X023425Y016781D01*
Y016811D01*
X023553Y017474D02*
Y017520D01*
X023868Y017303D02*
Y017677D01*
X023789Y017756D02*
X023868Y017677D01*
X025718Y017771D02*
X025866Y017622D01*
X024380Y017771D02*
X025718D01*
X012205Y015758D02*
X012480D01*
X012224Y014528D02*
Y014843D01*
Y014528D02*
X012264Y014488D01*
X014766Y011594D02*
X014972Y011801D01*
X012992Y011683D02*
X013100Y011575D01*
X012193Y012234D02*
Y012648D01*
Y013096D01*
X012207Y013110D01*
X015472Y012472D02*
X015591Y012590D01*
Y012923D01*
X016024Y011033D02*
Y011098D01*
Y011033D02*
X016220Y010837D01*
Y010787D02*
Y010837D01*
X013780Y011398D02*
X013957Y011575D01*
X013780Y011161D02*
Y011398D01*
Y011161D02*
X014071Y010870D01*
X012224Y013780D02*
Y013957D01*
X012402Y014134D01*
X013996Y012825D02*
Y013065D01*
X013927Y013134D02*
X013996Y013065D01*
X016378Y019527D02*
X016535Y019370D01*
X016228Y021888D02*
X016386Y022045D01*
X019213Y022362D02*
Y022539D01*
X019331Y022657D01*
X020315Y024201D02*
Y024626D01*
X020248Y024135D02*
X020315Y024201D01*
X010453Y019656D02*
X010689D01*
X010423Y019685D02*
X010453Y019656D01*
X018740Y019685D02*
X019055Y020000D01*
X021574Y022205D02*
X021732Y022362D01*
X021781Y022096D02*
Y022155D01*
X021782Y022156D01*
X015472Y011503D02*
Y011526D01*
Y011798D01*
Y012093D02*
Y012116D01*
Y012472D01*
X012648Y012596D02*
Y012795D01*
X014311Y011594D02*
X014766D01*
X023335Y022623D02*
Y022638D01*
X022270Y018458D02*
X022303Y018425D01*
X021607Y018458D02*
X022270D01*
X021574Y018425D02*
X021607Y018458D01*
X022362Y018425D02*
X022362Y018425D01*
X022343Y018425D02*
X022362D01*
X010689Y016634D02*
X011033D01*
X011339Y016329D01*
X011545D01*
X019406Y011643D02*
X019655D01*
X019683Y011671D01*
Y011785D01*
X023100Y016841D02*
X023277Y017017D01*
Y017137D01*
X023315Y017175D01*
X023335Y017195D01*
X023315Y017175D02*
Y017175D01*
Y017195D01*
X017165Y015905D02*
X017322Y016063D01*
X018740Y015905D02*
X018897Y016063D01*
X037942Y015245D02*
X037953Y015235D01*
X037942Y015245D02*
Y015566D01*
X029439Y017574D02*
X029862D01*
X029439Y016396D02*
X029793D01*
X029793Y016396D01*
X029862D01*
X029439Y015215D02*
X029862D01*
X029439Y014624D02*
X029793D01*
X029793Y014624D01*
X029862D01*
X029439Y014428D02*
Y014624D01*
X029439Y018761D02*
X029794D01*
X029794Y018761D01*
X029862D01*
X029434Y019351D02*
X029789D01*
X029789Y019351D01*
X029857D01*
X029439Y019942D02*
X029794D01*
X029794Y019942D01*
X029862D01*
X029439Y020533D02*
X029794D01*
X029794Y020533D01*
X029862D01*
X035935Y014452D02*
Y014788D01*
X038248Y012380D02*
X038307Y012321D01*
X036752Y012380D02*
X038248D01*
X036693Y012321D02*
X036752Y012380D01*
X036693Y012075D02*
Y012321D01*
X041333Y012602D02*
X041841Y012095D01*
X041841Y011859D02*
X041841Y011859D01*
X036683Y012065D02*
X036693Y012075D01*
X038701Y012321D02*
X038982Y012602D01*
X038307Y012321D02*
X038701D01*
X036469Y024384D02*
X036554Y024298D01*
X036383Y024469D02*
X036469Y024384D01*
X037734Y023109D02*
X038041D01*
X037627Y023002D02*
X037734Y023109D01*
X037627Y022654D02*
Y023002D01*
X037313Y012065D02*
X037717D01*
X038543Y012518D02*
X038543D01*
Y013069D01*
X032952Y025056D02*
X032961Y025046D01*
X033542D01*
X034851Y023363D02*
X035166D01*
X035291Y014487D02*
X035295Y014491D01*
X034892Y014487D02*
X035291D01*
X034892Y014841D02*
X034896Y014846D01*
X035295D01*
X034577Y022065D02*
X034577Y022066D01*
X034865D01*
X035768Y023628D02*
Y023969D01*
X037184Y022654D02*
X037627D01*
X036583D02*
X037184Y023255D01*
X036554Y022654D02*
X036583D01*
X037421Y022065D02*
X037421Y022065D01*
X037135Y022065D02*
X037421D01*
X037135Y022065D02*
X037135Y022065D01*
X036725Y022065D02*
X037135D01*
X036554Y023255D02*
Y024298D01*
X035768Y024469D02*
X036383D01*
X033983Y026070D02*
X033984Y026072D01*
X033831Y025458D02*
X033833Y025460D01*
X034300D01*
X041841Y011429D02*
Y011859D01*
X040443Y011429D02*
Y011859D01*
X040443Y011859D01*
X041093Y011429D02*
Y011859D01*
X041093Y011859D01*
X039695Y011859D02*
X039695Y011859D01*
X039695Y011429D02*
Y011859D01*
X038592Y012014D02*
X039104D01*
X038061D02*
X038592D01*
X039104Y012321D02*
X039104Y012321D01*
X039104Y012014D02*
Y012321D01*
X036693Y014437D02*
Y014773D01*
X036695Y014776D01*
X036708Y014788D01*
X037135D01*
X042174Y014820D02*
X042175Y014821D01*
X041742Y014820D02*
X042174D01*
X041742Y014426D02*
Y014623D01*
X040462Y014428D02*
Y014624D01*
Y015018D02*
Y015215D01*
Y015609D02*
Y015805D01*
X041319Y014623D02*
X041388D01*
X041388Y014623D01*
X041742D01*
X040039Y014624D02*
X040108D01*
X040108Y014624D01*
X040462D01*
X040039Y021712D02*
X040108D01*
X040108Y021712D01*
X040462D01*
X041319Y021711D02*
X041388D01*
X041388Y021711D01*
X041742D01*
X041319Y015017D02*
X041388D01*
X041388Y015017D01*
X041742D01*
X040039Y015018D02*
X040108D01*
X040108Y015018D01*
X040462D01*
X041113Y014893D02*
Y015081D01*
X041245Y015214D01*
X041742D01*
X040039Y021122D02*
X040108D01*
X040108Y021122D01*
X040462D01*
X041319Y015410D02*
X041388D01*
X041388Y015410D01*
X041742D01*
X041319Y021120D02*
X041388D01*
X041388Y021120D01*
X041742D01*
X040039Y015609D02*
X040108D01*
X040108Y015609D01*
X040462D01*
X041319Y020727D02*
X041388D01*
X041388Y020727D01*
X041742D01*
X040039Y020532D02*
X040108D01*
X040108Y020532D01*
X040462D01*
X041319Y016001D02*
X041388D01*
X041388Y016001D01*
X041742D01*
X041319Y020530D02*
X041388D01*
X041388Y020530D01*
X041742D01*
X040039Y019941D02*
X040108D01*
X040108Y019941D01*
X040462D01*
X041319Y016591D02*
X041388D01*
X041388Y016591D01*
X041742D01*
X041319Y019939D02*
X041388D01*
X041388Y019939D01*
X041742D01*
X040039Y016593D02*
X040108D01*
X040108Y016593D01*
X040462D01*
X040034Y019351D02*
X040103D01*
X040103Y019351D01*
X040457D01*
X041324Y017181D02*
X041393D01*
X041393Y017181D01*
X041747D01*
X041319Y019349D02*
X041388D01*
X041388Y019349D01*
X041742D01*
X040039Y017183D02*
X040108D01*
X040108Y017183D01*
X040462D01*
X040039Y018760D02*
X040108D01*
X040108Y018760D01*
X040462D01*
X041319Y017773D02*
X041388D01*
X041388Y017773D01*
X041742D01*
X041319Y018757D02*
X041388D01*
X041388Y018757D01*
X041742D01*
X040039Y017775D02*
X040108D01*
X040108Y017775D01*
X040462D01*
X040039Y018366D02*
X040108D01*
X040108Y018366D01*
X040462D01*
X041319Y018363D02*
X041388D01*
X041388Y018363D01*
X041742D01*
X030046Y021353D02*
X030089D01*
X029814Y021122D02*
X030046Y021353D01*
X029439Y021122D02*
X029814D01*
X029439Y020723D02*
Y020925D01*
X030719Y021908D02*
Y022105D01*
X030296Y021908D02*
X030364D01*
X030364Y021908D01*
X030719D01*
X030089Y021843D02*
Y022033D01*
X030222Y021711D02*
X030719D01*
X029016Y021516D02*
X029084D01*
X029084Y021516D01*
X029439D01*
X030296Y015017D02*
X030364D01*
X030364Y015017D01*
X030719D01*
X030296Y021514D02*
X030364D01*
X030364Y021514D01*
X030719D01*
X029016Y021319D02*
X029084D01*
X029084Y021319D01*
X029439D01*
X030296Y015214D02*
X030364D01*
X030364Y015214D01*
X030719D01*
X030089Y021353D02*
X030145D01*
X030377Y021120D01*
X030719D01*
X030296Y020924D02*
X030364D01*
X030364Y020924D01*
X030719D01*
X030089Y020859D02*
Y021013D01*
Y020859D02*
X030222Y020727D01*
X030719D01*
X028809Y020959D02*
X028863D01*
X029099Y020723D01*
X029439D01*
X030296Y015809D02*
X030364D01*
X030364Y015809D01*
X030719D01*
X030296Y020530D02*
X030364D01*
X030364Y020530D01*
X030719D01*
X030296Y016395D02*
X030364D01*
X030364Y016395D01*
X030719D01*
X030296Y019939D02*
X030364D01*
X030364Y019939D01*
X030719D01*
X030296Y016985D02*
X030364D01*
X030364Y016985D01*
X030719D01*
X030296Y019349D02*
X030364D01*
X030364Y019349D01*
X030719D01*
X030296Y019150D02*
X030364D01*
X030364Y019150D01*
X030719D01*
X030296Y017576D02*
X030719D01*
X030296Y018757D02*
X030364D01*
X030364Y018757D01*
X030719D01*
X030296Y018166D02*
X030364D01*
X030364Y018166D01*
X030719D01*
Y014820D02*
Y015017D01*
X029016Y018170D02*
X029084D01*
X029084Y018170D01*
X029016Y016987D02*
X029085D01*
X029085Y016987D01*
X029439D01*
X029439D01*
X029016Y015805D02*
X029085D01*
X029085Y015805D01*
X029439D01*
X029439D01*
X039911Y015392D02*
X039931Y015412D01*
X040462D01*
X039813Y014821D02*
Y014841D01*
X040462Y016002D02*
X040817D01*
X040817Y016002D01*
X040886D01*
X041112Y015756D02*
X041165Y015809D01*
X041742D01*
Y015607D02*
Y015809D01*
X035295Y014491D02*
X035631D01*
X030719Y021317D02*
Y021514D01*
X038051Y010510D02*
X038061Y010500D01*
X041841Y011859D02*
Y012095D01*
X038780Y017213D02*
X039010D01*
X037175Y018056D02*
X037564D01*
X037581Y018038D01*
X038120Y017203D02*
X038362D01*
X035768Y023628D02*
X036102Y023293D01*
Y022754D02*
Y023293D01*
Y022754D02*
X036202Y022654D01*
X036554D01*
X038982Y012602D02*
X039291D01*
X041333D01*
X037126Y010510D02*
X038051D01*
X030089Y021843D02*
X030222Y021711D01*
X038362Y017203D02*
X038425Y017266D01*
D15*
X014492Y024778D02*
G03*
X013978Y024991I-000514J-000514D01*
G01*
X013317D02*
G03*
X013268Y024970I000000J-000069D01*
G01*
X014722Y024548D02*
G03*
X014905Y024472I000183J000183D01*
G01*
X014492Y024778D02*
X014722Y024548D01*
X013317Y024991D02*
X013978D01*
X014905Y024472D02*
X015005D01*
D16*
X024026Y020699D02*
D03*
X023671D02*
D03*
X019495Y023378D02*
D03*
X019495Y023791D02*
D03*
X019141Y023378D02*
D03*
X019141Y023791D02*
D03*
X023661Y016033D02*
D03*
X024016D02*
D03*
X023012Y023386D02*
D03*
X023366D02*
D03*
X019406Y011643D02*
D03*
X019051D02*
D03*
X014311Y011594D02*
D03*
X013957D02*
D03*
X018110Y011260D02*
D03*
X018465D02*
D03*
X024498Y014094D02*
D03*
X024144D02*
D03*
X020315Y024626D02*
D03*
X019961D02*
D03*
X013307Y017884D02*
D03*
X012953D02*
D03*
X017695Y023964D02*
D03*
X017341D02*
D03*
X038802Y019806D02*
D03*
X038448D02*
D03*
X037935Y018038D02*
D03*
X037581D02*
D03*
X038484Y022469D02*
D03*
X038839D02*
D03*
X034497Y023363D02*
D03*
X034851D02*
D03*
X037588Y015566D02*
D03*
X037942D02*
D03*
X037935Y017459D02*
D03*
X037581D02*
D03*
X037935Y018438D02*
D03*
X037581D02*
D03*
X038802Y018896D02*
D03*
X038448D02*
D03*
X038802Y019426D02*
D03*
X038448D02*
D03*
X037899Y019826D02*
D03*
X037545D02*
D03*
X038780Y017213D02*
D03*
X038425D02*
D03*
X038780Y017607D02*
D03*
X038425D02*
D03*
X038780Y016829D02*
D03*
X038425D02*
D03*
X038022Y020520D02*
D03*
X037667D02*
D03*
X038802Y020906D02*
D03*
X038448D02*
D03*
X038802Y020236D02*
D03*
X038448D02*
D03*
D17*
X024937Y019130D02*
D03*
Y019630D02*
D03*
Y020630D02*
D03*
Y021630D02*
D03*
Y018630D02*
D03*
Y020130D02*
D03*
Y021130D02*
D03*
D18*
X019685Y021890D02*
D03*
Y022205D02*
D03*
X021260Y020630D02*
D03*
X021574D02*
D03*
X014960Y022205D02*
D03*
X015275D02*
D03*
X014960Y021890D02*
D03*
X015275D02*
D03*
X015590Y021575D02*
D03*
X015905D02*
D03*
X016220D02*
D03*
X016535D02*
D03*
X016850Y021575D02*
D03*
X017165Y021575D02*
D03*
X017480D02*
D03*
X017795D02*
D03*
X018110D02*
D03*
X018425D02*
D03*
X018740D02*
D03*
X019055D02*
D03*
X019370D02*
D03*
X019685D02*
D03*
X020000D02*
D03*
X020315D02*
D03*
X020630D02*
D03*
X020945D02*
D03*
X021260D02*
D03*
X021574D02*
D03*
X015590Y021260D02*
D03*
X015905D02*
D03*
X016220D02*
D03*
X016535D02*
D03*
X016850Y021260D02*
D03*
X017165Y021260D02*
D03*
X017480D02*
D03*
X017795D02*
D03*
X018110D02*
D03*
X018425D02*
D03*
X018740D02*
D03*
X019055D02*
D03*
X019370D02*
D03*
X019685Y021260D02*
D03*
X020000Y021260D02*
D03*
X020315D02*
D03*
X020630D02*
D03*
X020945D02*
D03*
X021260D02*
D03*
X021574D02*
D03*
X015590Y020945D02*
D03*
X015905D02*
D03*
X016220Y020945D02*
D03*
X016535D02*
D03*
X016850D02*
D03*
X017165D02*
D03*
X017480Y020945D02*
D03*
X017795Y020945D02*
D03*
X018110D02*
D03*
X018425D02*
D03*
X018740D02*
D03*
X019055D02*
D03*
X019370Y020945D02*
D03*
X019685Y020945D02*
D03*
X020000D02*
D03*
X020315D02*
D03*
X020630D02*
D03*
X020945D02*
D03*
X021260Y020945D02*
D03*
X021574Y020945D02*
D03*
X015590Y020630D02*
D03*
X015905D02*
D03*
X016220Y020630D02*
D03*
X016535D02*
D03*
X016850D02*
D03*
X017165D02*
D03*
X017480D02*
D03*
X017795D02*
D03*
X018110D02*
D03*
X018425D02*
D03*
X018740D02*
D03*
X019055Y020630D02*
D03*
X019370D02*
D03*
X019685Y020630D02*
D03*
X020000D02*
D03*
X020315D02*
D03*
X020630D02*
D03*
X020945D02*
D03*
X015590Y020315D02*
D03*
X015905D02*
D03*
X016220D02*
D03*
X016535D02*
D03*
X016850D02*
D03*
X017165D02*
D03*
X017480D02*
D03*
X017795D02*
D03*
X018110D02*
D03*
X018425D02*
D03*
X018740D02*
D03*
X019055D02*
D03*
X019370D02*
D03*
X019685D02*
D03*
X020000D02*
D03*
X020315D02*
D03*
X020630D02*
D03*
X020945D02*
D03*
X021260D02*
D03*
X021574D02*
D03*
X015590Y020000D02*
D03*
X015905D02*
D03*
X016220Y020000D02*
D03*
X016535D02*
D03*
X016850D02*
D03*
X017165Y020000D02*
D03*
X017480D02*
D03*
X017795D02*
D03*
X018110D02*
D03*
X018425Y020000D02*
D03*
X018740Y020000D02*
D03*
X019055D02*
D03*
X019370D02*
D03*
X019685D02*
D03*
X020000D02*
D03*
X020315Y020000D02*
D03*
X020630Y020000D02*
D03*
X020945D02*
D03*
X021260D02*
D03*
X021574D02*
D03*
X015590Y019685D02*
D03*
X015905D02*
D03*
X016220D02*
D03*
X016535Y019685D02*
D03*
X016850D02*
D03*
X017165Y019685D02*
D03*
X017480D02*
D03*
X017795D02*
D03*
X018110Y019685D02*
D03*
X018425Y019685D02*
D03*
X018740D02*
D03*
X019055D02*
D03*
X019370D02*
D03*
X019685D02*
D03*
X020000D02*
D03*
X020315Y019685D02*
D03*
X020630Y019685D02*
D03*
X020945D02*
D03*
X021260D02*
D03*
X021574D02*
D03*
X015590Y019370D02*
D03*
X015905D02*
D03*
X016220D02*
D03*
X016535D02*
D03*
X016850D02*
D03*
X017165Y019370D02*
D03*
X017480D02*
D03*
X017795Y019370D02*
D03*
X018110D02*
D03*
X018425D02*
D03*
X018740D02*
D03*
X019055Y019370D02*
D03*
X019370D02*
D03*
X019685D02*
D03*
X020000Y019370D02*
D03*
X020315D02*
D03*
X020630D02*
D03*
X020945D02*
D03*
X021260Y019370D02*
D03*
X021574D02*
D03*
X015590Y019055D02*
D03*
X015905D02*
D03*
X016220D02*
D03*
X016535D02*
D03*
X016850D02*
D03*
X017165Y019055D02*
D03*
X017480Y019055D02*
D03*
X017795D02*
D03*
X018110D02*
D03*
X018425D02*
D03*
X018740D02*
D03*
X019055D02*
D03*
X019370Y019055D02*
D03*
X019685Y019055D02*
D03*
X020000D02*
D03*
X020315D02*
D03*
X020630D02*
D03*
X020945D02*
D03*
X021260D02*
D03*
X021574Y019055D02*
D03*
X015590Y018740D02*
D03*
X015905D02*
D03*
X016220Y018740D02*
D03*
X016535D02*
D03*
X016850D02*
D03*
X017165D02*
D03*
X017480Y018740D02*
D03*
X017795Y018740D02*
D03*
X018110D02*
D03*
X018425D02*
D03*
X018740D02*
D03*
X019055D02*
D03*
X019370Y018740D02*
D03*
X019685Y018740D02*
D03*
X020000D02*
D03*
X020315D02*
D03*
X020630D02*
D03*
X020945D02*
D03*
X021260Y018740D02*
D03*
X021574Y018740D02*
D03*
X015590Y018425D02*
D03*
X015905D02*
D03*
X016220Y018425D02*
D03*
X016535D02*
D03*
X016850Y018425D02*
D03*
X017165D02*
D03*
X017480D02*
D03*
X017795Y018425D02*
D03*
X018110D02*
D03*
X018425D02*
D03*
X018740D02*
D03*
X019055Y018425D02*
D03*
X019370D02*
D03*
X019685D02*
D03*
X020000Y018425D02*
D03*
X020315D02*
D03*
X020630D02*
D03*
X020945D02*
D03*
X021260Y018425D02*
D03*
X021574D02*
D03*
X015590Y018110D02*
D03*
X015905D02*
D03*
X016220Y018110D02*
D03*
X016535Y018110D02*
D03*
X016850D02*
D03*
X017165D02*
D03*
X017480D02*
D03*
X017795D02*
D03*
X018110Y018110D02*
D03*
X018425D02*
D03*
X018740Y018110D02*
D03*
X019055D02*
D03*
X019370D02*
D03*
X019685D02*
D03*
X020000D02*
D03*
X020315Y018110D02*
D03*
X020630D02*
D03*
X020945Y018110D02*
D03*
X021260D02*
D03*
X021574D02*
D03*
X015590Y017795D02*
D03*
X015905D02*
D03*
X016220Y017795D02*
D03*
X016535Y017795D02*
D03*
X016850D02*
D03*
X017165D02*
D03*
X017480D02*
D03*
X017795D02*
D03*
X018110D02*
D03*
X018425Y017795D02*
D03*
X018740Y017795D02*
D03*
X019055D02*
D03*
X019370D02*
D03*
X019685D02*
D03*
X020000D02*
D03*
X020315D02*
D03*
X020630D02*
D03*
X020945D02*
D03*
X021260D02*
D03*
X021574D02*
D03*
X015590Y017480D02*
D03*
X015905D02*
D03*
X016220Y017480D02*
D03*
X016535D02*
D03*
X016850D02*
D03*
X017165Y017480D02*
D03*
X017480D02*
D03*
X017795D02*
D03*
X018110Y017480D02*
D03*
X018425D02*
D03*
X018740Y017480D02*
D03*
X019055D02*
D03*
X019370D02*
D03*
X019685D02*
D03*
X020315Y017480D02*
D03*
X020630D02*
D03*
X020945Y017480D02*
D03*
X021260D02*
D03*
X021574D02*
D03*
X015590Y017165D02*
D03*
X015905D02*
D03*
X016220D02*
D03*
X016535D02*
D03*
X016850D02*
D03*
X017165Y017165D02*
D03*
X017480D02*
D03*
X017795Y017165D02*
D03*
X018110D02*
D03*
X018425D02*
D03*
X018740D02*
D03*
X019055Y017165D02*
D03*
X019370D02*
D03*
X019685D02*
D03*
X020000Y017165D02*
D03*
X020315D02*
D03*
X020630D02*
D03*
X020945D02*
D03*
X021260Y017165D02*
D03*
X021574D02*
D03*
X015590Y016850D02*
D03*
X015905D02*
D03*
X016220Y016850D02*
D03*
X016535D02*
D03*
X016850D02*
D03*
X017165D02*
D03*
X017480Y016850D02*
D03*
X017795Y016850D02*
D03*
X018110D02*
D03*
X018425D02*
D03*
X018740Y016850D02*
D03*
X019055D02*
D03*
X019370Y016850D02*
D03*
X019685D02*
D03*
X020000D02*
D03*
X020315Y016850D02*
D03*
X020630D02*
D03*
X020945D02*
D03*
X021260D02*
D03*
X021574Y016850D02*
D03*
X015590Y016535D02*
D03*
X015905D02*
D03*
X016220D02*
D03*
X016535D02*
D03*
X016850D02*
D03*
X017165D02*
D03*
X017480D02*
D03*
X017795D02*
D03*
X018110D02*
D03*
X018425D02*
D03*
X018740D02*
D03*
X019055D02*
D03*
X019370D02*
D03*
X019685D02*
D03*
X020000D02*
D03*
X020315D02*
D03*
X020630D02*
D03*
X020945D02*
D03*
X021260D02*
D03*
X015590Y016220D02*
D03*
X015905D02*
D03*
X016220Y016220D02*
D03*
X016535D02*
D03*
X016850Y016220D02*
D03*
X017165D02*
D03*
X017480D02*
D03*
X017795Y016220D02*
D03*
X018110D02*
D03*
X018425D02*
D03*
X018740D02*
D03*
X019055Y016220D02*
D03*
X019370D02*
D03*
X019685D02*
D03*
X020000Y016220D02*
D03*
X020315D02*
D03*
X020630D02*
D03*
X020945D02*
D03*
X021260Y016220D02*
D03*
X015590Y015905D02*
D03*
X015905D02*
D03*
X016220D02*
D03*
X016535Y015905D02*
D03*
X016850D02*
D03*
X017165Y015905D02*
D03*
X017480D02*
D03*
X017795Y015905D02*
D03*
X018110Y015905D02*
D03*
X018425D02*
D03*
X018740D02*
D03*
X019055D02*
D03*
X019370D02*
D03*
X019685Y015905D02*
D03*
X020000D02*
D03*
X020315Y015905D02*
D03*
X020630D02*
D03*
X020945D02*
D03*
X021260D02*
D03*
X021574Y015905D02*
D03*
X015590Y015590D02*
D03*
X015905D02*
D03*
X016220Y015590D02*
D03*
X016535Y015590D02*
D03*
X016850D02*
D03*
X017165Y015590D02*
D03*
X017480D02*
D03*
X017795Y015590D02*
D03*
X018110D02*
D03*
X018425Y015590D02*
D03*
X018740Y015590D02*
D03*
X019055D02*
D03*
X019370D02*
D03*
X019685Y015590D02*
D03*
X020000D02*
D03*
X020315D02*
D03*
X020630D02*
D03*
X020945Y015590D02*
D03*
X015275D02*
D03*
X014960D02*
D03*
X015275Y015905D02*
D03*
X014960D02*
D03*
X015275Y016220D02*
D03*
X014960D02*
D03*
X015275Y016535D02*
D03*
X014960D02*
D03*
X015275Y016850D02*
D03*
X014960Y016850D02*
D03*
X015275Y017165D02*
D03*
X014960D02*
D03*
X015275Y017480D02*
D03*
X014960D02*
D03*
X015275Y017795D02*
D03*
X014960D02*
D03*
X015275Y018110D02*
D03*
X014960D02*
D03*
X015275Y018425D02*
D03*
X014960D02*
D03*
X015275Y018740D02*
D03*
X014960D02*
D03*
X015275Y019055D02*
D03*
X014960Y019055D02*
D03*
X015275Y019370D02*
D03*
X014960D02*
D03*
X015275Y019685D02*
D03*
X014960D02*
D03*
X015275Y020000D02*
D03*
X014960D02*
D03*
X015275Y020315D02*
D03*
X014960D02*
D03*
X015275Y020630D02*
D03*
X014960D02*
D03*
X015275Y020945D02*
D03*
X014960Y020945D02*
D03*
X015275Y021260D02*
D03*
X014960D02*
D03*
X015275Y021575D02*
D03*
X014960D02*
D03*
X021574Y021890D02*
D03*
X021260D02*
D03*
X020630D02*
D03*
X020315Y021890D02*
D03*
X020000Y021890D02*
D03*
X019370D02*
D03*
X019055D02*
D03*
X018740D02*
D03*
X018425D02*
D03*
X021574Y022205D02*
D03*
X021260D02*
D03*
X020630D02*
D03*
X020315Y022205D02*
D03*
X020000Y022205D02*
D03*
X019370D02*
D03*
X019055D02*
D03*
X018740D02*
D03*
X018425Y022205D02*
D03*
X018110Y021890D02*
D03*
X017795Y021890D02*
D03*
X017480D02*
D03*
X017165D02*
D03*
X016850D02*
D03*
X016535Y021890D02*
D03*
X018110Y022205D02*
D03*
X017795D02*
D03*
X017480D02*
D03*
X017165D02*
D03*
X016850D02*
D03*
X016535Y022205D02*
D03*
X016220Y021890D02*
D03*
X015905Y021890D02*
D03*
X015590Y021890D02*
D03*
X016220Y022205D02*
D03*
X015905Y022205D02*
D03*
X015590D02*
D03*
X020945Y021890D02*
D03*
Y022205D02*
D03*
X021574Y016535D02*
D03*
Y016220D02*
D03*
X021574Y015590D02*
D03*
X021260D02*
D03*
X020000Y017480D02*
D03*
D19*
X018044Y023434D02*
D03*
X018456D02*
D03*
X018044Y023788D02*
D03*
X018456D02*
D03*
X022933Y016841D02*
D03*
Y016486D02*
D03*
X021663Y024941D02*
D03*
X021663Y024587D02*
D03*
X013819Y020925D02*
D03*
Y020571D02*
D03*
X013799Y019754D02*
D03*
Y020108D02*
D03*
X010394Y018287D02*
D03*
Y018642D02*
D03*
X024596Y016909D02*
D03*
X024596Y016555D02*
D03*
X015005Y025216D02*
D03*
Y025571D02*
D03*
X015005Y024826D02*
D03*
Y024472D02*
D03*
X023750Y013760D02*
D03*
Y013406D02*
D03*
X021703Y023868D02*
D03*
Y023514D02*
D03*
X012205Y016112D02*
D03*
Y015758D02*
D03*
X034892Y014487D02*
D03*
Y014841D02*
D03*
X035105Y022793D02*
D03*
Y022438D02*
D03*
X034865Y022066D02*
D03*
Y021711D02*
D03*
X035295Y014846D02*
D03*
Y014491D02*
D03*
X032775Y018456D02*
D03*
Y018101D02*
D03*
X033245Y018453D02*
D03*
Y018098D02*
D03*
X035385Y022073D02*
D03*
Y021718D02*
D03*
X036315Y022065D02*
D03*
Y021711D02*
D03*
X035905Y022065D02*
D03*
Y021711D02*
D03*
X035635Y022790D02*
D03*
Y022436D02*
D03*
X035935Y015143D02*
D03*
Y014788D02*
D03*
X037135Y014788D02*
D03*
Y015143D02*
D03*
X036725Y022065D02*
D03*
Y021711D02*
D03*
X036695Y014776D02*
D03*
Y015130D02*
D03*
X037135Y022065D02*
D03*
Y021711D02*
D03*
D20*
X023632Y011073D02*
D03*
Y010443D02*
D03*
X036073Y012685D02*
D03*
Y012056D02*
D03*
D21*
X013996Y012116D02*
D03*
Y012825D02*
D03*
D22*
X010827Y022118D02*
D03*
Y022488D02*
D03*
X010423Y022118D02*
D03*
X010423Y022488D02*
D03*
X016024Y011098D02*
D03*
Y011468D02*
D03*
X014787Y010878D02*
D03*
Y011248D02*
D03*
X016425Y011098D02*
D03*
Y011468D02*
D03*
X013002Y012226D02*
D03*
X013002Y012596D02*
D03*
X012648D02*
D03*
Y012226D02*
D03*
X013729Y018222D02*
D03*
Y018593D02*
D03*
X014130Y018593D02*
D03*
Y018222D02*
D03*
X015005Y026307D02*
D03*
Y025937D02*
D03*
X016441Y023785D02*
D03*
Y023415D02*
D03*
X014035Y016819D02*
D03*
Y016449D02*
D03*
X036065Y010859D02*
D03*
Y010489D02*
D03*
X038061Y012014D02*
D03*
Y011644D02*
D03*
X038592Y012014D02*
D03*
Y011644D02*
D03*
X039104Y012014D02*
D03*
Y011644D02*
D03*
D23*
X011878Y017697D02*
D03*
X011508D02*
D03*
X025563Y011732D02*
D03*
X025933D02*
D03*
X019821Y011047D02*
D03*
X020191D02*
D03*
X020913Y011043D02*
D03*
X020543D02*
D03*
X023293Y016125D02*
D03*
X022923D02*
D03*
X012207Y013150D02*
D03*
X012577D02*
D03*
X012193Y012234D02*
D03*
X011823D02*
D03*
X012193Y012648D02*
D03*
X011823D02*
D03*
X023335Y021850D02*
D03*
X022965D02*
D03*
X023663Y021788D02*
D03*
X024033D02*
D03*
X023335Y022234D02*
D03*
X022965D02*
D03*
X023335Y022618D02*
D03*
X022965D02*
D03*
X023004Y022992D02*
D03*
X023374D02*
D03*
X023663Y022175D02*
D03*
X024033D02*
D03*
X023335Y021467D02*
D03*
X022965D02*
D03*
X023663Y018797D02*
D03*
X024033D02*
D03*
X023663Y019581D02*
D03*
X024033D02*
D03*
X023663Y019189D02*
D03*
X024033D02*
D03*
X023335Y017205D02*
D03*
X022965D02*
D03*
X023663Y019972D02*
D03*
X024033D02*
D03*
X023335Y017608D02*
D03*
X022965D02*
D03*
X023335Y018377D02*
D03*
X022965D02*
D03*
X023335Y017992D02*
D03*
X022965D02*
D03*
X023663Y020364D02*
D03*
X024033D02*
D03*
X023663Y018406D02*
D03*
X024033D02*
D03*
X023663Y021014D02*
D03*
X024033D02*
D03*
X023663Y021401D02*
D03*
X024033D02*
D03*
X023335Y020300D02*
D03*
X022965D02*
D03*
X023335Y019915D02*
D03*
X022965D02*
D03*
X023335Y021069D02*
D03*
X022965D02*
D03*
X023335Y020684D02*
D03*
X022965D02*
D03*
X023335Y019146D02*
D03*
X022965D02*
D03*
X023335Y018761D02*
D03*
X022965D02*
D03*
X023335Y019531D02*
D03*
X022965D02*
D03*
X010591Y023494D02*
D03*
X010220D02*
D03*
X010937D02*
D03*
X011307D02*
D03*
X022650Y013032D02*
D03*
X023020D02*
D03*
X013669Y014990D02*
D03*
X013299D02*
D03*
X038417Y016445D02*
D03*
X038787D02*
D03*
X037567Y018838D02*
D03*
X037937D02*
D03*
X034450Y026070D02*
D03*
X034820D02*
D03*
X038417Y016052D02*
D03*
X038787Y016052D02*
D03*
X038417Y015658D02*
D03*
X038787D02*
D03*
D24*
X023622Y012953D02*
D03*
Y012795D02*
D03*
Y012638D02*
D03*
Y012480D02*
D03*
Y012323D02*
D03*
Y012165D02*
D03*
Y012008D02*
D03*
X024803D02*
D03*
Y012165D02*
D03*
Y012323D02*
D03*
Y012480D02*
D03*
Y012638D02*
D03*
Y012795D02*
D03*
Y012953D02*
D03*
D25*
X024213Y012480D02*
D03*
D26*
X020059Y010433D02*
D03*
X019429D02*
D03*
X034465Y013446D02*
D03*
X035095D02*
D03*
X037184Y023255D02*
D03*
X036554D02*
D03*
X037184Y022654D02*
D03*
X036554D02*
D03*
D27*
X014350Y010522D02*
D03*
Y011171D02*
D03*
X011018Y023975D02*
D03*
Y024625D02*
D03*
X010467Y023975D02*
D03*
Y024625D02*
D03*
X038061Y010500D02*
D03*
Y011150D02*
D03*
X038593Y010500D02*
D03*
Y011150D02*
D03*
X039114Y010500D02*
D03*
Y011150D02*
D03*
D28*
X020276Y014232D02*
D03*
Y013642D02*
D03*
X014892Y014232D02*
D03*
Y013642D02*
D03*
X016919Y014232D02*
D03*
Y013642D02*
D03*
X017534Y014232D02*
D03*
Y013642D02*
D03*
X018130Y014232D02*
D03*
Y013642D02*
D03*
X017480Y022943D02*
D03*
Y023533D02*
D03*
X036693Y012676D02*
D03*
Y013266D02*
D03*
D29*
X011968Y011683D02*
D03*
X012992D02*
D03*
D30*
X019557Y012884D02*
D03*
X020266D02*
D03*
X021319Y012717D02*
D03*
X022028D02*
D03*
X016289Y012835D02*
D03*
X016998D02*
D03*
D31*
X022884Y011752D02*
D03*
Y012343D02*
D03*
X019016Y012234D02*
D03*
Y012825D02*
D03*
X015472Y011526D02*
D03*
Y012116D02*
D03*
X018285Y011776D02*
D03*
Y012366D02*
D03*
D32*
X015591Y012923D02*
D03*
Y013632D02*
D03*
D33*
X019419Y011240D02*
D03*
X020994Y013612D02*
D03*
X020571Y010413D02*
D03*
X022736Y015315D02*
D03*
X014262Y013583D02*
D03*
X015630Y010433D02*
D03*
X016998Y012254D02*
D03*
X012185Y016535D02*
D03*
X030768Y025156D02*
D03*
X030276D02*
D03*
X029783D02*
D03*
X029291D02*
D03*
X042726Y023896D02*
D03*
X039291Y013148D02*
D03*
X043189Y020407D02*
D03*
D34*
X019222Y014715D02*
D03*
Y013612D02*
D03*
D35*
X023750Y017756D02*
D03*
X024341D02*
D03*
X021171Y024035D02*
D03*
X020581D02*
D03*
X022421Y013691D02*
D03*
X023012D02*
D03*
X034950Y023875D02*
D03*
X034359D02*
D03*
D36*
X011850Y013780D02*
D03*
X012224Y013780D02*
D03*
X012598Y013780D02*
D03*
Y014843D02*
D03*
X012224Y014843D02*
D03*
X011850Y014843D02*
D03*
D37*
X013032Y021211D02*
D03*
X012835D02*
D03*
X012638D02*
D03*
X012441D02*
D03*
X012244D02*
D03*
X012047D02*
D03*
X011850D02*
D03*
X011654D02*
D03*
X011457D02*
D03*
X011260D02*
D03*
X011063D02*
D03*
Y018494D02*
D03*
X011260D02*
D03*
X011457D02*
D03*
X011654D02*
D03*
X011850D02*
D03*
X012047D02*
D03*
X012244D02*
D03*
X012441D02*
D03*
X012638D02*
D03*
X012835D02*
D03*
X013032D02*
D03*
D38*
X010689Y020837D02*
D03*
Y020640D02*
D03*
Y020443D02*
D03*
Y020246D02*
D03*
Y020049D02*
D03*
Y019852D02*
D03*
Y019656D02*
D03*
Y019459D02*
D03*
Y019262D02*
D03*
Y019065D02*
D03*
Y018868D02*
D03*
X013406D02*
D03*
Y019065D02*
D03*
Y019262D02*
D03*
Y019459D02*
D03*
Y019656D02*
D03*
Y019852D02*
D03*
Y020049D02*
D03*
Y020246D02*
D03*
Y020443D02*
D03*
Y020640D02*
D03*
Y020837D02*
D03*
D39*
X012047Y019852D02*
D03*
D40*
X023868Y016890D02*
D03*
D41*
X024183Y016476D02*
D03*
X024026D02*
D03*
X023868D02*
D03*
X023711D02*
D03*
X023553D02*
D03*
Y017303D02*
D03*
X023711D02*
D03*
X023868D02*
D03*
X024026D02*
D03*
X024183D02*
D03*
D42*
X017455Y011240D02*
D03*
X022037Y011230D02*
D03*
D43*
X016785Y010591D02*
D03*
X018124D02*
D03*
X021368Y010581D02*
D03*
X022707D02*
D03*
D44*
X011850Y022874D02*
D03*
Y022008D02*
D03*
X012520Y022874D02*
D03*
Y022008D02*
D03*
X023996Y014685D02*
D03*
Y015551D02*
D03*
X023248Y015551D02*
D03*
Y014685D02*
D03*
D45*
X025651Y024645D02*
D03*
X026025Y023739D02*
D03*
X025277D02*
D03*
X040069Y010524D02*
D03*
X039695Y011429D02*
D03*
X040443D02*
D03*
X041467Y010524D02*
D03*
X041093Y011429D02*
D03*
X041841D02*
D03*
D46*
X017894Y024646D02*
D03*
Y024803D02*
D03*
Y024961D02*
D03*
Y025118D02*
D03*
Y025276D02*
D03*
Y025748D02*
D03*
X015571D02*
D03*
Y025591D02*
D03*
Y025433D02*
D03*
Y025276D02*
D03*
Y025118D02*
D03*
Y024961D02*
D03*
Y024803D02*
D03*
Y024646D02*
D03*
X017894Y025591D02*
D03*
Y025433D02*
D03*
D47*
X017598Y025965D02*
D03*
X017441D02*
D03*
X017283D02*
D03*
X017126D02*
D03*
X016968D02*
D03*
X016811Y025965D02*
D03*
X016654D02*
D03*
X016496Y025965D02*
D03*
X016339D02*
D03*
X016181D02*
D03*
X016024D02*
D03*
X015866D02*
D03*
Y024429D02*
D03*
X016024D02*
D03*
X016181D02*
D03*
X016339D02*
D03*
X016496D02*
D03*
X016654Y024429D02*
D03*
X016811D02*
D03*
X016968Y024429D02*
D03*
X017126D02*
D03*
X017283D02*
D03*
X017441D02*
D03*
X017598D02*
D03*
D48*
X016732Y025197D02*
D03*
D49*
X015935Y023760D02*
D03*
X015935Y022972D02*
D03*
X015305D02*
D03*
Y023760D02*
D03*
D50*
X013022Y014592D02*
D03*
X013671D02*
D03*
D51*
X013612Y015778D02*
D03*
X012707Y015404D02*
D03*
Y016152D02*
D03*
D52*
X010689Y016634D02*
D03*
X010689Y015846D02*
D03*
Y014272D02*
D03*
Y013484D02*
D03*
Y012697D02*
D03*
Y011909D02*
D03*
D53*
Y015059D02*
D03*
D54*
X013563Y016654D02*
D03*
X012657Y017028D02*
D03*
D55*
X013563Y017402D02*
D03*
D56*
X032884Y011586D02*
D03*
X038130Y024969D02*
D03*
D57*
X035246Y012586D02*
D03*
Y012086D02*
D03*
Y011586D02*
D03*
Y011086D02*
D03*
Y010586D02*
D03*
X035768Y023969D02*
D03*
X035768Y024469D02*
D03*
X035768Y024969D02*
D03*
Y025469D02*
D03*
Y025969D02*
D03*
D58*
X038041Y023109D02*
D03*
X039222D02*
D03*
X038543Y013069D02*
D03*
X037362D02*
D03*
D59*
X033542Y025046D02*
D03*
Y023865D02*
D03*
D60*
X036673Y011130D02*
D03*
Y010500D02*
D03*
D61*
X037313Y012065D02*
D03*
X036683D02*
D03*
X034930Y025460D02*
D03*
X034300D02*
D03*
X034320Y024475D02*
D03*
X034950D02*
D03*
D62*
X041437Y024713D02*
D03*
X039252D02*
D03*
D63*
X030719Y017970D02*
D03*
X029439Y014428D02*
D03*
Y014624D02*
D03*
Y014821D02*
D03*
Y015018D02*
D03*
Y015215D02*
D03*
Y015412D02*
D03*
Y015609D02*
D03*
Y015805D02*
D03*
Y016002D02*
D03*
Y016199D02*
D03*
Y016396D02*
D03*
Y016593D02*
D03*
Y016790D02*
D03*
Y016987D02*
D03*
Y017183D02*
D03*
Y017382D02*
D03*
Y017574D02*
D03*
Y017775D02*
D03*
Y017972D02*
D03*
Y018169D02*
D03*
Y018366D02*
D03*
Y018563D02*
D03*
Y018760D02*
D03*
Y018957D02*
D03*
Y019153D02*
D03*
X029434Y019351D02*
D03*
X029439Y019547D02*
D03*
Y019744D02*
D03*
Y019941D02*
D03*
Y020138D02*
D03*
Y020334D02*
D03*
Y020532D02*
D03*
Y020723D02*
D03*
Y020925D02*
D03*
Y021122D02*
D03*
Y021319D02*
D03*
Y021516D02*
D03*
Y021712D02*
D03*
Y021909D02*
D03*
Y022106D02*
D03*
X030719Y014820D02*
D03*
Y015017D02*
D03*
Y015214D02*
D03*
Y015410D02*
D03*
Y015607D02*
D03*
Y015809D02*
D03*
Y016001D02*
D03*
Y016198D02*
D03*
Y016395D02*
D03*
Y016591D02*
D03*
Y016788D02*
D03*
Y016985D02*
D03*
X030724Y017181D02*
D03*
X030719Y017379D02*
D03*
Y017576D02*
D03*
Y017773D02*
D03*
Y018166D02*
D03*
Y018363D02*
D03*
Y018560D02*
D03*
Y018757D02*
D03*
Y018959D02*
D03*
Y019150D02*
D03*
Y019349D02*
D03*
Y019546D02*
D03*
Y019742D02*
D03*
Y019939D02*
D03*
Y020136D02*
D03*
Y020333D02*
D03*
Y020530D02*
D03*
Y020727D02*
D03*
Y020924D02*
D03*
Y021120D02*
D03*
Y021317D02*
D03*
Y021514D02*
D03*
Y021711D02*
D03*
Y021908D02*
D03*
Y022105D02*
D03*
Y014623D02*
D03*
Y014426D02*
D03*
X040462Y014428D02*
D03*
Y014624D02*
D03*
Y014821D02*
D03*
Y015018D02*
D03*
Y015215D02*
D03*
Y015412D02*
D03*
Y015609D02*
D03*
Y015805D02*
D03*
Y016002D02*
D03*
Y016199D02*
D03*
Y016396D02*
D03*
Y016593D02*
D03*
Y016790D02*
D03*
Y016987D02*
D03*
Y017183D02*
D03*
Y017382D02*
D03*
Y017574D02*
D03*
Y017775D02*
D03*
Y017972D02*
D03*
Y018169D02*
D03*
Y018366D02*
D03*
Y018563D02*
D03*
Y018760D02*
D03*
Y018957D02*
D03*
Y019153D02*
D03*
X040457Y019351D02*
D03*
X040462Y019547D02*
D03*
Y019744D02*
D03*
Y019941D02*
D03*
Y020138D02*
D03*
Y020334D02*
D03*
Y020532D02*
D03*
Y020723D02*
D03*
Y020925D02*
D03*
Y021122D02*
D03*
Y021319D02*
D03*
Y021516D02*
D03*
Y021712D02*
D03*
Y021909D02*
D03*
Y022106D02*
D03*
X041742Y014426D02*
D03*
Y014623D02*
D03*
Y014820D02*
D03*
Y015017D02*
D03*
Y015214D02*
D03*
Y015410D02*
D03*
Y015607D02*
D03*
Y015809D02*
D03*
Y016001D02*
D03*
Y016198D02*
D03*
Y016395D02*
D03*
Y016591D02*
D03*
Y016788D02*
D03*
Y016985D02*
D03*
X041747Y017181D02*
D03*
X041742Y017379D02*
D03*
Y017576D02*
D03*
Y017773D02*
D03*
Y017970D02*
D03*
Y018166D02*
D03*
Y018363D02*
D03*
Y018560D02*
D03*
Y018757D02*
D03*
Y018959D02*
D03*
Y019150D02*
D03*
Y019349D02*
D03*
Y019546D02*
D03*
Y019742D02*
D03*
Y019939D02*
D03*
Y020136D02*
D03*
Y020333D02*
D03*
Y020530D02*
D03*
Y020727D02*
D03*
Y020924D02*
D03*
Y021120D02*
D03*
Y021317D02*
D03*
Y021514D02*
D03*
Y021711D02*
D03*
Y021908D02*
D03*
Y022105D02*
D03*
D64*
X029390Y011809D02*
D03*
X030768D02*
D03*
D65*
X017357Y023588D02*
X017480Y023465D01*
X013366Y019852D02*
Y020049D01*
X014179Y013577D02*
X014903D01*
X016811Y025276D02*
Y025965D01*
X015722Y025748D02*
X016273Y025197D01*
X010728Y020246D02*
X011654D01*
X013842Y019754D02*
X014072Y019984D01*
X020917Y010770D02*
Y011047D01*
X024183Y016467D02*
X024252D01*
X024173D02*
X024183D01*
X024252Y016083D02*
Y016201D01*
X024163Y016476D02*
X024173Y016467D01*
X023335Y017195D02*
X023340Y017200D01*
X023310D02*
X023335Y017224D01*
X015670Y010394D02*
X016024D01*
X015630Y010433D02*
X015670Y010394D01*
X014803Y023474D02*
X015305Y022972D01*
X014665Y023474D02*
X014803D01*
X014459Y023681D02*
X014665Y023474D01*
X014459Y023681D02*
Y023780D01*
X014268Y023970D02*
X014268D01*
X014459Y023780D01*
X016181Y024429D02*
Y025028D01*
X018317Y024911D02*
X018415D01*
X018315Y024910D02*
X018317Y024911D01*
X018435Y024646D02*
X018474Y024685D01*
X017894Y024646D02*
X018435D01*
X011575Y018169D02*
X011644Y018100D01*
X011545Y018199D02*
X011575Y018169D01*
X011654Y018494D02*
Y018533D01*
X011278Y023494D02*
Y023715D01*
X011018Y023975D02*
X011278Y023715D01*
X010197Y023720D02*
X010451Y023975D01*
X018124Y010591D02*
X018282Y010748D01*
X018543D01*
X012264Y014488D02*
X012271Y014495D01*
X011508Y017697D02*
X011644Y017833D01*
Y018100D01*
X024803Y012008D02*
X025600D01*
X010689Y020049D02*
Y020246D01*
X024183Y017303D02*
X024469D01*
X024596Y017175D01*
X010451Y023975D02*
X010467D01*
X010191Y023494D02*
X010197Y023500D01*
Y023720D01*
X015866Y023829D02*
X015866Y023829D01*
X016900Y023839D02*
X016909Y023829D01*
X016900Y023839D02*
Y024124D01*
X013799Y019754D02*
X013842D01*
X023366Y023386D02*
X023681D01*
X023327D02*
X023366D01*
X017795Y026024D02*
Y026181D01*
Y026024D02*
X017894Y025925D01*
Y025748D02*
Y025925D01*
X019685Y020315D02*
X020000D01*
X014173Y013583D02*
X014179Y013577D01*
X019821Y010770D02*
Y011047D01*
X018897Y019212D02*
Y019212D01*
X018740Y019370D02*
X018740D01*
X016654Y025965D02*
X016811D01*
X016732Y025197D02*
X016811Y025276D01*
X015451Y025965D02*
X015866D01*
X020000Y021260D02*
Y021260D01*
X019055Y021890D02*
Y021890D01*
X014070Y019984D02*
X014072D01*
X014075Y019981D01*
X016496Y025965D02*
Y026195D01*
X015069Y024803D02*
X015571D01*
X017126Y024429D02*
X017283D01*
X016654Y024134D02*
Y024429D01*
X016811Y024213D02*
Y024429D01*
X016654Y024134D02*
X016732Y024055D01*
X016811Y024213D02*
X016900Y024124D01*
X017455Y010734D02*
X017598Y010591D01*
X016024Y011098D02*
X016425D01*
X013819Y020108D02*
Y020148D01*
X013819Y020571D02*
X013878D01*
X014025Y020719D01*
X014262D01*
X017894Y025118D02*
X018108D01*
X018315Y024910D01*
X021260Y020945D02*
X021260D01*
X015571Y025748D02*
X015722D01*
X016024Y025965D02*
Y026195D01*
X017455Y010734D02*
Y011240D01*
X017598Y010591D02*
X018124D01*
X024528Y012795D02*
X024803D01*
X015978Y011098D02*
X016024D01*
X023711Y017047D02*
Y017303D01*
Y017047D02*
X023868Y016890D01*
Y016476D02*
Y016890D01*
X024026Y017303D02*
X024183D01*
X015866Y023829D02*
Y024129D01*
X016024Y024208D02*
Y024429D01*
X016098Y024134D02*
X016161D01*
X016024Y024208D02*
X016098Y024134D01*
X014787Y011248D02*
X015140Y011600D01*
X014972Y012035D02*
Y012301D01*
Y012035D02*
X015039Y011968D01*
X015042D01*
X015140Y011870D01*
Y011600D02*
Y011870D01*
X023622Y012165D02*
X023898D01*
X023413Y017303D02*
X023553D01*
X023504Y016890D02*
X023868D01*
X023425Y016811D02*
X023504Y016890D01*
X023335Y017224D02*
X023413Y017303D01*
X023711Y016329D02*
Y016476D01*
Y016329D02*
X023789Y016250D01*
X023947D01*
X024026Y016476D02*
X024163D01*
X024252Y016467D02*
X024321Y016398D01*
X024006Y016063D02*
Y016191D01*
X023947Y016250D02*
X024006Y016191D01*
X024183Y016260D02*
X024242Y016201D01*
X024183Y016260D02*
Y016467D01*
Y016476D01*
X024016Y016033D02*
X024203D01*
X024252Y016083D01*
X024596Y016909D02*
Y017175D01*
X023315D02*
X023335Y017195D01*
X015305Y024961D02*
X015571D01*
X015049Y025216D02*
X015305Y024961D01*
X015005Y025216D02*
X015049D01*
X013032Y018533D02*
X013199D01*
X024033Y018230D02*
Y018406D01*
X016273Y025197D02*
X016732D01*
X017018D01*
X017126Y025089D01*
Y024429D02*
Y025089D01*
X033245Y018453D02*
X033572D01*
X033675Y018556D01*
X032775Y018456D02*
X033242D01*
X033245Y018453D01*
X041772Y023896D02*
X042726D01*
X039291Y012602D02*
Y013148D01*
X043189Y019939D02*
Y020407D01*
D66*
X011575Y018169D02*
X011654Y018248D01*
X015345Y025276D02*
X015571D01*
X015286Y025335D02*
X015345Y025276D01*
X011654Y018248D02*
Y018494D01*
X015571Y025157D02*
Y025276D01*
D67*
X012697Y016988D02*
X012854Y017146D01*
X013023Y017676D02*
Y017813D01*
X012953Y017884D02*
X013023Y017813D01*
X013632Y017146D02*
X013959Y016819D01*
X012854Y017146D02*
X013632D01*
X012697Y016732D02*
Y016988D01*
X013959Y016819D02*
X014035D01*
X012984Y018159D02*
X013258D01*
X012953Y018191D02*
X012984Y018159D01*
X012953Y017884D02*
Y018191D01*
X012835Y018309D02*
X012953Y018191D01*
X012943Y017894D02*
X012953Y017884D01*
X015005Y025571D02*
Y025937D01*
X015044Y026307D02*
X015319D01*
X013729Y018222D02*
X014130D01*
X013729Y018222D02*
X013729Y018222D01*
X013537Y018222D02*
X013729D01*
X013474Y018159D02*
X013537Y018222D01*
X012835Y018494D02*
Y018533D01*
Y018309D02*
Y018494D01*
X013258Y018159D02*
Y018317D01*
Y018159D02*
X013474D01*
X014035Y016819D02*
X014045D01*
X036675Y021056D02*
Y021664D01*
D68*
X038780Y016829D02*
X039074D01*
X036315Y022065D02*
Y022331D01*
X038819Y020906D02*
X039114D01*
X035768Y024969D02*
X036436D01*
X035635Y022790D02*
X035876D01*
X034862Y022793D02*
X035635D01*
X033990Y024479D02*
X034413D01*
X035905Y022065D02*
Y022331D01*
X038819Y020236D02*
X039114D01*
X038802Y019806D02*
X039096D01*
X038802Y019426D02*
X039096D01*
X038802Y018896D02*
X039096D01*
X037937Y018438D02*
Y018838D01*
X038799Y017607D02*
X039093D01*
X037937Y017461D02*
Y018438D01*
X036673Y010500D02*
X037126D01*
X036315Y022331D02*
X036316D01*
X037899Y019826D02*
X038135D01*
X038145Y019816D01*
X034129Y013442D02*
X034133Y013446D01*
X034465D01*
X038260Y020520D02*
X038265Y020526D01*
X038022Y020520D02*
X038260D01*
X034855Y022786D02*
X034862Y022793D01*
X037185Y015566D02*
X037588D01*
X037175Y015556D02*
X037185Y015566D01*
X035246Y011586D02*
X035781D01*
X035791Y011596D01*
X037126Y010500D02*
Y010510D01*
X039096Y018896D02*
Y018896D01*
Y019426D02*
Y019426D01*
Y019806D02*
Y019806D01*
X039114Y020906D02*
Y020906D01*
Y020236D02*
Y020236D01*
X033990Y024479D02*
Y024485D01*
X036436Y024969D02*
Y024977D01*
X035876Y022790D02*
Y022794D01*
X035905Y022331D02*
X035906D01*
X037935Y017459D02*
X037937Y017461D01*
X038154Y018438D02*
X038199Y018483D01*
X037935Y018438D02*
X037937D01*
X038154D01*
X038179Y022469D02*
X038484D01*
X035385Y022073D02*
Y022785D01*
X079339Y022251D02*
X079870Y021721D01*
X079163Y022075D02*
X079516Y022428D01*
X079731Y022643D02*
X079706Y022567D01*
Y022466D01*
X079731Y022390D01*
X079781Y022289D01*
X079908Y022163D01*
X080009Y022112D01*
X080084Y022087D01*
X080185Y022087D01*
X080261Y022112D01*
X080362Y022213D01*
X080387Y022289D01*
Y022390D01*
X080362Y022466D01*
X080311Y022567D01*
X080185Y022693D01*
X080084Y022744D01*
X080009Y022769D01*
X079908Y022769D01*
X079832Y022744D01*
X079731Y022643D01*
X080385Y022741D02*
X080612Y022968D01*
X080662Y023069D01*
X080662Y023120D01*
X080637Y023196D01*
X080561Y023271D01*
X080486Y023297D01*
X080435Y023297D01*
X080334Y023246D01*
X080107Y023019D01*
X080637Y022489D01*
D69*
X032775Y018101D02*
X033630D01*
X024803Y012953D02*
Y013110D01*
X023898Y012165D02*
X024213Y012480D01*
X023553Y017303D02*
Y017474D01*
X023012Y023000D02*
Y023386D01*
X023004Y022992D02*
X023012Y023000D01*
X023004Y022949D02*
Y022992D01*
Y022949D02*
X023114Y022839D01*
X023120D01*
X023335Y022623D01*
Y022618D02*
Y022623D01*
X033630Y018101D02*
X033675Y018056D01*
D70*
X014327Y010520D02*
Y010870D01*
X010591Y023494D02*
X010907D01*
X010561D02*
X010591D01*
X010906Y023492D02*
X010907Y023494D01*
X015571Y024478D02*
Y024646D01*
X024947Y016575D02*
X024966Y016594D01*
X020000Y022205D02*
Y022490D01*
X020086Y022576D01*
X016998Y012254D02*
X016998Y012254D01*
X014321Y010876D02*
X014327Y010870D01*
X013669Y015059D02*
Y015169D01*
X013514Y015325D02*
X013669Y015169D01*
X013297Y015325D02*
X013514D01*
X012913Y015709D02*
X013297Y015325D01*
X016063Y019527D02*
X016378D01*
D71*
X017520Y013642D02*
X017534Y013627D01*
X017539Y013632D02*
X017549Y013642D01*
X018150Y013593D02*
Y013642D01*
X017549Y013612D02*
Y013622D01*
X017539Y013632D02*
X017549Y013622D01*
X017534Y013627D02*
Y013642D01*
Y013627D02*
X017549Y013612D01*
X018150Y013642D02*
X018150D01*
X016919D02*
X016968Y013593D01*
X017534D02*
Y013627D01*
D72*
X024193Y020364D02*
X024281Y020453D01*
X024033Y020364D02*
X024193D01*
X024197Y019744D02*
X024345D01*
X024033Y019581D02*
X024197Y019744D01*
X024033Y019531D02*
Y019581D01*
X022717Y019402D02*
X022965Y019154D01*
X022717Y019402D02*
Y019423D01*
X022244Y017313D02*
X022352Y017205D01*
X019685Y020000D02*
X019842Y020157D01*
X020315Y019370D02*
X020472Y019527D01*
X020000Y019370D02*
X020157Y019527D01*
X024214Y020138D02*
X024345D01*
X022517Y019741D02*
X022559Y019783D01*
X022682D01*
X022363Y019547D02*
X022593D01*
X022813Y021069D02*
X022965D01*
X022598Y021575D02*
Y021693D01*
X022756Y021850D01*
X021574Y018740D02*
X021676Y018638D01*
X020630Y018740D02*
X020787Y018582D01*
X020315Y018740D02*
X020472Y018582D01*
X020000Y018740D02*
X020157Y018582D01*
X020945Y018425D02*
X021102Y018268D01*
X020630Y018425D02*
X020787Y018268D01*
X020315Y018425D02*
X020472Y018268D01*
X019370Y019055D02*
X019527Y019212D01*
X020945Y018110D02*
X021102Y017953D01*
X020000Y018110D02*
X020157Y017953D01*
X022559Y022047D02*
X022735Y022223D01*
X022441Y022047D02*
X022559D01*
X019685Y018740D02*
X019842Y018582D01*
X020315Y018110D02*
X020472Y017953D01*
X022965Y018793D02*
Y018807D01*
Y018793D02*
X022971Y018786D01*
X022459Y018638D02*
X022545Y018552D01*
X021676Y018638D02*
X022459D01*
X019685Y018110D02*
X019842Y017953D01*
X022593Y020135D02*
X022800Y019928D01*
X022682Y019783D02*
X022925Y019541D01*
X022747Y018597D02*
Y018631D01*
Y018597D02*
X022808Y018536D01*
X022842D01*
X022965Y018413D01*
X022795Y017992D02*
X022965D01*
X022706Y018081D02*
X022795Y017992D01*
X022706Y018081D02*
Y018081D01*
X022352Y017205D02*
X022965D01*
X022402Y022441D02*
Y022470D01*
X024103Y019104D02*
X024291Y018916D01*
Y018898D02*
Y018916D01*
X024033Y021014D02*
X024256D01*
X024345Y020925D01*
X024033Y021401D02*
X024263D01*
X024345Y021319D01*
X024033Y021788D02*
X024216D01*
X024322Y021682D01*
Y021556D02*
Y021682D01*
X024033Y022175D02*
X024951D01*
X025079Y022047D01*
X022549Y022618D02*
X022965D01*
X022402Y022470D02*
X022549Y022618D01*
X022726Y021467D02*
X022955D01*
X022579Y021319D02*
X022726Y021467D01*
X022756Y021850D02*
X022965D01*
X022372Y018986D02*
X022392D01*
X022747Y018631D01*
X022579Y019154D02*
X022589Y019163D01*
X022549Y019154D02*
X022579D01*
X021732Y018894D02*
X022280D01*
X022372Y018986D01*
X022229Y019414D02*
X022363Y019547D01*
X021946Y019741D02*
X022517D01*
X021574Y019370D02*
X021946Y019741D01*
X022590Y020135D02*
X022593Y020138D01*
X021574Y020315D02*
X021766Y020123D01*
X020315Y020000D02*
X020472Y020157D01*
X022545Y018552D02*
X022712Y018385D01*
X022706Y018081D02*
X022712Y018086D01*
Y018385D01*
X021574Y018110D02*
X021576Y018112D01*
X021648Y017953D02*
X021648Y017953D01*
X022146D01*
X021673Y018262D02*
X022407D01*
X022510Y018159D01*
X021576Y018112D02*
X022247D01*
X022333Y018026D01*
X022244Y017313D02*
X022333Y017402D01*
Y018026D01*
X022146Y017953D02*
X022156Y017943D01*
X022229Y019312D02*
Y019414D01*
X022283Y019154D02*
X022549D01*
X021737Y019207D02*
X022124D01*
X022184Y019055D02*
X022283Y019154D01*
X022124Y019207D02*
X022229Y019312D01*
X021574Y019055D02*
X022184D01*
X022593Y019547D02*
X022717Y019423D01*
X022561Y020817D02*
X022813Y021069D01*
X022654Y020636D02*
X022726Y020709D01*
X022264Y020817D02*
X022561D01*
X022156Y020463D02*
X022283D01*
X022136Y020482D02*
X022156Y020463D01*
X021726Y020482D02*
X022136D01*
X021574Y020630D02*
X021584Y020640D01*
X022047D01*
X022051Y020636D01*
X022654D01*
X021719Y020476D02*
X021726Y020482D01*
X021899Y020817D02*
X022244D01*
X022283Y020463D02*
X022634D01*
X022782Y020315D01*
X022800Y019928D02*
X022965D01*
X022590Y020135D02*
X022593D01*
X023335Y022992D02*
X023646D01*
X022925Y019541D02*
X022965D01*
X022395Y020135D02*
X022590D01*
X021766Y020123D02*
X022383D01*
X022395Y020135D01*
X024033Y019957D02*
X024214Y020138D01*
X019370Y018425D02*
X019527Y018582D01*
X019370Y018110D02*
X019527Y018267D01*
X024033Y019104D02*
X024103D01*
X022735Y022223D02*
X022965D01*
X022510Y018063D02*
Y018159D01*
Y018063D02*
X022965Y017608D01*
X022549Y019154D02*
X022923Y018780D01*
X022965D01*
X024033Y018230D02*
X024094Y018169D01*
X024345D01*
X022726Y020709D02*
X022965D01*
D73*
X013858Y013696D02*
X014975Y014813D01*
X018583Y017047D02*
Y017637D01*
X013465Y012402D02*
X013612Y012254D01*
X013465Y012402D02*
Y012961D01*
X013858Y013354D01*
Y013696D01*
X014975Y014813D02*
X015600D01*
X011516Y015207D02*
X012343D01*
X012598Y014951D01*
X011782Y014124D02*
X011850Y014055D01*
X011654Y014124D02*
X011782D01*
X022037Y011122D02*
X022063Y011096D01*
X022037Y011122D02*
Y011230D01*
X018272Y015459D02*
Y016957D01*
X018248Y015435D02*
X018272Y015459D01*
X018425Y017795D02*
X018583Y017637D01*
X017637Y015472D02*
Y015663D01*
X018272Y016957D02*
X018318Y017003D01*
X016850Y017165D02*
X017010Y017005D01*
Y015512D02*
Y017005D01*
X018318Y017003D02*
X018538D01*
X018583Y017047D01*
X017637Y015663D02*
Y016063D01*
X017480Y016220D02*
X017637Y016063D01*
X021260Y020315D02*
X021417Y020472D01*
X021509D01*
X021509Y020472D01*
X021640D01*
X021640Y020472D01*
X012598Y013543D02*
Y013780D01*
X011850Y014764D02*
Y014843D01*
X011447Y014360D02*
X011850Y014764D01*
X012598Y014843D02*
Y014951D01*
X011280Y015443D02*
X011516Y015207D01*
X012510Y013455D02*
X012598Y013543D01*
X011417Y012697D02*
Y012815D01*
X012057Y013455D01*
X012510D01*
X011850Y013780D02*
Y014055D01*
X021640Y020472D02*
X021716D01*
X011033Y015443D02*
X011280D01*
X021716Y020472D02*
X021719Y020476D01*
X037028Y015806D02*
X038120D01*
X036778Y016056D02*
X037028Y015806D01*
X036675Y016056D02*
X036778D01*
X036431Y016800D02*
X037431D01*
X036175Y017056D02*
X036431Y016800D01*
X037175Y016056D02*
X038352D01*
X038120Y015806D02*
X038268Y015658D01*
X038348D01*
X037431Y016800D02*
X037785Y016445D01*
X038348D01*
X038844Y016052D02*
X038957D01*
X039114Y015894D01*
Y015727D02*
Y015894D01*
X038856Y016445D02*
X038996D01*
X039291Y016150D01*
Y016002D02*
Y016150D01*
X029783Y024270D02*
Y025156D01*
X028406Y022892D02*
X029783Y024270D01*
X028406Y020240D02*
Y022892D01*
Y020240D02*
X028898Y019747D01*
X029291Y024467D02*
Y025156D01*
X028110Y023286D02*
X029291Y024467D01*
X028110Y020136D02*
Y023286D01*
Y020136D02*
X028706Y019541D01*
X028898D01*
X030276Y024270D02*
Y025156D01*
Y024270D02*
X031255Y023291D01*
X030768Y024172D02*
Y025156D01*
Y024172D02*
X031555Y023384D01*
Y020043D02*
Y023384D01*
X031260Y019747D02*
X031555Y020043D01*
X031255Y020333D02*
Y023291D01*
X038787Y016514D02*
X038856Y016445D01*
X038348D02*
X038417Y016514D01*
X038348Y015658D02*
X038417Y015727D01*
X038775Y016120D02*
X038844Y016052D01*
X038352Y016056D02*
X038417Y016120D01*
D74*
X011968Y010787D02*
X012264Y010492D01*
X011968Y010787D02*
Y011594D01*
X012756Y010492D02*
X012992Y010728D01*
Y011594D01*
X033542Y023865D02*
X033552Y023875D01*
X034359D01*
X030266Y011307D02*
X030768Y011809D01*
X030266Y010806D02*
Y011307D01*
X036085Y011130D02*
X036673D01*
X029390Y011809D02*
X029774Y011426D01*
Y010806D02*
Y011426D01*
D75*
X020000Y020000D02*
X020000Y020000D01*
D76*
X036000Y011086D02*
X036065Y011151D01*
X034930Y025460D02*
X034939Y025469D01*
X035768D01*
X035246Y011086D02*
X036000D01*
D77*
X035105Y021126D02*
Y022438D01*
Y021126D02*
X035175Y021056D01*
X035675Y020556D02*
X035923Y020803D01*
X035675Y021056D02*
Y022396D01*
X035635Y022436D02*
X035675Y022396D01*
X035385Y021718D02*
X035428Y021676D01*
Y020303D02*
Y021676D01*
Y020303D02*
X035675Y020056D01*
X034928Y020803D02*
Y021649D01*
X034865Y021711D02*
X034928Y021649D01*
Y020803D02*
X035175Y020556D01*
X036428Y017303D02*
X037308D01*
X036175Y017556D02*
X036428Y017303D01*
X036428Y018803D02*
X036778D01*
X036175Y019056D02*
X036428Y018803D01*
X036778D02*
X036923Y018658D01*
Y018458D02*
Y018658D01*
Y018458D02*
X037073Y018308D01*
X036741Y019056D02*
X036989Y018808D01*
X036675Y019056D02*
X036741D01*
X038448Y019426D02*
X038475D01*
X037395D02*
X038448D01*
X037278Y019308D02*
X037395Y019426D01*
X036923Y019308D02*
X037278D01*
X036675Y019556D02*
X036923Y019308D01*
X036423Y019803D02*
X037523D01*
X037545Y019826D01*
X036175Y019556D02*
X036423Y019803D01*
X036928Y020808D02*
Y021524D01*
X036675Y020556D02*
X036928Y020808D01*
X036423Y020303D02*
Y021591D01*
X036175Y020056D02*
X036423Y020303D01*
X035246Y012586D02*
Y012941D01*
X035095Y013092D02*
X035246Y012941D01*
X035095Y013092D02*
Y013446D01*
X035295Y014846D02*
Y015126D01*
Y014846D02*
Y014846D01*
X036695Y015130D02*
Y015536D01*
X036675Y015556D02*
X036695Y015536D01*
X037135Y015143D02*
X037398D01*
X037425Y015116D01*
X035925Y015153D02*
X035935Y015143D01*
X035925Y015153D02*
Y015806D01*
X035295Y015126D02*
X035423Y015253D01*
X035246Y010586D02*
X035311Y010521D01*
X035246Y012586D02*
X035980D01*
X036065Y012671D01*
X035675Y016056D02*
X035925Y015806D01*
X036775D01*
X037025Y015556D02*
X037175D01*
X036775Y015806D02*
X037025Y015556D01*
X035423Y016803D02*
X035675Y017056D01*
X035423Y015253D02*
Y016803D01*
X036175Y018056D02*
X036423Y017808D01*
X037397D01*
X037581Y017624D01*
X037308Y017303D02*
X037782Y016829D01*
X038346D01*
X037581Y017459D02*
Y017624D01*
X037073Y018308D02*
X037451D01*
X037581Y018438D01*
X036989Y018808D02*
X037537D01*
X037567Y018838D01*
X038425Y017607D02*
Y018030D01*
X038337Y019743D02*
X038412D01*
X038150Y019556D02*
X038337Y019743D01*
X037175Y019556D02*
X038150D01*
X035923Y020803D02*
Y021718D01*
X035905Y021736D02*
X035923Y021718D01*
X035311Y010521D02*
X036065D01*
X036285Y021728D02*
X036423Y021591D01*
X038412Y019743D02*
X038475Y019806D01*
X036928Y021524D02*
X037135Y021731D01*
X038346Y016829D02*
X038406Y016888D01*
X036923Y020303D02*
X037450D01*
X037667Y020520D01*
X036675Y020056D02*
X036923Y020303D01*
D78*
X036683Y012666D02*
X036693Y012676D01*
X036683Y012065D02*
Y012666D01*
X034950Y023875D02*
Y024386D01*
X035246Y012086D02*
X036020D01*
X035043Y024479D02*
X035053Y024469D01*
X035768D01*
X036083Y012065D02*
X036683D01*
X036073Y012056D02*
X036083Y012065D01*
X036020Y012086D02*
X036065Y012041D01*
X034950Y024386D02*
X035043Y024479D01*
D79*
X038130Y019214D02*
X038448Y018896D01*
X037381Y019214D02*
X038130D01*
X037223Y019056D02*
X037381Y019214D01*
X037175Y019056D02*
X037223D01*
X037175Y020056D02*
X038298D01*
X037223Y020556D02*
X037573Y020906D01*
X037175Y020556D02*
X037223D01*
X037573Y020906D02*
X038448D01*
X038465D01*
X038298Y020056D02*
X038478Y020236D01*
X079630Y020479D02*
X079726Y020526D01*
X079868Y020669D01*
Y019669D01*
D80*
X012756Y010492D02*
D03*
X012264D02*
D03*
X020984Y026033D02*
D03*
X020492D02*
D03*
X020000D02*
D03*
X019508D02*
D03*
X019016D02*
D03*
X030266Y010806D02*
D03*
X029774D02*
D03*
D81*
X026142Y013244D02*
D03*
X025354Y015213D02*
D03*
X026142Y014819D02*
D03*
X025354Y014426D02*
D03*
X026142Y014032D02*
D03*
X025354Y013638D02*
D03*
D82*
X024656Y011240D02*
D03*
D83*
Y010453D02*
D03*
X013268Y024970D02*
D03*
D84*
X024415Y026118D02*
D03*
X022415D02*
D03*
D85*
X024415Y024118D02*
D03*
X022415D02*
D03*
D86*
X023415Y025118D02*
D03*
D87*
X025866Y022638D02*
D03*
Y017622D02*
D03*
D88*
X012268Y023970D02*
D03*
Y025970D02*
D03*
X014268D02*
D03*
Y023970D02*
D03*
D89*
X024331Y022953D02*
D03*
Y013583D02*
D03*
X013307Y022953D02*
D03*
Y013583D02*
D03*
X030472Y022912D02*
D03*
X030472Y013620D02*
D03*
X041496Y022912D02*
D03*
X041496Y013620D02*
D03*
D90*
X010787Y010787D02*
D03*
X025748D02*
D03*
Y025748D02*
D03*
X010787D02*
D03*
X028110Y025746D02*
D03*
X043071D02*
D03*
Y010786D02*
D03*
X028110D02*
D03*
D91*
X035175Y017056D02*
D03*
Y018556D02*
D03*
Y019056D02*
D03*
X034175Y020556D02*
D03*
Y021056D02*
D03*
X034675Y020556D02*
D03*
X035175Y017556D02*
D03*
Y018056D02*
D03*
X034675Y017056D02*
D03*
Y017556D02*
D03*
X033675Y017056D02*
D03*
Y017556D02*
D03*
X034175Y018056D02*
D03*
Y019056D02*
D03*
X034675Y016056D02*
D03*
Y016556D02*
D03*
X035175D02*
D03*
Y015556D02*
D03*
Y016056D02*
D03*
X037175Y020556D02*
D03*
Y020056D02*
D03*
Y019556D02*
D03*
Y019056D02*
D03*
Y018556D02*
D03*
Y018056D02*
D03*
Y017556D02*
D03*
Y017056D02*
D03*
Y016556D02*
D03*
Y016056D02*
D03*
X033675D02*
D03*
Y016556D02*
D03*
Y018056D02*
D03*
Y018556D02*
D03*
Y019056D02*
D03*
Y021056D02*
D03*
X034175Y015556D02*
D03*
Y016056D02*
D03*
Y016556D02*
D03*
Y017056D02*
D03*
Y017556D02*
D03*
Y018556D02*
D03*
Y019556D02*
D03*
Y020056D02*
D03*
X034675Y015556D02*
D03*
Y018056D02*
D03*
Y018556D02*
D03*
Y019056D02*
D03*
Y019556D02*
D03*
Y020056D02*
D03*
Y021056D02*
D03*
X035175Y019556D02*
D03*
Y020056D02*
D03*
Y020556D02*
D03*
Y021056D02*
D03*
X035675Y015556D02*
D03*
Y016056D02*
D03*
Y016556D02*
D03*
Y017056D02*
D03*
Y017556D02*
D03*
Y018056D02*
D03*
Y018556D02*
D03*
Y019056D02*
D03*
Y019556D02*
D03*
Y020056D02*
D03*
Y020556D02*
D03*
Y021056D02*
D03*
X036175Y015556D02*
D03*
Y016056D02*
D03*
Y016556D02*
D03*
Y017056D02*
D03*
Y017556D02*
D03*
Y018056D02*
D03*
Y018556D02*
D03*
Y019056D02*
D03*
Y019556D02*
D03*
Y020056D02*
D03*
Y020556D02*
D03*
Y021056D02*
D03*
X036675Y015556D02*
D03*
Y016056D02*
D03*
Y016556D02*
D03*
Y017056D02*
D03*
Y017556D02*
D03*
Y018056D02*
D03*
Y018556D02*
D03*
Y019056D02*
D03*
Y019556D02*
D03*
Y020056D02*
D03*
Y020556D02*
D03*
Y021056D02*
D03*
X037175Y015556D02*
D03*
Y021056D02*
D03*
X033675Y019556D02*
D03*
Y020556D02*
D03*
Y020056D02*
D03*
D92*
X011526Y014818D02*
D03*
Y015025D02*
D03*
X024281Y020453D02*
D03*
X024321Y020679D02*
D03*
X014692Y018061D02*
D03*
X014485D02*
D03*
X014692Y017249D02*
D03*
X014485D02*
D03*
X011348Y019557D02*
D03*
X016102Y025394D02*
D03*
X017319Y025039D02*
D03*
Y025394D02*
D03*
X016711Y025039D02*
D03*
X016102D02*
D03*
X016711Y025382D02*
D03*
X020940Y024409D02*
D03*
X020610D02*
D03*
X021270D02*
D03*
X020940Y024739D02*
D03*
X020610D02*
D03*
X021270D02*
D03*
Y025069D02*
D03*
X020610D02*
D03*
X020940D02*
D03*
X014478Y014094D02*
D03*
X016978Y023269D02*
D03*
X025945Y019265D02*
D03*
Y019471D02*
D03*
X022025Y021870D02*
D03*
X022232D02*
D03*
X016978Y023062D02*
D03*
X021102Y022047D02*
D03*
Y022362D02*
D03*
X022056Y019370D02*
D03*
X021850D02*
D03*
X019801Y023481D02*
D03*
Y023688D02*
D03*
X018885Y023481D02*
D03*
Y023688D02*
D03*
X018354Y023061D02*
D03*
X018147D02*
D03*
X012717Y014488D02*
D03*
X012510D02*
D03*
X010650Y017559D02*
D03*
Y017766D02*
D03*
X025000Y017377D02*
D03*
Y017584D02*
D03*
X010433Y019257D02*
D03*
Y019464D02*
D03*
X021732Y015748D02*
D03*
X021417Y015748D02*
D03*
X021732Y015069D02*
D03*
Y015276D02*
D03*
X025157Y016196D02*
D03*
Y016403D02*
D03*
X011212Y017953D02*
D03*
X011005D02*
D03*
X013974Y017771D02*
D03*
Y017977D02*
D03*
X012638Y017638D02*
D03*
X013996Y015999D02*
D03*
Y016206D02*
D03*
X011535Y015408D02*
D03*
Y015615D02*
D03*
X020787Y017638D02*
D03*
X021102D02*
D03*
X021417Y016378D02*
D03*
Y016693D02*
D03*
X011545Y016590D02*
D03*
Y016796D02*
D03*
X013140Y015984D02*
D03*
X013286Y016130D02*
D03*
X014232Y015408D02*
D03*
Y015615D02*
D03*
X019527Y016378D02*
D03*
Y016693D02*
D03*
X014732Y016590D02*
D03*
Y016796D02*
D03*
X017313Y022372D02*
D03*
Y022579D02*
D03*
X018354Y024083D02*
D03*
X018147D02*
D03*
X018415Y024911D02*
D03*
X018474Y024685D02*
D03*
X014042Y017064D02*
D03*
Y017271D02*
D03*
X020787Y021417D02*
D03*
Y021732D02*
D03*
X021102Y016063D02*
D03*
Y016378D02*
D03*
X022232Y021028D02*
D03*
X025787Y016142D02*
D03*
Y016348D02*
D03*
X022018Y013957D02*
D03*
X022864Y014134D02*
D03*
X023054D02*
D03*
X022116Y013583D02*
D03*
Y013789D02*
D03*
X021919D02*
D03*
Y013583D02*
D03*
X023435Y013474D02*
D03*
Y013691D02*
D03*
Y013907D02*
D03*
X016978Y023484D02*
D03*
X021673Y013140D02*
D03*
X023245Y014134D02*
D03*
X013023Y017676D02*
D03*
X014626Y016398D02*
D03*
X010669Y018287D02*
D03*
X013218Y017579D02*
D03*
X021713Y010876D02*
D03*
X011654Y014124D02*
D03*
X011142Y022116D02*
D03*
X022953Y012697D02*
D03*
X023568Y011407D02*
D03*
X023184D02*
D03*
X023376D02*
D03*
X022372Y011063D02*
D03*
X017952Y018268D02*
D03*
X018582Y017953D02*
D03*
X017322Y016378D02*
D03*
X019842Y020157D02*
D03*
X019527Y017008D02*
D03*
X011014Y022992D02*
D03*
X010433Y023041D02*
D03*
X011348Y024951D02*
D03*
X010335Y021299D02*
D03*
X016024Y010394D02*
D03*
X018543Y010748D02*
D03*
X022648Y012736D02*
D03*
X011545Y016329D02*
D03*
X013947Y015020D02*
D03*
X012264Y014488D02*
D03*
X013002Y016939D02*
D03*
X012638Y018140D02*
D03*
X012687Y017884D02*
D03*
X010423Y022766D02*
D03*
X011063Y021811D02*
D03*
X011132Y021516D02*
D03*
X010827Y021329D02*
D03*
X012215Y017579D02*
D03*
X014065Y019528D02*
D03*
X020472Y019842D02*
D03*
X020157Y019842D02*
D03*
X019842Y019842D02*
D03*
X020472Y019527D02*
D03*
X020157D02*
D03*
X021102Y017323D02*
D03*
Y016693D02*
D03*
X024695Y014104D02*
D03*
X024144Y014282D02*
D03*
X024006Y013238D02*
D03*
X025325Y011732D02*
D03*
X024262Y010728D02*
D03*
X021112Y011280D02*
D03*
X020138Y010758D02*
D03*
X020384Y010276D02*
D03*
X021703Y011240D02*
D03*
X019468Y010787D02*
D03*
X022333Y011319D02*
D03*
X022063Y010591D02*
D03*
X024626Y011644D02*
D03*
X024823D02*
D03*
X025020D02*
D03*
X024626Y011841D02*
D03*
X024823D02*
D03*
X025020D02*
D03*
X025600Y012008D02*
D03*
X024213Y013100D02*
D03*
X024222Y010354D02*
D03*
X020472Y017323D02*
D03*
X022175Y011785D02*
D03*
X018858Y015394D02*
D03*
X012608Y020709D02*
D03*
X011476Y020719D02*
D03*
X021220Y014931D02*
D03*
X022313Y013376D02*
D03*
X023435Y014134D02*
D03*
X022559Y019783D02*
D03*
X022593Y019547D02*
D03*
X013839Y022795D02*
D03*
X024999Y014617D02*
D03*
X011545Y018199D02*
D03*
X011417Y018022D02*
D03*
X017008Y022362D02*
D03*
X021949Y015059D02*
D03*
X025807Y015935D02*
D03*
X018701Y022825D02*
D03*
X026132Y019380D02*
D03*
X026053Y020866D02*
D03*
X019961Y022795D02*
D03*
X018789Y023927D02*
D03*
X018583Y024085D02*
D03*
X018691Y025394D02*
D03*
X024301Y015089D02*
D03*
X024350Y015423D02*
D03*
X022116Y013376D02*
D03*
X024596Y013110D02*
D03*
X021919Y013376D02*
D03*
X021526D02*
D03*
X021732Y014104D02*
D03*
X021722Y013376D02*
D03*
X021673Y012864D02*
D03*
X020679Y013032D02*
D03*
X018602Y014222D02*
D03*
X017106Y014557D02*
D03*
X016910Y014754D02*
D03*
X019734Y015039D02*
D03*
X019842Y015433D02*
D03*
X019527D02*
D03*
X015374Y024193D02*
D03*
X015925Y023337D02*
D03*
X015098Y024163D02*
D03*
X015571Y024478D02*
D03*
X016909Y023829D02*
D03*
X021932Y017187D02*
D03*
X019842Y016063D02*
D03*
X016063Y018268D02*
D03*
X014724Y015630D02*
D03*
X019144Y022825D02*
D03*
X021004Y014931D02*
D03*
X020718Y014700D02*
D03*
X015276Y014341D02*
D03*
Y014134D02*
D03*
X019842Y019527D02*
D03*
X022165Y015276D02*
D03*
X019842Y019212D02*
D03*
X024345Y021319D02*
D03*
X022545Y018552D02*
D03*
X022598Y021575D02*
D03*
X022480Y021010D02*
D03*
X023646Y022992D02*
D03*
X020157Y020472D02*
D03*
X015319Y026307D02*
D03*
X014422Y019878D02*
D03*
X017637Y021732D02*
D03*
X020158Y021417D02*
D03*
X020158Y021732D02*
D03*
X017795Y026181D02*
D03*
X018583Y022047D02*
D03*
X025557Y018618D02*
D03*
X021417Y021733D02*
D03*
X021732Y022362D02*
D03*
X021417Y020157D02*
D03*
X019331Y022657D02*
D03*
X020718Y014487D02*
D03*
X014183Y020925D02*
D03*
X013986Y021319D02*
D03*
Y021516D02*
D03*
X013278Y021909D02*
D03*
X013986Y022106D02*
D03*
X021417Y016063D02*
D03*
X020787Y018897D02*
D03*
X025557Y021618D02*
D03*
X019527Y018897D02*
D03*
X016693Y018582D02*
D03*
X017952Y018582D02*
D03*
X017637Y018582D02*
D03*
Y019212D02*
D03*
X019212Y018582D02*
D03*
X018897D02*
D03*
X017322D02*
D03*
X017008D02*
D03*
X016063D02*
D03*
X020787Y018582D02*
D03*
X020472D02*
D03*
X020157D02*
D03*
X020157Y018268D02*
D03*
X018897Y018268D02*
D03*
X019842Y018268D02*
D03*
X021102Y018268D02*
D03*
X020787D02*
D03*
X020472D02*
D03*
X020787Y020157D02*
D03*
X020157Y017323D02*
D03*
Y017008D02*
D03*
X018897Y017638D02*
D03*
X019842Y016693D02*
D03*
X019527Y019212D02*
D03*
X019527Y019842D02*
D03*
X017637Y021102D02*
D03*
X017008Y021102D02*
D03*
X017322Y021102D02*
D03*
X017008Y021417D02*
D03*
X017637Y021417D02*
D03*
X017952Y021419D02*
D03*
X018582Y020787D02*
D03*
Y021102D02*
D03*
X018582Y021417D02*
D03*
X019212Y020787D02*
D03*
X019212Y021102D02*
D03*
X020157Y020787D02*
D03*
X020472Y020472D02*
D03*
X020787Y021102D02*
D03*
X012285Y019350D02*
D03*
X016063Y014606D02*
D03*
Y014341D02*
D03*
Y014094D02*
D03*
X012269Y019941D02*
D03*
Y020531D02*
D03*
X018897Y021102D02*
D03*
X019212Y020472D02*
D03*
X018897D02*
D03*
X021102Y021417D02*
D03*
X015118Y020787D02*
D03*
Y017638D02*
D03*
X015118Y019527D02*
D03*
X017637Y017323D02*
D03*
X016063Y020472D02*
D03*
X017952Y021102D02*
D03*
X017008Y020787D02*
D03*
X015748Y021417D02*
D03*
X017322D02*
D03*
X016378Y021102D02*
D03*
X015433Y020787D02*
D03*
X015748Y019842D02*
D03*
X015433Y019212D02*
D03*
X015433Y015748D02*
D03*
X015748Y016378D02*
D03*
X015433Y017323D02*
D03*
X016378Y017638D02*
D03*
X016693Y016693D02*
D03*
X016378Y016063D02*
D03*
X017008Y017323D02*
D03*
X017637Y017638D02*
D03*
X017322D02*
D03*
X017008D02*
D03*
X017637Y017953D02*
D03*
X017322D02*
D03*
X017008D02*
D03*
X018897Y017323D02*
D03*
X018582Y016693D02*
D03*
X017008Y019212D02*
D03*
Y019527D02*
D03*
Y019842D02*
D03*
Y020157D02*
D03*
Y020472D02*
D03*
X017322D02*
D03*
Y020157D02*
D03*
Y019842D02*
D03*
X017322Y019527D02*
D03*
X017322Y019212D02*
D03*
X017637Y019527D02*
D03*
Y019842D02*
D03*
Y020157D02*
D03*
X017637Y020472D02*
D03*
X019212Y019212D02*
D03*
X018582Y019527D02*
D03*
X017952Y019527D02*
D03*
X017952Y019842D02*
D03*
Y020157D02*
D03*
X017952Y020472D02*
D03*
X019212Y019842D02*
D03*
X018582Y019842D02*
D03*
X020157Y020157D02*
D03*
X020787Y022047D02*
D03*
X018897Y020787D02*
D03*
X019527D02*
D03*
X020787D02*
D03*
X019842Y021102D02*
D03*
X018582Y021732D02*
D03*
X018897Y021417D02*
D03*
Y021732D02*
D03*
X019212D02*
D03*
Y021417D02*
D03*
X019842Y021732D02*
D03*
X019527Y022047D02*
D03*
X019527Y021102D02*
D03*
X019842Y021417D02*
D03*
X020157Y021102D02*
D03*
X020787Y022362D02*
D03*
X021102Y021732D02*
D03*
Y021102D02*
D03*
Y020787D02*
D03*
X020472Y019212D02*
D03*
X021417Y019527D02*
D03*
X020472Y015748D02*
D03*
X020157Y016693D02*
D03*
X021102Y017008D02*
D03*
X020787Y017953D02*
D03*
X015218Y013299D02*
D03*
X015718D02*
D03*
X016033Y013297D02*
D03*
X016468D02*
D03*
X015965Y012797D02*
D03*
X015213Y013825D02*
D03*
X014972Y011801D02*
D03*
X015474Y010801D02*
D03*
X015972D02*
D03*
X016467Y013770D02*
D03*
X014972Y012301D02*
D03*
X015472Y011798D02*
D03*
X016472Y011801D02*
D03*
X017470Y012301D02*
D03*
X014722Y012044D02*
D03*
X017721D02*
D03*
X018268Y013150D02*
D03*
Y012756D02*
D03*
X017465Y011801D02*
D03*
X014722Y012299D02*
D03*
X013927Y013134D02*
D03*
X014139D02*
D03*
X014350D02*
D03*
X017715Y012299D02*
D03*
X019433Y012283D02*
D03*
Y012028D02*
D03*
X022181Y012285D02*
D03*
X021183Y011785D02*
D03*
X020183Y011782D02*
D03*
X019683Y012285D02*
D03*
X020675Y013781D02*
D03*
X020683Y010785D02*
D03*
X019683Y011785D02*
D03*
X021183Y012285D02*
D03*
X020675D02*
D03*
X019902Y013806D02*
D03*
X020179Y013283D02*
D03*
X020669Y012781D02*
D03*
X021179Y013282D02*
D03*
X020669D02*
D03*
X019902Y013543D02*
D03*
X020429Y013283D02*
D03*
X019907Y013280D02*
D03*
X018583Y013150D02*
D03*
X018898D02*
D03*
X019213D02*
D03*
X018878Y010776D02*
D03*
X019821Y010770D02*
D03*
X020917D02*
D03*
X020718Y014273D02*
D03*
Y014059D02*
D03*
X016472Y010801D02*
D03*
X016965Y011301D02*
D03*
X019527Y020157D02*
D03*
X019527Y020472D02*
D03*
X017952Y020787D02*
D03*
X021102Y017953D02*
D03*
X020157D02*
D03*
Y019212D02*
D03*
X020787D02*
D03*
X021102D02*
D03*
X021417Y019842D02*
D03*
X016063Y016693D02*
D03*
X016063Y015748D02*
D03*
X016378Y016693D02*
D03*
X019212Y017638D02*
D03*
Y017323D02*
D03*
X018582Y020472D02*
D03*
X017952Y017638D02*
D03*
X021797Y016850D02*
D03*
X012785Y019941D02*
D03*
X015118Y018582D02*
D03*
X016496Y026195D02*
D03*
X015451Y025965D02*
D03*
X019842Y025118D02*
D03*
X016024Y026195D02*
D03*
X016772Y026299D02*
D03*
X017952Y016378D02*
D03*
X025152Y024589D02*
D03*
X025748Y023471D02*
D03*
X013223Y021142D02*
D03*
X020472Y020787D02*
D03*
Y021102D02*
D03*
X026067Y020171D02*
D03*
X022593Y015020D02*
D03*
Y015610D02*
D03*
X024966Y016594D02*
D03*
Y015610D02*
D03*
X024345Y018169D02*
D03*
X013199Y018533D02*
D03*
X015118Y021732D02*
D03*
X015433Y022047D02*
D03*
X016386Y022045D02*
D03*
X016693Y021417D02*
D03*
X014075Y019981D02*
D03*
X018267Y017323D02*
D03*
Y018897D02*
D03*
X018267Y018582D02*
D03*
X018582Y018582D02*
D03*
Y019212D02*
D03*
X018267Y019212D02*
D03*
X022025Y021028D02*
D03*
X022441Y022047D02*
D03*
X025827Y020971D02*
D03*
Y020765D02*
D03*
X021417Y017638D02*
D03*
X025585Y020121D02*
D03*
X025702Y019778D02*
D03*
X019842Y018582D02*
D03*
X019842Y018897D02*
D03*
X020472Y017953D02*
D03*
X023681Y023386D02*
D03*
X014094Y020551D02*
D03*
Y020315D02*
D03*
X022323Y016772D02*
D03*
X022177Y016918D02*
D03*
X019527Y018582D02*
D03*
Y018267D02*
D03*
X019527Y017637D02*
D03*
X020157Y015433D02*
D03*
X019212Y015433D02*
D03*
X020472Y015433D02*
D03*
X021102Y015433D02*
D03*
X020472Y016378D02*
D03*
Y016063D02*
D03*
X020157D02*
D03*
X018897Y016378D02*
D03*
X019527Y015748D02*
D03*
X019212Y016063D02*
D03*
Y016378D02*
D03*
X020157Y016378D02*
D03*
X019842D02*
D03*
X015748Y015748D02*
D03*
X016378D02*
D03*
X016063Y017323D02*
D03*
X018897Y020157D02*
D03*
X019212Y020157D02*
D03*
X020787Y019527D02*
D03*
X021102D02*
D03*
X016339Y026339D02*
D03*
X015669Y026339D02*
D03*
X017283Y026260D02*
D03*
X018150Y025866D02*
D03*
X018130Y026280D02*
D03*
X016732Y024055D02*
D03*
X016693Y023622D02*
D03*
X020787Y016063D02*
D03*
X020787Y016378D02*
D03*
X022441Y019961D02*
D03*
X017126Y010591D02*
D03*
X017717Y010827D02*
D03*
X020183Y011285D02*
D03*
X015747Y019212D02*
D03*
X016063Y019527D02*
D03*
X016063Y019842D02*
D03*
X015512Y014134D02*
D03*
Y014341D02*
D03*
X015276Y014646D02*
D03*
X026161Y016240D02*
D03*
X025748Y012283D02*
D03*
X025551Y018976D02*
D03*
X015118Y019842D02*
D03*
X026328Y019227D02*
D03*
X015433Y019842D02*
D03*
X015118Y020472D02*
D03*
X012520Y019370D02*
D03*
X012776Y019350D02*
D03*
X014262Y020719D02*
D03*
X021102Y020157D02*
D03*
X020157Y022362D02*
D03*
X020157Y022047D02*
D03*
X018622Y025000D02*
D03*
X019212Y018268D02*
D03*
X016220Y015276D02*
D03*
X015984Y015236D02*
D03*
X014055Y021772D02*
D03*
X026240Y018258D02*
D03*
X019842Y017638D02*
D03*
X011026Y024339D02*
D03*
X010723Y024300D02*
D03*
X024803Y013110D02*
D03*
X023307Y012874D02*
D03*
X025157Y012795D02*
D03*
X025354Y012598D02*
D03*
X025906Y012638D02*
D03*
X014012Y018868D02*
D03*
X015118Y016693D02*
D03*
X017951Y015432D02*
D03*
X019842Y017323D02*
D03*
X019527Y017323D02*
D03*
X019842Y017008D02*
D03*
X018582Y018268D02*
D03*
X012638Y017431D02*
D03*
X025020Y017972D02*
D03*
X019842Y017953D02*
D03*
X022530Y017707D02*
D03*
X025522Y016791D02*
D03*
X023425Y016811D02*
D03*
X022244Y017313D02*
D03*
X024345Y020138D02*
D03*
Y019154D02*
D03*
X024291Y019409D02*
D03*
X024345Y019744D02*
D03*
X025630Y021309D02*
D03*
X024322Y021556D02*
D03*
X024345Y020925D02*
D03*
X024291Y018898D02*
D03*
X022579Y021319D02*
D03*
X022402Y022441D02*
D03*
X021797Y020945D02*
D03*
X021142Y022579D02*
D03*
X014075Y019745D02*
D03*
X022372Y018986D02*
D03*
X015866Y024129D02*
D03*
X016161Y024134D02*
D03*
X017077Y023986D02*
D03*
X014745Y018568D02*
D03*
Y018361D02*
D03*
X021102Y015748D02*
D03*
X020787D02*
D03*
X019842Y015748D02*
D03*
X020472Y017008D02*
D03*
Y016693D02*
D03*
X018474Y025394D02*
D03*
X018268D02*
D03*
X019674Y024631D02*
D03*
Y024838D02*
D03*
X020086Y022576D02*
D03*
X022274Y015669D02*
D03*
X014744Y012992D02*
D03*
X014961D02*
D03*
X015468Y013297D02*
D03*
X015974Y012293D02*
D03*
X016467D02*
D03*
X015748Y014341D02*
D03*
Y014134D02*
D03*
X022432Y012028D02*
D03*
X022438Y011773D02*
D03*
X013287Y022372D02*
D03*
X011398Y021870D02*
D03*
Y022148D02*
D03*
Y022426D02*
D03*
Y022704D02*
D03*
Y022982D02*
D03*
X011583Y023278D02*
D03*
X011805D02*
D03*
X012028D02*
D03*
X012250D02*
D03*
X012472D02*
D03*
X012695D02*
D03*
X012904Y022764D02*
D03*
Y022516D02*
D03*
Y022268D02*
D03*
Y022020D02*
D03*
Y021772D02*
D03*
X018602Y014449D02*
D03*
X018307Y014862D02*
D03*
X018120D02*
D03*
X015728Y014616D02*
D03*
X018494Y014862D02*
D03*
X017589Y014882D02*
D03*
X017844Y014892D02*
D03*
X018681Y014862D02*
D03*
X018602Y014656D02*
D03*
X016693Y020157D02*
D03*
X016555Y015236D02*
D03*
X016706Y013268D02*
D03*
X016886D02*
D03*
X017067D02*
D03*
X017247D02*
D03*
X016654Y012815D02*
D03*
X017539Y013100D02*
D03*
X017434Y013258D02*
D03*
X021693Y025305D02*
D03*
X024262Y016201D02*
D03*
X024311Y016821D02*
D03*
X024321Y016378D02*
D03*
X015286Y025335D02*
D03*
X010630Y018642D02*
D03*
X022549Y019154D02*
D03*
X014630Y018976D02*
D03*
X014423D02*
D03*
X010886Y018327D02*
D03*
X026161Y024144D02*
D03*
X020246Y023937D02*
D03*
X020248Y024135D02*
D03*
X020020D02*
D03*
X020017Y023937D02*
D03*
X021004Y023386D02*
D03*
Y023573D02*
D03*
X021220D02*
D03*
X021216Y023387D02*
D03*
X021693Y024163D02*
D03*
X011447Y014360D02*
D03*
X011417Y012697D02*
D03*
X012697Y016732D02*
D03*
X012480Y015758D02*
D03*
X013032Y015000D02*
D03*
X012264Y017224D02*
D03*
X011949Y013110D02*
D03*
X011496Y010295D02*
D03*
X014055Y011339D02*
D03*
X014321Y010876D02*
D03*
X011427Y011437D02*
D03*
X011634Y011289D02*
D03*
X011476Y012431D02*
D03*
X012844Y013051D02*
D03*
X016220Y010787D02*
D03*
X013218Y012785D02*
D03*
X013376Y010906D02*
D03*
X013632Y013957D02*
D03*
X011417Y013848D02*
D03*
X011624Y010994D02*
D03*
X012402Y014134D02*
D03*
X011713Y013366D02*
D03*
X012913Y015709D02*
D03*
X016693Y017323D02*
D03*
X013258Y018317D02*
D03*
X014629Y019878D02*
D03*
X010393Y019685D02*
D03*
Y019941D02*
D03*
X014764Y016220D02*
D03*
X014400Y016417D02*
D03*
X018957Y024961D02*
D03*
X014104Y023307D02*
D03*
X019350Y025138D02*
D03*
X010738Y023750D02*
D03*
X010364Y020157D02*
D03*
Y020394D02*
D03*
X021850Y017402D02*
D03*
X019212Y019527D02*
D03*
X019527Y019527D02*
D03*
X018897Y019212D02*
D03*
X020787Y019843D02*
D03*
X021102Y019842D02*
D03*
X022593Y020138D02*
D03*
X022480Y019360D02*
D03*
X020472Y020157D02*
D03*
X021782Y022156D02*
D03*
X023927Y022559D02*
D03*
X025079Y022047D02*
D03*
X024783Y023091D02*
D03*
X018868Y024331D02*
D03*
X019144Y025551D02*
D03*
X010679Y023219D02*
D03*
X023219Y012165D02*
D03*
X023248Y012431D02*
D03*
X014882Y010354D02*
D03*
X012648Y012795D02*
D03*
X011447Y012185D02*
D03*
X011033Y015443D02*
D03*
X010335Y021093D02*
D03*
X010344Y020768D02*
D03*
X019764Y024311D02*
D03*
X020753Y023578D02*
D03*
X022234Y023396D02*
D03*
X022067Y023258D02*
D03*
X022372Y023238D02*
D03*
X024291Y018445D02*
D03*
X022510Y018159D02*
D03*
X022156Y017943D02*
D03*
X022244Y020817D02*
D03*
X022283Y020463D02*
D03*
X011181Y017116D02*
D03*
X010472Y017096D02*
D03*
X010728D02*
D03*
X021874Y020315D02*
D03*
X022081D02*
D03*
X022047Y020640D02*
D03*
X022343Y018425D02*
D03*
X011181Y020157D02*
D03*
X017322Y016063D02*
D03*
X018897Y016063D02*
D03*
X031260Y018954D02*
D03*
X037953Y015235D02*
D03*
X029862Y017574D02*
D03*
Y016396D02*
D03*
Y015215D02*
D03*
Y014624D02*
D03*
X029862Y018761D02*
D03*
X029857Y019351D02*
D03*
X029862Y019942D02*
D03*
Y020533D02*
D03*
X028898Y020131D02*
D03*
X036469Y024384D02*
D03*
X036316Y022331D02*
D03*
X038145Y019816D02*
D03*
X037717Y012065D02*
D03*
X038543Y012518D02*
D03*
X036614Y013699D02*
D03*
X036411Y013699D02*
D03*
X036817Y013699D02*
D03*
X037223Y013699D02*
D03*
X037020Y013699D02*
D03*
X039134Y022479D02*
D03*
X039370D02*
D03*
X039606D02*
D03*
X041772Y023896D02*
D03*
X041535D02*
D03*
X041299D02*
D03*
X041063D02*
D03*
X037953Y024004D02*
D03*
X038145D02*
D03*
X038337D02*
D03*
X037923Y025914D02*
D03*
X038115D02*
D03*
X038307D02*
D03*
X032952Y025056D02*
D03*
X035166Y023363D02*
D03*
X034577Y022065D02*
D03*
X034123Y023373D02*
D03*
X033906D02*
D03*
X033690D02*
D03*
X033473D02*
D03*
X033257D02*
D03*
X037627Y022654D02*
D03*
X037421Y022065D02*
D03*
X035146Y024879D02*
D03*
X034945D02*
D03*
X034743D02*
D03*
X035137Y025066D02*
D03*
X034945D02*
D03*
X034753D02*
D03*
X033983Y026070D02*
D03*
X033831Y025458D02*
D03*
X032126Y011052D02*
D03*
Y011317D02*
D03*
Y011583D02*
D03*
Y011849D02*
D03*
Y012115D02*
D03*
X040443Y011859D02*
D03*
X041093D02*
D03*
X039695D02*
D03*
X039104Y012321D02*
D03*
X034129Y013442D02*
D03*
X035935Y014452D02*
D03*
X036693Y014437D02*
D03*
X039922Y016194D02*
D03*
Y016401D02*
D03*
X039921Y016785D02*
D03*
Y016992D02*
D03*
X042283Y016785D02*
D03*
Y016991D02*
D03*
Y016194D02*
D03*
Y016401D02*
D03*
X042175Y014821D02*
D03*
X041319Y014623D02*
D03*
X040039Y014624D02*
D03*
Y021712D02*
D03*
X041319Y021711D02*
D03*
Y015017D02*
D03*
X040039Y015018D02*
D03*
X041113Y014893D02*
D03*
X040039Y021122D02*
D03*
X041319Y015410D02*
D03*
Y021120D02*
D03*
X040039Y015609D02*
D03*
X041319Y020727D02*
D03*
X040039Y020532D02*
D03*
X041319Y016001D02*
D03*
Y020530D02*
D03*
X040039Y019941D02*
D03*
X041319Y016591D02*
D03*
Y019939D02*
D03*
X040039Y016593D02*
D03*
X040034Y019351D02*
D03*
X041324Y017181D02*
D03*
X041319Y019349D02*
D03*
X040039Y017183D02*
D03*
Y018760D02*
D03*
X041319Y017773D02*
D03*
Y018757D02*
D03*
X040039Y017775D02*
D03*
Y018366D02*
D03*
X041319Y018363D02*
D03*
X028898Y016588D02*
D03*
Y016795D02*
D03*
X028898Y018952D02*
D03*
Y019158D02*
D03*
X028898Y019541D02*
D03*
Y019747D02*
D03*
Y020338D02*
D03*
X031260Y020131D02*
D03*
Y020338D02*
D03*
Y019541D02*
D03*
Y019747D02*
D03*
X031260Y014628D02*
D03*
Y014421D02*
D03*
X030296Y021908D02*
D03*
X030089Y022033D02*
D03*
X029016Y021516D02*
D03*
X030296Y015017D02*
D03*
Y021514D02*
D03*
X029016Y021319D02*
D03*
X030296Y015214D02*
D03*
X030089Y021353D02*
D03*
X030296Y020924D02*
D03*
X030089Y021013D02*
D03*
X028809Y020959D02*
D03*
X030296Y015809D02*
D03*
Y020530D02*
D03*
Y016395D02*
D03*
Y019939D02*
D03*
Y016985D02*
D03*
Y019349D02*
D03*
Y019150D02*
D03*
Y017576D02*
D03*
Y018757D02*
D03*
Y018166D02*
D03*
X038265Y020526D02*
D03*
X037425Y015116D02*
D03*
X034855Y022786D02*
D03*
X035791Y011596D02*
D03*
X037165Y011573D02*
D03*
Y011367D02*
D03*
Y011160D02*
D03*
Y010953D02*
D03*
X037402D02*
D03*
Y011160D02*
D03*
Y011367D02*
D03*
Y011573D02*
D03*
X037126Y010510D02*
D03*
X039096Y018896D02*
D03*
Y019426D02*
D03*
Y019806D02*
D03*
X039114Y020906D02*
D03*
Y020236D02*
D03*
X033990Y024485D02*
D03*
X036436Y024977D02*
D03*
X035876Y022794D02*
D03*
X035906Y022331D02*
D03*
X029016Y018170D02*
D03*
X029016Y016987D02*
D03*
Y015805D02*
D03*
X039114Y015727D02*
D03*
X039291Y016002D02*
D03*
X039911Y015392D02*
D03*
X039813Y014841D02*
D03*
X040886Y016002D02*
D03*
X041112Y015756D02*
D03*
X035631Y014491D02*
D03*
X029980Y018360D02*
D03*
X039010Y017213D02*
D03*
X039093Y017607D02*
D03*
X039074Y016830D02*
D03*
X038120Y017203D02*
D03*
X038425Y018030D02*
D03*
X038199Y018483D02*
D03*
X038780Y015353D02*
D03*
X039843Y022479D02*
D03*
X038179Y022469D02*
D03*
X043189Y019939D02*
D03*
X029980Y016204D02*
D03*
Y015997D02*
D03*
X031260Y015614D02*
D03*
Y015407D02*
D03*
X028898Y015023D02*
D03*
Y014816D02*
D03*
Y017977D02*
D03*
Y017770D02*
D03*
X028898Y015614D02*
D03*
Y015407D02*
D03*
X029980Y017385D02*
D03*
Y017179D02*
D03*
Y018566D02*
D03*
X042283Y017582D02*
D03*
Y017375D02*
D03*
X035385Y022785D02*
D03*
M02*
