G04 Layer_Physical_Order=5*
G04 Layer_Color=128*
%FSAX44Y44*%
%MOMM*%
G71*
G01*
G75*
%ADD11C,0.1250*%
%ADD64C,0.6000*%
%ADD66C,0.2000*%
%ADD67C,0.3048*%
%ADD73C,0.4000*%
%ADD76C,0.2540*%
%ADD96C,1.8500*%
%ADD98C,0.9500*%
%ADD99C,1.1000*%
%ADD100C,1.2000*%
%ADD101C,0.9000*%
%ADD103C,1.3000*%
%ADD105C,2.9000*%
%ADD108C,2.1000*%
%ADD109C,1.8000*%
%ADD110C,1.9000*%
G36*
X00329250Y00551000D02*
X00286750D01*
Y00592750D01*
X00329250D01*
Y00551000D01*
D02*
G37*
G36*
X00704000Y00274000D02*
X00674000Y00274000D01*
X00674000Y00653749D01*
X00704000Y00653749D01*
X00704000Y00274000D01*
D02*
G37*
G36*
X00538250Y00572250D02*
X00538250Y00567986D01*
X00535260Y00567998D01*
X00535260Y00572158D01*
X00537000Y00573500D01*
X00538250Y00572250D01*
D02*
G37*
G36*
X00620150Y00612600D02*
X00564900D01*
X00556000Y00621500D01*
X00544750D01*
X00544750Y00635500D01*
X00555710Y00635500D01*
X00563250Y00642483D01*
X00563250Y00672750D01*
X00620150Y00672750D01*
X00620150Y00612600D01*
D02*
G37*
G36*
X00432113Y00593637D02*
X00430137D01*
Y00595236D01*
X00432113D01*
Y00593637D01*
D02*
G37*
D11*
X00548124Y00441874D02*
Y00514682D01*
X00528000Y00421750D02*
X00548124Y00441874D01*
Y00514682D02*
Y00520124D01*
X00528000Y00421500D02*
Y00421750D01*
X00511992Y00405491D02*
X00528000Y00421500D01*
X00431750Y00519750D02*
X00481000D01*
X00423750Y00511750D02*
X00431750Y00519750D01*
X00423750Y00431750D02*
Y00511750D01*
X00348250Y00546750D02*
Y00547000D01*
X00333000Y00531500D02*
X00348250Y00546750D01*
X00333000Y00458000D02*
Y00531500D01*
X00368250Y00566750D02*
X00368250D01*
X00348250Y00547000D02*
X00348500D01*
X00355000Y00553500D01*
X00368250Y00566750D01*
X00368250D02*
X00404250Y00602750D01*
X00526000D02*
X00527000Y00603750D01*
X00404250Y00602750D02*
X00526000D01*
X00591015Y00559735D02*
Y00566735D01*
X00560000Y00592250D02*
X00565500D01*
X00591015Y00559735D02*
X00593000Y00557750D01*
X00564000Y00254500D02*
X00564250Y00254250D01*
X00374500Y00475633D02*
Y00482500D01*
Y00475633D02*
X00376000Y00474133D01*
X00374500Y00413000D02*
Y00430500D01*
X00376000Y00432000D01*
X00374500Y00482500D02*
Y00526500D01*
X00376750Y00392795D02*
Y00410750D01*
X00374500Y00413000D02*
X00376750Y00410750D01*
X00403750Y00355000D02*
X00406400Y00352350D01*
X00948000Y00392960D02*
X00952000Y00388960D01*
X00948000Y00392960D02*
Y00432960D01*
X00923000Y00457960D02*
X00948000Y00432960D01*
X00923000Y00457960D02*
Y00525960D01*
X00925000Y00527960D01*
X00945000D01*
X00948000Y00530960D01*
Y00544960D01*
X01023872Y00438088D02*
Y00524926D01*
X00969000Y00576960D02*
X01021697D01*
X01025409Y00573248D01*
X01022497Y00539856D02*
Y00559064D01*
X00952000Y00388960D02*
X00972000D01*
X00981000Y00379960D01*
Y00343960D02*
Y00379960D01*
X00981637Y00357960D02*
X01010000D01*
X01024000Y00371960D01*
Y00437960D01*
X00919000Y00343960D02*
X00981000D01*
X00895000Y00367960D02*
X00919000Y00343960D01*
X00895000Y00367960D02*
Y00548273D01*
X00923000Y00576960D02*
X00969000D01*
X00907250Y00566472D02*
X00917738Y00576960D01*
X00527000Y00589250D02*
Y00603750D01*
X00423750Y00407350D02*
Y00431750D01*
X00333000Y00381250D02*
Y00458000D01*
Y00381250D02*
X00359250Y00355000D01*
X00403750D01*
X00376750Y00392795D02*
X00403750Y00365795D01*
X00527250Y00603750D02*
X00548500D01*
X00406400Y00352350D02*
X00429100D01*
X00403750Y00355000D02*
Y00365795D01*
X00438000Y00363350D02*
Y00380163D01*
X00427000Y00352350D02*
X00484350D01*
X00493217Y00361217D01*
X00565500Y00592250D02*
X00591015Y00566735D01*
X00253500Y00319750D02*
X00382715D01*
X00564000Y00254500D02*
Y00285250D01*
X00382715Y00319750D02*
X00574000D01*
X00378540Y00334000D02*
Y00354750D01*
Y00334000D02*
X00521000D01*
X00566138Y00379138D01*
Y00397138D02*
X00593000Y00424000D01*
Y00557750D01*
X00500831Y00548456D02*
X00555750D01*
X00376000Y00432000D02*
Y00474133D01*
X00374500Y00526500D02*
X00407750Y00559750D01*
X00489537D01*
X00542847Y00581500D02*
X00556000Y00568347D01*
X00489537Y00559750D02*
X00500831Y00548456D01*
X00496683Y00519750D02*
X00548124D01*
X00481000D02*
X00496683D01*
X00566138Y00379138D02*
Y00397138D01*
X00423750Y00394412D02*
X00438000Y00380163D01*
X00423750Y00394412D02*
Y00407350D01*
X00427000Y00352350D02*
X00438000D01*
Y00363350D01*
X00493217Y00361217D02*
X00511992Y00379991D01*
Y00405491D01*
X00564000Y00285250D02*
X00574000Y00295250D01*
Y00319750D01*
X00548500Y00603750D02*
X00560000Y00592250D01*
X00548124Y00520124D02*
X00556000Y00528000D01*
Y00568347D01*
X00534750Y00581500D02*
X00542847D01*
X00527000Y00589250D02*
X00534750Y00581500D01*
X01022497Y00539856D02*
X01023872Y00538480D01*
Y00524926D02*
Y00538480D01*
X01022497Y00559064D02*
X01025409Y00561976D01*
Y00573248D01*
X01023872Y00438088D02*
X01024000Y00437960D01*
X00895000Y00548273D02*
X00901603Y00554876D01*
X00916445Y00555040D02*
X00925445D01*
X00943721D02*
X00948000Y00550761D01*
Y00543960D02*
Y00550761D01*
X00901603Y00555040D02*
X00916445D01*
X00925445D02*
X00943721D01*
X00901603Y00560825D02*
X00907250Y00566472D01*
X00917738Y00576960D02*
X00923000D01*
X00901603Y00555040D02*
Y00560825D01*
D64*
X00407991Y00551995D02*
D03*
X00399991D02*
D03*
X00535991Y00503995D02*
D03*
X00545250Y00668250D02*
D03*
X00883000Y00385000D02*
D03*
X00346250Y00354500D02*
D03*
X00425250Y00636000D02*
D03*
Y00644750D02*
D03*
X00908783Y00578750D02*
D03*
X01083994Y00441334D02*
D03*
Y00446584D02*
D03*
X00771494Y00471586D02*
D03*
Y00436336D02*
D03*
Y00441586D02*
D03*
X00744006Y00391334D02*
D03*
Y00396584D02*
D03*
X00744000Y00451370D02*
D03*
Y00456620D02*
D03*
Y00376335D02*
D03*
Y00381585D02*
D03*
X00803994Y00391334D02*
D03*
Y00396584D02*
D03*
X00771500Y00406333D02*
D03*
Y00411582D02*
D03*
X01107000Y00506460D02*
D03*
X00979750Y00570710D02*
D03*
X00995000Y00389960D02*
D03*
X00980250Y00469460D02*
D03*
X00986000Y00457960D02*
D03*
X00978250Y00436960D02*
D03*
X01002970Y00447223D02*
D03*
X00771494Y00466336D02*
D03*
X00915029Y00368077D02*
D03*
X01048494Y00406459D02*
D03*
X01021250Y00376960D02*
D03*
X01023750Y00390960D02*
D03*
X01008000Y00406460D02*
D03*
X01003500Y00399460D02*
D03*
X00747006Y00401459D02*
D03*
Y00431461D02*
D03*
X00747000Y00461527D02*
D03*
X00922000Y00567210D02*
D03*
X00921250Y00578960D02*
D03*
X00935469Y00634423D02*
D03*
X00873347Y00621923D02*
D03*
X01003485Y00513996D02*
D03*
Y00531014D02*
D03*
X01003049Y00503074D02*
D03*
Y00493422D02*
D03*
Y00479960D02*
D03*
X00953000Y00266960D02*
D03*
X00919095Y00294543D02*
D03*
X00895321Y00578753D02*
D03*
X00779506Y00461426D02*
D03*
Y00476424D02*
D03*
Y00446424D02*
D03*
Y00486422D02*
D03*
Y00491461D02*
D03*
Y00431424D02*
D03*
Y00506458D02*
D03*
Y00416424D02*
D03*
Y00521461D02*
D03*
Y00401544D02*
D03*
X00774270Y00542374D02*
D03*
X00779506Y00386424D02*
D03*
Y00381424D02*
D03*
X00774270Y00559646D02*
D03*
X00804000Y00366300D02*
D03*
Y00371550D02*
D03*
X00803994Y00501584D02*
D03*
Y00496334D02*
D03*
Y00516584D02*
D03*
Y00511334D02*
D03*
X00744006Y00516584D02*
D03*
Y00501584D02*
D03*
Y00496334D02*
D03*
X00744000Y00486620D02*
D03*
Y00481370D02*
D03*
X00744006Y00426584D02*
D03*
Y00421334D02*
D03*
X01059506Y00466427D02*
D03*
X01026994Y00466493D02*
D03*
Y00451496D02*
D03*
X01059506Y00476424D02*
D03*
Y00451426D02*
D03*
X01026994Y00476493D02*
D03*
Y00436459D02*
D03*
X01059506Y00491461D02*
D03*
X01059630Y00436399D02*
D03*
X01026870Y00491521D02*
D03*
X01026994Y00421462D02*
D03*
X01059506Y00506458D02*
D03*
Y00421424D02*
D03*
X01026994Y00506496D02*
D03*
X01059506Y00521461D02*
D03*
Y00406419D02*
D03*
X01026994Y00521501D02*
D03*
X01059506Y00526461D02*
D03*
Y00536459D02*
D03*
Y00391424D02*
D03*
X01026994Y00536496D02*
D03*
X01059506Y00551459D02*
D03*
X01026994Y00551496D02*
D03*
X01081250Y00376460D02*
D03*
X01083994Y00416584D02*
D03*
Y00411334D02*
D03*
Y00431584D02*
D03*
Y00426334D02*
D03*
X01024000Y00431585D02*
D03*
Y00426335D02*
D03*
X01024006Y00416584D02*
D03*
Y00411334D02*
D03*
X00942000Y00366710D02*
D03*
X00922753Y00367093D02*
D03*
X00876886Y00341417D02*
D03*
X01018250Y00301210D02*
D03*
X01053750D02*
D03*
X01037250D02*
D03*
X00826000Y00307710D02*
D03*
Y00300960D02*
D03*
Y00294210D02*
D03*
Y00287460D02*
D03*
Y00280710D02*
D03*
X00869320Y00646633D02*
D03*
X00960500Y00560460D02*
D03*
X00965719Y00575423D02*
D03*
X00854719Y00593673D02*
D03*
X00860219D02*
D03*
X00865719D02*
D03*
X00871219D02*
D03*
X00876719D02*
D03*
X00888250Y00560460D02*
D03*
X00903219Y00593423D02*
D03*
X00846969Y00636423D02*
D03*
X00983000Y00658210D02*
D03*
X00978125D02*
D03*
X00973250D02*
D03*
X00983750Y00609710D02*
D03*
X00978875D02*
D03*
X00974000D02*
D03*
X00989000Y00317960D02*
D03*
X00968000Y00306460D02*
D03*
X00978887Y00503315D02*
D03*
X00936300Y00619342D02*
D03*
X00744006Y00511334D02*
D03*
X00768500Y00521542D02*
D03*
Y00506532D02*
D03*
X00768370Y00491521D02*
D03*
X00768500Y00476527D02*
D03*
X00768494Y00371461D02*
D03*
Y00386461D02*
D03*
Y00416459D02*
D03*
Y00446368D02*
D03*
X00974000Y00386960D02*
D03*
X00803994Y00481429D02*
D03*
X00479991Y00407995D02*
D03*
X00439991Y00407995D02*
D03*
X00284000Y00512000D02*
D03*
X00567500Y00468000D02*
D03*
X00560000Y00524250D02*
D03*
X00560849Y00516000D02*
D03*
X00555599D02*
D03*
X00272500Y00434250D02*
D03*
X00266000D02*
D03*
X00284000Y00434750D02*
D03*
X00566000Y00519750D02*
D03*
X00565000Y00528750D02*
D03*
X00562750Y00455750D02*
D03*
X00571750Y00461250D02*
D03*
X00617000Y00468500D02*
D03*
X00568250Y00590250D02*
D03*
X00560500Y00590750D02*
D03*
X00564750Y00594250D02*
D03*
X00527125Y00598875D02*
D03*
X00502000Y00617500D02*
D03*
X00262750Y00527500D02*
D03*
X00262500Y00535750D02*
D03*
X00280250Y00392250D02*
D03*
X00290750Y00309500D02*
D03*
X00321250Y00325000D02*
D03*
X00378000Y00263000D02*
D03*
X00590500Y00315750D02*
D03*
X00589750Y00309000D02*
D03*
X00271250Y00589750D02*
D03*
X00486250Y00649000D02*
D03*
X00479250Y00618000D02*
D03*
X00629500Y00586500D02*
D03*
X00637000Y00560000D02*
D03*
X00607750Y00573000D02*
D03*
X00553265Y00562765D02*
D03*
X00519991Y00511995D02*
D03*
X00571000Y00491750D02*
D03*
X00573851Y00511500D02*
D03*
X00528000Y00504004D02*
D03*
X00495991Y00495995D02*
D03*
X00487991Y00495995D02*
D03*
X00555000Y00442000D02*
D03*
X00263250Y00518000D02*
D03*
Y00512000D02*
D03*
X00272750Y00603250D02*
D03*
X00491500Y00638500D02*
D03*
X00358250Y00592000D02*
D03*
X00481500Y00634000D02*
D03*
X00365750Y00417000D02*
D03*
X00375000Y00412000D02*
D03*
X00263990Y00506490D02*
D03*
X00371577Y00504891D02*
D03*
X00336750Y00465250D02*
D03*
X00423991Y00439995D02*
D03*
X00297500Y00339500D02*
D03*
X00315000Y00359000D02*
D03*
X00295250Y00279250D02*
D03*
X00290000Y00351750D02*
D03*
X00339750Y00277000D02*
D03*
X00335750Y00324750D02*
D03*
X00326250Y00331500D02*
D03*
X00291500Y00315750D02*
D03*
X00295500Y00286750D02*
D03*
X00290250Y00290500D02*
D03*
X00363750Y00276250D02*
D03*
X00357000Y00288000D02*
D03*
X00292000Y00261500D02*
D03*
X00303500Y00333000D02*
D03*
X00311500Y00437500D02*
D03*
X00331000Y00381000D02*
D03*
X00317000Y00400250D02*
D03*
X00322500Y00425000D02*
D03*
X00290000Y00322500D02*
D03*
X00290750Y00364750D02*
D03*
X00551000Y00613750D02*
D03*
X00508437Y00608000D02*
D03*
X00508498Y00613022D02*
D03*
X00514312D02*
D03*
X00514250Y00608000D02*
D03*
X00664500Y00613250D02*
D03*
X00366349Y00482000D02*
D03*
X00371599D02*
D03*
X00572750Y00486500D02*
D03*
X00270001Y00473511D02*
D03*
X00617500Y00427250D02*
D03*
X00551000Y00642750D02*
D03*
X00442833Y00336750D02*
D03*
X00445500Y00332750D02*
D03*
X00423000Y00325500D02*
D03*
X00438083Y00337000D02*
D03*
X00433500D02*
D03*
X00428917D02*
D03*
X00424333D02*
D03*
X00420500Y00387000D02*
D03*
X00423992Y00511995D02*
D03*
X00453250Y00378250D02*
D03*
X00446750Y00378000D02*
D03*
X00399500Y00371250D02*
D03*
X00327750Y00553000D02*
D03*
Y00559300D02*
D03*
Y00565600D02*
D03*
Y00571900D02*
D03*
X00322450Y00591250D02*
D03*
X00316800D02*
D03*
X00311150D02*
D03*
X00305500D02*
D03*
X00299850D02*
D03*
X00294200D02*
D03*
X00289500Y00583750D02*
D03*
Y00576688D02*
D03*
Y00569625D02*
D03*
Y00562562D02*
D03*
Y00555500D02*
D03*
X00337500Y00568250D02*
D03*
X00418250Y00312250D02*
D03*
X00405750D02*
D03*
X00380000Y00330000D02*
D03*
X00374500D02*
D03*
X00565750Y00398000D02*
D03*
X00499710Y00630875D02*
D03*
Y00625625D02*
D03*
X00464000Y00645000D02*
D03*
X00469250D02*
D03*
X00519991Y00423995D02*
D03*
Y00431995D02*
D03*
X00503991Y00399995D02*
D03*
X00527991Y00399995D02*
D03*
X00535991D02*
D03*
X00374520Y00466375D02*
D03*
Y00471625D02*
D03*
X00433750Y00609250D02*
D03*
X00410500Y00613000D02*
D03*
X00403000Y00612875D02*
D03*
X00568250Y00482250D02*
D03*
X00357505Y00501512D02*
D03*
X00537000Y00573500D02*
D03*
X00553648Y00531995D02*
D03*
X00569000Y00570000D02*
D03*
X00573500Y00541500D02*
D03*
X00617000Y00480000D02*
D03*
X00618351Y00531500D02*
D03*
X00617768Y00547514D02*
D03*
X00651000Y00541250D02*
D03*
X00618351Y00501500D02*
D03*
X00617000Y00493000D02*
D03*
X00618351Y00486500D02*
D03*
Y00511500D02*
D03*
X00565000Y00439750D02*
D03*
X00595000Y00427000D02*
D03*
X00648250Y00426500D02*
D03*
X00572250Y00449750D02*
D03*
X00503991Y00455995D02*
D03*
X00635500Y00456500D02*
D03*
X00321000Y00442750D02*
D03*
X00503991Y00431995D02*
D03*
X00495991Y00439995D02*
D03*
X00503991Y00439995D02*
D03*
X00455964Y00391984D02*
D03*
X00383991Y00423995D02*
D03*
X00355905Y00479243D02*
D03*
X00658000Y00321000D02*
D03*
X00644000Y00320000D02*
D03*
X00639000Y00325000D02*
D03*
X00592000Y00327000D02*
D03*
X00272356Y00617215D02*
D03*
X00280055Y00618212D02*
D03*
X00503991Y00447995D02*
D03*
X00666500Y00463750D02*
D03*
X00357000Y00553000D02*
D03*
X00406000Y00387000D02*
D03*
X00412000Y00388000D02*
D03*
X00473000Y00635000D02*
D03*
X00511992Y00559995D02*
D03*
X00511992Y00567995D02*
D03*
X00535992Y00511995D02*
D03*
X00362250Y00526250D02*
D03*
X00324500Y00491500D02*
D03*
X00318000Y00492000D02*
D03*
X00383991Y00519995D02*
D03*
X00391991Y00503995D02*
D03*
X00668727Y00488364D02*
D03*
X00383991Y00503995D02*
D03*
X00649000Y00482000D02*
D03*
X00654000Y00312000D02*
D03*
X00664500Y00412500D02*
D03*
X00407991Y00503995D02*
D03*
X00407991Y00495995D02*
D03*
X00399983Y00487990D02*
D03*
X00512650Y00286650D02*
D03*
X00450000Y00275000D02*
D03*
X00435000Y00269000D02*
D03*
X00570000Y00507000D02*
D03*
X00527995Y00416009D02*
D03*
X00527991Y00407995D02*
D03*
X00424000Y00600000D02*
D03*
X00425000Y00611000D02*
D03*
X00460500Y00667500D02*
D03*
X00461000Y00657000D02*
D03*
X00439000Y00667000D02*
D03*
X00398000Y00669000D02*
D03*
X00415000Y00669000D02*
D03*
X00535992Y00495995D02*
D03*
X00527991D02*
D03*
X00487991Y00511995D02*
D03*
X00408000Y00440000D02*
D03*
X00415995Y00399995D02*
D03*
X00399991D02*
D03*
X00503991Y00415995D02*
D03*
X00511991D02*
D03*
X00487991Y00415995D02*
D03*
Y00407995D02*
D03*
X00495991Y00399995D02*
D03*
X00479991Y00415995D02*
D03*
X00511991Y00407995D02*
D03*
X00519991D02*
D03*
Y00415995D02*
D03*
X00535991Y00391995D02*
D03*
X00519991Y00391995D02*
D03*
X00487991Y00391995D02*
D03*
X00511992Y00391995D02*
D03*
X00495983Y00447991D02*
D03*
X00495996Y00463987D02*
D03*
Y00471987D02*
D03*
X00563288Y00429712D02*
D03*
X00567000Y00426000D02*
D03*
X00358000Y00516000D02*
D03*
Y00522000D02*
D03*
X00601488Y00594000D02*
D03*
X00519991Y00455995D02*
D03*
X00503991Y00479995D02*
D03*
X00503991Y00471995D02*
D03*
X00652834Y00502367D02*
D03*
X00649859Y00511084D02*
D03*
X00543991Y00447995D02*
D03*
X00656000Y00527425D02*
D03*
Y00532675D02*
D03*
X00570000Y00560000D02*
D03*
X00559436Y00534115D02*
D03*
X00463991Y00487995D02*
D03*
X00471991Y00487995D02*
D03*
Y00471995D02*
D03*
X00463992Y00471995D02*
D03*
X00463991Y00479995D02*
D03*
Y00439995D02*
D03*
X00357505Y00507512D02*
D03*
X00423992Y00543995D02*
D03*
X00416195Y00559949D02*
D03*
X00391991Y00559995D02*
D03*
X00383992Y00551995D02*
D03*
X00335267Y00470750D02*
D03*
X00618351Y00461500D02*
D03*
X00634149Y00421500D02*
D03*
X00662108Y00512336D02*
D03*
X00519991Y00535995D02*
D03*
Y00527995D02*
D03*
X00335877Y00536998D02*
D03*
X00638852Y00624573D02*
D03*
X00455992Y00415995D02*
D03*
X00426000Y00667999D02*
D03*
X00407000Y00665350D02*
D03*
X00503975Y00638000D02*
D03*
X00392444Y00659500D02*
D03*
X00419000Y00665350D02*
D03*
X00383991Y00471995D02*
D03*
X00324750Y00506500D02*
D03*
X00553648Y00427995D02*
D03*
X00471991Y00519995D02*
D03*
X00487991Y00439995D02*
D03*
Y00447995D02*
D03*
X00415991Y00423995D02*
D03*
X00407991Y00399995D02*
D03*
X00407991Y00423995D02*
D03*
X00543991Y00503995D02*
D03*
X00535991Y00487995D02*
D03*
X00527991D02*
D03*
X00511991D02*
D03*
Y00455995D02*
D03*
X00535991D02*
D03*
X00455992Y00527995D02*
D03*
X00495991Y00519995D02*
D03*
X00495991Y00511995D02*
D03*
X00430900Y00287050D02*
D03*
X00418400Y00274350D02*
D03*
X00526248Y00357100D02*
D03*
Y00362529D02*
D03*
X00479500Y00273700D02*
D03*
X00488000Y00334000D02*
D03*
X00480000D02*
D03*
X00472000D02*
D03*
X00505648Y00337321D02*
D03*
X00518900Y00337400D02*
D03*
X00505500Y00344000D02*
D03*
X00525000Y00337350D02*
D03*
X00537950D02*
D03*
X00525000Y00324650D02*
D03*
X00512550Y00337400D02*
D03*
X00505500Y00350679D02*
D03*
X00525150Y00312050D02*
D03*
X00538050D02*
D03*
X00499950Y00299350D02*
D03*
X00525350Y00273950D02*
D03*
X00525150Y00350050D02*
D03*
X00364500Y00333609D02*
D03*
X00359125D02*
D03*
X00353750D02*
D03*
X00443600Y00299750D02*
D03*
X00464000Y00324000D02*
D03*
Y00334000D02*
D03*
X00418250Y00349750D02*
D03*
X00405700Y00274350D02*
D03*
X00393043D02*
D03*
X00380300Y00299750D02*
D03*
X00405500Y00325050D02*
D03*
X00418300Y00337750D02*
D03*
X00407250D02*
D03*
X00527991Y00455995D02*
D03*
X00535991Y00431995D02*
D03*
X00511991Y00423995D02*
D03*
X00519991Y00399995D02*
D03*
X00543991Y00495995D02*
D03*
X00519991Y00487995D02*
D03*
X00535991Y00527995D02*
D03*
Y00535995D02*
D03*
Y00551995D02*
D03*
X00527991Y00567995D02*
D03*
X00511991Y00535995D02*
D03*
X00503991Y00543995D02*
D03*
X00495991Y00535995D02*
D03*
X00487991Y00551995D02*
D03*
X00479991D02*
D03*
Y00543995D02*
D03*
X00471991Y00551995D02*
D03*
X00503991Y00535995D02*
D03*
X00479991Y00527995D02*
D03*
X00511991Y00511995D02*
D03*
X00471991Y00503995D02*
D03*
X00487991Y00503995D02*
D03*
X00455991Y00519995D02*
D03*
X00455992Y00511995D02*
D03*
Y00503995D02*
D03*
X00455991Y00495995D02*
D03*
X00471991Y00495995D02*
D03*
X00487991Y00487995D02*
D03*
X00447991Y00519995D02*
D03*
X00447991Y00511995D02*
D03*
Y00503995D02*
D03*
Y00495995D02*
D03*
X00439991Y00487995D02*
D03*
X00439991Y00495995D02*
D03*
X00439991Y00503995D02*
D03*
Y00511995D02*
D03*
Y00519995D02*
D03*
X00431992D02*
D03*
Y00503995D02*
D03*
Y00487995D02*
D03*
X00471991Y00423995D02*
D03*
X00479991Y00439995D02*
D03*
X00439991Y00455995D02*
D03*
X00431991Y00447995D02*
D03*
X00447991D02*
D03*
X00415991Y00407995D02*
D03*
X00423992Y00423995D02*
D03*
X00415991Y00447995D02*
D03*
X00391991Y00439995D02*
D03*
X00399991Y00415995D02*
D03*
X00391991Y00399995D02*
D03*
X00391992Y00487995D02*
D03*
X00399991Y00503995D02*
D03*
X00391992Y00527995D02*
D03*
X00415992Y00535995D02*
D03*
X00439991Y00543995D02*
D03*
X00399991D02*
D03*
X00431992Y00527995D02*
D03*
X00455992Y00535995D02*
D03*
X00407991Y00519995D02*
D03*
X00447991Y00439995D02*
D03*
X00383991Y00495995D02*
D03*
X00383991Y00447995D02*
D03*
Y00527995D02*
D03*
X00535991Y00543995D02*
D03*
X00479991Y00519995D02*
D03*
X00487991D02*
D03*
X00479991Y00535995D02*
D03*
X00311644Y00521500D02*
D03*
Y00506500D02*
D03*
X00312039Y00491500D02*
D03*
X00527991Y00535995D02*
D03*
X00519991Y00519995D02*
D03*
X00487991Y00535995D02*
D03*
X00487991Y00527995D02*
D03*
X00471991Y00543995D02*
D03*
X00471991Y00535995D02*
D03*
Y00527995D02*
D03*
X00455991Y00544035D02*
D03*
X00447991Y00543995D02*
D03*
X00431992Y00543995D02*
D03*
X00439991Y00535995D02*
D03*
X00431991Y00535995D02*
D03*
X00447991Y00535995D02*
D03*
X00495992Y00503995D02*
D03*
X00495991Y00487995D02*
D03*
X00503991Y00423995D02*
D03*
X00479991Y00447995D02*
D03*
X00511991Y00431995D02*
D03*
Y00439995D02*
D03*
X00527991Y00511995D02*
D03*
X00519991Y00463995D02*
D03*
X00527991D02*
D03*
X00535991D02*
D03*
X00503991Y00463995D02*
D03*
X00511991D02*
D03*
X00511992Y00471995D02*
D03*
X00519991D02*
D03*
X00527991D02*
D03*
X00407991Y00471995D02*
D03*
X00439991D02*
D03*
X00479991D02*
D03*
X00447991Y00487995D02*
D03*
Y00471995D02*
D03*
X00455992Y00471995D02*
D03*
X00423992Y00471995D02*
D03*
X00495992Y00479995D02*
D03*
X00649150Y00549100D02*
D03*
X00527991Y00479995D02*
D03*
X00543991Y00407995D02*
D03*
X00355250Y00561500D02*
D03*
X00337250Y00556500D02*
D03*
X00355250Y00546500D02*
D03*
Y00541500D02*
D03*
X00360250Y00531500D02*
D03*
X00526248Y00367958D02*
D03*
X00491000Y00575500D02*
D03*
X00543992Y00511995D02*
D03*
X00649150Y00472900D02*
D03*
X00472005Y00559991D02*
D03*
X00452000Y00665000D02*
D03*
X00512005Y00551991D02*
D03*
X00447991Y00551995D02*
D03*
X00366327Y00504891D02*
D03*
X00389103Y00668201D02*
D03*
X00511991Y00519995D02*
D03*
X00600599Y00584000D02*
D03*
X00571000Y00533649D02*
D03*
X00574000Y00548000D02*
D03*
X00572650Y00471217D02*
D03*
X00618351Y00541500D02*
D03*
X00503991Y00487995D02*
D03*
X00563000Y00388000D02*
D03*
X00503991Y00495995D02*
D03*
X00526248Y00373388D02*
D03*
X00533500Y00379250D02*
D03*
X00486250Y00579750D02*
D03*
X00374000Y00397000D02*
D03*
X00407991Y00463995D02*
D03*
X00503991Y00407995D02*
D03*
X00557080Y00436547D02*
D03*
X00429500Y00605250D02*
D03*
X00395500Y00621750D02*
D03*
X00383500Y00613750D02*
D03*
X00404500Y00592750D02*
D03*
X00390500Y00614500D02*
D03*
X00495992Y00391995D02*
D03*
X00503992D02*
D03*
X00501250Y00382000D02*
D03*
X00525250Y00331000D02*
D03*
X00550500Y00326750D02*
D03*
X00551750Y00339750D02*
D03*
X00552000Y00358250D02*
D03*
X00546750Y00339750D02*
D03*
X00556750D02*
D03*
X00561750D02*
D03*
X00618500Y00391750D02*
D03*
X00474750Y00645000D02*
D03*
X00472000Y00611750D02*
D03*
X00477250Y00607750D02*
D03*
X00507000Y00579000D02*
D03*
X00661750Y00530000D02*
D03*
X00663750Y00492250D02*
D03*
X00475000Y00579750D02*
D03*
X00655500Y00404750D02*
D03*
X00557500Y00382500D02*
D03*
X00431992Y00567995D02*
D03*
X00290000Y00457750D02*
D03*
X00293250Y00462250D02*
D03*
X00351500Y00579000D02*
D03*
X00573851Y00496500D02*
D03*
X00573000Y00502500D02*
D03*
X00566750Y00339750D02*
D03*
X00539000Y00379250D02*
D03*
X00291500Y00526250D02*
D03*
X00320250Y00526000D02*
D03*
X00479000Y00391000D02*
D03*
X00563250Y00299350D02*
D03*
X00519991Y00439995D02*
D03*
X00615000Y00332750D02*
D03*
X00650250Y00305000D02*
D03*
X00635500Y00300750D02*
D03*
X00630500D02*
D03*
X00625500D02*
D03*
X00635500Y00295750D02*
D03*
X00630500D02*
D03*
X00625500D02*
D03*
X00560400Y00269000D02*
D03*
X00567250Y00287500D02*
D03*
X00494500Y00274000D02*
D03*
X00551250Y00285500D02*
D03*
X00517750Y00261000D02*
D03*
X00511500Y00273250D02*
D03*
X00536250Y00286500D02*
D03*
X00616250Y00272500D02*
D03*
X00643250Y00298000D02*
D03*
X00609750Y00336250D02*
D03*
X00613250Y00362750D02*
D03*
X00627250Y00358250D02*
D03*
X00535991Y00423995D02*
D03*
Y00439995D02*
D03*
X00511991Y00495995D02*
D03*
X00519991D02*
D03*
X00503991Y00503995D02*
D03*
X00511992Y00503995D02*
D03*
X00519991Y00503995D02*
D03*
X00357250Y00496000D02*
D03*
X00310250Y00446500D02*
D03*
X00275000Y00541750D02*
D03*
X00282750Y00546500D02*
D03*
X00264750Y00578250D02*
D03*
X00322250Y00454250D02*
D03*
X00321000Y00460750D02*
D03*
X00330250Y00430250D02*
D03*
X00311500Y00368000D02*
D03*
X00354250Y00381500D02*
D03*
X00293250Y00414750D02*
D03*
X00575250Y00323500D02*
D03*
X00471000Y00273000D02*
D03*
X00407000Y00264000D02*
D03*
X00262500Y00541000D02*
D03*
X00265000Y00585250D02*
D03*
X00495991Y00431995D02*
D03*
X00503991Y00511995D02*
D03*
X00439991Y00415995D02*
D03*
X00471992Y00455995D02*
D03*
X00455991Y00463995D02*
D03*
X00593750Y00289750D02*
D03*
X00588875D02*
D03*
X00598625D02*
D03*
X00583000Y00322500D02*
D03*
X00296000Y00358750D02*
D03*
X00551500Y00276250D02*
D03*
X00335750Y00446500D02*
D03*
X00271000Y00464500D02*
D03*
X00371500Y00416500D02*
D03*
X00330788Y00448962D02*
D03*
X00550500Y00333750D02*
D03*
X00431250Y00596500D02*
D03*
X00556750Y00345000D02*
D03*
Y00350250D02*
D03*
X00561750D02*
D03*
Y00345000D02*
D03*
X00559250Y00354500D02*
D03*
X00655000Y00415250D02*
D03*
Y00410000D02*
D03*
X00564686Y00534115D02*
D03*
X00535991Y00415995D02*
D03*
Y00407995D02*
D03*
X00527991Y00551995D02*
D03*
Y00543995D02*
D03*
X00356671Y00438677D02*
D03*
Y00433427D02*
D03*
X00469250Y00627000D02*
D03*
X00467750Y00632750D02*
D03*
X00460934Y00611705D02*
D03*
X00466184D02*
D03*
X00439750Y00573500D02*
D03*
Y00568250D02*
D03*
X00374199Y00426625D02*
D03*
Y00421375D02*
D03*
X00495991Y00423995D02*
D03*
Y00415995D02*
D03*
X00361500Y00396625D02*
D03*
Y00391375D02*
D03*
X00337462Y00409712D02*
D03*
X00333750Y00406000D02*
D03*
X00293250Y00426625D02*
D03*
Y00421375D02*
D03*
X00543991Y00423995D02*
D03*
Y00415995D02*
D03*
X00535991Y00447995D02*
D03*
X00527991D02*
D03*
X00293000Y00396625D02*
D03*
Y00391375D02*
D03*
X00355500Y00411625D02*
D03*
Y00406375D02*
D03*
X00321000Y00448000D02*
D03*
X00354941Y00456625D02*
D03*
Y00451375D02*
D03*
X00279524Y00456000D02*
D03*
X00284774D02*
D03*
X00639000Y00416625D02*
D03*
Y00411375D02*
D03*
X00552000Y00388000D02*
D03*
Y00382750D02*
D03*
X00543991Y00399995D02*
D03*
X00551991Y00399995D02*
D03*
X00265000Y00494375D02*
D03*
Y00489125D02*
D03*
X00635000Y00446625D02*
D03*
Y00441375D02*
D03*
X00270500Y00451250D02*
D03*
Y00446000D02*
D03*
X00317750Y00368000D02*
D03*
X00323000D02*
D03*
X00460934Y00585750D02*
D03*
X00466184D02*
D03*
X00479676Y00601669D02*
D03*
Y00596419D02*
D03*
X00502934Y00601669D02*
D03*
Y00596419D02*
D03*
X00554983Y00492000D02*
D03*
X00560233D02*
D03*
X00535991Y00567995D02*
D03*
Y00559995D02*
D03*
X00431250Y00585781D02*
D03*
X00564686Y00555500D02*
D03*
X00559436D02*
D03*
X00659000Y00494575D02*
D03*
Y00489325D02*
D03*
X00431250Y00591031D02*
D03*
X00367750Y00358000D02*
D03*
X00531875Y00636750D02*
D03*
X00523500D02*
D03*
X00540250D02*
D03*
Y00628375D02*
D03*
X00523500D02*
D03*
X00531875D02*
D03*
X00540250Y00620000D02*
D03*
X00523500D02*
D03*
X00531875D02*
D03*
X00409000Y00636000D02*
D03*
X00439894Y00645000D02*
D03*
Y00636000D02*
D03*
X00409000Y00645000D02*
D03*
X00288250Y00496750D02*
D03*
X00367931Y00438121D02*
D03*
X00373181D02*
D03*
X00367931Y00458750D02*
D03*
X00373181D02*
D03*
X00617750Y00525250D02*
D03*
X00616750Y00519500D02*
D03*
X00292750Y00381625D02*
D03*
Y00376375D02*
D03*
X00281750Y00561750D02*
D03*
X00284500Y00633000D02*
D03*
D66*
X00573875Y00254000D02*
X00574000Y00254125D01*
D67*
X02217633Y00569442D02*
X02231100Y00555975D01*
X02238796Y00563671D01*
X02233216Y00585026D02*
X02235782Y00569635D01*
X02245401Y00579254D01*
X02233216Y00585026D02*
X02246684Y00571559D01*
X02246492Y00582910D02*
X02258035Y00594454D01*
X02261370Y00599071D02*
X02267142Y00604843D01*
X02268424Y00607408D01*
X02268424Y00608691D01*
X02267783Y00610615D01*
X02265859Y00612538D01*
X02263935Y00613180D01*
X02262652D01*
X02260087Y00611897D01*
X02254315Y00606125D01*
X02267783Y00592658D01*
X02266308Y00618118D02*
X02282982Y00607857D01*
X02272721Y00624531D02*
X02282982Y00607857D01*
X02272721Y00624531D02*
X02289395Y00614270D01*
X02279134Y00630944D02*
X02289395Y00614270D01*
X02281828Y00633638D02*
X02295295Y00620170D01*
X02281828Y00633638D02*
X02287599Y00639409D01*
X02290165Y00640692D01*
X02291447Y00640692D01*
X02293371Y00640051D01*
X02294654Y00638768D01*
X02295295Y00636844D01*
Y00635561D01*
X02294012Y00632996D01*
X02288241Y00627225D01*
X02292730Y00631714D02*
X02304274Y00629148D01*
D73*
X01124000Y00654000D02*
G03*
X01104000Y00674000I-00020000J00000000D01*
G01*
X00724000Y00674000D02*
G03*
X00704000Y00654000I-00000001J-00019999D01*
G01*
X00674000D02*
G03*
X00654000Y00674000I-00019999J00000001D01*
G01*
X00274250Y00674000D02*
G03*
X00254000Y00653749I-00000002J-00020248D01*
G01*
X00254000Y00274000D02*
G03*
X00274000Y00254000I00019999J-00000001D01*
G01*
X00654000D02*
G03*
X00674000Y00274000I00000000J00020000D01*
G01*
X00704000Y00274000D02*
G03*
X00724000Y00254000I00019999J-00000001D01*
G01*
X01104000D02*
G03*
X01124000Y00274000I00000124J00019876D01*
G01*
X01124000D02*
Y00654000D01*
X00724000Y00674000D02*
X01104000Y00674000D01*
X00674000Y00654000D02*
X00704000Y00654000D01*
X00274250Y00674000D02*
X00654000D01*
X00254000Y00274000D02*
X00254000Y00653749D01*
X00274000Y00254000D02*
X00654000D01*
X00674000Y00274000D02*
X00704000Y00274000D01*
X00724000Y00254000D02*
X01104000Y00254000D01*
D76*
X02235561Y00524995D02*
X02223469D01*
X02222259Y00514111D01*
X02223469Y00515321D01*
X02227096Y00516530D01*
X02230724D01*
X02234352Y00515321D01*
X02236770Y00512902D01*
X02237980Y00509274D01*
Y00506856D01*
X02236770Y00503228D01*
X02234352Y00500809D01*
X02230724Y00499600D01*
X02227096D01*
X02223469Y00500809D01*
X02222259Y00502019D01*
X02221050Y00504437D01*
D96*
X01064000Y00345960D02*
D03*
X01064000Y00581960D02*
D03*
X00618000Y00345000D02*
D03*
Y00583000D02*
D03*
X00338000Y00345000D02*
D03*
Y00583000D02*
D03*
X00784000Y00345960D02*
D03*
X00784000Y00581960D02*
D03*
D98*
X00483000Y00661250D02*
D03*
X00495500D02*
D03*
X00508000D02*
D03*
X00520500D02*
D03*
X00533000D02*
D03*
X00766250Y00274460D02*
D03*
X00324000Y00266500D02*
D03*
D99*
X00644000Y00346408D02*
D03*
X00664000Y00356408D02*
D03*
X00644000Y00366408D02*
D03*
X00664000Y00376408D02*
D03*
X00644000Y00386408D02*
D03*
X00664000Y00336408D02*
D03*
D100*
X00626250Y00265500D02*
D03*
Y00285500D02*
D03*
X00337000Y00634250D02*
D03*
D101*
X00865349Y00509411D02*
D03*
Y00522111D02*
D03*
Y00496711D02*
D03*
X00954249Y00534811D02*
D03*
X00941549Y00522111D02*
D03*
Y00509411D02*
D03*
Y00496711D02*
D03*
Y00484011D02*
D03*
Y00471311D02*
D03*
Y00458611D02*
D03*
Y00445911D02*
D03*
Y00433211D02*
D03*
Y00420511D02*
D03*
Y00407811D02*
D03*
X00928849Y00534811D02*
D03*
Y00522111D02*
D03*
Y00509411D02*
D03*
Y00496711D02*
D03*
Y00484011D02*
D03*
Y00458611D02*
D03*
Y00445911D02*
D03*
Y00433211D02*
D03*
Y00420511D02*
D03*
Y00407811D02*
D03*
Y00395111D02*
D03*
X00916149Y00534811D02*
D03*
Y00522111D02*
D03*
Y00509411D02*
D03*
Y00496711D02*
D03*
Y00484011D02*
D03*
Y00471311D02*
D03*
Y00445911D02*
D03*
Y00433211D02*
D03*
Y00420511D02*
D03*
Y00407811D02*
D03*
Y00395111D02*
D03*
X00903449Y00534811D02*
D03*
Y00522111D02*
D03*
Y00509411D02*
D03*
Y00496711D02*
D03*
X00890749Y00534811D02*
D03*
Y00509411D02*
D03*
Y00496711D02*
D03*
Y00484011D02*
D03*
Y00471311D02*
D03*
Y00458611D02*
D03*
Y00395111D02*
D03*
X00878049Y00509411D02*
D03*
Y00496711D02*
D03*
Y00471311D02*
D03*
Y00445911D02*
D03*
Y00433211D02*
D03*
Y00420511D02*
D03*
Y00407811D02*
D03*
Y00395111D02*
D03*
X00865349Y00534811D02*
D03*
Y00484011D02*
D03*
Y00471311D02*
D03*
Y00458611D02*
D03*
Y00420511D02*
D03*
Y00407811D02*
D03*
X00954249D02*
D03*
Y00420511D02*
D03*
Y00433211D02*
D03*
Y00445911D02*
D03*
Y00471311D02*
D03*
Y00484011D02*
D03*
Y00496711D02*
D03*
Y00509411D02*
D03*
Y00522111D02*
D03*
X00903449Y00407811D02*
D03*
Y00395111D02*
D03*
Y00420511D02*
D03*
X00890749D02*
D03*
Y00407811D02*
D03*
X00878049Y00484011D02*
D03*
Y00458611D02*
D03*
X00865349Y00445911D02*
D03*
Y00433211D02*
D03*
X00890749Y00445911D02*
D03*
Y00433211D02*
D03*
X00903449Y00458611D02*
D03*
Y00445911D02*
D03*
X00890749Y00522111D02*
D03*
X00878049Y00534811D02*
D03*
Y00522111D02*
D03*
X00903449Y00484011D02*
D03*
Y00471311D02*
D03*
Y00433211D02*
D03*
D103*
X00594750Y00638000D02*
D03*
D105*
X00724000Y00273960D02*
D03*
X01104000D02*
D03*
Y00653960D02*
D03*
X00724000D02*
D03*
X00274000Y00654000D02*
D03*
X00654000D02*
D03*
Y00274000D02*
D03*
X00274000D02*
D03*
D108*
X00362400Y00608850D02*
D03*
Y00659650D02*
D03*
X00311600D02*
D03*
Y00608850D02*
D03*
D109*
X00569350Y00612600D02*
D03*
X00620150D02*
D03*
X00569350Y00663400D02*
D03*
X00620150D02*
D03*
D110*
X00657000Y00447600D02*
D03*
Y00575000D02*
D03*
M02*
