G04 Layer_Color=65535*
%FSAX44Y44*%
%MOMM*%
G71*
G01*
G75*
%ADD11C,0.1250*%
%ADD13C,0.3000*%
%ADD65C,0.1000*%
%ADD66C,0.2000*%
%ADD67C,0.3048*%
%ADD68C,0.2500*%
%ADD69C,0.1500*%
%ADD76C,0.2540*%
%ADD131C,0.1250*%
%ADD132R,0.5500X1.6000*%
G36*
X01078666Y00618185D02*
X01078629D01*
X01078518Y00618166D01*
X01078352Y00618129D01*
X01078148Y00618074D01*
X01077926Y00617981D01*
X01077685Y00617888D01*
X01077463Y00617740D01*
X01077259Y00617574D01*
X01077241Y00617555D01*
X01077185Y00617481D01*
X01077111Y00617370D01*
X01077037Y00617240D01*
X01076944Y00617055D01*
X01076870Y00616852D01*
X01076815Y00616629D01*
X01076796Y00616370D01*
Y00616333D01*
X01076815Y00616241D01*
X01076833Y00616111D01*
X01076870Y00615926D01*
X01076944Y00615722D01*
X01077037Y00615518D01*
X01077185Y00615296D01*
X01077370Y00615092D01*
X01077389Y00615074D01*
X01077481Y00615000D01*
X01077611Y00614926D01*
X01077777Y00614815D01*
X01078000Y00614722D01*
X01078277Y00614630D01*
X01078592Y00614574D01*
X01078944Y00614556D01*
X01079092D01*
X01079259Y00614574D01*
X01079481Y00614611D01*
X01079722Y00614685D01*
X01079962Y00614778D01*
X01080203Y00614907D01*
X01080425Y00615074D01*
X01080444Y00615092D01*
X01080518Y00615167D01*
X01080611Y00615278D01*
X01080703Y00615407D01*
X01080814Y00615592D01*
X01080888Y00615796D01*
X01080962Y00616018D01*
X01080981Y00616278D01*
Y00616296D01*
Y00616370D01*
Y00616463D01*
X01080962Y00616592D01*
X01080944Y00616759D01*
X01080907Y00616963D01*
X01080851Y00617166D01*
X01080796Y00617407D01*
X01082777Y00617148D01*
Y00617129D01*
Y00617111D01*
Y00617055D01*
Y00616981D01*
X01082795Y00616796D01*
X01082814Y00616574D01*
X01082870Y00616333D01*
X01082944Y00616074D01*
X01083055Y00615833D01*
X01083203Y00615611D01*
X01083221Y00615592D01*
X01083295Y00615518D01*
X01083388Y00615444D01*
X01083536Y00615333D01*
X01083703Y00615241D01*
X01083906Y00615148D01*
X01084147Y00615092D01*
X01084425Y00615074D01*
X01084536D01*
X01084647Y00615092D01*
X01084795Y00615130D01*
X01084962Y00615167D01*
X01085129Y00615241D01*
X01085314Y00615333D01*
X01085462Y00615463D01*
X01085480Y00615481D01*
X01085517Y00615537D01*
X01085592Y00615611D01*
X01085666Y00615741D01*
X01085721Y00615889D01*
X01085795Y00616055D01*
X01085832Y00616278D01*
X01085851Y00616500D01*
Y00616518D01*
Y00616611D01*
X01085832Y00616722D01*
X01085795Y00616870D01*
X01085740Y00617037D01*
X01085666Y00617222D01*
X01085555Y00617407D01*
X01085406Y00617574D01*
X01085388Y00617592D01*
X01085332Y00617648D01*
X01085221Y00617722D01*
X01085073Y00617814D01*
X01084906Y00617907D01*
X01084684Y00617981D01*
X01084425Y00618055D01*
X01084129Y00618111D01*
X01084499Y00620370D01*
X01084518D01*
X01084555Y00620351D01*
X01084610D01*
X01084703Y00620333D01*
X01084906Y00620277D01*
X01085184Y00620203D01*
X01085480Y00620092D01*
X01085795Y00619981D01*
X01086092Y00619833D01*
X01086369Y00619666D01*
X01086406Y00619647D01*
X01086480Y00619574D01*
X01086610Y00619462D01*
X01086777Y00619314D01*
X01086943Y00619129D01*
X01087128Y00618907D01*
X01087314Y00618629D01*
X01087480Y00618333D01*
Y00618314D01*
X01087499Y00618296D01*
X01087536Y00618185D01*
X01087610Y00618000D01*
X01087684Y00617777D01*
X01087758Y00617500D01*
X01087832Y00617166D01*
X01087869Y00616814D01*
X01087888Y00616426D01*
Y00616407D01*
Y00616352D01*
Y00616259D01*
X01087869Y00616129D01*
X01087850Y00615963D01*
X01087832Y00615796D01*
X01087795Y00615592D01*
X01087739Y00615389D01*
X01087610Y00614926D01*
X01087517Y00614685D01*
X01087388Y00614426D01*
X01087258Y00614185D01*
X01087110Y00613963D01*
X01086925Y00613722D01*
X01086721Y00613518D01*
X01086702Y00613500D01*
X01086684Y00613481D01*
X01086628Y00613426D01*
X01086554Y00613370D01*
X01086369Y00613222D01*
X01086110Y00613056D01*
X01085795Y00612889D01*
X01085425Y00612759D01*
X01085017Y00612648D01*
X01084814Y00612630D01*
X01084592Y00612611D01*
X01084518D01*
X01084425Y00612630D01*
X01084314Y00612648D01*
X01084166Y00612667D01*
X01083999Y00612704D01*
X01083814Y00612759D01*
X01083610Y00612833D01*
X01083407Y00612944D01*
X01083184Y00613056D01*
X01082962Y00613204D01*
X01082740Y00613389D01*
X01082518Y00613611D01*
X01082296Y00613852D01*
X01082092Y00614130D01*
X01081888Y00614463D01*
Y00614444D01*
X01081870Y00614407D01*
Y00614352D01*
X01081833Y00614278D01*
X01081777Y00614074D01*
X01081666Y00613833D01*
X01081518Y00613556D01*
X01081333Y00613259D01*
X01081092Y00612963D01*
X01080814Y00612704D01*
X01080777Y00612667D01*
X01080666Y00612593D01*
X01080499Y00612500D01*
X01080259Y00612370D01*
X01079981Y00612241D01*
X01079629Y00612148D01*
X01079259Y00612074D01*
X01078833Y00612037D01*
X01078666D01*
X01078555Y00612056D01*
X01078407Y00612074D01*
X01078240Y00612111D01*
X01078037Y00612148D01*
X01077833Y00612185D01*
X01077389Y00612333D01*
X01077148Y00612445D01*
X01076889Y00612556D01*
X01076648Y00612704D01*
X01076407Y00612870D01*
X01076167Y00613056D01*
X01075944Y00613278D01*
X01075926Y00613296D01*
X01075889Y00613333D01*
X01075833Y00613407D01*
X01075759Y00613500D01*
X01075667Y00613630D01*
X01075574Y00613759D01*
X01075463Y00613944D01*
X01075352Y00614130D01*
X01075241Y00614333D01*
X01075130Y00614574D01*
X01075037Y00614833D01*
X01074945Y00615092D01*
X01074870Y00615389D01*
X01074815Y00615685D01*
X01074778Y00616018D01*
X01074759Y00616352D01*
Y00616370D01*
Y00616426D01*
Y00616518D01*
X01074778Y00616648D01*
X01074796Y00616796D01*
X01074815Y00616963D01*
X01074852Y00617148D01*
X01074889Y00617370D01*
X01075000Y00617814D01*
X01075185Y00618296D01*
X01075296Y00618555D01*
X01075426Y00618777D01*
X01075592Y00619018D01*
X01075759Y00619240D01*
X01075778Y00619259D01*
X01075815Y00619296D01*
X01075870Y00619351D01*
X01075944Y00619425D01*
X01076037Y00619518D01*
X01076167Y00619610D01*
X01076296Y00619722D01*
X01076463Y00619833D01*
X01076648Y00619944D01*
X01076833Y00620073D01*
X01077278Y00620277D01*
X01077796Y00620444D01*
X01078074Y00620518D01*
X01078370Y00620555D01*
X01078666Y00618185D01*
D02*
G37*
G36*
X00819406Y00634960D02*
X00816610D01*
X00812018Y00647774D01*
X00814814D01*
X00818073Y00638293D01*
X00821202Y00647774D01*
X00823961D01*
X00819406Y00634960D01*
D02*
G37*
G36*
X01087813Y00630369D02*
X01078333Y00627110D01*
X01087813Y00623980D01*
Y00621221D01*
X01075000Y00625776D01*
Y00628573D01*
X01087813Y00633165D01*
Y00630369D01*
D02*
G37*
G36*
X01009225Y00316704D02*
X01009299Y00316694D01*
X01009382Y00316676D01*
X01009484Y00316658D01*
X01009585Y00316639D01*
X01009807Y00316565D01*
X01009928Y00316509D01*
X01010057Y00316454D01*
X01010177Y00316380D01*
X01010297Y00316297D01*
X01010417Y00316204D01*
X01010528Y00316094D01*
X01010538Y00316084D01*
X01010556Y00316066D01*
X01010584Y00316029D01*
X01010621Y00315982D01*
X01010667Y00315918D01*
X01010713Y00315853D01*
X01010769Y00315761D01*
X01010824Y00315668D01*
X01010880Y00315567D01*
X01010935Y00315446D01*
X01010982Y00315317D01*
X01011028Y00315187D01*
X01011065Y00315040D01*
X01011092Y00314891D01*
X01011111Y00314725D01*
X01011120Y00314559D01*
Y00314550D01*
Y00314522D01*
Y00314475D01*
X01011111Y00314411D01*
X01011102Y00314337D01*
X01011092Y00314254D01*
X01011074Y00314161D01*
X01011056Y00314050D01*
X01011000Y00313828D01*
X01010908Y00313588D01*
X01010852Y00313458D01*
X01010787Y00313347D01*
X01010704Y00313227D01*
X01010621Y00313116D01*
X01010612Y00313107D01*
X01010593Y00313089D01*
X01010565Y00313061D01*
X01010528Y00313024D01*
X01010482Y00312978D01*
X01010417Y00312931D01*
X01010353Y00312876D01*
X01010270Y00312820D01*
X01010177Y00312765D01*
X01010085Y00312700D01*
X01009863Y00312599D01*
X01009604Y00312515D01*
X01009465Y00312478D01*
X01009317Y00312460D01*
X01009169Y00313643D01*
X01009188D01*
X01009243Y00313653D01*
X01009326Y00313671D01*
X01009428Y00313699D01*
X01009539Y00313745D01*
X01009659Y00313791D01*
X01009770Y00313865D01*
X01009872Y00313948D01*
X01009881Y00313958D01*
X01009909Y00313995D01*
X01009946Y00314050D01*
X01009983Y00314115D01*
X01010029Y00314207D01*
X01010066Y00314309D01*
X01010094Y00314420D01*
X01010103Y00314550D01*
Y00314568D01*
X01010094Y00314614D01*
X01010085Y00314679D01*
X01010066Y00314771D01*
X01010029Y00314873D01*
X01009983Y00314975D01*
X01009909Y00315086D01*
X01009817Y00315187D01*
X01009807Y00315197D01*
X01009761Y00315234D01*
X01009696Y00315271D01*
X01009613Y00315326D01*
X01009502Y00315372D01*
X01009363Y00315418D01*
X01009206Y00315446D01*
X01009031Y00315455D01*
X01008957D01*
X01008874Y00315446D01*
X01008763Y00315428D01*
X01008642Y00315391D01*
X01008522Y00315345D01*
X01008402Y00315280D01*
X01008291Y00315197D01*
X01008282Y00315187D01*
X01008245Y00315150D01*
X01008199Y00315095D01*
X01008152Y00315030D01*
X01008097Y00314938D01*
X01008060Y00314836D01*
X01008023Y00314725D01*
X01008014Y00314596D01*
Y00314586D01*
Y00314550D01*
Y00314503D01*
X01008023Y00314438D01*
X01008032Y00314355D01*
X01008051Y00314254D01*
X01008078Y00314152D01*
X01008106Y00314032D01*
X01007117Y00314161D01*
Y00314170D01*
Y00314180D01*
Y00314207D01*
Y00314244D01*
X01007108Y00314337D01*
X01007098Y00314448D01*
X01007071Y00314568D01*
X01007034Y00314697D01*
X01006978Y00314818D01*
X01006904Y00314928D01*
X01006895Y00314938D01*
X01006858Y00314975D01*
X01006812Y00315012D01*
X01006738Y00315067D01*
X01006655Y00315113D01*
X01006553Y00315160D01*
X01006433Y00315187D01*
X01006294Y00315197D01*
X01006238D01*
X01006183Y00315187D01*
X01006109Y00315169D01*
X01006026Y00315150D01*
X01005943Y00315113D01*
X01005850Y00315067D01*
X01005776Y00315002D01*
X01005767Y00314993D01*
X01005749Y00314965D01*
X01005712Y00314928D01*
X01005675Y00314864D01*
X01005647Y00314790D01*
X01005610Y00314707D01*
X01005591Y00314596D01*
X01005582Y00314485D01*
Y00314475D01*
Y00314429D01*
X01005591Y00314374D01*
X01005610Y00314300D01*
X01005638Y00314217D01*
X01005675Y00314124D01*
X01005730Y00314032D01*
X01005804Y00313948D01*
X01005813Y00313939D01*
X01005841Y00313911D01*
X01005896Y00313874D01*
X01005970Y00313828D01*
X01006054Y00313782D01*
X01006164Y00313745D01*
X01006294Y00313708D01*
X01006442Y00313680D01*
X01006257Y00312552D01*
X01006248D01*
X01006229Y00312562D01*
X01006201D01*
X01006155Y00312571D01*
X01006054Y00312599D01*
X01005915Y00312636D01*
X01005767Y00312691D01*
X01005610Y00312747D01*
X01005462Y00312820D01*
X01005323Y00312904D01*
X01005305Y00312913D01*
X01005268Y00312950D01*
X01005203Y00313005D01*
X01005120Y00313079D01*
X01005037Y00313172D01*
X01004944Y00313283D01*
X01004852Y00313421D01*
X01004769Y00313569D01*
Y00313579D01*
X01004759Y00313588D01*
X01004741Y00313643D01*
X01004704Y00313736D01*
X01004667Y00313847D01*
X01004630Y00313986D01*
X01004593Y00314152D01*
X01004574Y00314328D01*
X01004565Y00314522D01*
Y00314531D01*
Y00314559D01*
Y00314605D01*
X01004574Y00314670D01*
X01004584Y00314753D01*
X01004593Y00314836D01*
X01004611Y00314938D01*
X01004639Y00315040D01*
X01004704Y00315271D01*
X01004750Y00315391D01*
X01004815Y00315520D01*
X01004879Y00315640D01*
X01004953Y00315751D01*
X01005046Y00315872D01*
X01005147Y00315973D01*
X01005157Y00315982D01*
X01005166Y00315992D01*
X01005194Y00316019D01*
X01005231Y00316047D01*
X01005323Y00316121D01*
X01005453Y00316204D01*
X01005610Y00316288D01*
X01005795Y00316352D01*
X01005998Y00316408D01*
X01006100Y00316417D01*
X01006211Y00316426D01*
X01006248D01*
X01006294Y00316417D01*
X01006349Y00316408D01*
X01006423Y00316399D01*
X01006507Y00316380D01*
X01006599Y00316352D01*
X01006701Y00316315D01*
X01006803Y00316260D01*
X01006913Y00316204D01*
X01007024Y00316131D01*
X01007135Y00316038D01*
X01007246Y00315927D01*
X01007357Y00315807D01*
X01007459Y00315668D01*
X01007561Y00315502D01*
Y00315511D01*
X01007570Y00315529D01*
Y00315557D01*
X01007588Y00315594D01*
X01007616Y00315696D01*
X01007672Y00315816D01*
X01007746Y00315955D01*
X01007838Y00316103D01*
X01007958Y00316251D01*
X01008097Y00316380D01*
X01008115Y00316399D01*
X01008171Y00316436D01*
X01008254Y00316482D01*
X01008374Y00316546D01*
X01008513Y00316611D01*
X01008689Y00316658D01*
X01008874Y00316694D01*
X01009086Y00316713D01*
X01009169D01*
X01009225Y00316704D01*
D02*
G37*
G36*
X01078666Y00640090D02*
X01078629D01*
X01078518Y00640071D01*
X01078352Y00640034D01*
X01078148Y00639979D01*
X01077926Y00639886D01*
X01077685Y00639794D01*
X01077463Y00639646D01*
X01077259Y00639479D01*
X01077241Y00639460D01*
X01077185Y00639386D01*
X01077111Y00639275D01*
X01077037Y00639146D01*
X01076944Y00638960D01*
X01076870Y00638757D01*
X01076815Y00638535D01*
X01076796Y00638275D01*
Y00638238D01*
X01076815Y00638146D01*
X01076833Y00638016D01*
X01076870Y00637831D01*
X01076944Y00637627D01*
X01077037Y00637424D01*
X01077185Y00637201D01*
X01077370Y00636998D01*
X01077389Y00636979D01*
X01077481Y00636905D01*
X01077611Y00636831D01*
X01077777Y00636720D01*
X01078000Y00636627D01*
X01078277Y00636535D01*
X01078592Y00636479D01*
X01078944Y00636461D01*
X01079092D01*
X01079259Y00636479D01*
X01079481Y00636516D01*
X01079722Y00636590D01*
X01079962Y00636683D01*
X01080203Y00636812D01*
X01080425Y00636979D01*
X01080444Y00636998D01*
X01080518Y00637072D01*
X01080611Y00637183D01*
X01080703Y00637312D01*
X01080814Y00637497D01*
X01080888Y00637701D01*
X01080962Y00637923D01*
X01080981Y00638183D01*
Y00638201D01*
Y00638275D01*
Y00638368D01*
X01080962Y00638497D01*
X01080944Y00638664D01*
X01080907Y00638868D01*
X01080851Y00639071D01*
X01080796Y00639312D01*
X01082777Y00639053D01*
Y00639034D01*
Y00639016D01*
Y00638960D01*
Y00638886D01*
X01082795Y00638701D01*
X01082814Y00638479D01*
X01082870Y00638238D01*
X01082944Y00637979D01*
X01083055Y00637738D01*
X01083203Y00637516D01*
X01083221Y00637497D01*
X01083295Y00637424D01*
X01083388Y00637349D01*
X01083536Y00637238D01*
X01083703Y00637146D01*
X01083906Y00637053D01*
X01084147Y00636998D01*
X01084425Y00636979D01*
X01084536D01*
X01084647Y00636998D01*
X01084795Y00637035D01*
X01084962Y00637072D01*
X01085129Y00637146D01*
X01085314Y00637238D01*
X01085462Y00637368D01*
X01085480Y00637386D01*
X01085517Y00637442D01*
X01085592Y00637516D01*
X01085666Y00637646D01*
X01085721Y00637794D01*
X01085795Y00637960D01*
X01085832Y00638183D01*
X01085851Y00638405D01*
Y00638423D01*
Y00638516D01*
X01085832Y00638627D01*
X01085795Y00638775D01*
X01085740Y00638942D01*
X01085666Y00639127D01*
X01085555Y00639312D01*
X01085406Y00639479D01*
X01085388Y00639497D01*
X01085332Y00639553D01*
X01085221Y00639627D01*
X01085073Y00639720D01*
X01084906Y00639812D01*
X01084684Y00639886D01*
X01084425Y00639960D01*
X01084129Y00640016D01*
X01084499Y00642275D01*
X01084518D01*
X01084555Y00642256D01*
X01084610D01*
X01084703Y00642238D01*
X01084906Y00642182D01*
X01085184Y00642108D01*
X01085480Y00641997D01*
X01085795Y00641886D01*
X01086092Y00641738D01*
X01086369Y00641571D01*
X01086406Y00641553D01*
X01086480Y00641479D01*
X01086610Y00641367D01*
X01086777Y00641219D01*
X01086943Y00641034D01*
X01087128Y00640812D01*
X01087314Y00640534D01*
X01087480Y00640238D01*
Y00640219D01*
X01087499Y00640201D01*
X01087536Y00640090D01*
X01087610Y00639905D01*
X01087684Y00639683D01*
X01087758Y00639405D01*
X01087832Y00639071D01*
X01087869Y00638720D01*
X01087888Y00638331D01*
Y00638312D01*
Y00638257D01*
Y00638164D01*
X01087869Y00638035D01*
X01087850Y00637868D01*
X01087832Y00637701D01*
X01087795Y00637497D01*
X01087739Y00637294D01*
X01087610Y00636831D01*
X01087517Y00636590D01*
X01087388Y00636331D01*
X01087258Y00636090D01*
X01087110Y00635868D01*
X01086925Y00635627D01*
X01086721Y00635424D01*
X01086702Y00635405D01*
X01086684Y00635387D01*
X01086628Y00635331D01*
X01086554Y00635275D01*
X01086369Y00635127D01*
X01086110Y00634961D01*
X01085795Y00634794D01*
X01085425Y00634664D01*
X01085017Y00634553D01*
X01084814Y00634535D01*
X01084592Y00634516D01*
X01084518D01*
X01084425Y00634535D01*
X01084314Y00634553D01*
X01084166Y00634572D01*
X01083999Y00634609D01*
X01083814Y00634664D01*
X01083610Y00634739D01*
X01083407Y00634850D01*
X01083184Y00634961D01*
X01082962Y00635109D01*
X01082740Y00635294D01*
X01082518Y00635516D01*
X01082296Y00635757D01*
X01082092Y00636035D01*
X01081888Y00636368D01*
Y00636349D01*
X01081870Y00636312D01*
Y00636257D01*
X01081833Y00636183D01*
X01081777Y00635979D01*
X01081666Y00635738D01*
X01081518Y00635461D01*
X01081333Y00635164D01*
X01081092Y00634868D01*
X01080814Y00634609D01*
X01080777Y00634572D01*
X01080666Y00634498D01*
X01080499Y00634405D01*
X01080259Y00634276D01*
X01079981Y00634146D01*
X01079629Y00634053D01*
X01079259Y00633979D01*
X01078833Y00633942D01*
X01078666D01*
X01078555Y00633961D01*
X01078407Y00633979D01*
X01078240Y00634016D01*
X01078037Y00634053D01*
X01077833Y00634090D01*
X01077389Y00634239D01*
X01077148Y00634350D01*
X01076889Y00634461D01*
X01076648Y00634609D01*
X01076407Y00634776D01*
X01076167Y00634961D01*
X01075944Y00635183D01*
X01075926Y00635201D01*
X01075889Y00635238D01*
X01075833Y00635313D01*
X01075759Y00635405D01*
X01075667Y00635535D01*
X01075574Y00635664D01*
X01075463Y00635850D01*
X01075352Y00636035D01*
X01075241Y00636238D01*
X01075130Y00636479D01*
X01075037Y00636738D01*
X01074945Y00636998D01*
X01074870Y00637294D01*
X01074815Y00637590D01*
X01074778Y00637923D01*
X01074759Y00638257D01*
Y00638275D01*
Y00638331D01*
Y00638423D01*
X01074778Y00638553D01*
X01074796Y00638701D01*
X01074815Y00638868D01*
X01074852Y00639053D01*
X01074889Y00639275D01*
X01075000Y00639720D01*
X01075185Y00640201D01*
X01075296Y00640460D01*
X01075426Y00640682D01*
X01075592Y00640923D01*
X01075759Y00641145D01*
X01075778Y00641164D01*
X01075815Y00641201D01*
X01075870Y00641256D01*
X01075944Y00641330D01*
X01076037Y00641423D01*
X01076167Y00641516D01*
X01076296Y00641627D01*
X01076463Y00641738D01*
X01076648Y00641849D01*
X01076833Y00641979D01*
X01077278Y00642182D01*
X01077796Y00642349D01*
X01078074Y00642423D01*
X01078370Y00642460D01*
X01078666Y00640090D01*
D02*
G37*
G36*
X01019750Y00320790D02*
Y00319394D01*
X01013352Y00317101D01*
Y00318497D01*
X01018086Y00320125D01*
X01013352Y00321687D01*
Y00323065D01*
X01019750Y00320790D01*
D02*
G37*
G36*
X01017975Y00316704D02*
X01018049Y00316694D01*
X01018132Y00316676D01*
X01018234Y00316658D01*
X01018335Y00316639D01*
X01018557Y00316565D01*
X01018678Y00316509D01*
X01018807Y00316454D01*
X01018927Y00316380D01*
X01019047Y00316297D01*
X01019167Y00316204D01*
X01019278Y00316094D01*
X01019288Y00316084D01*
X01019306Y00316066D01*
X01019334Y00316029D01*
X01019371Y00315982D01*
X01019417Y00315918D01*
X01019463Y00315853D01*
X01019519Y00315761D01*
X01019574Y00315668D01*
X01019630Y00315567D01*
X01019685Y00315446D01*
X01019732Y00315317D01*
X01019778Y00315187D01*
X01019815Y00315040D01*
X01019842Y00314891D01*
X01019861Y00314725D01*
X01019870Y00314559D01*
Y00314550D01*
Y00314522D01*
Y00314475D01*
X01019861Y00314411D01*
X01019852Y00314337D01*
X01019842Y00314254D01*
X01019824Y00314161D01*
X01019806Y00314050D01*
X01019750Y00313828D01*
X01019658Y00313588D01*
X01019602Y00313458D01*
X01019537Y00313347D01*
X01019454Y00313227D01*
X01019371Y00313116D01*
X01019362Y00313107D01*
X01019343Y00313089D01*
X01019315Y00313061D01*
X01019278Y00313024D01*
X01019232Y00312978D01*
X01019167Y00312931D01*
X01019103Y00312876D01*
X01019020Y00312820D01*
X01018927Y00312765D01*
X01018835Y00312700D01*
X01018613Y00312599D01*
X01018354Y00312515D01*
X01018215Y00312478D01*
X01018067Y00312460D01*
X01017919Y00313643D01*
X01017938D01*
X01017993Y00313653D01*
X01018076Y00313671D01*
X01018178Y00313699D01*
X01018289Y00313745D01*
X01018409Y00313791D01*
X01018520Y00313865D01*
X01018622Y00313948D01*
X01018631Y00313958D01*
X01018659Y00313995D01*
X01018696Y00314050D01*
X01018733Y00314115D01*
X01018779Y00314207D01*
X01018816Y00314309D01*
X01018844Y00314420D01*
X01018853Y00314550D01*
Y00314568D01*
X01018844Y00314614D01*
X01018835Y00314679D01*
X01018816Y00314771D01*
X01018779Y00314873D01*
X01018733Y00314975D01*
X01018659Y00315086D01*
X01018567Y00315187D01*
X01018557Y00315197D01*
X01018511Y00315234D01*
X01018446Y00315271D01*
X01018363Y00315326D01*
X01018252Y00315372D01*
X01018113Y00315418D01*
X01017956Y00315446D01*
X01017781Y00315455D01*
X01017707D01*
X01017624Y00315446D01*
X01017513Y00315428D01*
X01017392Y00315391D01*
X01017272Y00315345D01*
X01017152Y00315280D01*
X01017041Y00315197D01*
X01017032Y00315187D01*
X01016995Y00315150D01*
X01016949Y00315095D01*
X01016902Y00315030D01*
X01016847Y00314938D01*
X01016810Y00314836D01*
X01016773Y00314725D01*
X01016764Y00314596D01*
Y00314586D01*
Y00314550D01*
Y00314503D01*
X01016773Y00314438D01*
X01016782Y00314355D01*
X01016801Y00314254D01*
X01016828Y00314152D01*
X01016856Y00314032D01*
X01015867Y00314161D01*
Y00314170D01*
Y00314180D01*
Y00314207D01*
Y00314244D01*
X01015858Y00314337D01*
X01015848Y00314448D01*
X01015821Y00314568D01*
X01015784Y00314697D01*
X01015728Y00314818D01*
X01015654Y00314928D01*
X01015645Y00314938D01*
X01015608Y00314975D01*
X01015562Y00315012D01*
X01015488Y00315067D01*
X01015405Y00315113D01*
X01015303Y00315160D01*
X01015183Y00315187D01*
X01015044Y00315197D01*
X01014988D01*
X01014933Y00315187D01*
X01014859Y00315169D01*
X01014776Y00315150D01*
X01014693Y00315113D01*
X01014600Y00315067D01*
X01014526Y00315002D01*
X01014517Y00314993D01*
X01014499Y00314965D01*
X01014462Y00314928D01*
X01014425Y00314864D01*
X01014397Y00314790D01*
X01014360Y00314707D01*
X01014341Y00314596D01*
X01014332Y00314485D01*
Y00314475D01*
Y00314429D01*
X01014341Y00314374D01*
X01014360Y00314300D01*
X01014388Y00314217D01*
X01014425Y00314124D01*
X01014480Y00314032D01*
X01014554Y00313948D01*
X01014563Y00313939D01*
X01014591Y00313911D01*
X01014646Y00313874D01*
X01014720Y00313828D01*
X01014804Y00313782D01*
X01014914Y00313745D01*
X01015044Y00313708D01*
X01015192Y00313680D01*
X01015007Y00312552D01*
X01014998D01*
X01014979Y00312562D01*
X01014951D01*
X01014905Y00312571D01*
X01014804Y00312599D01*
X01014665Y00312636D01*
X01014517Y00312691D01*
X01014360Y00312747D01*
X01014212Y00312820D01*
X01014073Y00312904D01*
X01014055Y00312913D01*
X01014018Y00312950D01*
X01013953Y00313005D01*
X01013870Y00313079D01*
X01013787Y00313172D01*
X01013694Y00313283D01*
X01013602Y00313421D01*
X01013518Y00313569D01*
Y00313579D01*
X01013509Y00313588D01*
X01013491Y00313643D01*
X01013454Y00313736D01*
X01013417Y00313847D01*
X01013380Y00313986D01*
X01013343Y00314152D01*
X01013324Y00314328D01*
X01013315Y00314522D01*
Y00314531D01*
Y00314559D01*
Y00314605D01*
X01013324Y00314670D01*
X01013334Y00314753D01*
X01013343Y00314836D01*
X01013361Y00314938D01*
X01013389Y00315040D01*
X01013454Y00315271D01*
X01013500Y00315391D01*
X01013565Y00315520D01*
X01013629Y00315640D01*
X01013703Y00315751D01*
X01013796Y00315872D01*
X01013897Y00315973D01*
X01013907Y00315982D01*
X01013916Y00315992D01*
X01013944Y00316019D01*
X01013981Y00316047D01*
X01014073Y00316121D01*
X01014203Y00316204D01*
X01014360Y00316288D01*
X01014545Y00316352D01*
X01014748Y00316408D01*
X01014850Y00316417D01*
X01014961Y00316426D01*
X01014998D01*
X01015044Y00316417D01*
X01015099Y00316408D01*
X01015173Y00316399D01*
X01015257Y00316380D01*
X01015349Y00316352D01*
X01015451Y00316315D01*
X01015553Y00316260D01*
X01015663Y00316204D01*
X01015774Y00316131D01*
X01015885Y00316038D01*
X01015996Y00315927D01*
X01016107Y00315807D01*
X01016209Y00315668D01*
X01016311Y00315502D01*
Y00315511D01*
X01016320Y00315529D01*
Y00315557D01*
X01016338Y00315594D01*
X01016366Y00315696D01*
X01016422Y00315816D01*
X01016496Y00315955D01*
X01016588Y00316103D01*
X01016708Y00316251D01*
X01016847Y00316380D01*
X01016865Y00316399D01*
X01016921Y00316436D01*
X01017004Y00316482D01*
X01017124Y00316546D01*
X01017263Y00316611D01*
X01017439Y00316658D01*
X01017624Y00316694D01*
X01017836Y00316713D01*
X01017919D01*
X01017975Y00316704D01*
D02*
G37*
G36*
X01016893Y00327586D02*
X01017041Y00327576D01*
X01017217Y00327558D01*
X01017402Y00327539D01*
X01017605Y00327521D01*
X01017818Y00327484D01*
X01018039Y00327438D01*
X01018252Y00327392D01*
X01018465Y00327327D01*
X01018678Y00327262D01*
X01018872Y00327170D01*
X01019057Y00327077D01*
X01019214Y00326966D01*
X01019223Y00326957D01*
X01019241Y00326939D01*
X01019278Y00326911D01*
X01019315Y00326874D01*
X01019362Y00326818D01*
X01019417Y00326754D01*
X01019482Y00326670D01*
X01019537Y00326587D01*
X01019602Y00326485D01*
X01019667Y00326384D01*
X01019722Y00326264D01*
X01019769Y00326134D01*
X01019806Y00325995D01*
X01019842Y00325838D01*
X01019861Y00325681D01*
X01019870Y00325515D01*
Y00325505D01*
Y00325478D01*
X01019861Y00325422D01*
Y00325358D01*
X01019852Y00325284D01*
X01019833Y00325191D01*
X01019815Y00325089D01*
X01019778Y00324978D01*
X01019741Y00324858D01*
X01019695Y00324738D01*
X01019639Y00324609D01*
X01019565Y00324488D01*
X01019491Y00324359D01*
X01019389Y00324239D01*
X01019288Y00324119D01*
X01019158Y00324008D01*
X01019149Y00323998D01*
X01019121Y00323980D01*
X01019075Y00323952D01*
X01019020Y00323924D01*
X01018936Y00323878D01*
X01018835Y00323832D01*
X01018705Y00323777D01*
X01018567Y00323730D01*
X01018400Y00323675D01*
X01018215Y00323619D01*
X01018003Y00323573D01*
X01017771Y00323536D01*
X01017513Y00323499D01*
X01017226Y00323471D01*
X01016921Y00323453D01*
X01016588Y00323444D01*
X01016412D01*
X01016292Y00323453D01*
X01016144Y00323462D01*
X01015968Y00323481D01*
X01015784Y00323499D01*
X01015580Y00323518D01*
X01015368Y00323555D01*
X01015155Y00323592D01*
X01014933Y00323647D01*
X01014720Y00323703D01*
X01014517Y00323777D01*
X01014323Y00323860D01*
X01014138Y00323952D01*
X01013981Y00324063D01*
X01013971Y00324072D01*
X01013953Y00324091D01*
X01013916Y00324119D01*
X01013879Y00324165D01*
X01013824Y00324211D01*
X01013768Y00324276D01*
X01013713Y00324359D01*
X01013648Y00324442D01*
X01013583Y00324544D01*
X01013528Y00324646D01*
X01013472Y00324766D01*
X01013417Y00324895D01*
X01013380Y00325034D01*
X01013343Y00325191D01*
X01013324Y00325348D01*
X01013315Y00325515D01*
Y00325524D01*
Y00325552D01*
Y00325607D01*
X01013324Y00325672D01*
X01013334Y00325746D01*
X01013352Y00325838D01*
X01013371Y00325931D01*
X01013398Y00326042D01*
X01013435Y00326162D01*
X01013482Y00326273D01*
X01013528Y00326393D01*
X01013592Y00326513D01*
X01013676Y00326633D01*
X01013759Y00326754D01*
X01013860Y00326865D01*
X01013981Y00326966D01*
X01013990Y00326976D01*
X01014018Y00326994D01*
X01014064Y00327022D01*
X01014129Y00327068D01*
X01014221Y00327114D01*
X01014332Y00327170D01*
X01014452Y00327225D01*
X01014609Y00327281D01*
X01014776Y00327336D01*
X01014970Y00327401D01*
X01015183Y00327447D01*
X01015423Y00327493D01*
X01015682Y00327539D01*
X01015959Y00327567D01*
X01016264Y00327586D01*
X01016597Y00327595D01*
X01016773D01*
X01016893Y00327586D01*
D02*
G37*
G36*
X00807351Y00647829D02*
X00807518Y00647811D01*
X00807703Y00647792D01*
X00807907Y00647755D01*
X00808129Y00647718D01*
X00808611Y00647588D01*
X00809092Y00647403D01*
X00809351Y00647292D01*
X00809573Y00647162D01*
X00809814Y00646996D01*
X00810018Y00646811D01*
X00810036Y00646792D01*
X00810073Y00646774D01*
X00810110Y00646700D01*
X00810184Y00646625D01*
X00810277Y00646533D01*
X00810370Y00646403D01*
X00810462Y00646274D01*
X00810573Y00646107D01*
X00810758Y00645737D01*
X00810944Y00645311D01*
X00811018Y00645070D01*
X00811055Y00644811D01*
X00811092Y00644533D01*
X00811110Y00644255D01*
Y00644218D01*
Y00644107D01*
X00811092Y00643941D01*
X00811073Y00643737D01*
X00811036Y00643478D01*
X00810981Y00643200D01*
X00810907Y00642904D01*
X00810796Y00642607D01*
X00810777Y00642570D01*
X00810740Y00642478D01*
X00810666Y00642311D01*
X00810555Y00642107D01*
X00810425Y00641867D01*
X00810258Y00641589D01*
X00810055Y00641293D01*
X00809814Y00640978D01*
X00809796Y00640959D01*
X00809722Y00640867D01*
X00809610Y00640737D01*
X00809444Y00640552D01*
X00809221Y00640330D01*
X00808944Y00640033D01*
X00808611Y00639719D01*
X00808203Y00639330D01*
X00808185Y00639311D01*
X00808148Y00639293D01*
X00808092Y00639237D01*
X00808018Y00639163D01*
X00807814Y00638978D01*
X00807574Y00638756D01*
X00807333Y00638515D01*
X00807092Y00638274D01*
X00806870Y00638071D01*
X00806796Y00637978D01*
X00806722Y00637904D01*
X00806703Y00637886D01*
X00806666Y00637849D01*
X00806611Y00637775D01*
X00806537Y00637682D01*
X00806370Y00637478D01*
X00806222Y00637238D01*
X00811110D01*
Y00634960D01*
X00802500D01*
Y00634978D01*
Y00635015D01*
X00802518Y00635090D01*
X00802537Y00635182D01*
X00802556Y00635293D01*
X00802574Y00635423D01*
X00802648Y00635756D01*
X00802759Y00636127D01*
X00802907Y00636534D01*
X00803093Y00636978D01*
X00803333Y00637404D01*
Y00637423D01*
X00803370Y00637460D01*
X00803407Y00637534D01*
X00803481Y00637608D01*
X00803556Y00637738D01*
X00803667Y00637867D01*
X00803796Y00638034D01*
X00803944Y00638219D01*
X00804111Y00638441D01*
X00804315Y00638663D01*
X00804537Y00638923D01*
X00804796Y00639200D01*
X00805074Y00639478D01*
X00805389Y00639793D01*
X00805722Y00640126D01*
X00806092Y00640478D01*
X00806111Y00640496D01*
X00806166Y00640552D01*
X00806240Y00640626D01*
X00806351Y00640737D01*
X00806500Y00640848D01*
X00806648Y00640996D01*
X00806981Y00641330D01*
X00807314Y00641682D01*
X00807648Y00642033D01*
X00807796Y00642181D01*
X00807944Y00642348D01*
X00808055Y00642478D01*
X00808129Y00642589D01*
X00808148Y00642626D01*
X00808203Y00642718D01*
X00808296Y00642867D01*
X00808388Y00643070D01*
X00808481Y00643292D01*
X00808574Y00643552D01*
X00808629Y00643811D01*
X00808648Y00644089D01*
Y00644107D01*
Y00644126D01*
Y00644218D01*
X00808629Y00644385D01*
X00808592Y00644570D01*
X00808536Y00644774D01*
X00808462Y00644977D01*
X00808351Y00645181D01*
X00808203Y00645366D01*
X00808185Y00645385D01*
X00808129Y00645440D01*
X00808018Y00645514D01*
X00807888Y00645589D01*
X00807703Y00645663D01*
X00807499Y00645737D01*
X00807259Y00645792D01*
X00806981Y00645811D01*
X00806851D01*
X00806703Y00645792D01*
X00806537Y00645755D01*
X00806333Y00645700D01*
X00806129Y00645607D01*
X00805926Y00645496D01*
X00805740Y00645348D01*
X00805722Y00645329D01*
X00805666Y00645255D01*
X00805592Y00645144D01*
X00805518Y00644977D01*
X00805426Y00644774D01*
X00805352Y00644496D01*
X00805277Y00644181D01*
X00805240Y00643811D01*
X00802796Y00644052D01*
Y00644070D01*
X00802815Y00644144D01*
Y00644237D01*
X00802852Y00644385D01*
X00802870Y00644552D01*
X00802926Y00644737D01*
X00802981Y00644940D01*
X00803037Y00645181D01*
X00803222Y00645644D01*
X00803444Y00646125D01*
X00803593Y00646366D01*
X00803759Y00646588D01*
X00803944Y00646774D01*
X00804148Y00646959D01*
X00804166Y00646977D01*
X00804203Y00646996D01*
X00804259Y00647033D01*
X00804352Y00647107D01*
X00804463Y00647162D01*
X00804611Y00647236D01*
X00804759Y00647329D01*
X00804944Y00647403D01*
X00805148Y00647496D01*
X00805370Y00647570D01*
X00805852Y00647718D01*
X00806425Y00647811D01*
X00806722Y00647829D01*
X00807037Y00647848D01*
X00807222D01*
X00807351Y00647829D01*
D02*
G37*
G36*
X00829182D02*
X00829331Y00647811D01*
X00829516Y00647774D01*
X00829701Y00647736D01*
X00829923Y00647681D01*
X00830164Y00647607D01*
X00830386Y00647514D01*
X00830627Y00647422D01*
X00830867Y00647292D01*
X00831108Y00647125D01*
X00831349Y00646959D01*
X00831571Y00646755D01*
X00831775Y00646514D01*
X00831793Y00646496D01*
X00831830Y00646440D01*
X00831886Y00646348D01*
X00831978Y00646218D01*
X00832071Y00646033D01*
X00832182Y00645811D01*
X00832293Y00645570D01*
X00832404Y00645255D01*
X00832515Y00644922D01*
X00832645Y00644533D01*
X00832738Y00644107D01*
X00832830Y00643626D01*
X00832923Y00643107D01*
X00832978Y00642552D01*
X00833015Y00641941D01*
X00833034Y00641274D01*
Y00641256D01*
Y00641237D01*
Y00641181D01*
Y00641107D01*
Y00640922D01*
X00833015Y00640682D01*
X00832997Y00640385D01*
X00832960Y00640033D01*
X00832923Y00639663D01*
X00832886Y00639256D01*
X00832812Y00638830D01*
X00832719Y00638386D01*
X00832626Y00637960D01*
X00832497Y00637534D01*
X00832367Y00637108D01*
X00832182Y00636719D01*
X00831997Y00636349D01*
X00831775Y00636034D01*
X00831756Y00636015D01*
X00831719Y00635978D01*
X00831664Y00635904D01*
X00831590Y00635830D01*
X00831479Y00635738D01*
X00831349Y00635627D01*
X00831182Y00635497D01*
X00831016Y00635386D01*
X00830812Y00635256D01*
X00830608Y00635127D01*
X00830368Y00635015D01*
X00830108Y00634923D01*
X00829830Y00634849D01*
X00829516Y00634775D01*
X00829201Y00634738D01*
X00828868Y00634719D01*
X00828794D01*
X00828682Y00634738D01*
X00828553D01*
X00828405Y00634756D01*
X00828220Y00634793D01*
X00828016Y00634830D01*
X00827794Y00634904D01*
X00827553Y00634978D01*
X00827312Y00635071D01*
X00827053Y00635182D01*
X00826812Y00635330D01*
X00826553Y00635478D01*
X00826312Y00635682D01*
X00826072Y00635886D01*
X00825850Y00636145D01*
X00825831Y00636163D01*
X00825794Y00636219D01*
X00825738Y00636312D01*
X00825683Y00636423D01*
X00825590Y00636589D01*
X00825498Y00636793D01*
X00825387Y00637052D01*
X00825294Y00637330D01*
X00825183Y00637663D01*
X00825072Y00638034D01*
X00824979Y00638460D01*
X00824905Y00638923D01*
X00824831Y00639441D01*
X00824775Y00640015D01*
X00824738Y00640626D01*
X00824720Y00641293D01*
Y00641311D01*
Y00641330D01*
Y00641385D01*
Y00641459D01*
Y00641645D01*
X00824738Y00641885D01*
X00824757Y00642181D01*
X00824794Y00642533D01*
X00824831Y00642904D01*
X00824868Y00643311D01*
X00824942Y00643737D01*
X00825016Y00644163D01*
X00825127Y00644607D01*
X00825238Y00645033D01*
X00825387Y00645440D01*
X00825553Y00645829D01*
X00825738Y00646199D01*
X00825961Y00646514D01*
X00825979Y00646533D01*
X00826016Y00646570D01*
X00826072Y00646644D01*
X00826164Y00646718D01*
X00826257Y00646829D01*
X00826386Y00646940D01*
X00826553Y00647051D01*
X00826720Y00647181D01*
X00826923Y00647310D01*
X00827127Y00647422D01*
X00827368Y00647533D01*
X00827627Y00647644D01*
X00827905Y00647718D01*
X00828220Y00647792D01*
X00828534Y00647829D01*
X00828868Y00647848D01*
X00829053D01*
X00829182Y00647829D01*
D02*
G37*
G36*
X00831684Y00341460D02*
X00828887D01*
X00824295Y00354273D01*
X00827091D01*
X00830350Y00344793D01*
X00833480Y00354273D01*
X00836239D01*
X00831684Y00341460D01*
D02*
G37*
G36*
X01025643Y00327697D02*
X01025791Y00327687D01*
X01025967Y00327669D01*
X01026152Y00327650D01*
X01026355Y00327632D01*
X01026568Y00327595D01*
X01026790Y00327549D01*
X01027002Y00327503D01*
X01027215Y00327438D01*
X01027428Y00327373D01*
X01027622Y00327281D01*
X01027807Y00327188D01*
X01027964Y00327077D01*
X01027973Y00327068D01*
X01027991Y00327049D01*
X01028028Y00327022D01*
X01028065Y00326985D01*
X01028112Y00326929D01*
X01028167Y00326865D01*
X01028232Y00326781D01*
X01028287Y00326698D01*
X01028352Y00326596D01*
X01028417Y00326495D01*
X01028472Y00326375D01*
X01028519Y00326245D01*
X01028556Y00326106D01*
X01028593Y00325949D01*
X01028611Y00325792D01*
X01028620Y00325626D01*
Y00325616D01*
Y00325589D01*
X01028611Y00325533D01*
Y00325468D01*
X01028602Y00325395D01*
X01028583Y00325302D01*
X01028565Y00325200D01*
X01028528Y00325089D01*
X01028491Y00324969D01*
X01028445Y00324849D01*
X01028389Y00324720D01*
X01028315Y00324599D01*
X01028241Y00324470D01*
X01028139Y00324350D01*
X01028038Y00324230D01*
X01027908Y00324119D01*
X01027899Y00324109D01*
X01027871Y00324091D01*
X01027825Y00324063D01*
X01027770Y00324035D01*
X01027686Y00323989D01*
X01027585Y00323943D01*
X01027455Y00323887D01*
X01027317Y00323841D01*
X01027150Y00323786D01*
X01026965Y00323730D01*
X01026753Y00323684D01*
X01026521Y00323647D01*
X01026263Y00323610D01*
X01025976Y00323582D01*
X01025671Y00323564D01*
X01025338Y00323555D01*
X01025162D01*
X01025042Y00323564D01*
X01024894Y00323573D01*
X01024718Y00323592D01*
X01024534Y00323610D01*
X01024330Y00323629D01*
X01024118Y00323666D01*
X01023905Y00323703D01*
X01023683Y00323758D01*
X01023470Y00323814D01*
X01023267Y00323887D01*
X01023073Y00323971D01*
X01022888Y00324063D01*
X01022731Y00324174D01*
X01022721Y00324183D01*
X01022703Y00324202D01*
X01022666Y00324230D01*
X01022629Y00324276D01*
X01022574Y00324322D01*
X01022518Y00324387D01*
X01022463Y00324470D01*
X01022398Y00324553D01*
X01022333Y00324655D01*
X01022278Y00324757D01*
X01022222Y00324877D01*
X01022167Y00325006D01*
X01022130Y00325145D01*
X01022093Y00325302D01*
X01022074Y00325459D01*
X01022065Y00325626D01*
Y00325635D01*
Y00325663D01*
Y00325718D01*
X01022074Y00325783D01*
X01022084Y00325857D01*
X01022102Y00325949D01*
X01022121Y00326042D01*
X01022148Y00326153D01*
X01022185Y00326273D01*
X01022232Y00326384D01*
X01022278Y00326504D01*
X01022342Y00326624D01*
X01022426Y00326744D01*
X01022509Y00326865D01*
X01022611Y00326976D01*
X01022731Y00327077D01*
X01022740Y00327086D01*
X01022768Y00327105D01*
X01022814Y00327133D01*
X01022879Y00327179D01*
X01022971Y00327225D01*
X01023082Y00327281D01*
X01023202Y00327336D01*
X01023359Y00327392D01*
X01023526Y00327447D01*
X01023720Y00327512D01*
X01023933Y00327558D01*
X01024173Y00327604D01*
X01024432Y00327650D01*
X01024709Y00327678D01*
X01025014Y00327697D01*
X01025347Y00327706D01*
X01025523D01*
X01025643Y00327697D01*
D02*
G37*
G36*
X00819426Y00354329D02*
X00819592Y00354310D01*
X00819759Y00354292D01*
X00819962Y00354255D01*
X00820166Y00354199D01*
X00820629Y00354070D01*
X00820870Y00353977D01*
X00821129Y00353848D01*
X00821370Y00353718D01*
X00821592Y00353570D01*
X00821833Y00353385D01*
X00822036Y00353181D01*
X00822055Y00353162D01*
X00822073Y00353144D01*
X00822129Y00353088D01*
X00822185Y00353014D01*
X00822333Y00352829D01*
X00822499Y00352570D01*
X00822666Y00352255D01*
X00822795Y00351885D01*
X00822907Y00351478D01*
X00822925Y00351274D01*
X00822944Y00351052D01*
Y00351033D01*
Y00350978D01*
X00822925Y00350885D01*
X00822907Y00350774D01*
X00822888Y00350626D01*
X00822851Y00350459D01*
X00822795Y00350274D01*
X00822721Y00350070D01*
X00822610Y00349866D01*
X00822499Y00349644D01*
X00822351Y00349422D01*
X00822166Y00349200D01*
X00821944Y00348978D01*
X00821703Y00348755D01*
X00821425Y00348552D01*
X00821092Y00348348D01*
X00821111D01*
X00821148Y00348330D01*
X00821203D01*
X00821277Y00348293D01*
X00821481Y00348237D01*
X00821721Y00348126D01*
X00821999Y00347978D01*
X00822296Y00347793D01*
X00822592Y00347552D01*
X00822851Y00347274D01*
X00822888Y00347237D01*
X00822962Y00347126D01*
X00823055Y00346959D01*
X00823184Y00346719D01*
X00823314Y00346441D01*
X00823407Y00346089D01*
X00823481Y00345719D01*
X00823518Y00345293D01*
Y00345274D01*
Y00345219D01*
Y00345126D01*
X00823499Y00345015D01*
X00823481Y00344867D01*
X00823444Y00344700D01*
X00823407Y00344497D01*
X00823370Y00344293D01*
X00823221Y00343849D01*
X00823110Y00343608D01*
X00822999Y00343349D01*
X00822851Y00343108D01*
X00822684Y00342867D01*
X00822499Y00342626D01*
X00822277Y00342404D01*
X00822259Y00342386D01*
X00822222Y00342349D01*
X00822147Y00342293D01*
X00822055Y00342219D01*
X00821925Y00342127D01*
X00821796Y00342034D01*
X00821610Y00341923D01*
X00821425Y00341812D01*
X00821222Y00341701D01*
X00820981Y00341590D01*
X00820722Y00341497D01*
X00820462Y00341404D01*
X00820166Y00341330D01*
X00819870Y00341275D01*
X00819537Y00341238D01*
X00819203Y00341219D01*
X00819037D01*
X00818907Y00341238D01*
X00818759Y00341256D01*
X00818592Y00341275D01*
X00818407Y00341312D01*
X00818185Y00341349D01*
X00817740Y00341460D01*
X00817259Y00341645D01*
X00817000Y00341756D01*
X00816778Y00341886D01*
X00816537Y00342052D01*
X00816315Y00342219D01*
X00816296Y00342238D01*
X00816259Y00342275D01*
X00816204Y00342330D01*
X00816130Y00342404D01*
X00816037Y00342497D01*
X00815944Y00342626D01*
X00815833Y00342756D01*
X00815722Y00342923D01*
X00815611Y00343108D01*
X00815481Y00343293D01*
X00815278Y00343737D01*
X00815111Y00344256D01*
X00815037Y00344534D01*
X00815000Y00344830D01*
X00817370Y00345126D01*
Y00345108D01*
Y00345089D01*
X00817389Y00344978D01*
X00817426Y00344812D01*
X00817481Y00344608D01*
X00817574Y00344386D01*
X00817666Y00344145D01*
X00817814Y00343923D01*
X00817981Y00343719D01*
X00818000Y00343700D01*
X00818074Y00343645D01*
X00818185Y00343571D01*
X00818315Y00343497D01*
X00818500Y00343404D01*
X00818703Y00343330D01*
X00818925Y00343275D01*
X00819185Y00343256D01*
X00819222D01*
X00819314Y00343275D01*
X00819444Y00343293D01*
X00819629Y00343330D01*
X00819833Y00343404D01*
X00820036Y00343497D01*
X00820259Y00343645D01*
X00820462Y00343830D01*
X00820481Y00343849D01*
X00820555Y00343941D01*
X00820629Y00344071D01*
X00820740Y00344238D01*
X00820833Y00344460D01*
X00820925Y00344737D01*
X00820981Y00345052D01*
X00820999Y00345404D01*
Y00345423D01*
Y00345441D01*
Y00345552D01*
X00820981Y00345719D01*
X00820944Y00345941D01*
X00820870Y00346182D01*
X00820777Y00346422D01*
X00820648Y00346663D01*
X00820481Y00346885D01*
X00820462Y00346904D01*
X00820388Y00346978D01*
X00820277Y00347071D01*
X00820148Y00347163D01*
X00819962Y00347274D01*
X00819759Y00347348D01*
X00819537Y00347422D01*
X00819277Y00347441D01*
X00819092D01*
X00818963Y00347422D01*
X00818796Y00347404D01*
X00818592Y00347367D01*
X00818389Y00347311D01*
X00818148Y00347256D01*
X00818407Y00349237D01*
X00818574D01*
X00818759Y00349255D01*
X00818981Y00349274D01*
X00819222Y00349329D01*
X00819481Y00349404D01*
X00819722Y00349515D01*
X00819944Y00349663D01*
X00819962Y00349681D01*
X00820036Y00349755D01*
X00820111Y00349848D01*
X00820222Y00349996D01*
X00820314Y00350163D01*
X00820407Y00350367D01*
X00820462Y00350607D01*
X00820481Y00350885D01*
Y00350922D01*
Y00350996D01*
X00820462Y00351107D01*
X00820425Y00351255D01*
X00820388Y00351422D01*
X00820314Y00351589D01*
X00820222Y00351774D01*
X00820092Y00351922D01*
X00820074Y00351940D01*
X00820018Y00351977D01*
X00819944Y00352052D01*
X00819814Y00352126D01*
X00819666Y00352181D01*
X00819500Y00352255D01*
X00819277Y00352292D01*
X00819055Y00352311D01*
X00818944D01*
X00818833Y00352292D01*
X00818685Y00352255D01*
X00818518Y00352200D01*
X00818333Y00352126D01*
X00818148Y00352014D01*
X00817981Y00351866D01*
X00817963Y00351848D01*
X00817907Y00351792D01*
X00817833Y00351681D01*
X00817740Y00351533D01*
X00817648Y00351366D01*
X00817574Y00351144D01*
X00817500Y00350885D01*
X00817444Y00350589D01*
X00815185Y00350959D01*
Y00350978D01*
X00815204Y00351015D01*
Y00351070D01*
X00815222Y00351163D01*
X00815278Y00351366D01*
X00815352Y00351644D01*
X00815463Y00351940D01*
X00815574Y00352255D01*
X00815722Y00352551D01*
X00815889Y00352829D01*
X00815907Y00352866D01*
X00815981Y00352940D01*
X00816093Y00353070D01*
X00816241Y00353237D01*
X00816426Y00353403D01*
X00816648Y00353588D01*
X00816926Y00353773D01*
X00817222Y00353940D01*
X00817241D01*
X00817259Y00353959D01*
X00817370Y00353996D01*
X00817555Y00354070D01*
X00817777Y00354144D01*
X00818055Y00354218D01*
X00818389Y00354292D01*
X00818740Y00354329D01*
X00819129Y00354347D01*
X00819296D01*
X00819426Y00354329D01*
D02*
G37*
G36*
X00841460D02*
X00841608Y00354310D01*
X00841794Y00354273D01*
X00841979Y00354236D01*
X00842201Y00354181D01*
X00842442Y00354107D01*
X00842664Y00354014D01*
X00842905Y00353922D01*
X00843145Y00353792D01*
X00843386Y00353625D01*
X00843627Y00353459D01*
X00843849Y00353255D01*
X00844053Y00353014D01*
X00844071Y00352996D01*
X00844108Y00352940D01*
X00844164Y00352848D01*
X00844256Y00352718D01*
X00844349Y00352533D01*
X00844460Y00352311D01*
X00844571Y00352070D01*
X00844682Y00351755D01*
X00844793Y00351422D01*
X00844923Y00351033D01*
X00845015Y00350607D01*
X00845108Y00350126D01*
X00845201Y00349607D01*
X00845256Y00349052D01*
X00845293Y00348441D01*
X00845312Y00347774D01*
Y00347756D01*
Y00347737D01*
Y00347682D01*
Y00347607D01*
Y00347422D01*
X00845293Y00347182D01*
X00845275Y00346885D01*
X00845238Y00346534D01*
X00845201Y00346163D01*
X00845164Y00345756D01*
X00845089Y00345330D01*
X00844997Y00344885D01*
X00844904Y00344460D01*
X00844775Y00344034D01*
X00844645Y00343608D01*
X00844460Y00343219D01*
X00844275Y00342849D01*
X00844053Y00342534D01*
X00844034Y00342515D01*
X00843997Y00342478D01*
X00843941Y00342404D01*
X00843867Y00342330D01*
X00843756Y00342238D01*
X00843627Y00342127D01*
X00843460Y00341997D01*
X00843293Y00341886D01*
X00843090Y00341756D01*
X00842886Y00341627D01*
X00842645Y00341516D01*
X00842386Y00341423D01*
X00842108Y00341349D01*
X00841794Y00341275D01*
X00841479Y00341238D01*
X00841145Y00341219D01*
X00841071D01*
X00840960Y00341238D01*
X00840831D01*
X00840683Y00341256D01*
X00840497Y00341293D01*
X00840294Y00341330D01*
X00840071Y00341404D01*
X00839831Y00341479D01*
X00839590Y00341571D01*
X00839331Y00341682D01*
X00839090Y00341830D01*
X00838831Y00341978D01*
X00838590Y00342182D01*
X00838350Y00342386D01*
X00838127Y00342645D01*
X00838109Y00342664D01*
X00838072Y00342719D01*
X00838016Y00342812D01*
X00837961Y00342923D01*
X00837868Y00343089D01*
X00837775Y00343293D01*
X00837664Y00343552D01*
X00837572Y00343830D01*
X00837461Y00344163D01*
X00837350Y00344534D01*
X00837257Y00344960D01*
X00837183Y00345423D01*
X00837109Y00345941D01*
X00837053Y00346515D01*
X00837016Y00347126D01*
X00836998Y00347793D01*
Y00347811D01*
Y00347830D01*
Y00347885D01*
Y00347959D01*
Y00348144D01*
X00837016Y00348385D01*
X00837035Y00348681D01*
X00837072Y00349033D01*
X00837109Y00349404D01*
X00837146Y00349811D01*
X00837220Y00350237D01*
X00837294Y00350663D01*
X00837405Y00351107D01*
X00837516Y00351533D01*
X00837664Y00351940D01*
X00837831Y00352329D01*
X00838016Y00352700D01*
X00838238Y00353014D01*
X00838257Y00353033D01*
X00838294Y00353070D01*
X00838350Y00353144D01*
X00838442Y00353218D01*
X00838535Y00353329D01*
X00838664Y00353440D01*
X00838831Y00353551D01*
X00838997Y00353681D01*
X00839201Y00353811D01*
X00839405Y00353922D01*
X00839646Y00354033D01*
X00839905Y00354144D01*
X00840183Y00354218D01*
X00840497Y00354292D01*
X00840812Y00354329D01*
X00841145Y00354347D01*
X00841331D01*
X00841460Y00354329D01*
D02*
G37*
G36*
X01011000Y00320790D02*
Y00319394D01*
X01004602Y00317101D01*
Y00318497D01*
X01009336Y00320125D01*
X01004602Y00321687D01*
Y00323065D01*
X01011000Y00320790D01*
D02*
G37*
G36*
X01009225Y00327641D02*
X01009299Y00327632D01*
X01009382Y00327613D01*
X01009484Y00327595D01*
X01009585Y00327576D01*
X01009807Y00327503D01*
X01009928Y00327447D01*
X01010057Y00327392D01*
X01010177Y00327318D01*
X01010297Y00327234D01*
X01010417Y00327142D01*
X01010528Y00327031D01*
X01010538Y00327022D01*
X01010556Y00327003D01*
X01010584Y00326966D01*
X01010621Y00326920D01*
X01010667Y00326855D01*
X01010713Y00326791D01*
X01010769Y00326698D01*
X01010824Y00326606D01*
X01010880Y00326504D01*
X01010935Y00326384D01*
X01010982Y00326254D01*
X01011028Y00326125D01*
X01011065Y00325977D01*
X01011092Y00325829D01*
X01011111Y00325663D01*
X01011120Y00325496D01*
Y00325487D01*
Y00325459D01*
Y00325413D01*
X01011111Y00325348D01*
X01011102Y00325274D01*
X01011092Y00325191D01*
X01011074Y00325099D01*
X01011056Y00324988D01*
X01011000Y00324766D01*
X01010908Y00324525D01*
X01010852Y00324396D01*
X01010787Y00324285D01*
X01010704Y00324165D01*
X01010621Y00324054D01*
X01010612Y00324045D01*
X01010593Y00324026D01*
X01010565Y00323998D01*
X01010528Y00323961D01*
X01010482Y00323915D01*
X01010417Y00323869D01*
X01010353Y00323814D01*
X01010270Y00323758D01*
X01010177Y00323703D01*
X01010085Y00323638D01*
X01009863Y00323536D01*
X01009604Y00323453D01*
X01009465Y00323416D01*
X01009317Y00323397D01*
X01009169Y00324581D01*
X01009188D01*
X01009243Y00324590D01*
X01009326Y00324609D01*
X01009428Y00324636D01*
X01009539Y00324683D01*
X01009659Y00324729D01*
X01009770Y00324803D01*
X01009872Y00324886D01*
X01009881Y00324895D01*
X01009909Y00324932D01*
X01009946Y00324988D01*
X01009983Y00325052D01*
X01010029Y00325145D01*
X01010066Y00325247D01*
X01010094Y00325358D01*
X01010103Y00325487D01*
Y00325505D01*
X01010094Y00325552D01*
X01010085Y00325616D01*
X01010066Y00325709D01*
X01010029Y00325811D01*
X01009983Y00325912D01*
X01009909Y00326023D01*
X01009817Y00326125D01*
X01009807Y00326134D01*
X01009761Y00326171D01*
X01009696Y00326208D01*
X01009613Y00326264D01*
X01009502Y00326310D01*
X01009363Y00326356D01*
X01009206Y00326384D01*
X01009031Y00326393D01*
X01008957D01*
X01008874Y00326384D01*
X01008763Y00326365D01*
X01008642Y00326328D01*
X01008522Y00326282D01*
X01008402Y00326217D01*
X01008291Y00326134D01*
X01008282Y00326125D01*
X01008245Y00326088D01*
X01008199Y00326032D01*
X01008152Y00325968D01*
X01008097Y00325875D01*
X01008060Y00325774D01*
X01008023Y00325663D01*
X01008014Y00325533D01*
Y00325524D01*
Y00325487D01*
Y00325441D01*
X01008023Y00325376D01*
X01008032Y00325293D01*
X01008051Y00325191D01*
X01008078Y00325089D01*
X01008106Y00324969D01*
X01007117Y00325099D01*
Y00325108D01*
Y00325117D01*
Y00325145D01*
Y00325182D01*
X01007108Y00325274D01*
X01007098Y00325385D01*
X01007071Y00325505D01*
X01007034Y00325635D01*
X01006978Y00325755D01*
X01006904Y00325866D01*
X01006895Y00325875D01*
X01006858Y00325912D01*
X01006812Y00325949D01*
X01006738Y00326005D01*
X01006655Y00326051D01*
X01006553Y00326097D01*
X01006433Y00326125D01*
X01006294Y00326134D01*
X01006238D01*
X01006183Y00326125D01*
X01006109Y00326106D01*
X01006026Y00326088D01*
X01005943Y00326051D01*
X01005850Y00326005D01*
X01005776Y00325940D01*
X01005767Y00325931D01*
X01005749Y00325903D01*
X01005712Y00325866D01*
X01005675Y00325801D01*
X01005647Y00325727D01*
X01005610Y00325644D01*
X01005591Y00325533D01*
X01005582Y00325422D01*
Y00325413D01*
Y00325367D01*
X01005591Y00325311D01*
X01005610Y00325237D01*
X01005638Y00325154D01*
X01005675Y00325062D01*
X01005730Y00324969D01*
X01005804Y00324886D01*
X01005813Y00324877D01*
X01005841Y00324849D01*
X01005896Y00324812D01*
X01005970Y00324766D01*
X01006054Y00324720D01*
X01006164Y00324683D01*
X01006294Y00324646D01*
X01006442Y00324618D01*
X01006257Y00323490D01*
X01006248D01*
X01006229Y00323499D01*
X01006201D01*
X01006155Y00323508D01*
X01006054Y00323536D01*
X01005915Y00323573D01*
X01005767Y00323629D01*
X01005610Y00323684D01*
X01005462Y00323758D01*
X01005323Y00323841D01*
X01005305Y00323851D01*
X01005268Y00323887D01*
X01005203Y00323943D01*
X01005120Y00324017D01*
X01005037Y00324109D01*
X01004944Y00324220D01*
X01004852Y00324359D01*
X01004769Y00324507D01*
Y00324516D01*
X01004759Y00324525D01*
X01004741Y00324581D01*
X01004704Y00324673D01*
X01004667Y00324784D01*
X01004630Y00324923D01*
X01004593Y00325089D01*
X01004574Y00325265D01*
X01004565Y00325459D01*
Y00325468D01*
Y00325496D01*
Y00325542D01*
X01004574Y00325607D01*
X01004584Y00325690D01*
X01004593Y00325774D01*
X01004611Y00325875D01*
X01004639Y00325977D01*
X01004704Y00326208D01*
X01004750Y00326328D01*
X01004815Y00326458D01*
X01004879Y00326578D01*
X01004953Y00326689D01*
X01005046Y00326809D01*
X01005147Y00326911D01*
X01005157Y00326920D01*
X01005166Y00326929D01*
X01005194Y00326957D01*
X01005231Y00326985D01*
X01005323Y00327059D01*
X01005453Y00327142D01*
X01005610Y00327225D01*
X01005795Y00327290D01*
X01005998Y00327345D01*
X01006100Y00327355D01*
X01006211Y00327364D01*
X01006248D01*
X01006294Y00327355D01*
X01006349Y00327345D01*
X01006423Y00327336D01*
X01006507Y00327318D01*
X01006599Y00327290D01*
X01006701Y00327253D01*
X01006803Y00327197D01*
X01006913Y00327142D01*
X01007024Y00327068D01*
X01007135Y00326976D01*
X01007246Y00326865D01*
X01007357Y00326744D01*
X01007459Y00326606D01*
X01007561Y00326439D01*
Y00326449D01*
X01007570Y00326467D01*
Y00326495D01*
X01007588Y00326532D01*
X01007616Y00326633D01*
X01007672Y00326754D01*
X01007746Y00326892D01*
X01007838Y00327040D01*
X01007958Y00327188D01*
X01008097Y00327318D01*
X01008115Y00327336D01*
X01008171Y00327373D01*
X01008254Y00327419D01*
X01008374Y00327484D01*
X01008513Y00327549D01*
X01008689Y00327595D01*
X01008874Y00327632D01*
X01009086Y00327650D01*
X01009169D01*
X01009225Y00327641D01*
D02*
G37*
G36*
X01028500Y00320901D02*
Y00319505D01*
X01022102Y00317212D01*
Y00318608D01*
X01026836Y00320235D01*
X01022102Y00321798D01*
Y00323176D01*
X01028500Y00320901D01*
D02*
G37*
G36*
Y00312460D02*
X01028472D01*
X01028435Y00312469D01*
X01028389Y00312479D01*
X01028334Y00312488D01*
X01028269Y00312497D01*
X01028102Y00312534D01*
X01027917Y00312589D01*
X01027714Y00312663D01*
X01027492Y00312756D01*
X01027280Y00312876D01*
X01027270D01*
X01027252Y00312894D01*
X01027215Y00312913D01*
X01027178Y00312950D01*
X01027113Y00312987D01*
X01027048Y00313043D01*
X01026965Y00313107D01*
X01026873Y00313181D01*
X01026762Y00313264D01*
X01026651Y00313366D01*
X01026521Y00313477D01*
X01026383Y00313606D01*
X01026244Y00313745D01*
X01026087Y00313902D01*
X01025920Y00314069D01*
X01025745Y00314254D01*
X01025736Y00314263D01*
X01025708Y00314291D01*
X01025671Y00314328D01*
X01025615Y00314383D01*
X01025560Y00314457D01*
X01025486Y00314531D01*
X01025320Y00314697D01*
X01025144Y00314864D01*
X01024968Y00315030D01*
X01024894Y00315104D01*
X01024811Y00315178D01*
X01024746Y00315234D01*
X01024691Y00315271D01*
X01024672Y00315280D01*
X01024626Y00315308D01*
X01024552Y00315354D01*
X01024450Y00315400D01*
X01024340Y00315446D01*
X01024210Y00315492D01*
X01024081Y00315520D01*
X01023942Y00315529D01*
X01023877D01*
X01023794Y00315520D01*
X01023701Y00315502D01*
X01023600Y00315474D01*
X01023498Y00315437D01*
X01023396Y00315382D01*
X01023304Y00315308D01*
X01023295Y00315298D01*
X01023267Y00315271D01*
X01023230Y00315215D01*
X01023193Y00315150D01*
X01023156Y00315058D01*
X01023119Y00314956D01*
X01023091Y00314836D01*
X01023082Y00314697D01*
Y00314679D01*
Y00314633D01*
X01023091Y00314559D01*
X01023110Y00314475D01*
X01023138Y00314374D01*
X01023184Y00314272D01*
X01023239Y00314170D01*
X01023313Y00314078D01*
X01023323Y00314069D01*
X01023359Y00314041D01*
X01023415Y00314004D01*
X01023498Y00313967D01*
X01023600Y00313921D01*
X01023738Y00313884D01*
X01023896Y00313847D01*
X01024081Y00313828D01*
X01023960Y00312608D01*
X01023951D01*
X01023914Y00312617D01*
X01023868D01*
X01023794Y00312636D01*
X01023711Y00312645D01*
X01023618Y00312673D01*
X01023517Y00312700D01*
X01023396Y00312728D01*
X01023165Y00312821D01*
X01022925Y00312931D01*
X01022805Y00313006D01*
X01022694Y00313089D01*
X01022601Y00313181D01*
X01022509Y00313283D01*
X01022500Y00313292D01*
X01022490Y00313311D01*
X01022472Y00313338D01*
X01022435Y00313384D01*
X01022407Y00313440D01*
X01022370Y00313514D01*
X01022324Y00313588D01*
X01022287Y00313680D01*
X01022241Y00313782D01*
X01022204Y00313893D01*
X01022130Y00314133D01*
X01022084Y00314420D01*
X01022074Y00314568D01*
X01022065Y00314725D01*
Y00314734D01*
Y00314771D01*
Y00314818D01*
X01022074Y00314882D01*
X01022084Y00314965D01*
X01022093Y00315058D01*
X01022111Y00315160D01*
X01022130Y00315271D01*
X01022195Y00315511D01*
X01022287Y00315751D01*
X01022342Y00315881D01*
X01022407Y00315992D01*
X01022490Y00316112D01*
X01022583Y00316214D01*
X01022592Y00316223D01*
X01022601Y00316241D01*
X01022638Y00316260D01*
X01022675Y00316297D01*
X01022721Y00316343D01*
X01022786Y00316389D01*
X01022851Y00316436D01*
X01022934Y00316491D01*
X01023119Y00316583D01*
X01023332Y00316676D01*
X01023452Y00316713D01*
X01023581Y00316731D01*
X01023720Y00316750D01*
X01023859Y00316759D01*
X01023933D01*
X01024016Y00316750D01*
X01024118Y00316741D01*
X01024247Y00316722D01*
X01024386Y00316695D01*
X01024534Y00316658D01*
X01024682Y00316602D01*
X01024700Y00316593D01*
X01024746Y00316574D01*
X01024829Y00316537D01*
X01024931Y00316482D01*
X01025051Y00316417D01*
X01025190Y00316334D01*
X01025338Y00316232D01*
X01025495Y00316112D01*
X01025504Y00316103D01*
X01025551Y00316066D01*
X01025615Y00316010D01*
X01025708Y00315927D01*
X01025819Y00315816D01*
X01025967Y00315677D01*
X01026124Y00315511D01*
X01026318Y00315308D01*
X01026327Y00315298D01*
X01026337Y00315280D01*
X01026364Y00315252D01*
X01026401Y00315215D01*
X01026494Y00315114D01*
X01026605Y00314993D01*
X01026725Y00314873D01*
X01026845Y00314753D01*
X01026947Y00314642D01*
X01026993Y00314605D01*
X01027030Y00314568D01*
X01027039Y00314559D01*
X01027058Y00314540D01*
X01027095Y00314513D01*
X01027141Y00314475D01*
X01027243Y00314392D01*
X01027363Y00314318D01*
Y00316759D01*
X01028500D01*
Y00312460D01*
D02*
G37*
%LPC*%
G36*
X01016801Y00326301D02*
X01016320D01*
X01016218Y00326291D01*
X01016098D01*
X01015978Y00326282D01*
X01015719Y00326273D01*
X01015469Y00326254D01*
X01015349Y00326236D01*
X01015229Y00326217D01*
X01015127Y00326199D01*
X01015044Y00326180D01*
X01015035D01*
X01015025Y00326171D01*
X01014979Y00326162D01*
X01014905Y00326134D01*
X01014813Y00326106D01*
X01014720Y00326060D01*
X01014628Y00326014D01*
X01014545Y00325959D01*
X01014480Y00325903D01*
X01014471Y00325894D01*
X01014452Y00325875D01*
X01014434Y00325838D01*
X01014406Y00325792D01*
X01014378Y00325737D01*
X01014351Y00325672D01*
X01014341Y00325598D01*
X01014332Y00325515D01*
Y00325505D01*
Y00325478D01*
X01014341Y00325432D01*
X01014351Y00325385D01*
X01014369Y00325321D01*
X01014397Y00325256D01*
X01014434Y00325182D01*
X01014480Y00325117D01*
X01014489Y00325108D01*
X01014508Y00325089D01*
X01014545Y00325062D01*
X01014591Y00325025D01*
X01014665Y00324978D01*
X01014748Y00324941D01*
X01014859Y00324895D01*
X01014988Y00324858D01*
X01014998D01*
X01015007Y00324849D01*
X01015044D01*
X01015081Y00324840D01*
X01015136Y00324831D01*
X01015201Y00324821D01*
X01015275Y00324812D01*
X01015368Y00324803D01*
X01015479Y00324784D01*
X01015590Y00324775D01*
X01015728Y00324766D01*
X01015867Y00324757D01*
X01016033Y00324747D01*
X01016200D01*
X01016394Y00324738D01*
X01016875D01*
X01016976Y00324747D01*
X01017096D01*
X01017217Y00324757D01*
X01017476Y00324766D01*
X01017734Y00324784D01*
X01017855Y00324794D01*
X01017966Y00324812D01*
X01018067Y00324831D01*
X01018160Y00324849D01*
X01018178Y00324858D01*
X01018224Y00324868D01*
X01018298Y00324895D01*
X01018382Y00324923D01*
X01018474Y00324969D01*
X01018567Y00325015D01*
X01018650Y00325071D01*
X01018715Y00325126D01*
X01018724Y00325136D01*
X01018733Y00325154D01*
X01018761Y00325191D01*
X01018779Y00325237D01*
X01018807Y00325293D01*
X01018835Y00325358D01*
X01018844Y00325432D01*
X01018853Y00325515D01*
Y00325524D01*
Y00325552D01*
X01018844Y00325598D01*
X01018835Y00325644D01*
X01018816Y00325709D01*
X01018798Y00325774D01*
X01018761Y00325838D01*
X01018715Y00325903D01*
X01018705Y00325912D01*
X01018687Y00325931D01*
X01018650Y00325968D01*
X01018594Y00326005D01*
X01018530Y00326042D01*
X01018437Y00326088D01*
X01018335Y00326134D01*
X01018206Y00326171D01*
X01018197D01*
X01018187Y00326180D01*
X01018150D01*
X01018113Y00326190D01*
X01018058Y00326199D01*
X01017993Y00326208D01*
X01017919Y00326227D01*
X01017827Y00326236D01*
X01017725Y00326245D01*
X01017605Y00326264D01*
X01017476Y00326273D01*
X01017328Y00326282D01*
X01017170Y00326291D01*
X01016995D01*
X01016801Y00326301D01*
D02*
G37*
G36*
X00828868Y00645811D02*
X00828794D01*
X00828701Y00645792D01*
X00828608Y00645774D01*
X00828479Y00645737D01*
X00828349Y00645681D01*
X00828201Y00645607D01*
X00828071Y00645514D01*
X00828053Y00645496D01*
X00828016Y00645459D01*
X00827960Y00645385D01*
X00827886Y00645292D01*
X00827794Y00645144D01*
X00827720Y00644977D01*
X00827627Y00644755D01*
X00827553Y00644496D01*
Y00644477D01*
X00827534Y00644459D01*
Y00644385D01*
X00827516Y00644311D01*
X00827497Y00644200D01*
X00827479Y00644070D01*
X00827460Y00643922D01*
X00827442Y00643737D01*
X00827405Y00643515D01*
X00827386Y00643292D01*
X00827368Y00643015D01*
X00827349Y00642737D01*
X00827331Y00642404D01*
Y00642070D01*
X00827312Y00641682D01*
Y00641274D01*
Y00641256D01*
Y00641181D01*
Y00641052D01*
Y00640904D01*
Y00640719D01*
X00827331Y00640515D01*
Y00640274D01*
X00827349Y00640033D01*
X00827368Y00639515D01*
X00827405Y00638997D01*
X00827423Y00638756D01*
X00827460Y00638534D01*
X00827497Y00638330D01*
X00827534Y00638145D01*
X00827553Y00638108D01*
X00827571Y00638015D01*
X00827627Y00637867D01*
X00827683Y00637700D01*
X00827775Y00637515D01*
X00827868Y00637330D01*
X00827979Y00637163D01*
X00828090Y00637034D01*
X00828109Y00637015D01*
X00828146Y00636997D01*
X00828220Y00636941D01*
X00828312Y00636904D01*
X00828423Y00636849D01*
X00828553Y00636793D01*
X00828701Y00636775D01*
X00828868Y00636756D01*
X00828942D01*
X00829034Y00636775D01*
X00829127Y00636793D01*
X00829257Y00636830D01*
X00829386Y00636867D01*
X00829516Y00636941D01*
X00829645Y00637034D01*
X00829664Y00637052D01*
X00829701Y00637089D01*
X00829775Y00637163D01*
X00829849Y00637275D01*
X00829923Y00637404D01*
X00830016Y00637589D01*
X00830108Y00637793D01*
X00830182Y00638052D01*
Y00638071D01*
X00830201Y00638089D01*
Y00638163D01*
X00830219Y00638237D01*
X00830238Y00638349D01*
X00830256Y00638478D01*
X00830293Y00638626D01*
X00830312Y00638811D01*
X00830331Y00639015D01*
X00830368Y00639256D01*
X00830386Y00639515D01*
X00830405Y00639811D01*
X00830423Y00640126D01*
Y00640478D01*
X00830442Y00640867D01*
Y00641274D01*
Y00641293D01*
Y00641367D01*
Y00641496D01*
Y00641645D01*
Y00641830D01*
X00830423Y00642033D01*
Y00642274D01*
X00830405Y00642515D01*
X00830386Y00643033D01*
X00830349Y00643533D01*
X00830312Y00643774D01*
X00830275Y00644015D01*
X00830238Y00644218D01*
X00830201Y00644385D01*
Y00644403D01*
X00830182Y00644422D01*
X00830164Y00644514D01*
X00830108Y00644663D01*
X00830053Y00644848D01*
X00829960Y00645033D01*
X00829868Y00645218D01*
X00829756Y00645385D01*
X00829645Y00645514D01*
X00829627Y00645533D01*
X00829590Y00645570D01*
X00829516Y00645607D01*
X00829423Y00645663D01*
X00829312Y00645718D01*
X00829182Y00645774D01*
X00829034Y00645792D01*
X00828868Y00645811D01*
D02*
G37*
G36*
X01025551Y00326412D02*
X01025070D01*
X01024968Y00326402D01*
X01024848D01*
X01024728Y00326393D01*
X01024469Y00326384D01*
X01024219Y00326365D01*
X01024099Y00326347D01*
X01023979Y00326328D01*
X01023877Y00326310D01*
X01023794Y00326291D01*
X01023785D01*
X01023775Y00326282D01*
X01023729Y00326273D01*
X01023655Y00326245D01*
X01023563Y00326217D01*
X01023470Y00326171D01*
X01023378Y00326125D01*
X01023295Y00326069D01*
X01023230Y00326014D01*
X01023221Y00326005D01*
X01023202Y00325986D01*
X01023184Y00325949D01*
X01023156Y00325903D01*
X01023128Y00325848D01*
X01023101Y00325783D01*
X01023091Y00325709D01*
X01023082Y00325626D01*
Y00325616D01*
Y00325589D01*
X01023091Y00325542D01*
X01023101Y00325496D01*
X01023119Y00325432D01*
X01023147Y00325367D01*
X01023184Y00325293D01*
X01023230Y00325228D01*
X01023239Y00325219D01*
X01023258Y00325200D01*
X01023295Y00325173D01*
X01023341Y00325136D01*
X01023415Y00325089D01*
X01023498Y00325052D01*
X01023609Y00325006D01*
X01023738Y00324969D01*
X01023748D01*
X01023757Y00324960D01*
X01023794D01*
X01023831Y00324951D01*
X01023886Y00324941D01*
X01023951Y00324932D01*
X01024025Y00324923D01*
X01024118Y00324914D01*
X01024229Y00324895D01*
X01024340Y00324886D01*
X01024478Y00324877D01*
X01024617Y00324868D01*
X01024783Y00324858D01*
X01024950D01*
X01025144Y00324849D01*
X01025625D01*
X01025726Y00324858D01*
X01025846D01*
X01025967Y00324868D01*
X01026226Y00324877D01*
X01026485Y00324895D01*
X01026605Y00324905D01*
X01026716Y00324923D01*
X01026817Y00324941D01*
X01026910Y00324960D01*
X01026928Y00324969D01*
X01026974Y00324978D01*
X01027048Y00325006D01*
X01027132Y00325034D01*
X01027224Y00325080D01*
X01027317Y00325126D01*
X01027400Y00325182D01*
X01027465Y00325237D01*
X01027474Y00325247D01*
X01027483Y00325265D01*
X01027511Y00325302D01*
X01027529Y00325348D01*
X01027557Y00325404D01*
X01027585Y00325468D01*
X01027594Y00325542D01*
X01027603Y00325626D01*
Y00325635D01*
Y00325663D01*
X01027594Y00325709D01*
X01027585Y00325755D01*
X01027566Y00325820D01*
X01027548Y00325885D01*
X01027511Y00325949D01*
X01027465Y00326014D01*
X01027455Y00326023D01*
X01027437Y00326042D01*
X01027400Y00326079D01*
X01027344Y00326116D01*
X01027280Y00326153D01*
X01027187Y00326199D01*
X01027085Y00326245D01*
X01026956Y00326282D01*
X01026947D01*
X01026937Y00326291D01*
X01026900D01*
X01026863Y00326301D01*
X01026808Y00326310D01*
X01026743Y00326319D01*
X01026669Y00326338D01*
X01026577Y00326347D01*
X01026475Y00326356D01*
X01026355Y00326375D01*
X01026226Y00326384D01*
X01026078Y00326393D01*
X01025920Y00326402D01*
X01025745D01*
X01025551Y00326412D01*
D02*
G37*
G36*
X00841145Y00352311D02*
X00841071D01*
X00840979Y00352292D01*
X00840886Y00352274D01*
X00840757Y00352237D01*
X00840627Y00352181D01*
X00840479Y00352107D01*
X00840349Y00352014D01*
X00840331Y00351996D01*
X00840294Y00351959D01*
X00840238Y00351885D01*
X00840164Y00351792D01*
X00840071Y00351644D01*
X00839997Y00351478D01*
X00839905Y00351255D01*
X00839831Y00350996D01*
Y00350978D01*
X00839812Y00350959D01*
Y00350885D01*
X00839794Y00350811D01*
X00839775Y00350700D01*
X00839757Y00350570D01*
X00839738Y00350422D01*
X00839720Y00350237D01*
X00839683Y00350015D01*
X00839664Y00349792D01*
X00839646Y00349515D01*
X00839627Y00349237D01*
X00839609Y00348904D01*
Y00348570D01*
X00839590Y00348181D01*
Y00347774D01*
Y00347756D01*
Y00347682D01*
Y00347552D01*
Y00347404D01*
Y00347219D01*
X00839609Y00347015D01*
Y00346774D01*
X00839627Y00346534D01*
X00839646Y00346015D01*
X00839683Y00345497D01*
X00839701Y00345256D01*
X00839738Y00345034D01*
X00839775Y00344830D01*
X00839812Y00344645D01*
X00839831Y00344608D01*
X00839849Y00344515D01*
X00839905Y00344367D01*
X00839960Y00344200D01*
X00840053Y00344015D01*
X00840146Y00343830D01*
X00840257Y00343663D01*
X00840368Y00343534D01*
X00840386Y00343515D01*
X00840423Y00343497D01*
X00840497Y00343441D01*
X00840590Y00343404D01*
X00840701Y00343349D01*
X00840831Y00343293D01*
X00840979Y00343275D01*
X00841145Y00343256D01*
X00841219D01*
X00841312Y00343275D01*
X00841405Y00343293D01*
X00841534Y00343330D01*
X00841664Y00343367D01*
X00841794Y00343441D01*
X00841923Y00343534D01*
X00841942Y00343552D01*
X00841979Y00343589D01*
X00842053Y00343663D01*
X00842127Y00343774D01*
X00842201Y00343904D01*
X00842293Y00344089D01*
X00842386Y00344293D01*
X00842460Y00344552D01*
Y00344571D01*
X00842479Y00344589D01*
Y00344663D01*
X00842497Y00344737D01*
X00842516Y00344849D01*
X00842534Y00344978D01*
X00842571Y00345126D01*
X00842590Y00345311D01*
X00842608Y00345515D01*
X00842645Y00345756D01*
X00842664Y00346015D01*
X00842682Y00346311D01*
X00842701Y00346626D01*
Y00346978D01*
X00842719Y00347367D01*
Y00347774D01*
Y00347793D01*
Y00347867D01*
Y00347996D01*
Y00348144D01*
Y00348330D01*
X00842701Y00348533D01*
Y00348774D01*
X00842682Y00349015D01*
X00842664Y00349533D01*
X00842627Y00350033D01*
X00842590Y00350274D01*
X00842553Y00350515D01*
X00842516Y00350718D01*
X00842479Y00350885D01*
Y00350903D01*
X00842460Y00350922D01*
X00842442Y00351015D01*
X00842386Y00351163D01*
X00842330Y00351348D01*
X00842238Y00351533D01*
X00842145Y00351718D01*
X00842034Y00351885D01*
X00841923Y00352014D01*
X00841905Y00352033D01*
X00841868Y00352070D01*
X00841794Y00352107D01*
X00841701Y00352163D01*
X00841590Y00352218D01*
X00841460Y00352274D01*
X00841312Y00352292D01*
X00841145Y00352311D01*
D02*
G37*
%LPD*%
D11*
X00323000Y00358750D02*
Y00368250D01*
D13*
X00534500Y00679500D02*
G03*
X00534500Y00679500I-00001500J00000000D01*
G01*
X00780250Y00292710D02*
G03*
X00780250Y00292710I-00001500J00000000D01*
G01*
X00632000Y00386658D02*
G03*
X00632000Y00386658I-00001500J00000000D01*
G01*
X00639659Y00292038D02*
G03*
X00639659Y00292038I-00001500J00000000D01*
G01*
X00689000Y00283250D02*
Y00643750D01*
D65*
X00704000Y00283500D02*
Y00644000D01*
X00674000Y00283500D02*
Y00644000D01*
X00560331Y00591563D02*
X00559498Y00592396D01*
X00557832D01*
X00556999Y00591563D01*
Y00588231D01*
X00557832Y00587398D01*
X00559498D01*
X00560331Y00588231D01*
X00562831Y00587398D02*
X00564497D01*
X00565330Y00588231D01*
Y00589897D01*
X00564497Y00590730D01*
X00562831D01*
X00561998Y00589897D01*
Y00588231D01*
X00562831Y00587398D01*
X00567829Y00590730D02*
X00569495D01*
X00570328Y00589897D01*
Y00587398D01*
X00567829D01*
X00566996Y00588231D01*
X00567829Y00589064D01*
X00570328D01*
X00571994Y00592396D02*
X00575326Y00587398D01*
Y00592396D02*
X00571994Y00587398D01*
X00554500Y00579000D02*
Y00583998D01*
X00556999D01*
X00557832Y00583165D01*
Y00581499D01*
X00556999Y00580666D01*
X00554500D01*
X00559498Y00582332D02*
Y00579000D01*
Y00580666D01*
X00560331Y00581499D01*
X00561165Y00582332D01*
X00561998D01*
X00566996Y00579000D02*
X00565330D01*
X00564497Y00579833D01*
Y00581499D01*
X00565330Y00582332D01*
X00566996D01*
X00567829Y00581499D01*
Y00580666D01*
X00564497D01*
X00569495Y00579000D02*
X00571994D01*
X00572827Y00579833D01*
X00571994Y00580666D01*
X00570328D01*
X00569495Y00581499D01*
X00570328Y00582332D01*
X00572827D01*
X00574493Y00579000D02*
X00576993D01*
X00577826Y00579833D01*
X00576993Y00580666D01*
X00575326D01*
X00574493Y00581499D01*
X00575326Y00582332D01*
X00577826D01*
X00478250Y00614998D02*
X00481582D01*
X00479916D01*
Y00610000D01*
X00483248D02*
Y00614998D01*
X00485748D01*
X00486581Y00614165D01*
Y00612499D01*
X00485748Y00611666D01*
X00483248D01*
X00491579Y00610000D02*
X00488247D01*
X00491579Y00613332D01*
Y00614165D01*
X00490746Y00614998D01*
X00489080D01*
X00488247Y00614165D01*
X00493245Y00610000D02*
X00494911D01*
X00494078D01*
Y00614998D01*
X00493245Y00614165D01*
X00716250Y00304458D02*
X00719582D01*
X00717916D01*
Y00299460D01*
X00723747Y00304458D02*
X00722081D01*
X00721248Y00303625D01*
Y00300293D01*
X00722081Y00299460D01*
X00723747D01*
X00724581Y00300293D01*
Y00303625D01*
X00723747Y00304458D01*
X00726247Y00299460D02*
Y00304458D01*
X00728746D01*
X00729579Y00303625D01*
Y00301959D01*
X00728746Y00301126D01*
X00726247D01*
X00767250Y00315710D02*
Y00320708D01*
X00769749D01*
X00770582Y00319875D01*
Y00318209D01*
X00769749Y00317376D01*
X00767250D01*
X00772248Y00320708D02*
Y00315710D01*
X00773914Y00317376D01*
X00775581Y00315710D01*
Y00320708D01*
X00777247Y00315710D02*
Y00320708D01*
X00779746D01*
X00780579Y00319875D01*
Y00318209D01*
X00779746Y00317376D01*
X00777247D01*
X00778913D02*
X00780579Y00315710D01*
X00604085Y00580582D02*
X00603252Y00579749D01*
Y00578083D01*
X00604085Y00577250D01*
X00604918D01*
X00605751Y00578083D01*
Y00579749D01*
X00606584Y00580582D01*
X00607417D01*
X00608250Y00579749D01*
Y00578083D01*
X00607417Y00577250D01*
X00608250Y00582248D02*
X00604918D01*
X00603252Y00583914D01*
X00604918Y00585581D01*
X00608250D01*
X00605751D01*
Y00582248D01*
X00603252Y00587247D02*
Y00590579D01*
Y00588913D01*
X00608250D01*
Y00592245D02*
X00604918D01*
X00603252Y00593911D01*
X00604918Y00595577D01*
X00608250D01*
X00605751D01*
Y00592245D01*
X00627750Y00391500D02*
X00622752D01*
Y00393999D01*
X00623585Y00394832D01*
X00625251D01*
X00626084Y00393999D01*
Y00391500D01*
Y00393166D02*
X00627750Y00394832D01*
X00623585Y00399831D02*
X00622752Y00398998D01*
Y00397331D01*
X00623585Y00396498D01*
X00624418D01*
X00625251Y00397331D01*
Y00398998D01*
X00626084Y00399831D01*
X00626917D01*
X00627750Y00398998D01*
Y00397331D01*
X00626917Y00396498D01*
X00627750Y00403996D02*
X00622752D01*
X00625251Y00401497D01*
Y00404829D01*
X00623585Y00406495D02*
X00622752Y00407328D01*
Y00408994D01*
X00623585Y00409827D01*
X00624418D01*
X00625251Y00408994D01*
X00626084Y00409827D01*
X00626917D01*
X00627750Y00408994D01*
Y00407328D01*
X00626917Y00406495D01*
X00626084D01*
X00625251Y00407328D01*
X00624418Y00406495D01*
X00623585D01*
X00625251Y00407328D02*
Y00408994D01*
X00622752Y00414826D02*
Y00411493D01*
X00625251D01*
X00624418Y00413160D01*
Y00413993D01*
X00625251Y00414826D01*
X00626917D01*
X00627750Y00413993D01*
Y00412327D01*
X00626917Y00411493D01*
X00278582Y00442748D02*
X00276916D01*
X00277749D01*
Y00438583D01*
X00276916Y00437750D01*
X00276083D01*
X00275250Y00438583D01*
X00280248Y00442748D02*
X00283581D01*
X00281915D01*
Y00437750D01*
X00285247D02*
Y00441082D01*
X00286913Y00442748D01*
X00288579Y00441082D01*
Y00437750D01*
Y00440249D01*
X00285247D01*
X00293577Y00441915D02*
X00292744Y00442748D01*
X00291078D01*
X00290245Y00441915D01*
Y00438583D01*
X00291078Y00437750D01*
X00292744D01*
X00293577Y00438583D01*
Y00440249D01*
X00291911D01*
X00345750Y00291000D02*
X00340752D01*
Y00293499D01*
X00341585Y00294332D01*
X00343251D01*
X00344084Y00293499D01*
Y00291000D01*
X00340752Y00295998D02*
X00345750D01*
X00344084Y00297665D01*
X00345750Y00299331D01*
X00340752D01*
X00345750Y00300997D02*
X00340752D01*
Y00303496D01*
X00341585Y00304329D01*
X00343251D01*
X00344084Y00303496D01*
Y00300997D01*
Y00302663D02*
X00345750Y00304329D01*
X00349832Y00587915D02*
X00348999Y00588748D01*
X00347333D01*
X00346500Y00587915D01*
Y00587082D01*
X00347333Y00586249D01*
X00348999D01*
X00349832Y00585416D01*
Y00584583D01*
X00348999Y00583750D01*
X00347333D01*
X00346500Y00584583D01*
X00351498Y00588748D02*
Y00583750D01*
X00353997D01*
X00354831Y00584583D01*
Y00587915D01*
X00353997Y00588748D01*
X00351498D01*
X00356497D02*
X00358163D01*
X00357330D01*
Y00583750D01*
X00356497D01*
X00358163D01*
X00495748Y00631750D02*
Y00628418D01*
Y00630084D01*
X00490750D01*
X00495748Y00626752D02*
X00490750Y00623419D01*
X00495748D02*
X00490750Y00626752D01*
Y00621753D02*
Y00620087D01*
Y00620920D01*
X00495748D01*
X00494915Y00621753D01*
X00481250Y00631750D02*
X00486248D01*
Y00629251D01*
X00485415Y00628418D01*
X00483749D01*
X00482916Y00629251D01*
Y00631750D01*
Y00630084D02*
X00481250Y00628418D01*
X00486248Y00626752D02*
X00481250Y00623419D01*
X00486248D02*
X00481250Y00626752D01*
Y00621753D02*
Y00620087D01*
Y00620920D01*
X00486248D01*
X00485415Y00621753D01*
X00526498Y00631750D02*
Y00628418D01*
Y00630084D01*
X00521500D01*
X00526498Y00626752D02*
X00521500Y00623419D01*
X00526498D02*
X00521500Y00626752D01*
X00525665Y00621753D02*
X00526498Y00620920D01*
Y00619254D01*
X00525665Y00618421D01*
X00522333D01*
X00521500Y00619254D01*
Y00620920D01*
X00522333Y00621753D01*
X00525665D01*
X00531000Y00631750D02*
X00535998D01*
Y00629251D01*
X00535165Y00628418D01*
X00533499D01*
X00532666Y00629251D01*
Y00631750D01*
Y00630084D02*
X00531000Y00628418D01*
X00535998Y00626752D02*
X00531000Y00623419D01*
X00535998D02*
X00531000Y00626752D01*
X00535165Y00621753D02*
X00535998Y00620920D01*
Y00619254D01*
X00535165Y00618421D01*
X00531833D01*
X00531000Y00619254D01*
Y00620920D01*
X00531833Y00621753D01*
X00535165D01*
X00608502Y00260000D02*
X00613500D01*
Y00262499D01*
X00612667Y00263332D01*
X00611834D01*
X00611001Y00262499D01*
Y00260000D01*
Y00262499D01*
X00610168Y00263332D01*
X00609335D01*
X00608502Y00262499D01*
Y00260000D01*
Y00267498D02*
Y00265831D01*
X00609335Y00264998D01*
X00612667D01*
X00613500Y00265831D01*
Y00267498D01*
X00612667Y00268331D01*
X00609335D01*
X00608502Y00267498D01*
Y00272496D02*
Y00270830D01*
X00609335Y00269997D01*
X00612667D01*
X00613500Y00270830D01*
Y00272496D01*
X00612667Y00273329D01*
X00609335D01*
X00608502Y00272496D01*
Y00274995D02*
Y00278327D01*
Y00276661D01*
X00613500D01*
X00528041Y00361424D02*
X00528874Y00362257D01*
X00530540D01*
X00531373Y00361424D01*
Y00358092D01*
X00530540Y00357258D01*
X00528874D01*
X00528041Y00358092D01*
Y00361424D01*
X00536372Y00357258D02*
X00533039D01*
X00536372Y00360591D01*
Y00361424D01*
X00535539Y00362257D01*
X00533872D01*
X00533039Y00361424D01*
X00538038Y00357258D02*
X00541370Y00360591D01*
X00543036Y00361424D02*
X00543869Y00362257D01*
X00545535D01*
X00546368Y00361424D01*
Y00358092D01*
X00545535Y00357258D01*
X00543869D01*
X00543036Y00358092D01*
Y00361424D01*
X00551367Y00357258D02*
X00548035D01*
X00551367Y00360591D01*
Y00361424D01*
X00550534Y00362257D01*
X00548868D01*
X00548035Y00361424D01*
X00553033Y00357258D02*
X00556365Y00360591D01*
X00561363Y00357258D02*
X00558031D01*
X00561363Y00360591D01*
Y00361424D01*
X00560530Y00362257D01*
X00558864D01*
X00558031Y00361424D01*
X00563030D02*
X00563863Y00362257D01*
X00565529D01*
X00566362Y00361424D01*
Y00358092D01*
X00565529Y00357258D01*
X00563863D01*
X00563030Y00358092D01*
Y00361424D01*
X00568028Y00357258D02*
X00569694D01*
X00568861D01*
Y00362257D01*
X00568028Y00361424D01*
X00572193D02*
X00573026Y00362257D01*
X00574692D01*
X00575526Y00361424D01*
Y00360591D01*
X00574692Y00359758D01*
X00575526Y00358924D01*
Y00358092D01*
X00574692Y00357258D01*
X00573026D01*
X00572193Y00358092D01*
Y00358924D01*
X00573026Y00359758D01*
X00572193Y00360591D01*
Y00361424D01*
X00573026Y00359758D02*
X00574692D01*
X00528041Y00366521D02*
Y00371520D01*
X00530540D01*
X00531373Y00370687D01*
Y00369021D01*
X00530540Y00368188D01*
X00528041D01*
X00533039Y00366521D02*
Y00371520D01*
X00535539D01*
X00536372Y00370687D01*
Y00369021D01*
X00535539Y00368188D01*
X00533039D01*
X00534706D02*
X00536372Y00366521D01*
X00540537Y00371520D02*
X00538871D01*
X00538038Y00370687D01*
Y00367355D01*
X00538871Y00366521D01*
X00540537D01*
X00541370Y00367355D01*
Y00370687D01*
X00540537Y00371520D01*
X00546368Y00370687D02*
X00545535Y00371520D01*
X00543869D01*
X00543036Y00370687D01*
Y00367355D01*
X00543869Y00366521D01*
X00545535D01*
X00546368Y00367355D01*
X00548035Y00365688D02*
X00551367D01*
X00553033Y00371520D02*
Y00366521D01*
X00555532D01*
X00556365Y00367355D01*
Y00368188D01*
X00555532Y00369021D01*
X00553033D01*
X00555532D01*
X00556365Y00369854D01*
Y00370687D01*
X00555532Y00371520D01*
X00553033D01*
X00558031Y00366521D02*
Y00371520D01*
X00560530D01*
X00561363Y00370687D01*
Y00369021D01*
X00560530Y00368188D01*
X00558031D01*
X00559697D02*
X00561363Y00366521D01*
X00563030Y00371520D02*
Y00366521D01*
X00565529D01*
X00566362Y00367355D01*
Y00370687D01*
X00565529Y00371520D01*
X00563030D01*
X00568028Y00365688D02*
X00571360D01*
X00573026Y00371520D02*
Y00368188D01*
X00574692Y00366521D01*
X00576359Y00368188D01*
Y00371520D01*
X00578025Y00366521D02*
X00579691D01*
X00578858D01*
Y00371520D01*
X00578025Y00370687D01*
X00258500Y00590748D02*
Y00585750D01*
X00261832D01*
X00266831Y00590748D02*
X00263498D01*
Y00585750D01*
X00266831D01*
X00263498Y00588249D02*
X00265165D01*
X00268497Y00590748D02*
Y00585750D01*
X00270996D01*
X00271829Y00586583D01*
Y00589915D01*
X00270996Y00590748D01*
X00268497D01*
X00273495Y00585750D02*
X00275161D01*
X00274328D01*
Y00590748D01*
X00273495Y00589915D01*
X00269250Y00582748D02*
Y00577750D01*
X00272582D01*
X00277581Y00582748D02*
X00274248D01*
Y00577750D01*
X00277581D01*
X00274248Y00580249D02*
X00275914D01*
X00279247Y00582748D02*
Y00577750D01*
X00281746D01*
X00282579Y00578583D01*
Y00581915D01*
X00281746Y00582748D01*
X00279247D01*
X00284245Y00581915D02*
X00285078Y00582748D01*
X00286744D01*
X00287577Y00581915D01*
Y00578583D01*
X00286744Y00577750D01*
X00285078D01*
X00284245Y00578583D01*
Y00581915D01*
X00356034Y00262470D02*
X00351035D01*
Y00264969D01*
X00351868Y00265802D01*
X00353535D01*
X00354367Y00264969D01*
Y00262470D01*
X00356034Y00267468D02*
Y00269135D01*
Y00268302D01*
X00351035D01*
X00351868Y00267468D01*
X00356034Y00274966D02*
Y00271634D01*
X00352701Y00274966D01*
X00351868D01*
X00351035Y00274133D01*
Y00272467D01*
X00351868Y00271634D01*
X00351035Y00276632D02*
X00354367D01*
X00356034Y00278298D01*
X00354367Y00279965D01*
X00351035D01*
X00351868Y00281631D02*
X00351035Y00282464D01*
Y00284130D01*
X00351868Y00284963D01*
X00355201D01*
X00356034Y00284130D01*
Y00282464D01*
X00355201Y00281631D01*
X00351868D01*
X00575500Y00398500D02*
X00570502D01*
Y00400999D01*
X00571335Y00401832D01*
X00573001D01*
X00573834Y00400999D01*
Y00398500D01*
X00571335Y00403498D02*
X00570502Y00404331D01*
Y00405998D01*
X00571335Y00406831D01*
X00572168D01*
X00573001Y00405998D01*
Y00405164D01*
Y00405998D01*
X00573834Y00406831D01*
X00574667D01*
X00575500Y00405998D01*
Y00404331D01*
X00574667Y00403498D01*
X00570502Y00408497D02*
X00573834D01*
X00575500Y00410163D01*
X00573834Y00411829D01*
X00570502D01*
X00571335Y00413495D02*
X00570502Y00414328D01*
Y00415994D01*
X00571335Y00416827D01*
X00572168D01*
X00573001Y00415994D01*
Y00415161D01*
Y00415994D01*
X00573834Y00416827D01*
X00574667D01*
X00575500Y00415994D01*
Y00414328D01*
X00574667Y00413495D01*
X00533500Y00317500D02*
X00528502D01*
Y00319999D01*
X00529335Y00320832D01*
X00531001D01*
X00531834Y00319999D01*
Y00317500D01*
X00533500Y00322498D02*
Y00324165D01*
Y00323331D01*
X00528502D01*
X00529335Y00322498D01*
X00528502Y00326664D02*
X00531834D01*
X00533500Y00328330D01*
X00531834Y00329996D01*
X00528502D01*
X00529335Y00331662D02*
X00528502Y00332495D01*
Y00334161D01*
X00529335Y00334994D01*
X00530168D01*
X00531001Y00334161D01*
X00531834Y00334994D01*
X00532667D01*
X00533500Y00334161D01*
Y00332495D01*
X00532667Y00331662D01*
X00531834D01*
X00531001Y00332495D01*
X00530168Y00331662D01*
X00529335D01*
X00531001Y00332495D02*
Y00334161D01*
X00362670Y00353420D02*
X00357671D01*
Y00355919D01*
X00358504Y00356753D01*
X00360171D01*
X00361004Y00355919D01*
Y00353420D01*
X00362670Y00358419D02*
Y00360085D01*
Y00359252D01*
X00357671D01*
X00358504Y00358419D01*
X00357671Y00362584D02*
X00361004D01*
X00362670Y00364250D01*
X00361004Y00365916D01*
X00357671D01*
X00362670Y00370915D02*
Y00367582D01*
X00359338Y00370915D01*
X00358504D01*
X00357671Y00370082D01*
Y00368415D01*
X00358504Y00367582D01*
X00405750Y00308500D02*
Y00313498D01*
X00408249D01*
X00409082Y00312665D01*
Y00310999D01*
X00408249Y00310166D01*
X00405750D01*
X00410748Y00308500D02*
X00412415D01*
X00411581D01*
Y00313498D01*
X00410748Y00312665D01*
X00414914Y00313498D02*
Y00310166D01*
X00416580Y00308500D01*
X00418246Y00310166D01*
Y00313498D01*
X00419912Y00312665D02*
X00420745Y00313498D01*
X00422411D01*
X00423244Y00312665D01*
Y00309333D01*
X00422411Y00308500D01*
X00420745D01*
X00419912Y00309333D01*
Y00312665D01*
X00427000Y00297250D02*
Y00302248D01*
X00429499D01*
X00430332Y00301415D01*
Y00299749D01*
X00429499Y00298916D01*
X00427000D01*
X00431998Y00297250D02*
Y00302248D01*
X00434498D01*
X00435331Y00301415D01*
Y00299749D01*
X00434498Y00298916D01*
X00431998D01*
X00433665D02*
X00435331Y00297250D01*
X00439496Y00302248D02*
X00437830D01*
X00436997Y00301415D01*
Y00298083D01*
X00437830Y00297250D01*
X00439496D01*
X00440329Y00298083D01*
Y00301415D01*
X00439496Y00302248D01*
X00445327Y00301415D02*
X00444494Y00302248D01*
X00442828D01*
X00441995Y00301415D01*
Y00298083D01*
X00442828Y00297250D01*
X00444494D01*
X00445327Y00298083D01*
Y00299749D01*
X00443661D01*
X00446993Y00296417D02*
X00450326D01*
X00451992Y00302248D02*
Y00297250D01*
X00454491D01*
X00455324Y00298083D01*
Y00298916D01*
X00454491Y00299749D01*
X00451992D01*
X00454491D01*
X00455324Y00300582D01*
Y00301415D01*
X00454491Y00302248D01*
X00451992D01*
X00554332Y00299415D02*
X00553499Y00300248D01*
X00551833D01*
X00551000Y00299415D01*
Y00298582D01*
X00551833Y00297749D01*
X00553499D01*
X00554332Y00296916D01*
Y00296083D01*
X00553499Y00295250D01*
X00551833D01*
X00551000Y00296083D01*
X00555998Y00295250D02*
Y00300248D01*
X00558498D01*
X00559331Y00299415D01*
Y00297749D01*
X00558498Y00296916D01*
X00555998D01*
X00557664D02*
X00559331Y00295250D01*
X00564329Y00299415D02*
X00563496Y00300248D01*
X00561830D01*
X00560997Y00299415D01*
Y00298582D01*
X00561830Y00297749D01*
X00563496D01*
X00564329Y00296916D01*
Y00296083D01*
X00563496Y00295250D01*
X00561830D01*
X00560997Y00296083D01*
X00565995Y00300248D02*
X00569327D01*
X00567661D01*
Y00295250D01*
X00531373Y00378284D02*
X00530540Y00379117D01*
X00528874D01*
X00528041Y00378284D01*
Y00377451D01*
X00528874Y00376618D01*
X00530540D01*
X00531373Y00375784D01*
Y00374951D01*
X00530540Y00374118D01*
X00528874D01*
X00528041Y00374951D01*
X00533039Y00374118D02*
Y00379117D01*
X00535539D01*
X00536372Y00378284D01*
Y00376618D01*
X00535539Y00375784D01*
X00533039D01*
X00541370Y00379117D02*
X00538038D01*
Y00374118D01*
X00541370D01*
X00538038Y00376618D02*
X00539704D01*
X00543036Y00379117D02*
Y00374118D01*
Y00375784D01*
X00546368Y00379117D01*
X00543869Y00376618D01*
X00546368Y00374118D01*
X00548035Y00379117D02*
X00551367D01*
X00549701D01*
Y00374118D01*
X00553033D02*
Y00379117D01*
X00555532D01*
X00556365Y00378284D01*
Y00376618D01*
X00555532Y00375784D01*
X00553033D01*
X00554699D02*
X00556365Y00374118D01*
X00560530Y00379117D02*
X00558864D01*
X00558031Y00378284D01*
Y00374951D01*
X00558864Y00374118D01*
X00560530D01*
X00561363Y00374951D01*
Y00378284D01*
X00560530Y00379117D01*
X00563030Y00374118D02*
Y00379117D01*
X00565529D01*
X00566362Y00378284D01*
Y00376618D01*
X00565529Y00375784D01*
X00563030D01*
X00571360Y00374118D02*
X00568028D01*
X00571360Y00377451D01*
Y00378284D01*
X00570527Y00379117D01*
X00568861D01*
X00568028Y00378284D01*
X00584752Y00256750D02*
Y00260082D01*
Y00258416D01*
X00589750D01*
X00584752Y00264248D02*
Y00262581D01*
X00585585Y00261748D01*
X00588917D01*
X00589750Y00262581D01*
Y00264248D01*
X00588917Y00265081D01*
X00585585D01*
X00584752Y00264248D01*
X00589750Y00266747D02*
X00584752D01*
Y00269246D01*
X00585585Y00270079D01*
X00587251D01*
X00588084Y00269246D01*
Y00266747D01*
X00608502Y00285582D02*
Y00283916D01*
Y00284749D01*
X00612667D01*
X00613500Y00283916D01*
Y00283083D01*
X00612667Y00282250D01*
X00608502Y00287248D02*
Y00290581D01*
Y00288915D01*
X00613500D01*
Y00292247D02*
X00610168D01*
X00608502Y00293913D01*
X00610168Y00295579D01*
X00613500D01*
X00611001D01*
Y00292247D01*
X00609335Y00300577D02*
X00608502Y00299744D01*
Y00298078D01*
X00609335Y00297245D01*
X00612667D01*
X00613500Y00298078D01*
Y00299744D01*
X00612667Y00300577D01*
X00611001D01*
Y00298911D01*
X00302500Y00397250D02*
X00297502D01*
Y00399749D01*
X00298335Y00400582D01*
X00300001D01*
X00300834Y00399749D01*
Y00397250D01*
X00297502Y00402248D02*
X00302500D01*
X00300834Y00403914D01*
X00302500Y00405581D01*
X00297502D01*
X00302500Y00407247D02*
X00297502D01*
Y00409746D01*
X00298335Y00410579D01*
X00300001D01*
X00300834Y00409746D01*
Y00407247D01*
Y00408913D02*
X00302500Y00410579D01*
X00303333Y00412245D02*
Y00415577D01*
X00298335Y00420576D02*
X00297502Y00419743D01*
Y00418077D01*
X00298335Y00417243D01*
X00301667D01*
X00302500Y00418077D01*
Y00419743D01*
X00301667Y00420576D01*
X00300001D01*
Y00418910D01*
X00297502Y00424741D02*
Y00423075D01*
X00298335Y00422242D01*
X00301667D01*
X00302500Y00423075D01*
Y00424741D01*
X00301667Y00425574D01*
X00298335D01*
X00297502Y00424741D01*
Y00429739D02*
Y00428073D01*
X00298335Y00427240D01*
X00301667D01*
X00302500Y00428073D01*
Y00429739D01*
X00301667Y00430572D01*
X00298335D01*
X00297502Y00429739D01*
Y00432239D02*
X00302500D01*
Y00434738D01*
X00301667Y00435571D01*
X00298335D01*
X00297502Y00434738D01*
Y00432239D01*
X00499000Y00636998D02*
Y00632833D01*
X00499833Y00632000D01*
X00501499D01*
X00502332Y00632833D01*
Y00636998D01*
X00503998Y00632000D02*
Y00635332D01*
X00505664Y00636998D01*
X00507331Y00635332D01*
Y00632000D01*
Y00634499D01*
X00503998D01*
X00508997Y00632000D02*
Y00636998D01*
X00511496D01*
X00512329Y00636165D01*
Y00634499D01*
X00511496Y00633666D01*
X00508997D01*
X00510663D02*
X00512329Y00632000D01*
X00513995Y00636998D02*
X00517327D01*
X00515661D01*
Y00632000D01*
D66*
X00304500Y00304000D02*
G03*
X00304500Y00304000I-00001000J00000000D01*
G01*
X01041750Y00340960D02*
G03*
X01043750Y00338960I00002000J00000000D01*
G01*
X00447092Y00262500D02*
G03*
X00439608Y00262500I-00003742J00006500D01*
G01*
X00187500Y00380500D02*
G03*
X00193500Y00374500I00006000J00000000D01*
G01*
Y00350500D02*
G03*
X00187500Y00344500I00000000J-00006000D01*
G01*
X01017750Y00618158D02*
G03*
X01051750Y00618158I00017000J00009553D01*
G01*
X01051750Y00627711D02*
G03*
X01051750Y00627711I-00017000J00000000D01*
G01*
X01051750Y00637263D02*
G03*
X01017750Y00637263I-00017000J-00009553D01*
G01*
X00565991Y00394995D02*
G03*
X00565991Y00394995I-00001000J00000000D01*
G01*
X00302000Y00719750D02*
G03*
X00299500Y00717250I00000000J-00002500D01*
G01*
X00374500D02*
G03*
X00372000Y00719750I-00002500J00000000D01*
G01*
X00344000Y00775225D02*
G03*
X00344000Y00775225I-00007000J00000000D01*
G01*
X00574300Y00784138D02*
G03*
X00574300Y00795662I-00005551J00005762D01*
G01*
X00615200D02*
G03*
X00615200Y00784138I00005551J-00005762D01*
G01*
X00563492Y00262250D02*
G03*
X00556008Y00262250I-00003742J00006500D01*
G01*
X00761750Y00340960D02*
G03*
X00763750Y00338960I00002000J00000000D01*
G01*
X00296000Y00358750D02*
X00323000D01*
X00296000D02*
Y00368250D01*
X00323000D01*
X00336000Y00418000D02*
X00336000Y00445750D01*
X00330000Y00418000D02*
X00336000Y00418000D01*
X00330000Y00418000D02*
Y00445750D01*
X01048750Y00275548D02*
Y00282048D01*
Y00275548D02*
X01077750D01*
Y00282048D01*
X01048750D02*
X01077750D01*
X00932500Y00667210D02*
X00932500Y00601210D01*
X00964500Y00601210D02*
X00964500Y00667210D01*
X00932500Y00667210D02*
X00964500Y00667210D01*
X00932500Y00601210D02*
X00964500Y00601210D01*
X00315500Y00289500D02*
Y00304000D01*
X00313500Y00289500D02*
Y00304000D01*
X00307500Y00289500D02*
X00326500D01*
X00307500Y00304000D02*
X00326500D01*
X01041750Y00581960D02*
X01044707Y00584917D01*
X01041750Y00570960D02*
Y00581960D01*
Y00340536D02*
Y00356960D01*
X01050980Y00577311D02*
Y00579682D01*
X01041750Y00570960D02*
X01066250D01*
X01041750D02*
X01050980Y00577311D01*
X01052490D01*
X01041750Y00356960D02*
X01066250D01*
X01050980Y00350609D02*
X01052500D01*
X01048750Y00588960D02*
X01052490D01*
X01050980Y00579682D02*
X01052490D01*
X01044707Y00584917D02*
X01050980Y00579682D01*
X01041750Y00581960D02*
X01048750Y00588960D01*
X01051000Y00343960D02*
X01052500D01*
X01051000Y00338960D02*
Y00343960D01*
X01043750Y00338960D02*
X01051000D01*
X01050980Y00348238D02*
X01052500D01*
X01041750Y00356960D02*
X01050980Y00350609D01*
Y00348238D02*
Y00350609D01*
X01041750Y00340536D02*
X01050980Y00348238D01*
X01078750Y00329960D02*
Y00361460D01*
X01029250Y00329960D02*
Y00361460D01*
Y00566460D02*
Y00597960D01*
X01078750Y00566460D02*
Y00582960D01*
X01029250Y00329960D02*
X01078750D01*
X01063750Y00597960D02*
X01078750Y00582960D01*
X01029250Y00597960D02*
X01063750D01*
X00271000Y00469250D02*
Y00474250D01*
Y00469250D02*
X00276000D01*
X00271000Y00534250D02*
Y00539250D01*
X00276000D01*
X00341000Y00469250D02*
Y00474250D01*
X00336000Y00469250D02*
X00341000D01*
Y00534250D02*
Y00535250D01*
X00337000Y00539250D02*
X00341000Y00535250D01*
X00336000Y00539250D02*
X00337000D01*
X00395000Y00660000D02*
X00398500D01*
X00395000Y00658500D02*
Y00660000D01*
X00451500D02*
X00455000D01*
Y00658500D02*
Y00660000D01*
X00395000Y00620000D02*
X00398500D01*
X00395000D02*
Y00621500D01*
X00451500Y00620000D02*
X00453800D01*
X00455000Y00621200D01*
Y00621500D01*
X00439608Y00262500D02*
X00447092D01*
X00458350Y00257500D02*
X00458350Y00256500D01*
X00428350Y00281500D02*
X00436350D01*
X00428350Y00280500D02*
Y00281500D01*
Y00256500D02*
Y00257500D01*
Y00256500D02*
X00458350D01*
X00600000Y00367750D02*
X00600000Y00400250D01*
X00214500Y00400000D02*
X00226500Y00400000D01*
X00214500Y00405000D02*
X00226500Y00405000D01*
X00214500Y00396500D02*
Y00405000D01*
Y00396500D02*
X00226500D01*
Y00416885D01*
X00208500Y00389500D02*
X00234500Y00387500D01*
X00208500Y00389500D02*
Y00393000D01*
X00214500Y00393000D01*
X00214500Y00412000D01*
X00208500D02*
X00214500D01*
X00208500Y00415500D02*
X00208500Y00412000D01*
X00208500Y00415500D02*
X00234500Y00417500D01*
X00187500Y00309250D02*
X00196160Y00304250D01*
X00187500Y00299250D02*
X00196160Y00304250D01*
X00193500Y00364400D02*
X00193500Y00366500D01*
X00193500Y00360600D02*
X00193500Y00358500D01*
X00190500Y00363500D02*
X00195500Y00365000D01*
X00190500Y00363500D02*
X00190500Y00361500D01*
X00195500Y00360000D01*
Y00365000D01*
X00226500D01*
X00195500Y00360000D02*
X00226500D01*
X00191000Y00358500D02*
X00226500D01*
X00191000Y00349954D02*
X00191000Y00358500D01*
X00193500Y00350500D02*
X00226500Y00350500D01*
X00226500Y00374500D02*
X00226500Y00350500D01*
X00191000Y00366500D02*
X00226500D01*
X00191000Y00375046D02*
X00191000Y00366500D01*
X00193500Y00374500D02*
X00226500Y00374500D01*
X00226500Y00350500D01*
X00214500Y00325000D02*
X00226500Y00325000D01*
X00214500Y00320000D02*
X00226500D01*
X00214500D02*
Y00328500D01*
X00226500Y00328500D01*
Y00308115D02*
Y00328500D01*
X00208500Y00335500D02*
X00234500Y00337500D01*
X00208500Y00332000D02*
Y00335500D01*
Y00332000D02*
X00214500Y00332000D01*
Y00313000D02*
Y00332000D01*
X00208500Y00313000D02*
X00214500D01*
X00208500Y00309500D02*
Y00313000D01*
Y00309500D02*
X00234500Y00307500D01*
X00249000Y00296000D02*
Y00309000D01*
Y00316000D02*
Y00329000D01*
Y00349000D02*
X00249000Y00336000D01*
X00249000Y00356000D02*
X00249000Y00369000D01*
X00249000Y00376000D02*
Y00389000D01*
Y00396000D02*
Y00409000D01*
Y00416000D02*
Y00429000D01*
X00234500Y00437500D02*
X00251500D01*
Y00429000D02*
Y00437500D01*
X00244958Y00429000D02*
X00251500Y00429000D01*
X00244958Y00416000D02*
Y00429000D01*
Y00416000D02*
X00251500Y00416000D01*
Y00409000D02*
Y00416000D01*
X00244958Y00409000D02*
X00251500D01*
X00244958D02*
X00244958Y00396000D01*
X00251500Y00396000D01*
Y00389000D02*
Y00396000D01*
X00244958Y00389000D02*
X00251500D01*
X00244958Y00376000D02*
Y00389000D01*
Y00376000D02*
X00251500D01*
X00251500Y00369000D01*
X00244958D02*
X00251500D01*
X00244958Y00356000D02*
X00244958Y00369000D01*
X00244958Y00356000D02*
X00251500D01*
Y00349000D02*
Y00356000D01*
X00244958Y00349000D02*
X00251500D01*
X00244958D02*
X00244958Y00336000D01*
X00251500D01*
X00251500Y00329000D02*
X00251500Y00336000D01*
X00244958Y00329000D02*
X00251500D01*
X00244958Y00316000D02*
Y00329000D01*
Y00316000D02*
X00251500D01*
Y00309000D02*
Y00316000D01*
X00244958Y00309000D02*
X00251500Y00309000D01*
X00244958Y00296000D02*
X00244958Y00309000D01*
X00244958Y00296000D02*
X00251500D01*
X00251500Y00287500D01*
X00234500D02*
X00251500D01*
X00187500Y00279250D02*
X00234500D01*
Y00445750D01*
X00187500D02*
X00234500D01*
X00187500Y00279250D02*
Y00445750D01*
X00474000Y00668500D02*
X00476000D01*
X00540000D02*
X00542000D01*
X00476000Y00640500D02*
Y00644500D01*
X00540000Y00640500D02*
Y00644500D01*
X00542000Y00660750D02*
Y00668500D01*
Y00660750D02*
X00545000D01*
X00542000Y00652250D02*
X00545000D01*
X00474000Y00641500D02*
X00542000D01*
X00474000D02*
Y00652250D01*
X00471000D02*
X00474000D01*
X00471000Y00660750D02*
X00474000D01*
Y00668500D01*
X00471000Y00671500D02*
X00474000Y00668500D01*
X00542000D02*
X00545000Y00671500D01*
X00471000D02*
X00545000D01*
X00471000D02*
X00471000Y00644500D01*
X00468000Y00644500D02*
X00548000D01*
X00548000Y00672500D02*
X00548000Y00640500D01*
X00468000Y00672500D02*
X00548000D01*
X00468000Y00640500D02*
Y00672500D01*
Y00640500D02*
X00548000D01*
X00757250Y00254710D02*
X00787750D01*
X00785750Y00253710D02*
Y00257710D01*
X00759250Y00253710D02*
Y00257710D01*
X00754250Y00265460D02*
X00757250D01*
Y00254710D02*
Y00265460D01*
X00787750Y00254710D02*
Y00265460D01*
X00790750D01*
Y00257710D02*
Y00284710D01*
X00751250Y00257710D02*
X00793750D01*
X00754250D02*
Y00284710D01*
Y00273960D02*
X00757250Y00273960D01*
Y00281710D01*
X00754250Y00284710D02*
X00757250Y00281710D01*
X00754250Y00284710D02*
X00790750D01*
X00787750Y00281710D02*
X00790750Y00284710D01*
X00787750Y00273960D02*
Y00281710D01*
Y00273960D02*
X00790750Y00273960D01*
X00751250Y00285710D02*
X00793750D01*
X00793750Y00253710D02*
X00793750Y00285710D01*
X00751250Y00253710D02*
X00793750D01*
X00751250Y00285710D02*
X00751250Y00253710D01*
X00785750Y00281710D02*
X00787750Y00281710D01*
X00757250D02*
X00759250D01*
X00671500Y00384455D02*
Y00417908D01*
X00641500Y00304908D02*
X00671500D01*
X00636500Y00309908D02*
X00641500Y00304908D01*
X00636500Y00309908D02*
Y00338362D01*
Y00412908D02*
X00641500Y00417908D01*
X00671500D01*
X00654000Y00397408D02*
X00671500D01*
X00654000Y00390991D02*
Y00397408D01*
Y00325408D02*
X00671500D01*
X00663000Y00397158D02*
X00668000D01*
Y00388658D02*
Y00397158D01*
X00663000Y00388658D02*
X00668000D01*
X00663000D02*
Y00397158D01*
X00665766Y00388658D02*
Y00397158D01*
X00666332Y00325658D02*
X00668000D01*
Y00326161D01*
X00666500Y00387121D02*
Y00388658D01*
X00654767D02*
X00663000D01*
X00652000Y00399408D02*
X00671500D01*
X00652000D02*
X00654000Y00397408D01*
X00652000Y00393958D02*
Y00399408D01*
Y00323408D02*
X00654000Y00325408D01*
X00652000Y00323408D02*
X00671500D01*
Y00364455D02*
Y00368362D01*
X00654000Y00325408D02*
Y00331826D01*
X00652000Y00373958D02*
Y00378859D01*
Y00353958D02*
Y00358859D01*
Y00323408D02*
Y00338859D01*
X00671500Y00344455D02*
Y00348362D01*
Y00304908D02*
Y00328362D01*
X00636500Y00354455D02*
Y00358362D01*
Y00374455D02*
Y00378362D01*
Y00394455D02*
Y00412908D01*
X01007500Y00274210D02*
Y00275710D01*
X00999500Y00274210D02*
Y00275710D01*
X01041100Y00605461D02*
X01051750Y00611815D01*
X01028400Y00605461D02*
X01041100D01*
X01017750Y00611815D02*
X01028400Y00605461D01*
X01017750Y00643607D02*
X01028400Y00649961D01*
X01041100D01*
X01051750Y00643607D01*
X00633750Y00255500D02*
X00636250Y00258000D01*
X00630833Y00255500D02*
X00633750D01*
X00616250Y00258000D02*
X00618750Y00255500D01*
X00616250Y00258000D02*
Y00260917D01*
Y00273000D02*
X00617750Y00274500D01*
X00636250Y00258000D02*
Y00260917D01*
X00618750Y00255500D02*
X00621667D01*
X00616250Y00270083D02*
Y00273000D01*
X00765500Y00291960D02*
X00782500D01*
X00765500Y00307960D02*
X00782500Y00307960D01*
Y00291960D02*
Y00307960D01*
X00497750Y00362750D02*
X00497750Y00356750D01*
X00478750Y00356750D02*
Y00362750D01*
X00968500Y00323960D02*
X00979500D01*
X00968500Y00339960D02*
X00979500D01*
X00505750Y00321500D02*
Y00333000D01*
X00558991Y00384995D02*
Y00574995D01*
X00368992Y00574995D02*
X00558991Y00574995D01*
X00368991Y00384995D02*
X00558991D01*
X00368991D02*
X00368992Y00574995D01*
X00556991Y00384995D02*
X00558991Y00386995D01*
X00554991Y00384995D02*
X00558991Y00388995D01*
X00552991Y00384995D02*
X00558991Y00390995D01*
X00550991Y00384995D02*
X00558991Y00392995D01*
X00548991Y00384995D02*
X00558991Y00394995D01*
X00374500Y00669337D02*
Y00671750D01*
X00372087Y00596750D02*
X00374500D01*
X00299500D02*
Y00599163D01*
Y00671750D02*
X00301913D01*
X00372000D02*
Y00679750D01*
X00302000D02*
X00372000D01*
X00302000Y00671750D02*
Y00679750D01*
X00311000D02*
Y00687250D01*
X00363000Y00679750D02*
Y00687250D01*
X00363798D02*
Y00688750D01*
X00368798Y00691250D01*
Y00692250D01*
X00363798Y00694750D02*
X00368798Y00692250D01*
X00363798Y00694750D02*
Y00695750D01*
X00368798Y00698250D01*
Y00699250D01*
X00363798Y00701750D02*
X00368798Y00699250D01*
X00363798Y00701750D02*
Y00702750D01*
X00368798Y00705250D01*
Y00706250D01*
X00363798Y00708750D02*
X00368798Y00706250D01*
X00363798Y00708750D02*
Y00709750D01*
X00310602Y00691750D02*
X00368798D01*
X00310602Y00698750D02*
X00368798D01*
X00310602Y00695250D02*
X00363798D01*
X00310602Y00702250D02*
X00363798D01*
X00310602Y00705750D02*
X00368798D01*
X00302000Y00719750D02*
X00372000D01*
X00374500Y00704750D02*
Y00717250D01*
X00299500Y00704750D02*
X00374500D01*
X00299500D02*
Y00717250D01*
X00310602Y00687250D02*
X00363798D01*
X00310602D02*
Y00729750D01*
X00363798Y00709750D02*
X00368798Y00712250D01*
Y00713250D01*
X00363798Y00715750D02*
X00368798Y00713250D01*
X00363798Y00715750D02*
Y00716750D01*
X00368798Y00719250D01*
Y00720250D01*
X00363798Y00722750D02*
X00368798Y00720250D01*
X00363798Y00722750D02*
Y00723750D01*
X00368798Y00726250D01*
Y00727250D01*
X00363798Y00729750D02*
X00368798Y00727250D01*
X00310602Y00729750D02*
X00363798D01*
X00310602Y00726750D02*
X00368798D01*
X00310602Y00723250D02*
X00363798D01*
X00310602Y00719750D02*
X00368798D01*
X00310602Y00716250D02*
X00363798D01*
X00310602Y00712750D02*
X00368798D01*
X00359750Y00729750D02*
Y00760250D01*
X00314250Y00729750D02*
Y00760250D01*
X00316450Y00763860D01*
Y00786640D01*
X00314250Y00790250D02*
X00316450Y00786640D01*
X00314250Y00790250D02*
Y00799750D01*
X00359750D01*
Y00790250D02*
Y00799750D01*
X00357550Y00786640D02*
X00359750Y00790250D01*
X00357550Y00763860D02*
Y00786640D01*
Y00763860D02*
X00359750Y00760250D01*
X00316450Y00781891D02*
X00357550D01*
X00316450Y00768559D02*
X00357550D01*
X00310602Y00709250D02*
X00363798D01*
X00299500Y00669337D02*
Y00671750D01*
X00372087D02*
X00374500D01*
Y00618537D02*
Y00649963D01*
Y00596750D02*
Y00599163D01*
X00321287Y00596750D02*
X00352713D01*
X00299500D02*
X00301913D01*
X00299500Y00618537D02*
Y00649963D01*
X00559137Y00729300D02*
X00565318Y00735300D01*
X00586750D01*
Y00729300D02*
Y00735300D01*
Y00729300D02*
X00602750D01*
Y00735300D01*
X00624182D01*
X00630363Y00729300D01*
X00558250Y00719300D02*
Y00729300D01*
Y00719300D02*
X00631250D01*
Y00729300D01*
X00558250D02*
X00631250D01*
X00558050Y00674000D02*
X00560205D01*
X00559050Y00673000D02*
X00559160D01*
X00579540D02*
X00609960D01*
X00578495Y00674000D02*
X00611004D01*
X00619239Y00701057D02*
Y00701221D01*
X00570239Y00701057D02*
Y00701221D01*
X00619239D01*
X00567739Y00703663D02*
X00621739D01*
X00570239Y00706105D02*
X00619239D01*
Y00701221D02*
X00621739Y00703663D01*
X00619239Y00706105D02*
X00621739Y00703663D01*
X00567739D02*
X00570239Y00706105D01*
X00567739Y00703663D02*
X00570239Y00701221D01*
X00567739Y00708547D02*
X00621739D01*
X00570239Y00710988D02*
X00619239D01*
Y00706105D02*
X00621739Y00708547D01*
X00619239Y00710988D02*
X00621739Y00708547D01*
X00567739D02*
X00570239Y00710988D01*
X00567739Y00708547D02*
X00570239Y00706105D01*
X00567739Y00713430D02*
X00621739D01*
X00570239Y00715872D02*
X00619239D01*
Y00710988D02*
X00621739Y00713430D01*
X00619239Y00715872D02*
X00621739Y00713430D01*
X00567739D02*
X00570239Y00715872D01*
X00567739Y00713430D02*
X00570239Y00710988D01*
X00567739Y00718314D02*
X00621739D01*
X00570239Y00720756D02*
X00619239D01*
X00567739Y00723198D02*
X00621739D01*
X00570239Y00725640D02*
X00619239D01*
X00567739Y00728082D02*
X00621739D01*
X00567744Y00732966D02*
X00621744D01*
X00570239Y00730524D02*
X00619241D01*
X00570244Y00735407D02*
X00619244D01*
X00567744Y00737347D02*
X00621744D01*
X00574234Y00743900D02*
X00615200D01*
X00619239Y00715872D02*
X00621739Y00718314D01*
X00619239Y00720756D02*
X00621739Y00718314D01*
X00619239Y00720756D02*
X00621739Y00723198D01*
X00619239Y00725640D02*
X00621739Y00723198D01*
X00619239Y00725640D02*
X00621739Y00728082D01*
X00619241Y00730524D02*
X00621739Y00728082D01*
X00619241Y00730524D02*
X00621744Y00732966D01*
X00619244Y00735407D02*
X00621744Y00732966D01*
X00619244Y00735407D02*
X00621744Y00737347D01*
X00615200Y00743900D02*
X00621744Y00737347D01*
X00615200Y00743900D02*
Y00784138D01*
Y00795662D02*
Y00807400D01*
X00574300D02*
X00615200D01*
X00614200Y00808400D02*
X00615200Y00807400D01*
X00575300Y00808400D02*
X00614200D01*
X00574300Y00807400D02*
X00575300Y00808400D01*
X00574300Y00795662D02*
Y00807400D01*
X00574234Y00743900D02*
X00574300Y00784138D01*
X00567744Y00737347D02*
X00574234Y00743900D01*
X00567744Y00737347D02*
X00570244Y00735407D01*
X00567744Y00732966D02*
X00570244Y00735407D01*
X00567744Y00732966D02*
X00570239Y00730524D01*
X00567739Y00728082D02*
X00570239Y00730524D01*
X00567739Y00728082D02*
X00570239Y00725640D01*
X00567739Y00723198D02*
X00570239Y00725640D01*
X00567739Y00723198D02*
X00570239Y00720756D01*
X00567739Y00718314D02*
X00570239Y00720756D01*
X00567739Y00718314D02*
X00570239Y00715872D01*
X00567750Y00694300D02*
Y00701057D01*
X00621750D01*
Y00694300D02*
Y00701057D01*
X00558050Y00693300D02*
X00631450D01*
X00629296Y00674000D02*
X00631450D01*
X00559050Y00694300D02*
X00630450D01*
X00558050Y00693300D02*
X00559050Y00694300D01*
X00558050Y00674000D02*
Y00693300D01*
Y00674000D02*
X00559050Y00673000D01*
X00630340D02*
X00630450D01*
X00631450Y00674000D01*
Y00693300D01*
X00630450Y00694300D02*
X00631450Y00693300D01*
X00579540Y00603000D02*
X00609960D01*
X00562250Y00624666D02*
Y00651334D01*
X00625489Y00594900D02*
X00678989D01*
X00633767Y00434700D02*
X00636856D01*
X00633767D02*
X00642767Y00425700D01*
X00675900Y00434700D02*
X00678989D01*
Y00425700D02*
Y00434700D01*
X00676000Y00458200D02*
X00678989D01*
X00676000Y00585900D02*
X00678989D01*
X00676000Y00564398D02*
X00678989Y00564400D01*
X00647400Y00551401D02*
X00663989Y00551401D01*
X00647400Y00547400D02*
X00663989D01*
X00647400Y00538701D02*
X00663989Y00538701D01*
X00647400Y00534700D02*
X00663989D01*
X00647400Y00526001D02*
X00663989Y00526001D01*
X00647400Y00522000D02*
X00663989D01*
X00647400Y00513301D02*
X00663989Y00513301D01*
X00647400Y00509300D02*
X00663989D01*
X00647400Y00500601D02*
X00663989Y00500601D01*
X00647400Y00496600D02*
X00663989D01*
X00647400Y00487901D02*
X00663989Y00487901D01*
X00647400Y00483900D02*
X00663989D01*
X00647400Y00475201D02*
X00663989Y00475201D01*
X00647400Y00471200D02*
X00663989D01*
X00625489Y00585900D02*
X00638000D01*
X00625489Y00564400D02*
X00638000D01*
X00626500Y00458200D02*
X00638000D01*
X00678989Y00440200D02*
Y00594900D01*
X00642767Y00425700D02*
X00678989D01*
X00626500Y00440200D02*
X00638000D01*
X00625489Y00558900D02*
Y00594900D01*
Y00558900D02*
X00661989D01*
Y00554750D02*
Y00558900D01*
Y00554750D02*
X00663989Y00554264D01*
Y00544535D02*
Y00554264D01*
X00661989Y00544050D02*
X00663989Y00544535D01*
X00661989Y00542050D02*
Y00544050D01*
Y00542050D02*
X00663989Y00541564D01*
Y00531836D02*
Y00541564D01*
X00661989Y00531350D02*
X00663989Y00531836D01*
X00661989Y00529350D02*
Y00531350D01*
Y00529350D02*
X00663989Y00528865D01*
Y00519136D02*
Y00528865D01*
X00661989Y00518650D02*
X00663989Y00519136D01*
X00661989Y00516650D02*
Y00518650D01*
Y00516650D02*
X00663989Y00516165D01*
Y00506436D02*
Y00516165D01*
X00661989Y00505950D02*
X00663989Y00506436D01*
X00661989Y00503950D02*
Y00505950D01*
Y00503950D02*
X00663989Y00503465D01*
X00663989Y00493736D02*
X00663989Y00503465D01*
X00661989Y00493250D02*
X00663989Y00493736D01*
X00661989Y00491250D02*
Y00493250D01*
Y00491250D02*
X00663989Y00490764D01*
Y00481035D02*
Y00490764D01*
X00661989Y00480550D02*
X00663989Y00481035D01*
X00661989Y00478550D02*
Y00480550D01*
Y00478550D02*
X00663989Y00478064D01*
Y00468336D02*
Y00478064D01*
X00661989Y00467850D02*
X00663989Y00468336D01*
X00661989Y00463700D02*
Y00467850D01*
X00626500Y00463700D02*
X00661989D01*
X00626500Y00437750D02*
Y00463700D01*
Y00437750D02*
X00644050Y00420200D01*
X00679000D01*
X00269856Y00616465D02*
Y00617965D01*
X00261856Y00616465D02*
Y00617965D01*
X00283856Y00616465D02*
Y00617965D01*
X00275856Y00616465D02*
Y00617965D01*
X00337500Y00389500D02*
Y00415250D01*
X00331000D02*
X00337500D01*
X00331000Y00389750D02*
Y00415250D01*
X00666033Y00611223D02*
Y00617723D01*
X00637034D02*
X00666033D01*
X00637034Y00611223D02*
Y00617723D01*
Y00611223D02*
X00666033D01*
X00556008Y00262250D02*
X00563492D01*
X00574750Y00257250D02*
X00574750Y00256250D01*
Y00280250D02*
Y00281250D01*
X00566750D02*
X00574750D01*
X00544750D02*
X00552750D01*
X00544750Y00280250D02*
Y00281250D01*
Y00256250D02*
Y00257250D01*
Y00256250D02*
X00574750D01*
X00338250Y00366625D02*
X00339750D01*
X00338250Y00374625D02*
X00339750D01*
X00349750Y00316750D02*
X00361250D01*
X00422750Y00320250D02*
Y00331750D01*
X00390250Y00337250D02*
X00401750D01*
X00550500Y00317250D02*
Y00328750D01*
X00331000Y00259250D02*
X00333000D01*
X00302500D02*
X00304500Y00259250D01*
X00339000Y00255250D02*
X00339000Y00287250D01*
X00296500D02*
X00339000D01*
X00296500Y00255250D02*
X00339000D01*
X00299500Y00267000D02*
X00302500Y00267000D01*
Y00259250D02*
Y00267000D01*
X00299500Y00256250D02*
X00302500Y00259250D01*
X00299500Y00256250D02*
X00336000D01*
X00333000Y00259250D02*
X00336000Y00256250D01*
X00333000Y00259250D02*
Y00267000D01*
X00336000D01*
X00336000Y00256250D02*
X00336000Y00283250D01*
X00296500D02*
X00339000D01*
X00299500Y00256250D02*
X00299500Y00283250D01*
Y00275500D02*
X00302500D01*
Y00286250D01*
X00333000D02*
X00333000Y00275500D01*
X00336000D01*
X00331000Y00283250D02*
Y00287250D01*
X00304500D02*
X00304500Y00283250D01*
X00302500Y00286250D02*
X00333000D01*
X00368500Y00274750D02*
Y00276250D01*
X00360500Y00274750D02*
Y00276250D01*
X00891255Y00261273D02*
X00891255Y00327273D01*
X00859255Y00261273D02*
Y00327273D01*
Y00261273D02*
X00891255D01*
X00859255Y00327273D02*
X00891255D01*
X00985750Y00594960D02*
X00996750D01*
X00985750Y00578960D02*
X00996750D01*
X00869969Y00615673D02*
Y00626673D01*
X00853969Y00615673D02*
Y00626673D01*
X00761750Y00581960D02*
X00764707Y00584917D01*
X00761750Y00570960D02*
Y00581960D01*
Y00340536D02*
Y00356960D01*
X00770980Y00577311D02*
Y00579682D01*
X00761750Y00570960D02*
X00786250D01*
X00761750D02*
X00770980Y00577311D01*
X00772490D01*
X00761750Y00356960D02*
X00786250D01*
X00770980Y00350609D02*
X00772500D01*
X00768750Y00588960D02*
X00772490D01*
X00770980Y00579682D02*
X00772490D01*
X00764707Y00584917D02*
X00770980Y00579682D01*
X00761750Y00581960D02*
X00768750Y00588960D01*
X00771000Y00343960D02*
X00772500D01*
X00771000Y00338960D02*
Y00343960D01*
X00763750Y00338960D02*
X00771000D01*
X00770980Y00348238D02*
X00772500D01*
X00761750Y00356960D02*
X00770980Y00350609D01*
Y00348238D02*
Y00350609D01*
X00761750Y00340536D02*
X00770980Y00348238D01*
X00798750Y00329960D02*
Y00361460D01*
X00749250Y00329960D02*
Y00361460D01*
Y00566460D02*
Y00597960D01*
X00798750Y00566460D02*
Y00582960D01*
X00749250Y00329960D02*
X00798750D01*
X00783750Y00597960D02*
X00798750Y00582960D01*
X00749250Y00597960D02*
X00783750D01*
X00980750Y00274210D02*
Y00275710D01*
X00972750Y00274210D02*
Y00275710D01*
X00994250Y00274210D02*
Y00275710D01*
X00986250Y00274210D02*
Y00275710D01*
X01013250Y00275548D02*
Y00282048D01*
Y00275548D02*
X01042250D01*
Y00282048D01*
X01013250D02*
X01042250D01*
X00288000Y00590000D02*
Y00591000D01*
Y00603000D02*
Y00604000D01*
X00259000Y00603000D02*
Y00604000D01*
X01086733Y00359045D02*
Y00365710D01*
X01088399D01*
X01095064Y00359045D01*
X01096730D01*
X01095064Y00369042D02*
X01096730Y00370708D01*
Y00374041D01*
X01095064Y00375707D01*
X01088399D01*
X01086733Y00374041D01*
Y00370708D01*
X01088399Y00369042D01*
X01090066D01*
X01091732Y00370708D01*
Y00375707D01*
X01096730Y00560037D02*
Y00563369D01*
Y00561703D01*
X01086733D01*
X01088399Y00560037D01*
X01014217Y00358702D02*
X01012551Y00360368D01*
Y00363700D01*
X01014217Y00365367D01*
X01015883D01*
X01017550Y00363700D01*
X01019216Y00365367D01*
X01020882D01*
X01022548Y00363700D01*
Y00360368D01*
X01020882Y00358702D01*
X01019216D01*
X01017550Y00360368D01*
X01015883Y00358702D01*
X01014217D01*
X01017550Y00360368D02*
Y00363700D01*
X01014217Y00368699D02*
X01012551Y00370365D01*
Y00373697D01*
X01014217Y00375363D01*
X01020882D01*
X01022548Y00373697D01*
Y00370365D01*
X01020882Y00368699D01*
X01014217D01*
X00806733Y00359045D02*
Y00365710D01*
X00808399D01*
X00815064Y00359045D01*
X00816730D01*
X00815064Y00369042D02*
X00816730Y00370708D01*
Y00374041D01*
X00815064Y00375707D01*
X00808399D01*
X00806733Y00374041D01*
Y00370708D01*
X00808399Y00369042D01*
X00810066D01*
X00811732Y00370708D01*
Y00375707D01*
X00816730Y00560037D02*
Y00563369D01*
Y00561703D01*
X00806733D01*
X00808399Y00560037D01*
X00734217Y00358702D02*
X00732551Y00360368D01*
Y00363700D01*
X00734217Y00365367D01*
X00735883D01*
X00737550Y00363700D01*
X00739216Y00365367D01*
X00740882D01*
X00742548Y00363700D01*
Y00360368D01*
X00740882Y00358702D01*
X00739216D01*
X00737550Y00360368D01*
X00735883Y00358702D01*
X00734217D01*
X00737550Y00360368D02*
Y00363700D01*
X00734217Y00368699D02*
X00732551Y00370365D01*
Y00373697D01*
X00734217Y00375363D01*
X00740882D01*
X00742548Y00373697D01*
Y00370365D01*
X00740882Y00368699D01*
X00734217D01*
X00743310Y00564417D02*
Y00557753D01*
X00736646Y00564417D01*
X00734979D01*
X00733313Y00562751D01*
Y00559419D01*
X00734979Y00557753D01*
D67*
X01964422Y00565182D02*
X01977889Y00551714D01*
X01959933Y00560692D02*
X01968911Y00569671D01*
X01978210Y00569991D02*
X01977569Y00568068D01*
Y00565502D01*
X01978851Y00562937D01*
X01980134Y00561655D01*
X01982699Y00560372D01*
X01985264D01*
X01987188Y00561013D01*
X01989112Y00562937D01*
X01989753Y00564861D01*
X01989754Y00567426D01*
X01988471Y00569991D01*
X01987188Y00571274D01*
X01984623Y00572557D01*
X01982058Y00572557D01*
X01980134Y00571915D01*
X01978210Y00569991D01*
X01986290Y00578072D02*
X01999758Y00564604D01*
X01988214Y00576148D02*
Y00578713D01*
X01988856Y00580637D01*
X01990780Y00582561D01*
X01992704Y00583203D01*
X01995269D01*
X01997834Y00581920D01*
X01999117Y00580637D01*
X02000399Y00578072D01*
Y00575507D01*
X01999758Y00573583D01*
X01997834Y00571659D01*
X01995910Y00571018D01*
X01993345D01*
X02006812Y00607572D02*
X02006171Y00605648D01*
Y00603083D01*
X02006812Y00601159D01*
X02008095Y00598594D01*
X02011301Y00595387D01*
X02013867Y00594105D01*
X02015791Y00593463D01*
X02018356Y00593463D01*
X02020280Y00594105D01*
X02022845Y00596670D01*
X02023486Y00598594D01*
Y00601159D01*
X02022845Y00603083D01*
X02021562Y00605648D01*
X02018356Y00608855D01*
X02015791Y00610137D01*
X02013867Y00610779D01*
X02011301D01*
X02009377Y00610137D01*
X02006812Y00607572D01*
X02020857Y00612639D02*
X02033683Y00607508D01*
X02028553Y00620334D02*
X02033683Y00607508D01*
X02034581Y00618667D02*
X02042277Y00626363D01*
X02040994Y00627645D01*
X02039070Y00628287D01*
X02037787Y00628287D01*
X02035864Y00627645D01*
X02033940Y00625721D01*
X02033298Y00623797D01*
Y00621232D01*
X02034581Y00618667D01*
X02035864Y00617384D01*
X02038429Y00616102D01*
X02040994D01*
X02042918Y00616743D01*
X02044842Y00618667D01*
X02045483Y00620591D01*
X02045483Y00623156D01*
X02041315Y00633096D02*
X02050293Y00624118D01*
X02045163Y00629249D02*
X02043880Y00631814D01*
Y00634379D01*
X02044521Y00636303D01*
X02046445Y00638227D01*
X02043174Y00643934D02*
X02056642Y00630467D01*
X02058181Y00649963D02*
X02067159Y00640984D01*
X02060105Y00648039D02*
X02057540D01*
X02055616Y00647398D01*
X02053692Y00645474D01*
X02053051Y00643550D01*
Y00640984D01*
X02054333Y00638419D01*
X02055616Y00637137D01*
X02058181Y00635854D01*
X02060746D01*
X02062670Y00636495D01*
X02064594Y00638419D01*
X02065235Y00640343D01*
X02065236Y00642908D01*
X02062414Y00654195D02*
X02075240Y00649065D01*
X02070110Y00661891D02*
X02075240Y00649065D01*
X02076523Y00645217D01*
Y00642652D01*
X02075881Y00640728D01*
X02075240Y00640087D01*
D68*
X00294250Y00347000D02*
G03*
X00294250Y00347000I-00001250J00000000D01*
G01*
X00348250Y00414500D02*
G03*
X00348250Y00414500I-00001250J00000000D01*
G01*
X01082000Y00292798D02*
G03*
X01082000Y00292798I-00001250J00000000D01*
G01*
X00911750Y00668210D02*
G03*
X00911750Y00668210I-00001250J00000000D01*
G01*
X00592000Y00329000D02*
G03*
X00592000Y00329000I-00000500J00000000D01*
G01*
X00332250Y00548750D02*
G03*
X00332250Y00548750I-00001250J00000000D01*
G01*
X00465750Y00626000D02*
G03*
X00465750Y00626000I-00001250J00000000D01*
G01*
X00379500Y00603500D02*
G03*
X00379500Y00603500I-00001250J00000000D01*
G01*
X00621750Y00372250D02*
G03*
X00621750Y00372250I-00001250J00000000D01*
G01*
X01004750Y00257960D02*
G03*
X01004750Y00257960I-00001250J00000000D01*
G01*
X00619490Y00549400D02*
G03*
X00619490Y00549400I-00001250J00000000D01*
G01*
X00321500Y00418250D02*
G03*
X00321500Y00418250I-00001250J00000000D01*
G01*
X00635284Y00600473D02*
G03*
X00635284Y00600473I-00001250J00000000D01*
G01*
X00356012Y00373521D02*
G03*
X00356083Y00373936I-00001179J00000416D01*
G01*
X00365750Y00258500D02*
G03*
X00365750Y00258500I-00001250J00000000D01*
G01*
X00914505Y00260273D02*
G03*
X00914505Y00260273I-00001250J00000000D01*
G01*
X00978000Y00257960D02*
G03*
X00978000Y00257960I-00001250J00000000D01*
G01*
X00991500Y00257960D02*
G03*
X00991500Y00257960I-00001250J00000000D01*
G01*
X01046500Y00292798D02*
G03*
X01046500Y00292798I-00001250J00000000D01*
G01*
D69*
X01054500Y00308957D02*
X01059832D01*
X01057166D01*
Y00300960D01*
X01067829D02*
X01062497D01*
X01067829Y00306292D01*
Y00307624D01*
X01066496Y00308957D01*
X01063830D01*
X01062497Y00307624D01*
X00995750Y00665458D02*
Y00657460D01*
X01003139Y00663554D02*
X01002758Y00664316D01*
X01001996Y00665077D01*
X01001235Y00665458D01*
X00999711D01*
X00998949Y00665077D01*
X00998188Y00664316D01*
X00997807Y00663554D01*
X00997426Y00662411D01*
Y00660507D01*
X00997807Y00659364D01*
X00998188Y00658603D01*
X00998949Y00657841D01*
X00999711Y00657460D01*
X01001235D01*
X01001996Y00657841D01*
X01002758Y00658603D01*
X01003139Y00659364D01*
X01010718Y00665458D02*
X01006909Y00657460D01*
X01005386Y00665458D02*
X01010718D01*
X01088332Y00580957D02*
X01085666D01*
X01086999D01*
Y00574293D01*
X01085666Y00572960D01*
X01084333D01*
X01083000Y00574293D01*
X01096329Y00580957D02*
X01090997D01*
Y00576959D01*
X01093663Y00578292D01*
X01094996D01*
X01096329Y00576959D01*
Y00574293D01*
X01094996Y00572960D01*
X01092330D01*
X01090997Y00574293D01*
X00908000Y00584210D02*
Y00592207D01*
X00911999D01*
X00913332Y00590874D01*
Y00588209D01*
X00911999Y00586876D01*
X00908000D01*
X00910666D02*
X00913332Y00584210D01*
X00921329D02*
X00915997D01*
X00921329Y00589542D01*
Y00590874D01*
X00919996Y00592207D01*
X00917330D01*
X00915997Y00590874D01*
X00923995Y00592207D02*
X00929326D01*
Y00590874D01*
X00923995Y00585543D01*
Y00584210D01*
X01120500Y00331960D02*
X01112503D01*
Y00335959D01*
X01113836Y00337292D01*
X01116501D01*
X01117834Y00335959D01*
Y00331960D01*
Y00334626D02*
X01120500Y00337292D01*
X01113836Y00339957D02*
X01112503Y00341290D01*
Y00343956D01*
X01113836Y00345289D01*
X01115168D01*
X01116501Y00343956D01*
Y00342623D01*
Y00343956D01*
X01117834Y00345289D01*
X01119167D01*
X01120500Y00343956D01*
Y00341290D01*
X01119167Y00339957D01*
X01113836Y00347955D02*
X01112503Y00349288D01*
Y00351954D01*
X01113836Y00353286D01*
X01119167D01*
X01120500Y00351954D01*
Y00349288D01*
X01119167Y00347955D01*
X01113836D01*
X00809832Y00272457D02*
X00807166D01*
X00808499D01*
Y00265793D01*
X00807166Y00264460D01*
X00805833D01*
X00804500Y00265793D01*
X00812497Y00271124D02*
X00813830Y00272457D01*
X00816496D01*
X00817829Y00271124D01*
Y00269792D01*
X00816496Y00268459D01*
X00815163D01*
X00816496D01*
X00817829Y00267126D01*
Y00265793D01*
X00816496Y00264460D01*
X00813830D01*
X00812497Y00265793D01*
X01112503Y00304960D02*
X01120500D01*
Y00310292D01*
X01112503Y00312957D02*
X01120500D01*
Y00316956D01*
X01119167Y00318289D01*
X01113836D01*
X01112503Y00316956D01*
Y00312957D01*
X01120500Y00324953D02*
X01112503D01*
X01116501Y00320955D01*
Y00326286D01*
X00941082Y00364707D02*
X00935750D01*
Y00360709D01*
X00938416D01*
X00935750D01*
Y00356710D01*
X00943747Y00364707D02*
Y00356710D01*
X00947746D01*
X00949079Y00358043D01*
Y00359376D01*
X00947746Y00360709D01*
X00943747D01*
X00947746D01*
X00949079Y00362042D01*
Y00363374D01*
X00947746Y00364707D01*
X00943747D01*
X00957076Y00356710D02*
X00951745D01*
X00957076Y00362042D01*
Y00363374D01*
X00955744Y00364707D01*
X00953078D01*
X00951745Y00363374D01*
X01029000Y00662957D02*
Y00654960D01*
X01034332D01*
X01036997D02*
X01039663D01*
X01038330D01*
Y00662957D01*
X01036997Y00661625D01*
X00804500Y00302707D02*
Y00294710D01*
X00808499D01*
X00809832Y00296043D01*
Y00301374D01*
X00808499Y00302707D01*
X00804500D01*
X00817829Y00294710D02*
X00812497D01*
X00817829Y00300042D01*
Y00301374D01*
X00816496Y00302707D01*
X00813830D01*
X00812497Y00301374D01*
X00979291Y00350172D02*
X00977958Y00351505D01*
X00975292D01*
X00973959Y00350172D01*
Y00344840D01*
X00975292Y00343507D01*
X00977958D01*
X00979291Y00344840D01*
X00981957Y00350172D02*
X00983289Y00351505D01*
X00985955D01*
X00987288Y00350172D01*
Y00348839D01*
X00985955Y00347506D01*
X00984622D01*
X00985955D01*
X00987288Y00346173D01*
Y00344840D01*
X00985955Y00343507D01*
X00983289D01*
X00981957Y00344840D01*
X00989954Y00343507D02*
X00992620D01*
X00991287D01*
Y00351505D01*
X00989954Y00350172D01*
X00840918Y00619295D02*
X00842251Y00617962D01*
X00844917D01*
X00846250Y00619295D01*
Y00624627D01*
X00844917Y00625960D01*
X00842251D01*
X00840918Y00624627D01*
X00838253Y00617962D02*
X00832921D01*
Y00619295D01*
X00838253Y00624627D01*
Y00625960D01*
X00830255D02*
X00827589D01*
X00828922D01*
Y00617962D01*
X00830255Y00619295D01*
X01007832Y00517124D02*
X01006499Y00518457D01*
X01003833D01*
X01002500Y00517124D01*
Y00511793D01*
X01003833Y00510460D01*
X01006499D01*
X01007832Y00511793D01*
X01010497Y00510460D02*
X01013163D01*
X01011830D01*
Y00518457D01*
X01010497Y00517124D01*
X01017162Y00511793D02*
X01018495Y00510460D01*
X01021161D01*
X01022494Y00511793D01*
Y00517124D01*
X01021161Y00518457D01*
X01018495D01*
X01017162Y00517124D01*
Y00515792D01*
X01018495Y00514459D01*
X01022494D01*
X01103003Y00527460D02*
Y00532792D01*
Y00530126D01*
X01111000D01*
Y00535457D02*
X01103003D01*
Y00539456D01*
X01104335Y00540789D01*
X01107001D01*
X01108334Y00539456D01*
Y00535457D01*
X01111000Y00543455D02*
Y00546121D01*
Y00544788D01*
X01103003D01*
X01104335Y00543455D01*
X01103003Y00555451D02*
Y00550119D01*
X01107001D01*
X01105668Y00552785D01*
Y00554118D01*
X01107001Y00555451D01*
X01109667D01*
X01111000Y00554118D01*
Y00551452D01*
X01109667Y00550119D01*
X00950163Y00262122D02*
X00958161D01*
X00950163D02*
Y00265550D01*
X00950544Y00266693D01*
X00950925Y00267074D01*
X00951686Y00267454D01*
X00952448D01*
X00953210Y00267074D01*
X00953591Y00266693D01*
X00953972Y00265550D01*
Y00262122D01*
Y00264788D02*
X00958161Y00267454D01*
X00952067Y00269625D02*
X00951686D01*
X00950925Y00270006D01*
X00950544Y00270387D01*
X00950163Y00271149D01*
Y00272672D01*
X00950544Y00273434D01*
X00950925Y00273815D01*
X00951686Y00274196D01*
X00952448D01*
X00953210Y00273815D01*
X00954353Y00273053D01*
X00958161Y00269244D01*
Y00274577D01*
X00952067Y00276748D02*
X00951686D01*
X00950925Y00277129D01*
X00950544Y00277509D01*
X00950163Y00278271D01*
Y00279795D01*
X00950544Y00280556D01*
X00950925Y00280937D01*
X00951686Y00281318D01*
X00952448D01*
X00953210Y00280937D01*
X00954353Y00280175D01*
X00958161Y00276367D01*
Y00281699D01*
X01002511Y00409315D02*
Y00401317D01*
Y00409315D02*
X01005938D01*
X01007081Y00408935D01*
X01007462Y00408554D01*
X01007843Y00407792D01*
Y00407030D01*
X01007462Y00406269D01*
X01007081Y00405888D01*
X01005938Y00405507D01*
X01002511D01*
X01005177D02*
X01007843Y00401317D01*
X01009633Y00407792D02*
X01010395Y00408173D01*
X01011537Y00409315D01*
Y00401317D01*
X00810000Y00327208D02*
Y00319210D01*
X00817389Y00325304D02*
X00817008Y00326066D01*
X00816246Y00326827D01*
X00815485Y00327208D01*
X00813961D01*
X00813199Y00326827D01*
X00812438Y00326066D01*
X00812057Y00325304D01*
X00811676Y00324161D01*
Y00322257D01*
X00812057Y00321114D01*
X00812438Y00320353D01*
X00813199Y00319591D01*
X00813961Y00319210D01*
X00815485D01*
X00816246Y00319591D01*
X00817008Y00320353D01*
X00817389Y00321114D01*
X00824206Y00326066D02*
X00823826Y00326827D01*
X00822683Y00327208D01*
X00821921D01*
X00820779Y00326827D01*
X00820017Y00325685D01*
X00819636Y00323780D01*
Y00321876D01*
X00820017Y00320353D01*
X00820779Y00319591D01*
X00821921Y00319210D01*
X00822302D01*
X00823445Y00319591D01*
X00824206Y00320353D01*
X00824587Y00321495D01*
Y00321876D01*
X00824206Y00323019D01*
X00823445Y00323780D01*
X00822302Y00324161D01*
X00821921D01*
X00820779Y00323780D01*
X00820017Y00323019D01*
X00819636Y00321876D01*
X01008213Y00505054D02*
X01007832Y00505816D01*
X01007070Y00506577D01*
X01006309Y00506958D01*
X01004785D01*
X01004024Y00506577D01*
X01003262Y00505816D01*
X01002881Y00505054D01*
X01002500Y00503911D01*
Y00502007D01*
X01002881Y00500864D01*
X01003262Y00500103D01*
X01004024Y00499341D01*
X01004785Y00498960D01*
X01006309D01*
X01007070Y00499341D01*
X01007832Y00500103D01*
X01008213Y00500864D01*
X01015412Y00504292D02*
X01015031Y00503149D01*
X01014269Y00502388D01*
X01013126Y00502007D01*
X01012746D01*
X01011603Y00502388D01*
X01010841Y00503149D01*
X01010460Y00504292D01*
Y00504673D01*
X01010841Y00505816D01*
X01011603Y00506577D01*
X01012746Y00506958D01*
X01013126D01*
X01014269Y00506577D01*
X01015031Y00505816D01*
X01015412Y00504292D01*
Y00502388D01*
X01015031Y00500484D01*
X01014269Y00499341D01*
X01013126Y00498960D01*
X01012365D01*
X01011222Y00499341D01*
X01010841Y00500103D01*
X01008223Y00462054D02*
X01007843Y00462816D01*
X01007081Y00463578D01*
X01006319Y00463959D01*
X01004796D01*
X01004034Y00463578D01*
X01003272Y00462816D01*
X01002891Y00462054D01*
X01002511Y00460911D01*
Y00459007D01*
X01002891Y00457864D01*
X01003272Y00457103D01*
X01004034Y00456341D01*
X01004796Y00455960D01*
X01006319D01*
X01007081Y00456341D01*
X01007843Y00457103D01*
X01008223Y00457864D01*
X01011232Y00463959D02*
X01015422D01*
X01013137Y00460911D01*
X01014279D01*
X01015041Y00460531D01*
X01015422Y00460150D01*
X01015803Y00459007D01*
Y00458245D01*
X01015422Y00457103D01*
X01014660Y00456341D01*
X01013518Y00455960D01*
X01012375D01*
X01011232Y00456341D01*
X01010852Y00456722D01*
X01010471Y00457484D01*
X01019878Y00463959D02*
X01018736Y00463578D01*
X01017974Y00462435D01*
X01017593Y00460531D01*
Y00459388D01*
X01017974Y00457484D01*
X01018736Y00456341D01*
X01019878Y00455960D01*
X01020640D01*
X01021783Y00456341D01*
X01022544Y00457484D01*
X01022925Y00459388D01*
Y00460531D01*
X01022544Y00462435D01*
X01021783Y00463578D01*
X01020640Y00463959D01*
X01019878D01*
X01011713Y00569054D02*
X01011332Y00569816D01*
X01010571Y00570577D01*
X01009809Y00570958D01*
X01008285D01*
X01007523Y00570577D01*
X01006762Y00569816D01*
X01006381Y00569054D01*
X01006000Y00567911D01*
Y00566007D01*
X01006381Y00564864D01*
X01006762Y00564103D01*
X01007523Y00563341D01*
X01008285Y00562960D01*
X01009809D01*
X01010571Y00563341D01*
X01011332Y00564103D01*
X01011713Y00564864D01*
X01014341Y00569054D02*
Y00569435D01*
X01014722Y00570196D01*
X01015103Y00570577D01*
X01015865Y00570958D01*
X01017388D01*
X01018150Y00570577D01*
X01018531Y00570196D01*
X01018912Y00569435D01*
Y00568673D01*
X01018531Y00567911D01*
X01017769Y00566769D01*
X01013960Y00562960D01*
X01019292D01*
X01026034Y00568292D02*
X01025653Y00567150D01*
X01024891Y00566388D01*
X01023749Y00566007D01*
X01023368D01*
X01022225Y00566388D01*
X01021463Y00567150D01*
X01021083Y00568292D01*
Y00568673D01*
X01021463Y00569816D01*
X01022225Y00570577D01*
X01023368Y00570958D01*
X01023749D01*
X01024891Y00570577D01*
X01025653Y00569816D01*
X01026034Y00568292D01*
Y00566388D01*
X01025653Y00564483D01*
X01024891Y00563341D01*
X01023749Y00562960D01*
X01022987D01*
X01021844Y00563341D01*
X01021463Y00564103D01*
X01022594Y00590997D02*
X01023356Y00591378D01*
X01024118Y00592140D01*
X01024498Y00592901D01*
Y00594425D01*
X01024118Y00595187D01*
X01023356Y00595948D01*
X01022594Y00596329D01*
X01021451Y00596710D01*
X01019547D01*
X01018404Y00596329D01*
X01017643Y00595948D01*
X01016881Y00595187D01*
X01016500Y00594425D01*
Y00592901D01*
X01016881Y00592140D01*
X01017643Y00591378D01*
X01018404Y00590997D01*
X01022594Y00588369D02*
X01022975D01*
X01023737Y00587988D01*
X01024118Y00587607D01*
X01024498Y00586845D01*
Y00585322D01*
X01024118Y00584560D01*
X01023737Y00584179D01*
X01022975Y00583798D01*
X01022213D01*
X01021451Y00584179D01*
X01020309Y00584941D01*
X01016500Y00588750D01*
Y00583418D01*
X01024498Y00579723D02*
X01024118Y00580866D01*
X01023356Y00581247D01*
X01022594D01*
X01021832Y00580866D01*
X01021451Y00580104D01*
X01021070Y00578581D01*
X01020690Y00577438D01*
X01019928Y00576676D01*
X01019166Y00576295D01*
X01018024D01*
X01017262Y00576676D01*
X01016881Y00577057D01*
X01016500Y00578200D01*
Y00579723D01*
X01016881Y00580866D01*
X01017262Y00581247D01*
X01018024Y00581628D01*
X01019166D01*
X01019928Y00581247D01*
X01020690Y00580485D01*
X01021070Y00579342D01*
X01021451Y00577819D01*
X01021832Y00577057D01*
X01022594Y00576676D01*
X01023356D01*
X01024118Y00577057D01*
X01024498Y00578200D01*
Y00579723D01*
X00859094Y00375247D02*
X00859856Y00375628D01*
X00860617Y00376390D01*
X00860998Y00377151D01*
Y00378675D01*
X00860617Y00379436D01*
X00859856Y00380198D01*
X00859094Y00380579D01*
X00857951Y00380960D01*
X00856047D01*
X00854904Y00380579D01*
X00854143Y00380198D01*
X00853381Y00379436D01*
X00853000Y00378675D01*
Y00377151D01*
X00853381Y00376390D01*
X00854143Y00375628D01*
X00854904Y00375247D01*
X00859094Y00372619D02*
X00859475D01*
X00860237Y00372238D01*
X00860617Y00371857D01*
X00860998Y00371095D01*
Y00369572D01*
X00860617Y00368810D01*
X00860237Y00368429D01*
X00859475Y00368048D01*
X00858713D01*
X00857951Y00368429D01*
X00856809Y00369191D01*
X00853000Y00373000D01*
Y00367668D01*
X00860998Y00361307D02*
Y00365116D01*
X00857570Y00365497D01*
X00857951Y00365116D01*
X00858332Y00363973D01*
Y00362831D01*
X00857951Y00361688D01*
X00857190Y00360926D01*
X00856047Y00360545D01*
X00855285D01*
X00854143Y00360926D01*
X00853381Y00361688D01*
X00853000Y00362831D01*
Y00363973D01*
X00853381Y00365116D01*
X00853762Y00365497D01*
X00854523Y00365877D01*
X00881844Y00580747D02*
X00882606Y00581128D01*
X00883367Y00581889D01*
X00883748Y00582651D01*
Y00584175D01*
X00883367Y00584936D01*
X00882606Y00585698D01*
X00881844Y00586079D01*
X00880701Y00586460D01*
X00878797D01*
X00877654Y00586079D01*
X00876893Y00585698D01*
X00876131Y00584936D01*
X00875750Y00584175D01*
Y00582651D01*
X00876131Y00581889D01*
X00876893Y00581128D01*
X00877654Y00580747D01*
X00881844Y00578119D02*
X00882225D01*
X00882987Y00577738D01*
X00883367Y00577357D01*
X00883748Y00576595D01*
Y00575072D01*
X00883367Y00574310D01*
X00882987Y00573929D01*
X00882225Y00573548D01*
X00881463D01*
X00880701Y00573929D01*
X00879559Y00574691D01*
X00875750Y00578500D01*
Y00573168D01*
X00873594Y00554747D02*
X00874356Y00555128D01*
X00875117Y00555890D01*
X00875498Y00556651D01*
Y00558175D01*
X00875117Y00558937D01*
X00874356Y00559698D01*
X00873594Y00560079D01*
X00872451Y00560460D01*
X00870547D01*
X00869404Y00560079D01*
X00868643Y00559698D01*
X00867881Y00558937D01*
X00867500Y00558175D01*
Y00556651D01*
X00867881Y00555890D01*
X00868643Y00555128D01*
X00869404Y00554747D01*
X00873975Y00552500D02*
X00874356Y00551738D01*
X00875498Y00550595D01*
X00867500D01*
X00872094Y00375497D02*
X00872856Y00375878D01*
X00873617Y00376640D01*
X00873998Y00377401D01*
Y00378925D01*
X00873617Y00379687D01*
X00872856Y00380448D01*
X00872094Y00380829D01*
X00870951Y00381210D01*
X00869047D01*
X00867904Y00380829D01*
X00867143Y00380448D01*
X00866381Y00379687D01*
X00866000Y00378925D01*
Y00377401D01*
X00866381Y00376640D01*
X00867143Y00375878D01*
X00867904Y00375497D01*
X00872094Y00372869D02*
X00872475D01*
X00873237Y00372488D01*
X00873617Y00372107D01*
X00873998Y00371345D01*
Y00369822D01*
X00873617Y00369060D01*
X00873237Y00368679D01*
X00872475Y00368298D01*
X00871713D01*
X00870951Y00368679D01*
X00869809Y00369441D01*
X00866000Y00373250D01*
Y00367918D01*
X00872094Y00365747D02*
X00872475D01*
X00873237Y00365366D01*
X00873617Y00364985D01*
X00873998Y00364223D01*
Y00362700D01*
X00873617Y00361938D01*
X00873237Y00361557D01*
X00872475Y00361176D01*
X00871713D01*
X00870951Y00361557D01*
X00869809Y00362319D01*
X00866000Y00366128D01*
Y00360795D01*
X00858963Y00593554D02*
X00858582Y00594316D01*
X00857821Y00595077D01*
X00857059Y00595458D01*
X00855535D01*
X00854773Y00595077D01*
X00854012Y00594316D01*
X00853631Y00593554D01*
X00853250Y00592411D01*
Y00590507D01*
X00853631Y00589364D01*
X00854012Y00588603D01*
X00854773Y00587841D01*
X00855535Y00587460D01*
X00857059D01*
X00857821Y00587841D01*
X00858582Y00588603D01*
X00858963Y00589364D01*
X00861591Y00593554D02*
Y00593935D01*
X00861972Y00594697D01*
X00862353Y00595077D01*
X00863115Y00595458D01*
X00864638D01*
X00865400Y00595077D01*
X00865781Y00594697D01*
X00866161Y00593935D01*
Y00593173D01*
X00865781Y00592411D01*
X00865019Y00591269D01*
X00861210Y00587460D01*
X00866542D01*
X00868333Y00593935D02*
X00869094Y00594316D01*
X00870237Y00595458D01*
Y00587460D01*
X00834094Y00464247D02*
X00834856Y00464628D01*
X00835618Y00465390D01*
X00835998Y00466151D01*
Y00467675D01*
X00835618Y00468437D01*
X00834856Y00469198D01*
X00834094Y00469579D01*
X00832951Y00469960D01*
X00831047D01*
X00829904Y00469579D01*
X00829143Y00469198D01*
X00828381Y00468437D01*
X00828000Y00467675D01*
Y00466151D01*
X00828381Y00465390D01*
X00829143Y00464628D01*
X00829904Y00464247D01*
X00834094Y00461619D02*
X00834475D01*
X00835237Y00461238D01*
X00835618Y00460857D01*
X00835998Y00460095D01*
Y00458572D01*
X00835618Y00457810D01*
X00835237Y00457429D01*
X00834475Y00457048D01*
X00833713D01*
X00832951Y00457429D01*
X00831809Y00458191D01*
X00828000Y00462000D01*
Y00456668D01*
X00835998Y00452592D02*
X00835618Y00453735D01*
X00834475Y00454497D01*
X00832570Y00454878D01*
X00831428D01*
X00829523Y00454497D01*
X00828381Y00453735D01*
X00828000Y00452592D01*
Y00451830D01*
X00828381Y00450688D01*
X00829523Y00449926D01*
X00831428Y00449545D01*
X00832570D01*
X00834475Y00449926D01*
X00835618Y00450688D01*
X00835998Y00451830D01*
Y00452592D01*
X00821344Y00464997D02*
X00822106Y00465378D01*
X00822867Y00466139D01*
X00823248Y00466901D01*
Y00468425D01*
X00822867Y00469187D01*
X00822106Y00469948D01*
X00821344Y00470329D01*
X00820201Y00470710D01*
X00818297D01*
X00817154Y00470329D01*
X00816393Y00469948D01*
X00815631Y00469187D01*
X00815250Y00468425D01*
Y00466901D01*
X00815631Y00466139D01*
X00816393Y00465378D01*
X00817154Y00464997D01*
X00821344Y00462369D02*
X00821725D01*
X00822487Y00461988D01*
X00822867Y00461607D01*
X00823248Y00460845D01*
Y00459322D01*
X00822867Y00458560D01*
X00822487Y00458179D01*
X00821725Y00457798D01*
X00820963D01*
X00820201Y00458179D01*
X00819059Y00458941D01*
X00815250Y00462750D01*
Y00457418D01*
X00823248Y00454866D02*
Y00450676D01*
X00820201Y00452961D01*
Y00451819D01*
X00819820Y00451057D01*
X00819440Y00450676D01*
X00818297Y00450295D01*
X00817535D01*
X00816393Y00450676D01*
X00815631Y00451438D01*
X00815250Y00452580D01*
Y00453723D01*
X00815631Y00454866D01*
X00816012Y00455247D01*
X00816774Y00455628D01*
X00923002Y00331710D02*
X00931000D01*
X00923002D02*
Y00335138D01*
X00923383Y00336280D01*
X00923764Y00336661D01*
X00924525Y00337042D01*
X00925287D01*
X00926049Y00336661D01*
X00926430Y00336280D01*
X00926810Y00335138D01*
Y00331710D01*
Y00334376D02*
X00931000Y00337042D01*
X00924906Y00339213D02*
X00924525D01*
X00923764Y00339594D01*
X00923383Y00339975D01*
X00923002Y00340737D01*
Y00342260D01*
X00923383Y00343022D01*
X00923764Y00343403D01*
X00924525Y00343784D01*
X00925287D01*
X00926049Y00343403D01*
X00927191Y00342641D01*
X00931000Y00338832D01*
Y00344165D01*
X00923002Y00346716D02*
Y00350906D01*
X00926049Y00348621D01*
Y00349763D01*
X00926430Y00350525D01*
X00926810Y00350906D01*
X00927953Y00351287D01*
X00928715D01*
X00929857Y00350906D01*
X00930619Y00350144D01*
X00931000Y00349002D01*
Y00347859D01*
X00930619Y00346716D01*
X00930238Y00346335D01*
X00929476Y00345955D01*
X00979500Y00473708D02*
Y00465710D01*
Y00473708D02*
X00982928D01*
X00984071Y00473327D01*
X00984451Y00472947D01*
X00984832Y00472185D01*
Y00471423D01*
X00984451Y00470661D01*
X00984071Y00470280D01*
X00982928Y00469899D01*
X00979500D01*
X00982166D02*
X00984832Y00465710D01*
X00990431Y00473708D02*
X00986622Y00468376D01*
X00992335D01*
X00990431Y00473708D02*
Y00465710D01*
X00818415Y00623378D02*
X00819747Y00624711D01*
Y00627377D01*
X00818415Y00628710D01*
X00813083D01*
X00811750Y00627377D01*
Y00624711D01*
X00813083Y00623378D01*
X00811750Y00615381D02*
Y00620713D01*
X00817082Y00615381D01*
X00818415D01*
X00819747Y00616714D01*
Y00619380D01*
X00818415Y00620713D01*
X00811750Y00608716D02*
X00819747D01*
X00815749Y00612715D01*
Y00607383D01*
X00885915Y00555378D02*
X00887247Y00556711D01*
Y00559377D01*
X00885915Y00560710D01*
X00880583D01*
X00879250Y00559377D01*
Y00556711D01*
X00880583Y00555378D01*
X00885915Y00552713D02*
X00887247Y00551380D01*
Y00548714D01*
X00885915Y00547381D01*
X00884582D01*
X00883249Y00548714D01*
Y00550047D01*
Y00548714D01*
X00881916Y00547381D01*
X00880583D01*
X00879250Y00548714D01*
Y00551380D01*
X00880583Y00552713D01*
X00978664Y00558878D02*
X00979997Y00560211D01*
Y00562877D01*
X00978664Y00564210D01*
X00973333D01*
X00972000Y00562877D01*
Y00560211D01*
X00973333Y00558878D01*
X00972000Y00552214D02*
X00979997D01*
X00975999Y00556213D01*
Y00550881D01*
X00966915Y00558878D02*
X00968247Y00560211D01*
Y00562877D01*
X00966915Y00564210D01*
X00961583D01*
X00960250Y00562877D01*
Y00560211D01*
X00961583Y00558878D01*
X00968247Y00550881D02*
Y00556213D01*
X00964249D01*
X00965582Y00553547D01*
Y00552214D01*
X00964249Y00550881D01*
X00961583D01*
X00960250Y00552214D01*
Y00554880D01*
X00961583Y00556213D01*
X00893914Y00581128D02*
X00895247Y00582461D01*
Y00585127D01*
X00893914Y00586460D01*
X00888583D01*
X00887250Y00585127D01*
Y00582461D01*
X00888583Y00581128D01*
X00895247Y00573131D02*
X00893914Y00575797D01*
X00891249Y00578462D01*
X00888583D01*
X00887250Y00577130D01*
Y00574464D01*
X00888583Y00573131D01*
X00889916D01*
X00891249Y00574464D01*
Y00578462D01*
X00966332Y00387625D02*
X00964999Y00388957D01*
X00962333D01*
X00961000Y00387625D01*
Y00382293D01*
X00962333Y00380960D01*
X00964999D01*
X00966332Y00382293D01*
X00974329Y00380960D02*
X00968997D01*
X00974329Y00386292D01*
Y00387625D01*
X00972996Y00388957D01*
X00970330D01*
X00968997Y00387625D01*
X00982327Y00388957D02*
X00979661Y00387625D01*
X00976995Y00384959D01*
Y00382293D01*
X00978328Y00380960D01*
X00980994D01*
X00982327Y00382293D01*
Y00383626D01*
X00980994Y00384959D01*
X00976995D01*
X00886065Y00375728D02*
X00887398Y00377061D01*
Y00379727D01*
X00886065Y00381060D01*
X00880733D01*
X00879400Y00379727D01*
Y00377061D01*
X00880733Y00375728D01*
X00879400Y00367731D02*
Y00373063D01*
X00884732Y00367731D01*
X00886065D01*
X00887398Y00369064D01*
Y00371730D01*
X00886065Y00373063D01*
X00887398Y00365065D02*
Y00359734D01*
X00886065D01*
X00880733Y00365065D01*
X00879400D01*
X01007842Y00451696D02*
X01006509Y00453029D01*
X01003843D01*
X01002511Y00451696D01*
Y00446365D01*
X01003843Y00445032D01*
X01006509D01*
X01007842Y00446365D01*
X01010508Y00453029D02*
X01015839D01*
Y00451696D01*
X01010508Y00446365D01*
Y00445032D01*
X00984082Y00460874D02*
X00982749Y00462207D01*
X00980083D01*
X00978750Y00460874D01*
Y00455543D01*
X00980083Y00454210D01*
X00982749D01*
X00984082Y00455543D01*
X00986747Y00460874D02*
X00988080Y00462207D01*
X00990746D01*
X00992079Y00460874D01*
Y00459542D01*
X00990746Y00458209D01*
X00992079Y00456876D01*
Y00455543D01*
X00990746Y00454210D01*
X00988080D01*
X00986747Y00455543D01*
Y00456876D01*
X00988080Y00458209D01*
X00986747Y00459542D01*
Y00460874D01*
X00988080Y00458209D02*
X00990746D01*
X01007832Y00481624D02*
X01006499Y00482957D01*
X01003833D01*
X01002500Y00481624D01*
Y00476293D01*
X01003833Y00474960D01*
X01006499D01*
X01007832Y00476293D01*
X01010497Y00474960D02*
X01013163D01*
X01011830D01*
Y00482957D01*
X01010497Y00481624D01*
X01017162D02*
X01018495Y00482957D01*
X01021161D01*
X01022494Y00481624D01*
Y00476293D01*
X01021161Y00474960D01*
X01018495D01*
X01017162Y00476293D01*
Y00481624D01*
X01007832Y00494375D02*
X01006499Y00495707D01*
X01003833D01*
X01002500Y00494375D01*
Y00489043D01*
X01003833Y00487710D01*
X01006499D01*
X01007832Y00489043D01*
X01010497Y00487710D02*
X01013163D01*
X01011830D01*
Y00495707D01*
X01010497Y00494375D01*
X01017162Y00487710D02*
X01019828D01*
X01018495D01*
Y00495707D01*
X01017162Y00494375D01*
X00965441Y00493125D02*
X00964108Y00494457D01*
X00961442D01*
X00960109Y00493125D01*
Y00487793D01*
X00961442Y00486460D01*
X00964108D01*
X00965441Y00487793D01*
X00968106Y00486460D02*
X00970772D01*
X00969439D01*
Y00494457D01*
X00968106Y00493125D01*
X00980102Y00486460D02*
X00974771D01*
X00980102Y00491792D01*
Y00493125D01*
X00978770Y00494457D01*
X00976104D01*
X00974771Y00493125D01*
X01007842Y00429839D02*
X01006509Y00431172D01*
X01003843D01*
X01002511Y00429839D01*
Y00424507D01*
X01003843Y00423174D01*
X01006509D01*
X01007842Y00424507D01*
X01010508Y00423174D02*
X01013174D01*
X01011841D01*
Y00431172D01*
X01010508Y00429839D01*
X01017172D02*
X01018505Y00431172D01*
X01021171D01*
X01022504Y00429839D01*
Y00428506D01*
X01021171Y00427173D01*
X01019838D01*
X01021171D01*
X01022504Y00425840D01*
Y00424507D01*
X01021171Y00423174D01*
X01018505D01*
X01017172Y00424507D01*
X01007842Y00440768D02*
X01006509Y00442100D01*
X01003843D01*
X01002511Y00440768D01*
Y00435436D01*
X01003843Y00434103D01*
X01006509D01*
X01007842Y00435436D01*
X01010508Y00434103D02*
X01013174D01*
X01011841D01*
Y00442100D01*
X01010508Y00440768D01*
X01021171Y00434103D02*
Y00442100D01*
X01017172Y00438102D01*
X01022504D01*
X00973836Y00360292D02*
X00972503Y00358959D01*
Y00356293D01*
X00973836Y00354960D01*
X00979167D01*
X00980500Y00356293D01*
Y00358959D01*
X00979167Y00360292D01*
X00973836Y00362957D02*
X00972503Y00364290D01*
Y00366956D01*
X00973836Y00368289D01*
X00975168D01*
X00976501Y00366956D01*
Y00365623D01*
Y00366956D01*
X00977834Y00368289D01*
X00979167D01*
X00980500Y00366956D01*
Y00364290D01*
X00979167Y00362957D01*
X00980500Y00376286D02*
Y00370955D01*
X00975168Y00376286D01*
X00973836D01*
X00972503Y00374953D01*
Y00372288D01*
X00973836Y00370955D01*
X00990415Y00558878D02*
X00991747Y00560211D01*
Y00562877D01*
X00990415Y00564210D01*
X00985083D01*
X00983750Y00562877D01*
Y00560211D01*
X00985083Y00558878D01*
X00990415Y00556213D02*
X00991747Y00554880D01*
Y00552214D01*
X00990415Y00550881D01*
X00989082D01*
X00987749Y00552214D01*
Y00553547D01*
Y00552214D01*
X00986416Y00550881D01*
X00985083D01*
X00983750Y00552214D01*
Y00554880D01*
X00985083Y00556213D01*
X00990415Y00548215D02*
X00991747Y00546882D01*
Y00544216D01*
X00990415Y00542883D01*
X00989082D01*
X00987749Y00544216D01*
Y00545549D01*
Y00544216D01*
X00986416Y00542883D01*
X00985083D01*
X00983750Y00544216D01*
Y00546882D01*
X00985083Y00548215D01*
X00962349Y00360292D02*
X00961016Y00358959D01*
Y00356293D01*
X00962349Y00354960D01*
X00967680D01*
X00969013Y00356293D01*
Y00358959D01*
X00967680Y00360292D01*
X00962349Y00362957D02*
X00961016Y00364290D01*
Y00366956D01*
X00962349Y00368289D01*
X00963682D01*
X00965014Y00366956D01*
Y00365623D01*
Y00366956D01*
X00966347Y00368289D01*
X00967680D01*
X00969013Y00366956D01*
Y00364290D01*
X00967680Y00362957D01*
X00969013Y00374954D02*
X00961016D01*
X00965014Y00370955D01*
Y00376286D01*
X01007842Y00418910D02*
X01006509Y00420243D01*
X01003843D01*
X01002511Y00418910D01*
Y00413579D01*
X01003843Y00412246D01*
X01006509D01*
X01007842Y00413579D01*
X01010508Y00412246D02*
X01013174D01*
X01011841D01*
Y00420243D01*
X01010508Y00418910D01*
X01022504Y00420243D02*
X01017172D01*
Y00416245D01*
X01019838Y00417577D01*
X01021171D01*
X01022504Y00416245D01*
Y00413579D01*
X01021171Y00412246D01*
X01018505D01*
X01017172Y00413579D01*
X01002165Y00558878D02*
X01003497Y00560211D01*
Y00562877D01*
X01002165Y00564210D01*
X00996833D01*
X00995500Y00562877D01*
Y00560211D01*
X00996833Y00558878D01*
X00995500Y00556213D02*
Y00553547D01*
Y00554880D01*
X01003497D01*
X01002165Y00556213D01*
X01003497Y00544216D02*
X01002165Y00546882D01*
X00999499Y00549548D01*
X00996833D01*
X00995500Y00548215D01*
Y00545549D01*
X00996833Y00544216D01*
X00998166D01*
X00999499Y00545549D01*
Y00549548D01*
X01007832Y00528374D02*
X01006499Y00529707D01*
X01003833D01*
X01002500Y00528374D01*
Y00523043D01*
X01003833Y00521710D01*
X01006499D01*
X01007832Y00523043D01*
X01010497Y00521710D02*
X01013163D01*
X01011830D01*
Y00529707D01*
X01010497Y00528374D01*
X01017162Y00529707D02*
X01022494D01*
Y00528374D01*
X01017162Y00523043D01*
Y00521710D01*
X01008582Y00539874D02*
X01007249Y00541207D01*
X01004583D01*
X01003250Y00539874D01*
Y00534543D01*
X01004583Y00533210D01*
X01007249D01*
X01008582Y00534543D01*
X01011247Y00533210D02*
X01013913D01*
X01012580D01*
Y00541207D01*
X01011247Y00539874D01*
X01017912D02*
X01019245Y00541207D01*
X01021911D01*
X01023244Y00539874D01*
Y00538542D01*
X01021911Y00537209D01*
X01023244Y00535876D01*
Y00534543D01*
X01021911Y00533210D01*
X01019245D01*
X01017912Y00534543D01*
Y00535876D01*
X01019245Y00537209D01*
X01017912Y00538542D01*
Y00539874D01*
X01019245Y00537209D02*
X01021911D01*
X00962586Y00267042D02*
X00961253Y00265709D01*
Y00263043D01*
X00962586Y00261710D01*
X00967917D01*
X00969250Y00263043D01*
Y00265709D01*
X00967917Y00267042D01*
X00961253Y00275039D02*
X00962586Y00272373D01*
X00965251Y00269707D01*
X00967917D01*
X00969250Y00271040D01*
Y00273706D01*
X00967917Y00275039D01*
X00966584D01*
X00965251Y00273706D01*
Y00269707D01*
X00962586Y00277705D02*
X00961253Y00279038D01*
Y00281703D01*
X00962586Y00283036D01*
X00963918D01*
X00965251Y00281703D01*
X00966584Y00283036D01*
X00967917D01*
X00969250Y00281703D01*
Y00279038D01*
X00967917Y00277705D01*
X00966584D01*
X00965251Y00279038D01*
X00963918Y00277705D01*
X00962586D01*
X00965251Y00279038D02*
Y00281703D01*
X00941440Y00351563D02*
X00940107Y00352896D01*
X00937441D01*
X00936108Y00351563D01*
Y00346231D01*
X00937441Y00344898D01*
X00940107D01*
X00941440Y00346231D01*
X00949437Y00352896D02*
X00946772Y00351563D01*
X00944106Y00348897D01*
Y00346231D01*
X00945439Y00344898D01*
X00948105D01*
X00949437Y00346231D01*
Y00347564D01*
X00948105Y00348897D01*
X00944106D01*
X00952103Y00346231D02*
X00953436Y00344898D01*
X00956102D01*
X00957435Y00346231D01*
Y00351563D01*
X00956102Y00352896D01*
X00953436D01*
X00952103Y00351563D01*
Y00350230D01*
X00953436Y00348897D01*
X00957435D01*
X00848832Y00651124D02*
X00847499Y00652457D01*
X00844833D01*
X00843500Y00651124D01*
Y00645793D01*
X00844833Y00644460D01*
X00847499D01*
X00848832Y00645793D01*
X00851497Y00652457D02*
X00856829D01*
Y00651124D01*
X00851497Y00645793D01*
Y00644460D01*
X00859495Y00651124D02*
X00860828Y00652457D01*
X00863494D01*
X00864827Y00651124D01*
Y00645793D01*
X00863494Y00644460D01*
X00860828D01*
X00859495Y00645793D01*
Y00651124D01*
X00839418Y00602962D02*
X00844750D01*
Y00606961D01*
X00842084D01*
X00844750D01*
Y00610960D01*
X00836753Y00602962D02*
Y00610960D01*
X00832754D01*
X00831421Y00609627D01*
Y00608294D01*
X00832754Y00606961D01*
X00836753D01*
X00832754D01*
X00831421Y00605628D01*
Y00604295D01*
X00832754Y00602962D01*
X00836753D01*
X00828755Y00610960D02*
X00826089D01*
X00827422D01*
Y00602962D01*
X00828755Y00604295D01*
X00853500Y00337460D02*
Y00345457D01*
X00857499D01*
X00858832Y00344124D01*
Y00341459D01*
X00857499Y00340126D01*
X00853500D01*
X00856166D02*
X00858832Y00337460D01*
X00866829D02*
X00861497D01*
X00866829Y00342792D01*
Y00344124D01*
X00865496Y00345457D01*
X00862830D01*
X00861497Y00344124D01*
X00873494Y00337460D02*
Y00345457D01*
X00869495Y00341459D01*
X00874827D01*
X00845250Y00657710D02*
Y00665707D01*
X00849249D01*
X00850582Y00664374D01*
Y00661709D01*
X00849249Y00660376D01*
X00845250D01*
X00847916D02*
X00850582Y00657710D01*
X00858579D02*
X00853247D01*
X00858579Y00663042D01*
Y00664374D01*
X00857246Y00665707D01*
X00854580D01*
X00853247Y00664374D01*
X00866577Y00665707D02*
X00861245D01*
Y00661709D01*
X00863911Y00663042D01*
X00865244D01*
X00866577Y00661709D01*
Y00659043D01*
X00865244Y00657710D01*
X00862578D01*
X00861245Y00659043D01*
X00908000Y00595210D02*
Y00603207D01*
X00911999D01*
X00913332Y00601875D01*
Y00599209D01*
X00911999Y00597876D01*
X00908000D01*
X00910666D02*
X00913332Y00595210D01*
X00921329D02*
X00915997D01*
X00921329Y00600542D01*
Y00601875D01*
X00919996Y00603207D01*
X00917330D01*
X00915997Y00601875D01*
X00929326Y00603207D02*
X00926661Y00601875D01*
X00923995Y00599209D01*
Y00596543D01*
X00925328Y00595210D01*
X00927994D01*
X00929326Y00596543D01*
Y00597876D01*
X00927994Y00599209D01*
X00923995D01*
X01002511Y00390389D02*
Y00398386D01*
X01006509D01*
X01007842Y00397053D01*
Y00394387D01*
X01006509Y00393054D01*
X01002511D01*
X01005176D02*
X01007842Y00390389D01*
X01015839D02*
X01010508D01*
X01015839Y00395720D01*
Y00397053D01*
X01014507Y00398386D01*
X01011841D01*
X01010508Y00397053D01*
X01002511Y00379460D02*
Y00387457D01*
X01006509D01*
X01007842Y00386124D01*
Y00383459D01*
X01006509Y00382126D01*
X01002511D01*
X01005176D02*
X01007842Y00379460D01*
X01010508Y00386124D02*
X01011841Y00387457D01*
X01014507D01*
X01015839Y00386124D01*
Y00384792D01*
X01014507Y00383459D01*
X01013174D01*
X01014507D01*
X01015839Y00382126D01*
Y00380793D01*
X01014507Y00379460D01*
X01011841D01*
X01010508Y00380793D01*
X00810082Y00579207D02*
X00807416D01*
X00808749D01*
Y00572543D01*
X00807416Y00571210D01*
X00806083D01*
X00804750Y00572543D01*
X00816746Y00571210D02*
Y00579207D01*
X00812747Y00575209D01*
X00818079D01*
X01086003Y00304960D02*
X01094000D01*
Y00310292D01*
X01086003Y00312957D02*
X01094000D01*
Y00316956D01*
X01092667Y00318289D01*
X01087336D01*
X01086003Y00316956D01*
Y00312957D01*
X01094000Y00326286D02*
Y00320955D01*
X01088668Y00326286D01*
X01087336D01*
X01086003Y00324953D01*
Y00322288D01*
X01087336Y00320955D01*
X01099503Y00304960D02*
X01107500D01*
Y00310292D01*
X01099503Y00312957D02*
X01107500D01*
Y00316956D01*
X01106167Y00318289D01*
X01100835D01*
X01099503Y00316956D01*
Y00312957D01*
X01100835Y00320955D02*
X01099503Y00322288D01*
Y00324953D01*
X01100835Y00326286D01*
X01102168D01*
X01103501Y00324953D01*
Y00323621D01*
Y00324953D01*
X01104834Y00326286D01*
X01106167D01*
X01107500Y00324953D01*
Y00322288D01*
X01106167Y00320955D01*
X01094000Y00331960D02*
X01086003D01*
Y00335959D01*
X01087336Y00337292D01*
X01090001D01*
X01091334Y00335959D01*
Y00331960D01*
Y00334626D02*
X01094000Y00337292D01*
Y00345289D02*
Y00339957D01*
X01088668Y00345289D01*
X01087336D01*
X01086003Y00343956D01*
Y00341290D01*
X01087336Y00339957D01*
Y00347955D02*
X01086003Y00349288D01*
Y00351954D01*
X01087336Y00353287D01*
X01088668D01*
X01090001Y00351954D01*
X01091334Y00353287D01*
X01092667D01*
X01094000Y00351954D01*
Y00349288D01*
X01092667Y00347955D01*
X01091334D01*
X01090001Y00349288D01*
X01088668Y00347955D01*
X01087336D01*
X01090001Y00349288D02*
Y00351954D01*
X01107500Y00331960D02*
X01099503D01*
Y00335959D01*
X01100835Y00337292D01*
X01103501D01*
X01104834Y00335959D01*
Y00331960D01*
Y00334626D02*
X01107500Y00337292D01*
Y00345289D02*
Y00339957D01*
X01102168Y00345289D01*
X01100835D01*
X01099503Y00343956D01*
Y00341290D01*
X01100835Y00339957D01*
X01106167Y00347955D02*
X01107500Y00349288D01*
Y00351954D01*
X01106167Y00353286D01*
X01100835D01*
X01099503Y00351954D01*
Y00349288D01*
X01100835Y00347955D01*
X01102168D01*
X01103501Y00349288D01*
Y00353286D01*
X01022500Y00309457D02*
X01027832D01*
X01025166D01*
Y00301460D01*
X01030497D02*
X01033163D01*
X01031830D01*
Y00309457D01*
X01030497Y00308125D01*
X00788503Y00648960D02*
Y00654292D01*
Y00651626D01*
X00796500D01*
Y00656957D02*
X00788503D01*
Y00660956D01*
X00789836Y00662289D01*
X00792501D01*
X00793834Y00660956D01*
Y00656957D01*
X00796500Y00664955D02*
Y00667621D01*
Y00666288D01*
X00788503D01*
X00789836Y00664955D01*
X00776003Y00648960D02*
Y00654292D01*
Y00651626D01*
X00784000D01*
Y00656957D02*
X00776003D01*
Y00660956D01*
X00777336Y00662289D01*
X00780001D01*
X00781334Y00660956D01*
Y00656957D01*
X00784000Y00670286D02*
Y00664955D01*
X00778668Y00670286D01*
X00777336D01*
X00776003Y00668953D01*
Y00666288D01*
X00777336Y00664955D01*
X00763503Y00648960D02*
Y00654292D01*
Y00651626D01*
X00771500D01*
Y00656957D02*
X00763503D01*
Y00660956D01*
X00764836Y00662289D01*
X00767501D01*
X00768834Y00660956D01*
Y00656957D01*
X00764836Y00664955D02*
X00763503Y00666288D01*
Y00668953D01*
X00764836Y00670286D01*
X00766168D01*
X00767501Y00668953D01*
Y00667621D01*
Y00668953D01*
X00768834Y00670286D01*
X00770167D01*
X00771500Y00668953D01*
Y00666288D01*
X00770167Y00664955D01*
X00751003Y00648960D02*
Y00654292D01*
Y00651626D01*
X00759000D01*
Y00656957D02*
X00751003D01*
Y00660956D01*
X00752336Y00662289D01*
X00755001D01*
X00756334Y00660956D01*
Y00656957D01*
X00759000Y00668953D02*
X00751003D01*
X00755001Y00664955D01*
Y00670286D01*
X01091692Y00626487D02*
X01097024D01*
X01094358D01*
Y00618490D01*
X01099689D02*
Y00626487D01*
X01103688D01*
X01105021Y00625154D01*
Y00622489D01*
X01103688Y00621156D01*
X01099689D01*
X01107687Y00618490D02*
X01110353D01*
X01109020D01*
Y00626487D01*
X01107687Y00625154D01*
X01114351D02*
X01115684Y00626487D01*
X01118350D01*
X01119683Y00625154D01*
Y00623822D01*
X01118350Y00622489D01*
X01117017D01*
X01118350D01*
X01119683Y00621156D01*
Y00619823D01*
X01118350Y00618490D01*
X01115684D01*
X01114351Y00619823D01*
X00996406Y00351427D02*
X01001738D01*
X00999072D01*
Y00343430D01*
X01004404D02*
Y00351427D01*
X01008402D01*
X01009735Y00350094D01*
Y00347428D01*
X01008402Y00346096D01*
X01004404D01*
X01012401Y00343430D02*
X01015067D01*
X01013734D01*
Y00351427D01*
X01012401Y00350094D01*
X01023064Y00343430D02*
Y00351427D01*
X01019066Y00347428D01*
X01024397D01*
X00789966Y00607581D02*
X00788633Y00606248D01*
Y00603582D01*
X00789966Y00602249D01*
X00795298D01*
X00796631Y00603582D01*
Y00606248D01*
X00795298Y00607581D01*
X00789966Y00615578D02*
X00788633Y00614245D01*
Y00611580D01*
X00789966Y00610247D01*
X00791299D01*
X00792632Y00611580D01*
Y00614245D01*
X00793965Y00615578D01*
X00795298D01*
X00796631Y00614245D01*
Y00611580D01*
X00795298Y00610247D01*
X00770317Y00602249D02*
X00762319D01*
X00764985Y00604915D01*
X00762319Y00607581D01*
X00770317D01*
X00762319Y00614245D02*
Y00611580D01*
X00763652Y00610247D01*
X00768984D01*
X00770317Y00611580D01*
Y00614245D01*
X00768984Y00615578D01*
X00763652D01*
X00762319Y00614245D01*
X00763652Y00623576D02*
X00762319Y00622243D01*
Y00619577D01*
X00763652Y00618244D01*
X00764985D01*
X00766318Y00619577D01*
Y00622243D01*
X00767651Y00623576D01*
X00768984D01*
X00770317Y00622243D01*
Y00619577D01*
X00768984Y00618244D01*
X00762319Y00626241D02*
Y00628907D01*
Y00627575D01*
X00770317D01*
Y00626241D01*
Y00628907D01*
X00757160Y00602249D02*
X00749163D01*
X00751828Y00604915D01*
X00749163Y00607581D01*
X00757160D01*
X00749163Y00610247D02*
Y00612912D01*
Y00611580D01*
X00757160D01*
Y00610247D01*
Y00612912D01*
X00750496Y00622243D02*
X00749163Y00620910D01*
Y00618244D01*
X00750496Y00616911D01*
X00751828D01*
X00753161Y00618244D01*
Y00620910D01*
X00754494Y00622243D01*
X00755827D01*
X00757160Y00620910D01*
Y00618244D01*
X00755827Y00616911D01*
X00749163Y00628907D02*
Y00626242D01*
X00750496Y00624909D01*
X00755827D01*
X00757160Y00626242D01*
Y00628907D01*
X00755827Y00630240D01*
X00750496D01*
X00749163Y00628907D01*
X00776809Y00607581D02*
X00775476Y00606248D01*
Y00603582D01*
X00776809Y00602249D01*
X00778142D01*
X00779475Y00603582D01*
Y00606248D01*
X00780808Y00607581D01*
X00782141D01*
X00783474Y00606248D01*
Y00603582D01*
X00782141Y00602249D01*
X00776809Y00615578D02*
X00775476Y00614245D01*
Y00611580D01*
X00776809Y00610247D01*
X00782141D01*
X00783474Y00611580D01*
Y00614245D01*
X00782141Y00615578D01*
X00775476Y00618244D02*
X00783474D01*
Y00623576D01*
X00775476Y00626241D02*
X00783474D01*
X00780808D01*
X00775476Y00631573D01*
X00779475Y00627575D01*
X00783474Y00631573D01*
D76*
X00619750Y00441500D02*
X00620000D01*
X00258000Y00292000D02*
X00258500D01*
D131*
X00323000Y00368250D02*
D03*
D132*
X00779750Y00299960D02*
D03*
M02*
